<svg width="240" height="179" viewBox="0 0 240 179" fill="none" xmlns="http://www.w3.org/2000/svg">
<g clip-path="url(#clip0_5653_65741)">
<mask id="mask0_5653_65741" style="mask-type:luminance" maskUnits="userSpaceOnUse" x="-195" y="0" width="584" height="179">
<path d="M240 0H0V179H240V0Z" fill="white"/>
<path d="M235.41 57.4626C195.339 11.3736 126.737 41.319 114.064 92.5445C76.9338 63.5772 9.55013 94.4139 3.71869 160.735C3.40537 162.727 3.82293 165.888 6.38165 164.264C47.1671 129.951 104.403 132.816 136.136 170.711C137.007 171.515 137.738 171.304 138.33 170.728C139.095 170.746 139.809 170.344 140.088 168.947C143.83 115.222 185.834 68.1719 235.288 62.232C237.969 61.5679 236.802 58.6504 235.41 57.4626ZM388.319 129.005C373.359 111.896 347.747 123.012 343.016 142.028C329.154 131.275 303.998 142.721 301.821 167.34C301.704 168.079 301.86 169.253 302.815 168.651C318.042 155.913 339.409 156.977 351.256 171.044C351.581 171.342 351.855 171.264 352.075 171.05C352.362 171.057 352.628 170.907 352.732 170.388C354.13 150.446 369.811 132.98 388.273 130.775C389.274 130.528 388.838 129.445 388.319 129.005ZM-77.4281 11.5799C-97.7311 -11.8137 -132.49 3.38599 -138.91 29.3867C-157.723 14.6837 -191.865 30.3358 -194.819 63.9987C-194.978 65.0097 -194.766 66.6149 -193.469 65.7898C-172.805 48.3735 -143.806 49.8276 -127.727 69.0621C-127.287 69.4699 -126.916 69.3634 -126.616 69.0711C-126.228 69.0801 -125.866 68.8757 -125.725 68.1666C-123.829 40.8976 -102.547 17.016 -77.4906 14.0008C-76.1322 13.6638 -76.7229 12.1829 -77.4281 11.5799Z" fill="black"/>
</mask>
<g mask="url(#mask0_5653_65741)">
<path d="M240 0H0V179H240V0Z" fill="#F9F0E4"/>
</g>
<path d="M194.14 142.027C198.872 123.012 224.483 111.896 239.443 129.004C239.963 129.445 240.398 130.528 239.398 130.775C220.935 132.98 205.253 150.446 203.856 170.389C203.752 170.908 203.486 171.057 203.2 171.05C202.979 171.264 202.706 171.342 202.38 171.044C190.534 156.977 169.166 155.913 153.939 168.651C152.984 169.254 152.828 168.08 152.945 167.341C155.122 142.722 180.278 131.275 194.14 142.027Z" fill="#E8D9C4"/>
<path d="M99.4982 29.38C105.919 3.37911 140.678 -11.8206 160.981 11.5731C161.686 12.1761 162.277 13.6571 160.919 13.9941C135.862 17.0092 114.58 40.8906 112.683 68.1598C112.542 68.8689 112.181 69.0728 111.793 69.0643C111.493 69.3567 111.123 69.4631 110.682 69.0553C94.6034 49.8207 65.6042 48.3663 44.9394 65.783C43.6429 66.6076 43.4312 65.0024 43.59 63.9914C46.5446 30.3288 80.6855 14.6769 99.4982 29.38Z" fill="#E8D9C4"/>
</g>
<defs>
<clipPath id="clip0_5653_65741">
<rect width="240" height="179" fill="white"/>
</clipPath>
</defs>
</svg>
