<svg width="300" height="223" viewBox="0 0 300 223" fill="none" xmlns="http://www.w3.org/2000/svg">
<g clip-path="url(#clip0_5653_65741)">
<mask id="mask0_5653_65741" style="mask-type:luminance" maskUnits="userSpaceOnUse" x="-244" y="0" width="731" height="223">
<path d="M300 0H0V223H300V0Z" fill="white"/>
<path d="M294.262 71.5877C244.173 14.1696 158.421 51.4759 142.58 115.293C96.1671 79.2054 11.9375 117.622 4.64822 200.246C4.25657 202.727 4.77852 206.666 7.97692 204.642C58.9587 161.894 130.503 165.464 170.17 212.674C171.258 213.675 172.172 213.413 172.912 212.695C173.869 212.717 174.761 212.216 175.109 210.476C179.788 143.545 232.293 84.9295 294.11 77.5296C297.461 76.7022 296.003 73.0676 294.262 71.5877ZM485.398 160.716C466.698 139.402 434.684 153.25 428.77 176.94C411.443 163.544 379.997 177.804 377.276 208.474C377.129 209.395 377.325 210.858 378.518 210.107C397.552 194.238 424.261 195.563 439.07 213.088C439.476 213.46 439.818 213.363 440.094 213.096C440.452 213.104 440.785 212.918 440.915 212.272C442.662 187.427 462.263 165.668 485.341 162.921C486.592 162.614 486.048 161.265 485.398 160.716ZM-96.7853 14.4266C-122.164 -14.7174 -165.612 4.21858 -173.638 36.6105C-197.154 18.2934 -239.831 37.7929 -243.524 79.7305C-243.722 80.99 -243.457 82.9898 -241.837 81.9619C-216.006 60.2644 -179.757 62.0761 -159.659 86.0385C-159.108 86.5465 -158.645 86.4139 -158.27 86.0497C-157.785 86.061 -157.333 85.8063 -157.157 84.9229C-154.786 50.9509 -128.184 21.199 -96.8634 17.4426C-95.1654 17.0228 -95.9038 15.1779 -96.7853 14.4266Z" fill="black"/>
</mask>
<g mask="url(#mask0_5653_65741)">
<path d="M300 0H0V223H300V0Z" fill="#F9F0E4"/>
</g>
<path d="M242.675 176.939C248.589 153.25 280.603 139.401 299.304 160.715C299.954 161.265 300.498 162.614 299.247 162.921C276.168 165.668 256.566 187.427 254.82 212.272C254.69 212.919 254.357 213.104 253.999 213.096C253.723 213.363 253.382 213.46 252.975 213.089C238.167 195.563 211.457 194.238 192.424 210.107C191.23 210.859 191.034 209.396 191.181 208.475C193.902 177.804 225.348 163.544 242.675 176.939Z" fill="#E8D9C4"/>
<path d="M124.373 36.6019C132.399 4.20973 175.847 -14.7262 201.226 14.4179C202.107 15.1691 202.846 17.0142 201.148 17.434C169.827 21.1902 143.225 50.942 140.854 84.9142C140.678 85.7976 140.227 86.0516 139.741 86.041C139.366 86.4052 138.903 86.5378 138.352 86.0298C118.254 62.0671 82.0054 60.2552 56.1744 81.9531C54.5538 82.9804 54.2892 80.9807 54.4876 79.7212C58.1809 37.784 100.857 18.2846 124.373 36.6019Z" fill="#E8D9C4"/>
</g>
<defs>
<clipPath id="clip0_5653_65741">
<rect width="300" height="223" fill="white"/>
</clipPath>
</defs>
</svg>
