<svg width="320" height="238" viewBox="0 0 320 238" fill="none" xmlns="http://www.w3.org/2000/svg">
<g clip-path="url(#clip0_5653_65741)">
<mask id="mask0_5653_65741" style="mask-type:luminance" maskUnits="userSpaceOnUse" x="-260" y="0" width="779" height="238">
<path d="M320 0H0V238H320V0Z" fill="white"/>
<path d="M313.88 76.403C260.451 15.1226 168.982 54.9383 152.085 123.048C102.578 84.533 12.7333 125.534 4.95807 213.715C4.54031 216.363 5.09706 220.567 8.50868 218.407C62.8893 172.784 139.204 176.594 181.515 226.979C182.676 228.048 183.65 227.768 184.44 227.002C185.46 227.025 186.412 226.491 186.783 224.633C191.773 153.201 247.779 90.6421 313.717 82.7445C317.292 81.8615 315.736 77.9823 313.88 76.403ZM517.758 171.526C497.811 148.778 463.663 163.558 457.354 188.842C438.872 174.544 405.33 189.763 402.427 222.497C402.271 223.48 402.48 225.041 403.753 224.24C424.055 207.304 452.545 208.718 468.342 227.422C468.775 227.818 469.139 227.715 469.434 227.43C469.815 227.439 470.171 227.24 470.309 226.55C472.172 200.034 493.081 176.811 517.697 173.879C519.032 173.552 518.451 172.112 517.758 171.526ZM-103.238 15.3969C-130.308 -15.7074 -176.653 4.50223 -185.214 39.073C-210.298 19.5238 -255.82 40.335 -259.759 85.0935C-259.971 86.4377 -259.688 88.5719 -257.959 87.4749C-230.406 64.318 -191.741 66.2515 -170.303 91.8258C-169.716 92.368 -169.221 92.2264 -168.821 91.8377C-168.304 91.8497 -167.822 91.5779 -167.634 90.6351C-165.105 54.3779 -136.73 22.6248 -103.321 18.6158C-101.51 18.1677 -102.297 16.1987 -103.238 15.3969Z" fill="black"/>
</mask>
<g mask="url(#mask0_5653_65741)">
<path d="M320 0H0V238H320V0Z" fill="#F9F0E4"/>
</g>
<path d="M258.854 188.841C265.162 163.558 299.31 148.778 319.258 171.526C319.951 172.112 320.531 173.552 319.197 173.88C294.579 176.812 273.671 200.034 271.808 226.551C271.669 227.241 271.314 227.439 270.933 227.43C270.638 227.715 270.274 227.818 269.84 227.422C254.045 208.718 225.554 207.304 205.252 224.24C203.978 225.042 203.77 223.481 203.926 222.498C206.829 189.764 240.371 174.544 258.854 188.841Z" fill="#E8D9C4"/>
<path d="M132.664 39.0639C141.225 4.4929 187.57 -15.7167 214.641 15.3877C215.581 16.1895 216.369 18.1586 214.558 18.6067C181.149 22.6156 152.773 54.3685 150.244 90.6259C150.056 91.5687 149.575 91.8398 149.057 91.8286C148.657 92.2172 148.163 92.3588 147.576 91.8166C126.138 66.242 87.4721 64.3083 59.919 87.4657C58.1904 88.562 57.9081 86.4278 58.1198 85.0836C62.0593 40.3255 107.581 19.5145 132.664 39.0639Z" fill="#E8D9C4"/>
</g>
<defs>
<clipPath id="clip0_5653_65741">
<rect width="320" height="238" fill="white"/>
</clipPath>
</defs>
</svg>
