<svg width="346" height="258" viewBox="0 0 346 258" fill="none" xmlns="http://www.w3.org/2000/svg">
<g clip-path="url(#clip0_5653_65741)">
<mask id="mask0_5653_65741" style="mask-type:luminance" maskUnits="userSpaceOnUse" x="-281" y="0" width="842" height="258">
<path d="M346 0H0V258H346V0Z" fill="white"/>
<path d="M339.383 82.8236C281.613 16.3936 182.712 59.5552 164.442 133.388C110.913 91.6368 13.7679 136.083 5.3609 231.674C4.9092 234.545 5.51119 239.102 9.2 236.761C67.999 187.304 150.514 191.434 196.263 246.054C197.518 247.212 198.572 246.909 199.425 246.078C200.529 246.103 201.558 245.524 201.96 243.51C207.355 166.075 267.911 98.2593 339.207 89.698C343.072 88.7408 341.39 84.5357 339.383 82.8236ZM559.826 185.94C538.259 161.281 501.335 177.303 494.514 204.711C474.53 189.212 438.263 205.71 435.125 241.194C434.956 242.26 435.181 243.952 436.557 243.084C458.51 224.724 489.314 226.257 506.394 246.533C506.863 246.963 507.257 246.85 507.575 246.542C507.988 246.551 508.372 246.336 508.522 245.588C510.536 216.844 533.143 191.67 559.76 188.491C561.203 188.136 560.575 186.575 559.826 185.94ZM-111.626 16.691C-140.896 -17.0272 -191.006 4.88077 -200.263 42.3566C-227.384 21.1646 -276.605 43.7247 -280.865 92.2444C-281.093 93.7015 -280.788 96.0151 -278.919 94.8259C-249.127 69.723 -207.32 71.819 -184.141 99.5424C-183.505 100.13 -182.97 99.9767 -182.538 99.5554C-181.979 99.5684 -181.457 99.2737 -181.254 98.2516C-178.52 58.9477 -147.839 24.5262 -111.716 20.1803C-109.757 19.6946 -110.609 17.5602 -111.626 16.691Z" fill="black"/>
</mask>
<g mask="url(#mask0_5653_65741)">
<path d="M346 0H0V258H346V0Z" fill="#F9F0E4"/>
</g>
<path d="M279.886 204.71C286.706 177.303 323.629 161.28 345.197 185.939C345.947 186.575 346.574 188.136 345.132 188.492C318.514 191.67 295.906 216.844 293.892 245.589C293.743 246.337 293.358 246.551 292.946 246.542C292.627 246.85 292.234 246.963 291.765 246.533C274.686 226.257 243.88 224.724 221.929 243.083C220.552 243.953 220.326 242.261 220.495 241.195C223.634 205.711 259.901 189.212 279.886 204.71Z" fill="#E8D9C4"/>
<path d="M143.443 42.3466C152.7 4.87045 202.81 -17.0375 232.08 16.6808C233.097 17.5499 233.949 19.6845 231.991 20.1702C195.867 24.516 165.186 58.9373 162.452 98.2415C162.249 99.2636 161.728 99.5574 161.168 99.5452C160.735 99.9666 160.202 100.12 159.566 99.5323C136.386 71.8086 94.5792 69.7123 64.7875 94.8157C62.9184 96.0042 62.6132 93.6906 62.8421 92.2335C67.1016 43.7142 116.321 21.1544 143.443 42.3466Z" fill="#E8D9C4"/>
</g>
<defs>
<clipPath id="clip0_5653_65741">
<rect width="346" height="258" fill="white"/>
</clipPath>
</defs>
</svg>
