<svg width="359" height="267" viewBox="0 0 359 267" fill="none" xmlns="http://www.w3.org/2000/svg">
<g clip-path="url(#clip0_5653_65741)">
<mask id="mask0_5653_65741" style="mask-type:luminance" maskUnits="userSpaceOnUse" x="-292" y="0" width="874" height="267">
<path d="M359 0H0V267H359V0Z" fill="white"/>
<path d="M352.134 85.7124C292.194 16.9651 189.577 61.6323 170.62 138.041C115.08 94.833 14.2852 140.83 5.56234 239.756C5.09367 242.727 5.71827 247.443 9.54569 245.02C70.5539 193.837 156.169 198.111 203.637 254.637C204.939 255.835 206.033 255.521 206.918 254.662C208.063 254.688 209.131 254.088 209.548 252.004C215.146 171.868 277.977 101.687 351.952 92.8266C355.962 91.836 354.217 87.4842 352.134 85.7124ZM580.86 192.426C558.482 166.906 520.171 183.487 513.094 211.852C492.36 195.812 454.73 212.886 451.473 249.608C451.298 250.71 451.532 252.462 452.96 251.563C475.737 232.563 507.699 234.149 525.421 255.133C525.907 255.577 526.316 255.461 526.646 255.142C527.074 255.152 527.473 254.929 527.628 254.155C529.719 224.408 553.175 198.356 580.792 195.066C582.289 194.699 581.637 193.084 580.86 192.426ZM-115.82 17.2729C-146.19 -17.6215 -198.183 5.05067 -207.787 43.8338C-235.928 21.9026 -286.998 45.2496 -291.417 95.4618C-291.654 96.9698 -291.337 99.3642 -289.398 98.1334C-258.487 72.1549 -215.11 74.324 -191.059 103.014C-190.4 103.623 -189.845 103.464 -189.396 103.028C-188.816 103.041 -188.275 102.736 -188.064 101.679C-185.227 61.0037 -153.393 25.3815 -115.913 20.8839C-113.881 20.3813 -114.765 18.1724 -115.82 17.2729Z" fill="black"/>
</mask>
<g mask="url(#mask0_5653_65741)">
<path d="M359 0H0V267H359V0Z" fill="#F9F0E4"/>
</g>
<path d="M290.402 211.851C297.479 183.487 335.789 166.906 358.167 192.426C358.945 193.084 359.596 194.699 358.099 195.067C330.481 198.356 307.024 224.408 304.934 254.156C304.779 254.93 304.381 255.152 303.953 255.142C303.622 255.461 303.214 255.577 302.727 255.133C285.006 234.149 253.044 232.563 230.267 251.563C228.838 252.463 228.605 250.711 228.78 249.609C232.036 212.887 269.666 195.812 290.402 211.851Z" fill="#E8D9C4"/>
<path d="M148.833 43.8238C158.437 5.04035 210.43 -17.6318 240.8 17.2627C241.855 18.1621 242.739 20.3712 240.708 20.8739C203.226 25.3712 171.393 60.9933 168.556 101.669C168.345 102.726 167.804 103.03 167.223 103.018C166.775 103.454 166.221 103.613 165.562 103.004C141.511 74.3135 98.133 72.1442 67.2219 98.1233C65.2826 99.3532 64.9659 96.9589 65.2034 95.4509C69.623 45.2391 120.692 21.8923 148.833 43.8238Z" fill="#E8D9C4"/>
</g>
<defs>
<clipPath id="clip0_5653_65741">
<rect width="359" height="267" fill="white"/>
</clipPath>
</defs>
</svg>
