<svg width="427" height="318" viewBox="0 0 427 318" fill="none" xmlns="http://www.w3.org/2000/svg">
<g clip-path="url(#clip0_5653_65741)">
<mask id="mask0_5653_65741" style="mask-type:luminance" maskUnits="userSpaceOnUse" x="-347" y="0" width="1039" height="318">
<path d="M427 0H0V318H427V0Z" fill="white"/>
<path d="M418.833 102.084C347.539 20.2056 225.485 73.4048 202.938 164.409C136.878 112.947 16.9908 167.73 6.61573 285.552C6.05828 289.09 6.80119 294.707 11.3536 291.821C83.9177 230.862 185.75 235.953 242.209 303.275C243.758 304.702 245.058 304.329 246.111 303.305C247.473 303.336 248.743 302.622 249.239 300.14C255.897 204.697 330.63 121.11 418.616 110.558C423.386 109.378 421.31 104.195 418.833 102.084ZM690.883 229.182C664.267 198.787 618.699 218.535 610.282 252.318C585.62 233.214 540.862 253.549 536.989 297.286C536.78 298.599 537.059 300.685 538.757 299.614C565.849 276.985 603.865 278.875 624.943 303.866C625.521 304.395 626.007 304.257 626.4 303.877C626.909 303.888 627.384 303.623 627.568 302.701C630.055 267.272 657.954 236.244 690.802 232.326C692.583 231.889 691.808 229.965 690.883 229.182ZM-137.758 20.5722C-173.88 -20.9874 -235.722 6.0154 -247.145 52.2066C-280.616 26.0862 -341.36 53.8927 -346.617 113.696C-346.898 115.492 -346.521 118.344 -344.215 116.878C-307.448 85.9373 -255.855 88.5207 -227.249 122.691C-226.465 123.416 -225.805 123.227 -225.271 122.707C-224.581 122.723 -223.937 122.36 -223.687 121.1C-220.312 72.6561 -182.449 30.2296 -137.869 24.873C-135.452 24.2743 -136.503 21.6435 -137.758 20.5722Z" fill="black"/>
</mask>
<g mask="url(#mask0_5653_65741)">
<path d="M427 0H0V318H427V0Z" fill="#F9F0E4"/>
</g>
<path d="M345.408 252.317C353.826 218.536 399.392 198.787 426.009 229.181C426.934 229.965 427.709 231.889 425.928 232.327C393.079 236.244 365.179 267.273 362.694 302.702C362.509 303.624 362.035 303.889 361.526 303.877C361.133 304.258 360.647 304.396 360.068 303.866C338.991 278.875 300.974 276.986 273.883 299.615C272.184 300.686 271.906 298.6 272.114 297.287C275.987 253.551 320.745 233.215 345.408 252.317Z" fill="#E8D9C4"/>
<path d="M177.024 52.1946C188.447 6.00312 250.289 -20.9997 286.411 20.5601C287.666 21.6313 288.718 24.2623 286.301 24.861C241.72 30.2174 203.857 72.6437 200.482 121.088C200.232 122.348 199.589 122.71 198.898 122.695C198.364 123.215 197.706 123.404 196.921 122.679C168.315 88.5082 116.721 85.9245 79.9545 116.866C77.6479 118.331 77.2712 115.479 77.5537 113.683C82.8105 53.8803 143.553 26.074 177.024 52.1946Z" fill="#E8D9C4"/>
</g>
<defs>
<clipPath id="clip0_5653_65741">
<rect width="427" height="318" fill="white"/>
</clipPath>
</defs>
</svg>
