<svg width="440" height="328" viewBox="0 0 440 328" fill="none" xmlns="http://www.w3.org/2000/svg">
<g clip-path="url(#clip0_5653_65741)">
<mask id="mask0_5653_65741" style="mask-type:luminance" maskUnits="userSpaceOnUse" x="-358" y="0" width="1071" height="328">
<path d="M440 0H0V328H440V0Z" fill="white"/>
<path d="M431.585 105.295C358.12 20.8411 232.35 75.7132 209.117 169.579C141.045 116.499 17.5081 173.004 6.81714 294.531C6.24273 298.181 7.00826 303.974 11.6992 300.998C86.4725 238.122 191.405 243.373 249.583 312.812C251.179 314.284 252.519 313.899 253.604 312.843C255.008 312.875 256.316 312.139 256.827 309.579C263.688 211.134 340.696 124.918 431.361 114.034C436.276 112.817 434.137 107.471 431.585 105.295ZM711.917 236.389C684.49 205.039 637.536 225.408 628.862 260.252C603.449 240.548 557.328 261.523 553.337 306.634C553.123 307.989 553.409 310.14 555.16 309.036C583.076 285.696 622.249 287.644 643.97 313.421C644.565 313.968 645.066 313.825 645.471 313.433C645.996 313.445 646.484 313.171 646.675 312.22C649.237 275.677 677.986 243.673 711.833 239.632C713.668 239.181 712.87 237.196 711.917 236.389ZM-141.952 21.2192C-179.174 -21.6473 -242.898 6.20467 -254.67 53.8484C-289.16 26.9066 -351.752 55.5876 -357.169 117.272C-357.46 119.124 -357.071 122.065 -354.694 120.554C-316.809 88.6398 -263.644 91.3045 -234.167 126.55C-233.359 127.297 -232.679 127.102 -232.13 126.566C-231.419 126.583 -230.755 126.208 -230.497 124.909C-227.02 74.9409 -188.003 31.1803 -142.067 25.6553C-139.576 25.0378 -140.659 22.3242 -141.952 21.2192Z" fill="black"/>
</mask>
<g mask="url(#mask0_5653_65741)">
<path d="M440 0H0V328H440V0Z" fill="#F9F0E4"/>
</g>
<path d="M355.924 260.252C364.598 225.408 411.552 205.038 438.979 236.388C439.932 237.196 440.73 239.181 438.896 239.633C405.047 243.673 376.297 275.677 373.736 312.221C373.545 313.172 373.057 313.445 372.532 313.433C372.127 313.825 371.627 313.968 371.031 313.421C349.311 287.644 310.137 285.696 282.222 309.036C280.47 310.141 280.184 307.99 280.399 306.635C284.39 261.524 330.51 240.548 355.924 260.252Z" fill="#E8D9C4"/>
<path d="M182.414 53.8359C194.185 6.19189 257.909 -21.66 295.131 21.2066C296.424 22.3116 297.508 25.0253 295.018 25.6428C249.08 31.1676 210.064 74.9281 206.586 124.896C206.328 126.196 205.666 126.569 204.954 126.554C204.404 127.089 203.725 127.284 202.917 126.537C173.44 91.2915 120.274 88.6265 82.389 120.541C80.0121 122.052 79.624 119.111 79.9151 117.258C85.3319 55.5746 147.924 26.8939 182.414 53.8359Z" fill="#E8D9C4"/>
</g>
<defs>
<clipPath id="clip0_5653_65741">
<rect width="440" height="328" fill="white"/>
</clipPath>
</defs>
</svg>
