<svg width="80" height="80" viewBox="0 0 80 80" fill="none" xmlns="http://www.w3.org/2000/svg">
<path d="M11.0568 62.5077C6.84299 57.0894 4.23462 50.5971 3.52852 43.7697C2.82244 36.9421 4.04696 30.0534 7.06279 23.8875C10.0786 17.7215 14.7646 12.5259 20.5876 8.89183C26.4106 5.25773 33.1367 3.33105 40.0007 3.33105C46.8647 3.33105 53.5907 5.25773 59.4137 8.89183C65.2367 12.5259 69.9227 17.7215 72.9387 23.8875C75.9543 30.0534 77.179 36.9421 76.4727 43.7697C75.7667 50.5971 73.1583 57.0894 68.9447 62.5077" stroke="#BBBBBF" stroke-width="3" stroke-linecap="round" stroke-linejoin="round"/>
<path d="M27.3452 37.9658C26.6702 37.9658 26.123 37.4188 26.123 36.7435C26.123 36.0685 26.6702 35.5215 27.3452 35.5215" stroke="#BBBBBF" stroke-width="3"/>
<path d="M27.3457 37.9658C28.0207 37.9658 28.5679 37.4188 28.5679 36.7435C28.5679 36.0685 28.0207 35.5215 27.3457 35.5215" stroke="#BBBBBF" stroke-width="3"/>
<path d="M54.2341 37.9658C53.5591 37.9658 53.0117 37.4188 53.0117 36.7435C53.0117 36.0685 53.5591 35.5215 54.2341 35.5215" stroke="#BBBBBF" stroke-width="3"/>
<path d="M54.2344 37.9658C54.9094 37.9658 55.4567 37.4188 55.4567 36.7435C55.4567 36.0685 54.9094 35.5215 54.2344 35.5215" stroke="#BBBBBF" stroke-width="3"/>
<path d="M30.6641 19.0328C28.0943 18.4734 25.4107 18.808 23.0569 19.9812C20.6712 21.0893 18.7349 22.9784 17.5684 25.3362" stroke="#BBBBBF" stroke-width="3" stroke-linecap="round" stroke-linejoin="round"/>
<path d="M49.737 48.8906C47.923 48.1199 45.9063 47.9639 43.9953 48.4473C42.0843 48.9303 40.384 50.0259 39.1543 51.5666" stroke="#BBBBBF" stroke-width="3" stroke-linecap="round" stroke-linejoin="round"/>
<path d="M49.3457 23.9468C51.917 23.4256 54.5887 23.7594 56.953 24.8974C59.3174 26.0354 61.2447 27.9152 62.4414 30.2502" stroke="#BBBBBF" stroke-width="3" stroke-linecap="round" stroke-linejoin="round"/>
<path d="M17.1895 72.5266L25.3376 69.2673L23.8938 63.3126C23.6146 62.162 23.7822 60.948 24.3629 59.916C24.9436 58.8843 25.8941 58.111 27.0227 57.7523C27.6315 57.561 28.2731 57.4963 28.908 57.562C29.5428 57.628 30.1574 57.823 30.714 58.1353C31.2706 58.4476 31.7574 58.8706 32.1444 59.3783C32.5314 59.8856 32.8104 60.467 32.9643 61.0866L34.2158 66.1416L52.1058 58.8246C52.6538 58.6003 53.2411 58.4863 53.8331 58.49C54.4254 58.4933 55.0111 58.614 55.5564 58.845C56.1018 59.0756 56.5958 59.4123 57.0108 59.835C57.4254 60.2576 57.7521 60.7583 57.9724 61.3083C58.3991 62.3746 58.4004 63.564 57.9758 64.6313C57.5514 65.6986 56.7338 66.5623 55.6911 67.0443L48.9671 70.1506L49.7071 75.3653C49.7674 75.797 49.7884 76.2336 49.7691 76.669" stroke="#BBBBBF" stroke-width="3" stroke-linecap="round" stroke-linejoin="round"/>
</svg>
