<svg width="240" height="400" viewBox="0 0 240 400" fill="none" xmlns="http://www.w3.org/2000/svg">
<rect width="240" height="400" fill="#F9F0E4"/>
<g opacity="0.25">
<path d="M134.233 141.595L134.185 141.613C134.186 141.604 134.186 141.597 134.187 141.588C134.183 141.475 134.125 141.364 134.053 141.373C133.981 141.382 133.932 141.507 133.945 141.617C133.951 141.669 133.968 141.708 133.991 141.735C133.852 141.681 133.663 141.681 133.453 141.709C133.258 141.752 133.046 141.829 132.885 141.935C132.727 142.046 132.63 142.158 132.581 142.264C132.56 142.306 132.521 142.342 132.476 142.356C132.353 142.392 132.232 142.471 132.143 142.592C132.017 142.754 132.019 142.976 132.113 143.132C132.299 143.429 132.687 143.447 132.929 143.253C132.99 143.202 133.034 143.139 133.064 143.07C133.081 143.028 133.12 143.002 133.165 143.001C133.274 142.996 133.39 142.956 133.518 142.865C133.647 142.781 133.775 142.676 133.884 142.55C133.998 142.443 134.093 142.307 134.153 142.188C134.154 142.222 134.167 142.262 134.193 142.308C134.251 142.405 134.34 142.49 134.381 142.466C134.423 142.443 134.41 142.318 134.362 142.218C134.357 142.21 134.354 142.205 134.35 142.198C134.363 142.196 134.377 142.194 134.391 142.19C134.566 142.142 134.699 141.997 134.682 141.823C134.668 141.659 134.46 141.534 134.233 141.595Z" fill="black"/>
<path d="M130.169 145.915L130.142 145.958C130.137 145.951 130.133 145.945 130.128 145.937C130.055 145.85 129.94 145.795 129.888 145.845C129.837 145.895 129.874 146.023 129.953 146.103C129.99 146.141 130.027 146.162 130.062 146.17C129.919 146.209 129.768 146.322 129.618 146.468C129.489 146.618 129.367 146.804 129.304 146.984C129.246 147.167 129.238 147.313 129.265 147.426C129.275 147.472 129.265 147.524 129.238 147.562C129.162 147.663 129.114 147.798 129.118 147.947C129.117 148.151 129.256 148.326 129.427 148.395C129.758 148.522 130.078 148.306 130.152 148.009C130.169 147.932 130.166 147.856 130.146 147.783C130.134 147.739 130.149 147.696 130.185 147.668C130.268 147.6 130.336 147.5 130.382 147.351C130.433 147.207 130.471 147.049 130.479 146.883C130.504 146.731 130.497 146.566 130.471 146.436C130.493 146.462 130.527 146.487 130.577 146.507C130.683 146.551 130.806 146.565 130.824 146.522C130.843 146.479 130.756 146.387 130.656 146.336C130.648 146.333 130.642 146.33 130.634 146.327C130.644 146.317 130.653 146.308 130.662 146.297C130.771 146.155 130.788 145.96 130.668 145.831C130.555 145.709 130.312 145.733 130.169 145.915Z" fill="black"/>
<path d="M128.378 146.127L128.342 146.163C128.339 146.155 128.336 146.149 128.333 146.141C128.28 146.04 128.179 145.964 128.118 146.002C128.057 146.041 128.067 146.174 128.127 146.268C128.155 146.313 128.188 146.34 128.22 146.355C128.071 146.365 127.9 146.445 127.723 146.558C127.566 146.679 127.407 146.837 127.308 147C127.214 147.167 127.175 147.309 127.178 147.425C127.178 147.473 127.158 147.521 127.124 147.553C127.027 147.637 126.953 147.759 126.925 147.906C126.882 148.105 126.981 148.305 127.135 148.407C127.433 148.597 127.791 148.45 127.925 148.173C127.957 148.101 127.97 148.026 127.967 147.951C127.964 147.905 127.987 147.866 128.028 147.846C128.124 147.796 128.212 147.712 128.287 147.575C128.367 147.445 128.437 147.297 128.48 147.136C128.536 146.993 128.563 146.829 128.565 146.697C128.581 146.727 128.609 146.758 128.653 146.788C128.748 146.852 128.865 146.891 128.893 146.852C128.92 146.813 128.854 146.706 128.767 146.636C128.759 146.631 128.754 146.628 128.747 146.623C128.758 146.616 128.77 146.609 128.78 146.599C128.918 146.482 128.975 146.295 128.883 146.145C128.798 146.002 128.556 145.977 128.378 146.127Z" fill="black"/>
<path d="M137.644 142.019L137.599 142.018C137.602 142.011 137.605 142.005 137.609 141.996C137.643 141.889 137.633 141.765 137.58 141.749C137.525 141.735 137.456 141.826 137.417 141.932C137.399 141.981 137.395 142.023 137.4 142.057C137.236 141.851 136.913 141.626 136.574 141.527C136.408 141.478 136.256 141.474 136.146 141.503C136.101 141.514 136.046 141.508 136.007 141.478C135.904 141.398 135.762 141.349 135.598 141.359C135.38 141.364 135.189 141.515 135.141 141.686C135.058 142.021 135.278 142.314 135.56 142.371C135.633 142.384 135.711 142.386 135.783 142.368C135.826 142.358 135.869 142.37 135.9 142.404C135.976 142.486 136.078 142.548 136.251 142.599C136.58 142.697 137.074 142.696 137.328 142.532C137.312 142.562 137.302 142.603 137.306 142.656C137.313 142.767 137.386 142.888 137.448 142.881C137.513 142.876 137.55 142.756 137.538 142.645C137.536 142.636 137.535 142.63 137.533 142.622L137.581 142.631C137.797 142.654 137.981 142.525 137.989 142.354C137.996 142.185 137.842 142.041 137.644 142.019Z" fill="black"/>
<path d="M140.685 141.416L140.65 141.442C140.648 141.434 140.646 141.428 140.644 141.419C140.604 141.313 140.52 141.223 140.469 141.238C140.418 141.253 140.415 141.375 140.45 141.481C140.467 141.531 140.489 141.567 140.515 141.59C140.246 141.528 139.857 141.559 139.569 141.638C139.424 141.687 139.318 141.735 139.246 141.814C139.216 141.846 139.172 141.857 139.131 141.842C139.022 141.804 138.906 141.811 138.783 141.85C138.618 141.913 138.481 142.062 138.441 142.241C138.36 142.576 138.648 142.877 139.033 142.836C139.128 142.823 139.215 142.791 139.287 142.746C139.33 142.721 139.385 142.715 139.432 142.728C139.548 142.759 139.704 142.772 139.895 142.71C140.28 142.604 140.662 142.284 140.752 142.01C140.758 142.044 140.776 142.083 140.812 142.122C140.887 142.206 141.01 142.259 141.062 142.218C141.114 142.177 141.068 142.057 140.99 141.977C140.983 141.971 140.978 141.967 140.972 141.962L141.015 141.939C141.204 141.824 141.267 141.612 141.164 141.472C141.064 141.337 140.851 141.315 140.685 141.416Z" fill="black"/>
<path d="M141.048 138.891L141.025 138.928C141.02 138.921 141.016 138.916 141.011 138.908C140.936 138.822 140.826 138.766 140.783 138.797C140.74 138.829 140.781 138.944 140.851 139.032C140.884 139.073 140.918 139.099 140.95 139.112C140.676 139.145 140.322 139.306 140.079 139.478C139.96 139.573 139.878 139.653 139.838 139.752C139.822 139.792 139.785 139.817 139.741 139.818C139.625 139.818 139.519 139.864 139.417 139.943C139.284 140.058 139.209 140.244 139.234 140.425C139.276 140.767 139.652 140.952 140 140.783C140.084 140.739 140.154 140.679 140.206 140.613C140.237 140.574 140.287 140.551 140.336 140.547C140.455 140.537 140.606 140.496 140.764 140.373C141.087 140.143 141.333 139.713 141.321 139.426C141.339 139.456 141.369 139.486 141.416 139.511C141.517 139.564 141.651 139.572 141.686 139.516C141.72 139.46 141.634 139.362 141.532 139.314C141.524 139.311 141.518 139.309 141.51 139.306L141.543 139.27C141.679 139.098 141.664 138.878 141.518 138.782C141.376 138.689 141.168 138.741 141.048 138.891Z" fill="black"/>
<path d="M143.01 139.237L142.988 139.274C142.982 139.268 142.978 139.262 142.973 139.255C142.893 139.176 142.776 139.126 142.735 139.162C142.695 139.198 142.744 139.311 142.822 139.393C142.858 139.431 142.894 139.454 142.927 139.465C142.657 139.52 142.307 139.72 142.084 139.945C141.963 140.062 141.898 140.175 141.871 140.281C141.86 140.323 141.828 140.358 141.785 140.371C141.669 140.405 141.566 140.48 141.488 140.589C141.385 140.741 141.369 140.944 141.449 141.109C141.597 141.422 142.007 141.483 142.279 141.245C142.345 141.185 142.394 141.114 142.425 141.04C142.444 140.996 142.484 140.964 142.531 140.954C142.644 140.927 142.765 140.858 142.895 140.731C143.159 140.466 143.358 140.034 143.323 139.748C143.343 139.777 143.376 139.804 143.425 139.825C143.53 139.871 143.663 139.869 143.691 139.811C143.72 139.753 143.63 139.664 143.524 139.622C143.515 139.62 143.508 139.618 143.501 139.616L143.532 139.579C143.65 139.396 143.622 139.178 143.472 139.094C143.321 139.01 143.114 139.074 143.01 139.237Z" fill="black"/>
<path d="M130.859 142.866L130.846 142.908C130.839 142.903 130.834 142.899 130.827 142.893C130.73 142.835 130.604 142.813 130.574 142.857C130.543 142.902 130.618 143 130.713 143.062C130.758 143.091 130.799 143.105 130.833 143.108C130.584 143.224 130.292 143.499 130.13 143.769C130.04 143.912 130.005 144.036 130.005 144.145C130.004 144.189 129.981 144.23 129.942 144.253C129.838 144.313 129.756 144.409 129.706 144.533C129.643 144.705 129.676 144.905 129.794 145.047C130.013 145.318 130.427 145.282 130.634 144.987C130.683 144.914 130.713 144.834 130.726 144.754C130.733 144.707 130.764 144.667 130.808 144.646C130.911 144.594 131.012 144.499 131.108 144.345C131.301 144.027 131.39 143.561 131.286 143.291C131.313 143.314 131.352 143.333 131.404 143.342C131.517 143.362 131.645 143.33 131.659 143.267C131.673 143.204 131.565 143.138 131.451 143.122C131.442 143.122 131.435 143.121 131.427 143.121L131.449 143.078C131.519 142.873 131.44 142.668 131.273 142.621C131.106 142.574 130.92 142.684 130.859 142.866Z" fill="black"/>
<path d="M143.999 136.291L144.001 136.335C143.992 136.332 143.986 136.33 143.978 136.326C143.866 136.298 143.741 136.313 143.726 136.365C143.71 136.416 143.811 136.489 143.92 136.521C143.971 136.536 144.014 136.538 144.048 136.53C143.845 136.714 143.65 137.065 143.576 137.365C143.535 137.517 143.539 137.64 143.565 137.74C143.576 137.781 143.566 137.826 143.535 137.856C143.456 137.937 143.39 138.038 143.377 138.169C143.356 138.344 143.426 138.53 143.574 138.649C143.838 138.87 144.249 138.758 144.382 138.409C144.417 138.324 144.43 138.237 144.42 138.153C144.416 138.104 144.436 138.056 144.472 138.023C144.564 137.944 144.635 137.818 144.683 137.634C144.775 137.271 144.716 136.802 144.536 136.575C144.568 136.59 144.611 136.596 144.664 136.59C144.778 136.577 144.892 136.51 144.887 136.446C144.88 136.382 144.755 136.35 144.642 136.367C144.634 136.369 144.628 136.371 144.62 136.373L144.626 136.326C144.638 136.111 144.499 135.938 144.323 135.939C144.152 135.94 144.01 136.098 143.999 136.291Z" fill="black"/>
<path d="M146.09 126.773L146.053 126.797C146.052 126.789 146.05 126.783 146.049 126.774C146.015 126.666 145.937 126.569 145.884 126.584C145.831 126.597 145.82 126.719 145.849 126.827C145.863 126.877 145.884 126.914 145.908 126.939C145.642 126.865 145.235 126.885 144.934 126.979C144.78 127.024 144.676 127.092 144.602 127.166C144.572 127.197 144.528 127.212 144.486 127.201C144.374 127.177 144.251 127.175 144.13 127.232C143.967 127.306 143.841 127.461 143.815 127.647C143.759 127.983 144.072 128.268 144.445 128.197C144.537 128.183 144.62 128.148 144.688 128.096C144.728 128.067 144.781 128.058 144.828 128.072C144.945 128.107 145.092 128.1 145.277 128.046C145.642 127.932 146.019 127.639 146.123 127.371C146.127 127.405 146.144 127.444 146.177 127.485C146.248 127.573 146.366 127.633 146.419 127.596C146.471 127.557 146.433 127.436 146.36 127.351C146.353 127.345 146.349 127.341 146.342 127.335L146.387 127.315C146.581 127.214 146.659 127.006 146.566 126.861C146.476 126.718 146.265 126.682 146.09 126.773Z" fill="black"/>
<path d="M143.706 133.011V133.061C143.698 133.057 143.692 133.055 143.683 133.051C143.574 133.021 143.446 133.04 143.431 133.108C143.42 133.174 143.528 133.256 143.64 133.279C143.692 133.29 143.735 133.287 143.768 133.275C143.566 133.492 143.487 133.98 143.558 134.33C143.591 134.506 143.654 134.628 143.729 134.705C143.759 134.737 143.772 134.783 143.76 134.825C143.726 134.94 143.729 135.048 143.776 135.173C143.843 135.34 144.004 135.469 144.187 135.501C144.532 135.564 144.825 135.274 144.775 134.907C144.761 134.817 144.729 134.728 144.681 134.664C144.654 134.625 144.647 134.575 144.664 134.53C144.704 134.421 144.711 134.291 144.68 134.126C144.617 133.805 144.444 133.466 144.259 133.272C144.292 133.282 144.335 133.284 144.387 133.274C144.499 133.251 144.605 133.192 144.593 133.143C144.586 133.095 144.463 133.068 144.349 133.083C144.34 133.085 144.334 133.086 144.326 133.088C144.329 133.074 144.332 133.061 144.334 133.047C144.342 132.863 144.231 132.692 144.062 132.662C143.89 132.631 143.718 132.786 143.706 133.011Z" fill="black"/>
<path d="M142.505 131.651L142.49 131.698C142.483 131.693 142.478 131.689 142.471 131.683C142.376 131.621 142.248 131.601 142.212 131.66C142.181 131.721 142.258 131.831 142.358 131.887C142.404 131.913 142.446 131.922 142.481 131.921C142.222 132.067 141.993 132.508 141.952 132.862C141.929 133.04 141.95 133.175 141.997 133.271C142.016 133.311 142.014 133.358 141.99 133.395C141.921 133.494 141.89 133.597 141.896 133.731C141.908 133.909 142.021 134.08 142.185 134.165C142.494 134.33 142.863 134.141 142.931 133.777C142.945 133.686 142.943 133.593 142.917 133.517C142.903 133.472 142.913 133.422 142.942 133.385C143.014 133.292 143.062 133.171 143.084 133.004C143.124 132.68 143.065 132.306 142.949 132.065C142.978 132.084 143.018 132.099 143.071 132.105C143.184 132.118 143.304 132.093 143.308 132.043C143.316 131.995 143.207 131.932 143.095 131.912C143.086 131.911 143.079 131.911 143.071 131.91C143.078 131.898 143.085 131.886 143.091 131.873C143.156 131.701 143.105 131.505 142.953 131.425C142.799 131.344 142.586 131.44 142.505 131.651Z" fill="black"/>
<path d="M145.255 129.923L145.226 129.961C145.221 129.953 145.218 129.947 145.214 129.939C145.147 129.847 145.038 129.783 144.988 129.821C144.938 129.86 144.967 129.986 145.035 130.076C145.067 130.118 145.102 130.143 145.134 130.156C144.844 130.184 144.453 130.453 144.245 130.773C144.141 130.935 144.089 131.069 144.096 131.193C144.097 131.242 144.076 131.291 144.037 131.322C143.933 131.405 143.847 131.529 143.826 131.688C143.785 131.899 143.879 132.101 144.046 132.194C144.351 132.356 144.707 132.209 144.822 131.95C144.853 131.882 144.872 131.812 144.87 131.74C144.87 131.698 144.894 131.66 144.931 131.64C145.018 131.59 145.119 131.513 145.202 131.381C145.369 131.125 145.507 130.744 145.504 130.472C145.522 130.501 145.552 130.531 145.599 130.557C145.698 130.612 145.823 130.633 145.851 130.585C145.879 130.538 145.802 130.438 145.705 130.38C145.697 130.377 145.691 130.374 145.683 130.37L145.716 130.34C145.846 130.192 145.874 129.989 145.749 129.866C145.629 129.748 145.397 129.761 145.255 129.923Z" fill="black"/>
<path d="M147.481 127.363L147.448 127.398C147.444 127.39 147.442 127.384 147.438 127.376C147.381 127.278 147.28 127.202 147.225 127.236C147.171 127.27 147.187 127.398 147.247 127.494C147.274 127.539 147.306 127.568 147.337 127.584C147.046 127.583 146.629 127.813 146.389 128.11C146.269 128.261 146.204 128.389 146.198 128.513C146.194 128.562 146.168 128.609 146.126 128.636C146.014 128.709 145.916 128.823 145.879 128.98C145.817 129.186 145.889 129.396 146.046 129.505C146.333 129.696 146.703 129.585 146.843 129.337C146.881 129.274 146.907 129.206 146.912 129.134C146.917 129.092 146.944 129.056 146.984 129.04C147.075 128.999 147.183 128.932 147.28 128.809C147.472 128.57 147.648 128.205 147.672 127.934C147.687 127.965 147.715 127.997 147.758 128.028C147.851 128.093 147.973 128.125 148.006 128.081C148.039 128.036 147.972 127.929 147.882 127.862C147.874 127.858 147.869 127.855 147.861 127.851L147.897 127.824C148.041 127.689 148.09 127.49 147.978 127.355C147.871 127.226 147.639 127.216 147.481 127.363Z" fill="black"/>
<path d="M136.064 143.308L136.013 143.308C136.017 143.3 136.019 143.294 136.023 143.286C136.059 143.179 136.043 143.054 135.974 143.037C135.911 143.023 135.828 143.125 135.802 143.233C135.789 143.284 135.791 143.327 135.801 143.36C135.598 143.163 135.165 143.042 134.813 143.072C134.635 143.085 134.505 143.137 134.416 143.206C134.379 143.235 134.33 143.246 134.285 143.232C134.165 143.196 134.023 143.203 133.885 143.267C133.697 143.353 133.576 143.547 133.598 143.729C133.653 144.065 133.946 144.273 134.223 144.224C134.296 144.212 134.361 144.18 134.42 144.14C134.455 144.115 134.5 144.112 134.538 144.131C134.632 144.179 134.75 144.198 134.908 144.186C135.218 144.16 135.591 144.021 135.787 143.84C135.776 143.872 135.772 143.914 135.78 143.965C135.798 144.076 135.852 144.183 135.901 144.175C135.944 144.167 135.974 144.047 135.966 143.936C135.964 143.927 135.963 143.921 135.962 143.913C135.974 143.916 135.986 143.919 135.999 143.92C136.048 143.923 136.066 143.921 136.104 143.91C136.151 143.904 136.195 143.89 136.234 143.869C136.312 143.828 136.367 143.76 136.385 143.677C136.402 143.594 136.379 143.511 136.33 143.444C136.304 143.411 136.273 143.381 136.236 143.358C136.189 143.334 136.114 143.311 136.064 143.308Z" fill="black"/>
<path d="M132.655 144.228L132.623 144.267C132.619 144.259 132.616 144.253 132.612 144.245C132.547 144.153 132.436 144.089 132.381 144.133C132.331 144.174 132.363 144.3 132.435 144.386C132.469 144.427 132.504 144.451 132.537 144.463C132.255 144.503 131.894 144.766 131.706 145.059C131.609 145.206 131.572 145.339 131.573 145.45C131.575 145.496 131.554 145.541 131.516 145.568C131.413 145.64 131.334 145.755 131.302 145.901C131.257 146.1 131.342 146.311 131.503 146.404C131.81 146.565 132.155 146.463 132.284 146.217C132.318 146.153 132.332 146.083 132.335 146.012C132.336 145.97 132.36 145.934 132.399 145.915C132.495 145.871 132.582 145.791 132.668 145.66C132.834 145.403 132.947 145.027 132.919 144.765C132.938 144.793 132.97 144.821 133.017 144.846C133.118 144.9 133.238 144.922 133.26 144.879C133.28 144.841 133.2 144.745 133.105 144.684C133.097 144.68 133.092 144.677 133.085 144.673C133.094 144.665 133.104 144.658 133.113 144.649C133.145 144.612 133.154 144.597 133.168 144.561C133.191 144.52 133.206 144.477 133.213 144.434C133.227 144.349 133.206 144.265 133.149 144.201C133.092 144.136 133.01 144.104 132.926 144.103C132.884 144.102 132.841 144.109 132.799 144.124C132.752 144.146 132.688 144.189 132.655 144.228Z" fill="black"/>
<path d="M139.172 143.476C139.158 143.478 139.145 143.482 139.131 143.486C139.132 143.478 139.133 143.471 139.135 143.462C139.14 143.35 139.101 143.232 139.049 143.23C138.996 143.225 138.946 143.334 138.937 143.445C138.933 143.497 138.94 143.539 138.954 143.57C138.739 143.407 138.361 143.301 138.054 143.298C137.897 143.293 137.78 143.324 137.69 143.38C137.653 143.404 137.608 143.401 137.572 143.379C137.475 143.318 137.359 143.291 137.231 143.314C137.057 143.339 136.899 143.462 136.829 143.634C136.696 143.949 136.909 144.294 137.259 144.325C137.346 144.332 137.429 144.321 137.504 144.294C137.548 144.277 137.597 144.287 137.636 144.311C137.731 144.372 137.864 144.411 138.044 144.416C138.402 144.42 138.828 144.26 139.008 144.048C139.001 144.081 139.003 144.123 139.02 144.173C139.055 144.279 139.141 144.378 139.2 144.359C139.259 144.339 139.265 144.213 139.226 144.109C139.223 144.101 139.22 144.095 139.216 144.088L139.262 144.084C139.468 144.052 139.607 143.89 139.572 143.723C139.538 143.557 139.359 143.446 139.172 143.476Z" fill="black"/>
<path d="M128.74 143.366C128.735 143.379 128.731 143.392 128.727 143.405C128.721 143.4 128.716 143.396 128.709 143.39C128.615 143.325 128.493 143.293 128.462 143.335C128.43 143.376 128.496 143.476 128.587 143.544C128.63 143.575 128.669 143.591 128.704 143.597C128.447 143.686 128.152 143.941 127.983 144.192C127.895 144.318 127.859 144.432 127.858 144.537C127.858 144.58 127.832 144.615 127.793 144.633C127.689 144.68 127.603 144.761 127.554 144.88C127.481 145.036 127.502 145.233 127.611 145.383C127.81 145.663 128.221 145.674 128.437 145.402C128.49 145.334 128.525 145.259 128.542 145.183C128.552 145.138 128.587 145.103 128.629 145.083C128.732 145.038 128.837 144.95 128.939 144.804C129.136 144.511 129.228 144.073 129.143 143.81C129.168 143.834 129.206 143.855 129.257 143.868C129.368 143.897 129.499 143.879 129.515 143.82C129.529 143.761 129.424 143.688 129.314 143.663C129.305 143.662 129.299 143.661 129.29 143.66L129.312 143.621C129.395 143.434 129.331 143.231 129.169 143.17C129.008 143.109 128.815 143.196 128.74 143.366Z" fill="black"/>
<path d="M142.031 142.427C142.018 142.435 142.008 142.444 141.997 142.453C141.994 142.445 141.993 142.439 141.99 142.43C141.948 142.326 141.863 142.234 141.813 142.252C141.764 142.27 141.766 142.393 141.805 142.499C141.823 142.548 141.847 142.583 141.873 142.605C141.604 142.538 141.218 142.602 140.937 142.719C140.798 142.787 140.7 142.851 140.641 142.938C140.617 142.972 140.577 142.991 140.535 142.986C140.424 142.975 140.307 142.992 140.198 143.059C140.052 143.152 139.96 143.332 139.964 143.512C139.969 143.858 140.302 144.083 140.641 143.976C140.726 143.953 140.796 143.905 140.853 143.848C140.886 143.815 140.934 143.8 140.981 143.809C141.093 143.827 141.236 143.819 141.399 143.741C141.73 143.603 142.046 143.278 142.124 143.018C142.132 143.052 142.151 143.089 142.187 143.128C142.264 143.21 142.381 143.261 142.426 143.22C142.472 143.179 142.425 143.063 142.345 142.982C142.339 142.976 142.334 142.972 142.328 142.967L142.368 142.946C142.545 142.839 142.602 142.633 142.499 142.493C142.4 142.357 142.192 142.329 142.031 142.427Z" fill="black"/>
<path d="M144.276 140.37C144.267 140.381 144.261 140.394 144.254 140.406C144.249 140.399 144.245 140.394 144.24 140.387C144.162 140.305 144.048 140.25 144.009 140.284C143.972 140.32 144.014 140.431 144.09 140.515C144.125 140.554 144.16 140.578 144.193 140.59C144.056 140.606 143.902 140.665 143.76 140.747C143.611 140.826 143.469 140.925 143.364 141.037C143.254 141.147 143.19 141.249 143.169 141.351C143.159 141.392 143.13 141.426 143.089 141.438C142.981 141.471 142.877 141.531 142.804 141.636C142.704 141.777 142.694 141.982 142.772 142.146C142.919 142.461 143.312 142.532 143.579 142.309C143.646 142.256 143.693 142.187 143.721 142.113C143.739 142.07 143.777 142.039 143.822 142.029C143.932 142.005 144.056 141.943 144.181 141.817C144.302 141.69 144.412 141.527 144.486 141.362C144.555 141.191 144.591 141.021 144.58 140.885C144.599 140.914 144.631 140.941 144.679 140.965C144.781 141.014 144.915 141.024 144.94 140.968C144.966 140.913 144.879 140.821 144.775 140.775C144.767 140.772 144.761 140.77 144.753 140.767L144.783 140.733C144.903 140.567 144.883 140.357 144.738 140.264C144.592 140.172 144.386 140.219 144.276 140.37Z" fill="black"/>
<path d="M145.531 137.642C145.527 137.656 145.526 137.67 145.525 137.684C145.517 137.68 145.512 137.677 145.503 137.672C145.399 137.629 145.272 137.623 145.249 137.67C145.225 137.717 145.315 137.802 145.418 137.848C145.467 137.87 145.509 137.878 145.544 137.876C145.316 138.018 145.082 138.329 144.969 138.606C144.918 138.75 144.902 138.866 144.92 138.966C144.928 139.007 144.913 139.049 144.88 139.074C144.792 139.143 144.725 139.238 144.695 139.36C144.658 139.527 144.726 139.719 144.859 139.843C145.114 140.083 145.51 140.008 145.672 139.698C145.715 139.624 145.727 139.539 145.728 139.461C145.728 139.414 145.751 139.371 145.79 139.344C145.886 139.281 145.974 139.174 146.035 139.006C146.168 138.679 146.163 138.231 146.02 137.992C146.05 138.01 146.091 138.022 146.144 138.024C146.258 138.029 146.38 137.983 146.382 137.923C146.386 137.863 146.269 137.814 146.154 137.813C146.145 137.813 146.139 137.814 146.131 137.815L146.145 137.772C146.188 137.572 146.074 137.387 145.904 137.361C145.731 137.334 145.569 137.461 145.531 137.642Z" fill="black"/>
<path d="M145.581 134.633C145.583 134.648 145.587 134.661 145.591 134.674C145.582 134.673 145.576 134.672 145.567 134.671C145.453 134.668 145.333 134.71 145.329 134.762C145.326 134.815 145.441 134.861 145.555 134.867C145.609 134.869 145.651 134.861 145.682 134.847C145.524 135.063 145.428 135.443 145.438 135.745C145.449 135.899 145.477 136.012 145.537 136.098C145.561 136.133 145.566 136.177 145.545 136.214C145.495 136.312 145.464 136.426 145.493 136.551C145.534 136.719 145.663 136.867 145.841 136.928C146.169 137.045 146.509 136.819 146.525 136.474C146.53 136.389 146.516 136.308 146.481 136.236C146.461 136.194 146.465 136.145 146.489 136.106C146.548 136.011 146.59 135.879 146.579 135.703C146.568 135.355 146.391 134.949 146.168 134.779C146.202 134.785 146.245 134.782 146.295 134.765C146.403 134.728 146.498 134.642 146.478 134.585C146.458 134.529 146.331 134.526 146.224 134.566C146.216 134.57 146.211 134.573 146.203 134.577L146.2 134.532C146.172 134.357 146.024 134.226 145.85 134.233C145.677 134.239 145.546 134.424 145.581 134.633Z" fill="black"/>
<path d="M145.915 131.371L145.902 131.417C145.896 131.412 145.891 131.407 145.883 131.402C145.787 131.341 145.661 131.32 145.629 131.376C145.596 131.433 145.672 131.539 145.771 131.594C145.817 131.62 145.859 131.63 145.895 131.629C145.647 131.766 145.409 132.165 145.36 132.513C145.333 132.688 145.354 132.823 145.404 132.924C145.424 132.965 145.423 133.014 145.4 133.053C145.34 133.158 145.309 133.29 145.34 133.43C145.378 133.619 145.531 133.769 145.712 133.81C146.055 133.881 146.354 133.64 146.37 133.344C146.376 133.269 146.362 133.197 146.332 133.131C146.315 133.092 146.324 133.048 146.352 133.015C146.419 132.936 146.466 132.827 146.489 132.676C146.531 132.379 146.487 132.011 146.362 131.775C146.39 131.794 146.431 131.809 146.483 131.816C146.597 131.83 146.718 131.81 146.723 131.762C146.728 131.715 146.618 131.652 146.507 131.632C146.498 131.631 146.492 131.63 146.484 131.63C146.49 131.618 146.496 131.607 146.501 131.594C146.567 131.434 146.506 131.244 146.358 131.163C146.203 131.078 145.998 131.171 145.915 131.371Z" fill="black"/>
<path d="M138.633 145.28L138.587 145.283C138.59 145.275 138.593 145.269 138.596 145.26C138.622 145.151 138.603 145.028 138.55 145.016C138.496 145.006 138.422 145.105 138.391 145.211C138.377 145.261 138.376 145.303 138.385 145.337C138.296 145.24 138.167 145.151 138.025 145.082C137.954 145.043 137.881 145.004 137.806 144.974C137.766 144.959 137.729 144.945 137.693 144.932L137.637 144.914C137.592 144.904 137.549 144.895 137.506 144.886C137.463 144.884 137.422 144.883 137.382 144.881C137.209 144.877 137.078 144.905 136.979 144.958C136.938 144.98 136.889 144.981 136.849 144.959C136.741 144.9 136.613 144.872 136.475 144.893C136.287 144.921 136.124 145.045 136.05 145.215C135.906 145.53 136.151 145.876 136.526 145.906C136.618 145.914 136.707 145.902 136.786 145.873C136.832 145.857 136.885 145.863 136.926 145.889C137.026 145.953 137.164 145.994 137.356 145.999C137.391 146 137.393 145.999 137.396 145.998L137.397 145.996C137.404 145.997 137.365 145.989 137.392 145.992L137.463 145.999C137.509 146.001 137.557 146.003 137.608 146.005C137.705 146.005 137.8 146.001 137.892 145.987C138.076 145.951 138.239 145.892 138.348 145.816C138.334 145.847 138.328 145.889 138.336 145.941C138.352 146.054 138.426 146.165 138.494 146.154C138.561 146.145 138.591 146.022 138.57 145.912C138.568 145.904 138.566 145.898 138.563 145.89L138.613 145.895C138.841 145.903 139.019 145.763 139.011 145.589C139.004 145.423 138.834 145.287 138.633 145.28Z" fill="black"/>
<path d="M141.832 144.564L141.793 144.588C141.791 144.58 141.791 144.573 141.789 144.564C141.762 144.455 141.687 144.355 141.631 144.37C141.575 144.382 141.556 144.503 141.58 144.613C141.592 144.664 141.611 144.701 141.635 144.727C141.365 144.641 140.942 144.666 140.625 144.758C140.463 144.802 140.353 144.871 140.277 144.95C140.246 144.98 140.2 144.994 140.156 144.983C140.039 144.952 139.913 144.966 139.787 145.02C139.617 145.089 139.49 145.254 139.464 145.438C139.411 145.779 139.732 146.048 140.112 145.982C140.205 145.963 140.289 145.927 140.359 145.878C140.4 145.85 140.454 145.842 140.503 145.856C140.619 145.887 140.768 145.88 140.957 145.828C141.329 145.72 141.714 145.428 141.834 145.166C141.837 145.2 141.852 145.24 141.884 145.282C141.952 145.372 142.068 145.438 142.123 145.402C142.177 145.364 142.145 145.242 142.075 145.154C142.069 145.147 142.064 145.143 142.058 145.137L142.104 145.119C142.304 145.021 142.398 144.82 142.315 144.671C142.232 144.522 142.016 144.474 141.832 144.564Z" fill="black"/>
<path d="M146.965 142.588L146.946 142.63C146.94 142.624 146.936 142.619 146.929 142.612C146.843 142.538 146.723 142.497 146.687 142.541C146.647 142.582 146.702 142.693 146.786 142.769C146.825 142.805 146.863 142.824 146.897 142.832C146.625 142.913 146.292 143.169 146.085 143.421C145.977 143.547 145.927 143.665 145.911 143.773C145.902 143.815 145.872 143.852 145.83 143.868C145.716 143.908 145.62 143.989 145.549 144.103C145.449 144.255 145.44 144.462 145.526 144.628C145.68 144.938 146.1 144.98 146.374 144.713C146.439 144.646 146.487 144.569 146.517 144.491C146.534 144.444 146.574 144.407 146.622 144.392C146.736 144.352 146.855 144.264 146.98 144.115C147.222 143.819 147.369 143.365 147.316 143.082C147.338 143.108 147.373 143.133 147.424 143.15C147.533 143.187 147.667 143.175 147.691 143.115C147.713 143.054 147.616 142.971 147.507 142.937C147.498 142.936 147.492 142.935 147.484 142.933L147.511 142.893C147.618 142.701 147.579 142.483 147.424 142.407C147.269 142.33 147.063 142.411 146.965 142.588Z" fill="black"/>
<path d="M144.567 142.667L144.536 142.702C144.533 142.694 144.53 142.688 144.526 142.68C144.465 142.585 144.362 142.512 144.312 142.543C144.264 142.576 144.285 142.7 144.343 142.795C144.37 142.84 144.401 142.869 144.432 142.886C144.144 142.887 143.747 143.056 143.478 143.26C143.343 143.367 143.257 143.463 143.216 143.566C143.198 143.608 143.161 143.64 143.116 143.647C142.998 143.671 142.877 143.722 142.782 143.825C142.654 143.964 142.604 144.167 142.658 144.341C142.758 144.673 143.16 144.788 143.471 144.583C143.55 144.535 143.611 144.471 143.653 144.398C143.679 144.356 143.724 144.328 143.772 144.323C143.89 144.309 144.03 144.259 144.179 144.142C144.478 143.916 144.733 143.522 144.764 143.239C144.778 143.271 144.805 143.304 144.848 143.334C144.943 143.4 145.073 143.425 145.11 143.373C145.148 143.322 145.079 143.216 144.985 143.153C144.977 143.149 144.971 143.146 144.964 143.142L145.001 143.112C145.159 142.961 145.187 142.743 145.063 142.625C144.939 142.506 144.717 142.525 144.567 142.667Z" fill="black"/>
<path d="M146.573 140.066L146.557 140.108C146.551 140.102 146.546 140.098 146.539 140.092C146.447 140.025 146.324 139.993 146.291 140.038C146.259 140.082 146.324 140.189 146.412 140.258C146.453 140.291 146.493 140.307 146.528 140.313C146.259 140.41 145.952 140.685 145.756 140.949C145.66 141.086 145.616 141.207 145.603 141.314C145.598 141.358 145.571 141.398 145.53 141.418C145.422 141.471 145.328 141.558 145.263 141.681C145.178 141.848 145.191 142.059 145.293 142.211C145.487 142.501 145.902 142.497 146.144 142.218C146.205 142.149 146.242 142.067 146.264 141.987C146.277 141.939 146.313 141.9 146.358 141.881C146.472 141.837 146.584 141.743 146.695 141.586C146.92 141.28 147.035 140.809 146.964 140.532C146.988 140.556 147.025 140.578 147.077 140.591C147.189 140.62 147.322 140.598 147.338 140.534C147.356 140.47 147.253 140.395 147.142 140.37C147.133 140.37 147.126 140.369 147.118 140.368L147.143 140.325C147.241 140.126 147.174 139.909 147.012 139.847C146.851 139.785 146.662 139.886 146.573 140.066Z" fill="black"/>
<path d="M147.321 136.884L147.322 136.931C147.314 136.927 147.308 136.925 147.3 136.921C147.19 136.89 147.063 136.904 147.046 136.96C147.03 137.016 147.13 137.095 147.239 137.128C147.29 137.143 147.333 137.144 147.367 137.137C147.157 137.328 146.982 137.72 146.923 138.046C146.897 138.214 146.905 138.341 146.943 138.444C146.958 138.486 146.953 138.533 146.925 138.568C146.853 138.663 146.799 138.778 146.8 138.915C146.802 139.101 146.892 139.28 147.054 139.379C147.348 139.565 147.738 139.392 147.828 139.03C147.854 138.941 147.856 138.853 147.838 138.77C147.828 138.722 147.842 138.672 147.875 138.635C147.955 138.547 148.02 138.416 148.048 138.231C148.115 137.864 148.028 137.409 147.856 137.18C147.888 137.195 147.93 137.201 147.984 137.195C148.097 137.181 148.211 137.115 148.206 137.053C148.2 136.991 148.077 136.957 147.964 136.972C147.955 136.974 147.949 136.976 147.941 136.978C147.944 136.962 147.947 136.947 147.948 136.931C147.962 136.718 147.833 136.537 147.66 136.528C147.487 136.519 147.335 136.678 147.321 136.884Z" fill="black"/>
<path d="M147.047 133.584C147.05 133.6 147.054 133.616 147.058 133.631C147.05 133.629 147.043 133.628 147.034 133.626C146.919 133.619 146.799 133.661 146.798 133.723C146.796 133.785 146.913 133.842 147.028 133.849C147.081 133.851 147.123 133.842 147.154 133.826C146.998 134.065 146.94 134.511 146.996 134.852C147.024 135.026 147.079 135.147 147.151 135.233C147.181 135.268 147.191 135.315 147.177 135.358C147.139 135.471 147.138 135.601 147.181 135.717C147.212 135.806 147.26 135.844 147.325 135.919C147.388 135.988 147.469 136.041 147.559 136.066C147.728 136.114 147.891 136.074 148.014 135.977C148.077 135.933 148.126 135.858 148.157 135.762C148.186 135.676 148.2 135.578 148.189 135.487C148.179 135.393 148.149 135.309 148.105 135.239C148.079 135.198 148.076 135.145 148.094 135.101C148.138 134.993 148.152 134.853 148.123 134.675C148.065 134.323 147.861 133.928 147.638 133.751C147.673 133.757 147.716 133.753 147.766 133.734C147.873 133.694 147.968 133.608 147.948 133.553C147.927 133.497 147.8 133.491 147.693 133.53C147.685 133.534 147.679 133.537 147.672 133.541L147.669 133.495C147.638 133.292 147.48 133.146 147.307 133.162C147.135 133.179 147.015 133.372 147.047 133.584Z" fill="black"/>
<path d="M132.543 140.097C132.539 140.109 132.537 140.122 132.535 140.135C132.528 140.13 132.523 140.127 132.515 140.121C132.414 140.066 132.294 140.044 132.266 140.08C132.237 140.115 132.312 140.206 132.406 140.27C132.45 140.299 132.49 140.314 132.524 140.319C132.285 140.415 131.978 140.623 131.796 140.853C131.696 140.968 131.642 141.074 131.628 141.177C131.622 141.219 131.596 141.255 131.555 141.269C131.443 141.302 131.343 141.372 131.275 141.484C131.186 141.637 131.172 141.835 131.261 141.998C131.421 142.301 131.829 142.363 132.085 142.113C132.149 142.053 132.196 141.983 132.226 141.909C132.242 141.864 132.279 141.827 132.325 141.813C132.435 141.778 132.558 141.702 132.681 141.56C132.918 141.267 133.072 140.799 132.971 140.516C132.997 140.54 133.035 140.56 133.087 140.57C133.2 140.593 133.333 140.559 133.351 140.492C133.367 140.423 133.253 140.355 133.141 140.343H133.118L133.137 140.297C133.214 140.08 133.106 139.875 132.932 139.849C132.763 139.824 132.601 139.937 132.543 140.097Z" fill="black"/>
<path d="M132.325 137.04L132.331 137.085C132.323 137.083 132.317 137.081 132.307 137.079C132.195 137.063 132.071 137.094 132.063 137.154C132.055 137.214 132.169 137.277 132.282 137.291C132.335 137.297 132.377 137.292 132.41 137.278C132.228 137.481 132.151 137.959 132.226 138.296C132.263 138.469 132.322 138.579 132.399 138.657C132.431 138.689 132.443 138.733 132.43 138.773C132.397 138.882 132.401 138.999 132.448 139.109C132.517 139.259 132.662 139.374 132.851 139.418C133.021 139.456 133.184 139.416 133.296 139.305C133.413 139.194 133.473 139.019 133.446 138.838C133.432 138.748 133.396 138.671 133.35 138.604C133.323 138.565 133.317 138.515 133.332 138.473C133.371 138.37 133.379 138.234 133.345 138.076C133.277 137.762 133.104 137.437 132.899 137.241C132.933 137.249 132.976 137.248 133.027 137.234C133.137 137.204 133.237 137.13 133.223 137.078C133.209 137.025 133.083 137.01 132.972 137.039C132.964 137.042 132.958 137.044 132.951 137.047L132.952 137.004C132.939 136.811 132.796 136.658 132.623 136.662C132.449 136.665 132.311 136.835 132.325 137.04Z" fill="black"/>
<path d="M132.807 133.746L132.792 133.791C132.785 133.786 132.78 133.782 132.773 133.775C132.679 133.711 132.554 133.686 132.519 133.74C132.485 133.794 132.555 133.902 132.651 133.962C132.696 133.991 132.737 134.003 132.772 134.004C132.522 134.131 132.248 134.522 132.186 134.883C132.145 135.064 132.17 135.204 132.211 135.31C132.229 135.353 132.225 135.403 132.202 135.443C132.14 135.551 132.104 135.687 132.132 135.83C132.168 136.026 132.312 136.182 132.497 136.226C132.836 136.307 133.14 136.064 133.164 135.765C133.172 135.689 133.16 135.616 133.132 135.548C133.115 135.508 133.125 135.464 133.155 135.432C133.229 135.355 133.272 135.245 133.307 135.096C133.357 134.798 133.346 134.422 133.231 134.172C133.259 134.193 133.299 134.21 133.351 134.219C133.464 134.238 133.588 134.22 133.597 134.169C133.606 134.12 133.499 134.052 133.387 134.028C133.379 134.028 133.372 134.027 133.364 134.026C133.371 134.014 133.379 134.002 133.384 133.989C133.454 133.817 133.408 133.624 133.252 133.542C133.102 133.464 132.888 133.549 132.807 133.746Z" fill="black"/>
<path d="M135.002 133.325L134.978 133.366C134.972 133.359 134.969 133.354 134.963 133.347C134.885 133.265 134.768 133.214 134.722 133.261C134.677 133.306 134.722 133.427 134.804 133.504C134.842 133.541 134.88 133.562 134.914 133.57C134.642 133.644 134.292 133.971 134.156 134.312C134.078 134.481 134.072 134.623 134.091 134.735C134.099 134.78 134.085 134.829 134.054 134.864C133.971 134.956 133.907 135.082 133.905 135.228C133.899 135.427 134.007 135.609 134.178 135.689C134.494 135.836 134.842 135.659 134.928 135.372C134.952 135.299 134.955 135.225 134.942 135.153C134.934 135.11 134.953 135.069 134.989 135.044C135.078 134.984 135.143 134.885 135.208 134.746C135.32 134.465 135.388 134.094 135.328 133.827C135.35 133.853 135.386 133.878 135.435 133.897C135.542 133.938 135.667 133.945 135.686 133.898C135.705 133.851 135.615 133.763 135.511 133.718C135.502 133.715 135.497 133.713 135.489 133.711C135.498 133.7 135.508 133.69 135.516 133.678C135.62 133.524 135.617 133.325 135.481 133.214C135.35 133.108 135.123 133.148 135.002 133.325Z" fill="black"/>
<path d="M134.995 131.186C134.982 131.195 134.971 131.207 134.96 131.217C134.957 131.209 134.955 131.203 134.952 131.194C134.905 131.092 134.811 131.007 134.755 131.035C134.699 131.064 134.705 131.192 134.755 131.292C134.778 131.339 134.807 131.371 134.836 131.39C134.549 131.362 134.128 131.55 133.867 131.798C133.736 131.932 133.666 132.057 133.64 132.168C133.629 132.213 133.601 132.256 133.557 132.277C133.443 132.335 133.333 132.429 133.276 132.569C133.198 132.761 133.229 132.967 133.366 133.101C133.616 133.339 134.001 133.292 134.179 133.064C134.227 133.006 134.256 132.94 134.271 132.87C134.28 132.829 134.309 132.795 134.353 132.786C134.457 132.763 134.561 132.705 134.669 132.594C134.895 132.379 135.093 132.033 135.137 131.769C135.149 131.801 135.174 131.836 135.214 131.87C135.3 131.944 135.416 131.988 135.451 131.948C135.486 131.908 135.43 131.796 135.347 131.72C135.34 131.715 135.335 131.711 135.328 131.706L135.365 131.684C135.524 131.577 135.576 131.374 135.483 131.23C135.389 131.087 135.171 131.067 134.995 131.186Z" fill="black"/>
<path d="M138.15 129.931L138.104 129.941C138.105 129.933 138.106 129.927 138.108 129.917C138.118 129.805 138.078 129.687 138.013 129.686C137.949 129.684 137.889 129.799 137.884 129.911C137.881 129.963 137.891 130.004 137.908 130.035C137.669 129.878 137.193 129.847 136.841 129.967C136.661 130.024 136.544 130.107 136.473 130.199C136.443 130.236 136.397 130.259 136.349 130.257C136.219 130.252 136.085 130.3 135.968 130.391C135.811 130.52 135.747 130.726 135.8 130.9C135.905 131.229 136.268 131.359 136.542 131.236C136.612 131.205 136.668 131.153 136.716 131.1C136.743 131.068 136.787 131.055 136.829 131.063C136.932 131.084 137.053 131.074 137.202 131.028C137.492 130.929 137.822 130.722 137.987 130.508C137.983 130.542 137.987 130.584 138.006 130.633C138.046 130.738 138.124 130.832 138.173 130.814C138.223 130.796 138.228 130.67 138.193 130.565C138.19 130.557 138.187 130.551 138.184 130.544L138.227 130.541C138.416 130.525 138.563 130.372 138.555 130.204C138.547 130.032 138.366 129.911 138.15 129.931Z" fill="black"/>
<path d="M134.939 144.856L134.899 144.883C134.898 144.874 134.897 144.868 134.895 144.859C134.864 144.75 134.784 144.653 134.723 144.674C134.662 144.694 134.647 144.823 134.682 144.929C134.699 144.979 134.723 145.014 134.749 145.037C134.47 144.972 134.013 145.106 133.726 145.34C133.578 145.455 133.498 145.572 133.464 145.683C133.45 145.728 133.415 145.765 133.369 145.78C133.246 145.82 133.137 145.911 133.06 146.036C132.959 146.212 132.973 146.426 133.085 146.571C133.301 146.843 133.688 146.84 133.899 146.631C133.954 146.578 133.988 146.51 134.014 146.444C134.029 146.405 134.065 146.377 134.108 146.371C134.211 146.355 134.321 146.304 134.443 146.209C134.68 146.017 134.915 145.71 134.993 145.453C135.001 145.486 135.021 145.524 135.055 145.564C135.13 145.649 135.237 145.71 135.277 145.676C135.316 145.641 135.277 145.522 135.206 145.435C135.2 145.429 135.196 145.425 135.19 145.419L135.229 145.402C135.401 145.322 135.483 145.128 135.416 144.974C135.347 144.816 135.134 144.764 134.939 144.856Z" fill="black"/>
<path d="M141.439 130.149L141.398 130.155C141.4 130.147 141.402 130.141 141.404 130.133C141.421 130.022 141.396 129.901 141.348 129.888C141.299 129.877 141.238 129.981 141.214 130.091C141.203 130.142 141.204 130.184 141.213 130.216C141.022 130.027 140.685 129.861 140.36 129.799C140.195 129.769 140.058 129.781 139.951 129.821C139.908 129.837 139.858 129.833 139.816 129.808C139.708 129.738 139.567 129.703 139.416 129.726C139.21 129.75 139.045 129.902 139 130.077C138.919 130.412 139.161 130.705 139.453 130.738C139.529 130.744 139.602 130.739 139.671 130.714C139.712 130.699 139.757 130.71 139.79 130.741C139.869 130.813 139.984 130.868 140.158 130.9C140.5 130.966 140.984 130.886 141.202 130.697C141.19 130.729 141.185 130.771 141.195 130.823C141.217 130.932 141.296 131.038 141.362 131.028C141.428 131.018 141.45 130.893 141.422 130.785C141.419 130.776 141.416 130.77 141.414 130.763C141.43 130.764 141.446 130.765 141.462 130.764C141.685 130.753 141.843 130.596 141.817 130.425C141.792 130.261 141.623 130.14 141.439 130.149Z" fill="black"/>
<path d="M144.259 129.01L144.225 129.038C144.223 129.03 144.22 129.024 144.218 129.015C144.17 128.914 144.078 128.828 144.027 128.849C143.977 128.871 143.984 128.994 144.03 129.096C144.051 129.144 144.078 129.178 144.105 129.198C143.834 129.161 143.438 129.254 143.165 129.392C143.025 129.464 142.939 129.55 142.883 129.633C142.86 129.668 142.821 129.689 142.779 129.686C142.667 129.679 142.554 129.705 142.45 129.772C142.311 129.872 142.22 130.043 142.222 130.226C142.218 130.571 142.569 130.802 142.926 130.674C143.015 130.645 143.084 130.589 143.142 130.53C143.176 130.495 143.225 130.478 143.274 130.483C143.395 130.499 143.534 130.466 143.699 130.38C144.029 130.212 144.328 129.868 144.385 129.593C144.395 129.626 144.417 129.662 144.456 129.698C144.538 129.775 144.66 129.819 144.704 129.776C144.747 129.732 144.693 129.619 144.608 129.544C144.601 129.539 144.596 129.535 144.589 129.53L144.629 129.507C144.804 129.391 144.842 129.171 144.737 129.04C144.628 128.904 144.421 128.902 144.259 129.01Z" fill="black"/>
<path d="M130.767 138.66L130.781 138.703C130.772 138.703 130.765 138.702 130.756 138.701C130.642 138.704 130.525 138.754 130.527 138.813C130.524 138.834 130.543 138.819 130.586 138.823C130.627 138.823 130.681 138.845 130.737 138.847C130.79 138.852 130.833 138.848 130.866 138.837C130.686 139.005 130.52 139.348 130.469 139.646C130.443 139.797 130.455 139.914 130.494 140.009C130.51 140.048 130.505 140.092 130.476 140.122C130.402 140.206 130.354 140.308 130.354 140.43C130.351 140.592 130.443 140.756 130.595 140.867C130.87 141.085 131.275 140.937 131.375 140.586C131.401 140.5 131.401 140.416 131.386 140.337C131.377 140.291 131.392 140.243 131.423 140.209C131.503 140.127 131.565 140.004 131.595 139.828C131.654 139.482 131.564 139.033 131.355 138.809C131.389 138.819 131.432 138.82 131.483 138.805C131.538 138.785 131.594 138.762 131.627 138.71C131.66 138.662 131.672 138.586 131.659 138.552C131.637 138.504 131.51 138.51 131.406 138.555C131.398 138.559 131.392 138.562 131.385 138.566L131.38 138.524C131.34 138.339 131.169 138.215 130.998 138.247C130.828 138.278 130.724 138.463 130.767 138.66Z" fill="black"/>
<path d="M130.548 135.427L130.547 135.472C130.539 135.469 130.533 135.466 130.524 135.462C130.416 135.429 130.288 135.439 130.271 135.497C130.253 135.555 130.353 135.636 130.462 135.666C130.513 135.681 130.556 135.681 130.591 135.673C130.385 135.858 130.23 136.277 130.243 136.625C130.242 136.801 130.294 136.928 130.357 137.02C130.384 137.057 130.391 137.105 130.374 137.148C130.326 137.262 130.326 137.395 130.377 137.527C130.445 137.708 130.614 137.833 130.803 137.846C131.151 137.868 131.411 137.582 131.38 137.283C131.369 137.207 131.345 137.137 131.307 137.076C131.285 137.04 131.285 136.995 131.307 136.958C131.363 136.868 131.382 136.75 131.384 136.595C131.373 136.289 131.258 135.917 131.079 135.711C131.112 135.723 131.154 135.729 131.208 135.723C131.321 135.711 131.435 135.657 131.429 135.605C131.423 135.554 131.301 135.519 131.187 135.529C131.179 135.531 131.172 135.532 131.164 135.533L131.172 135.492C131.188 135.306 131.076 135.135 130.905 135.109C130.733 135.082 130.565 135.223 130.548 135.427Z" fill="black"/>
<path d="M131.582 132.328L131.563 132.369C131.557 132.363 131.552 132.358 131.546 132.351C131.461 132.276 131.342 132.233 131.301 132.28C131.261 132.327 131.317 132.441 131.404 132.514C131.444 132.548 131.484 132.565 131.518 132.572C131.379 132.612 131.238 132.716 131.109 132.851C130.976 132.983 130.867 133.15 130.805 133.316C130.738 133.482 130.722 133.618 130.752 133.729C130.763 133.774 130.752 133.822 130.721 133.856C130.639 133.948 130.572 134.07 130.577 134.216C130.578 134.412 130.69 134.589 130.86 134.665C131.178 134.804 131.528 134.628 131.601 134.345C131.624 134.273 131.627 134.201 131.614 134.13C131.606 134.089 131.623 134.048 131.656 134.022C131.735 133.958 131.811 133.864 131.868 133.723C131.921 133.581 131.956 133.416 131.976 133.255C131.991 133.093 131.979 132.929 131.948 132.803C131.972 132.828 132.008 132.85 132.059 132.867C132.168 132.901 132.292 132.899 132.309 132.85C132.324 132.801 132.227 132.72 132.12 132.682C132.112 132.68 132.106 132.679 132.098 132.677C132.106 132.665 132.115 132.655 132.122 132.642C132.211 132.479 132.191 132.283 132.045 132.186C131.904 132.092 131.682 132.147 131.582 132.328Z" fill="black"/>
<path d="M147.47 129.793L147.465 129.838C147.458 129.834 147.452 129.831 147.444 129.826C147.339 129.782 147.212 129.78 147.189 129.837C147.166 129.894 147.257 129.985 147.363 130.025C147.412 130.045 147.455 130.049 147.49 130.044C147.372 130.127 147.273 130.27 147.196 130.438C147.113 130.605 147.066 130.798 147.062 130.974C147.053 131.153 147.083 131.286 147.148 131.382C147.173 131.421 147.179 131.47 147.161 131.512C147.114 131.625 147.091 131.762 147.144 131.898C147.209 132.084 147.374 132.216 147.559 132.234C147.907 132.264 148.18 131.987 148.155 131.695C148.153 131.62 148.132 131.551 148.096 131.488C148.075 131.452 148.077 131.407 148.1 131.372C148.154 131.286 148.194 131.174 148.202 131.022C148.205 130.871 148.184 130.704 148.149 130.545C148.11 130.387 148.045 130.236 147.973 130.127C148.004 130.143 148.046 130.152 148.099 130.151C148.214 130.15 148.331 130.108 148.33 130.056C148.329 130.005 148.21 129.959 148.096 129.957C148.088 129.958 148.082 129.959 148.073 129.959C148.077 129.946 148.082 129.933 148.085 129.919C148.116 129.736 148.031 129.558 147.861 129.512C147.697 129.468 147.505 129.59 147.47 129.793Z" fill="black"/>
<path d="M133.839 129.939L133.805 129.969C133.802 129.961 133.8 129.955 133.797 129.946C133.749 129.845 133.655 129.76 133.599 129.786C133.544 129.812 133.55 129.938 133.601 130.038C133.624 130.084 133.653 130.116 133.682 130.136C133.406 130.113 132.985 130.28 132.731 130.524C132.597 130.641 132.534 130.767 132.509 130.876C132.499 130.921 132.468 130.959 132.424 130.977C132.308 131.023 132.197 131.107 132.138 131.241C132.052 131.419 132.075 131.626 132.195 131.766C132.422 132.023 132.818 132.015 133.005 131.786C133.057 131.732 133.092 131.668 133.111 131.598C133.123 131.558 133.156 131.528 133.198 131.519C133.302 131.497 133.401 131.435 133.52 131.331C133.742 131.117 133.949 130.785 133.983 130.515C133.995 130.546 134.02 130.581 134.06 130.615C134.146 130.689 134.263 130.736 134.299 130.697C134.334 130.657 134.278 130.546 134.194 130.47C134.187 130.465 134.182 130.461 134.175 130.456L134.212 130.435C134.365 130.322 134.414 130.121 134.319 129.982C134.222 129.838 134.006 129.817 133.839 129.939Z" fill="black"/>
<path d="M136.827 128.526L136.784 128.542C136.784 128.534 136.785 128.527 136.785 128.518C136.778 128.406 136.723 128.294 136.662 128.3C136.6 128.305 136.559 128.426 136.569 128.537C136.574 128.59 136.589 128.629 136.609 128.657C136.357 128.529 135.901 128.541 135.574 128.682C135.407 128.749 135.299 128.835 135.238 128.931C135.213 128.97 135.17 128.995 135.123 128.996C134.998 128.998 134.866 129.04 134.761 129.141C134.617 129.274 134.561 129.474 134.62 129.648C134.732 129.969 135.105 130.104 135.368 129.958C135.437 129.924 135.494 129.876 135.537 129.818C135.563 129.784 135.605 129.767 135.648 129.773C135.751 129.786 135.872 129.771 136.018 129.713C136.301 129.59 136.613 129.349 136.748 129.118C136.748 129.152 136.758 129.193 136.782 129.24C136.834 129.339 136.925 129.422 136.973 129.397C137.02 129.373 137.008 129.248 136.959 129.148C136.954 129.141 136.951 129.135 136.946 129.129L136.988 129.121C137.172 129.072 137.295 128.91 137.259 128.742C137.224 128.577 137.028 128.473 136.827 128.526Z" fill="black"/>
<path d="M140.148 128.338L140.101 128.336C140.105 128.328 140.108 128.323 140.112 128.314C140.151 128.209 140.146 128.085 140.087 128.065C140.028 128.046 139.941 128.14 139.905 128.246C139.888 128.295 139.886 128.338 139.892 128.372C139.713 128.158 139.285 127.996 138.926 127.999C138.744 127.997 138.611 128.044 138.515 128.104C138.477 128.13 138.427 128.136 138.383 128.118C138.266 128.074 138.128 128.073 137.991 128.121C137.803 128.183 137.677 128.362 137.665 128.543C137.648 128.888 137.939 129.129 138.239 129.105C138.315 129.098 138.385 129.069 138.448 129.033C138.484 129.012 138.53 129.013 138.567 129.035C138.657 129.092 138.774 129.115 138.931 129.117C139.238 129.115 139.617 129.011 139.834 128.849C139.82 128.88 139.813 128.921 139.816 128.973C139.824 129.085 139.873 129.198 139.926 129.194C139.979 129.19 140.019 129.071 140.014 128.96C140.013 128.951 140.012 128.945 140.011 128.937C140.025 128.941 140.038 128.945 140.053 128.947C140.24 128.97 140.422 128.869 140.456 128.701C140.489 128.536 140.356 128.365 140.148 128.338Z" fill="black"/>
<path d="M143.105 128.08L143.065 128.099C143.064 128.091 143.063 128.085 143.063 128.076C143.043 127.966 142.977 127.859 142.92 127.869C142.864 127.878 142.839 128 142.858 128.11C142.867 128.162 142.885 128.2 142.907 128.227C142.653 128.12 142.228 128.141 141.938 128.234C141.866 128.257 141.807 128.283 141.771 128.308C141.744 128.324 141.754 128.329 141.749 128.343C141.747 128.357 141.716 128.371 141.702 128.387C141.674 128.414 141.635 128.418 141.603 128.4C141.515 128.35 141.42 128.329 141.303 128.35C141.146 128.379 140.98 128.496 140.905 128.665C140.765 128.975 140.95 129.33 141.347 129.362C141.445 129.369 141.54 129.352 141.622 129.317C141.67 129.295 141.726 129.297 141.774 129.317C141.807 129.328 141.826 129.342 141.878 129.346C141.927 129.35 141.996 129.348 142.03 129.346C142.12 129.341 142.201 129.325 142.29 129.297C142.634 129.187 142.963 128.921 143.083 128.675C143.085 128.709 143.098 128.75 143.126 128.794C143.187 128.888 143.29 128.962 143.339 128.932C143.388 128.901 143.364 128.779 143.303 128.684C143.297 128.678 143.294 128.673 143.288 128.666L143.331 128.654C143.517 128.584 143.617 128.399 143.555 128.24C143.493 128.081 143.29 128.01 143.105 128.08Z" fill="black"/>
<path d="M128.757 136.358L128.767 136.406C128.759 136.405 128.752 136.403 128.743 136.401C128.628 136.389 128.507 136.428 128.504 136.494C128.502 136.56 128.618 136.624 128.732 136.632C128.785 136.636 128.827 136.627 128.859 136.611C128.694 136.853 128.673 137.349 128.743 137.664C128.78 137.834 128.839 137.953 128.915 138.036C128.946 138.069 128.96 138.117 128.947 138.161C128.914 138.277 128.919 138.407 128.972 138.534C129.046 138.707 129.207 138.832 129.393 138.862C129.74 138.927 130.025 138.605 129.964 138.242C129.95 138.151 129.916 138.07 129.869 138.002C129.841 137.961 129.835 137.91 129.851 137.864C129.891 137.754 129.898 137.613 129.86 137.432C129.776 137.058 129.56 136.719 129.344 136.541C129.378 136.547 129.421 136.543 129.471 136.525C129.579 136.487 129.677 136.406 129.659 136.354C129.641 136.301 129.513 136.292 129.405 136.327C129.397 136.33 129.391 136.333 129.383 136.336L129.382 136.291C129.353 136.094 129.217 135.937 129.039 135.944C128.87 135.951 128.726 136.138 128.757 136.358Z" fill="black"/>
<path d="M129.281 132.872L129.266 132.919C129.259 132.913 129.254 132.909 129.247 132.903C129.153 132.839 129.027 132.816 128.993 132.873C128.959 132.929 129.031 133.039 129.127 133.1C129.171 133.128 129.213 133.14 129.248 133.141C128.985 133.275 128.715 133.679 128.633 134.055C128.583 134.242 128.604 134.393 128.643 134.505C128.66 134.551 128.655 134.604 128.628 134.646C128.553 134.758 128.53 134.904 128.548 135.058C128.571 135.268 128.729 135.436 128.908 135.483C129.252 135.566 129.545 135.313 129.582 135.002C129.59 134.922 129.575 134.844 129.555 134.773C129.542 134.73 129.553 134.684 129.583 134.651C129.66 134.57 129.704 134.455 129.748 134.296C129.816 133.981 129.808 133.567 129.708 133.309C129.735 133.33 129.774 133.347 129.827 133.355C129.941 133.372 130.065 133.347 130.075 133.292C130.084 133.236 129.977 133.169 129.865 133.148C129.856 133.148 129.85 133.147 129.842 133.146L129.862 133.106C129.939 132.92 129.888 132.715 129.73 132.64C129.575 132.568 129.366 132.668 129.281 132.872Z" fill="black"/>
<path d="M131.256 129.954L131.225 129.992C131.221 129.984 131.217 129.979 131.213 129.97C131.148 129.878 131.039 129.812 130.987 129.85C130.933 129.887 130.963 130.017 131.03 130.108C131.061 130.15 131.095 130.177 131.127 130.19C130.836 130.222 130.437 130.483 130.207 130.782C130.095 130.936 130.042 131.072 130.031 131.189C130.026 131.236 129.999 131.282 129.957 131.307C129.847 131.379 129.756 131.493 129.705 131.637C129.633 131.832 129.695 132.05 129.833 132.173C130.099 132.402 130.479 132.306 130.659 132.036C130.703 131.967 130.727 131.89 130.737 131.814C130.744 131.769 130.775 131.732 130.818 131.713C130.922 131.67 131.023 131.587 131.123 131.45C131.327 131.184 131.49 130.791 131.491 130.511C131.509 130.541 131.539 130.571 131.585 130.597C131.685 130.654 131.808 130.67 131.841 130.623C131.873 130.575 131.798 130.474 131.7 130.416C131.692 130.412 131.686 130.41 131.678 130.406L131.714 130.376C131.859 130.228 131.877 130.011 131.755 129.89C131.633 129.769 131.41 129.798 131.256 129.954Z" fill="black"/>
<path d="M129.01 140.002L129.017 140.05C129.009 140.048 129.003 140.046 128.993 140.044C128.88 140.03 128.757 140.066 128.751 140.13C128.743 140.193 128.863 140.258 128.976 140.269C129.03 140.275 129.072 140.267 129.104 140.252C128.934 140.487 128.868 140.953 128.944 141.319C128.986 141.504 129.056 141.633 129.137 141.719C129.17 141.754 129.187 141.804 129.178 141.852C129.159 141.98 129.186 142.123 129.262 142.255C129.363 142.437 129.571 142.537 129.755 142.518C130.107 142.476 130.287 142.134 130.2 141.823C130.177 141.744 130.135 141.676 130.083 141.618C130.054 141.583 130.046 141.535 130.06 141.492C130.096 141.386 130.1 141.258 130.062 141.093C129.995 140.767 129.804 140.387 129.591 140.199C129.625 140.207 129.669 140.204 129.719 140.188C129.828 140.153 129.923 140.074 129.909 140.019C129.893 139.963 129.767 139.951 129.657 139.984C129.649 139.987 129.643 139.99 129.635 139.993L129.635 139.947C129.619 139.743 129.466 139.585 129.293 139.594C129.119 139.602 128.992 139.785 129.01 140.002Z" fill="black"/>
<path d="M134.025 127.757L133.983 127.783C133.981 127.775 133.98 127.768 133.979 127.759C133.946 127.652 133.863 127.556 133.799 127.577C133.736 127.599 133.723 127.732 133.759 127.838C133.775 127.888 133.8 127.923 133.827 127.945C133.538 127.892 133.067 128.033 132.768 128.265C132.613 128.378 132.525 128.494 132.484 128.605C132.467 128.65 132.429 128.686 132.382 128.7C132.253 128.734 132.134 128.815 132.048 128.939C131.927 129.106 131.912 129.32 132.007 129.482C132.182 129.78 132.587 129.81 132.84 129.591C132.902 129.534 132.952 129.471 132.985 129.4C133.004 129.359 133.045 129.33 133.091 129.324C133.202 129.307 133.323 129.254 133.461 129.153C133.727 128.946 133.993 128.625 134.077 128.358C134.085 128.392 134.104 128.429 134.14 128.468C134.217 128.551 134.329 128.605 134.372 128.568C134.416 128.533 134.376 128.415 134.302 128.33C134.296 128.324 134.291 128.319 134.285 128.314L134.327 128.296C134.507 128.202 134.595 128.002 134.523 127.851C134.448 127.694 134.225 127.652 134.025 127.757Z" fill="black"/>
<path d="M137.486 126.835L137.437 126.843C137.439 126.834 137.441 126.828 137.443 126.819C137.46 126.708 137.427 126.587 137.362 126.581C137.297 126.575 137.227 126.685 137.213 126.796C137.206 126.848 137.212 126.89 137.227 126.922C136.992 126.749 136.515 126.674 136.135 126.748C135.943 126.782 135.809 126.857 135.72 126.935C135.684 126.968 135.633 126.985 135.583 126.976C135.451 126.961 135.303 126.988 135.166 127.064C134.981 127.175 134.881 127.374 134.907 127.555C134.961 127.898 135.315 128.066 135.623 127.978C135.701 127.954 135.77 127.913 135.827 127.861C135.862 127.833 135.911 127.825 135.954 127.839C136.061 127.876 136.188 127.874 136.356 127.845C136.683 127.782 137.073 127.603 137.269 127.4C137.261 127.433 137.262 127.476 137.278 127.526C137.311 127.633 137.39 127.733 137.446 127.718C137.503 127.702 137.518 127.578 137.488 127.47C137.485 127.462 137.482 127.457 137.479 127.449L137.526 127.449C137.733 127.432 137.9 127.297 137.895 127.125C137.89 126.957 137.707 126.817 137.486 126.835Z" fill="black"/>
<path d="M134.852 125.604L134.806 125.622C134.806 125.613 134.806 125.607 134.807 125.597C134.797 125.485 134.736 125.376 134.672 125.384C134.607 125.393 134.565 125.516 134.577 125.627C134.583 125.679 134.599 125.718 134.62 125.746C134.352 125.631 133.869 125.665 133.517 125.823C133.338 125.898 133.225 126.002 133.157 126.098C133.129 126.138 133.083 126.165 133.033 126.169C132.901 126.184 132.763 126.243 132.648 126.348C132.494 126.497 132.443 126.714 132.51 126.884C132.644 127.206 133.027 127.29 133.306 127.134C133.377 127.093 133.435 127.039 133.479 126.975C133.506 126.94 133.551 126.921 133.597 126.925C133.709 126.937 133.833 126.906 133.989 126.841C134.292 126.705 134.63 126.443 134.774 126.202C134.774 126.236 134.785 126.277 134.811 126.323C134.869 126.42 134.969 126.499 135.02 126.471C135.072 126.443 135.058 126.319 135.003 126.221C134.998 126.214 134.994 126.209 134.989 126.202L135.035 126.192C135.233 126.129 135.364 125.96 135.318 125.793C135.274 125.631 135.063 125.536 134.852 125.604Z" fill="black"/>
<path d="M140.997 126.962L140.95 126.963C140.953 126.955 140.955 126.949 140.959 126.941C140.989 126.832 140.972 126.709 140.913 126.694C140.855 126.68 140.775 126.78 140.743 126.888C140.729 126.938 140.729 126.98 140.738 127.013C140.537 126.812 140.116 126.649 139.755 126.622C139.573 126.608 139.433 126.632 139.328 126.683C139.285 126.704 139.233 126.704 139.19 126.682C139.076 126.622 138.935 126.597 138.774 126.626C138.57 126.671 138.408 126.817 138.364 126.996C138.278 127.332 138.563 127.624 138.886 127.635C138.97 127.639 139.051 127.625 139.127 127.597C139.171 127.58 139.221 127.586 139.26 127.613C139.355 127.678 139.486 127.723 139.667 127.736C140.025 127.764 140.475 127.667 140.705 127.492C140.692 127.524 140.686 127.566 140.694 127.618C140.71 127.729 140.778 127.839 140.842 127.831C140.905 127.824 140.937 127.703 140.919 127.592C140.917 127.584 140.915 127.578 140.913 127.57L140.961 127.576C141.18 127.589 141.364 127.457 141.369 127.287C141.373 127.117 141.209 126.974 140.997 126.962Z" fill="black"/>
<path d="M120.285 140.925C120.266 140.989 120.206 141.03 120.139 141.038C119.198 141.146 118.65 141.27 118.23 141.489C117.819 141.686 117.578 141.942 117.581 142.021C117.585 142.1 117.859 142.344 118.4 142.385C118.535 142.4 118.682 142.379 118.843 142.356C119.005 142.335 119.176 142.284 119.349 142.2C119.525 142.125 119.705 142.021 119.873 141.874C120.048 141.74 120.206 141.56 120.346 141.351C120.385 141.293 120.456 141.261 120.527 141.262C120.78 141.259 121.053 141.225 121.157 141.144C121.258 141.056 121.186 140.948 120.817 140.778C120.678 140.391 120.564 140.323 120.491 140.398C120.411 140.468 120.349 140.684 120.285 140.925Z" fill="black"/>
<path d="M122.344 137.823C122.373 137.883 122.365 137.956 122.323 138.007C121.691 138.714 121.408 139.202 121.247 139.63C121.093 140.046 121.102 140.4 121.16 140.455C121.217 140.512 121.583 140.498 122.005 140.158C122.422 139.835 122.842 139.092 122.69 138.103C122.677 138.034 122.7 137.962 122.753 137.917C123.157 137.585 123.444 137.147 122.65 137.369C121.93 136.966 122.141 137.387 122.344 137.823Z" fill="black"/>
<path d="M122.157 134.061C122.213 134.097 122.242 134.163 122.233 134.229C122.096 135.154 122.125 135.736 122.269 136.188C122.391 136.627 122.628 136.899 122.709 136.906C122.789 136.914 123.06 136.682 123.199 136.177C123.322 135.69 123.272 134.871 122.595 134.116C122.548 134.063 122.531 133.99 122.553 133.923C122.692 133.435 122.71 132.894 122.158 133.518C121.35 133.568 121.729 133.811 122.157 134.061Z" fill="black"/>
<path d="M119.713 131.257C119.779 131.244 119.851 131.264 119.887 131.323C120.42 132.094 120.781 132.508 121.17 132.773C121.344 132.913 121.522 133 121.666 133.052C121.8 133.109 121.905 133.124 121.941 133.104C121.975 133.085 122.017 132.99 122.031 132.833C122.036 132.682 122.006 132.471 121.909 132.221C121.792 131.987 121.614 131.704 121.303 131.475C121.005 131.237 120.576 131.055 120.074 130.999C120.006 130.986 119.937 130.954 119.905 130.891C119.669 130.424 119.28 130.053 119.334 130.862C118.783 131.466 119.236 131.347 119.713 131.257Z" fill="black"/>
<path d="M115.948 130.827C115.99 130.776 116.059 130.748 116.125 130.766C117.042 131.016 117.626 131.059 118.092 131.006C118.546 130.945 118.858 130.795 118.885 130.708C118.907 130.645 118.732 130.311 118.234 130.106C117.755 129.891 116.904 129.836 116.052 130.4C115.993 130.439 115.918 130.454 115.853 130.426C115.366 130.218 114.824 130.182 115.398 130.765C115.375 131.575 115.642 131.197 115.948 130.827Z" fill="black"/>
<path d="M112.882 132.949C112.877 132.884 112.912 132.821 112.97 132.787C113.795 132.328 114.247 132.006 114.554 131.662C114.848 131.323 114.993 131.018 114.955 130.932C114.939 130.897 114.848 130.85 114.692 130.827C114.536 130.803 114.311 130.802 114.057 130.892C113.552 131.041 112.849 131.579 112.657 132.576C112.644 132.645 112.595 132.703 112.528 132.728C112.044 132.919 111.606 133.246 112.446 133.282C112.99 133.874 112.94 133.429 112.882 132.949Z" fill="black"/>
<path d="M111.973 136.588C111.929 136.538 111.919 136.465 111.945 136.404C112.34 135.545 112.467 134.975 112.454 134.51C112.452 134.059 112.323 133.736 112.248 133.704C112.174 133.673 111.83 133.81 111.558 134.266C111.3 134.71 111.13 135.51 111.565 136.412C111.596 136.475 111.593 136.55 111.553 136.607C111.402 136.816 111.286 137.049 111.303 137.175C111.315 137.303 111.446 137.309 111.804 137.107C112.203 137.216 112.326 137.164 112.308 137.059C112.285 136.952 112.129 136.775 111.973 136.588Z" fill="black"/>
<path d="M113.278 140.092C113.212 140.079 113.159 140.028 113.143 139.965C112.947 139.058 112.755 138.526 112.496 138.136C112.239 137.759 111.963 137.551 111.872 137.568C111.804 137.579 111.578 137.88 111.608 138.404C111.62 138.911 111.93 139.71 112.843 140.194C112.908 140.225 112.952 140.287 112.956 140.357C112.967 140.616 113.033 140.87 113.128 140.962C113.222 141.057 113.325 140.979 113.472 140.598C113.849 140.437 113.91 140.318 113.832 140.249C113.749 140.181 113.515 140.147 113.278 140.092Z" fill="black"/>
<path d="M116.607 141.799C116.55 141.832 116.477 141.829 116.42 141.792C115.628 141.273 115.126 141.029 114.67 140.925C114.23 140.82 113.884 140.84 113.828 140.907C113.781 140.961 113.809 141.336 114.2 141.711C114.573 142.077 115.376 142.438 116.368 142.161C116.436 142.142 116.511 142.16 116.563 142.209C116.953 142.538 117.441 142.792 117.106 142.033C117.411 141.299 117.022 141.525 116.607 141.799Z" fill="black"/>
<path d="M120.285 144.532C120.251 144.588 120.187 144.617 120.123 144.608C119.667 144.552 119.289 144.507 118.981 144.555C118.664 144.564 118.408 144.633 118.199 144.726C117.779 144.885 117.543 145.134 117.546 145.219C117.548 145.293 117.803 145.542 118.294 145.632C118.537 145.663 118.84 145.656 119.18 145.576C119.511 145.458 119.891 145.297 120.239 144.963C120.288 144.917 120.358 144.9 120.422 144.921C120.657 145 120.909 145.061 121.022 145.02C121.135 144.974 121.105 144.847 120.821 144.565C120.812 144.158 120.732 144.055 120.638 144.103C120.541 144.146 120.412 144.328 120.285 144.532Z" fill="black"/>
<path d="M123.414 142.631C123.407 142.694 123.36 142.746 123.297 142.764C123.072 142.829 122.882 142.903 122.712 142.979C122.532 143.042 122.378 143.114 122.245 143.191C121.985 143.357 121.767 143.496 121.617 143.665C121.468 143.834 121.364 143.993 121.296 144.115C121.232 144.241 121.213 144.341 121.23 144.378C121.247 144.413 121.338 144.462 121.488 144.49C121.64 144.523 121.847 144.524 122.085 144.453C122.321 144.382 122.614 144.277 122.869 144.032C123.001 143.915 123.132 143.778 123.256 143.619C123.37 143.448 123.472 143.249 123.561 143.032C123.586 142.971 123.644 142.928 123.713 142.921C124.205 142.852 124.68 142.667 123.896 142.416C123.507 141.712 123.451 142.157 123.414 142.631Z" fill="black"/>
<path d="M125.346 139.555C125.37 139.616 125.355 139.684 125.309 139.729C124.959 140.036 124.731 140.317 124.552 140.569C124.364 140.815 124.282 141.065 124.207 141.27C124.067 141.683 124.127 142.031 124.192 142.082C124.253 142.13 124.596 142.087 124.985 141.769C125.182 141.613 125.345 141.363 125.494 141.05C125.631 140.734 125.695 140.322 125.666 139.858C125.658 139.792 125.687 139.727 125.743 139.69C126.157 139.422 126.531 139.071 125.7 139.161C125.058 138.687 125.172 139.11 125.346 139.555Z" fill="black"/>
<path d="M125.889 135.956C125.933 136.005 125.943 136.074 125.917 136.133C125.714 136.545 125.583 136.892 125.538 137.198C125.462 137.501 125.461 137.763 125.497 137.986C125.545 138.425 125.726 138.713 125.811 138.734C125.883 138.752 126.198 138.577 126.414 138.136C126.51 137.915 126.584 137.629 126.596 137.289C126.576 136.947 126.506 136.549 126.297 136.128C126.265 136.069 126.269 135.998 126.309 135.945C126.6 135.552 126.824 135.101 126.078 135.465C125.306 135.236 125.566 135.599 125.889 135.956Z" fill="black"/>
<path d="M125.124 132.401C125.183 132.431 125.218 132.491 125.215 132.554C125.18 133.008 125.182 133.375 125.242 133.676C125.278 133.984 125.369 134.229 125.482 134.426C125.668 134.826 125.951 135.034 126.034 135.026C126.112 135.018 126.334 134.751 126.397 134.263C126.408 134.023 126.376 133.729 126.267 133.404C126.133 133.086 125.922 132.733 125.568 132.415C125.516 132.37 125.493 132.303 125.51 132.239C125.573 132.004 125.612 131.756 125.566 131.646C125.514 131.538 125.389 131.575 125.117 131.876C124.708 131.911 124.608 131.998 124.66 132.087C124.707 132.182 124.907 132.292 125.124 132.401Z" fill="black"/>
<path d="M122.966 129.477C123.031 129.48 123.087 129.522 123.111 129.582C123.453 130.415 123.785 130.881 124.146 131.161C124.505 131.43 124.816 131.535 124.899 131.489C124.958 131.458 125.09 131.107 124.915 130.649C124.822 130.426 124.702 130.143 124.433 129.911C124.304 129.792 124.154 129.674 123.983 129.564C123.809 129.457 123.592 129.378 123.366 129.306C123.301 129.285 123.253 129.232 123.241 129.165C123.143 128.682 122.915 128.24 122.716 129.019C122.023 129.451 122.488 129.467 122.966 129.477Z" fill="black"/>
<path d="M119.701 127.806C119.762 127.778 119.832 127.787 119.881 127.828C120.555 128.459 121.083 128.695 121.527 128.797C121.958 128.904 122.312 128.815 122.355 128.754C122.404 128.684 122.333 128.359 121.981 128.001C121.634 127.656 120.939 127.337 119.987 127.47C119.919 127.483 119.851 127.46 119.809 127.408C119.505 127.026 119.117 126.69 119.273 127.493C118.839 128.158 119.261 128.012 119.701 127.806Z" fill="black"/>
<path d="M116.001 127.566C116.047 127.518 116.116 127.501 116.177 127.521C116.614 127.69 116.976 127.774 117.289 127.805C117.603 127.853 117.869 127.831 118.093 127.777C118.535 127.705 118.815 127.496 118.83 127.414C118.843 127.339 118.64 127.056 118.174 126.87C117.942 126.795 117.645 126.747 117.297 126.765C116.95 126.8 116.548 126.916 116.138 127.151C116.08 127.187 116.008 127.19 115.95 127.157C115.521 126.912 115.035 126.739 115.485 127.429C115.333 128.204 115.671 127.916 116.001 127.566Z" fill="black"/>
<path d="M112.516 128.75C112.538 128.69 112.594 128.648 112.659 128.643C113.111 128.59 113.492 128.564 113.781 128.455C114.081 128.371 114.321 128.265 114.504 128.13C114.879 127.889 115.063 127.605 115.044 127.521C115.028 127.45 114.728 127.249 114.226 127.261C113.981 127.281 113.679 127.337 113.367 127.498C113.066 127.682 112.724 127.912 112.465 128.323C112.427 128.378 112.361 128.409 112.294 128.401C111.781 128.333 111.296 128.435 111.992 128.843C112.214 129.628 112.352 129.178 112.516 128.75Z" fill="black"/>
<path d="M109.928 131.312C109.918 131.247 109.943 131.181 110.004 131.152C110.42 130.93 110.689 130.696 110.932 130.499C111.046 130.395 111.14 130.29 111.217 130.184C111.298 130.083 111.373 129.99 111.428 129.894C111.541 129.705 111.598 129.519 111.627 129.378C111.662 129.242 111.658 129.141 111.632 129.109C111.607 129.079 111.507 129.052 111.352 129.056C111.203 129.066 111.008 129.12 110.785 129.235C110.675 129.294 110.554 129.364 110.442 129.461C110.334 129.563 110.226 129.684 110.123 129.825C109.904 130.096 109.764 130.495 109.684 130.95C109.67 131.014 109.632 131.073 109.569 131.097C109.112 131.278 108.676 131.551 109.505 131.628C110.038 132.223 110.009 131.785 109.928 131.312Z" fill="black"/>
<path d="M108.705 134.733C108.67 134.677 108.672 134.608 108.708 134.555C108.975 134.183 109.171 133.867 109.272 133.576C109.403 133.295 109.452 133.039 109.459 132.814C109.508 132.381 109.378 132.058 109.302 132.022C109.232 131.989 108.9 132.103 108.589 132.493C108.453 132.693 108.326 132.962 108.249 133.297C108.203 133.638 108.195 134.044 108.333 134.496C108.353 134.559 108.337 134.628 108.288 134.674C107.933 135.014 107.632 135.423 108.432 135.185C109.152 135.537 108.96 135.138 108.705 134.733Z" fill="black"/>
<path d="M108.809 138.375C108.757 138.334 108.734 138.268 108.75 138.207C108.886 137.766 108.94 137.405 108.944 137.095C108.965 136.784 108.919 136.524 108.845 136.31C108.725 135.883 108.489 135.631 108.403 135.626C108.327 135.621 108.055 135.848 107.915 136.316C107.859 136.549 107.837 136.842 107.886 137.179C107.951 137.514 108.104 137.894 108.376 138.276C108.418 138.329 108.427 138.399 108.397 138.458C108.183 138.896 108.046 139.383 108.713 138.89C109.513 138.977 109.192 138.669 108.809 138.375Z" fill="black"/>
<path d="M110.27 141.699C110.207 141.682 110.16 141.63 110.151 141.567C110.108 141.339 110.07 141.14 110.037 140.962C109.996 140.78 109.944 140.622 109.882 140.482C109.78 140.192 109.649 139.967 109.5 139.796C109.229 139.446 108.922 139.289 108.839 139.314C108.767 139.335 108.589 139.642 108.635 140.131C108.672 140.37 108.755 140.658 108.936 140.953C109.036 141.096 109.158 141.242 109.304 141.384C109.443 141.53 109.622 141.664 109.837 141.778C109.896 141.811 109.932 141.872 109.929 141.939C109.894 142.443 110.023 142.914 110.397 142.207C111.18 141.941 110.719 141.83 110.27 141.699Z" fill="black"/>
<path d="M113.043 144.067C112.976 144.084 112.911 144.057 112.876 144.001C112.62 143.613 112.37 143.361 112.151 143.138C112.038 143.033 111.924 142.95 111.812 142.881C111.708 142.802 111.605 142.74 111.504 142.691C111.094 142.506 110.755 142.486 110.693 142.541C110.634 142.592 110.599 142.95 110.874 143.361C110.94 143.465 111.023 143.574 111.124 143.684C111.235 143.782 111.366 143.88 111.516 143.971C111.808 144.166 112.22 144.284 112.693 144.327C112.758 144.335 112.818 144.375 112.849 144.432C113.064 144.865 113.375 145.272 113.394 144.457C113.964 143.895 113.521 143.954 113.043 144.067Z" fill="black"/>
<path d="M116.612 145.002C116.559 145.041 116.487 145.045 116.431 145.014C116.03 144.782 115.694 144.62 115.392 144.542C115.096 144.436 114.833 144.408 114.603 144.419C114.161 144.4 113.84 144.553 113.809 144.629C113.78 144.701 113.92 145.014 114.34 145.293C114.555 145.41 114.84 145.514 115.187 145.562C115.538 145.583 115.954 145.555 116.402 145.385C116.465 145.359 116.537 145.369 116.587 145.413C116.963 145.731 117.407 145.99 117.095 145.23C117.39 144.497 117.002 144.718 116.612 145.002Z" fill="black"/>
<path d="M119.24 143.255C119.202 143.308 119.134 143.335 119.07 143.324C118.603 143.22 118.236 143.193 117.915 143.174C117.598 143.178 117.331 143.203 117.107 143.261C116.662 143.393 116.386 143.574 116.375 143.668C116.371 143.706 116.424 143.794 116.54 143.894C116.656 143.999 116.836 144.11 117.085 144.172C117.333 144.242 117.648 144.283 118.01 144.209C118.371 144.16 118.777 143.979 119.164 143.685C119.218 143.64 119.291 143.626 119.356 143.65C119.841 143.841 120.361 143.874 119.785 143.301C119.786 142.491 119.524 142.875 119.24 143.255Z" fill="black"/>
<path d="M122.402 141.277C122.4 141.342 122.354 141.397 122.291 141.421C121.423 141.768 120.932 142.068 120.62 142.41C120.306 142.727 120.185 143.06 120.215 143.128C120.249 143.205 120.583 143.327 121.093 143.194C121.345 143.129 121.624 142.974 121.902 142.738C122.033 142.609 122.162 142.458 122.282 142.286C122.402 142.113 122.49 141.896 122.572 141.671C122.595 141.607 122.653 141.56 122.721 141.545C123.207 141.425 123.694 141.202 122.876 141.017C122.443 140.348 122.402 140.787 122.402 141.277Z" fill="black"/>
<path d="M124.062 137.941C124.092 138.001 124.086 138.073 124.044 138.123C123.722 138.478 123.533 138.794 123.37 139.068C123.232 139.352 123.135 139.596 123.091 139.82C123.012 140.267 123.061 140.591 123.14 140.642C123.196 140.68 123.577 140.623 123.916 140.241C124.27 139.879 124.581 139.166 124.413 138.213C124.4 138.147 124.42 138.076 124.472 138.032C124.852 137.709 125.183 137.305 124.368 137.496C123.675 137.086 123.838 137.507 124.062 137.941Z" fill="black"/>
<path d="M124.108 134.217C124.16 134.258 124.191 134.324 124.168 134.389C124.1 134.616 124.055 134.819 124.029 135.005C123.999 135.191 123.966 135.363 123.962 135.52C123.961 135.833 123.964 136.099 124.029 136.32C124.145 136.762 124.341 137.035 124.433 137.046C124.502 137.055 124.811 136.842 124.958 136.36C125.11 135.892 125.12 135.114 124.541 134.316C124.506 134.259 124.489 134.188 124.518 134.126C124.719 133.67 124.827 133.157 124.186 133.687C123.379 133.626 123.716 133.922 124.108 134.217Z" fill="black"/>
<path d="M122.315 130.982C122.381 130.99 122.436 131.037 122.456 131.099C122.728 131.98 123.026 132.465 123.331 132.808C123.651 133.131 123.949 133.287 124.034 133.257C124.101 133.233 124.281 132.903 124.166 132.405C124.082 131.911 123.657 131.218 122.732 130.842C122.667 130.817 122.621 130.759 122.612 130.691C122.542 130.188 122.319 129.723 122.088 130.499C121.367 130.89 121.836 130.93 122.315 130.982Z" fill="black"/>
<path d="M119.015 129.21C119.076 129.179 119.149 129.187 119.198 129.235C119.916 129.837 120.429 130.114 120.888 130.214C121.324 130.33 121.674 130.28 121.727 130.211C121.773 130.154 121.723 129.8 121.36 129.429C120.998 129.082 120.283 128.708 119.296 128.874C119.229 128.881 119.158 128.859 119.113 128.81C118.786 128.436 118.371 128.109 118.564 128.909C118.143 129.586 118.569 129.428 119.015 129.21Z" fill="black"/>
<path d="M115.239 129.251C115.278 129.196 115.345 129.169 115.41 129.18C115.877 129.284 116.243 129.314 116.564 129.332C116.88 129.326 117.147 129.308 117.37 129.246C117.814 129.123 118.093 128.935 118.104 128.844C118.113 128.777 117.895 128.47 117.396 128.335C116.913 128.185 116.101 128.215 115.315 128.819C115.261 128.864 115.188 128.879 115.123 128.855C114.638 128.666 114.117 128.632 114.695 129.204C114.695 130.014 114.957 129.632 115.239 129.251Z" fill="black"/>
<path d="M112.083 131.236C112.085 131.171 112.131 131.116 112.194 131.092C113.061 130.743 113.551 130.44 113.862 130.099C114.021 129.942 114.127 129.778 114.191 129.643C114.258 129.513 114.284 129.418 114.265 129.38C114.231 129.303 113.896 129.18 113.387 129.316C113.135 129.381 112.857 129.538 112.579 129.774C112.449 129.903 112.32 130.054 112.2 130.227C112.081 130.4 111.994 130.618 111.912 130.842C111.89 130.906 111.832 130.954 111.764 130.968C111.278 131.089 110.792 131.313 111.61 131.497C112.043 132.165 112.084 131.726 112.083 131.236Z" fill="black"/>
<path d="M110.425 134.574C110.396 134.514 110.401 134.442 110.444 134.392C110.765 134.037 110.955 133.721 111.117 133.446C111.256 133.162 111.352 132.918 111.395 132.694C111.474 132.247 111.425 131.923 111.346 131.872C111.29 131.834 110.909 131.892 110.571 132.273C110.217 132.636 109.906 133.349 110.075 134.302C110.088 134.369 110.068 134.439 110.016 134.482C109.636 134.806 109.304 135.209 110.12 135.019C110.812 135.429 110.65 135.008 110.425 134.574Z" fill="black"/>
<path d="M110.379 138.299C110.326 138.258 110.296 138.192 110.319 138.127C110.387 137.9 110.432 137.697 110.458 137.511C110.489 137.325 110.522 137.153 110.526 136.996C110.527 136.682 110.523 136.417 110.459 136.195C110.342 135.754 110.147 135.48 110.055 135.47C109.986 135.46 109.677 135.673 109.529 136.154C109.377 136.623 109.368 137.401 109.945 138.2C109.98 138.256 109.998 138.327 109.969 138.389C109.767 138.845 109.659 139.357 110.3 138.829C111.107 138.891 110.771 138.594 110.379 138.299Z" fill="black"/>
<path d="M112.164 141.538C112.098 141.53 112.044 141.483 112.023 141.421C111.754 140.539 111.458 140.053 111.153 139.71C110.834 139.385 110.536 139.229 110.451 139.259C110.384 139.282 110.204 139.612 110.317 140.11C110.4 140.604 110.822 141.298 111.747 141.677C111.811 141.702 111.858 141.76 111.866 141.829C111.936 142.331 112.156 142.798 112.391 142.022C113.111 141.633 112.644 141.591 112.164 141.538Z" fill="black"/>
<path d="M115.463 143.306C115.402 143.335 115.328 143.331 115.278 143.286C114.562 142.678 114.046 142.413 113.59 142.308C113.152 142.194 112.804 142.24 112.75 142.309C112.706 142.366 112.753 142.723 113.117 143.092C113.476 143.445 114.198 143.808 115.182 143.646C115.25 143.637 115.322 143.654 115.366 143.707C115.696 144.081 116.114 144.409 115.915 143.608C116.329 142.93 115.907 143.088 115.463 143.306Z" fill="black"/>
<path d="M93.8744 128.486C94.0611 127.506 93.0921 126.452 92.0179 126.929C91.9836 126.939 91.9398 126.979 91.9819 127.012C92.8051 127.503 93.1688 128.642 92.8051 129.595C92.7987 129.622 92.8078 129.634 92.8218 129.64C92.8277 129.654 92.8388 129.664 92.8607 129.657C93.7226 129.255 94.7536 129.655 95.1977 130.566C95.2295 130.614 95.2623 130.563 95.2728 130.526C95.7006 129.34 94.76 128.28 93.8744 128.486Z" fill="black"/>
<path d="M98.0483 122.915C98.2349 121.934 97.266 120.88 96.1917 121.357C96.1575 121.367 96.1136 121.408 96.1557 121.44C96.979 121.931 97.3426 123.07 96.979 124.023C96.9725 124.05 96.9816 124.062 96.9956 124.068C97.0015 124.082 97.0126 124.092 97.0346 124.085C97.8964 123.683 98.9274 124.084 99.3715 124.994C99.4034 125.042 99.4361 124.991 99.4467 124.954C99.8744 123.769 98.9338 122.709 98.0483 122.915Z" fill="black"/>
<path d="M106.219 121.676C106.406 120.695 105.437 119.641 104.363 120.118C104.328 120.128 104.284 120.169 104.327 120.201C105.15 120.692 105.514 121.832 105.15 122.785C105.143 122.811 105.152 122.823 105.167 122.829C105.172 122.843 105.184 122.853 105.205 122.846C106.067 122.444 107.098 122.845 107.542 123.756C107.574 123.803 107.607 123.752 107.618 123.716C108.045 122.53 107.105 121.47 106.219 121.676Z" fill="black"/>
<path d="M90.0177 132.901C90.2044 131.921 89.2354 130.867 88.1612 131.344C88.127 131.354 88.0831 131.395 88.1252 131.427C88.9484 131.918 89.3121 133.057 88.9484 134.01C88.942 134.037 88.9511 134.049 88.9651 134.055C88.971 134.069 88.9821 134.079 89.004 134.072C89.8659 133.67 90.8969 134.07 91.341 134.981C91.3729 135.029 91.4056 134.978 91.4162 134.941C91.8439 133.755 90.9033 132.695 90.0177 132.901Z" fill="black"/>
<path d="M85.9098 140.142C86.0965 139.161 85.1275 138.107 84.0533 138.584C84.019 138.594 83.9752 138.635 84.0173 138.667C84.8405 139.158 85.2042 140.298 84.8405 141.25C84.8341 141.277 84.8432 141.289 84.8572 141.295C84.8631 141.309 84.8742 141.319 84.8961 141.312C85.758 140.91 86.789 141.311 87.2331 142.221C87.2649 142.269 87.2977 142.218 87.3082 142.182C87.736 140.996 86.7954 139.936 85.9098 140.142Z" fill="black"/>
<path d="M99.1381 149.083C99.3248 148.102 98.3558 147.048 97.2815 147.525C97.2473 147.535 97.2034 147.576 97.2456 147.608C98.0688 148.099 98.4325 149.238 98.0688 150.191C98.0624 150.218 98.0714 150.23 98.0855 150.236C98.0913 150.25 98.1025 150.26 98.1244 150.253C98.9863 149.851 100.017 150.252 100.461 151.162C100.493 151.21 100.526 151.159 100.537 151.122C100.964 149.937 100.024 148.876 99.1381 149.083Z" fill="black"/>
<path d="M97.2892 128.486C97.4759 127.506 96.5069 126.452 95.4327 126.929C95.3984 126.939 95.3546 126.979 95.3967 127.012C96.2199 127.503 96.5836 128.642 96.2199 129.595C96.2135 129.622 96.2226 129.634 96.2366 129.64C96.2425 129.654 96.2536 129.664 96.2755 129.657C97.1374 129.255 98.1684 129.655 98.6125 130.566C98.6443 130.614 98.6771 130.563 98.6876 130.526C99.1154 129.34 98.1748 128.28 97.2892 128.486Z" fill="black"/>
<path d="M100.704 128.486C100.891 127.506 99.9216 126.452 98.8471 126.929C98.8129 126.939 98.7693 126.979 98.8111 127.012C99.6346 127.503 99.9983 128.642 99.6344 129.595C99.6282 129.622 99.6373 129.634 99.6513 129.64C99.6572 129.654 99.6683 129.664 99.6899 129.657C100.552 129.255 101.583 129.655 102.027 130.566C102.059 130.614 102.092 130.563 102.102 130.526C102.53 129.34 101.59 128.28 100.704 128.486Z" fill="black"/>
<path d="M104.119 128.486C104.305 127.506 103.336 126.452 102.262 126.929C102.228 126.939 102.184 126.979 102.226 127.012C103.049 127.503 103.413 128.642 103.049 129.595C103.043 129.622 103.052 129.634 103.066 129.64C103.072 129.654 103.083 129.664 103.105 129.657C103.967 129.255 104.998 129.655 105.442 130.566C105.474 130.614 105.507 130.563 105.517 130.526C105.945 129.34 105.004 128.28 104.119 128.486Z" fill="black"/>
<path d="M93.8066 143.864C94.0005 142.883 92.9933 141.829 91.8769 142.306C91.8412 142.316 91.7958 142.357 91.8394 142.389C92.6949 142.88 93.0728 144.02 92.6949 144.973C92.6884 144.999 92.6978 145.011 92.7127 145.017C92.7186 145.032 92.7303 145.041 92.7525 145.034C93.6486 144.632 94.7199 145.033 95.1816 145.944C95.2146 145.991 95.2486 145.94 95.2597 145.904C95.7041 144.718 94.727 143.658 93.8066 143.864Z" fill="black"/>
<path d="M97.3552 143.864C97.5491 142.883 96.5421 141.829 95.4255 142.306C95.3898 142.316 95.3444 142.357 95.388 142.389C96.2437 142.88 96.6217 144.02 96.2437 144.973C96.237 144.999 96.2467 145.011 96.2613 145.017C96.2674 145.032 96.2788 145.041 96.3014 145.034C97.1972 144.632 98.2685 145.033 98.7302 145.944C98.7635 145.991 98.7975 145.94 98.8083 145.904C99.253 144.718 98.2755 143.658 97.3552 143.864Z" fill="black"/>
<path d="M100.904 143.864C101.098 142.883 100.091 141.829 98.9746 142.306C98.9389 142.316 98.8936 142.357 98.9369 142.389C99.7926 142.88 100.171 144.02 99.7926 144.973C99.7859 144.999 99.7955 145.011 99.8102 145.017C99.8163 145.032 99.828 145.041 99.8503 145.034C100.746 144.632 101.818 145.033 102.279 145.944C102.312 145.991 102.346 145.94 102.357 145.904C102.802 144.718 101.825 143.658 100.904 143.864Z" fill="black"/>
<path d="M104.453 143.864C104.647 142.883 103.64 141.829 102.523 142.306C102.487 142.316 102.442 142.357 102.486 142.389C103.341 142.88 103.719 144.02 103.341 144.973C103.335 144.999 103.344 145.011 103.359 145.017C103.365 145.032 103.377 145.041 103.399 145.034C104.295 144.632 105.366 145.033 105.828 145.944C105.861 145.991 105.895 145.94 105.906 145.904C106.351 144.718 105.373 143.658 104.453 143.864Z" fill="black"/>
<path d="M94.9883 140.157C95.2291 139.237 94.2534 138.279 93.0978 138.754C93.0613 138.764 93.0133 138.804 93.0563 138.833C93.9032 139.268 94.2362 140.321 93.8096 141.221C93.8017 141.246 93.8108 141.257 93.8254 141.262C93.831 141.275 93.8424 141.284 93.8655 141.277C94.7935 140.878 95.8639 141.223 96.2919 142.061C96.3235 142.105 96.3604 142.056 96.373 142.022C96.8776 140.903 95.9324 139.94 94.9883 140.157Z" fill="black"/>
<path d="M97.0677 138.204C97.3085 137.284 96.3328 136.327 95.1772 136.802C95.141 136.812 95.093 136.851 95.1357 136.881C95.9829 137.316 96.3159 138.369 95.8893 139.269C95.8814 139.293 95.8905 139.305 95.9051 139.31C95.9104 139.323 95.9218 139.332 95.9449 139.325C96.8729 138.926 97.9434 139.271 98.3714 140.109C98.403 140.153 98.4398 140.104 98.4527 140.069C98.9574 138.951 98.0121 137.988 97.0677 138.204Z" fill="black"/>
<path d="M99.1474 136.252C99.3882 135.332 98.4125 134.375 97.257 134.849C97.2207 134.859 97.1724 134.899 97.2154 134.928C98.0627 135.363 98.3956 136.417 97.9687 137.316C97.9611 137.341 97.9702 137.352 97.9848 137.357C97.9901 137.37 98.0015 137.379 98.0246 137.372C98.9526 136.973 100.023 137.319 100.451 138.156C100.483 138.2 100.52 138.152 100.532 138.117C101.037 136.998 100.092 136.035 99.1474 136.252Z" fill="black"/>
<path d="M101.227 134.3C101.468 133.379 100.492 132.422 99.3368 132.897C99.3005 132.907 99.2522 132.947 99.2952 132.976C100.142 133.411 100.475 134.464 100.049 135.364C100.041 135.389 100.05 135.4 100.065 135.405C100.07 135.418 100.081 135.427 100.104 135.42C101.032 135.021 102.103 135.366 102.531 136.204C102.562 136.248 102.599 136.199 102.612 136.165C103.117 135.046 102.171 134.083 101.227 134.3Z" fill="black"/>
<path d="M103.307 132.347C103.548 131.427 102.572 130.47 101.416 130.945C101.38 130.955 101.332 130.994 101.375 131.024C102.222 131.459 102.555 132.512 102.128 133.412C102.12 133.436 102.129 133.448 102.144 133.453C102.15 133.466 102.161 133.475 102.184 133.468C103.112 133.069 104.183 133.414 104.611 134.252C104.642 134.296 104.679 134.247 104.692 134.212C105.196 133.094 104.251 132.131 103.307 132.347Z" fill="black"/>
<path d="M85.9365 148.848H92.8043C95.9258 148.848 98.0589 150.912 98.0589 153.512C98.0589 155.194 97.1484 156.621 95.8217 157.283V157.436C97.3825 158.226 98.3974 159.934 98.3974 161.743C98.3974 164.546 95.9779 166.687 92.7522 166.687H85.9365V148.848ZM92.596 156.442C94.2349 156.442 95.4317 155.321 95.4317 153.766C95.4317 152.212 94.2349 151.116 92.596 151.116H88.5116V156.442H92.596ZM92.83 164.418C94.4171 164.418 95.7699 163.119 95.7699 161.565C95.7699 160.01 94.4171 158.685 92.83 158.685H88.5116V164.418H92.83Z" fill="black"/>
<path d="M102.22 148.848H109.087C112.209 148.848 114.473 151.065 114.473 154.021C114.473 156.391 113.042 158.175 110.701 158.863L115.123 166.687H112.236L108.099 159.322H104.795V166.687H102.22V148.848ZM108.827 157.054C110.518 157.054 111.845 155.728 111.845 154.072C111.845 152.441 110.518 151.116 108.827 151.116H104.795V157.054H108.827Z" fill="black"/>
<path d="M118.789 148.848H121.416L130.574 162.303H130.73V148.848H133.227V166.687H130.599L121.416 153.231H121.261V166.687H118.789V148.848Z" fill="black"/>
<path d="M137.361 157.767C137.361 152.416 141.263 148.568 146.648 148.568C152.033 148.568 155.935 152.416 155.935 157.767C155.935 163.119 152.033 166.967 146.648 166.967C141.263 166.967 137.361 163.119 137.361 157.767ZM146.648 164.648C150.55 164.648 153.308 161.819 153.308 157.767C153.308 153.715 150.55 150.887 146.648 150.887C142.72 150.887 139.989 153.715 139.989 157.767C139.989 161.819 142.72 164.648 146.648 164.648Z" fill="black"/>
<path d="M120.651 134.951C120.707 134.991 120.74 135.059 120.722 135.127C120.523 136.059 120.453 136.636 120.503 137.103C120.524 137.332 120.568 137.523 120.612 137.664C120.662 137.807 120.717 137.899 120.754 137.913C120.793 137.927 120.895 137.895 121.019 137.795C121.15 137.697 121.3 137.527 121.416 137.273C121.533 137.021 121.606 136.684 121.581 136.293C121.539 135.905 121.417 135.451 121.091 135.036C121.051 134.977 121.031 134.901 121.053 134.833C121.142 134.583 121.176 134.309 121.122 134.181C121.068 134.049 120.945 134.086 120.664 134.394C120.254 134.402 120.154 134.495 120.199 134.588C120.247 134.683 120.45 134.804 120.651 134.951Z" fill="black"/>
<path d="M114.392 133.831C114.386 133.761 114.43 133.701 114.492 133.672C114.932 133.466 115.267 133.327 115.553 133.207C115.834 133.082 116.06 132.963 116.254 132.842C116.446 132.722 116.602 132.601 116.713 132.5C116.822 132.392 116.883 132.309 116.879 132.268C116.876 132.229 116.803 132.149 116.656 132.084C116.509 132.013 116.285 131.953 115.995 131.967C115.708 131.981 115.351 132.076 115.008 132.314C114.663 132.542 114.346 132.937 114.197 133.437C114.175 133.507 114.117 133.563 114.051 133.59C113.927 133.635 113.8 133.69 113.695 133.751C113.597 133.815 113.519 133.883 113.484 133.942C113.411 134.066 113.518 134.138 113.937 134.163C114.198 134.474 114.335 134.493 114.381 134.402C114.405 134.354 114.409 134.273 114.403 134.171C114.404 134.074 114.399 133.956 114.392 133.831Z" fill="black"/>
<path d="M116.604 140.005C116.544 140.036 116.466 140.039 116.413 139.992C116.021 139.708 115.748 139.463 115.503 139.278C115.256 139.097 115.054 138.945 114.851 138.839C114.467 138.612 114.126 138.506 114.048 138.552C113.988 138.585 113.887 138.958 114.173 139.463C114.324 139.701 114.566 139.979 114.945 140.162C115.314 140.349 115.808 140.46 116.333 140.357C116.405 140.349 116.484 140.361 116.537 140.412C116.729 140.6 116.968 140.745 117.109 140.754C117.253 140.764 117.272 140.639 117.11 140.258C117.281 139.893 117.239 139.764 117.133 139.763C117.024 139.763 116.825 139.893 116.604 140.005Z" fill="black"/>
<path d="M120.474 146.325C120.435 146.383 120.363 146.402 120.295 146.39C119.339 146.227 118.708 146.293 118.253 146.479C117.803 146.625 117.554 146.885 117.556 146.967C117.558 147.044 117.824 147.281 118.337 147.386C118.839 147.455 119.617 147.377 120.397 146.749C120.452 146.705 120.529 146.699 120.593 146.719C121.073 146.875 121.598 146.949 121.027 146.354C121.061 145.552 120.757 145.909 120.474 146.325Z" fill="black"/>
<path d="M127.515 137.877C127.55 137.934 127.547 138.007 127.51 138.064C127.264 138.469 127.06 138.808 126.957 139.121C126.862 139.435 126.794 139.701 126.785 139.936C126.774 140.171 126.809 140.37 126.854 140.515C126.889 140.656 126.942 140.745 126.98 140.76C127.017 140.775 127.12 140.748 127.255 140.665C127.378 140.578 127.528 140.433 127.669 140.219C127.808 140.005 127.952 139.725 127.988 139.366C128.034 139.009 128.047 138.59 127.887 138.117C127.866 138.05 127.883 137.977 127.932 137.928C128.11 137.748 128.28 137.548 128.295 137.426C128.305 137.304 128.177 137.268 127.79 137.395C127.417 137.208 127.287 137.231 127.286 137.343C127.281 137.456 127.388 137.664 127.515 137.877Z" fill="black"/>
<path d="M123.423 127.603C123.491 127.601 123.554 127.639 123.586 127.698C123.698 127.913 123.824 128.079 123.927 128.249C124.031 128.418 124.138 128.561 124.248 128.683C124.476 128.916 124.67 129.112 124.873 129.237C125.282 129.482 125.622 129.548 125.69 129.499C125.753 129.454 125.819 129.089 125.574 128.638C125.455 128.413 125.284 128.144 124.981 127.931C124.835 127.82 124.667 127.712 124.478 127.615C124.29 127.516 124.055 127.457 123.814 127.4C123.745 127.385 123.688 127.334 123.667 127.268C123.629 127.146 123.586 127.024 123.538 126.924C123.485 126.831 123.429 126.758 123.376 126.724C123.269 126.656 123.179 126.751 123.113 127.148C122.774 127.383 122.734 127.508 122.833 127.561C122.883 127.588 122.97 127.598 123.077 127.598C123.179 127.605 123.299 127.606 123.423 127.603Z" fill="black"/>
<path d="M115.933 125.808C115.982 125.762 116.054 125.739 116.119 125.767C116.58 125.952 116.963 126.021 117.297 126.058C117.63 126.106 117.914 126.085 118.151 126.032C118.621 125.941 118.909 125.75 118.922 125.662C118.933 125.592 118.713 125.29 118.223 125.124C117.979 125.049 117.668 125.001 117.304 125.018C116.941 125.046 116.522 125.178 116.085 125.396C116.023 125.424 115.948 125.434 115.888 125.399C115.445 125.156 114.945 124.984 115.393 125.676C115.207 126.455 115.575 126.162 115.933 125.808Z" fill="black"/>
<path d="M107.375 132.748C107.351 132.686 107.368 132.615 107.415 132.565C107.582 132.39 107.718 132.224 107.831 132.064C107.96 131.912 108.063 131.764 108.145 131.622C108.228 131.48 108.288 131.342 108.334 131.211C108.393 131.086 108.433 130.966 108.462 130.852C108.57 130.398 108.487 130.048 108.424 130.007C108.352 129.96 108.005 130.043 107.645 130.415C107.555 130.508 107.464 130.617 107.376 130.745C107.302 130.878 107.233 131.031 107.174 131.202C107.116 131.373 107.068 131.562 107.036 131.768C107.021 131.98 107.026 132.209 107.053 132.452C107.06 132.521 107.03 132.589 106.972 132.63C106.539 132.926 106.232 133.322 107.035 133.182C107.717 133.659 107.536 133.198 107.375 132.748Z" fill="black"/>
<path d="M109.588 143.644C109.522 143.632 109.468 143.582 109.449 143.517C109.385 143.285 109.3 143.094 109.232 142.909C109.166 142.722 109.091 142.56 109.01 142.418C108.836 142.142 108.682 141.914 108.511 141.749C108.163 141.426 107.835 141.3 107.762 141.333C107.687 141.367 107.558 141.708 107.702 142.198C107.769 142.444 107.884 142.737 108.134 143.007C108.254 143.145 108.395 143.284 108.559 143.418C108.724 143.55 108.939 143.658 109.163 143.763C109.227 143.792 109.272 143.852 109.278 143.922C109.294 144.181 109.356 144.427 109.448 144.512C109.539 144.601 109.647 144.526 109.795 144.151C110.177 143.991 110.242 143.876 110.157 143.805C110.068 143.734 109.826 143.694 109.588 143.644Z" fill="black"/>
<path d="M126.233 142.707C126.234 142.773 126.196 142.835 126.136 142.865C125.727 143.094 125.376 143.281 125.135 143.5C125.011 143.607 124.912 143.72 124.823 143.825C124.728 143.924 124.651 144.024 124.588 144.121C124.339 144.511 124.312 144.869 124.365 144.933C124.414 144.993 124.764 145.019 125.22 144.79C125.334 144.733 125.454 144.66 125.576 144.569C125.691 144.473 125.801 144.35 125.91 144.211C126.122 143.926 126.346 143.579 126.437 143.094C126.452 143.027 126.502 142.973 126.569 142.954C127.057 142.817 127.53 142.595 126.708 142.428C126.263 141.767 126.22 142.221 126.233 142.707Z" fill="black"/>
<path d="M125.965 127.699C126.031 127.716 126.075 127.773 126.086 127.839C126.154 128.314 126.3 128.656 126.421 128.957C126.544 129.256 126.704 129.479 126.87 129.648C127.176 129.995 127.492 130.137 127.574 130.105C127.642 130.078 127.798 129.747 127.707 129.253C127.651 129.012 127.537 128.729 127.34 128.435C127.145 128.14 126.804 127.869 126.394 127.619C126.335 127.585 126.301 127.519 126.301 127.452C126.285 126.964 126.179 126.466 125.803 127.19C125.024 127.442 125.471 127.591 125.965 127.699Z" fill="black"/>
<path d="M110.502 125.932C110.525 125.871 110.583 125.828 110.651 125.822C111.131 125.772 111.494 125.664 111.813 125.571C112.126 125.468 112.356 125.309 112.545 125.173C112.924 124.908 113.082 124.59 113.056 124.512C113.032 124.439 112.712 124.285 112.197 124.328C111.943 124.353 111.655 124.463 111.344 124.638C111.027 124.802 110.723 125.107 110.449 125.506C110.411 125.562 110.343 125.594 110.273 125.587C109.755 125.539 109.264 125.641 109.966 126.045C110.177 126.837 110.337 126.378 110.502 125.932Z" fill="black"/>
<path d="M105.936 139.283C105.883 139.241 105.86 139.173 105.875 139.109C105.964 138.655 106.044 138.268 106.027 137.944C106.013 137.62 105.946 137.351 105.88 137.129C105.732 136.689 105.467 136.448 105.384 136.449C105.305 136.45 105.062 136.704 104.953 137.19C104.889 137.434 104.89 137.733 104.973 138.074C105.059 138.413 105.185 138.801 105.502 139.184C105.544 139.239 105.554 139.311 105.525 139.373C105.315 139.825 105.179 140.32 105.844 139.818C106.647 139.918 106.321 139.589 105.936 139.283Z" fill="black"/>
<path d="M116.571 148.414C116.516 148.453 116.442 148.456 116.383 148.425C115.959 148.219 115.598 148.059 115.277 147.98C114.957 147.902 114.674 147.903 114.441 147.901C113.973 147.92 113.66 148.101 113.638 148.18C113.616 148.254 113.796 148.553 114.247 148.792C114.47 148.923 114.768 148.992 115.126 149.009C115.484 149.028 115.902 148.993 116.361 148.797C116.426 148.772 116.5 148.782 116.553 148.825C116.944 149.144 117.395 149.403 117.075 148.643C117.382 147.911 116.973 148.131 116.571 148.414Z" fill="black"/>
</g>
</svg>
