<svg width="240" height="180" viewBox="0 0 240 180" fill="none" xmlns="http://www.w3.org/2000/svg">
<rect width="240" height="180" fill="#F9F0E4"/>
<g opacity="0.25">
<path d="M134.255 87.5946L134.207 87.6127C134.207 87.6041 134.208 87.5975 134.209 87.588C134.205 87.4751 134.147 87.3639 134.075 87.3731C134.003 87.3823 133.954 87.5066 133.967 87.617C133.973 87.6688 133.99 87.7075 134.013 87.735C133.874 87.6812 133.684 87.6815 133.475 87.709C133.28 87.7522 133.067 87.8288 132.906 87.9345C132.748 88.046 132.651 88.1578 132.603 88.2641C132.582 88.3065 132.543 88.342 132.498 88.3561C132.374 88.3916 132.253 88.471 132.164 88.5922C132.037 88.7541 132.04 88.976 132.134 89.1324C132.32 89.4293 132.708 89.4468 132.951 89.2534C133.011 89.2021 133.056 89.1393 133.086 89.0697C133.102 89.0275 133.141 89.0018 133.186 89.0009C133.295 88.996 133.411 88.9565 133.54 88.8648C133.668 88.7805 133.797 88.6765 133.906 88.5495C134.02 88.4432 134.115 88.3071 134.175 88.1881C134.176 88.2217 134.189 88.2621 134.215 88.3076C134.273 88.4054 134.362 88.4896 134.403 88.4661C134.445 88.4426 134.433 88.318 134.384 88.2179C134.379 88.2105 134.376 88.2053 134.372 88.1985C134.385 88.1962 134.399 88.1944 134.413 88.1904C134.588 88.1423 134.721 87.997 134.704 87.823C134.69 87.6585 134.482 87.5339 134.255 87.5946Z" fill="black"/>
<path d="M130.189 91.9151L130.161 91.9581C130.157 91.9509 130.153 91.9452 130.148 91.9375C130.075 91.8498 129.96 91.7953 129.908 91.8452C129.857 91.895 129.894 92.0231 129.973 92.1034C130.01 92.1412 130.047 92.1619 130.082 92.1704C129.938 92.2094 129.787 92.3218 129.638 92.4679C129.509 92.6178 129.387 92.8044 129.324 92.9841C129.266 93.1666 129.258 93.3128 129.285 93.4263C129.294 93.4724 129.285 93.5237 129.258 93.5615C129.181 93.663 129.134 93.7977 129.137 93.9473C129.137 94.151 129.275 94.3264 129.447 94.3952C129.778 94.5222 130.098 94.3064 130.172 94.0089C130.189 93.9321 130.185 93.8556 130.166 93.7828C130.154 93.7392 130.169 93.6957 130.205 93.6681C130.288 93.5999 130.356 93.4996 130.402 93.3506C130.453 93.2073 130.491 93.0485 130.5 92.8829C130.524 92.731 130.517 92.5657 130.491 92.4358C130.513 92.4616 130.548 92.4866 130.597 92.5072C130.703 92.551 130.826 92.5654 130.844 92.5221C130.863 92.4788 130.776 92.3868 130.676 92.3358C130.668 92.3327 130.662 92.3304 130.654 92.3275C130.664 92.3175 130.673 92.3083 130.682 92.2971C130.792 92.1553 130.809 91.9604 130.688 91.8314C130.575 91.709 130.332 91.7325 130.189 91.9151Z" fill="black"/>
<path d="M128.397 92.1268L128.361 92.1635C128.358 92.1555 128.355 92.1491 128.352 92.1405C128.299 92.0402 128.198 91.9637 128.137 92.0024C128.076 92.0408 128.086 92.1738 128.146 92.2681C128.174 92.3125 128.207 92.34 128.239 92.3555C128.09 92.3649 127.919 92.4449 127.742 92.5578C127.584 92.6788 127.426 92.8372 127.327 93C127.232 93.1674 127.194 93.309 127.197 93.4253C127.196 93.4726 127.177 93.5207 127.142 93.5526C127.046 93.6365 126.972 93.7592 126.944 93.9059C126.9 94.1054 127 94.3046 127.154 94.4066C127.451 94.5969 127.81 94.4496 127.944 94.173C127.976 94.1014 127.989 94.026 127.986 93.9506C127.983 93.9053 128.006 93.8658 128.047 93.846C128.143 93.7959 128.231 93.7116 128.307 93.5746C128.386 93.4448 128.456 93.2966 128.499 93.1361C128.555 92.9926 128.582 92.8292 128.584 92.6968C128.6 92.7266 128.629 92.7579 128.673 92.7879C128.768 92.8519 128.885 92.8905 128.912 92.8521C128.939 92.8135 128.874 92.706 128.786 92.6358C128.779 92.6312 128.773 92.6277 128.766 92.6234C128.778 92.6157 128.789 92.6085 128.8 92.5991C128.937 92.4822 128.994 92.295 128.903 92.1446C128.818 92.0021 128.575 91.9766 128.397 92.1268Z" fill="black"/>
<path d="M137.668 88.0185L137.623 88.0183C137.626 88.0105 137.628 88.0045 137.632 87.9959C137.666 87.889 137.657 87.7649 137.604 87.7489C137.548 87.7345 137.479 87.826 137.44 87.9317C137.423 87.9807 137.418 88.0228 137.424 88.0567C137.259 87.8512 136.936 87.6265 136.597 87.5273C136.431 87.4778 136.279 87.474 136.169 87.5033C136.124 87.5144 136.069 87.5076 136.03 87.4778C135.926 87.3984 135.785 87.3485 135.62 87.3594C135.402 87.3643 135.212 87.515 135.163 87.6858C135.08 88.0211 135.301 88.314 135.582 88.3713C135.656 88.3839 135.733 88.3862 135.805 88.3676C135.848 88.3581 135.891 88.3699 135.922 88.404C135.998 88.4863 136.101 88.5482 136.274 88.5995C136.603 88.6969 137.097 88.696 137.352 88.5318C137.335 88.5619 137.325 88.6032 137.329 88.6559C137.336 88.7671 137.409 88.888 137.471 88.8809C137.536 88.876 137.574 88.7562 137.561 88.645C137.559 88.6364 137.558 88.6304 137.556 88.6224L137.604 88.6307C137.82 88.6545 138.005 88.5249 138.012 88.3538C138.02 88.1853 137.866 88.0406 137.668 88.0185Z" fill="black"/>
<path d="M140.71 87.4157L140.674 87.4424C140.672 87.4341 140.671 87.4278 140.668 87.4189C140.628 87.3131 140.545 87.2226 140.494 87.2381C140.443 87.253 140.44 87.3748 140.475 87.4811C140.491 87.5309 140.514 87.5668 140.54 87.5903C140.271 87.5278 139.881 87.5593 139.593 87.6384C139.448 87.6874 139.342 87.7347 139.27 87.8138C139.24 87.8459 139.196 87.8571 139.155 87.8425C139.046 87.8038 138.93 87.8109 138.807 87.8505C138.642 87.9133 138.505 88.0623 138.464 88.2408C138.383 88.5764 138.672 88.8768 139.057 88.8363C139.152 88.8229 139.239 88.7911 139.311 88.7464C139.354 88.7209 139.409 88.7154 139.457 88.7283C139.572 88.759 139.729 88.7722 139.919 88.71C140.304 88.6036 140.687 88.2835 140.777 88.0104C140.783 88.0442 140.801 88.0826 140.837 88.1222C140.912 88.2064 141.035 88.2592 141.087 88.2179C141.139 88.1766 141.093 88.0565 141.015 87.9766C141.008 87.9711 141.003 87.9671 140.997 87.962L141.04 87.9393C141.229 87.8244 141.292 87.6118 141.189 87.4725C141.089 87.3369 140.875 87.3152 140.71 87.4157Z" fill="black"/>
<path d="M141.073 84.891L141.049 84.928C141.044 84.9208 141.041 84.9156 141.035 84.9079C140.96 84.8222 140.85 84.7658 140.807 84.7973C140.765 84.8288 140.805 84.9437 140.876 85.032C140.909 85.073 140.943 85.0988 140.975 85.1122C140.701 85.1449 140.346 85.306 140.104 85.4779C139.985 85.5731 139.902 85.6533 139.862 85.7519C139.846 85.7917 139.809 85.8172 139.765 85.8175C139.649 85.8181 139.543 85.864 139.441 85.9431C139.308 86.0577 139.233 86.2437 139.258 86.4251C139.3 86.7673 139.676 86.9518 140.024 86.7833C140.108 86.7386 140.178 86.6793 140.231 86.6128C140.262 86.5744 140.311 86.5509 140.36 86.5466C140.48 86.5366 140.631 86.4959 140.788 86.3729C141.112 86.1431 141.358 85.7129 141.346 85.4261C141.364 85.4561 141.394 85.4859 141.441 85.5109C141.542 85.5645 141.676 85.5722 141.711 85.516C141.745 85.4596 141.659 85.3624 141.557 85.314C141.549 85.3111 141.543 85.3091 141.535 85.3063L141.567 85.2704C141.704 85.0985 141.689 84.8778 141.543 84.7821C141.401 84.6887 141.193 84.7405 141.073 84.891Z" fill="black"/>
<path d="M143.036 85.2366L143.013 85.2738C143.008 85.2675 143.004 85.2624 142.998 85.2552C142.918 85.1764 142.801 85.1257 142.761 85.1618C142.721 85.1976 142.77 85.3105 142.847 85.3931C142.883 85.4315 142.92 85.4544 142.953 85.4653C142.682 85.5203 142.332 85.7198 142.109 85.945C141.988 86.0622 141.923 86.1752 141.896 86.2809C141.885 86.3233 141.853 86.3583 141.81 86.3712C141.695 86.405 141.591 86.4798 141.513 86.5887C141.41 86.7412 141.394 86.9438 141.474 87.1089C141.622 87.4224 142.033 87.4834 142.305 87.2447C142.37 87.1848 142.419 87.1143 142.451 87.0401C142.469 86.9962 142.509 86.9641 142.556 86.9535C142.669 86.9272 142.79 86.8578 142.921 86.7314C143.185 86.4663 143.384 86.0339 143.349 85.7484C143.369 85.7768 143.402 85.804 143.451 85.8252C143.555 85.8705 143.689 85.8691 143.717 85.8109C143.746 85.753 143.656 85.6642 143.55 85.622C143.541 85.6198 143.534 85.618 143.526 85.616L143.558 85.5793C143.676 85.3959 143.648 85.1784 143.497 85.0942C143.347 85.0102 143.14 85.0738 143.036 85.2366Z" fill="black"/>
<path d="M130.879 88.8664L130.867 88.908C130.86 88.9028 130.855 88.8991 130.847 88.8934C130.751 88.8352 130.624 88.8131 130.594 88.8573C130.564 88.9017 130.639 89 130.734 89.0622C130.778 89.0911 130.819 89.1052 130.854 89.108C130.604 89.2241 130.312 89.4989 130.15 89.7695C130.06 89.9116 130.025 90.036 130.025 90.1449C130.024 90.1887 130.001 90.2303 129.962 90.2529C129.858 90.3125 129.776 90.4091 129.727 90.5329C129.663 90.7049 129.696 90.9055 129.814 91.0473C130.033 91.3179 130.447 91.2818 130.654 90.9869C130.703 90.9138 130.734 90.8338 130.746 90.7542C130.754 90.7074 130.785 90.6668 130.828 90.6458C130.932 90.594 131.032 90.4985 131.129 90.3455C131.321 90.0268 131.411 89.5605 131.307 89.2911C131.334 89.3141 131.372 89.333 131.425 89.3422C131.537 89.3622 131.666 89.3298 131.68 89.2668C131.694 89.2037 131.586 89.1381 131.471 89.1221C131.462 89.1218 131.456 89.1215 131.447 89.1215L131.469 89.0785C131.54 88.873 131.46 88.6681 131.294 88.6211C131.127 88.5744 130.941 88.6842 130.879 88.8664Z" fill="black"/>
<path d="M144.025 82.2912L144.027 82.335C144.019 82.3322 144.012 82.3296 144.004 82.3264C143.892 82.2984 143.767 82.313 143.753 82.3648C143.736 82.4161 143.837 82.4892 143.946 82.5213C143.997 82.5362 144.04 82.5377 144.074 82.5305C143.871 82.7136 143.676 83.0653 143.602 83.365C143.561 83.5175 143.565 83.6401 143.591 83.7404C143.602 83.7814 143.592 83.8259 143.561 83.8559C143.482 83.937 143.416 84.0385 143.403 84.1689C143.382 84.344 143.452 84.5297 143.6 84.6486C143.864 84.8705 144.275 84.7575 144.408 84.4091C144.443 84.3242 144.456 84.2368 144.447 84.1534C144.442 84.1044 144.462 84.0557 144.499 84.023C144.59 83.9442 144.661 83.8178 144.71 83.6344C144.802 83.2707 144.743 82.8025 144.563 82.5752C144.595 82.5895 144.637 82.5964 144.691 82.5901C144.804 82.5769 144.919 82.5096 144.913 82.4457C144.907 82.382 144.781 82.3499 144.669 82.3671C144.66 82.3694 144.654 82.3711 144.646 82.3734L144.652 82.3262C144.665 82.1109 144.525 81.9375 144.349 81.939C144.178 81.9401 144.036 82.098 144.025 82.2912Z" fill="black"/>
<path d="M146.117 72.7728L146.08 72.7975C146.079 72.7892 146.077 72.7826 146.076 72.7737C146.042 72.6662 145.964 72.5694 145.911 72.584C145.858 72.5969 145.847 72.719 145.876 72.827C145.89 72.8774 145.911 72.9144 145.935 72.9391C145.669 72.8648 145.261 72.8852 144.961 72.9789C144.807 73.0245 144.702 73.0921 144.628 73.1658C144.599 73.197 144.554 73.2116 144.512 73.2013C144.4 73.1772 144.277 73.1749 144.157 73.232C143.993 73.3062 143.868 73.4612 143.841 73.6466C143.786 73.9831 144.098 74.268 144.472 74.1975C144.564 74.1826 144.647 74.1479 144.715 74.0963C144.755 74.0671 144.808 74.0582 144.855 74.0717C144.972 74.1072 145.119 74.1003 145.304 74.0456C145.669 73.9324 146.046 73.6392 146.15 73.3707C146.155 73.4048 146.171 73.4437 146.204 73.485C146.275 73.5733 146.393 73.6335 146.446 73.5959C146.498 73.5569 146.461 73.4357 146.387 73.3509C146.38 73.3449 146.376 73.3406 146.37 73.3348L146.414 73.3154C146.608 73.2139 146.686 73.0064 146.594 72.8605C146.503 72.7178 146.292 72.6817 146.117 72.7728Z" fill="black"/>
<path d="M143.732 79.011V79.0606C143.724 79.0574 143.718 79.0551 143.709 79.0514C143.6 79.021 143.472 79.0402 143.457 79.1076C143.446 79.1743 143.553 79.256 143.666 79.2792C143.718 79.2904 143.761 79.287 143.794 79.2752C143.592 79.4922 143.513 79.9799 143.584 80.3299C143.617 80.5061 143.68 80.6279 143.755 80.7053C143.785 80.7374 143.798 80.7832 143.786 80.8254C143.752 80.9403 143.755 81.0478 143.802 81.1733C143.869 81.3395 144.03 81.4688 144.213 81.5011C144.559 81.5645 144.851 81.2739 144.802 80.9073C144.787 80.8168 144.756 80.7282 144.708 80.664C144.68 80.625 144.674 80.5749 144.69 80.5305C144.73 80.4207 144.738 80.2909 144.707 80.1258C144.643 79.8051 144.47 79.4664 144.285 79.2721C144.318 79.2821 144.361 79.2838 144.413 79.2738C144.525 79.2514 144.632 79.1924 144.62 79.1434C144.612 79.095 144.489 79.0677 144.375 79.0826C144.367 79.0846 144.36 79.0861 144.352 79.0881C144.355 79.0743 144.359 79.0611 144.36 79.0468C144.368 78.8631 144.258 78.6923 144.088 78.6616C143.916 78.6307 143.744 78.7857 143.732 79.011Z" fill="black"/>
<path d="M142.53 77.651L142.515 77.6983C142.508 77.6928 142.503 77.6888 142.496 77.6828C142.401 77.6209 142.274 77.6011 142.238 77.6604C142.206 77.7206 142.284 77.8307 142.383 77.8865C142.429 77.9129 142.472 77.9224 142.507 77.9212C142.247 78.0671 142.019 78.5079 141.977 78.8624C141.954 79.0398 141.976 79.1747 142.022 79.2707C142.041 79.3106 142.04 79.3579 142.015 79.3945C141.946 79.4937 141.916 79.5969 141.921 79.7307C141.933 79.9087 142.046 80.0801 142.21 80.1655C142.52 80.3297 142.889 80.1405 142.956 79.7769C142.971 79.686 142.969 79.5926 142.943 79.5169C142.928 79.4716 142.938 79.4218 142.967 79.3845C143.04 79.292 143.088 79.1707 143.11 79.0042C143.149 78.6798 143.091 78.3055 142.975 78.0651C143.003 78.0843 143.044 78.0989 143.097 78.1052C143.21 78.1175 143.33 78.0929 143.334 78.0427C143.342 77.9946 143.233 77.9315 143.12 77.9118C143.111 77.9112 143.105 77.9106 143.097 77.91C143.104 77.898 143.111 77.8863 143.117 77.8731C143.182 77.7008 143.13 77.5051 142.979 77.4251C142.825 77.344 142.612 77.44 142.53 77.651Z" fill="black"/>
<path d="M145.281 75.9226L145.252 75.9607C145.248 75.9532 145.245 75.9475 145.24 75.9392C145.174 75.8475 145.065 75.7827 145.014 75.8214C144.964 75.8604 144.993 75.9862 145.062 76.0759C145.094 76.1177 145.128 76.1432 145.161 76.1564C144.871 76.1839 144.479 76.4533 144.271 76.7726C144.167 76.9348 144.115 77.0686 144.122 77.1927C144.123 77.2417 144.102 77.291 144.063 77.3222C143.959 77.4051 143.873 77.5289 143.852 77.6879C143.811 77.8989 143.905 78.1012 144.072 78.1943C144.377 78.356 144.734 78.2092 144.848 77.9496C144.88 77.8822 144.898 77.8123 144.897 77.7404C144.896 77.698 144.92 77.6598 144.958 77.6398C145.044 77.5899 145.145 77.5131 145.229 77.381C145.396 77.1248 145.534 76.7436 145.53 76.4722C145.548 76.5015 145.579 76.531 145.625 76.5571C145.725 76.6124 145.85 76.633 145.878 76.5854C145.906 76.5379 145.829 76.4381 145.732 76.3802C145.723 76.3765 145.718 76.3739 145.71 76.3705L145.743 76.3404C145.873 76.1919 145.9 75.9893 145.775 75.8664C145.656 75.7483 145.424 75.7612 145.281 75.9226Z" fill="black"/>
<path d="M147.508 73.3629L147.475 73.3979C147.472 73.3901 147.469 73.3841 147.465 73.3755C147.409 73.2778 147.307 73.2024 147.253 73.2362C147.199 73.2701 147.215 73.3982 147.274 73.4939C147.301 73.5386 147.333 73.5675 147.364 73.5839C147.073 73.583 146.656 73.8126 146.416 74.1098C146.296 74.2611 146.231 74.3892 146.225 74.5133C146.221 74.5623 146.195 74.609 146.153 74.6365C146.041 74.7087 145.943 74.8233 145.905 74.9795C145.844 75.1856 145.916 75.3959 146.073 75.5051C146.36 75.6957 146.73 75.5848 146.87 75.3375C146.908 75.2736 146.934 75.2059 146.94 75.134C146.944 75.0919 146.971 75.0561 147.011 75.04C147.102 74.9987 147.21 74.9323 147.307 74.809C147.499 74.5703 147.676 74.2046 147.7 73.9341C147.714 73.965 147.742 73.9974 147.786 74.0278C147.879 74.0928 148.001 74.1252 148.034 74.0808C148.067 74.0364 148 73.9295 147.909 73.8624C147.902 73.8578 147.896 73.8547 147.889 73.8507L147.925 73.8237C148.069 73.6888 148.117 73.4899 148.005 73.3552C147.898 73.2262 147.666 73.2162 147.508 73.3629Z" fill="black"/>
<path d="M136.086 89.3083L136.036 89.3077C136.039 89.2999 136.042 89.2939 136.046 89.2856C136.082 89.1787 136.066 89.0538 135.997 89.0374C135.933 89.0234 135.851 89.1251 135.824 89.2335C135.812 89.2845 135.813 89.3266 135.823 89.3596C135.621 89.1632 135.187 89.0417 134.835 89.0721C134.657 89.0853 134.527 89.1375 134.438 89.2057C134.401 89.2346 134.352 89.2458 134.307 89.2323C134.187 89.1956 134.045 89.2034 133.907 89.267C133.718 89.353 133.598 89.547 133.619 89.7287C133.674 90.0654 133.967 90.2726 134.245 90.2245C134.318 90.2116 134.383 90.1803 134.442 90.1396C134.477 90.115 134.522 90.1118 134.56 90.1308C134.654 90.1789 134.772 90.1981 134.93 90.1864C135.24 90.1597 135.614 90.0207 135.809 89.8396C135.798 89.8717 135.795 89.9141 135.803 89.9654C135.82 90.076 135.875 90.1835 135.923 90.1746C135.966 90.1669 135.996 90.0465 135.988 89.9359C135.987 89.9273 135.986 89.9213 135.984 89.9132C135.997 89.9161 136.009 89.9193 136.022 89.9204C136.07 89.9233 136.088 89.9213 136.127 89.9101C136.174 89.9038 136.218 89.8897 136.257 89.8691C136.334 89.8278 136.39 89.7605 136.408 89.6774C136.425 89.594 136.402 89.5109 136.352 89.4441C136.327 89.4106 136.295 89.3811 136.258 89.3578C136.211 89.3341 136.137 89.3108 136.086 89.3083Z" fill="black"/>
<path d="M132.676 90.2276L132.645 90.2668C132.64 90.2591 132.637 90.2534 132.633 90.2453C132.568 90.1528 132.457 90.0891 132.402 90.133C132.352 90.1743 132.384 90.3001 132.456 90.3863C132.49 90.427 132.525 90.4511 132.558 90.4634C132.276 90.5027 131.915 90.7663 131.726 91.0592C131.629 91.2063 131.593 91.3389 131.594 91.4498C131.596 91.4963 131.575 91.541 131.536 91.5682C131.434 91.6396 131.354 91.7548 131.322 91.9009C131.278 92.0998 131.363 92.311 131.524 92.4042C131.83 92.5652 132.176 92.4626 132.305 92.217C132.339 92.1526 132.353 92.0829 132.356 92.0118C132.357 91.9703 132.381 91.9336 132.42 91.9153C132.516 91.8711 132.603 91.7906 132.689 91.6602C132.855 91.4026 132.969 91.0274 132.94 90.7652C132.959 90.7933 132.992 90.8214 133.038 90.8463C133.139 90.8996 133.259 90.9222 133.281 90.879C133.301 90.8409 133.221 90.7448 133.126 90.6841C133.118 90.6801 133.113 90.6772 133.106 90.6735C133.115 90.6655 133.125 90.658 133.134 90.6486C133.166 90.6124 133.175 90.5973 133.189 90.5606C133.213 90.5199 133.228 90.4772 133.235 90.4345C133.248 90.3488 133.227 90.2648 133.17 90.2006C133.113 90.1364 133.032 90.104 132.947 90.1026C132.905 90.1018 132.862 90.1086 132.82 90.1235C132.773 90.1456 132.709 90.1894 132.676 90.2276Z" fill="black"/>
<path d="M139.196 89.4755C139.182 89.4778 139.169 89.4821 139.155 89.4861C139.156 89.4778 139.157 89.4712 139.159 89.4623C139.164 89.3503 139.125 89.2322 139.073 89.2296C139.02 89.2253 138.97 89.3339 138.961 89.4454C138.957 89.497 138.964 89.5388 138.978 89.5704C138.762 89.407 138.384 89.301 138.077 89.2975C137.921 89.2927 137.804 89.3242 137.713 89.3798C137.676 89.4036 137.631 89.4013 137.595 89.3792C137.498 89.3185 137.382 89.2909 137.254 89.3142C137.08 89.3391 136.922 89.4623 136.852 89.6343C136.719 89.9487 136.932 90.294 137.282 90.3247C137.369 90.3324 137.453 90.3206 137.527 90.2937C137.571 90.2771 137.621 90.2868 137.66 90.3109C137.754 90.3719 137.887 90.4106 138.068 90.4155C138.426 90.4198 138.852 90.2602 139.032 90.0475C139.025 90.0811 139.027 90.1232 139.044 90.1731C139.079 90.2794 139.165 90.378 139.224 90.3593C139.283 90.339 139.289 90.2135 139.25 90.1086C139.247 90.1008 139.244 90.0954 139.24 90.0879L139.286 90.0845C139.492 90.0521 139.631 89.8899 139.596 89.7234C139.562 89.5569 139.383 89.4457 139.196 89.4755Z" fill="black"/>
<path d="M128.76 89.3656C128.754 89.3788 128.751 89.3922 128.747 89.4054C128.74 89.4 128.735 89.3957 128.728 89.3897C128.635 89.3249 128.512 89.2931 128.481 89.3349C128.45 89.3759 128.516 89.4762 128.606 89.5436C128.649 89.5748 128.689 89.5914 128.723 89.5971C128.467 89.6863 128.171 89.9408 128.002 90.1921C127.914 90.3185 127.878 90.432 127.877 90.5366C127.877 90.5796 127.851 90.6154 127.812 90.6334C127.708 90.6802 127.622 90.7613 127.572 90.8796C127.5 91.0358 127.521 91.233 127.63 91.3834C127.829 91.6631 128.241 91.674 128.456 91.4018C128.51 91.3344 128.545 91.2593 128.562 91.1831C128.571 91.1378 128.606 91.1026 128.648 91.0834C128.752 91.0384 128.857 90.9498 128.958 90.8037C129.155 90.5111 129.248 90.0734 129.163 89.8098C129.188 89.8336 129.225 89.8548 129.277 89.868C129.387 89.8966 129.519 89.8789 129.534 89.8201C129.549 89.7608 129.444 89.6883 129.333 89.6631C129.324 89.6622 129.318 89.6613 129.31 89.6605L129.332 89.6206C129.415 89.4335 129.351 89.2315 129.189 89.1701C129.027 89.1085 128.835 89.1959 128.76 89.3656Z" fill="black"/>
<path d="M142.056 88.4272C142.043 88.4349 142.033 88.4441 142.022 88.453C142.019 88.4449 142.018 88.4386 142.015 88.4298C141.973 88.326 141.888 88.2337 141.838 88.2518C141.788 88.2698 141.791 88.3931 141.83 88.4985C141.848 88.5478 141.872 88.5828 141.898 88.6054C141.629 88.5381 141.243 88.6017 140.962 88.7186C140.822 88.7866 140.725 88.851 140.666 88.9376C140.641 88.9717 140.601 88.9915 140.559 88.986C140.449 88.9751 140.331 88.9917 140.223 89.0588C140.077 89.1519 139.984 89.3322 139.988 89.5122C139.993 89.8584 140.327 90.0831 140.665 89.9762C140.75 89.9532 140.821 89.9051 140.878 89.8484C140.911 89.8148 140.959 89.8005 141.006 89.8088C141.118 89.8269 141.261 89.8194 141.424 89.7412C141.755 89.603 142.071 89.2783 142.149 89.0181C142.157 89.0516 142.177 89.0895 142.213 89.1276C142.289 89.2098 142.407 89.2611 142.452 89.2199C142.497 89.1786 142.45 89.0625 142.371 88.982C142.364 88.9763 142.359 88.9723 142.353 88.9671L142.393 88.9462C142.57 88.839 142.627 88.6332 142.525 88.4928C142.425 88.3567 142.217 88.3294 142.056 88.4272Z" fill="black"/>
<path d="M144.302 86.3696C144.294 86.3814 144.287 86.3937 144.28 86.406C144.275 86.3991 144.271 86.394 144.266 86.3868C144.188 86.3048 144.074 86.2495 144.035 86.2842C143.998 86.32 144.04 86.4307 144.116 86.5149C144.151 86.5536 144.186 86.578 144.219 86.5903C144.082 86.606 143.928 86.6645 143.786 86.7473C143.637 86.8256 143.495 86.925 143.39 87.0371C143.279 87.1471 143.216 87.2489 143.195 87.3512C143.185 87.3924 143.155 87.4263 143.114 87.4377C143.007 87.4707 142.903 87.5306 142.83 87.6357C142.73 87.7773 142.72 87.9822 142.797 88.1462C142.945 88.4608 143.338 88.5319 143.605 88.3092C143.672 88.2559 143.719 88.1869 143.747 88.1132C143.765 88.0699 143.803 88.0387 143.848 88.0292C143.958 88.0049 144.082 87.943 144.208 87.8174C144.328 87.6899 144.438 87.5274 144.513 87.3623C144.581 87.1913 144.617 87.021 144.606 86.8852C144.626 86.9136 144.658 86.9414 144.706 86.9649C144.808 87.0144 144.941 87.0242 144.966 86.968C144.993 86.913 144.905 86.8213 144.802 86.7748C144.793 86.772 144.787 86.77 144.779 86.7674L144.809 86.733C144.93 86.5674 144.909 86.3573 144.764 86.2644C144.619 86.1716 144.412 86.2186 144.302 86.3696Z" fill="black"/>
<path d="M145.558 83.6425C145.554 83.6565 145.553 83.67 145.551 83.684C145.544 83.6797 145.538 83.6768 145.53 83.6723C145.426 83.629 145.298 83.6233 145.275 83.67C145.252 83.7167 145.342 83.8015 145.445 83.8482C145.494 83.87 145.536 83.878 145.571 83.8763C145.342 84.0176 145.109 84.3285 144.996 84.6062C144.944 84.7501 144.929 84.8659 144.946 84.9665C144.954 85.0075 144.939 85.049 144.906 85.0742C144.819 85.143 144.751 85.2382 144.722 85.3602C144.685 85.527 144.752 85.7191 144.885 85.8431C145.14 86.0827 145.537 86.0076 145.699 85.6984C145.742 85.6239 145.754 85.5394 145.755 85.4608C145.755 85.4141 145.778 85.3709 145.817 85.3442C145.913 85.2806 146.001 85.1737 146.062 85.006C146.195 84.679 146.19 84.2311 146.047 83.9915C146.077 84.0096 146.118 84.0225 146.171 84.0245C146.285 84.0293 146.407 83.9835 146.41 83.923C146.413 83.8628 146.296 83.8138 146.181 83.8127C146.172 83.8133 146.166 83.8138 146.158 83.8147L146.172 83.7717C146.215 83.5722 146.101 83.3874 145.931 83.361C145.758 83.3341 145.596 83.461 145.558 83.6425Z" fill="black"/>
<path d="M145.607 80.6333C145.609 80.6476 145.614 80.6608 145.618 80.6743C145.609 80.6731 145.603 80.6723 145.593 80.6711C145.48 80.6683 145.359 80.7095 145.356 80.762C145.353 80.8147 145.468 80.8614 145.582 80.8671C145.635 80.8694 145.678 80.8614 145.709 80.8468C145.55 81.0629 145.455 81.4426 145.465 81.7447C145.475 81.8988 145.504 82.0123 145.564 82.0983C145.588 82.1333 145.592 82.1774 145.572 82.2141C145.521 82.3118 145.491 82.4262 145.52 82.5505C145.56 82.7191 145.69 82.8669 145.867 82.9277C146.196 83.0446 146.536 82.8191 146.552 82.474C146.557 82.3889 146.543 82.3078 146.508 82.2359C146.488 82.1937 146.492 82.145 146.517 82.1058C146.575 82.0109 146.617 81.8791 146.606 81.7034C146.595 81.3555 146.418 80.9488 146.195 80.7794C146.229 80.7855 146.272 80.7823 146.322 80.7648C146.43 80.7276 146.525 80.6416 146.505 80.5851C146.485 80.5287 146.358 80.5258 146.251 80.5659C146.243 80.57 146.238 80.5728 146.23 80.5765L146.227 80.5315C146.199 80.3567 146.051 80.2263 145.876 80.2326C145.704 80.2387 145.573 80.4238 145.607 80.6333Z" fill="black"/>
<path d="M145.942 77.3713L145.929 77.4169C145.923 77.4117 145.918 77.4075 145.91 77.4017C145.814 77.3407 145.688 77.3198 145.656 77.3762C145.623 77.4327 145.699 77.5387 145.798 77.5937C145.844 77.6195 145.886 77.6296 145.921 77.6293C145.674 77.766 145.435 78.1646 145.387 78.5125C145.36 78.6885 145.381 78.8232 145.431 78.9238C145.451 78.9648 145.449 79.0138 145.427 79.053C145.366 79.1585 145.336 79.2903 145.367 79.4296C145.405 79.619 145.558 79.7695 145.739 79.8096C146.082 79.8807 146.381 79.64 146.397 79.3445C146.403 79.2694 146.389 79.1972 146.359 79.1307C146.342 79.0917 146.351 79.0482 146.379 79.0155C146.446 78.9358 146.493 78.8269 146.516 78.6765C146.558 78.379 146.514 78.0107 146.389 77.7751C146.417 77.7943 146.458 77.809 146.51 77.8158C146.624 77.8299 146.745 77.8095 146.75 77.7622C146.756 77.715 146.645 77.6522 146.534 77.6318C146.525 77.631 146.519 77.6304 146.511 77.6298C146.517 77.6181 146.523 77.6066 146.528 77.5937C146.594 77.4335 146.533 77.2444 146.385 77.1627C146.23 77.0779 146.024 77.171 145.942 77.3713Z" fill="black"/>
<path d="M138.657 91.2799L138.611 91.2827C138.614 91.2747 138.616 91.2687 138.619 91.2601C138.646 91.1509 138.627 91.0277 138.573 91.0156C138.519 91.0056 138.446 91.1051 138.415 91.2108C138.401 91.2607 138.4 91.3031 138.408 91.3366C138.32 91.2398 138.191 91.1512 138.048 91.0818C137.977 91.0432 137.904 91.0042 137.829 90.9735C137.79 90.9589 137.752 90.9449 137.716 90.9317L137.66 90.9142C137.616 90.9045 137.572 90.8947 137.529 90.8855C137.486 90.8838 137.446 90.8827 137.405 90.8812C137.233 90.8772 137.101 90.9053 137.002 90.958C136.961 90.9798 136.912 90.981 136.872 90.9586C136.764 90.8999 136.636 90.8724 136.497 90.893C136.31 90.9214 136.147 91.0449 136.073 91.2148C135.928 91.5304 136.174 91.8757 136.549 91.9064C136.641 91.9141 136.73 91.9021 136.809 91.8734C136.855 91.8568 136.908 91.8634 136.949 91.8894C137.049 91.9531 137.188 91.9943 137.379 91.9989C137.415 91.9998 137.416 91.9995 137.419 91.9978L137.421 91.9958C137.428 91.9966 137.388 91.9886 137.415 91.9923L137.486 91.9989C137.533 92.0006 137.581 92.0026 137.631 92.0047C137.728 92.0047 137.824 92.0015 137.916 91.9869C138.1 91.9508 138.263 91.892 138.372 91.8155C138.358 91.8467 138.352 91.8886 138.36 91.941C138.376 92.0542 138.45 92.1651 138.518 92.1537C138.585 92.1445 138.615 92.0221 138.594 91.9121C138.591 91.9038 138.59 91.8978 138.587 91.89L138.637 91.8949C138.865 91.9029 139.043 91.7628 139.035 91.5894C139.028 91.4232 138.858 91.287 138.657 91.2799Z" fill="black"/>
<path d="M141.857 90.5642L141.818 90.588C141.816 90.5797 141.815 90.5734 141.814 90.5642C141.786 90.455 141.712 90.3547 141.656 90.3696C141.6 90.3817 141.581 90.5035 141.605 90.613C141.616 90.6637 141.636 90.7012 141.66 90.727C141.389 90.6413 140.966 90.6663 140.65 90.758C140.488 90.8021 140.378 90.8709 140.301 90.95C140.27 90.9804 140.224 90.9941 140.18 90.9832C140.063 90.9523 139.937 90.9657 139.811 91.0199C139.641 91.0887 139.514 91.254 139.488 91.4383C139.434 91.7791 139.756 92.0482 140.136 91.982C140.229 91.9631 140.313 91.9267 140.383 91.8782C140.424 91.8496 140.478 91.8418 140.527 91.8562C140.644 91.8871 140.793 91.8799 140.982 91.8278C141.353 91.7197 141.739 91.4277 141.859 91.1658C141.862 91.1999 141.877 91.2397 141.909 91.2818C141.977 91.3724 142.094 91.4377 142.149 91.4022C142.202 91.3638 142.17 91.2417 142.1 91.1537C142.094 91.1474 142.089 91.1431 142.084 91.1371L142.13 91.1191C142.329 91.021 142.423 90.8202 142.34 90.6708C142.257 90.5215 142.041 90.4737 141.857 90.5642Z" fill="black"/>
<path d="M146.992 88.5884L146.973 88.6303C146.968 88.624 146.963 88.6191 146.957 88.6122C146.871 88.538 146.75 88.4973 146.714 88.5406C146.674 88.5818 146.73 88.6928 146.813 88.769C146.852 88.8045 146.89 88.8243 146.924 88.8323C146.652 88.9128 146.319 89.1691 146.112 89.421C146.004 89.5473 145.954 89.6654 145.937 89.7729C145.929 89.8153 145.899 89.8523 145.857 89.8678C145.742 89.9079 145.647 89.9887 145.575 90.1033C145.475 90.2546 145.467 90.4618 145.552 90.6278C145.706 90.9379 146.127 90.98 146.401 90.7135C146.466 90.6461 146.514 90.5693 146.544 90.4905C146.561 90.4441 146.601 90.4074 146.649 90.3919C146.764 90.3524 146.882 90.2635 147.007 90.1154C147.25 89.8193 147.397 89.3645 147.343 89.0819C147.366 89.1083 147.401 89.1329 147.452 89.1499C147.56 89.1865 147.694 89.1748 147.719 89.1149C147.74 89.0538 147.644 88.9707 147.534 88.9375C147.526 88.9361 147.52 88.9349 147.511 88.9332L147.538 88.8928C147.645 88.7011 147.606 88.4833 147.451 88.4067C147.296 88.3302 147.09 88.4113 146.992 88.5884Z" fill="black"/>
<path d="M144.594 88.667L144.563 88.7017C144.559 88.6942 144.556 88.6882 144.552 88.6799C144.492 88.5848 144.388 88.5123 144.339 88.5435C144.291 88.5759 144.311 88.6997 144.369 88.7948C144.396 88.8395 144.428 88.8691 144.458 88.8857C144.171 88.8871 143.773 89.0559 143.504 89.2597C143.369 89.3666 143.283 89.4626 143.242 89.5663C143.224 89.6079 143.187 89.6397 143.142 89.6474C143.024 89.6712 142.903 89.7222 142.808 89.8248C142.679 89.9644 142.63 90.167 142.683 90.341C142.784 90.6731 143.186 90.788 143.497 90.5834C143.576 90.5347 143.637 90.4711 143.679 90.3983C143.705 90.3559 143.75 90.3281 143.799 90.3226C143.916 90.3086 144.057 90.2593 144.205 90.1421C144.504 89.9159 144.759 89.5216 144.79 89.2393C144.804 89.2708 144.831 89.3038 144.875 89.3342C144.97 89.3995 145.099 89.425 145.136 89.3732C145.174 89.3219 145.106 89.2158 145.011 89.1531C145.004 89.149 144.998 89.1462 144.99 89.1425L145.028 89.1118C145.186 88.9613 145.214 88.7432 145.09 88.6246C144.965 88.5057 144.743 88.5249 144.594 88.667Z" fill="black"/>
<path d="M146.6 86.0655L146.585 86.108C146.578 86.1022 146.573 86.0976 146.566 86.0916C146.475 86.0246 146.351 85.993 146.318 86.0377C146.286 86.0824 146.351 86.1888 146.439 86.2581C146.48 86.2905 146.52 86.3074 146.555 86.3129C146.286 86.4103 145.978 86.6851 145.783 86.9494C145.687 87.0858 145.643 87.207 145.629 87.3139C145.625 87.358 145.598 87.3982 145.557 87.4176C145.449 87.4707 145.355 87.5584 145.29 87.6807C145.204 87.8481 145.218 88.0587 145.32 88.2106C145.514 88.5007 145.929 88.4966 146.171 88.2175C146.232 88.1487 146.269 88.0668 146.291 87.9868C146.304 87.9392 146.34 87.8997 146.386 87.8811C146.499 87.8375 146.611 87.7426 146.722 87.5859C146.948 87.2798 147.063 86.8087 146.991 86.5315C147.016 86.5562 147.053 86.5782 147.105 86.5914C147.217 86.6204 147.349 86.5977 147.366 86.5335C147.384 86.4699 147.281 86.3948 147.169 86.3705C147.16 86.3696 147.154 86.369 147.145 86.3682L147.17 86.3255C147.268 86.1263 147.202 85.9088 147.039 85.8466C146.878 85.7853 146.689 85.8864 146.6 86.0655Z" fill="black"/>
<path d="M147.349 82.8842L147.35 82.9306C147.342 82.9274 147.336 82.9249 147.327 82.9214C147.217 82.8899 147.091 82.9039 147.074 82.9601C147.057 83.0163 147.157 83.0951 147.267 83.1281C147.318 83.1432 147.361 83.1444 147.395 83.1367C147.185 83.3278 147.01 83.7204 146.95 84.0463C146.924 84.2136 146.933 84.3415 146.97 84.4438C146.986 84.4856 146.98 84.5332 146.952 84.5684C146.88 84.6633 146.826 84.7779 146.827 84.9152C146.83 85.1015 146.919 85.28 147.082 85.3789C147.375 85.5655 147.766 85.3921 147.856 85.0301C147.881 84.9413 147.884 84.8527 147.865 84.7705C147.855 84.7223 147.87 84.6716 147.903 84.6352C147.983 84.5467 148.048 84.4157 148.076 84.2305C148.143 83.8643 148.056 83.4089 147.883 83.1802C147.916 83.1945 147.958 83.2011 148.011 83.1945C148.125 83.1811 148.239 83.1154 148.234 83.0533C148.228 82.9908 148.105 82.957 147.991 82.9722C147.983 82.9744 147.977 82.9759 147.968 82.9782C147.972 82.9624 147.975 82.9472 147.976 82.9312C147.99 82.718 147.861 82.5374 147.688 82.5282C147.514 82.5188 147.363 82.6781 147.349 82.8842Z" fill="black"/>
<path d="M147.075 79.584C147.077 79.6004 147.082 79.6156 147.086 79.6307C147.077 79.6293 147.071 79.6282 147.061 79.6264C146.947 79.6193 146.827 79.6611 146.825 79.7233C146.823 79.7849 146.941 79.8422 147.055 79.8485C147.109 79.8514 147.15 79.8422 147.182 79.8259C147.025 80.0655 146.967 80.5108 147.023 80.8522C147.052 81.0256 147.106 81.1474 147.179 81.2328C147.209 81.268 147.219 81.315 147.205 81.358C147.166 81.4715 147.165 81.6007 147.208 81.7174C147.239 81.8065 147.287 81.8443 147.352 81.9194C147.416 81.9885 147.497 82.0406 147.587 82.0661C147.756 82.114 147.919 82.0742 148.042 81.9767C148.105 81.9335 148.154 81.8581 148.185 81.7615C148.214 81.6758 148.228 81.5775 148.217 81.4867C148.207 81.3927 148.177 81.309 148.133 81.2391C148.107 81.1975 148.104 81.1448 148.122 81.1012C148.166 80.9932 148.18 80.8533 148.151 80.6748C148.093 80.3226 147.889 79.9282 147.666 79.7511C147.701 79.7568 147.744 79.7528 147.794 79.7342C147.901 79.6941 147.995 79.6081 147.976 79.5525C147.955 79.4969 147.828 79.4915 147.721 79.5304C147.713 79.5345 147.707 79.537 147.7 79.5408L147.697 79.4949C147.666 79.2917 147.508 79.1456 147.335 79.1625C147.163 79.1791 147.042 79.3717 147.075 79.584Z" fill="black"/>
<path d="M132.564 86.0968C132.56 86.1094 132.558 86.1223 132.556 86.1352C132.549 86.1303 132.544 86.1266 132.536 86.1214C132.435 86.0664 132.315 86.0443 132.287 86.0802C132.258 86.1154 132.333 86.206 132.427 86.2696C132.471 86.2985 132.511 86.3143 132.545 86.3189C132.306 86.4155 131.999 86.6227 131.817 86.8531C131.717 86.9677 131.663 87.0737 131.649 87.1772C131.643 87.219 131.616 87.2552 131.576 87.2689C131.463 87.3024 131.364 87.3718 131.295 87.4836C131.206 87.6372 131.192 87.8349 131.281 87.9977C131.442 88.3006 131.85 88.3631 132.106 88.1132C132.17 88.053 132.217 87.9825 132.247 87.9089C132.263 87.8636 132.3 87.8275 132.346 87.8134C132.456 87.7779 132.579 87.7017 132.702 87.5595C132.939 87.2669 133.093 86.7989 132.993 86.5158C133.018 86.5396 133.056 86.5599 133.109 86.5702C133.221 86.5934 133.354 86.5588 133.372 86.4917C133.389 86.4235 133.275 86.3553 133.163 86.3432H133.139L133.158 86.2971C133.236 86.0799 133.127 85.8747 132.953 85.8486C132.784 85.8239 132.622 85.9369 132.564 86.0968Z" fill="black"/>
<path d="M132.346 83.0397L132.352 83.085C132.344 83.083 132.337 83.0812 132.328 83.0789C132.215 83.0629 132.092 83.0938 132.084 83.1537C132.075 83.2136 132.189 83.2767 132.303 83.2907C132.356 83.2973 132.398 83.2916 132.431 83.2784C132.248 83.481 132.172 83.9591 132.247 84.2964C132.284 84.4695 132.343 84.5789 132.42 84.6566C132.452 84.6887 132.464 84.7325 132.451 84.7727C132.418 84.8816 132.422 84.9988 132.469 85.1085C132.538 85.2593 132.683 85.3742 132.872 85.4181C133.042 85.4556 133.206 85.4158 133.317 85.3051C133.434 85.1939 133.494 85.0186 133.467 84.8377C133.453 84.7477 133.418 84.6712 133.371 84.6044C133.344 84.5652 133.338 84.5153 133.354 84.4735C133.392 84.37 133.4 84.2339 133.367 84.076C133.298 83.7622 133.125 83.4375 132.92 83.2412C132.954 83.2489 132.997 83.248 133.048 83.234C133.158 83.2039 133.258 83.1302 133.245 83.0778C133.231 83.0251 133.104 83.0105 132.994 83.0385C132.985 83.0417 132.979 83.044 132.972 83.0468L132.973 83.0036C132.96 82.8107 132.817 82.6582 132.644 82.6617C132.47 82.6651 132.332 82.8353 132.346 83.0397Z" fill="black"/>
<path d="M132.828 79.7465L132.813 79.7915C132.806 79.786 132.801 79.7817 132.794 79.7754C132.7 79.7112 132.575 79.6857 132.54 79.7399C132.505 79.7938 132.576 79.9024 132.672 79.9623C132.717 79.9907 132.758 80.0027 132.793 80.0038C132.543 80.1311 132.269 80.522 132.207 80.8828C132.166 81.0636 132.191 81.2043 132.232 81.3098C132.249 81.3528 132.246 81.403 132.223 81.4434C132.16 81.5505 132.125 81.6867 132.153 81.8302C132.189 82.026 132.333 82.1816 132.517 82.2263C132.857 82.3066 133.161 82.0635 133.186 81.7649C133.193 81.689 133.181 81.6159 133.153 81.5477C133.136 81.5076 133.146 81.4637 133.176 81.4319C133.25 81.3551 133.293 81.2448 133.328 81.0957C133.378 80.798 133.368 80.4217 133.253 80.1724C133.28 80.1933 133.32 80.2102 133.372 80.2191C133.485 80.238 133.609 80.2196 133.618 80.1695C133.627 80.1196 133.52 80.052 133.409 80.0285C133.4 80.0276 133.394 80.0268 133.386 80.0259C133.392 80.0139 133.4 80.0021 133.405 79.9889C133.475 79.8173 133.43 79.6235 133.273 79.5422C133.124 79.4636 132.909 79.549 132.828 79.7465Z" fill="black"/>
<path d="M135.024 79.3248L135 79.3661C134.995 79.3592 134.991 79.354 134.985 79.3466C134.907 79.2646 134.79 79.2145 134.744 79.2606C134.699 79.3065 134.745 79.4268 134.826 79.5045C134.864 79.5415 134.902 79.5615 134.936 79.5698C134.664 79.6438 134.314 79.9713 134.178 80.3121C134.1 80.4806 134.094 80.6233 134.113 80.7348C134.121 80.7804 134.107 80.8291 134.076 80.8638C133.992 80.9561 133.929 81.0824 133.926 81.2283C133.921 81.4275 134.029 81.6086 134.2 81.6894C134.516 81.8362 134.864 81.6593 134.951 81.3722C134.974 81.2994 134.977 81.2252 134.965 81.1532C134.956 81.1102 134.975 81.0693 135.011 81.0443C135.1 80.9841 135.165 80.8847 135.23 80.746C135.342 80.4646 135.411 80.094 135.35 79.8272C135.373 79.853 135.408 79.8776 135.457 79.8965C135.564 79.9378 135.689 79.945 135.709 79.8977C135.728 79.8507 135.637 79.763 135.533 79.7177C135.525 79.7149 135.519 79.7131 135.511 79.7106C135.52 79.6999 135.53 79.6902 135.538 79.6785C135.643 79.5243 135.639 79.3254 135.503 79.2145C135.373 79.1076 135.145 79.148 135.024 79.3248Z" fill="black"/>
<path d="M135.017 77.186C135.004 77.1954 134.993 77.2066 134.982 77.2172C134.979 77.2092 134.977 77.2029 134.974 77.194C134.927 77.0917 134.833 77.0072 134.777 77.0352C134.721 77.0636 134.727 77.192 134.777 77.2923C134.8 77.3393 134.829 77.3711 134.858 77.39C134.571 77.3617 134.15 77.5497 133.888 77.7981C133.757 77.9317 133.687 78.0572 133.662 78.1681C133.65 78.2125 133.622 78.2564 133.579 78.277C133.465 78.3346 133.354 78.4295 133.297 78.5693C133.219 78.7611 133.25 78.9671 133.387 79.1007C133.637 79.3385 134.022 79.2915 134.2 79.0637C134.248 79.0064 134.278 78.9402 134.293 78.8697C134.302 78.8287 134.331 78.7949 134.375 78.7863C134.479 78.7631 134.583 78.7046 134.691 78.5937C134.917 78.3793 135.116 78.0331 135.159 77.7695C135.171 77.8013 135.196 77.836 135.236 77.8703C135.322 77.944 135.438 77.9884 135.473 77.9483C135.509 77.9079 135.452 77.7955 135.369 77.7202C135.362 77.7147 135.357 77.7113 135.35 77.7064L135.387 77.6838C135.546 77.5766 135.599 77.3737 135.505 77.2304C135.411 77.0874 135.193 77.0673 135.017 77.186Z" fill="black"/>
<path d="M138.174 75.9306L138.127 75.9415C138.129 75.9332 138.13 75.9266 138.132 75.9174C138.141 75.8054 138.101 75.687 138.037 75.6856C137.972 75.6838 137.912 75.7991 137.907 75.9108C137.905 75.963 137.915 76.004 137.931 76.0346C137.692 75.8776 137.216 75.8469 136.864 75.967C136.684 76.0237 136.567 76.1066 136.496 76.1988C136.466 76.2361 136.42 76.2587 136.371 76.257C136.242 76.2524 136.108 76.2997 135.99 76.3906C135.833 76.5204 135.77 76.7256 135.822 76.9001C135.927 77.2294 136.291 77.3592 136.564 77.2357C136.635 77.2048 136.691 77.1535 136.738 77.1004C136.766 77.0683 136.81 77.0546 136.852 77.0635C136.955 77.0838 137.076 77.0744 137.225 77.0276C137.515 76.9288 137.846 76.7221 138.011 76.5084C138.006 76.5422 138.011 76.584 138.029 76.633C138.069 76.7382 138.148 76.8325 138.197 76.8141C138.246 76.7955 138.252 76.6703 138.217 76.5648C138.213 76.5568 138.211 76.5513 138.207 76.5442L138.25 76.5413C138.439 76.525 138.586 76.3717 138.579 76.2043C138.57 76.0323 138.389 75.9111 138.174 75.9306Z" fill="black"/>
<path d="M134.961 90.8562L134.921 90.8826C134.92 90.874 134.919 90.8677 134.917 90.8585C134.886 90.7502 134.806 90.6531 134.745 90.6737C134.684 90.6943 134.669 90.8227 134.704 90.929C134.721 90.9789 134.745 91.0141 134.771 91.0371C134.491 90.9717 134.035 91.1061 133.747 91.3397C133.6 91.4546 133.519 91.5724 133.485 91.6833C133.471 91.7283 133.436 91.7653 133.39 91.7802C133.268 91.8203 133.159 91.9109 133.081 92.0361C132.98 92.2118 132.994 92.4256 133.106 92.5712C133.322 92.8434 133.709 92.84 133.921 92.6308C133.976 92.5778 134.01 92.5104 134.036 92.4442C134.05 92.4047 134.086 92.3769 134.129 92.3708C134.233 92.3545 134.342 92.3041 134.465 92.2095C134.702 92.0172 134.937 91.7103 135.016 91.4535C135.023 91.4864 135.043 91.5243 135.077 91.5638C135.152 91.6486 135.26 91.71 135.299 91.6759C135.339 91.6415 135.299 91.5223 135.229 91.4354C135.223 91.4294 135.218 91.4251 135.212 91.4194L135.251 91.4022C135.423 91.3219 135.506 91.1279 135.439 90.9737C135.369 90.8155 135.156 90.7642 134.961 90.8562Z" fill="black"/>
<path d="M141.464 76.1491L141.423 76.1551C141.425 76.1471 141.427 76.1411 141.429 76.1325C141.446 76.0219 141.421 75.9009 141.373 75.8883C141.324 75.8769 141.262 75.9812 141.238 76.0907C141.228 76.1417 141.229 76.1838 141.238 76.2165C141.047 76.0273 140.71 75.8608 140.384 75.7992C140.219 75.7694 140.082 75.7806 139.975 75.8213C139.932 75.8373 139.882 75.8333 139.84 75.8081C139.732 75.7379 139.591 75.7032 139.44 75.7264C139.234 75.7502 139.069 75.9015 139.024 76.0769C138.943 76.4122 139.185 76.7045 139.477 76.7378C139.553 76.7435 139.626 76.7389 139.696 76.714C139.736 76.6994 139.781 76.71 139.815 76.7406C139.893 76.8129 140.008 76.8682 140.183 76.8997C140.525 76.9659 141.009 76.8862 141.226 76.6968C141.214 76.7292 141.21 76.7713 141.22 76.8226C141.242 76.9324 141.321 77.0381 141.387 77.0275C141.453 77.0181 141.475 76.8931 141.447 76.7848C141.444 76.7765 141.441 76.7704 141.439 76.7627C141.455 76.7644 141.471 76.765 141.487 76.7641C141.71 76.7532 141.868 76.5965 141.842 76.4248C141.817 76.2606 141.648 76.14 141.464 76.1491Z" fill="black"/>
<path d="M144.285 75.0098L144.251 75.0379C144.249 75.0298 144.246 75.0238 144.244 75.0152C144.196 74.9141 144.104 74.8275 144.053 74.849C144.003 74.8705 144.01 74.9937 144.056 75.0963C144.077 75.1442 144.104 75.1777 144.131 75.1984C143.86 75.1605 143.464 75.2537 143.19 75.3924C143.051 75.4643 142.964 75.5503 142.908 75.6328C142.886 75.6678 142.846 75.689 142.804 75.6856C142.692 75.6792 142.579 75.7053 142.475 75.7718C142.336 75.8718 142.245 76.0426 142.247 76.2258C142.243 76.5708 142.594 76.8018 142.952 76.6737C143.041 76.645 143.11 76.5892 143.168 76.5304C143.201 76.4949 143.251 76.4777 143.3 76.4828C143.421 76.4992 143.559 76.4659 143.725 76.3802C144.055 76.212 144.354 75.8675 144.411 75.5933C144.421 75.6262 144.443 75.6623 144.482 75.6982C144.564 75.7753 144.687 75.8191 144.73 75.7758C144.773 75.7323 144.719 75.6193 144.634 75.5437C144.627 75.5385 144.622 75.5351 144.615 75.5302L144.656 75.507C144.83 75.3907 144.868 75.1711 144.763 75.0402C144.654 74.9037 144.447 74.9023 144.285 75.0098Z" fill="black"/>
<path d="M130.788 84.6603L130.801 84.7033C130.793 84.7028 130.786 84.7022 130.777 84.7013C130.663 84.7039 130.546 84.7541 130.547 84.8134C130.545 84.8343 130.564 84.8188 130.606 84.8231C130.647 84.8231 130.701 84.8449 130.758 84.8469C130.81 84.8518 130.853 84.8481 130.886 84.8375C130.706 85.0051 130.54 85.3479 130.489 85.6459C130.463 85.7969 130.475 85.9142 130.514 86.0093C130.53 86.0483 130.525 86.0918 130.496 86.1222C130.422 86.2056 130.375 86.3085 130.374 86.4303C130.371 86.5925 130.463 86.7564 130.615 86.8673C130.89 87.0851 131.295 86.9373 131.395 86.5856C131.422 86.4999 131.421 86.4157 131.406 86.3372C131.398 86.291 131.412 86.2432 131.444 86.2093C131.524 86.1271 131.586 86.0036 131.616 85.8279C131.675 85.482 131.584 85.0335 131.376 84.8088C131.409 84.8188 131.453 84.8203 131.504 84.8048C131.558 84.7853 131.615 84.7621 131.648 84.7099C131.681 84.6618 131.693 84.5855 131.68 84.552C131.658 84.5036 131.531 84.5096 131.426 84.5549C131.418 84.5592 131.413 84.5623 131.406 84.5663L131.401 84.5242C131.36 84.3394 131.189 84.2153 131.019 84.2465C130.848 84.2777 130.745 84.4632 130.788 84.6603Z" fill="black"/>
<path d="M130.568 81.4266L130.567 81.4721C130.559 81.4687 130.553 81.4661 130.545 81.4624C130.436 81.4286 130.308 81.4389 130.291 81.4971C130.274 81.555 130.373 81.6358 130.482 81.6665C130.533 81.6808 130.576 81.6814 130.611 81.6733C130.405 81.8576 130.25 82.2769 130.263 82.6245C130.262 82.8008 130.314 82.9283 130.377 83.0197C130.404 83.0567 130.411 83.1048 130.394 83.1475C130.346 83.2616 130.346 83.3946 130.397 83.527C130.465 83.7075 130.634 83.8327 130.824 83.8456C131.171 83.8677 131.432 83.582 131.4 83.2831C131.39 83.2074 131.365 83.1375 131.328 83.0759C131.305 83.0398 131.306 82.9948 131.327 82.9575C131.383 82.8675 131.403 82.7503 131.404 82.595C131.393 82.2895 131.279 81.9175 131.1 81.7109C131.132 81.7232 131.175 81.7289 131.228 81.7232C131.342 81.7109 131.455 81.6573 131.449 81.6054C131.444 81.5535 131.321 81.5194 131.208 81.5289C131.199 81.5306 131.193 81.5318 131.185 81.5332L131.193 81.4919C131.209 81.3059 131.096 81.1354 130.926 81.1088C130.753 81.0818 130.586 81.2234 130.568 81.4266Z" fill="black"/>
<path d="M131.603 78.3278L131.583 78.3693C131.577 78.363 131.573 78.3581 131.567 78.351C131.482 78.2756 131.362 78.2335 131.322 78.2802C131.281 78.3266 131.338 78.4413 131.425 78.5138C131.465 78.5476 131.504 78.5653 131.539 78.5719C131.399 78.6123 131.258 78.7164 131.13 78.8508C130.996 78.9829 130.887 79.15 130.825 79.3156C130.758 79.4821 130.742 79.6177 130.773 79.7289C130.784 79.7739 130.773 79.822 130.741 79.8561C130.659 79.9478 130.592 80.0702 130.597 80.2155C130.598 80.4121 130.71 80.5892 130.88 80.6654C131.198 80.8036 131.549 80.6285 131.622 80.3448C131.645 80.2734 131.648 80.2009 131.634 80.1304C131.627 80.0888 131.643 80.0476 131.677 80.0218C131.756 79.9576 131.832 79.8642 131.889 79.7226C131.941 79.581 131.977 79.4159 131.997 79.2554C132.012 79.0927 132 78.9293 131.968 78.8035C131.992 78.8279 132.029 78.8502 132.08 78.8665C132.189 78.9012 132.313 78.8989 132.33 78.8499C132.345 78.8006 132.248 78.7198 132.141 78.682C132.133 78.68 132.127 78.6785 132.119 78.6765C132.127 78.6654 132.136 78.6548 132.143 78.6424C132.232 78.4791 132.212 78.2833 132.066 78.1865C131.925 78.0925 131.703 78.1469 131.603 78.3278Z" fill="black"/>
<path d="M147.498 75.7929L147.493 75.8385C147.485 75.8342 147.479 75.831 147.471 75.8264C147.366 75.782 147.239 75.7803 147.216 75.837C147.193 75.8941 147.285 75.9846 147.391 76.0253C147.44 76.0445 147.483 76.0491 147.518 76.0442C147.399 76.1268 147.3 76.2698 147.223 76.4377C147.141 76.6051 147.093 76.798 147.089 76.9742C147.081 77.153 147.11 77.2863 147.176 77.382C147.201 77.421 147.207 77.47 147.188 77.5124C147.141 77.6251 147.118 77.762 147.171 77.8979C147.237 78.0836 147.401 78.2157 147.587 78.2338C147.934 78.2639 148.208 77.9867 148.183 77.695C148.181 77.6202 148.16 77.5508 148.124 77.4884C148.103 77.4517 148.105 77.4072 148.128 77.372C148.181 77.2863 148.222 77.174 148.23 77.0218C148.233 76.871 148.211 76.7037 148.177 76.5455C148.138 76.387 148.073 76.236 148.001 76.1274C148.032 76.1425 148.074 76.152 148.127 76.1514C148.241 76.1497 148.359 76.1079 148.358 76.0563C148.357 76.0047 148.238 75.9591 148.124 75.9571C148.115 75.958 148.109 75.9586 148.101 75.9594C148.105 75.9459 148.11 75.9333 148.113 75.9193C148.143 75.7365 148.059 75.5576 147.889 75.5123C147.724 75.4685 147.533 75.59 147.498 75.7929Z" fill="black"/>
<path d="M133.861 75.9391L133.826 75.9689C133.823 75.9609 133.821 75.9549 133.818 75.9463C133.77 75.8448 133.677 75.7597 133.621 75.7861C133.566 75.8122 133.572 75.938 133.622 76.0377C133.646 76.0844 133.675 76.1162 133.704 76.1357C133.428 76.1128 133.006 76.2796 132.752 76.5238C132.618 76.6407 132.555 76.7671 132.53 76.876C132.52 76.921 132.489 76.9594 132.445 76.9766C132.329 77.023 132.218 77.107 132.159 77.2408C132.073 77.4191 132.096 77.626 132.217 77.7658C132.443 78.0232 132.839 78.0146 133.026 77.7862C133.078 77.7317 133.114 77.6675 133.133 77.5985C133.144 77.5581 133.178 77.528 133.22 77.5188C133.324 77.4973 133.422 77.4351 133.542 77.3314C133.764 77.117 133.971 76.7854 134.005 76.5146C134.017 76.5464 134.042 76.5808 134.082 76.6155C134.168 76.6894 134.285 76.7356 134.321 76.6966C134.356 76.6573 134.3 76.5458 134.216 76.4702C134.209 76.465 134.204 76.4613 134.197 76.4564L134.234 76.4349C134.386 76.3223 134.436 76.1214 134.341 75.9818C134.244 75.8383 134.027 75.817 133.861 75.9391Z" fill="black"/>
<path d="M136.85 74.5259L136.807 74.5423C136.807 74.5337 136.808 74.5271 136.808 74.5179C136.801 74.4059 136.746 74.2938 136.684 74.2995C136.623 74.3053 136.582 74.4262 136.592 74.5374C136.597 74.5896 136.612 74.6291 136.631 74.6575C136.38 74.5291 135.924 74.5414 135.597 74.6824C135.429 74.7492 135.322 74.8349 135.261 74.9314C135.235 74.9701 135.192 74.9954 135.145 74.9959C135.021 74.9982 134.888 75.0398 134.783 75.1407C134.639 75.2739 134.583 75.474 134.642 75.6476C134.754 75.9692 135.127 76.1042 135.39 75.9577C135.459 75.9242 135.516 75.8763 135.559 75.8181C135.585 75.784 135.628 75.7674 135.67 75.7734C135.774 75.7858 135.894 75.7706 136.041 75.7127C136.324 75.59 136.636 75.3493 136.771 75.118C136.77 75.1518 136.78 75.1931 136.805 75.2395C136.857 75.3387 136.948 75.4221 136.996 75.3974C137.043 75.3725 137.031 75.2481 136.982 75.1481C136.977 75.1407 136.974 75.1355 136.969 75.1286L137.011 75.1209C137.195 75.0724 137.318 74.91 137.282 74.7417C137.247 74.5772 137.051 74.4732 136.85 74.5259Z" fill="black"/>
<path d="M140.172 74.3385L140.126 74.3359C140.129 74.3284 140.132 74.3227 140.136 74.3144C140.176 74.2092 140.171 74.0846 140.112 74.0654C140.053 74.0462 139.965 74.1404 139.929 74.2462C139.913 74.2955 139.91 74.3379 139.917 74.3717C139.737 74.1579 139.31 73.9963 138.95 73.9986C138.768 73.9969 138.634 74.0439 138.539 74.104C138.501 74.1296 138.451 74.1359 138.407 74.1184C138.29 74.074 138.152 74.0734 138.015 74.121C137.827 74.1826 137.701 74.362 137.689 74.5425C137.672 74.8879 137.963 75.1289 138.262 75.1051C138.339 75.0982 138.409 75.0693 138.471 75.0329C138.508 75.0117 138.554 75.0131 138.591 75.0354C138.681 75.0916 138.798 75.1148 138.955 75.1166C139.262 75.1151 139.641 75.0105 139.859 74.8486C139.845 74.8795 139.837 74.9211 139.841 74.9733C139.849 75.085 139.898 75.1977 139.951 75.1936C140.003 75.1896 140.043 75.0713 140.039 74.9601C140.037 74.9515 140.037 74.9452 140.035 74.9374C140.049 74.9409 140.063 74.9449 140.077 74.9469C140.265 74.9695 140.447 74.8692 140.481 74.701C140.514 74.5359 140.38 74.3646 140.172 74.3385Z" fill="black"/>
<path d="M143.13 74.0803L143.09 74.0995C143.09 74.0912 143.089 74.0849 143.088 74.0757C143.069 73.9657 143.002 73.859 142.946 73.8688C142.889 73.8782 142.864 74.0003 142.884 74.1101C142.893 74.1617 142.911 74.2001 142.932 74.227C142.678 74.1201 142.253 74.1413 141.963 74.2339C141.891 74.2565 141.832 74.2832 141.797 74.3078C141.769 74.3239 141.779 74.329 141.774 74.3431C141.773 74.3566 141.741 74.3709 141.727 74.3869C141.699 74.4136 141.66 74.4182 141.628 74.4001C141.54 74.3497 141.445 74.329 141.328 74.3502C141.171 74.3786 141.005 74.4961 140.93 74.6649C140.79 74.975 140.974 75.3298 141.372 75.3622C141.47 75.3693 141.565 75.3516 141.647 75.3169C141.695 75.2951 141.751 75.2974 141.799 75.3169C141.832 75.3281 141.851 75.3421 141.903 75.3458C141.952 75.3501 142.021 75.3481 142.055 75.3461C142.145 75.3413 142.226 75.3255 142.315 75.2974C142.66 75.1868 142.988 74.9214 143.108 74.6752C143.11 74.7093 143.123 74.7497 143.152 74.7939C143.213 74.8885 143.316 74.9618 143.365 74.9317C143.414 74.9014 143.39 74.7787 143.329 74.6844C143.323 74.6775 143.319 74.6727 143.314 74.6664L143.357 74.6543C143.543 74.5838 143.642 74.3987 143.58 74.2399C143.518 74.0811 143.316 74.0098 143.13 74.0803Z" fill="black"/>
<path d="M128.776 82.3579L128.787 82.4063C128.778 82.4046 128.772 82.4032 128.762 82.4012C128.648 82.3889 128.526 82.4278 128.524 82.4938C128.521 82.5597 128.637 82.6239 128.751 82.6319C128.804 82.6359 128.847 82.6267 128.878 82.6107C128.714 82.8526 128.692 83.3486 128.763 83.6639C128.799 83.8338 128.859 83.9528 128.935 84.0356C128.966 84.0694 128.979 84.1167 128.967 84.1605C128.934 84.2775 128.938 84.4073 128.991 84.5342C129.065 84.7068 129.226 84.8317 129.413 84.8618C129.76 84.9269 130.045 84.6053 129.984 84.2416C129.97 84.1514 129.936 84.0703 129.889 84.0018C129.861 83.9614 129.855 83.9098 129.871 83.8645C129.91 83.7542 129.918 83.6126 129.88 83.432C129.796 83.0583 129.58 82.7193 129.363 82.5408C129.398 82.5468 129.441 82.5428 129.491 82.525C129.599 82.4866 129.697 82.4063 129.679 82.3539C129.661 82.3012 129.533 82.2923 129.424 82.3267C129.416 82.3304 129.411 82.333 129.403 82.3361L129.401 82.2914C129.373 82.0937 129.236 81.9369 129.059 81.9441C128.889 81.9507 128.746 82.1375 128.776 82.3579Z" fill="black"/>
<path d="M129.3 78.8719L129.286 78.9192C129.279 78.9135 129.274 78.9092 129.267 78.9032C129.172 78.839 129.047 78.8161 129.013 78.8725C128.979 78.9287 129.05 79.0393 129.146 79.1001C129.191 79.1284 129.233 79.1405 129.268 79.141C129.005 79.2752 128.734 79.6793 128.652 80.0547C128.603 80.2421 128.624 80.3931 128.662 80.5052C128.679 80.551 128.675 80.6041 128.647 80.6462C128.572 80.758 128.549 80.9041 128.568 81.058C128.591 81.2678 128.748 81.436 128.928 81.483C129.271 81.5664 129.565 81.3128 129.602 81.0018C129.61 80.9219 129.595 80.8442 129.575 80.7729C129.562 80.7304 129.573 80.684 129.603 80.6508C129.679 80.57 129.724 80.4548 129.768 80.2957C129.836 79.981 129.828 79.5669 129.727 79.3087C129.755 79.3302 129.794 79.3471 129.847 79.3551C129.96 79.372 130.085 79.3468 130.095 79.2915C130.104 79.2365 129.997 79.1686 129.885 79.1482C129.876 79.1476 129.87 79.1471 129.861 79.1465L129.881 79.1061C129.959 78.9201 129.908 78.7146 129.75 78.6404C129.595 78.5676 129.386 78.6676 129.3 78.8719Z" fill="black"/>
<path d="M131.276 75.9541L131.245 75.9917C131.241 75.9842 131.238 75.9785 131.233 75.9702C131.169 75.8782 131.06 75.812 131.007 75.8498C130.953 75.8865 130.983 76.0169 131.05 76.1078C131.081 76.1505 131.115 76.1765 131.147 76.1897C130.856 76.2215 130.457 76.4829 130.227 76.7821C130.115 76.9357 130.062 77.0721 130.051 77.1888C130.046 77.2363 130.019 77.2816 129.977 77.3074C129.867 77.3788 129.776 77.4931 129.725 77.6373C129.653 77.8319 129.715 78.0502 129.853 78.1726C130.119 78.4019 130.499 78.3064 130.679 78.0365C130.723 77.9668 130.747 77.8903 130.757 77.8138C130.765 77.7694 130.796 77.7316 130.838 77.7135C130.942 77.6699 131.043 77.5868 131.144 77.4496C131.348 77.1842 131.511 76.7913 131.512 76.511C131.53 76.5408 131.56 76.5709 131.606 76.5972C131.705 76.6537 131.828 76.6703 131.862 76.6233C131.893 76.5749 131.818 76.4743 131.721 76.4158C131.713 76.4121 131.707 76.4095 131.699 76.4058L131.734 76.3757C131.879 76.2284 131.898 76.0106 131.776 75.8897C131.654 75.7687 131.43 75.7977 131.276 75.9541Z" fill="black"/>
<path d="M129.029 86.0017L129.037 86.0496C129.029 86.0476 129.022 86.0461 129.013 86.0438C128.899 86.0298 128.777 86.0659 128.77 86.1295C128.763 86.1932 128.882 86.2579 128.995 86.2694C129.049 86.2751 129.091 86.2674 129.123 86.2525C128.954 86.4869 128.888 86.9526 128.964 87.3191C129.006 87.504 129.075 87.633 129.156 87.7189C129.189 87.7539 129.206 87.8038 129.197 87.8522C129.179 87.9797 129.205 88.1227 129.282 88.2554C129.382 88.4374 129.59 88.5371 129.775 88.5179C130.127 88.4758 130.307 88.1339 130.22 87.8233C130.197 87.7444 130.154 87.6759 130.103 87.6178C130.074 87.5828 130.065 87.5349 130.08 87.4917C130.116 87.3865 130.12 87.2575 130.082 87.093C130.015 86.7675 129.823 86.3869 129.611 86.1995C129.645 86.2066 129.688 86.2043 129.739 86.1883C129.848 86.1533 129.943 86.0742 129.929 86.0186C129.913 85.963 129.786 85.951 129.677 85.9837C129.668 85.9871 129.662 85.9897 129.655 85.9928L129.655 85.947C129.639 85.7429 129.485 85.5847 129.312 85.5936C129.139 85.6022 129.012 85.7851 129.029 86.0017Z" fill="black"/>
<path d="M134.047 73.7565L134.004 73.7829C134.003 73.7746 134.002 73.7683 134 73.7591C133.968 73.6516 133.885 73.5562 133.821 73.5771C133.758 73.5995 133.744 73.7316 133.78 73.8382C133.797 73.8881 133.821 73.923 133.848 73.9451C133.56 73.8921 133.088 74.0328 132.789 74.2649C132.634 74.3781 132.546 74.4939 132.505 74.6048C132.488 74.6498 132.45 74.6862 132.403 74.6997C132.274 74.7344 132.155 74.8152 132.068 74.939C131.948 75.1063 131.933 75.3204 132.028 75.4823C132.202 75.7798 132.608 75.8105 132.861 75.5912C132.924 75.5339 132.974 75.4712 133.006 75.4004C133.026 75.3591 133.066 75.3302 133.112 75.3239C133.223 75.307 133.345 75.2536 133.483 75.1533C133.749 74.9461 134.015 74.6255 134.099 74.3581C134.106 74.3916 134.126 74.4291 134.162 74.4678C134.239 74.5507 134.351 74.6048 134.394 74.5684C134.438 74.5335 134.398 74.4154 134.324 74.3297C134.317 74.3237 134.313 74.3194 134.306 74.3139L134.349 74.2962C134.529 74.2016 134.616 74.0021 134.544 73.8511C134.469 73.6943 134.246 73.6516 134.047 73.7565Z" fill="black"/>
<path d="M137.509 72.8352L137.46 72.8427C137.462 72.8344 137.464 72.8281 137.466 72.8192C137.483 72.708 137.45 72.5873 137.385 72.5813C137.32 72.575 137.25 72.6853 137.236 72.7963C137.229 72.8481 137.235 72.89 137.25 72.9218C137.015 72.749 136.537 72.6745 136.157 72.7484C135.965 72.7819 135.832 72.857 135.743 72.9352C135.706 72.9682 135.655 72.9845 135.605 72.9762C135.473 72.961 135.325 72.9877 135.188 73.0645C135.003 73.1748 134.903 73.3743 134.928 73.5551C134.983 73.8979 135.337 74.0661 135.645 73.9776C135.724 73.9538 135.792 73.9134 135.85 73.8612C135.885 73.8328 135.933 73.8248 135.977 73.8394C136.084 73.8764 136.211 73.8741 136.379 73.8454C136.706 73.7818 137.096 73.6027 137.292 73.4001C137.284 73.4333 137.285 73.4757 137.301 73.5259C137.334 73.6334 137.413 73.7328 137.47 73.7176C137.526 73.7024 137.542 73.5781 137.511 73.4703C137.508 73.4623 137.505 73.4565 137.502 73.4491L137.549 73.4494C137.757 73.4325 137.924 73.2969 137.919 73.125C137.914 72.9573 137.731 72.8175 137.509 72.8352Z" fill="black"/>
<path d="M134.874 71.6035L134.828 71.6218C134.828 71.6132 134.828 71.6067 134.829 71.5975C134.819 71.4854 134.758 71.3757 134.694 71.3843C134.629 71.3926 134.587 71.5158 134.599 71.627C134.605 71.6792 134.621 71.7184 134.642 71.7459C134.373 71.6307 133.891 71.6654 133.538 71.8227C133.359 71.8984 133.246 72.0019 133.178 72.0979C133.151 72.138 133.105 72.1655 133.054 72.1689C132.922 72.1835 132.784 72.2429 132.669 72.3483C132.515 72.4974 132.464 72.714 132.531 72.8843C132.665 73.2055 133.048 73.2898 133.328 73.1342C133.399 73.0935 133.456 73.0387 133.5 72.9748C133.527 72.9396 133.573 72.9209 133.618 72.9252C133.731 72.9373 133.854 72.9063 134.011 72.8407C134.314 72.7054 134.652 72.4432 134.796 72.2019C134.796 72.2363 134.807 72.277 134.833 72.3225C134.891 72.4197 134.991 72.4985 135.042 72.471C135.094 72.4435 135.08 72.3191 135.025 72.2211C135.02 72.2139 135.016 72.2091 135.011 72.2025L135.057 72.1921C135.255 72.1291 135.386 71.9597 135.34 71.7932C135.296 71.6313 135.085 71.5364 134.874 71.6035Z" fill="black"/>
<path d="M141.022 72.962L140.974 72.9632C140.978 72.9551 140.98 72.9491 140.984 72.9405C141.014 72.8325 140.997 72.7087 140.938 72.6941C140.879 72.6797 140.8 72.7797 140.768 72.8875C140.754 72.9377 140.753 72.9801 140.763 73.0133C140.561 72.8118 140.14 72.6491 139.78 72.6215C139.597 72.6078 139.457 72.6322 139.352 72.6829C139.309 72.7035 139.257 72.7044 139.214 72.682C139.1 72.6224 138.958 72.5966 138.797 72.6258C138.593 72.6706 138.432 72.817 138.387 72.9961C138.302 73.332 138.587 73.624 138.91 73.6349C138.994 73.6392 139.075 73.6249 139.151 73.5968C139.195 73.5799 139.245 73.5865 139.284 73.6134C139.379 73.6782 139.51 73.7226 139.692 73.7364C140.05 73.7636 140.5 73.667 140.73 73.4925C140.716 73.5243 140.711 73.5661 140.718 73.618C140.735 73.7292 140.803 73.8387 140.866 73.8312C140.93 73.8241 140.962 73.7028 140.944 73.5922C140.942 73.5836 140.94 73.5776 140.938 73.5696L140.986 73.5765C141.205 73.5888 141.389 73.4567 141.394 73.287C141.398 73.1168 141.233 72.974 141.022 72.962Z" fill="black"/>
<path d="M120.3 86.9249C120.282 86.9888 120.222 87.0301 120.155 87.0384C119.213 87.1465 118.665 87.2697 118.245 87.4892C117.834 87.6864 117.592 87.942 117.596 88.0211C117.6 88.1002 117.874 88.3444 118.415 88.3851C118.55 88.4 118.697 88.3794 118.858 88.3559C119.02 88.3347 119.191 88.2842 119.365 88.2C119.541 88.1246 119.721 88.0214 119.889 87.8738C120.063 87.74 120.222 87.5603 120.362 87.3514C120.401 87.2929 120.472 87.2608 120.542 87.2617C120.796 87.2588 121.069 87.2247 121.173 87.1445C121.274 87.0562 121.202 86.9479 120.833 86.7782C120.694 86.391 120.58 86.3231 120.507 86.3979C120.427 86.4678 120.365 86.6836 120.3 86.9249Z" fill="black"/>
<path d="M122.36 83.8228C122.39 83.8832 122.381 83.9557 122.34 84.007C121.707 84.7143 121.424 85.2024 121.263 85.63C121.11 86.0455 121.118 86.4003 121.176 86.4551C121.233 86.5115 121.6 86.4983 122.021 86.1584C122.439 85.8349 122.859 85.0921 122.707 84.1031C122.694 84.0337 122.717 83.9621 122.77 83.9171C123.174 83.5846 123.461 83.1473 122.666 83.3685C121.947 82.9665 122.157 83.3872 122.36 83.8228Z" fill="black"/>
<path d="M122.174 80.0608C122.23 80.0967 122.258 80.1634 122.249 80.2293C122.113 81.1539 122.142 81.7362 122.286 82.1879C122.407 82.6266 122.645 82.8986 122.726 82.9063C122.806 82.9141 123.077 82.6817 123.216 82.177C123.339 81.6895 123.289 80.8713 122.612 80.1156C122.564 80.0634 122.548 79.9898 122.57 79.9227C122.709 79.4349 122.727 78.8936 122.175 79.5183C121.366 79.5685 121.746 79.8109 122.174 80.0608Z" fill="black"/>
<path d="M119.728 77.2565C119.794 77.2442 119.867 77.2637 119.903 77.323C120.436 78.0942 120.797 78.5083 121.186 78.7728C121.36 78.913 121.539 79.0004 121.683 79.052C121.817 79.1093 121.921 79.1245 121.957 79.1044C121.992 79.0852 122.034 78.9904 122.048 78.8333C122.053 78.6823 122.022 78.4711 121.926 78.2209C121.808 77.9867 121.631 77.7042 121.319 77.4749C121.021 77.237 120.592 77.0548 120.09 76.9986C120.021 76.9863 119.953 76.9536 119.921 76.8905C119.685 76.424 119.295 76.0531 119.35 76.8619C118.798 77.4657 119.251 77.3468 119.728 77.2565Z" fill="black"/>
<path d="M115.962 76.8273C116.004 76.7757 116.073 76.7476 116.139 76.7657C117.057 77.0165 117.641 77.0594 118.107 77.0064C118.562 76.9448 118.874 76.7955 118.901 76.7084C118.923 76.6448 118.747 76.3109 118.249 76.1063C117.77 75.8907 116.919 75.8357 116.066 76.3997C116.007 76.4387 115.932 76.4536 115.867 76.4264C115.38 76.2177 114.838 76.1816 115.412 76.7654C115.389 77.575 115.656 77.197 115.962 76.8273Z" fill="black"/>
<path d="M112.895 78.949C112.889 78.8839 112.925 78.8206 112.983 78.7871C113.808 78.3282 114.26 78.0058 114.567 77.6619C114.862 77.3226 115.007 77.0177 114.968 76.9323C114.952 76.8968 114.861 76.8498 114.705 76.8271C114.549 76.8028 114.324 76.8016 114.07 76.8919C113.565 77.0412 112.862 77.5785 112.67 78.5756C112.657 78.6449 112.608 78.7031 112.54 78.7277C112.056 78.9186 111.619 79.2465 112.459 79.282C113.003 79.8744 112.953 79.429 112.895 78.949Z" fill="black"/>
<path d="M111.985 82.5881C111.941 82.5376 111.931 82.4654 111.957 82.4044C112.353 81.5449 112.48 80.9752 112.466 80.51C112.465 80.0587 112.335 79.7362 112.26 79.7044C112.186 79.6732 111.842 79.8102 111.57 80.2664C111.312 80.7103 111.142 81.5099 111.577 82.4121C111.608 82.4749 111.605 82.5497 111.565 82.607C111.414 82.8165 111.298 83.0495 111.315 83.1753C111.327 83.3031 111.458 83.3091 111.816 83.1071C112.215 83.216 112.338 83.1644 112.321 83.0589C112.297 82.952 112.141 82.7749 111.985 82.5881Z" fill="black"/>
<path d="M113.291 86.0918C113.225 86.0786 113.172 86.0276 113.156 85.9646C112.959 85.0584 112.767 84.5259 112.509 84.1356C112.251 83.7587 111.975 83.5509 111.884 83.5679C111.816 83.579 111.59 83.8797 111.62 84.4041C111.632 84.9114 111.942 85.7098 112.856 86.1935C112.921 86.2254 112.964 86.2873 112.969 86.3566C112.979 86.6157 113.046 86.8702 113.14 86.9616C113.235 87.057 113.338 86.9785 113.485 86.5985C113.862 86.4369 113.923 86.3179 113.845 86.2494C113.762 86.1812 113.528 86.1468 113.291 86.0918Z" fill="black"/>
<path d="M116.621 87.7992C116.564 87.8324 116.491 87.8287 116.434 87.7917C115.642 87.273 115.14 87.0285 114.684 86.9251C114.243 86.8202 113.897 86.84 113.841 86.907C113.794 86.9612 113.822 87.336 114.214 87.7115C114.586 88.0769 115.389 88.438 116.382 88.1608C116.45 88.1419 116.525 88.1597 116.578 88.2087C116.968 88.5377 117.456 88.7925 117.121 88.0327C117.425 87.2988 117.036 87.5249 116.621 87.7992Z" fill="black"/>
<path d="M120.301 90.5322C120.267 90.5875 120.202 90.6168 120.138 90.6084C119.682 90.552 119.304 90.507 118.996 90.5546C118.68 90.5637 118.423 90.6325 118.214 90.7257C117.794 90.8853 117.558 91.1343 117.56 91.2194C117.562 91.2931 117.817 91.5421 118.309 91.6318C118.552 91.6634 118.855 91.6565 119.195 91.5762C119.527 91.4576 119.906 91.2974 120.254 90.9632C120.304 90.9165 120.374 90.8999 120.438 90.9214C120.673 90.9996 120.925 91.0607 121.038 91.02C121.151 90.9736 121.122 90.8469 120.837 90.5655C120.828 90.1579 120.748 90.0548 120.654 90.1026C120.557 90.1459 120.428 90.3282 120.301 90.5322Z" fill="black"/>
<path d="M123.431 88.631C123.424 88.6937 123.377 88.7456 123.314 88.7639C123.089 88.8293 122.899 88.9035 122.729 88.9786C122.549 89.0422 122.395 89.1136 122.261 89.1912C122.002 89.3574 121.783 89.4962 121.634 89.6652C121.484 89.834 121.38 89.9928 121.312 90.1146C121.248 90.2413 121.229 90.3413 121.247 90.3783C121.263 90.4132 121.354 90.4617 121.504 90.49C121.657 90.5233 121.863 90.5244 122.101 90.4528C122.338 90.382 122.63 90.2771 122.886 90.0321C123.018 89.9154 123.149 89.7779 123.273 89.6188C123.387 89.448 123.489 89.2491 123.578 89.0322C123.603 88.9708 123.661 88.9276 123.73 88.9207C124.223 88.8519 124.697 88.6668 123.913 88.416C123.524 87.7122 123.468 88.1572 123.431 88.631Z" fill="black"/>
<path d="M125.364 85.5549C125.388 85.616 125.373 85.6839 125.327 85.7289C124.976 86.0355 124.749 86.3167 124.57 86.5689C124.381 86.8148 124.299 87.0652 124.224 87.2704C124.084 87.6831 124.144 88.031 124.209 88.082C124.271 88.1305 124.614 88.0875 125.003 87.7694C125.2 87.6132 125.363 87.3627 125.512 87.0503C125.649 86.7336 125.713 86.3224 125.684 85.8584C125.676 85.7916 125.705 85.7269 125.761 85.6905C126.175 85.4222 126.549 85.0709 125.718 85.1614C125.075 84.6866 125.19 85.1099 125.364 85.5549Z" fill="black"/>
<path d="M125.907 81.9563C125.951 82.0053 125.961 82.0743 125.935 82.1325C125.732 82.5446 125.601 82.892 125.556 83.1983C125.48 83.5007 125.479 83.7626 125.515 83.9859C125.563 84.4249 125.744 84.7129 125.829 84.7336C125.902 84.7516 126.216 84.5771 126.432 84.136C126.528 83.9154 126.602 83.6293 126.614 83.2886C126.595 82.947 126.525 82.5495 126.315 82.1279C126.284 82.0686 126.288 81.9981 126.327 81.9448C126.618 81.5519 126.842 81.1008 126.096 81.4653C125.324 81.2355 125.584 81.5992 125.907 81.9563Z" fill="black"/>
<path d="M125.142 78.4011C125.201 78.4307 125.236 78.4914 125.233 78.5545C125.198 79.0081 125.2 79.3747 125.26 79.6759C125.296 79.984 125.387 80.2287 125.5 80.4259C125.686 80.8259 125.969 81.0343 126.052 81.0257C126.13 81.0177 126.353 80.7506 126.415 80.2625C126.427 80.0226 126.395 79.7286 126.285 79.4036C126.151 79.0861 125.94 78.7333 125.586 78.4146C125.534 78.3705 125.511 78.3031 125.528 78.2389C125.591 78.0042 125.63 77.7563 125.584 77.6463C125.532 77.538 125.407 77.5752 125.135 77.8756C124.726 77.9114 124.626 77.9976 124.678 78.0873C124.725 78.1819 124.925 78.2922 125.142 78.4011Z" fill="black"/>
<path d="M122.983 75.4772C123.048 75.4801 123.104 75.5219 123.128 75.5818C123.47 76.4146 123.802 76.8815 124.163 77.1606C124.523 77.4303 124.834 77.5346 124.917 77.4893C124.976 77.4578 125.107 77.107 124.933 76.6487C124.839 76.4264 124.719 76.1426 124.45 75.9114C124.322 75.7916 124.171 75.6738 124 75.5643C123.826 75.4568 123.609 75.378 123.383 75.3055C123.318 75.2855 123.27 75.2324 123.258 75.1654C123.16 74.6819 122.932 74.24 122.733 75.0192C122.039 75.4514 122.504 75.4669 122.983 75.4772Z" fill="black"/>
<path d="M119.717 73.8057C119.777 73.7776 119.848 73.787 119.897 73.8277C120.571 74.4588 121.099 74.6946 121.543 74.797C121.974 74.9036 122.329 74.8147 122.372 74.754C122.421 74.684 122.349 74.3588 121.997 74.0014C121.65 73.6561 120.955 73.3365 120.002 73.4698C119.935 73.483 119.866 73.4597 119.825 73.4079C119.52 73.0264 119.133 72.69 119.289 73.4933C118.854 74.1582 119.276 74.012 119.717 73.8057Z" fill="black"/>
<path d="M116.015 73.5656C116.06 73.5177 116.13 73.5011 116.191 73.5214C116.628 73.6899 116.99 73.7742 117.303 73.8052C117.617 73.8527 117.884 73.8312 118.108 73.7774C118.55 73.7051 118.83 73.4962 118.845 73.4143C118.858 73.3395 118.655 73.0563 118.189 72.8697C117.956 72.7949 117.659 72.7474 117.311 72.7649C116.964 72.7995 116.562 72.9162 116.151 73.1506C116.094 73.1873 116.022 73.1904 115.964 73.1569C115.535 72.9124 115.048 72.7393 115.498 73.4294C115.347 74.2038 115.685 73.9158 116.015 73.5656Z" fill="black"/>
<path d="M112.528 74.7504C112.55 74.6896 112.607 74.6484 112.672 74.6429C113.124 74.5896 113.505 74.5638 113.794 74.4549C114.094 74.3712 114.334 74.2655 114.517 74.1305C114.892 73.8895 115.076 73.6055 115.057 73.5209C115.041 73.4504 114.742 73.249 114.239 73.2613C113.994 73.2813 113.692 73.3369 113.379 73.4977C113.078 73.6817 112.736 73.9115 112.477 74.3225C112.439 74.3781 112.374 74.4091 112.306 74.4013C111.793 74.3325 111.308 74.4351 112.004 74.8429C112.226 75.6276 112.365 75.1783 112.528 74.7504Z" fill="black"/>
<path d="M109.939 77.3119C109.929 77.2474 109.955 77.1815 110.015 77.1517C110.432 76.9299 110.701 76.6963 110.943 76.4988C111.058 76.3951 111.151 76.2896 111.229 76.1839C111.31 76.0827 111.384 75.9899 111.439 75.8936C111.553 75.7047 111.61 75.5187 111.639 75.3777C111.673 75.2422 111.67 75.1413 111.644 75.1095C111.619 75.0791 111.518 75.0516 111.364 75.0562C111.215 75.0665 111.019 75.1204 110.797 75.235C110.687 75.294 110.566 75.3637 110.453 75.4614C110.346 75.5631 110.238 75.6838 110.134 75.8248C109.915 76.0959 109.775 76.4945 109.695 76.9505C109.681 77.0135 109.643 77.0734 109.58 77.0972C109.123 77.2783 108.686 77.5515 109.516 77.6277C110.049 78.2226 110.02 77.7853 109.939 77.3119Z" fill="black"/>
<path d="M108.715 80.7328C108.681 80.6772 108.683 80.6076 108.719 80.5548C108.986 80.1826 109.182 79.867 109.283 79.5761C109.414 79.2947 109.463 79.0394 109.47 78.8141C109.519 78.3808 109.389 78.0578 109.313 78.022C109.243 77.989 108.911 78.1025 108.6 78.4926C108.463 78.6929 108.336 78.9623 108.26 79.297C108.214 79.6378 108.206 80.0439 108.343 80.4955C108.364 80.5591 108.348 80.6282 108.299 80.6741C107.943 81.0137 107.642 81.4229 108.442 81.185C109.163 81.5367 108.971 81.1377 108.715 80.7328Z" fill="black"/>
<path d="M108.82 84.375C108.767 84.3343 108.745 84.2684 108.76 84.2068C108.896 83.766 108.95 83.4052 108.955 83.0951C108.975 82.7836 108.93 82.5245 108.855 82.3098C108.736 81.8831 108.499 81.6312 108.414 81.6261C108.337 81.6212 108.066 81.8476 107.925 82.3162C107.87 82.5491 107.847 82.842 107.896 83.1791C107.961 83.5138 108.114 83.8944 108.386 84.2758C108.428 84.3288 108.437 84.3991 108.408 84.4584C108.194 84.8963 108.057 85.3835 108.723 84.8903C109.524 84.9774 109.203 84.6693 108.82 84.375Z" fill="black"/>
<path d="M110.281 87.699C110.218 87.6821 110.172 87.6297 110.162 87.5666C110.119 87.3388 110.082 87.1405 110.048 86.9619C110.007 86.7803 109.955 86.6218 109.893 86.4819C109.791 86.1916 109.661 85.9669 109.511 85.7964C109.24 85.4462 108.933 85.2891 108.85 85.3141C108.778 85.335 108.6 85.6419 108.646 86.1314C108.683 86.3699 108.766 86.6576 108.947 86.9534C109.047 87.0961 109.169 87.2419 109.315 87.3844C109.454 87.5302 109.633 87.6635 109.848 87.7776C109.907 87.8108 109.943 87.8724 109.94 87.9395C109.905 88.4427 110.034 88.9136 110.408 88.2072C111.192 87.9412 110.731 87.83 110.281 87.699Z" fill="black"/>
<path d="M113.056 90.0673C112.989 90.0845 112.924 90.0572 112.889 90.0011C112.633 89.6133 112.382 89.3605 112.164 89.1379C112.051 89.033 111.936 88.9496 111.824 88.8808C111.721 88.802 111.617 88.7401 111.516 88.6914C111.106 88.5062 110.767 88.4862 110.705 88.5406C110.646 88.5922 110.611 88.9496 110.885 89.3608C110.952 89.4651 111.035 89.5743 111.136 89.6838C111.247 89.7824 111.378 89.8798 111.528 89.971C111.82 90.1664 112.232 90.2836 112.705 90.3275C112.771 90.3352 112.831 90.3753 112.861 90.4321C113.077 90.8651 113.387 91.2724 113.407 90.4567C113.977 89.8947 113.534 89.9543 113.056 90.0673Z" fill="black"/>
<path d="M116.626 91.0021C116.573 91.0408 116.502 91.0445 116.445 91.0136C116.044 90.7823 115.708 90.6198 115.405 90.5418C115.109 90.4364 114.846 90.4083 114.617 90.4192C114.174 90.4 113.853 90.5533 113.822 90.6292C113.793 90.7009 113.933 91.0136 114.354 91.293C114.568 91.4105 114.853 91.5139 115.201 91.5624C115.552 91.5827 115.968 91.5555 116.416 91.385C116.479 91.3595 116.551 91.3695 116.602 91.4131C116.977 91.7315 117.421 91.9902 117.109 91.2299C117.404 90.4971 117.016 90.7181 116.626 91.0021Z" fill="black"/>
<path d="M119.256 89.2546C119.217 89.3084 119.15 89.3351 119.085 89.3245C118.618 89.2205 118.251 89.1927 117.93 89.1738C117.612 89.1778 117.346 89.203 117.122 89.2609C116.677 89.3927 116.4 89.5741 116.39 89.6675C116.385 89.7059 116.438 89.7936 116.554 89.8942C116.67 89.9988 116.851 90.1103 117.1 90.1716C117.347 90.2419 117.663 90.2831 118.025 90.2095C118.386 90.1599 118.792 89.9788 119.18 89.6853C119.233 89.6403 119.307 89.6263 119.372 89.6503C119.857 89.8409 120.377 89.8742 119.801 89.3013C119.801 88.4911 119.54 88.8751 119.256 89.2546Z" fill="black"/>
<path d="M122.419 87.2769C122.417 87.3423 122.37 87.3967 122.308 87.4205C121.439 87.7682 120.948 88.0685 120.636 88.4098C120.322 88.7274 120.201 89.0598 120.231 89.128C120.265 89.2051 120.599 89.3266 121.109 89.1942C121.361 89.1289 121.64 88.9738 121.919 88.7377C122.049 88.6087 122.178 88.458 122.299 88.286C122.419 88.1135 122.507 87.8957 122.589 87.6713C122.611 87.6068 122.67 87.5598 122.738 87.5455C123.224 87.4254 123.711 87.2021 122.893 87.0167C122.46 86.3478 122.419 86.7872 122.419 87.2769Z" fill="black"/>
<path d="M124.08 83.9413C124.11 84.0009 124.104 84.0729 124.061 84.1233C123.739 84.4781 123.55 84.7936 123.387 85.0685C123.249 85.3522 123.152 85.5964 123.109 85.8199C123.03 86.267 123.078 86.5914 123.157 86.6424C123.213 86.6799 123.594 86.6226 123.933 86.2415C124.287 85.8792 124.599 85.1662 124.431 84.213C124.418 84.1465 124.437 84.0763 124.49 84.0325C124.87 83.7086 125.201 83.3054 124.386 83.4963C123.693 83.0862 123.855 83.5066 124.08 83.9413Z" fill="black"/>
<path d="M124.125 80.2168C124.177 80.2578 124.208 80.324 124.186 80.3885C124.118 80.6158 124.072 80.819 124.046 81.0047C124.016 81.1907 123.983 81.3626 123.979 81.5197C123.978 81.8329 123.982 82.0986 124.046 82.3201C124.163 82.7617 124.358 83.0348 124.45 83.0457C124.519 83.0549 124.829 82.8417 124.976 82.3605C125.128 81.8922 125.137 81.1136 124.559 80.3157C124.524 80.2593 124.506 80.1882 124.535 80.1263C124.736 79.67 124.844 79.157 124.203 79.6869C123.396 79.6259 123.733 79.9219 124.125 80.2168Z" fill="black"/>
<path d="M122.332 76.9823C122.397 76.9904 122.452 77.0368 122.473 77.0987C122.745 77.9799 123.043 78.4646 123.348 78.8079C123.668 79.1314 123.966 79.2871 124.051 79.2567C124.119 79.2332 124.298 78.9028 124.183 78.4052C124.1 77.9109 123.674 77.2182 122.749 76.8425C122.684 76.817 122.637 76.7594 122.629 76.6909C122.559 76.1876 122.336 75.7234 122.104 76.4989C121.383 76.8901 121.852 76.9296 122.332 76.9823Z" fill="black"/>
<path d="M119.03 75.2097C119.091 75.179 119.164 75.1873 119.214 75.2346C119.931 75.837 120.445 76.1135 120.904 76.2138C121.341 76.3299 121.691 76.28 121.744 76.2113C121.789 76.154 121.739 75.8 121.376 75.4289C121.015 75.0815 120.299 74.7081 119.312 74.8743C119.244 74.8812 119.173 74.8594 119.128 74.8096C118.801 74.4359 118.386 74.1089 118.579 74.9087C118.158 75.5857 118.584 75.4277 119.03 75.2097Z" fill="black"/>
<path d="M115.253 75.2505C115.291 75.1963 115.359 75.1694 115.423 75.1797C115.891 75.2837 116.257 75.3136 116.578 75.3319C116.895 75.3259 117.161 75.3081 117.385 75.2462C117.829 75.1227 118.108 74.9347 118.119 74.8436C118.128 74.7774 117.909 74.4696 117.411 74.3354C116.927 74.185 116.114 74.2151 115.328 74.8189C115.275 74.8645 115.201 74.8788 115.136 74.855C114.651 74.6662 114.13 74.6321 114.708 75.2041C114.709 76.014 114.97 75.6317 115.253 75.2505Z" fill="black"/>
<path d="M112.095 77.2361C112.098 77.171 112.144 77.1163 112.206 77.0922C113.074 76.7431 113.564 76.4402 113.875 76.0989C114.035 75.9418 114.14 75.7779 114.205 75.6429C114.271 75.5131 114.297 75.4183 114.279 75.3799C114.244 75.3028 113.909 75.1801 113.4 75.3157C113.147 75.3807 112.87 75.538 112.592 75.7742C112.462 75.9034 112.333 76.0545 112.213 76.2267C112.093 76.3995 112.006 76.6176 111.924 76.842C111.902 76.9065 111.844 76.9541 111.776 76.9681C111.29 77.0893 110.803 77.3129 111.622 77.4971C112.056 78.1655 112.096 77.7258 112.095 77.2361Z" fill="black"/>
<path d="M110.437 80.5735C110.407 80.5139 110.413 80.442 110.455 80.3915C110.777 80.0367 110.967 79.7212 111.129 79.4461C111.268 79.1621 111.364 78.9179 111.407 78.6944C111.486 78.2473 111.437 77.9226 111.358 77.8716C111.302 77.834 110.921 77.8919 110.583 78.2734C110.229 78.6359 109.918 79.3489 110.086 80.3018C110.099 80.3686 110.079 80.4388 110.027 80.4824C109.647 80.8062 109.315 81.2094 110.131 81.0186C110.824 81.4287 110.662 81.0083 110.437 80.5735Z" fill="black"/>
<path d="M110.39 84.2987C110.338 84.2577 110.307 84.1915 110.33 84.127C110.398 83.8998 110.444 83.6966 110.47 83.5109C110.5 83.3246 110.533 83.1526 110.537 82.9959C110.538 82.6824 110.535 82.4167 110.47 82.1952C110.354 81.7535 110.158 81.4804 110.066 81.4695C109.997 81.4604 109.688 81.6733 109.541 82.1545C109.388 82.623 109.379 83.4011 109.956 84.1995C109.992 84.2557 110.009 84.3271 109.98 84.389C109.778 84.8449 109.67 85.3573 110.311 84.8286C111.119 84.8908 110.782 84.5942 110.39 84.2987Z" fill="black"/>
<path d="M112.176 87.538C112.111 87.5299 112.056 87.4832 112.036 87.421C111.766 86.5395 111.47 86.0534 111.165 85.7095C110.846 85.3848 110.548 85.2289 110.463 85.259C110.395 85.2822 110.215 85.6124 110.329 86.1099C110.412 86.6043 110.834 87.2984 111.759 87.6767C111.823 87.7022 111.87 87.7603 111.878 87.8288C111.948 88.3309 112.169 88.7978 112.403 88.0217C113.124 87.6331 112.657 87.5907 112.176 87.538Z" fill="black"/>
<path d="M115.477 89.3062C115.416 89.3346 115.342 89.3311 115.292 89.2858C114.575 88.6783 114.059 88.4129 113.603 88.3077C113.165 88.1939 112.816 88.2401 112.763 88.3094C112.718 88.3659 112.765 88.7233 113.13 89.0924C113.489 89.4452 114.211 89.8083 115.196 89.6464C115.264 89.6375 115.336 89.6544 115.38 89.7068C115.71 90.0814 116.128 90.4087 115.929 89.6077C116.343 88.9302 115.921 89.0881 115.477 89.3062Z" fill="black"/>
<path d="M93.8787 74.4863C94.0654 73.5059 93.096 72.4519 92.0213 72.929C91.9871 72.9388 91.9432 72.9795 91.9853 73.0119C92.8089 73.5028 93.1727 74.6422 92.8089 75.5951C92.8025 75.6215 92.8116 75.6338 92.8256 75.6396C92.8315 75.6539 92.8426 75.6636 92.8645 75.6568C93.7268 75.2547 94.7582 75.6553 95.2025 76.5661C95.2344 76.6139 95.2672 76.5629 95.2777 76.5263C95.7056 75.3404 94.7646 74.2803 93.8787 74.4863Z" fill="black"/>
<path d="M98.0545 68.9146C98.2412 67.9342 97.2718 66.8801 96.1971 67.3573C96.1628 67.3667 96.1189 67.4077 96.1611 67.4401C96.9847 67.931 97.3485 69.0705 96.9847 70.0234C96.9783 70.0497 96.9873 70.062 97.0014 70.0678C97.0072 70.0821 97.0184 70.0919 97.0403 70.085C97.9026 69.6829 98.934 70.0835 99.3783 70.9943C99.4102 71.0422 99.4429 70.9912 99.4535 70.9545C99.8814 69.7686 98.9404 68.7085 98.0545 68.9146Z" fill="black"/>
<path d="M106.229 67.6758C106.416 66.6954 105.446 65.6413 104.371 66.1185C104.337 66.1279 104.293 66.1689 104.335 66.2013C105.159 66.6922 105.523 67.8317 105.159 68.7846C105.153 68.811 105.162 68.8233 105.176 68.829C105.182 68.8433 105.193 68.8531 105.215 68.8462C106.077 68.4441 107.108 68.8448 107.553 69.7555C107.584 69.8034 107.617 69.7524 107.628 69.7157C108.056 68.5298 107.115 67.4697 106.229 67.6758Z" fill="black"/>
<path d="M90.0203 78.9014C90.207 77.921 89.2376 76.8669 88.1629 77.3441C88.1287 77.3538 88.0848 77.3945 88.1269 77.4269C88.9505 77.9178 89.3143 79.0573 88.9505 80.0102C88.9441 80.0365 88.9532 80.0489 88.9672 80.0546C88.9731 80.0692 88.9842 80.0787 89.0061 80.0718C89.8684 79.6697 90.8998 80.0704 91.3441 80.9811C91.376 81.029 91.4088 80.978 91.4193 80.9413C91.8472 79.7554 90.9062 78.6953 90.0203 78.9014Z" fill="black"/>
<path d="M85.9107 86.1416C86.0974 85.1612 85.128 84.1071 84.0533 84.5843C84.019 84.5938 83.9751 84.6347 84.0173 84.6671C84.8409 85.1581 85.2047 86.2975 84.8409 87.2504C84.8345 87.2768 84.8435 87.2891 84.8576 87.2948C84.8634 87.3094 84.8746 87.3189 84.8965 87.312C85.7588 86.9099 86.7902 87.3106 87.2345 88.2214C87.2664 88.2692 87.2991 88.2182 87.3097 88.1815C87.7376 86.9956 86.7966 85.9356 85.9107 86.1416Z" fill="black"/>
<path d="M99.1448 95.0825C99.3315 94.1021 98.3622 93.0481 97.2874 93.5252C97.2532 93.535 97.2093 93.5757 97.2514 93.608C98.075 94.099 98.4388 95.2384 98.075 96.1913C98.0686 96.2177 98.0777 96.23 98.0917 96.2357C98.0976 96.2504 98.1087 96.2598 98.1306 96.2529C98.9929 95.8509 100.024 96.2515 100.469 97.1623C100.5 97.2101 100.533 97.1591 100.544 97.1224C100.972 95.9366 100.031 94.8765 99.1448 95.0825Z" fill="black"/>
<path d="M97.2949 74.4863C97.4817 73.5059 96.5123 72.4519 95.4376 72.929C95.4033 72.9388 95.3594 72.9795 95.4016 73.0119C96.2252 73.5028 96.589 74.6422 96.2252 75.5951C96.2187 75.6215 96.2278 75.6338 96.2419 75.6396C96.2477 75.6539 96.2588 75.6636 96.2808 75.6568C97.143 75.2547 98.1744 75.6553 98.6187 76.5661C98.6506 76.6139 98.6834 76.5629 98.694 76.5263C99.1219 75.3404 98.1809 74.2803 97.2949 74.4863Z" fill="black"/>
<path d="M100.711 74.4863C100.898 73.5059 99.9285 72.4519 98.8535 72.929C98.8192 72.9388 98.7756 72.9795 98.8175 73.0119C99.6414 73.5028 100.005 74.6422 99.6411 75.5951C99.6349 75.6215 99.644 75.6338 99.658 75.6396C99.6639 75.6539 99.675 75.6636 99.6967 75.6568C100.559 75.2547 101.591 75.6553 102.035 76.5661C102.067 76.6139 102.1 76.5629 102.11 76.5263C102.538 75.3404 101.597 74.2803 100.711 74.4863Z" fill="black"/>
<path d="M104.127 74.4863C104.314 73.5059 103.345 72.4519 102.27 72.929C102.235 72.9388 102.192 72.9795 102.234 73.0119C103.058 73.5028 103.421 74.6422 103.057 75.5951C103.051 75.6215 103.06 75.6338 103.074 75.6396C103.08 75.6539 103.091 75.6636 103.113 75.6568C103.975 75.2547 105.007 75.6553 105.451 76.5661C105.483 76.6139 105.516 76.5629 105.526 76.5263C105.954 75.3404 105.013 74.2803 104.127 74.4863Z" fill="black"/>
<path d="M93.8106 89.8638C94.0047 88.8834 92.9969 87.8293 91.8801 88.3065C91.8444 88.3162 91.799 88.3569 91.8426 88.3893C92.6984 88.8802 93.0766 90.0197 92.6984 90.9726C92.692 90.9989 92.7013 91.0113 92.7163 91.017C92.7221 91.0316 92.7338 91.0411 92.7561 91.0342C93.6526 90.6321 94.7244 91.0328 95.1862 91.9435C95.2193 91.9914 95.2532 91.9404 95.2644 91.9037C95.7089 90.7178 94.7314 89.6577 93.8106 89.8638Z" fill="black"/>
<path d="M97.3609 89.8638C97.5549 88.8834 96.5475 87.8293 95.4304 88.3065C95.3947 88.3162 95.3493 88.3569 95.3929 88.3893C96.249 88.8802 96.6271 90.0197 96.249 90.9726C96.2423 90.9989 96.2519 91.0113 96.2666 91.017C96.2727 91.0316 96.2841 91.0411 96.3067 91.0342C97.2028 90.6321 98.2747 91.0328 98.7365 91.9435C98.7699 91.9914 98.8038 91.9404 98.8147 91.9037C99.2595 90.7178 98.2817 89.6577 97.3609 89.8638Z" fill="black"/>
<path d="M100.911 89.8638C101.106 88.8834 100.098 87.8293 98.981 88.3065C98.9453 88.3162 98.8999 88.3569 98.9432 88.3893C99.7993 88.8802 100.177 90.0197 99.7993 90.9726C99.7926 90.9989 99.8023 91.0113 99.8169 91.017C99.8231 91.0316 99.8348 91.0411 99.857 91.0342C100.753 90.6321 101.825 91.0328 102.287 91.9435C102.32 91.9914 102.354 91.9404 102.365 91.9037C102.81 90.7178 101.832 89.6577 100.911 89.8638Z" fill="black"/>
<path d="M104.462 89.8638C104.656 88.8834 103.648 87.8293 102.531 88.3065C102.495 88.3162 102.45 88.3569 102.494 88.3893C103.35 88.8802 103.728 90.0197 103.35 90.9726C103.343 90.9989 103.353 91.0113 103.367 91.017C103.374 91.0316 103.385 91.0411 103.407 91.0342C104.304 90.6321 105.376 91.0328 105.837 91.9435C105.871 91.9914 105.905 91.9404 105.915 91.9037C106.36 90.7178 105.383 89.6577 104.462 89.8638Z" fill="black"/>
<path d="M94.9931 86.1565C95.2339 85.2366 94.2579 84.2794 93.1018 84.7543C93.0652 84.7643 93.0172 84.8035 93.0602 84.8328C93.9075 85.2681 94.2406 86.3213 93.8139 87.2209C93.8059 87.2455 93.815 87.257 93.8297 87.2619C93.8352 87.2751 93.8466 87.2839 93.8698 87.2768C94.7981 86.8778 95.8691 87.2232 96.2973 88.0609C96.3289 88.1047 96.3658 88.0563 96.3783 88.0216C96.8832 86.9031 95.9376 85.9399 94.9931 86.1565Z" fill="black"/>
<path d="M97.0735 84.2044C97.3143 83.2842 96.3382 82.3273 95.1821 82.8021C95.1459 82.8122 95.0979 82.8514 95.1406 82.8807C95.9882 83.316 96.3213 84.3692 95.8945 85.2688C95.8866 85.2934 95.8957 85.3049 95.9103 85.3097C95.9156 85.3229 95.927 85.3318 95.9501 85.3247C96.8785 84.9257 97.9495 85.2711 98.3777 86.1087C98.4093 86.1526 98.4461 86.1042 98.459 86.0695C98.9639 84.9509 98.0182 83.9877 97.0735 84.2044Z" fill="black"/>
<path d="M99.1542 82.2517C99.395 81.3318 98.4189 80.3746 97.2628 80.8495C97.2265 80.8595 97.1783 80.8988 97.2213 80.928C98.0689 81.3633 98.402 82.4165 97.9749 83.3161C97.9673 83.3408 97.9764 83.3522 97.991 83.3568C97.9963 83.3703 98.0077 83.3792 98.0308 83.372C98.9592 82.9731 100.03 83.3187 100.458 84.1561C100.49 84.1999 100.527 84.1515 100.539 84.1168C101.045 82.9983 100.099 82.0351 99.1542 82.2517Z" fill="black"/>
<path d="M101.235 80.2996C101.476 79.3794 100.5 78.4225 99.3434 78.8973C99.3071 78.9074 99.2588 78.9466 99.3018 78.9759C100.149 79.4112 100.482 80.4644 100.056 81.364C100.048 81.3886 100.057 81.4001 100.072 81.405C100.077 81.4181 100.088 81.427 100.111 81.4199C101.04 81.0209 102.111 81.3663 102.539 82.204C102.57 82.2478 102.607 82.1994 102.62 82.1647C103.125 81.0462 102.179 80.0829 101.235 80.2996Z" fill="black"/>
<path d="M103.315 78.3473C103.556 77.4274 102.58 76.4705 101.424 76.9451C101.387 76.9551 101.339 76.9944 101.382 77.0236C102.23 77.4592 102.563 78.5121 102.136 79.4117C102.128 79.4364 102.137 79.4478 102.152 79.4527C102.157 79.4659 102.169 79.4748 102.192 79.4676C103.12 79.0687 104.191 79.4143 104.62 80.2517C104.651 80.2955 104.688 80.2471 104.701 80.2124C105.205 79.0939 104.26 78.1307 103.315 78.3473Z" fill="black"/>
<path d="M85.9373 94.8481H92.808C95.9309 94.8481 98.0649 96.9124 98.0649 99.5117C98.0649 101.194 97.154 102.621 95.8267 103.283V103.436C97.3882 104.226 98.4035 105.934 98.4035 107.743C98.4035 110.546 95.983 112.687 92.7559 112.687H85.9373V94.8481ZM92.5996 102.442C94.2392 102.442 95.4366 101.321 95.4366 99.7662C95.4366 98.2121 94.2392 97.1162 92.5996 97.1162H88.5135V102.442H92.5996ZM92.8337 110.418C94.4215 110.418 95.7749 109.119 95.7749 107.565C95.7749 106.01 94.4215 104.685 92.8337 104.685H88.5135V110.418H92.8337Z" fill="black"/>
<path d="M102.228 94.8481H109.098C112.221 94.8481 114.486 97.0652 114.486 100.021C114.486 102.391 113.054 104.175 110.712 104.863L115.137 112.687H112.248L108.109 105.322H104.804V112.687H102.228V94.8481ZM108.838 103.054C110.53 103.054 111.857 101.728 111.857 100.072C111.857 98.4414 110.53 97.1162 108.838 97.1162H104.804V103.054H108.838Z" fill="black"/>
<path d="M118.804 94.8481H121.433L130.594 108.303H130.75V94.8481H133.249V112.687H130.62L121.433 99.2312H121.277V112.687H118.804V94.8481Z" fill="black"/>
<path d="M137.384 103.767C137.384 98.4159 141.288 94.5679 146.675 94.5679C152.063 94.5679 155.967 98.4159 155.967 103.767C155.967 109.119 152.063 112.967 146.675 112.967C141.288 112.967 137.384 109.119 137.384 103.767ZM146.675 110.648C150.579 110.648 153.338 107.819 153.338 103.767C153.338 99.7152 150.579 96.8866 146.675 96.8866C142.745 96.8866 140.013 99.7152 140.013 103.767C140.013 107.819 142.745 110.648 146.675 110.648Z" fill="black"/>
<path d="M120.667 80.9514C120.723 80.9906 120.756 81.0588 120.738 81.127C120.539 82.0593 120.469 82.6362 120.519 83.1031C120.54 83.3318 120.584 83.5232 120.628 83.6645C120.678 83.8075 120.733 83.8986 120.771 83.9127C120.809 83.9267 120.911 83.8952 121.035 83.7949C121.166 83.6966 121.316 83.5266 121.433 83.2727C121.549 83.0205 121.623 82.6841 121.597 82.2929C121.556 81.9051 121.434 81.4509 121.107 81.0365C121.067 80.9772 121.047 80.9012 121.07 80.833C121.159 80.5834 121.192 80.3091 121.138 80.181C121.085 80.0489 120.961 80.0862 120.68 80.394C120.27 80.4017 120.17 80.4948 120.214 80.5877C120.263 80.6828 120.466 80.8038 120.667 80.9514Z" fill="black"/>
<path d="M114.405 79.8309C114.399 79.7613 114.443 79.7011 114.506 79.6722C114.946 79.4661 115.281 79.3274 115.567 79.2067C115.848 79.0818 116.074 78.9626 116.268 78.8419C116.46 78.7221 116.616 78.6015 116.727 78.5003C116.836 78.3923 116.897 78.3086 116.893 78.2682C116.89 78.2292 116.817 78.1492 116.67 78.0845C116.523 78.0128 116.299 77.9526 116.009 77.967C115.722 77.981 115.365 78.0756 115.022 78.314C114.676 78.5424 114.359 78.9371 114.21 79.4374C114.188 79.5074 114.13 79.563 114.064 79.5896C113.94 79.6352 113.813 79.6905 113.707 79.751C113.61 79.8149 113.532 79.8825 113.496 79.9421C113.424 80.0659 113.531 80.1379 113.95 80.1625C114.211 80.474 114.348 80.4926 114.394 80.4015C114.418 80.3537 114.422 80.2731 114.416 80.1708C114.417 80.0737 114.412 79.9556 114.405 79.8309Z" fill="black"/>
<path d="M116.618 86.0053C116.558 86.0362 116.48 86.0385 116.427 85.9921C116.035 85.7078 115.761 85.4631 115.517 85.2776C115.27 85.0965 115.067 84.9446 114.864 84.8389C114.48 84.6122 114.139 84.5061 114.061 84.552C114.001 84.5847 113.9 84.9578 114.186 85.4628C114.337 85.7012 114.579 85.9789 114.958 86.1623C115.328 86.3495 115.822 86.4598 116.347 86.3566C116.419 86.3486 116.498 86.3606 116.551 86.4116C116.744 86.6002 116.982 86.7449 117.123 86.7538C117.267 86.7641 117.286 86.6389 117.125 86.258C117.295 85.8926 117.253 85.7643 117.148 85.7628C117.039 85.7625 116.839 85.8929 116.618 86.0053Z" fill="black"/>
<path d="M120.489 92.3246C120.451 92.3827 120.379 92.4017 120.311 92.3899C119.355 92.2266 118.723 92.2928 118.268 92.4787C117.818 92.6252 117.569 92.8854 117.571 92.9671C117.573 93.0445 117.839 93.2815 118.352 93.3861C118.854 93.4546 119.633 93.3769 120.413 92.749C120.467 92.7054 120.544 92.6994 120.609 92.7192C121.089 92.8745 121.614 92.949 121.043 92.3535C121.077 91.5516 120.773 91.909 120.489 92.3246Z" fill="black"/>
<path d="M127.534 83.8765C127.568 83.9344 127.566 84.0075 127.529 84.0642C127.283 84.4686 127.078 84.8085 126.975 85.1206C126.881 85.4347 126.812 85.7009 126.803 85.9365C126.793 86.1709 126.827 86.3701 126.873 86.5154C126.908 86.6564 126.96 86.7452 126.999 86.7604C127.036 86.775 127.139 86.7478 127.273 86.665C127.397 86.5781 127.547 86.4328 127.688 86.2188C127.827 86.005 127.971 85.725 128.008 85.3656C128.053 85.0094 128.066 84.5898 127.906 84.1167C127.885 84.0502 127.902 83.9774 127.951 83.9281C128.129 83.7481 128.299 83.5481 128.314 83.4263C128.324 83.3036 128.196 83.2681 127.809 83.3948C127.436 83.2079 127.305 83.2305 127.305 83.3429C127.3 83.4555 127.406 83.6639 127.534 83.8765Z" fill="black"/>
<path d="M123.44 73.6027C123.508 73.601 123.571 73.6391 123.603 73.6984C123.715 73.9125 123.841 74.079 123.944 74.2493C124.049 74.4184 124.156 74.5611 124.265 74.6829C124.494 74.9164 124.688 75.1119 124.891 75.2371C125.3 75.4824 125.64 75.5484 125.708 75.4991C125.771 75.4544 125.837 75.089 125.592 74.6384C125.473 74.4126 125.302 74.1438 124.999 73.9309C124.853 73.82 124.685 73.7125 124.496 73.6148C124.307 73.5159 124.073 73.4569 123.831 73.3995C123.762 73.3846 123.705 73.3342 123.685 73.2677C123.646 73.1462 123.603 73.0241 123.555 72.9244C123.502 72.8312 123.447 72.7582 123.394 72.7243C123.286 72.6561 123.196 72.7513 123.13 73.1479C122.79 73.3832 122.751 73.5082 122.85 73.5609C122.9 73.5878 122.987 73.5976 123.094 73.5981C123.196 73.6053 123.316 73.6062 123.44 73.6027Z" fill="black"/>
<path d="M115.946 71.8082C115.996 71.7618 116.068 71.7386 116.133 71.7667C116.594 71.9524 116.977 72.0206 117.311 72.0576C117.645 72.106 117.928 72.0854 118.166 72.0321C118.636 71.9409 118.924 71.7498 118.937 71.6624C118.948 71.5924 118.728 71.2904 118.238 71.1239C117.993 71.0488 117.683 71.0006 117.319 71.0175C116.955 71.0459 116.536 71.178 116.099 71.3956C116.037 71.4242 115.962 71.434 115.902 71.399C115.459 71.1563 114.958 70.9843 115.406 71.6755C115.22 72.4553 115.589 72.1622 115.946 71.8082Z" fill="black"/>
<path d="M107.385 78.7481C107.361 78.6859 107.378 78.6146 107.425 78.5653C107.593 78.3905 107.728 78.2237 107.841 78.0643C107.97 77.9116 108.074 77.7643 108.156 77.6221C108.238 77.48 108.299 77.3424 108.345 77.2109C108.403 77.0859 108.444 76.9659 108.472 76.8521C108.58 76.3978 108.498 76.0476 108.435 76.0069C108.362 75.9602 108.016 76.0431 107.656 76.4153C107.565 76.5076 107.474 76.6171 107.386 76.7446C107.312 76.8784 107.243 77.0309 107.184 77.2017C107.126 77.3725 107.078 77.562 107.046 77.7677C107.031 77.9795 107.036 78.2091 107.063 78.4521C107.07 78.5206 107.04 78.5894 106.982 78.6298C106.549 78.9264 106.242 79.3219 107.045 79.1817C107.727 79.6595 107.546 79.1981 107.385 78.7481Z" fill="black"/>
<path d="M109.599 89.644C109.533 89.632 109.479 89.5816 109.46 89.5171C109.396 89.2849 109.311 89.0944 109.243 88.9087C109.177 88.7218 109.102 88.5602 109.021 88.4183C108.847 88.142 108.692 87.9145 108.522 87.7494C108.174 87.4256 107.845 87.2998 107.772 87.3327C107.698 87.3668 107.568 87.7076 107.712 88.1976C107.779 88.4435 107.895 88.7367 108.145 89.0067C108.264 89.1448 108.405 89.2838 108.569 89.4176C108.735 89.5503 108.95 89.6581 109.174 89.763C109.238 89.7916 109.283 89.8524 109.289 89.9217C109.305 90.1805 109.367 90.4267 109.459 90.5121C109.55 90.6009 109.658 90.5261 109.806 90.1513C110.189 89.9905 110.253 89.8762 110.168 89.8045C110.079 89.7343 109.837 89.6945 109.599 89.644Z" fill="black"/>
<path d="M126.251 88.7066C126.253 88.7731 126.215 88.8347 126.155 88.8651C125.745 89.0938 125.394 89.2809 125.153 89.5005C125.029 89.6068 124.93 89.7197 124.841 89.8249C124.746 89.924 124.669 90.0241 124.606 90.1215C124.357 90.5113 124.33 90.8689 124.382 90.9325C124.431 90.9927 124.782 91.0191 125.238 90.7898C125.352 90.7328 125.472 90.66 125.594 90.5691C125.71 90.4726 125.819 90.3499 125.929 90.2106C126.14 89.926 126.364 89.5787 126.456 89.0935C126.47 89.0267 126.521 88.9726 126.587 88.9539C127.076 88.817 127.549 88.5954 126.727 88.4281C126.281 87.7669 126.238 88.2214 126.251 88.7066Z" fill="black"/>
<path d="M125.983 73.6995C126.049 73.7158 126.093 73.7728 126.104 73.8387C126.172 74.3142 126.318 74.6558 126.44 74.9573C126.563 75.2565 126.722 75.4792 126.888 75.6482C127.195 75.9947 127.51 76.1372 127.592 76.1048C127.661 76.0784 127.817 75.7474 127.726 75.253C127.67 75.0123 127.556 74.7295 127.358 74.4351C127.163 74.1402 126.822 73.8691 126.412 73.6192C126.353 73.5851 126.319 73.5192 126.319 73.4516C126.303 72.9641 126.197 72.466 125.821 73.1899C125.042 73.4415 125.489 73.5906 125.983 73.6995Z" fill="black"/>
<path d="M110.514 71.9325C110.536 71.8712 110.595 71.8285 110.663 71.8216C111.143 71.772 111.506 71.6637 111.826 71.5705C112.138 71.4682 112.368 71.3092 112.558 71.1727C112.937 70.9079 113.094 70.5898 113.069 70.5119C113.044 70.4385 112.724 70.2852 112.21 70.3276C111.955 70.3525 111.667 70.4626 111.355 70.638C111.039 70.8025 110.734 71.1065 110.461 71.5058C110.422 71.5619 110.355 71.594 110.284 71.5874C109.767 71.5387 109.275 71.6413 109.977 72.0451C110.189 72.8367 110.348 72.3775 110.514 71.9325Z" fill="black"/>
<path d="M105.945 85.2834C105.893 85.2412 105.869 85.1727 105.884 85.1085C105.973 84.6552 106.054 84.2683 106.036 83.9439C106.022 83.6197 105.955 83.3512 105.89 83.1291C105.741 82.6892 105.476 82.4476 105.393 82.4487C105.314 82.4499 105.071 82.7035 104.962 83.1904C104.898 83.4337 104.899 83.7329 104.982 84.0737C105.069 84.4133 105.195 84.8013 105.512 85.1845C105.554 85.2389 105.564 85.3114 105.535 85.3731C105.324 85.8253 105.189 86.3196 105.853 85.8184C106.657 85.9179 106.331 85.5891 105.945 85.2834Z" fill="black"/>
<path d="M116.585 94.4141C116.53 94.4528 116.457 94.4562 116.397 94.4252C115.972 94.2192 115.612 94.059 115.291 93.9796C114.97 93.9017 114.688 93.9034 114.455 93.9014C113.986 93.92 113.673 94.1014 113.651 94.1802C113.629 94.2544 113.809 94.5531 114.26 94.7924C114.483 94.9228 114.782 94.9918 115.14 95.009C115.497 95.0276 115.916 94.9933 116.375 94.7972C116.44 94.7717 116.514 94.7818 116.567 94.8253C116.958 95.1443 117.41 95.4034 117.089 94.6428C117.397 93.9105 116.987 94.1309 116.585 94.4141Z" fill="black"/>
</g>
</svg>
