<svg width="260" height="366" viewBox="0 0 260 366" fill="none" xmlns="http://www.w3.org/2000/svg">
<rect width="260" height="366" fill="#F9F0E4"/>
<g opacity="0.25">
<path d="M145.443 180.432L145.391 180.452C145.391 180.443 145.392 180.435 145.393 180.425C145.388 180.303 145.326 180.182 145.248 180.192C145.17 180.202 145.117 180.337 145.131 180.457C145.137 180.513 145.156 180.555 145.18 180.585C145.03 180.526 144.825 180.527 144.598 180.556C144.386 180.603 144.156 180.686 143.982 180.801C143.81 180.922 143.705 181.043 143.653 181.159C143.63 181.205 143.588 181.243 143.539 181.259C143.405 181.297 143.274 181.383 143.177 181.515C143.04 181.691 143.043 181.931 143.145 182.101C143.346 182.423 143.767 182.442 144.03 182.232C144.095 182.177 144.144 182.109 144.176 182.033C144.194 181.987 144.236 181.959 144.285 181.958C144.403 181.953 144.529 181.91 144.668 181.811C144.807 181.719 144.946 181.606 145.065 181.469C145.188 181.353 145.291 181.205 145.356 181.076C145.358 181.113 145.371 181.157 145.4 181.206C145.462 181.312 145.559 181.404 145.603 181.378C145.648 181.353 145.635 181.217 145.582 181.109C145.577 181.101 145.574 181.095 145.569 181.088C145.584 181.085 145.599 181.083 145.614 181.079C145.803 181.027 145.948 180.869 145.93 180.68C145.914 180.502 145.689 180.366 145.443 180.432Z" fill="black"/>
<path d="M141.038 185.121L141.008 185.167C141.003 185.159 140.999 185.153 140.993 185.145C140.914 185.05 140.79 184.991 140.734 185.045C140.678 185.099 140.719 185.238 140.804 185.325C140.844 185.366 140.885 185.388 140.922 185.398C140.767 185.44 140.603 185.562 140.441 185.72C140.301 185.883 140.169 186.086 140.101 186.281C140.038 186.479 140.029 186.637 140.058 186.76C140.069 186.81 140.059 186.866 140.029 186.907C139.946 187.017 139.895 187.163 139.899 187.326C139.898 187.547 140.048 187.737 140.234 187.812C140.593 187.95 140.94 187.715 141.02 187.393C141.038 187.309 141.034 187.226 141.014 187.147C141 187.1 141.017 187.053 141.055 187.023C141.145 186.949 141.219 186.84 141.269 186.678C141.324 186.523 141.365 186.35 141.375 186.171C141.401 186.006 141.393 185.827 141.365 185.686C141.389 185.714 141.427 185.741 141.48 185.763C141.595 185.811 141.728 185.826 141.748 185.779C141.768 185.732 141.674 185.632 141.566 185.577C141.557 185.574 141.551 185.571 141.542 185.568C141.552 185.557 141.563 185.547 141.572 185.535C141.691 185.381 141.709 185.17 141.578 185.03C141.456 184.897 141.193 184.922 141.038 185.121Z" fill="black"/>
<path d="M139.097 185.351L139.058 185.39C139.054 185.382 139.052 185.375 139.048 185.366C138.991 185.257 138.881 185.174 138.815 185.216C138.749 185.257 138.76 185.402 138.825 185.504C138.855 185.552 138.891 185.582 138.926 185.599C138.765 185.609 138.579 185.696 138.387 185.818C138.217 185.95 138.045 186.122 137.937 186.298C137.835 186.48 137.794 186.633 137.796 186.76C137.796 186.811 137.775 186.863 137.738 186.898C137.633 186.989 137.553 187.122 137.523 187.281C137.476 187.498 137.583 187.714 137.75 187.824C138.072 188.031 138.461 187.871 138.606 187.571C138.641 187.493 138.655 187.411 138.651 187.33C138.648 187.281 138.674 187.238 138.717 187.216C138.821 187.162 138.917 187.07 138.999 186.922C139.085 186.781 139.161 186.62 139.207 186.446C139.268 186.29 139.298 186.113 139.3 185.969C139.317 186.002 139.348 186.035 139.395 186.068C139.498 186.137 139.625 186.179 139.655 186.138C139.684 186.096 139.613 185.979 139.518 185.903C139.51 185.898 139.505 185.894 139.497 185.89C139.509 185.881 139.522 185.873 139.533 185.863C139.682 185.736 139.744 185.533 139.645 185.37C139.552 185.215 139.29 185.188 139.097 185.351Z" fill="black"/>
<path d="M149.14 180.893L149.091 180.892C149.095 180.884 149.098 180.877 149.102 180.868C149.138 180.752 149.128 180.617 149.071 180.6C149.01 180.584 148.936 180.684 148.893 180.798C148.875 180.852 148.87 180.897 148.876 180.934C148.697 180.711 148.348 180.467 147.98 180.36C147.8 180.306 147.636 180.302 147.517 180.334C147.468 180.346 147.408 180.338 147.366 180.306C147.254 180.22 147.1 180.166 146.922 180.177C146.686 180.183 146.479 180.346 146.427 180.532C146.337 180.895 146.576 181.213 146.881 181.275C146.96 181.289 147.044 181.292 147.122 181.271C147.169 181.261 147.216 181.274 147.249 181.311C147.332 181.4 147.442 181.467 147.63 181.523C147.986 181.629 148.522 181.628 148.798 181.45C148.78 181.482 148.769 181.527 148.773 181.584C148.781 181.705 148.86 181.836 148.927 181.828C148.997 181.823 149.038 181.693 149.025 181.572C149.023 181.563 149.021 181.557 149.019 181.548L149.071 181.557C149.306 181.583 149.505 181.442 149.514 181.256C149.521 181.074 149.355 180.917 149.14 180.893Z" fill="black"/>
<path d="M152.435 180.238L152.397 180.267C152.395 180.258 152.393 180.251 152.391 180.242C152.347 180.127 152.257 180.029 152.201 180.045C152.146 180.062 152.143 180.194 152.181 180.309C152.199 180.363 152.224 180.402 152.251 180.428C151.96 180.36 151.538 180.394 151.226 180.48C151.069 180.533 150.953 180.584 150.875 180.67C150.844 180.705 150.796 180.717 150.752 180.701C150.633 180.659 150.508 180.667 150.374 180.71C150.196 180.778 150.047 180.94 150.003 181.133C149.915 181.498 150.228 181.823 150.646 181.78C150.748 181.765 150.842 181.731 150.921 181.682C150.967 181.654 151.026 181.648 151.078 181.662C151.203 181.696 151.373 181.71 151.579 181.643C151.996 181.527 152.411 181.18 152.508 180.883C152.515 180.92 152.535 180.962 152.573 181.005C152.655 181.096 152.788 181.153 152.844 181.109C152.901 181.064 152.851 180.933 152.766 180.847C152.759 180.841 152.753 180.836 152.746 180.831L152.793 180.806C152.998 180.682 153.067 180.451 152.955 180.3C152.846 180.153 152.615 180.129 152.435 180.238Z" fill="black"/>
<path d="M152.829 177.499L152.804 177.539C152.798 177.531 152.794 177.526 152.788 177.517C152.707 177.424 152.588 177.363 152.541 177.397C152.495 177.431 152.539 177.556 152.615 177.652C152.651 177.696 152.688 177.724 152.723 177.739C152.426 177.774 152.042 177.949 151.779 178.136C151.65 178.239 151.56 178.326 151.518 178.433C151.5 178.476 151.46 178.504 151.412 178.504C151.286 178.505 151.171 178.555 151.061 178.641C150.917 178.765 150.836 178.967 150.863 179.164C150.908 179.535 151.316 179.735 151.693 179.552C151.784 179.504 151.86 179.439 151.917 179.367C151.95 179.326 152.004 179.3 152.057 179.295C152.187 179.285 152.35 179.24 152.521 179.107C152.871 178.858 153.138 178.391 153.125 178.08C153.144 178.112 153.177 178.145 153.228 178.172C153.337 178.23 153.483 178.238 153.52 178.177C153.557 178.116 153.464 178.011 153.354 177.958C153.345 177.955 153.338 177.953 153.33 177.95L153.365 177.911C153.513 177.724 153.496 177.485 153.338 177.381C153.184 177.279 152.959 177.336 152.829 177.499Z" fill="black"/>
<path d="M154.955 177.874L154.931 177.914C154.925 177.908 154.921 177.902 154.915 177.894C154.828 177.809 154.701 177.754 154.657 177.793C154.614 177.832 154.667 177.954 154.751 178.044C154.79 178.085 154.83 178.11 154.865 178.122C154.572 178.182 154.193 178.398 153.952 178.643C153.82 178.77 153.75 178.892 153.721 179.007C153.709 179.053 153.674 179.091 153.628 179.105C153.502 179.142 153.39 179.223 153.306 179.341C153.194 179.507 153.176 179.726 153.263 179.906C153.423 180.246 153.869 180.312 154.163 180.053C154.234 179.988 154.287 179.911 154.321 179.831C154.341 179.783 154.385 179.748 154.436 179.737C154.558 179.708 154.689 179.633 154.831 179.496C155.117 179.208 155.333 178.739 155.294 178.429C155.316 178.46 155.352 178.49 155.405 178.513C155.518 178.562 155.663 178.56 155.693 178.497C155.724 178.434 155.628 178.338 155.512 178.292C155.502 178.29 155.495 178.288 155.487 178.286L155.521 178.246C155.649 178.047 155.619 177.811 155.455 177.719C155.292 177.628 155.068 177.697 154.955 177.874Z" fill="black"/>
<path d="M141.786 181.813L141.772 181.858C141.765 181.852 141.759 181.848 141.751 181.842C141.646 181.779 141.51 181.755 141.477 181.803C141.444 181.851 141.525 181.957 141.628 182.025C141.677 182.056 141.721 182.072 141.758 182.075C141.488 182.201 141.171 182.499 140.996 182.792C140.899 182.947 140.86 183.082 140.86 183.2C140.859 183.247 140.835 183.292 140.793 183.317C140.68 183.382 140.59 183.487 140.537 183.621C140.468 183.807 140.504 184.025 140.632 184.179C140.869 184.473 141.318 184.433 141.542 184.113C141.595 184.034 141.628 183.947 141.642 183.861C141.65 183.81 141.684 183.766 141.73 183.743C141.843 183.687 141.952 183.584 142.056 183.417C142.265 183.072 142.361 182.566 142.249 182.273C142.278 182.298 142.32 182.319 142.377 182.329C142.499 182.351 142.638 182.315 142.653 182.247C142.668 182.179 142.551 182.107 142.427 182.09C142.418 182.09 142.411 182.089 142.401 182.089L142.425 182.043C142.501 181.82 142.415 181.597 142.235 181.546C142.054 181.496 141.853 181.615 141.786 181.813Z" fill="black"/>
<path d="M156.027 174.678L156.029 174.725C156.02 174.722 156.013 174.719 156.004 174.716C155.883 174.685 155.748 174.701 155.732 174.758C155.714 174.813 155.823 174.892 155.942 174.927C155.997 174.943 156.044 174.945 156.081 174.937C155.861 175.136 155.649 175.518 155.568 175.843C155.524 176.008 155.529 176.141 155.557 176.25C155.569 176.295 155.558 176.343 155.525 176.376C155.439 176.464 155.367 176.574 155.353 176.715C155.331 176.905 155.406 177.107 155.566 177.236C155.852 177.476 156.298 177.354 156.442 176.976C156.48 176.884 156.494 176.789 156.484 176.698C156.479 176.645 156.501 176.592 156.54 176.557C156.639 176.471 156.716 176.334 156.769 176.135C156.868 175.741 156.805 175.232 156.61 174.986C156.644 175.001 156.69 175.009 156.748 175.002C156.871 174.988 156.995 174.915 156.989 174.845C156.982 174.776 156.846 174.741 156.725 174.76C156.715 174.763 156.709 174.764 156.7 174.767L156.707 174.716C156.72 174.482 156.569 174.294 156.378 174.295C156.193 174.297 156.039 174.468 156.027 174.678Z" fill="black"/>
<path d="M158.294 164.349L158.253 164.376C158.252 164.367 158.25 164.36 158.249 164.35C158.212 164.233 158.128 164.128 158.07 164.144C158.013 164.158 158.001 164.291 158.032 164.408C158.047 164.463 158.07 164.503 158.096 164.529C157.808 164.449 157.366 164.471 157.041 164.573C156.874 164.622 156.761 164.696 156.68 164.775C156.648 164.809 156.6 164.825 156.555 164.814C156.433 164.788 156.3 164.785 156.17 164.847C155.993 164.928 155.856 165.096 155.828 165.297C155.768 165.662 156.106 165.971 156.511 165.895C156.611 165.879 156.7 165.841 156.774 165.785C156.817 165.753 156.875 165.744 156.926 165.758C157.052 165.797 157.212 165.79 157.412 165.73C157.808 165.607 158.217 165.289 158.329 164.998C158.334 165.035 158.352 165.077 158.387 165.122C158.464 165.218 158.592 165.283 158.65 165.242C158.706 165.2 158.666 165.068 158.586 164.976C158.579 164.97 158.574 164.965 158.567 164.959L158.615 164.938C158.825 164.828 158.91 164.603 158.81 164.444C158.712 164.289 158.483 164.25 158.294 164.349Z" fill="black"/>
<path d="M155.71 171.119V171.172C155.701 171.169 155.695 171.167 155.685 171.163C155.566 171.13 155.428 171.15 155.411 171.223C155.399 171.296 155.516 171.385 155.638 171.41C155.694 171.422 155.741 171.418 155.777 171.405C155.558 171.641 155.472 172.17 155.549 172.55C155.585 172.741 155.653 172.873 155.734 172.957C155.767 172.992 155.781 173.042 155.768 173.087C155.731 173.212 155.734 173.329 155.785 173.465C155.858 173.645 156.032 173.786 156.231 173.821C156.605 173.889 156.922 173.574 156.868 173.176C156.853 173.078 156.819 172.982 156.767 172.912C156.737 172.87 156.73 172.816 156.747 172.767C156.791 172.648 156.799 172.508 156.766 172.328C156.697 171.98 156.509 171.613 156.309 171.402C156.344 171.413 156.391 171.415 156.448 171.404C156.569 171.38 156.684 171.316 156.671 171.262C156.663 171.21 156.53 171.18 156.407 171.196C156.397 171.199 156.39 171.2 156.382 171.202C156.385 171.187 156.388 171.173 156.39 171.158C156.399 170.958 156.279 170.773 156.096 170.74C155.909 170.706 155.722 170.874 155.71 171.119Z" fill="black"/>
<path d="M154.408 169.643L154.391 169.694C154.384 169.688 154.378 169.684 154.371 169.677C154.268 169.61 154.13 169.589 154.091 169.653C154.057 169.718 154.141 169.838 154.248 169.898C154.299 169.927 154.344 169.937 154.382 169.936C154.101 170.094 153.853 170.573 153.809 170.957C153.783 171.15 153.807 171.296 153.857 171.4C153.878 171.444 153.876 171.495 153.85 171.535C153.775 171.642 153.742 171.754 153.748 171.9C153.761 172.093 153.883 172.279 154.061 172.371C154.396 172.55 154.796 172.344 154.869 171.95C154.885 171.851 154.883 171.75 154.855 171.668C154.839 171.618 154.85 171.564 154.881 171.524C154.96 171.423 155.012 171.292 155.036 171.111C155.079 170.759 155.015 170.353 154.889 170.092C154.92 170.113 154.964 170.129 155.021 170.136C155.144 170.149 155.274 170.122 155.278 170.068C155.287 170.016 155.169 169.947 155.047 169.926C155.037 169.925 155.03 169.925 155.021 169.924C155.029 169.911 155.037 169.898 155.043 169.884C155.114 169.697 155.058 169.485 154.894 169.398C154.727 169.31 154.496 169.414 154.408 169.643Z" fill="black"/>
<path d="M157.388 167.767L157.356 167.808C157.352 167.8 157.349 167.794 157.343 167.785C157.271 167.686 157.154 167.615 157.099 167.657C157.044 167.7 157.076 167.836 157.15 167.933C157.185 167.979 157.222 168.006 157.258 168.021C156.943 168.051 156.519 168.343 156.293 168.689C156.181 168.865 156.124 169.011 156.132 169.145C156.133 169.198 156.111 169.252 156.068 169.286C155.956 169.376 155.862 169.51 155.839 169.683C155.795 169.911 155.897 170.131 156.078 170.232C156.409 170.408 156.795 170.248 156.919 169.967C156.953 169.893 156.973 169.818 156.971 169.74C156.971 169.694 156.997 169.652 157.037 169.63C157.131 169.576 157.24 169.493 157.331 169.35C157.512 169.072 157.662 168.658 157.658 168.363C157.677 168.395 157.711 168.427 157.761 168.456C157.869 168.516 158.004 168.538 158.034 168.486C158.064 168.435 157.981 168.326 157.876 168.264C157.867 168.26 157.861 168.257 157.853 168.253L157.888 168.22C158.029 168.059 158.059 167.839 157.923 167.706C157.794 167.578 157.543 167.592 157.388 167.767Z" fill="black"/>
<path d="M159.8 164.99L159.765 165.028C159.761 165.019 159.758 165.013 159.754 165.003C159.693 164.897 159.583 164.815 159.524 164.852C159.465 164.889 159.483 165.028 159.547 165.132C159.577 165.18 159.611 165.212 159.644 165.229C159.329 165.228 158.877 165.478 158.617 165.8C158.487 165.964 158.416 166.103 158.41 166.238C158.406 166.291 158.378 166.342 158.333 166.372C158.211 166.45 158.104 166.574 158.064 166.744C157.998 166.967 158.076 167.196 158.246 167.314C158.557 167.521 158.957 167.401 159.109 167.132C159.151 167.063 159.178 166.99 159.185 166.911C159.189 166.866 159.219 166.827 159.262 166.809C159.361 166.765 159.478 166.693 159.583 166.559C159.791 166.3 159.982 165.903 160.008 165.609C160.024 165.643 160.054 165.678 160.101 165.711C160.202 165.782 160.334 165.817 160.37 165.769C160.405 165.72 160.333 165.604 160.235 165.532C160.227 165.527 160.221 165.523 160.213 165.519L160.252 165.49C160.408 165.343 160.461 165.127 160.339 164.981C160.223 164.841 159.972 164.83 159.8 164.99Z" fill="black"/>
<path d="M147.427 182.292L147.372 182.291C147.376 182.283 147.379 182.276 147.383 182.267C147.422 182.151 147.405 182.016 147.33 181.998C147.261 181.983 147.172 182.093 147.143 182.211C147.129 182.266 147.131 182.312 147.142 182.348C146.922 182.135 146.453 182.003 146.072 182.036C145.878 182.05 145.738 182.107 145.641 182.181C145.601 182.212 145.548 182.224 145.499 182.209C145.369 182.17 145.215 182.178 145.065 182.247C144.861 182.34 144.731 182.551 144.754 182.748C144.814 183.113 145.131 183.338 145.432 183.286C145.511 183.272 145.581 183.238 145.646 183.194C145.683 183.167 145.732 183.164 145.773 183.184C145.875 183.237 146.003 183.257 146.174 183.245C146.51 183.216 146.915 183.065 147.126 182.868C147.115 182.903 147.111 182.949 147.12 183.005C147.139 183.125 147.198 183.242 147.25 183.232C147.297 183.224 147.329 183.093 147.321 182.973C147.319 182.964 147.318 182.957 147.316 182.948C147.33 182.951 147.343 182.955 147.357 182.956C147.41 182.959 147.429 182.957 147.47 182.945C147.522 182.938 147.569 182.923 147.611 182.9C147.696 182.856 147.756 182.783 147.775 182.692C147.794 182.602 147.769 182.512 147.715 182.439C147.688 182.403 147.653 182.371 147.613 182.346C147.562 182.32 147.482 182.295 147.427 182.292Z" fill="black"/>
<path d="M143.732 183.289L143.698 183.332C143.694 183.324 143.69 183.317 143.686 183.309C143.615 183.208 143.495 183.139 143.435 183.187C143.381 183.232 143.416 183.368 143.494 183.462C143.531 183.506 143.569 183.532 143.605 183.545C143.299 183.588 142.908 183.874 142.704 184.192C142.598 184.351 142.559 184.495 142.56 184.616C142.562 184.666 142.539 184.715 142.498 184.744C142.387 184.822 142.3 184.947 142.266 185.105C142.218 185.321 142.31 185.55 142.484 185.651C142.816 185.826 143.191 185.715 143.331 185.448C143.367 185.378 143.383 185.303 143.385 185.226C143.386 185.181 143.413 185.141 143.455 185.121C143.559 185.073 143.653 184.986 143.747 184.844C143.927 184.564 144.049 184.157 144.018 183.873C144.039 183.903 144.074 183.934 144.125 183.961C144.234 184.019 144.364 184.043 144.388 183.996C144.41 183.955 144.323 183.851 144.22 183.785C144.212 183.781 144.206 183.777 144.198 183.773C144.208 183.765 144.219 183.757 144.229 183.746C144.263 183.707 144.273 183.691 144.288 183.651C144.314 183.607 144.33 183.56 144.338 183.514C144.352 183.421 144.33 183.33 144.268 183.26C144.206 183.191 144.118 183.155 144.026 183.154C143.98 183.153 143.934 183.16 143.889 183.177C143.837 183.201 143.768 183.248 143.732 183.289Z" fill="black"/>
<path d="M150.796 182.473C150.781 182.476 150.766 182.481 150.751 182.485C150.753 182.476 150.754 182.469 150.755 182.459C150.761 182.338 150.719 182.209 150.662 182.207C150.605 182.202 150.551 182.32 150.541 182.441C150.537 182.497 150.544 182.542 150.559 182.576C150.326 182.399 149.916 182.284 149.584 182.28C149.414 182.275 149.287 182.309 149.189 182.37C149.149 182.395 149.101 182.393 149.062 182.369C148.957 182.303 148.831 182.273 148.692 182.298C148.504 182.325 148.333 182.459 148.257 182.646C148.112 182.987 148.343 183.362 148.723 183.395C148.817 183.403 148.907 183.391 148.988 183.361C149.036 183.343 149.089 183.354 149.131 183.38C149.234 183.446 149.378 183.488 149.573 183.493C149.961 183.498 150.423 183.325 150.618 183.094C150.611 183.131 150.613 183.176 150.631 183.23C150.669 183.346 150.762 183.453 150.826 183.433C150.89 183.41 150.896 183.274 150.855 183.16C150.851 183.152 150.847 183.146 150.844 183.138L150.893 183.134C151.116 183.099 151.267 182.923 151.229 182.742C151.192 182.562 150.998 182.441 150.796 182.473Z" fill="black"/>
<path d="M139.49 182.354C139.483 182.368 139.48 182.383 139.475 182.397C139.468 182.391 139.463 182.387 139.455 182.38C139.354 182.31 139.221 182.275 139.188 182.321C139.154 182.365 139.225 182.474 139.324 182.547C139.37 182.581 139.413 182.599 139.45 182.605C139.172 182.702 138.852 182.978 138.669 183.251C138.573 183.388 138.534 183.511 138.533 183.625C138.533 183.671 138.505 183.71 138.463 183.73C138.35 183.781 138.257 183.869 138.203 183.997C138.125 184.166 138.147 184.38 138.266 184.544C138.481 184.847 138.927 184.859 139.161 184.564C139.219 184.491 139.257 184.409 139.275 184.326C139.286 184.277 139.324 184.239 139.369 184.218C139.481 184.169 139.595 184.073 139.705 183.915C139.918 183.597 140.019 183.122 139.926 182.836C139.953 182.862 139.994 182.885 140.05 182.899C140.17 182.93 140.312 182.911 140.329 182.847C140.344 182.783 140.231 182.704 140.111 182.677C140.101 182.676 140.095 182.675 140.086 182.674L140.109 182.631C140.199 182.428 140.13 182.209 139.955 182.142C139.78 182.075 139.571 182.17 139.49 182.354Z" fill="black"/>
<path d="M153.894 181.336C153.88 181.344 153.869 181.354 153.857 181.364C153.854 181.355 153.853 181.348 153.85 181.339C153.804 181.226 153.712 181.126 153.658 181.146C153.604 181.165 153.607 181.299 153.649 181.413C153.669 181.467 153.695 181.505 153.723 181.529C153.432 181.456 153.014 181.525 152.709 181.652C152.558 181.726 152.452 181.796 152.388 181.89C152.362 181.927 152.318 181.948 152.273 181.942C152.153 181.93 152.026 181.948 151.908 182.021C151.75 182.122 151.65 182.318 151.654 182.513C151.659 182.889 152.021 183.133 152.388 183.017C152.479 182.992 152.556 182.94 152.618 182.878C152.654 182.842 152.706 182.826 152.756 182.835C152.878 182.855 153.033 182.847 153.209 182.762C153.568 182.612 153.911 182.259 153.995 181.977C154.003 182.013 154.025 182.055 154.064 182.096C154.146 182.185 154.274 182.241 154.323 182.196C154.372 182.151 154.321 182.025 154.235 181.938C154.228 181.932 154.222 181.927 154.216 181.922L154.26 181.899C154.451 181.783 154.513 181.559 154.402 181.407C154.294 181.259 154.068 181.23 153.894 181.336Z" fill="black"/>
<path d="M156.327 179.103C156.318 179.116 156.311 179.129 156.304 179.143C156.298 179.135 156.294 179.13 156.288 179.122C156.203 179.033 156.08 178.973 156.038 179.011C155.998 179.05 156.044 179.17 156.125 179.261C156.163 179.303 156.202 179.329 156.237 179.343C156.089 179.36 155.922 179.423 155.768 179.513C155.606 179.598 155.453 179.706 155.339 179.828C155.219 179.947 155.151 180.057 155.127 180.168C155.117 180.213 155.085 180.25 155.04 180.262C154.924 180.298 154.811 180.363 154.732 180.477C154.623 180.631 154.613 180.853 154.697 181.031C154.856 181.373 155.282 181.45 155.571 181.208C155.645 181.15 155.695 181.075 155.726 180.995C155.745 180.948 155.786 180.914 155.836 180.904C155.955 180.878 156.089 180.811 156.225 180.674C156.355 180.536 156.474 180.36 156.555 180.181C156.629 179.995 156.669 179.81 156.656 179.663C156.677 179.694 156.712 179.724 156.764 179.749C156.875 179.803 157.02 179.814 157.046 179.753C157.075 179.693 156.981 179.593 156.868 179.543C156.859 179.54 156.853 179.538 156.844 179.535L156.877 179.498C157.007 179.318 156.985 179.09 156.828 178.989C156.67 178.888 156.446 178.939 156.327 179.103Z" fill="black"/>
<path d="M157.687 176.144C157.684 176.159 157.683 176.174 157.681 176.189C157.673 176.184 157.666 176.181 157.658 176.176C157.545 176.129 157.406 176.123 157.381 176.174C157.356 176.224 157.453 176.316 157.566 176.367C157.618 176.391 157.664 176.399 157.702 176.398C157.454 176.551 157.201 176.888 157.079 177.19C157.023 177.346 157.006 177.471 157.025 177.58C157.034 177.625 157.018 177.67 156.982 177.697C156.887 177.772 156.814 177.875 156.782 178.008C156.742 178.189 156.815 178.397 156.959 178.532C157.235 178.792 157.665 178.71 157.841 178.375C157.887 178.294 157.9 178.202 157.901 178.117C157.901 178.066 157.926 178.019 157.969 177.99C158.072 177.921 158.168 177.805 158.234 177.623C158.378 177.269 158.373 176.783 158.218 176.523C158.25 176.542 158.294 176.556 158.352 176.558C158.476 176.564 158.607 176.514 158.61 176.448C158.614 176.383 158.487 176.33 158.363 176.328C158.353 176.329 158.346 176.33 158.337 176.331L158.353 176.284C158.399 176.068 158.276 175.867 158.092 175.838C157.905 175.809 157.729 175.947 157.687 176.144Z" fill="black"/>
<path d="M157.741 172.879C157.744 172.894 157.748 172.909 157.753 172.923C157.743 172.922 157.736 172.921 157.726 172.92C157.603 172.917 157.473 172.962 157.469 173.018C157.465 173.076 157.591 173.126 157.714 173.133C157.772 173.135 157.818 173.126 157.851 173.111C157.68 173.345 157.576 173.757 157.587 174.085C157.598 174.252 157.629 174.375 157.695 174.469C157.721 174.506 157.725 174.554 157.703 174.594C157.648 174.7 157.615 174.824 157.646 174.959C157.69 175.142 157.831 175.303 158.023 175.369C158.379 175.495 158.748 175.251 158.765 174.876C158.771 174.784 158.755 174.696 158.717 174.618C158.696 174.572 158.7 174.519 158.726 174.477C158.79 174.374 158.836 174.231 158.823 174.04C158.811 173.662 158.62 173.221 158.377 173.037C158.415 173.044 158.462 173.041 158.516 173.022C158.632 172.981 158.736 172.888 158.714 172.827C158.693 172.765 158.555 172.762 158.439 172.806C158.43 172.81 158.424 172.813 158.416 172.817L158.413 172.768C158.382 172.579 158.222 172.437 158.033 172.444C157.846 172.451 157.704 172.652 157.741 172.879Z" fill="black"/>
<path d="M158.104 169.339L158.09 169.388C158.083 169.383 158.078 169.378 158.069 169.372C157.965 169.306 157.829 169.283 157.794 169.344C157.759 169.406 157.84 169.521 157.948 169.58C157.998 169.608 158.043 169.619 158.082 169.619C157.814 169.767 157.555 170.2 157.502 170.577C157.474 170.768 157.496 170.914 157.55 171.024C157.572 171.068 157.57 171.121 157.546 171.164C157.48 171.278 157.448 171.421 157.481 171.572C157.522 171.778 157.688 171.941 157.884 171.985C158.255 172.062 158.579 171.801 158.597 171.48C158.603 171.399 158.588 171.32 158.556 171.248C158.537 171.206 158.547 171.159 158.577 171.123C158.65 171.037 158.701 170.918 158.726 170.755C158.772 170.432 158.724 170.033 158.588 169.777C158.619 169.798 158.663 169.814 158.72 169.821C158.843 169.837 158.974 169.815 158.98 169.763C158.985 169.712 158.866 169.644 158.745 169.622C158.736 169.621 158.729 169.62 158.72 169.62C158.727 169.607 158.734 169.594 158.739 169.58C158.811 169.407 158.744 169.201 158.584 169.113C158.416 169.021 158.193 169.122 158.104 169.339Z" fill="black"/>
<path d="M150.212 184.432L150.162 184.435C150.165 184.426 150.168 184.419 150.171 184.41C150.2 184.292 150.18 184.158 150.121 184.145C150.063 184.134 149.983 184.242 149.95 184.357C149.934 184.411 149.933 184.457 149.942 184.493C149.846 184.388 149.707 184.292 149.552 184.217C149.475 184.175 149.396 184.132 149.315 184.099C149.272 184.083 149.232 184.068 149.193 184.054L149.132 184.035C149.084 184.024 149.036 184.014 148.99 184.004C148.944 184.002 148.9 184.001 148.856 183.999C148.669 183.995 148.526 184.025 148.419 184.082C148.375 184.106 148.321 184.107 148.278 184.083C148.161 184.019 148.023 183.989 147.872 184.012C147.669 184.042 147.492 184.177 147.412 184.361C147.256 184.703 147.522 185.078 147.928 185.111C148.028 185.12 148.124 185.107 148.21 185.076C148.26 185.058 148.317 185.065 148.362 185.093C148.47 185.162 148.62 185.207 148.827 185.212C148.866 185.213 148.868 185.212 148.871 185.211L148.872 185.208C148.88 185.209 148.837 185.201 148.866 185.205L148.944 185.212C148.994 185.214 149.046 185.216 149.101 185.218C149.206 185.218 149.309 185.215 149.409 185.199C149.608 185.16 149.785 185.096 149.903 185.013C149.888 185.047 149.881 185.092 149.89 185.149C149.907 185.272 149.987 185.392 150.061 185.38C150.134 185.37 150.167 185.237 150.144 185.118C150.141 185.109 150.139 185.102 150.136 185.094L150.19 185.099C150.437 185.108 150.63 184.956 150.621 184.767C150.613 184.587 150.43 184.439 150.212 184.432Z" fill="black"/>
<path d="M153.679 183.655L153.636 183.681C153.634 183.672 153.633 183.665 153.632 183.655C153.602 183.537 153.521 183.428 153.461 183.444C153.4 183.457 153.379 183.589 153.405 183.708C153.418 183.763 153.439 183.804 153.465 183.832C153.172 183.739 152.713 183.766 152.371 183.865C152.195 183.913 152.076 183.988 151.993 184.074C151.959 184.107 151.909 184.122 151.862 184.11C151.735 184.076 151.598 184.091 151.462 184.15C151.278 184.224 151.14 184.404 151.112 184.604C151.054 184.973 151.402 185.265 151.814 185.194C151.915 185.173 152.006 185.134 152.082 185.081C152.126 185.05 152.185 185.041 152.238 185.057C152.364 185.091 152.526 185.083 152.73 185.026C153.133 184.909 153.55 184.592 153.681 184.308C153.684 184.345 153.7 184.388 153.735 184.434C153.808 184.532 153.935 184.603 153.994 184.564C154.052 184.523 154.018 184.39 153.942 184.295C153.935 184.288 153.93 184.283 153.924 184.277L153.974 184.257C154.19 184.151 154.292 183.933 154.202 183.771C154.112 183.609 153.878 183.557 153.679 183.655Z" fill="black"/>
<path d="M159.242 181.511L159.221 181.556C159.215 181.549 159.21 181.544 159.203 181.536C159.11 181.456 158.98 181.412 158.94 181.459C158.897 181.503 158.957 181.624 159.047 181.707C159.09 181.745 159.131 181.767 159.168 181.775C158.873 181.863 158.512 182.141 158.288 182.414C158.171 182.551 158.117 182.679 158.099 182.796C158.09 182.842 158.057 182.882 158.012 182.899C157.888 182.942 157.784 183.03 157.707 183.154C157.598 183.319 157.589 183.543 157.682 183.724C157.849 184.06 158.304 184.106 158.601 183.817C158.672 183.743 158.724 183.66 158.756 183.575C158.775 183.524 158.818 183.484 158.87 183.468C158.994 183.425 159.122 183.328 159.257 183.168C159.521 182.846 159.68 182.353 159.622 182.046C159.646 182.075 159.684 182.102 159.739 182.12C159.857 182.16 160.002 182.147 160.028 182.082C160.052 182.016 159.947 181.925 159.829 181.889C159.82 181.888 159.813 181.887 159.804 181.885L159.833 181.841C159.949 181.633 159.907 181.397 159.739 181.313C159.571 181.23 159.348 181.318 159.242 181.511Z" fill="black"/>
<path d="M156.643 181.596L156.61 181.634C156.606 181.626 156.603 181.619 156.598 181.61C156.533 181.507 156.42 181.428 156.367 181.462C156.315 181.497 156.337 181.632 156.4 181.735C156.429 181.783 156.463 181.815 156.496 181.833C156.185 181.835 155.754 182.018 155.462 182.239C155.316 182.355 155.223 182.459 155.178 182.572C155.159 182.617 155.119 182.652 155.07 182.66C154.942 182.686 154.811 182.741 154.708 182.852C154.569 183.004 154.516 183.224 154.574 183.413C154.682 183.773 155.118 183.898 155.455 183.676C155.54 183.623 155.607 183.554 155.652 183.475C155.68 183.429 155.729 183.399 155.782 183.393C155.909 183.377 156.061 183.324 156.222 183.197C156.546 182.951 156.822 182.523 156.856 182.217C156.871 182.251 156.9 182.287 156.948 182.32C157.05 182.391 157.191 182.419 157.231 182.362C157.272 182.307 157.198 182.192 157.096 182.124C157.087 182.119 157.081 182.116 157.073 182.112L157.114 182.079C157.285 181.915 157.315 181.679 157.18 181.55C157.046 181.421 156.805 181.442 156.643 181.596Z" fill="black"/>
<path d="M158.817 178.773L158.8 178.819C158.793 178.813 158.788 178.808 158.78 178.802C158.681 178.729 158.547 178.695 158.511 178.743C158.477 178.792 158.547 178.907 158.642 178.982C158.687 179.017 158.73 179.036 158.768 179.042C158.477 179.147 158.143 179.446 157.932 179.732C157.828 179.88 157.78 180.012 157.765 180.128C157.76 180.176 157.731 180.219 157.687 180.24C157.57 180.298 157.468 180.393 157.397 180.526C157.305 180.707 157.32 180.936 157.43 181.101C157.64 181.416 158.09 181.411 158.352 181.108C158.418 181.034 158.458 180.945 158.482 180.858C158.496 180.806 158.535 180.763 158.584 180.743C158.707 180.696 158.829 180.593 158.949 180.423C159.193 180.091 159.318 179.58 159.241 179.279C159.267 179.306 159.307 179.33 159.363 179.344C159.485 179.375 159.628 179.351 159.646 179.281C159.666 179.212 159.554 179.131 159.433 179.104C159.423 179.103 159.416 179.103 159.407 179.102L159.434 179.055C159.541 178.839 159.469 178.603 159.293 178.536C159.118 178.469 158.913 178.579 158.817 178.773Z" fill="black"/>
<path d="M159.628 175.321L159.629 175.372C159.62 175.368 159.614 175.365 159.604 175.362C159.485 175.327 159.348 175.343 159.33 175.404C159.312 175.465 159.42 175.55 159.539 175.586C159.594 175.602 159.641 175.604 159.678 175.595C159.45 175.803 159.261 176.229 159.196 176.582C159.168 176.764 159.177 176.903 159.218 177.014C159.235 177.059 159.228 177.111 159.198 177.149C159.121 177.252 159.062 177.376 159.063 177.525C159.066 177.727 159.162 177.921 159.338 178.028C159.657 178.231 160.08 178.043 160.178 177.65C160.205 177.553 160.207 177.457 160.187 177.368C160.177 177.316 160.192 177.261 160.228 177.221C160.315 177.125 160.385 176.983 160.416 176.782C160.488 176.385 160.394 175.891 160.207 175.642C160.242 175.658 160.288 175.665 160.346 175.658C160.469 175.643 160.592 175.572 160.586 175.505C160.581 175.437 160.447 175.4 160.324 175.417C160.315 175.419 160.308 175.421 160.299 175.423C160.303 175.406 160.306 175.39 160.307 175.372C160.323 175.141 160.183 174.945 159.995 174.935C159.807 174.925 159.643 175.098 159.628 175.321Z" fill="black"/>
<path d="M159.331 171.74C159.333 171.758 159.338 171.774 159.343 171.791C159.333 171.789 159.326 171.788 159.316 171.786C159.192 171.778 159.062 171.824 159.06 171.891C159.058 171.958 159.186 172.02 159.31 172.027C159.368 172.03 159.413 172.02 159.447 172.003C159.277 172.263 159.214 172.746 159.275 173.116C159.306 173.304 159.365 173.437 159.443 173.529C159.476 173.567 159.487 173.618 159.472 173.665C159.43 173.788 159.429 173.928 159.475 174.055C159.509 174.152 159.561 174.193 159.632 174.274C159.7 174.349 159.788 174.406 159.886 174.433C160.069 174.485 160.246 174.442 160.379 174.336C160.447 174.29 160.5 174.208 160.534 174.103C160.565 174.01 160.58 173.903 160.568 173.805C160.558 173.703 160.525 173.612 160.477 173.536C160.449 173.491 160.446 173.434 160.465 173.386C160.513 173.269 160.528 173.117 160.497 172.924C160.434 172.542 160.213 172.114 159.972 171.921C160.009 171.928 160.056 171.923 160.11 171.903C160.226 171.86 160.328 171.766 160.307 171.706C160.285 171.646 160.147 171.64 160.031 171.682C160.022 171.686 160.016 171.689 160.008 171.693L160.005 171.643C159.971 171.423 159.8 171.264 159.613 171.283C159.426 171.301 159.296 171.51 159.331 171.74Z" fill="black"/>
<path d="M143.611 178.807C143.607 178.821 143.605 178.835 143.602 178.849C143.595 178.844 143.589 178.839 143.581 178.834C143.471 178.774 143.341 178.75 143.311 178.789C143.279 178.827 143.361 178.926 143.462 178.995C143.51 179.026 143.553 179.043 143.591 179.048C143.332 179.153 142.999 179.378 142.802 179.628C142.693 179.752 142.635 179.867 142.62 179.98C142.613 180.025 142.584 180.064 142.541 180.079C142.419 180.115 142.311 180.191 142.237 180.312C142.14 180.479 142.125 180.693 142.221 180.87C142.395 181.199 142.838 181.266 143.115 180.995C143.184 180.93 143.235 180.853 143.267 180.773C143.285 180.724 143.325 180.685 143.374 180.67C143.494 180.631 143.627 180.549 143.761 180.394C144.018 180.077 144.184 179.569 144.075 179.262C144.103 179.288 144.144 179.31 144.201 179.321C144.323 179.346 144.467 179.308 144.487 179.236C144.504 179.162 144.381 179.088 144.26 179.075H144.234L144.255 179.025C144.339 178.789 144.221 178.566 144.033 178.538C143.85 178.511 143.674 178.634 143.611 178.807Z" fill="black"/>
<path d="M143.375 175.49L143.382 175.539C143.373 175.537 143.366 175.535 143.356 175.532C143.233 175.515 143.099 175.549 143.091 175.614C143.082 175.679 143.205 175.747 143.328 175.762C143.385 175.769 143.432 175.763 143.467 175.749C143.269 175.969 143.186 176.487 143.268 176.853C143.307 177.041 143.371 177.16 143.455 177.244C143.489 177.279 143.503 177.327 143.489 177.37C143.453 177.488 143.457 177.616 143.508 177.735C143.583 177.898 143.74 178.023 143.945 178.071C144.129 178.111 144.306 178.068 144.427 177.948C144.554 177.827 144.619 177.637 144.589 177.441C144.575 177.343 144.536 177.26 144.486 177.188C144.456 177.145 144.449 177.091 144.467 177.046C144.508 176.933 144.517 176.786 144.481 176.614C144.406 176.274 144.219 175.921 143.997 175.708C144.033 175.717 144.08 175.716 144.136 175.701C144.255 175.668 144.363 175.588 144.349 175.531C144.333 175.474 144.196 175.458 144.077 175.489C144.068 175.492 144.061 175.494 144.053 175.498L144.054 175.451C144.04 175.241 143.886 175.076 143.697 175.08C143.51 175.083 143.359 175.268 143.375 175.49Z" fill="black"/>
<path d="M143.897 171.916L143.881 171.965C143.874 171.959 143.868 171.954 143.861 171.948C143.759 171.878 143.623 171.85 143.585 171.909C143.548 171.968 143.624 172.085 143.728 172.15C143.777 172.181 143.821 172.194 143.859 172.196C143.588 172.334 143.291 172.758 143.225 173.149C143.18 173.345 143.206 173.498 143.251 173.613C143.27 173.659 143.267 173.714 143.242 173.758C143.174 173.874 143.135 174.022 143.166 174.177C143.205 174.39 143.361 174.559 143.561 174.607C143.929 174.694 144.258 174.43 144.285 174.106C144.292 174.024 144.279 173.945 144.249 173.871C144.231 173.827 144.242 173.78 144.274 173.745C144.355 173.662 144.401 173.542 144.439 173.38C144.493 173.057 144.482 172.649 144.357 172.378C144.387 172.401 144.43 172.419 144.486 172.429C144.609 172.45 144.743 172.43 144.753 172.375C144.763 172.321 144.647 172.248 144.526 172.222C144.517 172.221 144.51 172.22 144.501 172.219C144.508 172.206 144.517 172.194 144.523 172.179C144.598 171.993 144.549 171.783 144.38 171.695C144.217 171.609 143.985 171.702 143.897 171.916Z" fill="black"/>
<path d="M146.276 171.459L146.25 171.504C146.244 171.497 146.24 171.491 146.234 171.483C146.149 171.394 146.022 171.34 145.973 171.39C145.923 171.439 145.973 171.57 146.061 171.654C146.103 171.694 146.143 171.716 146.181 171.725C145.886 171.805 145.507 172.161 145.36 172.531C145.275 172.713 145.269 172.868 145.289 172.989C145.298 173.039 145.283 173.092 145.249 173.129C145.158 173.229 145.089 173.367 145.087 173.525C145.081 173.741 145.198 173.937 145.383 174.025C145.725 174.184 146.103 173.993 146.196 173.681C146.221 173.602 146.225 173.521 146.212 173.443C146.202 173.397 146.223 173.352 146.262 173.325C146.358 173.26 146.429 173.152 146.5 173.001C146.62 172.696 146.695 172.294 146.629 172.004C146.654 172.032 146.692 172.059 146.745 172.08C146.861 172.124 146.997 172.132 147.018 172.081C147.039 172.03 146.94 171.935 146.828 171.886C146.819 171.883 146.812 171.881 146.804 171.878C146.814 171.866 146.824 171.856 146.833 171.843C146.946 171.676 146.942 171.46 146.795 171.34C146.654 171.224 146.407 171.267 146.276 171.459Z" fill="black"/>
<path d="M146.269 169.138C146.255 169.149 146.243 169.161 146.231 169.172C146.228 169.163 146.225 169.157 146.222 169.147C146.171 169.036 146.07 168.944 146.009 168.975C145.948 169.005 145.954 169.145 146.008 169.254C146.033 169.305 146.065 169.339 146.096 169.36C145.785 169.329 145.329 169.533 145.045 169.802C144.904 169.947 144.828 170.084 144.8 170.204C144.788 170.252 144.758 170.3 144.71 170.322C144.587 170.385 144.467 170.488 144.405 170.639C144.321 170.847 144.355 171.071 144.503 171.216C144.774 171.474 145.191 171.423 145.384 171.176C145.436 171.114 145.468 171.042 145.484 170.965C145.494 170.921 145.525 170.884 145.573 170.875C145.686 170.85 145.799 170.786 145.915 170.666C146.161 170.433 146.375 170.057 146.422 169.771C146.436 169.806 146.462 169.844 146.506 169.881C146.599 169.961 146.725 170.009 146.763 169.965C146.801 169.922 146.74 169.8 146.65 169.718C146.642 169.712 146.637 169.708 146.63 169.703L146.669 169.678C146.842 169.562 146.899 169.342 146.797 169.186C146.696 169.031 146.459 169.009 146.269 169.138Z" fill="black"/>
<path d="M149.688 167.776L149.637 167.787C149.639 167.778 149.641 167.771 149.643 167.761C149.653 167.64 149.61 167.511 149.539 167.51C149.47 167.508 149.405 167.633 149.399 167.754C149.396 167.811 149.408 167.855 149.425 167.889C149.167 167.718 148.651 167.685 148.269 167.815C148.074 167.877 147.947 167.967 147.87 168.067C147.838 168.107 147.788 168.132 147.736 168.13C147.595 168.125 147.45 168.176 147.323 168.275C147.153 168.416 147.084 168.638 147.141 168.828C147.255 169.185 147.648 169.326 147.945 169.192C148.021 169.158 148.082 169.103 148.133 169.045C148.163 169.01 148.211 168.995 148.257 169.005C148.368 169.027 148.499 169.017 148.66 168.966C148.974 168.859 149.333 168.635 149.512 168.403C149.506 168.439 149.512 168.485 149.532 168.538C149.575 168.652 149.66 168.754 149.713 168.734C149.766 168.714 149.773 168.578 149.735 168.464C149.731 168.455 149.728 168.449 149.725 168.441L149.771 168.438C149.976 168.421 150.135 168.254 150.127 168.073C150.118 167.886 149.922 167.755 149.688 167.776Z" fill="black"/>
<path d="M146.208 183.972L146.165 184C146.163 183.991 146.162 183.984 146.16 183.974C146.127 183.857 146.04 183.751 145.974 183.774C145.908 183.796 145.892 183.935 145.93 184.051C145.947 184.105 145.973 184.143 146.002 184.168C145.699 184.097 145.204 184.243 144.893 184.496C144.733 184.621 144.645 184.749 144.609 184.869C144.594 184.918 144.556 184.958 144.506 184.974C144.373 185.018 144.255 185.116 144.171 185.252C144.062 185.443 144.077 185.675 144.198 185.833C144.432 186.128 144.852 186.124 145.081 185.897C145.14 185.84 145.177 185.767 145.205 185.695C145.221 185.652 145.26 185.622 145.307 185.615C145.419 185.597 145.537 185.543 145.671 185.44C145.926 185.231 146.182 184.898 146.267 184.62C146.275 184.655 146.296 184.697 146.334 184.739C146.414 184.831 146.531 184.898 146.574 184.861C146.617 184.824 146.574 184.694 146.498 184.6C146.491 184.594 146.486 184.589 146.48 184.583L146.522 184.564C146.708 184.477 146.797 184.266 146.725 184.099C146.65 183.927 146.419 183.872 146.208 183.972Z" fill="black"/>
<path d="M153.253 168.013L153.208 168.019C153.21 168.011 153.212 168.004 153.215 167.995C153.233 167.875 153.206 167.744 153.154 167.73C153.101 167.717 153.034 167.831 153.008 167.949C152.997 168.005 152.998 168.05 153.008 168.086C152.801 167.881 152.436 167.7 152.083 167.633C151.904 167.601 151.756 167.613 151.64 167.657C151.593 167.675 151.539 167.67 151.494 167.643C151.377 167.567 151.224 167.529 151.06 167.554C150.837 167.58 150.658 167.744 150.609 167.934C150.522 168.298 150.783 168.616 151.1 168.652C151.183 168.658 151.262 168.653 151.337 168.626C151.38 168.61 151.43 168.621 151.466 168.655C151.551 168.733 151.676 168.793 151.865 168.827C152.235 168.899 152.76 168.813 152.995 168.607C152.982 168.642 152.978 168.688 152.989 168.744C153.012 168.863 153.097 168.978 153.169 168.966C153.241 168.956 153.264 168.82 153.234 168.703C153.231 168.694 153.228 168.687 153.225 168.679C153.243 168.681 153.26 168.681 153.278 168.68C153.519 168.668 153.691 168.498 153.662 168.312C153.635 168.134 153.452 168.003 153.253 168.013Z" fill="black"/>
<path d="M156.309 166.776L156.272 166.807C156.27 166.798 156.267 166.791 156.264 166.782C156.212 166.672 156.112 166.578 156.058 166.602C156.003 166.625 156.011 166.759 156.061 166.87C156.084 166.922 156.113 166.958 156.142 166.981C155.848 166.94 155.419 167.041 155.123 167.191C154.972 167.269 154.878 167.363 154.817 167.452C154.793 167.49 154.75 167.513 154.705 167.509C154.583 167.503 154.461 167.531 154.348 167.603C154.197 167.712 154.099 167.897 154.101 168.096C154.097 168.47 154.477 168.721 154.865 168.582C154.961 168.551 155.036 168.49 155.099 168.426C155.135 168.388 155.189 168.369 155.242 168.375C155.373 168.392 155.523 168.356 155.702 168.263C156.06 168.081 156.384 167.707 156.445 167.409C156.456 167.445 156.48 167.484 156.522 167.523C156.611 167.607 156.744 167.654 156.791 167.607C156.838 167.56 156.779 167.438 156.687 167.356C156.68 167.35 156.674 167.346 156.667 167.341L156.71 167.316C156.899 167.189 156.941 166.951 156.827 166.809C156.708 166.661 156.485 166.66 156.309 166.776Z" fill="black"/>
<path d="M141.687 177.249L141.701 177.295C141.692 177.295 141.685 177.294 141.675 177.293C141.551 177.296 141.424 177.35 141.426 177.415C141.424 177.437 141.444 177.421 141.49 177.425C141.534 177.425 141.593 177.449 141.654 177.451C141.711 177.456 141.758 177.452 141.793 177.441C141.598 177.623 141.419 177.995 141.363 178.318C141.335 178.482 141.348 178.609 141.39 178.712C141.408 178.755 141.402 178.802 141.371 178.835C141.29 178.925 141.239 179.037 141.238 179.169C141.235 179.345 141.335 179.523 141.5 179.644C141.798 179.88 142.237 179.719 142.345 179.338C142.373 179.245 142.373 179.153 142.357 179.068C142.348 179.018 142.363 178.966 142.398 178.93C142.484 178.84 142.551 178.706 142.584 178.516C142.648 178.14 142.55 177.654 142.324 177.41C142.36 177.421 142.407 177.422 142.463 177.405C142.522 177.384 142.583 177.359 142.618 177.303C142.654 177.25 142.667 177.168 142.653 177.131C142.629 177.079 142.492 177.085 142.379 177.134C142.37 177.139 142.364 177.142 142.356 177.147L142.351 177.101C142.307 176.9 142.122 176.766 141.937 176.8C141.752 176.834 141.64 177.035 141.687 177.249Z" fill="black"/>
<path d="M141.449 173.74L141.448 173.789C141.439 173.785 141.432 173.782 141.423 173.778C141.305 173.742 141.167 173.753 141.149 173.816C141.13 173.879 141.237 173.967 141.356 174C141.411 174.015 141.458 174.016 141.495 174.007C141.272 174.207 141.104 174.662 141.118 175.039C141.117 175.231 141.173 175.369 141.242 175.468C141.271 175.508 141.279 175.561 141.261 175.607C141.208 175.731 141.209 175.875 141.263 176.019C141.337 176.215 141.52 176.351 141.726 176.364C142.102 176.388 142.385 176.078 142.35 175.754C142.339 175.672 142.312 175.596 142.272 175.529C142.247 175.49 142.248 175.441 142.271 175.401C142.332 175.303 142.353 175.176 142.355 175.007C142.342 174.676 142.219 174.272 142.025 174.048C142.06 174.061 142.106 174.068 142.164 174.061C142.287 174.048 142.41 173.99 142.403 173.934C142.397 173.877 142.264 173.84 142.142 173.851C142.132 173.852 142.126 173.854 142.117 173.855L142.126 173.81C142.143 173.609 142.021 173.424 141.836 173.395C141.649 173.365 141.468 173.519 141.449 173.74Z" fill="black"/>
<path d="M142.57 170.377L142.548 170.422C142.542 170.415 142.537 170.41 142.531 170.402C142.439 170.32 142.309 170.275 142.265 170.325C142.222 170.376 142.283 170.5 142.377 170.579C142.42 170.615 142.463 170.635 142.5 170.642C142.349 170.686 142.197 170.799 142.057 170.944C141.913 171.088 141.794 171.269 141.728 171.449C141.655 171.629 141.638 171.777 141.67 171.897C141.682 171.946 141.67 171.998 141.636 172.035C141.547 172.135 141.475 172.268 141.48 172.425C141.481 172.639 141.603 172.831 141.787 172.913C142.132 173.063 142.511 172.873 142.591 172.566C142.615 172.488 142.618 172.409 142.604 172.333C142.595 172.288 142.613 172.243 142.65 172.215C142.735 172.145 142.818 172.044 142.88 171.89C142.937 171.737 142.975 171.558 142.997 171.383C143.013 171.207 143 171.03 142.966 170.893C142.992 170.92 143.031 170.944 143.086 170.961C143.204 170.999 143.34 170.997 143.357 170.943C143.374 170.89 143.269 170.802 143.153 170.761C143.144 170.759 143.137 170.757 143.129 170.755C143.138 170.743 143.147 170.732 143.155 170.718C143.252 170.541 143.23 170.329 143.071 170.224C142.918 170.122 142.678 170.181 142.57 170.377Z" fill="black"/>
<path d="M159.789 167.626L159.784 167.676C159.776 167.671 159.769 167.668 159.761 167.663C159.647 167.614 159.509 167.612 159.484 167.674C159.459 167.736 159.558 167.834 159.673 167.878C159.727 167.899 159.773 167.904 159.811 167.899C159.682 167.988 159.575 168.144 159.492 168.326C159.403 168.507 159.351 168.717 159.347 168.908C159.337 169.102 159.37 169.247 159.44 169.351C159.468 169.393 159.474 169.446 159.454 169.492C159.403 169.614 159.378 169.763 159.435 169.91C159.507 170.112 159.685 170.255 159.886 170.275C160.262 170.307 160.558 170.007 160.532 169.69C160.53 169.609 160.506 169.534 160.468 169.466C160.445 169.426 160.447 169.378 160.472 169.34C160.53 169.247 160.574 169.125 160.582 168.96C160.585 168.796 160.562 168.614 160.525 168.443C160.483 168.271 160.412 168.107 160.334 167.989C160.368 168.006 160.413 168.016 160.471 168.015C160.595 168.013 160.722 167.968 160.721 167.912C160.72 167.856 160.591 167.807 160.468 167.804C160.458 167.805 160.452 167.806 160.443 167.807C160.447 167.792 160.453 167.779 160.456 167.763C160.489 167.565 160.397 167.371 160.213 167.322C160.035 167.274 159.827 167.406 159.789 167.626Z" fill="black"/>
<path d="M145.016 167.785L144.978 167.817C144.975 167.809 144.973 167.802 144.97 167.793C144.918 167.683 144.816 167.59 144.756 167.619C144.696 167.647 144.703 167.784 144.757 167.892C144.783 167.943 144.814 167.977 144.845 167.998C144.546 167.974 144.09 168.155 143.815 168.419C143.67 168.546 143.601 168.683 143.574 168.802C143.563 168.85 143.529 168.892 143.482 168.911C143.356 168.961 143.236 169.052 143.172 169.198C143.079 169.391 143.104 169.615 143.234 169.767C143.48 170.047 143.909 170.037 144.111 169.789C144.168 169.73 144.206 169.661 144.227 169.586C144.24 169.542 144.276 169.509 144.321 169.499C144.434 169.476 144.541 169.408 144.67 169.296C144.911 169.063 145.135 168.703 145.172 168.41C145.185 168.444 145.212 168.481 145.255 168.519C145.348 168.599 145.475 168.649 145.514 168.607C145.553 168.564 145.491 168.443 145.4 168.361C145.392 168.356 145.387 168.352 145.38 168.346L145.42 168.323C145.585 168.201 145.638 167.983 145.536 167.831C145.43 167.676 145.196 167.653 145.016 167.785Z" fill="black"/>
<path d="M148.255 166.251L148.207 166.269C148.208 166.26 148.208 166.253 148.209 166.243C148.201 166.121 148.141 165.999 148.075 166.006C148.009 166.012 147.964 166.143 147.975 166.264C147.98 166.32 147.996 166.363 148.017 166.394C147.745 166.255 147.251 166.268 146.897 166.421C146.715 166.494 146.599 166.587 146.532 166.691C146.505 166.733 146.458 166.761 146.408 166.761C146.272 166.764 146.129 166.809 146.015 166.918C145.858 167.063 145.798 167.28 145.862 167.468C145.984 167.817 146.388 167.964 146.673 167.805C146.748 167.769 146.809 167.717 146.856 167.653C146.884 167.616 146.93 167.598 146.976 167.605C147.088 167.618 147.219 167.602 147.378 167.539C147.685 167.406 148.023 167.145 148.168 166.894C148.168 166.93 148.179 166.975 148.205 167.026C148.262 167.133 148.361 167.224 148.412 167.197C148.463 167.17 148.451 167.035 148.397 166.926C148.392 166.918 148.388 166.913 148.384 166.905L148.429 166.897C148.628 166.844 148.762 166.668 148.722 166.485C148.684 166.307 148.472 166.194 148.255 166.251Z" fill="black"/>
<path d="M151.853 166.048L151.803 166.045C151.807 166.037 151.81 166.031 151.814 166.022C151.857 165.908 151.852 165.773 151.788 165.752C151.724 165.731 151.629 165.833 151.59 165.948C151.572 166.001 151.569 166.047 151.577 166.084C151.382 165.852 150.919 165.677 150.529 165.679C150.332 165.677 150.187 165.728 150.084 165.794C150.042 165.821 149.988 165.828 149.941 165.809C149.814 165.761 149.665 165.76 149.516 165.812C149.312 165.879 149.176 166.074 149.163 166.269C149.144 166.644 149.459 166.906 149.784 166.88C149.867 166.872 149.943 166.841 150.01 166.802C150.05 166.779 150.1 166.78 150.14 166.804C150.238 166.865 150.365 166.89 150.534 166.892C150.867 166.891 151.278 166.777 151.513 166.602C151.498 166.635 151.49 166.68 151.494 166.737C151.503 166.858 151.556 166.98 151.613 166.976C151.67 166.972 151.713 166.843 151.709 166.723C151.707 166.713 151.706 166.706 151.705 166.698C151.72 166.702 151.734 166.706 151.75 166.708C151.953 166.733 152.151 166.624 152.187 166.441C152.223 166.262 152.078 166.076 151.853 166.048Z" fill="black"/>
<path d="M155.058 165.768L155.014 165.789C155.014 165.78 155.013 165.773 155.012 165.763C154.991 165.643 154.919 165.528 154.858 165.538C154.797 165.549 154.77 165.681 154.791 165.8C154.801 165.856 154.82 165.898 154.843 165.927C154.568 165.811 154.107 165.834 153.793 165.934C153.716 165.959 153.651 165.988 153.613 166.015C153.583 166.032 153.594 166.038 153.589 166.053C153.587 166.068 153.552 166.083 153.538 166.101C153.507 166.129 153.465 166.134 153.43 166.115C153.335 166.06 153.232 166.038 153.106 166.061C152.935 166.091 152.755 166.219 152.674 166.402C152.522 166.739 152.722 167.124 153.153 167.159C153.259 167.167 153.362 167.147 153.451 167.11C153.503 167.086 153.564 167.088 153.615 167.11C153.651 167.122 153.672 167.137 153.728 167.141C153.782 167.146 153.856 167.144 153.893 167.141C153.99 167.136 154.078 167.119 154.175 167.088C154.548 166.968 154.904 166.68 155.034 166.413C155.036 166.45 155.05 166.494 155.081 166.542C155.147 166.645 155.259 166.724 155.312 166.692C155.365 166.659 155.339 166.526 155.273 166.423C155.267 166.416 155.263 166.411 155.257 166.404L155.303 166.391C155.505 166.314 155.613 166.113 155.545 165.941C155.478 165.769 155.259 165.691 155.058 165.768Z" fill="black"/>
<path d="M139.508 174.75L139.519 174.803C139.51 174.801 139.503 174.799 139.493 174.797C139.369 174.784 139.237 174.826 139.234 174.897C139.231 174.969 139.357 175.039 139.481 175.047C139.538 175.052 139.584 175.042 139.618 175.024C139.44 175.287 139.416 175.825 139.493 176.167C139.533 176.352 139.597 176.481 139.679 176.571C139.713 176.607 139.728 176.659 139.714 176.706C139.678 176.833 139.683 176.974 139.741 177.112C139.821 177.299 139.995 177.434 140.197 177.467C140.573 177.538 140.882 177.189 140.816 176.794C140.801 176.696 140.764 176.608 140.713 176.534C140.683 176.49 140.677 176.434 140.694 176.385C140.736 176.265 140.745 176.112 140.703 175.916C140.613 175.51 140.378 175.142 140.144 174.948C140.181 174.955 140.228 174.951 140.282 174.931C140.399 174.89 140.505 174.803 140.485 174.746C140.466 174.689 140.327 174.679 140.21 174.716C140.201 174.72 140.195 174.723 140.187 174.726L140.185 174.678C140.154 174.463 140.006 174.293 139.814 174.301C139.63 174.308 139.475 174.511 139.508 174.75Z" fill="black"/>
<path d="M140.075 170.967L140.06 171.019C140.052 171.012 140.047 171.008 140.039 171.001C139.937 170.932 139.801 170.907 139.764 170.968C139.727 171.029 139.805 171.149 139.909 171.215C139.957 171.246 140.002 171.259 140.04 171.259C139.755 171.405 139.462 171.843 139.374 172.251C139.32 172.454 139.343 172.618 139.384 172.74C139.402 172.789 139.398 172.847 139.368 172.893C139.287 173.014 139.262 173.173 139.282 173.34C139.307 173.567 139.478 173.75 139.672 173.801C140.044 173.891 140.362 173.616 140.403 173.279C140.411 173.192 140.395 173.108 140.373 173.03C140.359 172.984 140.371 172.934 140.403 172.898C140.486 172.81 140.534 172.685 140.582 172.512C140.656 172.171 140.647 171.722 140.538 171.441C140.568 171.465 140.611 171.483 140.668 171.492C140.791 171.51 140.926 171.483 140.936 171.423C140.947 171.363 140.83 171.289 140.709 171.267C140.699 171.267 140.692 171.266 140.683 171.265L140.705 171.221C140.789 171.02 140.734 170.797 140.562 170.716C140.395 170.637 140.168 170.746 140.075 170.967Z" fill="black"/>
<path d="M142.216 167.801L142.182 167.842C142.178 167.834 142.174 167.828 142.169 167.819C142.099 167.719 141.981 167.647 141.924 167.688C141.866 167.728 141.898 167.87 141.971 167.968C142.005 168.014 142.041 168.043 142.076 168.057C141.761 168.092 141.328 168.375 141.08 168.7C140.958 168.867 140.901 169.015 140.889 169.141C140.883 169.193 140.854 169.242 140.808 169.27C140.689 169.347 140.59 169.471 140.536 169.628C140.457 169.839 140.525 170.076 140.674 170.209C140.962 170.457 141.374 170.354 141.569 170.061C141.617 169.985 141.643 169.902 141.654 169.819C141.662 169.771 141.695 169.73 141.741 169.711C141.854 169.663 141.963 169.573 142.072 169.424C142.293 169.136 142.47 168.71 142.471 168.406C142.49 168.438 142.523 168.471 142.573 168.499C142.681 168.561 142.814 168.579 142.85 168.528C142.884 168.475 142.803 168.366 142.697 168.302C142.689 168.298 142.682 168.296 142.674 168.292L142.712 168.259C142.869 168.099 142.889 167.863 142.757 167.731C142.625 167.6 142.383 167.632 142.216 167.801Z" fill="black"/>
<path d="M139.782 178.704L139.79 178.756C139.781 178.754 139.774 178.752 139.764 178.75C139.641 178.734 139.508 178.774 139.501 178.843C139.493 178.912 139.622 178.982 139.745 178.994C139.803 179.001 139.849 178.992 139.883 178.976C139.7 179.23 139.628 179.736 139.711 180.134C139.756 180.334 139.831 180.474 139.92 180.567C139.955 180.605 139.973 180.659 139.964 180.712C139.944 180.85 139.973 181.005 140.056 181.149C140.164 181.347 140.39 181.455 140.59 181.434C140.971 181.389 141.166 181.018 141.072 180.681C141.046 180.595 141.001 180.521 140.945 180.458C140.913 180.42 140.904 180.368 140.92 180.321C140.959 180.207 140.963 180.067 140.922 179.888C140.85 179.535 140.642 179.122 140.412 178.919C140.449 178.926 140.496 178.924 140.551 178.906C140.668 178.868 140.771 178.783 140.756 178.722C140.739 178.662 140.602 178.649 140.483 178.684C140.474 178.688 140.468 178.691 140.46 178.694L140.46 178.645C140.442 178.423 140.276 178.251 140.088 178.261C139.901 178.27 139.763 178.469 139.782 178.704Z" fill="black"/>
<path d="M145.217 165.417L145.171 165.445C145.17 165.436 145.168 165.429 145.167 165.419C145.132 165.303 145.042 165.199 144.973 165.222C144.904 165.246 144.889 165.39 144.928 165.505C144.947 165.559 144.973 165.597 145.002 165.621C144.69 165.564 144.179 165.716 143.855 165.968C143.687 166.091 143.592 166.217 143.547 166.337C143.529 166.386 143.487 166.425 143.436 166.44C143.297 166.478 143.168 166.565 143.074 166.7C142.944 166.881 142.927 167.114 143.03 167.289C143.219 167.612 143.659 167.645 143.933 167.407C144 167.345 144.055 167.277 144.09 167.2C144.111 167.156 144.155 167.124 144.205 167.117C144.325 167.099 144.457 167.041 144.606 166.932C144.894 166.707 145.182 166.359 145.273 166.069C145.282 166.106 145.303 166.146 145.342 166.188C145.426 166.278 145.547 166.337 145.594 166.298C145.641 166.26 145.598 166.132 145.517 166.039C145.51 166.032 145.505 166.027 145.499 166.021L145.545 166.002C145.74 165.9 145.834 165.683 145.756 165.519C145.675 165.349 145.434 165.303 145.217 165.417Z" fill="black"/>
<path d="M148.968 164.417L148.915 164.425C148.917 164.416 148.919 164.409 148.921 164.4C148.94 164.279 148.904 164.148 148.833 164.141C148.763 164.135 148.688 164.254 148.672 164.375C148.665 164.431 148.672 164.476 148.687 164.511C148.433 164.323 147.915 164.242 147.504 164.323C147.296 164.359 147.151 164.441 147.055 164.525C147.015 164.561 146.959 164.579 146.906 164.57C146.763 164.553 146.602 164.582 146.454 164.666C146.253 164.785 146.145 165.002 146.172 165.198C146.232 165.57 146.615 165.753 146.949 165.656C147.034 165.631 147.108 165.587 147.171 165.53C147.208 165.499 147.261 165.491 147.308 165.507C147.424 165.547 147.562 165.544 147.744 165.513C148.098 165.444 148.521 165.25 148.733 165.03C148.725 165.066 148.726 165.112 148.742 165.166C148.778 165.283 148.864 165.391 148.925 165.374C148.986 165.358 149.003 165.223 148.97 165.106C148.967 165.097 148.964 165.091 148.961 165.083L149.011 165.083C149.236 165.065 149.417 164.918 149.412 164.731C149.406 164.549 149.208 164.398 148.968 164.417Z" fill="black"/>
<path d="M146.113 163.081L146.063 163.101C146.064 163.091 146.064 163.084 146.064 163.074C146.054 162.953 145.988 162.833 145.918 162.843C145.848 162.852 145.803 162.986 145.815 163.106C145.821 163.163 145.839 163.205 145.862 163.235C145.571 163.11 145.048 163.148 144.666 163.319C144.472 163.401 144.35 163.513 144.276 163.617C144.247 163.661 144.196 163.691 144.142 163.694C143.999 163.71 143.849 163.774 143.725 163.889C143.558 164.051 143.503 164.286 143.575 164.47C143.72 164.819 144.136 164.91 144.438 164.742C144.515 164.697 144.577 164.638 144.625 164.569C144.654 164.53 144.703 164.51 144.753 164.515C144.875 164.528 145.008 164.494 145.178 164.423C145.507 164.276 145.873 163.992 146.029 163.73C146.029 163.767 146.041 163.811 146.069 163.861C146.132 163.966 146.24 164.052 146.296 164.022C146.352 163.992 146.337 163.857 146.277 163.751C146.271 163.743 146.267 163.738 146.262 163.731L146.312 163.719C146.526 163.651 146.668 163.467 146.619 163.287C146.571 163.111 146.342 163.008 146.113 163.081Z" fill="black"/>
<path d="M152.774 164.555L152.722 164.556C152.726 164.547 152.728 164.541 152.732 164.531C152.765 164.414 152.746 164.28 152.683 164.264C152.619 164.248 152.533 164.357 152.499 164.474C152.483 164.528 152.483 164.574 152.493 164.61C152.275 164.392 151.819 164.215 151.428 164.185C151.23 164.17 151.079 164.197 150.964 164.252C150.918 164.274 150.862 164.275 150.815 164.251C150.691 164.186 150.538 164.158 150.364 164.19C150.143 164.238 149.968 164.397 149.92 164.592C149.827 164.956 150.136 165.273 150.485 165.285C150.576 165.289 150.665 165.274 150.747 165.243C150.795 165.225 150.849 165.232 150.892 165.261C150.994 165.332 151.136 165.38 151.333 165.395C151.72 165.424 152.208 165.32 152.458 165.13C152.443 165.165 152.437 165.21 152.445 165.266C152.463 165.387 152.537 165.506 152.605 165.498C152.674 165.49 152.709 165.359 152.689 165.238C152.687 165.229 152.685 165.223 152.683 165.214L152.735 165.221C152.972 165.235 153.172 165.091 153.176 164.907C153.181 164.723 153.003 164.568 152.774 164.555Z" fill="black"/>
<path d="M130.325 179.705C130.305 179.775 130.24 179.82 130.167 179.829C129.148 179.946 128.553 180.08 128.099 180.318C127.653 180.532 127.391 180.809 127.395 180.895C127.4 180.981 127.697 181.246 128.283 181.29C128.429 181.306 128.588 181.284 128.763 181.258C128.938 181.235 129.123 181.18 129.312 181.089C129.503 181.007 129.697 180.895 129.88 180.735C130.069 180.59 130.241 180.395 130.392 180.168C130.434 180.105 130.511 180.07 130.588 180.071C130.862 180.068 131.158 180.031 131.271 179.944C131.38 179.848 131.302 179.73 130.902 179.546C130.752 179.126 130.628 179.052 130.55 179.134C130.463 179.209 130.395 179.444 130.325 179.705Z" fill="black"/>
<path d="M132.557 176.34C132.589 176.405 132.58 176.484 132.535 176.54C131.85 177.307 131.543 177.837 131.369 178.301C131.202 178.751 131.211 179.136 131.274 179.196C131.336 179.257 131.733 179.243 132.19 178.874C132.642 178.523 133.097 177.717 132.933 176.644C132.918 176.568 132.943 176.491 133 176.442C133.438 176.081 133.749 175.607 132.888 175.847C132.109 175.41 132.337 175.867 132.557 176.34Z" fill="black"/>
<path d="M132.355 172.257C132.415 172.296 132.446 172.369 132.437 172.44C132.288 173.443 132.32 174.075 132.476 174.565C132.608 175.042 132.865 175.337 132.953 175.345C133.04 175.354 133.333 175.101 133.484 174.554C133.617 174.025 133.563 173.137 132.829 172.317C132.778 172.26 132.76 172.18 132.784 172.108C132.935 171.578 132.954 170.991 132.356 171.669C131.48 171.723 131.891 171.986 132.355 172.257Z" fill="black"/>
<path d="M129.706 169.215C129.777 169.201 129.856 169.223 129.895 169.287C130.472 170.124 130.863 170.573 131.285 170.86C131.474 171.012 131.667 171.107 131.823 171.163C131.968 171.225 132.081 171.242 132.12 171.22C132.158 171.199 132.203 171.096 132.219 170.926C132.224 170.762 132.191 170.533 132.086 170.261C131.959 170.007 131.767 169.701 131.429 169.452C131.106 169.194 130.642 168.996 130.097 168.935C130.023 168.922 129.948 168.886 129.914 168.818C129.658 168.311 129.237 167.909 129.295 168.787C128.698 169.442 129.188 169.313 129.706 169.215Z" fill="black"/>
<path d="M125.626 168.749C125.671 168.693 125.746 168.662 125.817 168.682C126.811 168.954 127.444 169.001 127.949 168.943C128.441 168.876 128.779 168.714 128.809 168.62C128.833 168.551 128.643 168.188 128.103 167.966C127.584 167.733 126.662 167.673 125.738 168.285C125.674 168.327 125.593 168.343 125.522 168.314C124.995 168.087 124.408 168.048 125.03 168.682C125.004 169.56 125.294 169.15 125.626 168.749Z" fill="black"/>
<path d="M122.303 171.051C122.297 170.98 122.335 170.911 122.398 170.875C123.292 170.377 123.782 170.027 124.114 169.654C124.434 169.286 124.591 168.955 124.549 168.862C124.531 168.824 124.433 168.773 124.264 168.748C124.095 168.722 123.851 168.721 123.576 168.819C123.029 168.981 122.267 169.564 122.059 170.645C122.045 170.721 121.992 170.784 121.919 170.811C121.394 171.018 120.92 171.373 121.83 171.412C122.42 172.055 122.366 171.572 122.303 171.051Z" fill="black"/>
<path d="M121.317 175C121.269 174.945 121.259 174.867 121.287 174.801C121.716 173.868 121.853 173.25 121.839 172.745C121.837 172.255 121.696 171.905 121.615 171.871C121.535 171.837 121.162 171.986 120.867 172.481C120.588 172.962 120.404 173.83 120.875 174.809C120.909 174.877 120.905 174.958 120.862 175.02C120.699 175.248 120.573 175.501 120.591 175.637C120.604 175.776 120.747 175.782 121.134 175.563C121.566 175.681 121.7 175.625 121.681 175.511C121.656 175.395 121.486 175.203 121.317 175Z" fill="black"/>
<path d="M122.732 178.802C122.66 178.788 122.603 178.732 122.586 178.664C122.373 177.68 122.165 177.103 121.885 176.679C121.606 176.27 121.307 176.045 121.208 176.063C121.134 176.075 120.889 176.401 120.921 176.97C120.935 177.521 121.27 178.387 122.26 178.912C122.331 178.947 122.378 179.014 122.383 179.089C122.394 179.37 122.466 179.646 122.569 179.746C122.671 179.849 122.783 179.764 122.942 179.352C123.351 179.176 123.416 179.047 123.332 178.973C123.243 178.899 122.989 178.862 122.732 178.802Z" fill="black"/>
<path d="M126.339 180.655C126.278 180.691 126.198 180.687 126.137 180.647C125.278 180.084 124.734 179.818 124.24 179.706C123.763 179.592 123.388 179.614 123.327 179.687C123.276 179.745 123.307 180.152 123.731 180.56C124.135 180.956 125.005 181.348 126.08 181.047C126.154 181.027 126.235 181.046 126.292 181.099C126.715 181.456 127.244 181.733 126.881 180.908C127.211 180.112 126.789 180.357 126.339 180.655Z" fill="black"/>
<path d="M130.326 183.62C130.289 183.68 130.219 183.712 130.15 183.703C129.656 183.641 129.246 183.593 128.913 183.644C128.569 183.654 128.292 183.729 128.065 183.83C127.61 184.003 127.354 184.273 127.357 184.366C127.359 184.446 127.635 184.716 128.168 184.813C128.432 184.847 128.759 184.84 129.128 184.753C129.487 184.624 129.899 184.45 130.276 184.088C130.329 184.037 130.405 184.019 130.475 184.042C130.729 184.127 131.002 184.193 131.125 184.149C131.247 184.099 131.215 183.961 130.907 183.656C130.897 183.214 130.81 183.102 130.709 183.154C130.603 183.201 130.464 183.399 130.326 183.62Z" fill="black"/>
<path d="M133.718 181.557C133.709 181.625 133.659 181.681 133.59 181.701C133.347 181.772 133.141 181.853 132.956 181.934C132.762 182.003 132.595 182.081 132.45 182.165C132.169 182.345 131.932 182.496 131.77 182.679C131.608 182.862 131.495 183.035 131.422 183.167C131.352 183.304 131.331 183.413 131.351 183.453C131.369 183.491 131.467 183.543 131.63 183.574C131.795 183.61 132.019 183.611 132.276 183.534C132.533 183.457 132.85 183.343 133.127 183.077C133.269 182.951 133.412 182.801 133.546 182.629C133.67 182.443 133.78 182.228 133.877 181.992C133.904 181.926 133.966 181.879 134.041 181.871C134.575 181.797 135.089 181.596 134.24 181.324C133.818 180.56 133.757 181.043 133.718 181.557Z" fill="black"/>
<path d="M135.811 178.219C135.837 178.286 135.82 178.359 135.771 178.408C135.391 178.741 135.144 179.046 134.951 179.32C134.746 179.587 134.657 179.858 134.576 180.081C134.425 180.529 134.49 180.906 134.56 180.962C134.627 181.014 134.998 180.968 135.42 180.622C135.633 180.453 135.81 180.181 135.971 179.842C136.12 179.499 136.19 179.052 136.158 178.549C136.149 178.476 136.18 178.406 136.241 178.367C136.69 178.075 137.095 177.694 136.194 177.792C135.498 177.277 135.622 177.737 135.811 178.219Z" fill="black"/>
<path d="M136.399 174.314C136.447 174.367 136.458 174.442 136.429 174.505C136.209 174.953 136.067 175.329 136.019 175.662C135.937 175.99 135.936 176.274 135.974 176.516C136.027 176.993 136.223 177.305 136.315 177.328C136.393 177.347 136.734 177.158 136.968 176.679C137.072 176.44 137.152 176.13 137.165 175.76C137.144 175.389 137.069 174.958 136.842 174.5C136.807 174.436 136.811 174.36 136.855 174.302C137.169 173.875 137.412 173.386 136.604 173.781C135.767 173.532 136.049 173.927 136.399 174.314Z" fill="black"/>
<path d="M135.571 170.457C135.635 170.489 135.672 170.555 135.669 170.623C135.631 171.116 135.633 171.513 135.698 171.84C135.737 172.174 135.836 172.44 135.958 172.654C136.16 173.088 136.467 173.314 136.557 173.305C136.641 173.296 136.882 173.006 136.95 172.477C136.962 172.216 136.928 171.897 136.809 171.545C136.664 171.2 136.435 170.817 136.051 170.472C135.995 170.424 135.971 170.351 135.989 170.281C136.057 170.026 136.099 169.757 136.05 169.638C135.994 169.52 135.857 169.561 135.563 169.887C135.12 169.925 135.011 170.019 135.068 170.116C135.118 170.219 135.335 170.339 135.571 170.457Z" fill="black"/>
<path d="M133.232 167.284C133.302 167.287 133.363 167.332 133.388 167.397C133.759 168.301 134.119 168.808 134.51 169.11C134.9 169.403 135.237 169.516 135.326 169.467C135.391 169.433 135.533 169.052 135.344 168.555C135.243 168.314 135.113 168.006 134.821 167.755C134.682 167.625 134.519 167.497 134.333 167.378C134.145 167.262 133.91 167.176 133.665 167.097C133.595 167.076 133.542 167.018 133.529 166.945C133.424 166.421 133.176 165.941 132.961 166.787C132.21 167.256 132.713 167.273 133.232 167.284Z" fill="black"/>
<path d="M129.693 165.47C129.759 165.439 129.835 165.45 129.888 165.494C130.618 166.179 131.19 166.434 131.672 166.545C132.139 166.661 132.523 166.565 132.569 166.499C132.623 166.423 132.545 166.07 132.164 165.682C131.788 165.307 131.035 164.961 130.002 165.105C129.929 165.12 129.855 165.094 129.81 165.038C129.48 164.624 129.06 164.259 129.229 165.131C128.758 165.852 129.216 165.694 129.693 165.47Z" fill="black"/>
<path d="M125.683 165.21C125.732 165.158 125.807 165.14 125.874 165.162C126.347 165.345 126.739 165.436 127.079 165.47C127.419 165.521 127.707 165.498 127.951 165.44C128.429 165.361 128.733 165.134 128.749 165.046C128.763 164.964 128.543 164.657 128.038 164.455C127.786 164.373 127.465 164.322 127.087 164.341C126.711 164.378 126.276 164.505 125.831 164.759C125.769 164.799 125.69 164.803 125.627 164.766C125.163 164.501 124.636 164.313 125.123 165.062C124.959 165.902 125.325 165.59 125.683 165.21Z" fill="black"/>
<path d="M121.906 166.495C121.929 166.429 121.99 166.384 122.061 166.378C122.55 166.32 122.963 166.292 123.277 166.174C123.602 166.083 123.861 165.969 124.06 165.822C124.466 165.561 124.666 165.252 124.645 165.161C124.628 165.084 124.303 164.866 123.759 164.879C123.493 164.901 123.166 164.961 122.827 165.136C122.502 165.335 122.131 165.585 121.85 166.031C121.809 166.091 121.738 166.124 121.664 166.116C121.109 166.041 120.584 166.153 121.337 166.595C121.579 167.447 121.728 166.959 121.906 166.495Z" fill="black"/>
<path d="M119.101 169.275C119.09 169.205 119.117 169.133 119.183 169.101C119.634 168.86 119.926 168.607 120.189 168.393C120.313 168.28 120.414 168.166 120.498 168.051C120.586 167.941 120.666 167.84 120.726 167.736C120.849 167.531 120.911 167.329 120.943 167.176C120.98 167.029 120.975 166.92 120.947 166.885C120.92 166.852 120.812 166.822 120.644 166.827C120.482 166.838 120.271 166.897 120.03 167.021C119.911 167.085 119.779 167.161 119.658 167.267C119.541 167.377 119.424 167.508 119.312 167.661C119.075 167.955 118.923 168.388 118.836 168.883C118.822 168.951 118.78 169.016 118.712 169.042C118.217 169.239 117.744 169.535 118.643 169.618C119.22 170.263 119.188 169.789 119.101 169.275Z" fill="black"/>
<path d="M117.775 172.987C117.737 172.927 117.74 172.851 117.779 172.794C118.069 172.39 118.28 172.047 118.39 171.732C118.532 171.426 118.585 171.149 118.593 170.905C118.646 170.435 118.505 170.084 118.423 170.045C118.347 170.01 117.987 170.133 117.65 170.556C117.502 170.773 117.364 171.066 117.281 171.429C117.232 171.799 117.223 172.239 117.372 172.729C117.394 172.798 117.377 172.873 117.324 172.923C116.939 173.292 116.613 173.736 117.479 173.478C118.26 173.859 118.052 173.426 117.775 172.987Z" fill="black"/>
<path d="M117.888 176.939C117.831 176.894 117.807 176.823 117.824 176.756C117.971 176.278 118.03 175.886 118.034 175.55C118.057 175.212 118.008 174.931 117.927 174.698C117.797 174.235 117.541 173.961 117.448 173.956C117.365 173.95 117.071 174.196 116.919 174.704C116.859 174.957 116.835 175.275 116.887 175.641C116.958 176.004 117.124 176.417 117.418 176.831C117.464 176.888 117.474 176.965 117.442 177.029C117.21 177.504 117.061 178.033 117.784 177.498C118.651 177.592 118.303 177.258 117.888 176.939Z" fill="black"/>
<path d="M119.472 180.546C119.403 180.527 119.353 180.471 119.342 180.402C119.296 180.155 119.255 179.94 119.219 179.746C119.175 179.549 119.118 179.377 119.051 179.225C118.94 178.91 118.799 178.666 118.637 178.481C118.344 178.101 118.011 177.931 117.921 177.958C117.843 177.981 117.65 178.314 117.7 178.845C117.74 179.103 117.83 179.416 118.026 179.737C118.135 179.892 118.267 180.05 118.424 180.204C118.575 180.363 118.769 180.507 119.002 180.631C119.066 180.667 119.105 180.734 119.102 180.807C119.064 181.353 119.204 181.864 119.609 181.097C120.458 180.809 119.959 180.688 119.472 180.546Z" fill="black"/>
<path d="M122.477 183.115C122.405 183.134 122.334 183.105 122.296 183.044C122.019 182.623 121.747 182.349 121.511 182.107C121.388 181.993 121.264 181.903 121.143 181.828C121.031 181.742 120.918 181.675 120.809 181.622C120.365 181.422 119.997 181.4 119.93 181.459C119.866 181.515 119.828 181.903 120.126 182.349C120.198 182.462 120.287 182.581 120.397 182.699C120.517 182.806 120.659 182.912 120.822 183.011C121.138 183.223 121.585 183.35 122.097 183.398C122.168 183.406 122.234 183.45 122.266 183.511C122.5 183.981 122.836 184.423 122.858 183.538C123.475 182.928 122.995 182.993 122.477 183.115Z" fill="black"/>
<path d="M126.345 184.13C126.287 184.172 126.21 184.176 126.149 184.142C125.715 183.891 125.351 183.715 125.023 183.631C124.702 183.516 124.417 183.486 124.168 183.497C123.689 183.477 123.341 183.643 123.307 183.725C123.276 183.803 123.428 184.142 123.883 184.446C124.116 184.573 124.424 184.685 124.801 184.738C125.181 184.76 125.632 184.731 126.117 184.545C126.186 184.518 126.263 184.529 126.319 184.576C126.726 184.921 127.207 185.202 126.868 184.377C127.188 183.582 126.768 183.822 126.345 184.13Z" fill="black"/>
<path d="M129.194 182.234C129.152 182.292 129.079 182.321 129.009 182.31C128.503 182.197 128.105 182.166 127.757 182.146C127.413 182.15 127.125 182.178 126.882 182.241C126.4 182.384 126.1 182.58 126.089 182.682C126.084 182.723 126.141 182.819 126.267 182.928C126.393 183.041 126.588 183.162 126.858 183.229C127.126 183.305 127.468 183.35 127.86 183.27C128.252 183.216 128.691 183.019 129.112 182.701C129.17 182.652 129.249 182.637 129.32 182.663C129.845 182.87 130.409 182.906 129.784 182.284C129.785 181.405 129.501 181.822 129.194 182.234Z" fill="black"/>
<path d="M132.621 180.087C132.618 180.158 132.568 180.217 132.5 180.243C131.559 180.62 131.027 180.946 130.689 181.317C130.348 181.661 130.217 182.022 130.25 182.096C130.287 182.18 130.649 182.311 131.201 182.168C131.474 182.097 131.777 181.929 132.079 181.672C132.22 181.532 132.36 181.369 132.491 181.182C132.62 180.995 132.716 180.759 132.805 180.515C132.829 180.445 132.892 180.394 132.966 180.379C133.493 180.248 134.02 180.006 133.134 179.805C132.665 179.079 132.62 179.556 132.621 180.087Z" fill="black"/>
<path d="M134.42 176.468C134.452 176.533 134.446 176.611 134.4 176.666C134.051 177.051 133.846 177.393 133.67 177.691C133.52 177.999 133.415 178.264 133.368 178.506C133.282 178.992 133.335 179.344 133.42 179.399C133.481 179.44 133.894 179.378 134.261 178.964C134.645 178.571 134.982 177.797 134.8 176.763C134.786 176.691 134.807 176.615 134.864 176.567C135.276 176.216 135.635 175.778 134.751 175.985C134 175.54 134.176 175.996 134.42 176.468Z" fill="black"/>
<path d="M134.469 172.427C134.526 172.471 134.559 172.543 134.534 172.613C134.461 172.859 134.411 173.08 134.383 173.281C134.351 173.483 134.315 173.67 134.311 173.84C134.31 174.18 134.313 174.468 134.383 174.709C134.509 175.188 134.721 175.484 134.821 175.496C134.896 175.506 135.231 175.275 135.391 174.753C135.555 174.245 135.566 173.4 134.939 172.534C134.901 172.473 134.882 172.395 134.913 172.328C135.131 171.833 135.248 171.277 134.553 171.852C133.679 171.785 134.044 172.107 134.469 172.427Z" fill="black"/>
<path d="M132.526 168.917C132.597 168.926 132.657 168.976 132.679 169.043C132.973 170 133.296 170.525 133.627 170.898C133.974 171.249 134.297 171.418 134.389 171.385C134.462 171.359 134.656 171.001 134.532 170.461C134.441 169.925 133.98 169.173 132.978 168.765C132.908 168.738 132.857 168.675 132.848 168.601C132.772 168.055 132.53 167.551 132.279 168.392C131.498 168.817 132.006 168.86 132.526 168.917Z" fill="black"/>
<path d="M128.949 166.993C129.016 166.96 129.095 166.969 129.148 167.02C129.926 167.674 130.482 167.974 130.979 168.083C131.452 168.209 131.832 168.155 131.889 168.08C131.938 168.018 131.884 167.634 131.491 167.231C131.099 166.854 130.324 166.449 129.254 166.629C129.181 166.637 129.104 166.613 129.056 166.559C128.701 166.153 128.251 165.799 128.46 166.667C128.004 167.401 128.466 167.23 128.949 166.993Z" fill="black"/>
<path d="M124.857 167.038C124.899 166.979 124.972 166.95 125.042 166.961C125.548 167.074 125.945 167.106 126.293 167.126C126.636 167.12 126.925 167.1 127.167 167.033C127.648 166.899 127.95 166.695 127.962 166.596C127.972 166.525 127.735 166.191 127.195 166.045C126.671 165.882 125.791 165.914 124.939 166.57C124.881 166.619 124.801 166.635 124.731 166.609C124.206 166.404 123.641 166.367 124.267 166.988C124.268 167.866 124.551 167.452 124.857 167.038Z" fill="black"/>
<path d="M121.436 169.193C121.439 169.122 121.489 169.063 121.557 169.037C122.497 168.658 123.028 168.329 123.365 167.959C123.537 167.788 123.652 167.611 123.722 167.464C123.794 167.323 123.822 167.22 123.802 167.179C123.764 167.095 123.401 166.962 122.85 167.109C122.576 167.18 122.276 167.35 121.974 167.606C121.833 167.747 121.694 167.911 121.564 168.098C121.434 168.285 121.34 168.522 121.251 168.765C121.227 168.835 121.164 168.887 121.091 168.902C120.564 169.034 120.037 169.276 120.923 169.476C121.394 170.201 121.437 169.724 121.436 169.193Z" fill="black"/>
<path d="M119.64 172.814C119.608 172.749 119.614 172.671 119.66 172.617C120.009 172.232 120.214 171.889 120.39 171.591C120.54 171.283 120.645 171.018 120.691 170.775C120.777 170.29 120.723 169.938 120.638 169.882C120.577 169.841 120.164 169.904 119.798 170.318C119.415 170.712 119.077 171.485 119.26 172.519C119.274 172.592 119.253 172.668 119.196 172.715C118.784 173.067 118.425 173.504 119.309 173.297C120.059 173.742 119.884 173.286 119.64 172.814Z" fill="black"/>
<path d="M119.589 176.856C119.533 176.812 119.5 176.74 119.524 176.67C119.598 176.424 119.647 176.203 119.676 176.002C119.709 175.799 119.744 175.613 119.749 175.443C119.75 175.102 119.746 174.814 119.676 174.574C119.55 174.095 119.338 173.798 119.239 173.786C119.164 173.776 118.828 174.008 118.669 174.53C118.504 175.038 118.494 175.882 119.12 176.749C119.158 176.81 119.176 176.887 119.145 176.954C118.926 177.449 118.809 178.005 119.504 177.431C120.379 177.499 120.014 177.177 119.589 176.856Z" fill="black"/>
<path d="M121.524 180.371C121.453 180.363 121.394 180.312 121.372 180.245C121.079 179.288 120.759 178.761 120.428 178.387C120.083 178.035 119.76 177.866 119.668 177.899C119.595 177.924 119.4 178.282 119.523 178.822C119.612 179.358 120.07 180.111 121.072 180.522C121.142 180.55 121.192 180.613 121.202 180.687C121.277 181.232 121.516 181.738 121.77 180.896C122.55 180.475 122.045 180.429 121.524 180.371Z" fill="black"/>
<path d="M125.1 182.29C125.034 182.321 124.954 182.317 124.9 182.268C124.123 181.609 123.563 181.321 123.069 181.207C122.595 181.083 122.218 181.133 122.16 181.209C122.111 181.27 122.162 181.658 122.557 182.058C122.946 182.441 123.729 182.835 124.795 182.659C124.869 182.65 124.947 182.668 124.995 182.725C125.352 183.131 125.805 183.486 125.59 182.617C126.038 181.882 125.581 182.053 125.1 182.29Z" fill="black"/>
<path d="M101.702 166.209C101.904 165.145 100.854 164.001 99.6896 164.519C99.6525 164.529 99.6049 164.573 99.6506 164.609C100.543 165.141 100.937 166.378 100.543 167.412C100.536 167.44 100.546 167.454 100.561 167.46C100.567 167.475 100.579 167.486 100.603 167.479C101.537 167.042 102.655 167.477 103.136 168.465C103.17 168.517 103.206 168.462 103.217 168.422C103.681 167.135 102.661 165.985 101.702 166.209Z" fill="black"/>
<path d="M106.226 160.163C106.428 159.099 105.378 157.955 104.213 158.473C104.176 158.483 104.129 158.528 104.174 158.563C105.067 159.095 105.461 160.332 105.067 161.366C105.06 161.394 105.07 161.408 105.085 161.414C105.091 161.43 105.103 161.44 105.127 161.433C106.061 160.996 107.178 161.431 107.66 162.419C107.694 162.471 107.73 162.416 107.741 162.376C108.205 161.089 107.185 159.939 106.226 160.163Z" fill="black"/>
<path d="M115.081 158.818C115.284 157.755 114.234 156.611 113.069 157.129C113.032 157.139 112.985 157.183 113.03 157.218C113.922 157.751 114.317 158.988 113.922 160.022C113.915 160.05 113.925 160.064 113.941 160.07C113.947 160.085 113.959 160.096 113.983 160.088C114.917 159.652 116.034 160.087 116.515 161.075C116.55 161.127 116.586 161.072 116.597 161.032C117.061 159.745 116.041 158.595 115.081 158.818Z" fill="black"/>
<path d="M97.522 170.999C97.7243 169.935 96.6742 168.791 95.5099 169.309C95.4728 169.32 95.4252 169.364 95.4709 169.399C96.3631 169.932 96.7572 171.168 96.3631 172.202C96.3562 172.231 96.366 172.244 96.3812 172.25C96.3875 172.266 96.3996 172.277 96.4234 172.269C97.3575 171.833 98.4748 172.268 98.9562 173.256C98.9907 173.308 99.0262 173.252 99.0376 173.213C99.5012 171.926 98.4818 170.775 97.522 170.999Z" fill="black"/>
<path d="M93.0699 178.856C93.2722 177.792 92.222 176.648 91.0577 177.166C91.0206 177.176 90.9731 177.221 91.0187 177.256C91.911 177.789 92.3051 179.025 91.911 180.059C91.904 180.088 91.9138 180.101 91.9291 180.107C91.9354 180.123 91.9474 180.133 91.9712 180.126C92.9053 179.69 94.0227 180.124 94.504 181.113C94.5386 181.165 94.5741 181.109 94.5855 181.07C95.0491 179.783 94.0297 178.632 93.0699 178.856Z" fill="black"/>
<path d="M107.407 188.557C107.609 187.493 106.559 186.35 105.395 186.867C105.358 186.878 105.31 186.922 105.356 186.957C106.248 187.49 106.642 188.726 106.248 189.76C106.241 189.789 106.251 189.802 106.266 189.809C106.272 189.824 106.284 189.835 106.308 189.827C107.242 189.391 108.36 189.826 108.841 190.814C108.875 190.866 108.911 190.811 108.922 190.771C109.386 189.484 108.367 188.334 107.407 188.557Z" fill="black"/>
<path d="M105.403 166.209C105.605 165.145 104.555 164.001 103.391 164.519C103.354 164.529 103.306 164.573 103.352 164.609C104.244 165.141 104.638 166.378 104.244 167.412C104.237 167.44 104.247 167.454 104.262 167.46C104.268 167.475 104.28 167.486 104.304 167.479C105.238 167.042 106.356 167.477 106.837 168.465C106.872 168.517 106.907 168.462 106.918 168.422C107.382 167.135 106.363 165.985 105.403 166.209Z" fill="black"/>
<path d="M109.104 166.209C109.306 165.145 108.256 164.001 107.091 164.519C107.054 164.529 107.007 164.573 107.052 164.609C107.945 165.141 108.339 166.378 107.945 167.412C107.938 167.44 107.948 167.454 107.963 167.46C107.969 167.475 107.981 167.486 108.005 167.479C108.939 167.042 110.057 167.477 110.538 168.465C110.572 168.517 110.608 168.462 110.619 168.422C111.083 167.135 110.064 165.985 109.104 166.209Z" fill="black"/>
<path d="M112.805 166.209C113.007 165.145 111.957 164.001 110.792 164.519C110.755 164.529 110.708 164.573 110.753 164.609C111.646 165.141 112.04 166.378 111.645 167.412C111.639 167.44 111.649 167.454 111.664 167.46C111.67 167.475 111.682 167.486 111.706 167.479C112.64 167.042 113.757 167.477 114.239 168.465C114.273 168.517 114.309 168.462 114.32 168.422C114.784 167.135 113.764 165.985 112.805 166.209Z" fill="black"/>
<path d="M101.628 182.895C101.838 181.831 100.747 180.687 99.5368 181.205C99.4981 181.215 99.449 181.259 99.4962 181.295C100.423 181.827 100.833 183.064 100.423 184.098C100.416 184.126 100.426 184.14 100.443 184.146C100.449 184.162 100.462 184.172 100.486 184.165C101.457 183.728 102.618 184.163 103.118 185.151C103.154 185.203 103.191 185.148 103.203 185.108C103.685 183.821 102.626 182.671 101.628 182.895Z" fill="black"/>
<path d="M105.474 182.895C105.685 181.831 104.593 180.687 103.383 181.205C103.344 181.215 103.295 181.259 103.342 181.295C104.27 181.827 104.679 183.064 104.27 184.098C104.263 184.126 104.273 184.14 104.289 184.146C104.296 184.162 104.308 184.172 104.332 184.165C105.303 183.728 106.464 184.163 106.965 185.151C107.001 185.203 107.038 185.148 107.049 185.108C107.531 183.821 106.472 182.671 105.474 182.895Z" fill="black"/>
<path d="M109.321 182.895C109.531 181.831 108.439 180.687 107.23 181.205C107.191 181.215 107.142 181.259 107.189 181.295C108.116 181.827 108.526 183.064 108.116 184.098C108.109 184.126 108.119 184.14 108.135 184.146C108.142 184.162 108.154 184.172 108.179 184.165C109.149 183.728 110.311 184.163 110.811 185.151C110.847 185.203 110.884 185.148 110.896 185.108C111.377 183.821 110.318 182.671 109.321 182.895Z" fill="black"/>
<path d="M113.167 182.895C113.377 181.831 112.286 180.687 111.076 181.205C111.037 181.215 110.988 181.259 111.035 181.295C111.962 181.827 112.372 183.064 111.962 184.098C111.955 184.126 111.966 184.14 111.981 184.146C111.988 184.162 112.001 184.172 112.025 184.165C112.996 183.728 114.157 184.163 114.657 185.151C114.693 185.203 114.73 185.148 114.742 185.108C115.224 183.821 114.165 182.671 113.167 182.895Z" fill="black"/>
<path d="M102.909 178.872C103.17 177.874 102.113 176.835 100.86 177.35C100.821 177.361 100.769 177.404 100.815 177.436C101.733 177.908 102.094 179.051 101.632 180.027C101.623 180.054 101.633 180.066 101.649 180.071C101.655 180.086 101.667 180.095 101.692 180.088C102.698 179.655 103.858 180.029 104.322 180.938C104.356 180.986 104.396 180.933 104.41 180.896C104.957 179.682 103.932 178.637 102.909 178.872Z" fill="black"/>
<path d="M105.163 176.753C105.424 175.755 104.366 174.716 103.114 175.232C103.075 175.243 103.023 175.285 103.069 175.317C103.987 175.789 104.348 176.932 103.886 177.908C103.877 177.935 103.887 177.948 103.903 177.953C103.909 177.967 103.921 177.977 103.946 177.969C104.952 177.536 106.112 177.911 106.576 178.82C106.61 178.867 106.65 178.815 106.664 178.777C107.211 177.563 106.186 176.518 105.163 176.753Z" fill="black"/>
<path d="M107.417 174.635C107.678 173.637 106.62 172.598 105.368 173.114C105.329 173.124 105.276 173.167 105.323 173.199C106.241 173.671 106.602 174.814 106.139 175.79C106.131 175.817 106.141 175.829 106.157 175.834C106.163 175.849 106.175 175.859 106.2 175.851C107.206 175.418 108.366 175.793 108.83 176.702C108.864 176.749 108.904 176.697 108.918 176.659C109.465 175.445 108.44 174.4 107.417 174.635Z" fill="black"/>
<path d="M109.671 172.517C109.932 171.518 108.874 170.48 107.622 170.995C107.583 171.006 107.53 171.048 107.577 171.08C108.495 171.553 108.856 172.695 108.393 173.672C108.385 173.698 108.395 173.711 108.411 173.716C108.417 173.73 108.429 173.74 108.454 173.732C109.459 173.299 110.62 173.674 111.084 174.583C111.118 174.631 111.158 174.578 111.172 174.54C111.719 173.327 110.694 172.281 109.671 172.517Z" fill="black"/>
<path d="M111.925 170.398C112.186 169.4 111.128 168.361 109.876 168.876C109.836 168.887 109.784 168.93 109.831 168.961C110.749 169.434 111.11 170.577 110.647 171.553C110.639 171.579 110.649 171.592 110.665 171.597C110.671 171.612 110.683 171.621 110.708 171.613C111.713 171.181 112.874 171.556 113.338 172.464C113.372 172.512 113.412 172.459 113.426 172.422C113.973 171.208 112.948 170.163 111.925 170.398Z" fill="black"/>
<path d="M93.0989 188.304H100.542C103.925 188.304 106.237 190.544 106.237 193.364C106.237 195.189 105.25 196.738 103.812 197.457V197.622C105.504 198.48 106.604 200.333 106.604 202.296C106.604 205.337 103.982 207.66 100.486 207.66H93.0989V188.304ZM100.316 196.544C102.093 196.544 103.39 195.327 103.39 193.64C103.39 191.954 102.093 190.765 100.316 190.765H95.8898V196.544H100.316ZM100.57 205.199C102.29 205.199 103.756 203.789 103.756 202.102C103.756 200.415 102.29 198.978 100.57 198.978H95.8898V205.199H100.57Z" fill="black"/>
<path d="M110.747 188.304H118.19C121.573 188.304 124.027 190.709 124.027 193.917C124.027 196.489 122.476 198.424 119.938 199.171L124.731 207.66H121.602L117.118 199.669H113.538V207.66H110.747V188.304ZM117.908 197.208C119.741 197.208 121.179 195.77 121.179 193.972C121.179 192.203 119.741 190.765 117.908 190.765H113.538V197.208H117.908Z" fill="black"/>
<path d="M128.705 188.304H131.552L141.477 202.904H141.646V188.304H144.353V207.66H141.505L131.552 193.06H131.383V207.66H128.705V188.304Z" fill="black"/>
<path d="M148.833 197.982C148.833 192.175 153.062 188 158.898 188C164.735 188 168.964 192.175 168.964 197.982C168.964 203.789 164.735 207.964 158.898 207.964C153.062 207.964 148.833 203.789 148.833 197.982ZM158.898 205.448C163.128 205.448 166.116 202.378 166.116 197.982C166.116 193.585 163.128 190.516 158.898 190.516C154.641 190.516 151.681 193.585 151.681 197.982C151.681 202.378 154.641 205.448 158.898 205.448Z" fill="black"/>
<path d="M130.722 173.224C130.783 173.266 130.819 173.34 130.799 173.414C130.584 174.426 130.508 175.052 130.562 175.559C130.585 175.807 130.633 176.014 130.68 176.168C130.735 176.323 130.794 176.422 130.835 176.437C130.876 176.452 130.986 176.418 131.122 176.309C131.263 176.203 131.426 176.018 131.552 175.743C131.678 175.469 131.758 175.104 131.73 174.679C131.685 174.259 131.553 173.766 131.2 173.316C131.156 173.252 131.134 173.169 131.159 173.095C131.255 172.824 131.291 172.527 131.232 172.388C131.175 172.244 131.041 172.285 130.737 172.619C130.292 172.627 130.184 172.728 130.232 172.829C130.284 172.932 130.504 173.064 130.722 173.224Z" fill="black"/>
<path d="M123.939 172.008C123.932 171.932 123.98 171.867 124.048 171.836C124.525 171.612 124.887 171.461 125.197 171.33C125.502 171.195 125.747 171.066 125.957 170.935C126.165 170.805 126.334 170.674 126.454 170.564C126.572 170.447 126.638 170.356 126.634 170.312C126.631 170.27 126.552 170.183 126.392 170.113C126.233 170.035 125.991 169.97 125.676 169.985C125.365 170 124.979 170.103 124.607 170.362C124.232 170.61 123.889 171.038 123.727 171.581C123.704 171.657 123.641 171.717 123.57 171.746C123.435 171.795 123.297 171.855 123.183 171.921C123.077 171.99 122.993 172.064 122.954 172.128C122.876 172.263 122.992 172.341 123.446 172.368C123.729 172.706 123.877 172.726 123.927 172.627C123.953 172.575 123.957 172.488 123.951 172.377C123.952 172.271 123.946 172.143 123.939 172.008Z" fill="black"/>
<path d="M126.336 178.708C126.271 178.742 126.187 178.744 126.129 178.694C125.704 178.385 125.408 178.12 125.143 177.918C124.876 177.722 124.656 177.557 124.436 177.442C124.02 177.196 123.651 177.081 123.566 177.131C123.501 177.166 123.392 177.571 123.702 178.119C123.865 178.378 124.127 178.679 124.538 178.878C124.938 179.081 125.473 179.201 126.042 179.089C126.121 179.081 126.207 179.094 126.264 179.149C126.472 179.354 126.731 179.511 126.883 179.52C127.039 179.531 127.06 179.396 126.885 178.982C127.07 178.586 127.024 178.446 126.91 178.445C126.792 178.445 126.576 178.586 126.336 178.708Z" fill="black"/>
<path d="M130.53 185.565C130.488 185.628 130.41 185.649 130.337 185.636C129.301 185.459 128.616 185.53 128.124 185.732C127.635 185.891 127.366 186.174 127.368 186.262C127.37 186.346 127.659 186.603 128.214 186.717C128.758 186.791 129.602 186.707 130.447 186.026C130.506 185.978 130.59 185.972 130.66 185.993C131.18 186.162 131.749 186.243 131.13 185.596C131.166 184.726 130.837 185.114 130.53 185.565Z" fill="black"/>
<path d="M138.162 176.398C138.199 176.46 138.196 176.54 138.156 176.601C137.89 177.04 137.668 177.409 137.557 177.747C137.454 178.088 137.38 178.377 137.37 178.633C137.359 178.887 137.396 179.103 137.446 179.261C137.484 179.414 137.54 179.51 137.582 179.527C137.622 179.543 137.734 179.513 137.88 179.423C138.014 179.329 138.176 179.171 138.329 178.939C138.479 178.707 138.635 178.403 138.675 178.013C138.724 177.627 138.738 177.172 138.565 176.658C138.542 176.586 138.561 176.507 138.614 176.454C138.806 176.258 138.991 176.041 139.007 175.909C139.018 175.776 138.879 175.737 138.46 175.875C138.056 175.672 137.914 175.697 137.914 175.819C137.908 175.941 138.024 176.167 138.162 176.398Z" fill="black"/>
<path d="M133.727 165.25C133.8 165.248 133.869 165.29 133.904 165.354C134.025 165.586 134.161 165.767 134.273 165.952C134.386 166.135 134.502 166.29 134.621 166.422C134.868 166.676 135.079 166.888 135.299 167.024C135.742 167.29 136.11 167.361 136.184 167.308C136.252 167.259 136.324 166.863 136.058 166.374C135.929 166.129 135.744 165.837 135.416 165.606C135.257 165.486 135.075 165.369 134.87 165.263C134.666 165.156 134.412 165.092 134.151 165.03C134.076 165.013 134.014 164.959 133.992 164.886C133.95 164.755 133.904 164.622 133.851 164.514C133.794 164.413 133.734 164.334 133.676 164.297C133.56 164.223 133.462 164.326 133.391 164.756C133.023 165.012 132.981 165.147 133.088 165.205C133.142 165.234 133.236 165.244 133.351 165.245C133.462 165.253 133.592 165.254 133.727 165.25Z" fill="black"/>
<path d="M125.609 163.303C125.662 163.252 125.74 163.227 125.811 163.257C126.31 163.459 126.725 163.533 127.087 163.573C127.449 163.626 127.756 163.603 128.013 163.545C128.522 163.447 128.834 163.239 128.848 163.144C128.86 163.068 128.622 162.741 128.091 162.56C127.826 162.478 127.489 162.426 127.095 162.445C126.701 162.475 126.247 162.619 125.774 162.855C125.707 162.886 125.625 162.896 125.56 162.858C125.08 162.595 124.538 162.409 125.024 163.159C124.822 164.005 125.221 163.687 125.609 163.303Z" fill="black"/>
<path d="M116.333 170.834C116.308 170.766 116.326 170.689 116.377 170.635C116.559 170.445 116.705 170.264 116.828 170.092C116.968 169.926 117.08 169.766 117.169 169.612C117.258 169.457 117.324 169.308 117.373 169.165C117.437 169.03 117.481 168.9 117.511 168.776C117.628 168.283 117.539 167.903 117.471 167.859C117.392 167.808 117.017 167.898 116.627 168.302C116.529 168.402 116.43 168.521 116.335 168.659C116.254 168.805 116.18 168.97 116.116 169.155C116.053 169.341 116.001 169.546 115.966 169.77C115.95 169.999 115.956 170.249 115.984 170.512C115.993 170.587 115.96 170.661 115.897 170.705C115.428 171.027 115.095 171.456 115.965 171.304C116.704 171.822 116.508 171.322 116.333 170.834Z" fill="black"/>
<path d="M118.732 182.656C118.66 182.643 118.602 182.588 118.582 182.518C118.512 182.266 118.42 182.06 118.347 181.858C118.275 181.655 118.194 181.48 118.106 181.326C117.918 181.026 117.75 180.779 117.565 180.6C117.188 180.249 116.832 180.112 116.753 180.148C116.672 180.185 116.532 180.555 116.688 181.087C116.761 181.353 116.886 181.672 117.157 181.965C117.286 182.114 117.439 182.265 117.617 182.41C117.796 182.554 118.029 182.671 118.272 182.785C118.341 182.816 118.39 182.882 118.396 182.957C118.413 183.238 118.48 183.505 118.581 183.598C118.679 183.694 118.796 183.613 118.957 183.207C119.371 183.032 119.441 182.908 119.349 182.83C119.252 182.754 118.99 182.711 118.732 182.656Z" fill="black"/>
<path d="M136.772 181.639C136.774 181.711 136.732 181.778 136.668 181.811C136.224 182.059 135.843 182.263 135.582 182.501C135.448 182.616 135.341 182.739 135.244 182.853C135.141 182.96 135.058 183.069 134.99 183.175C134.72 183.598 134.69 183.986 134.747 184.055C134.801 184.12 135.18 184.149 135.675 183.9C135.798 183.838 135.928 183.759 136.06 183.66C136.185 183.556 136.304 183.422 136.423 183.271C136.652 182.963 136.894 182.586 136.994 182.059C137.009 181.987 137.064 181.928 137.136 181.908C137.665 181.759 138.179 181.519 137.287 181.337C136.804 180.62 136.758 181.113 136.772 181.639Z" fill="black"/>
<path d="M136.482 165.355C136.553 165.373 136.601 165.434 136.613 165.506C136.686 166.022 136.845 166.393 136.976 166.72C137.11 167.044 137.283 167.286 137.462 167.47C137.795 167.845 138.136 168 138.225 167.965C138.3 167.936 138.468 167.577 138.37 167.041C138.309 166.779 138.186 166.473 137.972 166.153C137.76 165.833 137.391 165.539 136.946 165.268C136.882 165.231 136.845 165.159 136.845 165.086C136.829 164.557 136.713 164.016 136.307 164.802C135.462 165.075 135.946 165.237 136.482 165.355Z" fill="black"/>
<path d="M119.723 163.437C119.748 163.371 119.811 163.324 119.885 163.317C120.405 163.263 120.798 163.146 121.144 163.045C121.483 162.934 121.732 162.761 121.937 162.613C122.348 162.326 122.519 161.98 122.491 161.896C122.465 161.816 122.118 161.65 121.56 161.696C121.285 161.723 120.973 161.842 120.635 162.033C120.292 162.211 119.962 162.541 119.666 162.974C119.624 163.035 119.551 163.07 119.475 163.063C118.914 163.01 118.381 163.121 119.142 163.56C119.371 164.418 119.544 163.92 119.723 163.437Z" fill="black"/>
<path d="M114.774 177.924C114.717 177.879 114.692 177.804 114.708 177.735C114.804 177.243 114.891 176.823 114.873 176.471C114.857 176.119 114.785 175.828 114.714 175.587C114.553 175.11 114.266 174.847 114.176 174.849C114.09 174.85 113.827 175.125 113.709 175.653C113.639 175.917 113.64 176.242 113.731 176.612C113.824 176.98 113.961 177.401 114.304 177.817C114.35 177.876 114.36 177.955 114.329 178.022C114.101 178.513 113.954 179.049 114.674 178.505C115.545 178.613 115.192 178.256 114.774 177.924Z" fill="black"/>
<path d="M126.301 187.832C126.241 187.874 126.161 187.878 126.097 187.844C125.637 187.621 125.246 187.447 124.899 187.361C124.551 187.276 124.245 187.278 123.992 187.276C123.485 187.296 123.146 187.493 123.121 187.578C123.098 187.659 123.293 187.983 123.782 188.243C124.024 188.384 124.347 188.459 124.735 188.478C125.122 188.498 125.575 188.461 126.073 188.248C126.143 188.22 126.223 188.231 126.281 188.278C126.704 188.625 127.194 188.906 126.846 188.08C127.18 187.286 126.736 187.525 126.301 187.832Z" fill="black"/>
</g>
</svg>
