<svg width="300" height="223" viewBox="0 0 300 223" fill="none" xmlns="http://www.w3.org/2000/svg">
<rect width="300" height="223" fill="#F9F0E4"/>
<g opacity="0.25">
<path d="M167.819 109.108L167.758 109.131C167.759 109.12 167.76 109.111 167.761 109.1C167.756 108.958 167.683 108.818 167.593 108.83C167.504 108.841 167.442 108.997 167.459 109.136C167.466 109.201 167.488 109.25 167.516 109.284C167.342 109.217 167.105 109.217 166.843 109.251C166.599 109.306 166.334 109.402 166.133 109.535C165.935 109.674 165.814 109.815 165.753 109.948C165.727 110.001 165.678 110.046 165.622 110.064C165.467 110.108 165.316 110.208 165.205 110.36C165.047 110.563 165.05 110.842 165.167 111.038C165.399 111.411 165.885 111.433 166.188 111.19C166.264 111.126 166.32 111.047 166.357 110.96C166.378 110.907 166.426 110.874 166.483 110.873C166.619 110.867 166.764 110.817 166.925 110.702C167.085 110.597 167.246 110.466 167.382 110.307C167.524 110.173 167.644 110.002 167.719 109.853C167.72 109.895 167.736 109.946 167.769 110.003C167.841 110.126 167.952 110.231 168.004 110.202C168.056 110.172 168.041 110.016 167.98 109.89C167.974 109.881 167.97 109.874 167.965 109.866C167.982 109.863 167.998 109.861 168.016 109.856C168.234 109.795 168.402 109.613 168.38 109.395C168.362 109.188 168.103 109.032 167.819 109.108Z" fill="black"/>
<path d="M162.736 114.532L162.702 114.586C162.696 114.577 162.691 114.57 162.685 114.56C162.593 114.45 162.45 114.382 162.385 114.444C162.321 114.507 162.368 114.668 162.466 114.768C162.512 114.816 162.559 114.842 162.603 114.853C162.423 114.902 162.234 115.043 162.047 115.226C161.886 115.414 161.733 115.648 161.654 115.874C161.582 116.103 161.572 116.287 161.606 116.429C161.618 116.487 161.606 116.551 161.572 116.599C161.476 116.726 161.417 116.895 161.422 117.083C161.421 117.339 161.594 117.559 161.809 117.645C162.222 117.805 162.623 117.534 162.715 117.16C162.736 117.064 162.732 116.968 162.708 116.877C162.692 116.822 162.711 116.767 162.756 116.733C162.86 116.647 162.945 116.521 163.002 116.334C163.066 116.154 163.114 115.955 163.124 115.747C163.155 115.556 163.146 115.349 163.114 115.186C163.141 115.218 163.184 115.249 163.246 115.275C163.379 115.33 163.532 115.348 163.555 115.294C163.579 115.24 163.47 115.124 163.345 115.06C163.335 115.056 163.327 115.053 163.318 115.05C163.33 115.037 163.342 115.026 163.352 115.012C163.489 114.834 163.511 114.589 163.36 114.427C163.218 114.273 162.915 114.303 162.736 114.532Z" fill="black"/>
<path d="M160.496 114.798L160.451 114.844C160.447 114.834 160.444 114.826 160.44 114.815C160.374 114.689 160.247 114.593 160.171 114.642C160.095 114.69 160.108 114.857 160.183 114.975C160.217 115.031 160.259 115.066 160.299 115.085C160.113 115.097 159.899 115.197 159.677 115.339C159.481 115.491 159.283 115.69 159.158 115.894C159.04 116.104 158.993 116.282 158.996 116.428C158.995 116.487 158.971 116.548 158.928 116.588C158.807 116.693 158.715 116.847 158.68 117.031C158.626 117.282 158.75 117.532 158.942 117.66C159.314 117.899 159.762 117.714 159.93 117.367C159.97 117.277 159.987 117.182 159.982 117.087C159.978 117.031 160.008 116.981 160.058 116.956C160.178 116.893 160.288 116.787 160.383 116.615C160.482 116.452 160.57 116.266 160.624 116.065C160.694 115.885 160.728 115.68 160.73 115.513C160.75 115.551 160.786 115.59 160.841 115.628C160.959 115.708 161.106 115.757 161.14 115.708C161.174 115.66 161.092 115.525 160.982 115.437C160.973 115.431 160.967 115.427 160.958 115.421C160.972 115.412 160.986 115.403 161 115.391C161.171 115.244 161.243 115.009 161.128 114.82C161.022 114.641 160.719 114.609 160.496 114.798Z" fill="black"/>
<path d="M172.085 109.64L172.028 109.64C172.032 109.63 172.036 109.623 172.041 109.612C172.083 109.478 172.071 109.322 172.005 109.302C171.935 109.284 171.849 109.399 171.8 109.531C171.779 109.593 171.773 109.646 171.78 109.688C171.574 109.43 171.171 109.148 170.747 109.024C170.539 108.961 170.349 108.957 170.212 108.993C170.155 109.008 170.087 108.999 170.038 108.961C169.908 108.862 169.731 108.799 169.526 108.813C169.253 108.819 169.015 109.008 168.954 109.223C168.851 109.644 169.126 110.011 169.478 110.083C169.57 110.099 169.667 110.102 169.757 110.079C169.81 110.067 169.864 110.081 169.903 110.124C169.998 110.227 170.126 110.305 170.342 110.37C170.753 110.492 171.371 110.491 171.69 110.285C171.669 110.322 171.657 110.374 171.662 110.44C171.67 110.58 171.761 110.732 171.839 110.723C171.92 110.717 171.967 110.566 171.952 110.427C171.949 110.416 171.948 110.408 171.945 110.398L172.005 110.409C172.276 110.439 172.506 110.276 172.516 110.061C172.525 109.85 172.332 109.668 172.085 109.64Z" fill="black"/>
<path d="M175.887 108.883L175.843 108.917C175.84 108.906 175.838 108.899 175.835 108.887C175.785 108.755 175.681 108.641 175.617 108.66C175.553 108.679 175.55 108.832 175.593 108.965C175.614 109.028 175.642 109.073 175.674 109.103C175.338 109.024 174.851 109.064 174.491 109.163C174.31 109.224 174.177 109.284 174.087 109.383C174.05 109.423 173.995 109.437 173.944 109.419C173.807 109.371 173.663 109.38 173.508 109.429C173.302 109.508 173.131 109.695 173.08 109.919C172.979 110.34 173.339 110.717 173.822 110.667C173.94 110.65 174.048 110.61 174.139 110.554C174.193 110.522 174.261 110.515 174.321 110.531C174.465 110.57 174.661 110.586 174.899 110.508C175.38 110.375 175.858 109.973 175.971 109.63C175.979 109.672 176.001 109.721 176.046 109.77C176.14 109.876 176.294 109.942 176.359 109.89C176.424 109.839 176.366 109.688 176.268 109.587C176.26 109.581 176.253 109.576 176.246 109.569L176.3 109.541C176.536 109.396 176.615 109.129 176.486 108.955C176.361 108.784 176.094 108.757 175.887 108.883Z" fill="black"/>
<path d="M176.341 105.714L176.312 105.761C176.306 105.752 176.301 105.745 176.294 105.736C176.2 105.628 176.063 105.557 176.009 105.597C175.956 105.636 176.007 105.781 176.095 105.891C176.136 105.943 176.179 105.975 176.219 105.992C175.876 106.033 175.433 106.235 175.13 106.451C174.981 106.571 174.878 106.671 174.828 106.795C174.808 106.845 174.761 106.877 174.707 106.878C174.561 106.878 174.429 106.936 174.301 107.035C174.136 107.179 174.041 107.412 174.072 107.64C174.125 108.07 174.596 108.301 175.03 108.09C175.135 108.034 175.223 107.959 175.289 107.876C175.328 107.828 175.389 107.798 175.451 107.793C175.6 107.78 175.789 107.729 175.986 107.575C176.39 107.286 176.698 106.746 176.683 106.386C176.705 106.424 176.743 106.461 176.802 106.493C176.928 106.56 177.095 106.57 177.139 106.499C177.181 106.428 177.074 106.306 176.947 106.245C176.936 106.242 176.929 106.239 176.919 106.236L176.96 106.191C177.131 105.975 177.111 105.698 176.929 105.578C176.751 105.46 176.491 105.526 176.341 105.714Z" fill="black"/>
<path d="M178.795 106.148L178.767 106.195C178.76 106.187 178.755 106.181 178.748 106.172C178.648 106.073 178.501 106.009 178.451 106.054C178.401 106.099 178.462 106.241 178.559 106.345C178.604 106.393 178.65 106.422 178.691 106.435C178.353 106.504 177.915 106.755 177.636 107.037C177.485 107.185 177.404 107.326 177.371 107.459C177.357 107.512 177.316 107.556 177.263 107.572C177.118 107.615 176.989 107.709 176.891 107.845C176.762 108.037 176.742 108.291 176.842 108.498C177.027 108.892 177.541 108.969 177.881 108.669C177.962 108.594 178.024 108.505 178.063 108.412C178.086 108.357 178.136 108.317 178.195 108.303C178.337 108.27 178.488 108.183 178.651 108.025C178.981 107.692 179.23 107.149 179.186 106.791C179.211 106.826 179.252 106.86 179.314 106.887C179.444 106.944 179.611 106.942 179.646 106.869C179.682 106.796 179.57 106.685 179.437 106.632C179.426 106.629 179.418 106.627 179.408 106.624L179.447 106.578C179.595 106.348 179.56 106.075 179.372 105.969C179.183 105.864 178.925 105.944 178.795 106.148Z" fill="black"/>
<path d="M163.599 110.705L163.583 110.757C163.575 110.75 163.568 110.746 163.559 110.739C163.438 110.666 163.28 110.638 163.242 110.693C163.204 110.749 163.298 110.872 163.417 110.95C163.473 110.987 163.524 111.004 163.567 111.008C163.255 111.154 162.89 111.499 162.688 111.838C162.575 112.017 162.531 112.173 162.531 112.31C162.53 112.365 162.502 112.417 162.453 112.445C162.323 112.52 162.219 112.641 162.158 112.797C162.079 113.013 162.12 113.264 162.267 113.442C162.541 113.782 163.059 113.737 163.317 113.367C163.379 113.275 163.417 113.174 163.433 113.074C163.442 113.016 163.481 112.965 163.535 112.938C163.665 112.873 163.79 112.754 163.911 112.561C164.152 112.161 164.263 111.576 164.134 111.238C164.167 111.267 164.215 111.29 164.281 111.302C164.422 111.327 164.583 111.286 164.6 111.207C164.617 111.128 164.482 111.046 164.339 111.026C164.328 111.025 164.32 111.025 164.309 111.025L164.337 110.971C164.424 110.713 164.325 110.456 164.117 110.397C163.908 110.338 163.676 110.476 163.599 110.705Z" fill="black"/>
<path d="M180.031 102.45L180.034 102.505C180.023 102.502 180.016 102.499 180.005 102.495C179.866 102.459 179.709 102.478 179.691 102.543C179.67 102.607 179.796 102.699 179.933 102.739C179.997 102.758 180.05 102.76 180.093 102.751C179.839 102.981 179.596 103.422 179.502 103.798C179.451 103.99 179.457 104.144 179.489 104.27C179.503 104.321 179.49 104.377 179.451 104.415C179.353 104.517 179.27 104.644 179.254 104.808C179.228 105.027 179.315 105.261 179.5 105.41C179.83 105.688 180.344 105.547 180.51 105.109C180.554 105.003 180.571 104.893 180.559 104.788C180.553 104.727 180.578 104.665 180.623 104.624C180.738 104.526 180.826 104.367 180.887 104.137C181.002 103.68 180.928 103.092 180.703 102.807C180.744 102.825 180.797 102.834 180.863 102.826C181.006 102.809 181.148 102.725 181.142 102.644C181.133 102.564 180.977 102.524 180.836 102.546C180.826 102.549 180.818 102.551 180.808 102.554L180.815 102.494C180.831 102.224 180.656 102.007 180.437 102.008C180.222 102.01 180.045 102.208 180.031 102.45Z" fill="black"/>
<path d="M182.647 90.5021L182.6 90.533C182.598 90.5226 182.597 90.5143 182.595 90.5032C182.553 90.3683 182.455 90.2467 182.389 90.265C182.323 90.2812 182.309 90.4345 182.345 90.5701C182.362 90.6334 182.388 90.6798 182.418 90.7108C182.087 90.6176 181.577 90.6431 181.201 90.7608C181.008 90.818 180.878 90.9029 180.785 90.9953C180.748 91.0345 180.693 91.0529 180.64 91.0399C180.5 91.0097 180.346 91.0068 180.196 91.0784C179.992 91.1716 179.834 91.3662 179.802 91.599C179.732 92.0214 180.123 92.379 180.59 92.2905C180.705 92.2717 180.808 92.2282 180.893 92.1635C180.943 92.1268 181.01 92.1156 181.069 92.1325C181.214 92.1771 181.398 92.1685 181.63 92.0998C182.086 91.9577 182.558 91.5896 182.688 91.2526C182.693 91.2954 182.714 91.3443 182.755 91.3961C182.844 91.5069 182.991 91.5825 183.058 91.5353C183.123 91.4864 183.076 91.3342 182.984 91.2277C182.976 91.2202 182.97 91.2148 182.962 91.2076L183.018 91.1831C183.26 91.0558 183.358 90.7953 183.242 90.6122C183.129 90.433 182.865 90.3877 182.647 90.5021Z" fill="black"/>
<path d="M179.665 98.3331V98.3954C179.655 98.3914 179.648 98.3885 179.637 98.3839C179.499 98.3457 179.34 98.3698 179.321 98.4544C179.307 98.5382 179.442 98.6407 179.582 98.6699C179.647 98.6839 179.701 98.6796 179.743 98.6648C179.49 98.9372 179.391 99.5495 179.48 99.9887C179.521 100.21 179.6 100.363 179.693 100.46C179.731 100.5 179.747 100.558 179.732 100.611C179.69 100.755 179.693 100.89 179.752 101.047C179.836 101.256 180.037 101.418 180.266 101.459C180.698 101.539 181.064 101.174 181.002 100.714C180.984 100.6 180.945 100.489 180.885 100.408C180.85 100.359 180.842 100.296 180.862 100.241C180.912 100.103 180.922 99.9398 180.883 99.7326C180.804 99.33 180.587 98.9048 180.356 98.6609C180.397 98.6735 180.451 98.6756 180.516 98.663C180.656 98.635 180.789 98.5609 180.774 98.4993C180.765 98.4385 180.611 98.4044 180.469 98.4231C180.458 98.4256 180.45 98.4274 180.44 98.4299C180.444 98.4126 180.448 98.3961 180.45 98.3781C180.46 98.1475 180.322 97.9331 180.11 97.8946C179.895 97.8557 179.679 98.0504 179.665 98.3331Z" fill="black"/>
<path d="M178.163 96.6256L178.143 96.685C178.135 96.6781 178.129 96.6731 178.12 96.6655C178.001 96.5878 177.842 96.563 177.797 96.6375C177.758 96.713 177.854 96.8512 177.979 96.9213C178.037 96.9544 178.089 96.9663 178.133 96.9649C177.808 97.148 177.523 97.7013 177.471 98.1463C177.442 98.369 177.469 98.5384 177.527 98.6589C177.552 98.709 177.549 98.7683 177.519 98.8144C177.433 98.9388 177.394 99.0683 177.402 99.2364C177.416 99.4598 177.557 99.6749 177.762 99.7821C178.149 99.9882 178.611 99.7508 178.695 99.2943C178.713 99.1802 178.711 99.063 178.678 98.968C178.66 98.9111 178.672 98.8485 178.709 98.8018C178.799 98.6856 178.86 98.5334 178.887 98.3244C178.937 97.9171 178.863 97.4473 178.718 97.1455C178.754 97.1696 178.805 97.1879 178.871 97.1958C179.012 97.2113 179.162 97.1803 179.167 97.1174C179.177 97.057 179.041 96.9778 178.9 96.953C178.889 96.9523 178.881 96.9515 178.871 96.9508C178.879 96.9357 178.889 96.921 178.896 96.9044C178.977 96.6882 178.913 96.4425 178.723 96.3421C178.531 96.2403 178.264 96.3608 178.163 96.6256Z" fill="black"/>
<path d="M181.602 94.4564L181.565 94.5043C181.56 94.4949 181.556 94.4877 181.55 94.4773C181.467 94.3621 181.331 94.2808 181.268 94.3294C181.205 94.3783 181.242 94.5363 181.327 94.6489C181.367 94.7014 181.41 94.7334 181.451 94.75C181.089 94.7845 180.599 95.1227 180.339 95.5234C180.209 95.7271 180.144 95.8951 180.153 96.0508C180.154 96.1124 180.128 96.1742 180.079 96.2135C179.949 96.3174 179.841 96.4728 179.815 96.6725C179.764 96.9373 179.881 97.1913 180.091 97.3082C180.472 97.5111 180.917 97.3269 181.06 97.001C181.1 96.9164 181.123 96.8286 181.121 96.7383C181.12 96.6851 181.15 96.6372 181.197 96.6121C181.306 96.5495 181.431 96.4531 181.536 96.2872C181.745 95.9656 181.918 95.4871 181.913 95.1464C181.936 95.1831 181.974 95.2202 182.032 95.2529C182.156 95.3223 182.312 95.3482 182.347 95.2885C182.382 95.2288 182.286 95.1036 182.165 95.0309C182.154 95.0263 182.147 95.023 182.138 95.0187L182.178 94.9809C182.341 94.7946 182.376 94.5402 182.219 94.3859C182.07 94.2377 181.78 94.2539 181.602 94.4564Z" fill="black"/>
<path d="M184.385 91.2431L184.344 91.2869C184.339 91.2772 184.337 91.2697 184.332 91.2589C184.261 91.1362 184.134 91.0416 184.066 91.084C183.999 91.1265 184.019 91.2873 184.093 91.4075C184.127 91.4636 184.166 91.4999 184.205 91.5204C183.841 91.5193 183.32 91.8075 183.02 92.1806C182.87 92.3705 182.788 92.5313 182.781 92.6871C182.777 92.7486 182.744 92.8073 182.692 92.8418C182.552 92.9325 182.428 93.0764 182.382 93.2724C182.305 93.5311 182.395 93.7952 182.592 93.9322C182.95 94.1715 183.412 94.0322 183.588 93.7218C183.636 93.6415 183.667 93.5566 183.675 93.4663C183.68 93.4135 183.714 93.3685 183.764 93.3483C183.878 93.2965 184.013 93.2131 184.134 93.0584C184.374 92.7587 184.595 92.2997 184.625 91.96C184.643 91.9989 184.678 92.0396 184.732 92.0777C184.849 92.1593 185.001 92.2 185.042 92.1442C185.083 92.0885 185 91.9543 184.887 91.8701C184.877 91.8643 184.87 91.8604 184.862 91.8554L184.906 91.8215C185.087 91.6521 185.147 91.4024 185.007 91.2333C184.873 91.0714 184.583 91.0589 184.385 91.2431Z" fill="black"/>
<path d="M170.108 111.259L170.045 111.258C170.049 111.249 170.053 111.241 170.057 111.231C170.102 111.096 170.083 110.94 169.996 110.919C169.917 110.901 169.814 111.029 169.78 111.165C169.765 111.229 169.767 111.282 169.779 111.323C169.526 111.077 168.984 110.925 168.544 110.963C168.321 110.979 168.159 111.045 168.047 111.13C168.001 111.167 167.94 111.181 167.883 111.164C167.733 111.118 167.556 111.127 167.383 111.207C167.148 111.315 166.997 111.559 167.024 111.787C167.093 112.21 167.459 112.47 167.806 112.409C167.897 112.393 167.979 112.354 168.053 112.303C168.096 112.272 168.152 112.268 168.2 112.292C168.317 112.352 168.465 112.376 168.662 112.361C169.05 112.328 169.517 112.153 169.761 111.926C169.748 111.966 169.743 112.02 169.754 112.084C169.776 112.223 169.844 112.358 169.904 112.347C169.958 112.337 169.995 112.186 169.985 112.047C169.983 112.036 169.982 112.029 169.98 112.019C169.996 112.022 170.011 112.026 170.027 112.028C170.088 112.031 170.11 112.029 170.158 112.015C170.217 112.007 170.272 111.989 170.321 111.963C170.418 111.911 170.488 111.827 170.51 111.722C170.531 111.618 170.503 111.513 170.44 111.43C170.409 111.388 170.369 111.35 170.323 111.321C170.264 111.291 170.171 111.262 170.108 111.259Z" fill="black"/>
<path d="M165.845 112.413L165.806 112.462C165.801 112.452 165.797 112.445 165.791 112.435C165.71 112.319 165.571 112.239 165.502 112.294C165.44 112.346 165.48 112.504 165.57 112.612C165.613 112.663 165.657 112.693 165.698 112.709C165.345 112.758 164.894 113.089 164.658 113.457C164.537 113.641 164.491 113.808 164.493 113.947C164.494 114.005 164.468 114.062 164.421 114.096C164.292 114.185 164.193 114.33 164.153 114.513C164.097 114.763 164.204 115.028 164.404 115.145C164.788 115.347 165.22 115.219 165.382 114.91C165.423 114.829 165.441 114.742 165.445 114.653C165.446 114.6 165.477 114.554 165.525 114.531C165.645 114.476 165.754 114.375 165.862 114.211C166.069 113.888 166.211 113.417 166.175 113.088C166.199 113.123 166.24 113.158 166.298 113.19C166.424 113.256 166.574 113.285 166.602 113.231C166.627 113.183 166.527 113.062 166.408 112.986C166.398 112.981 166.391 112.977 166.382 112.973C166.394 112.963 166.407 112.953 166.418 112.941C166.458 112.896 166.469 112.877 166.487 112.831C166.516 112.78 166.535 112.726 166.543 112.673C166.56 112.565 166.534 112.46 166.463 112.379C166.392 112.298 166.29 112.258 166.184 112.256C166.131 112.255 166.077 112.264 166.025 112.282C165.966 112.31 165.886 112.365 165.845 112.413Z" fill="black"/>
<path d="M173.996 111.469C173.978 111.472 173.961 111.478 173.944 111.483C173.946 111.472 173.947 111.464 173.949 111.453C173.955 111.312 173.906 111.164 173.841 111.161C173.775 111.155 173.712 111.292 173.701 111.432C173.696 111.496 173.705 111.549 173.722 111.589C173.453 111.383 172.98 111.25 172.597 111.246C172.401 111.24 172.255 111.28 172.142 111.349C172.095 111.379 172.039 111.376 171.994 111.349C171.873 111.272 171.728 111.238 171.568 111.267C171.351 111.298 171.153 111.453 171.065 111.669C170.899 112.063 171.165 112.497 171.603 112.535C171.711 112.545 171.816 112.53 171.909 112.497C171.964 112.476 172.026 112.488 172.075 112.518C172.193 112.595 172.359 112.643 172.585 112.649C173.032 112.655 173.565 112.454 173.79 112.188C173.782 112.23 173.784 112.283 173.805 112.345C173.849 112.479 173.957 112.602 174.03 112.579C174.104 112.553 174.111 112.396 174.063 112.264C174.058 112.254 174.055 112.248 174.05 112.238L174.108 112.234C174.365 112.193 174.539 111.99 174.495 111.781C174.453 111.572 174.229 111.432 173.996 111.469Z" fill="black"/>
<path d="M160.95 111.331C160.943 111.348 160.939 111.365 160.933 111.381C160.925 111.374 160.919 111.369 160.91 111.361C160.793 111.28 160.64 111.24 160.602 111.293C160.562 111.344 160.645 111.47 160.758 111.555C160.812 111.594 160.861 111.615 160.904 111.622C160.583 111.734 160.214 112.053 160.003 112.369C159.893 112.527 159.847 112.67 159.846 112.801C159.846 112.855 159.814 112.9 159.766 112.923C159.635 112.981 159.527 113.083 159.466 113.232C159.375 113.428 159.401 113.675 159.538 113.864C159.786 114.215 160.301 114.229 160.57 113.887C160.637 113.803 160.681 113.708 160.702 113.613C160.714 113.556 160.758 113.512 160.81 113.488C160.94 113.431 161.071 113.32 161.198 113.136C161.444 112.769 161.56 112.22 161.454 111.889C161.485 111.919 161.532 111.945 161.596 111.962C161.734 111.998 161.899 111.975 161.918 111.902C161.936 111.827 161.805 111.736 161.667 111.705C161.656 111.704 161.648 111.702 161.638 111.701L161.665 111.651C161.769 111.416 161.689 111.163 161.486 111.086C161.284 111.008 161.044 111.118 160.95 111.331Z" fill="black"/>
<path d="M177.57 110.153C177.554 110.163 177.541 110.174 177.527 110.186C177.524 110.176 177.522 110.168 177.519 110.156C177.467 110.026 177.36 109.91 177.298 109.933C177.236 109.956 177.238 110.11 177.287 110.243C177.31 110.305 177.34 110.349 177.373 110.377C177.037 110.292 176.554 110.372 176.203 110.519C176.028 110.604 175.906 110.685 175.832 110.794C175.802 110.837 175.752 110.862 175.699 110.855C175.561 110.841 175.414 110.862 175.278 110.946C175.096 111.063 174.981 111.289 174.985 111.515C174.991 111.95 175.409 112.232 175.832 112.098C175.938 112.069 176.026 112.008 176.097 111.937C176.139 111.895 176.199 111.877 176.257 111.888C176.397 111.91 176.576 111.901 176.78 111.803C177.194 111.629 177.589 111.222 177.686 110.895C177.696 110.937 177.721 110.985 177.766 111.032C177.861 111.136 178.008 111.2 178.065 111.148C178.121 111.096 178.063 110.951 177.963 110.85C177.955 110.842 177.949 110.837 177.941 110.831L177.992 110.805C178.213 110.67 178.284 110.412 178.156 110.236C178.032 110.065 177.771 110.031 177.57 110.153Z" fill="black"/>
<path d="M180.377 107.57C180.367 107.585 180.359 107.6 180.35 107.616C180.344 107.607 180.339 107.601 180.332 107.592C180.235 107.489 180.093 107.42 180.044 107.463C179.997 107.508 180.05 107.647 180.145 107.753C180.189 107.801 180.233 107.832 180.274 107.847C180.102 107.867 179.91 107.94 179.732 108.044C179.545 108.143 179.368 108.267 179.237 108.408C179.099 108.546 179.02 108.674 178.993 108.802C178.981 108.854 178.944 108.897 178.893 108.911C178.759 108.952 178.628 109.028 178.537 109.16C178.412 109.337 178.399 109.595 178.497 109.8C178.681 110.195 179.172 110.285 179.506 110.005C179.59 109.938 179.648 109.851 179.684 109.759C179.706 109.705 179.753 109.665 179.81 109.654C179.948 109.623 180.102 109.545 180.259 109.388C180.41 109.228 180.548 109.024 180.64 108.816C180.726 108.602 180.771 108.388 180.758 108.217C180.782 108.253 180.822 108.288 180.882 108.317C181.01 108.38 181.176 108.392 181.208 108.321C181.24 108.252 181.131 108.137 181.002 108.079C180.991 108.075 180.984 108.073 180.974 108.07L181.011 108.026C181.162 107.818 181.137 107.555 180.955 107.438C180.773 107.322 180.515 107.381 180.377 107.57Z" fill="black"/>
<path d="M181.947 104.147C181.943 104.164 181.942 104.181 181.939 104.199C181.93 104.194 181.923 104.19 181.913 104.184C181.782 104.13 181.623 104.123 181.594 104.181C181.565 104.24 181.677 104.347 181.807 104.405C181.867 104.433 181.92 104.443 181.963 104.44C181.678 104.618 181.386 105.008 181.245 105.357C181.18 105.537 181.161 105.683 181.183 105.809C181.193 105.86 181.174 105.913 181.133 105.944C181.024 106.031 180.939 106.15 180.902 106.303C180.856 106.513 180.941 106.754 181.107 106.909C181.425 107.21 181.921 107.116 182.124 106.728C182.178 106.634 182.193 106.528 182.194 106.43C182.193 106.371 182.223 106.317 182.272 106.283C182.391 106.203 182.502 106.069 182.578 105.859C182.744 105.448 182.738 104.886 182.559 104.585C182.596 104.608 182.647 104.624 182.714 104.626C182.857 104.633 183.008 104.575 183.012 104.499C183.016 104.424 182.87 104.362 182.727 104.361C182.715 104.361 182.707 104.362 182.697 104.363L182.715 104.309C182.768 104.059 182.626 103.827 182.413 103.794C182.198 103.76 181.995 103.919 181.947 104.147Z" fill="black"/>
<path d="M182.009 100.369C182.012 100.387 182.017 100.404 182.022 100.421C182.011 100.419 182.003 100.418 181.992 100.417C181.85 100.413 181.699 100.465 181.695 100.531C181.691 100.597 181.835 100.656 181.977 100.663C182.044 100.666 182.097 100.656 182.136 100.637C181.938 100.909 181.819 101.385 181.831 101.765C181.844 101.958 181.88 102.101 181.955 102.208C181.985 102.252 181.99 102.308 181.965 102.354C181.902 102.477 181.864 102.62 181.899 102.776C181.95 102.988 182.112 103.173 182.334 103.25C182.745 103.396 183.17 103.113 183.19 102.68C183.197 102.573 183.179 102.471 183.135 102.381C183.11 102.328 183.115 102.267 183.146 102.218C183.219 102.099 183.272 101.933 183.257 101.713C183.243 101.276 183.023 100.766 182.743 100.553C182.786 100.56 182.84 100.556 182.903 100.535C183.037 100.488 183.157 100.38 183.132 100.309C183.107 100.238 182.948 100.235 182.814 100.285C182.804 100.29 182.797 100.294 182.788 100.298L182.784 100.242C182.748 100.022 182.563 99.8586 182.345 99.8665C182.13 99.874 181.966 100.106 182.009 100.369Z" fill="black"/>
<path d="M182.428 96.2744L182.412 96.3316C182.403 96.3251 182.397 96.3197 182.388 96.3125C182.267 96.2359 182.11 96.2097 182.07 96.2805C182.029 96.3514 182.124 96.4845 182.247 96.5536C182.305 96.586 182.358 96.5986 182.402 96.5982C182.093 96.7698 181.794 97.2702 181.734 97.707C181.7 97.9279 181.726 98.0969 181.789 98.2232C181.814 98.2747 181.812 98.3362 181.783 98.3855C181.708 98.5179 181.67 98.6833 181.709 98.8582C181.756 99.096 181.947 99.2849 182.174 99.3352C182.602 99.4244 182.976 99.1222 182.997 98.7513C183.004 98.6571 182.986 98.5664 182.949 98.483C182.928 98.434 182.939 98.3793 182.973 98.3383C183.057 98.2383 183.117 98.1016 183.146 97.9127C183.198 97.5393 183.143 97.077 182.986 96.7813C183.021 96.8054 183.072 96.8238 183.138 96.8324C183.28 96.85 183.432 96.8245 183.438 96.7651C183.445 96.7058 183.307 96.627 183.168 96.6014C183.157 96.6004 183.149 96.5996 183.139 96.5989C183.146 96.5842 183.155 96.5698 183.16 96.5536C183.243 96.3525 183.166 96.115 182.981 96.0125C182.788 95.906 182.531 96.0229 182.428 96.2744Z" fill="black"/>
<path d="M173.321 113.734L173.264 113.738C173.268 113.728 173.27 113.72 173.274 113.709C173.307 113.572 173.284 113.418 173.217 113.403C173.149 113.39 173.057 113.515 173.019 113.648C173.001 113.71 173 113.763 173.01 113.806C172.9 113.684 172.738 113.573 172.56 113.486C172.471 113.437 172.38 113.388 172.286 113.35C172.237 113.331 172.19 113.314 172.145 113.297L172.075 113.275C172.019 113.263 171.965 113.251 171.911 113.239C171.858 113.237 171.807 113.236 171.757 113.234C171.541 113.229 171.376 113.264 171.252 113.33C171.202 113.358 171.14 113.359 171.09 113.331C170.955 113.257 170.795 113.223 170.622 113.249C170.387 113.284 170.183 113.439 170.091 113.653C169.91 114.049 170.217 114.482 170.686 114.521C170.801 114.53 170.912 114.515 171.011 114.479C171.069 114.458 171.135 114.467 171.187 114.499C171.312 114.579 171.484 114.631 171.724 114.637C171.768 114.638 171.77 114.638 171.774 114.635L171.776 114.633C171.784 114.634 171.735 114.624 171.769 114.629L171.858 114.637C171.916 114.639 171.976 114.642 172.039 114.644C172.16 114.644 172.28 114.64 172.394 114.622C172.625 114.576 172.828 114.503 172.965 114.407C172.947 114.446 172.939 114.498 172.949 114.564C172.97 114.706 173.062 114.846 173.147 114.831C173.231 114.82 173.269 114.666 173.243 114.528C173.239 114.517 173.237 114.51 173.234 114.5L173.296 114.506C173.581 114.516 173.803 114.34 173.794 114.123C173.785 113.914 173.573 113.743 173.321 113.734Z" fill="black"/>
<path d="M177.322 112.836L177.272 112.866C177.27 112.856 177.269 112.848 177.268 112.836C177.233 112.699 177.14 112.573 177.07 112.592C177 112.607 176.976 112.76 177.006 112.898C177.021 112.961 177.045 113.008 177.075 113.041C176.737 112.933 176.208 112.965 175.812 113.08C175.61 113.135 175.472 113.221 175.377 113.321C175.338 113.359 175.28 113.376 175.225 113.362C175.079 113.324 174.921 113.34 174.764 113.408C174.552 113.495 174.392 113.702 174.36 113.934C174.293 114.361 174.695 114.699 175.17 114.616C175.286 114.592 175.391 114.547 175.479 114.486C175.53 114.45 175.598 114.44 175.659 114.458C175.805 114.497 175.991 114.488 176.227 114.423C176.692 114.287 177.174 113.92 177.324 113.592C177.328 113.634 177.346 113.684 177.386 113.737C177.471 113.851 177.617 113.933 177.686 113.888C177.752 113.84 177.713 113.687 177.625 113.576C177.617 113.569 177.612 113.563 177.605 113.556L177.662 113.533C177.911 113.41 178.029 113.158 177.925 112.97C177.822 112.783 177.551 112.723 177.322 112.836Z" fill="black"/>
<path d="M183.74 110.356L183.717 110.408C183.71 110.4 183.704 110.394 183.696 110.385C183.588 110.292 183.438 110.241 183.392 110.295C183.343 110.347 183.412 110.487 183.516 110.582C183.565 110.627 183.613 110.652 183.655 110.662C183.315 110.763 182.898 111.084 182.64 111.401C182.506 111.559 182.443 111.708 182.422 111.842C182.412 111.896 182.374 111.942 182.321 111.962C182.178 112.012 182.058 112.113 181.969 112.257C181.844 112.447 181.833 112.707 181.941 112.916C182.133 113.305 182.659 113.358 183.002 113.023C183.083 112.939 183.143 112.842 183.18 112.743C183.202 112.685 183.252 112.639 183.312 112.62C183.455 112.57 183.602 112.458 183.759 112.272C184.062 111.901 184.246 111.33 184.179 110.975C184.207 111.008 184.251 111.039 184.315 111.06C184.45 111.106 184.618 111.092 184.648 111.016C184.675 110.94 184.555 110.835 184.418 110.794C184.407 110.792 184.4 110.791 184.389 110.788L184.423 110.738C184.557 110.497 184.508 110.224 184.314 110.127C184.12 110.031 183.863 110.133 183.74 110.356Z" fill="black"/>
<path d="M180.742 110.454L180.703 110.498C180.699 110.489 180.695 110.481 180.69 110.471C180.615 110.351 180.485 110.26 180.424 110.299C180.363 110.34 180.389 110.495 180.461 110.615C180.495 110.671 180.534 110.708 180.573 110.729C180.213 110.731 179.716 110.943 179.379 111.198C179.211 111.332 179.104 111.453 179.052 111.583C179.03 111.635 178.984 111.675 178.927 111.685C178.779 111.715 178.628 111.779 178.509 111.908C178.349 112.083 178.287 112.337 178.354 112.556C178.48 112.973 178.983 113.117 179.371 112.86C179.469 112.799 179.546 112.719 179.599 112.628C179.631 112.574 179.687 112.539 179.748 112.533C179.895 112.515 180.071 112.453 180.256 112.306C180.63 112.022 180.949 111.527 180.988 111.173C181.005 111.212 181.039 111.254 181.094 111.292C181.212 111.374 181.374 111.406 181.421 111.341C181.468 111.276 181.382 111.143 181.264 111.064C181.254 111.059 181.247 111.056 181.238 111.051L181.285 111.013C181.483 110.824 181.517 110.55 181.362 110.401C181.207 110.252 180.929 110.276 180.742 110.454Z" fill="black"/>
<path d="M183.25 107.189L183.231 107.242C183.223 107.235 183.216 107.229 183.208 107.221C183.093 107.137 182.939 107.098 182.898 107.154C182.858 107.21 182.939 107.343 183.049 107.43C183.1 107.471 183.15 107.492 183.193 107.499C182.858 107.621 182.473 107.966 182.229 108.298C182.109 108.469 182.054 108.621 182.037 108.756C182.031 108.811 181.997 108.861 181.946 108.886C181.811 108.952 181.694 109.063 181.612 109.216C181.505 109.426 181.523 109.691 181.65 109.881C181.892 110.245 182.411 110.24 182.714 109.89C182.789 109.804 182.836 109.701 182.864 109.6C182.88 109.541 182.924 109.491 182.982 109.468C183.124 109.413 183.264 109.294 183.403 109.097C183.684 108.713 183.828 108.121 183.739 107.773C183.77 107.804 183.816 107.832 183.881 107.849C184.021 107.885 184.187 107.857 184.207 107.776C184.229 107.696 184.101 107.602 183.961 107.571C183.95 107.57 183.942 107.57 183.932 107.568L183.962 107.515C184.085 107.265 184.002 106.992 183.799 106.914C183.598 106.837 183.361 106.964 183.25 107.189Z" fill="black"/>
<path d="M184.186 103.195L184.187 103.254C184.177 103.25 184.17 103.246 184.159 103.242C184.021 103.203 183.863 103.22 183.842 103.291C183.822 103.361 183.947 103.46 184.083 103.502C184.147 103.521 184.201 103.522 184.244 103.512C183.981 103.752 183.762 104.245 183.688 104.654C183.656 104.864 183.666 105.025 183.713 105.153C183.732 105.206 183.725 105.265 183.69 105.31C183.601 105.429 183.533 105.573 183.534 105.745C183.537 105.979 183.649 106.203 183.852 106.327C184.219 106.561 184.707 106.344 184.82 105.889C184.852 105.778 184.855 105.667 184.832 105.563C184.819 105.503 184.837 105.439 184.878 105.393C184.979 105.282 185.06 105.118 185.096 104.886C185.179 104.426 185.07 103.854 184.854 103.567C184.895 103.585 184.948 103.593 185.014 103.585C185.156 103.568 185.299 103.486 185.292 103.408C185.285 103.329 185.131 103.287 184.989 103.306C184.978 103.309 184.971 103.31 184.961 103.313C184.965 103.294 184.968 103.275 184.97 103.254C184.988 102.987 184.826 102.76 184.61 102.749C184.393 102.737 184.204 102.937 184.186 103.195Z" fill="black"/>
<path d="M183.843 99.0524C183.846 99.0729 183.852 99.0919 183.857 99.111C183.846 99.1092 183.838 99.1078 183.826 99.1056C183.683 99.0966 183.533 99.1491 183.531 99.2272C183.529 99.3045 183.676 99.3765 183.819 99.3844C183.886 99.388 183.938 99.3765 183.977 99.356C183.781 99.6567 183.708 100.216 183.779 100.644C183.815 100.862 183.883 101.015 183.973 101.122C184.011 101.166 184.023 101.225 184.006 101.279C183.958 101.422 183.957 101.584 184.01 101.73C184.049 101.842 184.109 101.89 184.19 101.984C184.269 102.071 184.371 102.136 184.484 102.168C184.695 102.228 184.899 102.178 185.053 102.056C185.131 102.002 185.192 101.907 185.232 101.786C185.268 101.678 185.285 101.555 185.271 101.441C185.259 101.323 185.221 101.218 185.166 101.13C185.134 101.078 185.129 101.012 185.152 100.957C185.207 100.821 185.225 100.646 185.188 100.422C185.116 99.9794 184.861 99.4844 184.582 99.2621C184.626 99.2693 184.679 99.2643 184.742 99.2409C184.876 99.1905 184.994 99.0826 184.969 99.0128C184.944 98.943 184.784 98.9362 184.651 98.9851C184.641 98.9901 184.633 98.9934 184.624 98.998L184.621 98.9405C184.582 98.6854 184.385 98.5019 184.168 98.5232C183.953 98.544 183.803 98.7858 183.843 99.0524Z" fill="black"/>
<path d="M165.705 107.228C165.7 107.244 165.698 107.26 165.695 107.276C165.686 107.27 165.68 107.265 165.67 107.259C165.543 107.19 165.394 107.162 165.359 107.207C165.322 107.251 165.416 107.365 165.534 107.445C165.588 107.481 165.639 107.501 165.681 107.507C165.383 107.628 164.999 107.888 164.771 108.177C164.646 108.321 164.578 108.454 164.561 108.584C164.553 108.637 164.52 108.682 164.47 108.699C164.329 108.741 164.205 108.828 164.119 108.969C164.008 109.162 163.99 109.41 164.101 109.614C164.302 109.994 164.812 110.073 165.133 109.759C165.213 109.684 165.272 109.595 165.308 109.503C165.328 109.446 165.374 109.4 165.432 109.383C165.57 109.338 165.723 109.243 165.877 109.064C166.174 108.697 166.367 108.109 166.241 107.754C166.273 107.784 166.32 107.809 166.386 107.822C166.526 107.851 166.693 107.808 166.715 107.724C166.736 107.638 166.593 107.552 166.453 107.537H166.424L166.448 107.479C166.544 107.207 166.409 106.949 166.192 106.916C165.98 106.885 165.777 107.027 165.705 107.228Z" fill="black"/>
<path d="M165.432 103.39L165.441 103.447C165.43 103.444 165.422 103.442 165.411 103.439C165.269 103.419 165.115 103.458 165.105 103.533C165.094 103.608 165.237 103.688 165.378 103.705C165.445 103.714 165.498 103.706 165.539 103.69C165.311 103.944 165.215 104.544 165.309 104.968C165.355 105.185 165.428 105.322 165.525 105.42C165.565 105.46 165.58 105.515 165.564 105.566C165.522 105.702 165.527 105.849 165.586 105.987C165.672 106.176 165.854 106.321 166.09 106.376C166.302 106.423 166.507 106.373 166.647 106.234C166.793 106.094 166.868 105.874 166.834 105.647C166.817 105.534 166.772 105.438 166.714 105.354C166.68 105.305 166.672 105.243 166.692 105.19C166.74 105.06 166.75 104.889 166.709 104.691C166.623 104.297 166.406 103.889 166.15 103.643C166.192 103.653 166.246 103.652 166.311 103.634C166.448 103.596 166.573 103.504 166.556 103.438C166.538 103.372 166.38 103.353 166.242 103.389C166.232 103.393 166.224 103.396 166.215 103.399L166.217 103.345C166.2 103.103 166.022 102.911 165.805 102.916C165.588 102.92 165.415 103.134 165.432 103.39Z" fill="black"/>
<path d="M166.035 99.2558L166.016 99.3122C166.008 99.3054 166.002 99.3 165.993 99.2921C165.876 99.2115 165.719 99.1795 165.675 99.2475C165.632 99.3151 165.72 99.4515 165.84 99.5267C165.896 99.5623 165.948 99.5774 165.992 99.5788C165.679 99.7386 165.336 100.229 165.259 100.682C165.208 100.909 165.238 101.086 165.29 101.218C165.312 101.272 165.308 101.335 165.279 101.386C165.201 101.52 165.156 101.691 165.191 101.872C165.236 102.117 165.416 102.313 165.647 102.369C166.072 102.469 166.452 102.164 166.482 101.79C166.491 101.694 166.476 101.602 166.442 101.517C166.42 101.466 166.433 101.411 166.47 101.371C166.563 101.275 166.617 101.137 166.66 100.949C166.723 100.576 166.71 100.103 166.566 99.7904C166.6 99.8166 166.65 99.8378 166.715 99.849C166.856 99.8727 167.012 99.8497 167.023 99.7868C167.034 99.7242 166.9 99.6393 166.761 99.6098C166.75 99.6087 166.742 99.6076 166.732 99.6065C166.74 99.5914 166.75 99.5767 166.757 99.5601C166.844 99.3446 166.787 99.1014 166.592 98.9993C166.405 98.9007 166.137 99.0079 166.035 99.2558Z" fill="black"/>
<path d="M168.78 98.7273L168.75 98.7791C168.743 98.7705 168.738 98.764 168.731 98.7547C168.633 98.6518 168.487 98.5888 168.43 98.6468C168.373 98.7043 168.431 98.8554 168.532 98.9529C168.58 98.9993 168.627 99.0245 168.67 99.0349C168.33 99.1278 167.892 99.539 167.723 99.9667C167.625 100.178 167.618 100.357 167.641 100.497C167.651 100.555 167.634 100.616 167.595 100.659C167.49 100.775 167.411 100.934 167.408 101.117C167.401 101.367 167.536 101.594 167.75 101.696C168.145 101.88 168.58 101.658 168.688 101.297C168.717 101.206 168.722 101.113 168.706 101.023C168.695 100.969 168.719 100.917 168.764 100.886C168.875 100.81 168.957 100.685 169.038 100.511C169.177 100.158 169.263 99.6929 169.188 99.358C169.216 99.3904 169.26 99.4213 169.322 99.4451C169.455 99.4969 169.612 99.5059 169.636 99.4465C169.66 99.3875 169.547 99.2774 169.417 99.2206C169.406 99.217 169.399 99.2148 169.389 99.2116C169.401 99.1983 169.413 99.186 169.423 99.1713C169.553 98.9777 169.549 98.7281 169.379 98.5888C169.216 98.4546 168.932 98.5054 168.78 98.7273Z" fill="black"/>
<path d="M168.771 96.0423C168.755 96.0541 168.742 96.0682 168.728 96.0815C168.724 96.0714 168.721 96.0635 168.718 96.0523C168.658 95.9239 168.542 95.8178 168.471 95.853C168.402 95.8887 168.408 96.0498 168.471 96.1757C168.5 96.2347 168.536 96.2747 168.572 96.2984C168.213 96.2628 167.687 96.4988 167.36 96.8107C167.197 96.9784 167.109 97.1359 167.077 97.2752C167.063 97.3309 167.028 97.386 166.973 97.4119C166.831 97.4842 166.693 97.6032 166.621 97.7788C166.524 98.0195 166.563 98.2782 166.734 98.4458C167.046 98.7444 167.528 98.6854 167.75 98.3994C167.81 98.3274 167.848 98.2443 167.866 98.1558C167.877 98.1044 167.913 98.0619 167.968 98.0511C168.099 98.022 168.229 97.9486 168.363 97.8094C168.647 97.5403 168.894 97.1057 168.948 96.7747C168.964 96.8147 168.995 96.8582 169.045 96.9014C169.152 96.9938 169.298 97.0496 169.342 96.9992C169.386 96.9485 169.315 96.8075 169.211 96.7129C169.202 96.706 169.196 96.7017 169.188 96.6956L169.233 96.6672C169.433 96.5326 169.498 96.2779 169.381 96.098C169.264 95.9185 168.991 95.8933 168.771 96.0423Z" fill="black"/>
<path d="M172.717 94.4663L172.659 94.48C172.661 94.4695 172.662 94.4613 172.665 94.4498C172.677 94.3091 172.627 94.1605 172.546 94.1587C172.465 94.1566 172.39 94.3012 172.384 94.4415C172.381 94.507 172.394 94.5584 172.414 94.5969C172.116 94.3998 171.521 94.3613 171.08 94.512C170.855 94.5832 170.708 94.6872 170.62 94.803C170.583 94.8498 170.525 94.8782 170.464 94.8761C170.303 94.8703 170.135 94.9297 169.988 95.0437C169.792 95.2067 169.712 95.4643 169.778 95.6834C169.909 96.0967 170.364 96.2597 170.706 96.1046C170.793 96.0658 170.864 96.0014 170.923 95.9348C170.958 95.8945 171.012 95.8773 171.066 95.8884C171.194 95.914 171.345 95.9021 171.531 95.8435C171.894 95.7193 172.307 95.46 172.514 95.1916C172.508 95.234 172.514 95.2866 172.537 95.3481C172.586 95.4801 172.685 95.5985 172.746 95.5754C172.808 95.5521 172.815 95.3948 172.771 95.2624C172.767 95.2524 172.763 95.2455 172.759 95.2365L172.813 95.2329C173.049 95.2124 173.233 95.02 173.223 94.8099C173.213 94.594 172.987 94.4418 172.717 94.4663Z" fill="black"/>
<path d="M168.702 113.202L168.652 113.235C168.65 113.225 168.649 113.217 168.646 113.205C168.608 113.069 168.508 112.947 168.431 112.973C168.355 112.999 168.337 113.16 168.38 113.294C168.401 113.356 168.431 113.401 168.464 113.429C168.114 113.347 167.543 113.516 167.184 113.809C166.999 113.954 166.899 114.101 166.857 114.241C166.839 114.297 166.795 114.344 166.737 114.362C166.584 114.413 166.448 114.526 166.351 114.684C166.225 114.904 166.243 115.172 166.383 115.355C166.653 115.697 167.137 115.693 167.401 115.43C167.469 115.363 167.512 115.279 167.544 115.196C167.563 115.146 167.608 115.111 167.662 115.104C167.791 115.083 167.928 115.02 168.082 114.901C168.377 114.66 168.672 114.274 168.769 113.952C168.779 113.993 168.803 114.041 168.847 114.091C168.94 114.197 169.074 114.274 169.124 114.231C169.173 114.188 169.124 114.038 169.036 113.929C169.028 113.922 169.023 113.917 169.015 113.909L169.064 113.888C169.279 113.787 169.382 113.543 169.298 113.35C169.211 113.151 168.945 113.087 168.702 113.202Z" fill="black"/>
<path d="M176.83 94.7408L176.778 94.7484C176.781 94.7383 176.783 94.7307 176.786 94.72C176.808 94.5811 176.777 94.4293 176.716 94.4134C176.654 94.399 176.578 94.53 176.548 94.6674C176.534 94.7315 176.536 94.7843 176.547 94.8254C176.308 94.5879 175.887 94.3789 175.48 94.3016C175.274 94.2641 175.103 94.2782 174.969 94.3293C174.915 94.3494 174.852 94.3444 174.8 94.3127C174.665 94.2246 174.489 94.181 174.3 94.2102C174.042 94.24 173.837 94.43 173.78 94.6502C173.679 95.0711 173.981 95.438 174.347 95.4798C174.441 95.487 174.533 95.4812 174.62 95.4499C174.67 95.4315 174.726 95.4449 174.768 95.4834C174.867 95.574 175.01 95.6434 175.228 95.683C175.656 95.7661 176.262 95.6661 176.533 95.4283C176.518 95.469 176.513 95.5218 176.525 95.5862C176.552 95.724 176.651 95.8568 176.733 95.8435C176.817 95.8316 176.843 95.6747 176.808 95.5388C176.804 95.5283 176.802 95.5208 176.798 95.5111C176.818 95.5132 176.838 95.5139 176.859 95.5129C177.137 95.4992 177.335 95.3024 177.303 95.0869C177.271 94.8808 177.06 94.7293 176.83 94.7408Z" fill="black"/>
<path d="M180.356 93.31L180.314 93.3452C180.311 93.3352 180.308 93.3276 180.304 93.3168C180.244 93.1898 180.13 93.0812 180.066 93.1082C180.003 93.1351 180.013 93.2898 180.07 93.4186C180.097 93.4787 180.13 93.5208 180.164 93.5467C179.824 93.4992 179.329 93.6161 178.988 93.7903C178.814 93.8805 178.705 93.9885 178.635 94.0921C178.607 94.136 178.558 94.1626 178.506 94.1583C178.365 94.1504 178.224 94.1831 178.094 94.2666C177.92 94.3921 177.806 94.6065 177.809 94.8364C177.804 95.2696 178.243 95.5595 178.69 95.3987C178.801 95.3627 178.888 95.2926 178.96 95.2188C179.002 95.1742 179.064 95.1526 179.125 95.1591C179.276 95.1796 179.449 95.1379 179.657 95.0303C180.069 94.8192 180.443 94.3867 180.514 94.0424C180.526 94.0838 180.554 94.1291 180.602 94.1741C180.705 94.2709 180.858 94.3259 180.913 94.2716C180.967 94.2169 180.899 94.0752 180.793 93.9802C180.784 93.9737 180.778 93.9694 180.769 93.9633L180.82 93.9342C181.038 93.7881 181.085 93.5125 180.954 93.3481C180.817 93.1769 180.559 93.1751 180.356 93.31Z" fill="black"/>
<path d="M163.484 105.425L163.501 105.479C163.491 105.478 163.482 105.477 163.471 105.476C163.328 105.48 163.182 105.543 163.184 105.617C163.181 105.643 163.205 105.624 163.257 105.629C163.308 105.629 163.376 105.657 163.447 105.659C163.513 105.665 163.566 105.661 163.607 105.647C163.382 105.858 163.175 106.288 163.111 106.662C163.079 106.852 163.094 106.999 163.142 107.118C163.163 107.167 163.156 107.222 163.12 107.26C163.027 107.365 162.968 107.494 162.967 107.647C162.964 107.85 163.079 108.056 163.269 108.195C163.612 108.469 164.119 108.283 164.244 107.842C164.277 107.734 164.276 107.628 164.258 107.53C164.247 107.472 164.265 107.412 164.305 107.369C164.405 107.266 164.482 107.111 164.519 106.891C164.594 106.456 164.48 105.893 164.219 105.611C164.261 105.624 164.316 105.626 164.38 105.606C164.448 105.582 164.518 105.553 164.559 105.487C164.601 105.427 164.616 105.331 164.6 105.289C164.572 105.228 164.413 105.236 164.283 105.293C164.273 105.298 164.266 105.302 164.257 105.307L164.251 105.254C164.2 105.022 163.986 104.866 163.773 104.905C163.56 104.945 163.431 105.177 163.484 105.425Z" fill="black"/>
<path d="M163.21 101.365L163.209 101.423C163.199 101.418 163.191 101.415 163.181 101.41C163.045 101.368 162.885 101.381 162.864 101.454C162.842 101.527 162.966 101.628 163.103 101.667C163.167 101.685 163.22 101.685 163.264 101.675C163.006 101.907 162.813 102.433 162.828 102.869C162.827 103.091 162.892 103.251 162.971 103.365C163.005 103.412 163.014 103.472 162.993 103.526C162.933 103.669 162.933 103.836 162.996 104.002C163.081 104.229 163.292 104.386 163.53 104.402C163.964 104.43 164.29 104.071 164.25 103.696C164.237 103.601 164.206 103.513 164.16 103.436C164.131 103.391 164.132 103.334 164.159 103.287C164.229 103.174 164.253 103.027 164.255 102.832C164.241 102.449 164.098 101.982 163.875 101.722C163.915 101.738 163.968 101.745 164.035 101.738C164.177 101.722 164.319 101.655 164.311 101.59C164.305 101.525 164.151 101.482 164.01 101.494C163.999 101.496 163.991 101.498 163.981 101.499L163.991 101.448C164.011 101.214 163.87 101 163.657 100.967C163.441 100.933 163.232 101.11 163.21 101.365Z" fill="black"/>
<path d="M164.504 97.4755L164.479 97.5277C164.472 97.5198 164.466 97.5137 164.458 97.5047C164.352 97.41 164.203 97.3572 164.152 97.4158C164.102 97.4741 164.172 97.618 164.281 97.709C164.331 97.7515 164.38 97.7738 164.423 97.782C164.249 97.8328 164.073 97.9634 163.912 98.1321C163.745 98.2979 163.609 98.5077 163.532 98.7156C163.448 98.9246 163.428 99.0948 163.466 99.2344C163.479 99.2909 163.466 99.3513 163.426 99.3941C163.324 99.5092 163.24 99.6628 163.246 99.8452C163.248 100.092 163.388 100.314 163.6 100.41C163.998 100.583 164.436 100.364 164.528 100.007C164.556 99.9179 164.559 99.8269 164.543 99.7384C164.533 99.6862 164.554 99.6344 164.596 99.602C164.694 99.5215 164.79 99.4042 164.861 99.2265C164.927 99.0487 164.971 98.8415 164.996 98.6401C165.015 98.4357 165 98.2306 164.96 98.0727C164.99 98.1033 165.036 98.1314 165.099 98.1519C165.236 98.1954 165.392 98.1925 165.412 98.131C165.432 98.0691 165.31 97.9677 165.177 97.9202C165.166 97.9177 165.158 97.9159 165.148 97.9133C165.159 97.8993 165.17 97.886 165.179 97.8705C165.29 97.6655 165.265 97.4198 165.082 97.2982C164.906 97.1802 164.629 97.2485 164.504 97.4755Z" fill="black"/>
<path d="M184.372 94.2931L184.366 94.3503C184.357 94.3449 184.349 94.3409 184.339 94.3352C184.208 94.2794 184.049 94.2773 184.02 94.3485C183.992 94.4201 184.106 94.5338 184.238 94.5849C184.3 94.609 184.354 94.6147 184.397 94.6086C184.249 94.7122 184.126 94.8917 184.029 95.1025C183.926 95.3126 183.866 95.5548 183.861 95.776C183.851 96.0005 183.888 96.1678 183.97 96.2879C184.001 96.3369 184.008 96.3984 183.985 96.4516C183.927 96.593 183.898 96.765 183.964 96.9355C184.046 97.1686 184.252 97.3345 184.484 97.3571C184.918 97.3949 185.26 97.047 185.229 96.6808C185.226 96.5869 185.2 96.4998 185.155 96.4214C185.129 96.3754 185.131 96.3196 185.16 96.2754C185.227 96.1678 185.278 96.0268 185.287 95.8357C185.291 95.6465 185.264 95.4364 185.222 95.2378C185.173 95.0389 185.091 94.8493 185.001 94.7129C185.04 94.732 185.092 94.7439 185.159 94.7431C185.302 94.741 185.449 94.6885 185.447 94.6237C185.446 94.559 185.298 94.5018 185.155 94.4992C185.144 94.5003 185.137 94.501 185.127 94.5021C185.132 94.4852 185.138 94.4694 185.141 94.4517C185.179 94.2222 185.074 93.9977 184.861 93.9409C184.655 93.8859 184.416 94.0384 184.372 94.2931Z" fill="black"/>
<path d="M167.326 94.4765L167.283 94.5139C167.279 94.5039 167.277 94.4963 167.273 94.4855C167.213 94.3582 167.096 94.2513 167.026 94.2844C166.957 94.3171 166.965 94.4751 167.028 94.6003C167.058 94.6589 167.093 94.6988 167.13 94.7233C166.785 94.6945 166.257 94.9039 165.94 95.2104C165.773 95.3572 165.694 95.5159 165.662 95.6526C165.65 95.709 165.611 95.7572 165.556 95.7788C165.411 95.8371 165.273 95.9425 165.198 96.1105C165.091 96.3343 165.12 96.594 165.271 96.7696C165.554 97.0927 166.049 97.0819 166.283 96.7951C166.348 96.7268 166.392 96.6462 166.416 96.5595C166.43 96.5088 166.472 96.471 166.525 96.4595C166.655 96.4325 166.778 96.3544 166.928 96.2242C167.205 95.9551 167.464 95.5389 167.506 95.1989C167.521 95.2388 167.552 95.282 167.602 95.3255C167.71 95.4184 167.857 95.4763 167.901 95.4274C167.945 95.3781 167.874 95.2381 167.769 95.1431C167.761 95.1367 167.754 95.132 167.746 95.1259L167.792 95.0989C167.983 94.9575 168.045 94.7053 167.927 94.5301C167.805 94.3499 167.534 94.3233 167.326 94.4765Z" fill="black"/>
<path d="M171.063 92.7029L171.009 92.7234C171.009 92.7126 171.01 92.7044 171.01 92.6929C171.002 92.5522 170.932 92.4115 170.856 92.4187C170.779 92.4259 170.728 92.5777 170.74 92.7173C170.746 92.7828 170.765 92.8324 170.789 92.8681C170.475 92.7069 169.905 92.7224 169.496 92.8994C169.287 92.9832 169.152 93.0907 169.076 93.212C169.044 93.2606 168.991 93.2922 168.932 93.2929C168.776 93.2958 168.61 93.348 168.479 93.4746C168.298 93.6419 168.229 93.893 168.302 94.111C168.443 94.5147 168.909 94.6841 169.238 94.5003C169.324 94.4582 169.395 94.3981 169.449 94.3251C169.481 94.2823 169.535 94.2614 169.588 94.2689C169.717 94.2844 169.868 94.2653 170.051 94.1927C170.405 94.0387 170.795 93.7365 170.964 93.4462C170.963 93.4886 170.976 93.5404 171.006 93.5987C171.072 93.7232 171.186 93.8279 171.245 93.7969C171.303 93.7656 171.289 93.6095 171.227 93.484C171.221 93.4746 171.217 93.4681 171.212 93.4595L171.264 93.4498C171.494 93.389 171.648 93.185 171.603 92.9738C171.558 92.7673 171.314 92.6367 171.063 92.7029Z" fill="black"/>
<path d="M175.215 92.4677L175.157 92.4645C175.162 92.4552 175.165 92.448 175.17 92.4375C175.22 92.3055 175.214 92.149 175.14 92.1249C175.066 92.1008 174.957 92.2192 174.912 92.3519C174.891 92.4138 174.888 92.467 174.896 92.5095C174.672 92.2411 174.137 92.0382 173.687 92.0411C173.46 92.0389 173.293 92.0979 173.174 92.1735C173.126 92.2055 173.063 92.2134 173.009 92.1915C172.863 92.1357 172.69 92.135 172.518 92.1947C172.283 92.272 172.126 92.4972 172.111 92.7239C172.09 93.1574 172.453 93.46 172.828 93.4301C172.923 93.4215 173.011 93.3851 173.089 93.3394C173.135 93.3128 173.192 93.3146 173.238 93.3427C173.351 93.4132 173.498 93.4423 173.693 93.4445C174.077 93.4427 174.552 93.3114 174.823 93.1081C174.806 93.147 174.796 93.1991 174.801 93.2646C174.811 93.4049 174.872 93.5463 174.938 93.5413C175.004 93.5362 175.054 93.3876 175.049 93.2481C175.047 93.2373 175.046 93.2293 175.044 93.2196C175.061 93.224 175.078 93.229 175.096 93.2315C175.331 93.2599 175.559 93.134 175.601 92.9228C175.642 92.7156 175.475 92.5005 175.215 92.4677Z" fill="black"/>
<path d="M178.913 92.1432L178.863 92.1673C178.862 92.1569 178.861 92.149 178.86 92.1375C178.836 91.9993 178.753 91.8655 178.682 91.8777C178.612 91.8896 178.58 92.0429 178.605 92.1806C178.616 92.2454 178.638 92.2936 178.665 92.3274C178.348 92.1932 177.816 92.2199 177.454 92.3361C177.364 92.3645 177.289 92.3979 177.246 92.4289C177.212 92.449 177.224 92.4555 177.218 92.4731C177.216 92.49 177.176 92.508 177.159 92.5282C177.124 92.5616 177.075 92.5674 177.034 92.5447C176.925 92.4814 176.806 92.4555 176.66 92.4821C176.463 92.5177 176.256 92.6652 176.162 92.8771C175.987 93.2664 176.218 93.7118 176.715 93.7524C176.837 93.7614 176.957 93.7391 177.059 93.6956C177.119 93.6682 177.189 93.6711 177.248 93.6956C177.289 93.7096 177.313 93.7272 177.379 93.7319C177.44 93.7373 177.526 93.7348 177.569 93.7323C177.681 93.7262 177.783 93.7064 177.894 93.6711C178.324 93.5323 178.735 93.1991 178.885 92.8901C178.888 92.9329 178.904 92.9836 178.939 93.039C179.016 93.1577 179.145 93.2498 179.206 93.2121C179.267 93.1739 179.237 93.02 179.161 92.9016C179.154 92.893 179.149 92.8868 179.142 92.8789L179.196 92.8638C179.429 92.7753 179.553 92.5429 179.475 92.3436C179.398 92.1443 179.145 92.0547 178.913 92.1432Z" fill="black"/>
<path d="M160.971 102.534L160.983 102.595C160.973 102.593 160.965 102.591 160.953 102.589C160.81 102.573 160.658 102.622 160.655 102.705C160.652 102.788 160.797 102.868 160.939 102.878C161.006 102.883 161.059 102.872 161.098 102.852C160.892 103.155 160.865 103.778 160.953 104.174C160.999 104.387 161.074 104.536 161.168 104.64C161.208 104.683 161.224 104.742 161.208 104.797C161.167 104.944 161.173 105.107 161.239 105.266C161.332 105.483 161.533 105.64 161.766 105.678C162.2 105.759 162.557 105.356 162.48 104.899C162.462 104.786 162.42 104.684 162.361 104.598C162.327 104.547 162.319 104.483 162.339 104.426C162.388 104.287 162.398 104.109 162.35 103.883C162.246 103.414 161.975 102.988 161.704 102.764C161.747 102.772 161.801 102.766 161.864 102.744C161.999 102.696 162.121 102.595 162.098 102.529C162.076 102.463 161.916 102.452 161.781 102.495C161.771 102.5 161.763 102.503 161.754 102.507L161.752 102.451C161.717 102.203 161.545 102.006 161.324 102.015C161.112 102.023 160.933 102.258 160.971 102.534Z" fill="black"/>
<path d="M161.625 98.1583L161.607 98.2177C161.599 98.2105 161.593 98.2051 161.584 98.1975C161.465 98.1169 161.309 98.0881 161.266 98.159C161.223 98.2295 161.313 98.3684 161.433 98.4447C161.489 98.4803 161.541 98.4954 161.585 98.4961C161.256 98.6645 160.918 99.1717 160.816 99.643C160.753 99.8783 160.78 100.068 160.828 100.209C160.849 100.266 160.843 100.333 160.809 100.386C160.715 100.526 160.686 100.709 160.709 100.903C160.738 101.166 160.936 101.377 161.16 101.436C161.589 101.541 161.956 101.222 162.003 100.832C162.013 100.732 161.994 100.634 161.969 100.545C161.952 100.491 161.966 100.433 162.004 100.391C162.099 100.29 162.155 100.145 162.209 99.9456C162.295 99.5506 162.285 99.0307 162.159 98.7066C162.193 98.7335 162.243 98.7548 162.309 98.7648C162.451 98.7861 162.606 98.7544 162.618 98.685C162.631 98.6159 162.496 98.5306 162.356 98.5051C162.345 98.5044 162.337 98.5037 162.327 98.5029L162.352 98.4522C162.449 98.2187 162.385 97.9608 162.187 97.8676C161.994 97.7762 161.732 97.9018 161.625 98.1583Z" fill="black"/>
<path d="M164.095 94.496L164.056 94.5432C164.051 94.5338 164.047 94.5266 164.042 94.5162C163.961 94.4007 163.825 94.3176 163.759 94.3651C163.692 94.4111 163.729 94.5748 163.812 94.6889C163.851 94.7425 163.894 94.7752 163.934 94.7918C163.57 94.8317 163.071 95.1598 162.784 95.5354C162.643 95.7282 162.578 95.8994 162.564 96.0459C162.558 96.1056 162.524 96.1624 162.471 96.1948C162.333 96.2844 162.219 96.4279 162.156 96.6089C162.066 96.8532 162.144 97.1273 162.316 97.2809C162.648 97.5687 163.124 97.4489 163.348 97.11C163.404 97.0226 163.434 96.9266 163.446 96.8305C163.456 96.7747 163.494 96.7272 163.548 96.7046C163.678 96.6499 163.804 96.5456 163.929 96.3732C164.184 96.0401 164.388 95.5469 164.39 95.195C164.412 95.2325 164.45 95.2702 164.507 95.3033C164.631 95.3742 164.785 95.3951 164.827 95.3361C164.867 95.2753 164.773 95.149 164.651 95.0756C164.641 95.0709 164.633 95.0677 164.624 95.063L164.668 95.0252C164.849 94.8403 164.872 94.5669 164.72 94.4151C164.567 94.2633 164.288 94.2996 164.095 94.496Z" fill="black"/>
<path d="M161.286 107.108L161.296 107.169C161.286 107.166 161.278 107.164 161.266 107.161C161.124 107.144 160.971 107.189 160.963 107.269C160.954 107.349 161.103 107.43 161.244 107.444C161.311 107.452 161.364 107.442 161.404 107.423C161.192 107.718 161.11 108.302 161.205 108.762C161.257 108.994 161.344 109.156 161.446 109.264C161.487 109.308 161.508 109.371 161.497 109.431C161.474 109.591 161.507 109.771 161.603 109.938C161.728 110.166 161.988 110.291 162.219 110.267C162.658 110.214 162.884 109.785 162.776 109.395C162.746 109.296 162.693 109.21 162.628 109.137C162.592 109.093 162.582 109.033 162.6 108.979C162.645 108.847 162.65 108.685 162.602 108.478C162.519 108.07 162.279 107.592 162.013 107.357C162.056 107.366 162.11 107.363 162.174 107.343C162.31 107.299 162.428 107.199 162.411 107.13C162.391 107.06 162.233 107.045 162.096 107.086C162.086 107.09 162.078 107.093 162.069 107.097L162.069 107.04C162.049 106.784 161.857 106.585 161.64 106.596C161.424 106.607 161.265 106.836 161.286 107.108Z" fill="black"/>
<path d="M167.559 91.7367L167.505 91.7698C167.504 91.7593 167.502 91.7514 167.5 91.7399C167.46 91.605 167.356 91.4852 167.276 91.5115C167.197 91.5395 167.18 91.7054 167.225 91.8392C167.246 91.9018 167.277 91.9457 167.31 91.9734C166.95 91.9068 166.36 92.0835 165.987 92.3749C165.793 92.517 165.683 92.6623 165.632 92.8015C165.61 92.858 165.562 92.9037 165.503 92.9206C165.343 92.9642 165.194 93.0656 165.085 93.221C164.935 93.4311 164.916 93.6999 165.034 93.9031C165.253 94.2765 165.76 94.315 166.076 94.0398C166.154 93.9679 166.217 93.8891 166.258 93.8002C166.282 93.7484 166.333 93.7121 166.39 93.7042C166.529 93.6829 166.681 93.616 166.854 93.4901C167.186 93.23 167.518 92.8274 167.623 92.4918C167.633 92.5339 167.658 92.581 167.702 92.6296C167.799 92.7335 167.939 92.8015 167.993 92.7559C168.047 92.712 167.998 92.5637 167.905 92.4562C167.897 92.4486 167.891 92.4432 167.883 92.4364L167.936 92.4141C168.161 92.2954 168.27 92.045 168.18 91.8554C168.087 91.6586 167.808 91.605 167.559 91.7367Z" fill="black"/>
<path d="M171.886 90.5803L171.825 90.5897C171.827 90.5792 171.83 90.5713 171.833 90.5602C171.854 90.4206 171.812 90.2691 171.731 90.2616C171.65 90.2536 171.563 90.3921 171.545 90.5314C171.536 90.5965 171.544 90.649 171.563 90.6889C171.269 90.472 170.672 90.3785 170.197 90.4713C169.957 90.5134 169.79 90.6076 169.678 90.7059C169.633 90.7472 169.569 90.7677 169.507 90.7573C169.342 90.7382 169.156 90.7717 168.985 90.8681C168.754 91.0066 168.629 91.257 168.661 91.484C168.729 91.9143 169.171 92.1255 169.556 92.0143C169.655 91.9844 169.74 91.9337 169.812 91.8682C169.856 91.8326 169.917 91.8225 169.971 91.8409C170.105 91.8873 170.263 91.8844 170.473 91.8484C170.882 91.7686 171.37 91.5437 171.616 91.2894C171.605 91.3311 171.607 91.3844 171.626 91.4473C171.668 91.5822 171.766 91.7071 171.837 91.688C171.908 91.6689 171.927 91.5128 171.889 91.3775C171.885 91.3674 171.882 91.3602 171.878 91.3509L171.936 91.3513C172.196 91.33 172.404 91.1599 172.398 90.944C172.392 90.7336 172.163 90.558 171.886 90.5803Z" fill="black"/>
<path d="M168.592 89.0341L168.535 89.0571C168.535 89.0463 168.535 89.0381 168.536 89.0266C168.524 88.8859 168.448 88.7481 168.367 88.7589C168.286 88.7693 168.234 88.924 168.249 89.0636C168.256 89.1291 168.276 89.1784 168.303 89.2129C167.967 89.0683 167.363 89.1118 166.923 89.3093C166.699 89.4043 166.558 89.5342 166.473 89.6547C166.438 89.7051 166.381 89.7396 166.318 89.7439C166.153 89.7623 165.98 89.8367 165.836 89.9691C165.643 90.1562 165.58 90.4282 165.664 90.6419C165.831 91.0451 166.31 91.1509 166.659 90.9556C166.748 90.9045 166.82 90.8358 166.875 90.7555C166.909 90.7113 166.966 90.6879 167.023 90.6933C167.164 90.7084 167.318 90.6696 167.513 90.5872C167.893 90.4174 168.315 90.0882 168.495 89.7853C168.495 89.8285 168.508 89.8795 168.542 89.9367C168.613 90.0587 168.739 90.1576 168.803 90.1231C168.868 90.0886 168.85 89.9324 168.781 89.8094C168.775 89.8004 168.77 89.7943 168.764 89.786L168.821 89.773C169.069 89.6939 169.232 89.4813 169.175 89.2723C169.12 89.069 168.857 88.9499 168.592 89.0341Z" fill="black"/>
<path d="M176.278 90.7399L176.218 90.7413C176.222 90.7313 176.225 90.7237 176.229 90.7129C176.267 90.5773 176.246 90.4219 176.172 90.4035C176.099 90.3855 176 90.5111 175.96 90.6464C175.942 90.7093 175.942 90.7626 175.953 90.8043C175.701 90.5514 175.175 90.347 174.725 90.3125C174.496 90.2952 174.322 90.3258 174.19 90.3895C174.137 90.4154 174.071 90.4165 174.017 90.3884C173.874 90.3136 173.698 90.2812 173.497 90.3179C173.242 90.374 173.04 90.5579 172.984 90.7827C172.877 91.2043 173.233 91.5709 173.637 91.5846C173.742 91.59 173.844 91.572 173.938 91.5368C173.994 91.5155 174.057 91.5238 174.106 91.5576C174.223 91.6389 174.387 91.6947 174.615 91.712C175.062 91.7461 175.625 91.6249 175.913 91.4058C175.895 91.4457 175.888 91.4983 175.898 91.5634C175.918 91.703 176.004 91.8404 176.083 91.831C176.162 91.822 176.202 91.6699 176.18 91.531C176.177 91.5202 176.175 91.5126 176.172 91.5026L176.232 91.5112C176.506 91.5267 176.737 91.3608 176.742 91.1479C176.747 90.9342 176.542 90.755 176.278 90.7399Z" fill="black"/>
<path d="M150.376 108.267C150.352 108.347 150.277 108.399 150.193 108.409C149.017 108.545 148.331 108.7 147.806 108.975C147.292 109.223 146.99 109.544 146.995 109.643C147 109.742 147.342 110.049 148.019 110.1C148.187 110.119 148.371 110.093 148.573 110.063C148.775 110.037 148.989 109.973 149.206 109.868C149.426 109.773 149.651 109.643 149.861 109.458C150.079 109.29 150.278 109.065 150.452 108.802C150.501 108.729 150.59 108.689 150.678 108.69C150.995 108.686 151.336 108.643 151.467 108.543C151.593 108.432 151.503 108.296 151.041 108.083C150.868 107.597 150.725 107.512 150.634 107.605C150.534 107.693 150.456 107.964 150.376 108.267Z" fill="black"/>
<path d="M152.95 104.373C152.987 104.449 152.976 104.54 152.924 104.604C152.134 105.492 151.78 106.105 151.579 106.642C151.387 107.163 151.398 107.609 151.469 107.678C151.541 107.748 152 107.732 152.526 107.305C153.049 106.899 153.574 105.967 153.384 104.725C153.367 104.638 153.396 104.548 153.462 104.492C153.967 104.074 154.326 103.525 153.333 103.803C152.433 103.298 152.696 103.826 152.95 104.373Z" fill="black"/>
<path d="M152.717 99.6506C152.787 99.6956 152.823 99.7794 152.812 99.8622C152.641 101.023 152.677 101.754 152.857 102.321C153.009 102.872 153.306 103.213 153.408 103.223C153.508 103.232 153.846 102.941 154.02 102.307C154.174 101.695 154.112 100.668 153.264 99.7193C153.206 99.6539 153.185 99.5614 153.212 99.4772C153.386 98.8649 153.409 98.1853 152.719 98.9696C151.708 99.0326 152.182 99.3369 152.717 99.6506Z" fill="black"/>
<path d="M149.661 96.1304C149.743 96.115 149.834 96.1394 149.879 96.2139C150.545 97.182 150.996 97.7019 151.482 98.0339C151.701 98.2098 151.924 98.3196 152.103 98.3843C152.271 98.4563 152.401 98.4753 152.447 98.4502C152.49 98.426 152.542 98.307 152.56 98.1098C152.566 97.9202 152.528 97.6551 152.407 97.341C152.26 97.0471 152.039 96.6924 151.649 96.4046C151.276 96.106 150.741 95.8772 150.112 95.8067C150.027 95.7912 149.941 95.7502 149.901 95.671C149.606 95.0854 149.119 94.6198 149.187 95.6351C148.497 96.3931 149.064 96.2438 149.661 96.1304Z" fill="black"/>
<path d="M144.953 95.5919C145.005 95.5271 145.092 95.4919 145.174 95.5145C146.321 95.8293 147.051 95.8833 147.633 95.8167C148.202 95.7394 148.592 95.5519 148.626 95.4426C148.653 95.3627 148.434 94.9436 147.812 94.6867C147.213 94.4162 146.148 94.3471 145.083 95.0551C145.009 95.1041 144.915 95.1228 144.834 95.0886C144.225 94.8267 143.547 94.7813 144.265 95.5142C144.236 96.5305 144.57 96.056 144.953 95.5919Z" fill="black"/>
<path d="M141.119 98.2546C141.112 98.1729 141.156 98.0934 141.229 98.0513C142.26 97.4754 142.825 97.0706 143.209 96.6389C143.577 96.213 143.759 95.8302 143.71 95.723C143.69 95.6784 143.576 95.6194 143.381 95.591C143.186 95.5604 142.905 95.559 142.587 95.6723C141.956 95.8597 141.077 96.5343 140.837 97.7858C140.821 97.8729 140.76 97.9459 140.675 97.9769C140.07 98.2165 139.523 98.628 140.573 98.6726C141.254 99.4163 141.191 98.8572 141.119 98.2546Z" fill="black"/>
<path d="M139.981 102.823C139.926 102.76 139.914 102.669 139.947 102.593C140.441 101.514 140.6 100.799 140.583 100.215C140.581 99.6482 140.419 99.2435 140.325 99.2036C140.233 99.1643 139.802 99.3363 139.462 99.909C139.139 100.466 138.928 101.47 139.471 102.603C139.51 102.681 139.506 102.775 139.456 102.847C139.268 103.11 139.123 103.403 139.143 103.561C139.159 103.721 139.323 103.729 139.77 103.475C140.268 103.612 140.423 103.547 140.401 103.415C140.372 103.28 140.176 103.058 139.981 102.823Z" fill="black"/>
<path d="M141.614 107.222C141.531 107.205 141.465 107.141 141.445 107.062C141.199 105.925 140.959 105.256 140.636 104.766C140.314 104.293 139.969 104.032 139.855 104.053C139.77 104.067 139.488 104.445 139.525 105.103C139.54 105.74 139.927 106.742 141.07 107.35C141.151 107.389 141.205 107.467 141.211 107.554C141.224 107.879 141.307 108.199 141.426 108.314C141.543 108.433 141.672 108.335 141.857 107.858C142.328 107.655 142.403 107.506 142.306 107.42C142.203 107.334 141.91 107.291 141.614 107.222Z" fill="black"/>
<path d="M145.776 109.365C145.705 109.407 145.613 109.402 145.543 109.355C144.552 108.704 143.924 108.397 143.354 108.268C142.803 108.136 142.371 108.161 142.301 108.245C142.242 108.313 142.278 108.783 142.767 109.255C143.233 109.713 144.236 110.167 145.477 109.819C145.563 109.795 145.656 109.817 145.722 109.879C146.209 110.292 146.82 110.612 146.401 109.658C146.782 108.737 146.295 109.021 145.776 109.365Z" fill="black"/>
<path d="M150.377 112.796C150.334 112.865 150.253 112.902 150.173 112.891C149.603 112.82 149.13 112.764 148.745 112.824C148.349 112.835 148.029 112.921 147.767 113.038C147.242 113.239 146.948 113.551 146.95 113.658C146.953 113.751 147.272 114.063 147.886 114.176C148.19 114.216 148.569 114.207 148.994 114.106C149.408 113.957 149.883 113.756 150.318 113.337C150.38 113.278 150.467 113.257 150.548 113.284C150.841 113.382 151.156 113.459 151.298 113.408C151.439 113.35 151.402 113.191 151.047 112.837C151.036 112.326 150.935 112.196 150.818 112.256C150.696 112.311 150.535 112.539 150.377 112.796Z" fill="black"/>
<path d="M154.289 110.409C154.28 110.488 154.221 110.553 154.143 110.576C153.861 110.658 153.624 110.751 153.411 110.846C153.186 110.925 152.994 111.015 152.827 111.113C152.502 111.321 152.229 111.495 152.042 111.708C151.856 111.919 151.725 112.119 151.64 112.272C151.56 112.431 151.536 112.556 151.558 112.603C151.579 112.647 151.693 112.707 151.88 112.743C152.071 112.785 152.329 112.786 152.626 112.696C152.922 112.607 153.288 112.476 153.608 112.168C153.772 112.022 153.936 111.849 154.092 111.649C154.234 111.435 154.362 111.185 154.473 110.913C154.504 110.836 154.576 110.782 154.663 110.773C155.279 110.687 155.872 110.454 154.892 110.139C154.406 109.256 154.335 109.815 154.289 110.409Z" fill="black"/>
<path d="M156.705 106.548C156.735 106.624 156.716 106.709 156.659 106.766C156.22 107.151 155.936 107.504 155.712 107.82C155.476 108.129 155.374 108.443 155.28 108.701C155.105 109.219 155.18 109.656 155.262 109.72C155.339 109.781 155.767 109.727 156.254 109.327C156.5 109.131 156.704 108.817 156.889 108.425C157.061 108.027 157.142 107.511 157.105 106.929C157.095 106.845 157.131 106.763 157.201 106.718C157.719 106.381 158.186 105.94 157.147 106.054C156.344 105.458 156.487 105.989 156.705 106.548Z" fill="black"/>
<path d="M157.384 102.03C157.439 102.091 157.452 102.178 157.419 102.251C157.165 102.769 157.001 103.205 156.945 103.589C156.851 103.969 156.849 104.297 156.894 104.578C156.954 105.129 157.18 105.49 157.286 105.516C157.377 105.539 157.77 105.32 158.041 104.766C158.161 104.489 158.253 104.13 158.268 103.702C158.244 103.274 158.156 102.775 157.894 102.245C157.855 102.171 157.86 102.082 157.909 102.016C158.273 101.522 158.553 100.956 157.62 101.414C156.654 101.125 156.98 101.582 157.384 102.03Z" fill="black"/>
<path d="M156.427 97.5675C156.501 97.6046 156.545 97.6808 156.541 97.76C156.497 98.3295 156.5 98.7896 156.574 99.1677C156.619 99.5544 156.734 99.8617 156.875 100.109C157.108 100.611 157.461 100.873 157.566 100.862C157.663 100.852 157.941 100.517 158.019 99.9041C158.033 99.603 157.993 99.2339 157.856 98.8259C157.689 98.4273 157.425 97.9845 156.982 97.5844C156.918 97.529 156.889 97.4445 156.91 97.3639C156.989 97.0693 157.037 96.7581 156.981 96.6199C156.915 96.4839 156.758 96.5307 156.419 96.9077C155.907 96.9527 155.782 97.061 155.847 97.1736C155.906 97.2923 156.156 97.4308 156.427 97.5675Z" fill="black"/>
<path d="M153.729 93.8968C153.81 93.9004 153.88 93.953 153.91 94.0281C154.338 95.0736 154.753 95.6596 155.204 96.01C155.654 96.3486 156.043 96.4795 156.146 96.4227C156.22 96.3831 156.384 95.9428 156.166 95.3675C156.049 95.0883 155.899 94.7322 155.563 94.4419C155.402 94.2915 155.214 94.1436 155 94.0062C154.783 93.8713 154.511 93.7724 154.229 93.6813C154.148 93.6562 154.087 93.5896 154.072 93.5054C153.95 92.8985 153.664 92.3438 153.416 93.3219C152.549 93.8645 153.13 93.8839 153.729 93.8968Z" fill="black"/>
<path d="M149.646 91.7986C149.721 91.7633 149.81 91.7752 149.871 91.8263C150.713 92.6185 151.374 92.9145 151.929 93.043C152.468 93.1768 152.911 93.0653 152.965 92.989C153.026 92.9012 152.937 92.4929 152.496 92.0443C152.063 91.6108 151.194 91.2097 150.003 91.3769C149.918 91.3935 149.833 91.3644 149.781 91.2992C149.4 90.8204 148.916 90.3981 149.111 91.4064C148.567 92.2411 149.095 92.0576 149.646 91.7986Z" fill="black"/>
<path d="M145.019 91.4975C145.076 91.4374 145.162 91.4166 145.239 91.4421C145.785 91.6536 146.237 91.7594 146.63 91.7983C147.022 91.858 147.355 91.831 147.635 91.7634C148.187 91.6727 148.538 91.4104 148.556 91.3075C148.573 91.2136 148.319 90.8582 147.737 90.624C147.446 90.5301 147.074 90.4704 146.639 90.4923C146.205 90.5359 145.703 90.6823 145.19 90.9766C145.117 91.0226 145.027 91.0266 144.955 90.9845C144.419 90.6776 143.81 90.4603 144.373 91.3266C144.184 92.2987 144.606 91.9371 145.019 91.4975Z" fill="black"/>
<path d="M140.66 92.9842C140.687 92.908 140.758 92.8562 140.839 92.8493C141.404 92.7824 141.881 92.75 142.242 92.6133C142.617 92.5083 142.917 92.3755 143.146 92.2061C143.615 91.9035 143.845 91.547 143.821 91.4409C143.802 91.3524 143.427 91.0995 142.799 91.1149C142.492 91.1401 142.115 91.2099 141.724 91.4117C141.348 91.6427 140.92 91.9312 140.596 92.4471C140.549 92.5169 140.467 92.5558 140.382 92.546C139.741 92.4597 139.135 92.5885 140.005 93.1004C140.283 94.0854 140.456 93.5213 140.66 92.9842Z" fill="black"/>
<path d="M137.424 96.2004C137.411 96.1195 137.443 96.0367 137.519 95.9993C138.04 95.7209 138.376 95.4277 138.679 95.1798C138.823 95.0496 138.939 94.9172 139.036 94.7844C139.138 94.6574 139.23 94.5409 139.299 94.42C139.441 94.1829 139.513 93.9494 139.549 93.7724C139.592 93.6023 139.587 93.4756 139.555 93.4357C139.524 93.3976 139.398 93.363 139.205 93.3688C139.018 93.3817 138.774 93.4494 138.496 93.5933C138.359 93.6674 138.207 93.7548 138.067 93.8775C137.932 94.0052 137.797 94.1567 137.668 94.3337C137.394 94.674 137.219 95.1744 137.118 95.7468C137.102 95.8259 137.054 95.9011 136.975 95.931C136.404 96.1583 135.858 96.5012 136.896 96.5969C137.561 97.3437 137.525 96.7948 137.424 96.2004Z" fill="black"/>
<path d="M135.894 100.495C135.85 100.425 135.853 100.337 135.899 100.271C136.233 99.8039 136.477 99.4078 136.604 99.0427C136.767 98.6894 136.829 98.3689 136.838 98.0861C136.899 97.5421 136.737 97.1367 136.641 97.0917C136.554 97.0504 136.139 97.1928 135.749 97.6824C135.579 97.9339 135.42 98.2721 135.324 98.6923C135.267 99.12 135.257 99.6298 135.429 100.197C135.455 100.277 135.434 100.363 135.374 100.421C134.929 100.847 134.553 101.361 135.553 101.062C136.453 101.504 136.213 101.003 135.894 100.495Z" fill="black"/>
<path d="M136.025 105.066C135.959 105.015 135.931 104.932 135.95 104.855C136.12 104.302 136.188 103.849 136.193 103.459C136.219 103.068 136.162 102.743 136.069 102.474C135.92 101.938 135.624 101.622 135.517 101.615C135.421 101.609 135.082 101.893 134.906 102.482C134.837 102.774 134.809 103.142 134.87 103.565C134.951 103.985 135.142 104.463 135.483 104.942C135.535 105.008 135.547 105.096 135.51 105.171C135.242 105.721 135.071 106.332 135.904 105.713C136.905 105.822 136.504 105.436 136.025 105.066Z" fill="black"/>
<path d="M137.852 109.239C137.772 109.218 137.715 109.152 137.702 109.073C137.649 108.787 137.602 108.538 137.56 108.314C137.509 108.086 137.444 107.887 137.367 107.711C137.239 107.347 137.076 107.065 136.888 106.851C136.55 106.411 136.166 106.214 136.062 106.245C135.972 106.272 135.75 106.657 135.807 107.271C135.854 107.571 135.957 107.932 136.183 108.303C136.309 108.482 136.461 108.665 136.643 108.844C136.817 109.027 137.041 109.195 137.31 109.338C137.384 109.38 137.429 109.457 137.425 109.541C137.382 110.173 137.543 110.764 138.01 109.877C138.99 109.543 138.414 109.404 137.852 109.239Z" fill="black"/>
<path d="M141.32 112.212C141.236 112.234 141.155 112.2 141.111 112.129C140.791 111.642 140.478 111.325 140.205 111.046C140.063 110.914 139.92 110.809 139.78 110.723C139.651 110.624 139.521 110.546 139.395 110.485C138.883 110.253 138.458 110.228 138.381 110.296C138.307 110.361 138.263 110.809 138.607 111.326C138.69 111.456 138.793 111.594 138.92 111.731C139.058 111.855 139.222 111.977 139.41 112.091C139.775 112.337 140.29 112.484 140.881 112.539C140.963 112.549 141.039 112.599 141.076 112.67C141.346 113.214 141.734 113.725 141.759 112.701C142.471 111.996 141.917 112.071 141.32 112.212Z" fill="black"/>
<path d="M145.783 113.386C145.716 113.434 145.627 113.439 145.557 113.4C145.056 113.11 144.635 112.906 144.257 112.808C143.887 112.676 143.558 112.64 143.271 112.654C142.718 112.63 142.316 112.822 142.278 112.918C142.242 113.008 142.417 113.4 142.942 113.751C143.21 113.899 143.567 114.028 144.001 114.089C144.44 114.115 144.96 114.081 145.52 113.866C145.599 113.834 145.689 113.847 145.752 113.902C146.222 114.301 146.777 114.626 146.387 113.672C146.755 112.752 146.271 113.029 145.783 113.386Z" fill="black"/>
<path d="M149.07 111.192C149.022 111.259 148.937 111.293 148.856 111.28C148.273 111.149 147.814 111.114 147.412 111.09C147.015 111.095 146.682 111.127 146.402 111.2C145.846 111.365 145.5 111.593 145.487 111.71C145.482 111.758 145.547 111.869 145.693 111.995C145.838 112.126 146.063 112.266 146.375 112.343C146.684 112.431 147.078 112.483 147.531 112.391C147.983 112.328 148.49 112.101 148.975 111.733C149.042 111.676 149.134 111.658 149.215 111.689C149.821 111.928 150.472 111.97 149.751 111.25C149.752 110.233 149.424 110.716 149.07 111.192Z" fill="black"/>
<path d="M153.024 108.709C153.02 108.791 152.963 108.86 152.885 108.889C151.799 109.326 151.185 109.703 150.795 110.131C150.402 110.53 150.251 110.947 150.288 111.033C150.331 111.13 150.749 111.282 151.386 111.116C151.701 111.034 152.05 110.839 152.398 110.543C152.561 110.381 152.723 110.192 152.874 109.976C153.023 109.759 153.134 109.486 153.236 109.204C153.264 109.123 153.337 109.064 153.422 109.046C154.03 108.896 154.639 108.615 153.616 108.383C153.075 107.543 153.023 108.094 153.024 108.709Z" fill="black"/>
<path d="M155.1 104.522C155.137 104.597 155.13 104.687 155.077 104.75C154.674 105.196 154.437 105.592 154.234 105.937C154.061 106.293 153.94 106.6 153.886 106.88C153.787 107.441 153.848 107.849 153.947 107.913C154.016 107.96 154.493 107.888 154.917 107.409C155.359 106.955 155.749 106.06 155.539 104.863C155.522 104.78 155.547 104.691 155.612 104.636C156.087 104.23 156.502 103.724 155.482 103.963C154.616 103.448 154.819 103.976 155.1 104.522Z" fill="black"/>
<path d="M155.157 99.8466C155.222 99.898 155.26 99.9811 155.232 100.062C155.147 100.347 155.09 100.602 155.058 100.836C155.02 101.069 154.979 101.285 154.974 101.482C154.973 101.875 154.977 102.209 155.058 102.487C155.203 103.041 155.448 103.384 155.563 103.398C155.649 103.409 156.036 103.142 156.22 102.538C156.41 101.95 156.422 100.972 155.699 99.9707C155.655 99.8998 155.633 99.8106 155.669 99.7329C155.921 99.1602 156.055 98.5162 155.254 99.1814C154.245 99.1048 154.666 99.4764 155.157 99.8466Z" fill="black"/>
<path d="M152.915 95.7859C152.997 95.796 153.065 95.8543 153.091 95.932C153.431 97.0382 153.803 97.6466 154.185 98.0776C154.585 98.4837 154.958 98.6791 155.064 98.6409C155.148 98.6114 155.373 98.1966 155.229 97.5721C155.124 96.9515 154.593 96.082 153.436 95.6104C153.355 95.5783 153.297 95.506 153.286 95.42C153.199 94.7883 152.919 94.2055 152.63 95.179C151.729 95.6701 152.315 95.7197 152.915 95.7859Z" fill="black"/>
<path d="M148.787 93.561C148.864 93.5225 148.955 93.5329 149.017 93.5923C149.914 94.3485 150.556 94.6956 151.13 94.8216C151.676 94.9673 152.113 94.9047 152.18 94.8183C152.236 94.7464 152.174 94.3021 151.72 93.8362C151.268 93.4002 150.374 92.9314 149.14 93.1401C149.055 93.1487 148.967 93.1213 148.911 93.0587C148.501 92.5896 147.982 92.1791 148.223 93.1832C147.697 94.033 148.23 93.8347 148.787 93.561Z" fill="black"/>
<path d="M144.066 93.6125C144.114 93.5445 144.198 93.5107 144.279 93.5236C144.863 93.6542 145.321 93.6916 145.722 93.7146C146.118 93.7071 146.451 93.6848 146.731 93.6071C147.286 93.452 147.634 93.216 147.648 93.1016C147.66 93.0185 147.387 92.6321 146.763 92.4638C146.159 92.2749 145.143 92.3127 144.16 93.0707C144.093 93.1279 144.002 93.1459 143.92 93.116C143.314 92.8789 142.662 92.8361 143.385 93.5542C143.386 94.5709 143.713 94.0909 144.066 93.6125Z" fill="black"/>
<path d="M140.119 96.1052C140.122 96.0235 140.179 95.9548 140.258 95.9246C141.342 95.4864 141.955 95.1061 142.344 94.6777C142.543 94.4805 142.675 94.2747 142.756 94.1053C142.839 93.9423 142.871 93.8232 142.848 93.775C142.805 93.6783 142.386 93.5243 141.75 93.6945C141.434 93.7761 141.087 93.9736 140.739 94.2701C140.577 94.4323 140.416 94.6219 140.266 94.8381C140.116 95.0551 140.007 95.3288 139.905 95.6105C139.878 95.6915 139.805 95.7512 139.72 95.7688C139.112 95.921 138.504 96.2016 139.527 96.4329C140.07 97.2719 140.12 96.72 140.119 96.1052Z" fill="black"/>
<path d="M138.046 100.295C138.009 100.22 138.016 100.13 138.069 100.066C138.471 99.6208 138.708 99.2247 138.911 98.8794C139.084 98.5229 139.205 98.2164 139.259 97.9357C139.358 97.3745 139.296 96.9669 139.197 96.9029C139.128 96.8558 138.651 96.9284 138.228 97.4073C137.786 97.8624 137.397 98.7574 137.607 99.9536C137.624 100.037 137.599 100.126 137.534 100.18C137.058 100.587 136.644 101.093 137.664 100.853C138.53 101.368 138.327 100.84 138.046 100.295Z" fill="black"/>
<path d="M137.988 104.971C137.922 104.919 137.884 104.836 137.913 104.755C137.998 104.47 138.055 104.215 138.087 103.982C138.126 103.748 138.167 103.532 138.172 103.335C138.173 102.942 138.169 102.608 138.088 102.33C137.943 101.776 137.698 101.433 137.583 101.419C137.497 101.408 137.11 101.675 136.926 102.279C136.736 102.867 136.724 103.844 137.446 104.846C137.49 104.917 137.511 105.006 137.475 105.084C137.223 105.657 137.087 106.3 137.89 105.636C138.899 105.714 138.478 105.342 137.988 104.971Z" fill="black"/>
<path d="M140.22 109.037C140.138 109.027 140.07 108.969 140.044 108.89C139.707 107.784 139.338 107.174 138.956 106.742C138.557 106.334 138.185 106.139 138.078 106.176C137.994 106.206 137.769 106.62 137.911 107.245C138.014 107.865 138.543 108.736 139.698 109.211C139.779 109.243 139.837 109.316 139.848 109.402C139.935 110.033 140.211 110.619 140.504 109.645C141.404 109.157 140.821 109.103 140.22 109.037Z" fill="black"/>
<path d="M144.346 111.257C144.27 111.293 144.177 111.288 144.115 111.231C143.219 110.469 142.573 110.136 142.003 110.004C141.456 109.861 141.021 109.919 140.954 110.006C140.898 110.077 140.957 110.525 141.412 110.989C141.861 111.431 142.764 111.887 143.995 111.684C144.079 111.673 144.17 111.694 144.225 111.76C144.637 112.23 145.159 112.641 144.911 111.635C145.429 110.785 144.901 110.983 144.346 111.257Z" fill="black"/>
<path d="M117.348 92.653C117.582 91.4222 116.37 90.0991 115.027 90.6981C114.984 90.7103 114.929 90.7614 114.982 90.802C116.011 91.4183 116.466 92.8487 116.011 94.0449C116.003 94.078 116.014 94.0934 116.032 94.1006C116.039 94.1186 116.053 94.1308 116.081 94.1222C117.158 93.6175 118.448 94.1204 119.003 95.2637C119.043 95.3238 119.084 95.2598 119.097 95.2137C119.632 93.725 118.456 92.3943 117.348 92.653Z" fill="black"/>
<path d="M122.568 85.6588C122.801 84.4281 121.59 83.1049 120.246 83.7039C120.203 83.7158 120.149 83.7672 120.201 83.8079C121.231 84.4241 121.686 85.8545 121.231 87.0507C121.223 87.0838 121.234 87.0993 121.252 87.1065C121.259 87.1245 121.273 87.1367 121.3 87.1281C122.378 86.6233 123.667 87.1263 124.223 88.2696C124.263 88.3297 124.304 88.2656 124.317 88.2196C124.852 86.7309 123.675 85.4002 122.568 85.6588Z" fill="black"/>
<path d="M132.786 84.1037C133.019 82.8729 131.808 81.5497 130.464 82.1487C130.422 82.1606 130.367 82.2121 130.419 82.2527C131.449 82.869 131.904 84.2994 131.449 85.4955C131.441 85.5286 131.452 85.5441 131.47 85.5513C131.477 85.5693 131.491 85.5815 131.518 85.5729C132.596 85.0682 133.885 85.5711 134.441 86.7144C134.481 86.7745 134.522 86.7104 134.535 86.6644C135.07 85.1757 133.893 83.845 132.786 84.1037Z" fill="black"/>
<path d="M112.525 98.195C112.759 96.9642 111.547 95.6411 110.204 96.24C110.161 96.2523 110.106 96.3034 110.159 96.344C111.188 96.9603 111.643 98.3907 111.188 99.5869C111.18 99.62 111.191 99.6354 111.209 99.6426C111.216 99.661 111.23 99.6728 111.258 99.6642C112.335 99.1595 113.625 99.6624 114.18 100.806C114.22 100.866 114.261 100.802 114.274 100.756C114.809 99.267 113.633 97.9363 112.525 98.195Z" fill="black"/>
<path d="M107.388 107.284C107.622 106.054 106.41 104.73 105.067 105.329C105.024 105.341 104.969 105.393 105.022 105.433C106.051 106.05 106.506 107.48 106.051 108.676C106.043 108.709 106.054 108.725 106.072 108.732C106.079 108.75 106.093 108.762 106.121 108.754C107.198 108.249 108.488 108.752 109.043 109.895C109.083 109.955 109.124 109.891 109.137 109.845C109.672 108.356 108.496 107.026 107.388 107.284Z" fill="black"/>
<path d="M123.931 118.507C124.164 117.277 122.953 115.954 121.609 116.553C121.567 116.565 121.512 116.616 121.564 116.657C122.594 117.273 123.049 118.703 122.594 119.899C122.586 119.932 122.597 119.948 122.615 119.955C122.622 119.973 122.636 119.985 122.663 119.977C123.741 119.472 125.03 119.975 125.586 121.118C125.626 121.178 125.667 121.114 125.68 121.068C126.215 119.58 125.038 118.249 123.931 118.507Z" fill="black"/>
<path d="M121.619 92.653C121.852 91.4222 120.64 90.0991 119.297 90.6981C119.254 90.7103 119.199 90.7614 119.252 90.802C120.281 91.4183 120.736 92.8487 120.281 94.0449C120.273 94.078 120.285 94.0934 120.302 94.1006C120.31 94.1186 120.323 94.1308 120.351 94.1222C121.429 93.6175 122.718 94.1204 123.273 95.2637C123.313 95.3238 123.354 95.2598 123.367 95.2137C123.902 93.725 122.726 92.3943 121.619 92.653Z" fill="black"/>
<path d="M125.889 92.653C126.122 91.4222 124.911 90.0991 123.567 90.6981C123.524 90.7103 123.47 90.7614 123.522 90.802C124.552 91.4183 125.007 92.8487 124.551 94.0449C124.544 94.078 124.555 94.0934 124.573 94.1006C124.58 94.1186 124.594 94.1308 124.621 94.1222C125.699 93.6175 126.988 94.1204 127.544 95.2637C127.584 95.3238 127.625 95.2598 127.638 95.2137C128.173 93.725 126.996 92.3943 125.889 92.653Z" fill="black"/>
<path d="M130.159 92.653C130.393 91.4222 129.181 90.0991 127.837 90.6981C127.794 90.7103 127.74 90.7614 127.792 90.802C128.822 91.4183 129.277 92.8487 128.822 94.0449C128.814 94.078 128.825 94.0934 128.843 94.1006C128.85 94.1186 128.864 94.1308 128.891 94.1222C129.969 93.6175 131.259 94.1204 131.814 95.2637C131.854 95.3238 131.895 95.2598 131.908 95.2137C132.443 93.725 131.267 92.3943 130.159 92.653Z" fill="black"/>
<path d="M117.263 111.957C117.506 110.726 116.246 109.403 114.85 110.002C114.806 110.014 114.749 110.065 114.803 110.106C115.873 110.722 116.346 112.152 115.873 113.349C115.865 113.382 115.877 113.397 115.895 113.404C115.903 113.423 115.917 113.435 115.945 113.426C117.066 112.921 118.406 113.424 118.983 114.567C119.024 114.628 119.067 114.563 119.081 114.517C119.636 113.029 118.414 111.698 117.263 111.957Z" fill="black"/>
<path d="M121.701 111.957C121.944 110.726 120.685 109.403 119.288 110.002C119.244 110.014 119.187 110.065 119.241 110.106C120.311 110.722 120.784 112.152 120.311 113.349C120.303 113.382 120.315 113.397 120.333 113.404C120.341 113.423 120.355 113.435 120.384 113.426C121.504 112.921 122.844 113.424 123.421 114.567C123.463 114.628 123.505 114.563 123.519 114.517C124.075 113.029 122.852 111.698 121.701 111.957Z" fill="black"/>
<path d="M126.139 111.957C126.382 110.726 125.122 109.403 123.726 110.002C123.682 110.014 123.625 110.065 123.679 110.106C124.749 110.722 125.222 112.152 124.749 113.349C124.741 113.382 124.753 113.397 124.771 113.404C124.779 113.423 124.794 113.435 124.821 113.426C125.942 112.921 127.282 113.424 127.859 114.567C127.9 114.628 127.943 114.563 127.956 114.517C128.512 113.029 127.29 111.698 126.139 111.957Z" fill="black"/>
<path d="M130.577 111.957C130.82 110.726 129.561 109.403 128.164 110.002C128.12 110.014 128.063 110.065 128.117 110.106C129.187 110.722 129.66 112.152 129.187 113.349C129.179 113.382 129.191 113.397 129.209 113.404C129.217 113.423 129.232 113.435 129.26 113.426C130.38 112.921 131.72 113.424 132.297 114.567C132.339 114.628 132.381 114.563 132.395 114.517C132.951 113.029 131.728 111.698 130.577 111.957Z" fill="black"/>
<path d="M118.741 107.303C119.042 106.148 117.822 104.947 116.377 105.543C116.331 105.555 116.271 105.605 116.325 105.641C117.384 106.188 117.801 107.51 117.267 108.639C117.257 108.67 117.269 108.684 117.287 108.691C117.294 108.707 117.308 108.718 117.337 108.709C118.498 108.209 119.836 108.642 120.372 109.694C120.411 109.749 120.457 109.688 120.473 109.644C121.104 108.24 119.922 107.031 118.741 107.303Z" fill="black"/>
<path d="M121.342 104.852C121.643 103.697 120.423 102.495 118.978 103.092C118.932 103.104 118.872 103.153 118.926 103.19C119.985 103.737 120.402 105.059 119.868 106.188C119.858 106.219 119.87 106.233 119.888 106.239C119.895 106.256 119.909 106.267 119.938 106.258C121.098 105.757 122.437 106.191 122.972 107.242C123.012 107.297 123.058 107.237 123.074 107.193C123.705 105.789 122.523 104.58 121.342 104.852Z" fill="black"/>
<path d="M123.943 102.401C124.244 101.246 123.024 100.045 121.578 100.641C121.533 100.653 121.473 100.703 121.527 100.739C122.586 101.286 123.002 102.608 122.469 103.737C122.459 103.768 122.47 103.783 122.489 103.788C122.495 103.805 122.51 103.816 122.538 103.807C123.699 103.307 125.038 103.741 125.573 104.792C125.612 104.847 125.658 104.786 125.674 104.742C126.306 103.338 125.124 102.129 123.943 102.401Z" fill="black"/>
<path d="M126.543 99.9505C126.845 98.7953 125.624 97.5941 124.179 98.1902C124.134 98.2028 124.074 98.2521 124.127 98.2888C125.187 98.8353 125.603 100.157 125.069 101.287C125.06 101.318 125.071 101.332 125.09 101.338C125.096 101.355 125.11 101.366 125.139 101.357C126.299 100.856 127.638 101.29 128.174 102.341C128.213 102.396 128.259 102.335 128.275 102.292C128.907 100.888 127.724 99.6785 126.543 99.9505Z" fill="black"/>
<path d="M129.144 97.4997C129.445 96.3448 128.225 95.1436 126.78 95.7394C126.734 95.752 126.674 95.8013 126.728 95.8379C127.787 96.3848 128.204 97.7065 127.67 98.8358C127.66 98.8667 127.672 98.8811 127.69 98.8872C127.697 98.9038 127.711 98.9149 127.74 98.9059C128.9 98.4052 130.239 98.839 130.774 99.8902C130.814 99.9453 130.86 99.8845 130.876 99.841C131.507 98.4368 130.325 97.2277 129.144 97.4997Z" fill="black"/>
<path d="M107.422 118.214H116.01C119.914 118.214 122.581 120.805 122.581 124.068C122.581 126.18 121.443 127.971 119.783 128.803V128.994C121.735 129.986 123.004 132.13 123.004 134.401C123.004 137.92 119.979 140.607 115.945 140.607H107.422V118.214ZM115.75 127.747C117.799 127.747 119.296 126.339 119.296 124.388C119.296 122.437 117.799 121.061 115.75 121.061H110.642V127.747H115.75ZM116.042 137.759C118.027 137.759 119.719 136.128 119.719 134.177C119.719 132.225 118.027 130.562 116.042 130.562H110.642V137.759H116.042Z" fill="black"/>
<path d="M127.784 118.214H136.373C140.277 118.214 143.107 120.997 143.107 124.708C143.107 127.683 141.318 129.922 138.39 130.786L143.921 140.607H140.31L135.137 131.362H131.005V140.607H127.784V118.214ZM136.048 128.515C138.162 128.515 139.821 126.851 139.821 124.772C139.821 122.724 138.162 121.061 136.048 121.061H131.005V128.515H136.048Z" fill="black"/>
<path d="M148.505 118.214H151.791L163.242 135.104H163.437V118.214H166.561V140.607H163.275L151.791 123.716H151.596V140.607H148.505V118.214Z" fill="black"/>
<path d="M171.73 129.41C171.73 122.693 176.61 117.862 183.344 117.862C190.078 117.862 194.959 122.693 194.959 129.41C194.959 136.128 190.078 140.959 183.344 140.959C176.61 140.959 171.73 136.128 171.73 129.41ZM183.344 138.047C188.224 138.047 191.673 134.497 191.673 129.41C191.673 124.324 188.224 120.773 183.344 120.773C178.432 120.773 175.017 124.324 175.017 129.41C175.017 134.497 178.432 138.047 183.344 138.047Z" fill="black"/>
<path d="M150.834 100.769C150.904 100.818 150.945 100.903 150.922 100.989C150.674 102.159 150.586 102.884 150.648 103.47C150.675 103.757 150.73 103.997 150.785 104.174C150.848 104.354 150.916 104.468 150.963 104.486C151.011 104.504 151.138 104.464 151.294 104.338C151.458 104.215 151.645 104.001 151.791 103.683C151.937 103.366 152.028 102.944 151.996 102.453C151.945 101.966 151.792 101.396 151.384 100.875C151.334 100.801 151.309 100.706 151.337 100.62C151.448 100.307 151.49 99.9623 151.422 99.8015C151.356 99.6357 151.201 99.6824 150.85 100.069C150.337 100.079 150.213 100.195 150.268 100.312C150.328 100.431 150.582 100.583 150.834 100.769Z" fill="black"/>
<path d="M143.006 99.3621C142.998 99.2746 143.054 99.1991 143.132 99.1627C143.682 98.9041 144.101 98.73 144.459 98.5785C144.81 98.4217 145.093 98.272 145.335 98.1205C145.576 97.9702 145.77 97.8187 145.908 97.6917C146.045 97.5561 146.121 97.451 146.117 97.4003C146.112 97.3514 146.021 97.251 145.837 97.1697C145.653 97.0798 145.374 97.0042 145.011 97.0222C144.652 97.0398 144.206 97.1585 143.777 97.4579C143.345 97.7446 142.949 98.24 142.762 98.8681C142.735 98.9559 142.662 99.0257 142.58 99.0591C142.425 99.1163 142.266 99.1858 142.134 99.2617C142.012 99.3419 141.915 99.4268 141.871 99.5016C141.78 99.6571 141.913 99.7474 142.438 99.7783C142.764 100.169 142.935 100.193 142.992 100.078C143.022 100.018 143.027 99.9172 143.02 99.7887C143.022 99.6668 143.015 99.5185 143.006 99.3621Z" fill="black"/>
<path d="M145.773 107.113C145.698 107.152 145.6 107.155 145.533 107.096C145.044 106.739 144.702 106.432 144.396 106.199C144.088 105.972 143.834 105.781 143.58 105.649C143.1 105.364 142.674 105.231 142.576 105.289C142.501 105.33 142.375 105.798 142.733 106.432C142.922 106.731 143.224 107.08 143.698 107.31C144.16 107.545 144.777 107.683 145.434 107.554C145.524 107.544 145.623 107.559 145.689 107.623C145.93 107.86 146.228 108.041 146.404 108.053C146.584 108.066 146.608 107.908 146.406 107.43C146.619 106.972 146.567 106.81 146.435 106.809C146.298 106.808 146.049 106.972 145.773 107.113Z" fill="black"/>
<path d="M150.612 115.046C150.563 115.119 150.473 115.143 150.389 115.128C149.193 114.923 148.403 115.006 147.835 115.239C147.272 115.423 146.961 115.75 146.963 115.852C146.966 115.95 147.299 116.247 147.94 116.378C148.567 116.464 149.541 116.367 150.516 115.579C150.584 115.524 150.68 115.516 150.761 115.541C151.361 115.736 152.018 115.83 151.304 115.082C151.346 114.076 150.966 114.524 150.612 115.046Z" fill="black"/>
<path d="M159.418 104.441C159.461 104.513 159.457 104.605 159.411 104.676C159.104 105.184 158.848 105.611 158.719 106.002C158.601 106.397 158.516 106.731 158.504 107.027C158.491 107.321 158.534 107.571 158.591 107.753C158.635 107.93 158.7 108.042 158.749 108.061C158.794 108.079 158.924 108.045 159.092 107.941C159.247 107.832 159.434 107.65 159.61 107.381C159.784 107.113 159.963 106.761 160.009 106.31C160.066 105.863 160.083 105.336 159.882 104.742C159.857 104.659 159.878 104.567 159.939 104.505C160.161 104.279 160.374 104.028 160.393 103.875C160.405 103.721 160.245 103.677 159.761 103.836C159.295 103.601 159.132 103.63 159.131 103.771C159.124 103.912 159.258 104.174 159.418 104.441Z" fill="black"/>
<path d="M154.3 91.5441C154.385 91.5419 154.464 91.5898 154.504 91.6642C154.644 91.933 154.801 92.142 154.931 92.3557C155.061 92.5679 155.195 92.7471 155.332 92.9C155.617 93.1932 155.86 93.4386 156.114 93.5958C156.626 93.9037 157.05 93.9865 157.136 93.9246C157.214 93.8685 157.297 93.4098 156.99 92.8442C156.841 92.5608 156.628 92.2233 156.249 91.956C156.066 91.8168 155.856 91.6819 155.619 91.5592C155.384 91.4351 155.091 91.361 154.789 91.289C154.703 91.2703 154.632 91.207 154.606 91.1235C154.558 90.971 154.504 90.8177 154.444 90.6925C154.377 90.5756 154.308 90.4839 154.242 90.4414C154.107 90.3558 153.995 90.4752 153.913 90.9731C153.488 91.2685 153.439 91.4254 153.563 91.4916C153.625 91.5254 153.733 91.5376 153.867 91.5383C153.995 91.5473 154.145 91.5484 154.3 91.5441Z" fill="black"/>
<path d="M144.933 89.2908C144.995 89.2325 145.085 89.2033 145.167 89.2386C145.742 89.4717 146.221 89.5573 146.639 89.6037C147.056 89.6645 147.411 89.6386 147.707 89.5717C148.295 89.4573 148.655 89.2174 148.671 89.1076C148.685 89.0199 148.411 88.6407 147.797 88.4317C147.492 88.3374 147.103 88.277 146.648 88.2982C146.193 88.3338 145.67 88.4997 145.124 88.7727C145.047 88.8087 144.953 88.8209 144.877 88.777C144.323 88.4723 143.698 88.2565 144.258 89.1242C144.025 90.1031 144.486 89.7351 144.933 89.2908Z" fill="black"/>
<path d="M134.231 98.0033C134.202 97.9252 134.223 97.8356 134.281 97.7738C134.491 97.5543 134.66 97.3449 134.801 97.1449C134.963 96.9531 135.092 96.7682 135.195 96.5898C135.297 96.4114 135.373 96.2387 135.431 96.0735C135.504 95.9167 135.555 95.766 135.59 95.6231C135.725 95.0529 135.622 94.6133 135.544 94.5622C135.453 94.5036 135.019 94.6075 134.569 95.0749C134.456 95.1907 134.342 95.3281 134.233 95.4882C134.139 95.6562 134.053 95.8476 133.98 96.062C133.907 96.2764 133.847 96.5142 133.807 96.7725C133.789 97.0384 133.795 97.3266 133.828 97.6316C133.838 97.7176 133.8 97.804 133.728 97.8547C133.186 98.227 132.802 98.7235 133.806 98.5476C134.659 99.1473 134.433 98.5681 134.231 98.0033Z" fill="black"/>
<path d="M136.999 111.681C136.916 111.666 136.849 111.602 136.825 111.521C136.745 111.23 136.638 110.991 136.554 110.758C136.471 110.523 136.377 110.32 136.276 110.142C136.059 109.795 135.865 109.51 135.652 109.302C135.217 108.896 134.806 108.738 134.715 108.779C134.622 108.822 134.46 109.25 134.64 109.865C134.724 110.174 134.868 110.542 135.181 110.881C135.33 111.054 135.507 111.229 135.712 111.397C135.919 111.563 136.187 111.698 136.467 111.83C136.548 111.866 136.604 111.942 136.611 112.029C136.631 112.354 136.708 112.663 136.824 112.77C136.937 112.882 137.072 112.788 137.258 112.318C137.736 112.116 137.817 111.972 137.71 111.882C137.599 111.794 137.296 111.744 136.999 111.681Z" fill="black"/>
<path d="M157.814 110.504C157.816 110.588 157.768 110.665 157.693 110.703C157.181 110.99 156.742 111.225 156.441 111.501C156.286 111.634 156.162 111.776 156.051 111.908C155.932 112.033 155.836 112.158 155.757 112.28C155.446 112.77 155.412 113.219 155.478 113.299C155.539 113.374 155.977 113.407 156.548 113.119C156.69 113.048 156.84 112.956 156.992 112.842C157.137 112.721 157.274 112.567 157.411 112.392C157.675 112.035 157.955 111.599 158.069 110.99C158.088 110.906 158.151 110.838 158.234 110.815C158.845 110.643 159.437 110.365 158.408 110.155C157.851 109.325 157.797 109.895 157.814 110.504Z" fill="black"/>
<path d="M157.479 91.6652C157.561 91.6857 157.617 91.7573 157.631 91.8401C157.715 92.4369 157.898 92.8657 158.05 93.2442C158.204 93.6198 158.403 93.8993 158.61 94.1116C158.994 94.5465 159.388 94.7253 159.491 94.6847C159.577 94.6516 159.771 94.2361 159.658 93.6155C159.587 93.3133 159.445 92.9582 159.198 92.5887C158.954 92.2185 158.528 91.8782 158.015 91.5645C157.941 91.5217 157.898 91.439 157.898 91.354C157.879 90.7421 157.746 90.1168 157.277 91.0256C156.303 91.3415 156.861 91.5285 157.479 91.6652Z" fill="black"/>
<path d="M138.142 89.4471C138.17 89.3701 138.244 89.3165 138.329 89.3079C138.929 89.2457 139.383 89.1097 139.782 88.9928C140.173 88.8643 140.46 88.6647 140.697 88.4934C141.171 88.161 141.368 87.7617 141.336 87.6638C141.305 87.5717 140.905 87.3792 140.262 87.4325C139.944 87.4638 139.584 87.6019 139.194 87.8221C138.798 88.0286 138.418 88.4103 138.076 88.9115C138.028 88.982 137.943 89.0223 137.855 89.014C137.208 88.9528 136.594 89.0816 137.471 89.5885C137.736 90.5822 137.935 90.0058 138.142 89.4471Z" fill="black"/>
<path d="M132.431 106.207C132.366 106.154 132.337 106.068 132.355 105.987C132.467 105.418 132.567 104.933 132.545 104.525C132.528 104.118 132.444 103.781 132.362 103.503C132.176 102.95 131.845 102.647 131.741 102.648C131.642 102.65 131.339 102.968 131.202 103.579C131.122 103.885 131.124 104.261 131.228 104.688C131.336 105.115 131.493 105.602 131.89 106.083C131.942 106.151 131.954 106.242 131.919 106.319C131.655 106.887 131.486 107.508 132.317 106.878C133.322 107.003 132.914 106.591 132.431 106.207Z" fill="black"/>
<path d="M145.732 117.669C145.663 117.718 145.571 117.722 145.496 117.683C144.965 117.424 144.515 117.223 144.114 117.124C143.712 117.026 143.359 117.028 143.068 117.025C142.482 117.049 142.092 117.277 142.063 117.375C142.036 117.469 142.261 117.843 142.825 118.144C143.104 118.308 143.477 118.394 143.925 118.416C144.372 118.439 144.894 118.396 145.469 118.15C145.55 118.118 145.642 118.131 145.709 118.185C146.197 118.586 146.762 118.911 146.361 117.956C146.746 117.037 146.234 117.314 145.732 117.669Z" fill="black"/>
</g>
</svg>
