<svg width="300" height="448" viewBox="0 0 300 448" fill="none" xmlns="http://www.w3.org/2000/svg">
<rect width="300" height="448" fill="#F9F0E4"/>
<g opacity="0.25">
<path d="M168.059 139.108L167.998 139.131C167.999 139.12 168 139.111 168.001 139.1C167.996 138.958 167.923 138.818 167.833 138.83C167.743 138.841 167.681 138.997 167.697 139.136C167.704 139.201 167.726 139.25 167.755 139.284C167.581 139.217 167.343 139.217 167.08 139.251C166.835 139.306 166.568 139.402 166.366 139.535C166.167 139.674 166.046 139.815 165.985 139.948C165.959 140.001 165.91 140.046 165.853 140.064C165.698 140.108 165.547 140.208 165.435 140.36C165.276 140.563 165.279 140.842 165.397 141.038C165.63 141.411 166.117 141.433 166.422 141.19C166.498 141.126 166.554 141.047 166.591 140.96C166.612 140.907 166.661 140.874 166.718 140.873C166.854 140.867 167 140.817 167.161 140.702C167.322 140.597 167.484 140.466 167.621 140.307C167.763 140.173 167.883 140.002 167.958 139.853C167.96 139.895 167.975 139.946 168.009 140.003C168.081 140.126 168.193 140.231 168.245 140.202C168.297 140.172 168.281 140.016 168.22 139.89C168.214 139.881 168.21 139.874 168.205 139.866C168.222 139.863 168.239 139.861 168.256 139.856C168.476 139.795 168.644 139.613 168.622 139.395C168.604 139.188 168.344 139.032 168.059 139.108Z" fill="black"/>
<path d="M162.957 144.532L162.922 144.586C162.916 144.577 162.912 144.57 162.905 144.56C162.813 144.45 162.67 144.382 162.605 144.444C162.54 144.507 162.587 144.668 162.686 144.768C162.732 144.816 162.779 144.842 162.823 144.853C162.642 144.902 162.453 145.043 162.265 145.226C162.103 145.414 161.95 145.648 161.871 145.874C161.798 146.103 161.788 146.287 161.822 146.429C161.834 146.487 161.822 146.551 161.788 146.599C161.692 146.726 161.633 146.895 161.637 147.083C161.636 147.339 161.81 147.559 162.026 147.645C162.441 147.805 162.843 147.534 162.936 147.16C162.957 147.064 162.952 146.968 162.928 146.877C162.913 146.822 162.932 146.767 162.976 146.733C163.081 146.647 163.167 146.521 163.224 146.334C163.288 146.154 163.336 145.955 163.346 145.747C163.378 145.556 163.368 145.349 163.336 145.186C163.363 145.218 163.407 145.249 163.469 145.275C163.602 145.33 163.756 145.348 163.779 145.294C163.803 145.24 163.694 145.124 163.568 145.06C163.558 145.056 163.55 145.053 163.541 145.05C163.552 145.037 163.565 145.026 163.575 145.012C163.713 144.834 163.734 144.589 163.583 144.427C163.441 144.273 163.137 144.303 162.957 144.532Z" fill="black"/>
<path d="M160.708 144.798L160.663 144.844C160.659 144.834 160.656 144.826 160.652 144.815C160.585 144.689 160.458 144.593 160.382 144.642C160.305 144.69 160.318 144.857 160.394 144.975C160.428 145.031 160.47 145.066 160.51 145.085C160.323 145.097 160.109 145.197 159.886 145.339C159.689 145.491 159.49 145.69 159.365 145.894C159.247 146.104 159.199 146.282 159.202 146.428C159.202 146.487 159.177 146.548 159.134 146.588C159.013 146.693 158.92 146.847 158.885 147.031C158.831 147.282 158.955 147.532 159.148 147.66C159.522 147.899 159.972 147.714 160.14 147.367C160.181 147.277 160.197 147.182 160.192 147.087C160.188 147.031 160.218 146.981 160.269 146.956C160.389 146.893 160.5 146.787 160.595 146.615C160.694 146.452 160.783 146.266 160.836 146.065C160.907 145.885 160.941 145.68 160.943 145.513C160.963 145.551 160.999 145.59 161.054 145.628C161.173 145.708 161.32 145.757 161.355 145.708C161.389 145.66 161.307 145.525 161.196 145.437C161.187 145.431 161.181 145.427 161.172 145.421C161.186 145.412 161.2 145.403 161.214 145.391C161.386 145.244 161.457 145.009 161.343 144.82C161.236 144.641 160.932 144.609 160.708 144.798Z" fill="black"/>
<path d="M172.341 139.64L172.284 139.64C172.288 139.63 172.292 139.623 172.297 139.612C172.339 139.478 172.327 139.322 172.261 139.302C172.191 139.284 172.104 139.399 172.055 139.531C172.034 139.593 172.028 139.646 172.035 139.688C171.828 139.43 171.423 139.148 170.998 139.024C170.789 138.961 170.598 138.957 170.461 138.993C170.404 139.008 170.335 138.999 170.286 138.961C170.156 138.862 169.978 138.799 169.772 138.813C169.498 138.819 169.259 139.008 169.198 139.223C169.094 139.644 169.371 140.011 169.724 140.083C169.816 140.099 169.913 140.102 170.004 140.079C170.058 140.067 170.112 140.081 170.151 140.124C170.247 140.227 170.375 140.305 170.592 140.37C171.005 140.492 171.625 140.491 171.944 140.285C171.923 140.322 171.912 140.374 171.916 140.44C171.925 140.58 172.016 140.732 172.095 140.723C172.176 140.717 172.223 140.566 172.208 140.427C172.205 140.416 172.204 140.408 172.201 140.398L172.261 140.409C172.533 140.439 172.764 140.276 172.774 140.061C172.783 139.85 172.59 139.668 172.341 139.64Z" fill="black"/>
<path d="M176.158 138.883L176.114 138.917C176.111 138.906 176.109 138.899 176.106 138.887C176.056 138.755 175.951 138.641 175.887 138.66C175.823 138.679 175.819 138.832 175.863 138.965C175.884 139.028 175.912 139.073 175.944 139.103C175.607 139.024 175.118 139.064 174.757 139.163C174.574 139.224 174.441 139.284 174.351 139.383C174.314 139.423 174.259 139.437 174.208 139.419C174.07 139.371 173.925 139.38 173.77 139.429C173.563 139.508 173.392 139.695 173.34 139.919C173.239 140.34 173.6 140.717 174.085 140.667C174.203 140.65 174.312 140.61 174.403 140.554C174.457 140.522 174.525 140.515 174.585 140.531C174.731 140.57 174.927 140.586 175.166 140.508C175.649 140.375 176.129 139.973 176.242 139.63C176.25 139.672 176.273 139.721 176.317 139.77C176.411 139.876 176.566 139.942 176.631 139.89C176.697 139.839 176.639 139.688 176.541 139.587C176.532 139.581 176.526 139.576 176.518 139.569L176.572 139.541C176.81 139.396 176.889 139.129 176.76 138.955C176.633 138.784 176.366 138.757 176.158 138.883Z" fill="black"/>
<path d="M176.614 135.714L176.584 135.761C176.578 135.752 176.573 135.745 176.567 135.736C176.472 135.628 176.334 135.557 176.281 135.597C176.227 135.636 176.278 135.781 176.366 135.891C176.408 135.943 176.451 135.975 176.491 135.992C176.147 136.033 175.702 136.235 175.398 136.451C175.248 136.571 175.144 136.671 175.095 136.795C175.074 136.845 175.028 136.877 174.973 136.878C174.827 136.878 174.694 136.936 174.566 137.035C174.4 137.179 174.305 137.412 174.336 137.64C174.389 138.07 174.862 138.301 175.297 138.09C175.403 138.034 175.491 137.959 175.557 137.876C175.596 137.828 175.658 137.798 175.72 137.793C175.87 137.78 176.059 137.729 176.257 137.575C176.663 137.286 176.971 136.746 176.956 136.386C176.979 136.424 177.017 136.461 177.076 136.493C177.202 136.56 177.371 136.57 177.414 136.499C177.457 136.428 177.349 136.306 177.221 136.245C177.211 136.242 177.203 136.239 177.194 136.236L177.234 136.191C177.406 135.975 177.387 135.698 177.203 135.578C177.025 135.46 176.764 135.526 176.614 135.714Z" fill="black"/>
<path d="M179.077 136.148L179.048 136.195C179.042 136.187 179.037 136.181 179.029 136.172C178.929 136.073 178.782 136.009 178.731 136.054C178.681 136.099 178.743 136.241 178.84 136.345C178.885 136.393 178.931 136.422 178.972 136.435C178.633 136.504 178.193 136.755 177.914 137.037C177.762 137.185 177.68 137.326 177.647 137.459C177.633 137.512 177.593 137.556 177.539 137.572C177.394 137.615 177.264 137.709 177.166 137.845C177.037 138.037 177.016 138.291 177.116 138.498C177.302 138.892 177.818 138.969 178.159 138.669C178.241 138.594 178.302 138.505 178.342 138.412C178.365 138.357 178.416 138.317 178.475 138.303C178.617 138.27 178.769 138.183 178.932 138.025C179.264 137.692 179.514 137.149 179.469 136.791C179.495 136.826 179.536 136.86 179.597 136.887C179.729 136.944 179.896 136.942 179.931 136.869C179.967 136.796 179.855 136.685 179.721 136.632C179.71 136.629 179.702 136.627 179.692 136.624L179.732 136.578C179.879 136.348 179.845 136.075 179.656 135.969C179.467 135.864 179.207 135.944 179.077 136.148Z" fill="black"/>
<path d="M163.823 140.705L163.807 140.757C163.798 140.75 163.792 140.746 163.783 140.739C163.661 140.666 163.503 140.638 163.465 140.693C163.427 140.749 163.521 140.872 163.641 140.95C163.696 140.987 163.747 141.004 163.791 141.008C163.478 141.154 163.111 141.499 162.908 141.838C162.795 142.017 162.751 142.173 162.751 142.31C162.75 142.365 162.721 142.417 162.672 142.445C162.542 142.52 162.438 142.641 162.376 142.797C162.297 143.013 162.339 143.264 162.486 143.442C162.761 143.782 163.281 143.737 163.54 143.367C163.602 143.275 163.64 143.174 163.656 143.074C163.665 143.016 163.704 142.965 163.759 142.938C163.889 142.873 164.015 142.754 164.136 142.561C164.378 142.161 164.49 141.576 164.36 141.238C164.393 141.267 164.441 141.29 164.508 141.302C164.649 141.327 164.81 141.286 164.827 141.207C164.845 141.128 164.709 141.046 164.566 141.026C164.555 141.025 164.547 141.025 164.536 141.025L164.563 140.971C164.652 140.713 164.552 140.456 164.343 140.397C164.133 140.338 163.9 140.476 163.823 140.705Z" fill="black"/>
<path d="M180.317 132.45L180.32 132.505C180.31 132.502 180.302 132.499 180.291 132.495C180.151 132.459 179.995 132.478 179.976 132.543C179.955 132.607 180.082 132.699 180.219 132.739C180.283 132.758 180.337 132.76 180.38 132.751C180.125 132.981 179.88 133.422 179.786 133.798C179.735 133.99 179.741 134.144 179.773 134.27C179.787 134.321 179.775 134.377 179.736 134.415C179.637 134.517 179.553 134.644 179.537 134.808C179.511 135.027 179.598 135.261 179.784 135.41C180.115 135.688 180.631 135.547 180.798 135.109C180.843 135.003 180.859 134.893 180.847 134.788C180.841 134.727 180.866 134.665 180.912 134.624C181.027 134.526 181.116 134.367 181.177 134.137C181.292 133.68 181.218 133.092 180.992 132.807C181.033 132.825 181.086 132.834 181.153 132.826C181.296 132.809 181.439 132.725 181.432 132.644C181.424 132.564 181.267 132.524 181.126 132.546C181.115 132.549 181.107 132.551 181.097 132.554L181.105 132.494C181.121 132.224 180.945 132.007 180.725 132.008C180.509 132.01 180.332 132.208 180.317 132.45Z" fill="black"/>
<path d="M182.943 120.502L182.897 120.533C182.895 120.523 182.893 120.514 182.891 120.503C182.849 120.368 182.751 120.247 182.685 120.265C182.618 120.281 182.604 120.434 182.64 120.57C182.658 120.633 182.684 120.68 182.714 120.711C182.381 120.618 181.869 120.643 181.492 120.761C181.299 120.818 181.168 120.903 181.075 120.995C181.038 121.035 180.982 121.053 180.929 121.04C180.789 121.01 180.634 121.007 180.483 121.078C180.278 121.172 180.12 121.366 180.087 121.599C180.017 122.021 180.41 122.379 180.878 122.29C180.994 122.272 181.098 122.228 181.183 122.163C181.233 122.127 181.3 122.116 181.359 122.133C181.505 122.177 181.69 122.168 181.922 122.1C182.38 121.958 182.854 121.59 182.985 121.253C182.99 121.295 183.01 121.344 183.052 121.396C183.141 121.507 183.289 121.582 183.356 121.535C183.421 121.486 183.374 121.334 183.281 121.228C183.273 121.22 183.268 121.215 183.26 121.208L183.316 121.183C183.559 121.056 183.657 120.795 183.541 120.612C183.427 120.433 183.162 120.388 182.943 120.502Z" fill="black"/>
<path d="M179.95 128.333V128.395C179.94 128.391 179.933 128.389 179.922 128.384C179.784 128.346 179.624 128.37 179.604 128.454C179.591 128.538 179.726 128.641 179.867 128.67C179.932 128.684 179.987 128.68 180.028 128.665C179.774 128.937 179.675 129.549 179.765 129.989C179.806 130.21 179.885 130.363 179.978 130.46C180.017 130.5 180.033 130.558 180.018 130.611C179.975 130.755 179.979 130.89 180.038 131.047C180.122 131.256 180.324 131.418 180.553 131.459C180.988 131.539 181.354 131.174 181.292 130.714C181.274 130.6 181.235 130.489 181.174 130.408C181.14 130.359 181.131 130.296 181.152 130.241C181.202 130.103 181.212 129.94 181.173 129.733C181.093 129.33 180.876 128.905 180.644 128.661C180.685 128.673 180.74 128.676 180.805 128.663C180.945 128.635 181.079 128.561 181.064 128.499C181.054 128.439 180.9 128.404 180.757 128.423C180.746 128.426 180.739 128.427 180.729 128.43C180.732 128.413 180.736 128.396 180.738 128.378C180.748 128.147 180.61 127.933 180.397 127.895C180.181 127.856 179.965 128.05 179.95 128.333Z" fill="black"/>
<path d="M178.442 126.626L178.423 126.685C178.415 126.678 178.408 126.673 178.399 126.666C178.28 126.588 178.12 126.563 178.075 126.637C178.036 126.713 178.133 126.851 178.258 126.921C178.316 126.954 178.369 126.966 178.413 126.965C178.087 127.148 177.8 127.701 177.748 128.146C177.719 128.369 177.746 128.538 177.804 128.659C177.829 128.709 177.826 128.768 177.796 128.814C177.709 128.939 177.671 129.068 177.678 129.236C177.693 129.46 177.834 129.675 178.04 129.782C178.429 129.988 178.892 129.751 178.977 129.294C178.995 129.18 178.992 129.063 178.96 128.968C178.942 128.911 178.954 128.849 178.991 128.802C179.081 128.686 179.142 128.533 179.17 128.324C179.219 127.917 179.145 127.447 179 127.145C179.036 127.17 179.087 127.188 179.153 127.196C179.295 127.211 179.446 127.18 179.45 127.117C179.46 127.057 179.324 126.978 179.183 126.953C179.171 126.952 179.163 126.952 179.153 126.951C179.161 126.936 179.171 126.921 179.178 126.904C179.26 126.688 179.195 126.442 179.005 126.342C178.811 126.24 178.544 126.361 178.442 126.626Z" fill="black"/>
<path d="M181.894 124.456L181.858 124.504C181.852 124.495 181.848 124.488 181.843 124.477C181.759 124.362 181.623 124.281 181.559 124.329C181.496 124.378 181.533 124.536 181.619 124.649C181.659 124.701 181.702 124.733 181.743 124.75C181.379 124.785 180.888 125.123 180.626 125.523C180.496 125.727 180.431 125.895 180.44 126.051C180.441 126.112 180.415 126.174 180.366 126.213C180.235 126.317 180.127 126.473 180.1 126.673C180.05 126.937 180.167 127.191 180.377 127.308C180.76 127.511 181.207 127.327 181.35 127.001C181.39 126.916 181.413 126.829 181.411 126.738C181.411 126.685 181.441 126.637 181.488 126.612C181.597 126.549 181.723 126.453 181.828 126.287C182.038 125.966 182.211 125.487 182.207 125.146C182.229 125.183 182.268 125.22 182.326 125.253C182.451 125.322 182.608 125.348 182.642 125.289C182.678 125.229 182.581 125.104 182.459 125.031C182.449 125.026 182.442 125.023 182.432 125.019L182.473 124.981C182.637 124.795 182.671 124.54 182.514 124.386C182.364 124.238 182.073 124.254 181.894 124.456Z" fill="black"/>
<path d="M184.688 121.243L184.647 121.287C184.642 121.277 184.64 121.27 184.635 121.259C184.564 121.136 184.436 121.042 184.368 121.084C184.3 121.126 184.32 121.287 184.395 121.407C184.429 121.464 184.469 121.5 184.508 121.52C184.142 121.519 183.619 121.808 183.318 122.181C183.168 122.371 183.085 122.531 183.078 122.687C183.074 122.749 183.041 122.807 182.988 122.842C182.848 122.932 182.724 123.076 182.677 123.272C182.6 123.531 182.691 123.795 182.888 123.932C183.248 124.171 183.712 124.032 183.888 123.722C183.936 123.642 183.968 123.557 183.975 123.466C183.98 123.413 184.015 123.368 184.064 123.348C184.179 123.297 184.315 123.213 184.436 123.058C184.677 122.759 184.899 122.3 184.929 121.96C184.947 121.999 184.982 122.04 185.037 122.078C185.154 122.159 185.307 122.2 185.348 122.144C185.389 122.088 185.306 121.954 185.192 121.87C185.182 121.864 185.175 121.86 185.167 121.855L185.211 121.822C185.392 121.652 185.453 121.402 185.312 121.233C185.178 121.071 184.887 121.059 184.688 121.243Z" fill="black"/>
<path d="M170.356 141.259L170.293 141.258C170.297 141.249 170.301 141.241 170.306 141.231C170.351 141.096 170.331 140.94 170.244 140.919C170.165 140.901 170.061 141.029 170.028 141.165C170.012 141.229 170.014 141.282 170.027 141.323C169.772 141.077 169.229 140.925 168.787 140.963C168.563 140.979 168.4 141.045 168.288 141.13C168.242 141.167 168.18 141.181 168.124 141.164C167.973 141.118 167.795 141.127 167.621 141.207C167.385 141.315 167.234 141.559 167.261 141.787C167.33 142.21 167.698 142.47 168.046 142.409C168.137 142.393 168.219 142.354 168.294 142.303C168.337 142.272 168.393 142.268 168.441 142.292C168.559 142.352 168.707 142.376 168.905 142.361C169.295 142.328 169.763 142.153 170.009 141.926C169.995 141.966 169.991 142.02 170.001 142.084C170.023 142.223 170.091 142.358 170.152 142.347C170.206 142.337 170.243 142.186 170.233 142.047C170.232 142.036 170.23 142.029 170.228 142.019C170.244 142.022 170.259 142.026 170.276 142.028C170.337 142.031 170.359 142.029 170.407 142.015C170.466 142.007 170.522 141.989 170.57 141.963C170.668 141.911 170.738 141.827 170.76 141.722C170.782 141.618 170.753 141.513 170.69 141.43C170.659 141.388 170.619 141.35 170.572 141.321C170.514 141.291 170.42 141.262 170.356 141.259Z" fill="black"/>
<path d="M166.077 142.413L166.038 142.462C166.033 142.452 166.029 142.445 166.023 142.435C165.942 142.319 165.802 142.239 165.733 142.294C165.671 142.346 165.711 142.504 165.802 142.612C165.844 142.663 165.888 142.693 165.93 142.709C165.575 142.758 165.122 143.089 164.886 143.457C164.764 143.641 164.718 143.808 164.72 143.947C164.722 144.005 164.696 144.062 164.647 144.096C164.519 144.185 164.419 144.33 164.379 144.513C164.323 144.763 164.43 145.028 164.631 145.145C165.016 145.347 165.45 145.219 165.612 144.91C165.654 144.829 165.672 144.742 165.675 144.653C165.676 144.6 165.708 144.554 165.756 144.531C165.876 144.476 165.986 144.375 166.094 144.211C166.302 143.888 166.444 143.417 166.408 143.088C166.433 143.123 166.473 143.158 166.532 143.19C166.658 143.256 166.809 143.285 166.837 143.231C166.862 143.183 166.762 143.062 166.642 142.986C166.632 142.981 166.625 142.977 166.617 142.973C166.629 142.963 166.641 142.953 166.652 142.941C166.692 142.896 166.704 142.877 166.721 142.831C166.751 142.78 166.77 142.726 166.778 142.673C166.795 142.565 166.769 142.46 166.698 142.379C166.626 142.298 166.524 142.258 166.418 142.256C166.364 142.255 166.31 142.264 166.258 142.282C166.199 142.31 166.118 142.365 166.077 142.413Z" fill="black"/>
<path d="M174.259 141.469C174.241 141.472 174.224 141.478 174.207 141.483C174.209 141.472 174.21 141.464 174.212 141.453C174.219 141.312 174.17 141.164 174.104 141.161C174.038 141.155 173.975 141.292 173.964 141.432C173.959 141.496 173.967 141.549 173.985 141.589C173.715 141.383 173.24 141.25 172.855 141.246C172.658 141.24 172.512 141.28 172.398 141.349C172.352 141.379 172.295 141.376 172.25 141.349C172.129 141.272 171.983 141.238 171.822 141.267C171.604 141.298 171.406 141.453 171.318 141.669C171.151 142.063 171.418 142.497 171.857 142.535C171.966 142.545 172.071 142.53 172.165 142.497C172.22 142.476 172.282 142.488 172.331 142.518C172.449 142.595 172.616 142.643 172.843 142.649C173.292 142.655 173.827 142.454 174.053 142.188C174.044 142.23 174.047 142.283 174.068 142.345C174.112 142.479 174.22 142.602 174.294 142.579C174.368 142.553 174.375 142.396 174.327 142.264C174.322 142.254 174.318 142.248 174.314 142.238L174.372 142.234C174.63 142.193 174.804 141.99 174.761 141.781C174.718 141.572 174.493 141.432 174.259 141.469Z" fill="black"/>
<path d="M161.163 141.331C161.156 141.348 161.152 141.365 161.147 141.381C161.139 141.374 161.132 141.369 161.123 141.361C161.006 141.28 160.853 141.24 160.814 141.293C160.774 141.344 160.857 141.47 160.971 141.555C161.025 141.594 161.074 141.615 161.118 141.622C160.796 141.734 160.425 142.053 160.213 142.369C160.102 142.527 160.057 142.67 160.055 142.801C160.056 142.855 160.023 142.9 159.975 142.923C159.844 142.981 159.736 143.083 159.674 143.232C159.582 143.428 159.609 143.675 159.746 143.864C159.995 144.215 160.512 144.229 160.783 143.887C160.849 143.803 160.894 143.708 160.915 143.613C160.927 143.556 160.971 143.512 161.024 143.488C161.153 143.431 161.285 143.32 161.412 143.136C161.66 142.769 161.776 142.22 161.669 141.889C161.7 141.919 161.747 141.945 161.812 141.962C161.951 141.998 162.116 141.975 162.135 141.902C162.153 141.827 162.022 141.736 161.883 141.705C161.872 141.704 161.864 141.702 161.854 141.701L161.881 141.651C161.985 141.416 161.905 141.163 161.702 141.086C161.499 141.008 161.258 141.118 161.163 141.331Z" fill="black"/>
<path d="M177.847 140.153C177.832 140.163 177.818 140.174 177.804 140.186C177.801 140.176 177.799 140.168 177.796 140.156C177.743 140.026 177.636 139.91 177.574 139.933C177.512 139.956 177.514 140.11 177.563 140.243C177.587 140.305 177.617 140.349 177.649 140.377C177.312 140.292 176.827 140.372 176.475 140.519C176.299 140.604 176.177 140.685 176.103 140.794C176.072 140.837 176.022 140.862 175.97 140.855C175.83 140.841 175.683 140.862 175.547 140.946C175.364 141.063 175.248 141.289 175.252 141.515C175.259 141.95 175.678 142.232 176.103 142.098C176.209 142.069 176.298 142.008 176.369 141.937C176.411 141.895 176.471 141.877 176.529 141.888C176.67 141.91 176.849 141.901 177.054 141.803C177.469 141.629 177.866 141.222 177.964 140.895C177.974 140.937 177.999 140.985 178.044 141.032C178.14 141.136 178.287 141.2 178.344 141.148C178.401 141.096 178.342 140.951 178.242 140.85C178.234 140.842 178.227 140.837 178.22 140.831L178.271 140.805C178.493 140.67 178.564 140.412 178.435 140.236C178.311 140.065 178.049 140.031 177.847 140.153Z" fill="black"/>
<path d="M180.665 137.57C180.655 137.585 180.647 137.6 180.638 137.616C180.632 137.607 180.627 137.601 180.62 137.592C180.522 137.489 180.38 137.42 180.331 137.463C180.284 137.508 180.337 137.647 180.432 137.753C180.476 137.801 180.52 137.832 180.561 137.847C180.389 137.867 180.196 137.94 180.018 138.044C179.83 138.143 179.653 138.267 179.521 138.408C179.382 138.546 179.303 138.674 179.276 138.802C179.264 138.854 179.227 138.897 179.175 138.911C179.04 138.952 178.91 139.028 178.818 139.16C178.692 139.337 178.68 139.595 178.777 139.8C178.962 140.195 179.455 140.285 179.79 140.005C179.875 139.938 179.933 139.851 179.969 139.759C179.991 139.705 180.039 139.665 180.096 139.654C180.234 139.623 180.389 139.545 180.547 139.388C180.698 139.228 180.836 139.024 180.929 138.816C181.015 138.602 181.061 138.388 181.047 138.217C181.071 138.253 181.112 138.288 181.172 138.317C181.3 138.38 181.467 138.392 181.499 138.321C181.532 138.252 181.422 138.137 181.292 138.079C181.282 138.075 181.274 138.073 181.264 138.07L181.302 138.026C181.453 137.818 181.427 137.555 181.245 137.438C181.063 137.322 180.803 137.381 180.665 137.57Z" fill="black"/>
<path d="M182.241 134.147C182.236 134.164 182.235 134.181 182.233 134.199C182.224 134.194 182.217 134.19 182.206 134.184C182.076 134.13 181.915 134.123 181.886 134.181C181.857 134.24 181.97 134.347 182.1 134.405C182.161 134.433 182.214 134.443 182.257 134.44C181.971 134.618 181.678 135.008 181.536 135.357C181.471 135.537 181.452 135.683 181.474 135.809C181.484 135.86 181.465 135.913 181.423 135.944C181.314 136.031 181.229 136.15 181.192 136.303C181.146 136.513 181.231 136.754 181.397 136.909C181.717 137.21 182.215 137.116 182.419 136.728C182.473 136.634 182.488 136.528 182.488 136.43C182.488 136.371 182.518 136.317 182.567 136.283C182.686 136.203 182.798 136.069 182.874 135.859C183.041 135.448 183.035 134.886 182.855 134.585C182.892 134.608 182.944 134.624 183.011 134.626C183.154 134.633 183.306 134.575 183.31 134.499C183.314 134.424 183.167 134.362 183.023 134.361C183.012 134.361 183.004 134.362 182.994 134.363L183.012 134.309C183.065 134.059 182.922 133.827 182.709 133.794C182.492 133.76 182.289 133.919 182.241 134.147Z" fill="black"/>
<path d="M182.303 130.369C182.306 130.387 182.311 130.404 182.316 130.421C182.306 130.419 182.297 130.418 182.286 130.417C182.143 130.413 181.992 130.465 181.988 130.531C181.983 130.597 182.129 130.656 182.271 130.663C182.338 130.666 182.391 130.656 182.431 130.637C182.232 130.909 182.112 131.385 182.124 131.765C182.138 131.958 182.173 132.101 182.249 132.208C182.279 132.252 182.284 132.308 182.259 132.354C182.195 132.477 182.157 132.62 182.193 132.776C182.244 132.988 182.407 133.173 182.629 133.25C183.042 133.396 183.469 133.113 183.488 132.68C183.495 132.573 183.477 132.471 183.433 132.381C183.409 132.328 183.413 132.267 183.444 132.218C183.517 132.099 183.571 131.933 183.556 131.713C183.542 131.276 183.321 130.766 183.04 130.553C183.083 130.56 183.137 130.556 183.201 130.535C183.335 130.488 183.455 130.38 183.43 130.309C183.405 130.238 183.245 130.235 183.111 130.285C183.101 130.29 183.094 130.294 183.085 130.298L183.081 130.242C183.045 130.022 182.86 129.859 182.641 129.866C182.424 129.874 182.26 130.106 182.303 130.369Z" fill="black"/>
<path d="M182.723 126.274L182.707 126.332C182.699 126.325 182.693 126.32 182.683 126.313C182.562 126.236 182.405 126.21 182.364 126.281C182.323 126.351 182.418 126.485 182.542 126.554C182.6 126.586 182.653 126.599 182.697 126.598C182.387 126.77 182.087 127.27 182.026 127.707C181.993 127.928 182.019 128.097 182.082 128.223C182.107 128.275 182.105 128.336 182.076 128.385C182.001 128.518 181.963 128.683 182.002 128.858C182.049 129.096 182.241 129.285 182.469 129.335C182.898 129.424 183.274 129.122 183.295 128.751C183.302 128.657 183.284 128.566 183.247 128.483C183.225 128.434 183.237 128.379 183.271 128.338C183.355 128.238 183.415 128.102 183.444 127.913C183.497 127.539 183.441 127.077 183.284 126.781C183.319 126.805 183.37 126.824 183.436 126.832C183.579 126.85 183.731 126.824 183.737 126.765C183.744 126.706 183.606 126.627 183.466 126.601C183.455 126.6 183.447 126.6 183.437 126.599C183.444 126.584 183.453 126.57 183.458 126.554C183.542 126.352 183.465 126.115 183.279 126.013C183.085 125.906 182.827 126.023 182.723 126.274Z" fill="black"/>
<path d="M173.582 143.734L173.525 143.738C173.528 143.728 173.531 143.72 173.535 143.709C173.568 143.572 173.545 143.418 173.477 143.403C173.409 143.39 173.317 143.515 173.279 143.648C173.261 143.71 173.26 143.763 173.27 143.806C173.159 143.684 172.997 143.573 172.818 143.486C172.729 143.437 172.637 143.388 172.543 143.35C172.494 143.331 172.447 143.314 172.402 143.297L172.331 143.275C172.275 143.263 172.221 143.251 172.167 143.239C172.113 143.237 172.062 143.236 172.012 143.234C171.795 143.229 171.63 143.264 171.506 143.33C171.455 143.358 171.392 143.359 171.342 143.331C171.207 143.257 171.047 143.223 170.872 143.249C170.637 143.284 170.432 143.439 170.34 143.653C170.158 144.049 170.466 144.482 170.937 144.521C171.053 144.53 171.164 144.515 171.263 144.479C171.322 144.458 171.388 144.467 171.44 144.499C171.565 144.579 171.738 144.631 171.979 144.637C172.023 144.638 172.025 144.638 172.029 144.635L172.031 144.633C172.04 144.634 171.99 144.624 172.024 144.629L172.113 144.637C172.171 144.639 172.232 144.642 172.295 144.644C172.417 144.644 172.537 144.64 172.652 144.622C172.883 144.576 173.087 144.503 173.225 144.407C173.207 144.446 173.199 144.498 173.209 144.564C173.229 144.706 173.322 144.846 173.407 144.831C173.492 144.82 173.53 144.666 173.503 144.528C173.5 144.517 173.498 144.51 173.494 144.5L173.557 144.506C173.843 144.516 174.066 144.34 174.057 144.123C174.047 143.914 173.835 143.743 173.582 143.734Z" fill="black"/>
<path d="M177.598 142.836L177.548 142.866C177.547 142.856 177.545 142.848 177.544 142.836C177.509 142.699 177.415 142.573 177.346 142.592C177.275 142.607 177.251 142.76 177.281 142.898C177.296 142.961 177.321 143.008 177.35 143.041C177.011 142.933 176.48 142.965 176.083 143.08C175.88 143.135 175.741 143.221 175.646 143.321C175.606 143.359 175.548 143.376 175.493 143.362C175.346 143.324 175.188 143.34 175.031 143.408C174.817 143.495 174.657 143.702 174.625 143.934C174.558 144.361 174.961 144.699 175.438 144.616C175.555 144.592 175.66 144.547 175.748 144.486C175.8 144.45 175.867 144.44 175.929 144.458C176.075 144.497 176.262 144.488 176.499 144.423C176.966 144.287 177.449 143.92 177.601 143.592C177.604 143.634 177.623 143.684 177.663 143.737C177.748 143.851 177.894 143.933 177.963 143.888C178.03 143.84 177.991 143.687 177.903 143.576C177.895 143.569 177.889 143.563 177.882 143.556L177.939 143.533C178.19 143.41 178.308 143.158 178.204 142.97C178.1 142.783 177.829 142.723 177.598 142.836Z" fill="black"/>
<path d="M184.041 140.356L184.018 140.408C184.01 140.4 184.005 140.394 183.997 140.385C183.889 140.292 183.738 140.241 183.692 140.295C183.642 140.347 183.712 140.487 183.816 140.582C183.865 140.627 183.913 140.652 183.956 140.662C183.614 140.763 183.196 141.084 182.936 141.401C182.802 141.559 182.739 141.708 182.718 141.842C182.707 141.896 182.669 141.942 182.617 141.962C182.473 142.012 182.353 142.113 182.263 142.257C182.138 142.447 182.127 142.707 182.235 142.916C182.428 143.305 182.956 143.358 183.3 143.023C183.382 142.939 183.442 142.842 183.479 142.743C183.501 142.685 183.55 142.639 183.611 142.62C183.754 142.57 183.903 142.458 184.06 142.272C184.364 141.901 184.549 141.33 184.482 140.975C184.51 141.008 184.554 141.039 184.618 141.06C184.754 141.106 184.922 141.092 184.953 141.016C184.98 140.94 184.859 140.835 184.722 140.794C184.711 140.792 184.703 140.791 184.693 140.788L184.726 140.738C184.861 140.497 184.812 140.224 184.617 140.127C184.423 140.031 184.165 140.133 184.041 140.356Z" fill="black"/>
<path d="M181.031 140.454L180.993 140.498C180.988 140.489 180.984 140.481 180.979 140.471C180.903 140.351 180.773 140.26 180.712 140.299C180.651 140.34 180.677 140.495 180.749 140.615C180.784 140.671 180.823 140.708 180.861 140.729C180.5 140.731 180.002 140.943 179.663 141.198C179.495 141.332 179.387 141.453 179.335 141.583C179.313 141.635 179.266 141.675 179.21 141.685C179.061 141.715 178.91 141.779 178.79 141.908C178.629 142.083 178.567 142.337 178.634 142.556C178.76 142.973 179.265 143.117 179.655 142.86C179.754 142.799 179.831 142.719 179.884 142.628C179.916 142.574 179.972 142.539 180.034 142.533C180.181 142.515 180.358 142.453 180.544 142.306C180.919 142.022 181.239 141.527 181.278 141.173C181.296 141.212 181.329 141.254 181.384 141.292C181.503 141.374 181.666 141.406 181.712 141.341C181.76 141.276 181.674 141.143 181.556 141.064C181.546 141.059 181.538 141.056 181.529 141.051L181.576 141.013C181.775 140.824 181.809 140.55 181.654 140.401C181.498 140.252 181.219 140.276 181.031 140.454Z" fill="black"/>
<path d="M183.549 137.189L183.53 137.242C183.522 137.235 183.515 137.229 183.507 137.221C183.392 137.137 183.237 137.098 183.195 137.154C183.155 137.21 183.237 137.343 183.347 137.43C183.399 137.471 183.448 137.492 183.492 137.499C183.155 137.621 182.769 137.966 182.524 138.298C182.403 138.469 182.348 138.621 182.331 138.756C182.325 138.811 182.292 138.861 182.24 138.886C182.105 138.952 181.987 139.063 181.905 139.216C181.798 139.426 181.815 139.691 181.943 139.881C182.186 140.245 182.707 140.24 183.011 139.89C183.087 139.804 183.134 139.701 183.161 139.6C183.177 139.541 183.222 139.491 183.28 139.468C183.422 139.413 183.563 139.294 183.702 139.097C183.985 138.713 184.129 138.121 184.04 137.773C184.071 137.804 184.117 137.832 184.182 137.849C184.323 137.885 184.489 137.857 184.51 137.776C184.532 137.696 184.403 137.602 184.263 137.571C184.252 137.57 184.244 137.57 184.233 137.568L184.264 137.515C184.388 137.265 184.304 136.992 184.1 136.914C183.898 136.837 183.661 136.964 183.549 137.189Z" fill="black"/>
<path d="M184.489 133.195L184.489 133.254C184.479 133.25 184.472 133.246 184.461 133.242C184.323 133.203 184.164 133.22 184.143 133.291C184.123 133.361 184.248 133.46 184.385 133.502C184.449 133.521 184.504 133.522 184.546 133.512C184.282 133.752 184.063 134.245 183.988 134.654C183.956 134.864 183.966 135.025 184.013 135.153C184.033 135.206 184.026 135.265 183.991 135.31C183.901 135.429 183.833 135.573 183.834 135.745C183.837 135.979 183.949 136.203 184.153 136.327C184.522 136.561 185.012 136.344 185.125 135.889C185.157 135.778 185.16 135.667 185.137 135.563C185.124 135.503 185.142 135.439 185.183 135.393C185.284 135.282 185.365 135.118 185.401 134.886C185.485 134.426 185.376 133.854 185.159 133.567C185.2 133.585 185.253 133.593 185.32 133.585C185.462 133.568 185.605 133.486 185.599 133.408C185.592 133.329 185.437 133.287 185.295 133.306C185.284 133.309 185.276 133.31 185.266 133.313C185.27 133.294 185.273 133.275 185.275 133.254C185.293 132.987 185.131 132.76 184.914 132.749C184.696 132.737 184.506 132.937 184.489 133.195Z" fill="black"/>
<path d="M184.144 129.052C184.147 129.073 184.153 129.092 184.158 129.111C184.147 129.109 184.139 129.108 184.127 129.106C183.984 129.097 183.833 129.149 183.831 129.227C183.829 129.305 183.977 129.376 184.12 129.384C184.187 129.388 184.239 129.376 184.279 129.356C184.082 129.657 184.009 130.216 184.08 130.644C184.116 130.862 184.184 131.015 184.275 131.122C184.313 131.166 184.325 131.225 184.307 131.279C184.259 131.422 184.258 131.584 184.312 131.73C184.351 131.842 184.411 131.89 184.493 131.984C184.572 132.071 184.674 132.136 184.787 132.168C184.999 132.228 185.204 132.178 185.358 132.056C185.437 132.002 185.498 131.907 185.538 131.786C185.574 131.678 185.592 131.555 185.578 131.441C185.566 131.323 185.528 131.218 185.472 131.13C185.44 131.078 185.436 131.012 185.458 130.957C185.513 130.821 185.531 130.646 185.495 130.422C185.422 129.979 185.166 129.484 184.887 129.262C184.93 129.269 184.984 129.264 185.047 129.241C185.181 129.191 185.3 129.083 185.275 129.013C185.249 128.943 185.089 128.936 184.955 128.985C184.945 128.99 184.938 128.993 184.928 128.998L184.925 128.94C184.886 128.685 184.688 128.502 184.471 128.523C184.255 128.544 184.104 128.786 184.144 129.052Z" fill="black"/>
<path d="M165.937 137.228C165.932 137.244 165.93 137.26 165.927 137.276C165.918 137.27 165.911 137.265 165.902 137.259C165.775 137.19 165.625 137.162 165.59 137.207C165.553 137.251 165.647 137.365 165.765 137.445C165.82 137.481 165.87 137.501 165.913 137.507C165.614 137.628 165.228 137.888 165 138.177C164.874 138.321 164.806 138.454 164.789 138.584C164.781 138.637 164.748 138.682 164.697 138.699C164.556 138.741 164.431 138.828 164.345 138.969C164.233 139.162 164.216 139.41 164.327 139.614C164.529 139.994 165.041 140.073 165.362 139.759C165.443 139.684 165.502 139.595 165.539 139.503C165.559 139.446 165.605 139.4 165.663 139.383C165.802 139.338 165.955 139.243 166.11 139.064C166.408 138.697 166.601 138.109 166.475 137.754C166.507 137.784 166.554 137.809 166.62 137.822C166.761 137.851 166.928 137.808 166.951 137.724C166.972 137.638 166.829 137.552 166.688 137.537H166.659L166.683 137.479C166.78 137.207 166.644 136.949 166.426 136.916C166.213 136.885 166.009 137.027 165.937 137.228Z" fill="black"/>
<path d="M165.663 133.39L165.671 133.447C165.661 133.444 165.653 133.442 165.641 133.439C165.499 133.419 165.344 133.458 165.335 133.533C165.324 133.608 165.467 133.688 165.609 133.705C165.675 133.714 165.729 133.706 165.77 133.69C165.541 133.944 165.445 134.544 165.539 134.968C165.585 135.185 165.659 135.322 165.756 135.42C165.796 135.46 165.812 135.515 165.795 135.566C165.754 135.702 165.758 135.849 165.817 135.987C165.904 136.176 166.086 136.321 166.323 136.376C166.537 136.423 166.742 136.373 166.882 136.234C167.029 136.094 167.104 135.874 167.07 135.647C167.053 135.534 167.008 135.438 166.95 135.354C166.916 135.305 166.908 135.243 166.928 135.19C166.976 135.06 166.986 134.889 166.944 134.691C166.858 134.297 166.641 133.889 166.383 133.643C166.426 133.653 166.48 133.652 166.545 133.634C166.682 133.596 166.808 133.504 166.791 133.438C166.773 133.372 166.615 133.353 166.476 133.389C166.466 133.393 166.458 133.396 166.448 133.399L166.45 133.345C166.433 133.103 166.255 132.911 166.037 132.916C165.819 132.92 165.645 133.134 165.663 133.39Z" fill="black"/>
<path d="M166.268 129.256L166.249 129.312C166.241 129.305 166.235 129.3 166.226 129.292C166.108 129.212 165.951 129.179 165.907 129.247C165.863 129.315 165.952 129.451 166.072 129.527C166.129 129.562 166.18 129.577 166.224 129.579C165.91 129.739 165.566 130.229 165.489 130.682C165.438 130.909 165.468 131.086 165.52 131.218C165.542 131.272 165.538 131.335 165.509 131.386C165.43 131.52 165.386 131.691 165.421 131.872C165.466 132.117 165.647 132.313 165.878 132.369C166.305 132.469 166.686 132.164 166.717 131.79C166.726 131.694 166.711 131.602 166.676 131.517C166.655 131.466 166.667 131.411 166.705 131.371C166.798 131.275 166.852 131.137 166.896 130.949C166.959 130.576 166.945 130.103 166.801 129.79C166.835 129.817 166.885 129.838 166.951 129.849C167.093 129.873 167.248 129.85 167.259 129.787C167.271 129.724 167.136 129.639 166.997 129.61C166.986 129.609 166.978 129.608 166.968 129.607C166.976 129.591 166.986 129.577 166.993 129.56C167.08 129.345 167.023 129.101 166.827 128.999C166.639 128.901 166.37 129.008 166.268 129.256Z" fill="black"/>
<path d="M169.023 128.727L168.993 128.779C168.986 128.771 168.982 128.764 168.974 128.755C168.876 128.652 168.729 128.589 168.672 128.647C168.615 128.704 168.673 128.855 168.775 128.953C168.823 128.999 168.87 129.025 168.913 129.035C168.572 129.128 168.133 129.539 167.962 129.967C167.864 130.178 167.857 130.357 167.88 130.497C167.89 130.555 167.873 130.616 167.834 130.659C167.729 130.775 167.649 130.934 167.646 131.117C167.639 131.367 167.775 131.594 167.99 131.696C168.386 131.88 168.823 131.658 168.931 131.297C168.96 131.206 168.965 131.113 168.949 131.023C168.938 130.969 168.962 130.917 169.007 130.886C169.119 130.81 169.201 130.685 169.282 130.511C169.422 130.158 169.509 129.693 169.433 129.358C169.461 129.39 169.505 129.421 169.567 129.445C169.701 129.497 169.858 129.506 169.883 129.446C169.907 129.387 169.793 129.277 169.663 129.221C169.652 129.217 169.645 129.215 169.635 129.212C169.646 129.198 169.659 129.186 169.669 129.171C169.8 128.978 169.795 128.728 169.624 128.589C169.461 128.455 169.176 128.505 169.023 128.727Z" fill="black"/>
<path d="M169.015 126.042C168.999 126.054 168.985 126.068 168.971 126.081C168.967 126.071 168.965 126.063 168.961 126.052C168.902 125.924 168.785 125.818 168.714 125.853C168.644 125.889 168.651 126.05 168.713 126.176C168.743 126.235 168.779 126.275 168.815 126.298C168.455 126.263 167.927 126.499 167.598 126.811C167.435 126.978 167.346 127.136 167.314 127.275C167.3 127.331 167.265 127.386 167.21 127.412C167.067 127.484 166.929 127.603 166.856 127.779C166.759 128.019 166.798 128.278 166.97 128.446C167.284 128.744 167.767 128.685 167.99 128.399C168.05 128.327 168.088 128.244 168.106 128.156C168.118 128.104 168.154 128.062 168.209 128.051C168.34 128.022 168.471 127.949 168.606 127.809C168.89 127.54 169.139 127.106 169.193 126.775C169.208 126.815 169.239 126.858 169.29 126.901C169.397 126.994 169.544 127.05 169.588 126.999C169.632 126.948 169.561 126.807 169.457 126.713C169.447 126.706 169.441 126.702 169.433 126.696L169.479 126.667C169.679 126.533 169.745 126.278 169.627 126.098C169.51 125.919 169.236 125.893 169.015 126.042Z" fill="black"/>
<path d="M172.976 124.466L172.917 124.48C172.919 124.47 172.921 124.461 172.923 124.45C172.935 124.309 172.885 124.161 172.804 124.159C172.723 124.157 172.647 124.301 172.641 124.441C172.638 124.507 172.651 124.558 172.671 124.597C172.372 124.4 171.774 124.361 171.332 124.512C171.106 124.583 170.959 124.687 170.87 124.803C170.833 124.85 170.775 124.878 170.714 124.876C170.552 124.87 170.384 124.93 170.236 125.044C170.039 125.207 169.959 125.464 170.025 125.683C170.157 126.097 170.613 126.26 170.956 126.105C171.044 126.066 171.115 126.001 171.175 125.935C171.21 125.895 171.264 125.877 171.318 125.888C171.447 125.914 171.598 125.902 171.785 125.843C172.149 125.719 172.564 125.46 172.771 125.192C172.765 125.234 172.771 125.287 172.794 125.348C172.844 125.48 172.943 125.598 173.005 125.575C173.066 125.552 173.074 125.395 173.03 125.262C173.025 125.252 173.022 125.246 173.018 125.237L173.072 125.233C173.309 125.212 173.493 125.02 173.484 124.81C173.473 124.594 173.246 124.442 172.976 124.466Z" fill="black"/>
<path d="M168.945 143.202L168.895 143.235C168.893 143.225 168.892 143.217 168.89 143.205C168.851 143.069 168.75 142.947 168.674 142.973C168.597 142.999 168.579 143.16 168.623 143.294C168.643 143.356 168.673 143.401 168.706 143.429C168.355 143.347 167.782 143.516 167.422 143.809C167.236 143.954 167.135 144.101 167.093 144.241C167.075 144.297 167.031 144.344 166.973 144.362C166.82 144.413 166.683 144.526 166.586 144.684C166.459 144.904 166.477 145.172 166.617 145.355C166.888 145.697 167.374 145.693 167.64 145.43C167.708 145.363 167.751 145.279 167.784 145.196C167.802 145.146 167.847 145.111 167.901 145.104C168.031 145.083 168.168 145.02 168.323 144.901C168.619 144.66 168.915 144.274 169.013 143.952C169.023 143.993 169.047 144.041 169.091 144.091C169.184 144.197 169.319 144.274 169.369 144.231C169.419 144.188 169.369 144.038 169.28 143.929C169.273 143.922 169.267 143.917 169.26 143.909L169.309 143.888C169.524 143.787 169.628 143.543 169.544 143.35C169.457 143.151 169.19 143.087 168.945 143.202Z" fill="black"/>
<path d="M177.105 124.741L177.053 124.748C177.055 124.738 177.057 124.731 177.06 124.72C177.082 124.581 177.051 124.429 176.99 124.413C176.928 124.399 176.851 124.53 176.821 124.667C176.808 124.731 176.809 124.784 176.821 124.825C176.581 124.588 176.158 124.379 175.75 124.302C175.543 124.264 175.371 124.278 175.236 124.329C175.182 124.349 175.119 124.344 175.067 124.313C174.931 124.225 174.754 124.181 174.565 124.21C174.306 124.24 174.1 124.43 174.042 124.65C173.941 125.071 174.244 125.438 174.612 125.48C174.707 125.487 174.799 125.481 174.886 125.45C174.936 125.432 174.993 125.445 175.035 125.483C175.133 125.574 175.278 125.643 175.497 125.683C175.926 125.766 176.534 125.666 176.806 125.428C176.791 125.469 176.786 125.522 176.799 125.586C176.825 125.724 176.925 125.857 177.008 125.843C177.091 125.832 177.118 125.675 177.083 125.539C177.079 125.528 177.076 125.521 177.073 125.511C177.093 125.513 177.113 125.514 177.134 125.513C177.413 125.499 177.612 125.302 177.579 125.087C177.547 124.881 177.335 124.729 177.105 124.741Z" fill="black"/>
<path d="M180.644 123.31L180.602 123.345C180.599 123.335 180.596 123.328 180.592 123.317C180.532 123.19 180.417 123.081 180.353 123.108C180.29 123.135 180.299 123.29 180.357 123.419C180.383 123.479 180.417 123.521 180.451 123.547C180.11 123.499 179.613 123.616 179.27 123.79C179.096 123.881 178.987 123.988 178.917 124.092C178.888 124.136 178.839 124.163 178.786 124.158C178.645 124.15 178.504 124.183 178.373 124.267C178.198 124.392 178.085 124.607 178.087 124.836C178.082 125.27 178.522 125.56 178.971 125.399C179.083 125.363 179.17 125.293 179.242 125.219C179.284 125.174 179.347 125.153 179.408 125.159C179.56 125.18 179.733 125.138 179.942 125.03C180.356 124.819 180.731 124.387 180.802 124.042C180.815 124.084 180.843 124.129 180.891 124.174C180.995 124.271 181.148 124.326 181.202 124.272C181.257 124.217 181.189 124.075 181.082 123.98C181.074 123.974 181.067 123.969 181.059 123.963L181.109 123.934C181.328 123.788 181.376 123.513 181.244 123.348C181.107 123.177 180.848 123.175 180.644 123.31Z" fill="black"/>
<path d="M163.708 135.425L163.725 135.479C163.714 135.478 163.706 135.477 163.694 135.476C163.551 135.48 163.404 135.543 163.406 135.617C163.403 135.643 163.427 135.624 163.48 135.629C163.531 135.629 163.599 135.657 163.67 135.659C163.736 135.665 163.79 135.661 163.831 135.647C163.605 135.858 163.398 136.288 163.333 136.662C163.301 136.852 163.316 136.999 163.364 137.118C163.385 137.167 163.378 137.222 163.342 137.26C163.249 137.365 163.19 137.494 163.189 137.647C163.185 137.85 163.301 138.056 163.492 138.195C163.836 138.469 164.345 138.283 164.47 137.842C164.503 137.734 164.503 137.628 164.484 137.53C164.474 137.472 164.492 137.412 164.532 137.369C164.631 137.266 164.709 137.111 164.747 136.891C164.821 136.456 164.707 135.893 164.446 135.611C164.488 135.624 164.542 135.626 164.607 135.606C164.675 135.582 164.746 135.553 164.787 135.487C164.829 135.427 164.843 135.331 164.827 135.289C164.8 135.228 164.64 135.236 164.509 135.293C164.499 135.298 164.492 135.302 164.483 135.307L164.477 135.254C164.427 135.022 164.212 134.866 163.998 134.905C163.784 134.945 163.654 135.177 163.708 135.425Z" fill="black"/>
<path d="M163.432 131.365L163.431 131.423C163.421 131.418 163.414 131.415 163.403 131.41C163.266 131.368 163.107 131.381 163.085 131.454C163.063 131.527 163.188 131.628 163.325 131.667C163.389 131.685 163.443 131.685 163.486 131.675C163.228 131.907 163.033 132.433 163.049 132.869C163.048 133.091 163.114 133.251 163.193 133.365C163.226 133.412 163.236 133.472 163.215 133.526C163.154 133.669 163.154 133.836 163.218 134.002C163.303 134.229 163.515 134.386 163.753 134.402C164.19 134.43 164.516 134.071 164.477 133.696C164.464 133.601 164.433 133.513 164.386 133.436C164.357 133.391 164.358 133.334 164.385 133.287C164.455 133.174 164.48 133.027 164.482 132.832C164.468 132.449 164.324 131.982 164.1 131.722C164.14 131.738 164.194 131.745 164.26 131.738C164.403 131.722 164.545 131.655 164.538 131.59C164.531 131.525 164.377 131.482 164.235 131.494C164.224 131.496 164.216 131.498 164.206 131.499L164.216 131.448C164.236 131.214 164.095 131 163.881 130.967C163.665 130.933 163.454 131.11 163.432 131.365Z" fill="black"/>
<path d="M164.731 127.476L164.706 127.528C164.699 127.52 164.693 127.514 164.686 127.505C164.579 127.41 164.429 127.357 164.378 127.416C164.328 127.474 164.399 127.618 164.507 127.709C164.558 127.751 164.607 127.774 164.651 127.782C164.475 127.833 164.299 127.963 164.137 128.132C163.97 128.298 163.833 128.508 163.756 128.716C163.671 128.925 163.651 129.095 163.689 129.234C163.703 129.291 163.689 129.351 163.649 129.394C163.547 129.509 163.463 129.663 163.469 129.845C163.47 130.092 163.611 130.314 163.824 130.41C164.223 130.583 164.663 130.364 164.755 130.007C164.783 129.918 164.787 129.827 164.771 129.738C164.761 129.686 164.782 129.634 164.824 129.602C164.923 129.521 165.018 129.404 165.09 129.226C165.156 129.049 165.2 128.842 165.225 128.64C165.244 128.436 165.23 128.231 165.19 128.073C165.22 128.103 165.266 128.131 165.329 128.152C165.466 128.195 165.623 128.193 165.643 128.131C165.663 128.069 165.541 127.968 165.407 127.92C165.396 127.918 165.388 127.916 165.378 127.913C165.389 127.899 165.4 127.886 165.409 127.871C165.521 127.665 165.495 127.42 165.312 127.298C165.135 127.18 164.857 127.249 164.731 127.476Z" fill="black"/>
<path d="M184.676 124.293L184.669 124.35C184.66 124.345 184.653 124.341 184.642 124.335C184.51 124.279 184.351 124.277 184.322 124.348C184.293 124.42 184.408 124.534 184.541 124.585C184.603 124.609 184.657 124.615 184.701 124.609C184.552 124.712 184.428 124.892 184.331 125.103C184.228 125.313 184.167 125.555 184.163 125.776C184.152 126 184.189 126.168 184.271 126.288C184.303 126.337 184.31 126.398 184.287 126.452C184.228 126.593 184.199 126.765 184.265 126.936C184.348 127.169 184.555 127.334 184.787 127.357C185.223 127.395 185.566 127.047 185.535 126.681C185.533 126.587 185.506 126.5 185.461 126.421C185.435 126.375 185.437 126.32 185.466 126.275C185.533 126.168 185.585 126.027 185.594 125.836C185.598 125.646 185.571 125.436 185.528 125.238C185.479 125.039 185.397 124.849 185.307 124.713C185.346 124.732 185.398 124.744 185.465 124.743C185.609 124.741 185.756 124.688 185.755 124.624C185.753 124.559 185.604 124.502 185.462 124.499C185.451 124.5 185.443 124.501 185.433 124.502C185.438 124.485 185.444 124.469 185.447 124.452C185.486 124.222 185.38 123.998 185.166 123.941C184.96 123.886 184.719 124.038 184.676 124.293Z" fill="black"/>
<path d="M167.564 124.477L167.521 124.514C167.517 124.504 167.514 124.496 167.511 124.486C167.45 124.358 167.333 124.251 167.263 124.284C167.194 124.317 167.201 124.475 167.265 124.6C167.294 124.659 167.33 124.699 167.367 124.723C167.02 124.695 166.491 124.904 166.173 125.21C166.005 125.357 165.925 125.516 165.894 125.653C165.881 125.709 165.842 125.757 165.788 125.779C165.642 125.837 165.503 125.943 165.428 126.111C165.321 126.334 165.35 126.594 165.501 126.77C165.785 127.093 166.282 127.082 166.517 126.795C166.582 126.727 166.626 126.646 166.651 126.56C166.665 126.509 166.707 126.471 166.76 126.459C166.89 126.433 167.014 126.354 167.164 126.224C167.442 125.955 167.702 125.539 167.745 125.199C167.76 125.239 167.791 125.282 167.841 125.326C167.949 125.418 168.096 125.476 168.141 125.427C168.186 125.378 168.114 125.238 168.009 125.143C168 125.137 167.994 125.132 167.986 125.126L168.032 125.099C168.223 124.958 168.285 124.705 168.167 124.53C168.044 124.35 167.773 124.323 167.564 124.477Z" fill="black"/>
<path d="M171.315 122.703L171.261 122.723C171.261 122.713 171.262 122.704 171.262 122.693C171.254 122.552 171.184 122.412 171.107 122.419C171.03 122.426 170.979 122.578 170.992 122.717C170.997 122.783 171.016 122.832 171.041 122.868C170.725 122.707 170.153 122.722 169.742 122.899C169.532 122.983 169.397 123.091 169.321 123.212C169.289 123.261 169.235 123.292 169.176 123.293C169.019 123.296 168.853 123.348 168.722 123.475C168.54 123.642 168.47 123.893 168.544 124.111C168.685 124.515 169.153 124.684 169.483 124.5C169.57 124.458 169.641 124.398 169.695 124.325C169.728 124.282 169.781 124.261 169.835 124.269C169.964 124.284 170.116 124.265 170.3 124.193C170.655 124.039 171.047 123.737 171.216 123.446C171.215 123.489 171.228 123.54 171.258 123.599C171.324 123.723 171.438 123.828 171.498 123.797C171.557 123.766 171.542 123.61 171.48 123.484C171.474 123.475 171.47 123.468 171.465 123.459L171.517 123.45C171.748 123.389 171.903 123.185 171.857 122.974C171.813 122.767 171.568 122.637 171.315 122.703Z" fill="black"/>
<path d="M175.483 122.468L175.425 122.465C175.43 122.455 175.433 122.448 175.438 122.438C175.488 122.305 175.482 122.149 175.408 122.125C175.333 122.101 175.224 122.219 175.179 122.352C175.157 122.414 175.155 122.467 175.163 122.509C174.938 122.241 174.401 122.038 173.949 122.041C173.721 122.039 173.554 122.098 173.434 122.173C173.386 122.205 173.323 122.213 173.268 122.191C173.122 122.136 172.948 122.135 172.776 122.195C172.54 122.272 172.382 122.497 172.367 122.724C172.346 123.157 172.711 123.46 173.087 123.43C173.183 123.421 173.271 123.385 173.349 123.339C173.395 123.313 173.452 123.315 173.499 123.343C173.612 123.413 173.759 123.442 173.955 123.444C174.341 123.443 174.817 123.311 175.09 123.108C175.072 123.147 175.063 123.199 175.067 123.265C175.077 123.405 175.139 123.546 175.205 123.541C175.271 123.536 175.322 123.388 175.316 123.248C175.314 123.237 175.313 123.229 175.312 123.22C175.329 123.224 175.346 123.229 175.364 123.232C175.599 123.26 175.828 123.134 175.87 122.923C175.912 122.716 175.744 122.5 175.483 122.468Z" fill="black"/>
<path d="M179.195 122.143L179.145 122.167C179.144 122.157 179.143 122.149 179.142 122.137C179.118 121.999 179.034 121.866 178.964 121.878C178.893 121.89 178.861 122.043 178.886 122.181C178.897 122.245 178.919 122.294 178.947 122.327C178.628 122.193 178.094 122.22 177.73 122.336C177.64 122.364 177.565 122.398 177.521 122.429C177.487 122.449 177.499 122.456 177.493 122.473C177.491 122.49 177.451 122.508 177.435 122.528C177.399 122.562 177.35 122.567 177.309 122.545C177.2 122.481 177.08 122.456 176.934 122.482C176.736 122.518 176.528 122.665 176.434 122.877C176.258 123.266 176.49 123.712 176.989 123.752C177.111 123.761 177.231 123.739 177.334 123.696C177.394 123.668 177.465 123.671 177.524 123.696C177.565 123.71 177.589 123.727 177.655 123.732C177.717 123.737 177.803 123.735 177.846 123.732C177.958 123.726 178.06 123.706 178.173 123.671C178.604 123.532 179.017 123.199 179.167 122.89C179.17 122.933 179.186 122.984 179.222 123.039C179.298 123.158 179.428 123.25 179.489 123.212C179.551 123.174 179.521 123.02 179.444 122.902C179.437 122.893 179.432 122.887 179.426 122.879L179.48 122.864C179.713 122.775 179.838 122.543 179.76 122.344C179.682 122.144 179.428 122.055 179.195 122.143Z" fill="black"/>
<path d="M161.184 132.534L161.197 132.595C161.186 132.593 161.178 132.591 161.167 132.589C161.023 132.573 160.871 132.622 160.867 132.705C160.864 132.788 161.01 132.868 161.153 132.878C161.219 132.883 161.273 132.872 161.312 132.852C161.106 133.155 161.078 133.778 161.167 134.174C161.213 134.387 161.288 134.536 161.383 134.64C161.422 134.683 161.439 134.742 161.423 134.797C161.382 134.944 161.388 135.107 161.454 135.266C161.547 135.483 161.749 135.64 161.983 135.678C162.418 135.759 162.776 135.356 162.699 134.899C162.681 134.786 162.639 134.684 162.58 134.598C162.546 134.547 162.538 134.483 162.558 134.426C162.607 134.287 162.617 134.109 162.569 133.883C162.464 133.414 162.192 132.988 161.921 132.764C161.964 132.772 162.018 132.766 162.081 132.744C162.217 132.696 162.339 132.595 162.316 132.529C162.294 132.463 162.134 132.452 161.997 132.495C161.987 132.5 161.98 132.503 161.97 132.507L161.968 132.451C161.933 132.203 161.761 132.006 161.539 132.015C161.326 132.023 161.146 132.258 161.184 132.534Z" fill="black"/>
<path d="M161.842 128.158L161.824 128.218C161.815 128.21 161.809 128.205 161.8 128.198C161.681 128.117 161.524 128.088 161.481 128.159C161.438 128.23 161.528 128.368 161.648 128.445C161.705 128.48 161.757 128.495 161.801 128.496C161.471 128.664 161.132 129.172 161.029 129.643C160.966 129.878 160.993 130.068 161.041 130.209C161.062 130.266 161.057 130.333 161.023 130.386C160.928 130.526 160.899 130.709 160.922 130.903C160.951 131.166 161.149 131.377 161.374 131.436C161.806 131.541 162.174 131.222 162.221 130.832C162.231 130.732 162.211 130.634 162.186 130.545C162.17 130.491 162.184 130.433 162.222 130.391C162.318 130.29 162.373 130.145 162.428 129.946C162.514 129.551 162.504 129.031 162.378 128.707C162.412 128.734 162.462 128.755 162.528 128.765C162.67 128.786 162.827 128.754 162.839 128.685C162.851 128.616 162.716 128.531 162.575 128.505C162.564 128.504 162.556 128.504 162.546 128.503L162.571 128.452C162.668 128.219 162.604 127.961 162.406 127.868C162.212 127.776 161.949 127.902 161.842 128.158Z" fill="black"/>
<path d="M164.321 124.496L164.282 124.543C164.277 124.534 164.273 124.527 164.267 124.516C164.186 124.401 164.049 124.318 163.983 124.365C163.916 124.411 163.953 124.575 164.037 124.689C164.076 124.742 164.119 124.775 164.159 124.792C163.794 124.832 163.293 125.16 163.005 125.535C162.864 125.728 162.798 125.899 162.784 126.046C162.778 126.106 162.744 126.162 162.69 126.195C162.553 126.284 162.438 126.428 162.375 126.609C162.284 126.853 162.362 127.127 162.535 127.281C162.868 127.569 163.346 127.449 163.571 127.11C163.627 127.023 163.657 126.927 163.67 126.83C163.679 126.775 163.718 126.727 163.771 126.705C163.902 126.65 164.029 126.546 164.154 126.373C164.41 126.04 164.615 125.547 164.617 125.195C164.639 125.232 164.677 125.27 164.734 125.303C164.859 125.374 165.014 125.395 165.055 125.336C165.095 125.275 165.001 125.149 164.879 125.076C164.868 125.071 164.861 125.068 164.852 125.063L164.896 125.025C165.078 124.84 165.101 124.567 164.948 124.415C164.795 124.263 164.514 124.3 164.321 124.496Z" fill="black"/>
<path d="M161.502 137.108L161.511 137.169C161.501 137.166 161.493 137.164 161.481 137.161C161.339 137.144 161.185 137.189 161.177 137.269C161.167 137.349 161.317 137.43 161.459 137.444C161.527 137.452 161.58 137.442 161.619 137.423C161.407 137.718 161.324 138.302 161.419 138.762C161.472 138.994 161.559 139.156 161.661 139.264C161.703 139.308 161.724 139.371 161.713 139.431C161.69 139.591 161.723 139.771 161.819 139.938C161.945 140.166 162.206 140.291 162.438 140.267C162.879 140.214 163.105 139.785 162.996 139.395C162.967 139.296 162.914 139.21 162.849 139.137C162.812 139.093 162.802 139.033 162.82 138.979C162.866 138.847 162.87 138.685 162.823 138.478C162.738 138.07 162.498 137.592 162.231 137.357C162.274 137.366 162.329 137.363 162.392 137.343C162.529 137.299 162.648 137.199 162.63 137.13C162.611 137.06 162.452 137.045 162.314 137.086C162.304 137.09 162.296 137.093 162.287 137.097L162.287 137.04C162.267 136.784 162.074 136.585 161.857 136.596C161.639 136.607 161.48 136.836 161.502 137.108Z" fill="black"/>
<path d="M167.797 121.737L167.744 121.77C167.742 121.759 167.741 121.751 167.739 121.74C167.699 121.605 167.594 121.485 167.514 121.511C167.435 121.54 167.418 121.705 167.463 121.839C167.484 121.902 167.515 121.946 167.548 121.973C167.186 121.907 166.595 122.083 166.22 122.375C166.025 122.517 165.915 122.662 165.863 122.802C165.841 122.858 165.794 122.904 165.734 122.921C165.573 122.964 165.424 123.066 165.315 123.221C165.164 123.431 165.145 123.7 165.264 123.903C165.483 124.277 165.992 124.315 166.309 124.04C166.388 123.968 166.451 123.889 166.492 123.8C166.516 123.748 166.567 123.712 166.624 123.704C166.764 123.683 166.916 123.616 167.09 123.49C167.423 123.23 167.757 122.827 167.862 122.492C167.872 122.534 167.897 122.581 167.942 122.63C168.039 122.734 168.179 122.802 168.233 122.756C168.288 122.712 168.238 122.564 168.145 122.456C168.137 122.449 168.131 122.443 168.123 122.436L168.176 122.414C168.402 122.295 168.512 122.045 168.422 121.855C168.328 121.659 168.048 121.605 167.797 121.737Z" fill="black"/>
<path d="M172.142 120.58L172.08 120.59C172.083 120.579 172.085 120.571 172.088 120.56C172.11 120.421 172.067 120.269 171.986 120.262C171.904 120.254 171.817 120.392 171.799 120.531C171.79 120.596 171.799 120.649 171.817 120.689C171.522 120.472 170.923 120.378 170.446 120.471C170.205 120.513 170.037 120.608 169.926 120.706C169.88 120.747 169.815 120.768 169.753 120.757C169.587 120.738 169.401 120.772 169.23 120.868C168.997 121.007 168.872 121.257 168.904 121.484C168.973 121.914 169.416 122.125 169.803 122.014C169.902 121.984 169.988 121.934 170.06 121.868C170.104 121.833 170.165 121.823 170.219 121.841C170.353 121.887 170.513 121.884 170.724 121.848C171.134 121.769 171.624 121.544 171.87 121.289C171.86 121.331 171.861 121.384 171.88 121.447C171.922 121.582 172.021 121.707 172.092 121.688C172.163 121.669 172.183 121.513 172.144 121.378C172.14 121.367 172.137 121.36 172.133 121.351L172.192 121.351C172.453 121.33 172.662 121.16 172.656 120.944C172.649 120.734 172.42 120.558 172.142 120.58Z" fill="black"/>
<path d="M168.835 119.034L168.778 119.057C168.778 119.046 168.778 119.038 168.779 119.027C168.767 118.886 168.69 118.748 168.609 118.759C168.528 118.769 168.476 118.924 168.49 119.064C168.497 119.129 168.518 119.178 168.545 119.213C168.207 119.068 167.602 119.112 167.159 119.309C166.934 119.404 166.793 119.534 166.708 119.655C166.673 119.705 166.615 119.74 166.552 119.744C166.386 119.762 166.213 119.837 166.069 119.969C165.875 120.156 165.812 120.428 165.896 120.642C166.064 121.045 166.545 121.151 166.895 120.956C166.984 120.904 167.056 120.836 167.111 120.756C167.145 120.711 167.202 120.688 167.26 120.693C167.401 120.708 167.556 120.67 167.752 120.587C168.133 120.417 168.557 120.088 168.738 119.785C168.737 119.828 168.751 119.88 168.785 119.937C168.857 120.059 168.982 120.158 169.047 120.123C169.112 120.089 169.094 119.932 169.025 119.809C169.018 119.8 169.014 119.794 169.008 119.786L169.065 119.773C169.314 119.694 169.478 119.481 169.421 119.272C169.366 119.069 169.101 118.95 168.835 119.034Z" fill="black"/>
<path d="M176.55 120.74L176.49 120.741C176.494 120.731 176.497 120.724 176.501 120.713C176.539 120.577 176.518 120.422 176.444 120.404C176.371 120.386 176.271 120.511 176.231 120.646C176.213 120.709 176.213 120.763 176.224 120.804C175.971 120.551 175.443 120.347 174.991 120.313C174.762 120.295 174.587 120.326 174.454 120.389C174.401 120.415 174.335 120.416 174.281 120.388C174.137 120.314 173.96 120.281 173.758 120.318C173.502 120.374 173.3 120.558 173.244 120.783C173.137 121.204 173.494 121.571 173.899 121.585C174.004 121.59 174.107 121.572 174.202 121.537C174.257 121.516 174.32 121.524 174.369 121.558C174.488 121.639 174.652 121.695 174.88 121.712C175.329 121.746 175.894 121.625 176.183 121.406C176.166 121.446 176.159 121.498 176.169 121.563C176.189 121.703 176.275 121.84 176.354 121.831C176.434 121.822 176.474 121.67 176.452 121.531C176.449 121.52 176.447 121.513 176.444 121.503L176.504 121.511C176.779 121.527 177.011 121.361 177.016 121.148C177.021 120.934 176.815 120.755 176.55 120.74Z" fill="black"/>
<path d="M150.549 138.267C150.525 138.347 150.45 138.399 150.366 138.409C149.185 138.545 148.496 138.7 147.97 138.975C147.454 139.223 147.151 139.544 147.155 139.643C147.16 139.742 147.504 140.049 148.183 140.1C148.352 140.119 148.537 140.093 148.739 140.063C148.942 140.037 149.157 139.973 149.375 139.868C149.596 139.773 149.821 139.643 150.032 139.458C150.251 139.29 150.451 139.065 150.626 138.802C150.675 138.729 150.764 138.689 150.853 138.69C151.17 138.686 151.513 138.643 151.644 138.543C151.771 138.432 151.68 138.296 151.217 138.083C151.043 137.597 150.899 137.512 150.808 137.605C150.708 137.693 150.63 137.964 150.549 138.267Z" fill="black"/>
<path d="M153.133 134.373C153.17 134.449 153.16 134.54 153.107 134.604C152.314 135.492 151.959 136.105 151.757 136.642C151.564 137.163 151.575 137.609 151.647 137.678C151.719 137.748 152.179 137.732 152.708 137.305C153.232 136.899 153.759 135.967 153.569 134.725C153.552 134.638 153.58 134.548 153.647 134.492C154.154 134.074 154.514 133.525 153.517 133.803C152.614 133.298 152.879 133.826 153.133 134.373Z" fill="black"/>
<path d="M152.9 129.651C152.969 129.696 153.005 129.779 152.994 129.862C152.823 131.023 152.859 131.754 153.04 132.321C153.192 132.872 153.491 133.213 153.593 133.223C153.693 133.232 154.033 132.941 154.207 132.307C154.361 131.695 154.299 130.668 153.449 129.719C153.39 129.654 153.369 129.561 153.397 129.477C153.571 128.865 153.594 128.185 152.901 128.97C151.886 129.033 152.362 129.337 152.9 129.651Z" fill="black"/>
<path d="M149.831 126.13C149.914 126.115 150.005 126.139 150.05 126.214C150.719 127.182 151.171 127.702 151.66 128.034C151.879 128.21 152.103 128.32 152.283 128.384C152.451 128.456 152.582 128.475 152.628 128.45C152.671 128.426 152.724 128.307 152.742 128.11C152.748 127.92 152.71 127.655 152.588 127.341C152.441 127.047 152.218 126.692 151.827 126.405C151.453 126.106 150.915 125.877 150.285 125.807C150.199 125.791 150.112 125.75 150.073 125.671C149.776 125.085 149.288 124.62 149.356 125.635C148.664 126.393 149.232 126.244 149.831 126.13Z" fill="black"/>
<path d="M145.105 125.592C145.158 125.527 145.245 125.492 145.327 125.515C146.478 125.829 147.212 125.883 147.796 125.817C148.367 125.739 148.758 125.552 148.792 125.443C148.82 125.363 148.6 124.944 147.975 124.687C147.374 124.416 146.305 124.347 145.236 125.055C145.162 125.104 145.068 125.123 144.986 125.089C144.374 124.827 143.695 124.781 144.415 125.514C144.385 126.53 144.721 126.056 145.105 125.592Z" fill="black"/>
<path d="M141.256 128.255C141.249 128.173 141.294 128.093 141.367 128.051C142.403 127.475 142.969 127.071 143.355 126.639C143.724 126.213 143.906 125.83 143.858 125.723C143.838 125.678 143.724 125.619 143.528 125.591C143.332 125.56 143.05 125.559 142.731 125.672C142.097 125.86 141.215 126.534 140.974 127.786C140.957 127.873 140.896 127.946 140.812 127.977C140.204 128.216 139.655 128.628 140.709 128.673C141.392 129.416 141.329 128.857 141.256 128.255Z" fill="black"/>
<path d="M140.115 132.823C140.059 132.76 140.047 132.669 140.08 132.593C140.576 131.514 140.736 130.799 140.719 130.215C140.717 129.648 140.554 129.243 140.46 129.204C140.368 129.164 139.935 129.336 139.594 129.909C139.27 130.466 139.057 131.47 139.603 132.603C139.642 132.681 139.637 132.775 139.588 132.847C139.398 133.11 139.253 133.403 139.274 133.561C139.289 133.721 139.454 133.729 139.903 133.475C140.403 133.612 140.558 133.547 140.536 133.415C140.507 133.28 140.31 133.058 140.115 132.823Z" fill="black"/>
<path d="M141.753 137.222C141.67 137.205 141.604 137.141 141.584 137.062C141.337 135.925 141.097 135.256 140.772 134.766C140.449 134.293 140.103 134.032 139.988 134.053C139.903 134.067 139.619 134.445 139.656 135.103C139.672 135.74 140.061 136.742 141.207 137.35C141.289 137.389 141.344 137.467 141.349 137.554C141.363 137.879 141.446 138.199 141.565 138.314C141.683 138.433 141.812 138.335 141.997 137.858C142.47 137.655 142.546 137.506 142.448 137.42C142.345 137.334 142.051 137.291 141.753 137.222Z" fill="black"/>
<path d="M145.932 139.365C145.861 139.407 145.768 139.402 145.697 139.355C144.703 138.704 144.073 138.397 143.501 138.268C142.948 138.136 142.514 138.161 142.443 138.245C142.384 138.313 142.42 138.783 142.911 139.255C143.378 139.713 144.386 140.167 145.632 139.819C145.718 139.795 145.812 139.817 145.877 139.879C146.367 140.292 146.979 140.612 146.559 139.658C146.941 138.737 146.453 139.021 145.932 139.365Z" fill="black"/>
<path d="M150.55 142.796C150.507 142.865 150.426 142.902 150.345 142.891C149.773 142.82 149.299 142.764 148.912 142.824C148.515 142.835 148.193 142.921 147.93 143.038C147.403 143.239 147.108 143.551 147.111 143.658C147.113 143.751 147.433 144.063 148.05 144.176C148.355 144.216 148.735 144.207 149.162 144.106C149.578 143.957 150.055 143.756 150.491 143.337C150.553 143.278 150.641 143.257 150.722 143.284C151.016 143.382 151.332 143.459 151.475 143.408C151.616 143.35 151.579 143.191 151.223 142.837C151.211 142.326 151.11 142.196 150.993 142.256C150.871 142.311 150.709 142.539 150.55 142.796Z" fill="black"/>
<path d="M154.478 140.409C154.468 140.488 154.409 140.553 154.33 140.576C154.048 140.658 153.81 140.751 153.596 140.846C153.37 140.925 153.177 141.015 153.009 141.113C152.684 141.321 152.409 141.495 152.222 141.708C152.035 141.919 151.903 142.119 151.819 142.272C151.738 142.431 151.714 142.556 151.736 142.603C151.757 142.647 151.871 142.707 152.059 142.743C152.251 142.785 152.51 142.786 152.809 142.696C153.106 142.607 153.473 142.476 153.794 142.168C153.959 142.022 154.123 141.849 154.279 141.649C154.423 141.435 154.55 141.185 154.662 140.913C154.693 140.836 154.766 140.782 154.853 140.773C155.471 140.687 156.066 140.454 155.083 140.139C154.594 139.256 154.523 139.815 154.478 140.409Z" fill="black"/>
<path d="M156.903 136.548C156.933 136.624 156.913 136.709 156.856 136.766C156.416 137.151 156.13 137.504 155.906 137.82C155.669 138.129 155.566 138.443 155.472 138.701C155.296 139.219 155.372 139.656 155.454 139.72C155.531 139.781 155.961 139.727 156.45 139.327C156.696 139.131 156.901 138.817 157.088 138.425C157.26 138.027 157.341 137.511 157.304 136.929C157.294 136.845 157.33 136.763 157.401 136.718C157.92 136.381 158.389 135.94 157.346 136.054C156.54 135.458 156.684 135.989 156.903 136.548Z" fill="black"/>
<path d="M157.584 132.03C157.639 132.091 157.652 132.178 157.619 132.251C157.364 132.769 157.199 133.205 157.143 133.589C157.048 133.969 157.047 134.297 157.092 134.578C157.152 135.129 157.379 135.49 157.486 135.516C157.577 135.539 157.971 135.32 158.243 134.766C158.364 134.489 158.456 134.13 158.471 133.702C158.447 133.274 158.359 132.775 158.096 132.245C158.057 132.171 158.061 132.082 158.111 132.016C158.476 131.522 158.757 130.956 157.821 131.414C156.852 131.125 157.178 131.582 157.584 132.03Z" fill="black"/>
<path d="M156.624 127.568C156.698 127.605 156.742 127.681 156.738 127.76C156.694 128.329 156.697 128.79 156.772 129.168C156.817 129.554 156.932 129.862 157.073 130.109C157.307 130.611 157.662 130.873 157.766 130.862C157.864 130.852 158.143 130.517 158.222 129.904C158.236 129.603 158.196 129.234 158.058 128.826C157.89 128.427 157.625 127.984 157.181 127.584C157.116 127.529 157.087 127.444 157.109 127.364C157.187 127.069 157.236 126.758 157.179 126.62C157.114 126.484 156.956 126.531 156.616 126.908C156.102 126.953 155.976 127.061 156.042 127.174C156.1 127.292 156.351 127.431 156.624 127.568Z" fill="black"/>
<path d="M153.915 123.897C153.996 123.9 154.067 123.953 154.097 124.028C154.526 125.074 154.943 125.66 155.396 126.01C155.847 126.349 156.238 126.48 156.341 126.423C156.416 126.383 156.581 125.943 156.362 125.368C156.244 125.088 156.094 124.732 155.756 124.442C155.595 124.291 155.406 124.144 155.191 124.006C154.973 123.871 154.7 123.772 154.417 123.681C154.336 123.656 154.275 123.59 154.26 123.505C154.137 122.899 153.85 122.344 153.601 123.322C152.731 123.864 153.314 123.884 153.915 123.897Z" fill="black"/>
<path d="M149.816 121.799C149.892 121.763 149.981 121.775 150.042 121.826C150.888 122.618 151.551 122.915 152.109 123.043C152.649 123.177 153.094 123.065 153.148 122.989C153.21 122.901 153.12 122.493 152.678 122.044C152.243 121.611 151.371 121.21 150.175 121.377C150.09 121.393 150.004 121.364 149.952 121.299C149.569 120.82 149.083 120.398 149.279 121.406C148.733 122.241 149.263 122.058 149.816 121.799Z" fill="black"/>
<path d="M145.172 121.497C145.229 121.437 145.315 121.417 145.393 121.442C145.941 121.654 146.395 121.759 146.788 121.798C147.182 121.858 147.516 121.831 147.798 121.763C148.352 121.673 148.704 121.41 148.722 121.308C148.739 121.214 148.484 120.858 147.9 120.624C147.608 120.53 147.235 120.47 146.798 120.492C146.362 120.536 145.859 120.682 145.343 120.977C145.271 121.023 145.18 121.027 145.107 120.984C144.569 120.678 143.958 120.46 144.523 121.327C144.333 122.299 144.757 121.937 145.172 121.497Z" fill="black"/>
<path d="M140.797 122.984C140.824 122.908 140.895 122.856 140.976 122.849C141.543 122.782 142.022 122.75 142.385 122.613C142.761 122.508 143.062 122.376 143.292 122.206C143.762 121.904 143.994 121.547 143.969 121.441C143.95 121.352 143.574 121.099 142.943 121.115C142.636 121.14 142.257 121.21 141.864 121.412C141.487 121.643 141.057 121.931 140.732 122.447C140.685 122.517 140.602 122.556 140.517 122.546C139.874 122.46 139.266 122.588 140.138 123.1C140.418 124.085 140.591 123.521 140.797 122.984Z" fill="black"/>
<path d="M137.548 126.2C137.535 126.119 137.567 126.037 137.643 125.999C138.166 125.721 138.503 125.428 138.808 125.18C138.952 125.05 139.069 124.917 139.166 124.784C139.268 124.657 139.361 124.541 139.43 124.42C139.573 124.183 139.644 123.949 139.681 123.772C139.724 123.602 139.719 123.476 139.687 123.436C139.655 123.398 139.529 123.363 139.336 123.369C139.148 123.382 138.903 123.449 138.624 123.593C138.486 123.667 138.334 123.755 138.193 123.877C138.058 124.005 137.922 124.157 137.793 124.334C137.518 124.674 137.342 125.174 137.241 125.747C137.225 125.826 137.176 125.901 137.098 125.931C136.524 126.158 135.976 126.501 137.017 126.597C137.685 127.344 137.649 126.795 137.548 126.2Z" fill="black"/>
<path d="M136.012 130.495C135.968 130.425 135.971 130.337 136.017 130.271C136.352 129.804 136.597 129.408 136.724 129.043C136.889 128.689 136.951 128.369 136.959 128.086C137.02 127.542 136.858 127.137 136.762 127.092C136.674 127.05 136.258 127.193 135.867 127.682C135.696 127.934 135.536 128.272 135.44 128.692C135.383 129.12 135.373 129.63 135.545 130.197C135.571 130.277 135.551 130.363 135.49 130.421C135.043 130.847 134.666 131.361 135.669 131.062C136.574 131.504 136.333 131.003 136.012 130.495Z" fill="black"/>
<path d="M136.143 135.066C136.077 135.015 136.049 134.932 136.069 134.855C136.239 134.302 136.307 133.849 136.312 133.459C136.338 133.068 136.282 132.743 136.188 132.474C136.038 131.938 135.741 131.622 135.634 131.615C135.537 131.609 135.197 131.893 135.021 132.482C134.951 132.774 134.923 133.142 134.984 133.565C135.066 133.985 135.258 134.463 135.599 134.942C135.652 135.008 135.663 135.096 135.626 135.171C135.358 135.721 135.186 136.332 136.022 135.713C137.027 135.822 136.624 135.436 136.143 135.066Z" fill="black"/>
<path d="M137.977 139.239C137.898 139.218 137.84 139.152 137.827 139.073C137.773 138.787 137.726 138.538 137.684 138.314C137.633 138.086 137.568 137.887 137.49 137.711C137.362 137.347 137.198 137.065 137.01 136.851C136.671 136.411 136.285 136.214 136.181 136.245C136.09 136.272 135.867 136.657 135.925 137.271C135.972 137.571 136.076 137.932 136.303 138.303C136.429 138.482 136.582 138.665 136.764 138.844C136.939 139.027 137.163 139.195 137.433 139.338C137.508 139.38 137.553 139.457 137.549 139.541C137.505 140.173 137.667 140.764 138.136 139.877C139.12 139.543 138.541 139.404 137.977 139.239Z" fill="black"/>
<path d="M141.458 142.212C141.375 142.234 141.293 142.2 141.249 142.129C140.927 141.642 140.613 141.325 140.339 141.046C140.197 140.914 140.054 140.809 139.913 140.723C139.783 140.624 139.653 140.546 139.527 140.485C139.012 140.253 138.586 140.228 138.508 140.296C138.434 140.361 138.39 140.809 138.735 141.326C138.818 141.456 138.922 141.594 139.05 141.731C139.188 141.855 139.353 141.977 139.542 142.091C139.908 142.337 140.425 142.484 141.018 142.539C141.101 142.549 141.176 142.599 141.214 142.67C141.485 143.214 141.874 143.725 141.899 142.701C142.614 141.996 142.058 142.071 141.458 142.212Z" fill="black"/>
<path d="M145.939 143.386C145.872 143.434 145.782 143.439 145.711 143.4C145.209 143.11 144.787 142.906 144.407 142.808C144.035 142.676 143.705 142.64 143.417 142.654C142.862 142.63 142.459 142.822 142.42 142.918C142.384 143.008 142.56 143.4 143.087 143.751C143.356 143.899 143.714 144.028 144.15 144.089C144.591 144.115 145.112 144.081 145.675 143.866C145.754 143.834 145.844 143.847 145.908 143.902C146.379 144.301 146.937 144.626 146.545 143.672C146.915 142.752 146.428 143.029 145.939 143.386Z" fill="black"/>
<path d="M149.238 141.192C149.19 141.259 149.105 141.293 149.024 141.28C148.438 141.149 147.977 141.114 147.574 141.09C147.176 141.095 146.841 141.127 146.56 141.2C146.002 141.365 145.655 141.593 145.642 141.71C145.636 141.758 145.702 141.869 145.848 141.995C145.994 142.126 146.22 142.266 146.533 142.343C146.843 142.431 147.239 142.483 147.694 142.391C148.147 142.328 148.656 142.101 149.143 141.733C149.21 141.676 149.302 141.658 149.384 141.689C149.992 141.928 150.645 141.97 149.922 141.25C149.923 140.233 149.594 140.716 149.238 141.192Z" fill="black"/>
<path d="M153.207 138.709C153.204 138.791 153.146 138.86 153.068 138.889C151.978 139.326 151.362 139.703 150.97 140.131C150.575 140.53 150.424 140.947 150.461 141.033C150.505 141.13 150.924 141.282 151.564 141.116C151.88 141.034 152.23 140.839 152.579 140.543C152.743 140.381 152.905 140.192 153.057 139.976C153.207 139.759 153.318 139.486 153.421 139.204C153.449 139.123 153.522 139.064 153.607 139.046C154.218 138.896 154.828 138.615 153.802 138.383C153.258 137.543 153.207 138.094 153.207 138.709Z" fill="black"/>
<path d="M155.291 134.522C155.328 134.597 155.321 134.687 155.268 134.75C154.864 135.196 154.626 135.592 154.422 135.937C154.249 136.293 154.127 136.6 154.072 136.88C153.973 137.441 154.035 137.849 154.134 137.913C154.203 137.96 154.682 137.888 155.107 137.409C155.552 136.955 155.942 136.06 155.732 134.863C155.715 134.78 155.74 134.691 155.805 134.636C156.283 134.23 156.698 133.724 155.675 133.963C154.805 133.448 155.009 133.976 155.291 134.522Z" fill="black"/>
<path d="M155.348 129.847C155.414 129.898 155.452 129.981 155.424 130.062C155.339 130.347 155.281 130.602 155.249 130.836C155.211 131.069 155.169 131.285 155.165 131.482C155.164 131.875 155.168 132.209 155.249 132.487C155.395 133.041 155.641 133.384 155.756 133.398C155.843 133.409 156.231 133.142 156.416 132.538C156.606 131.95 156.618 130.972 155.892 129.971C155.848 129.9 155.826 129.811 155.862 129.733C156.115 129.16 156.25 128.516 155.446 129.181C154.433 129.105 154.856 129.476 155.348 129.847Z" fill="black"/>
<path d="M153.098 125.786C153.18 125.796 153.249 125.854 153.275 125.932C153.616 127.038 153.99 127.647 154.373 128.078C154.775 128.484 155.148 128.679 155.255 128.641C155.34 128.611 155.565 128.197 155.421 127.572C155.316 126.952 154.782 126.082 153.621 125.61C153.54 125.578 153.481 125.506 153.47 125.42C153.383 124.788 153.103 124.206 152.812 125.179C151.908 125.67 152.496 125.72 153.098 125.786Z" fill="black"/>
<path d="M148.955 123.561C149.032 123.522 149.123 123.533 149.185 123.592C150.086 124.348 150.73 124.696 151.306 124.822C151.854 124.967 152.293 124.905 152.36 124.818C152.417 124.746 152.354 124.302 151.899 123.836C151.445 123.4 150.547 122.931 149.308 123.14C149.223 123.149 149.135 123.121 149.078 123.059C148.667 122.59 148.147 122.179 148.388 123.183C147.861 124.033 148.395 123.835 148.955 123.561Z" fill="black"/>
<path d="M144.215 123.612C144.263 123.544 144.348 123.511 144.429 123.524C145.015 123.654 145.475 123.692 145.878 123.715C146.276 123.707 146.61 123.685 146.89 123.607C147.448 123.452 147.797 123.216 147.811 123.102C147.823 123.019 147.549 122.632 146.923 122.464C146.316 122.275 145.296 122.313 144.31 123.071C144.243 123.128 144.151 123.146 144.069 123.116C143.461 122.879 142.806 122.836 143.531 123.554C143.533 124.571 143.86 124.091 144.215 123.612Z" fill="black"/>
<path d="M140.253 126.105C140.256 126.024 140.314 125.955 140.392 125.925C141.481 125.486 142.096 125.106 142.487 124.678C142.687 124.481 142.819 124.275 142.9 124.105C142.983 123.942 143.016 123.823 142.993 123.775C142.949 123.678 142.529 123.524 141.89 123.694C141.573 123.776 141.225 123.974 140.876 124.27C140.713 124.432 140.551 124.622 140.4 124.838C140.251 125.055 140.141 125.329 140.038 125.611C140.011 125.691 139.938 125.751 139.853 125.769C139.242 125.921 138.632 126.202 139.659 126.433C140.204 127.272 140.254 126.72 140.253 126.105Z" fill="black"/>
<path d="M138.172 130.295C138.135 130.22 138.142 130.13 138.195 130.066C138.599 129.621 138.837 129.225 139.041 128.879C139.215 128.523 139.336 128.216 139.39 127.936C139.489 127.375 139.427 126.967 139.328 126.903C139.258 126.856 138.779 126.928 138.355 127.407C137.911 127.862 137.52 128.757 137.732 129.954C137.748 130.037 137.724 130.126 137.658 130.18C137.181 130.587 136.765 131.093 137.789 130.853C138.658 131.368 138.454 130.84 138.172 130.295Z" fill="black"/>
<path d="M138.114 134.971C138.048 134.919 138.01 134.836 138.038 134.755C138.124 134.47 138.181 134.215 138.214 133.982C138.252 133.748 138.293 133.532 138.298 133.335C138.3 132.942 138.295 132.608 138.214 132.33C138.068 131.776 137.823 131.433 137.708 131.419C137.621 131.408 137.232 131.675 137.048 132.279C136.857 132.867 136.845 133.844 137.57 134.846C137.614 134.917 137.635 135.006 137.599 135.084C137.345 135.657 137.21 136.3 138.015 135.636C139.028 135.714 138.606 135.342 138.114 134.971Z" fill="black"/>
<path d="M140.355 139.037C140.272 139.027 140.204 138.969 140.178 138.89C139.84 137.784 139.469 137.174 139.085 136.742C138.685 136.334 138.312 136.139 138.205 136.176C138.12 136.206 137.894 136.62 138.037 137.245C138.14 137.865 138.671 138.736 139.831 139.211C139.912 139.243 139.97 139.316 139.981 139.402C140.068 140.033 140.345 140.619 140.639 139.645C141.543 139.157 140.958 139.103 140.355 139.037Z" fill="black"/>
<path d="M144.496 141.257C144.42 141.293 144.327 141.288 144.264 141.231C143.365 140.469 142.717 140.136 142.145 140.004C141.595 139.861 141.158 139.919 141.091 140.006C141.035 140.077 141.094 140.525 141.551 140.989C142.002 141.431 142.908 141.887 144.143 141.684C144.229 141.673 144.319 141.694 144.375 141.76C144.789 142.23 145.313 142.641 145.063 141.635C145.583 140.785 145.053 140.983 144.496 141.257Z" fill="black"/>
<path d="M117.395 122.653C117.63 121.422 116.413 120.099 115.065 120.698C115.022 120.71 114.967 120.761 115.02 120.802C116.053 121.418 116.51 122.849 116.053 124.045C116.045 124.078 116.056 124.093 116.074 124.101C116.081 124.119 116.095 124.131 116.123 124.122C117.205 123.617 118.499 124.12 119.057 125.264C119.097 125.324 119.138 125.26 119.151 125.214C119.688 123.725 118.507 122.394 117.395 122.653Z" fill="black"/>
<path d="M122.635 115.659C122.869 114.428 121.653 113.105 120.304 113.704C120.261 113.716 120.206 113.767 120.259 113.808C121.293 114.424 121.749 115.855 121.293 117.051C121.285 117.084 121.296 117.099 121.314 117.106C121.321 117.124 121.335 117.137 121.362 117.128C122.444 116.623 123.739 117.126 124.296 118.27C124.336 118.33 124.377 118.266 124.39 118.22C124.927 116.731 123.747 115.4 122.635 115.659Z" fill="black"/>
<path d="M132.892 114.104C133.126 112.873 131.91 111.55 130.561 112.149C130.519 112.161 130.463 112.212 130.516 112.253C131.55 112.869 132.006 114.299 131.55 115.496C131.542 115.529 131.553 115.544 131.571 115.551C131.578 115.569 131.592 115.582 131.62 115.573C132.701 115.068 133.996 115.571 134.553 116.714C134.593 116.774 134.634 116.71 134.648 116.664C135.184 115.176 134.004 113.845 132.892 114.104Z" fill="black"/>
<path d="M112.554 128.195C112.788 126.964 111.572 125.641 110.224 126.24C110.181 126.252 110.126 126.303 110.178 126.344C111.212 126.96 111.668 128.391 111.212 129.587C111.204 129.62 111.215 129.635 111.233 129.643C111.24 129.661 111.254 129.673 111.282 129.664C112.364 129.159 113.658 129.662 114.215 130.806C114.255 130.866 114.296 130.802 114.31 130.756C114.847 129.267 113.666 127.936 112.554 128.195Z" fill="black"/>
<path d="M107.397 137.284C107.632 136.054 106.415 134.73 105.067 135.329C105.024 135.341 104.969 135.393 105.022 135.433C106.055 136.05 106.512 137.48 106.055 138.676C106.047 138.709 106.058 138.725 106.076 138.732C106.083 138.75 106.097 138.762 106.125 138.754C107.207 138.249 108.501 138.752 109.059 139.895C109.099 139.955 109.14 139.891 109.153 139.845C109.69 138.356 108.509 137.026 107.397 137.284Z" fill="black"/>
<path d="M124.003 148.507C124.237 147.277 123.021 145.954 121.673 146.553C121.63 146.565 121.575 146.616 121.627 146.657C122.661 147.273 123.117 148.703 122.661 149.899C122.653 149.932 122.664 149.948 122.682 149.955C122.689 149.973 122.703 149.985 122.731 149.977C123.813 149.472 125.107 149.975 125.664 151.118C125.704 151.178 125.745 151.114 125.759 151.068C126.296 149.58 125.115 148.249 124.003 148.507Z" fill="black"/>
<path d="M121.682 122.653C121.916 121.422 120.7 120.099 119.352 120.698C119.309 120.71 119.253 120.761 119.306 120.802C120.34 121.418 120.796 122.849 120.34 124.045C120.332 124.078 120.343 124.093 120.361 124.101C120.368 124.119 120.382 124.131 120.41 124.122C121.492 123.617 122.786 124.12 123.343 125.264C123.383 125.324 123.424 125.26 123.438 125.214C123.974 123.725 122.794 122.394 121.682 122.653Z" fill="black"/>
<path d="M125.969 122.653C126.203 121.422 124.987 120.099 123.638 120.698C123.595 120.71 123.54 120.761 123.593 120.802C124.626 121.418 125.083 122.849 124.626 124.045C124.618 124.078 124.63 124.093 124.647 124.101C124.655 124.119 124.669 124.131 124.696 124.122C125.778 123.617 127.072 124.12 127.63 125.264C127.67 125.324 127.711 125.26 127.724 125.214C128.261 123.725 127.08 122.394 125.969 122.653Z" fill="black"/>
<path d="M130.256 122.653C130.49 121.422 129.274 120.099 127.925 120.698C127.882 120.71 127.827 120.761 127.879 120.802C128.913 121.418 129.37 122.849 128.913 124.045C128.905 124.078 128.917 124.093 128.934 124.101C128.942 124.119 128.955 124.131 128.983 124.122C130.065 123.617 131.359 124.12 131.917 125.264C131.957 125.324 131.998 125.26 132.011 125.214C132.548 123.725 131.367 122.394 130.256 122.653Z" fill="black"/>
<path d="M117.31 141.957C117.554 140.726 116.289 139.403 114.888 140.002C114.843 140.014 114.786 140.065 114.841 140.106C115.915 140.722 116.389 142.152 115.915 143.349C115.907 143.382 115.918 143.397 115.937 143.404C115.944 143.423 115.959 143.435 115.987 143.426C117.112 142.921 118.457 143.424 119.036 144.567C119.078 144.628 119.12 144.563 119.134 144.517C119.692 143.029 118.466 141.698 117.31 141.957Z" fill="black"/>
<path d="M121.765 141.957C122.009 140.726 120.744 139.403 119.343 140.002C119.298 140.014 119.241 140.065 119.296 140.106C120.37 140.722 120.844 142.152 120.37 143.349C120.361 143.382 120.374 143.397 120.392 143.404C120.4 143.423 120.414 143.435 120.442 143.426C121.567 142.921 122.912 143.424 123.491 144.567C123.533 144.628 123.576 144.563 123.589 144.517C124.147 143.029 122.92 141.698 121.765 141.957Z" fill="black"/>
<path d="M126.22 141.957C126.464 140.726 125.199 139.403 123.798 140.002C123.753 140.014 123.696 140.065 123.75 140.106C124.825 140.722 125.299 142.152 124.825 143.349C124.816 143.382 124.828 143.397 124.847 143.404C124.854 143.423 124.869 143.435 124.897 143.426C126.022 142.921 127.367 143.424 127.946 144.567C127.988 144.628 128.03 144.563 128.044 144.517C128.602 143.029 127.376 141.698 126.22 141.957Z" fill="black"/>
<path d="M130.675 141.957C130.918 140.726 129.654 139.403 128.253 140.002C128.208 140.014 128.151 140.065 128.206 140.106C129.28 140.722 129.754 142.152 129.28 143.349C129.271 143.382 129.283 143.397 129.302 143.404C129.31 143.423 129.324 143.435 129.352 143.426C130.477 142.921 131.822 143.424 132.401 144.567C132.443 144.628 132.486 144.563 132.499 144.517C133.057 143.029 131.83 141.698 130.675 141.957Z" fill="black"/>
<path d="M118.794 137.303C119.096 136.148 117.871 134.947 116.421 135.543C116.375 135.555 116.314 135.605 116.368 135.641C117.432 136.188 117.85 137.51 117.314 138.639C117.304 138.67 117.316 138.684 117.334 138.691C117.341 138.707 117.355 138.718 117.384 138.709C118.549 138.209 119.893 138.642 120.43 139.694C120.47 139.749 120.516 139.688 120.532 139.644C121.166 138.24 119.979 137.031 118.794 137.303Z" fill="black"/>
<path d="M121.404 134.852C121.706 133.697 120.482 132.495 119.031 133.092C118.985 133.104 118.925 133.153 118.979 133.19C120.042 133.737 120.46 135.059 119.925 136.188C119.915 136.219 119.926 136.233 119.945 136.239C119.951 136.256 119.966 136.267 119.995 136.258C121.16 135.757 122.503 136.191 123.041 137.242C123.08 137.297 123.127 137.237 123.143 137.193C123.776 135.789 122.59 134.58 121.404 134.852Z" fill="black"/>
<path d="M124.015 132.401C124.317 131.246 123.092 130.045 121.642 130.641C121.596 130.653 121.536 130.703 121.59 130.739C122.653 131.286 123.071 132.608 122.535 133.737C122.526 133.768 122.537 133.783 122.555 133.788C122.562 133.805 122.576 133.816 122.605 133.807C123.77 133.307 125.114 133.741 125.651 134.792C125.691 134.847 125.737 134.786 125.753 134.742C126.387 133.338 125.2 132.129 124.015 132.401Z" fill="black"/>
<path d="M126.626 129.951C126.928 128.795 125.703 127.594 124.252 128.19C124.207 128.203 124.146 128.252 124.2 128.289C125.264 128.835 125.681 130.157 125.146 131.287C125.136 131.318 125.147 131.332 125.166 131.338C125.173 131.355 125.187 131.366 125.216 131.357C126.381 130.856 127.725 131.29 128.262 132.341C128.301 132.396 128.348 132.335 128.364 132.292C128.998 130.888 127.811 129.679 126.626 129.951Z" fill="black"/>
<path d="M129.236 127.5C129.539 126.345 128.314 125.144 126.863 125.739C126.817 125.752 126.757 125.801 126.811 125.838C127.874 126.385 128.292 127.707 127.757 128.836C127.747 128.867 127.758 128.881 127.777 128.887C127.784 128.904 127.798 128.915 127.827 128.906C128.991 128.405 130.336 128.839 130.873 129.89C130.913 129.945 130.959 129.884 130.975 129.841C131.608 128.437 130.422 127.228 129.236 127.5Z" fill="black"/>
<path d="M107.431 148.214H116.052C119.971 148.214 122.648 150.805 122.648 154.068C122.648 156.18 121.505 157.971 119.84 158.803V158.994C121.799 159.986 123.073 162.13 123.073 164.401C123.073 167.92 120.036 170.607 115.987 170.607H107.431V148.214ZM115.791 157.747C117.848 157.747 119.35 156.339 119.35 154.388C119.35 152.437 117.848 151.061 115.791 151.061H110.663V157.747H115.791ZM116.084 167.759C118.077 167.759 119.775 166.128 119.775 164.177C119.775 162.225 118.077 160.562 116.084 160.562H110.663V167.759H116.084Z" fill="black"/>
<path d="M127.871 148.214H136.493C140.411 148.214 143.253 150.997 143.253 154.708C143.253 157.683 141.457 159.922 138.518 160.786L144.069 170.607H140.445L135.252 161.362H131.104V170.607H127.871V148.214ZM136.166 158.515C138.289 158.515 139.954 156.851 139.954 154.772C139.954 152.724 138.289 151.061 136.166 151.061H131.104V158.515H136.166Z" fill="black"/>
<path d="M148.672 148.214H151.97L163.465 165.104H163.661V148.214H166.796V170.607H163.497L151.97 153.716H151.774V170.607H148.672V148.214Z" fill="black"/>
<path d="M171.985 159.41C171.985 152.693 176.884 147.862 183.644 147.862C190.403 147.862 195.302 152.693 195.302 159.41C195.302 166.128 190.403 170.959 183.644 170.959C176.884 170.959 171.985 166.128 171.985 159.41ZM183.644 168.047C188.542 168.047 192.004 164.497 192.004 159.41C192.004 154.324 188.542 150.773 183.644 150.773C178.712 150.773 175.284 154.324 175.284 159.41C175.284 164.497 178.712 168.047 183.644 168.047Z" fill="black"/>
<path d="M151.009 130.769C151.079 130.818 151.12 130.903 151.098 130.989C150.848 132.159 150.76 132.884 150.822 133.47C150.849 133.757 150.905 133.997 150.96 134.174C151.023 134.354 151.092 134.468 151.139 134.486C151.187 134.504 151.314 134.464 151.471 134.338C151.635 134.215 151.824 134.001 151.969 133.683C152.116 133.366 152.208 132.944 152.176 132.453C152.124 131.966 151.971 131.396 151.561 130.875C151.511 130.801 151.486 130.706 151.514 130.62C151.626 130.307 151.668 129.962 151.599 129.802C151.533 129.636 151.377 129.682 151.025 130.069C150.511 130.079 150.385 130.195 150.441 130.312C150.501 130.431 150.756 130.583 151.009 130.769Z" fill="black"/>
<path d="M143.151 129.362C143.143 129.275 143.199 129.199 143.278 129.163C143.83 128.904 144.25 128.73 144.609 128.579C144.962 128.422 145.246 128.272 145.489 128.121C145.73 127.97 145.926 127.819 146.065 127.692C146.202 127.556 146.278 127.451 146.274 127.4C146.269 127.351 146.178 127.251 145.993 127.17C145.809 127.08 145.528 127.004 145.164 127.022C144.803 127.04 144.356 127.159 143.925 127.458C143.491 127.745 143.094 128.24 142.907 128.868C142.879 128.956 142.806 129.026 142.724 129.059C142.568 129.116 142.408 129.186 142.276 129.262C142.153 129.342 142.056 129.427 142.011 129.502C141.92 129.657 142.054 129.747 142.58 129.778C142.908 130.169 143.08 130.193 143.137 130.078C143.167 130.018 143.172 129.917 143.165 129.789C143.167 129.667 143.16 129.519 143.151 129.362Z" fill="black"/>
<path d="M145.928 137.113C145.853 137.152 145.755 137.155 145.688 137.096C145.196 136.739 144.853 136.432 144.547 136.199C144.237 135.972 143.983 135.781 143.727 135.649C143.245 135.364 142.818 135.231 142.719 135.289C142.644 135.33 142.518 135.798 142.877 136.432C143.066 136.731 143.37 137.08 143.845 137.31C144.309 137.545 144.929 137.683 145.588 137.554C145.679 137.544 145.778 137.559 145.845 137.623C146.086 137.86 146.385 138.041 146.562 138.053C146.742 138.066 146.767 137.908 146.564 137.43C146.778 136.972 146.725 136.81 146.593 136.809C146.456 136.808 146.206 136.972 145.928 137.113Z" fill="black"/>
<path d="M150.786 145.046C150.738 145.119 150.647 145.143 150.562 145.128C149.362 144.923 148.569 145.006 147.999 145.239C147.433 145.423 147.121 145.75 147.124 145.852C147.126 145.95 147.46 146.247 148.104 146.378C148.734 146.464 149.711 146.367 150.69 145.579C150.758 145.524 150.855 145.516 150.936 145.541C151.539 145.736 152.197 145.83 151.481 145.082C151.523 144.076 151.142 144.524 150.786 145.046Z" fill="black"/>
<path d="M159.625 134.441C159.669 134.513 159.665 134.605 159.619 134.676C159.31 135.184 159.054 135.611 158.924 136.002C158.806 136.397 158.72 136.731 158.709 137.027C158.695 137.321 158.739 137.571 158.796 137.753C158.84 137.93 158.906 138.042 158.954 138.061C159 138.079 159.13 138.045 159.298 137.941C159.454 137.832 159.642 137.65 159.819 137.381C159.993 137.113 160.173 136.761 160.22 136.31C160.276 135.863 160.293 135.336 160.092 134.742C160.066 134.659 160.087 134.567 160.149 134.505C160.372 134.279 160.585 134.028 160.604 133.875C160.617 133.721 160.456 133.677 159.971 133.836C159.502 133.601 159.339 133.63 159.338 133.771C159.331 133.912 159.465 134.174 159.625 134.441Z" fill="black"/>
<path d="M154.489 121.544C154.573 121.542 154.653 121.59 154.693 121.664C154.833 121.933 154.992 122.142 155.121 122.356C155.252 122.568 155.386 122.747 155.524 122.9C155.811 123.193 156.054 123.439 156.309 123.596C156.823 123.904 157.249 123.986 157.335 123.925C157.414 123.868 157.497 123.41 157.189 122.844C157.039 122.561 156.825 122.223 156.444 121.956C156.261 121.817 156.05 121.682 155.813 121.559C155.577 121.435 155.282 121.361 154.979 121.289C154.892 121.27 154.821 121.207 154.795 121.124C154.747 120.971 154.693 120.818 154.632 120.693C154.566 120.576 154.497 120.484 154.43 120.441C154.295 120.356 154.182 120.475 154.1 120.973C153.673 121.269 153.624 121.425 153.748 121.492C153.811 121.525 153.92 121.538 154.054 121.538C154.182 121.547 154.333 121.548 154.489 121.544Z" fill="black"/>
<path d="M145.085 119.291C145.147 119.232 145.238 119.203 145.32 119.239C145.897 119.472 146.379 119.557 146.798 119.604C147.217 119.665 147.572 119.639 147.87 119.572C148.461 119.457 148.821 119.217 148.838 119.108C148.852 119.02 148.576 118.641 147.961 118.432C147.654 118.337 147.264 118.277 146.807 118.298C146.351 118.334 145.825 118.5 145.277 118.773C145.199 118.809 145.105 118.821 145.029 118.777C144.473 118.472 143.846 118.256 144.408 119.124C144.174 120.103 144.637 119.735 145.085 119.291Z" fill="black"/>
<path d="M134.343 128.003C134.313 127.925 134.334 127.836 134.393 127.774C134.603 127.554 134.773 127.345 134.915 127.145C135.077 126.953 135.207 126.768 135.31 126.59C135.413 126.411 135.49 126.239 135.547 126.074C135.62 125.917 135.672 125.766 135.707 125.623C135.842 125.053 135.739 124.613 135.66 124.562C135.569 124.504 135.134 124.608 134.682 125.075C134.569 125.191 134.454 125.328 134.344 125.488C134.251 125.656 134.164 125.848 134.091 126.062C134.018 126.276 133.957 126.514 133.917 126.773C133.899 127.038 133.905 127.327 133.938 127.632C133.948 127.718 133.91 127.804 133.837 127.855C133.293 128.227 132.908 128.724 133.916 128.548C134.772 129.147 134.545 128.568 134.343 128.003Z" fill="black"/>
<path d="M137.121 141.681C137.038 141.666 136.97 141.602 136.947 141.521C136.866 141.23 136.759 140.991 136.674 140.758C136.591 140.523 136.497 140.32 136.395 140.142C136.178 139.795 135.983 139.51 135.77 139.302C135.332 138.896 134.92 138.738 134.829 138.779C134.735 138.822 134.572 139.25 134.753 139.865C134.837 140.174 134.982 140.542 135.296 140.881C135.446 141.054 135.623 141.229 135.829 141.397C136.037 141.563 136.306 141.698 136.588 141.83C136.668 141.866 136.724 141.942 136.732 142.029C136.752 142.354 136.829 142.663 136.945 142.77C137.059 142.882 137.195 142.788 137.381 142.318C137.861 142.116 137.942 141.972 137.835 141.882C137.724 141.794 137.42 141.744 137.121 141.681Z" fill="black"/>
<path d="M158.015 140.504C158.018 140.588 157.97 140.665 157.895 140.703C157.38 140.99 156.939 141.225 156.637 141.501C156.481 141.634 156.358 141.776 156.246 141.908C156.126 142.033 156.03 142.158 155.951 142.28C155.638 142.77 155.604 143.219 155.671 143.299C155.732 143.374 156.172 143.407 156.744 143.119C156.887 143.048 157.038 142.956 157.191 142.842C157.336 142.721 157.473 142.567 157.611 142.392C157.876 142.035 158.157 141.599 158.272 140.99C158.29 140.906 158.354 140.838 158.437 140.815C159.05 140.643 159.645 140.365 158.612 140.155C158.053 139.325 157.999 139.895 158.015 140.504Z" fill="black"/>
<path d="M157.679 121.665C157.762 121.686 157.818 121.757 157.832 121.84C157.917 122.437 158.1 122.866 158.252 123.244C158.407 123.62 158.607 123.899 158.815 124.112C159.2 124.547 159.596 124.725 159.699 124.685C159.785 124.652 159.98 124.236 159.867 123.615C159.796 123.313 159.653 122.958 159.405 122.589C159.16 122.219 158.732 121.878 158.218 121.565C158.144 121.522 158.101 121.439 158.101 121.354C158.081 120.742 157.948 120.117 157.477 121.026C156.499 121.341 157.059 121.529 157.679 121.665Z" fill="black"/>
<path d="M138.269 119.447C138.297 119.37 138.371 119.317 138.456 119.308C139.058 119.246 139.514 119.11 139.915 118.993C140.307 118.864 140.596 118.665 140.833 118.493C141.309 118.161 141.507 117.762 141.475 117.664C141.444 117.572 141.042 117.379 140.397 117.432C140.077 117.464 139.716 117.602 139.325 117.822C138.927 118.029 138.546 118.41 138.202 118.911C138.154 118.982 138.069 119.022 137.981 119.014C137.331 118.953 136.715 119.082 137.595 119.589C137.861 120.582 138.061 120.006 138.269 119.447Z" fill="black"/>
<path d="M132.536 136.207C132.47 136.154 132.441 136.068 132.46 135.987C132.572 135.418 132.672 134.933 132.65 134.525C132.633 134.118 132.549 133.781 132.467 133.503C132.28 132.95 131.948 132.647 131.843 132.648C131.744 132.65 131.439 132.968 131.302 133.579C131.222 133.885 131.223 134.261 131.328 134.688C131.436 135.115 131.595 135.602 131.992 136.083C132.045 136.151 132.057 136.242 132.021 136.319C131.757 136.887 131.587 137.508 132.421 136.878C133.43 137.003 133.02 136.591 132.536 136.207Z" fill="black"/>
<path d="M145.887 147.669C145.818 147.718 145.726 147.722 145.651 147.683C145.118 147.424 144.666 147.223 144.263 147.124C143.86 147.026 143.506 147.028 143.214 147.025C142.626 147.049 142.233 147.277 142.205 147.375C142.178 147.469 142.403 147.843 142.97 148.144C143.25 148.308 143.624 148.394 144.073 148.416C144.522 148.439 145.047 148.396 145.624 148.15C145.705 148.118 145.798 148.131 145.864 148.185C146.355 148.586 146.921 148.911 146.519 147.956C146.905 147.037 146.391 147.314 145.887 147.669Z" fill="black"/>
</g>
</svg>
