<svg width="315" height="444" viewBox="0 0 315 444" fill="none" xmlns="http://www.w3.org/2000/svg">
<rect width="315" height="444" fill="#F9F0E4"/>
<g opacity="0.25">
<path d="M176.309 219.486L176.245 219.51C176.246 219.499 176.247 219.49 176.248 219.478C176.242 219.329 176.166 219.182 176.071 219.194C175.976 219.206 175.911 219.37 175.929 219.516C175.936 219.584 175.959 219.635 175.989 219.672C175.806 219.6 175.556 219.601 175.279 219.637C175.022 219.694 174.742 219.795 174.529 219.935C174.32 220.082 174.192 220.229 174.128 220.369C174.101 220.425 174.049 220.472 173.99 220.491C173.827 220.538 173.667 220.642 173.549 220.802C173.383 221.016 173.386 221.308 173.51 221.515C173.755 221.907 174.267 221.93 174.588 221.674C174.667 221.607 174.726 221.524 174.766 221.432C174.788 221.377 174.839 221.343 174.898 221.341C175.042 221.335 175.195 221.283 175.365 221.162C175.534 221.051 175.704 220.913 175.848 220.746C175.998 220.606 176.124 220.426 176.203 220.269C176.205 220.313 176.221 220.367 176.256 220.427C176.332 220.556 176.45 220.667 176.504 220.636C176.559 220.605 176.543 220.44 176.479 220.309C176.472 220.299 176.468 220.292 176.463 220.283C176.481 220.28 176.498 220.278 176.516 220.272C176.747 220.209 176.924 220.017 176.902 219.788C176.883 219.571 176.608 219.406 176.309 219.486Z" fill="black"/>
<path d="M170.944 225.186L170.907 225.243C170.901 225.234 170.896 225.226 170.889 225.216C170.793 225.1 170.642 225.028 170.573 225.094C170.505 225.16 170.555 225.329 170.659 225.435C170.707 225.485 170.757 225.512 170.803 225.523C170.613 225.575 170.414 225.723 170.216 225.916C170.046 226.113 169.885 226.359 169.802 226.596C169.726 226.837 169.715 227.03 169.75 227.18C169.763 227.241 169.751 227.308 169.715 227.358C169.614 227.492 169.552 227.67 169.556 227.867C169.555 228.136 169.738 228.367 169.965 228.458C170.401 228.625 170.824 228.341 170.922 227.948C170.944 227.847 170.939 227.746 170.914 227.65C170.897 227.593 170.917 227.535 170.964 227.499C171.074 227.409 171.165 227.277 171.225 227.08C171.292 226.891 171.342 226.681 171.353 226.463C171.386 226.263 171.376 226.044 171.342 225.873C171.371 225.907 171.417 225.94 171.482 225.967C171.622 226.025 171.784 226.044 171.808 225.987C171.833 225.93 171.719 225.809 171.586 225.741C171.575 225.737 171.568 225.734 171.558 225.73C171.57 225.717 171.583 225.705 171.594 225.69C171.739 225.503 171.761 225.246 171.602 225.076C171.453 224.914 171.133 224.945 170.944 225.186Z" fill="black"/>
<path d="M168.579 225.465L168.532 225.514C168.528 225.503 168.524 225.495 168.52 225.483C168.45 225.351 168.316 225.25 168.236 225.301C168.156 225.352 168.169 225.527 168.248 225.652C168.285 225.71 168.329 225.746 168.371 225.767C168.175 225.779 167.949 225.885 167.715 226.034C167.507 226.193 167.298 226.402 167.167 226.617C167.043 226.838 166.992 227.025 166.996 227.178C166.995 227.24 166.969 227.304 166.924 227.346C166.797 227.457 166.699 227.619 166.662 227.812C166.605 228.075 166.736 228.338 166.939 228.473C167.332 228.724 167.805 228.529 167.982 228.164C168.024 228.07 168.041 227.97 168.037 227.871C168.032 227.811 168.064 227.759 168.117 227.733C168.244 227.667 168.36 227.556 168.46 227.375C168.565 227.204 168.658 227.008 168.714 226.797C168.788 226.607 168.824 226.392 168.826 226.217C168.847 226.256 168.885 226.298 168.943 226.337C169.068 226.422 169.223 226.473 169.259 226.422C169.295 226.371 169.208 226.229 169.093 226.137C169.083 226.131 169.076 226.126 169.067 226.12C169.082 226.11 169.097 226.101 169.111 226.088C169.292 225.934 169.367 225.687 169.247 225.489C169.134 225.301 168.814 225.267 168.579 225.465Z" fill="black"/>
<path d="M180.812 220.046L180.752 220.045C180.756 220.035 180.76 220.027 180.765 220.016C180.81 219.875 180.797 219.711 180.727 219.69C180.654 219.671 180.563 219.792 180.511 219.931C180.488 219.996 180.483 220.051 180.49 220.096C180.273 219.825 179.847 219.529 179.399 219.398C179.18 219.332 178.979 219.327 178.834 219.366C178.775 219.381 178.702 219.372 178.651 219.332C178.514 219.228 178.327 219.162 178.11 219.176C177.822 219.183 177.571 219.382 177.507 219.607C177.398 220.049 177.689 220.436 178.06 220.511C178.157 220.528 178.259 220.531 178.354 220.506C178.411 220.494 178.468 220.509 178.509 220.554C178.609 220.663 178.744 220.744 178.972 220.812C179.406 220.941 180.059 220.939 180.395 220.723C180.373 220.763 180.36 220.817 180.365 220.887C180.374 221.033 180.47 221.193 180.553 221.183C180.638 221.177 180.688 221.019 180.672 220.872C180.669 220.861 180.667 220.853 180.665 220.842L180.728 220.853C181.013 220.885 181.257 220.714 181.267 220.488C181.276 220.266 181.073 220.075 180.812 220.046Z" fill="black"/>
<path d="M184.825 219.25L184.779 219.286C184.776 219.275 184.774 219.266 184.771 219.255C184.718 219.115 184.608 218.996 184.54 219.016C184.473 219.036 184.469 219.196 184.515 219.337C184.537 219.402 184.567 219.45 184.601 219.481C184.246 219.398 183.732 219.44 183.352 219.544C183.16 219.609 183.02 219.671 182.925 219.775C182.886 219.818 182.828 219.833 182.774 219.813C182.63 219.762 182.477 219.772 182.314 219.824C182.097 219.907 181.916 220.103 181.863 220.339C181.756 220.781 182.136 221.178 182.645 221.124C182.77 221.107 182.884 221.065 182.98 221.006C183.037 220.972 183.108 220.965 183.172 220.982C183.324 221.022 183.531 221.04 183.782 220.958C184.29 220.817 184.795 220.395 184.914 220.035C184.922 220.079 184.946 220.13 184.993 220.182C185.092 220.293 185.254 220.363 185.323 220.309C185.392 220.254 185.331 220.096 185.228 219.99C185.218 219.983 185.212 219.978 185.204 219.971L185.261 219.941C185.51 219.789 185.594 219.509 185.458 219.325C185.325 219.146 185.044 219.118 184.825 219.25Z" fill="black"/>
<path d="M185.305 215.92L185.274 215.969C185.267 215.959 185.262 215.953 185.255 215.942C185.156 215.829 185.011 215.755 184.954 215.797C184.898 215.838 184.952 215.99 185.044 216.106C185.088 216.16 185.133 216.194 185.175 216.212C184.813 216.255 184.346 216.468 184.026 216.694C183.869 216.82 183.76 216.926 183.707 217.056C183.686 217.108 183.637 217.142 183.579 217.142C183.425 217.143 183.286 217.204 183.151 217.308C182.976 217.459 182.877 217.705 182.91 217.944C182.965 218.395 183.462 218.639 183.921 218.416C184.031 218.357 184.124 218.279 184.194 218.191C184.235 218.141 184.299 218.11 184.365 218.104C184.522 218.091 184.721 218.037 184.929 217.875C185.356 217.572 185.681 217.004 185.665 216.626C185.688 216.666 185.729 216.705 185.791 216.738C185.924 216.809 186.101 216.819 186.146 216.745C186.191 216.67 186.078 216.542 185.944 216.478C185.933 216.474 185.925 216.472 185.914 216.468L185.957 216.421C186.138 216.194 186.118 215.903 185.925 215.777C185.737 215.653 185.463 215.722 185.305 215.92Z" fill="black"/>
<path d="M187.894 216.376L187.865 216.426C187.858 216.417 187.852 216.41 187.845 216.401C187.739 216.297 187.585 216.23 187.531 216.278C187.478 216.325 187.543 216.474 187.645 216.583C187.693 216.633 187.741 216.664 187.785 216.678C187.428 216.751 186.966 217.014 186.672 217.311C186.511 217.466 186.426 217.614 186.391 217.754C186.376 217.81 186.334 217.856 186.277 217.873C186.124 217.918 185.988 218.016 185.885 218.16C185.749 218.361 185.727 218.628 185.833 218.846C186.028 219.26 186.571 219.34 186.93 219.025C187.016 218.946 187.08 218.853 187.122 218.755C187.146 218.698 187.199 218.655 187.261 218.641C187.411 218.606 187.57 218.515 187.743 218.348C188.091 217.999 188.354 217.428 188.307 217.052C188.334 217.089 188.377 217.125 188.442 217.153C188.58 217.213 188.756 217.211 188.793 217.134C188.831 217.058 188.713 216.94 188.572 216.885C188.56 216.882 188.552 216.88 188.542 216.877L188.583 216.829C188.739 216.587 188.702 216.3 188.503 216.188C188.304 216.078 188.031 216.162 187.894 216.376Z" fill="black"/>
<path d="M171.855 221.164L171.838 221.219C171.829 221.212 171.822 221.208 171.812 221.2C171.685 221.123 171.518 221.094 171.478 221.152C171.438 221.211 171.537 221.341 171.663 221.423C171.721 221.461 171.775 221.479 171.821 221.483C171.492 221.636 171.106 221.999 170.893 222.356C170.774 222.543 170.727 222.707 170.727 222.851C170.726 222.909 170.696 222.964 170.645 222.993C170.507 223.072 170.398 223.199 170.334 223.363C170.25 223.59 170.294 223.854 170.449 224.041C170.738 224.398 171.285 224.351 171.557 223.962C171.622 223.865 171.662 223.76 171.679 223.655C171.689 223.593 171.73 223.539 171.787 223.512C171.924 223.443 172.057 223.317 172.184 223.116C172.438 222.695 172.556 222.08 172.419 221.725C172.454 221.755 172.505 221.78 172.575 221.792C172.723 221.818 172.893 221.776 172.911 221.693C172.929 221.609 172.787 221.523 172.636 221.502C172.624 221.501 172.616 221.501 172.604 221.501L172.633 221.444C172.726 221.173 172.621 220.903 172.401 220.841C172.181 220.779 171.936 220.924 171.855 221.164Z" fill="black"/>
<path d="M189.199 212.491L189.202 212.548C189.191 212.545 189.183 212.541 189.172 212.537C189.025 212.5 188.86 212.519 188.84 212.588C188.819 212.655 188.951 212.752 189.096 212.794C189.163 212.814 189.22 212.816 189.265 212.806C188.997 213.048 188.74 213.512 188.641 213.907C188.587 214.108 188.593 214.27 188.627 214.402C188.642 214.456 188.629 214.515 188.588 214.555C188.483 214.662 188.396 214.795 188.379 214.967C188.351 215.198 188.443 215.443 188.639 215.6C188.987 215.893 189.53 215.744 189.705 215.284C189.752 215.172 189.769 215.057 189.756 214.947C189.75 214.882 189.776 214.818 189.825 214.775C189.946 214.671 190.039 214.504 190.103 214.262C190.224 213.783 190.147 213.165 189.909 212.865C189.952 212.884 190.008 212.893 190.078 212.885C190.228 212.867 190.379 212.779 190.372 212.694C190.363 212.61 190.198 212.568 190.049 212.591C190.038 212.594 190.03 212.596 190.019 212.599L190.027 212.537C190.044 212.253 189.859 212.024 189.628 212.026C189.401 212.027 189.214 212.236 189.199 212.491Z" fill="black"/>
<path d="M191.96 199.935L191.911 199.967C191.909 199.956 191.907 199.948 191.905 199.936C191.861 199.794 191.758 199.666 191.688 199.686C191.618 199.703 191.603 199.864 191.642 200.006C191.66 200.073 191.688 200.121 191.719 200.154C191.369 200.056 190.831 200.083 190.434 200.206C190.231 200.267 190.093 200.356 189.995 200.453C189.956 200.494 189.898 200.513 189.842 200.5C189.695 200.468 189.532 200.465 189.373 200.54C189.158 200.638 188.992 200.843 188.957 201.087C188.884 201.531 189.296 201.907 189.789 201.814C189.91 201.794 190.02 201.749 190.109 201.68C190.162 201.642 190.232 201.63 190.295 201.648C190.448 201.695 190.643 201.686 190.887 201.614C191.368 201.464 191.866 201.078 192.004 200.723C192.009 200.768 192.031 200.82 192.075 200.874C192.168 200.991 192.324 201.07 192.394 201.02C192.463 200.969 192.413 200.809 192.316 200.697C192.307 200.689 192.301 200.684 192.293 200.676L192.352 200.65C192.608 200.516 192.711 200.243 192.589 200.05C192.469 199.862 192.19 199.814 191.96 199.935Z" fill="black"/>
<path d="M188.813 208.164V208.229C188.803 208.225 188.795 208.222 188.783 208.217C188.638 208.177 188.47 208.202 188.449 208.291C188.435 208.379 188.577 208.487 188.725 208.518C188.794 208.532 188.851 208.528 188.895 208.512C188.628 208.799 188.524 209.442 188.618 209.904C188.661 210.136 188.744 210.297 188.843 210.399C188.883 210.441 188.9 210.502 188.884 210.557C188.839 210.709 188.843 210.851 188.905 211.016C188.994 211.235 189.206 211.406 189.447 211.449C189.904 211.532 190.29 211.149 190.224 210.665C190.205 210.546 190.164 210.429 190.1 210.344C190.064 210.293 190.055 210.227 190.077 210.168C190.13 210.023 190.14 209.852 190.099 209.634C190.015 209.211 189.787 208.765 189.542 208.508C189.586 208.521 189.643 208.524 189.712 208.51C189.859 208.481 190 208.403 189.984 208.338C189.974 208.275 189.812 208.239 189.662 208.258C189.65 208.261 189.642 208.263 189.632 208.265C189.635 208.247 189.64 208.23 189.641 208.211C189.652 207.969 189.506 207.743 189.283 207.703C189.056 207.662 188.828 207.867 188.813 208.164Z" fill="black"/>
<path d="M187.228 206.369L187.207 206.432C187.199 206.425 187.192 206.419 187.182 206.411C187.057 206.33 186.889 206.304 186.841 206.382C186.8 206.461 186.902 206.606 187.033 206.68C187.094 206.715 187.15 206.727 187.196 206.726C186.853 206.918 186.552 207.5 186.498 207.967C186.467 208.201 186.495 208.379 186.557 208.506C186.582 208.559 186.58 208.621 186.548 208.669C186.457 208.8 186.416 208.936 186.424 209.113C186.439 209.348 186.588 209.574 186.805 209.686C187.213 209.903 187.701 209.653 187.79 209.174C187.808 209.054 187.806 208.931 187.772 208.831C187.753 208.771 187.766 208.705 187.804 208.656C187.9 208.534 187.963 208.374 187.992 208.155C188.044 207.727 187.967 207.233 187.814 206.916C187.852 206.941 187.905 206.96 187.975 206.969C188.124 206.985 188.283 206.952 188.288 206.886C188.298 206.823 188.155 206.739 188.006 206.713C187.994 206.713 187.986 206.712 187.975 206.711C187.984 206.695 187.994 206.68 188.001 206.662C188.087 206.435 188.019 206.177 187.819 206.071C187.616 205.964 187.335 206.091 187.228 206.369Z" fill="black"/>
<path d="M190.857 204.089L190.819 204.14C190.813 204.13 190.809 204.122 190.803 204.111C190.715 203.99 190.572 203.905 190.505 203.956C190.439 204.007 190.477 204.173 190.567 204.292C190.61 204.347 190.655 204.381 190.698 204.398C190.316 204.434 189.799 204.79 189.524 205.211C189.387 205.425 189.318 205.601 189.328 205.765C189.329 205.83 189.301 205.895 189.25 205.936C189.113 206.045 188.999 206.208 188.971 206.418C188.918 206.697 189.041 206.963 189.262 207.086C189.664 207.3 190.134 207.106 190.285 206.763C190.327 206.675 190.351 206.582 190.35 206.487C190.349 206.432 190.38 206.381 190.43 206.355C190.545 206.289 190.677 206.188 190.788 206.013C191.008 205.675 191.191 205.173 191.186 204.815C191.21 204.853 191.25 204.892 191.311 204.926C191.442 204.999 191.607 205.027 191.644 204.964C191.681 204.901 191.579 204.77 191.451 204.693C191.44 204.688 191.433 204.685 191.423 204.68L191.466 204.641C191.638 204.445 191.674 204.178 191.509 204.015C191.351 203.86 191.045 203.877 190.857 204.089Z" fill="black"/>
<path d="M193.795 200.713L193.752 200.759C193.747 200.749 193.744 200.741 193.739 200.73C193.664 200.601 193.53 200.501 193.459 200.546C193.387 200.591 193.408 200.76 193.486 200.886C193.523 200.945 193.564 200.983 193.605 201.005C193.221 201.003 192.671 201.306 192.354 201.698C192.196 201.898 192.11 202.067 192.102 202.231C192.097 202.295 192.063 202.357 192.008 202.393C191.86 202.488 191.73 202.64 191.681 202.846C191.6 203.117 191.695 203.395 191.902 203.539C192.281 203.79 192.769 203.644 192.954 203.318C193.004 203.234 193.038 203.144 193.045 203.049C193.051 202.994 193.087 202.947 193.139 202.925C193.26 202.871 193.402 202.783 193.53 202.621C193.784 202.306 194.017 201.823 194.048 201.467C194.068 201.507 194.104 201.55 194.162 201.59C194.285 201.676 194.446 201.719 194.489 201.66C194.532 201.602 194.445 201.46 194.325 201.372C194.315 201.366 194.307 201.362 194.298 201.357L194.345 201.321C194.536 201.143 194.599 200.881 194.452 200.703C194.31 200.533 194.004 200.52 193.795 200.713Z" fill="black"/>
<path d="M178.725 221.747L178.658 221.746C178.663 221.736 178.667 221.728 178.672 221.717C178.719 221.576 178.698 221.411 178.607 221.389C178.523 221.371 178.414 221.505 178.379 221.648C178.363 221.715 178.365 221.771 178.378 221.814C178.11 221.555 177.539 221.395 177.074 221.435C176.839 221.453 176.668 221.521 176.55 221.611C176.501 221.65 176.436 221.664 176.377 221.646C176.219 221.598 176.031 221.608 175.849 221.692C175.6 221.806 175.442 222.062 175.47 222.301C175.542 222.745 175.929 223.019 176.295 222.955C176.391 222.938 176.477 222.897 176.556 222.843C176.601 222.811 176.66 222.807 176.711 222.832C176.834 222.895 176.99 222.921 177.199 222.905C177.608 222.87 178.101 222.686 178.359 222.448C178.345 222.49 178.34 222.546 178.351 222.614C178.374 222.759 178.446 222.901 178.51 222.89C178.567 222.879 178.606 222.721 178.595 222.575C178.594 222.563 178.592 222.555 178.59 222.545C178.607 222.549 178.622 222.553 178.64 222.554C178.704 222.558 178.728 222.555 178.778 222.541C178.84 222.532 178.899 222.514 178.95 222.487C179.052 222.432 179.126 222.343 179.149 222.234C179.172 222.124 179.142 222.014 179.076 221.926C179.043 221.882 179.001 221.843 178.952 221.812C178.89 221.781 178.792 221.75 178.725 221.747Z" fill="black"/>
<path d="M174.225 222.959L174.184 223.011C174.178 223.001 174.174 222.993 174.168 222.983C174.083 222.861 173.936 222.777 173.863 222.835C173.798 222.889 173.84 223.055 173.935 223.169C173.98 223.222 174.027 223.254 174.07 223.27C173.697 223.322 173.221 223.67 172.972 224.056C172.844 224.25 172.796 224.425 172.798 224.572C172.8 224.633 172.772 224.692 172.722 224.728C172.586 224.822 172.481 224.974 172.439 225.167C172.381 225.429 172.493 225.708 172.705 225.831C173.109 226.043 173.565 225.908 173.736 225.584C173.78 225.499 173.799 225.407 173.803 225.313C173.804 225.258 173.837 225.21 173.887 225.186C174.014 225.127 174.129 225.021 174.243 224.849C174.462 224.509 174.611 224.014 174.573 223.669C174.599 223.706 174.642 223.743 174.703 223.776C174.836 223.846 174.995 223.876 175.024 223.819C175.05 223.768 174.945 223.642 174.819 223.562C174.809 223.556 174.802 223.553 174.792 223.548C174.805 223.537 174.818 223.527 174.83 223.515C174.872 223.467 174.884 223.447 174.902 223.399C174.933 223.345 174.953 223.289 174.962 223.232C174.98 223.119 174.953 223.009 174.878 222.924C174.802 222.839 174.695 222.796 174.583 222.795C174.527 222.793 174.47 222.802 174.415 222.822C174.353 222.851 174.268 222.909 174.225 222.959Z" fill="black"/>
<path d="M182.829 221.968C182.81 221.971 182.792 221.976 182.774 221.982C182.776 221.971 182.777 221.962 182.779 221.95C182.786 221.802 182.735 221.647 182.665 221.643C182.596 221.638 182.53 221.781 182.518 221.928C182.513 221.996 182.522 222.051 182.54 222.093C182.256 221.877 181.757 221.737 181.352 221.733C181.145 221.726 180.991 221.768 180.872 221.841C180.823 221.873 180.764 221.87 180.716 221.841C180.588 221.76 180.435 221.724 180.266 221.755C180.037 221.788 179.828 221.95 179.735 222.177C179.56 222.592 179.841 223.047 180.303 223.088C180.417 223.098 180.528 223.082 180.626 223.047C180.684 223.025 180.75 223.038 180.801 223.07C180.926 223.15 181.101 223.201 181.339 223.208C181.812 223.213 182.374 223.003 182.612 222.722C182.603 222.766 182.606 222.822 182.627 222.888C182.674 223.028 182.787 223.158 182.865 223.133C182.943 223.107 182.95 222.941 182.9 222.803C182.895 222.792 182.891 222.785 182.886 222.775L182.947 222.771C183.218 222.728 183.402 222.514 183.356 222.295C183.311 222.075 183.075 221.928 182.829 221.968Z" fill="black"/>
<path d="M169.058 221.822C169.05 221.84 169.046 221.858 169.041 221.875C169.032 221.868 169.025 221.862 169.016 221.854C168.893 221.769 168.731 221.727 168.691 221.782C168.649 221.836 168.736 221.968 168.856 222.057C168.912 222.098 168.964 222.12 169.01 222.128C168.671 222.245 168.281 222.581 168.059 222.913C167.942 223.079 167.894 223.229 167.893 223.367C167.893 223.424 167.859 223.471 167.808 223.495C167.67 223.557 167.557 223.664 167.491 223.82C167.395 224.026 167.423 224.286 167.568 224.484C167.83 224.853 168.373 224.868 168.658 224.508C168.728 224.42 168.774 224.321 168.797 224.22C168.809 224.16 168.856 224.114 168.911 224.088C169.047 224.029 169.186 223.912 169.32 223.719C169.58 223.334 169.702 222.756 169.59 222.408C169.623 222.44 169.672 222.468 169.74 222.485C169.886 222.523 170.059 222.5 170.08 222.422C170.099 222.344 169.961 222.248 169.814 222.215C169.803 222.214 169.795 222.213 169.784 222.211L169.813 222.159C169.922 221.912 169.838 221.646 169.624 221.565C169.411 221.483 169.157 221.599 169.058 221.822Z" fill="black"/>
<path d="M186.601 220.585C186.585 220.595 186.571 220.607 186.556 220.619C186.553 220.608 186.551 220.6 186.548 220.588C186.492 220.451 186.38 220.33 186.314 220.354C186.249 220.377 186.251 220.54 186.303 220.679C186.327 220.744 186.359 220.79 186.393 220.82C186.039 220.731 185.529 220.815 185.158 220.969C184.974 221.059 184.845 221.144 184.767 221.258C184.735 221.303 184.682 221.329 184.627 221.322C184.481 221.308 184.326 221.33 184.183 221.418C183.99 221.541 183.868 221.779 183.873 222.016C183.879 222.473 184.32 222.769 184.767 222.628C184.879 222.598 184.972 222.535 185.047 222.46C185.091 222.415 185.154 222.397 185.216 222.408C185.364 222.431 185.552 222.422 185.768 222.318C186.204 222.136 186.622 221.708 186.724 221.364C186.735 221.409 186.761 221.459 186.808 221.509C186.909 221.617 187.064 221.685 187.124 221.631C187.184 221.576 187.121 221.423 187.017 221.317C187.008 221.309 187.001 221.304 186.993 221.297L187.047 221.27C187.28 221.128 187.355 220.857 187.22 220.672C187.089 220.492 186.814 220.456 186.601 220.585Z" fill="black"/>
<path d="M189.565 217.871C189.554 217.886 189.546 217.902 189.537 217.919C189.53 217.909 189.525 217.903 189.517 217.893C189.414 217.785 189.265 217.712 189.213 217.758C189.164 217.805 189.22 217.951 189.319 218.062C189.366 218.113 189.413 218.145 189.455 218.162C189.275 218.182 189.072 218.26 188.884 218.369C188.687 218.472 188.5 218.603 188.362 218.751C188.216 218.896 188.132 219.03 188.104 219.165C188.091 219.22 188.052 219.264 187.998 219.28C187.856 219.323 187.719 219.402 187.622 219.541C187.49 219.728 187.477 219.998 187.58 220.214C187.774 220.629 188.293 220.723 188.645 220.429C188.734 220.359 188.795 220.268 188.833 220.171C188.856 220.113 188.906 220.072 188.967 220.06C189.112 220.028 189.275 219.946 189.44 219.78C189.599 219.612 189.745 219.398 189.843 219.18C189.933 218.954 189.981 218.73 189.966 218.551C189.992 218.588 190.034 218.625 190.098 218.656C190.232 218.721 190.409 218.734 190.441 218.66C190.476 218.587 190.361 218.466 190.224 218.405C190.213 218.401 190.205 218.399 190.195 218.395L190.234 218.35C190.393 218.131 190.366 217.854 190.175 217.732C189.983 217.609 189.71 217.671 189.565 217.871Z" fill="black"/>
<path d="M191.222 214.273C191.217 214.291 191.216 214.309 191.214 214.328C191.204 214.322 191.196 214.318 191.186 214.312C191.048 214.255 190.88 214.248 190.849 214.309C190.819 214.371 190.937 214.483 191.074 214.544C191.138 214.573 191.194 214.584 191.239 214.581C190.938 214.768 190.63 215.178 190.481 215.544C190.412 215.734 190.392 215.887 190.415 216.02C190.426 216.074 190.406 216.128 190.362 216.162C190.247 216.252 190.158 216.378 190.119 216.539C190.07 216.759 190.159 217.012 190.335 217.176C190.671 217.492 191.194 217.393 191.409 216.985C191.465 216.887 191.481 216.775 191.482 216.672C191.482 216.61 191.513 216.553 191.564 216.518C191.69 216.434 191.807 216.293 191.888 216.072C192.063 215.64 192.057 215.049 191.868 214.733C191.907 214.757 191.961 214.774 192.031 214.777C192.182 214.783 192.342 214.723 192.346 214.643C192.35 214.564 192.196 214.499 192.045 214.498C192.033 214.498 192.024 214.499 192.013 214.5L192.033 214.443C192.089 214.18 191.939 213.937 191.714 213.902C191.486 213.866 191.273 214.034 191.222 214.273Z" fill="black"/>
<path d="M191.288 210.304C191.29 210.323 191.296 210.34 191.301 210.358C191.29 210.356 191.281 210.355 191.269 210.354C191.119 210.35 190.96 210.404 190.956 210.473C190.951 210.543 191.104 210.605 191.254 210.612C191.324 210.615 191.38 210.605 191.422 210.585C191.212 210.87 191.086 211.371 191.099 211.77C191.113 211.973 191.151 212.123 191.23 212.236C191.262 212.282 191.268 212.341 191.241 212.389C191.174 212.518 191.134 212.669 191.172 212.833C191.225 213.055 191.397 213.25 191.631 213.33C192.065 213.485 192.513 213.187 192.534 212.732C192.541 212.62 192.522 212.513 192.476 212.418C192.45 212.362 192.455 212.298 192.487 212.246C192.564 212.121 192.62 211.947 192.605 211.715C192.59 211.256 192.357 210.72 192.062 210.497C192.108 210.504 192.165 210.5 192.231 210.477C192.373 210.428 192.499 210.315 192.472 210.24C192.446 210.166 192.278 210.162 192.137 210.215C192.126 210.22 192.119 210.224 192.109 210.229L192.106 210.169C192.068 209.939 191.873 209.767 191.643 209.775C191.415 209.783 191.242 210.027 191.288 210.304Z" fill="black"/>
<path d="M191.729 206L191.713 206.06C191.704 206.053 191.697 206.048 191.687 206.04C191.56 205.96 191.394 205.932 191.351 206.007C191.309 206.081 191.408 206.221 191.539 206.294C191.6 206.328 191.655 206.341 191.702 206.34C191.376 206.521 191.061 207.047 190.997 207.506C190.961 207.738 190.989 207.915 191.055 208.048C191.081 208.102 191.079 208.167 191.049 208.219C190.969 208.358 190.93 208.532 190.971 208.715C191.02 208.965 191.222 209.164 191.461 209.217C191.913 209.31 192.308 208.993 192.33 208.603C192.337 208.504 192.319 208.409 192.28 208.321C192.257 208.27 192.269 208.212 192.305 208.169C192.394 208.064 192.457 207.92 192.487 207.722C192.542 207.329 192.484 206.844 192.318 206.533C192.356 206.558 192.41 206.577 192.479 206.587C192.629 206.605 192.789 206.578 192.796 206.516C192.803 206.453 192.657 206.371 192.51 206.344C192.499 206.343 192.49 206.342 192.48 206.341C192.488 206.326 192.496 206.311 192.502 206.294C192.59 206.082 192.509 205.833 192.313 205.725C192.109 205.613 191.838 205.736 191.729 206Z" fill="black"/>
<path d="M182.117 224.348L182.056 224.352C182.06 224.341 182.063 224.333 182.067 224.322C182.102 224.178 182.078 224.015 182.007 224C181.935 223.986 181.838 224.118 181.798 224.257C181.779 224.323 181.778 224.379 181.789 224.423C181.672 224.295 181.501 224.178 181.313 224.087C181.22 224.036 181.123 223.984 181.025 223.944C180.972 223.925 180.923 223.906 180.876 223.889L180.801 223.866C180.743 223.853 180.685 223.84 180.629 223.828C180.572 223.826 180.519 223.824 180.465 223.822C180.237 223.817 180.064 223.854 179.933 223.924C179.879 223.952 179.814 223.954 179.761 223.924C179.619 223.847 179.45 223.811 179.267 223.838C179.02 223.875 178.804 224.038 178.707 224.262C178.516 224.679 178.84 225.134 179.335 225.175C179.457 225.185 179.574 225.169 179.678 225.131C179.74 225.109 179.81 225.118 179.864 225.152C179.996 225.236 180.178 225.291 180.431 225.297C180.478 225.298 180.48 225.297 180.484 225.295L180.485 225.293C180.495 225.294 180.442 225.283 180.478 225.288L180.572 225.297C180.633 225.299 180.697 225.302 180.763 225.304C180.891 225.304 181.018 225.3 181.138 225.281C181.382 225.233 181.596 225.156 181.741 225.055C181.722 225.096 181.714 225.151 181.724 225.22C181.746 225.37 181.844 225.516 181.933 225.501C182.022 225.489 182.062 225.327 182.034 225.182C182.03 225.171 182.028 225.163 182.024 225.153L182.09 225.159C182.391 225.17 182.626 224.985 182.616 224.756C182.606 224.537 182.382 224.358 182.117 224.348Z" fill="black"/>
<path d="M186.34 223.404L186.287 223.436C186.286 223.425 186.284 223.416 186.283 223.404C186.246 223.26 186.147 223.128 186.074 223.147C186 223.163 185.975 223.324 186.007 223.468C186.022 223.535 186.048 223.585 186.079 223.619C185.722 223.506 185.164 223.539 184.746 223.66C184.533 223.718 184.388 223.809 184.287 223.913C184.245 223.953 184.184 223.971 184.126 223.957C183.972 223.916 183.806 223.934 183.64 224.005C183.416 224.096 183.248 224.314 183.214 224.557C183.143 225.007 183.567 225.362 184.069 225.274C184.191 225.249 184.302 225.201 184.394 225.138C184.449 225.1 184.52 225.089 184.584 225.108C184.739 225.149 184.935 225.14 185.184 225.071C185.675 224.928 186.183 224.543 186.342 224.198C186.346 224.243 186.366 224.295 186.408 224.351C186.497 224.47 186.651 224.556 186.724 224.51C186.794 224.459 186.753 224.298 186.66 224.182C186.652 224.173 186.646 224.168 186.638 224.16L186.699 224.136C186.962 224.007 187.086 223.742 186.977 223.545C186.868 223.348 186.582 223.285 186.34 223.404Z" fill="black"/>
<path d="M193.115 220.797L193.09 220.852C193.082 220.844 193.077 220.838 193.068 220.829C192.955 220.731 192.796 220.677 192.748 220.734C192.695 220.789 192.768 220.935 192.878 221.035C192.93 221.082 192.98 221.108 193.025 221.119C192.666 221.225 192.226 221.563 191.953 221.895C191.812 222.062 191.745 222.218 191.723 222.36C191.712 222.416 191.672 222.464 191.617 222.485C191.466 222.538 191.34 222.644 191.245 222.796C191.113 222.995 191.102 223.269 191.215 223.487C191.418 223.896 191.973 223.952 192.335 223.6C192.421 223.512 192.485 223.41 192.524 223.306C192.546 223.245 192.599 223.197 192.663 223.176C192.813 223.124 192.969 223.007 193.134 222.811C193.455 222.421 193.649 221.821 193.578 221.448C193.608 221.483 193.654 221.516 193.721 221.538C193.864 221.586 194.041 221.571 194.073 221.492C194.102 221.411 193.974 221.302 193.83 221.258C193.819 221.256 193.811 221.254 193.8 221.252L193.835 221.199C193.977 220.946 193.925 220.658 193.721 220.558C193.516 220.457 193.245 220.564 193.115 220.797Z" fill="black"/>
<path d="M189.95 220.901L189.909 220.947C189.905 220.937 189.901 220.929 189.895 220.918C189.815 220.793 189.679 220.697 189.614 220.738C189.55 220.781 189.577 220.944 189.654 221.07C189.689 221.129 189.731 221.168 189.771 221.19C189.392 221.192 188.867 221.414 188.512 221.683C188.334 221.824 188.22 221.951 188.166 222.087C188.143 222.142 188.094 222.184 188.034 222.194C187.878 222.226 187.719 222.293 187.593 222.428C187.424 222.613 187.359 222.88 187.43 223.109C187.562 223.548 188.093 223.699 188.503 223.429C188.607 223.365 188.688 223.281 188.743 223.185C188.777 223.129 188.836 223.092 188.901 223.085C189.056 223.067 189.241 223.002 189.437 222.847C189.832 222.549 190.168 222.029 190.209 221.656C190.228 221.698 190.263 221.741 190.321 221.781C190.446 221.867 190.617 221.901 190.666 221.833C190.716 221.765 190.626 221.625 190.501 221.542C190.491 221.537 190.483 221.533 190.473 221.528L190.523 221.488C190.732 221.289 190.768 221.002 190.604 220.845C190.441 220.688 190.147 220.714 189.95 220.901Z" fill="black"/>
<path d="M192.597 217.469L192.577 217.525C192.568 217.518 192.562 217.512 192.553 217.504C192.432 217.415 192.269 217.374 192.226 217.433C192.183 217.492 192.269 217.632 192.385 217.723C192.439 217.766 192.492 217.788 192.538 217.796C192.183 217.924 191.777 218.287 191.52 218.635C191.393 218.815 191.335 218.975 191.316 219.116C191.311 219.174 191.275 219.227 191.221 219.253C191.079 219.323 190.955 219.439 190.868 219.6C190.756 219.821 190.774 220.099 190.908 220.299C191.164 220.682 191.712 220.676 192.032 220.308C192.111 220.217 192.161 220.109 192.19 220.004C192.207 219.941 192.254 219.889 192.314 219.864C192.464 219.807 192.612 219.682 192.758 219.475C193.056 219.071 193.208 218.45 193.114 218.084C193.146 218.116 193.194 218.146 193.263 218.163C193.411 218.201 193.586 218.171 193.608 218.087C193.631 218.003 193.496 217.904 193.348 217.872C193.336 217.87 193.328 217.87 193.317 217.868L193.349 217.812C193.479 217.549 193.391 217.262 193.177 217.18C192.965 217.1 192.715 217.233 192.597 217.469Z" fill="black"/>
<path d="M193.585 213.273L193.586 213.334C193.576 213.33 193.568 213.326 193.556 213.322C193.411 213.28 193.244 213.299 193.222 213.373C193.2 213.447 193.332 213.551 193.477 213.595C193.544 213.615 193.601 213.616 193.646 213.606C193.368 213.858 193.138 214.376 193.059 214.806C193.025 215.027 193.036 215.195 193.086 215.33C193.106 215.385 193.098 215.448 193.062 215.495C192.967 215.62 192.896 215.771 192.896 215.952C192.9 216.198 193.018 216.433 193.232 216.564C193.62 216.81 194.135 216.581 194.255 216.104C194.288 215.986 194.291 215.87 194.267 215.761C194.254 215.698 194.272 215.631 194.316 215.583C194.422 215.466 194.507 215.293 194.545 215.049C194.633 214.566 194.518 213.965 194.291 213.663C194.333 213.682 194.389 213.691 194.459 213.682C194.609 213.664 194.759 213.578 194.752 213.496C194.746 213.413 194.583 213.369 194.433 213.389C194.422 213.392 194.413 213.394 194.403 213.397C194.407 213.376 194.411 213.356 194.412 213.335C194.431 213.054 194.261 212.815 194.032 212.803C193.804 212.791 193.604 213.001 193.585 213.273Z" fill="black"/>
<path d="M193.223 208.919C193.227 208.941 193.233 208.961 193.238 208.981C193.227 208.979 193.218 208.977 193.206 208.975C193.055 208.966 192.896 209.021 192.894 209.103C192.892 209.184 193.047 209.26 193.198 209.268C193.268 209.272 193.323 209.26 193.365 209.238C193.158 209.554 193.081 210.142 193.156 210.592C193.193 210.821 193.265 210.981 193.361 211.094C193.4 211.141 193.414 211.203 193.395 211.259C193.344 211.409 193.343 211.58 193.4 211.733C193.441 211.851 193.504 211.901 193.59 212C193.673 212.091 193.78 212.16 193.9 212.193C194.123 212.257 194.338 212.204 194.5 212.076C194.582 212.018 194.647 211.919 194.689 211.792C194.727 211.679 194.745 211.549 194.731 211.429C194.718 211.305 194.678 211.195 194.62 211.102C194.586 211.048 194.581 210.978 194.605 210.921C194.663 210.778 194.682 210.594 194.643 210.358C194.567 209.893 194.298 209.373 194.004 209.14C194.05 209.147 194.106 209.142 194.172 209.117C194.313 209.064 194.438 208.951 194.412 208.878C194.385 208.804 194.217 208.797 194.076 208.848C194.065 208.854 194.058 208.857 194.048 208.862L194.044 208.802C194.004 208.534 193.795 208.341 193.567 208.363C193.34 208.385 193.181 208.639 193.223 208.919Z" fill="black"/>
<path d="M174.077 217.511C174.072 217.527 174.07 217.544 174.067 217.561C174.058 217.555 174.051 217.55 174.041 217.543C173.907 217.47 173.749 217.441 173.712 217.489C173.673 217.535 173.773 217.655 173.897 217.739C173.954 217.777 174.007 217.797 174.053 217.804C173.737 217.931 173.332 218.204 173.092 218.508C172.959 218.659 172.888 218.799 172.87 218.936C172.862 218.991 172.827 219.039 172.774 219.057C172.625 219.101 172.494 219.192 172.404 219.34C172.286 219.543 172.268 219.803 172.385 220.018C172.597 220.418 173.135 220.5 173.473 220.171C173.558 220.091 173.62 219.998 173.659 219.901C173.68 219.841 173.729 219.794 173.789 219.775C173.936 219.728 174.097 219.628 174.26 219.44C174.573 219.054 174.776 218.437 174.643 218.063C174.677 218.095 174.727 218.121 174.796 218.135C174.944 218.166 175.12 218.12 175.144 218.032C175.166 217.942 175.015 217.852 174.867 217.836H174.837L174.862 217.775C174.964 217.488 174.821 217.218 174.591 217.183C174.368 217.151 174.154 217.3 174.077 217.511Z" fill="black"/>
<path d="M173.789 213.478L173.798 213.537C173.787 213.535 173.779 213.533 173.767 213.53C173.618 213.508 173.454 213.549 173.444 213.628C173.433 213.707 173.583 213.79 173.733 213.809C173.803 213.818 173.859 213.81 173.902 213.793C173.661 214.06 173.56 214.691 173.66 215.135C173.708 215.364 173.786 215.508 173.887 215.611C173.929 215.653 173.946 215.711 173.928 215.764C173.885 215.907 173.89 216.062 173.952 216.207C174.043 216.406 174.235 216.557 174.484 216.615C174.708 216.665 174.924 216.612 175.072 216.466C175.226 216.32 175.305 216.088 175.269 215.85C175.251 215.731 175.204 215.63 175.143 215.542C175.107 215.49 175.099 215.424 175.119 215.369C175.17 215.233 175.18 215.053 175.137 214.845C175.046 214.431 174.818 214.002 174.547 213.743C174.592 213.754 174.649 213.753 174.717 213.734C174.861 213.694 174.994 213.597 174.976 213.528C174.957 213.458 174.79 213.439 174.644 213.476C174.634 213.48 174.626 213.483 174.615 213.487L174.617 213.43C174.6 213.176 174.412 212.975 174.183 212.979C173.954 212.984 173.771 213.208 173.789 213.478Z" fill="black"/>
<path d="M174.426 209.133L174.406 209.193C174.397 209.186 174.391 209.18 174.382 209.172C174.258 209.087 174.093 209.053 174.046 209.125C174 209.196 174.093 209.339 174.22 209.418C174.28 209.456 174.334 209.471 174.38 209.473C174.05 209.641 173.688 210.156 173.607 210.632C173.553 210.871 173.585 211.057 173.639 211.196C173.662 211.252 173.658 211.319 173.628 211.372C173.545 211.513 173.498 211.693 173.535 211.882C173.583 212.14 173.773 212.346 174.016 212.405C174.465 212.511 174.866 212.19 174.898 211.796C174.908 211.696 174.892 211.599 174.855 211.509C174.833 211.457 174.846 211.399 174.885 211.357C174.983 211.255 175.04 211.11 175.086 210.913C175.152 210.521 175.138 210.024 174.986 209.695C175.022 209.723 175.075 209.745 175.144 209.757C175.293 209.782 175.457 209.758 175.468 209.691C175.48 209.626 175.339 209.536 175.192 209.505C175.181 209.504 175.172 209.503 175.162 209.502C175.171 209.486 175.181 209.471 175.188 209.453C175.28 209.227 175.22 208.971 175.014 208.864C174.816 208.76 174.533 208.873 174.426 209.133Z" fill="black"/>
<path d="M177.323 208.577L177.291 208.632C177.284 208.623 177.279 208.616 177.272 208.606C177.168 208.498 177.014 208.432 176.954 208.493C176.894 208.553 176.955 208.712 177.062 208.815C177.112 208.863 177.162 208.89 177.207 208.901C176.849 208.998 176.386 209.43 176.207 209.88C176.104 210.102 176.096 210.29 176.121 210.437C176.132 210.498 176.113 210.562 176.073 210.608C175.962 210.729 175.878 210.896 175.875 211.088C175.867 211.351 176.01 211.59 176.236 211.697C176.653 211.89 177.112 211.657 177.226 211.278C177.257 211.182 177.262 211.084 177.245 210.989C177.234 210.933 177.259 210.879 177.306 210.846C177.423 210.766 177.51 210.635 177.596 210.452C177.743 210.081 177.833 209.592 177.754 209.24C177.783 209.274 177.83 209.307 177.895 209.332C178.036 209.386 178.201 209.396 178.227 209.333C178.252 209.271 178.132 209.156 177.995 209.096C177.984 209.092 177.976 209.09 177.966 209.086C177.978 209.072 177.991 209.06 178.002 209.044C178.14 208.841 178.135 208.578 177.955 208.432C177.783 208.291 177.483 208.344 177.323 208.577Z" fill="black"/>
<path d="M177.314 205.756C177.297 205.769 177.283 205.784 177.268 205.798C177.264 205.787 177.262 205.779 177.258 205.767C177.195 205.632 177.072 205.52 176.998 205.557C176.924 205.595 176.931 205.764 176.997 205.897C177.028 205.959 177.066 206.001 177.104 206.026C176.726 205.988 176.17 206.236 175.825 206.564C175.652 206.74 175.56 206.906 175.526 207.052C175.511 207.111 175.474 207.168 175.416 207.196C175.266 207.272 175.121 207.397 175.044 207.581C174.942 207.834 174.983 208.106 175.164 208.282C175.494 208.596 176.002 208.534 176.237 208.233C176.3 208.158 176.339 208.07 176.359 207.977C176.371 207.923 176.409 207.879 176.467 207.867C176.605 207.837 176.742 207.76 176.884 207.613C177.183 207.331 177.444 206.874 177.501 206.526C177.518 206.568 177.55 206.614 177.603 206.659C177.716 206.756 177.87 206.815 177.916 206.762C177.963 206.709 177.888 206.56 177.779 206.461C177.769 206.454 177.762 206.449 177.754 206.443L177.802 206.413C178.012 206.272 178.082 206.004 177.958 205.815C177.835 205.626 177.546 205.6 177.314 205.756Z" fill="black"/>
<path d="M181.479 204.1L181.417 204.114C181.42 204.104 181.421 204.095 181.423 204.083C181.436 203.935 181.383 203.779 181.298 203.777C181.213 203.775 181.134 203.927 181.127 204.074C181.124 204.143 181.137 204.197 181.159 204.237C180.844 204.03 180.216 203.99 179.751 204.148C179.513 204.223 179.359 204.332 179.265 204.454C179.226 204.503 179.165 204.533 179.101 204.531C178.93 204.525 178.753 204.587 178.598 204.707C178.391 204.878 178.307 205.149 178.377 205.379C178.515 205.813 178.995 205.985 179.355 205.822C179.448 205.781 179.522 205.713 179.585 205.643C179.622 205.601 179.68 205.583 179.735 205.595C179.871 205.621 180.031 205.609 180.227 205.547C180.61 205.417 181.046 205.144 181.264 204.862C181.258 204.907 181.264 204.962 181.288 205.027C181.341 205.165 181.445 205.29 181.51 205.266C181.574 205.241 181.582 205.076 181.536 204.937C181.531 204.926 181.528 204.919 181.524 204.91L181.58 204.906C181.829 204.884 182.023 204.682 182.013 204.461C182.002 204.234 181.763 204.074 181.479 204.1Z" fill="black"/>
<path d="M177.241 223.789L177.188 223.824C177.186 223.812 177.185 223.804 177.182 223.792C177.142 223.649 177.036 223.521 176.955 223.548C176.875 223.575 176.855 223.745 176.902 223.885C176.923 223.951 176.955 223.997 176.99 224.027C176.621 223.941 176.018 224.119 175.639 224.427C175.444 224.578 175.338 224.734 175.293 224.88C175.275 224.939 175.228 224.988 175.167 225.008C175.006 225.061 174.862 225.18 174.76 225.345C174.627 225.577 174.645 225.859 174.793 226.051C175.078 226.41 175.589 226.406 175.868 226.13C175.94 226.06 175.985 225.971 176.019 225.884C176.039 225.832 176.086 225.795 176.143 225.787C176.28 225.765 176.424 225.699 176.586 225.574C176.898 225.32 177.209 224.916 177.312 224.577C177.322 224.62 177.348 224.67 177.394 224.722C177.492 224.834 177.634 224.915 177.686 224.87C177.739 224.825 177.687 224.668 177.593 224.553C177.585 224.545 177.579 224.539 177.572 224.532L177.623 224.509C177.85 224.403 177.959 224.147 177.87 223.944C177.779 223.735 177.498 223.668 177.241 223.789Z" fill="black"/>
<path d="M185.821 204.388L185.766 204.396C185.769 204.386 185.771 204.378 185.774 204.366C185.797 204.221 185.764 204.061 185.7 204.044C185.635 204.029 185.555 204.167 185.523 204.311C185.509 204.379 185.51 204.434 185.522 204.477C185.27 204.228 184.826 204.008 184.396 203.927C184.178 203.887 183.998 203.902 183.856 203.956C183.799 203.977 183.733 203.972 183.678 203.938C183.536 203.846 183.35 203.8 183.15 203.831C182.878 203.862 182.661 204.062 182.601 204.293C182.495 204.735 182.813 205.121 183.199 205.165C183.299 205.172 183.396 205.166 183.487 205.134C183.54 205.114 183.6 205.128 183.644 205.169C183.748 205.264 183.9 205.337 184.13 205.378C184.581 205.466 185.221 205.361 185.507 205.111C185.491 205.154 185.486 205.209 185.499 205.277C185.527 205.422 185.631 205.561 185.719 205.547C185.806 205.535 185.835 205.37 185.798 205.227C185.794 205.216 185.791 205.208 185.787 205.198C185.808 205.2 185.829 205.201 185.851 205.2C186.145 205.185 186.354 204.979 186.32 204.752C186.286 204.535 186.063 204.376 185.821 204.388Z" fill="black"/>
<path d="M189.543 202.885L189.498 202.922C189.495 202.911 189.492 202.903 189.488 202.892C189.425 202.759 189.303 202.644 189.237 202.673C189.17 202.701 189.18 202.864 189.241 202.999C189.269 203.062 189.304 203.106 189.34 203.134C188.981 203.084 188.459 203.207 188.098 203.39C187.914 203.484 187.8 203.598 187.726 203.707C187.697 203.753 187.644 203.781 187.589 203.776C187.441 203.768 187.292 203.802 187.154 203.89C186.971 204.022 186.851 204.247 186.854 204.489C186.849 204.944 187.312 205.249 187.784 205.08C187.901 205.042 187.992 204.968 188.069 204.891C188.113 204.844 188.179 204.821 188.243 204.828C188.403 204.85 188.585 204.806 188.804 204.693C189.239 204.471 189.634 204.016 189.709 203.655C189.722 203.698 189.751 203.746 189.802 203.793C189.911 203.895 190.073 203.953 190.13 203.895C190.187 203.838 190.116 203.689 190.004 203.589C189.994 203.582 189.987 203.578 189.979 203.571L190.032 203.541C190.262 203.387 190.312 203.098 190.174 202.925C190.029 202.745 189.757 202.743 189.543 202.885Z" fill="black"/>
<path d="M171.734 215.616L171.751 215.672C171.74 215.672 171.731 215.671 171.719 215.67C171.569 215.673 171.414 215.739 171.416 215.818C171.413 215.845 171.438 215.825 171.494 215.83C171.548 215.83 171.619 215.859 171.694 215.862C171.763 215.868 171.82 215.863 171.863 215.849C171.626 216.071 171.407 216.523 171.34 216.916C171.305 217.115 171.321 217.27 171.373 217.395C171.394 217.447 171.387 217.504 171.349 217.544C171.251 217.654 171.189 217.79 171.188 217.951C171.184 218.165 171.306 218.381 171.506 218.527C171.869 218.814 172.404 218.619 172.535 218.155C172.57 218.042 172.57 217.931 172.55 217.828C172.539 217.767 172.558 217.704 172.6 217.659C172.705 217.551 172.786 217.388 172.826 217.156C172.905 216.7 172.785 216.108 172.509 215.812C172.554 215.825 172.611 215.827 172.679 215.806C172.75 215.781 172.825 215.75 172.868 215.681C172.912 215.618 172.928 215.517 172.911 215.473C172.882 215.409 172.714 215.417 172.576 215.477C172.566 215.482 172.559 215.486 172.549 215.492L172.542 215.436C172.489 215.192 172.263 215.029 172.039 215.07C171.814 215.111 171.677 215.356 171.734 215.616Z" fill="black"/>
<path d="M171.444 211.35L171.443 211.41C171.432 211.405 171.424 211.402 171.413 211.397C171.269 211.353 171.101 211.366 171.078 211.443C171.055 211.519 171.187 211.626 171.331 211.666C171.398 211.685 171.455 211.686 171.501 211.675C171.229 211.918 171.024 212.472 171.041 212.93C171.04 213.163 171.109 213.331 171.192 213.451C171.227 213.5 171.237 213.564 171.215 213.62C171.151 213.771 171.151 213.946 171.218 214.121C171.308 214.359 171.531 214.524 171.781 214.541C172.24 214.57 172.584 214.193 172.542 213.799C172.528 213.699 172.496 213.607 172.446 213.526C172.417 213.478 172.417 213.419 172.446 213.369C172.52 213.251 172.545 213.096 172.547 212.891C172.532 212.488 172.381 211.997 172.145 211.725C172.188 211.741 172.244 211.749 172.315 211.741C172.464 211.725 172.614 211.654 172.607 211.586C172.599 211.517 172.437 211.472 172.288 211.485C172.276 211.487 172.268 211.489 172.257 211.49L172.268 211.436C172.289 211.191 172.14 210.966 171.916 210.931C171.688 210.895 171.467 211.082 171.444 211.35Z" fill="black"/>
<path d="M172.81 207.262L172.784 207.317C172.776 207.309 172.77 207.302 172.762 207.293C172.65 207.194 172.492 207.138 172.439 207.2C172.385 207.261 172.46 207.412 172.574 207.508C172.628 207.552 172.679 207.576 172.725 207.584C172.541 207.638 172.355 207.775 172.185 207.952C172.009 208.127 171.865 208.347 171.784 208.565C171.695 208.785 171.674 208.964 171.714 209.111C171.729 209.17 171.714 209.233 171.672 209.278C171.564 209.399 171.476 209.561 171.483 209.753C171.484 210.012 171.632 210.246 171.856 210.346C172.276 210.528 172.738 210.297 172.835 209.923C172.865 209.829 172.869 209.733 172.851 209.64C172.841 209.585 172.863 209.531 172.907 209.497C173.011 209.412 173.111 209.289 173.187 209.102C173.256 208.916 173.303 208.698 173.329 208.486C173.349 208.271 173.334 208.056 173.292 207.89C173.323 207.922 173.372 207.952 173.439 207.973C173.582 208.019 173.747 208.016 173.768 207.951C173.789 207.886 173.661 207.78 173.52 207.73C173.509 207.727 173.501 207.725 173.49 207.722C173.501 207.708 173.513 207.694 173.522 207.677C173.64 207.462 173.613 207.204 173.42 207.076C173.234 206.952 172.942 207.024 172.81 207.262Z" fill="black"/>
<path d="M193.782 203.918L193.776 203.978C193.765 203.972 193.758 203.968 193.747 203.962C193.608 203.904 193.44 203.901 193.41 203.976C193.38 204.051 193.501 204.171 193.64 204.225C193.706 204.25 193.762 204.256 193.808 204.25C193.652 204.358 193.521 204.547 193.419 204.769C193.311 204.989 193.248 205.244 193.243 205.476C193.231 205.712 193.271 205.888 193.357 206.014C193.39 206.066 193.398 206.13 193.373 206.186C193.311 206.335 193.281 206.516 193.351 206.695C193.438 206.94 193.655 207.114 193.899 207.138C194.358 207.178 194.719 206.812 194.686 206.427C194.683 206.328 194.655 206.237 194.608 206.155C194.58 206.106 194.583 206.048 194.614 206.001C194.684 205.888 194.738 205.74 194.748 205.539C194.751 205.34 194.724 205.119 194.678 204.911C194.627 204.702 194.541 204.502 194.446 204.359C194.486 204.379 194.542 204.392 194.612 204.391C194.763 204.389 194.918 204.333 194.917 204.265C194.915 204.197 194.759 204.137 194.609 204.135C194.597 204.136 194.589 204.137 194.578 204.138C194.583 204.12 194.59 204.103 194.593 204.085C194.634 203.844 194.522 203.608 194.298 203.548C194.081 203.49 193.828 203.65 193.782 203.918Z" fill="black"/>
<path d="M175.789 204.111L175.743 204.15C175.739 204.14 175.736 204.132 175.732 204.121C175.669 203.987 175.545 203.874 175.472 203.909C175.399 203.944 175.407 204.11 175.474 204.241C175.505 204.303 175.543 204.345 175.581 204.37C175.217 204.34 174.66 204.56 174.326 204.882C174.149 205.037 174.065 205.203 174.032 205.347C174.019 205.406 173.978 205.457 173.92 205.48C173.767 205.541 173.621 205.652 173.542 205.828C173.43 206.063 173.46 206.336 173.619 206.521C173.918 206.86 174.441 206.849 174.687 206.548C174.756 206.476 174.802 206.391 174.828 206.3C174.843 206.247 174.887 206.207 174.943 206.195C175.08 206.167 175.21 206.085 175.368 205.948C175.661 205.665 175.934 205.227 175.978 204.87C175.995 204.912 176.027 204.958 176.08 205.003C176.193 205.101 176.348 205.162 176.395 205.11C176.442 205.058 176.367 204.911 176.256 204.812C176.247 204.805 176.241 204.8 176.232 204.793L176.28 204.765C176.482 204.617 176.547 204.352 176.422 204.167C176.294 203.978 176.008 203.95 175.789 204.111Z" fill="black"/>
<path d="M179.733 202.247L179.676 202.268C179.676 202.257 179.677 202.248 179.677 202.236C179.668 202.088 179.595 201.94 179.514 201.948C179.434 201.956 179.379 202.115 179.393 202.262C179.398 202.331 179.418 202.383 179.444 202.42C179.113 202.251 178.511 202.267 178.079 202.453C177.858 202.541 177.716 202.654 177.635 202.782C177.602 202.833 177.545 202.866 177.484 202.867C177.319 202.87 177.144 202.925 177.006 203.058C176.815 203.233 176.741 203.497 176.819 203.726C176.967 204.151 177.459 204.329 177.807 204.135C177.898 204.091 177.973 204.028 178.03 203.951C178.064 203.906 178.12 203.884 178.176 203.892C178.312 203.909 178.472 203.889 178.665 203.812C179.039 203.65 179.451 203.333 179.628 203.028C179.628 203.072 179.641 203.127 179.673 203.188C179.742 203.319 179.863 203.429 179.925 203.396C179.987 203.363 179.972 203.199 179.907 203.067C179.9 203.058 179.896 203.051 179.89 203.042L179.946 203.032C180.189 202.968 180.351 202.753 180.303 202.531C180.256 202.314 179.999 202.177 179.733 202.247Z" fill="black"/>
<path d="M184.116 202L184.054 201.996C184.059 201.986 184.063 201.979 184.069 201.968C184.121 201.829 184.114 201.665 184.036 201.639C183.958 201.614 183.843 201.738 183.796 201.878C183.773 201.943 183.77 201.999 183.779 202.044C183.542 201.762 182.978 201.548 182.503 201.551C182.263 201.549 182.087 201.611 181.961 201.69C181.91 201.724 181.845 201.732 181.787 201.709C181.633 201.651 181.45 201.65 181.269 201.713C181.021 201.794 180.855 202.031 180.839 202.269C180.817 202.724 181.201 203.042 181.596 203.011C181.697 203.002 181.789 202.964 181.872 202.916C181.92 202.888 181.98 202.89 182.029 202.919C182.148 202.993 182.303 203.024 182.509 203.026C182.915 203.024 183.416 202.886 183.702 202.673C183.684 202.713 183.674 202.768 183.679 202.837C183.689 202.985 183.754 203.133 183.823 203.128C183.893 203.123 183.946 202.966 183.94 202.82C183.938 202.808 183.937 202.8 183.935 202.79C183.954 202.794 183.971 202.8 183.99 202.802C184.238 202.832 184.478 202.7 184.523 202.478C184.566 202.26 184.39 202.034 184.116 202Z" fill="black"/>
<path d="M188.019 201.659L187.966 201.685C187.965 201.674 187.965 201.665 187.964 201.653C187.938 201.508 187.85 201.367 187.776 201.38C187.701 201.393 187.668 201.554 187.694 201.699C187.706 201.767 187.729 201.817 187.758 201.853C187.423 201.712 186.861 201.74 186.479 201.862C186.384 201.892 186.305 201.927 186.259 201.959C186.223 201.981 186.236 201.987 186.23 202.006C186.227 202.024 186.185 202.043 186.168 202.064C186.131 202.099 186.079 202.105 186.036 202.081C185.921 202.015 185.795 201.987 185.641 202.015C185.433 202.053 185.215 202.208 185.115 202.43C184.931 202.839 185.174 203.308 185.699 203.35C185.828 203.36 185.954 203.336 186.062 203.29C186.126 203.262 186.2 203.265 186.262 203.29C186.305 203.305 186.331 203.324 186.4 203.329C186.465 203.334 186.555 203.332 186.601 203.329C186.719 203.323 186.826 203.302 186.944 203.265C187.398 203.119 187.832 202.769 187.99 202.444C187.993 202.489 188.01 202.542 188.047 202.601C188.128 202.725 188.264 202.822 188.328 202.782C188.393 202.742 188.361 202.581 188.281 202.456C188.273 202.447 188.268 202.441 188.261 202.432L188.318 202.416C188.564 202.323 188.695 202.079 188.613 201.87C188.531 201.66 188.264 201.566 188.019 201.659Z" fill="black"/>
<path d="M169.08 212.579L169.093 212.643C169.082 212.641 169.074 212.639 169.061 212.636C168.91 212.62 168.75 212.671 168.747 212.758C168.743 212.845 168.896 212.93 169.047 212.94C169.117 212.946 169.173 212.934 169.214 212.912C168.997 213.231 168.969 213.886 169.062 214.302C169.11 214.526 169.189 214.683 169.289 214.792C169.33 214.837 169.348 214.899 169.331 214.957C169.288 215.111 169.294 215.282 169.364 215.45C169.461 215.677 169.674 215.842 169.919 215.882C170.377 215.968 170.754 215.544 170.673 215.064C170.654 214.945 170.61 214.838 170.548 214.747C170.511 214.694 170.503 214.626 170.524 214.566C170.576 214.421 170.587 214.234 170.536 213.996C170.426 213.503 170.14 213.056 169.855 212.82C169.9 212.828 169.957 212.823 170.023 212.799C170.165 212.749 170.294 212.643 170.271 212.574C170.247 212.504 170.078 212.492 169.935 212.538C169.924 212.543 169.917 212.546 169.907 212.55L169.904 212.491C169.867 212.23 169.687 212.024 169.453 212.033C169.229 212.042 169.04 212.288 169.08 212.579Z" fill="black"/>
<path d="M169.771 207.98L169.752 208.042C169.743 208.035 169.737 208.029 169.727 208.021C169.602 207.936 169.437 207.906 169.392 207.981C169.347 208.055 169.441 208.201 169.568 208.281C169.627 208.318 169.682 208.334 169.728 208.335C169.381 208.512 169.024 209.045 168.916 209.54C168.851 209.787 168.878 209.986 168.929 210.134C168.951 210.195 168.946 210.265 168.91 210.32C168.811 210.468 168.78 210.661 168.804 210.864C168.835 211.14 169.043 211.362 169.28 211.424C169.733 211.534 170.12 211.2 170.169 210.789C170.18 210.684 170.16 210.581 170.134 210.487C170.116 210.431 170.131 210.37 170.171 210.326C170.271 210.22 170.33 210.068 170.388 209.858C170.478 209.443 170.468 208.897 170.335 208.556C170.371 208.584 170.423 208.607 170.493 208.617C170.642 208.639 170.807 208.606 170.819 208.533C170.832 208.461 170.69 208.371 170.542 208.344C170.531 208.343 170.522 208.343 170.512 208.342L170.538 208.289C170.64 208.043 170.573 207.772 170.364 207.674C170.16 207.578 169.884 207.71 169.771 207.98Z" fill="black"/>
<path d="M172.379 204.131L172.337 204.181C172.332 204.171 172.328 204.164 172.322 204.153C172.236 204.031 172.093 203.944 172.023 203.994C171.952 204.042 171.992 204.214 172.08 204.334C172.121 204.39 172.166 204.425 172.208 204.442C171.824 204.484 171.297 204.829 170.995 205.224C170.846 205.426 170.777 205.606 170.762 205.76C170.755 205.823 170.72 205.883 170.664 205.917C170.519 206.011 170.398 206.162 170.332 206.352C170.236 206.608 170.319 206.896 170.5 207.058C170.851 207.36 171.353 207.234 171.59 206.878C171.648 206.786 171.68 206.685 171.694 206.585C171.703 206.526 171.744 206.476 171.8 206.452C171.938 206.395 172.071 206.285 172.203 206.104C172.472 205.754 172.688 205.236 172.689 204.866C172.713 204.905 172.752 204.945 172.813 204.98C172.944 205.054 173.107 205.076 173.151 205.014C173.193 204.95 173.094 204.818 172.965 204.74C172.954 204.736 172.946 204.732 172.936 204.727L172.983 204.687C173.174 204.493 173.198 204.206 173.038 204.046C172.877 203.887 172.582 203.925 172.379 204.131Z" fill="black"/>
<path d="M169.414 217.385L169.424 217.448C169.413 217.445 169.404 217.444 169.392 217.441C169.243 217.422 169.08 217.47 169.072 217.554C169.062 217.638 169.22 217.723 169.369 217.738C169.44 217.746 169.496 217.735 169.538 217.716C169.314 218.025 169.227 218.639 169.327 219.123C169.383 219.367 169.474 219.537 169.582 219.65C169.625 219.696 169.647 219.762 169.636 219.826C169.611 219.994 169.646 220.183 169.747 220.358C169.88 220.598 170.154 220.73 170.398 220.704C170.862 220.649 171.1 220.198 170.985 219.788C170.954 219.684 170.898 219.594 170.83 219.517C170.792 219.471 170.781 219.408 170.8 219.35C170.848 219.212 170.853 219.042 170.803 218.825C170.714 218.395 170.462 217.893 170.181 217.646C170.226 217.655 170.283 217.652 170.35 217.631C170.494 217.585 170.619 217.481 170.6 217.407C170.58 217.334 170.413 217.318 170.268 217.361C170.257 217.366 170.249 217.369 170.239 217.373L170.24 217.313C170.218 217.044 170.016 216.835 169.787 216.847C169.558 216.858 169.391 217.099 169.414 217.385Z" fill="black"/>
<path d="M176.034 201.232L175.978 201.266C175.976 201.256 175.975 201.247 175.973 201.235C175.93 201.093 175.821 200.967 175.736 200.995C175.653 201.025 175.635 201.199 175.682 201.339C175.704 201.405 175.737 201.451 175.772 201.48C175.391 201.411 174.769 201.596 174.375 201.902C174.17 202.052 174.054 202.204 174 202.351C173.977 202.41 173.927 202.458 173.865 202.476C173.695 202.522 173.538 202.628 173.423 202.792C173.265 203.012 173.245 203.295 173.37 203.508C173.6 203.901 174.136 203.941 174.469 203.652C174.552 203.576 174.618 203.494 174.661 203.4C174.687 203.346 174.74 203.308 174.801 203.299C174.947 203.277 175.108 203.207 175.29 203.074C175.641 202.801 175.992 202.378 176.102 202.025C176.112 202.069 176.139 202.119 176.186 202.17C176.288 202.279 176.436 202.351 176.492 202.303C176.55 202.257 176.497 202.101 176.399 201.988C176.391 201.98 176.385 201.974 176.377 201.967L176.433 201.944C176.67 201.819 176.786 201.556 176.691 201.356C176.592 201.15 176.297 201.093 176.034 201.232Z" fill="black"/>
<path d="M180.602 200.016L180.537 200.026C180.54 200.015 180.542 200.007 180.545 199.995C180.568 199.849 180.524 199.689 180.438 199.681C180.352 199.673 180.261 199.819 180.242 199.965C180.233 200.033 180.241 200.089 180.26 200.131C179.951 199.903 179.32 199.804 178.819 199.902C178.565 199.946 178.389 200.045 178.272 200.148C178.224 200.192 178.156 200.213 178.09 200.202C177.916 200.182 177.72 200.218 177.54 200.319C177.296 200.464 177.164 200.728 177.197 200.966C177.27 201.418 177.736 201.64 178.143 201.523C178.247 201.492 178.337 201.439 178.413 201.37C178.459 201.332 178.523 201.322 178.581 201.341C178.722 201.39 178.889 201.387 179.111 201.349C179.542 201.265 180.057 201.029 180.316 200.762C180.306 200.805 180.307 200.861 180.327 200.928C180.371 201.069 180.475 201.2 180.55 201.18C180.625 201.16 180.645 200.996 180.605 200.854C180.6 200.844 180.597 200.836 180.593 200.826L180.655 200.827C180.929 200.804 181.149 200.625 181.143 200.399C181.136 200.177 180.895 199.993 180.602 200.016Z" fill="black"/>
<path d="M177.125 198.392L177.064 198.416C177.065 198.405 177.065 198.396 177.066 198.384C177.053 198.236 176.973 198.091 176.887 198.103C176.802 198.114 176.747 198.276 176.762 198.423C176.77 198.492 176.791 198.543 176.82 198.58C176.465 198.428 175.828 198.474 175.363 198.681C175.126 198.781 174.978 198.917 174.888 199.044C174.852 199.097 174.791 199.133 174.724 199.138C174.55 199.157 174.368 199.235 174.216 199.374C174.012 199.571 173.946 199.857 174.034 200.081C174.211 200.505 174.716 200.616 175.085 200.411C175.179 200.357 175.254 200.285 175.312 200.201C175.348 200.154 175.408 200.13 175.468 200.135C175.617 200.151 175.78 200.11 175.986 200.024C176.387 199.845 176.832 199.5 177.022 199.181C177.022 199.227 177.037 199.28 177.072 199.34C177.147 199.469 177.28 199.573 177.347 199.536C177.416 199.5 177.397 199.336 177.325 199.207C177.318 199.197 177.313 199.191 177.307 199.182L177.367 199.168C177.628 199.085 177.801 198.862 177.741 198.642C177.683 198.429 177.404 198.303 177.125 198.392Z" fill="black"/>
<path d="M185.238 200.184L185.175 200.186C185.179 200.175 185.182 200.167 185.187 200.156C185.226 200.013 185.204 199.85 185.126 199.831C185.049 199.812 184.944 199.944 184.902 200.086C184.883 200.152 184.883 200.208 184.895 200.252C184.629 199.986 184.074 199.771 183.598 199.735C183.357 199.717 183.173 199.749 183.034 199.816C182.978 199.843 182.909 199.844 182.852 199.815C182.701 199.736 182.515 199.702 182.302 199.741C182.033 199.8 181.82 199.993 181.761 200.229C181.648 200.672 182.024 201.057 182.45 201.072C182.561 201.077 182.669 201.058 182.768 201.021C182.827 200.999 182.893 201.008 182.945 201.043C183.069 201.129 183.242 201.187 183.482 201.205C183.954 201.241 184.548 201.114 184.852 200.884C184.834 200.926 184.827 200.981 184.837 201.049C184.858 201.196 184.949 201.34 185.032 201.331C185.116 201.321 185.158 201.161 185.134 201.015C185.131 201.004 185.129 200.996 185.126 200.985L185.19 200.995C185.479 201.011 185.722 200.837 185.728 200.613C185.733 200.388 185.516 200.2 185.238 200.184Z" fill="black"/>
<path d="M157.896 218.603C157.872 218.687 157.792 218.741 157.704 218.752C156.462 218.895 155.738 219.057 155.184 219.347C154.642 219.607 154.323 219.944 154.328 220.049C154.333 220.153 154.695 220.475 155.409 220.529C155.587 220.548 155.78 220.521 155.993 220.49C156.207 220.462 156.432 220.396 156.662 220.285C156.894 220.185 157.131 220.049 157.353 219.854C157.584 219.678 157.793 219.441 157.977 219.165C158.029 219.088 158.122 219.046 158.216 219.047C158.55 219.043 158.91 218.998 159.048 218.892C159.181 218.776 159.086 218.633 158.599 218.409C158.416 217.898 158.265 217.809 158.169 217.907C158.064 218 157.981 218.284 157.896 218.603Z" fill="black"/>
<path d="M160.614 214.511C160.653 214.59 160.642 214.686 160.587 214.754C159.753 215.687 159.379 216.331 159.167 216.895C158.964 217.443 158.975 217.911 159.051 217.983C159.127 218.058 159.611 218.04 160.167 217.592C160.718 217.165 161.272 216.185 161.072 214.88C161.054 214.789 161.084 214.694 161.154 214.635C161.688 214.196 162.066 213.62 161.018 213.911C160.068 213.381 160.346 213.936 160.614 214.511Z" fill="black"/>
<path d="M160.368 209.548C160.442 209.596 160.48 209.684 160.468 209.771C160.287 210.99 160.325 211.759 160.516 212.354C160.676 212.933 160.99 213.292 161.097 213.302C161.202 213.312 161.56 213.006 161.743 212.34C161.905 211.697 161.84 210.618 160.946 209.621C160.883 209.552 160.861 209.455 160.891 209.366C161.074 208.723 161.098 208.009 160.369 208.833C159.302 208.899 159.803 209.219 160.368 209.548Z" fill="black"/>
<path d="M157.142 205.849C157.229 205.833 157.325 205.859 157.372 205.937C158.075 206.954 158.551 207.5 159.065 207.849C159.295 208.034 159.531 208.149 159.72 208.218C159.897 208.293 160.035 208.313 160.083 208.287C160.128 208.261 160.184 208.136 160.202 207.929C160.209 207.73 160.169 207.451 160.041 207.121C159.886 206.812 159.652 206.44 159.241 206.137C158.847 205.823 158.282 205.583 157.619 205.509C157.528 205.493 157.437 205.449 157.396 205.366C157.084 204.751 156.57 204.262 156.642 205.328C155.914 206.125 156.512 205.968 157.142 205.849Z" fill="black"/>
<path d="M152.172 205.283C152.228 205.215 152.319 205.178 152.406 205.202C153.616 205.532 154.387 205.589 155.002 205.519C155.602 205.438 156.013 205.241 156.049 205.126C156.078 205.042 155.847 204.602 155.19 204.332C154.558 204.047 153.434 203.975 152.309 204.719C152.232 204.77 152.133 204.79 152.047 204.754C151.404 204.479 150.689 204.431 151.447 205.201C151.415 206.269 151.768 205.771 152.172 205.283Z" fill="black"/>
<path d="M148.125 208.081C148.118 207.996 148.164 207.912 148.241 207.868C149.33 207.263 149.926 206.837 150.331 206.384C150.72 205.936 150.912 205.534 150.861 205.421C150.84 205.374 150.719 205.312 150.514 205.282C150.307 205.25 150.011 205.249 149.676 205.368C149.009 205.565 148.081 206.274 147.828 207.589C147.811 207.68 147.746 207.757 147.657 207.79C147.019 208.041 146.441 208.474 147.549 208.521C148.268 209.302 148.202 208.715 148.125 208.081Z" fill="black"/>
<path d="M146.925 212.882C146.866 212.816 146.853 212.72 146.888 212.64C147.41 211.506 147.577 210.755 147.56 210.141C147.558 209.546 147.387 209.12 147.288 209.078C147.19 209.037 146.736 209.218 146.377 209.82C146.036 210.405 145.812 211.46 146.386 212.65C146.428 212.733 146.423 212.832 146.37 212.907C146.171 213.184 146.018 213.491 146.04 213.657C146.057 213.826 146.23 213.833 146.702 213.567C147.228 213.711 147.391 213.643 147.367 213.503C147.337 213.362 147.13 213.129 146.925 212.882Z" fill="black"/>
<path d="M148.648 217.504C148.56 217.487 148.491 217.419 148.47 217.336C148.21 216.141 147.957 215.438 147.616 214.924C147.276 214.426 146.912 214.152 146.792 214.175C146.702 214.189 146.403 214.586 146.442 215.278C146.459 215.947 146.868 217 148.073 217.638C148.159 217.68 148.217 217.762 148.223 217.853C148.237 218.195 148.324 218.531 148.449 218.651C148.573 218.777 148.709 218.674 148.904 218.172C149.401 217.959 149.481 217.802 149.378 217.712C149.27 217.622 148.961 217.577 148.648 217.504Z" fill="black"/>
<path d="M153.042 219.756C152.967 219.8 152.869 219.795 152.795 219.747C151.749 219.062 151.087 218.74 150.485 218.603C149.904 218.465 149.447 218.491 149.373 218.58C149.311 218.651 149.349 219.145 149.865 219.641C150.357 220.123 151.416 220.599 152.726 220.233C152.816 220.209 152.915 220.232 152.984 220.297C153.499 220.731 154.143 221.067 153.701 220.064C154.103 219.096 153.59 219.395 153.042 219.756Z" fill="black"/>
<path d="M157.898 223.362C157.852 223.435 157.767 223.473 157.682 223.462C157.081 223.388 156.582 223.328 156.176 223.391C155.758 223.403 155.419 223.494 155.143 223.617C154.589 223.827 154.278 224.156 154.281 224.268C154.284 224.365 154.62 224.694 155.268 224.812C155.59 224.854 155.989 224.845 156.438 224.739C156.875 224.582 157.377 224.371 157.836 223.93C157.901 223.869 157.993 223.847 158.078 223.875C158.388 223.978 158.72 224.059 158.87 224.005C159.019 223.944 158.98 223.777 158.605 223.406C158.593 222.868 158.487 222.732 158.363 222.795C158.235 222.852 158.065 223.093 157.898 223.362Z" fill="black"/>
<path d="M162.028 220.854C162.018 220.936 161.956 221.005 161.873 221.029C161.576 221.115 161.325 221.213 161.1 221.312C160.863 221.396 160.66 221.49 160.484 221.593C160.142 221.812 159.853 221.995 159.656 222.218C159.459 222.441 159.32 222.65 159.232 222.811C159.147 222.978 159.121 223.11 159.145 223.159C159.167 223.205 159.287 223.269 159.485 223.306C159.686 223.35 159.959 223.351 160.272 223.257C160.585 223.163 160.971 223.025 161.308 222.702C161.482 222.548 161.655 222.366 161.819 222.157C161.97 221.931 162.104 221.669 162.221 221.383C162.254 221.302 162.331 221.245 162.422 221.236C163.072 221.145 163.698 220.901 162.664 220.57C162.15 219.642 162.075 220.229 162.028 220.854Z" fill="black"/>
<path d="M164.578 216.796C164.609 216.876 164.589 216.966 164.529 217.025C164.066 217.43 163.765 217.801 163.529 218.134C163.281 218.458 163.172 218.788 163.074 219.059C162.889 219.603 162.968 220.062 163.054 220.13C163.135 220.193 163.587 220.137 164.101 219.717C164.361 219.511 164.576 219.181 164.772 218.769C164.954 218.351 165.039 217.808 165 217.196C164.989 217.108 165.027 217.023 165.101 216.975C165.648 216.621 166.141 216.157 165.044 216.277C164.197 215.65 164.348 216.209 164.578 216.796Z" fill="black"/>
<path d="M165.294 212.049C165.352 212.114 165.366 212.205 165.331 212.281C165.063 212.825 164.89 213.283 164.831 213.687C164.731 214.086 164.729 214.432 164.777 214.726C164.84 215.305 165.079 215.685 165.191 215.713C165.287 215.736 165.701 215.506 165.987 214.924C166.114 214.633 166.211 214.256 166.227 213.806C166.202 213.356 166.109 212.831 165.833 212.275C165.791 212.197 165.796 212.104 165.849 212.034C166.232 211.515 166.528 210.92 165.543 211.401C164.524 211.098 164.867 211.578 165.294 212.049Z" fill="black"/>
<path d="M164.284 207.359C164.362 207.398 164.408 207.478 164.404 207.561C164.358 208.16 164.361 208.643 164.44 209.041C164.487 209.447 164.608 209.77 164.757 210.03C165.003 210.558 165.376 210.832 165.486 210.821C165.589 210.811 165.882 210.458 165.964 209.814C165.98 209.498 165.937 209.11 165.792 208.681C165.616 208.263 165.338 207.797 164.87 207.377C164.802 207.319 164.772 207.23 164.794 207.145C164.877 206.835 164.928 206.508 164.868 206.363C164.8 206.22 164.634 206.269 164.276 206.666C163.736 206.713 163.603 206.827 163.672 206.945C163.734 207.07 163.998 207.215 164.284 207.359Z" fill="black"/>
<path d="M161.436 203.502C161.522 203.506 161.596 203.561 161.627 203.64C162.079 204.739 162.517 205.354 162.993 205.723C163.468 206.078 163.878 206.216 163.987 206.156C164.066 206.115 164.239 205.652 164.009 205.047C163.885 204.754 163.727 204.38 163.372 204.075C163.202 203.917 163.004 203.761 162.778 203.617C162.548 203.475 162.262 203.371 161.964 203.276C161.878 203.249 161.815 203.179 161.799 203.091C161.67 202.453 161.368 201.87 161.106 202.898C160.191 203.468 160.804 203.488 161.436 203.502Z" fill="black"/>
<path d="M157.126 201.297C157.206 201.26 157.299 201.272 157.363 201.326C158.253 202.158 158.95 202.469 159.536 202.604C160.104 202.745 160.573 202.628 160.629 202.548C160.694 202.455 160.6 202.026 160.135 201.555C159.677 201.099 158.761 200.678 157.503 200.854C157.414 200.871 157.323 200.84 157.269 200.772C156.866 200.269 156.355 199.825 156.561 200.885C155.987 201.762 156.545 201.569 157.126 201.297Z" fill="black"/>
<path d="M152.242 200.98C152.302 200.917 152.393 200.895 152.474 200.922C153.051 201.145 153.528 201.256 153.942 201.297C154.356 201.359 154.708 201.331 155.004 201.26C155.587 201.165 155.957 200.889 155.976 200.781C155.993 200.682 155.726 200.309 155.111 200.063C154.804 199.964 154.412 199.901 153.952 199.924C153.494 199.97 152.964 200.124 152.422 200.433C152.346 200.481 152.251 200.486 152.174 200.441C151.609 200.119 150.966 199.891 151.56 200.801C151.361 201.822 151.806 201.442 152.242 200.98Z" fill="black"/>
<path d="M147.642 202.543C147.67 202.463 147.745 202.408 147.83 202.401C148.427 202.331 148.93 202.297 149.311 202.153C149.707 202.043 150.024 201.903 150.266 201.725C150.76 201.407 151.003 201.032 150.978 200.921C150.957 200.828 150.562 200.562 149.899 200.578C149.575 200.605 149.177 200.678 148.764 200.89C148.367 201.133 147.916 201.436 147.574 201.978C147.524 202.052 147.437 202.092 147.348 202.082C146.671 201.991 146.032 202.127 146.949 202.665C147.243 203.7 147.425 203.107 147.642 202.543Z" fill="black"/>
<path d="M144.225 205.922C144.212 205.837 144.246 205.75 144.326 205.711C144.875 205.418 145.23 205.11 145.55 204.85C145.702 204.713 145.825 204.574 145.927 204.434C146.034 204.301 146.132 204.178 146.205 204.051C146.355 203.802 146.43 203.557 146.469 203.371C146.514 203.192 146.509 203.059 146.474 203.017C146.442 202.977 146.309 202.94 146.105 202.946C145.908 202.96 145.651 203.031 145.357 203.182C145.212 203.26 145.052 203.352 144.904 203.481C144.762 203.615 144.619 203.774 144.483 203.96C144.194 204.318 144.009 204.844 143.903 205.445C143.885 205.529 143.835 205.608 143.752 205.639C143.149 205.878 142.572 206.238 143.668 206.339C144.37 207.124 144.332 206.547 144.225 205.922Z" fill="black"/>
<path d="M142.611 210.435C142.565 210.361 142.568 210.269 142.616 210.2C142.968 209.709 143.226 209.293 143.36 208.909C143.532 208.538 143.598 208.201 143.606 207.904C143.671 207.332 143.5 206.906 143.399 206.859C143.307 206.815 142.869 206.965 142.458 207.479C142.278 207.744 142.11 208.099 142.009 208.541C141.949 208.99 141.938 209.526 142.12 210.122C142.147 210.206 142.125 210.297 142.061 210.357C141.592 210.805 141.195 211.345 142.25 211.031C143.201 211.495 142.948 210.969 142.611 210.435Z" fill="black"/>
<path d="M142.748 215.239C142.679 215.185 142.649 215.099 142.67 215.017C142.849 214.436 142.921 213.96 142.926 213.551C142.954 213.14 142.894 212.798 142.795 212.515C142.637 211.952 142.325 211.62 142.213 211.613C142.111 211.606 141.753 211.905 141.568 212.523C141.495 212.831 141.465 213.217 141.529 213.662C141.615 214.103 141.817 214.605 142.176 215.108C142.232 215.178 142.244 215.271 142.205 215.349C141.923 215.927 141.741 216.569 142.621 215.919C143.678 216.034 143.254 215.627 142.748 215.239Z" fill="black"/>
<path d="M144.677 219.624C144.593 219.602 144.532 219.533 144.519 219.449C144.462 219.149 144.413 218.887 144.369 218.652C144.315 218.412 144.246 218.203 144.165 218.019C144.03 217.636 143.858 217.339 143.66 217.114C143.303 216.652 142.898 216.445 142.788 216.478C142.693 216.506 142.458 216.91 142.518 217.556C142.568 217.871 142.677 218.25 142.916 218.64C143.048 218.829 143.209 219.021 143.401 219.209C143.585 219.401 143.821 219.577 144.105 219.728C144.183 219.772 144.231 219.853 144.226 219.941C144.181 220.605 144.351 221.226 144.844 220.294C145.878 219.944 145.27 219.797 144.677 219.624Z" fill="black"/>
<path d="M148.337 222.748C148.249 222.771 148.164 222.735 148.117 222.661C147.779 222.15 147.448 221.816 147.16 221.522C147.011 221.384 146.86 221.274 146.712 221.183C146.576 221.079 146.439 220.998 146.306 220.933C145.765 220.689 145.317 220.663 145.235 220.735C145.158 220.803 145.111 221.274 145.474 221.817C145.561 221.954 145.67 222.098 145.804 222.243C145.95 222.373 146.123 222.501 146.322 222.621C146.707 222.879 147.251 223.034 147.875 223.092C147.961 223.102 148.041 223.155 148.081 223.23C148.366 223.801 148.775 224.338 148.801 223.262C149.552 222.521 148.968 222.6 148.337 222.748Z" fill="black"/>
<path d="M153.049 223.982C152.978 224.033 152.884 224.038 152.81 223.997C152.281 223.692 151.837 223.477 151.438 223.375C151.047 223.236 150.7 223.198 150.397 223.213C149.813 223.188 149.389 223.39 149.349 223.49C149.31 223.584 149.495 223.997 150.05 224.366C150.333 224.521 150.709 224.657 151.168 224.721C151.631 224.748 152.18 224.712 152.771 224.487C152.854 224.453 152.949 224.466 153.016 224.524C153.512 224.944 154.098 225.285 153.686 224.282C154.075 223.316 153.563 223.607 153.049 223.982Z" fill="black"/>
<path d="M156.518 221.676C156.467 221.747 156.378 221.783 156.293 221.769C155.677 221.631 155.193 221.595 154.768 221.57C154.349 221.575 153.998 221.608 153.702 221.685C153.115 221.859 152.75 222.098 152.736 222.221C152.731 222.272 152.8 222.388 152.954 222.52C153.106 222.658 153.345 222.805 153.673 222.886C154 222.979 154.416 223.033 154.894 222.936C155.371 222.871 155.906 222.632 156.418 222.245C156.489 222.185 156.585 222.167 156.671 222.198C157.311 222.45 157.998 222.494 157.237 221.738C157.238 220.669 156.892 221.176 156.518 221.676Z" fill="black"/>
<path d="M160.692 219.067C160.688 219.153 160.627 219.225 160.545 219.256C159.399 219.715 158.751 220.111 158.339 220.561C157.924 220.98 157.765 221.419 157.804 221.509C157.85 221.61 158.291 221.771 158.963 221.596C159.296 221.51 159.664 221.305 160.032 220.994C160.204 220.824 160.374 220.625 160.534 220.398C160.692 220.17 160.808 219.883 160.916 219.587C160.946 219.502 161.023 219.44 161.112 219.421C161.754 219.263 162.397 218.968 161.317 218.724C160.746 217.841 160.692 218.421 160.692 219.067Z" fill="black"/>
<path d="M162.883 214.667C162.922 214.746 162.915 214.841 162.858 214.908C162.434 215.376 162.184 215.792 161.969 216.154C161.787 216.529 161.659 216.851 161.601 217.146C161.497 217.735 161.562 218.163 161.666 218.231C161.739 218.28 162.242 218.205 162.69 217.702C163.157 217.224 163.568 216.283 163.346 215.026C163.329 214.938 163.355 214.846 163.424 214.788C163.925 214.361 164.363 213.829 163.286 214.08C162.372 213.539 162.586 214.094 162.883 214.667Z" fill="black"/>
<path d="M162.943 209.754C163.012 209.808 163.052 209.895 163.023 209.98C162.933 210.28 162.873 210.548 162.839 210.793C162.799 211.038 162.755 211.265 162.75 211.472C162.749 211.885 162.754 212.236 162.839 212.528C162.992 213.111 163.251 213.471 163.372 213.485C163.463 213.497 163.871 213.216 164.066 212.581C164.266 211.964 164.279 210.937 163.515 209.884C163.469 209.81 163.446 209.716 163.484 209.634C163.75 209.032 163.892 208.356 163.046 209.055C161.981 208.974 162.425 209.365 162.943 209.754Z" fill="black"/>
<path d="M160.577 205.487C160.663 205.498 160.736 205.559 160.763 205.641C161.122 206.803 161.515 207.442 161.918 207.895C162.34 208.322 162.733 208.527 162.845 208.487C162.934 208.456 163.171 208.02 163.019 207.364C162.909 206.712 162.348 205.798 161.127 205.303C161.041 205.269 160.98 205.193 160.968 205.103C160.876 204.439 160.582 203.826 160.276 204.849C159.325 205.365 159.944 205.418 160.577 205.487Z" fill="black"/>
<path d="M156.22 203.149C156.301 203.108 156.397 203.119 156.462 203.182C157.409 203.976 158.087 204.341 158.693 204.473C159.269 204.627 159.731 204.561 159.8 204.47C159.86 204.394 159.795 203.928 159.315 203.438C158.839 202.98 157.894 202.487 156.592 202.706C156.503 202.716 156.409 202.687 156.35 202.621C155.917 202.128 155.37 201.697 155.624 202.752C155.069 203.645 155.631 203.436 156.22 203.149Z" fill="black"/>
<path d="M151.236 203.203C151.287 203.132 151.376 203.096 151.462 203.11C152.078 203.247 152.561 203.286 152.985 203.31C153.403 203.303 153.754 203.279 154.049 203.197C154.636 203.034 155.003 202.786 155.018 202.666C155.03 202.579 154.742 202.173 154.084 201.996C153.446 201.797 152.373 201.837 151.336 202.634C151.265 202.694 151.168 202.713 151.083 202.681C150.443 202.432 149.755 202.387 150.517 203.142C150.519 204.21 150.863 203.706 151.236 203.203Z" fill="black"/>
<path d="M147.07 205.822C147.073 205.737 147.134 205.664 147.216 205.633C148.361 205.172 149.008 204.773 149.419 204.322C149.629 204.115 149.768 203.899 149.853 203.721C149.941 203.55 149.975 203.424 149.951 203.374C149.905 203.272 149.463 203.11 148.792 203.289C148.458 203.375 148.092 203.583 147.725 203.894C147.554 204.065 147.384 204.264 147.225 204.491C147.067 204.719 146.952 205.007 146.844 205.303C146.815 205.388 146.739 205.45 146.649 205.469C146.007 205.629 145.365 205.924 146.445 206.167C147.018 207.048 147.071 206.469 147.07 205.822Z" fill="black"/>
<path d="M144.882 210.225C144.843 210.146 144.85 210.052 144.907 209.985C145.331 209.517 145.581 209.101 145.795 208.738C145.978 208.363 146.106 208.041 146.162 207.746C146.267 207.156 146.201 206.728 146.097 206.661C146.024 206.611 145.521 206.688 145.074 207.191C144.608 207.669 144.197 208.61 144.419 209.867C144.436 209.955 144.41 210.047 144.341 210.105C143.84 210.532 143.402 211.064 144.479 210.812C145.393 211.353 145.179 210.799 144.882 210.225Z" fill="black"/>
<path d="M144.82 215.139C144.751 215.085 144.711 214.997 144.741 214.912C144.831 214.612 144.891 214.344 144.925 214.099C144.966 213.854 145.009 213.627 145.014 213.42C145.016 213.007 145.011 212.656 144.926 212.364C144.773 211.781 144.514 211.421 144.393 211.407C144.302 211.395 143.894 211.675 143.699 212.31C143.499 212.928 143.486 213.955 144.248 215.008C144.294 215.082 144.317 215.176 144.279 215.258C144.013 215.859 143.87 216.535 144.717 215.838C145.782 215.92 145.338 215.528 144.82 215.139Z" fill="black"/>
<path d="M147.177 219.412C147.09 219.401 147.018 219.34 146.991 219.258C146.635 218.095 146.245 217.454 145.842 217C145.422 216.572 145.029 216.366 144.916 216.406C144.827 216.436 144.59 216.872 144.74 217.528C144.849 218.18 145.406 219.096 146.626 219.595C146.711 219.629 146.773 219.705 146.784 219.796C146.876 220.458 147.167 221.074 147.476 220.05C148.427 219.537 147.811 219.482 147.177 219.412Z" fill="black"/>
<path d="M151.532 221.745C151.452 221.782 151.354 221.777 151.288 221.718C150.342 220.916 149.661 220.566 149.059 220.427C148.481 220.277 148.022 220.338 147.951 220.43C147.892 220.504 147.954 220.976 148.435 221.462C148.909 221.928 149.862 222.407 151.161 222.193C151.25 222.182 151.346 222.204 151.404 222.273C151.839 222.767 152.39 223.199 152.128 222.142C152.675 221.249 152.117 221.457 151.532 221.745Z" fill="black"/>
<path d="M123.034 202.195C123.281 200.901 122.002 199.511 120.583 200.14C120.538 200.153 120.48 200.207 120.536 200.249C121.623 200.897 122.103 202.4 121.623 203.657C121.614 203.692 121.626 203.708 121.645 203.716C121.652 203.735 121.667 203.748 121.696 203.738C122.834 203.208 124.195 203.737 124.781 204.938C124.823 205.001 124.866 204.934 124.88 204.885C125.445 203.321 124.203 201.923 123.034 202.195Z" fill="black"/>
<path d="M128.544 194.845C128.79 193.552 127.511 192.161 126.093 192.791C126.048 192.803 125.99 192.857 126.046 192.9C127.132 193.547 127.612 195.051 127.132 196.308C127.124 196.342 127.136 196.359 127.154 196.366C127.162 196.385 127.177 196.398 127.206 196.389C128.344 195.858 129.704 196.387 130.291 197.588C130.333 197.652 130.376 197.584 130.39 197.536C130.954 195.971 129.713 194.573 128.544 194.845Z" fill="black"/>
<path d="M139.33 193.211C139.576 191.917 138.297 190.527 136.879 191.156C136.834 191.169 136.776 191.223 136.832 191.266C137.918 191.913 138.398 193.416 137.918 194.673C137.91 194.708 137.922 194.724 137.94 194.732C137.948 194.751 137.963 194.764 137.992 194.755C139.129 194.224 140.49 194.753 141.077 195.954C141.119 196.017 141.162 195.95 141.176 195.902C141.74 194.337 140.499 192.939 139.33 193.211Z" fill="black"/>
<path d="M117.943 208.019C118.19 206.725 116.911 205.335 115.493 205.964C115.447 205.977 115.39 206.031 115.445 206.074C116.532 206.721 117.012 208.224 116.532 209.481C116.523 209.516 116.535 209.532 116.554 209.54C116.562 209.559 116.576 209.572 116.605 209.563C117.743 209.032 119.104 209.561 119.69 210.762C119.732 210.825 119.775 210.758 119.789 210.71C120.354 209.145 119.112 207.747 117.943 208.019Z" fill="black"/>
<path d="M112.521 217.57C112.767 216.277 111.488 214.886 110.07 215.516C110.025 215.528 109.967 215.582 110.023 215.625C111.11 216.273 111.59 217.776 111.11 219.033C111.101 219.067 111.113 219.084 111.132 219.091C111.139 219.111 111.154 219.123 111.183 219.114C112.321 218.584 113.681 219.112 114.268 220.313C114.31 220.377 114.353 220.309 114.367 220.261C114.932 218.697 113.69 217.298 112.521 217.57Z" fill="black"/>
<path d="M129.983 229.364C130.229 228.071 128.95 226.68 127.532 227.31C127.487 227.322 127.429 227.376 127.484 227.419C128.571 228.066 129.051 229.57 128.571 230.827C128.563 230.861 128.575 230.878 128.593 230.885C128.601 230.904 128.616 230.917 128.645 230.908C129.782 230.377 131.143 230.906 131.729 232.107C131.771 232.171 131.815 232.103 131.829 232.055C132.393 230.491 131.152 229.092 129.983 229.364Z" fill="black"/>
<path d="M127.542 202.195C127.788 200.901 126.509 199.511 125.091 200.14C125.046 200.153 124.988 200.207 125.044 200.249C126.131 200.897 126.611 202.4 126.131 203.657C126.122 203.692 126.134 203.708 126.153 203.716C126.16 203.735 126.175 203.748 126.204 203.738C127.342 203.208 128.702 203.737 129.289 204.938C129.331 205.001 129.374 204.934 129.388 204.885C129.953 203.321 128.711 201.923 127.542 202.195Z" fill="black"/>
<path d="M132.05 202.195C132.296 200.901 131.017 199.511 129.598 200.14C129.553 200.153 129.496 200.207 129.551 200.249C130.638 200.897 131.118 202.4 130.638 203.657C130.63 203.692 130.642 203.708 130.66 203.716C130.668 203.735 130.682 203.748 130.711 203.738C131.849 203.208 133.21 203.737 133.796 204.938C133.838 205.001 133.882 204.934 133.895 204.885C134.46 203.321 133.219 201.923 132.05 202.195Z" fill="black"/>
<path d="M136.557 202.195C136.803 200.901 135.524 199.511 134.106 200.14C134.061 200.153 134.003 200.207 134.059 200.249C135.146 200.897 135.626 202.4 135.145 203.657C135.137 203.692 135.149 203.708 135.168 203.716C135.175 203.735 135.19 203.748 135.219 203.738C136.357 203.208 137.718 203.737 138.304 204.938C138.346 205.001 138.389 204.934 138.403 204.885C138.968 203.321 137.726 201.923 136.557 202.195Z" fill="black"/>
<path d="M122.945 222.48C123.201 221.186 121.871 219.796 120.398 220.425C120.35 220.438 120.291 220.492 120.348 220.535C121.477 221.182 121.976 222.685 121.477 223.942C121.469 223.977 121.481 223.993 121.501 224.001C121.509 224.02 121.524 224.033 121.553 224.024C122.736 223.493 124.15 224.022 124.76 225.223C124.803 225.286 124.848 225.219 124.863 225.171C125.45 223.606 124.16 222.208 122.945 222.48Z" fill="black"/>
<path d="M127.629 222.48C127.885 221.186 126.556 219.796 125.082 220.425C125.035 220.438 124.975 220.492 125.032 220.535C126.162 221.182 126.661 222.685 126.162 223.942C126.153 223.977 126.166 223.993 126.185 224.001C126.193 224.02 126.208 224.033 126.238 224.024C127.421 223.493 128.835 224.022 129.444 225.223C129.488 225.286 129.533 225.219 129.547 225.171C130.134 223.606 128.844 222.208 127.629 222.48Z" fill="black"/>
<path d="M132.314 222.48C132.57 221.186 131.24 219.796 129.767 220.425C129.72 220.438 129.66 220.492 129.717 220.535C130.847 221.182 131.345 222.685 130.847 223.942C130.838 223.977 130.85 223.993 130.87 224.001C130.878 224.02 130.893 224.033 130.923 224.024C132.105 223.493 133.52 224.022 134.129 225.223C134.173 225.286 134.217 225.219 134.232 225.171C134.819 223.606 133.529 222.208 132.314 222.48Z" fill="black"/>
<path d="M136.998 222.48C137.254 221.186 135.925 219.796 134.451 220.425C134.404 220.438 134.344 220.492 134.402 220.535C135.531 221.182 136.03 222.685 135.531 223.942C135.522 223.977 135.535 223.993 135.554 224.001C135.562 224.02 135.578 224.033 135.607 224.024C136.79 223.493 138.204 224.022 138.813 225.223C138.857 225.286 138.902 225.219 138.916 225.171C139.503 223.606 138.213 222.208 136.998 222.48Z" fill="black"/>
<path d="M124.505 217.59C124.822 216.376 123.535 215.113 122.009 215.74C121.961 215.753 121.898 215.805 121.954 215.843C123.072 216.418 123.512 217.807 122.949 218.994C122.938 219.026 122.95 219.041 122.97 219.048C122.977 219.065 122.992 219.077 123.022 219.067C124.247 218.541 125.66 218.997 126.225 220.102C126.267 220.159 126.316 220.096 126.332 220.05C126.999 218.574 125.751 217.304 124.505 217.59Z" fill="black"/>
<path d="M127.25 215.014C127.568 213.8 126.28 212.538 124.754 213.164C124.706 213.177 124.643 213.229 124.699 213.268C125.818 213.842 126.257 215.231 125.694 216.418C125.684 216.45 125.696 216.466 125.715 216.472C125.722 216.489 125.737 216.501 125.768 216.492C126.993 215.965 128.406 216.421 128.971 217.526C129.012 217.584 129.061 217.52 129.078 217.474C129.744 215.999 128.496 214.728 127.25 215.014Z" fill="black"/>
<path d="M129.995 212.439C130.313 211.225 129.025 209.962 127.5 210.589C127.452 210.602 127.388 210.654 127.445 210.692C128.563 211.267 129.003 212.656 128.439 213.843C128.429 213.875 128.441 213.89 128.46 213.896C128.467 213.914 128.482 213.926 128.513 213.916C129.738 213.39 131.151 213.846 131.716 214.951C131.758 215.009 131.806 214.945 131.823 214.899C132.489 213.423 131.242 212.153 129.995 212.439Z" fill="black"/>
<path d="M132.74 209.863C133.058 208.649 131.77 207.387 130.245 208.013C130.197 208.026 130.133 208.078 130.19 208.117C131.308 208.691 131.747 210.08 131.184 211.267C131.174 211.3 131.186 211.315 131.205 211.321C131.212 211.339 131.227 211.35 131.258 211.341C132.483 210.815 133.896 211.27 134.461 212.375C134.502 212.433 134.551 212.369 134.568 212.323C135.234 210.848 133.986 209.577 132.74 209.863Z" fill="black"/>
<path d="M135.486 207.288C135.803 206.074 134.515 204.812 132.99 205.438C132.942 205.451 132.878 205.503 132.935 205.541C134.053 206.116 134.493 207.505 133.93 208.692C133.919 208.724 133.931 208.739 133.951 208.746C133.958 208.763 133.973 208.775 134.003 208.765C135.228 208.239 136.641 208.695 137.206 209.8C137.248 209.858 137.297 209.794 137.313 209.748C137.98 208.272 136.732 207.002 135.486 207.288Z" fill="black"/>
<path d="M112.556 229.055H121.622C125.742 229.055 128.558 231.778 128.558 235.207C128.558 237.426 127.356 239.308 125.605 240.182V240.384C127.665 241.426 129.005 243.678 129.005 246.065C129.005 249.763 125.811 252.587 121.553 252.587H112.556V229.055ZM121.347 239.073C123.51 239.073 125.09 237.594 125.09 235.543C125.09 233.493 123.51 232.047 121.347 232.047H115.955V239.073H121.347ZM121.656 249.595C123.751 249.595 125.536 247.88 125.536 245.83C125.536 243.779 123.751 242.031 121.656 242.031H115.955V249.595H121.656Z" fill="black"/>
<path d="M134.05 229.055H143.116C147.237 229.055 150.225 231.98 150.225 235.879C150.225 239.006 148.336 241.359 145.245 242.266L151.083 252.587H147.272L141.811 242.872H137.45V252.587H134.05V229.055ZM142.773 239.88C145.005 239.88 146.756 238.131 146.756 235.947C146.756 233.795 145.005 232.047 142.773 232.047H137.45V239.88H142.773Z" fill="black"/>
<path d="M155.922 229.055H159.39L171.478 246.805H171.684V229.055H174.981V252.587H171.512L159.39 234.837H159.184V252.587H155.922V229.055Z" fill="black"/>
<path d="M180.438 240.821C180.438 233.762 185.588 228.686 192.697 228.686C199.805 228.686 204.956 233.762 204.956 240.821C204.956 247.88 199.805 252.956 192.697 252.956C185.588 252.956 180.438 247.88 180.438 240.821ZM192.697 249.897C197.848 249.897 201.488 246.166 201.488 240.821C201.488 235.476 197.848 231.744 192.697 231.744C187.511 231.744 183.906 235.476 183.906 240.821C183.906 246.166 187.511 249.897 192.697 249.897Z" fill="black"/>
<path d="M158.38 210.723C158.454 210.774 158.497 210.864 158.474 210.954C158.211 212.184 158.119 212.945 158.184 213.561C158.212 213.863 158.271 214.115 158.328 214.302C158.395 214.49 158.467 214.611 158.516 214.629C158.567 214.648 158.701 214.606 158.866 214.474C159.039 214.344 159.237 214.12 159.39 213.785C159.544 213.452 159.641 213.008 159.607 212.492C159.553 211.981 159.392 211.382 158.961 210.835C158.908 210.757 158.881 210.657 158.911 210.567C159.029 210.237 159.073 209.875 159.001 209.706C158.931 209.532 158.767 209.581 158.398 209.987C157.856 209.998 157.724 210.12 157.783 210.243C157.846 210.368 158.114 210.528 158.38 210.723Z" fill="black"/>
<path d="M150.118 209.245C150.109 209.153 150.168 209.074 150.25 209.035C150.831 208.764 151.273 208.581 151.651 208.421C152.021 208.257 152.32 208.099 152.576 207.94C152.83 207.782 153.035 207.623 153.181 207.49C153.325 207.347 153.405 207.237 153.401 207.183C153.396 207.132 153.3 207.026 153.106 206.941C152.912 206.846 152.617 206.767 152.234 206.786C151.855 206.805 151.384 206.929 150.931 207.244C150.475 207.545 150.058 208.066 149.86 208.726C149.831 208.818 149.755 208.891 149.668 208.927C149.504 208.987 149.336 209.06 149.197 209.139C149.068 209.224 148.966 209.313 148.919 209.392C148.823 209.555 148.964 209.65 149.517 209.682C149.862 210.093 150.042 210.118 150.103 209.998C150.135 209.934 150.14 209.828 150.132 209.693C150.134 209.565 150.127 209.409 150.118 209.245Z" fill="black"/>
<path d="M153.038 217.39C152.959 217.431 152.856 217.434 152.785 217.373C152.268 216.997 151.907 216.675 151.585 216.43C151.259 216.191 150.992 215.991 150.723 215.851C150.217 215.552 149.767 215.412 149.663 215.473C149.584 215.516 149.451 216.008 149.829 216.674C150.028 216.989 150.348 217.355 150.847 217.597C151.335 217.844 151.987 217.989 152.68 217.853C152.775 217.843 152.88 217.859 152.95 217.926C153.203 218.175 153.518 218.366 153.704 218.377C153.894 218.391 153.92 218.226 153.706 217.723C153.931 217.241 153.876 217.072 153.737 217.07C153.593 217.07 153.33 217.242 153.038 217.39Z" fill="black"/>
<path d="M158.146 225.726C158.095 225.803 158 225.828 157.91 225.812C156.648 225.597 155.815 225.684 155.215 225.929C154.62 226.123 154.292 226.466 154.295 226.574C154.297 226.676 154.648 226.988 155.325 227.126C155.988 227.217 157.015 227.114 158.045 226.286C158.117 226.228 158.218 226.221 158.304 226.247C158.937 226.451 159.63 226.55 158.876 225.764C158.921 224.706 158.52 225.178 158.146 225.726Z" fill="black"/>
<path d="M167.441 214.582C167.486 214.658 167.482 214.755 167.434 214.829C167.109 215.363 166.84 215.811 166.704 216.223C166.579 216.637 166.489 216.988 166.477 217.299C166.463 217.608 166.509 217.871 166.569 218.063C166.615 218.249 166.684 218.366 166.735 218.386C166.783 218.405 166.919 218.369 167.097 218.26C167.26 218.146 167.458 217.954 167.644 217.672C167.827 217.39 168.017 217.02 168.066 216.546C168.125 216.076 168.143 215.523 167.931 214.899C167.904 214.811 167.927 214.715 167.991 214.65C168.226 214.412 168.45 214.149 168.47 213.988C168.483 213.826 168.314 213.779 167.804 213.946C167.311 213.7 167.139 213.73 167.139 213.878C167.131 214.026 167.272 214.301 167.441 214.582Z" fill="black"/>
<path d="M162.039 201.029C162.128 201.027 162.212 201.077 162.255 201.155C162.402 201.438 162.568 201.657 162.705 201.882C162.842 202.105 162.983 202.293 163.128 202.454C163.429 202.762 163.686 203.02 163.954 203.185C164.494 203.509 164.942 203.596 165.032 203.531C165.115 203.472 165.202 202.99 164.879 202.395C164.721 202.098 164.496 201.743 164.096 201.462C163.903 201.316 163.681 201.174 163.432 201.045C163.184 200.915 162.874 200.837 162.555 200.761C162.464 200.741 162.389 200.675 162.362 200.587C162.312 200.427 162.254 200.266 162.191 200.134C162.121 200.011 162.048 199.915 161.978 199.87C161.836 199.78 161.717 199.906 161.631 200.429C161.182 200.74 161.13 200.904 161.261 200.974C161.327 201.01 161.441 201.022 161.582 201.023C161.717 201.033 161.876 201.034 162.039 201.029Z" fill="black"/>
<path d="M152.152 198.662C152.216 198.601 152.312 198.57 152.398 198.607C153.005 198.852 153.511 198.942 153.952 198.991C154.393 199.055 154.767 199.027 155.08 198.957C155.701 198.837 156.08 198.585 156.097 198.469C156.112 198.377 155.822 197.979 155.175 197.759C154.852 197.66 154.442 197.596 153.962 197.619C153.482 197.656 152.93 197.83 152.353 198.117C152.271 198.155 152.172 198.168 152.092 198.122C151.508 197.802 150.848 197.575 151.439 198.487C151.193 199.515 151.68 199.129 152.152 198.662Z" fill="black"/>
<path d="M140.855 207.817C140.824 207.735 140.846 207.641 140.908 207.576C141.129 207.345 141.307 207.125 141.457 206.915C141.628 206.714 141.764 206.519 141.872 206.332C141.981 206.144 142.061 205.963 142.122 205.789C142.198 205.625 142.252 205.466 142.29 205.316C142.432 204.717 142.323 204.255 142.241 204.201C142.144 204.14 141.687 204.249 141.212 204.74C141.093 204.862 140.972 205.006 140.857 205.174C140.758 205.351 140.668 205.552 140.59 205.777C140.513 206.003 140.45 206.252 140.408 206.524C140.388 206.803 140.395 207.106 140.43 207.427C140.44 207.517 140.4 207.608 140.324 207.661C139.752 208.052 139.347 208.574 140.406 208.389C141.307 209.019 141.068 208.411 140.855 207.817Z" fill="black"/>
<path d="M143.777 222.19C143.689 222.174 143.618 222.108 143.593 222.022C143.509 221.716 143.396 221.465 143.307 221.22C143.219 220.973 143.121 220.76 143.013 220.573C142.784 220.209 142.58 219.908 142.355 219.691C141.896 219.263 141.463 219.098 141.366 219.141C141.268 219.186 141.096 219.635 141.287 220.282C141.375 220.606 141.528 220.993 141.858 221.349C142.016 221.531 142.202 221.715 142.418 221.891C142.637 222.066 142.92 222.208 143.216 222.347C143.3 222.385 143.359 222.465 143.368 222.556C143.388 222.898 143.47 223.222 143.592 223.335C143.712 223.452 143.854 223.354 144.05 222.859C144.555 222.647 144.64 222.496 144.528 222.402C144.41 222.309 144.091 222.256 143.777 222.19Z" fill="black"/>
<path d="M165.748 220.953C165.75 221.041 165.7 221.122 165.621 221.162C165.08 221.464 164.616 221.711 164.298 222.001C164.135 222.141 164.005 222.29 163.887 222.429C163.761 222.559 163.66 222.691 163.577 222.82C163.248 223.334 163.213 223.806 163.282 223.89C163.347 223.969 163.809 224.004 164.411 223.701C164.561 223.626 164.72 223.53 164.88 223.41C165.033 223.283 165.178 223.121 165.322 222.937C165.601 222.562 165.897 222.104 166.018 221.464C166.037 221.376 166.103 221.304 166.191 221.28C166.836 221.099 167.461 220.807 166.375 220.586C165.787 219.714 165.73 220.313 165.748 220.953Z" fill="black"/>
<path d="M165.394 201.157C165.481 201.178 165.54 201.253 165.555 201.34C165.644 201.967 165.837 202.418 165.997 202.816C166.159 203.21 166.37 203.504 166.588 203.727C166.994 204.184 167.409 204.372 167.518 204.33C167.609 204.295 167.814 203.858 167.694 203.206C167.62 202.888 167.47 202.515 167.209 202.127C166.951 201.738 166.502 201.38 165.961 201.051C165.883 201.006 165.837 200.919 165.837 200.83C165.817 200.186 165.677 199.529 165.181 200.484C164.153 200.816 164.743 201.013 165.394 201.157Z" fill="black"/>
<path d="M144.983 198.826C145.013 198.745 145.091 198.689 145.18 198.68C145.814 198.614 146.293 198.471 146.714 198.348C147.127 198.213 147.43 198.004 147.68 197.824C148.18 197.474 148.388 197.055 148.354 196.952C148.322 196.855 147.9 196.653 147.221 196.709C146.885 196.742 146.505 196.887 146.094 197.118C145.676 197.335 145.274 197.736 144.913 198.263C144.862 198.337 144.773 198.379 144.681 198.371C143.997 198.306 143.349 198.442 144.275 198.974C144.554 200.019 144.765 199.413 144.983 198.826Z" fill="black"/>
<path d="M138.956 216.438C138.886 216.382 138.856 216.292 138.875 216.207C138.993 215.609 139.098 215.098 139.076 214.671C139.057 214.243 138.969 213.889 138.883 213.596C138.686 213.015 138.337 212.697 138.227 212.698C138.123 212.7 137.802 213.034 137.658 213.677C137.573 213.998 137.575 214.392 137.685 214.842C137.799 215.29 137.965 215.802 138.384 216.307C138.439 216.379 138.452 216.475 138.414 216.556C138.136 217.152 137.957 217.805 138.834 217.143C139.895 217.275 139.465 216.841 138.956 216.438Z" fill="black"/>
<path d="M152.995 228.482C152.922 228.534 152.825 228.538 152.746 228.497C152.186 228.225 151.711 228.014 151.287 227.909C150.863 227.807 150.491 227.809 150.183 227.806C149.565 227.831 149.152 228.07 149.122 228.174C149.094 228.272 149.331 228.666 149.927 228.982C150.221 229.154 150.615 229.245 151.087 229.267C151.559 229.292 152.111 229.247 152.717 228.988C152.803 228.954 152.9 228.968 152.97 229.025C153.486 229.446 154.082 229.788 153.659 228.784C154.065 227.818 153.525 228.109 152.995 228.482Z" fill="black"/>
</g>
</svg>
