<svg width="320" height="533" viewBox="0 0 320 533" fill="none" xmlns="http://www.w3.org/2000/svg">
<rect width="320" height="533" fill="#F9F0E4"/>
<g opacity="0.25">
<path d="M179.334 188.946L179.269 188.97C179.27 188.959 179.271 188.95 179.272 188.937C179.266 188.786 179.189 188.637 179.092 188.649C178.996 188.661 178.93 188.828 178.948 188.976C178.955 189.046 178.979 189.097 179.009 189.134C178.823 189.062 178.569 189.062 178.288 189.099C178.027 189.157 177.743 189.26 177.526 189.402C177.314 189.551 177.185 189.701 177.12 189.843C177.092 189.9 177.039 189.948 176.979 189.967C176.814 190.014 176.652 190.121 176.532 190.283C176.363 190.5 176.366 190.798 176.492 191.007C176.741 191.405 177.261 191.429 177.586 191.17C177.667 191.101 177.727 191.017 177.767 190.923C177.789 190.867 177.841 190.832 177.902 190.831C178.048 190.825 178.203 190.772 178.375 190.649C178.548 190.536 178.72 190.396 178.866 190.226C179.018 190.084 179.146 189.901 179.226 189.742C179.228 189.787 179.245 189.841 179.281 189.902C179.357 190.033 179.477 190.146 179.532 190.114C179.588 190.083 179.571 189.916 179.506 189.782C179.5 189.772 179.496 189.765 179.49 189.755C179.508 189.752 179.526 189.75 179.545 189.745C179.779 189.68 179.959 189.485 179.936 189.252C179.917 189.032 179.638 188.865 179.334 188.946Z" fill="black"/>
<path d="M173.886 194.738L173.849 194.795C173.843 194.786 173.838 194.778 173.831 194.768C173.733 194.65 173.579 194.577 173.51 194.644C173.441 194.711 173.491 194.882 173.597 194.99C173.646 195.041 173.696 195.068 173.743 195.08C173.55 195.132 173.348 195.283 173.147 195.479C172.975 195.679 172.811 195.93 172.726 196.17C172.649 196.415 172.638 196.611 172.674 196.763C172.687 196.825 172.675 196.894 172.638 196.944C172.536 197.08 172.472 197.261 172.477 197.462C172.476 197.735 172.662 197.97 172.892 198.062C173.335 198.232 173.764 197.943 173.864 197.544C173.886 197.441 173.881 197.339 173.856 197.241C173.839 197.183 173.859 197.124 173.907 197.087C174.019 196.996 174.11 196.861 174.172 196.662C174.239 196.47 174.291 196.257 174.302 196.035C174.335 195.831 174.325 195.61 174.291 195.436C174.32 195.47 174.366 195.504 174.433 195.531C174.575 195.59 174.739 195.609 174.764 195.551C174.789 195.493 174.673 195.37 174.539 195.301C174.528 195.297 174.52 195.294 174.51 195.29C174.522 195.277 174.535 195.265 174.546 195.25C174.693 195.059 174.716 194.798 174.554 194.625C174.403 194.461 174.078 194.493 173.886 194.738Z" fill="black"/>
<path d="M171.485 195.021L171.437 195.07C171.433 195.06 171.429 195.051 171.425 195.04C171.354 194.905 171.218 194.803 171.136 194.855C171.055 194.906 171.069 195.084 171.149 195.211C171.186 195.27 171.231 195.307 171.274 195.328C171.074 195.34 170.845 195.448 170.607 195.599C170.397 195.761 170.184 195.974 170.051 196.192C169.925 196.416 169.873 196.606 169.877 196.762C169.877 196.825 169.85 196.89 169.804 196.932C169.675 197.045 169.575 197.209 169.538 197.406C169.48 197.673 169.613 197.94 169.819 198.077C170.218 198.332 170.698 198.135 170.878 197.764C170.922 197.668 170.939 197.567 170.934 197.466C170.93 197.405 170.962 197.352 171.016 197.326C171.144 197.259 171.262 197.146 171.364 196.962C171.47 196.788 171.565 196.589 171.622 196.374C171.697 196.182 171.733 195.963 171.736 195.785C171.757 195.825 171.796 195.867 171.855 195.907C171.982 195.993 172.139 196.045 172.175 195.994C172.212 195.942 172.124 195.798 172.006 195.703C171.996 195.697 171.989 195.693 171.98 195.687C171.995 195.677 172.011 195.667 172.025 195.654C172.209 195.498 172.285 195.247 172.163 195.045C172.049 194.854 171.724 194.82 171.485 195.021Z" fill="black"/>
<path d="M183.906 189.514L183.846 189.514C183.85 189.504 183.854 189.496 183.859 189.484C183.904 189.341 183.891 189.174 183.82 189.153C183.746 189.134 183.654 189.256 183.601 189.398C183.578 189.464 183.572 189.52 183.579 189.566C183.359 189.29 182.926 188.989 182.472 188.856C182.25 188.79 182.046 188.785 181.899 188.824C181.838 188.839 181.764 188.83 181.712 188.79C181.573 188.683 181.383 188.616 181.163 188.631C180.871 188.637 180.616 188.839 180.551 189.068C180.44 189.518 180.735 189.91 181.112 189.987C181.211 190.004 181.314 190.007 181.411 189.982C181.468 189.97 181.526 189.985 181.568 190.031C181.67 190.141 181.807 190.224 182.039 190.293C182.479 190.424 183.142 190.423 183.483 190.202C183.46 190.243 183.448 190.298 183.453 190.369C183.462 190.518 183.56 190.68 183.643 190.67C183.73 190.664 183.78 190.503 183.764 190.354C183.761 190.343 183.76 190.335 183.757 190.324L183.821 190.335C184.111 190.367 184.358 190.193 184.368 189.964C184.378 189.738 184.172 189.544 183.906 189.514Z" fill="black"/>
<path d="M187.982 188.706L187.935 188.742C187.932 188.73 187.93 188.722 187.927 188.71C187.873 188.568 187.761 188.447 187.692 188.468C187.624 188.488 187.621 188.651 187.667 188.793C187.689 188.86 187.72 188.908 187.754 188.94C187.394 188.856 186.872 188.898 186.486 189.004C186.291 189.07 186.149 189.133 186.053 189.239C186.013 189.282 185.954 189.297 185.9 189.278C185.753 189.226 185.598 189.236 185.432 189.289C185.212 189.373 185.028 189.572 184.974 189.812C184.865 190.262 185.251 190.664 185.768 190.61C185.895 190.592 186.011 190.549 186.109 190.489C186.166 190.455 186.239 190.448 186.303 190.465C186.458 190.506 186.667 190.524 186.923 190.441C187.439 190.298 187.951 189.869 188.072 189.503C188.08 189.548 188.105 189.6 188.152 189.653C188.253 189.766 188.418 189.836 188.488 189.781C188.558 189.726 188.496 189.565 188.391 189.458C188.381 189.45 188.375 189.445 188.367 189.438L188.424 189.408C188.678 189.254 188.763 188.969 188.625 188.782C188.49 188.6 188.204 188.571 187.982 188.706Z" fill="black"/>
<path d="M188.469 185.322L188.437 185.371C188.431 185.362 188.426 185.355 188.419 185.345C188.318 185.23 188.17 185.154 188.113 185.196C188.056 185.239 188.11 185.393 188.204 185.511C188.249 185.566 188.295 185.6 188.337 185.618C187.97 185.662 187.495 185.878 187.17 186.109C187.011 186.236 186.9 186.344 186.847 186.476C186.825 186.529 186.775 186.563 186.717 186.564C186.56 186.565 186.419 186.626 186.282 186.732C186.104 186.886 186.003 187.135 186.037 187.378C186.093 187.837 186.598 188.084 187.063 187.858C187.176 187.799 187.27 187.719 187.34 187.63C187.382 187.578 187.448 187.547 187.514 187.541C187.674 187.528 187.877 187.473 188.088 187.308C188.521 187 188.851 186.424 188.835 186.039C188.858 186.079 188.899 186.119 188.962 186.153C189.097 186.225 189.277 186.235 189.323 186.16C189.369 186.084 189.254 185.954 189.118 185.889C189.106 185.885 189.098 185.882 189.088 185.879L189.131 185.831C189.315 185.6 189.294 185.304 189.098 185.176C188.908 185.051 188.629 185.12 188.469 185.322Z" fill="black"/>
<path d="M191.099 185.785L191.068 185.835C191.061 185.827 191.056 185.82 191.048 185.81C190.941 185.705 190.784 185.637 190.73 185.685C190.676 185.733 190.742 185.885 190.846 185.995C190.894 186.047 190.943 186.077 190.987 186.092C190.625 186.166 190.155 186.433 189.857 186.735C189.694 186.892 189.608 187.044 189.572 187.185C189.557 187.242 189.514 187.289 189.456 187.306C189.301 187.352 189.163 187.452 189.058 187.598C188.92 187.802 188.898 188.074 189.005 188.295C189.204 188.715 189.754 188.797 190.119 188.477C190.206 188.397 190.272 188.302 190.314 188.203C190.339 188.144 190.393 188.101 190.456 188.087C190.608 188.052 190.77 187.959 190.945 187.789C191.299 187.434 191.565 186.854 191.518 186.472C191.545 186.51 191.589 186.546 191.655 186.575C191.795 186.635 191.973 186.633 192.011 186.555C192.05 186.478 191.93 186.359 191.787 186.302C191.775 186.299 191.766 186.297 191.756 186.294L191.798 186.245C191.956 185.999 191.919 185.707 191.717 185.595C191.515 185.482 191.238 185.567 191.099 185.785Z" fill="black"/>
<path d="M174.811 190.651L174.794 190.707C174.785 190.7 174.778 190.695 174.768 190.687C174.638 190.609 174.469 190.579 174.429 190.639C174.388 190.698 174.489 190.83 174.616 190.913C174.676 190.952 174.73 190.971 174.777 190.975C174.442 191.13 174.051 191.499 173.834 191.861C173.714 192.052 173.666 192.219 173.666 192.365C173.665 192.423 173.635 192.479 173.582 192.509C173.443 192.589 173.332 192.719 173.266 192.885C173.181 193.115 173.226 193.384 173.383 193.574C173.677 193.937 174.232 193.888 174.509 193.493C174.575 193.395 174.616 193.288 174.633 193.181C174.642 193.119 174.684 193.064 174.742 193.036C174.881 192.966 175.016 192.839 175.145 192.633C175.403 192.206 175.523 191.581 175.384 191.22C175.42 191.251 175.471 191.276 175.542 191.289C175.693 191.315 175.865 191.272 175.884 191.188C175.902 191.103 175.757 191.015 175.604 190.994C175.592 190.993 175.584 190.993 175.572 190.993L175.602 190.935C175.696 190.66 175.589 190.385 175.366 190.322C175.142 190.259 174.893 190.407 174.811 190.651Z" fill="black"/>
<path d="M192.424 181.837L192.427 181.896C192.416 181.892 192.407 181.888 192.396 181.884C192.247 181.846 192.079 181.866 192.059 181.936C192.037 182.004 192.172 182.102 192.318 182.145C192.387 182.165 192.445 182.167 192.49 182.158C192.218 182.403 191.957 182.874 191.857 183.276C191.802 183.481 191.808 183.645 191.843 183.78C191.858 183.834 191.844 183.894 191.803 183.934C191.697 184.043 191.608 184.179 191.591 184.354C191.563 184.589 191.656 184.837 191.854 184.997C192.208 185.294 192.759 185.143 192.938 184.676C192.985 184.562 193.002 184.445 192.989 184.333C192.983 184.267 193.01 184.202 193.059 184.158C193.181 184.053 193.276 183.883 193.341 183.637C193.465 183.15 193.386 182.522 193.145 182.218C193.188 182.237 193.245 182.246 193.316 182.238C193.469 182.22 193.621 182.13 193.614 182.044C193.605 181.959 193.438 181.916 193.287 181.939C193.276 181.942 193.267 181.944 193.256 181.947L193.265 181.884C193.281 181.595 193.094 181.363 192.859 181.365C192.629 181.366 192.439 181.578 192.424 181.837Z" fill="black"/>
<path d="M195.227 169.078L195.178 169.111C195.176 169.1 195.174 169.091 195.172 169.08C195.127 168.935 195.022 168.806 194.951 168.825C194.88 168.842 194.865 169.006 194.904 169.151C194.922 169.219 194.951 169.268 194.983 169.301C194.627 169.202 194.08 169.229 193.678 169.355C193.471 169.416 193.331 169.506 193.232 169.605C193.193 169.647 193.133 169.666 193.077 169.653C192.927 169.62 192.762 169.617 192.6 169.694C192.382 169.793 192.213 170.001 192.178 170.25C192.103 170.701 192.522 171.082 193.022 170.988C193.146 170.968 193.257 170.921 193.348 170.852C193.402 170.813 193.473 170.801 193.536 170.819C193.692 170.867 193.889 170.858 194.137 170.784C194.626 170.633 195.132 170.24 195.272 169.88C195.277 169.925 195.299 169.978 195.344 170.033C195.438 170.151 195.597 170.232 195.668 170.182C195.738 170.129 195.687 169.967 195.589 169.853C195.58 169.845 195.574 169.839 195.566 169.832L195.625 169.806C195.885 169.67 195.99 169.391 195.866 169.196C195.744 169.005 195.461 168.956 195.227 169.078Z" fill="black"/>
<path d="M192.032 177.44V177.507C192.021 177.503 192.013 177.5 192.001 177.495C191.854 177.454 191.684 177.48 191.662 177.57C191.648 177.659 191.792 177.769 191.942 177.8C192.013 177.815 192.071 177.81 192.115 177.795C191.844 178.085 191.738 178.739 191.833 179.208C191.878 179.444 191.962 179.608 192.062 179.711C192.103 179.754 192.12 179.816 192.104 179.872C192.058 180.026 192.062 180.17 192.125 180.339C192.215 180.562 192.43 180.735 192.676 180.778C193.139 180.863 193.531 180.474 193.465 179.982C193.445 179.861 193.403 179.742 193.339 179.656C193.302 179.604 193.293 179.537 193.315 179.477C193.369 179.33 193.379 179.156 193.338 178.935C193.252 178.505 193.02 178.051 192.772 177.79C192.816 177.804 192.875 177.806 192.944 177.793C193.094 177.763 193.237 177.684 193.221 177.618C193.211 177.553 193.045 177.516 192.893 177.536C192.882 177.539 192.873 177.541 192.863 177.544C192.866 177.525 192.871 177.508 192.873 177.488C192.884 177.242 192.736 177.013 192.509 176.972C192.278 176.931 192.047 177.138 192.032 177.44Z" fill="black"/>
<path d="M190.421 175.617L190.401 175.681C190.392 175.674 190.385 175.668 190.376 175.66C190.248 175.577 190.078 175.551 190.029 175.63C189.987 175.711 190.091 175.858 190.224 175.933C190.286 175.969 190.343 175.981 190.39 175.98C190.042 176.175 189.736 176.766 189.68 177.241C189.649 177.479 189.678 177.66 189.74 177.789C189.766 177.842 189.764 177.905 189.731 177.955C189.639 178.088 189.598 178.226 189.605 178.405C189.621 178.644 189.772 178.874 189.992 178.988C190.407 179.208 190.902 178.955 190.992 178.467C191.011 178.345 191.009 178.22 190.974 178.119C190.955 178.058 190.968 177.991 191.007 177.941C191.104 177.817 191.169 177.655 191.198 177.431C191.251 176.997 191.172 176.495 191.017 176.173C191.055 176.198 191.11 176.218 191.18 176.226C191.332 176.243 191.493 176.21 191.498 176.143C191.509 176.078 191.363 175.994 191.212 175.967C191.2 175.966 191.191 175.966 191.18 175.965C191.189 175.949 191.2 175.933 191.207 175.915C191.294 175.684 191.225 175.422 191.022 175.315C190.816 175.206 190.53 175.335 190.421 175.617Z" fill="black"/>
<path d="M194.108 173.301L194.068 173.352C194.063 173.342 194.059 173.334 194.052 173.323C193.963 173.2 193.817 173.113 193.75 173.165C193.683 173.217 193.721 173.386 193.813 173.506C193.856 173.562 193.902 173.597 193.946 173.614C193.557 173.651 193.033 174.012 192.754 174.44C192.615 174.658 192.545 174.837 192.554 175.003C192.556 175.069 192.528 175.135 192.476 175.177C192.336 175.288 192.22 175.454 192.192 175.667C192.138 175.95 192.263 176.221 192.488 176.346C192.896 176.563 193.374 176.366 193.527 176.018C193.569 175.928 193.594 175.834 193.592 175.737C193.592 175.681 193.623 175.63 193.674 175.603C193.79 175.536 193.925 175.433 194.037 175.256C194.261 174.912 194.446 174.401 194.441 174.038C194.465 174.077 194.506 174.116 194.568 174.151C194.702 174.225 194.869 174.253 194.906 174.189C194.944 174.126 194.841 173.992 194.711 173.914C194.7 173.909 194.692 173.906 194.682 173.901L194.726 173.861C194.9 173.662 194.937 173.39 194.77 173.226C194.609 173.067 194.299 173.085 194.108 173.301Z" fill="black"/>
<path d="M197.091 169.87L197.047 169.917C197.042 169.906 197.039 169.898 197.034 169.887C196.958 169.756 196.822 169.655 196.749 169.7C196.676 169.745 196.698 169.917 196.777 170.045C196.814 170.105 196.856 170.144 196.898 170.166C196.508 170.165 195.949 170.472 195.627 170.871C195.467 171.074 195.379 171.245 195.372 171.412C195.367 171.477 195.332 171.54 195.276 171.577C195.126 171.674 194.993 171.827 194.944 172.037C194.861 172.313 194.958 172.595 195.169 172.741C195.553 172.997 196.048 172.848 196.236 172.517C196.287 172.431 196.322 172.34 196.329 172.244C196.335 172.187 196.372 172.139 196.425 172.118C196.547 172.062 196.692 171.973 196.822 171.808C197.079 171.488 197.316 170.998 197.348 170.635C197.367 170.677 197.405 170.72 197.463 170.761C197.588 170.848 197.751 170.892 197.795 170.832C197.839 170.773 197.75 170.629 197.629 170.539C197.618 170.533 197.611 170.529 197.602 170.524L197.649 170.487C197.843 170.307 197.907 170.04 197.757 169.859C197.614 169.687 197.303 169.673 197.091 169.87Z" fill="black"/>
<path d="M181.787 191.243L181.72 191.242C181.724 191.232 181.728 191.223 181.733 191.212C181.782 191.069 181.76 190.902 181.668 190.88C181.583 190.861 181.472 190.997 181.436 191.142C181.42 191.211 181.422 191.267 181.435 191.311C181.163 191.048 180.583 190.885 180.111 190.926C179.873 190.944 179.698 191.014 179.579 191.105C179.529 191.144 179.464 191.159 179.403 191.141C179.242 191.092 179.052 191.102 178.867 191.187C178.615 191.303 178.453 191.563 178.482 191.806C178.556 192.258 178.948 192.535 179.32 192.471C179.418 192.454 179.505 192.412 179.585 192.357C179.631 192.324 179.691 192.32 179.742 192.345C179.868 192.41 180.026 192.435 180.238 192.42C180.654 192.384 181.154 192.198 181.416 191.955C181.402 191.998 181.397 192.055 181.408 192.124C181.431 192.272 181.504 192.416 181.569 192.404C181.627 192.394 181.667 192.232 181.656 192.084C181.654 192.072 181.653 192.064 181.651 192.054C181.667 192.057 181.683 192.062 181.701 192.063C181.766 192.067 181.79 192.064 181.842 192.049C181.905 192.041 181.964 192.022 182.016 191.994C182.12 191.939 182.194 191.849 182.218 191.737C182.242 191.626 182.211 191.514 182.144 191.425C182.11 191.38 182.068 191.34 182.018 191.309C181.955 191.277 181.855 191.246 181.787 191.243Z" fill="black"/>
<path d="M177.218 192.475L177.176 192.527C177.17 192.517 177.166 192.509 177.16 192.499C177.073 192.374 176.924 192.289 176.851 192.348C176.784 192.403 176.827 192.572 176.924 192.688C176.969 192.742 177.016 192.774 177.061 192.791C176.682 192.843 176.198 193.197 175.946 193.59C175.816 193.787 175.767 193.964 175.769 194.113C175.771 194.175 175.743 194.235 175.691 194.272C175.554 194.367 175.447 194.522 175.404 194.718C175.345 194.984 175.459 195.267 175.674 195.392C176.085 195.608 176.548 195.471 176.721 195.141C176.766 195.055 176.785 194.962 176.789 194.866C176.79 194.811 176.823 194.762 176.875 194.737C177.003 194.678 177.12 194.57 177.236 194.395C177.458 194.05 177.61 193.547 177.572 193.195C177.598 193.233 177.641 193.271 177.703 193.304C177.838 193.376 178 193.406 178.029 193.348C178.056 193.297 177.949 193.168 177.821 193.087C177.811 193.081 177.803 193.077 177.794 193.072C177.807 193.062 177.82 193.052 177.832 193.039C177.875 192.991 177.887 192.97 177.906 192.921C177.937 192.867 177.958 192.809 177.967 192.752C177.985 192.637 177.957 192.525 177.881 192.439C177.804 192.353 177.695 192.309 177.581 192.307C177.525 192.306 177.467 192.315 177.411 192.335C177.348 192.365 177.262 192.424 177.218 192.475Z" fill="black"/>
<path d="M185.955 191.467C185.936 191.47 185.918 191.476 185.899 191.481C185.901 191.47 185.902 191.461 185.904 191.449C185.911 191.299 185.859 191.141 185.789 191.137C185.718 191.132 185.651 191.277 185.639 191.427C185.634 191.496 185.643 191.552 185.661 191.594C185.373 191.375 184.867 191.233 184.455 191.228C184.245 191.222 184.089 191.264 183.967 191.339C183.918 191.371 183.858 191.367 183.809 191.338C183.68 191.256 183.524 191.22 183.352 191.251C183.12 191.284 182.908 191.449 182.814 191.68C182.635 192.101 182.92 192.564 183.39 192.605C183.506 192.616 183.618 192.6 183.718 192.564C183.777 192.541 183.843 192.554 183.896 192.587C184.022 192.669 184.2 192.72 184.442 192.727C184.922 192.733 185.493 192.519 185.735 192.234C185.725 192.279 185.728 192.335 185.75 192.402C185.797 192.545 185.913 192.677 185.992 192.652C186.071 192.624 186.078 192.456 186.027 192.316C186.022 192.305 186.018 192.298 186.013 192.288L186.075 192.283C186.351 192.24 186.537 192.022 186.49 191.799C186.445 191.576 186.205 191.427 185.955 191.467Z" fill="black"/>
<path d="M171.971 191.32C171.963 191.337 171.959 191.355 171.954 191.373C171.945 191.366 171.938 191.36 171.929 191.352C171.803 191.265 171.639 191.223 171.598 191.279C171.556 191.334 171.644 191.468 171.766 191.558C171.823 191.6 171.876 191.622 171.922 191.63C171.578 191.75 171.183 192.091 170.956 192.428C170.838 192.597 170.789 192.749 170.788 192.889C170.789 192.947 170.754 192.995 170.702 193.019C170.562 193.082 170.447 193.19 170.38 193.349C170.283 193.559 170.311 193.823 170.458 194.024C170.724 194.399 171.276 194.414 171.565 194.049C171.636 193.959 171.683 193.858 171.706 193.756C171.719 193.695 171.766 193.648 171.822 193.622C171.96 193.562 172.101 193.443 172.237 193.247C172.501 192.855 172.625 192.269 172.511 191.915C172.545 191.947 172.595 191.975 172.664 191.993C172.812 192.032 172.988 192.008 173.009 191.929C173.028 191.849 172.888 191.752 172.739 191.718C172.728 191.717 172.719 191.716 172.708 191.715L172.738 191.662C172.849 191.411 172.763 191.14 172.546 191.058C172.33 190.975 172.072 191.092 171.971 191.32Z" fill="black"/>
<path d="M189.786 190.062C189.769 190.072 189.755 190.085 189.74 190.096C189.737 190.086 189.735 190.077 189.731 190.065C189.675 189.926 189.56 189.803 189.494 189.827C189.428 189.851 189.43 190.016 189.483 190.158C189.508 190.224 189.54 190.27 189.574 190.301C189.214 190.211 188.697 190.296 188.32 190.453C188.133 190.544 188.002 190.63 187.923 190.746C187.891 190.792 187.837 190.818 187.781 190.811C187.632 190.796 187.475 190.819 187.33 190.909C187.134 191.033 187.01 191.275 187.015 191.516C187.022 191.98 187.469 192.281 187.923 192.138C188.036 192.107 188.131 192.043 188.207 191.967C188.252 191.922 188.316 191.903 188.379 191.914C188.529 191.938 188.72 191.928 188.939 191.823C189.382 191.638 189.806 191.203 189.911 190.854C189.921 190.899 189.948 190.95 189.996 191.001C190.098 191.111 190.256 191.18 190.316 191.124C190.377 191.069 190.314 190.914 190.208 190.806C190.198 190.798 190.192 190.793 190.184 190.786L190.238 190.758C190.475 190.614 190.551 190.338 190.414 190.15C190.281 189.967 190.002 189.931 189.786 190.062Z" fill="black"/>
<path d="M192.795 187.304C192.784 187.32 192.776 187.336 192.766 187.353C192.76 187.344 192.754 187.337 192.747 187.327C192.642 187.217 192.49 187.143 192.438 187.189C192.388 187.238 192.445 187.386 192.546 187.499C192.593 187.551 192.64 187.583 192.684 187.6C192.5 187.621 192.294 187.699 192.104 187.81C191.904 187.915 191.714 188.048 191.573 188.199C191.425 188.346 191.34 188.483 191.311 188.62C191.299 188.675 191.259 188.72 191.204 188.736C191.06 188.78 190.92 188.86 190.822 189.001C190.688 189.191 190.675 189.466 190.779 189.685C190.977 190.107 191.503 190.202 191.861 189.904C191.951 189.832 192.014 189.74 192.052 189.641C192.075 189.583 192.126 189.541 192.188 189.529C192.335 189.496 192.5 189.413 192.669 189.245C192.83 189.074 192.978 188.856 193.077 188.635C193.169 188.405 193.218 188.177 193.203 187.995C193.229 188.033 193.272 188.07 193.336 188.102C193.473 188.168 193.652 188.181 193.685 188.106C193.72 188.032 193.604 187.909 193.465 187.847C193.453 187.843 193.446 187.841 193.435 187.837L193.475 187.791C193.637 187.569 193.609 187.287 193.415 187.163C193.22 187.039 192.942 187.102 192.795 187.304Z" fill="black"/>
<path d="M194.478 183.648C194.473 183.667 194.472 183.685 194.469 183.704C194.46 183.698 194.452 183.694 194.441 183.688C194.301 183.63 194.13 183.622 194.099 183.685C194.068 183.748 194.188 183.861 194.327 183.924C194.392 183.953 194.449 183.964 194.495 183.962C194.189 184.151 193.876 184.568 193.725 184.94C193.656 185.133 193.635 185.288 193.659 185.423C193.669 185.478 193.649 185.534 193.605 185.567C193.488 185.66 193.397 185.787 193.358 185.951C193.308 186.174 193.399 186.432 193.577 186.598C193.918 186.919 194.45 186.819 194.667 186.404C194.725 186.304 194.741 186.191 194.742 186.086C194.742 186.023 194.773 185.965 194.825 185.929C194.953 185.844 195.072 185.701 195.154 185.476C195.332 185.038 195.325 184.437 195.133 184.116C195.173 184.14 195.228 184.158 195.3 184.16C195.452 184.167 195.615 184.105 195.619 184.024C195.623 183.944 195.467 183.878 195.313 183.876C195.301 183.877 195.292 183.878 195.282 183.879L195.301 183.821C195.358 183.554 195.205 183.306 194.978 183.271C194.746 183.235 194.529 183.405 194.478 183.648Z" fill="black"/>
<path d="M194.544 179.615C194.547 179.634 194.553 179.652 194.558 179.67C194.547 179.668 194.538 179.667 194.525 179.666C194.373 179.662 194.212 179.717 194.207 179.787C194.203 179.858 194.358 179.921 194.51 179.928C194.581 179.932 194.638 179.921 194.68 179.901C194.468 180.191 194.34 180.7 194.353 181.105C194.367 181.311 194.405 181.463 194.486 181.579C194.518 181.626 194.524 181.685 194.497 181.734C194.429 181.865 194.388 182.018 194.427 182.185C194.481 182.411 194.655 182.609 194.892 182.69C195.333 182.847 195.789 182.545 195.81 182.082C195.817 181.968 195.798 181.86 195.751 181.763C195.725 181.707 195.729 181.641 195.762 181.589C195.841 181.462 195.898 181.285 195.882 181.049C195.867 180.583 195.63 180.038 195.331 179.811C195.377 179.819 195.435 179.815 195.502 179.791C195.646 179.741 195.774 179.626 195.747 179.55C195.721 179.475 195.55 179.471 195.407 179.525C195.396 179.53 195.389 179.534 195.379 179.539L195.375 179.479C195.336 179.244 195.138 179.069 194.905 179.078C194.673 179.086 194.498 179.334 194.544 179.615Z" fill="black"/>
<path d="M194.993 175.242L194.976 175.303C194.967 175.296 194.96 175.291 194.95 175.283C194.821 175.201 194.653 175.173 194.609 175.249C194.566 175.324 194.667 175.466 194.799 175.54C194.862 175.575 194.918 175.588 194.965 175.588C194.634 175.771 194.314 176.305 194.249 176.772C194.213 177.008 194.241 177.188 194.308 177.323C194.335 177.378 194.333 177.444 194.302 177.496C194.221 177.638 194.181 177.814 194.222 178.001C194.273 178.255 194.478 178.457 194.721 178.51C195.18 178.606 195.58 178.283 195.603 177.887C195.61 177.786 195.591 177.689 195.552 177.6C195.529 177.548 195.541 177.49 195.578 177.446C195.667 177.339 195.731 177.193 195.762 176.992C195.818 176.593 195.76 176.099 195.591 175.783C195.629 175.809 195.684 175.829 195.754 175.838C195.906 175.857 196.069 175.829 196.076 175.766C196.083 175.703 195.935 175.619 195.786 175.591C195.774 175.59 195.765 175.589 195.755 175.589C195.763 175.573 195.772 175.557 195.778 175.54C195.867 175.325 195.784 175.072 195.586 174.962C195.379 174.849 195.103 174.974 194.993 175.242Z" fill="black"/>
<path d="M185.231 193.886L185.17 193.89C185.174 193.879 185.177 193.871 185.181 193.859C185.217 193.713 185.192 193.548 185.12 193.532C185.047 193.518 184.949 193.652 184.908 193.793C184.888 193.86 184.887 193.917 184.899 193.962C184.78 193.832 184.607 193.713 184.416 193.62C184.321 193.569 184.223 193.516 184.122 193.475C184.07 193.456 184.02 193.437 183.972 193.419L183.896 193.396C183.836 193.383 183.778 193.37 183.721 193.357C183.663 193.355 183.609 193.354 183.555 193.352C183.323 193.346 183.147 193.384 183.014 193.455C182.96 193.484 182.893 193.485 182.84 193.455C182.695 193.377 182.524 193.34 182.338 193.367C182.087 193.405 181.868 193.571 181.769 193.799C181.575 194.222 181.904 194.685 182.407 194.726C182.531 194.736 182.65 194.72 182.755 194.681C182.818 194.659 182.889 194.668 182.944 194.703C183.078 194.788 183.263 194.844 183.519 194.85C183.567 194.851 183.569 194.851 183.573 194.848L183.575 194.846C183.584 194.847 183.531 194.836 183.568 194.841L183.663 194.85C183.725 194.852 183.79 194.855 183.857 194.857C183.987 194.857 184.115 194.853 184.238 194.834C184.485 194.785 184.703 194.706 184.85 194.604C184.831 194.646 184.822 194.702 184.833 194.772C184.855 194.924 184.954 195.073 185.045 195.057C185.135 195.045 185.176 194.881 185.148 194.733C185.144 194.722 185.141 194.714 185.138 194.704L185.205 194.71C185.51 194.721 185.748 194.533 185.738 194.301C185.728 194.078 185.501 193.896 185.231 193.886Z" fill="black"/>
<path d="M189.52 192.927L189.467 192.959C189.465 192.948 189.464 192.939 189.462 192.927C189.425 192.781 189.325 192.646 189.251 192.666C189.175 192.682 189.149 192.845 189.182 192.992C189.197 193.06 189.224 193.11 189.255 193.145C188.893 193.03 188.326 193.064 187.902 193.187C187.685 193.246 187.538 193.338 187.435 193.444C187.393 193.485 187.331 193.503 187.273 193.488C187.116 193.447 186.947 193.465 186.779 193.538C186.551 193.63 186.38 193.852 186.346 194.099C186.274 194.555 186.704 194.916 187.214 194.827C187.338 194.802 187.451 194.753 187.545 194.688C187.6 194.65 187.672 194.639 187.738 194.659C187.894 194.7 188.094 194.69 188.347 194.621C188.845 194.476 189.361 194.084 189.523 193.733C189.526 193.779 189.546 193.832 189.589 193.889C189.68 194.01 189.836 194.098 189.91 194.05C189.982 193.999 189.94 193.835 189.845 193.717C189.837 193.709 189.831 193.703 189.823 193.695L189.885 193.671C190.152 193.539 190.278 193.27 190.167 193.07C190.056 192.87 189.766 192.805 189.52 192.927Z" fill="black"/>
<path d="M196.4 190.278L196.375 190.334C196.367 190.325 196.361 190.319 196.352 190.31C196.237 190.21 196.076 190.156 196.027 190.214C195.974 190.269 196.048 190.418 196.159 190.52C196.212 190.567 196.263 190.594 196.309 190.605C195.944 190.713 195.497 191.056 195.22 191.394C195.076 191.563 195.009 191.721 194.987 191.865C194.976 191.922 194.935 191.972 194.879 191.993C194.725 192.046 194.597 192.155 194.501 192.308C194.367 192.511 194.356 192.789 194.471 193.011C194.677 193.427 195.241 193.483 195.608 193.126C195.696 193.036 195.76 192.933 195.799 192.827C195.823 192.765 195.876 192.716 195.941 192.695C196.094 192.642 196.252 192.523 196.419 192.325C196.745 191.928 196.942 191.318 196.87 190.939C196.9 190.975 196.947 191.008 197.015 191.03C197.161 191.079 197.341 191.064 197.373 190.983C197.402 190.902 197.273 190.79 197.126 190.746C197.115 190.744 197.106 190.742 197.095 190.74L197.132 190.686C197.275 190.429 197.223 190.137 197.015 190.034C196.807 189.932 196.532 190.04 196.4 190.278Z" fill="black"/>
<path d="M193.186 190.383L193.144 190.43C193.14 190.42 193.136 190.412 193.13 190.401C193.049 190.273 192.91 190.176 192.844 190.218C192.78 190.261 192.808 190.427 192.885 190.555C192.921 190.615 192.963 190.654 193.004 190.677C192.619 190.678 192.086 190.905 191.725 191.178C191.545 191.321 191.43 191.45 191.374 191.589C191.351 191.645 191.301 191.687 191.241 191.698C191.082 191.729 190.92 191.798 190.793 191.935C190.621 192.122 190.555 192.394 190.626 192.627C190.761 193.072 191.3 193.227 191.717 192.952C191.822 192.887 191.904 192.802 191.961 192.704C191.995 192.647 192.055 192.61 192.121 192.603C192.278 192.584 192.466 192.518 192.665 192.361C193.066 192.058 193.408 191.529 193.449 191.151C193.468 191.193 193.504 191.237 193.563 191.278C193.69 191.365 193.863 191.4 193.913 191.33C193.964 191.261 193.872 191.119 193.746 191.035C193.735 191.03 193.727 191.026 193.717 191.021L193.768 190.98C193.98 190.778 194.017 190.486 193.85 190.327C193.684 190.167 193.386 190.193 193.186 190.383Z" fill="black"/>
<path d="M195.874 186.896L195.854 186.953C195.845 186.945 195.838 186.939 195.829 186.931C195.706 186.841 195.541 186.799 195.497 186.859C195.454 186.919 195.541 187.061 195.658 187.154C195.714 187.198 195.767 187.22 195.814 187.228C195.454 187.358 195.041 187.727 194.78 188.081C194.651 188.264 194.592 188.426 194.574 188.57C194.568 188.629 194.532 188.682 194.477 188.709C194.332 188.78 194.206 188.897 194.119 189.061C194.004 189.286 194.023 189.568 194.159 189.772C194.419 190.16 194.975 190.155 195.3 189.781C195.381 189.689 195.431 189.579 195.46 189.472C195.477 189.408 195.525 189.355 195.587 189.33C195.739 189.271 195.889 189.144 196.038 188.934C196.34 188.524 196.494 187.892 196.399 187.521C196.431 187.554 196.481 187.583 196.55 187.601C196.701 187.64 196.878 187.61 196.9 187.524C196.924 187.438 196.786 187.338 196.637 187.305C196.625 187.304 196.616 187.303 196.605 187.302L196.638 187.245C196.77 186.978 196.681 186.686 196.463 186.603C196.247 186.521 195.994 186.656 195.874 186.896Z" fill="black"/>
<path d="M196.878 182.632L196.879 182.694C196.868 182.69 196.86 182.686 196.848 182.682C196.701 182.64 196.532 182.658 196.509 182.734C196.487 182.809 196.621 182.915 196.767 182.959C196.836 182.979 196.894 182.981 196.939 182.97C196.657 183.227 196.423 183.753 196.343 184.19C196.309 184.414 196.32 184.585 196.37 184.722C196.391 184.779 196.383 184.842 196.346 184.89C196.25 185.017 196.177 185.17 196.178 185.354C196.182 185.604 196.302 185.843 196.519 185.976C196.913 186.226 197.436 185.994 197.557 185.508C197.591 185.389 197.594 185.271 197.57 185.16C197.556 185.096 197.575 185.028 197.619 184.979C197.727 184.86 197.814 184.685 197.852 184.437C197.942 183.946 197.825 183.335 197.594 183.029C197.637 183.048 197.694 183.057 197.765 183.048C197.917 183.03 198.07 182.942 198.063 182.859C198.056 182.775 197.89 182.73 197.739 182.75C197.727 182.753 197.719 182.755 197.708 182.758C197.712 182.737 197.716 182.716 197.717 182.695C197.737 182.409 197.564 182.167 197.332 182.155C197.099 182.142 196.896 182.356 196.878 182.632Z" fill="black"/>
<path d="M196.51 178.208C196.513 178.23 196.519 178.251 196.525 178.271C196.513 178.269 196.505 178.268 196.492 178.265C196.339 178.256 196.178 178.312 196.176 178.395C196.173 178.478 196.331 178.555 196.484 178.563C196.556 178.567 196.612 178.555 196.654 178.533C196.444 178.854 196.366 179.451 196.441 179.908C196.479 180.141 196.552 180.304 196.649 180.418C196.69 180.466 196.703 180.529 196.684 180.586C196.633 180.738 196.632 180.912 196.689 181.068C196.731 181.188 196.795 181.238 196.882 181.339C196.967 181.431 197.076 181.501 197.197 181.536C197.423 181.6 197.641 181.546 197.807 181.416C197.89 181.358 197.956 181.257 197.998 181.127C198.037 181.012 198.056 180.881 198.041 180.759C198.028 180.633 197.987 180.521 197.928 180.427C197.894 180.371 197.889 180.301 197.913 180.242C197.972 180.097 197.991 179.91 197.952 179.671C197.874 179.198 197.601 178.67 197.303 178.432C197.349 178.44 197.407 178.435 197.474 178.41C197.617 178.356 197.744 178.241 197.717 178.166C197.69 178.092 197.519 178.084 197.376 178.137C197.365 178.142 197.357 178.145 197.347 178.15L197.343 178.089C197.302 177.817 197.091 177.621 196.859 177.643C196.628 177.666 196.467 177.924 196.51 178.208Z" fill="black"/>
<path d="M177.068 186.938C177.063 186.955 177.061 186.972 177.057 186.99C177.048 186.983 177.041 186.978 177.031 186.971C176.895 186.898 176.735 186.868 176.697 186.916C176.658 186.963 176.759 187.085 176.885 187.17C176.943 187.209 176.997 187.23 177.043 187.236C176.723 187.365 176.312 187.643 176.067 187.952C175.933 188.106 175.861 188.248 175.842 188.387C175.834 188.443 175.798 188.491 175.745 188.509C175.594 188.554 175.46 188.647 175.368 188.797C175.249 189.003 175.23 189.268 175.349 189.486C175.565 189.892 176.112 189.976 176.455 189.641C176.541 189.56 176.604 189.466 176.643 189.367C176.665 189.307 176.714 189.258 176.776 189.239C176.924 189.192 177.088 189.089 177.253 188.899C177.571 188.507 177.777 187.879 177.643 187.5C177.677 187.532 177.728 187.559 177.798 187.573C177.948 187.604 178.127 187.558 178.151 187.468C178.173 187.376 178.021 187.285 177.87 187.269H177.839L177.865 187.207C177.968 186.916 177.823 186.641 177.59 186.606C177.363 186.573 177.146 186.724 177.068 186.938Z" fill="black"/>
<path d="M176.775 182.841L176.785 182.901C176.773 182.899 176.765 182.896 176.752 182.893C176.601 182.872 176.435 182.913 176.425 182.994C176.414 183.074 176.566 183.158 176.718 183.177C176.789 183.186 176.846 183.178 176.89 183.161C176.645 183.432 176.543 184.073 176.644 184.525C176.692 184.757 176.772 184.904 176.875 185.008C176.917 185.051 176.934 185.11 176.917 185.164C176.872 185.31 176.877 185.467 176.94 185.614C177.033 185.816 177.228 185.97 177.481 186.029C177.708 186.079 177.928 186.026 178.077 185.877C178.234 185.728 178.314 185.493 178.278 185.251C178.26 185.13 178.212 185.028 178.15 184.938C178.114 184.886 178.105 184.819 178.126 184.763C178.178 184.624 178.188 184.441 178.144 184.23C178.052 183.809 177.82 183.374 177.545 183.111C177.59 183.121 177.648 183.12 177.717 183.101C177.864 183.061 177.999 182.962 177.98 182.892C177.961 182.821 177.792 182.802 177.644 182.839C177.633 182.843 177.625 182.847 177.614 182.85L177.616 182.792C177.598 182.534 177.408 182.329 177.175 182.334C176.943 182.339 176.757 182.567 176.775 182.841Z" fill="black"/>
<path d="M177.421 178.426L177.401 178.486C177.393 178.479 177.386 178.473 177.377 178.465C177.251 178.379 177.083 178.345 177.036 178.417C176.99 178.489 177.084 178.635 177.212 178.715C177.273 178.753 177.328 178.769 177.375 178.771C177.04 178.942 176.672 179.466 176.59 179.949C176.535 180.192 176.568 180.38 176.623 180.522C176.647 180.579 176.642 180.646 176.611 180.701C176.527 180.844 176.48 181.027 176.517 181.219C176.566 181.482 176.758 181.69 177.006 181.75C177.461 181.858 177.869 181.532 177.901 181.132C177.911 181.03 177.895 180.932 177.858 180.84C177.835 180.787 177.848 180.728 177.888 180.685C177.988 180.582 178.045 180.434 178.092 180.235C178.159 179.835 178.145 179.331 177.991 178.997C178.027 179.025 178.081 179.048 178.151 179.059C178.302 179.085 178.469 179.06 178.48 178.993C178.492 178.926 178.349 178.836 178.2 178.804C178.188 178.803 178.18 178.802 178.169 178.801C178.178 178.784 178.188 178.769 178.196 178.751C178.289 178.521 178.228 178.261 178.019 178.152C177.818 178.047 177.531 178.161 177.421 178.426Z" fill="black"/>
<path d="M180.364 177.861L180.332 177.917C180.325 177.907 180.32 177.901 180.312 177.891C180.207 177.781 180.05 177.713 179.989 177.775C179.928 177.837 179.99 177.998 180.098 178.102C180.15 178.152 180.2 178.179 180.247 178.19C179.882 178.289 179.413 178.728 179.231 179.185C179.126 179.411 179.118 179.602 179.143 179.751C179.154 179.812 179.136 179.878 179.094 179.924C178.982 180.048 178.896 180.217 178.893 180.413C178.886 180.68 179.031 180.923 179.26 181.031C179.683 181.228 180.15 180.991 180.266 180.606C180.297 180.508 180.302 180.409 180.285 180.312C180.273 180.255 180.299 180.2 180.347 180.166C180.466 180.086 180.554 179.952 180.641 179.766C180.79 179.389 180.882 178.892 180.801 178.535C180.831 178.569 180.879 178.602 180.945 178.628C181.088 178.683 181.256 178.693 181.282 178.629C181.307 178.566 181.186 178.449 181.047 178.388C181.035 178.384 181.027 178.382 181.017 178.378C181.029 178.364 181.042 178.351 181.053 178.335C181.193 178.129 181.188 177.862 181.006 177.713C180.831 177.57 180.527 177.624 180.364 177.861Z" fill="black"/>
<path d="M180.355 174.994C180.338 175.007 180.323 175.022 180.308 175.036C180.304 175.025 180.301 175.017 180.297 175.005C180.234 174.868 180.109 174.754 180.033 174.792C179.959 174.83 179.966 175.002 180.033 175.137C180.064 175.2 180.102 175.242 180.142 175.268C179.757 175.23 179.193 175.482 178.842 175.815C178.667 175.994 178.573 176.162 178.539 176.311C178.523 176.37 178.486 176.429 178.428 176.456C178.275 176.534 178.127 176.661 178.05 176.848C177.946 177.105 177.988 177.382 178.171 177.561C178.506 177.879 179.022 177.816 179.261 177.511C179.325 177.434 179.365 177.345 179.384 177.251C179.397 177.196 179.435 177.151 179.494 177.139C179.634 177.108 179.773 177.03 179.918 176.881C180.221 176.594 180.487 176.13 180.545 175.776C180.561 175.819 180.594 175.865 180.648 175.911C180.763 176.01 180.919 176.07 180.966 176.016C181.013 175.962 180.938 175.811 180.826 175.71C180.817 175.703 180.81 175.698 180.801 175.692L180.85 175.661C181.064 175.518 181.134 175.246 181.009 175.054C180.883 174.862 180.59 174.835 180.355 174.994Z" fill="black"/>
<path d="M184.585 173.311L184.522 173.326C184.524 173.315 184.526 173.306 184.528 173.294C184.541 173.144 184.487 172.985 184.401 172.983C184.314 172.981 184.234 173.135 184.227 173.285C184.224 173.355 184.238 173.41 184.259 173.451C183.939 173.24 183.302 173.199 182.829 173.36C182.589 173.436 182.431 173.547 182.336 173.671C182.296 173.721 182.235 173.751 182.17 173.749C181.996 173.743 181.817 173.806 181.659 173.928C181.449 174.102 181.363 174.377 181.434 174.611C181.575 175.052 182.062 175.226 182.428 175.061C182.522 175.019 182.598 174.951 182.661 174.879C182.699 174.836 182.757 174.818 182.814 174.83C182.952 174.857 183.114 174.845 183.313 174.782C183.702 174.649 184.145 174.372 184.366 174.086C184.36 174.131 184.366 174.187 184.391 174.253C184.444 174.394 184.55 174.52 184.616 174.496C184.681 174.471 184.689 174.303 184.642 174.161C184.638 174.151 184.634 174.143 184.63 174.134L184.687 174.13C184.94 174.108 185.137 173.903 185.127 173.678C185.116 173.448 184.873 173.285 184.585 173.311Z" fill="black"/>
<path d="M180.28 193.318L180.227 193.353C180.225 193.342 180.223 193.333 180.221 193.321C180.18 193.176 180.072 193.045 179.99 193.073C179.909 193.101 179.889 193.273 179.936 193.415C179.958 193.482 179.99 193.529 180.025 193.56C179.65 193.473 179.039 193.653 178.654 193.966C178.456 194.12 178.348 194.278 178.303 194.426C178.284 194.487 178.237 194.536 178.175 194.556C178.011 194.61 177.865 194.731 177.761 194.899C177.626 195.135 177.645 195.421 177.794 195.617C178.084 195.981 178.603 195.977 178.886 195.696C178.96 195.625 179.005 195.535 179.04 195.446C179.06 195.393 179.108 195.356 179.165 195.348C179.304 195.326 179.451 195.258 179.616 195.132C179.932 194.874 180.248 194.463 180.353 194.118C180.363 194.163 180.389 194.213 180.436 194.266C180.536 194.38 180.68 194.462 180.733 194.416C180.786 194.37 180.733 194.211 180.638 194.094C180.63 194.086 180.624 194.08 180.616 194.073L180.669 194.05C180.899 193.942 181.009 193.682 180.919 193.475C180.827 193.263 180.541 193.194 180.28 193.318Z" fill="black"/>
<path d="M188.993 173.605L188.938 173.613C188.94 173.602 188.943 173.594 188.946 173.582C188.969 173.434 188.936 173.272 188.87 173.255C188.805 173.24 188.723 173.379 188.691 173.526C188.676 173.595 188.678 173.651 188.69 173.695C188.434 173.441 187.982 173.218 187.546 173.136C187.325 173.096 187.142 173.111 186.998 173.165C186.94 173.187 186.873 173.181 186.817 173.147C186.673 173.053 186.484 173.007 186.281 173.038C186.005 173.07 185.784 173.273 185.723 173.508C185.615 173.957 185.939 174.349 186.331 174.394C186.433 174.401 186.531 174.395 186.624 174.362C186.677 174.342 186.738 174.356 186.783 174.397C186.888 174.494 187.042 174.568 187.276 174.611C187.734 174.699 188.383 174.593 188.674 174.339C188.658 174.382 188.652 174.439 188.666 174.507C188.695 174.654 188.801 174.796 188.889 174.782C188.978 174.769 189.007 174.602 188.97 174.457C188.965 174.445 188.962 174.437 188.959 174.427C188.98 174.429 189.002 174.43 189.024 174.429C189.322 174.414 189.534 174.204 189.5 173.974C189.465 173.754 189.239 173.592 188.993 173.605Z" fill="black"/>
<path d="M192.773 172.077L192.728 172.115C192.724 172.104 192.721 172.096 192.717 172.084C192.653 171.949 192.53 171.833 192.462 171.861C192.394 171.89 192.404 172.055 192.466 172.193C192.494 172.257 192.53 172.302 192.567 172.33C192.203 172.279 191.672 172.404 191.306 172.59C191.119 172.686 191.003 172.801 190.928 172.912C190.898 172.959 190.845 172.987 190.789 172.983C190.638 172.974 190.487 173.009 190.347 173.098C190.161 173.232 190.039 173.461 190.042 173.707C190.037 174.169 190.507 174.479 190.986 174.307C191.105 174.269 191.198 174.194 191.276 174.115C191.321 174.068 191.387 174.044 191.453 174.051C191.615 174.073 191.8 174.029 192.023 173.914C192.464 173.688 192.866 173.227 192.941 172.859C192.955 172.903 192.984 172.952 193.036 173C193.147 173.103 193.311 173.162 193.369 173.104C193.427 173.045 193.354 172.894 193.241 172.793C193.231 172.786 193.224 172.781 193.215 172.774L193.269 172.743C193.503 172.587 193.554 172.293 193.413 172.118C193.267 171.935 192.99 171.933 192.773 172.077Z" fill="black"/>
<path d="M174.688 185.013L174.706 185.07C174.695 185.07 174.686 185.069 174.674 185.068C174.521 185.071 174.364 185.138 174.366 185.218C174.363 185.246 174.388 185.225 174.445 185.231C174.499 185.231 174.572 185.26 174.648 185.263C174.718 185.269 174.776 185.264 174.82 185.25C174.579 185.475 174.357 185.934 174.288 186.334C174.253 186.536 174.269 186.693 174.321 186.821C174.343 186.873 174.336 186.932 174.298 186.972C174.198 187.084 174.135 187.222 174.134 187.385C174.13 187.603 174.254 187.822 174.457 187.971C174.825 188.263 175.368 188.065 175.502 187.594C175.538 187.479 175.537 187.366 175.517 187.26C175.506 187.199 175.525 187.134 175.568 187.089C175.674 186.979 175.757 186.813 175.798 186.578C175.877 186.114 175.756 185.513 175.476 185.212C175.521 185.225 175.579 185.227 175.648 185.206C175.721 185.18 175.796 185.149 175.84 185.079C175.885 185.015 175.901 184.913 175.883 184.868C175.854 184.803 175.684 184.811 175.544 184.871C175.533 184.877 175.526 184.881 175.516 184.887L175.509 184.83C175.456 184.583 175.226 184.416 174.998 184.458C174.769 184.5 174.63 184.749 174.688 185.013Z" fill="black"/>
<path d="M174.394 180.678L174.393 180.739C174.382 180.734 174.374 180.731 174.362 180.726C174.217 180.681 174.046 180.695 174.023 180.772C173.999 180.85 174.133 180.958 174.279 181C174.348 181.019 174.405 181.019 174.452 181.009C174.175 181.256 173.968 181.818 173.985 182.284C173.984 182.52 174.053 182.691 174.138 182.813C174.174 182.863 174.184 182.928 174.161 182.985C174.097 183.138 174.097 183.316 174.165 183.493C174.256 183.735 174.482 183.903 174.737 183.921C175.202 183.95 175.551 183.567 175.509 183.166C175.495 183.065 175.462 182.971 175.412 182.889C175.382 182.84 175.382 182.78 175.411 182.73C175.486 182.609 175.512 182.452 175.514 182.244C175.499 181.835 175.346 181.336 175.106 181.059C175.15 181.076 175.207 181.083 175.278 181.076C175.43 181.059 175.582 180.987 175.575 180.918C175.567 180.848 175.403 180.802 175.251 180.815C175.239 180.817 175.231 180.819 175.22 180.821L175.231 180.766C175.252 180.516 175.101 180.288 174.873 180.252C174.642 180.216 174.417 180.406 174.394 180.678Z" fill="black"/>
<path d="M175.781 176.525L175.754 176.58C175.746 176.572 175.74 176.565 175.732 176.556C175.618 176.455 175.458 176.398 175.404 176.461C175.35 176.523 175.425 176.677 175.542 176.774C175.596 176.819 175.648 176.843 175.695 176.852C175.507 176.906 175.319 177.046 175.147 177.226C174.968 177.403 174.822 177.627 174.739 177.849C174.649 178.072 174.627 178.254 174.668 178.403C174.683 178.463 174.668 178.528 174.626 178.573C174.516 178.696 174.426 178.86 174.433 179.055C174.434 179.319 174.584 179.556 174.812 179.658C175.238 179.843 175.708 179.609 175.806 179.228C175.836 179.133 175.84 179.035 175.823 178.941C175.812 178.885 175.835 178.83 175.88 178.795C175.985 178.709 176.087 178.584 176.164 178.394C176.234 178.204 176.282 177.983 176.308 177.768C176.329 177.55 176.313 177.331 176.27 177.162C176.302 177.195 176.351 177.225 176.419 177.247C176.565 177.293 176.733 177.29 176.754 177.225C176.775 177.158 176.645 177.05 176.502 176.999C176.491 176.997 176.482 176.995 176.472 176.992C176.483 176.977 176.495 176.963 176.504 176.946C176.624 176.727 176.596 176.465 176.401 176.335C176.211 176.209 175.915 176.282 175.781 176.525Z" fill="black"/>
<path d="M197.077 173.126L197.071 173.187C197.06 173.182 197.053 173.177 197.042 173.171C196.901 173.112 196.73 173.109 196.7 173.185C196.669 173.262 196.791 173.383 196.933 173.438C197 173.464 197.057 173.47 197.104 173.463C196.945 173.574 196.813 173.766 196.709 173.991C196.599 174.215 196.535 174.474 196.529 174.71C196.518 174.949 196.558 175.128 196.646 175.256C196.679 175.309 196.687 175.374 196.662 175.431C196.599 175.582 196.568 175.766 196.639 175.948C196.728 176.197 196.948 176.374 197.197 176.398C197.662 176.438 198.028 176.067 197.995 175.676C197.993 175.576 197.964 175.483 197.916 175.399C197.888 175.35 197.891 175.29 197.922 175.243C197.993 175.128 198.048 174.978 198.058 174.774C198.062 174.571 198.033 174.347 197.987 174.135C197.935 173.923 197.847 173.72 197.751 173.575C197.793 173.595 197.849 173.608 197.92 173.607C198.073 173.605 198.231 173.549 198.229 173.479C198.228 173.41 198.069 173.349 197.917 173.346C197.905 173.348 197.897 173.348 197.886 173.35C197.891 173.331 197.898 173.315 197.901 173.296C197.942 173.051 197.829 172.811 197.601 172.75C197.38 172.691 197.124 172.854 197.077 173.126Z" fill="black"/>
<path d="M178.806 173.322L178.759 173.362C178.755 173.352 178.753 173.344 178.749 173.332C178.684 173.196 178.559 173.082 178.484 173.117C178.41 173.152 178.419 173.321 178.486 173.455C178.518 173.517 178.556 173.56 178.595 173.586C178.225 173.555 177.66 173.779 177.32 174.106C177.141 174.263 177.056 174.432 177.022 174.578C177.009 174.639 176.967 174.69 176.909 174.713C176.753 174.775 176.605 174.888 176.525 175.067C176.41 175.306 176.441 175.584 176.603 175.771C176.906 176.116 177.437 176.104 177.687 175.798C177.757 175.725 177.804 175.639 177.83 175.547C177.846 175.493 177.89 175.452 177.947 175.44C178.086 175.411 178.218 175.328 178.379 175.189C178.676 174.901 178.953 174.457 178.999 174.094C179.015 174.136 179.048 174.183 179.102 174.229C179.217 174.328 179.374 174.39 179.422 174.338C179.47 174.285 179.393 174.136 179.281 174.034C179.271 174.027 179.265 174.022 179.256 174.016L179.305 173.987C179.51 173.836 179.576 173.567 179.45 173.38C179.319 173.187 179.029 173.159 178.806 173.322Z" fill="black"/>
<path d="M182.811 171.428L182.753 171.45C182.754 171.439 182.754 171.43 182.755 171.418C182.746 171.267 182.671 171.117 182.589 171.125C182.507 171.132 182.452 171.295 182.466 171.444C182.471 171.514 182.491 171.567 182.518 171.605C182.181 171.432 181.57 171.449 181.132 171.638C180.908 171.728 180.763 171.842 180.681 171.972C180.647 172.024 180.59 172.058 180.527 172.058C180.36 172.061 180.182 172.117 180.042 172.252C179.848 172.431 179.773 172.699 179.852 172.932C180.003 173.363 180.502 173.544 180.855 173.347C180.948 173.303 181.024 173.238 181.082 173.16C181.116 173.115 181.173 173.092 181.23 173.1C181.369 173.117 181.531 173.097 181.727 173.019C182.106 172.855 182.524 172.532 182.705 172.222C182.704 172.267 182.718 172.323 182.75 172.385C182.821 172.518 182.943 172.629 183.006 172.596C183.069 172.563 183.054 172.396 182.988 172.262C182.981 172.252 182.977 172.245 182.971 172.236L183.027 172.226C183.274 172.161 183.438 171.943 183.39 171.718C183.342 171.497 183.081 171.358 182.811 171.428Z" fill="black"/>
<path d="M187.262 171.177L187.199 171.174C187.204 171.164 187.208 171.156 187.214 171.145C187.267 171.004 187.26 170.837 187.181 170.811C187.102 170.786 186.985 170.912 186.937 171.054C186.914 171.12 186.911 171.177 186.92 171.222C186.679 170.935 186.106 170.719 185.624 170.722C185.38 170.719 185.201 170.782 185.074 170.863C185.022 170.897 184.955 170.906 184.897 170.882C184.74 170.823 184.555 170.822 184.371 170.886C184.119 170.968 183.95 171.209 183.934 171.451C183.912 171.914 184.301 172.237 184.703 172.205C184.805 172.196 184.899 172.157 184.983 172.108C185.032 172.08 185.093 172.082 185.143 172.112C185.264 172.187 185.421 172.218 185.63 172.22C186.042 172.218 186.551 172.078 186.842 171.861C186.823 171.903 186.813 171.958 186.818 172.028C186.828 172.178 186.894 172.329 186.965 172.324C187.035 172.318 187.089 172.16 187.083 172.011C187.081 171.999 187.08 171.991 187.079 171.98C187.097 171.985 187.115 171.99 187.134 171.993C187.386 172.023 187.63 171.889 187.675 171.663C187.719 171.442 187.541 171.212 187.262 171.177Z" fill="black"/>
<path d="M191.225 170.831L191.171 170.856C191.171 170.845 191.17 170.837 191.169 170.825C191.143 170.677 191.054 170.534 190.978 170.547C190.902 170.56 190.869 170.724 190.895 170.871C190.907 170.94 190.931 170.991 190.96 171.027C190.62 170.884 190.05 170.913 189.661 171.037C189.565 171.067 189.485 171.103 189.438 171.136C189.402 171.157 189.415 171.164 189.408 171.183C189.406 171.201 189.363 171.22 189.346 171.242C189.308 171.277 189.255 171.284 189.212 171.259C189.095 171.192 188.967 171.164 188.811 171.193C188.6 171.231 188.377 171.388 188.277 171.614C188.09 172.03 188.337 172.506 188.87 172.549C189 172.559 189.128 172.535 189.238 172.488C189.302 172.459 189.378 172.462 189.441 172.488C189.485 172.503 189.511 172.522 189.581 172.527C189.647 172.533 189.739 172.53 189.785 172.527C189.905 172.521 190.014 172.5 190.133 172.462C190.595 172.314 191.035 171.958 191.196 171.628C191.199 171.674 191.216 171.728 191.254 171.787C191.336 171.914 191.474 172.012 191.539 171.972C191.605 171.931 191.573 171.767 191.491 171.64C191.484 171.631 191.479 171.625 191.471 171.616L191.529 171.6C191.779 171.506 191.911 171.258 191.828 171.045C191.745 170.832 191.474 170.736 191.225 170.831Z" fill="black"/>
<path d="M171.993 181.927L172.007 181.992C171.996 181.989 171.987 181.987 171.974 181.985C171.821 181.968 171.658 182.02 171.655 182.109C171.651 182.197 171.807 182.283 171.96 182.294C172.031 182.299 172.088 182.287 172.13 182.265C171.909 182.59 171.88 183.255 171.975 183.677C172.024 183.905 172.104 184.064 172.205 184.175C172.247 184.221 172.265 184.284 172.248 184.343C172.204 184.5 172.211 184.674 172.281 184.844C172.38 185.075 172.596 185.243 172.846 185.283C173.311 185.37 173.693 184.939 173.611 184.452C173.592 184.331 173.547 184.222 173.484 184.13C173.447 184.076 173.439 184.007 173.46 183.946C173.513 183.798 173.523 183.608 173.472 183.366C173.36 182.865 173.07 182.411 172.78 182.172C172.826 182.18 172.883 182.174 172.951 182.151C173.096 182.099 173.226 181.992 173.202 181.921C173.178 181.851 173.007 181.839 172.861 181.885C172.851 181.89 172.843 181.893 172.833 181.897L172.831 181.837C172.793 181.572 172.609 181.362 172.372 181.372C172.145 181.381 171.952 181.631 171.993 181.927Z" fill="black"/>
<path d="M172.695 177.254L172.676 177.317C172.667 177.309 172.66 177.304 172.651 177.296C172.524 177.21 172.356 177.179 172.31 177.255C172.265 177.33 172.36 177.478 172.489 177.56C172.549 177.598 172.605 177.614 172.652 177.614C172.299 177.794 171.937 178.336 171.827 178.839C171.761 179.09 171.789 179.293 171.841 179.443C171.863 179.504 171.857 179.576 171.821 179.632C171.72 179.782 171.689 179.978 171.714 180.184C171.745 180.465 171.956 180.691 172.196 180.754C172.657 180.865 173.05 180.526 173.1 180.109C173.11 180.002 173.09 179.897 173.063 179.802C173.046 179.745 173.061 179.683 173.101 179.638C173.203 179.53 173.263 179.375 173.321 179.162C173.413 178.74 173.403 178.185 173.268 177.839C173.304 177.868 173.357 177.891 173.428 177.901C173.58 177.924 173.747 177.89 173.76 177.816C173.773 177.742 173.629 177.651 173.478 177.624C173.467 177.623 173.458 177.623 173.447 177.622L173.474 177.568C173.578 177.318 173.51 177.043 173.298 176.943C173.09 176.846 172.81 176.98 172.695 177.254Z" fill="black"/>
<path d="M175.343 173.343L175.301 173.393C175.296 173.383 175.291 173.376 175.285 173.364C175.199 173.241 175.053 173.152 174.982 173.203C174.91 173.252 174.95 173.427 175.039 173.549C175.081 173.606 175.127 173.641 175.17 173.659C174.78 173.701 174.245 174.052 173.938 174.453C173.787 174.659 173.716 174.841 173.701 174.998C173.695 175.062 173.659 175.122 173.601 175.157C173.454 175.252 173.332 175.406 173.265 175.599C173.168 175.86 173.251 176.152 173.435 176.317C173.792 176.624 174.302 176.496 174.542 176.134C174.601 176.041 174.634 175.938 174.647 175.836C174.657 175.776 174.699 175.725 174.756 175.701C174.896 175.643 175.03 175.531 175.165 175.347C175.438 174.992 175.657 174.465 175.659 174.089C175.682 174.129 175.723 174.17 175.784 174.205C175.917 174.281 176.083 174.303 176.127 174.24C176.17 174.175 176.069 174.04 175.938 173.962C175.927 173.957 175.919 173.953 175.909 173.948L175.957 173.908C176.151 173.71 176.176 173.419 176.012 173.256C175.849 173.094 175.549 173.133 175.343 173.343Z" fill="black"/>
<path d="M172.332 186.811L172.342 186.875C172.331 186.872 172.323 186.87 172.31 186.867C172.158 186.848 171.994 186.897 171.985 186.982C171.975 187.067 172.135 187.154 172.287 187.169C172.359 187.177 172.416 187.167 172.458 187.147C172.231 187.461 172.143 188.085 172.244 188.577C172.301 188.824 172.394 188.997 172.503 189.112C172.547 189.159 172.569 189.226 172.557 189.291C172.533 189.462 172.568 189.654 172.671 189.832C172.805 190.076 173.084 190.209 173.332 190.183C173.803 190.127 174.044 189.669 173.928 189.252C173.896 189.147 173.84 189.055 173.77 188.977C173.732 188.93 173.721 188.866 173.74 188.808C173.788 188.667 173.793 188.494 173.743 188.274C173.653 187.837 173.396 187.327 173.111 187.076C173.157 187.085 173.215 187.082 173.283 187.061C173.429 187.014 173.556 186.908 173.537 186.833C173.516 186.759 173.346 186.743 173.199 186.786C173.188 186.791 173.181 186.795 173.17 186.799L173.171 186.737C173.149 186.464 172.943 186.252 172.711 186.264C172.479 186.275 172.309 186.52 172.332 186.811Z" fill="black"/>
<path d="M179.055 170.397L178.998 170.432C178.996 170.421 178.995 170.412 178.993 170.4C178.95 170.256 178.838 170.128 178.752 170.156C178.668 170.186 178.65 170.363 178.698 170.506C178.72 170.573 178.753 170.62 178.789 170.649C178.402 170.578 177.771 170.767 177.37 171.078C177.162 171.23 177.044 171.385 176.99 171.534C176.966 171.594 176.915 171.643 176.852 171.661C176.68 171.707 176.521 171.816 176.404 171.982C176.243 172.206 176.223 172.493 176.35 172.71C176.584 173.109 177.127 173.15 177.466 172.856C177.55 172.779 177.617 172.695 177.661 172.6C177.687 172.545 177.741 172.506 177.802 172.498C177.952 172.475 178.114 172.403 178.299 172.269C178.655 171.991 179.012 171.561 179.124 171.203C179.135 171.248 179.161 171.298 179.209 171.35C179.313 171.461 179.463 171.534 179.521 171.485C179.579 171.438 179.526 171.28 179.426 171.165C179.417 171.157 179.411 171.151 179.403 171.144L179.46 171.12C179.701 170.993 179.818 170.726 179.722 170.523C179.621 170.313 179.322 170.256 179.055 170.397Z" fill="black"/>
<path d="M183.693 169.162L183.628 169.172C183.631 169.161 183.633 169.152 183.636 169.14C183.659 168.991 183.614 168.83 183.527 168.822C183.44 168.813 183.347 168.961 183.328 169.11C183.318 169.179 183.327 169.235 183.347 169.278C183.032 169.046 182.392 168.946 181.883 169.046C181.625 169.091 181.446 169.191 181.327 169.296C181.279 169.34 181.21 169.362 181.143 169.351C180.966 169.331 180.767 169.366 180.584 169.469C180.336 169.617 180.202 169.885 180.236 170.127C180.31 170.586 180.783 170.812 181.196 170.693C181.302 170.661 181.393 170.607 181.471 170.537C181.517 170.499 181.582 170.488 181.641 170.508C181.784 170.558 181.954 170.555 182.179 170.516C182.617 170.431 183.14 170.191 183.404 169.919C183.393 169.964 183.394 170.021 183.415 170.088C183.459 170.232 183.565 170.365 183.641 170.345C183.717 170.324 183.737 170.158 183.697 170.013C183.692 170.003 183.689 169.995 183.685 169.985L183.747 169.985C184.026 169.963 184.249 169.781 184.242 169.55C184.236 169.326 183.991 169.138 183.693 169.162Z" fill="black"/>
<path d="M180.163 167.511L180.101 167.536C180.102 167.524 180.102 167.516 180.103 167.503C180.09 167.353 180.008 167.206 179.921 167.217C179.835 167.229 179.779 167.394 179.795 167.543C179.802 167.613 179.824 167.665 179.853 167.702C179.492 167.548 178.846 167.594 178.374 167.805C178.133 167.907 177.983 168.045 177.891 168.174C177.854 168.228 177.792 168.265 177.725 168.269C177.548 168.289 177.363 168.368 177.209 168.51C177.002 168.709 176.934 169 177.024 169.228C177.203 169.659 177.717 169.772 178.091 169.563C178.186 169.508 178.263 169.435 178.322 169.349C178.359 169.302 178.419 169.277 178.481 169.283C178.632 169.299 178.797 169.258 179.006 169.17C179.413 168.988 179.866 168.637 180.059 168.313C180.058 168.359 180.073 168.414 180.109 168.475C180.186 168.605 180.32 168.711 180.389 168.674C180.458 168.637 180.439 168.471 180.366 168.339C180.359 168.33 180.354 168.323 180.347 168.314L180.408 168.3C180.674 168.216 180.849 167.989 180.788 167.766C180.729 167.549 180.446 167.421 180.163 167.511Z" fill="black"/>
<path d="M188.401 169.332L188.337 169.334C188.341 169.323 188.344 169.315 188.349 169.303C188.389 169.158 188.367 168.992 188.288 168.973C188.209 168.954 188.103 169.088 188.06 169.232C188.041 169.299 188.041 169.356 188.053 169.401C187.783 169.131 187.219 168.913 186.736 168.876C186.491 168.857 186.304 168.89 186.163 168.958C186.106 168.986 186.036 168.987 185.978 168.957C185.825 168.877 185.636 168.842 185.42 168.881C185.147 168.941 184.931 169.138 184.871 169.378C184.756 169.828 185.138 170.219 185.57 170.234C185.683 170.24 185.792 170.221 185.893 170.183C185.953 170.16 186.02 170.169 186.073 170.205C186.199 170.292 186.375 170.352 186.618 170.37C187.098 170.406 187.701 170.277 188.009 170.043C187.991 170.086 187.984 170.142 187.994 170.211C188.016 170.36 188.107 170.507 188.192 170.497C188.277 170.488 188.32 170.325 188.296 170.177C188.293 170.165 188.291 170.157 188.288 170.146L188.352 170.156C188.645 170.172 188.893 169.995 188.898 169.768C188.904 169.539 188.684 169.348 188.401 169.332Z" fill="black"/>
<path d="M160.637 188.048C160.612 188.134 160.531 188.189 160.442 188.2C159.18 188.345 158.445 188.51 157.883 188.804C157.332 189.069 157.008 189.411 157.013 189.517C157.018 189.623 157.386 189.951 158.111 190.005C158.291 190.025 158.488 189.998 158.704 189.966C158.921 189.938 159.15 189.87 159.383 189.757C159.619 189.656 159.86 189.518 160.085 189.32C160.319 189.141 160.532 188.9 160.719 188.62C160.772 188.541 160.866 188.498 160.961 188.499C161.3 188.496 161.666 188.45 161.807 188.342C161.942 188.224 161.845 188.079 161.351 187.851C161.165 187.332 161.011 187.241 160.914 187.342C160.807 187.435 160.723 187.725 160.637 188.048Z" fill="black"/>
<path d="M163.397 183.89C163.436 183.971 163.425 184.068 163.369 184.137C162.522 185.085 162.143 185.739 161.927 186.312C161.721 186.869 161.733 187.345 161.81 187.418C161.886 187.494 162.378 187.476 162.942 187.021C163.502 186.587 164.065 185.591 163.862 184.266C163.844 184.173 163.874 184.077 163.945 184.016C164.487 183.571 164.871 182.985 163.807 183.281C162.842 182.742 163.125 183.306 163.397 183.89Z" fill="black"/>
<path d="M163.147 178.847C163.222 178.895 163.26 178.985 163.248 179.073C163.065 180.312 163.103 181.093 163.297 181.698C163.46 182.286 163.778 182.651 163.887 182.661C163.994 182.672 164.357 182.36 164.543 181.684C164.708 181.03 164.642 179.934 163.733 178.921C163.67 178.851 163.648 178.752 163.678 178.662C163.864 178.008 163.888 177.283 163.148 178.12C162.065 178.187 162.573 178.512 163.147 178.847Z" fill="black"/>
<path d="M159.87 175.089C159.959 175.072 160.056 175.098 160.104 175.178C160.819 176.212 161.302 176.767 161.823 177.121C162.057 177.309 162.296 177.426 162.489 177.495C162.668 177.572 162.808 177.593 162.857 177.566C162.903 177.54 162.959 177.413 162.979 177.202C162.985 177 162.944 176.717 162.815 176.381C162.657 176.068 162.419 175.689 162.002 175.381C161.602 175.063 161.028 174.818 160.355 174.743C160.263 174.726 160.171 174.683 160.128 174.598C159.812 173.973 159.29 173.476 159.363 174.56C158.624 175.369 159.231 175.21 159.87 175.089Z" fill="black"/>
<path d="M154.824 174.513C154.881 174.444 154.973 174.407 155.061 174.431C156.29 174.767 157.074 174.825 157.697 174.753C158.307 174.671 158.725 174.471 158.761 174.354C158.791 174.269 158.556 173.821 157.888 173.547C157.246 173.258 156.106 173.184 154.963 173.94C154.885 173.993 154.784 174.012 154.697 173.976C154.044 173.696 153.318 173.648 154.087 174.43C154.056 175.516 154.414 175.009 154.824 174.513Z" fill="black"/>
<path d="M150.714 177.357C150.707 177.27 150.754 177.185 150.832 177.14C151.938 176.525 152.543 176.093 152.955 175.632C153.35 175.177 153.544 174.768 153.492 174.654C153.471 174.606 153.349 174.543 153.14 174.513C152.93 174.48 152.63 174.478 152.289 174.599C151.612 174.8 150.67 175.52 150.412 176.856C150.395 176.949 150.33 177.027 150.24 177.06C149.591 177.316 149.004 177.756 150.13 177.803C150.859 178.597 150.792 178 150.714 177.357Z" fill="black"/>
<path d="M149.496 182.235C149.436 182.168 149.423 182.071 149.458 181.989C149.988 180.837 150.158 180.073 150.14 179.45C150.138 178.845 149.965 178.413 149.864 178.37C149.765 178.328 149.304 178.512 148.939 179.123C148.593 179.718 148.366 180.79 148.949 181.999C148.991 182.083 148.986 182.184 148.933 182.261C148.73 182.541 148.575 182.854 148.598 183.022C148.614 183.194 148.79 183.202 149.269 182.931C149.803 183.077 149.969 183.008 149.945 182.866C149.914 182.723 149.704 182.486 149.496 182.235Z" fill="black"/>
<path d="M151.245 186.932C151.157 186.914 151.086 186.846 151.064 186.761C150.801 185.547 150.544 184.833 150.197 184.31C149.853 183.804 149.483 183.526 149.36 183.549C149.27 183.564 148.966 183.967 149.006 184.67C149.022 185.35 149.438 186.42 150.662 187.068C150.749 187.111 150.808 187.194 150.814 187.287C150.828 187.634 150.917 187.975 151.044 188.098C151.17 188.226 151.308 188.12 151.506 187.611C152.011 187.394 152.092 187.235 151.987 187.143C151.877 187.052 151.563 187.006 151.245 186.932Z" fill="black"/>
<path d="M155.707 189.22C155.631 189.265 155.532 189.26 155.456 189.21C154.395 188.515 153.722 188.187 153.111 188.049C152.52 187.908 152.057 187.935 151.982 188.025C151.919 188.097 151.957 188.6 152.481 189.103C152.98 189.593 154.057 190.077 155.386 189.705C155.478 189.68 155.578 189.704 155.649 189.769C156.171 190.21 156.825 190.552 156.376 189.533C156.785 188.55 156.264 188.853 155.707 189.22Z" fill="black"/>
<path d="M160.638 192.883C160.592 192.957 160.506 192.997 160.42 192.986C159.809 192.91 159.302 192.85 158.889 192.913C158.465 192.926 158.122 193.018 157.841 193.143C157.278 193.357 156.962 193.69 156.966 193.805C156.968 193.903 157.31 194.237 157.968 194.357C158.295 194.4 158.7 194.39 159.156 194.283C159.6 194.124 160.109 193.909 160.575 193.461C160.641 193.398 160.735 193.376 160.822 193.405C161.136 193.51 161.473 193.592 161.626 193.537C161.777 193.475 161.737 193.305 161.356 192.928C161.344 192.382 161.236 192.243 161.111 192.307C160.98 192.365 160.808 192.61 160.638 192.883Z" fill="black"/>
<path d="M164.832 190.335C164.822 190.419 164.759 190.489 164.675 190.513C164.373 190.601 164.119 190.7 163.891 190.801C163.65 190.886 163.443 190.982 163.264 191.086C162.917 191.309 162.623 191.495 162.423 191.722C162.223 191.948 162.083 192.161 161.993 192.324C161.907 192.494 161.881 192.628 161.905 192.677C161.927 192.724 162.049 192.789 162.25 192.827C162.454 192.872 162.731 192.873 163.05 192.777C163.367 192.682 163.759 192.542 164.101 192.213C164.278 192.057 164.454 191.872 164.62 191.659C164.773 191.43 164.91 191.164 165.029 190.873C165.062 190.791 165.14 190.733 165.232 190.724C165.892 190.631 166.528 190.383 165.478 190.047C164.957 189.104 164.881 189.7 164.832 190.335Z" fill="black"/>
<path d="M167.422 186.212C167.453 186.294 167.433 186.385 167.372 186.445C166.902 186.856 166.597 187.233 166.357 187.571C166.104 187.901 165.994 188.237 165.894 188.512C165.706 189.065 165.787 189.531 165.874 189.6C165.957 189.664 166.416 189.607 166.938 189.18C167.201 188.971 167.42 188.635 167.619 188.217C167.803 187.792 167.889 187.241 167.85 186.619C167.839 186.529 167.878 186.443 167.953 186.394C168.508 186.034 169.009 185.563 167.895 185.685C167.035 185.048 167.188 185.616 167.422 186.212Z" fill="black"/>
<path d="M168.149 181.388C168.208 181.454 168.222 181.547 168.186 181.625C167.914 182.177 167.738 182.643 167.678 183.053C167.577 183.459 167.576 183.81 167.623 184.109C167.688 184.697 167.931 185.083 168.044 185.111C168.142 185.135 168.563 184.901 168.853 184.31C168.982 184.014 169.08 183.631 169.096 183.174C169.071 182.716 168.977 182.184 168.696 181.618C168.654 181.539 168.659 181.444 168.712 181.373C169.102 180.846 169.402 180.242 168.402 180.73C167.367 180.422 167.716 180.91 168.149 181.388Z" fill="black"/>
<path d="M167.124 176.623C167.203 176.662 167.25 176.744 167.245 176.828C167.199 177.436 167.201 177.928 167.281 178.331C167.33 178.744 167.452 179.073 167.603 179.337C167.853 179.873 168.232 180.152 168.344 180.141C168.448 180.13 168.746 179.772 168.83 179.118C168.845 178.796 168.802 178.402 168.655 177.967C168.476 177.541 168.193 177.068 167.718 176.641C167.649 176.582 167.619 176.491 167.641 176.405C167.725 176.091 167.777 175.758 167.717 175.611C167.647 175.466 167.479 175.516 167.115 175.918C166.567 175.966 166.432 176.082 166.502 176.202C166.565 176.329 166.833 176.477 167.124 176.623Z" fill="black"/>
<path d="M164.231 172.703C164.318 172.707 164.393 172.763 164.425 172.844C164.884 173.96 165.329 174.586 165.813 174.96C166.295 175.321 166.711 175.461 166.822 175.4C166.902 175.358 167.078 174.888 166.844 174.274C166.718 173.976 166.558 173.595 166.197 173.285C166.025 173.125 165.824 172.967 165.594 172.82C165.361 172.676 165.07 172.57 164.767 172.473C164.68 172.446 164.616 172.375 164.6 172.285C164.469 171.637 164.162 171.045 163.896 172.09C162.967 172.669 163.59 172.69 164.231 172.703Z" fill="black"/>
<path d="M159.855 170.463C159.936 170.426 160.03 170.438 160.096 170.493C160.999 171.339 161.707 171.655 162.302 171.792C162.879 171.935 163.355 171.816 163.412 171.734C163.478 171.641 163.382 171.205 162.91 170.726C162.446 170.263 161.515 169.834 160.237 170.013C160.147 170.031 160.055 170 160 169.93C159.591 169.419 159.072 168.968 159.281 170.044C158.699 170.936 159.264 170.74 159.855 170.463Z" fill="black"/>
<path d="M154.895 170.142C154.956 170.077 155.049 170.055 155.131 170.082C155.717 170.308 156.201 170.421 156.622 170.463C157.042 170.527 157.399 170.498 157.7 170.426C158.291 170.329 158.667 170.049 158.687 169.939C158.704 169.839 158.433 169.459 157.808 169.209C157.496 169.109 157.098 169.045 156.632 169.068C156.166 169.115 155.629 169.271 155.078 169.585C155.001 169.635 154.904 169.639 154.826 169.594C154.252 169.266 153.6 169.034 154.203 169.959C154 170.997 154.453 170.611 154.895 170.142Z" fill="black"/>
<path d="M150.224 171.729C150.252 171.648 150.328 171.592 150.415 171.585C151.021 171.514 151.531 171.479 151.919 171.333C152.321 171.221 152.642 171.079 152.888 170.898C153.39 170.575 153.637 170.195 153.611 170.081C153.591 169.987 153.189 169.717 152.516 169.733C152.187 169.76 151.783 169.835 151.364 170.05C150.96 170.297 150.502 170.605 150.155 171.156C150.104 171.23 150.016 171.272 149.925 171.261C149.238 171.169 148.589 171.307 149.52 171.853C149.819 172.905 150.004 172.303 150.224 171.729Z" fill="black"/>
<path d="M146.754 175.163C146.741 175.077 146.775 174.988 146.856 174.948C147.414 174.651 147.775 174.338 148.1 174.073C148.254 173.934 148.379 173.793 148.482 173.651C148.591 173.515 148.691 173.391 148.765 173.262C148.917 173.009 148.993 172.759 149.032 172.57C149.078 172.389 149.073 172.253 149.038 172.211C149.005 172.17 148.87 172.133 148.663 172.139C148.463 172.153 148.202 172.225 147.903 172.379C147.756 172.458 147.594 172.552 147.443 172.683C147.299 172.819 147.154 172.981 147.016 173.17C146.722 173.533 146.534 174.067 146.427 174.679C146.409 174.763 146.358 174.843 146.274 174.875C145.661 175.118 145.076 175.484 146.188 175.586C146.901 176.384 146.863 175.798 146.754 175.163Z" fill="black"/>
<path d="M145.114 179.748C145.068 179.674 145.071 179.58 145.12 179.51C145.478 179.011 145.74 178.588 145.875 178.198C146.051 177.821 146.117 177.478 146.126 177.176C146.191 176.596 146.018 176.163 145.916 176.115C145.822 176.07 145.377 176.223 144.96 176.745C144.777 177.014 144.607 177.375 144.504 177.824C144.443 178.28 144.432 178.825 144.616 179.43C144.644 179.515 144.622 179.608 144.557 179.67C144.08 180.125 143.677 180.673 144.749 180.354C145.714 180.826 145.457 180.291 145.114 179.748Z" fill="black"/>
<path d="M145.254 184.63C145.184 184.576 145.154 184.487 145.175 184.405C145.357 183.814 145.43 183.33 145.435 182.915C145.463 182.497 145.402 182.15 145.302 181.862C145.142 181.29 144.825 180.952 144.711 180.945C144.608 180.939 144.244 181.242 144.056 181.87C143.982 182.183 143.952 182.575 144.017 183.027C144.104 183.476 144.309 183.986 144.674 184.497C144.73 184.568 144.742 184.662 144.703 184.742C144.416 185.329 144.232 185.982 145.125 185.321C146.198 185.438 145.768 185.025 145.254 184.63Z" fill="black"/>
<path d="M147.213 189.086C147.128 189.063 147.066 188.993 147.053 188.909C146.995 188.603 146.945 188.337 146.9 188.098C146.846 187.854 146.776 187.642 146.693 187.455C146.556 187.065 146.381 186.764 146.18 186.536C145.818 186.066 145.406 185.856 145.295 185.889C145.198 185.917 144.96 186.329 145.021 186.985C145.071 187.304 145.182 187.69 145.425 188.086C145.559 188.278 145.723 188.473 145.918 188.664C146.104 188.86 146.344 189.038 146.632 189.191C146.712 189.236 146.76 189.318 146.756 189.408C146.709 190.083 146.882 190.714 147.383 189.767C148.433 189.411 147.815 189.262 147.213 189.086Z" fill="black"/>
<path d="M150.93 192.261C150.841 192.284 150.754 192.247 150.707 192.172C150.363 191.652 150.027 191.313 149.735 191.015C149.584 190.874 149.43 190.762 149.28 190.67C149.141 190.565 149.002 190.482 148.867 190.416C148.318 190.168 147.863 190.141 147.78 190.214C147.701 190.283 147.654 190.762 148.022 191.314C148.111 191.453 148.222 191.6 148.358 191.747C148.506 191.879 148.682 192.009 148.884 192.131C149.275 192.393 149.827 192.551 150.46 192.609C150.548 192.62 150.629 192.673 150.669 192.75C150.959 193.33 151.374 193.876 151.401 192.783C152.164 192.029 151.57 192.109 150.93 192.261Z" fill="black"/>
<path d="M155.714 193.513C155.642 193.565 155.547 193.57 155.471 193.529C154.935 193.219 154.484 193.001 154.079 192.896C153.682 192.755 153.33 192.717 153.022 192.732C152.428 192.706 151.998 192.912 151.957 193.014C151.918 193.11 152.106 193.529 152.669 193.903C152.957 194.061 153.339 194.199 153.804 194.264C154.275 194.292 154.832 194.255 155.432 194.027C155.517 193.992 155.613 194.006 155.681 194.064C156.185 194.491 156.78 194.838 156.361 193.819C156.757 192.836 156.237 193.133 155.714 193.513Z" fill="black"/>
<path d="M159.237 191.171C159.186 191.243 159.095 191.279 159.008 191.265C158.383 191.125 157.891 191.088 157.461 191.063C157.035 191.068 156.678 191.102 156.378 191.179C155.782 191.356 155.411 191.599 155.397 191.724C155.391 191.776 155.462 191.894 155.618 192.028C155.773 192.169 156.015 192.318 156.348 192.4C156.68 192.494 157.103 192.55 157.588 192.451C158.072 192.384 158.616 192.142 159.135 191.748C159.207 191.688 159.306 191.669 159.393 191.701C160.042 191.957 160.74 192.001 159.967 191.234C159.968 190.148 159.617 190.662 159.237 191.171Z" fill="black"/>
<path d="M163.476 188.52C163.472 188.607 163.41 188.68 163.327 188.712C162.163 189.178 161.505 189.581 161.087 190.038C160.665 190.464 160.503 190.909 160.544 191.001C160.59 191.104 161.037 191.267 161.72 191.09C162.058 191.002 162.432 190.794 162.805 190.478C162.98 190.305 163.153 190.103 163.315 189.872C163.475 189.641 163.593 189.349 163.704 189.048C163.733 188.962 163.811 188.899 163.903 188.88C164.554 188.719 165.207 188.419 164.111 188.171C163.53 187.274 163.475 187.863 163.476 188.52Z" fill="black"/>
<path d="M165.7 184.049C165.74 184.129 165.733 184.225 165.676 184.293C165.244 184.769 164.991 185.192 164.773 185.56C164.588 185.94 164.458 186.268 164.399 186.567C164.293 187.167 164.359 187.601 164.465 187.67C164.539 187.72 165.05 187.643 165.504 187.132C165.979 186.647 166.396 185.691 166.171 184.413C166.153 184.324 166.18 184.23 166.25 184.171C166.759 183.737 167.203 183.197 166.11 183.453C165.182 182.903 165.4 183.466 165.7 184.049Z" fill="black"/>
<path d="M165.761 179.056C165.832 179.111 165.872 179.2 165.843 179.286C165.752 179.591 165.691 179.863 165.656 180.112C165.615 180.362 165.571 180.592 165.566 180.803C165.565 181.223 165.569 181.579 165.656 181.876C165.812 182.468 166.074 182.834 166.197 182.848C166.29 182.861 166.704 182.575 166.901 181.93C167.105 181.302 167.118 180.258 166.343 179.189C166.296 179.113 166.272 179.018 166.311 178.935C166.581 178.323 166.725 177.636 165.866 178.346C164.785 178.264 165.236 178.661 165.761 179.056Z" fill="black"/>
<path d="M163.359 174.721C163.447 174.731 163.52 174.794 163.548 174.877C163.912 176.058 164.311 176.707 164.721 177.168C165.149 177.601 165.548 177.81 165.663 177.769C165.753 177.738 165.994 177.295 165.839 176.628C165.727 175.965 165.157 175.037 163.918 174.533C163.83 174.499 163.768 174.422 163.756 174.33C163.663 173.655 163.364 173.033 163.054 174.073C162.088 174.597 162.716 174.65 163.359 174.721Z" fill="black"/>
<path d="M158.934 172.344C159.017 172.303 159.114 172.314 159.181 172.378C160.142 173.185 160.83 173.556 161.445 173.69C162.03 173.846 162.499 173.779 162.57 173.687C162.631 173.61 162.565 173.136 162.078 172.638C161.594 172.173 160.635 171.672 159.312 171.895C159.222 171.904 159.127 171.875 159.067 171.808C158.627 171.307 158.072 170.869 158.33 171.941C157.766 172.848 158.337 172.637 158.934 172.344Z" fill="black"/>
<path d="M153.874 172.4C153.925 172.327 154.016 172.291 154.102 172.305C154.728 172.445 155.219 172.484 155.649 172.509C156.074 172.501 156.431 172.477 156.73 172.394C157.326 172.229 157.699 171.977 157.714 171.854C157.726 171.766 157.433 171.353 156.765 171.173C156.117 170.972 155.028 171.012 153.975 171.821C153.903 171.883 153.805 171.902 153.718 171.87C153.068 171.617 152.369 171.571 153.144 172.338C153.145 173.423 153.495 172.911 153.874 172.4Z" fill="black"/>
<path d="M149.643 175.061C149.646 174.974 149.708 174.901 149.792 174.869C150.954 174.401 151.611 173.995 152.028 173.537C152.242 173.327 152.383 173.107 152.469 172.926C152.558 172.752 152.593 172.625 152.569 172.573C152.522 172.47 152.073 172.306 151.391 172.487C151.053 172.574 150.681 172.785 150.308 173.102C150.134 173.275 149.962 173.478 149.8 173.708C149.64 173.94 149.524 174.232 149.414 174.533C149.384 174.62 149.307 174.683 149.215 174.702C148.564 174.865 147.912 175.164 149.009 175.411C149.59 176.307 149.644 175.718 149.643 175.061Z" fill="black"/>
<path d="M147.421 179.535C147.381 179.455 147.389 179.359 147.446 179.291C147.877 178.816 148.131 178.393 148.348 178.024C148.534 177.643 148.664 177.316 148.721 177.016C148.827 176.417 148.761 175.982 148.655 175.913C148.581 175.863 148.07 175.941 147.616 176.452C147.143 176.938 146.725 177.894 146.951 179.171C146.969 179.261 146.942 179.355 146.872 179.413C146.363 179.847 145.919 180.388 147.012 180.132C147.94 180.682 147.723 180.118 147.421 179.535Z" fill="black"/>
<path d="M147.359 184.528C147.289 184.473 147.248 184.384 147.278 184.298C147.369 183.993 147.431 183.721 147.466 183.472C147.506 183.222 147.551 182.992 147.556 182.782C147.557 182.361 147.553 182.005 147.466 181.708C147.31 181.116 147.048 180.75 146.925 180.736C146.832 180.723 146.418 181.009 146.22 181.654C146.017 182.282 146.004 183.325 146.778 184.395C146.825 184.47 146.848 184.566 146.809 184.649C146.538 185.26 146.393 185.947 147.253 185.238C148.335 185.322 147.884 184.924 147.359 184.528Z" fill="black"/>
<path d="M149.752 188.87C149.664 188.859 149.59 188.797 149.563 188.713C149.202 187.532 148.806 186.88 148.396 186.419C147.969 185.984 147.57 185.775 147.456 185.815C147.365 185.847 147.125 186.289 147.277 186.956C147.387 187.619 147.954 188.549 149.192 189.056C149.279 189.09 149.341 189.168 149.353 189.26C149.446 189.933 149.742 190.559 150.056 189.519C151.021 188.998 150.396 188.941 149.752 188.87Z" fill="black"/>
<path d="M154.174 191.24C154.092 191.278 153.993 191.274 153.926 191.213C152.966 190.399 152.274 190.043 151.663 189.902C151.076 189.749 150.609 189.811 150.538 189.904C150.478 189.98 150.541 190.459 151.029 190.954C151.511 191.427 152.478 191.913 153.797 191.696C153.888 191.684 153.985 191.707 154.044 191.777C154.486 192.279 155.046 192.718 154.779 191.644C155.335 190.736 154.769 190.948 154.174 191.24Z" fill="black"/>
<path d="M125.236 171.375C125.486 170.061 124.187 168.648 122.747 169.288C122.701 169.301 122.642 169.355 122.699 169.399C123.802 170.057 124.29 171.584 123.802 172.861C123.794 172.897 123.806 172.913 123.825 172.921C123.833 172.94 123.848 172.953 123.877 172.944C125.032 172.405 126.414 172.942 127.009 174.163C127.052 174.227 127.096 174.159 127.11 174.11C127.684 172.52 126.423 171.099 125.236 171.375Z" fill="black"/>
<path d="M130.831 163.907C131.081 162.593 129.782 161.18 128.342 161.819C128.296 161.832 128.237 161.887 128.294 161.93C129.397 162.589 129.885 164.116 129.397 165.393C129.389 165.429 129.401 165.445 129.42 165.453C129.428 165.472 129.443 165.485 129.472 165.476C130.627 164.937 132.009 165.474 132.604 166.695C132.647 166.759 132.691 166.69 132.705 166.641C133.279 165.052 132.018 163.631 130.831 163.907Z" fill="black"/>
<path d="M141.783 162.246C142.033 160.932 140.735 159.519 139.295 160.159C139.249 160.171 139.19 160.226 139.246 160.27C140.35 160.928 140.837 162.455 140.35 163.733C140.341 163.768 140.353 163.784 140.372 163.792C140.38 163.811 140.395 163.824 140.424 163.815C141.58 163.276 142.962 163.813 143.557 165.034C143.6 165.098 143.643 165.03 143.658 164.981C144.231 163.391 142.97 161.97 141.783 162.246Z" fill="black"/>
<path d="M120.066 177.293C120.317 175.979 119.018 174.566 117.578 175.206C117.532 175.219 117.473 175.273 117.53 175.317C118.633 175.975 119.12 177.502 118.633 178.779C118.624 178.815 118.637 178.831 118.655 178.839C118.663 178.859 118.678 178.871 118.708 178.862C119.863 178.323 121.245 178.86 121.84 180.081C121.883 180.145 121.927 180.077 121.941 180.028C122.514 178.438 121.253 177.017 120.066 177.293Z" fill="black"/>
<path d="M114.56 186.999C114.81 185.685 113.511 184.272 112.071 184.911C112.026 184.924 111.967 184.979 112.023 185.022C113.127 185.68 113.614 187.208 113.127 188.485C113.118 188.52 113.13 188.537 113.149 188.545C113.157 188.564 113.172 188.577 113.201 188.568C114.356 188.029 115.738 188.566 116.334 189.786C116.376 189.851 116.42 189.782 116.434 189.733C117.008 188.143 115.747 186.723 114.56 186.999Z" fill="black"/>
<path d="M132.292 198.983C132.542 197.668 131.243 196.256 129.803 196.895C129.757 196.908 129.698 196.963 129.755 197.006C130.858 197.664 131.346 199.192 130.858 200.469C130.85 200.504 130.862 200.521 130.881 200.528C130.889 200.548 130.903 200.561 130.933 200.551C132.088 200.012 133.47 200.55 134.065 201.77C134.108 201.835 134.152 201.766 134.166 201.717C134.739 200.127 133.479 198.706 132.292 198.983Z" fill="black"/>
<path d="M129.813 171.375C130.063 170.061 128.765 168.648 127.325 169.288C127.279 169.301 127.22 169.355 127.276 169.399C128.38 170.057 128.867 171.584 128.38 172.861C128.371 172.897 128.383 172.913 128.402 172.921C128.41 172.94 128.425 172.953 128.454 172.944C129.61 172.405 130.992 172.942 131.587 174.163C131.63 174.227 131.674 174.159 131.688 174.11C132.261 172.52 131 171.099 129.813 171.375Z" fill="black"/>
<path d="M134.39 171.375C134.64 170.061 133.342 168.648 131.901 169.288C131.855 169.301 131.797 169.355 131.853 169.399C132.957 170.057 133.444 171.584 132.957 172.861C132.948 172.897 132.961 172.913 132.979 172.921C132.987 172.94 133.002 172.953 133.031 172.944C134.187 172.405 135.569 172.942 136.164 174.163C136.207 174.227 136.251 174.159 136.265 174.11C136.838 172.52 135.577 171.099 134.39 171.375Z" fill="black"/>
<path d="M138.968 171.375C139.218 170.061 137.919 168.648 136.479 169.288C136.433 169.301 136.374 169.355 136.43 169.399C137.534 170.057 138.022 171.584 137.534 172.861C137.526 172.897 137.538 172.913 137.557 172.921C137.565 172.94 137.579 172.953 137.608 172.944C138.764 172.405 140.146 172.942 140.741 174.163C140.784 174.227 140.828 174.159 140.842 174.11C141.415 172.52 140.155 171.099 138.968 171.375Z" fill="black"/>
<path d="M125.145 191.987C125.405 190.673 124.055 189.26 122.558 189.9C122.51 189.913 122.45 189.968 122.508 190.011C123.655 190.669 124.161 192.196 123.655 193.474C123.646 193.509 123.659 193.526 123.679 193.533C123.687 193.553 123.702 193.566 123.732 193.556C124.933 193.017 126.369 193.554 126.988 194.775C127.032 194.839 127.078 194.771 127.093 194.722C127.688 193.132 126.379 191.711 125.145 191.987Z" fill="black"/>
<path d="M129.902 191.987C130.162 190.673 128.812 189.26 127.315 189.9C127.267 189.913 127.207 189.968 127.265 190.011C128.412 190.669 128.919 192.196 128.412 193.474C128.403 193.509 128.416 193.526 128.436 193.533C128.444 193.553 128.459 193.566 128.489 193.556C129.69 193.017 131.126 193.554 131.745 194.775C131.79 194.839 131.835 194.771 131.85 194.722C132.446 193.132 131.135 191.711 129.902 191.987Z" fill="black"/>
<path d="M134.659 191.987C134.919 190.673 133.569 189.26 132.072 189.9C132.025 189.913 131.964 189.968 132.022 190.011C133.169 190.669 133.675 192.196 133.169 193.474C133.16 193.509 133.173 193.526 133.192 193.533C133.201 193.553 133.216 193.566 133.246 193.556C134.447 193.017 135.883 193.554 136.502 194.775C136.546 194.839 136.592 194.771 136.606 194.722C137.202 193.132 135.893 191.711 134.659 191.987Z" fill="black"/>
<path d="M139.416 191.987C139.676 190.673 138.326 189.26 136.829 189.9C136.781 189.913 136.72 189.968 136.779 190.011C137.926 190.669 138.433 192.196 137.926 193.474C137.917 193.509 137.93 193.526 137.949 193.533C137.958 193.553 137.973 193.566 138.003 193.556C139.204 193.017 140.64 193.554 141.259 194.775C141.303 194.839 141.349 194.771 141.363 194.722C141.96 193.132 140.649 191.711 139.416 191.987Z" fill="black"/>
<path d="M126.729 187.019C127.052 185.785 125.744 184.502 124.195 185.139C124.146 185.152 124.082 185.205 124.139 185.244C125.274 185.828 125.721 187.239 125.149 188.445C125.138 188.478 125.151 188.494 125.17 188.5C125.178 188.518 125.193 188.53 125.224 188.52C126.468 187.985 127.903 188.448 128.476 189.571C128.519 189.63 128.568 189.565 128.585 189.519C129.261 188.019 127.994 186.728 126.729 187.019Z" fill="black"/>
<path d="M129.516 184.401C129.839 183.168 128.531 181.885 126.982 182.522C126.934 182.535 126.869 182.588 126.927 182.627C128.062 183.211 128.508 184.622 127.937 185.828C127.926 185.861 127.938 185.876 127.958 185.883C127.965 185.901 127.98 185.913 128.011 185.903C129.255 185.368 130.69 185.831 131.264 186.954C131.306 187.013 131.356 186.948 131.373 186.901C132.049 185.402 130.782 184.111 129.516 184.401Z" fill="black"/>
<path d="M132.304 181.785C132.627 180.552 131.319 179.268 129.77 179.905C129.721 179.918 129.657 179.971 129.714 180.01C130.85 180.594 131.296 182.006 130.724 183.211C130.714 183.244 130.726 183.26 130.746 183.266C130.753 183.284 130.768 183.296 130.799 183.286C132.043 182.752 133.478 183.215 134.052 184.337C134.094 184.396 134.143 184.331 134.16 184.285C134.837 182.785 133.57 181.494 132.304 181.785Z" fill="black"/>
<path d="M135.092 179.167C135.414 177.934 134.107 176.651 132.558 177.288C132.509 177.301 132.444 177.354 132.502 177.393C133.638 177.977 134.083 179.388 133.512 180.594C133.502 180.627 133.513 180.643 133.533 180.649C133.54 180.667 133.556 180.679 133.587 180.669C134.83 180.134 136.265 180.597 136.839 181.72C136.881 181.779 136.931 181.714 136.948 181.667C137.625 180.168 136.357 178.877 135.092 179.167Z" fill="black"/>
<path d="M137.88 176.55C138.202 175.317 136.895 174.034 135.346 174.67C135.297 174.684 135.232 174.737 135.29 174.776C136.425 175.36 136.871 176.771 136.3 177.977C136.289 178.01 136.301 178.025 136.321 178.032C136.328 178.049 136.344 178.061 136.375 178.052C137.618 177.517 139.053 177.98 139.627 179.103C139.669 179.162 139.719 179.097 139.736 179.05C140.412 177.551 139.145 176.26 137.88 176.55Z" fill="black"/>
<path d="M114.596 198.669H123.801C127.986 198.669 130.845 201.436 130.845 204.92C130.845 207.175 129.624 209.087 127.846 209.976V210.18C129.938 211.239 131.299 213.528 131.299 215.953C131.299 219.711 128.055 222.58 123.732 222.58H114.596V198.669ZM123.522 208.848C125.719 208.848 127.323 207.345 127.323 205.261C127.323 203.178 125.719 201.709 123.522 201.709H118.047V208.848H123.522ZM123.836 219.54C125.963 219.54 127.777 217.798 127.777 215.714C127.777 213.63 125.963 211.854 123.836 211.854H118.047V219.54H123.836Z" fill="black"/>
<path d="M136.422 198.669H145.628C149.812 198.669 152.847 201.641 152.847 205.603C152.847 208.78 150.929 211.171 147.79 212.093L153.718 222.58H149.848L144.303 212.708H139.874V222.58H136.422V198.669ZM145.279 209.668C147.546 209.668 149.324 207.892 149.324 205.672C149.324 203.485 147.546 201.709 145.279 201.709H139.874V209.668H145.279Z" fill="black"/>
<path d="M158.632 198.669H162.154L174.428 216.705H174.638V198.669H177.985V222.58H174.463L162.154 204.544H161.945V222.58H158.632V198.669Z" fill="black"/>
<path d="M183.527 210.625C183.527 203.451 188.757 198.293 195.975 198.293C203.193 198.293 208.424 203.451 208.424 210.625C208.424 217.798 203.193 222.956 195.975 222.956C188.757 222.956 183.527 217.798 183.527 210.625ZM195.975 219.847C201.206 219.847 204.902 216.056 204.902 210.625C204.902 205.193 201.206 201.402 195.975 201.402C190.71 201.402 187.049 205.193 187.049 210.625C187.049 216.056 190.71 219.847 195.975 219.847Z" fill="black"/>
<path d="M161.128 180.041C161.203 180.094 161.247 180.185 161.223 180.276C160.957 181.526 160.863 182.299 160.929 182.925C160.958 183.232 161.017 183.488 161.076 183.678C161.143 183.869 161.217 183.991 161.267 184.01C161.319 184.029 161.455 183.987 161.622 183.852C161.797 183.721 161.998 183.493 162.154 183.152C162.31 182.814 162.409 182.363 162.374 181.839C162.319 181.319 162.155 180.71 161.718 180.155C161.664 180.075 161.637 179.974 161.668 179.882C161.787 179.548 161.832 179.18 161.759 179.008C161.688 178.831 161.522 178.881 161.146 179.294C160.596 179.304 160.462 179.429 160.522 179.553C160.586 179.681 160.858 179.843 161.128 180.041Z" fill="black"/>
<path d="M152.738 178.539C152.73 178.446 152.789 178.365 152.873 178.326C153.463 178.05 153.911 177.864 154.295 177.702C154.671 177.535 154.975 177.375 155.234 177.213C155.492 177.053 155.701 176.891 155.849 176.755C155.995 176.611 156.077 176.498 156.072 176.444C156.067 176.392 155.97 176.285 155.773 176.198C155.575 176.102 155.276 176.021 154.887 176.04C154.502 176.059 154.024 176.186 153.564 176.506C153.101 176.812 152.677 177.341 152.477 178.012C152.447 178.105 152.369 178.18 152.281 178.215C152.115 178.277 151.945 178.351 151.803 178.432C151.672 178.517 151.568 178.608 151.521 178.688C151.423 178.854 151.566 178.95 152.128 178.983C152.479 179.401 152.661 179.426 152.723 179.304C152.755 179.24 152.761 179.132 152.753 178.995C152.755 178.864 152.747 178.706 152.738 178.539Z" fill="black"/>
<path d="M155.703 186.816C155.623 186.857 155.518 186.86 155.447 186.798C154.921 186.417 154.555 186.089 154.228 185.84C153.897 185.597 153.625 185.394 153.353 185.252C152.838 184.948 152.382 184.806 152.276 184.868C152.196 184.911 152.061 185.412 152.445 186.088C152.647 186.408 152.971 186.78 153.479 187.026C153.974 187.277 154.636 187.425 155.34 187.287C155.437 187.276 155.543 187.292 155.614 187.36C155.871 187.613 156.191 187.807 156.38 187.819C156.572 187.833 156.599 187.665 156.382 187.154C156.61 186.665 156.554 186.493 156.413 186.491C156.267 186.49 156 186.665 155.703 186.816Z" fill="black"/>
<path d="M160.89 195.286C160.838 195.364 160.742 195.389 160.651 195.373C159.37 195.155 158.523 195.243 157.914 195.493C157.31 195.689 156.977 196.038 156.98 196.147C156.982 196.251 157.339 196.569 158.026 196.709C158.699 196.801 159.742 196.696 160.788 195.855C160.861 195.796 160.964 195.788 161.05 195.815C161.694 196.023 162.397 196.123 161.632 195.325C161.677 194.25 161.27 194.729 160.89 195.286Z" fill="black"/>
<path d="M170.329 183.962C170.375 184.04 170.371 184.138 170.322 184.214C169.992 184.756 169.718 185.211 169.58 185.63C169.453 186.051 169.362 186.408 169.35 186.723C169.336 187.038 169.382 187.305 169.443 187.499C169.49 187.688 169.56 187.807 169.612 187.828C169.661 187.847 169.799 187.811 169.98 187.7C170.146 187.583 170.346 187.389 170.535 187.102C170.721 186.815 170.914 186.44 170.963 185.958C171.024 185.481 171.042 184.918 170.827 184.284C170.799 184.195 170.822 184.097 170.888 184.031C171.126 183.79 171.354 183.522 171.374 183.359C171.387 183.194 171.215 183.147 170.697 183.316C170.197 183.066 170.023 183.096 170.022 183.247C170.015 183.398 170.158 183.677 170.329 183.962Z" fill="black"/>
<path d="M164.844 170.191C164.934 170.189 165.019 170.24 165.063 170.319C165.212 170.606 165.381 170.829 165.519 171.058C165.659 171.284 165.803 171.475 165.949 171.639C166.255 171.952 166.515 172.214 166.788 172.382C167.336 172.71 167.792 172.799 167.883 172.733C167.967 172.673 168.056 172.183 167.727 171.579C167.567 171.276 167.339 170.916 166.932 170.631C166.736 170.482 166.511 170.338 166.258 170.207C166.006 170.074 165.691 169.995 165.368 169.919C165.275 169.899 165.199 169.831 165.171 169.742C165.12 169.579 165.062 169.415 164.997 169.282C164.927 169.157 164.852 169.059 164.781 169.013C164.637 168.922 164.517 169.05 164.429 169.581C163.973 169.897 163.921 170.064 164.053 170.135C164.12 170.171 164.236 170.184 164.379 170.185C164.516 170.194 164.677 170.195 164.844 170.191Z" fill="black"/>
<path d="M154.803 167.785C154.869 167.723 154.966 167.692 155.054 167.729C155.67 167.978 156.184 168.07 156.632 168.119C157.079 168.184 157.459 168.157 157.777 168.085C158.407 167.963 158.792 167.707 158.81 167.59C158.825 167.496 158.531 167.091 157.873 166.868C157.546 166.767 157.13 166.703 156.642 166.725C156.154 166.763 155.594 166.94 155.008 167.232C154.925 167.27 154.824 167.283 154.743 167.237C154.15 166.911 153.479 166.681 154.08 167.607C153.83 168.653 154.325 168.26 154.803 167.785Z" fill="black"/>
<path d="M143.332 177.088C143.301 177.005 143.323 176.909 143.386 176.843C143.61 176.609 143.792 176.385 143.943 176.172C144.117 175.967 144.255 175.769 144.365 175.579C144.475 175.388 144.557 175.204 144.618 175.028C144.696 174.86 144.751 174.699 144.789 174.547C144.934 173.938 144.823 173.468 144.739 173.414C144.641 173.351 144.177 173.462 143.695 173.961C143.574 174.085 143.451 174.232 143.334 174.403C143.234 174.582 143.142 174.786 143.063 175.015C142.985 175.244 142.921 175.498 142.878 175.774C142.858 176.058 142.865 176.366 142.9 176.691C142.91 176.783 142.87 176.875 142.792 176.93C142.212 177.327 141.801 177.857 142.876 177.669C143.791 178.31 143.548 177.691 143.332 177.088Z" fill="black"/>
<path d="M146.299 191.693C146.21 191.677 146.138 191.609 146.112 191.523C146.026 191.212 145.912 190.956 145.822 190.707C145.733 190.457 145.633 190.24 145.524 190.05C145.291 189.68 145.084 189.375 144.855 189.153C144.389 188.719 143.949 188.551 143.851 188.595C143.751 188.64 143.577 189.097 143.77 189.754C143.86 190.084 144.015 190.477 144.35 190.839C144.51 191.024 144.699 191.21 144.919 191.389C145.141 191.567 145.429 191.712 145.729 191.852C145.815 191.891 145.875 191.972 145.883 192.065C145.904 192.412 145.987 192.742 146.111 192.856C146.233 192.976 146.377 192.875 146.576 192.373C147.089 192.157 147.175 192.004 147.061 191.908C146.942 191.814 146.618 191.76 146.299 191.693Z" fill="black"/>
<path d="M168.61 190.437C168.612 190.526 168.561 190.608 168.481 190.649C167.932 190.956 167.461 191.206 167.138 191.501C166.972 191.643 166.839 191.795 166.72 191.935C166.592 192.068 166.489 192.202 166.405 192.333C166.071 192.856 166.035 193.335 166.106 193.42C166.172 193.501 166.641 193.536 167.252 193.229C167.405 193.152 167.566 193.055 167.729 192.933C167.884 192.804 168.031 192.639 168.177 192.453C168.461 192.071 168.761 191.606 168.884 190.955C168.903 190.866 168.971 190.793 169.06 190.768C169.715 190.584 170.349 190.288 169.247 190.063C168.65 189.177 168.592 189.786 168.61 190.437Z" fill="black"/>
<path d="M168.251 170.321C168.339 170.343 168.399 170.419 168.414 170.507C168.504 171.145 168.7 171.603 168.863 172.007C169.028 172.408 169.241 172.706 169.463 172.933C169.875 173.397 170.297 173.588 170.407 173.545C170.499 173.509 170.708 173.066 170.586 172.403C170.511 172.08 170.359 171.701 170.093 171.307C169.832 170.911 169.375 170.548 168.826 170.213C168.746 170.167 168.701 170.079 168.701 169.988C168.68 169.335 168.537 168.667 168.034 169.638C166.99 169.975 167.589 170.175 168.251 170.321Z" fill="black"/>
<path d="M147.524 167.952C147.555 167.87 147.633 167.813 147.724 167.803C148.367 167.737 148.854 167.592 149.282 167.467C149.701 167.33 150.009 167.116 150.263 166.934C150.771 166.579 150.982 166.152 150.947 166.048C150.915 165.949 150.486 165.744 149.796 165.801C149.455 165.834 149.07 165.982 148.652 166.217C148.227 166.437 147.82 166.845 147.453 167.38C147.402 167.455 147.311 167.498 147.217 167.489C146.523 167.424 145.865 167.562 146.805 168.103C147.089 169.164 147.302 168.549 147.524 167.952Z" fill="black"/>
<path d="M141.403 185.848C141.332 185.791 141.302 185.7 141.322 185.614C141.441 185.006 141.548 184.487 141.525 184.052C141.506 183.618 141.416 183.258 141.329 182.96C141.13 182.371 140.775 182.047 140.663 182.048C140.557 182.05 140.232 182.39 140.085 183.043C140 183.369 140.001 183.77 140.113 184.226C140.229 184.682 140.398 185.202 140.822 185.715C140.879 185.788 140.892 185.886 140.853 185.968C140.571 186.574 140.389 187.237 141.28 186.565C142.357 186.698 141.92 186.258 141.403 185.848Z" fill="black"/>
<path d="M155.659 198.087C155.585 198.139 155.487 198.144 155.407 198.102C154.838 197.826 154.355 197.611 153.925 197.505C153.495 197.4 153.117 197.403 152.804 197.4C152.177 197.425 151.758 197.668 151.727 197.774C151.698 197.873 151.939 198.273 152.544 198.594C152.843 198.769 153.242 198.862 153.722 198.885C154.202 198.91 154.762 198.863 155.378 198.601C155.464 198.567 155.564 198.58 155.635 198.638C156.158 199.066 156.763 199.413 156.334 198.394C156.746 197.412 156.198 197.708 155.659 198.087Z" fill="black"/>
</g>
</svg>
