<svg width="320" height="240" viewBox="0 0 320 240" fill="none" xmlns="http://www.w3.org/2000/svg">
<rect width="320" height="240" fill="#F9F0E4"/>
<g opacity="0.25">
<path d="M179.007 116.946L178.942 116.97C178.943 116.959 178.944 116.95 178.945 116.937C178.94 116.786 178.862 116.637 178.766 116.649C178.671 116.661 178.605 116.828 178.623 116.976C178.63 117.046 178.654 117.097 178.684 117.134C178.499 117.062 178.246 117.062 177.966 117.099C177.706 117.157 177.423 117.26 177.208 117.402C176.997 117.551 176.868 117.701 176.804 117.843C176.775 117.9 176.724 117.948 176.663 117.967C176.499 118.014 176.338 118.121 176.219 118.283C176.05 118.5 176.053 118.798 176.179 119.007C176.426 119.405 176.944 119.429 177.268 119.17C177.348 119.101 177.408 119.017 177.447 118.923C177.47 118.867 177.522 118.832 177.582 118.831C177.727 118.825 177.882 118.772 178.053 118.649C178.224 118.536 178.396 118.396 178.541 118.226C178.693 118.084 178.82 117.901 178.9 117.742C178.902 117.787 178.918 117.841 178.954 117.902C179.03 118.033 179.149 118.146 179.204 118.114C179.26 118.083 179.243 117.916 179.179 117.782C179.172 117.772 179.168 117.765 179.163 117.755C179.181 117.752 179.198 117.75 179.217 117.745C179.45 117.68 179.629 117.485 179.606 117.252C179.587 117.032 179.31 116.865 179.007 116.946Z" fill="black"/>
<path d="M173.585 122.738L173.549 122.795C173.542 122.786 173.537 122.778 173.53 122.768C173.433 122.65 173.28 122.577 173.211 122.644C173.142 122.711 173.192 122.882 173.297 122.99C173.346 123.041 173.396 123.068 173.443 123.08C173.251 123.132 173.05 123.283 172.85 123.479C172.678 123.679 172.516 123.93 172.431 124.17C172.354 124.415 172.343 124.611 172.379 124.763C172.392 124.825 172.38 124.894 172.343 124.944C172.242 125.08 172.178 125.261 172.183 125.462C172.182 125.735 172.367 125.97 172.596 126.062C173.037 126.232 173.464 125.943 173.563 125.544C173.585 125.441 173.581 125.339 173.555 125.241C173.538 125.183 173.559 125.124 173.606 125.087C173.717 124.996 173.808 124.861 173.869 124.662C173.937 124.47 173.988 124.257 173.999 124.035C174.032 123.831 174.022 123.61 173.988 123.436C174.017 123.47 174.063 123.504 174.129 123.531C174.271 123.59 174.434 123.609 174.459 123.551C174.484 123.493 174.368 123.37 174.235 123.301C174.224 123.297 174.216 123.294 174.206 123.29C174.218 123.277 174.231 123.265 174.242 123.25C174.389 123.059 174.411 122.798 174.25 122.625C174.1 122.461 173.776 122.493 173.585 122.738Z" fill="black"/>
<path d="M171.196 123.021L171.148 123.07C171.144 123.06 171.141 123.051 171.136 123.04C171.065 122.905 170.93 122.803 170.849 122.855C170.768 122.906 170.782 123.084 170.862 123.211C170.899 123.27 170.943 123.307 170.986 123.328C170.787 123.34 170.559 123.448 170.323 123.599C170.113 123.761 169.902 123.974 169.769 124.192C169.643 124.416 169.592 124.606 169.596 124.762C169.595 124.825 169.569 124.89 169.523 124.932C169.395 125.045 169.296 125.209 169.258 125.406C169.201 125.673 169.333 125.94 169.538 126.077C169.935 126.332 170.413 126.135 170.592 125.764C170.635 125.668 170.652 125.567 170.648 125.466C170.643 125.405 170.675 125.352 170.729 125.326C170.857 125.259 170.974 125.146 171.075 124.962C171.181 124.788 171.275 124.589 171.332 124.374C171.407 124.182 171.443 123.963 171.446 123.785C171.467 123.825 171.505 123.867 171.564 123.907C171.69 123.993 171.847 124.045 171.883 123.994C171.919 123.942 171.832 123.798 171.715 123.703C171.705 123.697 171.698 123.693 171.689 123.687C171.704 123.677 171.719 123.667 171.733 123.654C171.916 123.498 171.992 123.247 171.87 123.045C171.757 122.854 171.434 122.82 171.196 123.021Z" fill="black"/>
<path d="M183.557 117.514L183.497 117.514C183.501 117.504 183.505 117.496 183.51 117.484C183.555 117.341 183.542 117.174 183.471 117.153C183.397 117.134 183.306 117.256 183.253 117.398C183.23 117.464 183.224 117.52 183.231 117.566C183.012 117.29 182.582 116.989 182.13 116.856C181.908 116.79 181.705 116.785 181.559 116.824C181.499 116.839 181.425 116.83 181.374 116.79C181.235 116.683 181.046 116.616 180.827 116.631C180.536 116.637 180.282 116.839 180.218 117.068C180.107 117.518 180.401 117.91 180.776 117.987C180.874 118.004 180.977 118.007 181.073 117.982C181.131 117.97 181.189 117.985 181.23 118.031C181.331 118.141 181.468 118.224 181.698 118.293C182.137 118.424 182.796 118.423 183.135 118.202C183.113 118.243 183.101 118.298 183.106 118.369C183.115 118.518 183.212 118.68 183.295 118.67C183.381 118.664 183.432 118.503 183.415 118.354C183.413 118.343 183.411 118.335 183.408 118.324L183.472 118.335C183.761 118.367 184.006 118.193 184.017 117.964C184.026 117.738 183.821 117.544 183.557 117.514Z" fill="black"/>
<path d="M187.613 116.706L187.566 116.742C187.563 116.73 187.561 116.722 187.558 116.71C187.504 116.568 187.393 116.447 187.325 116.468C187.257 116.488 187.253 116.651 187.3 116.793C187.322 116.86 187.352 116.908 187.386 116.94C187.027 116.856 186.508 116.898 186.124 117.004C185.93 117.07 185.789 117.133 185.693 117.239C185.654 117.282 185.595 117.297 185.541 117.278C185.394 117.226 185.24 117.236 185.075 117.289C184.856 117.373 184.673 117.572 184.619 117.812C184.511 118.262 184.895 118.664 185.41 118.61C185.536 118.592 185.651 118.549 185.749 118.489C185.806 118.455 185.878 118.448 185.942 118.465C186.096 118.506 186.305 118.524 186.559 118.441C187.072 118.298 187.582 117.869 187.702 117.503C187.711 117.548 187.735 117.6 187.782 117.653C187.882 117.766 188.047 117.836 188.116 117.781C188.186 117.726 188.124 117.565 188.02 117.458C188.01 117.45 188.004 117.445 187.996 117.438L188.053 117.408C188.305 117.254 188.39 116.969 188.252 116.782C188.118 116.6 187.834 116.571 187.613 116.706Z" fill="black"/>
<path d="M188.097 113.322L188.066 113.371C188.06 113.362 188.055 113.355 188.048 113.345C187.947 113.23 187.8 113.154 187.744 113.196C187.687 113.239 187.741 113.393 187.834 113.511C187.879 113.566 187.924 113.6 187.967 113.618C187.601 113.662 187.129 113.878 186.805 114.109C186.647 114.236 186.536 114.344 186.483 114.476C186.462 114.529 186.412 114.563 186.354 114.564C186.199 114.565 186.057 114.626 185.921 114.732C185.745 114.886 185.644 115.135 185.677 115.378C185.733 115.837 186.236 116.084 186.699 115.858C186.811 115.799 186.904 115.719 186.975 115.63C187.016 115.578 187.082 115.547 187.148 115.541C187.307 115.528 187.508 115.473 187.718 115.308C188.149 115 188.478 114.424 188.462 114.039C188.485 114.079 188.526 114.119 188.589 114.153C188.723 114.225 188.902 114.235 188.948 114.16C188.993 114.084 188.879 113.954 188.743 113.889C188.732 113.885 188.724 113.882 188.714 113.879L188.757 113.831C188.94 113.6 188.919 113.304 188.724 113.176C188.535 113.051 188.257 113.12 188.097 113.322Z" fill="black"/>
<path d="M190.714 113.785L190.684 113.835C190.677 113.827 190.672 113.82 190.664 113.81C190.557 113.705 190.401 113.637 190.348 113.685C190.294 113.733 190.36 113.885 190.463 113.995C190.511 114.047 190.559 114.077 190.604 114.092C190.243 114.166 189.776 114.433 189.479 114.735C189.317 114.892 189.231 115.044 189.195 115.185C189.18 115.242 189.137 115.289 189.08 115.306C188.926 115.352 188.788 115.452 188.684 115.598C188.547 115.802 188.525 116.074 188.631 116.295C188.829 116.715 189.377 116.797 189.74 116.477C189.827 116.397 189.892 116.302 189.934 116.203C189.958 116.144 190.012 116.101 190.075 116.087C190.226 116.052 190.387 115.959 190.561 115.789C190.913 115.434 191.179 114.854 191.132 114.472C191.158 114.51 191.203 114.546 191.268 114.575C191.407 114.635 191.585 114.633 191.622 114.555C191.661 114.478 191.542 114.359 191.399 114.302C191.388 114.299 191.379 114.297 191.368 114.294L191.411 114.245C191.567 113.999 191.531 113.707 191.33 113.595C191.129 113.482 190.853 113.567 190.714 113.785Z" fill="black"/>
<path d="M174.506 118.651L174.489 118.707C174.48 118.7 174.473 118.695 174.463 118.687C174.334 118.609 174.166 118.579 174.125 118.639C174.085 118.698 174.185 118.83 174.312 118.913C174.371 118.952 174.425 118.971 174.472 118.975C174.139 119.13 173.749 119.499 173.534 119.861C173.414 120.052 173.366 120.219 173.366 120.365C173.365 120.423 173.335 120.479 173.283 120.509C173.144 120.589 173.034 120.719 172.969 120.885C172.884 121.115 172.928 121.384 173.085 121.574C173.378 121.937 173.93 121.888 174.205 121.493C174.271 121.395 174.311 121.288 174.328 121.181C174.338 121.119 174.38 121.064 174.437 121.036C174.576 120.966 174.71 120.839 174.838 120.633C175.095 120.206 175.214 119.581 175.076 119.22C175.111 119.251 175.163 119.276 175.233 119.289C175.383 119.315 175.555 119.272 175.573 119.188C175.591 119.103 175.447 119.015 175.295 118.994C175.283 118.993 175.274 118.993 175.263 118.993L175.292 118.935C175.386 118.66 175.28 118.385 175.058 118.322C174.835 118.259 174.588 118.407 174.506 118.651Z" fill="black"/>
<path d="M192.033 109.837L192.036 109.896C192.025 109.892 192.017 109.888 192.005 109.884C191.857 109.846 191.69 109.866 191.67 109.936C191.648 110.004 191.783 110.102 191.928 110.145C191.996 110.165 192.054 110.167 192.099 110.158C191.829 110.403 191.569 110.874 191.469 111.276C191.414 111.481 191.42 111.645 191.455 111.78C191.47 111.834 191.456 111.894 191.415 111.934C191.31 112.043 191.221 112.179 191.204 112.354C191.176 112.589 191.269 112.837 191.466 112.997C191.818 113.294 192.367 113.143 192.544 112.676C192.591 112.562 192.609 112.445 192.596 112.333C192.59 112.267 192.616 112.202 192.665 112.158C192.787 112.053 192.881 111.883 192.946 111.637C193.069 111.15 192.99 110.522 192.75 110.218C192.793 110.237 192.85 110.246 192.921 110.238C193.073 110.22 193.225 110.13 193.218 110.044C193.209 109.959 193.042 109.916 192.892 109.939C192.881 109.942 192.872 109.944 192.862 109.947L192.87 109.884C192.887 109.595 192.7 109.363 192.466 109.365C192.237 109.366 192.048 109.578 192.033 109.837Z" fill="black"/>
<path d="M194.823 97.0784L194.773 97.1114C194.771 97.1003 194.77 97.0914 194.768 97.0795C194.723 96.9355 194.619 96.8056 194.548 96.8252C194.477 96.8425 194.462 97.0061 194.501 97.151C194.519 97.2186 194.547 97.2681 194.579 97.3012C194.226 97.2017 193.682 97.2289 193.281 97.3546C193.075 97.4156 192.936 97.5063 192.837 97.605C192.798 97.6469 192.739 97.6665 192.683 97.6527C192.533 97.6204 192.369 97.6173 192.209 97.6938C191.991 97.7933 191.823 98.0011 191.788 98.2496C191.714 98.7006 192.131 99.0825 192.629 98.988C192.752 98.968 192.862 98.9215 192.953 98.8523C193.006 98.8132 193.077 98.8013 193.14 98.8193C193.295 98.8669 193.491 98.8577 193.738 98.7844C194.225 98.6326 194.728 98.2396 194.867 97.8797C194.873 97.9254 194.894 97.9776 194.938 98.033C195.033 98.1513 195.191 98.232 195.261 98.1816C195.331 98.1294 195.281 97.9669 195.182 97.8532C195.174 97.8451 195.168 97.8394 195.159 97.8317L195.219 97.8055C195.477 97.6696 195.582 97.3914 195.458 97.1959C195.337 97.0046 195.056 96.9562 194.823 97.0784Z" fill="black"/>
<path d="M191.643 105.44V105.507C191.632 105.503 191.624 105.5 191.613 105.495C191.466 105.454 191.296 105.48 191.275 105.57C191.261 105.659 191.405 105.769 191.554 105.8C191.624 105.815 191.682 105.81 191.726 105.795C191.456 106.085 191.35 106.739 191.446 107.208C191.49 107.444 191.573 107.608 191.673 107.711C191.714 107.754 191.731 107.816 191.715 107.872C191.669 108.026 191.673 108.17 191.736 108.339C191.825 108.562 192.04 108.735 192.284 108.778C192.745 108.863 193.135 108.474 193.069 107.982C193.049 107.861 193.008 107.742 192.944 107.656C192.907 107.604 192.898 107.537 192.92 107.477C192.973 107.33 192.984 107.156 192.943 106.935C192.857 106.505 192.627 106.051 192.38 105.79C192.424 105.804 192.482 105.806 192.551 105.793C192.7 105.763 192.842 105.684 192.826 105.618C192.816 105.553 192.652 105.516 192.5 105.536C192.489 105.539 192.48 105.541 192.47 105.544C192.473 105.525 192.478 105.508 192.48 105.488C192.491 105.242 192.344 105.013 192.118 104.972C191.888 104.931 191.658 105.138 191.643 105.44Z" fill="black"/>
<path d="M190.041 103.617L190.02 103.681C190.011 103.674 190.004 103.668 189.995 103.66C189.868 103.577 189.698 103.551 189.65 103.63C189.609 103.711 189.712 103.858 189.844 103.933C189.906 103.969 189.962 103.981 190.009 103.98C189.662 104.175 189.358 104.766 189.303 105.241C189.272 105.479 189.301 105.66 189.363 105.789C189.388 105.842 189.386 105.905 189.353 105.955C189.262 106.088 189.221 106.226 189.228 106.405C189.244 106.644 189.394 106.874 189.613 106.988C190.026 107.208 190.519 106.955 190.608 106.467C190.627 106.345 190.625 106.22 190.59 106.119C190.571 106.058 190.584 105.991 190.623 105.941C190.72 105.817 190.784 105.655 190.813 105.431C190.866 104.997 190.787 104.495 190.633 104.173C190.671 104.198 190.725 104.218 190.796 104.226C190.947 104.243 191.107 104.21 191.112 104.143C191.122 104.078 190.978 103.994 190.827 103.967C190.815 103.966 190.807 103.966 190.796 103.965C190.805 103.949 190.815 103.933 190.822 103.915C190.909 103.684 190.841 103.422 190.638 103.315C190.433 103.206 190.149 103.335 190.041 103.617Z" fill="black"/>
<path d="M193.709 101.301L193.67 101.352C193.664 101.342 193.66 101.334 193.654 101.323C193.565 101.2 193.42 101.113 193.353 101.165C193.286 101.217 193.324 101.386 193.416 101.506C193.458 101.562 193.504 101.597 193.548 101.614C193.161 101.651 192.639 102.012 192.361 102.44C192.223 102.658 192.153 102.837 192.163 103.003C192.164 103.069 192.136 103.135 192.084 103.177C191.945 103.288 191.83 103.454 191.802 103.667C191.748 103.95 191.873 104.221 192.097 104.346C192.503 104.563 192.978 104.366 193.131 104.018C193.173 103.928 193.197 103.834 193.195 103.737C193.195 103.681 193.227 103.63 193.277 103.603C193.393 103.536 193.527 103.433 193.638 103.256C193.861 102.912 194.045 102.401 194.04 102.038C194.065 102.077 194.105 102.116 194.167 102.151C194.3 102.225 194.466 102.253 194.504 102.189C194.541 102.126 194.438 101.992 194.309 101.914C194.298 101.909 194.29 101.906 194.28 101.901L194.324 101.861C194.497 101.662 194.534 101.39 194.367 101.226C194.208 101.067 193.899 101.085 193.709 101.301Z" fill="black"/>
<path d="M196.678 97.8698L196.633 97.9166C196.629 97.9063 196.626 97.8982 196.621 97.8867C196.545 97.7557 196.409 97.6546 196.337 97.7C196.265 97.7453 196.287 97.917 196.365 98.0453C196.402 98.1052 196.444 98.144 196.486 98.1659C196.097 98.1648 195.541 98.4725 195.221 98.8709C195.062 99.0737 194.974 99.2454 194.967 99.4117C194.962 99.4774 194.927 99.54 194.871 99.5769C194.722 99.6737 194.59 99.8274 194.541 100.037C194.459 100.313 194.555 100.595 194.765 100.741C195.147 100.997 195.64 100.848 195.827 100.517C195.878 100.431 195.912 100.34 195.92 100.244C195.925 100.187 195.962 100.139 196.015 100.118C196.136 100.062 196.28 99.9734 196.409 99.8082C196.666 99.4882 196.901 98.998 196.933 98.6354C196.953 98.6769 196.99 98.7203 197.048 98.761C197.172 98.8482 197.335 98.8916 197.378 98.8321C197.422 98.7725 197.334 98.6292 197.213 98.5393C197.202 98.5332 197.195 98.529 197.186 98.5236L197.233 98.4875C197.426 98.3065 197.49 98.0399 197.341 97.8594C197.198 97.6865 196.889 97.6731 196.678 97.8698Z" fill="black"/>
<path d="M181.448 119.243L181.381 119.242C181.385 119.232 181.389 119.223 181.394 119.212C181.442 119.069 181.421 118.902 181.329 118.88C181.244 118.861 181.134 118.997 181.099 119.142C181.082 119.211 181.084 119.267 181.098 119.311C180.827 119.048 180.25 118.885 179.78 118.926C179.543 118.944 179.369 119.014 179.25 119.105C179.201 119.144 179.136 119.159 179.075 119.141C178.915 119.092 178.726 119.102 178.542 119.187C178.291 119.303 178.13 119.563 178.159 119.806C178.232 120.258 178.623 120.535 178.993 120.471C179.09 120.454 179.177 120.412 179.256 120.357C179.302 120.324 179.362 120.32 179.413 120.345C179.538 120.41 179.696 120.435 179.906 120.42C180.32 120.384 180.818 120.198 181.079 119.955C181.064 119.998 181.059 120.055 181.07 120.124C181.094 120.272 181.166 120.416 181.231 120.404C181.288 120.394 181.328 120.232 181.317 120.084C181.315 120.072 181.314 120.064 181.312 120.054C181.329 120.057 181.345 120.062 181.362 120.063C181.427 120.067 181.451 120.064 181.502 120.049C181.565 120.041 181.624 120.022 181.675 119.994C181.779 119.939 181.853 119.849 181.877 119.737C181.9 119.626 181.869 119.514 181.803 119.425C181.769 119.38 181.727 119.34 181.678 119.309C181.615 119.277 181.516 119.246 181.448 119.243Z" fill="black"/>
<path d="M176.901 120.475L176.859 120.527C176.854 120.517 176.85 120.509 176.844 120.499C176.757 120.374 176.609 120.289 176.536 120.348C176.469 120.403 176.513 120.572 176.609 120.688C176.654 120.742 176.701 120.774 176.745 120.791C176.368 120.843 175.887 121.197 175.635 121.59C175.506 121.787 175.457 121.964 175.459 122.113C175.461 122.175 175.433 122.235 175.382 122.272C175.245 122.367 175.139 122.522 175.096 122.718C175.037 122.984 175.151 123.267 175.365 123.392C175.774 123.608 176.235 123.471 176.407 123.141C176.452 123.055 176.471 122.962 176.474 122.866C176.475 122.811 176.509 122.762 176.56 122.737C176.688 122.678 176.804 122.57 176.919 122.395C177.14 122.05 177.291 121.547 177.253 121.195C177.279 121.233 177.322 121.271 177.384 121.304C177.519 121.376 177.679 121.406 177.709 121.348C177.735 121.297 177.629 121.168 177.502 121.087C177.491 121.081 177.484 121.077 177.474 121.072C177.487 121.062 177.501 121.052 177.512 121.039C177.555 120.991 177.567 120.97 177.586 120.921C177.617 120.867 177.637 120.809 177.646 120.752C177.665 120.637 177.636 120.525 177.561 120.439C177.485 120.353 177.376 120.309 177.263 120.307C177.206 120.306 177.149 120.315 177.094 120.335C177.03 120.365 176.945 120.424 176.901 120.475Z" fill="black"/>
<path d="M185.595 119.467C185.576 119.47 185.558 119.476 185.54 119.481C185.542 119.47 185.543 119.461 185.545 119.449C185.552 119.299 185.5 119.141 185.43 119.137C185.36 119.132 185.293 119.277 185.281 119.427C185.276 119.496 185.285 119.552 185.303 119.594C185.017 119.375 184.512 119.233 184.103 119.228C183.894 119.222 183.738 119.264 183.618 119.339C183.568 119.371 183.508 119.367 183.46 119.338C183.331 119.256 183.177 119.22 183.005 119.251C182.774 119.284 182.563 119.449 182.469 119.68C182.292 120.101 182.576 120.564 183.043 120.605C183.159 120.616 183.27 120.6 183.37 120.564C183.428 120.541 183.494 120.554 183.546 120.587C183.672 120.669 183.849 120.72 184.09 120.727C184.567 120.733 185.136 120.519 185.376 120.234C185.367 120.279 185.37 120.335 185.392 120.402C185.438 120.545 185.554 120.677 185.632 120.652C185.71 120.624 185.718 120.456 185.667 120.316C185.662 120.305 185.658 120.298 185.653 120.288L185.715 120.283C185.989 120.24 186.174 120.022 186.128 119.799C186.083 119.576 185.844 119.427 185.595 119.467Z" fill="black"/>
<path d="M171.68 119.32C171.672 119.337 171.668 119.355 171.662 119.373C171.653 119.366 171.647 119.36 171.637 119.352C171.513 119.265 171.35 119.223 171.309 119.279C171.266 119.334 171.354 119.468 171.475 119.558C171.532 119.6 171.585 119.622 171.631 119.63C171.289 119.75 170.895 120.091 170.67 120.428C170.552 120.597 170.504 120.749 170.502 120.889C170.503 120.947 170.468 120.995 170.417 121.019C170.277 121.082 170.163 121.19 170.097 121.349C170 121.559 170.028 121.823 170.174 122.024C170.438 122.399 170.988 122.414 171.275 122.049C171.346 121.959 171.393 121.858 171.416 121.756C171.428 121.695 171.475 121.648 171.531 121.622C171.669 121.562 171.809 121.443 171.944 121.247C172.207 120.855 172.331 120.269 172.217 119.915C172.25 119.947 172.3 119.975 172.369 119.993C172.516 120.032 172.692 120.008 172.712 119.929C172.732 119.849 172.592 119.752 172.444 119.718C172.433 119.717 172.424 119.716 172.413 119.715L172.442 119.662C172.553 119.411 172.468 119.14 172.252 119.058C172.036 118.975 171.78 119.092 171.68 119.32Z" fill="black"/>
<path d="M189.408 118.062C189.391 118.072 189.377 118.085 189.362 118.096C189.359 118.086 189.357 118.077 189.354 118.065C189.298 117.926 189.184 117.803 189.117 117.827C189.051 117.851 189.054 118.016 189.106 118.158C189.131 118.224 189.163 118.27 189.197 118.301C188.839 118.211 188.324 118.296 187.949 118.453C187.763 118.544 187.633 118.63 187.554 118.746C187.522 118.792 187.468 118.818 187.413 118.811C187.265 118.796 187.108 118.819 186.963 118.909C186.769 119.033 186.646 119.275 186.651 119.516C186.657 119.98 187.102 120.281 187.554 120.138C187.667 120.107 187.761 120.043 187.837 119.967C187.881 119.922 187.945 119.903 188.007 119.914C188.157 119.938 188.348 119.928 188.565 119.823C189.006 119.638 189.428 119.203 189.532 118.854C189.543 118.899 189.569 118.95 189.617 119.001C189.719 119.111 189.875 119.18 189.936 119.124C189.996 119.069 189.933 118.914 189.827 118.806C189.819 118.798 189.812 118.793 189.804 118.786L189.858 118.758C190.094 118.614 190.169 118.338 190.033 118.15C189.9 117.967 189.623 117.931 189.408 118.062Z" fill="black"/>
<path d="M192.403 115.304C192.391 115.32 192.383 115.336 192.374 115.353C192.367 115.344 192.362 115.337 192.354 115.327C192.25 115.217 192.099 115.143 192.047 115.189C191.997 115.238 192.054 115.386 192.154 115.499C192.201 115.551 192.248 115.583 192.292 115.6C192.109 115.621 191.904 115.699 191.714 115.81C191.515 115.915 191.326 116.048 191.187 116.199C191.039 116.346 190.955 116.483 190.926 116.62C190.913 116.675 190.874 116.72 190.819 116.736C190.676 116.78 190.537 116.86 190.439 117.001C190.306 117.191 190.293 117.466 190.396 117.685C190.593 118.107 191.117 118.202 191.473 117.904C191.563 117.832 191.625 117.74 191.663 117.641C191.686 117.583 191.737 117.541 191.798 117.529C191.944 117.496 192.109 117.413 192.277 117.245C192.437 117.074 192.584 116.856 192.683 116.635C192.775 116.405 192.823 116.177 192.808 115.995C192.834 116.033 192.877 116.07 192.941 116.102C193.077 116.168 193.255 116.181 193.288 116.106C193.323 116.032 193.207 115.909 193.069 115.847C193.057 115.843 193.05 115.841 193.039 115.837L193.079 115.791C193.24 115.569 193.212 115.287 193.019 115.163C192.825 115.039 192.549 115.102 192.403 115.304Z" fill="black"/>
<path d="M194.077 111.648C194.072 111.667 194.071 111.685 194.069 111.704C194.059 111.698 194.051 111.694 194.04 111.688C193.901 111.63 193.731 111.622 193.7 111.685C193.669 111.748 193.789 111.861 193.927 111.924C193.992 111.953 194.048 111.964 194.094 111.962C193.79 112.151 193.479 112.568 193.328 112.94C193.259 113.133 193.238 113.288 193.262 113.423C193.272 113.478 193.253 113.534 193.208 113.567C193.092 113.66 193.002 113.787 192.962 113.951C192.913 114.174 193.003 114.432 193.18 114.598C193.52 114.919 194.049 114.819 194.266 114.404C194.323 114.304 194.339 114.191 194.34 114.086C194.339 114.023 194.371 113.965 194.423 113.929C194.55 113.844 194.668 113.701 194.75 113.476C194.927 113.038 194.921 112.437 194.729 112.116C194.769 112.14 194.824 112.158 194.895 112.16C195.047 112.167 195.209 112.105 195.213 112.024C195.217 111.944 195.061 111.878 194.908 111.876C194.896 111.877 194.888 111.878 194.877 111.879L194.896 111.821C194.953 111.554 194.801 111.306 194.574 111.271C194.344 111.235 194.128 111.405 194.077 111.648Z" fill="black"/>
<path d="M194.143 107.615C194.146 107.634 194.152 107.652 194.157 107.67C194.146 107.668 194.137 107.667 194.124 107.666C193.973 107.662 193.812 107.717 193.808 107.787C193.803 107.858 193.957 107.921 194.109 107.928C194.18 107.932 194.237 107.921 194.279 107.901C194.067 108.191 193.94 108.7 193.953 109.105C193.967 109.311 194.005 109.463 194.085 109.579C194.117 109.626 194.123 109.685 194.096 109.734C194.028 109.865 193.988 110.018 194.026 110.185C194.08 110.411 194.253 110.609 194.49 110.69C194.928 110.847 195.382 110.545 195.403 110.082C195.41 109.968 195.391 109.86 195.344 109.763C195.318 109.707 195.323 109.641 195.355 109.589C195.433 109.462 195.49 109.285 195.474 109.049C195.459 108.583 195.224 108.038 194.926 107.811C194.972 107.819 195.029 107.815 195.097 107.791C195.24 107.741 195.367 107.626 195.34 107.55C195.314 107.475 195.144 107.471 195.002 107.525C194.991 107.53 194.983 107.534 194.974 107.539L194.97 107.479C194.931 107.244 194.734 107.069 194.502 107.078C194.272 107.086 194.097 107.334 194.143 107.615Z" fill="black"/>
<path d="M194.589 103.242L194.573 103.303C194.564 103.296 194.557 103.291 194.547 103.283C194.418 103.201 194.251 103.173 194.208 103.249C194.164 103.324 194.265 103.466 194.397 103.54C194.459 103.575 194.515 103.588 194.562 103.588C194.232 103.771 193.914 104.305 193.849 104.772C193.814 105.008 193.841 105.188 193.908 105.323C193.935 105.378 193.933 105.444 193.902 105.496C193.822 105.638 193.782 105.814 193.823 106.001C193.873 106.255 194.077 106.457 194.319 106.51C194.775 106.606 195.174 106.283 195.197 105.887C195.204 105.786 195.185 105.689 195.146 105.6C195.123 105.548 195.135 105.49 195.172 105.446C195.261 105.339 195.325 105.193 195.355 104.992C195.411 104.593 195.353 104.099 195.185 103.783C195.223 103.809 195.277 103.829 195.347 103.838C195.499 103.857 195.661 103.829 195.667 103.766C195.674 103.703 195.527 103.619 195.379 103.591C195.367 103.59 195.358 103.589 195.348 103.589C195.356 103.573 195.365 103.557 195.371 103.54C195.459 103.325 195.377 103.072 195.18 102.962C194.974 102.849 194.699 102.974 194.589 103.242Z" fill="black"/>
<path d="M184.876 121.886L184.815 121.89C184.819 121.879 184.822 121.871 184.826 121.859C184.861 121.713 184.836 121.548 184.765 121.532C184.692 121.518 184.594 121.652 184.553 121.793C184.534 121.86 184.533 121.917 184.544 121.962C184.426 121.832 184.254 121.713 184.064 121.62C183.97 121.569 183.872 121.516 183.772 121.475C183.719 121.456 183.67 121.437 183.622 121.419L183.547 121.396C183.487 121.383 183.429 121.37 183.372 121.357C183.315 121.355 183.261 121.354 183.207 121.352C182.977 121.346 182.801 121.384 182.669 121.455C182.615 121.484 182.549 121.485 182.496 121.455C182.352 121.377 182.182 121.34 181.997 121.367C181.746 121.405 181.529 121.571 181.43 121.799C181.238 122.222 181.565 122.685 182.065 122.726C182.188 122.736 182.306 122.72 182.412 122.681C182.474 122.659 182.544 122.668 182.599 122.703C182.733 122.788 182.917 122.844 183.172 122.85C183.22 122.851 183.222 122.851 183.226 122.848L183.227 122.846C183.237 122.847 183.184 122.836 183.22 122.841L183.315 122.85C183.377 122.852 183.441 122.855 183.508 122.857C183.638 122.857 183.765 122.853 183.887 122.834C184.133 122.785 184.35 122.706 184.496 122.604C184.477 122.646 184.469 122.702 184.479 122.772C184.501 122.924 184.6 123.073 184.69 123.057C184.78 123.045 184.82 122.881 184.792 122.733C184.788 122.722 184.786 122.714 184.782 122.704L184.849 122.71C185.153 122.721 185.39 122.533 185.38 122.301C185.37 122.078 185.144 121.896 184.876 121.886Z" fill="black"/>
<path d="M189.143 120.927L189.09 120.959C189.089 120.948 189.087 120.939 189.086 120.927C189.049 120.781 188.949 120.646 188.875 120.666C188.8 120.682 188.774 120.845 188.807 120.992C188.822 121.06 188.849 121.11 188.88 121.145C188.519 121.03 187.955 121.064 187.533 121.187C187.317 121.246 187.17 121.338 187.069 121.444C187.027 121.485 186.965 121.503 186.907 121.488C186.751 121.447 186.583 121.465 186.415 121.538C186.189 121.63 186.018 121.852 185.984 122.099C185.913 122.555 186.341 122.916 186.848 122.827C186.972 122.802 187.084 122.753 187.178 122.688C187.233 122.65 187.304 122.639 187.37 122.659C187.525 122.7 187.724 122.69 187.976 122.621C188.471 122.476 188.985 122.084 189.146 121.733C189.149 121.779 189.169 121.832 189.212 121.889C189.302 122.01 189.458 122.098 189.531 122.05C189.602 121.999 189.561 121.835 189.467 121.717C189.458 121.709 189.453 121.703 189.445 121.695L189.506 121.671C189.772 121.539 189.898 121.27 189.787 121.07C189.677 120.87 189.388 120.805 189.143 120.927Z" fill="black"/>
<path d="M195.99 118.278L195.965 118.334C195.957 118.325 195.951 118.319 195.942 118.31C195.828 118.21 195.667 118.156 195.619 118.214C195.566 118.269 195.64 118.418 195.75 118.52C195.803 118.567 195.853 118.594 195.899 118.605C195.536 118.713 195.092 119.056 194.816 119.394C194.673 119.563 194.605 119.721 194.583 119.865C194.572 119.922 194.532 119.972 194.476 119.993C194.323 120.046 194.196 120.155 194.101 120.308C193.967 120.511 193.956 120.789 194.07 121.011C194.275 121.427 194.836 121.483 195.202 121.126C195.289 121.036 195.353 120.933 195.392 120.827C195.415 120.765 195.468 120.716 195.533 120.695C195.685 120.642 195.843 120.523 196.009 120.325C196.333 119.928 196.529 119.318 196.458 118.939C196.488 118.975 196.534 119.008 196.602 119.03C196.747 119.079 196.926 119.064 196.958 118.983C196.987 118.902 196.858 118.79 196.713 118.746C196.701 118.744 196.693 118.742 196.682 118.74L196.718 118.686C196.861 118.429 196.808 118.137 196.602 118.034C196.395 117.932 196.121 118.04 195.99 118.278Z" fill="black"/>
<path d="M192.792 118.383L192.75 118.43C192.746 118.42 192.742 118.412 192.736 118.401C192.655 118.273 192.517 118.176 192.452 118.218C192.387 118.261 192.415 118.427 192.492 118.555C192.528 118.615 192.57 118.654 192.611 118.677C192.227 118.678 191.697 118.905 191.338 119.178C191.158 119.321 191.044 119.45 190.989 119.589C190.965 119.645 190.916 119.687 190.856 119.698C190.698 119.729 190.537 119.798 190.41 119.935C190.239 120.122 190.173 120.394 190.245 120.627C190.378 121.072 190.915 121.227 191.329 120.952C191.434 120.887 191.516 120.802 191.572 120.704C191.606 120.647 191.666 120.61 191.731 120.603C191.888 120.584 192.076 120.518 192.273 120.361C192.672 120.058 193.012 119.529 193.053 119.151C193.072 119.193 193.108 119.237 193.167 119.278C193.293 119.365 193.466 119.4 193.515 119.33C193.566 119.261 193.475 119.119 193.349 119.035C193.338 119.03 193.33 119.026 193.32 119.021L193.371 118.98C193.581 118.778 193.618 118.486 193.453 118.327C193.287 118.167 192.991 118.193 192.792 118.383Z" fill="black"/>
<path d="M195.467 114.896L195.446 114.953C195.438 114.945 195.431 114.939 195.422 114.931C195.3 114.841 195.135 114.799 195.091 114.859C195.049 114.919 195.135 115.061 195.252 115.154C195.307 115.198 195.36 115.22 195.406 115.228C195.049 115.358 194.638 115.727 194.378 116.081C194.249 116.264 194.191 116.426 194.173 116.57C194.167 116.629 194.131 116.682 194.076 116.709C193.932 116.78 193.807 116.897 193.72 117.061C193.606 117.286 193.624 117.568 193.76 117.772C194.019 118.16 194.572 118.155 194.895 117.781C194.976 117.689 195.026 117.579 195.055 117.472C195.072 117.408 195.12 117.355 195.181 117.33C195.332 117.271 195.482 117.144 195.63 116.934C195.93 116.524 196.084 115.892 195.989 115.521C196.021 115.554 196.07 115.583 196.14 115.601C196.289 115.64 196.466 115.61 196.488 115.524C196.512 115.438 196.375 115.338 196.226 115.305C196.214 115.304 196.205 115.303 196.194 115.302L196.227 115.245C196.358 114.978 196.269 114.686 196.053 114.603C195.838 114.521 195.586 114.656 195.467 114.896Z" fill="black"/>
<path d="M196.465 110.632L196.466 110.694C196.456 110.69 196.448 110.686 196.436 110.682C196.289 110.64 196.121 110.658 196.098 110.734C196.076 110.809 196.21 110.915 196.355 110.959C196.424 110.979 196.481 110.981 196.527 110.97C196.246 111.227 196.013 111.753 195.934 112.19C195.899 112.414 195.91 112.585 195.961 112.722C195.981 112.779 195.973 112.842 195.936 112.89C195.841 113.017 195.769 113.17 195.769 113.354C195.773 113.604 195.892 113.843 196.109 113.976C196.501 114.226 197.021 113.994 197.142 113.508C197.175 113.389 197.178 113.271 197.154 113.16C197.141 113.096 197.16 113.028 197.203 112.979C197.311 112.86 197.397 112.685 197.435 112.437C197.524 111.946 197.408 111.335 197.178 111.029C197.221 111.048 197.278 111.057 197.349 111.048C197.5 111.03 197.652 110.942 197.645 110.859C197.638 110.775 197.473 110.73 197.322 110.75C197.31 110.753 197.302 110.755 197.291 110.758C197.296 110.737 197.299 110.716 197.301 110.695C197.32 110.409 197.148 110.167 196.917 110.155C196.686 110.142 196.484 110.356 196.465 110.632Z" fill="black"/>
<path d="M196.1 106.208C196.103 106.23 196.109 106.251 196.114 106.271C196.103 106.269 196.094 106.268 196.082 106.265C195.929 106.256 195.769 106.312 195.767 106.395C195.764 106.478 195.921 106.555 196.073 106.563C196.145 106.567 196.201 106.555 196.242 106.533C196.034 106.854 195.956 107.451 196.031 107.908C196.069 108.141 196.142 108.304 196.238 108.418C196.278 108.466 196.292 108.529 196.273 108.586C196.222 108.738 196.22 108.912 196.277 109.068C196.319 109.188 196.383 109.238 196.47 109.339C196.554 109.431 196.662 109.501 196.783 109.536C197.008 109.6 197.225 109.546 197.39 109.416C197.473 109.358 197.538 109.257 197.58 109.127C197.619 109.012 197.637 108.881 197.623 108.759C197.61 108.633 197.57 108.521 197.511 108.427C197.476 108.371 197.472 108.301 197.495 108.242C197.554 108.097 197.573 107.91 197.534 107.671C197.457 107.198 197.186 106.67 196.888 106.432C196.934 106.44 196.992 106.435 197.058 106.41C197.201 106.356 197.327 106.241 197.301 106.166C197.274 106.092 197.104 106.084 196.961 106.137C196.95 106.142 196.942 106.145 196.933 106.15L196.929 106.089C196.888 105.817 196.677 105.621 196.446 105.643C196.217 105.666 196.057 105.924 196.1 106.208Z" fill="black"/>
<path d="M176.752 114.938C176.747 114.955 176.745 114.972 176.741 114.99C176.732 114.983 176.725 114.978 176.715 114.971C176.58 114.898 176.42 114.868 176.383 114.916C176.344 114.963 176.444 115.085 176.569 115.17C176.628 115.209 176.681 115.23 176.727 115.236C176.409 115.365 175.999 115.643 175.756 115.952C175.622 116.106 175.55 116.248 175.532 116.387C175.524 116.443 175.488 116.491 175.435 116.509C175.285 116.554 175.152 116.647 175.061 116.797C174.942 117.003 174.923 117.268 175.042 117.486C175.256 117.892 175.8 117.976 176.142 117.641C176.227 117.56 176.29 117.466 176.329 117.367C176.35 117.307 176.4 117.258 176.461 117.239C176.609 117.192 176.772 117.089 176.936 116.899C177.253 116.507 177.458 115.879 177.324 115.5C177.358 115.532 177.408 115.559 177.478 115.573C177.628 115.604 177.806 115.558 177.83 115.468C177.852 115.376 177.7 115.285 177.55 115.269H177.519L177.545 115.207C177.648 114.916 177.503 114.641 177.271 114.606C177.046 114.573 176.829 114.724 176.752 114.938Z" fill="black"/>
<path d="M176.461 110.841L176.47 110.901C176.458 110.899 176.45 110.896 176.438 110.893C176.287 110.872 176.122 110.913 176.112 110.994C176.101 111.074 176.252 111.158 176.403 111.177C176.474 111.186 176.531 111.178 176.574 111.161C176.331 111.432 176.229 112.073 176.33 112.525C176.378 112.757 176.457 112.904 176.56 113.008C176.602 113.051 176.619 113.11 176.601 113.164C176.557 113.31 176.562 113.467 176.625 113.614C176.717 113.816 176.911 113.97 177.162 114.029C177.389 114.079 177.607 114.026 177.756 113.877C177.913 113.728 177.992 113.493 177.956 113.251C177.938 113.13 177.89 113.028 177.829 112.938C177.792 112.886 177.784 112.819 177.805 112.763C177.856 112.624 177.866 112.441 177.822 112.23C177.731 111.809 177.5 111.374 177.226 111.111C177.272 111.121 177.329 111.12 177.398 111.101C177.544 111.061 177.678 110.962 177.66 110.892C177.641 110.821 177.472 110.802 177.325 110.839C177.314 110.843 177.306 110.847 177.296 110.85L177.297 110.792C177.28 110.534 177.09 110.329 176.858 110.334C176.627 110.339 176.442 110.567 176.461 110.841Z" fill="black"/>
<path d="M177.104 106.426L177.084 106.486C177.075 106.479 177.069 106.473 177.059 106.465C176.934 106.379 176.767 106.345 176.721 106.417C176.674 106.489 176.768 106.635 176.896 106.715C176.956 106.753 177.011 106.769 177.058 106.771C176.724 106.942 176.358 107.466 176.276 107.949C176.222 108.192 176.254 108.38 176.309 108.522C176.333 108.579 176.328 108.646 176.298 108.701C176.214 108.844 176.166 109.027 176.204 109.219C176.252 109.482 176.444 109.69 176.69 109.75C177.143 109.858 177.549 109.532 177.581 109.132C177.591 109.03 177.575 108.932 177.538 108.84C177.515 108.787 177.528 108.728 177.568 108.685C177.667 108.582 177.725 108.434 177.771 108.235C177.838 107.835 177.824 107.331 177.67 106.997C177.707 107.025 177.76 107.048 177.83 107.059C177.98 107.085 178.146 107.06 178.157 106.993C178.17 106.926 178.027 106.836 177.878 106.804C177.867 106.803 177.859 106.802 177.848 106.801C177.857 106.784 177.867 106.769 177.874 106.751C177.967 106.521 177.907 106.261 177.698 106.152C177.498 106.047 177.213 106.161 177.104 106.426Z" fill="black"/>
<path d="M180.032 105.861L180 105.917C179.993 105.907 179.987 105.901 179.98 105.891C179.875 105.781 179.719 105.713 179.658 105.775C179.598 105.837 179.659 105.998 179.767 106.102C179.819 106.152 179.869 106.179 179.915 106.19C179.552 106.289 179.085 106.728 178.904 107.185C178.8 107.411 178.792 107.602 178.817 107.751C178.828 107.812 178.809 107.878 178.768 107.924C178.656 108.048 178.571 108.217 178.568 108.413C178.561 108.68 178.705 108.923 178.933 109.031C179.354 109.228 179.819 108.991 179.934 108.606C179.965 108.508 179.97 108.409 179.953 108.312C179.941 108.255 179.967 108.2 180.015 108.166C180.133 108.086 180.22 107.952 180.307 107.766C180.456 107.389 180.547 106.892 180.467 106.535C180.497 106.569 180.544 106.602 180.61 106.628C180.752 106.683 180.919 106.693 180.945 106.629C180.97 106.566 180.85 106.449 180.711 106.388C180.7 106.384 180.692 106.382 180.681 106.378C180.694 106.364 180.707 106.351 180.718 106.335C180.857 106.129 180.852 105.862 180.67 105.713C180.497 105.57 180.194 105.624 180.032 105.861Z" fill="black"/>
<path d="M180.023 102.994C180.006 103.007 179.991 103.022 179.976 103.036C179.972 103.025 179.97 103.017 179.966 103.005C179.902 102.868 179.778 102.754 179.703 102.792C179.628 102.83 179.635 103.002 179.702 103.137C179.733 103.2 179.772 103.242 179.811 103.268C179.428 103.23 178.866 103.482 178.517 103.815C178.343 103.994 178.25 104.162 178.216 104.311C178.2 104.37 178.163 104.429 178.105 104.456C177.953 104.534 177.806 104.661 177.729 104.848C177.626 105.105 177.667 105.382 177.85 105.561C178.183 105.879 178.697 105.816 178.934 105.511C178.998 105.434 179.038 105.345 179.057 105.251C179.069 105.196 179.108 105.151 179.166 105.139C179.306 105.108 179.444 105.03 179.588 104.881C179.89 104.594 180.154 104.13 180.212 103.776C180.228 103.819 180.261 103.865 180.315 103.911C180.429 104.01 180.585 104.07 180.631 104.016C180.678 103.962 180.603 103.811 180.492 103.71C180.482 103.703 180.476 103.698 180.467 103.692L180.516 103.661C180.728 103.518 180.798 103.246 180.674 103.054C180.549 102.862 180.257 102.835 180.023 102.994Z" fill="black"/>
<path d="M184.232 101.311L184.169 101.326C184.172 101.315 184.173 101.306 184.176 101.294C184.188 101.144 184.135 100.985 184.049 100.983C183.963 100.981 183.883 101.135 183.876 101.285C183.873 101.355 183.886 101.41 183.908 101.451C183.59 101.24 182.955 101.199 182.485 101.36C182.245 101.436 182.089 101.547 181.994 101.671C181.955 101.721 181.893 101.751 181.829 101.749C181.656 101.743 181.477 101.806 181.321 101.928C181.111 102.102 181.026 102.377 181.097 102.611C181.237 103.052 181.721 103.226 182.086 103.061C182.179 103.019 182.254 102.951 182.318 102.879C182.355 102.836 182.413 102.818 182.47 102.83C182.607 102.857 182.768 102.845 182.967 102.782C183.353 102.649 183.794 102.372 184.014 102.086C184.008 102.131 184.014 102.187 184.039 102.253C184.092 102.394 184.197 102.52 184.263 102.496C184.328 102.471 184.336 102.303 184.289 102.161C184.284 102.151 184.281 102.143 184.277 102.134L184.334 102.13C184.586 102.108 184.782 101.903 184.771 101.678C184.761 101.448 184.519 101.285 184.232 101.311Z" fill="black"/>
<path d="M179.949 121.318L179.895 121.353C179.893 121.342 179.892 121.333 179.89 121.321C179.848 121.176 179.742 121.045 179.66 121.073C179.579 121.101 179.559 121.273 179.606 121.415C179.628 121.482 179.66 121.529 179.695 121.56C179.322 121.473 178.713 121.653 178.33 121.966C178.133 122.12 178.025 122.278 177.981 122.426C177.962 122.487 177.915 122.536 177.853 122.556C177.69 122.61 177.545 122.731 177.441 122.899C177.307 123.135 177.326 123.421 177.475 123.617C177.763 123.981 178.279 123.977 178.561 123.696C178.634 123.625 178.68 123.535 178.714 123.446C178.734 123.393 178.782 123.356 178.839 123.348C178.977 123.326 179.123 123.258 179.287 123.132C179.602 122.874 179.917 122.463 180.021 122.118C180.031 122.163 180.057 122.213 180.103 122.266C180.203 122.38 180.346 122.462 180.399 122.416C180.452 122.37 180.399 122.211 180.305 122.094C180.297 122.086 180.291 122.08 180.283 122.073L180.335 122.05C180.564 121.942 180.674 121.682 180.585 121.475C180.492 121.263 180.208 121.194 179.949 121.318Z" fill="black"/>
<path d="M188.619 101.605L188.564 101.613C188.566 101.602 188.569 101.594 188.572 101.582C188.595 101.434 188.562 101.272 188.497 101.255C188.431 101.24 188.35 101.379 188.318 101.526C188.303 101.595 188.305 101.651 188.317 101.695C188.062 101.441 187.613 101.218 187.179 101.136C186.959 101.096 186.776 101.111 186.633 101.165C186.576 101.187 186.509 101.181 186.454 101.147C186.31 101.053 186.122 101.007 185.92 101.038C185.645 101.07 185.426 101.273 185.365 101.508C185.258 101.957 185.58 102.349 185.97 102.394C186.071 102.401 186.168 102.395 186.261 102.362C186.314 102.342 186.375 102.356 186.419 102.397C186.524 102.494 186.678 102.568 186.91 102.611C187.366 102.699 188.012 102.593 188.302 102.339C188.286 102.382 188.28 102.439 188.294 102.507C188.322 102.654 188.428 102.796 188.516 102.782C188.604 102.769 188.633 102.602 188.596 102.457C188.591 102.445 188.588 102.437 188.585 102.427C188.606 102.429 188.627 102.43 188.65 102.429C188.947 102.414 189.158 102.204 189.123 101.974C189.089 101.754 188.864 101.592 188.619 101.605Z" fill="black"/>
<path d="M192.38 100.077L192.335 100.115C192.332 100.104 192.329 100.096 192.325 100.084C192.261 99.9486 192.138 99.8326 192.071 99.8614C192.004 99.8902 192.013 100.055 192.075 100.193C192.103 100.257 192.139 100.302 192.175 100.33C191.813 100.279 191.285 100.404 190.92 100.59C190.735 100.686 190.619 100.801 190.545 100.912C190.515 100.959 190.462 100.987 190.406 100.983C190.256 100.974 190.106 101.009 189.967 101.098C189.781 101.232 189.66 101.461 189.663 101.707C189.658 102.169 190.125 102.479 190.603 102.307C190.721 102.269 190.813 102.194 190.891 102.115C190.935 102.068 191.002 102.044 191.067 102.051C191.228 102.073 191.412 102.029 191.634 101.914C192.074 101.688 192.473 101.227 192.548 100.859C192.561 100.903 192.591 100.952 192.643 101C192.753 101.103 192.916 101.162 192.973 101.104C193.031 101.045 192.959 100.894 192.846 100.793C192.836 100.786 192.829 100.781 192.82 100.774L192.874 100.743C193.107 100.587 193.158 100.293 193.018 100.118C192.872 99.9347 192.596 99.9328 192.38 100.077Z" fill="black"/>
<path d="M174.383 113.013L174.401 113.07C174.39 113.07 174.381 113.069 174.369 113.068C174.217 113.071 174.061 113.138 174.063 113.218C174.06 113.246 174.085 113.225 174.141 113.231C174.196 113.231 174.268 113.26 174.343 113.263C174.413 113.269 174.471 113.264 174.515 113.25C174.275 113.475 174.054 113.934 173.985 114.334C173.951 114.536 173.967 114.693 174.019 114.821C174.04 114.873 174.033 114.932 173.995 114.972C173.896 115.084 173.833 115.222 173.832 115.385C173.828 115.603 173.951 115.822 174.154 115.971C174.52 116.263 175.06 116.065 175.194 115.594C175.229 115.479 175.228 115.366 175.208 115.26C175.197 115.199 175.216 115.134 175.259 115.089C175.365 114.979 175.447 114.813 175.487 114.578C175.567 114.114 175.446 113.513 175.167 113.212C175.212 113.225 175.27 113.227 175.339 113.206C175.411 113.18 175.486 113.149 175.53 113.079C175.574 113.015 175.59 112.913 175.573 112.868C175.544 112.803 175.374 112.811 175.235 112.871C175.224 112.877 175.217 112.881 175.208 112.887L175.201 112.83C175.147 112.583 174.919 112.416 174.692 112.458C174.464 112.5 174.326 112.749 174.383 113.013Z" fill="black"/>
<path d="M174.091 108.678L174.089 108.739C174.079 108.734 174.071 108.731 174.059 108.726C173.914 108.681 173.744 108.695 173.721 108.772C173.698 108.85 173.831 108.958 173.976 109C174.045 109.019 174.102 109.019 174.148 109.009C173.873 109.256 173.667 109.818 173.684 110.284C173.682 110.52 173.752 110.691 173.836 110.813C173.872 110.863 173.882 110.928 173.859 110.985C173.795 111.138 173.795 111.316 173.863 111.493C173.953 111.735 174.178 111.903 174.432 111.921C174.895 111.95 175.243 111.567 175.2 111.166C175.186 111.065 175.154 110.971 175.104 110.889C175.074 110.84 175.074 110.78 175.103 110.73C175.178 110.609 175.204 110.452 175.206 110.244C175.191 109.835 175.038 109.336 174.8 109.059C174.843 109.076 174.9 109.083 174.971 109.076C175.122 109.059 175.273 108.987 175.266 108.918C175.258 108.848 175.095 108.802 174.944 108.815C174.932 108.817 174.924 108.819 174.913 108.821L174.924 108.766C174.945 108.516 174.795 108.288 174.567 108.252C174.338 108.216 174.114 108.406 174.091 108.678Z" fill="black"/>
<path d="M175.471 104.525L175.444 104.58C175.436 104.572 175.431 104.565 175.422 104.556C175.309 104.455 175.15 104.398 175.096 104.461C175.042 104.523 175.117 104.677 175.233 104.774C175.287 104.819 175.339 104.843 175.385 104.852C175.199 104.906 175.011 105.046 174.84 105.226C174.662 105.403 174.516 105.627 174.434 105.849C174.344 106.072 174.323 106.254 174.363 106.403C174.378 106.463 174.363 106.528 174.321 106.573C174.212 106.696 174.123 106.86 174.129 107.055C174.131 107.319 174.28 107.556 174.506 107.658C174.931 107.843 175.398 107.609 175.496 107.228C175.526 107.133 175.53 107.035 175.513 106.941C175.502 106.885 175.524 106.83 175.569 106.795C175.674 106.709 175.776 106.584 175.852 106.394C175.922 106.204 175.969 105.983 175.996 105.768C176.016 105.55 176 105.331 175.958 105.162C175.99 105.195 176.039 105.225 176.106 105.247C176.251 105.293 176.418 105.29 176.439 105.225C176.46 105.158 176.331 105.05 176.188 104.999C176.177 104.997 176.169 104.995 176.158 104.992C176.169 104.977 176.181 104.963 176.191 104.946C176.31 104.727 176.282 104.465 176.088 104.335C175.899 104.209 175.604 104.282 175.471 104.525Z" fill="black"/>
<path d="M196.664 101.126L196.657 101.187C196.647 101.182 196.639 101.177 196.628 101.171C196.488 101.112 196.319 101.109 196.288 101.185C196.258 101.262 196.38 101.383 196.521 101.438C196.587 101.464 196.644 101.47 196.691 101.463C196.532 101.574 196.401 101.766 196.298 101.991C196.188 102.215 196.124 102.474 196.119 102.71C196.108 102.949 196.147 103.128 196.234 103.256C196.268 103.309 196.276 103.374 196.251 103.431C196.188 103.582 196.157 103.766 196.228 103.948C196.316 104.197 196.535 104.374 196.783 104.398C197.246 104.438 197.61 104.067 197.578 103.676C197.575 103.576 197.546 103.483 197.499 103.399C197.471 103.35 197.473 103.29 197.504 103.243C197.575 103.128 197.63 102.978 197.64 102.774C197.644 102.571 197.615 102.347 197.57 102.135C197.517 101.923 197.43 101.72 197.334 101.575C197.376 101.595 197.432 101.608 197.503 101.607C197.655 101.605 197.812 101.549 197.811 101.479C197.809 101.41 197.651 101.349 197.499 101.346C197.487 101.348 197.479 101.348 197.468 101.35C197.474 101.331 197.48 101.315 197.484 101.296C197.524 101.051 197.412 100.811 197.185 100.75C196.966 100.691 196.71 100.854 196.664 101.126Z" fill="black"/>
<path d="M178.481 101.322L178.435 101.362C178.431 101.352 178.428 101.344 178.424 101.332C178.36 101.196 178.235 101.082 178.161 101.117C178.088 101.152 178.096 101.321 178.163 101.455C178.195 101.517 178.233 101.56 178.271 101.586C177.903 101.555 177.341 101.779 177.003 102.106C176.824 102.263 176.74 102.432 176.706 102.578C176.693 102.639 176.651 102.69 176.593 102.713C176.438 102.775 176.291 102.888 176.211 103.067C176.097 103.306 176.128 103.584 176.289 103.771C176.591 104.116 177.119 104.104 177.368 103.798C177.438 103.725 177.485 103.639 177.51 103.547C177.526 103.493 177.57 103.452 177.626 103.44C177.765 103.411 177.896 103.328 178.056 103.189C178.352 102.901 178.628 102.457 178.673 102.094C178.689 102.136 178.722 102.183 178.776 102.229C178.89 102.328 179.047 102.39 179.094 102.338C179.142 102.285 179.066 102.136 178.954 102.034C178.945 102.027 178.938 102.022 178.929 102.016L178.978 101.987C179.182 101.836 179.247 101.567 179.122 101.38C178.991 101.187 178.703 101.159 178.481 101.322Z" fill="black"/>
<path d="M182.467 99.4283L182.409 99.4502C182.41 99.4386 182.41 99.4298 182.411 99.4175C182.402 99.2673 182.328 99.1171 182.246 99.1248C182.164 99.1325 182.11 99.2946 182.123 99.4436C182.129 99.5136 182.149 99.5666 182.175 99.6046C181.84 99.4325 181.232 99.449 180.796 99.638C180.573 99.7275 180.429 99.8424 180.348 99.9718C180.314 100.024 180.257 100.058 180.194 100.058C180.028 100.061 179.851 100.117 179.711 100.252C179.518 100.431 179.444 100.699 179.523 100.932C179.672 101.363 180.17 101.544 180.52 101.347C180.612 101.303 180.688 101.238 180.746 101.16C180.78 101.115 180.837 101.092 180.894 101.1C181.032 101.117 181.193 101.097 181.388 101.019C181.766 100.855 182.182 100.532 182.361 100.222C182.361 100.267 182.374 100.323 182.406 100.385C182.477 100.518 182.598 100.629 182.661 100.596C182.724 100.563 182.708 100.396 182.643 100.262C182.636 100.252 182.632 100.245 182.626 100.236L182.682 100.226C182.927 100.161 183.091 99.943 183.043 99.7175C182.996 99.497 182.735 99.3576 182.467 99.4283Z" fill="black"/>
<path d="M186.896 99.1773L186.834 99.1739C186.839 99.1639 186.843 99.1562 186.849 99.1451C186.901 99.0041 186.895 98.837 186.816 98.8112C186.737 98.7855 186.621 98.9119 186.573 99.0536C186.55 99.1197 186.547 99.1766 186.556 99.2219C186.317 98.9353 185.746 98.7187 185.266 98.7217C185.024 98.7194 184.846 98.7824 184.719 98.8631C184.667 98.8973 184.601 98.9057 184.543 98.8823C184.387 98.8228 184.203 98.822 184.02 98.8858C183.769 98.9684 183.601 99.2088 183.585 99.4509C183.562 99.9137 183.95 100.237 184.35 100.205C184.452 100.196 184.545 100.157 184.628 100.108C184.677 100.08 184.738 100.082 184.788 100.112C184.908 100.187 185.064 100.218 185.273 100.22C185.682 100.218 186.189 100.078 186.478 99.8611C186.459 99.9026 186.45 99.9583 186.454 100.028C186.465 100.178 186.53 100.329 186.601 100.324C186.671 100.318 186.724 100.16 186.719 100.011C186.717 99.999 186.715 99.9906 186.714 99.9802C186.732 99.9848 186.75 99.9902 186.769 99.9929C187.019 100.023 187.263 99.8888 187.307 99.6633C187.352 99.442 187.174 99.2123 186.896 99.1773Z" fill="black"/>
<path d="M190.84 98.8307L190.787 98.8565C190.786 98.8453 190.785 98.8369 190.784 98.8246C190.758 98.6771 190.67 98.5342 190.594 98.5472C190.519 98.5599 190.485 98.7235 190.512 98.8707C190.524 98.9398 190.548 98.9913 190.576 99.0274C190.238 98.8841 189.67 98.9125 189.284 99.0366C189.188 99.067 189.109 99.1027 189.062 99.1357C189.026 99.1572 189.038 99.1642 189.032 99.183C189.03 99.201 188.987 99.2202 188.97 99.2418C188.932 99.2775 188.88 99.2836 188.837 99.2594C188.72 99.1918 188.593 99.1642 188.437 99.1926C188.228 99.2306 188.006 99.3881 187.906 99.6144C187.72 100.03 187.966 100.506 188.496 100.549C188.626 100.559 188.754 100.535 188.862 100.488C188.927 100.459 189.002 100.462 189.065 100.488C189.109 100.503 189.134 100.522 189.204 100.527C189.269 100.533 189.361 100.53 189.407 100.527C189.526 100.521 189.635 100.5 189.754 100.462C190.213 100.314 190.651 99.9582 190.811 99.6282C190.814 99.6739 190.831 99.7281 190.869 99.7872C190.95 99.914 191.088 100.012 191.153 99.972C191.218 99.9313 191.186 99.7669 191.105 99.6405C191.097 99.6313 191.092 99.6247 191.085 99.6163L191.143 99.6002C191.391 99.5057 191.523 99.2575 191.44 99.0447C191.358 98.8319 191.088 98.7362 190.84 98.8307Z" fill="black"/>
<path d="M171.702 109.927L171.715 109.992C171.704 109.989 171.696 109.987 171.683 109.985C171.531 109.968 171.369 110.02 171.365 110.109C171.362 110.197 171.516 110.283 171.668 110.294C171.739 110.299 171.796 110.287 171.838 110.265C171.618 110.59 171.589 111.255 171.683 111.677C171.732 111.905 171.812 112.064 171.913 112.175C171.955 112.221 171.972 112.284 171.955 112.343C171.912 112.5 171.918 112.674 171.989 112.844C172.087 113.075 172.302 113.243 172.55 113.283C173.013 113.37 173.394 112.939 173.312 112.452C173.293 112.331 173.248 112.222 173.185 112.13C173.148 112.076 173.14 112.007 173.161 111.946C173.214 111.798 173.225 111.608 173.173 111.366C173.062 110.865 172.773 110.411 172.485 110.172C172.53 110.18 172.588 110.174 172.655 110.151C172.799 110.099 172.929 109.992 172.905 109.921C172.881 109.851 172.711 109.839 172.566 109.885C172.555 109.89 172.547 109.893 172.537 109.897L172.535 109.837C172.498 109.572 172.315 109.362 172.078 109.372C171.852 109.381 171.661 109.631 171.702 109.927Z" fill="black"/>
<path d="M172.4 105.254L172.381 105.317C172.372 105.309 172.366 105.304 172.356 105.296C172.23 105.21 172.063 105.179 172.017 105.255C171.972 105.33 172.067 105.478 172.195 105.56C172.255 105.598 172.31 105.614 172.357 105.614C172.006 105.794 171.646 106.336 171.537 106.839C171.47 107.09 171.498 107.293 171.55 107.443C171.572 107.504 171.566 107.576 171.53 107.632C171.43 107.782 171.399 107.978 171.424 108.184C171.454 108.465 171.665 108.691 171.904 108.754C172.362 108.865 172.753 108.526 172.803 108.109C172.814 108.002 172.793 107.897 172.767 107.802C172.749 107.745 172.764 107.683 172.804 107.638C172.906 107.53 172.965 107.375 173.024 107.162C173.115 106.74 173.104 106.185 172.97 105.839C173.006 105.868 173.059 105.891 173.13 105.901C173.281 105.924 173.447 105.89 173.46 105.816C173.473 105.742 173.329 105.651 173.18 105.624C173.168 105.623 173.16 105.623 173.149 105.622L173.175 105.568C173.279 105.318 173.211 105.043 173 104.943C172.794 104.846 172.514 104.98 172.4 105.254Z" fill="black"/>
<path d="M175.035 101.343L174.993 101.393C174.988 101.383 174.984 101.376 174.978 101.364C174.891 101.241 174.746 101.152 174.676 101.203C174.604 101.252 174.644 101.427 174.733 101.549C174.775 101.606 174.82 101.641 174.863 101.659C174.475 101.701 173.942 102.052 173.636 102.453C173.486 102.659 173.416 102.841 173.401 102.998C173.395 103.062 173.359 103.122 173.302 103.157C173.156 103.252 173.034 103.406 172.967 103.599C172.87 103.86 172.954 104.152 173.137 104.317C173.491 104.624 173.999 104.496 174.238 104.134C174.297 104.041 174.33 103.938 174.343 103.836C174.353 103.776 174.394 103.725 174.451 103.701C174.59 103.643 174.724 103.531 174.858 103.347C175.13 102.992 175.347 102.465 175.349 102.089C175.373 102.129 175.413 102.17 175.474 102.205C175.607 102.281 175.771 102.303 175.815 102.24C175.858 102.175 175.758 102.04 175.627 101.962C175.617 101.957 175.609 101.953 175.599 101.948L175.646 101.908C175.839 101.71 175.864 101.419 175.701 101.256C175.538 101.094 175.24 101.133 175.035 101.343Z" fill="black"/>
<path d="M172.039 114.811L172.049 114.875C172.038 114.872 172.03 114.87 172.017 114.867C171.866 114.848 171.702 114.897 171.694 114.982C171.684 115.067 171.843 115.154 171.994 115.169C172.066 115.177 172.122 115.167 172.164 115.147C171.938 115.461 171.851 116.085 171.952 116.577C172.008 116.824 172.1 116.997 172.209 117.112C172.253 117.159 172.275 117.226 172.263 117.291C172.239 117.462 172.274 117.654 172.376 117.832C172.51 118.076 172.788 118.209 173.034 118.183C173.502 118.127 173.743 117.669 173.627 117.252C173.596 117.147 173.54 117.055 173.47 116.977C173.432 116.93 173.421 116.866 173.44 116.808C173.488 116.667 173.493 116.494 173.443 116.274C173.353 115.837 173.098 115.327 172.814 115.076C172.86 115.085 172.918 115.082 172.985 115.061C173.131 115.014 173.257 114.908 173.238 114.833C173.218 114.759 173.049 114.743 172.902 114.786C172.891 114.791 172.884 114.795 172.873 114.799L172.874 114.737C172.852 114.464 172.647 114.252 172.416 114.264C172.185 114.275 172.016 114.52 172.039 114.811Z" fill="black"/>
<path d="M178.729 98.3967L178.673 98.4321C178.671 98.4209 178.669 98.4125 178.667 98.4002C178.624 98.2561 178.513 98.1282 178.428 98.1562C178.344 98.1862 178.326 98.3633 178.374 98.5062C178.396 98.573 178.429 98.6199 178.465 98.6495C178.08 98.5784 177.451 98.767 177.053 99.0782C176.846 99.2299 176.728 99.3851 176.674 99.5338C176.651 99.5941 176.6 99.6429 176.537 99.6609C176.366 99.7074 176.207 99.8157 176.091 99.9817C175.931 100.206 175.911 100.493 176.037 100.71C176.27 101.109 176.811 101.15 177.148 100.856C177.231 100.779 177.298 100.695 177.342 100.6C177.368 100.545 177.422 100.506 177.483 100.498C177.631 100.475 177.793 100.403 177.977 100.269C178.332 99.9913 178.686 99.5614 178.798 99.203C178.808 99.248 178.835 99.2983 178.883 99.3502C178.986 99.4612 179.135 99.5338 179.192 99.485C179.251 99.4381 179.198 99.2799 179.098 99.165C179.09 99.1569 179.084 99.1512 179.075 99.1439L179.132 99.1201C179.372 98.9933 179.489 98.7259 179.393 98.5235C179.293 98.3133 178.995 98.2561 178.729 98.3967Z" fill="black"/>
<path d="M183.345 97.162L183.279 97.172C183.283 97.1608 183.285 97.1524 183.288 97.1405C183.311 96.9914 183.266 96.8297 183.18 96.8216C183.093 96.8132 183 96.9611 182.981 97.1097C182.972 97.1793 182.981 97.2354 183 97.278C182.687 97.0464 182.05 96.9465 181.543 97.0456C181.287 97.0905 181.109 97.1912 180.99 97.2961C180.942 97.3402 180.873 97.3621 180.807 97.351C180.631 97.3306 180.433 97.3664 180.251 97.4693C180.004 97.6172 179.871 97.8846 179.905 98.127C179.978 98.5864 180.449 98.8119 180.86 98.6932C180.965 98.6613 181.056 98.6071 181.133 98.5372C181.18 98.4992 181.244 98.4884 181.302 98.508C181.445 98.5576 181.614 98.5545 181.838 98.5161C182.274 98.4308 182.795 98.1907 183.057 97.9191C183.046 97.9637 183.047 98.0206 183.068 98.0878C183.112 98.2318 183.217 98.3651 183.293 98.3448C183.368 98.3244 183.389 98.1577 183.348 98.0133C183.343 98.0025 183.34 97.9948 183.336 97.9848L183.398 97.9852C183.676 97.9625 183.898 97.7808 183.891 97.5504C183.885 97.3256 183.641 97.1382 183.345 97.162Z" fill="black"/>
<path d="M179.832 95.5113L179.77 95.5359C179.771 95.5244 179.771 95.5155 179.771 95.5032C179.759 95.353 179.677 95.2059 179.591 95.2174C179.505 95.2286 179.45 95.3938 179.465 95.5428C179.473 95.6127 179.494 95.6653 179.523 95.7022C179.164 95.5478 178.521 95.5943 178.051 95.8052C177.812 95.9066 177.662 96.0453 177.571 96.174C177.534 96.2277 177.473 96.2646 177.405 96.2692C177.229 96.2888 177.045 96.3683 176.892 96.5097C176.686 96.7095 176.619 96.9999 176.708 97.2281C176.886 97.6587 177.398 97.7716 177.77 97.563C177.865 97.5085 177.941 97.4351 178 97.3494C178.036 97.3022 178.097 97.2772 178.157 97.283C178.308 97.2991 178.472 97.2576 178.681 97.1697C179.085 96.9883 179.536 96.6369 179.728 96.3134C179.727 96.3595 179.742 96.414 179.778 96.4751C179.854 96.6054 179.988 96.711 180.056 96.6741C180.125 96.6372 180.107 96.4705 180.033 96.3391C180.026 96.3295 180.021 96.323 180.015 96.3142L180.076 96.3003C180.34 96.2158 180.514 95.9888 180.454 95.7656C180.395 95.5486 180.114 95.4214 179.832 95.5113Z" fill="black"/>
<path d="M188.03 97.332L187.966 97.3336C187.97 97.3228 187.973 97.3147 187.978 97.3032C188.018 97.1584 187.996 96.9924 187.917 96.9729C187.839 96.9536 187.733 97.0877 187.691 97.2322C187.672 97.2994 187.671 97.3562 187.683 97.4008C187.415 97.1307 186.854 96.9125 186.373 96.8757C186.129 96.8572 185.943 96.8899 185.802 96.9579C185.746 96.9855 185.676 96.9867 185.619 96.9567C185.466 96.8768 185.278 96.8422 185.063 96.8814C184.791 96.9414 184.576 97.1377 184.517 97.3777C184.403 97.828 184.782 98.2194 185.213 98.234C185.325 98.2398 185.434 98.2206 185.534 98.1829C185.593 98.1602 185.66 98.1691 185.713 98.2052C185.838 98.292 186.013 98.3516 186.255 98.37C186.733 98.4065 187.333 98.277 187.64 98.0431C187.622 98.0857 187.614 98.1418 187.624 98.2113C187.646 98.3604 187.738 98.5071 187.822 98.4971C187.906 98.4875 187.949 98.325 187.925 98.1768C187.922 98.1652 187.92 98.1572 187.917 98.1464L187.981 98.1556C188.273 98.1722 188.519 97.9951 188.525 97.7677C188.531 97.5395 188.311 97.3482 188.03 97.332Z" fill="black"/>
<path d="M160.4 116.048C160.376 116.134 160.296 116.189 160.206 116.2C158.951 116.345 158.219 116.51 157.66 116.804C157.112 117.069 156.79 117.411 156.794 117.517C156.8 117.623 157.165 117.951 157.887 118.005C158.066 118.025 158.262 117.998 158.477 117.966C158.693 117.938 158.921 117.87 159.153 117.757C159.388 117.656 159.627 117.518 159.852 117.32C160.084 117.141 160.296 116.9 160.482 116.62C160.535 116.541 160.629 116.498 160.723 116.499C161.061 116.496 161.425 116.45 161.565 116.342C161.699 116.224 161.603 116.079 161.111 115.851C160.926 115.332 160.773 115.241 160.676 115.342C160.569 115.435 160.486 115.725 160.4 116.048Z" fill="black"/>
<path d="M163.147 111.89C163.186 111.971 163.175 112.068 163.119 112.137C162.276 113.085 161.899 113.739 161.684 114.312C161.479 114.869 161.491 115.345 161.567 115.418C161.644 115.494 162.133 115.476 162.695 115.021C163.252 114.587 163.812 113.591 163.609 112.266C163.592 112.173 163.622 112.077 163.693 112.016C164.232 111.571 164.614 110.985 163.555 111.281C162.595 110.742 162.876 111.306 163.147 111.89Z" fill="black"/>
<path d="M162.899 106.847C162.973 106.895 163.011 106.985 162.999 107.073C162.817 108.312 162.855 109.093 163.048 109.698C163.21 110.286 163.526 110.651 163.635 110.661C163.742 110.672 164.102 110.36 164.288 109.684C164.452 109.03 164.386 107.934 163.482 106.921C163.419 106.851 163.397 106.752 163.427 106.662C163.612 106.008 163.636 105.283 162.9 106.12C161.822 106.187 162.328 106.512 162.899 106.847Z" fill="black"/>
<path d="M159.638 103.089C159.726 103.072 159.823 103.098 159.87 103.178C160.581 104.212 161.062 104.767 161.581 105.121C161.814 105.309 162.052 105.426 162.243 105.495C162.422 105.572 162.561 105.593 162.61 105.566C162.656 105.54 162.712 105.413 162.731 105.202C162.737 105 162.696 104.717 162.568 104.381C162.411 104.068 162.174 103.689 161.759 103.381C161.361 103.063 160.79 102.818 160.12 102.743C160.028 102.726 159.937 102.683 159.895 102.598C159.58 101.973 159.061 101.476 159.133 102.56C158.397 103.369 159.001 103.21 159.638 103.089Z" fill="black"/>
<path d="M154.616 102.513C154.672 102.444 154.764 102.407 154.852 102.431C156.075 102.767 156.855 102.825 157.475 102.753C158.082 102.671 158.498 102.471 158.534 102.354C158.563 102.269 158.33 101.821 157.665 101.547C157.027 101.258 155.891 101.184 154.755 101.94C154.676 101.993 154.576 102.012 154.489 101.976C153.84 101.696 153.117 101.648 153.883 102.43C153.851 103.516 154.208 103.009 154.616 102.513Z" fill="black"/>
<path d="M150.526 105.357C150.519 105.27 150.566 105.185 150.644 105.14C151.744 104.525 152.346 104.093 152.756 103.632C153.149 103.177 153.342 102.768 153.291 102.654C153.269 102.606 153.148 102.543 152.94 102.513C152.732 102.48 152.432 102.478 152.093 102.599C151.42 102.8 150.482 103.52 150.226 104.856C150.209 104.949 150.144 105.027 150.054 105.06C149.408 105.316 148.825 105.756 149.945 105.803C150.67 106.597 150.604 106 150.526 105.357Z" fill="black"/>
<path d="M149.313 110.235C149.254 110.168 149.241 110.071 149.276 109.989C149.804 108.837 149.973 108.073 149.955 107.45C149.953 106.845 149.78 106.413 149.68 106.37C149.582 106.328 149.123 106.512 148.76 107.123C148.415 107.718 148.19 108.79 148.769 109.999C148.811 110.083 148.806 110.184 148.753 110.261C148.552 110.541 148.398 110.854 148.42 111.022C148.436 111.194 148.611 111.202 149.088 110.931C149.62 111.077 149.784 111.008 149.761 110.866C149.73 110.723 149.521 110.486 149.313 110.235Z" fill="black"/>
<path d="M151.055 114.932C150.966 114.914 150.896 114.846 150.875 114.761C150.612 113.547 150.357 112.833 150.012 112.31C149.669 111.804 149.301 111.526 149.179 111.549C149.089 111.564 148.787 111.967 148.826 112.67C148.843 113.35 149.256 114.42 150.474 115.068C150.561 115.111 150.619 115.194 150.625 115.287C150.639 115.634 150.728 115.975 150.854 116.098C150.98 116.226 151.117 116.12 151.314 115.611C151.816 115.394 151.897 115.235 151.793 115.143C151.683 115.052 151.371 115.006 151.055 114.932Z" fill="black"/>
<path d="M155.495 117.22C155.419 117.265 155.321 117.26 155.245 117.21C154.189 116.515 153.519 116.187 152.911 116.049C152.324 115.908 151.863 115.935 151.787 116.025C151.725 116.097 151.763 116.6 152.285 117.103C152.781 117.593 153.852 118.077 155.176 117.705C155.267 117.68 155.367 117.704 155.437 117.769C155.957 118.21 156.608 118.552 156.161 117.533C156.567 116.55 156.049 116.853 155.495 117.22Z" fill="black"/>
<path d="M160.402 120.883C160.356 120.957 160.27 120.997 160.184 120.986C159.576 120.91 159.072 120.85 158.662 120.913C158.239 120.926 157.898 121.018 157.618 121.143C157.058 121.357 156.744 121.69 156.747 121.805C156.75 121.903 157.09 122.237 157.745 122.357C158.07 122.4 158.473 122.39 158.927 122.283C159.369 122.124 159.875 121.909 160.339 121.461C160.405 121.398 160.499 121.376 160.584 121.405C160.897 121.51 161.233 121.592 161.384 121.537C161.535 121.475 161.496 121.305 161.117 120.928C161.105 120.382 160.997 120.243 160.872 120.307C160.742 120.365 160.571 120.61 160.402 120.883Z" fill="black"/>
<path d="M164.575 118.335C164.565 118.419 164.503 118.489 164.419 118.513C164.119 118.601 163.866 118.7 163.638 118.801C163.399 118.886 163.194 118.982 163.015 119.086C162.669 119.309 162.378 119.495 162.178 119.722C161.979 119.948 161.84 120.161 161.75 120.324C161.665 120.494 161.638 120.628 161.662 120.677C161.685 120.724 161.806 120.789 162.006 120.827C162.209 120.872 162.485 120.873 162.802 120.777C163.117 120.682 163.507 120.542 163.848 120.213C164.024 120.057 164.199 119.872 164.365 119.659C164.517 119.43 164.653 119.164 164.771 118.873C164.804 118.791 164.882 118.733 164.974 118.724C165.631 118.631 166.263 118.383 165.218 118.047C164.699 117.104 164.624 117.7 164.575 118.335Z" fill="black"/>
<path d="M167.152 114.212C167.184 114.294 167.163 114.385 167.103 114.445C166.635 114.856 166.331 115.233 166.093 115.571C165.842 115.901 165.732 116.237 165.632 116.512C165.446 117.065 165.526 117.531 165.613 117.6C165.694 117.664 166.151 117.607 166.671 117.18C166.933 116.971 167.15 116.635 167.349 116.217C167.532 115.792 167.618 115.241 167.579 114.619C167.568 114.529 167.607 114.443 167.682 114.394C168.234 114.034 168.732 113.563 167.623 113.685C166.767 113.048 166.92 113.616 167.152 114.212Z" fill="black"/>
<path d="M167.876 109.388C167.935 109.454 167.948 109.547 167.913 109.625C167.642 110.177 167.467 110.643 167.408 111.053C167.307 111.459 167.305 111.81 167.353 112.109C167.417 112.697 167.659 113.083 167.772 113.111C167.869 113.135 168.288 112.901 168.577 112.31C168.705 112.014 168.803 111.631 168.819 111.174C168.793 110.716 168.7 110.184 168.42 109.618C168.378 109.539 168.383 109.444 168.436 109.373C168.824 108.846 169.123 108.242 168.128 108.73C167.098 108.422 167.445 108.91 167.876 109.388Z" fill="black"/>
<path d="M166.856 104.623C166.935 104.662 166.981 104.744 166.977 104.828C166.931 105.436 166.933 105.928 167.013 106.331C167.061 106.744 167.183 107.073 167.333 107.337C167.582 107.873 167.959 108.152 168.07 108.141C168.174 108.13 168.47 107.772 168.554 107.118C168.569 106.796 168.526 106.402 168.38 105.967C168.202 105.541 167.92 105.068 167.448 104.641C167.379 104.582 167.349 104.491 167.371 104.405C167.455 104.091 167.507 103.758 167.446 103.611C167.377 103.466 167.209 103.516 166.847 103.918C166.301 103.966 166.168 104.082 166.237 104.202C166.3 104.329 166.566 104.477 166.856 104.623Z" fill="black"/>
<path d="M163.978 100.703C164.064 100.707 164.139 100.763 164.17 100.844C164.627 101.96 165.07 102.586 165.551 102.96C166.031 103.321 166.445 103.461 166.555 103.4C166.635 103.358 166.81 102.888 166.577 102.274C166.452 101.976 166.292 101.595 165.934 101.285C165.762 101.125 165.562 100.967 165.333 100.82C165.101 100.676 164.812 100.57 164.511 100.473C164.424 100.446 164.36 100.375 164.344 100.285C164.214 99.6374 163.909 99.045 163.644 100.09C162.719 100.669 163.339 100.69 163.978 100.703Z" fill="black"/>
<path d="M159.622 98.4632C159.703 98.4256 159.797 98.4382 159.862 98.4928C160.761 99.3387 161.465 99.6548 162.058 99.792C162.632 99.9349 163.105 99.8158 163.162 99.7344C163.228 99.6406 163.132 99.2046 162.663 98.7256C162.2 98.2627 161.274 97.8344 160.003 98.013C159.913 98.0307 159.821 97.9996 159.766 97.93C159.36 97.4187 158.843 96.9677 159.051 98.0445C158.471 98.9357 159.035 98.7398 159.622 98.4632Z" fill="black"/>
<path d="M154.687 98.1416C154.747 98.0775 154.84 98.0552 154.922 98.0825C155.504 98.3084 155.986 98.4213 156.405 98.4628C156.823 98.5265 157.178 98.4977 157.478 98.4255C158.066 98.3287 158.441 98.0487 158.46 97.9388C158.477 97.8385 158.207 97.459 157.586 97.2089C157.275 97.1087 156.879 97.0449 156.415 97.0683C155.952 97.1148 155.417 97.2712 154.869 97.5854C154.792 97.6346 154.696 97.6388 154.618 97.5938C154.047 97.2662 153.398 97.0341 153.998 97.9592C153.796 98.9971 154.246 98.6111 154.687 98.1416Z" fill="black"/>
<path d="M150.038 99.7292C150.066 99.6477 150.142 99.5924 150.229 99.5851C150.831 99.5137 151.339 99.4791 151.725 99.3331C152.125 99.2209 152.445 99.0792 152.69 98.8983C153.189 98.5752 153.435 98.1945 153.409 98.0812C153.389 97.9867 152.989 97.7166 152.319 97.7331C151.992 97.76 151.59 97.8346 151.172 98.0501C150.771 98.2967 150.315 98.6048 149.969 99.1556C149.919 99.2302 149.832 99.2717 149.741 99.2613C149.057 99.1691 148.411 99.3066 149.338 99.8533C149.635 100.905 149.819 100.303 150.038 99.7292Z" fill="black"/>
<path d="M146.586 103.163C146.572 103.077 146.606 102.988 146.687 102.948C147.242 102.651 147.601 102.338 147.924 102.073C148.077 101.934 148.202 101.793 148.305 101.651C148.413 101.515 148.513 101.391 148.586 101.262C148.737 101.009 148.813 100.759 148.852 100.57C148.898 100.389 148.893 100.253 148.858 100.211C148.825 100.17 148.691 100.133 148.485 100.139C148.286 100.153 148.026 100.225 147.729 100.379C147.583 100.458 147.421 100.552 147.271 100.683C147.128 100.819 146.984 100.981 146.846 101.17C146.554 101.533 146.367 102.067 146.26 102.679C146.242 102.763 146.191 102.843 146.107 102.875C145.498 103.118 144.915 103.484 146.022 103.586C146.732 104.384 146.694 103.798 146.586 103.163Z" fill="black"/>
<path d="M144.954 107.748C144.907 107.674 144.91 107.58 144.959 107.51C145.315 107.011 145.576 106.588 145.711 106.198C145.885 105.821 145.951 105.478 145.96 105.176C146.025 104.596 145.852 104.163 145.751 104.115C145.658 104.07 145.215 104.223 144.799 104.745C144.618 105.014 144.448 105.375 144.346 105.824C144.285 106.28 144.274 106.825 144.458 107.43C144.485 107.515 144.463 107.608 144.399 107.67C143.924 108.125 143.523 108.673 144.59 108.354C145.55 108.826 145.294 108.291 144.954 107.748Z" fill="black"/>
<path d="M145.093 112.63C145.023 112.576 144.993 112.487 145.014 112.405C145.195 111.814 145.267 111.33 145.273 110.915C145.301 110.497 145.24 110.15 145.141 109.862C144.981 109.29 144.666 108.952 144.552 108.945C144.449 108.939 144.088 109.242 143.9 109.87C143.826 110.183 143.797 110.575 143.861 111.027C143.948 111.476 144.152 111.986 144.515 112.497C144.571 112.568 144.583 112.662 144.544 112.742C144.259 113.329 144.076 113.982 144.965 113.321C146.032 113.438 145.604 113.025 145.093 112.63Z" fill="black"/>
<path d="M147.042 117.086C146.957 117.063 146.896 116.993 146.883 116.909C146.825 116.603 146.775 116.337 146.73 116.098C146.676 115.854 146.607 115.642 146.524 115.455C146.388 115.065 146.214 114.764 146.014 114.536C145.654 114.066 145.244 113.856 145.133 113.889C145.037 113.917 144.8 114.329 144.861 114.985C144.911 115.304 145.021 115.69 145.262 116.086C145.396 116.278 145.559 116.473 145.753 116.664C145.939 116.86 146.177 117.038 146.464 117.191C146.543 117.236 146.591 117.318 146.587 117.408C146.54 118.083 146.713 118.714 147.211 117.767C148.256 117.411 147.641 117.262 147.042 117.086Z" fill="black"/>
<path d="M150.741 120.261C150.652 120.284 150.565 120.247 150.519 120.172C150.177 119.652 149.843 119.313 149.552 119.015C149.401 118.874 149.248 118.762 149.099 118.67C148.961 118.565 148.823 118.482 148.688 118.416C148.142 118.168 147.689 118.141 147.606 118.214C147.528 118.283 147.481 118.762 147.847 119.314C147.936 119.453 148.046 119.6 148.181 119.747C148.329 119.879 148.503 120.009 148.704 120.131C149.093 120.393 149.643 120.551 150.273 120.609C150.361 120.62 150.441 120.673 150.481 120.75C150.769 121.33 151.183 121.876 151.209 120.783C151.969 120.029 151.378 120.109 150.741 120.261Z" fill="black"/>
<path d="M155.502 121.513C155.43 121.565 155.336 121.57 155.26 121.529C154.726 121.219 154.278 121.001 153.874 120.896C153.479 120.755 153.129 120.717 152.822 120.732C152.232 120.706 151.804 120.912 151.763 121.014C151.724 121.11 151.911 121.529 152.472 121.903C152.758 122.061 153.138 122.199 153.601 122.264C154.069 122.292 154.624 122.255 155.221 122.027C155.306 121.992 155.401 122.006 155.469 122.064C155.97 122.491 156.562 122.838 156.146 121.819C156.539 120.836 156.022 121.133 155.502 121.513Z" fill="black"/>
<path d="M159.008 119.171C158.956 119.243 158.866 119.279 158.78 119.265C158.157 119.125 157.668 119.088 157.24 119.063C156.816 119.068 156.461 119.102 156.162 119.179C155.569 119.356 155.2 119.599 155.186 119.724C155.18 119.776 155.251 119.894 155.406 120.028C155.56 120.169 155.801 120.318 156.133 120.4C156.463 120.494 156.883 120.55 157.366 120.451C157.848 120.384 158.389 120.142 158.906 119.748C158.978 119.688 159.076 119.669 159.162 119.701C159.809 119.957 160.503 120.001 159.734 119.234C159.735 118.148 159.386 118.662 159.008 119.171Z" fill="black"/>
<path d="M163.226 116.52C163.222 116.607 163.16 116.68 163.077 116.712C161.919 117.178 161.264 117.581 160.848 118.038C160.429 118.464 160.268 118.909 160.308 119.001C160.354 119.104 160.799 119.267 161.479 119.09C161.815 119.002 162.187 118.794 162.558 118.478C162.732 118.305 162.904 118.103 163.066 117.872C163.225 117.641 163.343 117.349 163.452 117.048C163.482 116.962 163.56 116.899 163.651 116.88C164.299 116.719 164.948 116.419 163.857 116.171C163.28 115.274 163.225 115.863 163.226 116.52Z" fill="black"/>
<path d="M165.439 112.049C165.479 112.129 165.472 112.225 165.415 112.293C164.986 112.769 164.733 113.192 164.517 113.56C164.332 113.94 164.203 114.268 164.145 114.567C164.039 115.167 164.104 115.601 164.21 115.67C164.284 115.72 164.792 115.643 165.244 115.132C165.717 114.647 166.132 113.691 165.908 112.413C165.89 112.324 165.916 112.23 165.986 112.171C166.493 111.737 166.935 111.197 165.847 111.453C164.924 110.903 165.14 111.466 165.439 112.049Z" fill="black"/>
<path d="M165.5 107.056C165.57 107.111 165.611 107.2 165.581 107.286C165.49 107.591 165.43 107.863 165.395 108.112C165.355 108.362 165.311 108.592 165.306 108.803C165.304 109.223 165.309 109.579 165.395 109.876C165.55 110.468 165.811 110.834 165.933 110.848C166.026 110.861 166.438 110.575 166.635 109.93C166.837 109.302 166.85 108.258 166.079 107.189C166.032 107.113 166.009 107.018 166.047 106.935C166.315 106.323 166.459 105.636 165.604 106.346C164.528 106.264 164.977 106.661 165.5 107.056Z" fill="black"/>
<path d="M163.109 102.721C163.197 102.731 163.27 102.794 163.297 102.877C163.66 104.058 164.057 104.707 164.464 105.168C164.891 105.601 165.288 105.81 165.402 105.769C165.492 105.738 165.731 105.295 165.577 104.628C165.466 103.965 164.899 103.037 163.666 102.533C163.579 102.499 163.517 102.422 163.505 102.33C163.412 101.655 163.114 101.033 162.806 102.073C161.844 102.597 162.47 102.65 163.109 102.721Z" fill="black"/>
<path d="M158.707 100.344C158.788 100.303 158.886 100.314 158.952 100.378C159.908 101.185 160.593 101.556 161.205 101.69C161.787 101.846 162.254 101.779 162.325 101.687C162.385 101.61 162.319 101.136 161.835 100.638C161.353 100.173 160.399 99.6722 159.082 99.895C158.992 99.9042 158.898 99.875 158.838 99.8081C158.401 99.3072 157.848 98.8689 158.105 99.9411C157.544 100.848 158.112 100.637 158.707 100.344Z" fill="black"/>
<path d="M153.67 100.4C153.722 100.327 153.812 100.291 153.898 100.305C154.521 100.445 155.009 100.484 155.437 100.509C155.86 100.501 156.215 100.477 156.513 100.394C157.105 100.229 157.477 99.9766 157.492 99.8545C157.504 99.7657 157.213 99.3532 156.548 99.1734C155.903 98.9717 154.819 99.012 153.771 99.8214C153.7 99.8825 153.602 99.9017 153.515 99.8698C152.868 99.6167 152.173 99.571 152.944 100.338C152.945 101.423 153.293 100.911 153.67 100.4Z" fill="black"/>
<path d="M149.46 103.061C149.463 102.974 149.525 102.901 149.608 102.869C150.765 102.401 151.418 101.995 151.834 101.537C152.046 101.327 152.187 101.107 152.273 100.926C152.361 100.752 152.396 100.625 152.371 100.573C152.325 100.47 151.878 100.306 151.2 100.487C150.863 100.574 150.493 100.785 150.122 101.102C149.949 101.275 149.777 101.478 149.617 101.708C149.457 101.94 149.341 102.232 149.232 102.533C149.203 102.62 149.125 102.683 149.034 102.702C148.386 102.865 147.738 103.164 148.829 103.411C149.408 104.307 149.461 103.718 149.46 103.061Z" fill="black"/>
<path d="M147.249 107.535C147.209 107.455 147.217 107.359 147.274 107.291C147.703 106.816 147.956 106.393 148.172 106.024C148.357 105.643 148.485 105.316 148.543 105.016C148.648 104.417 148.582 103.982 148.477 103.913C148.403 103.863 147.894 103.941 147.443 104.452C146.972 104.938 146.556 105.894 146.781 107.171C146.798 107.261 146.772 107.355 146.702 107.413C146.196 107.847 145.754 108.388 146.841 108.132C147.765 108.682 147.549 108.118 147.249 107.535Z" fill="black"/>
<path d="M147.187 112.528C147.117 112.473 147.077 112.384 147.107 112.298C147.198 111.993 147.258 111.721 147.293 111.472C147.334 111.222 147.378 110.992 147.383 110.782C147.384 110.361 147.38 110.005 147.294 109.708C147.139 109.116 146.878 108.75 146.755 108.736C146.663 108.723 146.25 109.009 146.054 109.654C145.851 110.282 145.838 111.325 146.609 112.395C146.655 112.47 146.678 112.566 146.64 112.649C146.371 113.26 146.226 113.947 147.082 113.238C148.158 113.322 147.71 112.924 147.187 112.528Z" fill="black"/>
<path d="M149.568 116.87C149.481 116.859 149.408 116.797 149.381 116.713C149.021 115.532 148.627 114.88 148.219 114.419C147.794 113.984 147.397 113.775 147.283 113.815C147.193 113.847 146.954 114.289 147.105 114.956C147.215 115.619 147.779 116.549 149.011 117.056C149.098 117.09 149.16 117.168 149.171 117.26C149.264 117.933 149.558 118.559 149.87 117.519C150.831 116.998 150.209 116.941 149.568 116.87Z" fill="black"/>
<path d="M153.969 119.24C153.888 119.278 153.789 119.274 153.723 119.213C152.767 118.399 152.078 118.043 151.47 117.902C150.886 117.749 150.422 117.811 150.351 117.904C150.291 117.98 150.354 118.459 150.84 118.954C151.319 119.427 152.281 119.913 153.594 119.696C153.685 119.684 153.781 119.707 153.84 119.777C154.28 120.279 154.837 120.718 154.572 119.644C155.124 118.736 154.561 118.948 153.969 119.24Z" fill="black"/>
<path d="M125.172 99.3752C125.421 98.061 124.128 96.6481 122.695 97.2877C122.649 97.3008 122.591 97.3553 122.647 97.3987C123.745 98.0568 124.23 99.5842 123.745 100.861C123.737 100.897 123.749 100.913 123.767 100.921C123.775 100.94 123.79 100.953 123.819 100.944C124.969 100.405 126.344 100.942 126.937 102.163C126.979 102.227 127.023 102.159 127.037 102.11C127.607 100.52 126.353 99.099 125.172 99.3752Z" fill="black"/>
<path d="M130.739 91.9069C130.988 90.5928 129.696 89.1799 128.263 89.8195C128.217 89.8321 128.159 89.8871 128.215 89.9305C129.313 90.5885 129.798 92.1159 129.313 93.3932C129.304 93.4285 129.316 93.445 129.335 93.4527C129.343 93.4719 129.358 93.485 129.387 93.4758C130.537 92.9368 131.912 93.4739 132.504 94.6947C132.547 94.7588 132.591 94.6904 132.605 94.6413C133.175 93.0517 131.92 91.6307 130.739 91.9069Z" fill="black"/>
<path d="M141.638 90.2463C141.887 88.9321 140.595 87.5192 139.162 88.1588C139.116 88.1715 139.058 88.2264 139.114 88.2698C140.212 88.9279 140.697 90.4552 140.212 91.7325C140.203 91.7679 140.216 91.7844 140.234 91.7921C140.242 91.8113 140.257 91.8243 140.286 91.8151C141.436 91.2762 142.811 91.8132 143.403 93.034C143.446 93.0982 143.49 93.0298 143.504 92.9806C144.074 91.391 142.82 89.9701 141.638 90.2463Z" fill="black"/>
<path d="M120.027 105.293C120.276 103.979 118.984 102.566 117.551 103.206C117.505 103.219 117.446 103.273 117.503 103.317C118.601 103.975 119.086 105.502 118.601 106.779C118.592 106.815 118.604 106.831 118.623 106.839C118.631 106.859 118.646 106.871 118.675 106.862C119.825 106.323 121.2 106.86 121.792 108.081C121.835 108.145 121.878 108.077 121.892 108.028C122.463 106.438 121.208 105.017 120.027 105.293Z" fill="black"/>
<path d="M114.548 114.999C114.797 113.685 113.504 112.272 112.071 112.911C112.025 112.924 111.967 112.979 112.023 113.022C113.121 113.68 113.606 115.208 113.121 116.485C113.113 116.52 113.125 116.537 113.143 116.545C113.151 116.564 113.166 116.577 113.195 116.568C114.345 116.029 115.72 116.566 116.313 117.786C116.355 117.851 116.399 117.782 116.413 117.733C116.983 116.143 115.729 114.723 114.548 114.999Z" fill="black"/>
<path d="M132.193 126.983C132.442 125.668 131.15 124.256 129.717 124.895C129.671 124.908 129.612 124.963 129.669 125.006C130.767 125.664 131.252 127.192 130.767 128.469C130.758 128.504 130.77 128.521 130.789 128.528C130.797 128.548 130.812 128.561 130.841 128.551C131.991 128.012 133.366 128.55 133.958 129.77C134.001 129.835 134.044 129.766 134.058 129.717C134.629 128.127 133.374 126.706 132.193 126.983Z" fill="black"/>
<path d="M129.726 99.3752C129.975 98.061 128.683 96.6481 127.25 97.2877C127.204 97.3008 127.146 97.3553 127.202 97.3987C128.3 98.0568 128.785 99.5842 128.3 100.861C128.292 100.897 128.304 100.913 128.322 100.921C128.33 100.94 128.345 100.953 128.374 100.944C129.524 100.405 130.899 100.942 131.492 102.163C131.534 102.227 131.578 102.159 131.592 102.11C132.162 100.52 130.908 99.099 129.726 99.3752Z" fill="black"/>
<path d="M134.282 99.3752C134.531 98.061 133.238 96.6481 131.805 97.2877C131.759 97.3008 131.701 97.3553 131.757 97.3987C132.855 98.0568 133.34 99.5842 132.855 100.861C132.847 100.897 132.859 100.913 132.878 100.921C132.885 100.94 132.9 100.953 132.929 100.944C134.079 100.405 135.454 100.942 136.047 102.163C136.089 102.227 136.133 102.159 136.147 102.11C136.718 100.52 135.463 99.099 134.282 99.3752Z" fill="black"/>
<path d="M138.837 99.3752C139.086 98.061 137.793 96.6481 136.36 97.2877C136.314 97.3008 136.256 97.3553 136.312 97.3987C137.41 98.0568 137.895 99.5842 137.41 100.861C137.402 100.897 137.414 100.913 137.432 100.921C137.44 100.94 137.455 100.953 137.484 100.944C138.634 100.405 140.009 100.942 140.602 102.163C140.644 102.227 140.688 102.159 140.702 102.11C141.272 100.52 140.018 99.099 138.837 99.3752Z" fill="black"/>
<path d="M125.081 119.987C125.34 118.673 123.996 117.26 122.507 117.9C122.459 117.913 122.399 117.968 122.457 118.011C123.598 118.669 124.102 120.196 123.598 121.474C123.589 121.509 123.602 121.526 123.622 121.533C123.63 121.553 123.645 121.566 123.675 121.556C124.87 121.017 126.299 121.554 126.915 122.775C126.959 122.839 127.004 122.771 127.019 122.722C127.612 121.132 126.309 119.711 125.081 119.987Z" fill="black"/>
<path d="M129.815 119.987C130.073 118.673 128.73 117.26 127.241 117.9C127.193 117.913 127.132 117.968 127.191 118.011C128.332 118.669 128.836 120.196 128.332 121.474C128.323 121.509 128.336 121.526 128.355 121.533C128.364 121.553 128.379 121.566 128.409 121.556C129.604 121.017 131.033 121.554 131.649 122.775C131.693 122.839 131.739 122.771 131.753 122.722C132.346 121.132 131.042 119.711 129.815 119.987Z" fill="black"/>
<path d="M134.548 119.987C134.808 118.673 133.464 117.26 131.975 117.9C131.927 117.913 131.867 117.968 131.924 118.011C133.066 118.669 133.57 120.196 133.066 121.474C133.057 121.509 133.07 121.526 133.089 121.533C133.098 121.553 133.113 121.566 133.143 121.556C134.338 121.017 135.767 121.554 136.383 122.775C136.427 122.839 136.472 122.771 136.487 122.722C137.08 121.132 135.777 119.711 134.548 119.987Z" fill="black"/>
<path d="M139.282 119.987C139.541 118.673 138.198 117.26 136.708 117.9C136.661 117.913 136.6 117.968 136.658 118.011C137.8 118.669 138.304 120.196 137.8 121.474C137.791 121.509 137.804 121.526 137.823 121.533C137.831 121.553 137.847 121.566 137.877 121.556C139.072 121.017 140.501 121.554 141.117 122.775C141.161 122.839 141.206 122.771 141.221 122.722C141.814 121.132 140.51 119.711 139.282 119.987Z" fill="black"/>
<path d="M126.657 115.019C126.979 113.785 125.677 112.502 124.136 113.139C124.087 113.152 124.023 113.205 124.08 113.244C125.21 113.828 125.654 115.239 125.085 116.445C125.075 116.478 125.087 116.494 125.106 116.5C125.114 116.518 125.129 116.53 125.16 116.52C126.398 115.985 127.825 116.448 128.396 117.571C128.439 117.63 128.488 117.565 128.504 117.519C129.178 116.019 127.917 114.728 126.657 115.019Z" fill="black"/>
<path d="M129.431 112.401C129.753 111.168 128.451 109.885 126.91 110.522C126.861 110.535 126.797 110.588 126.854 110.627C127.984 111.211 128.428 112.622 127.859 113.828C127.849 113.861 127.861 113.876 127.881 113.883C127.888 113.901 127.903 113.913 127.934 113.903C129.171 113.368 130.599 113.831 131.17 114.954C131.212 115.013 131.262 114.948 131.279 114.901C131.952 113.402 130.691 112.111 129.431 112.401Z" fill="black"/>
<path d="M132.205 109.785C132.527 108.552 131.225 107.268 129.684 107.905C129.635 107.918 129.571 107.971 129.628 108.01C130.758 108.594 131.203 110.006 130.633 111.211C130.623 111.244 130.635 111.26 130.655 111.266C130.662 111.284 130.677 111.296 130.708 111.286C131.946 110.752 133.373 111.215 133.944 112.337C133.987 112.396 134.036 112.331 134.052 112.285C134.726 110.785 133.465 109.494 132.205 109.785Z" fill="black"/>
<path d="M134.98 107.167C135.301 105.934 133.999 104.651 132.458 105.288C132.409 105.301 132.345 105.354 132.402 105.393C133.533 105.977 133.976 107.388 133.407 108.594C133.397 108.627 133.409 108.643 133.429 108.649C133.436 108.667 133.451 108.679 133.482 108.669C134.719 108.134 136.148 108.597 136.719 109.72C136.76 109.779 136.81 109.714 136.827 109.667C137.5 108.168 136.239 106.877 134.98 107.167Z" fill="black"/>
<path d="M137.754 104.55C138.075 103.317 136.774 102.034 135.232 102.67C135.183 102.684 135.119 102.737 135.177 102.776C136.306 103.36 136.751 104.771 136.182 105.977C136.171 106.01 136.183 106.025 136.203 106.032C136.21 106.049 136.225 106.061 136.256 106.052C137.494 105.517 138.922 105.98 139.493 107.103C139.535 107.162 139.584 107.097 139.601 107.05C140.274 105.551 139.013 104.26 137.754 104.55Z" fill="black"/>
<path d="M114.583 126.669H123.744C127.908 126.669 130.753 129.436 130.753 132.92C130.753 135.175 129.539 137.087 127.769 137.976V138.18C129.851 139.239 131.205 141.528 131.205 143.953C131.205 147.711 127.978 150.58 123.675 150.58H114.583V126.669ZM123.466 136.848C125.653 136.848 127.249 135.345 127.249 133.261C127.249 131.178 125.653 129.709 123.466 129.709H118.018V136.848H123.466ZM123.779 147.54C125.896 147.54 127.7 145.798 127.7 143.714C127.7 141.63 125.896 139.854 123.779 139.854H118.018V147.54H123.779Z" fill="black"/>
<path d="M136.303 126.669H145.464C149.629 126.669 152.648 129.641 152.648 133.603C152.648 136.78 150.739 139.171 147.616 140.093L153.516 150.58H149.664L144.146 140.708H139.739V150.58H136.303V126.669ZM145.118 137.668C147.373 137.668 149.143 135.892 149.143 133.672C149.143 131.485 147.373 129.709 145.118 129.709H139.739V137.668H145.118Z" fill="black"/>
<path d="M158.406 126.669H161.91L174.125 144.705H174.333V126.669H177.665V150.58H174.16L161.91 132.544H161.702V150.58H158.406V126.669Z" fill="black"/>
<path d="M183.179 138.625C183.179 131.451 188.384 126.293 195.567 126.293C202.75 126.293 207.956 131.451 207.956 138.625C207.956 145.798 202.75 150.956 195.567 150.956C188.384 150.956 183.179 145.798 183.179 138.625ZM195.567 147.847C200.772 147.847 204.451 144.056 204.451 138.625C204.451 133.193 200.772 129.402 195.567 129.402C190.327 129.402 186.684 133.193 186.684 138.625C186.684 144.056 190.327 147.847 195.567 147.847Z" fill="black"/>
<path d="M160.889 108.041C160.964 108.094 161.008 108.185 160.984 108.276C160.719 109.526 160.625 110.299 160.691 110.925C160.72 111.232 160.779 111.488 160.837 111.678C160.904 111.869 160.977 111.991 161.027 112.01C161.079 112.029 161.214 111.987 161.38 111.852C161.555 111.721 161.755 111.493 161.91 111.152C162.066 110.814 162.164 110.363 162.129 109.839C162.074 109.319 161.912 108.71 161.476 108.155C161.423 108.075 161.396 107.974 161.426 107.882C161.545 107.548 161.59 107.18 161.517 107.008C161.446 106.831 161.281 106.881 160.907 107.294C160.36 107.304 160.227 107.429 160.286 107.553C160.35 107.681 160.621 107.843 160.889 108.041Z" fill="black"/>
<path d="M152.54 106.539C152.532 106.446 152.591 106.365 152.674 106.326C153.261 106.05 153.708 105.864 154.089 105.702C154.464 105.535 154.766 105.375 155.024 105.213C155.281 105.053 155.488 104.891 155.636 104.755C155.781 104.611 155.862 104.498 155.858 104.444C155.853 104.392 155.756 104.285 155.56 104.198C155.364 104.102 155.066 104.021 154.679 104.04C154.296 104.059 153.82 104.186 153.362 104.506C152.901 104.812 152.479 105.341 152.28 106.012C152.251 106.105 152.173 106.18 152.086 106.215C151.92 106.277 151.75 106.351 151.61 106.432C151.48 106.517 151.376 106.608 151.329 106.688C151.232 106.854 151.374 106.95 151.933 106.983C152.282 107.401 152.464 107.426 152.525 107.304C152.557 107.24 152.563 107.132 152.555 106.995C152.557 106.864 152.549 106.706 152.54 106.539Z" fill="black"/>
<path d="M155.491 114.816C155.411 114.857 155.307 114.86 155.235 114.798C154.713 114.417 154.348 114.089 154.023 113.84C153.693 113.597 153.423 113.394 153.152 113.252C152.64 112.948 152.185 112.806 152.081 112.868C152.001 112.911 151.866 113.412 152.248 114.088C152.449 114.408 152.772 114.78 153.277 115.026C153.77 115.277 154.429 115.425 155.129 115.287C155.226 115.276 155.331 115.292 155.402 115.36C155.658 115.613 155.977 115.807 156.164 115.819C156.356 115.833 156.382 115.665 156.166 115.154C156.394 114.665 156.337 114.493 156.197 114.491C156.051 114.49 155.786 114.665 155.491 114.816Z" fill="black"/>
<path d="M160.653 123.286C160.601 123.364 160.505 123.389 160.415 123.373C159.14 123.155 158.297 123.243 157.691 123.493C157.09 123.689 156.758 124.038 156.761 124.147C156.763 124.251 157.118 124.569 157.803 124.709C158.472 124.801 159.51 124.696 160.551 123.855C160.623 123.796 160.726 123.788 160.812 123.815C161.452 124.023 162.152 124.123 161.391 123.325C161.436 122.25 161.031 122.729 160.653 123.286Z" fill="black"/>
<path d="M170.045 111.962C170.091 112.04 170.087 112.138 170.038 112.214C169.71 112.756 169.438 113.211 169.3 113.63C169.174 114.051 169.083 114.408 169.071 114.723C169.057 115.038 169.103 115.305 169.164 115.499C169.21 115.688 169.28 115.807 169.332 115.828C169.381 115.847 169.518 115.811 169.698 115.7C169.863 115.583 170.063 115.389 170.25 115.102C170.436 114.815 170.627 114.44 170.677 113.958C170.737 113.481 170.755 112.918 170.541 112.284C170.513 112.195 170.536 112.097 170.601 112.031C170.839 111.79 171.065 111.522 171.085 111.359C171.098 111.194 170.928 111.147 170.412 111.316C169.914 111.066 169.74 111.096 169.74 111.247C169.733 111.398 169.875 111.677 170.045 111.962Z" fill="black"/>
<path d="M164.587 98.1909C164.677 98.1886 164.762 98.2397 164.805 98.3192C164.953 98.6061 165.122 98.8293 165.259 99.0575C165.398 99.2842 165.541 99.4755 165.687 99.6387C165.992 99.9518 166.251 100.214 166.521 100.382C167.067 100.71 167.52 100.799 167.611 100.733C167.695 100.673 167.783 100.183 167.456 99.5792C167.297 99.2765 167.07 98.9161 166.665 98.6307C166.47 98.4821 166.246 98.338 165.994 98.207C165.743 98.0745 165.43 97.9953 165.108 97.9185C165.016 97.8985 164.94 97.8309 164.913 97.7418C164.862 97.5789 164.804 97.4153 164.74 97.2816C164.669 97.1568 164.596 97.0588 164.525 97.0135C164.381 96.922 164.261 97.0496 164.174 97.5812C163.721 97.8966 163.668 98.0641 163.8 98.1348C163.867 98.1709 163.982 98.184 164.125 98.1847C164.261 98.1943 164.421 98.1955 164.587 98.1909Z" fill="black"/>
<path d="M154.595 95.7851C154.661 95.7229 154.758 95.6918 154.844 95.7294C155.458 95.9783 155.969 96.0698 156.415 96.1193C156.86 96.1842 157.238 96.1566 157.555 96.0851C158.182 95.963 158.565 95.7067 158.582 95.5896C158.597 95.4958 158.305 95.0909 157.651 94.8678C157.325 94.7671 156.91 94.7026 156.425 94.7252C155.94 94.7633 155.382 94.9404 154.799 95.2319C154.716 95.2703 154.616 95.2834 154.536 95.2365C153.945 94.9112 153.278 94.6807 153.875 95.6072C153.627 96.6525 154.119 96.2595 154.595 95.7851Z" fill="black"/>
<path d="M143.18 105.088C143.149 105.005 143.171 104.909 143.233 104.843C143.457 104.609 143.637 104.385 143.788 104.172C143.961 103.967 144.098 103.769 144.208 103.579C144.317 103.388 144.399 103.204 144.46 103.028C144.537 102.86 144.592 102.699 144.63 102.547C144.774 101.938 144.663 101.468 144.58 101.414C144.483 101.351 144.021 101.462 143.541 101.961C143.42 102.085 143.298 102.232 143.182 102.403C143.082 102.582 142.991 102.786 142.912 103.015C142.834 103.244 142.77 103.498 142.728 103.774C142.708 104.058 142.715 104.366 142.75 104.691C142.76 104.783 142.72 104.875 142.643 104.93C142.065 105.327 141.656 105.857 142.726 105.669C143.636 106.31 143.395 105.691 143.18 105.088Z" fill="black"/>
<path d="M146.132 119.693C146.044 119.677 145.972 119.609 145.947 119.523C145.861 119.212 145.748 118.956 145.657 118.707C145.569 118.457 145.469 118.24 145.361 118.05C145.129 117.68 144.923 117.375 144.696 117.153C144.232 116.719 143.794 116.551 143.696 116.595C143.597 116.64 143.424 117.097 143.616 117.754C143.705 118.084 143.86 118.477 144.193 118.839C144.353 119.024 144.541 119.21 144.759 119.389C144.98 119.567 145.266 119.712 145.565 119.852C145.651 119.891 145.711 119.972 145.719 120.065C145.74 120.412 145.822 120.742 145.945 120.856C146.066 120.976 146.21 120.875 146.408 120.373C146.918 120.157 147.005 120.004 146.891 119.908C146.772 119.814 146.45 119.76 146.132 119.693Z" fill="black"/>
<path d="M168.335 118.437C168.337 118.526 168.286 118.608 168.206 118.649C167.66 118.956 167.191 119.206 166.87 119.501C166.705 119.643 166.573 119.795 166.454 119.935C166.327 120.068 166.225 120.202 166.141 120.333C165.809 120.856 165.773 121.335 165.843 121.42C165.908 121.501 166.376 121.536 166.984 121.229C167.136 121.152 167.296 121.055 167.458 120.933C167.613 120.804 167.759 120.639 167.905 120.453C168.187 120.071 168.485 119.606 168.607 118.955C168.627 118.866 168.694 118.793 168.783 118.768C169.434 118.584 170.066 118.288 168.969 118.063C168.374 117.177 168.317 117.786 168.335 118.437Z" fill="black"/>
<path d="M167.977 98.3207C168.065 98.3426 168.125 98.419 168.139 98.5074C168.23 99.1447 168.424 99.6026 168.586 100.007C168.751 100.408 168.963 100.706 169.184 100.933C169.593 101.397 170.014 101.588 170.123 101.545C170.215 101.509 170.422 101.066 170.302 100.403C170.226 100.08 170.075 99.7013 169.811 99.3068C169.551 98.9115 169.096 98.5481 168.55 98.2131C168.471 98.1674 168.425 98.079 168.425 97.9884C168.404 97.3349 168.263 96.6673 167.762 97.6376C166.723 97.9749 167.319 98.1747 167.977 98.3207Z" fill="black"/>
<path d="M147.352 95.952C147.382 95.8698 147.46 95.8126 147.551 95.8033C148.191 95.7369 148.675 95.5917 149.101 95.4668C149.517 95.3297 149.824 95.1165 150.077 94.9336C150.582 94.5787 150.792 94.1523 150.758 94.0478C150.726 93.9495 150.299 93.7439 149.613 93.8008C149.273 93.8342 148.89 93.9817 148.474 94.2168C148.051 94.4373 147.646 94.8449 147.281 95.38C147.229 95.4553 147.139 95.4983 147.046 95.4895C146.355 95.4242 145.7 95.5617 146.636 96.103C146.918 97.164 147.131 96.5486 147.352 95.952Z" fill="black"/>
<path d="M141.26 113.848C141.19 113.791 141.159 113.7 141.179 113.614C141.298 113.006 141.405 112.487 141.382 112.052C141.363 111.618 141.273 111.258 141.186 110.96C140.988 110.371 140.635 110.047 140.524 110.048C140.418 110.05 140.094 110.39 139.949 111.043C139.863 111.369 139.865 111.77 139.976 112.226C140.091 112.682 140.26 113.202 140.682 113.715C140.738 113.788 140.751 113.886 140.713 113.968C140.432 114.574 140.251 115.237 141.138 114.565C142.21 114.698 141.774 114.258 141.26 113.848Z" fill="black"/>
<path d="M155.447 126.087C155.374 126.139 155.275 126.144 155.196 126.102C154.63 125.826 154.149 125.611 153.721 125.505C153.293 125.4 152.917 125.403 152.606 125.4C151.981 125.425 151.564 125.668 151.534 125.774C151.506 125.873 151.745 126.273 152.347 126.594C152.644 126.769 153.042 126.862 153.52 126.885C153.996 126.91 154.554 126.863 155.167 126.601C155.253 126.567 155.352 126.58 155.422 126.638C155.944 127.066 156.546 127.413 156.119 126.394C156.529 125.412 155.983 125.708 155.447 126.087Z" fill="black"/>
</g>
</svg>
