<svg width="340" height="508" viewBox="0 0 340 508" fill="none" xmlns="http://www.w3.org/2000/svg">
<rect width="340" height="508" fill="#F9F0E4"/>
<g opacity="0.25">
<path d="M190.61 157.784L190.54 157.81C190.541 157.797 190.542 157.788 190.543 157.774C190.537 157.613 190.455 157.455 190.352 157.468C190.25 157.481 190.18 157.658 190.199 157.816C190.207 157.89 190.232 157.945 190.264 157.984C190.066 157.907 189.796 157.908 189.497 157.947C189.219 158.009 188.917 158.118 188.687 158.268C188.461 158.427 188.324 158.587 188.255 158.738C188.225 158.799 188.169 158.849 188.105 158.869C187.929 158.92 187.757 159.033 187.629 159.206C187.449 159.437 187.453 159.753 187.587 159.976C187.851 160.399 188.405 160.424 188.75 160.148C188.836 160.075 188.9 159.986 188.943 159.887C188.966 159.827 189.022 159.79 189.086 159.789C189.241 159.782 189.407 159.725 189.59 159.594C189.773 159.474 189.956 159.326 190.112 159.145C190.273 158.994 190.41 158.799 190.495 158.63C190.497 158.678 190.515 158.735 190.552 158.8C190.634 158.94 190.761 159.06 190.82 159.026C190.879 158.993 190.862 158.815 190.793 158.672C190.786 158.662 190.781 158.654 190.776 158.645C190.795 158.641 190.814 158.639 190.834 158.633C191.083 158.565 191.274 158.357 191.249 158.109C191.229 157.875 190.933 157.697 190.61 157.784Z" fill="black"/>
<path d="M184.815 163.943L184.776 164.004C184.769 163.994 184.764 163.986 184.757 163.975C184.653 163.85 184.489 163.772 184.415 163.843C184.342 163.914 184.395 164.097 184.508 164.211C184.56 164.265 184.614 164.295 184.663 164.307C184.458 164.363 184.243 164.523 184.03 164.731C183.846 164.945 183.672 165.211 183.582 165.467C183.5 165.727 183.488 165.935 183.527 166.097C183.54 166.163 183.527 166.236 183.488 166.29C183.379 166.435 183.312 166.627 183.317 166.84C183.316 167.13 183.513 167.38 183.758 167.479C184.23 167.659 184.686 167.352 184.792 166.928C184.815 166.818 184.81 166.709 184.783 166.605C184.765 166.543 184.787 166.481 184.837 166.442C184.956 166.345 185.054 166.202 185.119 165.989C185.191 165.785 185.246 165.559 185.258 165.323C185.293 165.106 185.282 164.87 185.246 164.685C185.277 164.722 185.326 164.758 185.397 164.787C185.548 164.85 185.723 164.87 185.749 164.808C185.776 164.747 185.652 164.615 185.509 164.543C185.498 164.538 185.489 164.535 185.478 164.531C185.492 164.517 185.506 164.504 185.518 164.488C185.674 164.285 185.698 164.008 185.526 163.824C185.365 163.649 185.02 163.683 184.815 163.943Z" fill="black"/>
<path d="M182.262 164.245L182.211 164.297C182.206 164.285 182.203 164.276 182.198 164.264C182.122 164.121 181.978 164.012 181.891 164.067C181.804 164.122 181.819 164.312 181.905 164.446C181.944 164.509 181.991 164.549 182.037 164.571C181.825 164.584 181.581 164.698 181.329 164.859C181.104 165.031 180.879 165.257 180.737 165.489C180.603 165.728 180.548 165.93 180.552 166.096C180.551 166.163 180.523 166.232 180.474 166.277C180.337 166.397 180.231 166.572 180.191 166.781C180.13 167.065 180.271 167.349 180.49 167.495C180.914 167.766 181.425 167.556 181.617 167.162C181.663 167.059 181.681 166.952 181.676 166.845C181.671 166.78 181.705 166.724 181.763 166.695C181.9 166.624 182.025 166.504 182.133 166.309C182.246 166.123 182.347 165.912 182.407 165.683C182.488 165.479 182.526 165.246 182.529 165.057C182.551 165.1 182.592 165.144 182.655 165.187C182.79 165.278 182.957 165.333 182.996 165.279C183.035 165.223 182.941 165.07 182.816 164.97C182.806 164.964 182.798 164.959 182.788 164.953C182.805 164.942 182.821 164.931 182.836 164.918C183.031 164.751 183.113 164.484 182.983 164.27C182.861 164.067 182.516 164.031 182.262 164.245Z" fill="black"/>
<path d="M195.472 158.388L195.408 158.388C195.412 158.377 195.416 158.368 195.421 158.356C195.47 158.203 195.456 158.026 195.38 158.004C195.301 157.983 195.203 158.114 195.147 158.264C195.123 158.334 195.116 158.394 195.124 158.442C194.89 158.149 194.43 157.829 193.947 157.688C193.71 157.617 193.493 157.612 193.336 157.653C193.272 157.669 193.194 157.66 193.138 157.617C192.991 157.504 192.788 157.433 192.554 157.448C192.243 157.455 191.972 157.67 191.903 157.914C191.785 158.392 192.099 158.809 192.5 158.891C192.605 158.909 192.715 158.912 192.818 158.886C192.879 158.872 192.941 158.889 192.984 158.938C193.093 159.055 193.239 159.143 193.485 159.216C193.954 159.355 194.659 159.354 195.021 159.12C194.998 159.163 194.984 159.221 194.99 159.297C194.999 159.455 195.103 159.628 195.192 159.617C195.284 159.61 195.338 159.44 195.32 159.281C195.317 159.269 195.316 159.26 195.313 159.249L195.381 159.261C195.689 159.295 195.952 159.11 195.963 158.866C195.973 158.626 195.754 158.42 195.472 158.388Z" fill="black"/>
<path d="M199.806 157.529L199.756 157.567C199.753 157.555 199.751 157.546 199.747 157.533C199.69 157.382 199.571 157.253 199.498 157.275C199.426 157.297 199.422 157.47 199.472 157.622C199.495 157.693 199.528 157.744 199.564 157.778C199.181 157.688 198.626 157.733 198.215 157.846C198.008 157.916 197.857 157.983 197.754 158.096C197.713 158.142 197.65 158.158 197.592 158.137C197.435 158.082 197.271 158.092 197.094 158.148C196.86 158.238 196.665 158.45 196.607 158.705C196.491 159.183 196.902 159.611 197.452 159.554C197.587 159.535 197.71 159.489 197.814 159.426C197.875 159.389 197.952 159.381 198.021 159.4C198.185 159.444 198.408 159.462 198.68 159.374C199.229 159.222 199.774 158.766 199.902 158.376C199.911 158.425 199.937 158.479 199.987 158.536C200.094 158.656 200.27 158.731 200.344 158.672C200.418 158.613 200.353 158.442 200.241 158.328C200.231 158.32 200.224 158.315 200.215 158.307L200.277 158.275C200.546 158.111 200.636 157.808 200.49 157.61C200.346 157.416 200.042 157.385 199.806 157.529Z" fill="black"/>
<path d="M200.324 153.93L200.291 153.983C200.284 153.972 200.278 153.965 200.271 153.954C200.164 153.832 200.007 153.751 199.946 153.796C199.885 153.841 199.943 154.005 200.043 154.131C200.09 154.189 200.139 154.226 200.184 154.245C199.794 154.292 199.289 154.521 198.943 154.767C198.774 154.902 198.656 155.017 198.599 155.157C198.576 155.214 198.523 155.25 198.461 155.251C198.295 155.251 198.144 155.317 197.998 155.43C197.81 155.593 197.702 155.858 197.738 156.117C197.798 156.605 198.334 156.868 198.829 156.627C198.949 156.564 199.049 156.479 199.124 156.384C199.169 156.33 199.239 156.296 199.309 156.29C199.479 156.276 199.694 156.218 199.919 156.042C200.38 155.715 200.73 155.102 200.713 154.693C200.739 154.736 200.782 154.778 200.849 154.814C200.993 154.89 201.184 154.901 201.233 154.821C201.281 154.74 201.16 154.602 201.014 154.533C201.002 154.529 200.994 154.526 200.983 154.522L201.029 154.471C201.224 154.226 201.202 153.911 200.994 153.775C200.791 153.641 200.495 153.715 200.324 153.93Z" fill="black"/>
<path d="M203.121 154.423L203.089 154.476C203.081 154.467 203.075 154.46 203.067 154.449C202.953 154.337 202.786 154.265 202.729 154.316C202.672 154.367 202.742 154.528 202.852 154.646C202.904 154.701 202.955 154.733 203.002 154.749C202.617 154.827 202.118 155.112 201.8 155.433C201.627 155.6 201.535 155.761 201.497 155.912C201.481 155.972 201.436 156.022 201.374 156.04C201.209 156.088 201.062 156.195 200.951 156.35C200.804 156.568 200.781 156.856 200.895 157.092C201.106 157.539 201.691 157.626 202.079 157.285C202.172 157.2 202.242 157.1 202.287 156.994C202.313 156.931 202.37 156.885 202.437 156.87C202.599 156.833 202.771 156.734 202.957 156.554C203.334 156.176 203.617 155.559 203.567 155.152C203.595 155.193 203.643 155.232 203.712 155.262C203.861 155.327 204.051 155.324 204.091 155.242C204.132 155.159 204.005 155.032 203.853 154.972C203.84 154.969 203.831 154.967 203.82 154.964L203.865 154.911C204.032 154.65 203.993 154.34 203.779 154.22C203.564 154.1 203.269 154.191 203.121 154.423Z" fill="black"/>
<path d="M185.799 159.597L185.781 159.656C185.771 159.649 185.764 159.644 185.753 159.635C185.616 159.552 185.436 159.521 185.392 159.584C185.349 159.647 185.456 159.787 185.592 159.876C185.655 159.917 185.713 159.937 185.763 159.941C185.407 160.107 184.991 160.499 184.76 160.884C184.632 161.087 184.581 161.264 184.581 161.419C184.58 161.482 184.548 161.541 184.492 161.573C184.344 161.658 184.226 161.796 184.156 161.973C184.066 162.218 184.113 162.504 184.281 162.706C184.593 163.092 185.183 163.04 185.478 162.62C185.548 162.516 185.591 162.402 185.609 162.288C185.62 162.221 185.664 162.163 185.726 162.134C185.874 162.06 186.017 161.924 186.154 161.705C186.429 161.251 186.556 160.586 186.408 160.202C186.446 160.235 186.501 160.262 186.576 160.275C186.737 160.304 186.92 160.258 186.94 160.168C186.959 160.078 186.805 159.984 186.643 159.961C186.63 159.961 186.621 159.961 186.608 159.961L186.64 159.899C186.74 159.606 186.627 159.314 186.389 159.247C186.151 159.181 185.887 159.337 185.799 159.597Z" fill="black"/>
<path d="M204.53 150.223L204.533 150.286C204.521 150.282 204.513 150.278 204.5 150.274C204.342 150.234 204.163 150.254 204.142 150.328C204.119 150.401 204.262 150.506 204.418 150.551C204.491 150.573 204.552 150.575 204.601 150.564C204.311 150.825 204.034 151.327 203.927 151.754C203.869 151.971 203.875 152.146 203.912 152.289C203.928 152.348 203.914 152.411 203.869 152.454C203.757 152.57 203.662 152.714 203.644 152.9C203.614 153.15 203.713 153.414 203.924 153.584C204.301 153.9 204.887 153.739 205.076 153.242C205.126 153.121 205.145 152.997 205.131 152.878C205.125 152.808 205.153 152.739 205.205 152.692C205.336 152.58 205.437 152.4 205.506 152.138C205.637 151.62 205.553 150.952 205.297 150.628C205.342 150.649 205.403 150.658 205.479 150.649C205.641 150.631 205.804 150.535 205.796 150.443C205.787 150.353 205.608 150.307 205.448 150.332C205.436 150.335 205.427 150.337 205.415 150.341L205.424 150.273C205.442 149.966 205.243 149.719 204.993 149.721C204.748 149.723 204.546 149.948 204.53 150.223Z" fill="black"/>
<path d="M207.512 136.655L207.459 136.69C207.457 136.678 207.455 136.669 207.453 136.656C207.405 136.503 207.294 136.365 207.218 136.386C207.142 136.404 207.126 136.578 207.168 136.732C207.187 136.804 207.217 136.857 207.252 136.892C206.873 136.786 206.292 136.815 205.864 136.949C205.644 137.014 205.495 137.11 205.39 137.215C205.348 137.26 205.284 137.281 205.225 137.266C205.065 137.232 204.889 137.228 204.718 137.31C204.485 137.415 204.306 137.636 204.269 137.901C204.189 138.38 204.635 138.786 205.167 138.686C205.298 138.665 205.416 138.615 205.513 138.542C205.57 138.5 205.645 138.487 205.713 138.507C205.879 138.557 206.089 138.547 206.352 138.469C206.872 138.308 207.41 137.89 207.559 137.507C207.565 137.556 207.588 137.611 207.635 137.67C207.736 137.796 207.905 137.882 207.98 137.828C208.054 137.773 208.001 137.6 207.896 137.479C207.887 137.471 207.88 137.464 207.871 137.456L207.935 137.428C208.211 137.284 208.322 136.988 208.19 136.78C208.061 136.577 207.76 136.525 207.512 136.655Z" fill="black"/>
<path d="M204.113 145.548V145.619C204.102 145.614 204.093 145.611 204.081 145.606C203.924 145.562 203.743 145.59 203.72 145.686C203.705 145.781 203.858 145.897 204.018 145.93C204.093 145.946 204.154 145.941 204.202 145.925C203.913 146.234 203.8 146.929 203.902 147.428C203.949 147.679 204.039 147.853 204.145 147.963C204.189 148.009 204.207 148.074 204.19 148.134C204.141 148.298 204.145 148.452 204.212 148.63C204.308 148.867 204.537 149.052 204.798 149.098C205.291 149.188 205.708 148.774 205.637 148.251C205.616 148.122 205.572 147.996 205.503 147.904C205.464 147.849 205.454 147.777 205.478 147.714C205.535 147.558 205.546 147.373 205.502 147.137C205.411 146.68 205.165 146.197 204.901 145.92C204.948 145.935 205.009 145.937 205.084 145.923C205.243 145.891 205.395 145.807 205.378 145.737C205.367 145.668 205.191 145.629 205.029 145.65C205.017 145.653 205.008 145.655 204.997 145.658C205.001 145.638 205.006 145.62 205.007 145.599C205.019 145.337 204.862 145.094 204.621 145.05C204.375 145.006 204.129 145.227 204.113 145.548Z" fill="black"/>
<path d="M202.401 143.609L202.379 143.676C202.369 143.669 202.362 143.663 202.352 143.654C202.216 143.566 202.035 143.538 201.984 143.622C201.939 143.708 202.049 143.865 202.191 143.945C202.257 143.982 202.317 143.996 202.367 143.994C201.996 144.202 201.671 144.83 201.612 145.336C201.579 145.589 201.61 145.781 201.676 145.918C201.704 145.975 201.701 146.042 201.666 146.094C201.568 146.236 201.524 146.383 201.533 146.574C201.549 146.827 201.71 147.072 201.944 147.193C202.385 147.427 202.911 147.158 203.007 146.639C203.028 146.51 203.025 146.377 202.988 146.269C202.968 146.204 202.982 146.133 203.023 146.08C203.126 145.948 203.195 145.775 203.226 145.538C203.283 145.076 203.199 144.542 203.034 144.199C203.075 144.227 203.133 144.247 203.208 144.256C203.369 144.274 203.54 144.239 203.545 144.167C203.557 144.099 203.402 144.009 203.241 143.981C203.228 143.98 203.219 143.979 203.208 143.978C203.217 143.961 203.228 143.944 203.236 143.925C203.329 143.68 203.256 143.401 203.04 143.287C202.82 143.171 202.516 143.308 202.401 143.609Z" fill="black"/>
<path d="M206.321 141.145L206.279 141.2C206.273 141.189 206.269 141.181 206.262 141.169C206.167 141.038 206.012 140.946 205.94 141.001C205.869 141.057 205.91 141.236 206.007 141.364C206.053 141.424 206.102 141.46 206.149 141.479C205.736 141.518 205.178 141.902 204.881 142.357C204.733 142.588 204.658 142.779 204.669 142.956C204.67 143.026 204.64 143.096 204.585 143.141C204.436 143.259 204.313 143.435 204.283 143.662C204.226 143.963 204.359 144.251 204.598 144.384C205.032 144.614 205.54 144.405 205.703 144.035C205.748 143.939 205.774 143.839 205.772 143.737C205.772 143.676 205.806 143.622 205.859 143.593C205.983 143.522 206.126 143.413 206.246 143.224C206.484 142.859 206.681 142.316 206.675 141.929C206.701 141.971 206.745 142.013 206.811 142.05C206.952 142.129 207.131 142.158 207.17 142.09C207.21 142.022 207.101 141.88 206.962 141.798C206.95 141.792 206.942 141.789 206.932 141.784L206.978 141.741C207.163 141.529 207.203 141.24 207.025 141.065C206.854 140.897 206.524 140.915 206.321 141.145Z" fill="black"/>
<path d="M209.494 137.496L209.446 137.546C209.441 137.535 209.438 137.526 209.433 137.514C209.352 137.375 209.207 137.267 209.13 137.315C209.053 137.364 209.076 137.546 209.16 137.683C209.199 137.746 209.244 137.788 209.288 137.811C208.873 137.81 208.279 138.137 207.937 138.561C207.767 138.776 207.673 138.959 207.665 139.136C207.66 139.206 207.623 139.272 207.563 139.312C207.403 139.414 207.263 139.578 207.21 139.801C207.122 140.094 207.225 140.394 207.449 140.55C207.858 140.821 208.385 140.663 208.584 140.311C208.639 140.22 208.675 140.123 208.684 140.021C208.69 139.961 208.729 139.91 208.785 139.887C208.915 139.828 209.069 139.733 209.207 139.557C209.481 139.217 209.733 138.696 209.767 138.31C209.788 138.354 209.827 138.4 209.889 138.444C210.022 138.537 210.196 138.583 210.243 138.519C210.289 138.456 210.195 138.304 210.065 138.208C210.055 138.202 210.047 138.197 210.037 138.191L210.087 138.153C210.293 137.96 210.362 137.677 210.202 137.485C210.05 137.301 209.719 137.287 209.494 137.496Z" fill="black"/>
<path d="M193.218 160.226L193.146 160.225C193.151 160.214 193.155 160.206 193.161 160.194C193.212 160.042 193.189 159.864 193.091 159.84C193 159.82 192.883 159.965 192.845 160.12C192.827 160.192 192.829 160.252 192.844 160.299C192.555 160.02 191.937 159.846 191.436 159.89C191.182 159.908 190.997 159.983 190.869 160.08C190.817 160.121 190.747 160.137 190.683 160.118C190.512 160.066 190.309 160.077 190.112 160.167C189.844 160.29 189.672 160.567 189.703 160.826C189.781 161.306 190.199 161.601 190.595 161.532C190.698 161.514 190.791 161.469 190.876 161.411C190.925 161.376 190.989 161.372 191.043 161.399C191.177 161.467 191.345 161.495 191.57 161.478C192.012 161.44 192.545 161.242 192.823 160.984C192.808 161.029 192.803 161.09 192.814 161.163C192.839 161.321 192.917 161.474 192.986 161.461C193.048 161.45 193.09 161.279 193.078 161.121C193.076 161.109 193.075 161.1 193.073 161.089C193.091 161.093 193.108 161.097 193.126 161.099C193.196 161.103 193.221 161.1 193.276 161.084C193.343 161.075 193.406 161.055 193.461 161.026C193.572 160.967 193.651 160.871 193.676 160.752C193.701 160.634 193.668 160.515 193.597 160.42C193.561 160.372 193.516 160.33 193.463 160.297C193.397 160.263 193.29 160.23 193.218 160.226Z" fill="black"/>
<path d="M188.359 161.537L188.314 161.593C188.308 161.582 188.304 161.573 188.297 161.562C188.205 161.43 188.046 161.339 187.968 161.402C187.897 161.461 187.943 161.64 188.046 161.763C188.094 161.821 188.144 161.855 188.192 161.873C187.789 161.929 187.274 162.305 187.006 162.722C186.867 162.932 186.816 163.121 186.817 163.279C186.819 163.345 186.79 163.409 186.735 163.448C186.589 163.549 186.475 163.714 186.43 163.922C186.367 164.206 186.488 164.507 186.717 164.639C187.154 164.869 187.646 164.723 187.831 164.373C187.878 164.281 187.899 164.181 187.903 164.08C187.904 164.021 187.939 163.969 187.994 163.942C188.131 163.88 188.255 163.765 188.378 163.579C188.614 163.212 188.776 162.677 188.735 162.303C188.763 162.343 188.809 162.383 188.875 162.419C189.019 162.495 189.19 162.527 189.222 162.465C189.25 162.411 189.136 162.274 189.001 162.187C188.989 162.182 188.981 162.178 188.971 162.172C188.985 162.161 188.999 162.15 189.012 162.137C189.057 162.085 189.07 162.064 189.09 162.011C189.124 161.953 189.145 161.892 189.155 161.832C189.174 161.709 189.144 161.59 189.064 161.498C188.982 161.407 188.866 161.361 188.745 161.359C188.685 161.357 188.624 161.367 188.564 161.388C188.497 161.42 188.405 161.482 188.359 161.537Z" fill="black"/>
<path d="M197.65 160.465C197.63 160.468 197.611 160.474 197.591 160.48C197.593 160.468 197.594 160.459 197.597 160.446C197.604 160.286 197.549 160.118 197.474 160.114C197.399 160.108 197.327 160.263 197.315 160.422C197.309 160.496 197.319 160.555 197.338 160.6C197.032 160.367 196.493 160.216 196.056 160.211C195.832 160.204 195.666 160.249 195.537 160.329C195.484 160.362 195.42 160.359 195.369 160.328C195.231 160.241 195.065 160.202 194.882 160.235C194.635 160.27 194.41 160.446 194.31 160.691C194.12 161.139 194.423 161.632 194.923 161.675C195.046 161.686 195.166 161.67 195.272 161.631C195.334 161.608 195.405 161.622 195.46 161.656C195.595 161.743 195.784 161.798 196.042 161.805C196.552 161.811 197.159 161.584 197.416 161.28C197.406 161.328 197.409 161.388 197.433 161.459C197.483 161.611 197.606 161.751 197.69 161.725C197.773 161.696 197.782 161.517 197.727 161.367C197.722 161.356 197.717 161.349 197.712 161.338L197.778 161.333C198.071 161.287 198.269 161.056 198.22 160.818C198.171 160.581 197.916 160.422 197.65 160.465Z" fill="black"/>
<path d="M182.779 160.308C182.77 160.327 182.766 160.346 182.76 160.365C182.75 160.357 182.743 160.351 182.733 160.343C182.6 160.25 182.426 160.205 182.382 160.265C182.337 160.323 182.431 160.466 182.56 160.562C182.621 160.606 182.677 160.63 182.727 160.638C182.361 160.765 181.94 161.128 181.699 161.486C181.573 161.667 181.522 161.828 181.521 161.978C181.521 162.039 181.484 162.09 181.429 162.116C181.28 162.182 181.157 162.298 181.087 162.467C180.983 162.689 181.013 162.97 181.169 163.185C181.452 163.583 182.039 163.599 182.346 163.211C182.422 163.115 182.472 163.008 182.496 162.899C182.51 162.835 182.56 162.784 182.62 162.757C182.767 162.693 182.917 162.567 183.062 162.358C183.342 161.941 183.474 161.317 183.353 160.941C183.388 160.975 183.442 161.006 183.516 161.024C183.673 161.065 183.86 161.04 183.882 160.956C183.903 160.872 183.754 160.768 183.596 160.732C183.583 160.731 183.574 160.73 183.563 160.729L183.594 160.672C183.712 160.405 183.621 160.117 183.39 160.03C183.16 159.942 182.886 160.066 182.779 160.308Z" fill="black"/>
<path d="M201.724 158.971C201.707 158.982 201.692 158.995 201.676 159.007C201.673 158.996 201.67 158.987 201.667 158.974C201.607 158.826 201.485 158.695 201.414 158.721C201.344 158.746 201.347 158.922 201.402 159.072C201.429 159.143 201.463 159.192 201.5 159.225C201.117 159.129 200.567 159.219 200.166 159.386C199.967 159.483 199.828 159.575 199.744 159.698C199.709 159.747 199.652 159.775 199.592 159.767C199.434 159.752 199.267 159.775 199.112 159.871C198.904 160.004 198.773 160.261 198.778 160.517C198.785 161.011 199.261 161.331 199.743 161.179C199.864 161.146 199.965 161.077 200.046 160.996C200.093 160.949 200.162 160.928 200.228 160.94C200.388 160.966 200.592 160.955 200.824 160.844C201.296 160.647 201.747 160.184 201.857 159.813C201.869 159.861 201.897 159.915 201.948 159.969C202.057 160.086 202.224 160.159 202.289 160.101C202.353 160.042 202.286 159.876 202.173 159.761C202.164 159.753 202.156 159.748 202.148 159.74L202.206 159.71C202.458 159.558 202.538 159.264 202.393 159.064C202.251 158.87 201.954 158.831 201.724 158.971Z" fill="black"/>
<path d="M204.925 156.038C204.913 156.054 204.904 156.072 204.894 156.09C204.887 156.08 204.881 156.072 204.873 156.062C204.762 155.945 204.601 155.866 204.545 155.916C204.492 155.967 204.552 156.125 204.66 156.245C204.71 156.3 204.76 156.335 204.807 156.352C204.611 156.375 204.392 156.458 204.189 156.576C203.977 156.688 203.775 156.829 203.626 156.989C203.468 157.146 203.378 157.291 203.347 157.437C203.334 157.496 203.291 157.544 203.233 157.56C203.08 157.607 202.931 157.693 202.827 157.843C202.684 158.044 202.67 158.337 202.781 158.57C202.991 159.019 203.551 159.12 203.931 158.803C204.028 158.727 204.094 158.628 204.135 158.523C204.159 158.462 204.214 158.417 204.279 158.404C204.435 158.369 204.611 158.281 204.79 158.102C204.962 157.92 205.119 157.688 205.225 157.453C205.322 157.209 205.374 156.966 205.358 156.773C205.386 156.813 205.432 156.853 205.5 156.886C205.646 156.957 205.836 156.971 205.871 156.891C205.909 156.812 205.785 156.682 205.637 156.615C205.625 156.611 205.617 156.608 205.605 156.605L205.648 156.556C205.82 156.32 205.79 156.02 205.584 155.888C205.376 155.755 205.081 155.822 204.925 156.038Z" fill="black"/>
<path d="M206.714 152.149C206.709 152.17 206.708 152.189 206.705 152.209C206.695 152.203 206.687 152.199 206.675 152.192C206.526 152.13 206.345 152.122 206.312 152.189C206.279 152.255 206.406 152.376 206.554 152.443C206.623 152.474 206.684 152.485 206.733 152.483C206.407 152.684 206.075 153.128 205.914 153.523C205.84 153.728 205.818 153.894 205.843 154.037C205.854 154.095 205.833 154.155 205.786 154.191C205.661 154.289 205.565 154.424 205.523 154.598C205.47 154.836 205.567 155.11 205.756 155.287C206.119 155.628 206.685 155.521 206.916 155.08C206.977 154.974 206.994 154.854 206.995 154.742C206.995 154.675 207.029 154.613 207.084 154.575C207.22 154.485 207.346 154.332 207.433 154.093C207.622 153.627 207.616 152.989 207.411 152.647C207.454 152.673 207.512 152.691 207.588 152.694C207.751 152.701 207.924 152.636 207.928 152.549C207.933 152.464 207.766 152.394 207.603 152.392C207.59 152.393 207.581 152.394 207.569 152.395L207.59 152.334C207.65 152.049 207.488 151.786 207.246 151.748C207 151.71 206.769 151.891 206.714 152.149Z" fill="black"/>
<path d="M206.785 147.86C206.788 147.88 206.794 147.899 206.8 147.918C206.788 147.917 206.778 147.916 206.765 147.914C206.603 147.91 206.431 147.969 206.427 148.043C206.422 148.119 206.587 148.185 206.749 148.193C206.825 148.197 206.885 148.185 206.93 148.164C206.704 148.472 206.568 149.014 206.582 149.444C206.597 149.664 206.637 149.826 206.723 149.948C206.758 149.998 206.763 150.061 206.735 150.114C206.663 150.253 206.619 150.416 206.66 150.593C206.718 150.833 206.903 151.044 207.155 151.131C207.624 151.297 208.109 150.976 208.131 150.484C208.139 150.363 208.118 150.247 208.068 150.145C208.04 150.085 208.045 150.015 208.08 149.959C208.164 149.824 208.224 149.636 208.208 149.385C208.192 148.89 207.94 148.31 207.622 148.068C207.671 148.077 207.732 148.072 207.804 148.048C207.957 147.994 208.093 147.872 208.065 147.791C208.036 147.711 207.855 147.707 207.703 147.764C207.691 147.77 207.683 147.774 207.673 147.779L207.668 147.715C207.628 147.466 207.417 147.28 207.168 147.289C206.922 147.297 206.736 147.561 206.785 147.86Z" fill="black"/>
<path d="M207.262 143.21L207.244 143.275C207.234 143.268 207.227 143.262 207.217 143.254C207.079 143.167 206.9 143.137 206.854 143.217C206.808 143.298 206.915 143.449 207.056 143.527C207.123 143.564 207.182 143.578 207.233 143.578C206.88 143.773 206.54 144.341 206.471 144.837C206.433 145.088 206.463 145.28 206.534 145.423C206.563 145.482 206.56 145.552 206.528 145.608C206.442 145.758 206.399 145.946 206.443 146.144C206.496 146.414 206.714 146.629 206.973 146.686C207.461 146.787 207.887 146.444 207.911 146.023C207.919 145.916 207.899 145.813 207.857 145.718C207.832 145.663 207.845 145.601 207.884 145.554C207.98 145.44 208.048 145.285 208.081 145.071C208.14 144.647 208.078 144.122 207.898 143.786C207.939 143.813 207.997 143.834 208.072 143.844C208.234 143.864 208.407 143.835 208.414 143.768C208.421 143.7 208.264 143.611 208.106 143.582C208.093 143.58 208.084 143.58 208.073 143.579C208.081 143.562 208.091 143.546 208.097 143.527C208.192 143.299 208.104 143.029 207.893 142.913C207.673 142.792 207.38 142.925 207.262 143.21Z" fill="black"/>
<path d="M196.881 163.037L196.816 163.041C196.82 163.03 196.824 163.021 196.828 163.009C196.866 162.853 196.839 162.678 196.762 162.66C196.685 162.646 196.58 162.788 196.537 162.939C196.516 163.01 196.515 163.07 196.527 163.118C196.401 162.98 196.217 162.854 196.014 162.755C195.913 162.7 195.809 162.644 195.702 162.6C195.645 162.58 195.592 162.559 195.541 162.541L195.461 162.516C195.397 162.502 195.335 162.488 195.274 162.475C195.213 162.472 195.155 162.471 195.098 162.469C194.852 162.463 194.664 162.503 194.523 162.578C194.465 162.609 194.395 162.611 194.338 162.579C194.184 162.495 194.002 162.456 193.804 162.486C193.537 162.526 193.304 162.702 193.199 162.944C192.993 163.394 193.343 163.886 193.878 163.93C194.009 163.941 194.135 163.924 194.248 163.883C194.314 163.859 194.39 163.869 194.448 163.906C194.591 163.997 194.788 164.056 195.06 164.062C195.111 164.063 195.113 164.063 195.118 164.06L195.12 164.058C195.13 164.059 195.073 164.047 195.112 164.053L195.213 164.062C195.279 164.065 195.348 164.067 195.42 164.07C195.558 164.07 195.694 164.066 195.825 164.045C196.088 163.993 196.319 163.91 196.475 163.801C196.455 163.845 196.446 163.905 196.457 163.98C196.481 164.141 196.586 164.299 196.683 164.283C196.779 164.27 196.822 164.095 196.792 163.938C196.788 163.926 196.785 163.918 196.781 163.907L196.853 163.914C197.177 163.925 197.431 163.725 197.42 163.478C197.41 163.241 197.168 163.047 196.881 163.037Z" fill="black"/>
<path d="M201.442 162.017L201.385 162.051C201.383 162.039 201.382 162.03 201.38 162.017C201.341 161.862 201.234 161.719 201.155 161.74C201.075 161.757 201.048 161.931 201.082 162.087C201.098 162.159 201.127 162.213 201.16 162.249C200.775 162.127 200.172 162.163 199.721 162.293C199.49 162.356 199.334 162.454 199.225 162.567C199.18 162.61 199.114 162.63 199.052 162.615C198.885 162.57 198.705 162.59 198.527 162.667C198.284 162.765 198.102 163.001 198.066 163.263C197.989 163.749 198.447 164.133 198.989 164.038C199.121 164.011 199.241 163.959 199.341 163.89C199.4 163.85 199.477 163.839 199.546 163.859C199.713 163.903 199.925 163.893 200.194 163.819C200.724 163.665 201.273 163.248 201.445 162.875C201.448 162.923 201.47 162.98 201.515 163.04C201.612 163.169 201.778 163.263 201.857 163.212C201.933 163.157 201.888 162.983 201.788 162.858C201.779 162.849 201.772 162.843 201.764 162.834L201.83 162.808C202.114 162.669 202.248 162.382 202.13 162.169C202.012 161.956 201.704 161.888 201.442 162.017Z" fill="black"/>
<path d="M208.758 159.2L208.732 159.26C208.723 159.251 208.717 159.244 208.708 159.234C208.585 159.129 208.414 159.071 208.362 159.132C208.306 159.191 208.384 159.349 208.503 159.458C208.559 159.509 208.613 159.537 208.662 159.548C208.274 159.663 207.799 160.028 207.504 160.387C207.351 160.567 207.279 160.736 207.255 160.889C207.244 160.949 207.201 161.002 207.141 161.024C206.978 161.081 206.841 161.197 206.74 161.36C206.597 161.576 206.585 161.871 206.707 162.108C206.926 162.55 207.526 162.61 207.916 162.23C208.009 162.134 208.078 162.024 208.12 161.912C208.145 161.846 208.201 161.793 208.27 161.771C208.433 161.715 208.601 161.588 208.779 161.377C209.126 160.955 209.335 160.307 209.259 159.904C209.291 159.942 209.341 159.977 209.413 160.001C209.568 160.053 209.759 160.036 209.794 159.951C209.824 159.864 209.687 159.745 209.531 159.698C209.519 159.696 209.51 159.694 209.498 159.692L209.537 159.634C209.689 159.361 209.633 159.051 209.413 158.941C209.192 158.832 208.899 158.948 208.758 159.2Z" fill="black"/>
<path d="M205.341 159.313L205.297 159.362C205.292 159.351 205.287 159.343 205.282 159.331C205.195 159.195 205.048 159.092 204.978 159.136C204.909 159.183 204.938 159.359 205.021 159.495C205.059 159.558 205.104 159.601 205.148 159.624C204.738 159.626 204.171 159.867 203.787 160.157C203.596 160.31 203.473 160.447 203.414 160.595C203.389 160.654 203.336 160.699 203.272 160.71C203.103 160.744 202.931 160.817 202.796 160.963C202.613 161.162 202.542 161.451 202.619 161.699C202.762 162.172 203.335 162.336 203.778 162.044C203.89 161.975 203.978 161.884 204.038 161.781C204.074 161.72 204.138 161.68 204.208 161.673C204.375 161.653 204.576 161.582 204.787 161.415C205.213 161.093 205.576 160.531 205.621 160.128C205.641 160.173 205.679 160.22 205.742 160.264C205.876 160.357 206.061 160.393 206.114 160.319C206.168 160.246 206.071 160.095 205.936 160.005C205.925 160 205.916 159.996 205.906 159.99L205.96 159.947C206.185 159.732 206.224 159.421 206.047 159.252C205.87 159.083 205.554 159.11 205.341 159.313Z" fill="black"/>
<path d="M208.2 155.604L208.178 155.664C208.169 155.656 208.161 155.65 208.152 155.641C208.021 155.545 207.845 155.5 207.798 155.564C207.753 155.628 207.845 155.78 207.97 155.878C208.029 155.925 208.086 155.949 208.135 155.956C207.753 156.095 207.314 156.487 207.036 156.864C206.899 157.058 206.836 157.231 206.816 157.383C206.81 157.446 206.772 157.504 206.713 157.531C206.56 157.607 206.426 157.732 206.333 157.906C206.211 158.145 206.23 158.445 206.376 158.662C206.652 159.075 207.244 159.069 207.589 158.672C207.675 158.574 207.728 158.457 207.759 158.343C207.778 158.275 207.829 158.218 207.894 158.192C208.056 158.13 208.216 157.995 208.374 157.771C208.695 157.335 208.859 156.663 208.757 156.268C208.792 156.303 208.845 156.335 208.919 156.354C209.079 156.395 209.267 156.363 209.291 156.271C209.316 156.18 209.17 156.073 209.011 156.039C208.998 156.037 208.988 156.036 208.977 156.035L209.012 155.974C209.152 155.69 209.057 155.38 208.826 155.292C208.596 155.204 208.327 155.349 208.2 155.604Z" fill="black"/>
<path d="M209.267 151.069L209.268 151.135C209.257 151.131 209.248 151.127 209.236 151.122C209.079 151.077 208.899 151.097 208.875 151.177C208.851 151.257 208.994 151.37 209.149 151.417C209.222 151.438 209.284 151.44 209.332 151.429C209.033 151.701 208.784 152.261 208.699 152.726C208.662 152.964 208.674 153.146 208.727 153.292C208.749 153.352 208.741 153.42 208.701 153.47C208.599 153.605 208.522 153.769 208.523 153.964C208.527 154.23 208.654 154.484 208.886 154.625C209.305 154.891 209.861 154.644 209.99 154.128C210.026 154.001 210.029 153.875 210.003 153.758C209.988 153.689 210.009 153.617 210.056 153.565C210.17 153.439 210.262 153.252 210.303 152.988C210.398 152.466 210.275 151.817 210.028 151.491C210.074 151.511 210.135 151.521 210.211 151.511C210.373 151.492 210.535 151.399 210.527 151.31C210.52 151.221 210.344 151.173 210.182 151.194C210.17 151.198 210.161 151.2 210.149 151.203C210.154 151.181 210.158 151.159 210.16 151.136C210.18 150.832 209.996 150.575 209.749 150.562C209.503 150.548 209.287 150.775 209.267 151.069Z" fill="black"/>
<path d="M208.876 146.365C208.879 146.388 208.886 146.41 208.892 146.431C208.879 146.429 208.87 146.427 208.857 146.425C208.694 146.415 208.523 146.474 208.52 146.563C208.518 146.651 208.685 146.733 208.848 146.742C208.924 146.746 208.984 146.733 209.028 146.709C208.805 147.051 208.722 147.686 208.803 148.172C208.843 148.42 208.921 148.593 209.024 148.715C209.067 148.765 209.081 148.832 209.061 148.893C209.006 149.055 209.005 149.239 209.066 149.406C209.111 149.533 209.179 149.587 209.272 149.694C209.362 149.792 209.477 149.867 209.606 149.903C209.847 149.971 210.079 149.914 210.255 149.775C210.343 149.714 210.413 149.606 210.458 149.469C210.5 149.346 210.519 149.206 210.504 149.077C210.49 148.943 210.447 148.824 210.384 148.724C210.347 148.665 210.342 148.589 210.368 148.527C210.431 148.373 210.451 148.174 210.409 147.919C210.326 147.417 210.036 146.855 209.719 146.603C209.768 146.611 209.829 146.605 209.9 146.579C210.053 146.521 210.188 146.399 210.159 146.32C210.131 146.24 209.949 146.233 209.796 146.288C209.785 146.294 209.777 146.298 209.766 146.303L209.762 146.238C209.718 145.948 209.493 145.74 209.247 145.764C209.001 145.787 208.83 146.062 208.876 146.365Z" fill="black"/>
<path d="M188.199 155.649C188.194 155.667 188.191 155.685 188.188 155.703C188.178 155.696 188.171 155.691 188.16 155.684C188.015 155.605 187.845 155.574 187.805 155.625C187.763 155.675 187.871 155.804 188.004 155.895C188.067 155.936 188.124 155.959 188.173 155.965C187.832 156.103 187.395 156.398 187.135 156.727C186.992 156.89 186.915 157.041 186.896 157.189C186.887 157.248 186.849 157.3 186.792 157.32C186.631 157.367 186.489 157.466 186.392 157.626C186.265 157.845 186.245 158.126 186.371 158.358C186.6 158.79 187.182 158.879 187.547 158.523C187.638 158.437 187.706 158.337 187.747 158.232C187.77 158.167 187.823 158.116 187.888 158.096C188.046 158.045 188.221 157.936 188.396 157.734C188.734 157.317 188.954 156.65 188.81 156.246C188.847 156.28 188.901 156.309 188.975 156.324C189.136 156.357 189.325 156.307 189.351 156.212C189.375 156.114 189.212 156.017 189.053 156H189.019L189.046 155.934C189.156 155.625 189.002 155.332 188.754 155.295C188.513 155.26 188.282 155.421 188.199 155.649Z" fill="black"/>
<path d="M187.888 151.291L187.898 151.355C187.886 151.353 187.877 151.35 187.864 151.347C187.703 151.324 187.526 151.368 187.516 151.453C187.503 151.539 187.666 151.629 187.827 151.649C187.903 151.658 187.963 151.65 188.01 151.631C187.75 151.92 187.641 152.601 187.748 153.082C187.8 153.329 187.884 153.485 187.994 153.596C188.039 153.642 188.057 153.704 188.039 153.761C187.991 153.917 187.997 154.084 188.064 154.24C188.162 154.455 188.369 154.619 188.638 154.681C188.881 154.735 189.114 154.678 189.273 154.52C189.44 154.362 189.525 154.112 189.486 153.854C189.467 153.726 189.416 153.617 189.35 153.522C189.311 153.466 189.302 153.394 189.325 153.335C189.38 153.187 189.391 152.993 189.343 152.768C189.245 152.321 188.999 151.858 188.707 151.578C188.755 151.589 188.816 151.588 188.89 151.568C189.046 151.525 189.189 151.42 189.17 151.345C189.15 151.27 188.969 151.249 188.812 151.289C188.8 151.294 188.791 151.297 188.78 151.301L188.783 151.239C188.763 150.964 188.561 150.747 188.313 150.752C188.066 150.757 187.868 151 187.888 151.291Z" fill="black"/>
<path d="M188.575 146.596L188.554 146.66C188.545 146.652 188.538 146.646 188.528 146.637C188.394 146.546 188.216 146.509 188.166 146.586C188.116 146.663 188.216 146.818 188.353 146.903C188.418 146.944 188.476 146.961 188.526 146.963C188.17 147.144 187.779 147.701 187.691 148.216C187.633 148.473 187.667 148.674 187.726 148.824C187.751 148.886 187.747 148.957 187.714 149.015C187.625 149.168 187.574 149.362 187.614 149.566C187.665 149.845 187.87 150.067 188.133 150.131C188.618 150.245 189.051 149.899 189.085 149.473C189.096 149.365 189.079 149.261 189.039 149.163C189.015 149.106 189.029 149.044 189.072 148.998C189.178 148.889 189.239 148.732 189.289 148.519C189.36 148.095 189.345 147.558 189.181 147.203C189.22 147.233 189.277 147.257 189.351 147.269C189.512 147.296 189.689 147.27 189.701 147.199C189.714 147.128 189.562 147.031 189.403 146.998C189.391 146.997 189.382 146.995 189.37 146.994C189.38 146.977 189.391 146.96 189.399 146.941C189.498 146.697 189.433 146.421 189.211 146.304C188.997 146.193 188.692 146.314 188.575 146.596Z" fill="black"/>
<path d="M191.704 145.995L191.67 146.054C191.663 146.044 191.657 146.037 191.649 146.026C191.538 145.91 191.371 145.838 191.306 145.904C191.241 145.969 191.306 146.141 191.422 146.252C191.477 146.304 191.53 146.333 191.58 146.345C191.192 146.45 190.693 146.917 190.5 147.403C190.388 147.643 190.38 147.846 190.406 148.005C190.418 148.07 190.398 148.14 190.354 148.189C190.235 148.321 190.144 148.501 190.14 148.709C190.133 148.993 190.286 149.251 190.531 149.366C190.98 149.575 191.477 149.323 191.6 148.914C191.633 148.81 191.638 148.704 191.62 148.602C191.608 148.541 191.635 148.482 191.686 148.447C191.813 148.361 191.906 148.219 191.999 148.021C192.158 147.62 192.256 147.092 192.169 146.712C192.201 146.748 192.252 146.783 192.322 146.81C192.474 146.869 192.653 146.879 192.68 146.812C192.708 146.745 192.578 146.62 192.43 146.555C192.418 146.551 192.41 146.549 192.399 146.545C192.412 146.53 192.426 146.516 192.438 146.5C192.586 146.28 192.581 145.996 192.387 145.838C192.201 145.686 191.877 145.743 191.704 145.995Z" fill="black"/>
<path d="M191.695 142.946C191.677 142.96 191.661 142.976 191.645 142.991C191.641 142.979 191.638 142.97 191.634 142.958C191.566 142.812 191.433 142.691 191.353 142.731C191.273 142.772 191.281 142.955 191.352 143.098C191.386 143.165 191.427 143.21 191.468 143.237C191.059 143.197 190.459 143.465 190.086 143.819C189.9 144.009 189.8 144.188 189.764 144.346C189.747 144.41 189.707 144.472 189.645 144.502C189.483 144.584 189.326 144.719 189.244 144.918C189.133 145.192 189.177 145.485 189.373 145.676C189.729 146.015 190.278 145.948 190.531 145.623C190.6 145.541 190.642 145.447 190.663 145.346C190.676 145.288 190.717 145.24 190.78 145.228C190.929 145.194 191.077 145.111 191.23 144.953C191.553 144.647 191.835 144.154 191.897 143.778C191.914 143.823 191.95 143.873 192.007 143.922C192.129 144.027 192.295 144.09 192.345 144.033C192.395 143.975 192.315 143.815 192.196 143.708C192.186 143.7 192.179 143.695 192.17 143.688L192.222 143.656C192.449 143.503 192.524 143.214 192.39 143.01C192.257 142.806 191.945 142.777 191.695 142.946Z" fill="black"/>
<path d="M196.193 141.156L196.126 141.172C196.129 141.16 196.13 141.151 196.133 141.138C196.147 140.978 196.089 140.809 195.997 140.807C195.906 140.805 195.82 140.969 195.813 141.128C195.809 141.203 195.824 141.261 195.847 141.305C195.507 141.081 194.829 141.037 194.326 141.208C194.07 141.289 193.903 141.407 193.802 141.539C193.759 141.592 193.694 141.624 193.625 141.622C193.44 141.615 193.249 141.683 193.082 141.812C192.858 141.997 192.767 142.29 192.842 142.539C192.992 143.008 193.51 143.193 193.9 143.017C194 142.973 194.08 142.9 194.148 142.824C194.187 142.778 194.249 142.759 194.31 142.771C194.457 142.8 194.629 142.787 194.841 142.72C195.254 142.579 195.725 142.285 195.961 141.98C195.954 142.028 195.961 142.088 195.987 142.158C196.044 142.308 196.156 142.442 196.226 142.416C196.296 142.389 196.304 142.211 196.254 142.061C196.249 142.049 196.245 142.041 196.241 142.031L196.302 142.027C196.571 142.004 196.781 141.785 196.77 141.547C196.758 141.301 196.5 141.129 196.193 141.156Z" fill="black"/>
<path d="M191.615 162.433L191.558 162.471C191.557 162.458 191.555 162.449 191.552 162.436C191.508 162.282 191.394 162.144 191.307 162.173C191.221 162.202 191.199 162.385 191.249 162.537C191.273 162.608 191.307 162.658 191.344 162.691C190.946 162.598 190.295 162.789 189.886 163.122C189.675 163.286 189.56 163.454 189.512 163.612C189.492 163.676 189.442 163.729 189.376 163.75C189.202 163.807 189.046 163.937 188.936 164.115C188.792 164.366 188.812 164.67 188.972 164.878C189.28 165.266 189.831 165.261 190.133 164.963C190.211 164.887 190.26 164.791 190.296 164.697C190.317 164.64 190.368 164.601 190.43 164.592C190.577 164.569 190.733 164.497 190.909 164.362C191.245 164.088 191.581 163.651 191.693 163.285C191.703 163.332 191.731 163.385 191.781 163.442C191.887 163.563 192.04 163.65 192.097 163.602C192.153 163.553 192.097 163.383 191.996 163.259C191.987 163.25 191.981 163.244 191.973 163.236L192.029 163.211C192.273 163.097 192.391 162.82 192.295 162.601C192.196 162.375 191.893 162.302 191.615 162.433Z" fill="black"/>
<path d="M200.882 141.468L200.822 141.477C200.825 141.465 200.828 141.457 200.831 141.445C200.856 141.287 200.82 141.114 200.751 141.097C200.681 141.08 200.594 141.229 200.56 141.385C200.544 141.458 200.546 141.518 200.559 141.564C200.287 141.295 199.807 141.057 199.343 140.969C199.108 140.927 198.912 140.943 198.759 141.001C198.698 141.024 198.627 141.018 198.567 140.982C198.414 140.882 198.213 140.833 197.997 140.866C197.703 140.9 197.469 141.115 197.404 141.365C197.289 141.843 197.633 142.26 198.05 142.307C198.158 142.316 198.263 142.309 198.361 142.274C198.419 142.253 198.483 142.268 198.531 142.312C198.643 142.414 198.807 142.493 199.055 142.538C199.543 142.633 200.233 142.519 200.543 142.249C200.526 142.295 200.519 142.355 200.534 142.428C200.564 142.585 200.677 142.736 200.771 142.72C200.866 142.707 200.896 142.529 200.857 142.374C200.852 142.363 200.849 142.354 200.845 142.343C200.868 142.345 200.89 142.346 200.914 142.345C201.232 142.329 201.457 142.106 201.42 141.861C201.384 141.627 201.143 141.455 200.882 141.468Z" fill="black"/>
<path d="M204.901 139.843L204.853 139.883C204.849 139.872 204.846 139.863 204.842 139.851C204.774 139.707 204.643 139.583 204.57 139.614C204.499 139.645 204.509 139.82 204.575 139.967C204.605 140.035 204.643 140.083 204.682 140.112C204.295 140.058 203.731 140.191 203.341 140.389C203.143 140.491 203.019 140.614 202.939 140.731C202.907 140.781 202.851 140.812 202.791 140.807C202.631 140.798 202.471 140.835 202.322 140.93C202.124 141.072 201.994 141.316 201.997 141.577C201.991 142.069 202.491 142.398 203.002 142.215C203.128 142.174 203.227 142.095 203.309 142.011C203.357 141.96 203.428 141.936 203.497 141.943C203.67 141.966 203.867 141.919 204.103 141.797C204.573 141.557 205 141.066 205.081 140.675C205.095 140.722 205.126 140.774 205.181 140.825C205.299 140.934 205.473 140.997 205.535 140.935C205.597 140.873 205.52 140.712 205.399 140.604C205.389 140.597 205.381 140.592 205.372 140.585L205.429 140.552C205.678 140.386 205.732 140.073 205.582 139.887C205.427 139.692 205.132 139.69 204.901 139.843Z" fill="black"/>
<path d="M185.668 153.601L185.688 153.662C185.675 153.662 185.666 153.661 185.653 153.66C185.49 153.663 185.323 153.735 185.326 153.819C185.322 153.849 185.349 153.827 185.409 153.833C185.468 153.833 185.545 153.864 185.625 153.867C185.701 153.874 185.762 153.869 185.809 153.854C185.552 154.093 185.316 154.581 185.243 155.006C185.206 155.221 185.223 155.389 185.278 155.524C185.302 155.58 185.294 155.642 185.253 155.685C185.147 155.804 185.08 155.951 185.079 156.124C185.075 156.356 185.206 156.589 185.423 156.747C185.814 157.058 186.392 156.847 186.534 156.346C186.572 156.224 186.571 156.103 186.55 155.992C186.538 155.926 186.558 155.858 186.604 155.809C186.717 155.692 186.805 155.516 186.848 155.266C186.933 154.772 186.804 154.133 186.506 153.813C186.554 153.827 186.616 153.829 186.689 153.807C186.766 153.779 186.847 153.746 186.894 153.672C186.941 153.603 186.958 153.495 186.94 153.447C186.908 153.378 186.727 153.386 186.578 153.451C186.567 153.457 186.559 153.461 186.549 153.467L186.542 153.407C186.485 153.144 186.241 152.967 185.998 153.011C185.755 153.056 185.607 153.32 185.668 153.601Z" fill="black"/>
<path d="M185.355 148.991L185.354 149.056C185.343 149.051 185.334 149.047 185.322 149.042C185.167 148.994 184.985 149.009 184.961 149.091C184.936 149.174 185.077 149.289 185.233 149.333C185.306 149.353 185.367 149.354 185.416 149.343C185.123 149.605 184.902 150.203 184.92 150.699C184.919 150.95 184.993 151.132 185.083 151.262C185.121 151.315 185.132 151.383 185.108 151.444C185.039 151.607 185.039 151.796 185.112 151.985C185.208 152.242 185.449 152.421 185.72 152.439C186.215 152.471 186.586 152.064 186.541 151.637C186.526 151.53 186.491 151.43 186.438 151.342C186.406 151.291 186.406 151.226 186.437 151.173C186.517 151.045 186.545 150.878 186.547 150.657C186.531 150.221 186.368 149.691 186.113 149.396C186.159 149.414 186.22 149.422 186.296 149.414C186.457 149.396 186.619 149.32 186.611 149.246C186.603 149.172 186.428 149.123 186.267 149.137C186.254 149.139 186.246 149.141 186.234 149.143L186.246 149.084C186.268 148.819 186.108 148.576 185.865 148.538C185.619 148.499 185.38 148.701 185.355 148.991Z" fill="black"/>
<path d="M186.83 144.574L186.802 144.633C186.794 144.624 186.787 144.617 186.779 144.607C186.658 144.499 186.487 144.439 186.429 144.506C186.372 144.572 186.452 144.735 186.576 144.839C186.633 144.887 186.689 144.912 186.738 144.922C186.54 144.979 186.339 145.128 186.156 145.319C185.966 145.508 185.81 145.746 185.722 145.982C185.626 146.219 185.604 146.413 185.647 146.571C185.663 146.635 185.647 146.704 185.602 146.752C185.485 146.883 185.39 147.058 185.397 147.265C185.398 147.545 185.558 147.797 185.8 147.906C186.253 148.103 186.753 147.853 186.857 147.449C186.889 147.347 186.894 147.244 186.875 147.143C186.864 147.084 186.887 147.025 186.935 146.989C187.048 146.897 187.156 146.764 187.238 146.562C187.312 146.36 187.363 146.125 187.391 145.896C187.413 145.664 187.396 145.431 187.351 145.252C187.385 145.287 187.437 145.318 187.509 145.342C187.664 145.391 187.842 145.388 187.865 145.318C187.888 145.248 187.749 145.133 187.597 145.079C187.585 145.076 187.576 145.074 187.565 145.071C187.577 145.055 187.59 145.04 187.6 145.022C187.727 144.789 187.698 144.51 187.49 144.372C187.288 144.238 186.972 144.316 186.83 144.574Z" fill="black"/>
<path d="M209.479 140.96L209.472 141.025C209.461 141.019 209.453 141.014 209.441 141.008C209.291 140.945 209.11 140.942 209.078 141.023C209.045 141.104 209.175 141.233 209.326 141.291C209.397 141.319 209.458 141.325 209.508 141.318C209.338 141.436 209.198 141.64 209.088 141.879C208.97 142.118 208.902 142.393 208.897 142.644C208.884 142.899 208.927 143.089 209.02 143.225C209.056 143.281 209.064 143.351 209.038 143.411C208.971 143.572 208.938 143.767 209.013 143.961C209.107 144.225 209.342 144.414 209.606 144.44C210.101 144.482 210.491 144.087 210.455 143.672C210.453 143.565 210.422 143.466 210.371 143.377C210.341 143.325 210.344 143.261 210.377 143.211C210.453 143.089 210.511 142.929 210.522 142.712C210.526 142.497 210.496 142.258 210.447 142.033C210.391 141.807 210.298 141.592 210.196 141.437C210.24 141.458 210.299 141.472 210.376 141.471C210.538 141.469 210.706 141.409 210.704 141.335C210.703 141.262 210.534 141.197 210.372 141.194C210.359 141.195 210.35 141.196 210.339 141.197C210.345 141.178 210.352 141.16 210.355 141.14C210.399 140.88 210.279 140.625 210.036 140.56C209.802 140.498 209.529 140.671 209.479 140.96Z" fill="black"/>
<path d="M190.048 141.168L189.998 141.211C189.994 141.199 189.991 141.191 189.987 141.179C189.918 141.034 189.785 140.913 189.706 140.95C189.627 140.987 189.636 141.167 189.707 141.309C189.741 141.376 189.782 141.421 189.823 141.449C189.43 141.416 188.829 141.654 188.468 142.002C188.277 142.169 188.186 142.349 188.151 142.504C188.136 142.568 188.092 142.623 188.03 142.647C187.864 142.714 187.707 142.833 187.622 143.024C187.5 143.278 187.533 143.573 187.704 143.772C188.027 144.139 188.592 144.127 188.858 143.801C188.933 143.724 188.983 143.632 189.01 143.534C189.026 143.476 189.074 143.433 189.134 143.42C189.282 143.39 189.423 143.301 189.593 143.153C189.909 142.848 190.204 142.375 190.252 141.989C190.27 142.034 190.305 142.083 190.362 142.133C190.485 142.238 190.652 142.304 190.702 142.248C190.753 142.192 190.672 142.033 190.553 141.925C190.543 141.918 190.536 141.913 190.526 141.906L190.579 141.875C190.796 141.715 190.866 141.428 190.732 141.229C190.593 141.025 190.285 140.994 190.048 141.168Z" fill="black"/>
<path d="M194.307 139.154L194.245 139.177C194.246 139.165 194.247 139.156 194.247 139.143C194.237 138.983 194.159 138.823 194.071 138.831C193.984 138.84 193.925 139.012 193.94 139.17C193.946 139.245 193.967 139.301 193.995 139.342C193.637 139.159 192.987 139.176 192.521 139.377C192.283 139.472 192.129 139.595 192.042 139.732C192.006 139.787 191.945 139.823 191.878 139.824C191.7 139.827 191.512 139.887 191.362 140.03C191.156 140.22 191.077 140.506 191.16 140.753C191.321 141.211 191.852 141.404 192.227 141.195C192.325 141.147 192.406 141.079 192.468 140.996C192.505 140.948 192.565 140.924 192.626 140.932C192.773 140.95 192.945 140.928 193.154 140.846C193.558 140.671 194.002 140.328 194.194 139.998C194.194 140.046 194.208 140.105 194.242 140.171C194.317 140.313 194.447 140.432 194.514 140.396C194.581 140.361 194.565 140.184 194.495 140.041C194.488 140.03 194.483 140.023 194.477 140.013L194.537 140.002C194.799 139.933 194.974 139.702 194.923 139.462C194.872 139.227 194.594 139.079 194.307 139.154Z" fill="black"/>
<path d="M199.04 138.887L198.974 138.883C198.979 138.873 198.983 138.864 198.989 138.853C199.046 138.703 199.038 138.525 198.954 138.498C198.87 138.47 198.746 138.605 198.694 138.755C198.67 138.826 198.667 138.886 198.676 138.934C198.421 138.63 197.811 138.399 197.298 138.402C197.039 138.4 196.849 138.467 196.713 138.553C196.658 138.589 196.587 138.598 196.525 138.573C196.359 138.51 196.162 138.509 195.966 138.577C195.698 138.665 195.519 138.92 195.501 139.178C195.477 139.67 195.892 140.014 196.319 139.98C196.428 139.97 196.527 139.929 196.617 139.877C196.669 139.847 196.734 139.849 196.787 139.88C196.915 139.961 197.083 139.994 197.305 139.996C197.743 139.994 198.284 139.845 198.593 139.614C198.573 139.658 198.563 139.717 198.568 139.792C198.579 139.951 198.649 140.112 198.724 140.106C198.8 140.1 198.857 139.932 198.85 139.773C198.848 139.761 198.847 139.752 198.845 139.741C198.865 139.746 198.884 139.751 198.905 139.754C199.172 139.787 199.432 139.644 199.48 139.404C199.527 139.168 199.337 138.924 199.04 138.887Z" fill="black"/>
<path d="M203.255 138.519L203.198 138.546C203.197 138.534 203.197 138.525 203.196 138.512C203.168 138.355 203.073 138.203 202.993 138.217C202.912 138.231 202.876 138.405 202.904 138.561C202.917 138.635 202.943 138.689 202.974 138.728C202.612 138.575 202.005 138.606 201.592 138.738C201.49 138.77 201.405 138.808 201.355 138.843C201.316 138.866 201.33 138.873 201.323 138.893C201.321 138.913 201.275 138.933 201.257 138.956C201.216 138.994 201.161 139 201.114 138.975C200.99 138.903 200.854 138.873 200.688 138.904C200.463 138.944 200.227 139.111 200.12 139.352C199.921 139.794 200.183 140.3 200.75 140.346C200.889 140.356 201.025 140.331 201.142 140.282C201.211 140.25 201.291 140.254 201.358 140.282C201.405 140.297 201.432 140.317 201.507 140.323C201.577 140.329 201.675 140.326 201.724 140.323C201.851 140.316 201.967 140.294 202.094 140.254C202.585 140.096 203.053 139.718 203.224 139.367C203.227 139.415 203.245 139.473 203.286 139.536C203.373 139.671 203.52 139.775 203.59 139.732C203.66 139.689 203.625 139.514 203.538 139.38C203.53 139.37 203.525 139.363 203.517 139.354L203.579 139.337C203.844 139.236 203.985 138.973 203.897 138.746C203.808 138.52 203.52 138.418 203.255 138.519Z" fill="black"/>
<path d="M182.802 150.319L182.817 150.388C182.805 150.385 182.796 150.383 182.782 150.38C182.619 150.363 182.446 150.418 182.442 150.512C182.439 150.606 182.604 150.698 182.766 150.709C182.842 150.715 182.903 150.702 182.947 150.679C182.713 151.024 182.682 151.731 182.783 152.18C182.835 152.423 182.92 152.592 183.028 152.71C183.073 152.759 183.091 152.826 183.073 152.888C183.027 153.055 183.033 153.24 183.109 153.421C183.214 153.667 183.444 153.845 183.709 153.888C184.204 153.981 184.61 153.523 184.523 153.004C184.503 152.875 184.455 152.76 184.388 152.662C184.348 152.605 184.34 152.531 184.362 152.466C184.418 152.309 184.43 152.107 184.375 151.85C184.256 151.317 183.947 150.834 183.639 150.579C183.688 150.588 183.749 150.582 183.821 150.557C183.975 150.502 184.114 150.388 184.088 150.313C184.062 150.238 183.88 150.225 183.726 150.274C183.714 150.28 183.706 150.283 183.695 150.288L183.693 150.224C183.653 149.942 183.458 149.719 183.205 149.729C182.963 149.738 182.759 150.005 182.802 150.319Z" fill="black"/>
<path d="M183.549 145.349L183.528 145.417C183.519 145.408 183.512 145.402 183.502 145.394C183.367 145.302 183.188 145.27 183.139 145.35C183.091 145.43 183.193 145.588 183.329 145.674C183.393 145.715 183.452 145.732 183.503 145.733C183.128 145.924 182.743 146.5 182.626 147.035C182.555 147.302 182.585 147.518 182.64 147.677C182.664 147.743 182.658 147.818 182.619 147.878C182.512 148.038 182.479 148.246 182.505 148.466C182.538 148.765 182.763 149.004 183.018 149.071C183.508 149.19 183.926 148.829 183.979 148.385C183.99 148.271 183.969 148.161 183.94 148.059C183.922 147.999 183.937 147.932 183.98 147.885C184.089 147.77 184.153 147.606 184.215 147.379C184.312 146.93 184.301 146.34 184.158 145.972C184.196 146.002 184.253 146.027 184.328 146.038C184.49 146.062 184.667 146.026 184.681 145.947C184.695 145.869 184.541 145.772 184.382 145.743C184.369 145.742 184.36 145.741 184.349 145.741L184.377 145.683C184.488 145.418 184.415 145.125 184.189 145.019C183.969 144.915 183.671 145.058 183.549 145.349Z" fill="black"/>
<path d="M186.365 141.19L186.32 141.244C186.314 141.233 186.31 141.225 186.303 141.213C186.211 141.082 186.056 140.988 185.981 141.041C185.904 141.094 185.947 141.28 186.042 141.409C186.087 141.47 186.135 141.507 186.181 141.526C185.766 141.571 185.197 141.944 184.87 142.37C184.709 142.589 184.635 142.784 184.619 142.95C184.612 143.018 184.574 143.082 184.513 143.119C184.356 143.221 184.226 143.384 184.154 143.589C184.051 143.867 184.14 144.178 184.336 144.353C184.715 144.679 185.257 144.543 185.513 144.159C185.576 144.059 185.611 143.95 185.625 143.841C185.635 143.778 185.68 143.724 185.74 143.698C185.889 143.636 186.032 143.518 186.175 143.322C186.466 142.944 186.698 142.383 186.7 141.984C186.725 142.026 186.768 142.069 186.834 142.107C186.976 142.187 187.151 142.211 187.198 142.144C187.244 142.075 187.137 141.932 186.998 141.848C186.986 141.843 186.978 141.839 186.967 141.834L187.017 141.791C187.224 141.581 187.25 141.271 187.077 141.098C186.903 140.926 186.584 140.967 186.365 141.19Z" fill="black"/>
<path d="M183.163 155.513L183.173 155.581C183.162 155.578 183.153 155.576 183.139 155.573C182.978 155.553 182.803 155.604 182.794 155.695C182.783 155.786 182.953 155.878 183.115 155.895C183.191 155.903 183.251 155.892 183.296 155.87C183.055 156.205 182.961 156.868 183.069 157.391C183.129 157.654 183.228 157.838 183.344 157.961C183.391 158.011 183.415 158.082 183.402 158.151C183.376 158.333 183.414 158.537 183.523 158.726C183.666 158.985 183.963 159.127 184.226 159.1C184.727 159.04 184.983 158.552 184.86 158.11C184.826 157.997 184.766 157.9 184.692 157.817C184.651 157.767 184.639 157.699 184.66 157.637C184.712 157.487 184.717 157.303 184.663 157.069C184.567 156.605 184.294 156.062 183.991 155.795C184.04 155.805 184.102 155.802 184.174 155.779C184.329 155.729 184.464 155.616 184.444 155.537C184.422 155.458 184.242 155.441 184.085 155.487C184.073 155.492 184.065 155.496 184.054 155.5L184.055 155.435C184.032 155.144 183.813 154.919 183.566 154.931C183.319 154.943 183.138 155.204 183.163 155.513Z" fill="black"/>
<path d="M190.312 138.057L190.252 138.094C190.25 138.082 190.248 138.074 190.246 138.06C190.2 137.907 190.082 137.771 189.99 137.801C189.9 137.833 189.881 138.021 189.932 138.173C189.956 138.244 189.991 138.294 190.03 138.326C189.618 138.25 188.947 138.451 188.521 138.781C188.299 138.943 188.174 139.108 188.116 139.266C188.091 139.33 188.037 139.382 187.969 139.401C187.787 139.451 187.617 139.566 187.493 139.742C187.322 139.981 187.3 140.286 187.435 140.517C187.684 140.941 188.262 140.985 188.622 140.672C188.712 140.59 188.783 140.501 188.83 140.4C188.857 140.341 188.915 140.3 188.98 140.291C189.139 140.267 189.312 140.191 189.509 140.048C189.887 139.753 190.266 139.295 190.386 138.914C190.397 138.962 190.425 139.016 190.476 139.071C190.586 139.189 190.746 139.266 190.807 139.214C190.87 139.164 190.813 138.996 190.707 138.874C190.698 138.865 190.691 138.859 190.682 138.851L190.743 138.826C190.999 138.691 191.124 138.407 191.021 138.192C190.915 137.968 190.597 137.907 190.312 138.057Z" fill="black"/>
<path d="M195.245 136.744L195.175 136.754C195.179 136.742 195.181 136.733 195.184 136.721C195.209 136.562 195.161 136.39 195.068 136.382C194.976 136.373 194.877 136.53 194.856 136.688C194.847 136.762 194.856 136.822 194.877 136.867C194.542 136.621 193.861 136.514 193.32 136.62C193.046 136.668 192.856 136.775 192.729 136.886C192.677 136.933 192.604 136.957 192.533 136.945C192.345 136.923 192.133 136.961 191.938 137.071C191.675 137.228 191.532 137.512 191.569 137.77C191.647 138.259 192.15 138.498 192.59 138.372C192.702 138.338 192.799 138.281 192.881 138.206C192.931 138.166 193 138.154 193.062 138.175C193.215 138.228 193.396 138.225 193.635 138.184C194.101 138.093 194.657 137.838 194.937 137.549C194.925 137.596 194.927 137.657 194.949 137.728C194.996 137.881 195.108 138.023 195.189 138.002C195.27 137.98 195.292 137.803 195.249 137.649C195.244 137.638 195.24 137.629 195.236 137.619L195.302 137.619C195.599 137.595 195.836 137.402 195.829 137.157C195.822 136.918 195.561 136.718 195.245 136.744Z" fill="black"/>
<path d="M191.491 134.988L191.425 135.014C191.426 135.002 191.426 134.993 191.426 134.979C191.413 134.82 191.326 134.663 191.234 134.675C191.142 134.687 191.082 134.863 191.099 135.022C191.107 135.096 191.13 135.152 191.161 135.191C190.778 135.027 190.09 135.076 189.588 135.301C189.332 135.408 189.172 135.556 189.075 135.693C189.035 135.75 188.97 135.789 188.898 135.794C188.71 135.815 188.513 135.899 188.349 136.05C188.129 136.262 188.057 136.571 188.153 136.814C188.343 137.272 188.89 137.392 189.287 137.17C189.389 137.112 189.47 137.034 189.533 136.943C189.572 136.893 189.636 136.866 189.702 136.872C189.862 136.889 190.038 136.845 190.261 136.752C190.693 136.559 191.175 136.185 191.38 135.841C191.379 135.89 191.395 135.948 191.433 136.013C191.515 136.152 191.657 136.264 191.731 136.225C191.805 136.185 191.785 136.008 191.706 135.868C191.699 135.858 191.693 135.851 191.687 135.842L191.752 135.827C192.034 135.737 192.22 135.496 192.155 135.258C192.093 135.028 191.792 134.892 191.491 134.988Z" fill="black"/>
<path d="M200.251 136.925L200.184 136.926C200.188 136.915 200.191 136.906 200.196 136.894C200.239 136.74 200.215 136.564 200.131 136.543C200.048 136.522 199.935 136.665 199.889 136.818C199.869 136.89 199.869 136.95 199.882 136.998C199.595 136.711 198.995 136.479 198.481 136.439C198.221 136.42 198.022 136.454 197.871 136.527C197.811 136.556 197.736 136.557 197.675 136.526C197.512 136.441 197.311 136.404 197.081 136.445C196.791 136.509 196.561 136.718 196.497 136.973C196.375 137.452 196.781 137.868 197.241 137.884C197.361 137.89 197.477 137.87 197.585 137.83C197.648 137.805 197.72 137.815 197.775 137.853C197.91 137.946 198.097 138.009 198.356 138.029C198.866 138.067 199.507 137.93 199.835 137.681C199.816 137.726 199.808 137.786 199.819 137.86C199.842 138.018 199.94 138.174 200.03 138.164C200.12 138.154 200.166 137.981 200.14 137.823C200.137 137.811 200.134 137.802 200.131 137.791L200.2 137.801C200.512 137.818 200.775 137.63 200.781 137.388C200.787 137.145 200.553 136.942 200.251 136.925Z" fill="black"/>
<path d="M170.725 156.829C170.698 156.92 170.613 156.979 170.517 156.991C169.176 157.145 168.394 157.321 167.796 157.633C167.21 157.915 166.866 158.279 166.871 158.392C166.877 158.504 167.267 158.853 168.038 158.911C168.23 158.932 168.44 158.902 168.67 158.869C168.9 158.839 169.144 158.767 169.392 158.647C169.643 158.539 169.899 158.392 170.138 158.182C170.387 157.991 170.613 157.735 170.812 157.437C170.868 157.354 170.969 157.308 171.07 157.309C171.43 157.305 171.82 157.256 171.969 157.142C172.112 157.016 172.01 156.862 171.484 156.62C171.286 156.068 171.123 155.971 171.02 156.078C170.905 156.177 170.817 156.485 170.725 156.829Z" fill="black"/>
<path d="M173.66 152.407C173.702 152.493 173.69 152.596 173.631 152.669C172.73 153.678 172.326 154.373 172.097 154.983C171.878 155.575 171.89 156.081 171.972 156.159C172.054 156.24 172.576 156.221 173.177 155.736C173.772 155.275 174.371 154.216 174.154 152.806C174.135 152.707 174.168 152.605 174.243 152.541C174.819 152.067 175.228 151.444 174.096 151.759C173.07 151.186 173.371 151.786 173.66 152.407Z" fill="black"/>
<path d="M173.395 147.044C173.474 147.095 173.515 147.191 173.502 147.285C173.307 148.602 173.348 149.433 173.554 150.076C173.727 150.702 174.066 151.09 174.182 151.101C174.295 151.112 174.681 150.78 174.879 150.061C175.054 149.366 174.984 148.2 174.018 147.122C173.951 147.048 173.927 146.943 173.959 146.847C174.157 146.152 174.183 145.38 173.396 146.271C172.244 146.342 172.784 146.688 173.395 147.044Z" fill="black"/>
<path d="M169.91 143.047C170.004 143.029 170.107 143.057 170.158 143.141C170.918 144.241 171.432 144.831 171.987 145.208C172.235 145.408 172.49 145.533 172.694 145.606C172.885 145.688 173.034 145.709 173.086 145.681C173.135 145.653 173.195 145.518 173.215 145.294C173.222 145.079 173.179 144.778 173.041 144.421C172.873 144.088 172.621 143.685 172.177 143.358C171.751 143.019 171.141 142.759 170.425 142.679C170.327 142.661 170.229 142.615 170.184 142.525C169.848 141.86 169.293 141.331 169.37 142.484C168.584 143.345 169.23 143.175 169.91 143.047Z" fill="black"/>
<path d="M164.543 142.435C164.603 142.361 164.702 142.321 164.796 142.347C166.103 142.705 166.936 142.766 167.599 142.69C168.247 142.602 168.692 142.39 168.731 142.265C168.762 142.175 168.512 141.699 167.802 141.407C167.119 141.1 165.906 141.021 164.691 141.825C164.608 141.881 164.501 141.902 164.408 141.863C163.713 141.566 162.941 141.514 163.76 142.347C163.726 143.501 164.107 142.962 164.543 142.435Z" fill="black"/>
<path d="M160.173 145.459C160.165 145.366 160.215 145.276 160.298 145.228C161.474 144.574 162.118 144.115 162.555 143.624C162.975 143.141 163.182 142.706 163.127 142.584C163.104 142.533 162.974 142.466 162.752 142.434C162.529 142.399 162.21 142.398 161.847 142.527C161.127 142.739 160.126 143.505 159.852 144.927C159.833 145.026 159.764 145.108 159.668 145.144C158.978 145.416 158.354 145.883 159.551 145.934C160.327 146.778 160.255 146.143 160.173 145.459Z" fill="black"/>
<path d="M158.876 150.647C158.813 150.575 158.799 150.472 158.837 150.385C159.4 149.16 159.581 148.348 159.562 147.685C159.56 147.041 159.375 146.582 159.268 146.536C159.163 146.492 158.672 146.687 158.284 147.337C157.917 147.97 157.675 149.11 158.294 150.396C158.339 150.486 158.334 150.592 158.278 150.674C158.063 150.973 157.897 151.305 157.921 151.484C157.939 151.666 158.126 151.675 158.636 151.387C159.204 151.542 159.38 151.469 159.354 151.318C159.321 151.166 159.098 150.913 158.876 150.647Z" fill="black"/>
<path d="M160.737 155.641C160.643 155.623 160.568 155.55 160.545 155.46C160.264 154.168 159.991 153.409 159.623 152.853C159.256 152.315 158.863 152.019 158.733 152.043C158.636 152.059 158.313 152.488 158.356 153.235C158.373 153.959 158.815 155.097 160.117 155.786C160.209 155.832 160.271 155.92 160.278 156.019C160.293 156.388 160.387 156.751 160.523 156.881C160.657 157.017 160.804 156.905 161.014 156.364C161.551 156.133 161.637 155.964 161.526 155.866C161.409 155.769 161.075 155.72 160.737 155.641Z" fill="black"/>
<path d="M165.482 158.075C165.401 158.123 165.296 158.118 165.216 158.065C164.087 157.325 163.371 156.977 162.721 156.829C162.093 156.68 161.601 156.708 161.52 156.804C161.453 156.881 161.494 157.415 162.052 157.95C162.582 158.471 163.727 158.986 165.141 158.591C165.239 158.564 165.345 158.589 165.42 158.659C165.976 159.128 166.672 159.491 166.194 158.408C166.628 157.362 166.074 157.684 165.482 158.075Z" fill="black"/>
<path d="M170.726 161.972C170.677 162.05 170.585 162.092 170.494 162.08C169.844 162 169.305 161.936 168.867 162.003C168.415 162.017 168.05 162.115 167.751 162.247C167.153 162.475 166.817 162.83 166.821 162.951C166.824 163.056 167.187 163.411 167.887 163.539C168.234 163.584 168.665 163.574 169.15 163.46C169.622 163.291 170.164 163.062 170.66 162.586C170.73 162.519 170.83 162.496 170.921 162.526C171.255 162.638 171.615 162.725 171.776 162.667C171.937 162.601 171.895 162.42 171.49 162.019C171.477 161.438 171.363 161.291 171.229 161.359C171.09 161.421 170.907 161.681 170.726 161.972Z" fill="black"/>
<path d="M175.186 159.261C175.176 159.351 175.109 159.424 175.019 159.451C174.698 159.544 174.428 159.65 174.185 159.757C173.929 159.847 173.71 159.949 173.519 160.06C173.15 160.297 172.838 160.494 172.625 160.735C172.412 160.976 172.263 161.202 172.167 161.376C172.076 161.557 172.048 161.699 172.073 161.752C172.097 161.802 172.227 161.871 172.44 161.911C172.657 161.959 172.952 161.96 173.291 161.858C173.628 161.757 174.045 161.608 174.409 161.258C174.597 161.092 174.784 160.896 174.961 160.669C175.124 160.426 175.269 160.142 175.396 159.833C175.431 159.746 175.514 159.684 175.612 159.674C176.314 159.576 176.99 159.312 175.873 158.955C175.319 157.951 175.238 158.586 175.186 159.261Z" fill="black"/>
<path d="M177.94 154.876C177.974 154.963 177.952 155.06 177.887 155.124C177.387 155.561 177.063 155.962 176.808 156.322C176.54 156.672 176.422 157.029 176.316 157.322C176.116 157.91 176.202 158.406 176.295 158.479C176.382 158.548 176.871 158.486 177.426 158.033C177.706 157.81 177.938 157.453 178.15 157.008C178.346 156.556 178.438 155.97 178.396 155.309C178.384 155.214 178.426 155.121 178.506 155.069C179.096 154.687 179.629 154.186 178.444 154.315C177.529 153.638 177.692 154.242 177.94 154.876Z" fill="black"/>
<path d="M178.714 149.746C178.777 149.816 178.791 149.915 178.754 149.997C178.464 150.585 178.277 151.08 178.214 151.517C178.106 151.948 178.104 152.321 178.155 152.639C178.224 153.265 178.482 153.676 178.603 153.705C178.706 153.731 179.154 153.482 179.463 152.854C179.599 152.539 179.705 152.131 179.722 151.646C179.694 151.159 179.594 150.592 179.296 149.991C179.251 149.906 179.256 149.806 179.313 149.73C179.727 149.17 180.047 148.527 178.983 149.046C177.882 148.719 178.253 149.237 178.714 149.746Z" fill="black"/>
<path d="M177.624 144.679C177.708 144.721 177.758 144.807 177.753 144.897C177.703 145.544 177.706 146.066 177.791 146.496C177.843 146.935 177.973 147.284 178.134 147.565C178.4 148.135 178.802 148.432 178.921 148.42C179.032 148.409 179.349 148.028 179.438 147.332C179.455 146.99 179.409 146.571 179.252 146.108C179.062 145.655 178.761 145.152 178.256 144.698C178.183 144.635 178.15 144.539 178.174 144.447C178.264 144.113 178.319 143.759 178.254 143.603C178.18 143.448 178.001 143.501 177.614 143.929C177.031 143.98 176.888 144.103 176.962 144.231C177.029 144.366 177.314 144.523 177.624 144.679Z" fill="black"/>
<path d="M174.548 140.51C174.64 140.514 174.72 140.574 174.754 140.659C175.242 141.846 175.715 142.512 176.229 142.91C176.742 143.294 177.185 143.443 177.303 143.378C177.387 143.333 177.575 142.833 177.326 142.18C177.192 141.863 177.022 141.459 176.638 141.129C176.455 140.958 176.241 140.79 175.996 140.634C175.749 140.481 175.439 140.369 175.117 140.265C175.025 140.237 174.956 140.161 174.939 140.065C174.8 139.376 174.474 138.746 174.191 139.857C173.203 140.473 173.865 140.495 174.548 140.51Z" fill="black"/>
<path d="M169.893 138.127C169.979 138.087 170.08 138.101 170.149 138.159C171.11 139.058 171.863 139.395 172.496 139.54C173.11 139.692 173.615 139.566 173.676 139.479C173.746 139.38 173.644 138.916 173.143 138.406C172.648 137.914 171.658 137.459 170.3 137.649C170.204 137.667 170.106 137.634 170.047 137.56C169.613 137.017 169.061 136.537 169.283 137.682C168.663 138.63 169.265 138.422 169.893 138.127Z" fill="black"/>
<path d="M164.619 137.785C164.684 137.717 164.782 137.693 164.87 137.722C165.492 137.963 166.008 138.083 166.455 138.127C166.902 138.195 167.281 138.164 167.601 138.087C168.231 137.984 168.63 137.686 168.651 137.57C168.67 137.463 168.381 137.059 167.717 136.793C167.385 136.687 166.962 136.619 166.466 136.644C165.971 136.693 165.399 136.86 164.813 137.194C164.731 137.246 164.628 137.251 164.546 137.203C163.935 136.854 163.241 136.607 163.882 137.591C163.667 138.695 164.148 138.285 164.619 137.785Z" fill="black"/>
<path d="M159.651 139.474C159.681 139.387 159.762 139.328 159.855 139.32C160.499 139.244 161.042 139.208 161.454 139.052C161.881 138.933 162.223 138.782 162.485 138.59C163.018 138.246 163.281 137.842 163.254 137.721C163.231 137.621 162.804 137.333 162.088 137.351C161.739 137.379 161.309 137.459 160.863 137.688C160.434 137.95 159.947 138.278 159.577 138.864C159.523 138.943 159.43 138.987 159.333 138.976C158.603 138.878 157.912 139.024 158.903 139.606C159.22 140.724 159.417 140.084 159.651 139.474Z" fill="black"/>
<path d="M155.961 143.126C155.946 143.034 155.983 142.94 156.069 142.898C156.663 142.581 157.046 142.248 157.392 141.967C157.555 141.819 157.688 141.669 157.799 141.518C157.914 141.374 158.02 141.241 158.099 141.104C158.261 140.835 158.342 140.57 158.384 140.369C158.432 140.176 158.427 140.032 158.39 139.986C158.354 139.943 158.211 139.904 157.991 139.91C157.779 139.925 157.5 140.002 157.183 140.165C157.027 140.249 156.854 140.349 156.694 140.488C156.54 140.633 156.386 140.805 156.239 141.006C155.927 141.393 155.727 141.961 155.613 142.611C155.594 142.701 155.539 142.786 155.45 142.82C154.798 143.078 154.176 143.468 155.359 143.576C156.117 144.424 156.077 143.801 155.961 143.126Z" fill="black"/>
<path d="M154.217 148.002C154.168 147.923 154.171 147.823 154.223 147.748C154.603 147.218 154.882 146.768 155.026 146.353C155.213 145.952 155.283 145.588 155.293 145.267C155.362 144.649 155.178 144.189 155.069 144.138C154.97 144.091 154.496 144.252 154.052 144.808C153.858 145.094 153.677 145.478 153.568 145.955C153.503 146.441 153.491 147.02 153.687 147.664C153.717 147.754 153.693 147.853 153.624 147.918C153.117 148.402 152.688 148.986 153.828 148.647C154.855 149.148 154.581 148.579 154.217 148.002Z" fill="black"/>
<path d="M154.366 153.194C154.291 153.136 154.259 153.042 154.281 152.954C154.475 152.326 154.552 151.812 154.558 151.37C154.588 150.926 154.523 150.556 154.417 150.25C154.246 149.642 153.909 149.283 153.787 149.276C153.678 149.269 153.291 149.591 153.091 150.259C153.012 150.591 152.98 151.009 153.05 151.489C153.142 151.967 153.36 152.509 153.748 153.053C153.808 153.128 153.821 153.229 153.779 153.313C153.474 153.937 153.279 154.632 154.229 153.929C155.37 154.053 154.912 153.614 154.366 153.194Z" fill="black"/>
<path d="M156.449 157.933C156.358 157.909 156.292 157.834 156.279 157.744C156.217 157.419 156.164 157.137 156.116 156.882C156.058 156.623 155.984 156.397 155.896 156.198C155.75 155.784 155.564 155.464 155.351 155.221C154.965 154.721 154.527 154.497 154.409 154.533C154.306 154.563 154.052 155 154.118 155.698C154.171 156.038 154.289 156.448 154.547 156.87C154.69 157.073 154.864 157.281 155.071 157.484C155.27 157.692 155.525 157.882 155.831 158.045C155.916 158.092 155.967 158.18 155.962 158.276C155.913 158.993 156.097 159.664 156.629 158.657C157.746 158.278 157.089 158.119 156.449 157.933Z" fill="black"/>
<path d="M160.402 161.309C160.307 161.333 160.214 161.294 160.164 161.214C159.799 160.662 159.442 160.301 159.131 159.984C158.97 159.834 158.807 159.715 158.647 159.617C158.499 159.505 158.352 159.417 158.208 159.347C157.624 159.083 157.14 159.055 157.052 159.132C156.968 159.206 156.918 159.715 157.309 160.302C157.404 160.45 157.522 160.606 157.667 160.762C157.824 160.903 158.011 161.042 158.225 161.171C158.641 161.45 159.228 161.617 159.902 161.68C159.996 161.691 160.082 161.748 160.125 161.829C160.432 162.446 160.875 163.027 160.902 161.864C161.714 161.063 161.083 161.148 160.402 161.309Z" fill="black"/>
<path d="M165.49 162.641C165.413 162.696 165.312 162.702 165.232 162.658C164.661 162.328 164.181 162.096 163.75 161.985C163.328 161.835 162.954 161.795 162.626 161.81C161.995 161.783 161.538 162.001 161.494 162.11C161.453 162.212 161.652 162.658 162.251 163.056C162.557 163.223 162.963 163.371 163.459 163.44C163.959 163.469 164.551 163.43 165.19 163.187C165.28 163.151 165.382 163.165 165.455 163.227C165.99 163.681 166.623 164.05 166.178 162.966C166.598 161.921 166.046 162.236 165.49 162.641Z" fill="black"/>
<path d="M169.237 160.15C169.182 160.227 169.085 160.265 168.993 160.25C168.328 160.101 167.805 160.062 167.347 160.035C166.894 160.041 166.515 160.076 166.195 160.159C165.562 160.347 165.167 160.606 165.152 160.739C165.146 160.793 165.221 160.918 165.387 161.062C165.552 161.211 165.809 161.37 166.164 161.457C166.517 161.557 166.966 161.616 167.483 161.511C167.998 161.441 168.576 161.182 169.128 160.764C169.204 160.7 169.309 160.68 169.402 160.714C170.093 160.986 170.834 161.033 170.013 160.217C170.014 159.062 169.641 159.609 169.237 160.15Z" fill="black"/>
<path d="M173.744 157.331C173.74 157.424 173.674 157.501 173.585 157.535C172.348 158.031 171.648 158.459 171.203 158.946C170.755 159.398 170.583 159.872 170.626 159.969C170.675 160.079 171.151 160.252 171.877 160.064C172.236 159.971 172.634 159.75 173.031 159.413C173.217 159.229 173.401 159.014 173.573 158.769C173.743 158.523 173.869 158.213 173.986 157.893C174.018 157.801 174.101 157.734 174.198 157.713C174.891 157.542 175.585 157.224 174.419 156.96C173.802 156.006 173.743 156.632 173.744 157.331Z" fill="black"/>
<path d="M176.11 152.576C176.153 152.661 176.145 152.763 176.084 152.835C175.625 153.341 175.355 153.791 175.124 154.183C174.926 154.587 174.788 154.935 174.726 155.254C174.614 155.891 174.683 156.354 174.796 156.426C174.875 156.48 175.418 156.398 175.901 155.855C176.406 155.338 176.85 154.322 176.61 152.963C176.592 152.868 176.62 152.768 176.694 152.706C177.236 152.244 177.708 151.669 176.546 151.941C175.559 151.357 175.79 151.956 176.11 152.576Z" fill="black"/>
<path d="M176.175 147.266C176.249 147.325 176.293 147.419 176.261 147.511C176.164 147.835 176.099 148.124 176.063 148.389C176.019 148.654 175.972 148.899 175.967 149.123C175.965 149.57 175.97 149.949 176.063 150.264C176.228 150.894 176.507 151.283 176.638 151.299C176.737 151.312 177.177 151.008 177.387 150.322C177.604 149.654 177.617 148.544 176.793 147.407C176.743 147.327 176.718 147.225 176.759 147.137C177.046 146.487 177.199 145.755 176.286 146.511C175.136 146.424 175.616 146.846 176.175 147.266Z" fill="black"/>
<path d="M173.62 142.655C173.713 142.667 173.791 142.733 173.821 142.821C174.208 144.077 174.633 144.768 175.068 145.258C175.524 145.719 175.948 145.941 176.07 145.897C176.166 145.864 176.422 145.393 176.257 144.684C176.139 143.979 175.533 142.992 174.214 142.456C174.121 142.42 174.055 142.337 174.042 142.24C173.943 141.522 173.625 140.861 173.295 141.966C172.268 142.524 172.936 142.58 173.62 142.655Z" fill="black"/>
<path d="M168.915 140.128C169.002 140.085 169.106 140.096 169.176 140.164C170.199 141.023 170.931 141.417 171.585 141.56C172.207 141.725 172.706 141.654 172.781 141.556C172.846 141.474 172.775 140.97 172.258 140.441C171.743 139.946 170.723 139.413 169.316 139.65C169.22 139.66 169.119 139.629 169.055 139.558C168.588 139.025 167.997 138.559 168.271 139.699C167.672 140.664 168.279 140.439 168.915 140.128Z" fill="black"/>
<path d="M163.533 140.187C163.587 140.11 163.684 140.071 163.776 140.086C164.441 140.234 164.964 140.277 165.421 140.303C165.872 140.294 166.252 140.269 166.57 140.181C167.204 140.005 167.601 139.737 167.616 139.607C167.629 139.512 167.318 139.074 166.608 138.882C165.919 138.668 164.76 138.711 163.64 139.572C163.564 139.637 163.459 139.657 163.367 139.623C162.676 139.354 161.932 139.305 162.756 140.121C162.757 141.275 163.13 140.73 163.533 140.187Z" fill="black"/>
<path d="M159.033 143.018C159.036 142.925 159.102 142.847 159.191 142.813C160.428 142.315 161.126 141.883 161.57 141.397C161.796 141.173 161.947 140.939 162.039 140.747C162.133 140.561 162.17 140.426 162.144 140.372C162.095 140.262 161.617 140.087 160.892 140.28C160.532 140.373 160.137 140.597 159.74 140.934C159.555 141.118 159.372 141.333 159.2 141.579C159.03 141.825 158.906 142.136 158.789 142.456C158.758 142.548 158.675 142.616 158.578 142.636C157.885 142.808 157.192 143.127 158.358 143.39C158.977 144.342 159.034 143.716 159.033 143.018Z" fill="black"/>
<path d="M156.67 147.775C156.628 147.69 156.636 147.588 156.697 147.516C157.155 147.01 157.425 146.56 157.656 146.168C157.854 145.763 157.992 145.415 158.053 145.096C158.165 144.459 158.095 143.996 157.982 143.924C157.903 143.87 157.36 143.953 156.878 144.496C156.374 145.013 155.93 146.03 156.17 147.388C156.189 147.483 156.161 147.583 156.086 147.645C155.544 148.107 155.072 148.682 156.234 148.41C157.222 148.994 156.991 148.395 156.67 147.775Z" fill="black"/>
<path d="M156.604 153.086C156.529 153.027 156.486 152.933 156.518 152.841C156.615 152.517 156.68 152.227 156.717 151.963C156.761 151.697 156.808 151.452 156.813 151.229C156.815 150.782 156.81 150.403 156.718 150.087C156.552 149.458 156.273 149.068 156.143 149.053C156.044 149.04 155.603 149.343 155.393 150.029C155.176 150.697 155.163 151.806 155.986 152.944C156.036 153.024 156.061 153.126 156.019 153.214C155.731 153.864 155.577 154.595 156.492 153.841C157.642 153.93 157.162 153.507 156.604 153.086Z" fill="black"/>
<path d="M159.148 157.703C159.055 157.692 158.977 157.625 158.948 157.536C158.564 156.28 158.143 155.587 157.707 155.097C157.253 154.634 156.828 154.412 156.707 154.454C156.611 154.488 156.355 154.958 156.516 155.667C156.634 156.372 157.236 157.362 158.554 157.901C158.646 157.937 158.712 158.02 158.724 158.118C158.823 158.834 159.138 159.499 159.472 158.393C160.498 157.839 159.833 157.778 159.148 157.703Z" fill="black"/>
<path d="M163.851 160.224C163.765 160.264 163.66 160.259 163.588 160.195C162.567 159.329 161.831 158.95 161.181 158.8C160.557 158.638 160.061 158.704 159.985 158.803C159.921 158.883 159.988 159.393 160.508 159.919C161.019 160.422 162.048 160.94 163.451 160.709C163.548 160.696 163.651 160.72 163.714 160.795C164.184 161.329 164.779 161.795 164.496 160.654C165.086 159.688 164.484 159.913 163.851 160.224Z" fill="black"/>
<path d="M133.076 139.097C133.342 137.7 131.961 136.197 130.429 136.877C130.381 136.891 130.318 136.949 130.378 136.995C131.552 137.695 132.07 139.32 131.552 140.678C131.543 140.716 131.555 140.733 131.576 140.741C131.584 140.762 131.6 140.776 131.631 140.766C132.86 140.193 134.329 140.764 134.962 142.062C135.008 142.13 135.055 142.058 135.07 142.005C135.679 140.315 134.338 138.804 133.076 139.097Z" fill="black"/>
<path d="M139.026 131.155C139.292 129.757 137.911 128.255 136.38 128.935C136.331 128.949 136.268 129.007 136.328 129.053C137.502 129.753 138.02 131.377 137.502 132.736C137.493 132.773 137.506 132.791 137.526 132.799C137.534 132.819 137.55 132.833 137.581 132.823C138.81 132.25 140.279 132.821 140.913 134.12C140.958 134.188 141.005 134.115 141.02 134.063C141.629 132.372 140.289 130.861 139.026 131.155Z" fill="black"/>
<path d="M150.674 129.389C150.94 127.991 149.559 126.489 148.028 127.169C147.979 127.182 147.916 127.241 147.976 127.287C149.15 127.987 149.668 129.611 149.15 130.97C149.141 131.007 149.154 131.025 149.174 131.033C149.182 131.053 149.198 131.067 149.229 131.057C150.458 130.484 151.927 131.055 152.56 132.354C152.606 132.422 152.653 132.349 152.668 132.297C153.277 130.606 151.937 129.095 150.674 129.389Z" fill="black"/>
<path d="M127.578 145.391C127.845 143.994 126.463 142.491 124.932 143.171C124.883 143.185 124.821 143.243 124.881 143.289C126.054 143.989 126.573 145.614 126.054 146.972C126.045 147.01 126.058 147.027 126.078 147.035C126.086 147.056 126.102 147.07 126.133 147.06C127.362 146.487 128.832 147.058 129.465 148.356C129.51 148.424 129.557 148.352 129.572 148.299C130.182 146.609 128.841 145.098 127.578 145.391Z" fill="black"/>
<path d="M121.723 155.713C121.989 154.315 120.607 152.812 119.076 153.493C119.027 153.506 118.965 153.565 119.025 153.611C120.198 154.311 120.717 155.935 120.198 157.293C120.189 157.331 120.202 157.348 120.222 157.357C120.23 157.377 120.246 157.391 120.277 157.381C121.506 156.808 122.976 157.379 123.609 158.677C123.654 158.746 123.701 158.673 123.716 158.621C124.326 156.93 122.985 155.419 121.723 155.713Z" fill="black"/>
<path d="M140.58 168.458C140.846 167.06 139.465 165.558 137.933 166.238C137.885 166.252 137.822 166.31 137.882 166.356C139.056 167.056 139.574 168.68 139.056 170.038C139.046 170.076 139.059 170.094 139.079 170.102C139.088 170.123 139.104 170.136 139.135 170.126C140.363 169.553 141.833 170.124 142.466 171.422C142.512 171.491 142.558 171.418 142.573 171.366C143.183 169.675 141.842 168.164 140.58 168.458Z" fill="black"/>
<path d="M137.944 139.097C138.21 137.7 136.829 136.197 135.298 136.877C135.249 136.891 135.186 136.949 135.246 136.995C136.42 137.695 136.938 139.32 136.42 140.678C136.411 140.716 136.424 140.733 136.444 140.741C136.452 140.762 136.468 140.776 136.499 140.766C137.728 140.193 139.197 140.764 139.831 142.062C139.876 142.13 139.923 142.058 139.938 142.005C140.547 140.315 139.207 138.804 137.944 139.097Z" fill="black"/>
<path d="M142.812 139.097C143.078 137.7 141.697 136.197 140.165 136.877C140.116 136.891 140.054 136.949 140.114 136.995C141.288 137.695 141.806 139.32 141.287 140.678C141.279 140.716 141.292 140.733 141.312 140.741C141.32 140.762 141.336 140.776 141.367 140.766C142.596 140.193 144.065 140.764 144.698 142.062C144.744 142.13 144.791 142.058 144.806 142.005C145.415 140.315 144.075 138.804 142.812 139.097Z" fill="black"/>
<path d="M147.68 139.097C147.946 137.7 146.565 136.197 145.033 136.877C144.984 136.891 144.922 136.949 144.981 136.995C146.155 137.695 146.674 139.32 146.155 140.678C146.146 140.716 146.159 140.733 146.179 140.741C146.188 140.762 146.203 140.776 146.234 140.766C147.463 140.193 148.933 140.764 149.566 142.062C149.612 142.13 149.658 142.058 149.673 142.005C150.283 140.315 148.942 138.804 147.68 139.097Z" fill="black"/>
<path d="M132.979 161.018C133.256 159.621 131.82 158.118 130.229 158.798C130.178 158.812 130.113 158.87 130.175 158.916C131.395 159.616 131.933 161.241 131.395 162.599C131.385 162.637 131.399 162.654 131.42 162.662C131.428 162.683 131.445 162.697 131.477 162.687C132.754 162.114 134.281 162.685 134.94 163.983C134.987 164.051 135.035 163.979 135.051 163.926C135.684 162.236 134.291 160.725 132.979 161.018Z" fill="black"/>
<path d="M138.038 161.018C138.315 159.621 136.879 158.118 135.287 158.798C135.237 158.812 135.172 158.87 135.234 158.916C136.454 159.616 136.993 161.241 136.454 162.599C136.444 162.637 136.458 162.654 136.479 162.662C136.488 162.683 136.504 162.697 136.536 162.687C137.813 162.114 139.34 162.685 139.998 163.983C140.046 164.051 140.094 163.979 140.11 163.926C140.744 162.236 139.35 160.725 138.038 161.018Z" fill="black"/>
<path d="M143.097 161.018C143.374 159.621 141.938 158.118 140.347 158.798C140.296 158.812 140.231 158.87 140.293 158.916C141.513 159.616 142.052 161.241 141.513 162.599C141.503 162.637 141.517 162.654 141.538 162.662C141.546 162.683 141.563 162.697 141.595 162.687C142.872 162.114 144.399 162.685 145.058 163.983C145.105 164.051 145.153 163.979 145.169 163.926C145.802 162.236 144.409 160.725 143.097 161.018Z" fill="black"/>
<path d="M148.156 161.018C148.433 159.621 146.997 158.118 145.406 158.798C145.355 158.812 145.29 158.87 145.352 158.916C146.572 159.616 147.111 161.241 146.572 162.599C146.562 162.637 146.576 162.654 146.597 162.662C146.606 162.683 146.622 162.697 146.654 162.687C147.931 162.114 149.459 162.685 150.117 163.983C150.164 164.051 150.212 163.979 150.228 163.926C150.862 162.236 149.468 160.725 148.156 161.018Z" fill="black"/>
<path d="M134.664 155.734C135.007 154.423 133.616 153.058 131.969 153.735C131.917 153.749 131.849 153.805 131.91 153.847C133.117 154.468 133.592 155.969 132.984 157.251C132.973 157.286 132.986 157.303 133.006 157.31C133.014 157.329 133.031 157.341 133.063 157.331C134.386 156.762 135.912 157.255 136.522 158.449C136.568 158.511 136.62 158.442 136.638 158.393C137.357 156.798 136.01 155.425 134.664 155.734Z" fill="black"/>
<path d="M137.628 152.951C137.972 151.639 136.581 150.275 134.934 150.952C134.882 150.966 134.813 151.022 134.874 151.064C136.082 151.684 136.557 153.186 135.949 154.468C135.937 154.503 135.95 154.52 135.971 154.527C135.979 154.545 135.995 154.558 136.028 154.548C137.351 153.979 138.877 154.471 139.487 155.666C139.532 155.728 139.584 155.659 139.603 155.61C140.322 154.015 138.975 152.642 137.628 152.951Z" fill="black"/>
<path d="M140.593 150.168C140.936 148.856 139.546 147.492 137.898 148.169C137.847 148.183 137.778 148.239 137.839 148.281C139.047 148.901 139.521 150.403 138.913 151.685C138.902 151.72 138.915 151.736 138.936 151.743C138.943 151.762 138.96 151.775 138.993 151.765C140.315 151.196 141.841 151.689 142.452 152.882C142.497 152.945 142.549 152.876 142.567 152.826C143.287 151.232 141.939 149.859 140.593 150.168Z" fill="black"/>
<path d="M143.558 147.384C143.901 146.073 142.51 144.709 140.863 145.385C140.811 145.4 140.742 145.456 140.804 145.497C142.011 146.118 142.486 147.619 141.878 148.902C141.867 148.937 141.879 148.953 141.901 148.96C141.908 148.979 141.924 148.992 141.957 148.981C143.28 148.413 144.806 148.905 145.416 150.099C145.461 150.162 145.514 150.093 145.532 150.043C146.252 148.449 144.904 147.076 143.558 147.384Z" fill="black"/>
<path d="M146.523 144.601C146.866 143.29 145.475 141.926 143.828 142.602C143.776 142.616 143.707 142.672 143.769 142.714C144.976 143.335 145.451 144.836 144.842 146.118C144.831 146.153 144.844 146.17 144.865 146.177C144.873 146.196 144.889 146.208 144.922 146.198C146.245 145.629 147.771 146.122 148.381 147.316C148.426 147.378 148.479 147.309 148.497 147.26C149.216 145.665 147.869 144.292 146.523 144.601Z" fill="black"/>
<path d="M121.76 168.124H131.551C136.001 168.124 139.041 171.067 139.041 174.772C139.041 177.17 137.743 179.204 135.852 180.148V180.366C138.077 181.493 139.524 183.927 139.524 186.506C139.524 190.502 136.075 193.553 131.476 193.553H121.76V168.124ZM131.254 178.95C133.59 178.95 135.296 177.351 135.296 175.135C135.296 172.919 133.59 171.357 131.254 171.357H125.431V178.95H131.254ZM131.587 190.32C133.85 190.32 135.778 188.467 135.778 186.252C135.778 184.035 133.85 182.147 131.587 182.147H125.431V190.32H131.587Z" fill="black"/>
<path d="M144.973 168.124H154.763C159.213 168.124 162.44 171.284 162.44 175.499C162.44 178.877 160.4 181.42 157.062 182.401L163.367 193.553H159.251L153.354 183.055H148.644V193.553H144.973V168.124ZM154.392 179.822C156.803 179.822 158.694 177.932 158.694 175.571C158.694 173.246 156.803 171.357 154.392 171.357H148.644V179.822H154.392Z" fill="black"/>
<path d="M168.593 168.124H172.338L185.392 187.305H185.615V168.124H189.175V193.553H185.429L172.338 174.372H172.116V193.553H168.593V168.124Z" fill="black"/>
<path d="M195.068 180.839C195.068 173.21 200.63 167.725 208.307 167.725C215.983 167.725 221.546 173.21 221.546 180.839C221.546 188.467 215.983 193.953 208.307 193.953C200.63 193.953 195.068 188.467 195.068 180.839ZM208.307 190.647C213.87 190.647 217.801 186.615 217.801 180.839C217.801 175.062 213.87 171.03 208.307 171.03C202.707 171.03 198.814 175.062 198.814 180.839C198.814 186.615 202.707 190.647 208.307 190.647Z" fill="black"/>
<path d="M171.247 148.313C171.327 148.369 171.374 148.466 171.348 148.564C171.065 149.893 170.965 150.715 171.036 151.381C171.066 151.707 171.13 151.98 171.192 152.181C171.263 152.385 171.341 152.515 171.395 152.535C171.45 152.555 171.595 152.51 171.772 152.367C171.959 152.227 172.173 151.984 172.338 151.622C172.505 151.263 172.609 150.783 172.572 150.226C172.514 149.673 172.34 149.025 171.875 148.435C171.818 148.35 171.789 148.242 171.821 148.145C171.948 147.789 171.996 147.398 171.918 147.215C171.842 147.027 171.666 147.08 171.266 147.519C170.682 147.53 170.539 147.662 170.602 147.795C170.671 147.93 170.96 148.103 171.247 148.313Z" fill="black"/>
<path d="M162.324 146.716C162.315 146.617 162.378 146.531 162.468 146.49C163.095 146.196 163.572 145.999 163.98 145.827C164.38 145.648 164.703 145.478 164.979 145.306C165.253 145.136 165.475 144.964 165.633 144.819C165.788 144.665 165.875 144.546 165.87 144.489C165.865 144.433 165.761 144.319 165.552 144.227C165.342 144.125 165.024 144.039 164.61 144.059C164.201 144.079 163.692 144.214 163.203 144.554C162.71 144.88 162.26 145.442 162.046 146.155C162.015 146.255 161.932 146.334 161.839 146.372C161.662 146.437 161.481 146.516 161.33 146.602C161.191 146.693 161.08 146.79 161.03 146.875C160.926 147.051 161.079 147.154 161.676 147.189C162.049 147.633 162.243 147.66 162.308 147.53C162.343 147.461 162.348 147.347 162.34 147.201C162.342 147.062 162.334 146.894 162.324 146.716Z" fill="black"/>
<path d="M165.478 155.518C165.392 155.562 165.281 155.566 165.205 155.499C164.647 155.094 164.257 154.745 163.909 154.481C163.557 154.223 163.268 154.006 162.978 153.856C162.431 153.532 161.945 153.381 161.834 153.447C161.749 153.493 161.605 154.025 162.013 154.745C162.228 155.085 162.573 155.481 163.112 155.742C163.639 156.009 164.343 156.166 165.091 156.019C165.195 156.008 165.307 156.025 165.383 156.098C165.657 156.366 165.997 156.573 166.197 156.585C166.402 156.6 166.43 156.422 166.2 155.879C166.443 155.358 166.383 155.175 166.233 155.173C166.077 155.172 165.793 155.358 165.478 155.518Z" fill="black"/>
<path d="M170.994 164.526C170.939 164.609 170.837 164.636 170.74 164.619C169.377 164.387 168.477 164.481 167.829 164.746C167.187 164.955 166.833 165.326 166.835 165.442C166.838 165.553 167.217 165.89 167.949 166.04C168.664 166.137 169.774 166.026 170.885 165.131C170.963 165.069 171.073 165.061 171.165 165.089C171.849 165.31 172.597 165.417 171.783 164.568C171.831 163.425 171.398 163.934 170.994 164.526Z" fill="black"/>
<path d="M181.032 152.483C181.081 152.566 181.077 152.67 181.025 152.751C180.674 153.327 180.383 153.812 180.236 154.257C180.101 154.704 180.004 155.084 179.991 155.42C179.976 155.754 180.025 156.038 180.09 156.245C180.14 156.446 180.215 156.573 180.27 156.594C180.322 156.615 180.469 156.576 180.661 156.458C180.837 156.334 181.051 156.127 181.252 155.822C181.45 155.517 181.654 155.118 181.707 154.606C181.772 154.098 181.79 153.5 181.562 152.826C181.533 152.731 181.557 152.627 181.626 152.557C181.88 152.3 182.122 152.015 182.144 151.841C182.158 151.667 181.975 151.616 181.424 151.796C180.892 151.53 180.706 151.562 180.706 151.722C180.698 151.883 180.85 152.18 181.032 152.483Z" fill="black"/>
<path d="M175.199 137.838C175.295 137.836 175.386 137.89 175.431 137.975C175.59 138.28 175.77 138.517 175.917 138.76C176.066 139.001 176.218 139.204 176.374 139.378C176.7 139.711 176.977 139.99 177.266 140.168C177.85 140.518 178.334 140.612 178.431 140.541C178.521 140.478 178.615 139.957 178.265 139.315C178.095 138.993 177.852 138.609 177.42 138.306C177.211 138.148 176.972 137.995 176.703 137.855C176.434 137.714 176.1 137.63 175.756 137.549C175.658 137.527 175.577 137.455 175.547 137.361C175.493 137.187 175.431 137.013 175.362 136.871C175.287 136.738 175.208 136.634 175.132 136.586C174.979 136.489 174.851 136.624 174.758 137.19C174.273 137.525 174.217 137.703 174.358 137.779C174.429 137.817 174.553 137.831 174.705 137.832C174.851 137.842 175.022 137.843 175.199 137.838Z" fill="black"/>
<path d="M164.521 135.279C164.591 135.213 164.694 135.18 164.787 135.22C165.443 135.485 165.989 135.582 166.466 135.635C166.941 135.704 167.345 135.674 167.683 135.599C168.354 135.469 168.763 135.196 168.782 135.071C168.798 134.972 168.485 134.541 167.786 134.304C167.438 134.197 166.995 134.128 166.476 134.152C165.958 134.193 165.361 134.381 164.738 134.691C164.65 134.732 164.543 134.746 164.457 134.696C163.826 134.35 163.113 134.105 163.751 135.09C163.486 136.202 164.012 135.784 164.521 135.279Z" fill="black"/>
<path d="M152.321 145.173C152.288 145.084 152.312 144.983 152.378 144.912C152.617 144.663 152.81 144.425 152.972 144.198C153.156 143.981 153.303 143.771 153.42 143.568C153.537 143.365 153.624 143.169 153.689 142.982C153.772 142.804 153.831 142.632 153.871 142.47C154.025 141.823 153.907 141.323 153.818 141.265C153.714 141.199 153.22 141.317 152.707 141.848C152.578 141.979 152.448 142.135 152.323 142.317C152.217 142.508 152.119 142.725 152.036 142.969C151.952 143.212 151.884 143.482 151.838 143.775C151.817 144.077 151.824 144.405 151.862 144.751C151.873 144.849 151.83 144.947 151.748 145.004C151.13 145.427 150.693 145.991 151.837 145.791C152.809 146.472 152.552 145.814 152.321 145.173Z" fill="black"/>
<path d="M155.477 160.705C155.382 160.688 155.305 160.616 155.278 160.524C155.187 160.194 155.066 159.922 154.969 159.657C154.875 159.391 154.768 159.16 154.652 158.958C154.405 158.564 154.184 158.24 153.942 158.005C153.445 157.543 152.977 157.364 152.873 157.411C152.767 157.459 152.582 157.945 152.788 158.644C152.883 158.994 153.048 159.412 153.404 159.797C153.575 159.994 153.776 160.192 154.009 160.383C154.245 160.572 154.551 160.725 154.871 160.875C154.962 160.916 155.026 161.002 155.035 161.101C155.057 161.47 155.145 161.821 155.277 161.943C155.406 162.07 155.56 161.963 155.772 161.429C156.317 161.199 156.409 161.036 156.287 160.934C156.161 160.834 155.816 160.777 155.477 160.705Z" fill="black"/>
<path d="M179.204 159.369C179.207 159.464 179.152 159.552 179.067 159.595C178.483 159.921 177.982 160.188 177.639 160.501C177.462 160.652 177.322 160.813 177.194 160.963C177.059 161.105 176.949 161.247 176.86 161.386C176.505 161.942 176.466 162.452 176.541 162.542C176.611 162.628 177.111 162.666 177.761 162.339C177.923 162.258 178.094 162.154 178.267 162.024C178.433 161.887 178.589 161.712 178.745 161.513C179.046 161.108 179.365 160.612 179.496 159.921C179.516 159.826 179.588 159.748 179.683 159.722C180.379 159.527 181.054 159.211 179.882 158.972C179.247 158.03 179.185 158.678 179.204 159.369Z" fill="black"/>
<path d="M178.822 137.976C178.916 137.999 178.979 138.08 178.995 138.174C179.092 138.852 179.3 139.339 179.473 139.769C179.648 140.195 179.876 140.513 180.112 140.754C180.549 141.248 180.998 141.451 181.116 141.404C181.214 141.367 181.435 140.895 181.306 140.19C181.226 139.847 181.064 139.444 180.782 139.024C180.504 138.604 180.018 138.217 179.434 137.861C179.349 137.813 179.301 137.719 179.301 137.622C179.278 136.927 179.127 136.217 178.592 137.249C177.481 137.608 178.118 137.82 178.822 137.976Z" fill="black"/>
<path d="M156.78 135.457C156.812 135.369 156.896 135.309 156.993 135.299C157.676 135.228 158.194 135.074 158.649 134.941C159.094 134.795 159.422 134.568 159.692 134.374C160.233 133.996 160.457 133.543 160.42 133.432C160.386 133.327 159.929 133.109 159.196 133.169C158.833 133.205 158.423 133.362 157.979 133.612C157.528 133.846 157.094 134.279 156.704 134.849C156.649 134.929 156.553 134.974 156.453 134.965C155.715 134.896 155.015 135.042 156.015 135.617C156.316 136.746 156.544 136.091 156.78 135.457Z" fill="black"/>
<path d="M150.27 154.489C150.195 154.429 150.162 154.331 150.183 154.24C150.31 153.594 150.424 153.042 150.4 152.58C150.38 152.118 150.284 151.735 150.191 151.418C149.979 150.791 149.602 150.447 149.483 150.448C149.37 150.45 149.024 150.811 148.869 151.506C148.777 151.852 148.779 152.279 148.898 152.765C149.021 153.249 149.201 153.802 149.652 154.348C149.712 154.426 149.726 154.529 149.685 154.617C149.385 155.262 149.192 155.966 150.139 155.252C151.285 155.394 150.82 154.925 150.27 154.489Z" fill="black"/>
<path d="M165.431 167.505C165.353 167.56 165.248 167.565 165.163 167.521C164.558 167.227 164.045 166.999 163.587 166.886C163.13 166.775 162.727 166.777 162.395 166.774C161.727 166.801 161.282 167.06 161.249 167.172C161.219 167.278 161.475 167.703 162.118 168.045C162.436 168.23 162.861 168.329 163.371 168.353C163.881 168.38 164.477 168.331 165.132 168.051C165.224 168.015 165.329 168.029 165.405 168.092C165.962 168.546 166.606 168.916 166.149 167.831C166.587 166.787 166.004 167.102 165.431 167.505Z" fill="black"/>
</g>
</svg>
