<svg width="346" height="258" viewBox="0 0 346 258" fill="none" xmlns="http://www.w3.org/2000/svg">
<rect width="346" height="258" fill="#F9F0E4"/>
<g opacity="0.25">
<path d="M193.591 126.243L193.521 126.269C193.522 126.257 193.523 126.247 193.524 126.234C193.518 126.07 193.434 125.909 193.33 125.923C193.227 125.936 193.156 126.116 193.175 126.275C193.183 126.351 193.208 126.407 193.241 126.446C193.04 126.368 192.766 126.369 192.464 126.409C192.182 126.471 191.875 126.582 191.642 126.735C191.413 126.896 191.274 127.058 191.204 127.212C191.173 127.273 191.117 127.325 191.052 127.345C190.874 127.396 190.699 127.511 190.57 127.686C190.387 127.921 190.391 128.242 190.527 128.468C190.795 128.898 191.356 128.923 191.706 128.643C191.794 128.569 191.858 128.478 191.901 128.377C191.925 128.316 191.982 128.279 192.047 128.278C192.204 128.271 192.372 128.213 192.557 128.081C192.743 127.959 192.929 127.808 193.086 127.625C193.25 127.471 193.389 127.274 193.475 127.102C193.477 127.15 193.495 127.209 193.533 127.275C193.616 127.416 193.745 127.538 193.805 127.504C193.865 127.47 193.847 127.29 193.777 127.145C193.77 127.134 193.765 127.127 193.759 127.117C193.779 127.113 193.798 127.111 193.818 127.105C194.071 127.036 194.264 126.825 194.24 126.574C194.219 126.336 193.919 126.155 193.591 126.243Z" fill="black"/>
<path d="M187.717 132.494L187.678 132.556C187.671 132.546 187.665 132.538 187.658 132.527C187.553 132.4 187.387 132.321 187.312 132.393C187.238 132.465 187.292 132.651 187.405 132.767C187.458 132.821 187.513 132.851 187.563 132.864C187.356 132.92 187.137 133.083 186.921 133.294C186.735 133.511 186.559 133.781 186.467 134.041C186.384 134.305 186.372 134.516 186.411 134.681C186.425 134.747 186.412 134.822 186.372 134.876C186.262 135.023 186.193 135.218 186.199 135.434C186.197 135.729 186.398 135.983 186.646 136.083C187.124 136.266 187.586 135.954 187.693 135.524C187.717 135.412 187.712 135.302 187.685 135.196C187.667 135.133 187.689 135.07 187.74 135.031C187.86 134.932 187.959 134.787 188.025 134.571C188.098 134.364 188.154 134.134 188.166 133.895C188.202 133.675 188.191 133.436 188.154 133.248C188.185 133.285 188.235 133.321 188.307 133.351C188.46 133.414 188.637 133.435 188.664 133.372C188.691 133.31 188.566 133.177 188.421 133.103C188.409 133.098 188.401 133.095 188.39 133.091C188.403 133.076 188.417 133.063 188.429 133.047C188.588 132.842 188.612 132.56 188.438 132.373C188.275 132.196 187.925 132.23 187.717 132.494Z" fill="black"/>
<path d="M185.129 132.801L185.077 132.854C185.072 132.842 185.069 132.833 185.064 132.821C184.987 132.675 184.841 132.565 184.753 132.621C184.665 132.676 184.68 132.869 184.767 133.005C184.807 133.069 184.855 133.109 184.901 133.132C184.686 133.145 184.439 133.261 184.183 133.424C183.955 133.599 183.727 133.829 183.583 134.064C183.447 134.306 183.391 134.511 183.395 134.679C183.395 134.748 183.366 134.817 183.317 134.864C183.177 134.985 183.07 135.162 183.03 135.375C182.967 135.663 183.111 135.952 183.333 136.099C183.763 136.374 184.281 136.161 184.475 135.761C184.521 135.658 184.54 135.548 184.535 135.439C184.53 135.374 184.565 135.317 184.623 135.288C184.762 135.216 184.889 135.094 184.998 134.895C185.113 134.708 185.215 134.493 185.276 134.261C185.358 134.053 185.397 133.817 185.399 133.625C185.422 133.669 185.464 133.714 185.527 133.757C185.664 133.85 185.834 133.906 185.873 133.85C185.912 133.794 185.818 133.639 185.691 133.537C185.68 133.53 185.673 133.525 185.662 133.519C185.679 133.508 185.695 133.498 185.711 133.484C185.909 133.315 185.991 133.044 185.859 132.826C185.736 132.62 185.386 132.583 185.129 132.801Z" fill="black"/>
<path d="M198.52 126.857L198.455 126.856C198.46 126.845 198.463 126.836 198.469 126.824C198.518 126.669 198.504 126.49 198.427 126.467C198.347 126.446 198.248 126.578 198.191 126.731C198.166 126.802 198.16 126.863 198.167 126.912C197.93 126.615 197.464 126.289 196.974 126.146C196.734 126.074 196.514 126.069 196.355 126.111C196.29 126.127 196.211 126.117 196.155 126.074C196.005 125.959 195.8 125.887 195.563 125.903C195.247 125.91 194.973 126.128 194.902 126.375C194.783 126.86 195.101 127.284 195.507 127.367C195.614 127.385 195.726 127.389 195.83 127.362C195.892 127.348 195.954 127.365 195.999 127.414C196.109 127.533 196.257 127.623 196.506 127.697C196.982 127.838 197.696 127.837 198.063 127.599C198.039 127.643 198.026 127.703 198.031 127.779C198.041 127.94 198.146 128.115 198.236 128.104C198.33 128.097 198.384 127.924 198.367 127.763C198.364 127.751 198.362 127.742 198.359 127.73L198.428 127.742C198.741 127.777 199.007 127.589 199.018 127.342C199.029 127.098 198.806 126.889 198.52 126.857Z" fill="black"/>
<path d="M202.914 125.984L202.863 126.023C202.86 126.011 202.858 126.002 202.854 125.989C202.796 125.836 202.676 125.705 202.602 125.727C202.528 125.749 202.524 125.925 202.575 126.079C202.598 126.151 202.631 126.203 202.668 126.237C202.28 126.146 201.717 126.192 201.301 126.306C201.091 126.377 200.938 126.446 200.834 126.56C200.791 126.607 200.728 126.623 200.669 126.602C200.51 126.546 200.344 126.556 200.165 126.613C199.927 126.704 199.729 126.92 199.671 127.178C199.554 127.663 199.97 128.098 200.527 128.04C200.664 128.02 200.789 127.974 200.894 127.909C200.956 127.872 201.035 127.865 201.104 127.883C201.271 127.928 201.497 127.947 201.772 127.857C202.328 127.703 202.881 127.24 203.011 126.845C203.02 126.893 203.046 126.949 203.097 127.006C203.206 127.128 203.384 127.204 203.459 127.145C203.534 127.085 203.468 126.911 203.355 126.796C203.345 126.788 203.337 126.782 203.328 126.774L203.391 126.742C203.664 126.575 203.755 126.268 203.607 126.066C203.461 125.87 203.153 125.839 202.914 125.984Z" fill="black"/>
<path d="M203.439 122.332L203.405 122.385C203.398 122.375 203.392 122.367 203.385 122.356C203.276 122.232 203.117 122.15 203.055 122.196C202.994 122.242 203.052 122.408 203.154 122.536C203.202 122.595 203.251 122.632 203.297 122.652C202.901 122.699 202.39 122.932 202.039 123.181C201.867 123.318 201.747 123.435 201.69 123.577C201.667 123.635 201.613 123.672 201.55 123.672C201.382 123.673 201.229 123.739 201.081 123.854C200.89 124.02 200.781 124.289 200.817 124.551C200.878 125.046 201.422 125.313 201.924 125.069C202.045 125.005 202.146 124.919 202.223 124.823C202.267 124.767 202.338 124.733 202.41 124.727C202.582 124.712 202.8 124.654 203.028 124.476C203.495 124.143 203.851 123.521 203.833 123.106C203.859 123.149 203.903 123.192 203.971 123.228C204.117 123.306 204.31 123.317 204.36 123.236C204.409 123.154 204.286 123.014 204.139 122.944C204.126 122.939 204.118 122.937 204.106 122.932L204.153 122.881C204.351 122.632 204.329 122.313 204.118 122.174C203.912 122.039 203.612 122.114 203.439 122.332Z" fill="black"/>
<path d="M206.274 122.832L206.241 122.886C206.234 122.877 206.228 122.869 206.219 122.859C206.104 122.745 205.935 122.671 205.877 122.724C205.819 122.776 205.89 122.939 206.001 123.058C206.054 123.114 206.106 123.147 206.154 123.163C205.763 123.242 205.257 123.531 204.935 123.857C204.76 124.026 204.667 124.19 204.628 124.343C204.612 124.404 204.566 124.455 204.503 124.473C204.336 124.522 204.187 124.631 204.074 124.788C203.925 125.009 203.902 125.302 204.017 125.541C204.231 125.994 204.825 126.083 205.218 125.737C205.312 125.651 205.383 125.549 205.428 125.441C205.455 125.378 205.513 125.331 205.581 125.316C205.745 125.278 205.919 125.178 206.108 124.995C206.49 124.611 206.777 123.985 206.726 123.572C206.755 123.614 206.803 123.653 206.873 123.684C207.024 123.749 207.217 123.747 207.258 123.663C207.299 123.579 207.17 123.451 207.016 123.39C207.003 123.386 206.994 123.384 206.982 123.381L207.028 123.328C207.198 123.062 207.158 122.748 206.941 122.626C206.723 122.504 206.424 122.596 206.274 122.832Z" fill="black"/>
<path d="M188.714 128.083L188.696 128.144C188.686 128.136 188.679 128.131 188.668 128.122C188.528 128.038 188.346 128.006 188.302 128.07C188.258 128.134 188.367 128.277 188.504 128.367C188.569 128.408 188.627 128.429 188.678 128.433C188.317 128.601 187.895 128.998 187.661 129.39C187.532 129.596 187.48 129.776 187.48 129.933C187.479 129.997 187.446 130.057 187.39 130.089C187.239 130.176 187.12 130.315 187.049 130.494C186.957 130.743 187.006 131.034 187.175 131.239C187.492 131.63 188.09 131.578 188.389 131.151C188.46 131.046 188.504 130.93 188.522 130.815C188.533 130.747 188.578 130.688 188.64 130.658C188.79 130.583 188.936 130.445 189.075 130.223C189.353 129.762 189.482 129.088 189.332 128.698C189.371 128.731 189.426 128.758 189.503 128.772C189.665 128.801 189.851 128.754 189.871 128.663C189.891 128.571 189.735 128.476 189.57 128.453C189.557 128.453 189.547 128.452 189.535 128.452L189.567 128.39C189.668 128.093 189.554 127.796 189.313 127.728C189.072 127.661 188.803 127.82 188.714 128.083Z" fill="black"/>
<path d="M207.702 118.57L207.705 118.634C207.694 118.629 207.685 118.626 207.672 118.621C207.511 118.581 207.331 118.602 207.309 118.677C207.286 118.751 207.431 118.857 207.589 118.903C207.663 118.925 207.725 118.927 207.774 118.916C207.481 119.181 207.199 119.69 207.091 120.124C207.032 120.344 207.039 120.522 207.076 120.667C207.092 120.726 207.078 120.791 207.033 120.834C206.919 120.951 206.823 121.098 206.804 121.287C206.774 121.54 206.875 121.809 207.089 121.981C207.47 122.302 208.064 122.138 208.256 121.634C208.307 121.512 208.326 121.385 208.312 121.264C208.305 121.194 208.334 121.123 208.387 121.076C208.519 120.962 208.621 120.779 208.692 120.514C208.824 119.987 208.739 119.31 208.479 118.981C208.526 119.002 208.587 119.012 208.664 119.003C208.829 118.984 208.994 118.886 208.986 118.794C208.976 118.702 208.795 118.655 208.633 118.68C208.621 118.683 208.612 118.686 208.6 118.689L208.609 118.621C208.627 118.309 208.425 118.058 208.171 118.061C207.924 118.062 207.719 118.291 207.702 118.57Z" fill="black"/>
<path d="M210.725 104.799L210.671 104.835C210.669 104.823 210.667 104.813 210.665 104.801C210.617 104.645 210.504 104.505 210.427 104.526C210.35 104.545 210.334 104.721 210.376 104.878C210.396 104.951 210.427 105.004 210.461 105.04C210.078 104.932 209.488 104.962 209.054 105.097C208.832 105.163 208.681 105.261 208.574 105.368C208.531 105.413 208.467 105.434 208.407 105.419C208.245 105.384 208.067 105.381 207.893 105.464C207.657 105.571 207.475 105.795 207.438 106.064C207.357 106.55 207.809 106.962 208.348 106.86C208.481 106.839 208.601 106.789 208.699 106.714C208.757 106.672 208.833 106.659 208.902 106.678C209.07 106.73 209.283 106.72 209.55 106.641C210.077 106.477 210.622 106.053 210.773 105.664C210.779 105.714 210.802 105.77 210.85 105.83C210.952 105.957 211.123 106.044 211.2 105.99C211.275 105.934 211.221 105.758 211.114 105.636C211.105 105.627 211.098 105.621 211.089 105.612L211.154 105.584C211.434 105.437 211.547 105.137 211.413 104.926C211.282 104.72 210.977 104.667 210.725 104.799Z" fill="black"/>
<path d="M207.28 113.825V113.896C207.269 113.892 207.26 113.888 207.247 113.883C207.088 113.839 206.905 113.867 206.882 113.964C206.866 114.061 207.022 114.179 207.184 114.213C207.259 114.229 207.322 114.224 207.37 114.207C207.077 114.521 206.963 115.226 207.066 115.733C207.114 115.988 207.204 116.164 207.312 116.276C207.356 116.322 207.375 116.389 207.358 116.45C207.308 116.616 207.313 116.771 207.381 116.953C207.477 117.194 207.709 117.381 207.974 117.427C208.474 117.519 208.896 117.099 208.825 116.568C208.804 116.437 208.758 116.309 208.689 116.216C208.649 116.16 208.64 116.087 208.663 116.023C208.721 115.864 208.732 115.676 208.688 115.438C208.596 114.974 208.346 114.483 208.078 114.202C208.126 114.217 208.188 114.219 208.264 114.205C208.425 114.172 208.579 114.087 208.562 114.016C208.551 113.946 208.373 113.907 208.209 113.928C208.196 113.931 208.187 113.933 208.176 113.936C208.18 113.916 208.185 113.897 208.186 113.876C208.199 113.611 208.039 113.364 207.794 113.319C207.546 113.274 207.296 113.499 207.28 113.825Z" fill="black"/>
<path d="M205.544 111.857L205.521 111.925C205.512 111.917 205.505 111.912 205.494 111.903C205.357 111.813 205.173 111.785 205.121 111.871C205.076 111.958 205.187 112.117 205.331 112.198C205.398 112.236 205.459 112.25 205.51 112.248C205.134 112.459 204.804 113.097 204.745 113.61C204.711 113.866 204.742 114.062 204.81 114.2C204.837 114.258 204.835 114.327 204.799 114.38C204.7 114.523 204.656 114.672 204.664 114.866C204.681 115.123 204.844 115.371 205.081 115.495C205.528 115.733 206.062 115.459 206.159 114.933C206.18 114.801 206.177 114.666 206.14 114.557C206.119 114.491 206.133 114.419 206.175 114.365C206.279 114.231 206.349 114.056 206.381 113.815C206.438 113.345 206.353 112.804 206.186 112.456C206.227 112.484 206.286 112.505 206.362 112.514C206.526 112.532 206.699 112.496 206.704 112.424C206.716 112.354 206.559 112.263 206.396 112.234C206.383 112.233 206.374 112.233 206.362 112.232C206.372 112.214 206.383 112.197 206.391 112.178C206.485 111.929 206.411 111.646 206.192 111.53C205.969 111.413 205.661 111.552 205.544 111.857Z" fill="black"/>
<path d="M209.518 109.356L209.475 109.411C209.469 109.401 209.465 109.392 209.458 109.38C209.362 109.248 209.205 109.154 209.132 109.21C209.059 109.266 209.101 109.448 209.2 109.578C209.247 109.639 209.296 109.675 209.344 109.695C208.925 109.734 208.359 110.124 208.058 110.586C207.908 110.821 207.833 111.014 207.843 111.194C207.845 111.265 207.814 111.336 207.758 111.381C207.608 111.501 207.483 111.68 207.452 111.91C207.394 112.215 207.529 112.508 207.771 112.643C208.212 112.877 208.726 112.665 208.892 112.289C208.937 112.191 208.964 112.09 208.962 111.986C208.961 111.925 208.996 111.87 209.05 111.841C209.175 111.769 209.321 111.657 209.442 111.466C209.683 111.096 209.883 110.544 209.877 110.151C209.903 110.194 209.948 110.236 210.014 110.274C210.158 110.354 210.339 110.384 210.379 110.315C210.419 110.246 210.308 110.102 210.168 110.018C210.156 110.013 210.148 110.009 210.137 110.004L210.184 109.961C210.372 109.746 210.412 109.453 210.231 109.275C210.058 109.104 209.724 109.123 209.518 109.356Z" fill="black"/>
<path d="M212.734 105.653L212.686 105.703C212.681 105.692 212.678 105.683 212.672 105.671C212.59 105.53 212.444 105.42 212.365 105.469C212.287 105.518 212.31 105.704 212.396 105.842C212.436 105.907 212.481 105.949 212.526 105.972C212.105 105.971 211.503 106.303 211.156 106.733C210.983 106.952 210.889 107.137 210.881 107.317C210.875 107.388 210.838 107.455 210.777 107.495C210.615 107.6 210.473 107.766 210.419 107.992C210.33 108.29 210.434 108.594 210.662 108.752C211.076 109.028 211.61 108.867 211.812 108.509C211.868 108.417 211.905 108.319 211.913 108.215C211.919 108.154 211.959 108.102 212.016 108.079C212.148 108.019 212.304 107.923 212.444 107.745C212.721 107.4 212.976 106.87 213.011 106.479C213.032 106.524 213.072 106.571 213.135 106.615C213.27 106.709 213.446 106.756 213.493 106.691C213.541 106.627 213.445 106.472 213.314 106.375C213.303 106.369 213.295 106.364 213.285 106.358L213.336 106.319C213.545 106.124 213.614 105.836 213.452 105.641C213.298 105.455 212.963 105.44 212.734 105.653Z" fill="black"/>
<path d="M196.236 128.722L196.162 128.721C196.168 128.71 196.172 128.702 196.177 128.69C196.229 128.535 196.206 128.354 196.107 128.33C196.015 128.31 195.896 128.457 195.857 128.614C195.839 128.688 195.842 128.749 195.856 128.797C195.563 128.513 194.937 128.337 194.429 128.381C194.171 128.4 193.984 128.475 193.855 128.574C193.801 128.616 193.73 128.632 193.665 128.612C193.492 128.559 193.287 128.571 193.087 128.663C192.815 128.787 192.641 129.068 192.673 129.331C192.752 129.818 193.175 130.118 193.576 130.048C193.681 130.029 193.775 129.984 193.861 129.925C193.911 129.89 193.976 129.885 194.03 129.912C194.166 129.982 194.337 130.01 194.565 129.993C195.013 129.954 195.553 129.753 195.835 129.491C195.82 129.537 195.815 129.599 195.826 129.673C195.852 129.833 195.93 129.989 196.001 129.976C196.063 129.965 196.105 129.79 196.094 129.63C196.092 129.618 196.09 129.609 196.088 129.598C196.106 129.602 196.124 129.606 196.143 129.608C196.213 129.612 196.239 129.609 196.294 129.593C196.362 129.584 196.426 129.564 196.482 129.534C196.594 129.474 196.674 129.377 196.7 129.256C196.725 129.136 196.692 129.015 196.62 128.919C196.584 128.87 196.538 128.828 196.484 128.794C196.417 128.76 196.309 128.726 196.236 128.722Z" fill="black"/>
<path d="M191.309 130.052L191.264 130.109C191.258 130.098 191.254 130.09 191.247 130.078C191.153 129.944 190.993 129.852 190.913 129.916C190.841 129.975 190.888 130.157 190.992 130.282C191.041 130.341 191.092 130.376 191.14 130.394C190.732 130.451 190.21 130.832 189.938 131.256C189.798 131.468 189.745 131.66 189.747 131.821C189.749 131.888 189.719 131.953 189.664 131.992C189.515 132.095 189.4 132.262 189.354 132.474C189.29 132.761 189.413 133.067 189.645 133.202C190.088 133.435 190.587 133.286 190.774 132.931C190.822 132.838 190.843 132.737 190.847 132.634C190.848 132.574 190.884 132.521 190.94 132.494C191.078 132.43 191.204 132.314 191.329 132.125C191.569 131.752 191.732 131.21 191.691 130.83C191.719 130.871 191.766 130.912 191.833 130.948C191.978 131.025 192.152 131.058 192.184 130.995C192.213 130.94 192.098 130.801 191.96 130.713C191.949 130.707 191.941 130.703 191.931 130.698C191.944 130.686 191.959 130.675 191.972 130.662C192.018 130.609 192.031 130.587 192.051 130.534C192.085 130.475 192.107 130.414 192.117 130.352C192.136 130.228 192.106 130.106 192.024 130.013C191.942 129.921 191.824 129.874 191.701 129.872C191.64 129.87 191.578 129.88 191.518 129.902C191.449 129.934 191.357 129.997 191.309 130.052Z" fill="black"/>
<path d="M200.728 128.964C200.708 128.968 200.688 128.974 200.668 128.98C200.67 128.968 200.672 128.958 200.674 128.945C200.681 128.783 200.625 128.612 200.55 128.609C200.473 128.602 200.401 128.76 200.388 128.921C200.382 128.995 200.392 129.056 200.412 129.102C200.101 128.865 199.555 128.712 199.112 128.707C198.886 128.7 198.716 128.745 198.586 128.826C198.533 128.86 198.467 128.857 198.415 128.825C198.276 128.737 198.108 128.697 197.923 128.731C197.672 128.767 197.444 128.945 197.342 129.194C197.15 129.649 197.457 130.149 197.964 130.193C198.089 130.204 198.21 130.187 198.317 130.148C198.381 130.124 198.452 130.138 198.508 130.173C198.645 130.261 198.837 130.317 199.098 130.324C199.615 130.331 200.23 130.1 200.491 129.792C200.481 129.84 200.484 129.901 200.508 129.974C200.558 130.127 200.683 130.27 200.768 130.243C200.853 130.214 200.862 130.032 200.806 129.88C200.801 129.869 200.796 129.861 200.791 129.85L200.858 129.845C201.155 129.799 201.356 129.564 201.306 129.323C201.256 129.082 200.998 128.921 200.728 128.964Z" fill="black"/>
<path d="M185.653 128.805C185.645 128.824 185.64 128.844 185.634 128.863C185.624 128.855 185.617 128.849 185.607 128.84C185.472 128.746 185.295 128.7 185.251 128.761C185.205 128.82 185.301 128.965 185.432 129.062C185.493 129.108 185.55 129.132 185.6 129.14C185.23 129.269 184.803 129.637 184.559 130.001C184.431 130.184 184.379 130.348 184.378 130.499C184.378 130.561 184.34 130.613 184.285 130.639C184.134 130.707 184.009 130.824 183.938 130.996C183.833 131.221 183.863 131.507 184.022 131.724C184.308 132.129 184.903 132.145 185.215 131.751C185.292 131.654 185.342 131.545 185.367 131.435C185.381 131.369 185.432 131.318 185.492 131.29C185.641 131.225 185.793 131.097 185.94 130.886C186.224 130.462 186.358 129.829 186.235 129.448C186.271 129.482 186.325 129.513 186.4 129.532C186.56 129.573 186.749 129.548 186.772 129.463C186.792 129.377 186.642 129.272 186.481 129.235C186.469 129.234 186.46 129.233 186.448 129.232L186.479 129.174C186.599 128.903 186.507 128.611 186.273 128.522C186.04 128.433 185.761 128.56 185.653 128.805Z" fill="black"/>
<path d="M204.858 127.448C204.841 127.459 204.825 127.472 204.809 127.485C204.806 127.474 204.803 127.465 204.8 127.452C204.739 127.302 204.616 127.168 204.544 127.194C204.472 127.22 204.475 127.399 204.532 127.551C204.559 127.623 204.593 127.673 204.63 127.706C204.242 127.608 203.685 127.7 203.278 127.87C203.077 127.968 202.936 128.061 202.851 128.186C202.816 128.236 202.758 128.264 202.697 128.256C202.537 128.241 202.367 128.265 202.211 128.362C202 128.497 201.866 128.757 201.871 129.018C201.879 129.519 202.361 129.844 202.85 129.689C202.972 129.656 203.075 129.586 203.157 129.504C203.205 129.456 203.274 129.435 203.341 129.447C203.503 129.473 203.71 129.462 203.946 129.349C204.424 129.149 204.881 128.679 204.993 128.303C205.005 128.351 205.033 128.406 205.085 128.461C205.195 128.58 205.365 128.655 205.43 128.595C205.496 128.535 205.428 128.367 205.313 128.251C205.303 128.242 205.296 128.237 205.287 128.229L205.346 128.199C205.602 128.044 205.684 127.746 205.536 127.543C205.392 127.346 205.091 127.307 204.858 127.448Z" fill="black"/>
<path d="M208.103 124.471C208.091 124.488 208.082 124.506 208.072 124.524C208.064 124.514 208.059 124.506 208.05 124.496C207.938 124.377 207.774 124.297 207.718 124.348C207.664 124.399 207.725 124.559 207.834 124.681C207.885 124.737 207.936 124.773 207.983 124.79C207.785 124.813 207.563 124.898 207.357 125.018C207.142 125.131 206.937 125.275 206.786 125.437C206.626 125.596 206.534 125.743 206.503 125.891C206.49 125.951 206.447 126 206.387 126.016C206.232 126.064 206.082 126.151 205.976 126.303C205.831 126.508 205.817 126.804 205.929 127.041C206.142 127.497 206.71 127.6 207.095 127.277C207.193 127.2 207.26 127.1 207.302 126.994C207.327 126.931 207.382 126.886 207.448 126.872C207.607 126.837 207.785 126.747 207.966 126.566C208.14 126.381 208.299 126.146 208.407 125.907C208.506 125.66 208.558 125.414 208.542 125.217C208.57 125.258 208.617 125.298 208.686 125.332C208.833 125.404 209.026 125.418 209.062 125.337C209.1 125.257 208.974 125.125 208.825 125.057C208.812 125.053 208.804 125.05 208.792 125.047L208.836 124.997C209.01 124.757 208.98 124.453 208.77 124.319C208.56 124.185 208.261 124.253 208.103 124.471Z" fill="black"/>
<path d="M209.916 120.525C209.911 120.545 209.91 120.565 209.908 120.585C209.897 120.579 209.889 120.575 209.877 120.568C209.726 120.506 209.542 120.497 209.508 120.565C209.475 120.633 209.604 120.755 209.754 120.823C209.824 120.854 209.886 120.866 209.935 120.864C209.605 121.068 209.268 121.518 209.105 121.92C209.03 122.128 209.008 122.295 209.034 122.441C209.045 122.5 209.024 122.56 208.975 122.597C208.849 122.696 208.752 122.834 208.709 123.01C208.656 123.252 208.753 123.53 208.945 123.709C209.314 124.056 209.886 123.947 210.121 123.5C210.183 123.392 210.201 123.27 210.201 123.156C210.201 123.088 210.235 123.026 210.291 122.987C210.429 122.895 210.557 122.741 210.645 122.498C210.837 122.025 210.83 121.377 210.623 121.03C210.666 121.056 210.726 121.075 210.803 121.078C210.967 121.085 211.143 121.019 211.147 120.931C211.152 120.844 210.983 120.773 210.817 120.771C210.804 120.772 210.795 120.773 210.783 120.774L210.804 120.712C210.866 120.424 210.701 120.156 210.455 120.118C210.206 120.079 209.972 120.263 209.916 120.525Z" fill="black"/>
<path d="M209.989 116.172C209.991 116.193 209.998 116.212 210.003 116.231C209.991 116.229 209.982 116.228 209.968 116.227C209.804 116.222 209.63 116.282 209.625 116.358C209.62 116.434 209.787 116.502 209.952 116.51C210.029 116.513 210.09 116.502 210.135 116.481C209.906 116.793 209.768 117.343 209.782 117.78C209.798 118.003 209.839 118.167 209.926 118.291C209.961 118.342 209.967 118.406 209.937 118.459C209.864 118.6 209.82 118.766 209.862 118.946C209.92 119.189 210.108 119.403 210.364 119.491C210.839 119.661 211.33 119.334 211.353 118.835C211.361 118.712 211.34 118.594 211.289 118.49C211.261 118.429 211.266 118.359 211.302 118.302C211.386 118.165 211.447 117.974 211.431 117.72C211.414 117.217 211.16 116.628 210.837 116.383C210.886 116.392 210.949 116.387 211.021 116.362C211.176 116.308 211.314 116.184 211.286 116.102C211.257 116.02 211.073 116.016 210.919 116.074C210.907 116.08 210.899 116.084 210.888 116.09L210.884 116.025C210.842 115.772 210.629 115.583 210.377 115.592C210.128 115.601 209.939 115.869 209.989 116.172Z" fill="black"/>
<path d="M210.472 111.452L210.454 111.518C210.444 111.511 210.437 111.504 210.426 111.496C210.287 111.408 210.105 111.378 210.058 111.459C210.011 111.541 210.12 111.694 210.263 111.774C210.33 111.811 210.391 111.826 210.442 111.825C210.085 112.023 209.74 112.6 209.67 113.103C209.631 113.358 209.661 113.553 209.734 113.698C209.763 113.758 209.76 113.828 209.727 113.885C209.64 114.038 209.597 114.229 209.641 114.43C209.696 114.704 209.917 114.922 210.179 114.98C210.673 115.083 211.105 114.734 211.13 114.307C211.138 114.198 211.117 114.094 211.075 113.998C211.05 113.941 211.063 113.878 211.102 113.831C211.199 113.716 211.268 113.558 211.302 113.34C211.362 112.91 211.299 112.377 211.117 112.036C211.158 112.064 211.217 112.085 211.293 112.095C211.457 112.116 211.632 112.086 211.639 112.018C211.647 111.949 211.488 111.859 211.327 111.829C211.314 111.828 211.305 111.827 211.294 111.826C211.302 111.809 211.312 111.793 211.318 111.774C211.414 111.542 211.325 111.269 211.111 111.15C210.888 111.028 210.591 111.162 210.472 111.452Z" fill="black"/>
<path d="M199.949 131.575L199.883 131.579C199.887 131.568 199.89 131.559 199.895 131.547C199.933 131.389 199.906 131.21 199.828 131.193C199.75 131.179 199.644 131.322 199.6 131.475C199.579 131.548 199.578 131.609 199.59 131.657C199.462 131.517 199.275 131.389 199.069 131.289C198.967 131.233 198.861 131.176 198.753 131.132C198.696 131.111 198.642 131.091 198.59 131.072L198.509 131.046C198.445 131.032 198.382 131.018 198.32 131.005C198.258 131.002 198.199 131.001 198.141 130.999C197.892 130.993 197.701 131.033 197.558 131.11C197.5 131.141 197.428 131.143 197.37 131.111C197.215 131.026 197.03 130.986 196.83 131.016C196.559 131.057 196.323 131.235 196.216 131.481C196.007 131.938 196.362 132.437 196.904 132.482C197.037 132.493 197.165 132.476 197.279 132.434C197.347 132.41 197.423 132.42 197.482 132.457C197.627 132.549 197.827 132.609 198.103 132.616C198.155 132.617 198.157 132.616 198.161 132.614L198.163 132.611C198.173 132.612 198.116 132.601 198.155 132.606L198.258 132.616C198.325 132.618 198.394 132.621 198.467 132.624C198.607 132.624 198.746 132.619 198.878 132.598C199.144 132.546 199.379 132.461 199.537 132.35C199.517 132.395 199.508 132.456 199.519 132.532C199.543 132.696 199.65 132.856 199.748 132.84C199.845 132.826 199.889 132.649 199.858 132.49C199.854 132.478 199.852 132.469 199.848 132.458L199.92 132.465C200.249 132.477 200.506 132.274 200.495 132.023C200.484 131.783 200.24 131.586 199.949 131.575Z" fill="black"/>
<path d="M204.572 130.54L204.514 130.574C204.513 130.562 204.511 130.553 204.51 130.54C204.47 130.382 204.361 130.237 204.281 130.258C204.2 130.276 204.172 130.452 204.207 130.611C204.224 130.684 204.253 130.738 204.286 130.776C203.896 130.652 203.285 130.688 202.828 130.82C202.594 130.884 202.435 130.984 202.324 131.098C202.279 131.142 202.212 131.162 202.149 131.146C201.98 131.101 201.798 131.121 201.617 131.199C201.371 131.299 201.187 131.538 201.15 131.805C201.072 132.298 201.536 132.687 202.086 132.591C202.22 132.564 202.341 132.511 202.442 132.441C202.502 132.4 202.58 132.388 202.65 132.409C202.819 132.454 203.034 132.444 203.307 132.368C203.844 132.212 204.401 131.789 204.575 131.41C204.579 131.46 204.6 131.517 204.646 131.578C204.744 131.709 204.913 131.804 204.993 131.752C205.069 131.697 205.024 131.52 204.923 131.393C204.913 131.384 204.907 131.378 204.899 131.369L204.965 131.343C205.253 131.201 205.389 130.91 205.269 130.694C205.15 130.478 204.837 130.409 204.572 130.54Z" fill="black"/>
<path d="M211.989 127.681L211.962 127.742C211.953 127.732 211.947 127.725 211.938 127.715C211.813 127.608 211.639 127.549 211.587 127.612C211.53 127.671 211.609 127.832 211.73 127.942C211.786 127.994 211.841 128.022 211.891 128.034C211.497 128.15 211.016 128.521 210.717 128.886C210.562 129.068 210.489 129.239 210.465 129.395C210.453 129.456 210.41 129.51 210.349 129.532C210.183 129.59 210.045 129.707 209.942 129.873C209.798 130.092 209.785 130.391 209.909 130.632C210.131 131.08 210.739 131.141 211.135 130.756C211.229 130.658 211.299 130.547 211.341 130.433C211.366 130.366 211.424 130.313 211.494 130.29C211.659 130.233 211.829 130.105 212.01 129.89C212.361 129.462 212.573 128.804 212.496 128.395C212.528 128.433 212.579 128.469 212.652 128.493C212.809 128.546 213.003 128.529 213.038 128.443C213.069 128.354 212.93 128.234 212.772 128.186C212.759 128.184 212.751 128.182 212.739 128.18L212.778 128.121C212.932 127.844 212.876 127.529 212.652 127.418C212.428 127.307 212.131 127.425 211.989 127.681Z" fill="black"/>
<path d="M208.524 127.795L208.48 127.845C208.474 127.834 208.47 127.826 208.464 127.813C208.377 127.676 208.227 127.571 208.156 127.616C208.086 127.663 208.116 127.842 208.2 127.98C208.239 128.044 208.284 128.087 208.329 128.111C207.913 128.113 207.339 128.357 206.95 128.652C206.755 128.807 206.631 128.946 206.571 129.096C206.546 129.156 206.492 129.202 206.427 129.213C206.256 129.248 206.082 129.322 205.944 129.47C205.759 129.672 205.688 129.965 205.765 130.217C205.91 130.697 206.491 130.864 206.94 130.567C207.054 130.497 207.142 130.405 207.203 130.3C207.24 130.238 207.305 130.198 207.376 130.19C207.545 130.17 207.749 130.099 207.963 129.929C208.395 129.602 208.763 129.031 208.808 128.623C208.828 128.668 208.867 128.716 208.931 128.76C209.067 128.855 209.254 128.892 209.308 128.816C209.363 128.742 209.264 128.589 209.128 128.498C209.116 128.492 209.108 128.488 209.097 128.483L209.152 128.438C209.38 128.221 209.42 127.905 209.24 127.733C209.061 127.561 208.74 127.589 208.524 127.795Z" fill="black"/>
<path d="M211.423 124.031L211.4 124.092C211.391 124.084 211.384 124.077 211.374 124.069C211.241 123.971 211.063 123.926 211.015 123.991C210.969 124.055 211.063 124.209 211.19 124.309C211.25 124.356 211.307 124.381 211.357 124.389C210.969 124.53 210.525 124.927 210.243 125.31C210.104 125.507 210.04 125.682 210.02 125.837C210.014 125.901 209.975 125.959 209.916 125.987C209.76 126.064 209.624 126.191 209.53 126.368C209.406 126.61 209.426 126.915 209.573 127.134C209.854 127.554 210.453 127.548 210.803 127.144C210.89 127.045 210.944 126.926 210.976 126.81C210.995 126.742 211.046 126.684 211.113 126.657C211.277 126.594 211.439 126.457 211.599 126.23C211.924 125.788 212.09 125.106 211.988 124.705C212.023 124.741 212.076 124.773 212.151 124.792C212.313 124.834 212.505 124.801 212.528 124.708C212.554 124.616 212.406 124.507 212.244 124.472C212.231 124.471 212.222 124.47 212.21 124.469L212.246 124.407C212.388 124.119 212.292 123.804 212.057 123.714C211.825 123.625 211.551 123.772 211.423 124.031Z" fill="black"/>
<path d="M212.504 119.428L212.505 119.495C212.494 119.491 212.485 119.487 212.473 119.482C212.314 119.436 212.131 119.457 212.106 119.538C212.083 119.619 212.227 119.733 212.385 119.781C212.459 119.803 212.522 119.805 212.571 119.793C212.267 120.07 212.014 120.638 211.928 121.109C211.891 121.352 211.903 121.537 211.957 121.685C211.98 121.745 211.971 121.814 211.931 121.865C211.827 122.002 211.749 122.168 211.75 122.367C211.754 122.636 211.883 122.894 212.118 123.038C212.542 123.307 213.106 123.057 213.237 122.533C213.273 122.404 213.277 122.276 213.25 122.157C213.236 122.088 213.256 122.014 213.304 121.962C213.42 121.833 213.513 121.644 213.555 121.376C213.651 120.846 213.526 120.187 213.276 119.856C213.323 119.877 213.384 119.887 213.461 119.877C213.625 119.858 213.789 119.763 213.782 119.673C213.774 119.582 213.596 119.533 213.432 119.555C213.42 119.559 213.411 119.561 213.399 119.564C213.403 119.541 213.408 119.519 213.409 119.496C213.43 119.188 213.244 118.926 212.993 118.913C212.743 118.899 212.524 119.13 212.504 119.428Z" fill="black"/>
<path d="M212.108 114.653C212.111 114.677 212.118 114.699 212.124 114.721C212.111 114.719 212.102 114.717 212.088 114.715C211.923 114.704 211.75 114.765 211.747 114.855C211.745 114.944 211.915 115.027 212.079 115.036C212.157 115.04 212.217 115.027 212.262 115.003C212.036 115.35 211.952 115.994 212.034 116.488C212.075 116.739 212.153 116.915 212.258 117.039C212.301 117.09 212.316 117.158 212.295 117.22C212.24 117.384 212.239 117.571 212.3 117.74C212.346 117.869 212.415 117.924 212.509 118.032C212.6 118.132 212.717 118.208 212.848 118.245C213.092 118.314 213.327 118.256 213.505 118.115C213.595 118.053 213.666 117.943 213.712 117.804C213.754 117.68 213.774 117.538 213.758 117.406C213.744 117.27 213.7 117.149 213.636 117.048C213.599 116.988 213.594 116.911 213.62 116.848C213.684 116.692 213.704 116.49 213.662 116.231C213.578 115.722 213.284 115.151 212.962 114.895C213.012 114.903 213.074 114.898 213.146 114.871C213.301 114.813 213.438 114.688 213.409 114.608C213.38 114.527 213.195 114.519 213.041 114.576C213.029 114.582 213.021 114.585 213.01 114.591L213.006 114.524C212.962 114.23 212.734 114.019 212.484 114.043C212.235 114.067 212.061 114.346 212.108 114.653Z" fill="black"/>
<path d="M191.148 124.076C191.142 124.094 191.14 124.113 191.137 124.131C191.126 124.124 191.119 124.119 191.108 124.112C190.962 124.032 190.789 124 190.748 124.052C190.706 124.103 190.815 124.234 190.95 124.326C191.014 124.368 191.071 124.391 191.121 124.397C190.776 124.537 190.332 124.837 190.069 125.17C189.924 125.336 189.846 125.489 189.826 125.639C189.818 125.7 189.779 125.752 189.721 125.772C189.558 125.82 189.415 125.921 189.316 126.082C189.187 126.305 189.167 126.591 189.295 126.826C189.527 127.264 190.117 127.355 190.487 126.993C190.579 126.906 190.647 126.804 190.69 126.698C190.713 126.632 190.766 126.58 190.833 126.56C190.993 126.508 191.17 126.398 191.348 126.192C191.69 125.769 191.913 125.092 191.767 124.682C191.804 124.716 191.859 124.746 191.935 124.761C192.097 124.794 192.289 124.744 192.316 124.647C192.339 124.549 192.175 124.45 192.013 124.432H191.979L192.007 124.366C192.118 124.051 191.962 123.755 191.711 123.717C191.466 123.681 191.232 123.845 191.148 124.076Z" fill="black"/>
<path d="M190.832 119.653L190.842 119.719C190.83 119.716 190.821 119.714 190.808 119.71C190.644 119.687 190.465 119.732 190.455 119.818C190.442 119.905 190.607 119.996 190.77 120.017C190.847 120.026 190.909 120.018 190.955 119.999C190.692 120.292 190.581 120.984 190.69 121.472C190.743 121.722 190.828 121.88 190.939 121.993C190.985 122.039 191.004 122.103 190.985 122.161C190.937 122.318 190.942 122.488 191.01 122.647C191.11 122.865 191.32 123.031 191.593 123.094C191.838 123.149 192.075 123.091 192.236 122.931C192.405 122.77 192.491 122.516 192.452 122.255C192.433 122.125 192.381 122.014 192.314 121.917C192.275 121.861 192.266 121.788 192.288 121.728C192.344 121.578 192.355 121.381 192.307 121.153C192.208 120.699 191.958 120.229 191.662 119.945C191.711 119.956 191.773 119.955 191.848 119.935C192.006 119.891 192.151 119.784 192.131 119.709C192.111 119.632 191.928 119.611 191.768 119.652C191.757 119.656 191.748 119.66 191.737 119.664L191.739 119.601C191.719 119.322 191.514 119.102 191.263 119.107C191.013 119.112 190.812 119.358 190.832 119.653Z" fill="black"/>
<path d="M191.529 114.888L191.507 114.953C191.498 114.946 191.491 114.939 191.481 114.93C191.345 114.837 191.165 114.8 191.114 114.879C191.064 114.957 191.165 115.114 191.304 115.201C191.369 115.242 191.428 115.259 191.479 115.261C191.118 115.445 190.721 116.01 190.633 116.532C190.574 116.794 190.609 116.998 190.668 117.15C190.694 117.212 190.689 117.285 190.656 117.343C190.565 117.498 190.513 117.695 190.554 117.903C190.606 118.186 190.814 118.411 191.081 118.476C191.572 118.592 192.011 118.241 192.046 117.809C192.057 117.699 192.039 117.593 191.999 117.494C191.975 117.436 191.989 117.373 192.032 117.327C192.139 117.216 192.202 117.056 192.252 116.84C192.324 116.41 192.309 115.865 192.143 115.504C192.182 115.535 192.24 115.559 192.315 115.572C192.478 115.599 192.658 115.573 192.67 115.5C192.684 115.428 192.529 115.33 192.368 115.296C192.355 115.295 192.347 115.294 192.335 115.293C192.344 115.275 192.355 115.258 192.364 115.239C192.465 114.991 192.399 114.71 192.173 114.593C191.956 114.479 191.647 114.603 191.529 114.888Z" fill="black"/>
<path d="M194.701 114.279L194.666 114.338C194.659 114.329 194.653 114.321 194.645 114.31C194.532 114.192 194.363 114.119 194.297 114.186C194.231 114.252 194.298 114.426 194.415 114.539C194.47 114.592 194.525 114.621 194.574 114.633C194.182 114.74 193.676 115.214 193.48 115.707C193.367 115.951 193.358 116.157 193.385 116.319C193.397 116.385 193.377 116.455 193.332 116.505C193.211 116.639 193.119 116.822 193.116 117.033C193.107 117.321 193.263 117.583 193.511 117.7C193.967 117.912 194.47 117.656 194.595 117.241C194.629 117.136 194.634 117.028 194.615 116.924C194.603 116.862 194.631 116.803 194.683 116.767C194.811 116.679 194.906 116.536 194.999 116.335C195.16 115.928 195.26 115.392 195.172 115.006C195.205 115.043 195.256 115.079 195.327 115.106C195.481 115.166 195.662 115.176 195.69 115.108C195.718 115.04 195.587 114.913 195.437 114.847C195.425 114.843 195.416 114.841 195.405 114.837C195.418 114.822 195.432 114.807 195.444 114.79C195.595 114.567 195.59 114.28 195.393 114.119C195.205 113.964 194.876 114.023 194.701 114.279Z" fill="black"/>
<path d="M194.692 111.184C194.673 111.198 194.657 111.214 194.641 111.229C194.637 111.218 194.634 111.208 194.63 111.196C194.561 111.048 194.426 110.925 194.345 110.966C194.264 111.007 194.272 111.193 194.344 111.338C194.378 111.406 194.419 111.452 194.462 111.479C194.047 111.438 193.439 111.71 193.061 112.07C192.872 112.263 192.771 112.444 192.734 112.605C192.717 112.669 192.677 112.733 192.614 112.763C192.449 112.846 192.29 112.983 192.207 113.185C192.095 113.463 192.139 113.761 192.337 113.954C192.698 114.298 193.255 114.23 193.512 113.901C193.581 113.818 193.624 113.722 193.645 113.62C193.658 113.561 193.7 113.512 193.764 113.499C193.915 113.466 194.065 113.381 194.22 113.221C194.548 112.911 194.834 112.41 194.896 112.028C194.914 112.074 194.95 112.124 195.007 112.174C195.132 112.281 195.3 112.345 195.351 112.287C195.402 112.228 195.32 112.066 195.2 111.957C195.189 111.949 195.182 111.944 195.173 111.937L195.226 111.904C195.456 111.749 195.532 111.456 195.396 111.248C195.261 111.041 194.945 111.012 194.692 111.184Z" fill="black"/>
<path d="M199.251 109.368L199.183 109.383C199.186 109.371 199.187 109.362 199.19 109.349C199.204 109.187 199.146 109.015 199.053 109.013C198.96 109.011 198.873 109.177 198.866 109.339C198.862 109.415 198.877 109.474 198.9 109.518C198.555 109.291 197.868 109.247 197.359 109.42C197.099 109.502 196.929 109.622 196.827 109.756C196.784 109.81 196.718 109.842 196.648 109.84C196.461 109.833 196.267 109.902 196.097 110.033C195.87 110.221 195.778 110.518 195.854 110.77C196.006 111.247 196.531 111.435 196.926 111.256C197.028 111.211 197.109 111.137 197.178 111.06C197.218 111.014 197.281 110.994 197.342 111.007C197.491 111.036 197.665 111.023 197.88 110.955C198.299 110.812 198.777 110.513 199.015 110.204C199.009 110.253 199.015 110.313 199.042 110.384C199.1 110.536 199.213 110.673 199.284 110.646C199.355 110.619 199.364 110.438 199.313 110.285C199.308 110.274 199.304 110.266 199.3 110.255L199.361 110.251C199.634 110.228 199.847 110.006 199.836 109.764C199.824 109.515 199.562 109.34 199.251 109.368Z" fill="black"/>
<path d="M194.611 130.962L194.553 131C194.551 130.988 194.549 130.979 194.547 130.965C194.502 130.809 194.387 130.668 194.298 130.698C194.21 130.728 194.189 130.913 194.24 131.067C194.263 131.139 194.298 131.19 194.336 131.224C193.932 131.129 193.272 131.324 192.857 131.661C192.644 131.828 192.527 131.998 192.479 132.159C192.458 132.224 192.408 132.277 192.341 132.299C192.164 132.357 192.007 132.488 191.895 132.669C191.749 132.923 191.769 133.233 191.931 133.443C192.243 133.837 192.802 133.832 193.108 133.529C193.187 133.453 193.236 133.355 193.274 133.259C193.295 133.202 193.347 133.162 193.409 133.153C193.559 133.13 193.717 133.057 193.894 132.92C194.235 132.642 194.576 132.198 194.689 131.826C194.7 131.874 194.728 131.929 194.778 131.986C194.886 132.108 195.042 132.197 195.099 132.148C195.156 132.098 195.099 131.926 194.997 131.8C194.988 131.791 194.982 131.785 194.973 131.777L195.03 131.752C195.277 131.636 195.397 131.355 195.3 131.132C195.2 130.903 194.892 130.829 194.611 130.962Z" fill="black"/>
<path d="M204.004 109.684L203.944 109.693C203.947 109.681 203.95 109.672 203.953 109.66C203.978 109.5 203.942 109.325 203.871 109.307C203.801 109.29 203.712 109.441 203.678 109.599C203.662 109.673 203.664 109.734 203.677 109.781C203.401 109.508 202.914 109.267 202.444 109.178C202.206 109.135 202.008 109.151 201.853 109.21C201.791 109.233 201.718 109.227 201.658 109.191C201.502 109.089 201.298 109.039 201.08 109.072C200.782 109.107 200.545 109.326 200.479 109.579C200.362 110.065 200.711 110.488 201.134 110.536C201.243 110.544 201.349 110.537 201.449 110.501C201.507 110.48 201.573 110.495 201.621 110.54C201.735 110.644 201.901 110.724 202.153 110.77C202.647 110.866 203.347 110.75 203.66 110.476C203.643 110.523 203.637 110.584 203.652 110.658C203.682 110.817 203.797 110.97 203.892 110.955C203.988 110.941 204.019 110.76 203.979 110.604C203.974 110.592 203.971 110.583 203.967 110.572C203.99 110.574 204.013 110.575 204.037 110.574C204.359 110.558 204.588 110.331 204.55 110.083C204.513 109.845 204.269 109.671 204.004 109.684Z" fill="black"/>
<path d="M208.078 108.035L208.03 108.076C208.026 108.064 208.023 108.056 208.018 108.043C207.949 107.897 207.816 107.772 207.743 107.803C207.67 107.834 207.681 108.012 207.747 108.16C207.778 108.23 207.817 108.278 207.857 108.308C207.464 108.253 206.892 108.388 206.497 108.589C206.296 108.693 206.171 108.817 206.09 108.937C206.057 108.987 206 109.018 205.94 109.013C205.777 109.004 205.615 109.042 205.464 109.138C205.263 109.282 205.132 109.53 205.134 109.795C205.129 110.294 205.636 110.628 206.153 110.443C206.281 110.401 206.381 110.32 206.465 110.235C206.513 110.184 206.585 110.159 206.655 110.166C206.83 110.19 207.03 110.142 207.27 110.018C207.746 109.775 208.179 109.276 208.26 108.879C208.275 108.927 208.307 108.979 208.363 109.031C208.482 109.143 208.658 109.206 208.721 109.144C208.784 109.081 208.705 108.917 208.583 108.808C208.573 108.8 208.565 108.795 208.555 108.788L208.614 108.755C208.866 108.586 208.921 108.269 208.769 108.079C208.611 107.882 208.313 107.88 208.078 108.035Z" fill="black"/>
<path d="M188.582 121.998L188.601 122.06C188.589 122.059 188.579 122.058 188.566 122.057C188.401 122.061 188.232 122.133 188.234 122.219C188.231 122.249 188.259 122.227 188.319 122.233C188.379 122.233 188.457 122.265 188.538 122.268C188.615 122.275 188.677 122.269 188.724 122.254C188.464 122.497 188.225 122.992 188.151 123.424C188.113 123.642 188.13 123.812 188.187 123.949C188.21 124.006 188.202 124.069 188.161 124.113C188.054 124.233 187.985 124.382 187.984 124.559C187.98 124.793 188.114 125.03 188.333 125.191C188.73 125.506 189.315 125.292 189.46 124.783C189.498 124.659 189.497 124.537 189.476 124.424C189.463 124.357 189.484 124.288 189.53 124.239C189.645 124.12 189.734 123.941 189.778 123.687C189.864 123.187 189.733 122.538 189.431 122.213C189.48 122.227 189.543 122.229 189.617 122.207C189.695 122.179 189.777 122.145 189.824 122.07C189.872 122 189.889 121.89 189.871 121.841C189.839 121.771 189.655 121.78 189.504 121.845C189.493 121.851 189.485 121.856 189.475 121.862L189.467 121.801C189.409 121.533 189.162 121.354 188.916 121.399C188.67 121.444 188.52 121.713 188.582 121.998Z" fill="black"/>
<path d="M188.265 117.319L188.263 117.385C188.252 117.38 188.243 117.376 188.231 117.371C188.074 117.322 187.89 117.337 187.865 117.421C187.839 117.505 187.983 117.622 188.141 117.666C188.215 117.687 188.277 117.688 188.327 117.676C188.029 117.943 187.806 118.549 187.824 119.052C187.823 119.307 187.898 119.492 187.989 119.624C188.028 119.678 188.039 119.747 188.014 119.809C187.944 119.974 187.945 120.166 188.018 120.358C188.116 120.619 188.36 120.8 188.634 120.819C189.136 120.851 189.513 120.438 189.467 120.005C189.452 119.896 189.416 119.794 189.362 119.705C189.33 119.653 189.33 119.588 189.362 119.534C189.443 119.404 189.47 119.234 189.473 119.01C189.457 118.568 189.291 118.029 189.033 117.73C189.079 117.748 189.141 117.757 189.218 117.748C189.382 117.73 189.546 117.653 189.538 117.578C189.53 117.503 189.353 117.453 189.189 117.467C189.176 117.47 189.167 117.471 189.155 117.473L189.167 117.414C189.19 117.145 189.027 116.898 188.781 116.859C188.532 116.82 188.29 117.025 188.265 117.319Z" fill="black"/>
<path d="M189.76 112.836L189.731 112.896C189.723 112.887 189.717 112.88 189.708 112.87C189.585 112.761 189.412 112.7 189.354 112.767C189.295 112.834 189.377 113 189.502 113.105C189.561 113.154 189.617 113.18 189.667 113.189C189.465 113.248 189.262 113.398 189.076 113.593C188.884 113.784 188.726 114.026 188.637 114.265C188.54 114.506 188.517 114.702 188.56 114.863C188.576 114.928 188.56 114.998 188.515 115.047C188.397 115.18 188.3 115.357 188.307 115.567C188.308 115.852 188.47 116.108 188.715 116.218C189.175 116.418 189.681 116.165 189.788 115.754C189.82 115.651 189.824 115.546 189.805 115.444C189.794 115.384 189.818 115.324 189.867 115.287C189.98 115.194 190.09 115.059 190.173 114.854C190.249 114.649 190.3 114.41 190.329 114.178C190.351 113.943 190.334 113.706 190.288 113.524C190.322 113.56 190.375 113.592 190.448 113.615C190.606 113.666 190.786 113.662 190.809 113.591C190.832 113.52 190.692 113.403 190.538 113.348C190.525 113.346 190.516 113.343 190.505 113.341C190.517 113.324 190.53 113.309 190.54 113.291C190.669 113.055 190.639 112.772 190.428 112.632C190.224 112.496 189.904 112.574 189.76 112.836Z" fill="black"/>
<path d="M212.719 109.168L212.712 109.234C212.701 109.228 212.693 109.223 212.681 109.217C212.529 109.153 212.345 109.15 212.312 109.232C212.279 109.315 212.411 109.446 212.564 109.505C212.636 109.532 212.698 109.539 212.748 109.532C212.576 109.651 212.434 109.858 212.322 110.101C212.204 110.343 212.134 110.622 212.129 110.877C212.116 111.136 212.16 111.329 212.254 111.467C212.29 111.524 212.299 111.595 212.272 111.656C212.204 111.819 212.171 112.017 212.247 112.214C212.342 112.483 212.58 112.674 212.848 112.7C213.35 112.743 213.745 112.342 213.709 111.92C213.706 111.812 213.675 111.712 213.624 111.621C213.593 111.568 213.596 111.504 213.63 111.453C213.707 111.329 213.766 111.166 213.777 110.946C213.78 110.728 213.75 110.486 213.701 110.257C213.644 110.028 213.55 109.809 213.446 109.652C213.49 109.674 213.551 109.688 213.628 109.687C213.793 109.685 213.963 109.624 213.961 109.549C213.96 109.475 213.789 109.409 213.624 109.406C213.611 109.407 213.603 109.408 213.591 109.409C213.597 109.39 213.604 109.372 213.608 109.351C213.652 109.087 213.53 108.828 213.284 108.762C213.046 108.699 212.77 108.875 212.719 109.168Z" fill="black"/>
<path d="M193.021 109.38L192.971 109.423C192.967 109.411 192.964 109.403 192.96 109.39C192.89 109.243 192.755 109.12 192.675 109.158C192.595 109.196 192.604 109.378 192.676 109.522C192.711 109.59 192.752 109.636 192.794 109.664C192.395 109.631 191.786 109.872 191.42 110.226C191.226 110.395 191.135 110.578 191.098 110.735C191.084 110.8 191.039 110.856 190.976 110.881C190.808 110.948 190.648 111.069 190.562 111.263C190.439 111.521 190.472 111.82 190.646 112.023C190.973 112.395 191.546 112.383 191.815 112.052C191.891 111.973 191.942 111.88 191.97 111.781C191.986 111.722 192.034 111.679 192.095 111.665C192.245 111.634 192.388 111.544 192.561 111.394C192.881 111.084 193.18 110.604 193.229 110.212C193.247 110.258 193.282 110.308 193.34 110.358C193.464 110.465 193.634 110.532 193.685 110.476C193.737 110.419 193.655 110.258 193.533 110.148C193.523 110.141 193.516 110.135 193.506 110.128L193.56 110.097C193.78 109.934 193.851 109.644 193.715 109.442C193.574 109.234 193.262 109.203 193.021 109.38Z" fill="black"/>
<path d="M197.34 107.335L197.277 107.359C197.277 107.346 197.278 107.337 197.278 107.324C197.269 107.161 197.189 106.999 197.1 107.008C197.011 107.016 196.952 107.191 196.967 107.352C196.973 107.427 196.995 107.484 197.023 107.526C196.66 107.34 196.002 107.358 195.529 107.562C195.287 107.658 195.131 107.782 195.043 107.922C195.006 107.978 194.945 108.014 194.877 108.015C194.696 108.019 194.505 108.079 194.354 108.225C194.145 108.417 194.064 108.707 194.149 108.958C194.312 109.423 194.85 109.619 195.23 109.407C195.33 109.358 195.412 109.289 195.475 109.205C195.512 109.155 195.573 109.131 195.635 109.14C195.784 109.158 195.959 109.136 196.17 109.052C196.579 108.875 197.03 108.526 197.225 108.192C197.224 108.241 197.239 108.3 197.274 108.368C197.35 108.511 197.481 108.632 197.549 108.596C197.617 108.56 197.601 108.38 197.529 108.235C197.523 108.225 197.518 108.217 197.512 108.207L197.572 108.196C197.838 108.126 198.016 107.891 197.963 107.647C197.912 107.409 197.63 107.259 197.34 107.335Z" fill="black"/>
<path d="M202.137 107.065L202.07 107.061C202.076 107.05 202.08 107.042 202.086 107.03C202.143 106.878 202.136 106.697 202.05 106.669C201.965 106.642 201.839 106.778 201.787 106.931C201.762 107.002 201.759 107.064 201.769 107.113C201.509 106.803 200.891 106.57 200.371 106.573C200.109 106.57 199.916 106.638 199.779 106.725C199.723 106.762 199.651 106.771 199.588 106.746C199.419 106.682 199.219 106.681 199.021 106.75C198.75 106.839 198.567 107.099 198.55 107.36C198.526 107.859 198.946 108.208 199.379 108.174C199.489 108.164 199.59 108.122 199.681 108.069C199.733 108.039 199.799 108.041 199.853 108.073C199.983 108.154 200.153 108.188 200.379 108.19C200.822 108.188 201.371 108.037 201.684 107.803C201.664 107.847 201.654 107.908 201.659 107.983C201.67 108.145 201.741 108.308 201.817 108.302C201.893 108.296 201.951 108.125 201.945 107.964C201.943 107.951 201.942 107.942 201.94 107.931C201.96 107.936 201.979 107.942 202 107.945C202.271 107.978 202.534 107.832 202.583 107.589C202.631 107.35 202.438 107.102 202.137 107.065Z" fill="black"/>
<path d="M206.41 106.691L206.352 106.718C206.351 106.706 206.351 106.697 206.35 106.684C206.321 106.525 206.225 106.371 206.144 106.385C206.062 106.398 206.026 106.575 206.054 106.734C206.067 106.808 206.093 106.864 206.124 106.903C205.757 106.748 205.143 106.779 204.724 106.913C204.621 106.946 204.534 106.984 204.484 107.02C204.444 107.043 204.458 107.051 204.452 107.071C204.449 107.09 204.403 107.111 204.384 107.134C204.343 107.173 204.287 107.18 204.24 107.153C204.113 107.08 203.975 107.051 203.807 107.081C203.58 107.122 203.34 107.292 203.231 107.537C203.03 107.985 203.296 108.498 203.871 108.545C204.011 108.556 204.15 108.53 204.268 108.48C204.337 108.448 204.419 108.452 204.487 108.48C204.534 108.496 204.562 108.516 204.638 108.522C204.709 108.528 204.808 108.525 204.857 108.522C204.987 108.515 205.104 108.492 205.233 108.452C205.73 108.292 206.205 107.908 206.378 107.551C206.381 107.601 206.4 107.659 206.441 107.723C206.529 107.86 206.678 107.966 206.749 107.923C206.82 107.879 206.785 107.701 206.697 107.565C206.689 107.555 206.683 107.548 206.676 107.539L206.738 107.521C207.007 107.419 207.15 107.151 207.06 106.922C206.971 106.692 206.679 106.589 206.41 106.691Z" fill="black"/>
<path d="M185.677 118.667L185.692 118.737C185.679 118.735 185.67 118.732 185.657 118.73C185.491 118.712 185.316 118.768 185.312 118.863C185.308 118.959 185.476 119.052 185.641 119.063C185.718 119.069 185.779 119.056 185.824 119.033C185.586 119.383 185.555 120.1 185.657 120.556C185.71 120.802 185.796 120.974 185.906 121.094C185.951 121.143 185.97 121.212 185.952 121.275C185.904 121.444 185.911 121.632 185.988 121.816C186.094 122.065 186.327 122.246 186.596 122.29C187.097 122.384 187.51 121.919 187.421 121.392C187.401 121.262 187.352 121.144 187.284 121.045C187.244 120.987 187.235 120.912 187.258 120.847C187.315 120.687 187.327 120.482 187.271 120.221C187.15 119.68 186.837 119.19 186.525 118.931C186.574 118.94 186.637 118.934 186.709 118.909C186.865 118.853 187.006 118.737 186.98 118.661C186.954 118.585 186.77 118.572 186.613 118.622C186.602 118.627 186.593 118.631 186.582 118.635L186.58 118.571C186.539 118.285 186.341 118.058 186.085 118.068C185.84 118.078 185.633 118.348 185.677 118.667Z" fill="black"/>
<path d="M186.434 113.623L186.413 113.691C186.403 113.683 186.396 113.677 186.386 113.668C186.249 113.575 186.068 113.542 186.018 113.624C185.969 113.705 186.073 113.865 186.211 113.953C186.276 113.994 186.336 114.011 186.387 114.012C186.007 114.206 185.616 114.791 185.498 115.334C185.426 115.605 185.457 115.824 185.512 115.986C185.536 116.052 185.53 116.129 185.491 116.19C185.382 116.351 185.349 116.563 185.375 116.786C185.409 117.089 185.637 117.332 185.896 117.4C186.392 117.521 186.816 117.154 186.87 116.704C186.881 116.589 186.859 116.476 186.831 116.373C186.812 116.312 186.828 116.244 186.871 116.196C186.981 116.079 187.046 115.913 187.109 115.683C187.208 115.227 187.196 114.628 187.051 114.255C187.09 114.286 187.147 114.31 187.224 114.322C187.387 114.346 187.567 114.31 187.581 114.23C187.595 114.15 187.44 114.052 187.278 114.022C187.265 114.022 187.256 114.021 187.244 114.02L187.273 113.961C187.385 113.692 187.312 113.395 187.083 113.288C186.86 113.182 186.557 113.327 186.434 113.623Z" fill="black"/>
<path d="M189.288 109.402L189.243 109.456C189.237 109.446 189.232 109.437 189.226 109.425C189.133 109.292 188.975 109.196 188.899 109.251C188.821 109.304 188.865 109.493 188.961 109.624C189.006 109.686 189.055 109.724 189.102 109.743C188.681 109.789 188.104 110.167 187.773 110.6C187.61 110.822 187.535 111.02 187.518 111.188C187.511 111.257 187.472 111.323 187.411 111.36C187.252 111.463 187.12 111.629 187.048 111.837C186.943 112.119 187.033 112.435 187.231 112.612C187.616 112.943 188.166 112.805 188.425 112.415C188.489 112.314 188.524 112.203 188.538 112.093C188.549 112.028 188.594 111.974 188.655 111.948C188.806 111.885 188.951 111.764 189.096 111.566C189.391 111.182 189.626 110.613 189.629 110.208C189.654 110.251 189.697 110.294 189.764 110.333C189.908 110.414 190.086 110.438 190.133 110.37C190.179 110.3 190.071 110.155 189.93 110.07C189.918 110.065 189.91 110.061 189.899 110.056L189.95 110.012C190.159 109.799 190.186 109.484 190.01 109.309C189.834 109.134 189.511 109.176 189.288 109.402Z" fill="black"/>
<path d="M186.042 123.939L186.053 124.008C186.041 124.005 186.032 124.003 186.019 124C185.855 123.979 185.677 124.031 185.668 124.124C185.657 124.216 185.83 124.309 185.994 124.326C186.071 124.334 186.132 124.323 186.178 124.301C185.933 124.641 185.838 125.314 185.947 125.845C186.008 126.112 186.109 126.299 186.226 126.423C186.274 126.474 186.298 126.546 186.285 126.616C186.259 126.8 186.297 127.007 186.407 127.199C186.552 127.463 186.853 127.607 187.12 127.579C187.628 127.518 187.888 127.023 187.763 126.574C187.729 126.46 187.668 126.361 187.593 126.277C187.551 126.226 187.539 126.157 187.56 126.094C187.612 125.942 187.617 125.756 187.563 125.518C187.466 125.047 187.19 124.496 186.882 124.225C186.932 124.235 186.994 124.232 187.067 124.209C187.225 124.158 187.362 124.044 187.341 123.963C187.319 123.883 187.136 123.865 186.977 123.912C186.966 123.917 186.957 123.921 186.946 123.926L186.946 123.859C186.923 123.564 186.701 123.335 186.451 123.348C186.201 123.361 186.017 123.625 186.042 123.939Z" fill="black"/>
<path d="M193.29 106.222L193.229 106.26C193.227 106.248 193.225 106.239 193.223 106.225C193.176 106.07 193.056 105.932 192.964 105.962C192.872 105.995 192.853 106.186 192.905 106.34C192.929 106.412 192.964 106.463 193.003 106.495C192.587 106.418 191.905 106.621 191.474 106.957C191.249 107.121 191.122 107.289 191.063 107.449C191.038 107.514 190.983 107.567 190.915 107.586C190.73 107.636 190.558 107.753 190.432 107.933C190.258 108.175 190.237 108.484 190.373 108.719C190.626 109.149 191.212 109.193 191.577 108.876C191.667 108.793 191.74 108.703 191.787 108.6C191.815 108.54 191.873 108.499 191.94 108.489C192.1 108.465 192.276 108.388 192.475 108.243C192.859 107.943 193.244 107.479 193.365 107.092C193.376 107.141 193.405 107.195 193.456 107.251C193.568 107.371 193.73 107.449 193.792 107.396C193.855 107.346 193.797 107.175 193.69 107.051C193.681 107.042 193.674 107.036 193.665 107.028L193.726 107.003C193.986 106.866 194.113 106.577 194.009 106.359C193.9 106.132 193.578 106.07 193.29 106.222Z" fill="black"/>
<path d="M198.29 104.889L198.219 104.9C198.223 104.888 198.225 104.879 198.229 104.866C198.254 104.705 198.205 104.531 198.111 104.522C198.017 104.513 197.917 104.672 197.896 104.833C197.886 104.908 197.896 104.968 197.917 105.014C197.578 104.764 196.887 104.657 196.338 104.764C196.061 104.812 195.868 104.921 195.739 105.034C195.687 105.082 195.613 105.105 195.541 105.093C195.35 105.071 195.136 105.11 194.938 105.221C194.671 105.381 194.526 105.669 194.563 105.931C194.642 106.427 195.153 106.67 195.598 106.542C195.712 106.508 195.811 106.449 195.894 106.374C195.944 106.333 196.015 106.321 196.078 106.342C196.232 106.396 196.415 106.392 196.658 106.351C197.13 106.259 197.694 106 197.978 105.706C197.966 105.755 197.968 105.816 197.99 105.888C198.038 106.044 198.152 106.188 198.234 106.166C198.315 106.144 198.338 105.964 198.294 105.808C198.289 105.796 198.285 105.788 198.281 105.777L198.348 105.778C198.648 105.753 198.889 105.557 198.882 105.308C198.875 105.066 198.611 104.864 198.29 104.889Z" fill="black"/>
<path d="M194.484 103.107L194.418 103.134C194.418 103.122 194.418 103.112 194.419 103.099C194.406 102.937 194.317 102.778 194.224 102.79C194.13 102.802 194.07 102.981 194.087 103.141C194.095 103.217 194.119 103.274 194.15 103.314C193.761 103.147 193.064 103.197 192.555 103.425C192.296 103.534 192.134 103.684 192.035 103.823C191.995 103.881 191.929 103.921 191.856 103.926C191.665 103.947 191.466 104.032 191.3 104.185C191.077 104.401 191.004 104.714 191.1 104.96C191.294 105.425 191.847 105.547 192.251 105.322C192.354 105.263 192.436 105.184 192.5 105.091C192.539 105.04 192.605 105.014 192.671 105.02C192.833 105.037 193.011 104.992 193.238 104.897C193.676 104.702 194.164 104.322 194.372 103.973C194.371 104.023 194.387 104.082 194.426 104.148C194.509 104.288 194.653 104.402 194.728 104.363C194.803 104.323 194.782 104.143 194.703 104.001C194.695 103.991 194.69 103.984 194.683 103.974L194.749 103.959C195.035 103.868 195.224 103.623 195.158 103.382C195.095 103.148 194.79 103.01 194.484 103.107Z" fill="black"/>
<path d="M203.365 105.073L203.296 105.074C203.301 105.063 203.304 105.054 203.309 105.042C203.353 104.885 203.328 104.706 203.243 104.685C203.159 104.664 203.044 104.809 202.998 104.965C202.978 105.037 202.977 105.099 202.99 105.147C202.699 104.855 202.091 104.62 201.571 104.58C201.307 104.56 201.105 104.595 200.953 104.669C200.891 104.699 200.816 104.7 200.753 104.668C200.588 104.581 200.384 104.544 200.152 104.586C199.857 104.651 199.624 104.863 199.56 105.122C199.436 105.608 199.847 106.03 200.314 106.046C200.435 106.052 200.553 106.032 200.662 105.991C200.726 105.967 200.799 105.976 200.855 106.015C200.991 106.109 201.181 106.173 201.443 106.193C201.96 106.232 202.611 106.093 202.943 105.84C202.923 105.886 202.915 105.947 202.926 106.022C202.95 106.183 203.049 106.341 203.14 106.33C203.232 106.32 203.278 106.145 203.252 105.984C203.249 105.972 203.246 105.963 203.243 105.952L203.313 105.962C203.629 105.979 203.896 105.788 203.902 105.543C203.908 105.297 203.67 105.09 203.365 105.073Z" fill="black"/>
<path d="M173.434 125.274C173.407 125.366 173.32 125.426 173.223 125.438C171.864 125.594 171.071 125.773 170.465 126.09C169.871 126.376 169.522 126.745 169.527 126.86C169.533 126.974 169.929 127.328 170.71 127.387C170.905 127.408 171.118 127.378 171.351 127.344C171.584 127.314 171.831 127.241 172.082 127.119C172.337 127.01 172.596 126.86 172.84 126.647C173.091 126.453 173.321 126.193 173.522 125.891C173.579 125.806 173.681 125.76 173.784 125.761C174.149 125.757 174.544 125.708 174.695 125.592C174.84 125.464 174.736 125.307 174.203 125.062C174.003 124.501 173.837 124.403 173.733 124.511C173.617 124.613 173.527 124.925 173.434 125.274Z" fill="black"/>
<path d="M176.409 120.786C176.452 120.874 176.439 120.978 176.379 121.053C175.466 122.076 175.057 122.782 174.825 123.401C174.602 124.002 174.615 124.515 174.698 124.595C174.781 124.676 175.311 124.657 175.919 124.165C176.523 123.697 177.13 122.623 176.91 121.192C176.891 121.091 176.924 120.988 177 120.923C177.584 120.442 177.999 119.809 176.851 120.129C175.812 119.547 176.116 120.156 176.409 120.786Z" fill="black"/>
<path d="M176.14 115.343C176.221 115.395 176.262 115.492 176.249 115.587C176.051 116.924 176.093 117.767 176.302 118.42C176.477 119.055 176.82 119.449 176.938 119.46C177.053 119.471 177.444 119.135 177.645 118.405C177.823 117.699 177.751 116.516 176.772 115.422C176.704 115.347 176.68 115.24 176.712 115.143C176.913 114.438 176.939 113.654 176.141 114.558C174.973 114.631 175.522 114.982 176.14 115.343Z" fill="black"/>
<path d="M172.608 111.286C172.703 111.268 172.808 111.297 172.86 111.382C173.63 112.498 174.151 113.097 174.713 113.48C174.965 113.683 175.223 113.809 175.43 113.884C175.624 113.967 175.775 113.989 175.827 113.96C175.877 113.932 175.938 113.795 175.958 113.568C175.965 113.349 175.921 113.043 175.782 112.682C175.612 112.343 175.356 111.934 174.906 111.602C174.475 111.258 173.856 110.994 173.13 110.913C173.031 110.895 172.931 110.848 172.886 110.757C172.545 110.082 171.982 109.545 172.061 110.715C171.264 111.589 171.918 111.417 172.608 111.286Z" fill="black"/>
<path d="M167.168 110.665C167.228 110.591 167.328 110.55 167.423 110.576C168.748 110.939 169.593 111.001 170.265 110.925C170.922 110.835 171.373 110.619 171.412 110.493C171.444 110.401 171.191 109.918 170.471 109.622C169.779 109.31 168.549 109.231 167.318 110.047C167.233 110.103 167.124 110.125 167.03 110.085C166.326 109.784 165.544 109.731 166.373 110.576C166.339 111.747 166.725 111.2 167.168 110.665Z" fill="black"/>
<path d="M162.737 113.734C162.729 113.64 162.78 113.549 162.864 113.5C164.056 112.836 164.709 112.37 165.152 111.872C165.578 111.381 165.788 110.94 165.732 110.817C165.708 110.765 165.577 110.697 165.352 110.664C165.126 110.629 164.802 110.628 164.434 110.758C163.705 110.974 162.689 111.752 162.411 113.194C162.393 113.295 162.322 113.379 162.225 113.414C161.526 113.69 160.893 114.165 162.107 114.216C162.893 115.073 162.821 114.429 162.737 113.734Z" fill="black"/>
<path d="M161.423 119C161.359 118.927 161.345 118.822 161.383 118.734C161.954 117.491 162.137 116.666 162.118 115.993C162.116 115.34 161.928 114.874 161.82 114.828C161.714 114.783 161.216 114.981 160.823 115.641C160.45 116.283 160.205 117.44 160.833 118.745C160.879 118.836 160.873 118.944 160.816 119.027C160.598 119.33 160.431 119.668 160.455 119.85C160.472 120.034 160.662 120.043 161.179 119.751C161.755 119.908 161.933 119.834 161.907 119.681C161.874 119.527 161.648 119.27 161.423 119Z" fill="black"/>
<path d="M163.309 124.069C163.213 124.05 163.137 123.976 163.114 123.885C162.83 122.574 162.553 121.804 162.179 121.239C161.808 120.694 161.409 120.393 161.277 120.417C161.179 120.434 160.852 120.869 160.895 121.627C160.913 122.361 161.36 123.516 162.68 124.216C162.774 124.262 162.837 124.352 162.844 124.452C162.859 124.827 162.955 125.195 163.092 125.327C163.228 125.466 163.377 125.352 163.59 124.802C164.134 124.568 164.222 124.396 164.109 124.297C163.99 124.198 163.652 124.149 163.309 124.069Z" fill="black"/>
<path d="M168.119 126.539C168.037 126.588 167.931 126.582 167.849 126.529C166.705 125.778 165.979 125.424 165.321 125.275C164.684 125.123 164.185 125.152 164.103 125.249C164.035 125.327 164.076 125.869 164.642 126.413C165.18 126.941 166.34 127.464 167.773 127.063C167.872 127.035 167.981 127.061 168.056 127.132C168.62 127.608 169.325 127.977 168.841 126.877C169.281 125.815 168.719 126.143 168.119 126.539Z" fill="black"/>
<path d="M173.435 130.493C173.385 130.573 173.292 130.615 173.2 130.603C172.541 130.522 171.995 130.457 171.55 130.526C171.093 130.539 170.722 130.638 170.42 130.773C169.813 131.004 169.473 131.364 169.476 131.487C169.479 131.594 169.847 131.954 170.557 132.084C170.909 132.13 171.346 132.12 171.837 132.004C172.316 131.832 172.865 131.6 173.368 131.117C173.439 131.049 173.54 131.025 173.633 131.056C173.972 131.169 174.336 131.258 174.5 131.199C174.663 131.132 174.62 130.948 174.21 130.541C174.197 129.952 174.08 129.802 173.945 129.872C173.804 129.934 173.618 130.198 173.435 130.493Z" fill="black"/>
<path d="M177.957 127.743C177.946 127.833 177.878 127.909 177.787 127.935C177.462 128.03 177.188 128.137 176.941 128.246C176.682 128.338 176.46 128.441 176.266 128.553C175.892 128.794 175.576 128.994 175.36 129.239C175.144 129.483 174.993 129.713 174.896 129.889C174.803 130.072 174.775 130.217 174.801 130.271C174.825 130.321 174.956 130.391 175.173 130.432C175.393 130.48 175.692 130.482 176.035 130.378C176.377 130.276 176.799 130.124 177.169 129.77C177.359 129.601 177.549 129.402 177.728 129.172C177.893 128.925 178.04 128.637 178.169 128.323C178.205 128.234 178.288 128.172 178.388 128.162C179.1 128.062 179.785 127.794 178.653 127.432C178.091 126.413 178.009 127.057 177.957 127.743Z" fill="black"/>
<path d="M180.748 123.292C180.783 123.381 180.76 123.479 180.695 123.544C180.188 123.988 179.859 124.394 179.601 124.759C179.328 125.115 179.209 125.477 179.102 125.774C178.899 126.371 178.986 126.875 179.08 126.949C179.169 127.019 179.664 126.956 180.227 126.496C180.511 126.27 180.746 125.908 180.961 125.456C181.16 124.998 181.253 124.403 181.21 123.731C181.198 123.635 181.24 123.541 181.322 123.488C181.92 123.1 182.46 122.592 181.259 122.723C180.331 122.036 180.496 122.648 180.748 123.292Z" fill="black"/>
<path d="M181.532 118.086C181.596 118.157 181.611 118.257 181.573 118.341C181.279 118.937 181.09 119.439 181.025 119.883C180.916 120.32 180.914 120.699 180.966 121.022C181.036 121.657 181.297 122.074 181.42 122.104C181.524 122.13 181.978 121.878 182.291 121.239C182.43 120.92 182.537 120.506 182.554 120.013C182.526 119.519 182.425 118.944 182.122 118.334C182.077 118.248 182.082 118.146 182.14 118.069C182.559 117.501 182.883 116.848 181.805 117.375C180.689 117.043 181.065 117.569 181.532 118.086Z" fill="black"/>
<path d="M180.427 112.942C180.513 112.985 180.563 113.073 180.558 113.164C180.508 113.821 180.511 114.351 180.597 114.787C180.649 115.232 180.782 115.587 180.944 115.872C181.214 116.451 181.622 116.752 181.743 116.74C181.855 116.728 182.176 116.342 182.266 115.635C182.283 115.288 182.237 114.863 182.078 114.393C181.885 113.933 181.58 113.423 181.068 112.962C180.994 112.898 180.961 112.801 180.985 112.708C181.076 112.368 181.132 112.009 181.067 111.85C180.991 111.694 180.81 111.747 180.418 112.182C179.827 112.234 179.682 112.359 179.757 112.488C179.824 112.625 180.114 112.785 180.427 112.942Z" fill="black"/>
<path d="M177.309 108.712C177.403 108.716 177.484 108.776 177.518 108.863C178.013 110.068 178.492 110.744 179.014 111.147C179.533 111.538 179.983 111.688 180.102 111.623C180.188 111.577 180.378 111.07 180.126 110.407C179.99 110.085 179.817 109.675 179.428 109.34C179.242 109.167 179.026 108.996 178.778 108.838C178.527 108.682 178.213 108.568 177.887 108.463C177.793 108.434 177.723 108.358 177.706 108.261C177.565 107.561 177.235 106.922 176.948 108.049C175.946 108.674 176.617 108.697 177.309 108.712Z" fill="black"/>
<path d="M172.59 106.293C172.678 106.253 172.78 106.266 172.85 106.325C173.824 107.238 174.587 107.58 175.229 107.728C175.851 107.882 176.364 107.753 176.426 107.665C176.497 107.564 176.393 107.094 175.885 106.577C175.384 106.077 174.38 105.615 173.003 105.807C172.905 105.827 172.806 105.793 172.747 105.718C172.306 105.166 171.747 104.679 171.972 105.841C171.344 106.803 171.954 106.592 172.59 106.293Z" fill="black"/>
<path d="M167.244 105.946C167.31 105.877 167.409 105.853 167.498 105.883C168.129 106.126 168.652 106.248 169.105 106.293C169.558 106.362 169.943 106.331 170.267 106.253C170.905 106.148 171.311 105.846 171.331 105.728C171.35 105.619 171.057 105.21 170.384 104.94C170.048 104.831 169.619 104.763 169.116 104.788C168.614 104.838 168.035 105.007 167.441 105.346C167.358 105.399 167.253 105.404 167.17 105.355C166.55 105.001 165.847 104.751 166.497 105.749C166.279 106.87 166.767 106.453 167.244 105.946Z" fill="black"/>
<path d="M162.208 107.66C162.239 107.572 162.321 107.512 162.414 107.505C163.067 107.427 163.618 107.39 164.036 107.233C164.469 107.112 164.815 106.959 165.08 106.763C165.622 106.415 165.888 106.004 165.86 105.881C165.838 105.779 165.405 105.488 164.679 105.506C164.325 105.535 163.889 105.615 163.437 105.848C163.002 106.114 162.508 106.446 162.133 107.041C162.079 107.121 161.984 107.166 161.886 107.155C161.145 107.056 160.445 107.204 161.45 107.794C161.771 108.929 161.971 108.279 162.208 107.66Z" fill="black"/>
<path d="M158.468 111.366C158.453 111.273 158.49 111.178 158.578 111.135C159.179 110.814 159.568 110.476 159.918 110.19C160.084 110.04 160.219 109.887 160.33 109.734C160.448 109.588 160.555 109.454 160.635 109.314C160.799 109.041 160.881 108.772 160.924 108.568C160.973 108.372 160.967 108.226 160.93 108.18C160.894 108.136 160.749 108.096 160.526 108.103C160.31 108.118 160.028 108.196 159.706 108.362C159.548 108.447 159.373 108.548 159.21 108.689C159.055 108.836 158.899 109.011 158.75 109.215C158.433 109.607 158.231 110.184 158.115 110.844C158.096 110.935 158.04 111.021 157.949 111.056C157.289 111.318 156.658 111.713 157.857 111.823C158.626 112.684 158.585 112.051 158.468 111.366Z" fill="black"/>
<path d="M156.7 116.316C156.649 116.235 156.653 116.134 156.705 116.058C157.091 115.519 157.374 115.063 157.52 114.642C157.709 114.235 157.78 113.865 157.79 113.54C157.861 112.913 157.673 112.445 157.563 112.394C157.462 112.346 156.983 112.51 156.533 113.074C156.336 113.364 156.152 113.754 156.041 114.238C155.976 114.731 155.964 115.319 156.162 115.972C156.192 116.064 156.169 116.164 156.099 116.231C155.584 116.722 155.15 117.314 156.305 116.97C157.346 117.479 157.069 116.901 156.7 116.316Z" fill="black"/>
<path d="M156.851 121.585C156.775 121.526 156.742 121.43 156.765 121.341C156.961 120.704 157.04 120.182 157.046 119.733C157.076 119.282 157.01 118.907 156.902 118.597C156.729 117.979 156.388 117.615 156.264 117.608C156.154 117.6 155.762 117.928 155.559 118.606C155.478 118.943 155.446 119.367 155.516 119.854C155.61 120.339 155.831 120.889 156.225 121.441C156.285 121.518 156.299 121.62 156.256 121.705C155.947 122.339 155.749 123.044 156.712 122.33C157.868 122.456 157.405 122.011 156.851 121.585Z" fill="black"/>
<path d="M158.962 126.394C158.87 126.37 158.803 126.294 158.79 126.203C158.727 125.873 158.673 125.586 158.625 125.328C158.566 125.065 158.491 124.836 158.401 124.633C158.253 124.213 158.065 123.888 157.849 123.641C157.458 123.135 157.014 122.908 156.894 122.944C156.79 122.974 156.533 123.418 156.599 124.126C156.653 124.471 156.773 124.887 157.034 125.315C157.179 125.522 157.356 125.733 157.566 125.939C157.767 126.15 158.025 126.343 158.336 126.508C158.422 126.556 158.474 126.645 158.469 126.742C158.419 127.47 158.605 128.151 159.145 127.129C160.277 126.745 159.611 126.584 158.962 126.394Z" fill="black"/>
<path d="M162.969 129.821C162.873 129.846 162.779 129.806 162.728 129.725C162.358 129.164 161.996 128.798 161.681 128.476C161.518 128.324 161.352 128.204 161.19 128.104C161.041 127.99 160.891 127.901 160.746 127.83C160.153 127.562 159.663 127.533 159.573 127.612C159.488 127.687 159.437 128.204 159.834 128.799C159.93 128.95 160.05 129.108 160.197 129.266C160.356 129.409 160.545 129.55 160.763 129.681C161.185 129.964 161.78 130.134 162.463 130.197C162.558 130.208 162.645 130.267 162.688 130.349C163 130.975 163.448 131.564 163.477 130.384C164.299 129.571 163.659 129.657 162.969 129.821Z" fill="black"/>
<path d="M168.127 131.173C168.049 131.229 167.947 131.235 167.865 131.19C167.286 130.855 166.801 130.62 166.363 130.507C165.936 130.355 165.556 130.314 165.224 130.33C164.584 130.302 164.121 130.524 164.076 130.634C164.034 130.737 164.237 131.19 164.844 131.594C165.154 131.764 165.566 131.914 166.068 131.984C166.575 132.013 167.176 131.974 167.823 131.727C167.914 131.69 168.018 131.705 168.091 131.768C168.634 132.228 169.275 132.603 168.824 131.503C169.251 130.443 168.69 130.762 168.127 131.173Z" fill="black"/>
<path d="M171.925 128.645C171.869 128.723 171.772 128.762 171.678 128.746C171.004 128.596 170.474 128.555 170.01 128.528C169.551 128.534 169.166 128.57 168.842 128.654C168.2 128.845 167.8 129.107 167.785 129.243C167.779 129.298 167.855 129.425 168.023 129.571C168.19 129.722 168.451 129.883 168.811 129.972C169.168 130.073 169.624 130.133 170.147 130.027C170.669 129.955 171.255 129.693 171.815 129.268C171.893 129.203 171.999 129.183 172.093 129.218C172.793 129.493 173.545 129.541 172.712 128.713C172.713 127.54 172.335 128.096 171.925 128.645Z" fill="black"/>
<path d="M176.494 125.783C176.491 125.878 176.424 125.957 176.334 125.991C175.079 126.494 174.37 126.929 173.919 127.422C173.464 127.882 173.29 128.363 173.333 128.461C173.383 128.573 173.866 128.749 174.602 128.557C174.966 128.463 175.369 128.238 175.771 127.897C175.96 127.71 176.146 127.492 176.321 127.243C176.494 126.994 176.621 126.679 176.74 126.354C176.772 126.261 176.856 126.193 176.955 126.172C177.657 125.998 178.36 125.675 177.179 125.407C176.553 124.439 176.494 125.075 176.494 125.783Z" fill="black"/>
<path d="M178.893 120.958C178.936 121.044 178.928 121.148 178.866 121.221C178.401 121.734 178.127 122.191 177.893 122.588C177.693 122.999 177.553 123.352 177.49 123.675C177.376 124.322 177.446 124.792 177.561 124.865C177.641 124.92 178.192 124.837 178.681 124.285C179.193 123.761 179.643 122.73 179.4 121.351C179.381 121.254 179.409 121.153 179.485 121.089C180.034 120.621 180.513 120.037 179.334 120.314C178.334 119.72 178.568 120.329 178.893 120.958Z" fill="black"/>
<path d="M178.959 115.569C179.034 115.628 179.078 115.724 179.046 115.817C178.948 116.146 178.882 116.44 178.845 116.709C178.801 116.978 178.753 117.227 178.748 117.454C178.746 117.907 178.751 118.291 178.845 118.612C179.013 119.251 179.295 119.646 179.428 119.662C179.528 119.675 179.975 119.366 180.188 118.67C180.407 117.993 180.421 116.866 179.585 115.712C179.534 115.63 179.509 115.527 179.551 115.438C179.842 114.778 179.997 114.035 179.071 114.802C177.905 114.714 178.392 115.142 178.959 115.569Z" fill="black"/>
<path d="M176.368 110.889C176.463 110.901 176.542 110.968 176.572 111.058C176.965 112.333 177.395 113.034 177.836 113.53C178.298 113.999 178.729 114.224 178.852 114.18C178.949 114.146 179.209 113.668 179.042 112.948C178.922 112.233 178.307 111.23 176.971 110.687C176.877 110.65 176.809 110.567 176.797 110.468C176.696 109.739 176.374 109.068 176.039 110.19C174.998 110.756 175.675 110.813 176.368 110.889Z" fill="black"/>
<path d="M171.599 108.324C171.687 108.28 171.793 108.292 171.864 108.361C172.901 109.232 173.643 109.632 174.306 109.777C174.936 109.945 175.442 109.873 175.518 109.774C175.584 109.691 175.512 109.179 174.987 108.642C174.465 108.139 173.432 107.599 172.006 107.839C171.908 107.849 171.806 107.818 171.741 107.746C171.268 107.205 170.669 106.732 170.947 107.889C170.339 108.868 170.954 108.64 171.599 108.324Z" fill="black"/>
<path d="M166.143 108.384C166.198 108.305 166.296 108.266 166.389 108.281C167.064 108.432 167.594 108.475 168.057 108.502C168.515 108.493 168.899 108.467 169.222 108.378C169.864 108.199 170.267 107.927 170.283 107.795C170.296 107.699 169.98 107.254 169.26 107.06C168.562 106.842 167.388 106.886 166.252 107.759C166.175 107.825 166.069 107.846 165.975 107.812C165.274 107.538 164.521 107.489 165.356 108.317C165.357 109.488 165.735 108.935 166.143 108.384Z" fill="black"/>
<path d="M161.582 111.257C161.585 111.163 161.652 111.084 161.742 111.049C162.996 110.544 163.703 110.106 164.153 109.612C164.383 109.385 164.536 109.147 164.629 108.952C164.725 108.764 164.762 108.627 164.736 108.571C164.685 108.46 164.201 108.282 163.467 108.479C163.102 108.573 162.701 108.8 162.299 109.142C162.111 109.329 161.925 109.547 161.751 109.797C161.579 110.047 161.453 110.362 161.335 110.687C161.303 110.78 161.219 110.849 161.121 110.869C160.418 111.045 159.716 111.368 160.898 111.635C161.525 112.602 161.583 111.966 161.582 111.257Z" fill="black"/>
<path d="M159.187 116.085C159.143 115.999 159.152 115.895 159.213 115.822C159.678 115.309 159.952 114.852 160.186 114.454C160.386 114.043 160.526 113.69 160.588 113.367C160.702 112.72 160.631 112.25 160.517 112.176C160.436 112.122 159.885 112.206 159.397 112.758C158.886 113.282 158.436 114.314 158.68 115.692C158.698 115.789 158.67 115.891 158.594 115.954C158.045 116.422 157.567 117.005 158.745 116.729C159.746 117.323 159.511 116.714 159.187 116.085Z" fill="black"/>
<path d="M159.119 121.475C159.044 121.416 159 121.32 159.032 121.227C159.131 120.898 159.197 120.604 159.234 120.335C159.278 120.066 159.326 119.817 159.332 119.59C159.333 119.136 159.328 118.752 159.235 118.432C159.067 117.793 158.784 117.398 158.652 117.382C158.552 117.368 158.105 117.677 157.892 118.373C157.672 119.051 157.658 120.176 158.493 121.332C158.544 121.413 158.568 121.516 158.527 121.606C158.235 122.265 158.078 123.007 159.006 122.242C160.172 122.332 159.685 121.903 159.119 121.475Z" fill="black"/>
<path d="M161.699 126.161C161.604 126.15 161.525 126.082 161.496 125.992C161.106 124.717 160.679 124.014 160.238 123.516C159.777 123.046 159.347 122.821 159.224 122.864C159.126 122.898 158.867 123.375 159.031 124.095C159.15 124.81 159.76 125.815 161.096 126.362C161.189 126.399 161.256 126.483 161.269 126.582C161.369 127.309 161.688 127.984 162.026 126.861C163.067 126.299 162.393 126.238 161.699 126.161Z" fill="black"/>
<path d="M166.466 128.72C166.379 128.761 166.272 128.756 166.2 128.691C165.164 127.812 164.418 127.428 163.759 127.276C163.127 127.111 162.624 127.178 162.546 127.278C162.482 127.36 162.55 127.877 163.077 128.411C163.595 128.921 164.638 129.447 166.06 129.212C166.159 129.199 166.263 129.224 166.327 129.3C166.803 129.842 167.407 130.315 167.119 129.156C167.718 128.176 167.108 128.405 166.466 128.72Z" fill="black"/>
<path d="M135.269 107.278C135.539 105.86 134.139 104.335 132.586 105.025C132.537 105.039 132.473 105.098 132.534 105.145C133.724 105.855 134.249 107.504 133.724 108.882C133.715 108.92 133.728 108.938 133.748 108.947C133.756 108.967 133.773 108.981 133.804 108.971C135.05 108.39 136.54 108.969 137.181 110.287C137.227 110.356 137.275 110.283 137.29 110.229C137.908 108.514 136.549 106.98 135.269 107.278Z" fill="black"/>
<path d="M141.301 99.217C141.57 97.7986 140.17 96.2735 138.618 96.9639C138.568 96.9776 138.505 97.0369 138.566 97.0837C139.755 97.794 140.281 99.4426 139.755 100.821C139.746 100.859 139.759 100.877 139.78 100.886C139.788 100.906 139.804 100.92 139.836 100.91C141.081 100.329 142.571 100.908 143.213 102.226C143.259 102.295 143.306 102.221 143.321 102.168C143.94 100.453 142.58 98.9189 141.301 99.217Z" fill="black"/>
<path d="M153.108 97.4245C153.378 96.0061 151.978 94.4811 150.425 95.1714C150.376 95.1851 150.312 95.2444 150.373 95.2913C151.563 96.0015 152.089 97.6501 151.563 99.0288C151.554 99.0669 151.567 99.0847 151.587 99.093C151.596 99.1138 151.612 99.1279 151.643 99.1179C152.889 98.5362 154.379 99.1158 155.02 100.434C155.066 100.503 155.114 100.429 155.129 100.376C155.747 98.6602 154.388 97.1264 153.108 97.4245Z" fill="black"/>
<path d="M129.696 113.666C129.966 112.247 128.565 110.722 127.013 111.413C126.964 111.427 126.9 111.486 126.961 111.532C128.151 112.243 128.676 113.891 128.151 115.27C128.141 115.308 128.154 115.326 128.175 115.334C128.183 115.355 128.199 115.369 128.231 115.359C129.476 114.777 130.966 115.357 131.608 116.675C131.654 116.744 131.701 116.67 131.717 116.617C132.335 114.901 130.976 113.368 129.696 113.666Z" fill="black"/>
<path d="M123.76 124.141C124.03 122.723 122.629 121.198 121.077 121.888C121.028 121.902 120.964 121.961 121.025 122.008C122.215 122.718 122.74 124.367 122.215 125.746C122.205 125.784 122.218 125.802 122.239 125.81C122.247 125.831 122.263 125.845 122.295 125.835C123.54 125.253 125.03 125.833 125.672 127.15C125.718 127.22 125.765 127.146 125.781 127.093C126.399 125.377 125.04 123.843 123.76 124.141Z" fill="black"/>
<path d="M142.876 137.076C143.146 135.658 141.745 134.133 140.193 134.823C140.143 134.837 140.08 134.896 140.141 134.943C141.331 135.653 141.856 137.302 141.331 138.681C141.321 138.719 141.334 138.737 141.355 138.745C141.363 138.766 141.379 138.78 141.411 138.77C142.656 138.188 144.146 138.768 144.788 140.085C144.834 140.155 144.881 140.081 144.897 140.028C145.515 138.312 144.156 136.778 142.876 137.076Z" fill="black"/>
<path d="M140.204 107.278C140.473 105.86 139.073 104.335 137.521 105.025C137.471 105.039 137.408 105.098 137.469 105.145C138.658 105.855 139.184 107.504 138.658 108.882C138.649 108.92 138.662 108.938 138.683 108.947C138.691 108.967 138.707 108.981 138.739 108.971C139.984 108.39 141.474 108.969 142.116 110.287C142.162 110.356 142.209 110.283 142.225 110.229C142.843 108.514 141.483 106.98 140.204 107.278Z" fill="black"/>
<path d="M145.138 107.278C145.408 105.86 144.008 104.335 142.455 105.025C142.406 105.039 142.343 105.098 142.403 105.145C143.593 105.855 144.119 107.504 143.593 108.882C143.584 108.92 143.597 108.938 143.617 108.947C143.626 108.967 143.642 108.981 143.673 108.971C144.919 108.39 146.409 108.969 147.051 110.287C147.097 110.356 147.144 110.283 147.159 110.229C147.777 108.514 146.418 106.98 145.138 107.278Z" fill="black"/>
<path d="M150.073 107.278C150.343 105.86 148.943 104.335 147.39 105.025C147.34 105.039 147.277 105.098 147.338 105.145C148.528 105.855 149.053 107.504 148.527 108.882C148.519 108.92 148.532 108.938 148.552 108.947C148.56 108.967 148.576 108.981 148.608 108.971C149.854 108.39 151.343 108.969 151.985 110.287C152.031 110.356 152.079 110.283 152.094 110.229C152.712 108.514 151.353 106.98 150.073 107.278Z" fill="black"/>
<path d="M135.171 129.526C135.451 128.108 133.996 126.583 132.382 127.273C132.331 127.287 132.265 127.346 132.328 127.393C133.565 128.103 134.111 129.752 133.565 131.13C133.555 131.168 133.569 131.186 133.59 131.195C133.599 131.216 133.616 131.229 133.648 131.219C134.943 130.638 136.491 131.217 137.158 132.535C137.206 132.604 137.255 132.531 137.271 132.477C137.913 130.762 136.501 129.228 135.171 129.526Z" fill="black"/>
<path d="M140.299 129.526C140.579 128.108 139.124 126.583 137.511 127.273C137.459 127.287 137.394 127.346 137.457 127.393C138.693 128.103 139.239 129.752 138.693 131.13C138.683 131.168 138.697 131.186 138.718 131.195C138.727 131.216 138.744 131.229 138.776 131.219C140.071 130.638 141.619 131.217 142.286 132.535C142.334 132.604 142.383 132.531 142.399 132.477C143.042 130.762 141.629 129.228 140.299 129.526Z" fill="black"/>
<path d="M145.427 129.526C145.708 128.108 144.252 126.583 142.639 127.273C142.588 127.287 142.522 127.346 142.585 127.393C143.821 128.103 144.367 129.752 143.821 131.13C143.812 131.168 143.825 131.186 143.847 131.195C143.855 131.216 143.872 131.229 143.905 131.219C145.199 130.638 146.748 131.217 147.415 132.535C147.463 132.604 147.512 132.531 147.527 132.477C148.17 130.762 146.758 129.228 145.427 129.526Z" fill="black"/>
<path d="M150.556 129.526C150.836 128.108 149.381 126.583 147.767 127.273C147.716 127.287 147.65 127.346 147.713 127.393C148.95 128.103 149.496 129.752 148.95 131.13C148.94 131.168 148.954 131.186 148.975 131.195C148.984 131.216 149.001 131.229 149.033 131.219C150.328 130.638 151.876 131.217 152.543 132.535C152.591 132.604 152.64 132.531 152.656 132.477C153.298 130.762 151.886 129.228 150.556 129.526Z" fill="black"/>
<path d="M136.879 124.163C137.227 122.832 135.817 121.447 134.147 122.134C134.094 122.148 134.025 122.205 134.087 122.247C135.311 122.877 135.792 124.401 135.176 125.702C135.164 125.738 135.177 125.755 135.198 125.762C135.207 125.781 135.223 125.794 135.256 125.783C136.597 125.206 138.144 125.706 138.763 126.918C138.808 126.981 138.862 126.911 138.88 126.861C139.609 125.243 138.243 123.849 136.879 124.163Z" fill="black"/>
<path d="M139.884 121.338C140.232 120.006 138.822 118.622 137.152 119.309C137.1 119.324 137.03 119.38 137.092 119.423C138.316 120.052 138.797 121.576 138.181 122.878C138.17 122.913 138.183 122.93 138.204 122.937C138.211 122.956 138.228 122.969 138.261 122.959C139.602 122.381 141.149 122.881 141.768 124.093C141.813 124.157 141.867 124.086 141.885 124.036C142.614 122.418 141.249 121.024 139.884 121.338Z" fill="black"/>
<path d="M142.889 118.513C143.237 117.182 141.827 115.797 140.157 116.484C140.105 116.499 140.035 116.556 140.097 116.598C141.322 117.228 141.803 118.752 141.186 120.053C141.175 120.089 141.188 120.105 141.209 120.112C141.217 120.131 141.233 120.144 141.267 120.134C142.608 119.557 144.154 120.057 144.773 121.268C144.819 121.332 144.872 121.262 144.89 121.212C145.62 119.593 144.254 118.2 142.889 118.513Z" fill="black"/>
<path d="M145.895 115.688C146.242 114.357 144.833 112.973 143.163 113.66C143.11 113.674 143.04 113.731 143.103 113.773C144.327 114.403 144.808 115.927 144.191 117.228C144.18 117.264 144.193 117.281 144.214 117.288C144.222 117.307 144.239 117.32 144.272 117.309C145.613 116.732 147.16 117.232 147.778 118.444C147.824 118.507 147.877 118.437 147.895 118.387C148.625 116.769 147.259 115.375 145.895 115.688Z" fill="black"/>
<path d="M148.9 112.864C149.248 111.533 147.838 110.149 146.168 110.835C146.115 110.85 146.046 110.907 146.108 110.949C147.332 111.579 147.813 113.102 147.197 114.404C147.185 114.44 147.198 114.456 147.22 114.463C147.228 114.482 147.244 114.495 147.277 114.485C148.618 113.908 150.165 114.408 150.784 115.619C150.829 115.683 150.883 115.613 150.901 115.562C151.63 113.944 150.264 112.551 148.9 112.864Z" fill="black"/>
<path d="M123.798 136.738H133.723C138.234 136.738 141.316 139.724 141.316 143.485C141.316 145.919 140 147.983 138.083 148.942V149.163C140.339 150.306 141.805 152.776 141.805 155.394C141.805 159.449 138.309 162.547 133.647 162.547H123.798V136.738ZM133.422 147.725C135.79 147.725 137.52 146.103 137.52 143.853C137.52 141.605 135.79 140.019 133.422 140.019H127.52V147.725H133.422ZM133.76 159.265C136.053 159.265 138.008 157.385 138.008 155.136C138.008 152.887 136.053 150.97 133.76 150.97H127.52V159.265H133.76Z" fill="black"/>
<path d="M147.329 136.738H157.253C161.764 136.738 165.035 139.945 165.035 144.222C165.035 147.651 162.968 150.232 159.584 151.228L165.975 162.547H161.802L155.824 151.891H151.05V162.547H147.329V136.738ZM156.877 148.61C159.321 148.61 161.238 146.692 161.238 144.296C161.238 141.936 159.321 140.019 156.877 140.019H151.05V148.61H156.877Z" fill="black"/>
<path d="M171.273 136.738H175.069L188.302 156.205H188.528V136.738H192.137V162.547H188.34L175.069 143.079H174.844V162.547H171.273V136.738Z" fill="black"/>
<path d="M198.111 149.642C198.111 141.9 203.749 136.333 211.531 136.333C219.313 136.333 224.952 141.9 224.952 149.642C224.952 157.385 219.313 162.952 211.531 162.952C203.749 162.952 198.111 157.385 198.111 149.642ZM211.531 159.597C217.17 159.597 221.155 155.504 221.155 149.642C221.155 143.78 217.17 139.687 211.531 139.687C205.854 139.687 201.908 143.78 201.908 149.642C201.908 155.504 205.854 159.597 211.531 159.597Z" fill="black"/>
<path d="M173.963 116.632C174.044 116.688 174.092 116.787 174.066 116.886C173.778 118.234 173.677 119.069 173.749 119.745C173.78 120.075 173.844 120.352 173.907 120.557C173.98 120.764 174.059 120.896 174.113 120.916C174.169 120.936 174.315 120.891 174.495 120.746C174.684 120.603 174.901 120.357 175.069 119.99C175.238 119.625 175.344 119.138 175.307 118.572C175.247 118.011 175.071 117.354 174.599 116.755C174.542 116.669 174.512 116.559 174.545 116.46C174.673 116.099 174.722 115.702 174.643 115.517C174.566 115.326 174.388 115.38 173.983 115.825C173.39 115.836 173.246 115.971 173.31 116.105C173.379 116.243 173.672 116.418 173.963 116.632Z" fill="black"/>
<path d="M164.918 115.01C164.909 114.91 164.973 114.823 165.064 114.781C165.699 114.483 166.183 114.282 166.596 114.107C167.002 113.927 167.33 113.754 167.609 113.58C167.887 113.406 168.112 113.232 168.272 113.085C168.43 112.929 168.517 112.808 168.512 112.749C168.507 112.693 168.402 112.577 168.19 112.484C167.977 112.38 167.655 112.293 167.235 112.314C166.82 112.334 166.305 112.471 165.809 112.816C165.31 113.146 164.853 113.717 164.637 114.441C164.605 114.542 164.521 114.623 164.426 114.661C164.246 114.727 164.063 114.807 163.911 114.895C163.769 114.987 163.657 115.085 163.606 115.171C163.501 115.35 163.655 115.454 164.261 115.49C164.639 115.941 164.836 115.968 164.902 115.836C164.937 115.767 164.943 115.65 164.934 115.502C164.936 115.362 164.928 115.191 164.918 115.01Z" fill="black"/>
<path d="M168.115 123.944C168.028 123.989 167.916 123.992 167.839 123.925C167.272 123.514 166.878 123.159 166.525 122.891C166.168 122.629 165.875 122.409 165.581 122.256C165.027 121.928 164.534 121.775 164.421 121.841C164.335 121.889 164.189 122.428 164.602 123.159C164.82 123.504 165.17 123.906 165.717 124.171C166.251 124.442 166.965 124.602 167.723 124.452C167.828 124.441 167.942 124.458 168.019 124.532C168.296 124.805 168.641 125.014 168.844 125.027C169.052 125.042 169.081 124.861 168.847 124.31C169.093 123.781 169.032 123.595 168.88 123.593C168.723 123.593 168.435 123.781 168.115 123.944Z" fill="black"/>
<path d="M173.707 133.087C173.651 133.171 173.547 133.198 173.449 133.181C172.068 132.945 171.155 133.041 170.498 133.31C169.847 133.522 169.488 133.898 169.491 134.016C169.494 134.128 169.878 134.471 170.619 134.622C171.344 134.722 172.469 134.609 173.596 133.701C173.675 133.638 173.786 133.629 173.88 133.658C174.573 133.882 175.331 133.99 174.507 133.129C174.555 131.968 174.116 132.485 173.707 133.087Z" fill="black"/>
<path d="M183.882 120.864C183.932 120.947 183.928 121.053 183.875 121.135C183.52 121.72 183.224 122.212 183.075 122.663C182.939 123.118 182.84 123.503 182.827 123.844C182.812 124.183 182.862 124.471 182.928 124.682C182.978 124.886 183.054 125.014 183.11 125.036C183.162 125.057 183.312 125.018 183.506 124.898C183.685 124.772 183.901 124.562 184.105 124.252C184.306 123.943 184.513 123.538 184.566 123.018C184.632 122.503 184.651 121.896 184.419 121.211C184.39 121.115 184.414 121.01 184.485 120.938C184.742 120.678 184.988 120.388 185.009 120.212C185.023 120.035 184.838 119.983 184.28 120.167C183.741 119.896 183.552 119.929 183.552 120.092C183.544 120.254 183.698 120.556 183.882 120.864Z" fill="black"/>
<path d="M177.969 106C178.067 105.997 178.159 106.053 178.205 106.138C178.366 106.448 178.548 106.689 178.698 106.935C178.848 107.18 179.003 107.386 179.161 107.563C179.491 107.901 179.772 108.183 180.065 108.365C180.656 108.719 181.147 108.815 181.246 108.743C181.337 108.679 181.432 108.15 181.078 107.498C180.905 107.172 180.659 106.783 180.221 106.475C180.01 106.314 179.767 106.159 179.494 106.017C179.222 105.874 178.883 105.789 178.534 105.706C178.434 105.684 178.352 105.611 178.322 105.515C178.267 105.339 178.205 105.163 178.135 105.018C178.058 104.884 177.979 104.778 177.902 104.729C177.746 104.63 177.617 104.768 177.522 105.342C177.031 105.682 176.974 105.863 177.117 105.939C177.189 105.978 177.314 105.992 177.469 105.993C177.616 106.004 177.79 106.005 177.969 106Z" fill="black"/>
<path d="M167.145 103.403C167.216 103.336 167.321 103.303 167.414 103.343C168.079 103.612 168.633 103.711 169.116 103.764C169.598 103.834 170.008 103.804 170.351 103.727C171.03 103.595 171.445 103.319 171.464 103.192C171.48 103.091 171.163 102.654 170.455 102.413C170.102 102.304 169.653 102.235 169.127 102.259C168.601 102.3 167.997 102.491 167.365 102.806C167.276 102.848 167.167 102.862 167.08 102.811C166.44 102.46 165.718 102.211 166.365 103.211C166.095 104.34 166.629 103.915 167.145 103.403Z" fill="black"/>
<path d="M154.778 113.445C154.744 113.355 154.768 113.251 154.836 113.18C155.078 112.927 155.273 112.686 155.437 112.455C155.624 112.234 155.773 112.021 155.892 111.815C156.01 111.61 156.098 111.411 156.165 111.22C156.249 111.04 156.308 110.866 156.349 110.701C156.505 110.044 156.385 109.537 156.295 109.479C156.19 109.411 155.689 109.531 155.169 110.069C155.038 110.203 154.906 110.361 154.78 110.546C154.672 110.739 154.573 110.96 154.488 111.207C154.404 111.454 154.334 111.728 154.288 112.026C154.267 112.332 154.274 112.665 154.312 113.016C154.323 113.115 154.28 113.215 154.196 113.273C153.57 113.702 153.127 114.275 154.287 114.072C155.273 114.763 155.011 114.095 154.778 113.445Z" fill="black"/>
<path d="M157.977 129.208C157.881 129.191 157.803 129.118 157.776 129.025C157.683 128.689 157.56 128.413 157.462 128.144C157.366 127.874 157.258 127.64 157.141 127.435C156.89 127.035 156.667 126.706 156.421 126.467C155.917 125.999 155.443 125.817 155.337 125.864C155.23 125.914 155.042 126.407 155.251 127.116C155.348 127.471 155.515 127.896 155.876 128.286C156.049 128.486 156.252 128.687 156.489 128.881C156.728 129.073 157.039 129.229 157.362 129.38C157.455 129.422 157.52 129.51 157.529 129.61C157.551 129.985 157.641 130.341 157.774 130.464C157.905 130.593 158.061 130.485 158.276 129.942C158.828 129.71 158.922 129.544 158.799 129.441C158.67 129.339 158.32 129.281 157.977 129.208Z" fill="black"/>
<path d="M182.029 127.852C182.032 127.949 181.976 128.038 181.89 128.082C181.298 128.413 180.79 128.683 180.443 129.001C180.263 129.155 180.121 129.318 179.992 129.47C179.854 129.614 179.743 129.759 179.653 129.9C179.293 130.463 179.254 130.981 179.33 131.073C179.401 131.16 179.907 131.198 180.566 130.866C180.73 130.784 180.904 130.679 181.08 130.547C181.247 130.407 181.405 130.23 181.563 130.028C181.869 129.617 182.192 129.114 182.325 128.412C182.346 128.316 182.419 128.237 182.514 128.21C183.22 128.012 183.905 127.692 182.716 127.449C182.072 126.493 182.01 127.15 182.029 127.852Z" fill="black"/>
<path d="M181.642 106.14C181.737 106.163 181.802 106.246 181.818 106.341C181.915 107.029 182.126 107.523 182.302 107.96C182.48 108.392 182.71 108.715 182.949 108.959C183.393 109.46 183.848 109.667 183.967 109.62C184.066 109.582 184.291 109.103 184.16 108.387C184.079 108.039 183.915 107.63 183.629 107.204C183.347 106.777 182.854 106.385 182.262 106.024C182.177 105.974 182.127 105.879 182.127 105.781C182.105 105.076 181.951 104.355 181.409 105.402C180.283 105.767 180.929 105.982 181.642 106.14Z" fill="black"/>
<path d="M159.298 103.583C159.33 103.495 159.415 103.433 159.513 103.423C160.207 103.351 160.731 103.195 161.192 103.06C161.644 102.912 161.976 102.682 162.25 102.484C162.798 102.101 163.025 101.641 162.988 101.528C162.953 101.422 162.49 101.2 161.747 101.262C161.379 101.298 160.964 101.457 160.513 101.711C160.056 101.949 159.616 102.389 159.221 102.966C159.165 103.047 159.068 103.094 158.966 103.084C158.218 103.014 157.508 103.162 158.522 103.746C158.828 104.892 159.058 104.227 159.298 103.583Z" fill="black"/>
<path d="M152.699 122.899C152.623 122.839 152.589 122.739 152.611 122.647C152.739 121.991 152.855 121.431 152.83 120.961C152.81 120.493 152.713 120.104 152.619 119.783C152.404 119.146 152.021 118.797 151.901 118.798C151.787 118.8 151.436 119.167 151.278 119.871C151.186 120.223 151.187 120.656 151.308 121.149C151.432 121.641 151.615 122.202 152.073 122.756C152.133 122.835 152.147 122.94 152.106 123.029C151.802 123.684 151.606 124.399 152.566 123.674C153.727 123.817 153.256 123.342 152.699 122.899Z" fill="black"/>
<path d="M168.068 136.11C167.988 136.166 167.882 136.171 167.796 136.126C167.182 135.828 166.662 135.596 166.198 135.481C165.734 135.369 165.326 135.371 164.99 135.368C164.313 135.395 163.862 135.658 163.829 135.772C163.798 135.879 164.057 136.311 164.709 136.657C165.031 136.846 165.462 136.946 165.98 136.971C166.496 136.998 167.1 136.948 167.764 136.664C167.858 136.627 167.965 136.642 168.041 136.705C168.606 137.166 169.258 137.541 168.795 136.441C169.24 135.381 168.648 135.7 168.068 136.11Z" fill="black"/>
</g>
</svg>
