<svg width="348" height="580" viewBox="0 0 348 580" fill="none" xmlns="http://www.w3.org/2000/svg">
<rect width="348" height="580" fill="#F9F0E4"/>
<g opacity="0.25">
<path d="M194.678 205.243L194.608 205.269C194.609 205.257 194.61 205.247 194.611 205.234C194.605 205.07 194.521 204.909 194.417 204.923C194.314 204.936 194.242 205.116 194.261 205.275C194.27 205.351 194.295 205.407 194.328 205.446C194.127 205.368 193.853 205.369 193.55 205.409C193.267 205.471 192.96 205.582 192.727 205.735C192.498 205.896 192.358 206.058 192.288 206.212C192.258 206.273 192.201 206.325 192.136 206.345C191.958 206.396 191.783 206.511 191.654 206.686C191.471 206.921 191.474 207.242 191.611 207.468C191.879 207.898 192.441 207.923 192.791 207.643C192.879 207.569 192.943 207.478 192.987 207.377C193.011 207.316 193.067 207.279 193.132 207.278C193.29 207.271 193.458 207.213 193.644 207.081C193.829 206.959 194.015 206.808 194.173 206.625C194.337 206.471 194.476 206.274 194.562 206.102C194.564 206.15 194.582 206.209 194.62 206.275C194.703 206.416 194.832 206.538 194.892 206.504C194.952 206.47 194.934 206.29 194.864 206.145C194.857 206.134 194.853 206.127 194.847 206.117C194.866 206.113 194.886 206.111 194.906 206.105C195.159 206.036 195.352 205.825 195.328 205.574C195.307 205.336 195.006 205.155 194.678 205.243Z" fill="black"/>
<path d="M188.798 211.494L188.758 211.556C188.751 211.546 188.746 211.538 188.738 211.527C188.633 211.4 188.467 211.321 188.392 211.393C188.317 211.465 188.371 211.651 188.485 211.767C188.538 211.821 188.593 211.851 188.643 211.864C188.435 211.92 188.217 212.083 188 212.294C187.814 212.511 187.638 212.781 187.546 213.041C187.463 213.305 187.451 213.516 187.49 213.681C187.504 213.747 187.49 213.822 187.451 213.876C187.34 214.023 187.272 214.218 187.277 214.434C187.276 214.729 187.476 214.983 187.725 215.083C188.203 215.266 188.666 214.954 188.774 214.524C188.798 214.412 188.793 214.302 188.765 214.196C188.747 214.133 188.769 214.07 188.82 214.031C188.941 213.932 189.04 213.787 189.106 213.571C189.179 213.364 189.235 213.134 189.247 212.895C189.283 212.675 189.272 212.436 189.235 212.248C189.266 212.285 189.316 212.321 189.388 212.351C189.541 212.414 189.719 212.435 189.745 212.372C189.772 212.31 189.647 212.177 189.502 212.103C189.49 212.098 189.482 212.095 189.471 212.091C189.484 212.076 189.498 212.063 189.51 212.047C189.669 211.842 189.694 211.56 189.519 211.373C189.356 211.196 189.005 211.23 188.798 211.494Z" fill="black"/>
<path d="M186.206 211.801L186.154 211.854C186.149 211.842 186.146 211.833 186.141 211.821C186.064 211.675 185.918 211.565 185.83 211.621C185.742 211.676 185.757 211.869 185.843 212.005C185.884 212.069 185.931 212.109 185.978 212.132C185.763 212.145 185.515 212.261 185.259 212.424C185.031 212.599 184.802 212.829 184.658 213.064C184.522 213.306 184.467 213.511 184.47 213.679C184.47 213.748 184.442 213.817 184.392 213.864C184.252 213.985 184.145 214.162 184.105 214.375C184.042 214.663 184.185 214.952 184.408 215.099C184.839 215.374 185.357 215.161 185.551 214.761C185.598 214.658 185.617 214.548 185.611 214.439C185.607 214.374 185.641 214.317 185.699 214.288C185.838 214.216 185.966 214.094 186.075 213.895C186.19 213.708 186.292 213.493 186.354 213.261C186.435 213.053 186.474 212.817 186.477 212.625C186.5 212.669 186.541 212.714 186.605 212.757C186.742 212.85 186.912 212.906 186.951 212.85C186.99 212.794 186.896 212.639 186.769 212.537C186.758 212.53 186.75 212.525 186.74 212.519C186.757 212.508 186.773 212.498 186.789 212.484C186.987 212.315 187.07 212.044 186.938 211.826C186.814 211.62 186.464 211.583 186.206 211.801Z" fill="black"/>
<path d="M199.613 205.857L199.548 205.856C199.553 205.845 199.557 205.836 199.562 205.824C199.611 205.669 199.597 205.49 199.521 205.467C199.44 205.446 199.341 205.578 199.284 205.731C199.259 205.802 199.253 205.863 199.26 205.912C199.022 205.615 198.556 205.289 198.065 205.146C197.825 205.074 197.605 205.069 197.446 205.111C197.381 205.127 197.301 205.117 197.245 205.074C197.095 204.959 196.89 204.887 196.652 204.903C196.337 204.91 196.062 205.128 195.991 205.375C195.872 205.86 196.19 206.284 196.597 206.367C196.704 206.385 196.815 206.389 196.92 206.362C196.982 206.348 197.044 206.365 197.089 206.414C197.199 206.533 197.347 206.623 197.597 206.697C198.073 206.838 198.788 206.837 199.156 206.599C199.132 206.643 199.118 206.703 199.124 206.779C199.134 206.94 199.239 207.115 199.329 207.104C199.423 207.097 199.477 206.924 199.46 206.763C199.457 206.751 199.455 206.742 199.452 206.73L199.521 206.742C199.834 206.777 200.101 206.589 200.112 206.342C200.122 206.098 199.9 205.889 199.613 205.857Z" fill="black"/>
<path d="M204.012 204.984L203.961 205.023C203.958 205.011 203.956 205.002 203.952 204.989C203.894 204.836 203.774 204.705 203.7 204.727C203.626 204.749 203.622 204.925 203.673 205.079C203.696 205.151 203.729 205.203 203.766 205.237C203.377 205.146 202.814 205.192 202.397 205.306C202.187 205.377 202.034 205.446 201.93 205.56C201.887 205.607 201.824 205.623 201.765 205.602C201.606 205.546 201.439 205.556 201.26 205.613C201.022 205.704 200.824 205.92 200.765 206.178C200.648 206.663 201.065 207.098 201.623 207.04C201.759 207.02 201.885 206.974 201.99 206.909C202.052 206.872 202.131 206.865 202.2 206.883C202.367 206.928 202.593 206.947 202.869 206.857C203.426 206.703 203.979 206.24 204.109 205.845C204.118 205.893 204.145 205.949 204.196 206.006C204.305 206.128 204.483 206.204 204.558 206.145C204.634 206.085 204.567 205.911 204.454 205.796C204.443 205.788 204.436 205.782 204.427 205.774L204.49 205.742C204.763 205.575 204.855 205.268 204.706 205.066C204.56 204.87 204.252 204.839 204.012 204.984Z" fill="black"/>
<path d="M204.538 201.332L204.504 201.385C204.497 201.375 204.491 201.367 204.484 201.356C204.375 201.232 204.216 201.15 204.154 201.196C204.092 201.242 204.151 201.408 204.252 201.536C204.3 201.595 204.35 201.632 204.396 201.652C203.999 201.699 203.487 201.932 203.136 202.181C202.964 202.318 202.844 202.435 202.787 202.577C202.763 202.635 202.71 202.672 202.647 202.672C202.478 202.673 202.325 202.739 202.177 202.854C201.986 203.02 201.877 203.289 201.913 203.551C201.974 204.046 202.518 204.313 203.021 204.069C203.142 204.005 203.244 203.919 203.32 203.823C203.365 203.767 203.436 203.733 203.507 203.727C203.68 203.712 203.899 203.654 204.126 203.476C204.594 203.143 204.95 202.521 204.933 202.106C204.958 202.149 205.002 202.192 205.071 202.228C205.216 202.306 205.41 202.317 205.46 202.236C205.509 202.154 205.386 202.014 205.238 201.944C205.226 201.939 205.217 201.937 205.206 201.932L205.253 201.881C205.451 201.632 205.429 201.313 205.217 201.174C205.012 201.039 204.711 201.114 204.538 201.332Z" fill="black"/>
<path d="M207.376 201.832L207.344 201.886C207.336 201.877 207.33 201.869 207.322 201.859C207.206 201.745 207.037 201.671 206.978 201.724C206.92 201.776 206.992 201.939 207.103 202.058C207.156 202.114 207.208 202.147 207.256 202.163C206.865 202.242 206.358 202.531 206.036 202.857C205.861 203.026 205.767 203.19 205.729 203.343C205.712 203.404 205.666 203.455 205.604 203.473C205.436 203.522 205.287 203.631 205.174 203.788C205.025 204.009 205.001 204.302 205.117 204.541C205.331 204.994 205.925 205.083 206.319 204.737C206.413 204.651 206.484 204.549 206.53 204.441C206.556 204.378 206.614 204.331 206.683 204.316C206.846 204.278 207.021 204.178 207.21 203.995C207.592 203.611 207.88 202.985 207.829 202.572C207.858 202.614 207.906 202.653 207.977 202.684C208.128 202.749 208.32 202.747 208.361 202.663C208.403 202.579 208.274 202.451 208.119 202.39C208.106 202.386 208.097 202.384 208.086 202.381L208.131 202.328C208.302 202.062 208.262 201.748 208.044 201.626C207.826 201.504 207.527 201.596 207.376 201.832Z" fill="black"/>
<path d="M189.796 207.083L189.777 207.144C189.768 207.136 189.76 207.131 189.749 207.122C189.61 207.038 189.427 207.006 189.383 207.07C189.339 207.134 189.448 207.277 189.586 207.367C189.65 207.408 189.709 207.429 189.759 207.433C189.398 207.601 188.976 207.998 188.742 208.39C188.612 208.596 188.56 208.776 188.56 208.933C188.559 208.997 188.526 209.057 188.47 209.089C188.319 209.176 188.2 209.315 188.129 209.494C188.037 209.743 188.085 210.034 188.255 210.239C188.572 210.63 189.171 210.578 189.47 210.151C189.541 210.046 189.585 209.93 189.603 209.815C189.614 209.747 189.659 209.688 189.722 209.658C189.872 209.583 190.017 209.445 190.157 209.223C190.435 208.762 190.564 208.088 190.414 207.698C190.453 207.731 190.509 207.758 190.585 207.772C190.747 207.801 190.934 207.754 190.954 207.663C190.973 207.571 190.817 207.476 190.652 207.453C190.639 207.453 190.63 207.452 190.617 207.452L190.649 207.39C190.751 207.093 190.636 206.796 190.395 206.728C190.154 206.661 189.885 206.82 189.796 207.083Z" fill="black"/>
<path d="M208.807 197.57L208.809 197.634C208.798 197.629 208.789 197.626 208.776 197.621C208.615 197.581 208.434 197.602 208.413 197.677C208.389 197.751 208.535 197.857 208.693 197.903C208.767 197.925 208.829 197.927 208.878 197.916C208.585 198.181 208.303 198.69 208.194 199.124C208.135 199.344 208.142 199.522 208.179 199.667C208.196 199.726 208.181 199.791 208.136 199.834C208.022 199.951 207.926 200.098 207.907 200.287C207.877 200.54 207.978 200.809 208.192 200.981C208.574 201.302 209.168 201.138 209.361 200.634C209.412 200.512 209.431 200.385 209.417 200.264C209.41 200.194 209.439 200.123 209.492 200.076C209.624 199.962 209.727 199.779 209.797 199.514C209.93 198.987 209.845 198.31 209.584 197.981C209.631 198.002 209.692 198.012 209.769 198.003C209.934 197.984 210.099 197.886 210.092 197.794C210.082 197.702 209.901 197.655 209.738 197.68C209.726 197.683 209.717 197.686 209.705 197.689L209.714 197.621C209.732 197.309 209.53 197.058 209.276 197.061C209.028 197.062 208.823 197.291 208.807 197.57Z" fill="black"/>
<path d="M211.833 183.799L211.779 183.835C211.777 183.823 211.775 183.813 211.773 183.801C211.724 183.645 211.611 183.505 211.535 183.526C211.458 183.545 211.442 183.721 211.484 183.878C211.503 183.951 211.534 184.004 211.569 184.04C211.185 183.932 210.595 183.962 210.16 184.097C209.937 184.163 209.786 184.261 209.679 184.368C209.636 184.413 209.572 184.434 209.512 184.419C209.349 184.384 209.171 184.381 208.997 184.464C208.761 184.571 208.579 184.795 208.541 185.064C208.461 185.55 208.913 185.962 209.453 185.86C209.586 185.839 209.706 185.789 209.804 185.714C209.862 185.672 209.939 185.659 210.007 185.678C210.176 185.73 210.389 185.72 210.656 185.641C211.184 185.477 211.73 185.053 211.881 184.664C211.886 184.714 211.91 184.77 211.958 184.83C212.06 184.957 212.231 185.044 212.308 184.99C212.383 184.934 212.329 184.758 212.223 184.636C212.213 184.627 212.206 184.621 212.198 184.612L212.262 184.584C212.543 184.437 212.656 184.137 212.521 183.926C212.391 183.72 212.085 183.667 211.833 183.799Z" fill="black"/>
<path d="M208.383 192.825V192.896C208.372 192.892 208.363 192.888 208.35 192.883C208.192 192.839 208.008 192.867 207.985 192.964C207.969 193.061 208.125 193.179 208.287 193.213C208.363 193.229 208.425 193.224 208.473 193.207C208.181 193.521 208.066 194.226 208.169 194.733C208.217 194.988 208.308 195.164 208.416 195.276C208.46 195.322 208.479 195.389 208.461 195.45C208.412 195.616 208.416 195.771 208.484 195.953C208.581 196.194 208.813 196.381 209.078 196.427C209.579 196.519 210.002 196.099 209.93 195.568C209.909 195.437 209.864 195.309 209.794 195.216C209.754 195.16 209.745 195.087 209.768 195.023C209.826 194.864 209.837 194.676 209.793 194.438C209.701 193.974 209.451 193.483 209.183 193.202C209.23 193.217 209.293 193.219 209.368 193.205C209.53 193.172 209.684 193.087 209.667 193.016C209.656 192.946 209.478 192.907 209.313 192.928C209.301 192.931 209.292 192.933 209.28 192.936C209.284 192.916 209.289 192.897 209.291 192.876C209.303 192.611 209.143 192.364 208.899 192.319C208.65 192.274 208.4 192.499 208.383 192.825Z" fill="black"/>
<path d="M206.646 190.857L206.623 190.925C206.614 190.917 206.606 190.912 206.596 190.903C206.458 190.813 206.274 190.785 206.222 190.871C206.177 190.958 206.289 191.117 206.433 191.198C206.499 191.236 206.56 191.25 206.611 191.248C206.235 191.459 205.905 192.097 205.846 192.61C205.812 192.866 205.843 193.062 205.91 193.2C205.938 193.258 205.936 193.327 205.9 193.38C205.801 193.523 205.756 193.672 205.765 193.866C205.782 194.123 205.945 194.371 206.182 194.495C206.63 194.733 207.164 194.459 207.261 193.933C207.282 193.801 207.279 193.666 207.242 193.557C207.221 193.491 207.235 193.419 207.277 193.365C207.382 193.231 207.452 193.056 207.484 192.815C207.541 192.345 207.456 191.804 207.288 191.456C207.33 191.484 207.388 191.505 207.465 191.514C207.628 191.532 207.802 191.496 207.807 191.424C207.819 191.354 207.662 191.263 207.499 191.234C207.486 191.233 207.476 191.233 207.465 191.232C207.474 191.214 207.485 191.197 207.493 191.178C207.588 190.929 207.513 190.646 207.294 190.53C207.071 190.413 206.763 190.552 206.646 190.857Z" fill="black"/>
<path d="M210.624 188.356L210.582 188.411C210.575 188.401 210.571 188.392 210.564 188.38C210.468 188.248 210.311 188.154 210.238 188.21C210.165 188.266 210.207 188.448 210.306 188.578C210.353 188.639 210.402 188.675 210.45 188.695C210.03 188.734 209.464 189.124 209.162 189.586C209.013 189.821 208.937 190.014 208.947 190.194C208.949 190.265 208.919 190.336 208.862 190.381C208.712 190.501 208.587 190.68 208.556 190.91C208.498 191.215 208.633 191.508 208.875 191.643C209.316 191.877 209.832 191.665 209.997 191.289C210.043 191.191 210.069 191.09 210.067 190.986C210.067 190.925 210.101 190.87 210.156 190.841C210.281 190.769 210.427 190.657 210.548 190.466C210.789 190.096 210.989 189.544 210.984 189.151C211.01 189.194 211.054 189.236 211.121 189.274C211.265 189.354 211.446 189.384 211.486 189.315C211.527 189.246 211.415 189.102 211.275 189.018C211.263 189.013 211.255 189.009 211.244 189.004L211.291 188.961C211.479 188.746 211.519 188.453 211.338 188.275C211.165 188.104 210.83 188.123 210.624 188.356Z" fill="black"/>
<path d="M213.844 184.653L213.796 184.703C213.791 184.692 213.788 184.683 213.783 184.671C213.7 184.53 213.554 184.42 213.475 184.469C213.397 184.518 213.42 184.704 213.506 184.842C213.545 184.907 213.591 184.949 213.636 184.972C213.215 184.971 212.612 185.303 212.265 185.733C212.092 185.952 211.997 186.137 211.989 186.317C211.983 186.388 211.946 186.455 211.885 186.495C211.723 186.6 211.58 186.766 211.526 186.992C211.438 187.29 211.542 187.594 211.769 187.752C212.184 188.028 212.719 187.867 212.922 187.509C212.977 187.417 213.014 187.319 213.022 187.215C213.028 187.154 213.068 187.102 213.125 187.079C213.257 187.019 213.413 186.923 213.554 186.745C213.832 186.4 214.087 185.87 214.122 185.479C214.143 185.524 214.183 185.571 214.246 185.615C214.381 185.709 214.557 185.756 214.605 185.691C214.652 185.627 214.556 185.472 214.425 185.375C214.414 185.369 214.406 185.364 214.395 185.358L214.447 185.319C214.656 185.124 214.726 184.836 214.563 184.641C214.409 184.455 214.073 184.44 213.844 184.653Z" fill="black"/>
<path d="M197.326 207.722L197.253 207.721C197.258 207.71 197.262 207.702 197.267 207.69C197.32 207.535 197.297 207.354 197.197 207.33C197.105 207.31 196.986 207.457 196.947 207.614C196.929 207.688 196.931 207.749 196.946 207.797C196.652 207.513 196.026 207.337 195.517 207.381C195.259 207.4 195.071 207.475 194.942 207.574C194.889 207.616 194.818 207.632 194.752 207.612C194.579 207.559 194.374 207.571 194.174 207.663C193.901 207.787 193.727 208.068 193.759 208.331C193.838 208.818 194.261 209.118 194.663 209.048C194.768 209.029 194.862 208.984 194.948 208.925C194.998 208.89 195.063 208.885 195.118 208.912C195.254 208.982 195.425 209.01 195.654 208.993C196.102 208.954 196.642 208.753 196.925 208.491C196.909 208.537 196.904 208.599 196.916 208.673C196.942 208.833 197.02 208.989 197.091 208.976C197.153 208.965 197.195 208.79 197.184 208.63C197.182 208.618 197.18 208.609 197.178 208.598C197.196 208.602 197.214 208.606 197.233 208.608C197.303 208.612 197.329 208.609 197.384 208.593C197.452 208.584 197.516 208.564 197.572 208.534C197.685 208.474 197.765 208.377 197.791 208.256C197.816 208.136 197.783 208.015 197.711 207.919C197.674 207.87 197.628 207.828 197.575 207.794C197.507 207.76 197.399 207.726 197.326 207.722Z" fill="black"/>
<path d="M192.394 209.052L192.349 209.109C192.343 209.098 192.338 209.09 192.332 209.078C192.238 208.944 192.077 208.852 191.998 208.916C191.926 208.975 191.973 209.157 192.077 209.282C192.126 209.341 192.177 209.376 192.224 209.394C191.816 209.451 191.294 209.832 191.021 210.256C190.881 210.468 190.828 210.66 190.83 210.821C190.832 210.888 190.802 210.953 190.746 210.992C190.598 211.095 190.483 211.262 190.436 211.474C190.373 211.761 190.495 212.067 190.728 212.202C191.171 212.435 191.671 212.286 191.858 211.931C191.907 211.838 191.927 211.737 191.931 211.634C191.932 211.574 191.968 211.521 192.024 211.494C192.163 211.43 192.289 211.314 192.414 211.125C192.654 210.752 192.817 210.21 192.776 209.83C192.804 209.871 192.851 209.912 192.918 209.948C193.064 210.025 193.238 210.058 193.27 209.995C193.299 209.94 193.183 209.801 193.046 209.713C193.034 209.707 193.026 209.703 193.016 209.698C193.03 209.686 193.044 209.675 193.057 209.662C193.103 209.609 193.116 209.587 193.137 209.534C193.17 209.475 193.192 209.414 193.202 209.352C193.222 209.228 193.192 209.106 193.109 209.013C193.027 208.921 192.909 208.874 192.787 208.872C192.725 208.87 192.663 208.88 192.603 208.902C192.534 208.934 192.442 208.997 192.394 209.052Z" fill="black"/>
<path d="M201.824 207.964C201.803 207.968 201.784 207.974 201.764 207.98C201.766 207.968 201.767 207.958 201.77 207.945C201.777 207.783 201.721 207.612 201.645 207.609C201.569 207.602 201.496 207.76 201.483 207.921C201.477 207.995 201.488 208.056 201.507 208.102C201.196 207.865 200.65 207.712 200.206 207.707C199.979 207.7 199.81 207.745 199.679 207.826C199.626 207.86 199.56 207.857 199.508 207.825C199.368 207.737 199.201 207.697 199.015 207.731C198.764 207.767 198.535 207.945 198.434 208.194C198.241 208.649 198.549 209.149 199.056 209.193C199.181 209.204 199.302 209.187 199.41 209.148C199.474 209.124 199.545 209.138 199.601 209.173C199.738 209.261 199.93 209.317 200.192 209.324C200.709 209.331 201.325 209.1 201.587 208.792C201.576 208.84 201.579 208.901 201.603 208.974C201.654 209.127 201.779 209.27 201.864 209.243C201.949 209.214 201.957 209.032 201.902 208.88C201.896 208.869 201.892 208.861 201.887 208.85L201.954 208.845C202.251 208.799 202.452 208.564 202.402 208.323C202.353 208.082 202.094 207.921 201.824 207.964Z" fill="black"/>
<path d="M186.731 207.805C186.722 207.824 186.718 207.844 186.712 207.863C186.702 207.855 186.695 207.849 186.685 207.84C186.55 207.746 186.373 207.7 186.328 207.761C186.282 207.82 186.378 207.965 186.509 208.062C186.571 208.108 186.628 208.132 186.678 208.14C186.307 208.269 185.88 208.637 185.635 209.001C185.507 209.184 185.455 209.348 185.454 209.499C185.454 209.561 185.416 209.613 185.361 209.639C185.209 209.707 185.085 209.824 185.013 209.996C184.909 210.221 184.939 210.507 185.097 210.724C185.384 211.129 185.98 211.145 186.292 210.751C186.369 210.654 186.42 210.545 186.444 210.435C186.458 210.369 186.509 210.318 186.569 210.29C186.719 210.225 186.871 210.097 187.018 209.886C187.303 209.462 187.437 208.829 187.314 208.448C187.35 208.482 187.404 208.513 187.479 208.532C187.638 208.573 187.828 208.548 187.851 208.463C187.871 208.377 187.72 208.272 187.56 208.235C187.547 208.234 187.538 208.233 187.526 208.232L187.558 208.174C187.678 207.903 187.585 207.611 187.351 207.522C187.118 207.433 186.839 207.56 186.731 207.805Z" fill="black"/>
<path d="M205.959 206.448C205.941 206.459 205.926 206.472 205.91 206.485C205.907 206.474 205.904 206.465 205.901 206.452C205.84 206.302 205.716 206.168 205.644 206.194C205.573 206.22 205.576 206.399 205.632 206.551C205.659 206.623 205.694 206.673 205.731 206.706C205.342 206.608 204.784 206.7 204.377 206.87C204.175 206.968 204.034 207.061 203.949 207.186C203.914 207.236 203.856 207.264 203.795 207.256C203.635 207.241 203.465 207.265 203.308 207.362C203.097 207.497 202.964 207.757 202.969 208.018C202.976 208.519 203.459 208.844 203.949 208.689C204.071 208.656 204.173 208.586 204.255 208.504C204.304 208.456 204.373 208.435 204.44 208.447C204.602 208.473 204.809 208.462 205.045 208.349C205.524 208.149 205.981 207.679 206.094 207.303C206.106 207.351 206.134 207.406 206.186 207.461C206.296 207.58 206.467 207.655 206.532 207.595C206.597 207.535 206.529 207.367 206.415 207.251C206.405 207.242 206.398 207.237 206.389 207.229L206.448 207.199C206.703 207.044 206.785 206.746 206.637 206.543C206.494 206.346 206.192 206.307 205.959 206.448Z" fill="black"/>
<path d="M209.208 203.471C209.195 203.488 209.186 203.506 209.176 203.524C209.169 203.514 209.163 203.506 209.155 203.496C209.043 203.377 208.878 203.297 208.822 203.348C208.768 203.399 208.829 203.559 208.938 203.681C208.989 203.737 209.04 203.773 209.087 203.79C208.889 203.813 208.667 203.898 208.461 204.018C208.245 204.131 208.04 204.275 207.889 204.437C207.729 204.596 207.637 204.743 207.606 204.891C207.592 204.951 207.549 205 207.49 205.016C207.335 205.064 207.184 205.151 207.078 205.303C206.933 205.508 206.919 205.804 207.032 206.041C207.245 206.497 207.813 206.6 208.199 206.277C208.297 206.2 208.364 206.1 208.406 205.994C208.431 205.931 208.486 205.886 208.552 205.872C208.711 205.837 208.889 205.747 209.071 205.566C209.245 205.381 209.404 205.146 209.512 204.907C209.611 204.66 209.664 204.414 209.647 204.217C209.675 204.258 209.722 204.298 209.791 204.332C209.939 204.404 210.132 204.418 210.168 204.337C210.206 204.257 210.08 204.125 209.93 204.057C209.918 204.053 209.909 204.05 209.898 204.047L209.941 203.997C210.116 203.757 210.086 203.453 209.876 203.319C209.666 203.185 209.366 203.253 209.208 203.471Z" fill="black"/>
<path d="M211.023 199.525C211.018 199.545 211.017 199.565 211.014 199.585C211.004 199.579 210.995 199.575 210.984 199.568C210.833 199.506 210.648 199.497 210.615 199.565C210.581 199.633 210.711 199.755 210.861 199.823C210.931 199.854 210.992 199.866 211.042 199.864C210.712 200.068 210.374 200.518 210.211 200.92C210.136 201.128 210.114 201.295 210.14 201.441C210.151 201.5 210.129 201.56 210.081 201.597C209.955 201.696 209.857 201.834 209.814 202.01C209.761 202.252 209.859 202.53 210.051 202.709C210.42 203.056 210.993 202.947 211.228 202.5C211.29 202.392 211.308 202.27 211.309 202.156C211.308 202.088 211.343 202.026 211.399 201.987C211.537 201.895 211.665 201.741 211.753 201.498C211.945 201.025 211.938 200.377 211.731 200.03C211.774 200.056 211.834 200.075 211.911 200.078C212.076 200.085 212.251 200.019 212.256 199.931C212.26 199.844 212.091 199.773 211.925 199.771C211.912 199.772 211.903 199.773 211.891 199.774L211.912 199.712C211.974 199.424 211.809 199.156 211.563 199.118C211.313 199.079 211.079 199.263 211.023 199.525Z" fill="black"/>
<path d="M211.095 195.172C211.098 195.193 211.105 195.212 211.11 195.231C211.098 195.229 211.089 195.228 211.075 195.227C210.911 195.222 210.736 195.282 210.732 195.358C210.727 195.434 210.894 195.502 211.059 195.51C211.136 195.513 211.197 195.502 211.242 195.481C211.013 195.793 210.875 196.343 210.889 196.78C210.904 197.003 210.946 197.167 211.033 197.291C211.067 197.342 211.073 197.406 211.044 197.459C210.971 197.6 210.927 197.766 210.968 197.946C211.027 198.189 211.215 198.403 211.471 198.491C211.947 198.661 212.439 198.334 212.461 197.835C212.469 197.712 212.449 197.594 212.398 197.49C212.369 197.429 212.375 197.359 212.41 197.302C212.495 197.165 212.556 196.974 212.539 196.72C212.523 196.217 212.268 195.628 211.944 195.383C211.994 195.392 212.057 195.387 212.129 195.362C212.285 195.308 212.423 195.184 212.394 195.102C212.365 195.02 212.181 195.016 212.027 195.074C212.015 195.08 212.007 195.084 211.996 195.09L211.992 195.025C211.95 194.772 211.737 194.583 211.484 194.592C211.235 194.601 211.045 194.869 211.095 195.172Z" fill="black"/>
<path d="M211.579 190.452L211.561 190.518C211.551 190.511 211.544 190.504 211.533 190.496C211.394 190.408 211.212 190.378 211.165 190.459C211.118 190.541 211.228 190.694 211.371 190.774C211.438 190.811 211.499 190.826 211.55 190.825C211.192 191.023 210.847 191.6 210.776 192.103C210.738 192.358 210.768 192.553 210.84 192.698C210.87 192.758 210.867 192.828 210.834 192.885C210.747 193.038 210.703 193.229 210.748 193.43C210.802 193.704 211.024 193.922 211.286 193.98C211.781 194.083 212.214 193.734 212.238 193.307C212.246 193.198 212.226 193.094 212.183 192.998C212.158 192.941 212.171 192.878 212.211 192.831C212.308 192.716 212.377 192.558 212.41 192.34C212.471 191.91 212.407 191.377 212.225 191.036C212.266 191.064 212.325 191.085 212.401 191.095C212.566 191.116 212.741 191.086 212.748 191.018C212.756 190.949 212.597 190.859 212.436 190.829C212.423 190.828 212.414 190.827 212.402 190.826C212.411 190.809 212.42 190.793 212.427 190.774C212.523 190.542 212.434 190.269 212.22 190.15C211.996 190.028 211.699 190.162 211.579 190.452Z" fill="black"/>
<path d="M201.044 210.575L200.978 210.579C200.982 210.568 200.985 210.559 200.99 210.547C201.028 210.389 201.001 210.21 200.923 210.193C200.845 210.179 200.739 210.322 200.694 210.475C200.673 210.548 200.672 210.609 200.684 210.657C200.556 210.517 200.369 210.389 200.163 210.289C200.061 210.233 199.955 210.176 199.847 210.132C199.79 210.111 199.736 210.091 199.684 210.072L199.602 210.046C199.538 210.032 199.475 210.018 199.413 210.005C199.351 210.002 199.292 210.001 199.234 209.999C198.984 209.993 198.794 210.033 198.651 210.11C198.592 210.141 198.52 210.143 198.462 210.111C198.306 210.026 198.121 209.986 197.921 210.016C197.649 210.057 197.413 210.235 197.307 210.481C197.098 210.938 197.453 211.437 197.995 211.482C198.129 211.493 198.257 211.476 198.371 211.434C198.438 211.41 198.515 211.42 198.574 211.457C198.719 211.549 198.919 211.609 199.196 211.616C199.247 211.617 199.249 211.616 199.254 211.614L199.256 211.611C199.266 211.612 199.208 211.601 199.248 211.606L199.351 211.616C199.418 211.618 199.487 211.621 199.561 211.624C199.701 211.624 199.839 211.619 199.972 211.598C200.238 211.546 200.474 211.461 200.632 211.35C200.612 211.395 200.602 211.456 200.614 211.532C200.637 211.696 200.744 211.856 200.842 211.84C200.94 211.826 200.984 211.649 200.953 211.49C200.949 211.478 200.946 211.469 200.943 211.458L201.015 211.465C201.344 211.477 201.602 211.274 201.591 211.023C201.58 210.783 201.335 210.586 201.044 210.575Z" fill="black"/>
<path d="M205.672 209.54L205.615 209.574C205.613 209.562 205.612 209.553 205.61 209.54C205.57 209.382 205.461 209.237 205.381 209.258C205.3 209.276 205.272 209.452 205.307 209.611C205.324 209.684 205.353 209.738 205.386 209.776C204.995 209.652 204.383 209.688 203.926 209.82C203.692 209.884 203.533 209.984 203.422 210.098C203.377 210.142 203.31 210.162 203.246 210.146C203.077 210.101 202.895 210.121 202.714 210.199C202.468 210.299 202.283 210.538 202.246 210.805C202.168 211.298 202.633 211.687 203.183 211.591C203.317 211.564 203.439 211.511 203.54 211.441C203.6 211.4 203.678 211.388 203.748 211.409C203.917 211.454 204.133 211.444 204.406 211.368C204.943 211.212 205.501 210.789 205.675 210.41C205.679 210.46 205.701 210.517 205.747 210.578C205.845 210.709 206.014 210.804 206.093 210.752C206.17 210.697 206.125 210.52 206.023 210.393C206.014 210.384 206.008 210.378 205.999 210.369L206.066 210.343C206.354 210.201 206.49 209.91 206.371 209.694C206.251 209.478 205.938 209.409 205.672 209.54Z" fill="black"/>
<path d="M213.098 206.681L213.071 206.742C213.063 206.732 213.056 206.725 213.047 206.715C212.923 206.608 212.749 206.549 212.696 206.612C212.639 206.671 212.719 206.832 212.839 206.942C212.895 206.994 212.951 207.022 213 207.034C212.606 207.15 212.124 207.521 211.825 207.886C211.67 208.068 211.597 208.239 211.573 208.395C211.561 208.456 211.517 208.51 211.456 208.532C211.291 208.59 211.152 208.707 211.049 208.873C210.904 209.092 210.892 209.391 211.016 209.632C211.239 210.08 211.847 210.141 212.244 209.756C212.338 209.658 212.407 209.547 212.45 209.433C212.475 209.366 212.533 209.313 212.603 209.29C212.768 209.233 212.939 209.105 213.119 208.89C213.471 208.462 213.683 207.804 213.606 207.395C213.638 207.433 213.689 207.469 213.763 207.493C213.92 207.546 214.114 207.529 214.149 207.443C214.18 207.354 214.04 207.234 213.883 207.186C213.87 207.184 213.861 207.182 213.849 207.18L213.888 207.121C214.043 206.844 213.986 206.529 213.762 206.418C213.538 206.307 213.24 206.425 213.098 206.681Z" fill="black"/>
<path d="M209.629 206.795L209.585 206.845C209.58 206.834 209.575 206.826 209.569 206.813C209.482 206.676 209.332 206.571 209.261 206.616C209.191 206.663 209.221 206.842 209.304 206.98C209.344 207.044 209.389 207.087 209.434 207.111C209.017 207.113 208.443 207.357 208.053 207.652C207.858 207.807 207.734 207.946 207.674 208.096C207.649 208.156 207.595 208.202 207.53 208.213C207.359 208.248 207.184 208.322 207.046 208.47C206.861 208.672 206.789 208.965 206.867 209.217C207.012 209.697 207.594 209.864 208.043 209.567C208.157 209.497 208.246 209.405 208.307 209.3C208.344 209.238 208.409 209.198 208.479 209.19C208.649 209.17 208.853 209.099 209.067 208.929C209.5 208.602 209.869 208.031 209.914 207.623C209.934 207.668 209.973 207.716 210.036 207.76C210.173 207.855 210.36 207.892 210.414 207.816C210.469 207.742 210.37 207.589 210.233 207.498C210.222 207.492 210.214 207.488 210.203 207.483L210.258 207.438C210.486 207.221 210.526 206.905 210.347 206.733C210.167 206.561 209.846 206.589 209.629 206.795Z" fill="black"/>
<path d="M212.531 203.031L212.509 203.092C212.499 203.084 212.492 203.077 212.482 203.069C212.35 202.971 212.171 202.926 212.123 202.991C212.077 203.055 212.171 203.209 212.298 203.309C212.358 203.356 212.415 203.381 212.465 203.389C212.077 203.53 211.632 203.927 211.35 204.31C211.21 204.507 211.147 204.682 211.127 204.837C211.121 204.901 211.082 204.959 211.023 204.987C210.866 205.064 210.731 205.191 210.636 205.368C210.513 205.61 210.532 205.915 210.68 206.134C210.96 206.554 211.561 206.548 211.911 206.144C211.998 206.045 212.052 205.926 212.084 205.81C212.103 205.742 212.154 205.684 212.221 205.657C212.385 205.594 212.547 205.457 212.708 205.23C213.034 204.788 213.2 204.106 213.097 203.705C213.132 203.741 213.185 203.773 213.261 203.792C213.423 203.834 213.615 203.801 213.638 203.708C213.664 203.616 213.516 203.507 213.354 203.472C213.341 203.471 213.332 203.47 213.32 203.469L213.355 203.407C213.497 203.119 213.401 202.804 213.166 202.714C212.934 202.625 212.66 202.772 212.531 203.031Z" fill="black"/>
<path d="M213.614 198.428L213.615 198.495C213.604 198.491 213.595 198.487 213.583 198.482C213.423 198.436 213.241 198.457 213.216 198.538C213.192 198.619 213.337 198.733 213.495 198.781C213.569 198.803 213.632 198.805 213.681 198.793C213.376 199.07 213.124 199.638 213.037 200.109C213 200.352 213.012 200.537 213.067 200.685C213.089 200.745 213.081 200.814 213.04 200.865C212.937 201.002 212.858 201.168 212.859 201.367C212.863 201.636 212.992 201.894 213.227 202.038C213.652 202.307 214.217 202.057 214.348 201.533C214.384 201.404 214.388 201.276 214.361 201.157C214.347 201.088 214.367 201.014 214.415 200.962C214.531 200.833 214.625 200.644 214.666 200.376C214.763 199.846 214.637 199.187 214.387 198.856C214.434 198.877 214.495 198.887 214.572 198.877C214.736 198.858 214.901 198.763 214.893 198.673C214.886 198.582 214.707 198.533 214.543 198.555C214.531 198.559 214.522 198.561 214.51 198.564C214.515 198.541 214.519 198.519 214.52 198.496C214.541 198.188 214.355 197.926 214.104 197.913C213.853 197.899 213.634 198.13 213.614 198.428Z" fill="black"/>
<path d="M213.217 193.653C213.221 193.677 213.227 193.699 213.233 193.721C213.221 193.719 213.211 193.717 213.198 193.715C213.032 193.704 212.859 193.765 212.856 193.855C212.854 193.944 213.024 194.027 213.189 194.036C213.266 194.04 213.327 194.027 213.372 194.003C213.146 194.35 213.062 194.994 213.143 195.488C213.184 195.739 213.263 195.915 213.368 196.039C213.411 196.09 213.426 196.158 213.405 196.22C213.35 196.384 213.348 196.571 213.41 196.74C213.456 196.869 213.525 196.924 213.619 197.032C213.71 197.132 213.828 197.208 213.958 197.245C214.203 197.314 214.438 197.256 214.617 197.115C214.707 197.053 214.778 196.943 214.824 196.804C214.866 196.68 214.885 196.538 214.869 196.406C214.855 196.27 214.812 196.149 214.748 196.048C214.711 195.988 214.706 195.911 214.731 195.848C214.795 195.692 214.816 195.49 214.774 195.231C214.689 194.722 214.395 194.151 214.073 193.895C214.123 193.903 214.185 193.898 214.257 193.871C214.412 193.813 214.549 193.688 214.52 193.608C214.491 193.527 214.306 193.519 214.151 193.576C214.14 193.582 214.132 193.585 214.121 193.591L214.117 193.524C214.072 193.23 213.844 193.019 213.594 193.043C213.345 193.067 213.171 193.346 213.217 193.653Z" fill="black"/>
<path d="M192.232 203.076C192.227 203.094 192.224 203.113 192.221 203.131C192.21 203.124 192.203 203.119 192.192 203.112C192.045 203.032 191.872 203 191.832 203.052C191.789 203.103 191.899 203.234 192.034 203.326C192.097 203.368 192.155 203.391 192.205 203.397C191.86 203.537 191.416 203.837 191.152 204.17C191.007 204.336 190.929 204.489 190.909 204.639C190.9 204.7 190.862 204.752 190.804 204.772C190.641 204.82 190.497 204.921 190.398 205.082C190.269 205.305 190.249 205.591 190.377 205.826C190.609 206.264 191.2 206.355 191.57 205.993C191.663 205.906 191.731 205.804 191.773 205.698C191.797 205.632 191.85 205.58 191.916 205.56C192.077 205.508 192.254 205.398 192.432 205.192C192.775 204.769 192.998 204.092 192.852 203.682C192.889 203.716 192.944 203.746 193.02 203.761C193.182 203.794 193.375 203.744 193.401 203.647C193.425 203.549 193.26 203.45 193.098 203.432H193.064L193.092 203.366C193.203 203.051 193.047 202.755 192.795 202.717C192.551 202.681 192.316 202.845 192.232 203.076Z" fill="black"/>
<path d="M191.916 198.653L191.926 198.719C191.914 198.716 191.905 198.714 191.891 198.71C191.728 198.687 191.549 198.732 191.538 198.818C191.526 198.905 191.69 198.996 191.854 199.017C191.931 199.026 191.993 199.018 192.04 198.999C191.776 199.292 191.665 199.984 191.774 200.472C191.827 200.722 191.912 200.88 192.023 200.993C192.07 201.039 192.088 201.103 192.069 201.161C192.021 201.318 192.026 201.488 192.094 201.647C192.194 201.865 192.404 202.031 192.677 202.094C192.923 202.149 193.16 202.091 193.322 201.931C193.491 201.77 193.577 201.516 193.538 201.255C193.518 201.125 193.467 201.014 193.4 200.917C193.361 200.861 193.351 200.788 193.374 200.728C193.43 200.578 193.441 200.381 193.393 200.153C193.294 199.699 193.044 199.229 192.747 198.945C192.796 198.956 192.858 198.955 192.933 198.935C193.091 198.891 193.237 198.784 193.217 198.709C193.196 198.632 193.014 198.611 192.854 198.652C192.842 198.656 192.833 198.66 192.822 198.664L192.824 198.601C192.804 198.322 192.599 198.102 192.347 198.107C192.097 198.112 191.896 198.358 191.916 198.653Z" fill="black"/>
<path d="M192.614 193.888L192.592 193.953C192.583 193.946 192.576 193.939 192.565 193.93C192.43 193.837 192.249 193.8 192.198 193.879C192.148 193.957 192.249 194.114 192.388 194.201C192.454 194.242 192.513 194.259 192.564 194.261C192.202 194.445 191.805 195.01 191.716 195.532C191.657 195.794 191.692 195.998 191.752 196.15C191.777 196.212 191.773 196.285 191.739 196.343C191.649 196.498 191.597 196.695 191.638 196.903C191.69 197.186 191.898 197.411 192.165 197.476C192.656 197.592 193.096 197.241 193.131 196.809C193.142 196.699 193.125 196.593 193.084 196.494C193.06 196.436 193.074 196.373 193.117 196.327C193.225 196.216 193.287 196.056 193.337 195.84C193.41 195.41 193.395 194.865 193.228 194.504C193.268 194.535 193.326 194.559 193.401 194.572C193.564 194.599 193.744 194.573 193.756 194.5C193.77 194.428 193.615 194.33 193.454 194.296C193.441 194.295 193.432 194.294 193.42 194.293C193.43 194.275 193.441 194.258 193.449 194.239C193.55 193.991 193.484 193.71 193.258 193.593C193.042 193.479 192.732 193.603 192.614 193.888Z" fill="black"/>
<path d="M195.789 193.279L195.755 193.338C195.747 193.329 195.742 193.321 195.733 193.31C195.62 193.192 195.451 193.119 195.385 193.186C195.319 193.252 195.386 193.426 195.503 193.539C195.559 193.592 195.613 193.621 195.663 193.633C195.27 193.74 194.763 194.214 194.567 194.707C194.454 194.951 194.445 195.157 194.472 195.319C194.484 195.385 194.464 195.455 194.419 195.505C194.298 195.639 194.206 195.822 194.202 196.033C194.194 196.321 194.35 196.583 194.598 196.7C195.055 196.912 195.559 196.656 195.684 196.241C195.717 196.136 195.722 196.028 195.704 195.924C195.692 195.862 195.719 195.803 195.771 195.767C195.9 195.679 195.994 195.536 196.088 195.335C196.25 194.928 196.349 194.392 196.261 194.006C196.294 194.043 196.345 194.079 196.416 194.106C196.571 194.166 196.752 194.176 196.78 194.108C196.808 194.04 196.677 193.913 196.526 193.847C196.514 193.843 196.506 193.841 196.494 193.837C196.508 193.822 196.522 193.807 196.534 193.79C196.685 193.567 196.679 193.28 196.482 193.119C196.294 192.964 195.965 193.023 195.789 193.279Z" fill="black"/>
<path d="M195.78 190.184C195.762 190.198 195.746 190.214 195.729 190.229C195.725 190.218 195.722 190.208 195.718 190.196C195.649 190.048 195.514 189.925 195.433 189.966C195.352 190.007 195.36 190.193 195.432 190.338C195.466 190.406 195.508 190.452 195.55 190.479C195.135 190.438 194.526 190.71 194.147 191.07C193.958 191.263 193.857 191.444 193.82 191.605C193.803 191.669 193.763 191.733 193.7 191.763C193.535 191.846 193.376 191.983 193.292 192.185C193.18 192.463 193.225 192.761 193.423 192.954C193.784 193.298 194.341 193.23 194.599 192.901C194.668 192.818 194.711 192.722 194.733 192.62C194.746 192.561 194.788 192.512 194.851 192.499C195.002 192.466 195.152 192.381 195.308 192.221C195.636 191.911 195.922 191.41 195.985 191.028C196.003 191.074 196.038 191.124 196.096 191.174C196.221 191.281 196.389 191.345 196.44 191.287C196.491 191.228 196.409 191.066 196.289 190.957C196.278 190.949 196.271 190.944 196.262 190.937L196.315 190.904C196.545 190.749 196.621 190.456 196.486 190.248C196.35 190.041 196.034 190.012 195.78 190.184Z" fill="black"/>
<path d="M200.345 188.368L200.278 188.383C200.28 188.371 200.282 188.362 200.284 188.349C200.298 188.187 200.24 188.015 200.147 188.013C200.054 188.011 199.967 188.177 199.96 188.339C199.956 188.415 199.971 188.474 199.994 188.518C199.649 188.291 198.961 188.247 198.451 188.42C198.191 188.502 198.021 188.622 197.918 188.756C197.876 188.81 197.809 188.842 197.739 188.84C197.552 188.833 197.358 188.902 197.188 189.033C196.96 189.221 196.869 189.518 196.945 189.77C197.097 190.247 197.622 190.435 198.018 190.256C198.119 190.211 198.201 190.137 198.27 190.06C198.31 190.014 198.373 189.994 198.434 190.007C198.583 190.036 198.758 190.023 198.973 189.955C199.393 189.812 199.871 189.513 200.11 189.204C200.103 189.253 200.11 189.313 200.136 189.384C200.194 189.536 200.308 189.673 200.379 189.646C200.45 189.619 200.458 189.438 200.408 189.285C200.402 189.274 200.399 189.266 200.394 189.255L200.456 189.251C200.729 189.228 200.942 189.006 200.931 188.764C200.919 188.515 200.657 188.34 200.345 188.368Z" fill="black"/>
<path d="M195.699 209.962L195.641 210C195.64 209.988 195.638 209.979 195.635 209.965C195.591 209.809 195.475 209.668 195.387 209.698C195.299 209.728 195.277 209.913 195.328 210.067C195.351 210.139 195.386 210.19 195.424 210.224C195.02 210.129 194.359 210.324 193.944 210.661C193.73 210.828 193.613 210.998 193.565 211.159C193.544 211.224 193.494 211.277 193.427 211.299C193.25 211.357 193.092 211.488 192.98 211.669C192.834 211.923 192.855 212.233 193.016 212.443C193.329 212.837 193.889 212.832 194.195 212.529C194.274 212.453 194.323 212.355 194.361 212.259C194.382 212.202 194.434 212.162 194.496 212.153C194.646 212.13 194.804 212.057 194.982 211.92C195.324 211.642 195.665 211.198 195.778 210.826C195.789 210.874 195.817 210.929 195.867 210.986C195.975 211.108 196.131 211.197 196.188 211.148C196.245 211.098 196.188 210.926 196.086 210.8C196.077 210.791 196.071 210.785 196.062 210.777L196.119 210.752C196.367 210.636 196.486 210.355 196.389 210.132C196.289 209.903 195.981 209.829 195.699 209.962Z" fill="black"/>
<path d="M205.104 188.684L205.044 188.693C205.047 188.681 205.049 188.672 205.053 188.66C205.078 188.5 205.042 188.325 204.971 188.307C204.9 188.29 204.812 188.441 204.777 188.599C204.761 188.673 204.763 188.734 204.776 188.781C204.5 188.508 204.013 188.267 203.542 188.178C203.303 188.135 203.105 188.151 202.95 188.21C202.888 188.233 202.815 188.227 202.755 188.191C202.599 188.089 202.395 188.039 202.176 188.072C201.878 188.107 201.64 188.326 201.574 188.579C201.458 189.065 201.807 189.488 202.23 189.536C202.34 189.544 202.446 189.537 202.546 189.501C202.604 189.48 202.67 189.495 202.718 189.54C202.832 189.644 202.998 189.724 203.25 189.77C203.745 189.866 204.446 189.75 204.76 189.476C204.742 189.523 204.736 189.584 204.751 189.658C204.782 189.817 204.896 189.97 204.992 189.955C205.088 189.941 205.119 189.76 205.078 189.604C205.074 189.592 205.07 189.583 205.067 189.572C205.09 189.574 205.113 189.575 205.137 189.574C205.459 189.558 205.688 189.331 205.65 189.083C205.613 188.845 205.369 188.671 205.104 188.684Z" fill="black"/>
<path d="M209.183 187.035L209.135 187.076C209.131 187.064 209.127 187.056 209.123 187.043C209.054 186.897 208.921 186.772 208.848 186.803C208.775 186.834 208.785 187.012 208.852 187.16C208.883 187.23 208.921 187.278 208.961 187.308C208.568 187.253 207.995 187.388 207.6 187.589C207.398 187.693 207.273 187.817 207.192 187.937C207.16 187.987 207.103 188.018 207.042 188.013C206.879 188.004 206.716 188.042 206.565 188.138C206.364 188.282 206.233 188.53 206.236 188.795C206.23 189.294 206.738 189.628 207.255 189.443C207.384 189.401 207.484 189.32 207.568 189.235C207.616 189.184 207.688 189.159 207.759 189.166C207.933 189.19 208.134 189.142 208.374 189.018C208.851 188.775 209.284 188.276 209.365 187.879C209.38 187.927 209.412 187.979 209.468 188.031C209.587 188.143 209.764 188.206 209.827 188.144C209.889 188.081 209.811 187.917 209.688 187.808C209.678 187.8 209.67 187.795 209.661 187.788L209.719 187.755C209.971 187.586 210.026 187.269 209.875 187.079C209.717 186.882 209.418 186.88 209.183 187.035Z" fill="black"/>
<path d="M189.663 200.998L189.683 201.06C189.67 201.059 189.661 201.058 189.648 201.057C189.483 201.061 189.313 201.133 189.315 201.219C189.312 201.249 189.339 201.227 189.4 201.233C189.46 201.233 189.538 201.265 189.62 201.268C189.696 201.275 189.758 201.269 189.806 201.254C189.545 201.497 189.306 201.992 189.232 202.424C189.194 202.642 189.211 202.812 189.268 202.949C189.291 203.006 189.283 203.069 189.242 203.113C189.134 203.233 189.066 203.382 189.065 203.559C189.061 203.793 189.194 204.03 189.414 204.191C189.811 204.506 190.398 204.292 190.542 203.783C190.58 203.659 190.58 203.537 190.558 203.424C190.546 203.357 190.567 203.288 190.613 203.239C190.728 203.12 190.817 202.941 190.861 202.687C190.947 202.187 190.815 201.538 190.514 201.213C190.562 201.227 190.625 201.229 190.699 201.207C190.778 201.179 190.859 201.145 190.907 201.07C190.955 201 190.972 200.89 190.953 200.841C190.922 200.771 190.738 200.78 190.587 200.845C190.575 200.851 190.567 200.856 190.557 200.862L190.55 200.801C190.492 200.533 190.244 200.354 189.998 200.399C189.751 200.444 189.601 200.713 189.663 200.998Z" fill="black"/>
<path d="M189.346 196.319L189.344 196.385C189.333 196.38 189.324 196.376 189.312 196.371C189.154 196.322 188.97 196.337 188.945 196.421C188.92 196.505 189.064 196.622 189.222 196.666C189.296 196.687 189.358 196.688 189.408 196.676C189.11 196.943 188.886 197.549 188.904 198.052C188.903 198.307 188.978 198.492 189.07 198.624C189.108 198.678 189.119 198.747 189.095 198.809C189.025 198.974 189.025 199.166 189.098 199.358C189.197 199.619 189.441 199.8 189.716 199.819C190.218 199.851 190.595 199.438 190.549 199.005C190.534 198.896 190.499 198.794 190.444 198.705C190.412 198.653 190.412 198.588 190.444 198.534C190.525 198.404 190.553 198.234 190.555 198.01C190.539 197.568 190.373 197.029 190.115 196.73C190.161 196.748 190.223 196.757 190.3 196.748C190.464 196.73 190.629 196.653 190.62 196.578C190.612 196.503 190.435 196.453 190.271 196.467C190.258 196.47 190.249 196.471 190.237 196.473L190.249 196.414C190.272 196.145 190.109 195.898 189.863 195.859C189.614 195.82 189.371 196.025 189.346 196.319Z" fill="black"/>
<path d="M190.843 191.836L190.814 191.896C190.806 191.887 190.799 191.88 190.79 191.87C190.668 191.761 190.495 191.7 190.436 191.767C190.378 191.834 190.459 192 190.585 192.105C190.643 192.154 190.7 192.18 190.75 192.189C190.548 192.248 190.344 192.398 190.158 192.593C189.965 192.784 189.808 193.026 189.718 193.265C189.621 193.506 189.598 193.702 189.642 193.863C189.658 193.928 189.642 193.998 189.596 194.047C189.478 194.18 189.381 194.357 189.388 194.567C189.389 194.852 189.551 195.108 189.797 195.218C190.257 195.418 190.764 195.165 190.87 194.754C190.903 194.651 190.907 194.546 190.888 194.444C190.877 194.384 190.901 194.324 190.95 194.287C191.063 194.194 191.173 194.059 191.256 193.854C191.332 193.649 191.383 193.41 191.412 193.178C191.434 192.943 191.417 192.706 191.371 192.524C191.406 192.56 191.459 192.592 191.532 192.615C191.689 192.666 191.87 192.662 191.893 192.591C191.916 192.52 191.776 192.403 191.621 192.348C191.609 192.346 191.6 192.343 191.589 192.341C191.601 192.324 191.614 192.309 191.624 192.291C191.753 192.055 191.723 191.772 191.512 191.632C191.308 191.496 190.987 191.574 190.843 191.836Z" fill="black"/>
<path d="M213.83 188.168L213.822 188.234C213.811 188.228 213.803 188.223 213.791 188.217C213.639 188.153 213.455 188.15 213.422 188.232C213.389 188.315 213.521 188.446 213.674 188.505C213.746 188.532 213.808 188.539 213.858 188.532C213.687 188.651 213.544 188.858 213.432 189.101C213.313 189.343 213.244 189.622 213.238 189.877C213.226 190.136 213.269 190.329 213.364 190.467C213.4 190.524 213.409 190.595 213.381 190.656C213.314 190.819 213.28 191.017 213.357 191.214C213.452 191.483 213.69 191.674 213.958 191.7C214.461 191.743 214.856 191.342 214.821 190.92C214.818 190.812 214.787 190.712 214.735 190.621C214.705 190.568 214.708 190.504 214.741 190.453C214.818 190.329 214.877 190.166 214.888 189.946C214.892 189.728 214.862 189.486 214.812 189.257C214.755 189.028 214.661 188.809 214.557 188.652C214.602 188.674 214.662 188.688 214.74 188.687C214.905 188.685 215.075 188.624 215.073 188.549C215.072 188.475 214.9 188.409 214.735 188.406C214.723 188.407 214.714 188.408 214.702 188.409C214.708 188.39 214.715 188.372 214.719 188.351C214.763 188.087 214.641 187.828 214.395 187.762C214.157 187.699 213.88 187.875 213.83 188.168Z" fill="black"/>
<path d="M194.108 188.38L194.058 188.423C194.054 188.411 194.051 188.403 194.046 188.39C193.977 188.243 193.842 188.12 193.761 188.158C193.681 188.196 193.69 188.378 193.763 188.522C193.797 188.59 193.839 188.636 193.88 188.664C193.481 188.631 192.871 188.872 192.504 189.226C192.311 189.395 192.219 189.578 192.183 189.735C192.168 189.8 192.123 189.856 192.06 189.881C191.892 189.948 191.732 190.069 191.646 190.263C191.522 190.521 191.556 190.82 191.73 191.023C192.057 191.395 192.631 191.383 192.901 191.052C192.976 190.973 193.027 190.88 193.055 190.781C193.072 190.722 193.12 190.679 193.181 190.665C193.331 190.634 193.474 190.544 193.647 190.394C193.968 190.084 194.267 189.604 194.316 189.212C194.334 189.258 194.369 189.308 194.427 189.358C194.552 189.465 194.722 189.532 194.773 189.476C194.824 189.419 194.742 189.258 194.621 189.148C194.611 189.141 194.603 189.135 194.594 189.128L194.647 189.097C194.868 188.934 194.939 188.644 194.803 188.442C194.661 188.234 194.349 188.203 194.108 188.38Z" fill="black"/>
<path d="M198.431 186.335L198.368 186.359C198.369 186.346 198.37 186.337 198.37 186.324C198.36 186.161 198.28 185.999 198.191 186.008C198.103 186.016 198.044 186.191 198.058 186.352C198.064 186.427 198.086 186.484 198.115 186.526C197.751 186.34 197.092 186.358 196.618 186.562C196.376 186.658 196.221 186.782 196.132 186.922C196.095 186.978 196.033 187.014 195.966 187.015C195.785 187.019 195.594 187.079 195.442 187.225C195.233 187.417 195.152 187.707 195.237 187.958C195.4 188.423 195.939 188.619 196.32 188.407C196.42 188.358 196.502 188.289 196.564 188.205C196.602 188.155 196.663 188.131 196.725 188.14C196.874 188.158 197.049 188.136 197.261 188.052C197.67 187.875 198.121 187.526 198.316 187.192C198.316 187.241 198.33 187.3 198.365 187.368C198.441 187.511 198.573 187.632 198.641 187.596C198.709 187.56 198.693 187.38 198.621 187.235C198.615 187.225 198.61 187.217 198.604 187.207L198.664 187.196C198.93 187.126 199.108 186.891 199.056 186.647C199.004 186.409 198.722 186.259 198.431 186.335Z" fill="black"/>
<path d="M203.235 186.065L203.168 186.061C203.173 186.05 203.177 186.042 203.183 186.03C203.24 185.878 203.233 185.697 203.148 185.669C203.062 185.642 202.936 185.778 202.884 185.931C202.859 186.002 202.856 186.064 202.866 186.113C202.606 185.803 201.987 185.57 201.467 185.573C201.204 185.57 201.011 185.638 200.873 185.725C200.818 185.762 200.746 185.771 200.682 185.746C200.513 185.682 200.313 185.681 200.115 185.75C199.843 185.839 199.661 186.099 199.643 186.36C199.619 186.859 200.04 187.208 200.473 187.174C200.583 187.164 200.685 187.122 200.775 187.069C200.828 187.039 200.894 187.041 200.948 187.073C201.078 187.154 201.248 187.188 201.474 187.19C201.918 187.188 202.467 187.037 202.781 186.803C202.761 186.847 202.751 186.908 202.756 186.983C202.767 187.145 202.838 187.308 202.914 187.302C202.991 187.296 203.049 187.125 203.042 186.964C203.04 186.951 203.039 186.942 203.037 186.931C203.057 186.936 203.077 186.942 203.097 186.945C203.369 186.978 203.632 186.832 203.681 186.589C203.729 186.35 203.536 186.102 203.235 186.065Z" fill="black"/>
<path d="M207.513 185.691L207.455 185.718C207.454 185.706 207.453 185.697 207.452 185.684C207.424 185.525 207.328 185.371 207.246 185.385C207.165 185.398 207.128 185.575 207.157 185.734C207.17 185.808 207.196 185.864 207.227 185.903C206.859 185.748 206.244 185.779 205.825 185.913C205.721 185.946 205.635 185.984 205.584 186.02C205.545 186.043 205.559 186.051 205.552 186.071C205.549 186.09 205.503 186.111 205.484 186.134C205.443 186.173 205.387 186.18 205.34 186.153C205.213 186.08 205.075 186.051 204.907 186.081C204.679 186.122 204.439 186.292 204.33 186.537C204.128 186.985 204.395 187.498 204.97 187.545C205.111 187.556 205.25 187.53 205.368 187.48C205.438 187.448 205.519 187.452 205.587 187.48C205.635 187.496 205.662 187.516 205.738 187.522C205.809 187.528 205.909 187.525 205.958 187.522C206.088 187.515 206.205 187.492 206.335 187.452C206.832 187.292 207.308 186.908 207.481 186.551C207.484 186.601 207.503 186.659 207.544 186.723C207.632 186.86 207.781 186.966 207.852 186.923C207.923 186.879 207.888 186.701 207.8 186.565C207.792 186.555 207.786 186.548 207.779 186.539L207.841 186.521C208.11 186.419 208.254 186.151 208.164 185.922C208.074 185.692 207.782 185.589 207.513 185.691Z" fill="black"/>
<path d="M186.755 197.667L186.77 197.737C186.757 197.735 186.748 197.732 186.734 197.73C186.569 197.712 186.393 197.768 186.389 197.863C186.386 197.959 186.554 198.052 186.718 198.063C186.795 198.069 186.857 198.056 186.902 198.033C186.664 198.383 186.633 199.1 186.735 199.556C186.788 199.802 186.874 199.974 186.984 200.094C187.029 200.143 187.048 200.212 187.03 200.275C186.982 200.444 186.989 200.632 187.066 200.816C187.173 201.065 187.406 201.246 187.675 201.29C188.177 201.384 188.59 200.919 188.501 200.392C188.48 200.262 188.432 200.144 188.364 200.045C188.324 199.987 188.315 199.912 188.338 199.847C188.395 199.687 188.406 199.482 188.35 199.221C188.23 198.68 187.917 198.19 187.604 197.931C187.653 197.94 187.716 197.934 187.788 197.909C187.945 197.853 188.086 197.737 188.06 197.661C188.033 197.585 187.849 197.572 187.692 197.622C187.68 197.627 187.672 197.631 187.661 197.635L187.658 197.571C187.618 197.285 187.42 197.058 187.163 197.068C186.918 197.078 186.711 197.348 186.755 197.667Z" fill="black"/>
<path d="M187.512 192.623L187.492 192.691C187.482 192.683 187.475 192.677 187.464 192.668C187.327 192.575 187.146 192.542 187.097 192.624C187.048 192.705 187.151 192.865 187.29 192.953C187.354 192.994 187.414 193.011 187.466 193.012C187.085 193.206 186.694 193.791 186.576 194.334C186.504 194.605 186.534 194.824 186.59 194.986C186.614 195.052 186.608 195.129 186.568 195.19C186.46 195.351 186.426 195.563 186.453 195.786C186.486 196.089 186.714 196.332 186.974 196.4C187.471 196.521 187.895 196.154 187.949 195.704C187.961 195.589 187.938 195.476 187.91 195.373C187.891 195.312 187.907 195.244 187.95 195.196C188.061 195.079 188.125 194.913 188.188 194.683C188.287 194.227 188.276 193.628 188.13 193.255C188.17 193.286 188.227 193.31 188.303 193.322C188.467 193.346 188.647 193.31 188.661 193.23C188.675 193.15 188.52 193.052 188.358 193.022C188.345 193.022 188.336 193.021 188.324 193.02L188.353 192.961C188.465 192.692 188.391 192.395 188.162 192.288C187.939 192.182 187.636 192.327 187.512 192.623Z" fill="black"/>
<path d="M190.37 188.402L190.325 188.456C190.319 188.446 190.314 188.437 190.308 188.425C190.215 188.292 190.057 188.196 189.981 188.251C189.903 188.304 189.946 188.493 190.043 188.624C190.088 188.686 190.137 188.724 190.184 188.743C189.762 188.789 189.185 189.167 188.853 189.6C188.69 189.822 188.615 190.02 188.598 190.188C188.591 190.257 188.552 190.323 188.491 190.36C188.332 190.463 188.2 190.629 188.127 190.837C188.022 191.119 188.113 191.435 188.311 191.612C188.696 191.943 189.247 191.805 189.506 191.415C189.57 191.314 189.605 191.203 189.619 191.093C189.63 191.028 189.675 190.974 189.737 190.948C189.887 190.885 190.033 190.764 190.178 190.566C190.473 190.182 190.709 189.613 190.711 189.208C190.736 189.251 190.78 189.294 190.846 189.333C190.99 189.414 191.169 189.438 191.216 189.37C191.263 189.3 191.154 189.155 191.013 189.07C191.001 189.065 190.993 189.061 190.982 189.056L191.033 189.012C191.242 188.799 191.269 188.484 191.093 188.309C190.916 188.134 190.593 188.176 190.37 188.402Z" fill="black"/>
<path d="M187.12 202.939L187.131 203.008C187.119 203.005 187.11 203.003 187.097 203C186.933 202.979 186.755 203.031 186.746 203.124C186.735 203.216 186.908 203.309 187.072 203.326C187.149 203.334 187.21 203.323 187.256 203.301C187.011 203.641 186.916 204.314 187.025 204.845C187.086 205.112 187.187 205.299 187.304 205.423C187.352 205.474 187.376 205.546 187.364 205.616C187.337 205.8 187.375 206.007 187.486 206.199C187.631 206.463 187.932 206.607 188.199 206.579C188.708 206.518 188.968 206.023 188.843 205.574C188.809 205.46 188.748 205.361 188.673 205.277C188.631 205.226 188.619 205.157 188.64 205.094C188.692 204.942 188.697 204.756 188.643 204.518C188.546 204.047 188.269 203.496 187.961 203.225C188.011 203.235 188.073 203.232 188.147 203.209C188.304 203.158 188.441 203.044 188.421 202.963C188.399 202.883 188.215 202.865 188.057 202.912C188.045 202.917 188.036 202.921 188.025 202.926L188.026 202.859C188.002 202.564 187.78 202.335 187.53 202.348C187.279 202.361 187.095 202.625 187.12 202.939Z" fill="black"/>
<path d="M194.377 185.222L194.315 185.26C194.313 185.248 194.312 185.239 194.31 185.225C194.263 185.07 194.143 184.932 194.05 184.962C193.959 184.995 193.939 185.186 193.991 185.34C194.015 185.412 194.051 185.463 194.09 185.495C193.673 185.418 192.991 185.621 192.558 185.957C192.334 186.121 192.207 186.289 192.147 186.449C192.123 186.514 192.067 186.567 191.999 186.586C191.814 186.636 191.641 186.753 191.516 186.933C191.342 187.175 191.32 187.484 191.457 187.719C191.709 188.149 192.296 188.193 192.662 187.876C192.752 187.793 192.825 187.703 192.872 187.6C192.9 187.54 192.958 187.499 193.025 187.489C193.186 187.465 193.361 187.388 193.561 187.243C193.946 186.943 194.33 186.479 194.452 186.092C194.463 186.141 194.492 186.195 194.543 186.251C194.655 186.371 194.817 186.449 194.879 186.396C194.942 186.346 194.885 186.175 194.777 186.051C194.768 186.042 194.761 186.036 194.752 186.028L194.814 186.003C195.074 185.866 195.201 185.577 195.096 185.359C194.988 185.132 194.666 185.07 194.377 185.222Z" fill="black"/>
<path d="M199.383 183.889L199.312 183.9C199.316 183.888 199.318 183.879 199.322 183.866C199.347 183.705 199.298 183.531 199.204 183.522C199.11 183.513 199.01 183.672 198.989 183.833C198.979 183.908 198.988 183.968 199.009 184.014C198.67 183.764 197.979 183.657 197.429 183.764C197.151 183.812 196.958 183.921 196.829 184.034C196.777 184.082 196.702 184.105 196.631 184.093C196.44 184.071 196.225 184.11 196.027 184.221C195.76 184.381 195.615 184.669 195.652 184.931C195.731 185.427 196.242 185.67 196.688 185.542C196.802 185.508 196.901 185.449 196.984 185.374C197.035 185.333 197.105 185.321 197.168 185.342C197.323 185.396 197.506 185.392 197.749 185.351C198.222 185.259 198.787 185 199.071 184.706C199.059 184.755 199.061 184.816 199.083 184.888C199.131 185.044 199.245 185.188 199.327 185.166C199.408 185.144 199.431 184.964 199.387 184.808C199.382 184.796 199.378 184.788 199.374 184.777L199.441 184.778C199.742 184.753 199.983 184.557 199.976 184.308C199.969 184.066 199.704 183.864 199.383 183.889Z" fill="black"/>
<path d="M195.573 182.107L195.506 182.134C195.507 182.122 195.507 182.112 195.507 182.099C195.494 181.937 195.405 181.778 195.312 181.79C195.218 181.802 195.158 181.981 195.175 182.141C195.183 182.217 195.206 182.274 195.238 182.314C194.849 182.147 194.151 182.197 193.641 182.425C193.382 182.534 193.219 182.684 193.121 182.823C193.081 182.881 193.014 182.921 192.941 182.926C192.75 182.947 192.55 183.032 192.384 183.185C192.161 183.401 192.088 183.714 192.185 183.96C192.378 184.425 192.933 184.547 193.336 184.322C193.439 184.263 193.522 184.184 193.586 184.091C193.625 184.04 193.691 184.014 193.757 184.02C193.92 184.037 194.098 183.992 194.324 183.897C194.763 183.702 195.252 183.322 195.46 182.973C195.46 183.023 195.476 183.082 195.514 183.148C195.597 183.288 195.742 183.402 195.816 183.363C195.891 183.323 195.871 183.143 195.791 183.001C195.784 182.991 195.778 182.984 195.772 182.974L195.838 182.959C196.124 182.868 196.313 182.623 196.247 182.382C196.184 182.148 195.879 182.01 195.573 182.107Z" fill="black"/>
<path d="M204.464 184.073L204.395 184.074C204.4 184.063 204.403 184.054 204.408 184.042C204.452 183.885 204.428 183.706 204.342 183.685C204.258 183.664 204.143 183.809 204.097 183.965C204.076 184.037 204.076 184.099 204.089 184.147C203.798 183.855 203.189 183.62 202.668 183.58C202.403 183.56 202.202 183.595 202.049 183.669C201.987 183.699 201.912 183.7 201.849 183.668C201.684 183.581 201.48 183.544 201.247 183.586C200.952 183.651 200.719 183.863 200.654 184.122C200.53 184.608 200.942 185.03 201.409 185.046C201.531 185.052 201.649 185.032 201.758 184.991C201.822 184.967 201.895 184.976 201.951 185.015C202.088 185.109 202.277 185.173 202.54 185.193C203.058 185.232 203.709 185.093 204.042 184.84C204.022 184.886 204.014 184.947 204.025 185.022C204.049 185.183 204.148 185.341 204.239 185.33C204.331 185.32 204.377 185.145 204.351 184.984C204.348 184.972 204.345 184.963 204.342 184.952L204.412 184.962C204.728 184.979 204.996 184.788 205.001 184.543C205.008 184.297 204.77 184.09 204.464 184.073Z" fill="black"/>
<path d="M174.497 204.274C174.47 204.366 174.383 204.426 174.286 204.438C172.925 204.594 172.131 204.773 171.524 205.09C170.93 205.376 170.58 205.745 170.586 205.86C170.591 205.974 170.988 206.328 171.77 206.387C171.965 206.408 172.178 206.378 172.411 206.344C172.645 206.314 172.892 206.241 173.144 206.119C173.399 206.01 173.658 205.86 173.902 205.647C174.154 205.453 174.384 205.193 174.585 204.891C174.643 204.806 174.745 204.76 174.847 204.761C175.213 204.757 175.608 204.708 175.76 204.592C175.905 204.464 175.801 204.307 175.267 204.062C175.067 203.501 174.901 203.403 174.796 203.511C174.68 203.613 174.59 203.925 174.497 204.274Z" fill="black"/>
<path d="M177.476 199.786C177.518 199.874 177.506 199.978 177.446 200.053C176.532 201.076 176.122 201.782 175.89 202.401C175.667 203.002 175.68 203.515 175.763 203.595C175.845 203.676 176.376 203.657 176.985 203.165C177.59 202.697 178.197 201.623 177.978 200.192C177.958 200.091 177.991 199.988 178.068 199.923C178.652 199.442 179.067 198.809 177.918 199.129C176.877 198.547 177.182 199.156 177.476 199.786Z" fill="black"/>
<path d="M177.206 194.343C177.287 194.395 177.328 194.492 177.315 194.587C177.118 195.924 177.159 196.767 177.368 197.42C177.544 198.055 177.887 198.449 178.005 198.46C178.121 198.471 178.512 198.135 178.713 197.405C178.891 196.699 178.82 195.516 177.839 194.422C177.771 194.347 177.747 194.24 177.779 194.143C177.98 193.438 178.006 192.654 177.208 193.558C176.038 193.631 176.587 193.982 177.206 194.343Z" fill="black"/>
<path d="M173.67 190.286C173.765 190.268 173.87 190.297 173.922 190.382C174.693 191.498 175.215 192.097 175.778 192.48C176.03 192.683 176.288 192.809 176.496 192.884C176.69 192.967 176.841 192.989 176.893 192.96C176.943 192.932 177.004 192.795 177.025 192.568C177.031 192.349 176.987 192.043 176.848 191.682C176.678 191.343 176.421 190.934 175.971 190.602C175.539 190.258 174.919 189.994 174.192 189.913C174.093 189.895 173.994 189.848 173.948 189.757C173.607 189.082 173.044 188.545 173.122 189.715C172.324 190.589 172.979 190.417 173.67 190.286Z" fill="black"/>
<path d="M168.223 189.665C168.284 189.591 168.384 189.55 168.479 189.576C169.806 189.939 170.651 190.001 171.324 189.925C171.982 189.835 172.433 189.619 172.473 189.493C172.505 189.401 172.251 188.918 171.531 188.622C170.838 188.31 169.606 188.231 168.373 189.047C168.288 189.103 168.18 189.125 168.086 189.085C167.381 188.784 166.597 188.731 167.428 189.576C167.394 190.747 167.78 190.2 168.223 189.665Z" fill="black"/>
<path d="M163.787 192.734C163.779 192.64 163.83 192.549 163.914 192.5C165.108 191.836 165.761 191.37 166.205 190.872C166.631 190.381 166.841 189.94 166.786 189.817C166.762 189.765 166.631 189.697 166.405 189.664C166.179 189.629 165.854 189.628 165.486 189.758C164.756 189.974 163.739 190.752 163.461 192.194C163.443 192.295 163.372 192.379 163.274 192.414C162.574 192.69 161.941 193.165 163.156 193.216C163.943 194.073 163.871 193.429 163.787 192.734Z" fill="black"/>
<path d="M162.471 198C162.407 197.927 162.393 197.822 162.431 197.734C163.003 196.491 163.187 195.666 163.167 194.993C163.165 194.34 162.978 193.874 162.869 193.828C162.763 193.783 162.264 193.981 161.871 194.641C161.497 195.283 161.252 196.44 161.881 197.745C161.927 197.836 161.921 197.944 161.864 198.027C161.646 198.33 161.478 198.668 161.502 198.85C161.52 199.034 161.71 199.043 162.227 198.751C162.804 198.908 162.982 198.834 162.956 198.681C162.923 198.527 162.697 198.27 162.471 198Z" fill="black"/>
<path d="M164.36 203.069C164.264 203.05 164.188 202.976 164.165 202.885C163.88 201.574 163.603 200.804 163.229 200.239C162.857 199.694 162.458 199.393 162.326 199.417C162.227 199.434 161.9 199.869 161.943 200.627C161.961 201.361 162.409 202.516 163.731 203.216C163.824 203.262 163.888 203.352 163.894 203.452C163.91 203.827 164.005 204.195 164.142 204.327C164.279 204.466 164.428 204.352 164.641 203.802C165.186 203.568 165.274 203.396 165.161 203.297C165.042 203.198 164.703 203.149 164.36 203.069Z" fill="black"/>
<path d="M169.176 205.539C169.094 205.588 168.987 205.582 168.905 205.529C167.76 204.778 167.033 204.424 166.374 204.275C165.736 204.123 165.237 204.152 165.155 204.249C165.087 204.327 165.128 204.869 165.694 205.413C166.233 205.941 167.394 206.464 168.83 206.063C168.929 206.035 169.037 206.061 169.113 206.132C169.677 206.608 170.383 206.977 169.898 205.877C170.339 204.815 169.777 205.143 169.176 205.539Z" fill="black"/>
<path d="M174.498 209.493C174.448 209.573 174.355 209.615 174.262 209.603C173.603 209.522 173.056 209.457 172.611 209.526C172.153 209.539 171.782 209.638 171.479 209.773C170.872 210.004 170.531 210.364 170.534 210.487C170.537 210.594 170.906 210.954 171.617 211.084C171.969 211.13 172.406 211.12 172.898 211.004C173.378 210.832 173.927 210.6 174.43 210.117C174.502 210.049 174.603 210.025 174.696 210.056C175.035 210.169 175.4 210.258 175.564 210.199C175.727 210.132 175.685 209.948 175.274 209.541C175.26 208.952 175.144 208.802 175.009 208.872C174.868 208.934 174.681 209.198 174.498 209.493Z" fill="black"/>
<path d="M179.025 206.743C179.014 206.833 178.946 206.909 178.855 206.935C178.53 207.03 178.255 207.137 178.009 207.246C177.749 207.338 177.526 207.441 177.333 207.553C176.958 207.794 176.641 207.994 176.425 208.239C176.209 208.483 176.058 208.713 175.961 208.889C175.868 209.072 175.839 209.217 175.865 209.271C175.89 209.321 176.021 209.391 176.238 209.432C176.458 209.48 176.758 209.482 177.101 209.378C177.444 209.276 177.867 209.124 178.236 208.77C178.427 208.601 178.617 208.402 178.796 208.172C178.962 207.925 179.109 207.637 179.238 207.323C179.273 207.234 179.357 207.172 179.457 207.162C180.17 207.062 180.856 206.794 179.722 206.432C179.16 205.413 179.078 206.057 179.025 206.743Z" fill="black"/>
<path d="M181.82 202.292C181.855 202.381 181.832 202.479 181.767 202.544C181.259 202.988 180.93 203.394 180.671 203.759C180.398 204.115 180.28 204.477 180.172 204.774C179.969 205.371 180.056 205.875 180.15 205.949C180.239 206.019 180.735 205.956 181.298 205.496C181.582 205.27 181.818 204.908 182.033 204.456C182.232 203.998 182.325 203.403 182.282 202.731C182.271 202.635 182.313 202.541 182.394 202.488C182.993 202.1 183.534 201.592 182.331 201.723C181.402 201.036 181.568 201.648 181.82 202.292Z" fill="black"/>
<path d="M182.605 197.086C182.669 197.157 182.684 197.257 182.645 197.341C182.352 197.937 182.162 198.439 182.097 198.883C181.988 199.32 181.986 199.699 182.038 200.022C182.108 200.657 182.369 201.074 182.492 201.104C182.597 201.13 183.052 200.878 183.365 200.239C183.504 199.92 183.61 199.506 183.628 199.013C183.6 198.519 183.499 197.944 183.196 197.334C183.15 197.248 183.155 197.146 183.213 197.069C183.633 196.501 183.958 195.848 182.878 196.375C181.761 196.043 182.137 196.569 182.605 197.086Z" fill="black"/>
<path d="M181.499 191.942C181.584 191.985 181.635 192.073 181.63 192.164C181.58 192.821 181.583 193.351 181.669 193.787C181.721 194.232 181.853 194.587 182.016 194.872C182.286 195.451 182.695 195.752 182.815 195.74C182.928 195.728 183.25 195.342 183.34 194.635C183.357 194.288 183.31 193.863 183.152 193.393C182.958 192.933 182.653 192.423 182.14 191.962C182.066 191.898 182.033 191.801 182.057 191.708C182.148 191.368 182.204 191.009 182.139 190.85C182.063 190.694 181.882 190.747 181.489 191.182C180.897 191.234 180.752 191.359 180.827 191.488C180.895 191.625 181.185 191.785 181.499 191.942Z" fill="black"/>
<path d="M178.377 187.712C178.47 187.716 178.552 187.776 178.586 187.863C179.081 189.068 179.562 189.744 180.083 190.147C180.604 190.538 181.054 190.688 181.173 190.623C181.259 190.577 181.449 190.07 181.197 189.407C181.061 189.085 180.888 188.675 180.499 188.34C180.312 188.167 180.095 187.996 179.847 187.838C179.596 187.682 179.282 187.568 178.955 187.463C178.861 187.434 178.792 187.358 178.774 187.261C178.633 186.561 178.302 185.922 178.015 187.049C177.012 187.674 177.684 187.697 178.377 187.712Z" fill="black"/>
<path d="M173.652 185.293C173.74 185.253 173.842 185.266 173.913 185.325C174.888 186.238 175.652 186.58 176.295 186.728C176.917 186.882 177.43 186.753 177.492 186.665C177.564 186.564 177.46 186.094 176.951 185.577C176.449 185.077 175.444 184.615 174.066 184.807C173.968 184.827 173.869 184.793 173.809 184.718C173.368 184.166 172.808 183.679 173.034 184.841C172.405 185.803 173.015 185.592 173.652 185.293Z" fill="black"/>
<path d="M168.3 184.946C168.365 184.877 168.465 184.853 168.554 184.883C169.186 185.126 169.709 185.248 170.163 185.293C170.617 185.362 171.002 185.331 171.327 185.253C171.965 185.148 172.371 184.846 172.392 184.728C172.411 184.619 172.118 184.21 171.444 183.94C171.107 183.831 170.678 183.763 170.174 183.788C169.672 183.838 169.091 184.007 168.497 184.346C168.414 184.399 168.309 184.404 168.225 184.355C167.605 184.001 166.901 183.751 167.552 184.749C167.333 185.87 167.822 185.453 168.3 184.946Z" fill="black"/>
<path d="M163.257 186.66C163.288 186.572 163.37 186.512 163.464 186.505C164.118 186.427 164.669 186.39 165.088 186.233C165.521 186.112 165.868 185.959 166.133 185.763C166.675 185.415 166.942 185.004 166.914 184.881C166.892 184.779 166.458 184.488 165.731 184.506C165.377 184.535 164.94 184.615 164.488 184.848C164.053 185.114 163.558 185.446 163.183 186.041C163.128 186.121 163.033 186.166 162.935 186.155C162.194 186.056 161.493 186.204 162.498 186.794C162.821 187.929 163.02 187.279 163.257 186.66Z" fill="black"/>
<path d="M159.513 190.366C159.498 190.273 159.535 190.178 159.623 190.135C160.225 189.814 160.614 189.476 160.965 189.19C161.131 189.04 161.266 188.887 161.378 188.734C161.495 188.588 161.603 188.454 161.682 188.314C161.847 188.041 161.929 187.772 161.971 187.568C162.021 187.372 162.015 187.226 161.978 187.18C161.942 187.136 161.797 187.096 161.573 187.103C161.357 187.118 161.075 187.196 160.753 187.362C160.594 187.447 160.419 187.548 160.256 187.689C160.101 187.836 159.944 188.011 159.795 188.215C159.478 188.607 159.275 189.184 159.159 189.844C159.14 189.935 159.085 190.021 158.994 190.056C158.333 190.318 157.701 190.713 158.901 190.823C159.671 191.684 159.63 191.051 159.513 190.366Z" fill="black"/>
<path d="M157.743 195.316C157.692 195.235 157.696 195.134 157.748 195.058C158.135 194.519 158.418 194.063 158.564 193.642C158.753 193.235 158.825 192.865 158.834 192.54C158.905 191.913 158.718 191.445 158.608 191.394C158.506 191.346 158.026 191.51 157.576 192.074C157.378 192.364 157.195 192.754 157.084 193.238C157.018 193.731 157.006 194.319 157.205 194.972C157.235 195.064 157.211 195.164 157.141 195.231C156.626 195.722 156.191 196.314 157.348 195.97C158.39 196.479 158.112 195.901 157.743 195.316Z" fill="black"/>
<path d="M157.894 200.585C157.818 200.526 157.785 200.43 157.808 200.341C158.005 199.704 158.083 199.182 158.089 198.733C158.119 198.282 158.053 197.907 157.945 197.597C157.772 196.979 157.43 196.615 157.307 196.608C157.196 196.6 156.803 196.928 156.6 197.606C156.52 197.943 156.488 198.367 156.558 198.854C156.652 199.339 156.873 199.889 157.267 200.441C157.328 200.518 157.341 200.62 157.298 200.705C156.989 201.339 156.79 202.044 157.755 201.33C158.913 201.456 158.448 201.011 157.894 200.585Z" fill="black"/>
<path d="M160.008 205.394C159.916 205.37 159.849 205.294 159.835 205.203C159.773 204.873 159.718 204.586 159.67 204.328C159.611 204.065 159.536 203.836 159.446 203.633C159.298 203.213 159.11 202.888 158.893 202.641C158.502 202.135 158.058 201.908 157.937 201.944C157.833 201.974 157.575 202.418 157.642 203.126C157.696 203.471 157.816 203.887 158.077 204.315C158.223 204.522 158.399 204.733 158.61 204.939C158.811 205.15 159.07 205.343 159.381 205.508C159.467 205.556 159.519 205.645 159.514 205.742C159.464 206.47 159.65 207.151 160.191 206.129C161.324 205.745 160.658 205.584 160.008 205.394Z" fill="black"/>
<path d="M164.02 208.821C163.923 208.846 163.829 208.806 163.778 208.725C163.408 208.164 163.045 207.798 162.73 207.476C162.566 207.324 162.401 207.204 162.239 207.104C162.089 206.99 161.939 206.901 161.793 206.83C161.2 206.562 160.709 206.533 160.62 206.612C160.535 206.687 160.483 207.204 160.881 207.799C160.977 207.95 161.097 208.108 161.244 208.266C161.404 208.409 161.593 208.55 161.811 208.681C162.233 208.964 162.829 209.134 163.513 209.197C163.607 209.208 163.695 209.267 163.738 209.349C164.051 209.975 164.499 210.564 164.528 209.384C165.351 208.571 164.711 208.657 164.02 208.821Z" fill="black"/>
<path d="M169.183 210.173C169.106 210.229 169.003 210.235 168.921 210.19C168.342 209.855 167.856 209.62 167.418 209.507C166.99 209.355 166.61 209.314 166.277 209.33C165.637 209.302 165.173 209.524 165.128 209.634C165.086 209.737 165.289 210.19 165.897 210.594C166.207 210.764 166.619 210.914 167.122 210.984C167.63 211.013 168.231 210.974 168.879 210.727C168.971 210.69 169.074 210.705 169.148 210.768C169.691 211.228 170.333 211.603 169.882 210.503C170.309 209.443 169.748 209.762 169.183 210.173Z" fill="black"/>
<path d="M172.986 207.645C172.93 207.723 172.833 207.762 172.739 207.746C172.064 207.596 171.533 207.555 171.068 207.528C170.609 207.534 170.224 207.57 169.9 207.654C169.256 207.845 168.856 208.107 168.841 208.243C168.835 208.298 168.911 208.425 169.079 208.571C169.247 208.722 169.508 208.883 169.868 208.972C170.226 209.073 170.682 209.133 171.206 209.027C171.729 208.955 172.315 208.693 172.876 208.268C172.954 208.203 173.06 208.183 173.154 208.218C173.855 208.493 174.608 208.541 173.774 207.713C173.775 206.54 173.396 207.096 172.986 207.645Z" fill="black"/>
<path d="M177.561 204.783C177.557 204.878 177.49 204.957 177.4 204.991C176.144 205.494 175.434 205.929 174.982 206.422C174.527 206.882 174.353 207.363 174.396 207.461C174.446 207.573 174.929 207.749 175.666 207.557C176.031 207.463 176.435 207.238 176.837 206.897C177.026 206.71 177.213 206.492 177.387 206.243C177.56 205.994 177.688 205.679 177.807 205.354C177.839 205.261 177.923 205.193 178.022 205.172C178.725 204.998 179.429 204.675 178.246 204.407C177.62 203.439 177.56 204.075 177.561 204.783Z" fill="black"/>
<path d="M179.962 199.958C180.005 200.044 179.997 200.148 179.936 200.221C179.47 200.734 179.196 201.191 178.961 201.588C178.761 201.999 178.621 202.352 178.558 202.675C178.444 203.322 178.514 203.792 178.629 203.865C178.709 203.92 179.26 203.837 179.751 203.285C180.263 202.761 180.713 201.73 180.47 200.351C180.451 200.254 180.48 200.153 180.555 200.089C181.105 199.621 181.584 199.037 180.405 199.314C179.403 198.72 179.638 199.329 179.962 199.958Z" fill="black"/>
<path d="M180.028 194.569C180.104 194.628 180.148 194.724 180.116 194.817C180.018 195.146 179.952 195.44 179.914 195.709C179.87 195.978 179.822 196.227 179.817 196.454C179.816 196.907 179.821 197.291 179.914 197.612C180.082 198.251 180.365 198.646 180.498 198.662C180.598 198.675 181.046 198.366 181.259 197.67C181.478 196.993 181.492 195.866 180.655 194.712C180.605 194.63 180.58 194.527 180.621 194.438C180.912 193.778 181.068 193.035 180.141 193.802C178.974 193.714 179.461 194.142 180.028 194.569Z" fill="black"/>
<path d="M177.435 189.889C177.53 189.901 177.609 189.968 177.639 190.058C178.032 191.333 178.463 192.034 178.905 192.53C179.367 192.999 179.798 193.224 179.922 193.18C180.019 193.146 180.279 192.668 180.112 191.948C179.991 191.233 179.376 190.23 178.038 189.687C177.944 189.65 177.877 189.567 177.864 189.468C177.763 188.739 177.44 188.068 177.106 189.19C176.063 189.756 176.741 189.813 177.435 189.889Z" fill="black"/>
<path d="M172.659 187.324C172.748 187.28 172.854 187.292 172.925 187.361C173.963 188.232 174.706 188.632 175.37 188.777C176.001 188.945 176.507 188.873 176.584 188.774C176.65 188.691 176.578 188.179 176.052 187.642C175.53 187.139 174.495 186.599 173.067 186.839C172.969 186.849 172.867 186.818 172.802 186.746C172.328 186.205 171.728 185.732 172.007 186.889C171.399 187.868 172.014 187.64 172.659 187.324Z" fill="black"/>
<path d="M167.197 187.384C167.253 187.305 167.35 187.266 167.444 187.281C168.119 187.432 168.649 187.475 169.113 187.502C169.572 187.493 169.957 187.467 170.28 187.378C170.923 187.199 171.326 186.927 171.342 186.795C171.355 186.699 171.039 186.254 170.318 186.06C169.619 185.842 168.443 185.886 167.306 186.759C167.229 186.825 167.123 186.846 167.029 186.812C166.327 186.538 165.573 186.489 166.409 187.317C166.41 188.488 166.788 187.935 167.197 187.384Z" fill="black"/>
<path d="M162.63 190.257C162.634 190.163 162.7 190.084 162.791 190.049C164.046 189.544 164.755 189.106 165.205 188.612C165.435 188.385 165.588 188.147 165.681 187.952C165.777 187.764 165.814 187.627 165.788 187.571C165.738 187.46 165.253 187.282 164.518 187.479C164.152 187.573 163.751 187.8 163.349 188.142C163.161 188.329 162.974 188.547 162.8 188.797C162.628 189.047 162.502 189.362 162.383 189.687C162.351 189.78 162.267 189.849 162.169 189.869C161.465 190.045 160.762 190.368 161.946 190.635C162.573 191.602 162.632 190.966 162.63 190.257Z" fill="black"/>
<path d="M160.233 195.085C160.19 194.999 160.198 194.895 160.259 194.822C160.725 194.309 160.999 193.852 161.233 193.454C161.434 193.043 161.574 192.69 161.636 192.367C161.75 191.72 161.679 191.25 161.564 191.176C161.484 191.122 160.932 191.206 160.443 191.758C159.932 192.282 159.481 193.314 159.725 194.692C159.744 194.789 159.715 194.891 159.64 194.954C159.09 195.422 158.611 196.005 159.79 195.729C160.792 196.323 160.558 195.714 160.233 195.085Z" fill="black"/>
<path d="M160.165 200.475C160.089 200.416 160.045 200.32 160.078 200.227C160.177 199.898 160.243 199.604 160.28 199.335C160.324 199.066 160.372 198.817 160.378 198.59C160.379 198.136 160.374 197.752 160.281 197.432C160.113 196.793 159.829 196.398 159.697 196.382C159.597 196.368 159.149 196.677 158.936 197.373C158.716 198.051 158.702 199.176 159.538 200.332C159.589 200.413 159.614 200.516 159.572 200.606C159.28 201.265 159.123 202.007 160.051 201.242C161.219 201.332 160.732 200.903 160.165 200.475Z" fill="black"/>
<path d="M162.748 205.161C162.653 205.15 162.574 205.082 162.544 204.992C162.154 203.717 161.727 203.014 161.285 202.516C160.824 202.046 160.393 201.821 160.27 201.864C160.172 201.898 159.912 202.375 160.076 203.095C160.196 203.81 160.807 204.815 162.144 205.362C162.238 205.399 162.305 205.483 162.317 205.582C162.417 206.309 162.737 206.984 163.076 205.861C164.118 205.299 163.443 205.238 162.748 205.161Z" fill="black"/>
<path d="M167.521 207.72C167.433 207.761 167.326 207.756 167.254 207.691C166.217 206.812 165.47 206.428 164.811 206.276C164.177 206.111 163.674 206.178 163.596 206.278C163.531 206.36 163.6 206.877 164.127 207.411C164.646 207.921 165.691 208.447 167.114 208.212C167.213 208.199 167.317 208.224 167.381 208.3C167.858 208.842 168.462 209.315 168.175 208.156C168.774 207.176 168.163 207.405 167.521 207.72Z" fill="black"/>
<path d="M136.286 186.278C136.556 184.86 135.155 183.335 133.6 184.025C133.551 184.039 133.487 184.098 133.548 184.145C134.739 184.855 135.265 186.504 134.739 187.882C134.73 187.92 134.743 187.938 134.763 187.947C134.772 187.967 134.788 187.981 134.82 187.971C136.067 187.39 137.558 187.969 138.201 189.287C138.247 189.356 138.294 189.283 138.31 189.229C138.928 187.514 137.568 185.98 136.286 186.278Z" fill="black"/>
<path d="M142.325 178.217C142.595 176.799 141.193 175.274 139.639 175.964C139.59 175.978 139.526 176.037 139.587 176.084C140.778 176.794 141.304 178.443 140.778 179.821C140.769 179.859 140.782 179.877 140.802 179.886C140.811 179.906 140.827 179.92 140.859 179.91C142.105 179.329 143.597 179.908 144.24 181.226C144.286 181.295 144.333 181.221 144.348 181.168C144.967 179.453 143.606 177.919 142.325 178.217Z" fill="black"/>
<path d="M154.147 176.425C154.417 175.006 153.015 173.481 151.461 174.171C151.411 174.185 151.348 174.244 151.409 174.291C152.6 175.002 153.126 176.65 152.6 178.029C152.591 178.067 152.604 178.085 152.624 178.093C152.632 178.114 152.649 178.128 152.68 178.118C153.927 177.536 155.419 178.116 156.061 179.434C156.108 179.503 156.155 179.429 156.17 179.376C156.789 177.66 155.428 176.126 154.147 176.425Z" fill="black"/>
<path d="M130.707 192.666C130.977 191.247 129.575 189.722 128.02 190.413C127.971 190.427 127.907 190.486 127.968 190.532C129.159 191.243 129.686 192.891 129.159 194.27C129.15 194.308 129.163 194.326 129.184 194.334C129.192 194.355 129.208 194.369 129.24 194.359C130.487 193.777 131.978 194.357 132.621 195.675C132.667 195.744 132.715 195.67 132.73 195.617C133.349 193.901 131.988 192.368 130.707 192.666Z" fill="black"/>
<path d="M124.763 203.141C125.033 201.723 123.631 200.198 122.077 200.888C122.028 200.902 121.964 200.961 122.025 201.008C123.216 201.718 123.742 203.367 123.216 204.746C123.207 204.784 123.22 204.802 123.24 204.81C123.249 204.831 123.265 204.845 123.297 204.835C124.543 204.253 126.035 204.833 126.678 206.15C126.724 206.22 126.771 206.146 126.786 206.093C127.405 204.377 126.044 202.843 124.763 203.141Z" fill="black"/>
<path d="M143.902 216.076C144.172 214.658 142.77 213.133 141.216 213.823C141.166 213.837 141.103 213.896 141.164 213.943C142.355 214.653 142.881 216.302 142.355 217.681C142.346 217.719 142.359 217.737 142.379 217.745C142.388 217.766 142.404 217.78 142.435 217.77C143.682 217.188 145.174 217.768 145.817 219.085C145.863 219.155 145.91 219.081 145.925 219.028C146.544 217.312 145.183 215.778 143.902 216.076Z" fill="black"/>
<path d="M141.227 186.278C141.497 184.86 140.095 183.335 138.541 184.025C138.491 184.039 138.428 184.098 138.489 184.145C139.68 184.855 140.206 186.504 139.68 187.882C139.67 187.92 139.684 187.938 139.704 187.947C139.712 187.967 139.728 187.981 139.76 187.971C141.007 187.39 142.499 187.969 143.141 189.287C143.187 189.356 143.235 189.283 143.25 189.229C143.869 187.514 142.508 185.98 141.227 186.278Z" fill="black"/>
<path d="M146.167 186.278C146.437 184.86 145.036 183.335 143.481 184.025C143.431 184.039 143.368 184.098 143.429 184.145C144.62 184.855 145.147 186.504 144.62 187.882C144.611 187.92 144.624 187.938 144.645 187.947C144.653 187.967 144.669 187.981 144.7 187.971C145.948 187.39 147.439 187.969 148.082 189.287C148.128 189.356 148.175 189.283 148.191 189.229C148.81 187.514 147.449 185.98 146.167 186.278Z" fill="black"/>
<path d="M151.108 186.278C151.378 184.86 149.976 183.335 148.421 184.025C148.372 184.039 148.309 184.098 148.369 184.145C149.561 184.855 150.087 186.504 149.56 187.882C149.552 187.92 149.565 187.938 149.585 187.947C149.593 187.967 149.609 187.981 149.641 187.971C150.888 187.39 152.38 187.969 153.022 189.287C153.068 189.356 153.116 189.283 153.131 189.229C153.75 187.514 152.389 185.98 151.108 186.278Z" fill="black"/>
<path d="M136.188 208.526C136.469 207.108 135.011 205.583 133.396 206.273C133.345 206.287 133.279 206.346 133.342 206.393C134.58 207.103 135.127 208.752 134.58 210.13C134.57 210.168 134.584 210.186 134.606 210.195C134.614 210.216 134.631 210.229 134.663 210.219C135.96 209.638 137.51 210.217 138.178 211.535C138.225 211.604 138.274 211.531 138.291 211.477C138.933 209.762 137.52 208.228 136.188 208.526Z" fill="black"/>
<path d="M141.322 208.526C141.603 207.108 140.146 205.583 138.531 206.273C138.479 206.287 138.413 206.346 138.476 206.393C139.714 207.103 140.261 208.752 139.714 210.13C139.705 210.168 139.719 210.186 139.74 210.195C139.749 210.216 139.765 210.229 139.798 210.219C141.094 209.638 142.644 210.217 143.312 211.535C143.36 211.604 143.409 211.531 143.425 211.477C144.068 209.762 142.654 208.228 141.322 208.526Z" fill="black"/>
<path d="M146.457 208.526C146.738 207.108 145.281 205.583 143.665 206.273C143.614 206.287 143.548 206.346 143.611 206.393C144.849 207.103 145.396 208.752 144.849 210.13C144.839 210.168 144.853 210.186 144.874 210.195C144.883 210.216 144.9 210.229 144.932 210.219C146.228 209.638 147.779 210.217 148.447 211.535C148.495 211.604 148.544 211.531 148.559 211.477C149.203 209.762 147.789 208.228 146.457 208.526Z" fill="black"/>
<path d="M151.591 208.526C151.872 207.108 150.415 205.583 148.8 206.273C148.748 206.287 148.682 206.346 148.745 206.393C149.983 207.103 150.53 208.752 149.983 210.13C149.974 210.168 149.988 210.186 150.009 210.195C150.018 210.216 150.035 210.229 150.067 210.219C151.363 209.638 152.913 210.217 153.581 211.535C153.629 211.604 153.678 211.531 153.694 211.477C154.337 209.762 152.923 208.228 151.591 208.526Z" fill="black"/>
<path d="M137.898 203.163C138.246 201.832 136.835 200.447 135.163 201.134C135.11 201.148 135.04 201.205 135.103 201.247C136.328 201.877 136.81 203.401 136.193 204.702C136.181 204.738 136.194 204.755 136.215 204.762C136.224 204.781 136.24 204.794 136.273 204.783C137.616 204.206 139.165 204.706 139.784 205.918C139.83 205.981 139.883 205.911 139.901 205.861C140.631 204.243 139.264 202.849 137.898 203.163Z" fill="black"/>
<path d="M140.907 200.338C141.255 199.006 139.843 197.622 138.171 198.309C138.119 198.324 138.049 198.38 138.111 198.423C139.337 199.052 139.819 200.576 139.202 201.878C139.19 201.913 139.203 201.93 139.224 201.937C139.232 201.956 139.249 201.969 139.282 201.959C140.625 201.381 142.173 201.881 142.793 203.093C142.838 203.157 142.892 203.086 142.91 203.036C143.64 201.418 142.273 200.024 140.907 200.338Z" fill="black"/>
<path d="M143.915 197.513C144.264 196.182 142.852 194.797 141.18 195.484C141.128 195.499 141.058 195.556 141.12 195.598C142.346 196.228 142.828 197.752 142.21 199.053C142.199 199.089 142.212 199.105 142.233 199.112C142.241 199.131 142.258 199.144 142.291 199.134C143.634 198.557 145.182 199.057 145.802 200.268C145.847 200.332 145.901 200.262 145.919 200.212C146.649 198.593 145.282 197.2 143.915 197.513Z" fill="black"/>
<path d="M146.925 194.688C147.273 193.357 145.861 191.973 144.189 192.66C144.137 192.674 144.067 192.731 144.129 192.773C145.355 193.403 145.836 194.927 145.219 196.228C145.208 196.264 145.221 196.281 145.242 196.288C145.25 196.307 145.267 196.32 145.3 196.309C146.642 195.732 148.191 196.232 148.811 197.444C148.856 197.507 148.91 197.437 148.928 197.387C149.658 195.769 148.29 194.375 146.925 194.688Z" fill="black"/>
<path d="M149.933 191.864C150.282 190.533 148.87 189.149 147.198 189.835C147.145 189.85 147.076 189.907 147.138 189.949C148.363 190.579 148.845 192.102 148.228 193.404C148.217 193.44 148.23 193.456 148.251 193.463C148.259 193.482 148.275 193.495 148.309 193.485C149.651 192.908 151.2 193.408 151.819 194.619C151.865 194.683 151.919 194.613 151.937 194.562C152.667 192.944 151.299 191.551 149.933 191.864Z" fill="black"/>
<path d="M124.802 215.738H134.738C139.254 215.738 142.34 218.724 142.34 222.485C142.34 224.919 141.023 226.983 139.104 227.942V228.163C141.362 229.306 142.83 231.776 142.83 234.394C142.83 238.449 139.33 241.547 134.663 241.547H124.802V215.738ZM134.437 226.725C136.808 226.725 138.539 225.103 138.539 222.853C138.539 220.605 136.808 219.019 134.437 219.019H128.527V226.725H134.437ZM134.775 238.265C137.072 238.265 139.029 236.385 139.029 234.136C139.029 231.887 137.072 229.97 134.775 229.97H128.527V238.265H134.775Z" fill="black"/>
<path d="M148.36 215.738H158.297C162.813 215.738 166.088 218.945 166.088 223.222C166.088 226.651 164.018 229.232 160.631 230.228L167.029 241.547H162.852L156.866 230.891H152.086V241.547H148.36V215.738ZM157.92 227.61C160.367 227.61 162.286 225.692 162.286 223.296C162.286 220.936 160.367 219.019 157.92 219.019H152.086V227.61H157.92Z" fill="black"/>
<path d="M172.333 215.738H176.134L189.383 235.205H189.609V215.738H193.222V241.547H189.421L176.134 222.079H175.909V241.547H172.333V215.738Z" fill="black"/>
<path d="M199.203 228.642C199.203 220.9 204.849 215.333 212.64 215.333C220.431 215.333 226.077 220.9 226.077 228.642C226.077 236.385 220.431 241.952 212.64 241.952C204.849 241.952 199.203 236.385 199.203 228.642ZM212.64 238.597C218.286 238.597 222.276 234.504 222.276 228.642C222.276 222.78 218.286 218.687 212.64 218.687C206.956 218.687 203.005 222.78 203.005 228.642C203.005 234.504 206.956 238.597 212.64 238.597Z" fill="black"/>
<path d="M175.027 195.632C175.108 195.688 175.156 195.787 175.13 195.886C174.842 197.234 174.741 198.069 174.812 198.745C174.843 199.075 174.908 199.352 174.971 199.557C175.043 199.764 175.123 199.896 175.177 199.916C175.233 199.936 175.38 199.891 175.56 199.746C175.749 199.603 175.966 199.357 176.134 198.99C176.303 198.625 176.409 198.138 176.372 197.572C176.312 197.011 176.136 196.354 175.664 195.755C175.606 195.669 175.577 195.559 175.609 195.46C175.738 195.099 175.787 194.702 175.708 194.517C175.631 194.326 175.452 194.38 175.046 194.825C174.453 194.836 174.309 194.971 174.373 195.105C174.442 195.243 174.736 195.418 175.027 195.632Z" fill="black"/>
<path d="M165.971 194.01C165.962 193.91 166.026 193.823 166.117 193.781C166.753 193.483 167.237 193.282 167.651 193.107C168.058 192.927 168.385 192.754 168.665 192.58C168.944 192.406 169.169 192.232 169.329 192.085C169.487 191.929 169.575 191.808 169.57 191.749C169.565 191.693 169.459 191.577 169.247 191.484C169.034 191.38 168.711 191.293 168.291 191.314C167.875 191.334 167.359 191.471 166.863 191.816C166.363 192.146 165.905 192.717 165.689 193.441C165.657 193.542 165.573 193.623 165.478 193.661C165.298 193.727 165.115 193.807 164.962 193.895C164.821 193.987 164.708 194.085 164.657 194.171C164.552 194.35 164.707 194.454 165.313 194.49C165.691 194.941 165.888 194.968 165.955 194.836C165.99 194.767 165.996 194.65 165.987 194.502C165.989 194.362 165.981 194.191 165.971 194.01Z" fill="black"/>
<path d="M169.172 202.944C169.085 202.989 168.972 202.992 168.895 202.925C168.328 202.514 167.933 202.159 167.579 201.891C167.222 201.629 166.929 201.409 166.635 201.256C166.08 200.928 165.586 200.775 165.473 200.841C165.387 200.889 165.241 201.428 165.655 202.159C165.873 202.504 166.223 202.906 166.771 203.171C167.305 203.442 168.02 203.602 168.779 203.452C168.884 203.441 168.998 203.458 169.075 203.532C169.353 203.805 169.699 204.014 169.902 204.027C170.11 204.042 170.138 203.861 169.904 203.31C170.151 202.781 170.09 202.595 169.938 202.593C169.78 202.593 169.492 202.781 169.172 202.944Z" fill="black"/>
<path d="M174.77 212.087C174.714 212.171 174.61 212.198 174.512 212.181C173.129 211.945 172.215 212.041 171.558 212.31C170.906 212.522 170.546 212.898 170.549 213.016C170.552 213.128 170.937 213.471 171.679 213.622C172.405 213.722 173.531 213.609 174.66 212.701C174.738 212.638 174.85 212.629 174.943 212.658C175.637 212.882 176.397 212.99 175.571 212.129C175.62 210.968 175.18 211.485 174.77 212.087Z" fill="black"/>
<path d="M184.958 199.864C185.008 199.947 185.004 200.053 184.95 200.135C184.595 200.72 184.299 201.212 184.15 201.663C184.013 202.118 183.915 202.503 183.901 202.844C183.886 203.183 183.936 203.471 184.002 203.682C184.053 203.886 184.128 204.014 184.184 204.036C184.237 204.057 184.387 204.018 184.581 203.898C184.76 203.772 184.977 203.562 185.181 203.252C185.382 202.943 185.589 202.538 185.643 202.018C185.708 201.503 185.727 200.896 185.495 200.211C185.466 200.115 185.49 200.01 185.561 199.938C185.818 199.678 186.064 199.388 186.086 199.212C186.1 199.035 185.915 198.983 185.356 199.167C184.816 198.896 184.627 198.929 184.627 199.092C184.619 199.254 184.773 199.556 184.958 199.864Z" fill="black"/>
<path d="M179.038 185C179.136 184.997 179.227 185.053 179.274 185.138C179.435 185.448 179.618 185.689 179.767 185.935C179.918 186.18 180.073 186.386 180.231 186.563C180.562 186.901 180.842 187.183 181.136 187.365C181.728 187.719 182.219 187.815 182.318 187.743C182.409 187.679 182.505 187.15 182.15 186.498C181.977 186.172 181.731 185.783 181.292 185.475C181.08 185.314 180.838 185.159 180.564 185.017C180.292 184.874 179.952 184.789 179.603 184.706C179.503 184.684 179.421 184.611 179.391 184.515C179.336 184.339 179.274 184.163 179.204 184.018C179.127 183.884 179.047 183.778 178.97 183.729C178.815 183.63 178.685 183.768 178.59 184.342C178.098 184.682 178.041 184.863 178.184 184.939C178.257 184.978 178.382 184.992 178.537 184.993C178.684 185.004 178.858 185.005 179.038 185Z" fill="black"/>
<path d="M168.2 182.403C168.272 182.336 168.377 182.303 168.47 182.343C169.136 182.612 169.691 182.711 170.174 182.764C170.657 182.834 171.067 182.804 171.41 182.727C172.09 182.595 172.506 182.319 172.525 182.192C172.541 182.091 172.224 181.654 171.514 181.413C171.161 181.304 170.711 181.235 170.185 181.259C169.659 181.3 169.053 181.491 168.421 181.806C168.332 181.848 168.223 181.862 168.136 181.811C167.495 181.46 166.771 181.211 167.42 182.211C167.15 183.34 167.684 182.915 168.2 182.403Z" fill="black"/>
<path d="M155.819 192.445C155.785 192.355 155.809 192.251 155.877 192.18C156.119 191.927 156.315 191.686 156.479 191.455C156.666 191.234 156.815 191.021 156.934 190.815C157.053 190.61 157.141 190.411 157.207 190.22C157.291 190.04 157.351 189.866 157.391 189.701C157.547 189.044 157.428 188.537 157.337 188.479C157.232 188.411 156.731 188.531 156.21 189.069C156.079 189.203 155.947 189.361 155.821 189.546C155.713 189.739 155.613 189.96 155.529 190.207C155.444 190.454 155.375 190.728 155.329 191.026C155.307 191.332 155.314 191.665 155.353 192.016C155.364 192.115 155.32 192.215 155.236 192.273C154.609 192.702 154.166 193.275 155.327 193.072C156.314 193.763 156.052 193.095 155.819 192.445Z" fill="black"/>
<path d="M159.021 208.208C158.925 208.191 158.847 208.118 158.82 208.025C158.727 207.689 158.604 207.413 158.506 207.144C158.41 206.874 158.302 206.64 158.184 206.435C157.933 206.035 157.709 205.706 157.463 205.467C156.959 204.999 156.485 204.817 156.379 204.864C156.271 204.914 156.083 205.407 156.292 206.116C156.389 206.471 156.556 206.896 156.918 207.286C157.091 207.486 157.295 207.687 157.532 207.881C157.771 208.073 158.082 208.229 158.406 208.38C158.499 208.422 158.564 208.51 158.573 208.61C158.595 208.985 158.685 209.341 158.818 209.464C158.95 209.593 159.106 209.485 159.32 208.942C159.874 208.71 159.967 208.544 159.844 208.441C159.715 208.339 159.365 208.281 159.021 208.208Z" fill="black"/>
<path d="M183.102 206.852C183.105 206.949 183.05 207.038 182.963 207.082C182.371 207.413 181.862 207.683 181.514 208.001C181.334 208.155 181.192 208.318 181.063 208.47C180.925 208.614 180.814 208.759 180.723 208.9C180.363 209.463 180.324 209.981 180.4 210.073C180.471 210.16 180.978 210.198 181.638 209.866C181.802 209.784 181.976 209.679 182.152 209.547C182.319 209.407 182.478 209.23 182.636 209.028C182.942 208.617 183.266 208.114 183.398 207.412C183.42 207.316 183.492 207.237 183.588 207.21C184.295 207.012 184.98 206.692 183.79 206.449C183.146 205.493 183.083 206.15 183.102 206.852Z" fill="black"/>
<path d="M182.715 185.14C182.81 185.163 182.875 185.246 182.891 185.341C182.989 186.029 183.2 186.523 183.376 186.96C183.554 187.392 183.784 187.715 184.024 187.959C184.468 188.46 184.924 188.667 185.043 188.62C185.142 188.582 185.367 188.103 185.236 187.387C185.155 187.039 184.99 186.63 184.704 186.204C184.422 185.777 183.929 185.385 183.336 185.024C183.25 184.974 183.201 184.879 183.201 184.781C183.178 184.076 183.025 183.355 182.482 184.402C181.354 184.767 182.001 184.982 182.715 185.14Z" fill="black"/>
<path d="M160.344 182.583C160.376 182.495 160.461 182.433 160.559 182.423C161.254 182.351 161.779 182.195 162.241 182.06C162.693 181.912 163.025 181.682 163.299 181.484C163.848 181.101 164.076 180.641 164.038 180.528C164.003 180.422 163.54 180.2 162.796 180.262C162.428 180.298 162.012 180.457 161.561 180.711C161.102 180.949 160.663 181.389 160.267 181.966C160.211 182.047 160.113 182.094 160.012 182.084C159.263 182.014 158.552 182.162 159.567 182.746C159.873 183.892 160.104 183.227 160.344 182.583Z" fill="black"/>
<path d="M153.737 201.899C153.66 201.839 153.627 201.739 153.649 201.647C153.777 200.991 153.893 200.431 153.868 199.961C153.848 199.493 153.751 199.104 153.657 198.783C153.442 198.146 153.059 197.797 152.938 197.798C152.824 197.8 152.472 198.167 152.314 198.871C152.222 199.223 152.223 199.656 152.344 200.149C152.469 200.641 152.651 201.202 153.11 201.756C153.171 201.835 153.185 201.94 153.143 202.029C152.838 202.684 152.642 203.399 153.604 202.674C154.766 202.817 154.294 202.342 153.737 201.899Z" fill="black"/>
<path d="M169.124 215.11C169.045 215.166 168.938 215.171 168.852 215.126C168.238 214.828 167.717 214.596 167.253 214.481C166.788 214.369 166.38 214.371 166.043 214.368C165.365 214.395 164.913 214.658 164.88 214.772C164.849 214.879 165.109 215.311 165.762 215.657C166.084 215.846 166.516 215.946 167.034 215.971C167.551 215.998 168.156 215.948 168.82 215.664C168.914 215.627 169.021 215.642 169.098 215.705C169.663 216.166 170.316 216.541 169.853 215.441C170.298 214.381 169.705 214.7 169.124 215.11Z" fill="black"/>
</g>
</svg>
