<svg width="350" height="583" viewBox="0 0 350 583" fill="none" xmlns="http://www.w3.org/2000/svg">
<rect width="350" height="583" fill="#F9F0E4"/>
<g opacity="0.25">
<path d="M195.747 206.702L195.676 206.729C195.677 206.716 195.678 206.707 195.679 206.693C195.673 206.527 195.588 206.364 195.482 206.377C195.377 206.391 195.305 206.573 195.324 206.735C195.332 206.811 195.358 206.868 195.391 206.909C195.188 206.83 194.909 206.83 194.602 206.87C194.315 206.934 194.004 207.046 193.767 207.201C193.535 207.365 193.393 207.529 193.322 207.685C193.291 207.748 193.234 207.8 193.168 207.82C192.986 207.873 192.809 207.989 192.678 208.167C192.492 208.405 192.496 208.73 192.634 208.96C192.906 209.396 193.476 209.422 193.832 209.138C193.921 209.062 193.987 208.97 194.03 208.868C194.055 208.806 194.112 208.768 194.178 208.767C194.338 208.76 194.509 208.702 194.697 208.567C194.886 208.443 195.074 208.291 195.234 208.104C195.401 207.948 195.541 207.748 195.629 207.574C195.631 207.623 195.649 207.682 195.688 207.749C195.773 207.893 195.904 208.016 195.964 207.982C196.025 207.947 196.007 207.764 195.936 207.618C195.929 207.607 195.924 207.599 195.918 207.589C195.938 207.586 195.958 207.583 195.978 207.577C196.235 207.506 196.431 207.293 196.406 207.038C196.385 206.796 196.08 206.613 195.747 206.702Z" fill="black"/>
<path d="M189.78 213.046L189.74 213.109C189.732 213.099 189.727 213.09 189.719 213.079C189.613 212.95 189.444 212.87 189.368 212.943C189.293 213.017 189.348 213.205 189.463 213.322C189.517 213.378 189.572 213.408 189.623 213.421C189.412 213.478 189.191 213.643 188.971 213.858C188.782 214.078 188.603 214.352 188.51 214.615C188.425 214.883 188.413 215.098 188.453 215.265C188.467 215.332 188.453 215.408 188.413 215.463C188.301 215.612 188.232 215.81 188.237 216.029C188.236 216.329 188.439 216.586 188.691 216.687C189.177 216.873 189.647 216.557 189.756 216.12C189.78 216.007 189.775 215.895 189.747 215.788C189.728 215.724 189.751 215.66 189.803 215.62C189.925 215.52 190.026 215.372 190.093 215.153C190.167 214.943 190.223 214.71 190.236 214.467C190.272 214.244 190.261 214.001 190.223 213.81C190.255 213.848 190.306 213.885 190.379 213.915C190.534 213.98 190.715 214.001 190.742 213.937C190.769 213.874 190.642 213.739 190.495 213.664C190.483 213.659 190.474 213.656 190.463 213.651C190.477 213.637 190.491 213.623 190.503 213.607C190.664 213.399 190.689 213.112 190.512 212.923C190.346 212.744 189.99 212.778 189.78 213.046Z" fill="black"/>
<path d="M187.15 213.357L187.098 213.411C187.093 213.399 187.089 213.39 187.084 213.377C187.006 213.23 186.858 213.117 186.769 213.174C186.679 213.231 186.694 213.426 186.782 213.564C186.823 213.629 186.872 213.67 186.919 213.693C186.7 213.706 186.449 213.824 186.189 213.99C185.958 214.167 185.726 214.4 185.58 214.639C185.441 214.884 185.385 215.092 185.389 215.263C185.389 215.333 185.36 215.403 185.309 215.45C185.168 215.573 185.059 215.753 185.018 215.969C184.954 216.262 185.1 216.554 185.326 216.704C185.763 216.983 186.289 216.767 186.486 216.361C186.533 216.256 186.552 216.145 186.547 216.034C186.542 215.968 186.577 215.91 186.636 215.881C186.777 215.807 186.906 215.683 187.018 215.482C187.134 215.292 187.238 215.074 187.3 214.839C187.383 214.628 187.422 214.388 187.425 214.194C187.448 214.237 187.491 214.283 187.555 214.327C187.694 214.421 187.866 214.478 187.906 214.422C187.946 214.365 187.85 214.207 187.721 214.104C187.71 214.097 187.703 214.092 187.692 214.086C187.709 214.075 187.726 214.064 187.741 214.05C187.943 213.878 188.027 213.604 187.893 213.383C187.768 213.174 187.412 213.136 187.15 213.357Z" fill="black"/>
<path d="M200.755 207.325L200.688 207.325C200.693 207.314 200.697 207.305 200.703 207.292C200.752 207.135 200.738 206.953 200.661 206.929C200.579 206.908 200.478 207.043 200.42 207.198C200.395 207.27 200.389 207.332 200.396 207.381C200.155 207.08 199.681 206.75 199.184 206.604C198.94 206.531 198.717 206.526 198.556 206.569C198.489 206.585 198.409 206.575 198.352 206.531C198.199 206.415 197.991 206.342 197.75 206.358C197.43 206.365 197.151 206.586 197.079 206.837C196.958 207.329 197.281 207.759 197.694 207.843C197.802 207.862 197.916 207.865 198.021 207.838C198.084 207.824 198.148 207.841 198.193 207.891C198.305 208.012 198.455 208.103 198.709 208.178C199.192 208.321 199.917 208.32 200.291 208.079C200.266 208.123 200.252 208.184 200.258 208.261C200.268 208.424 200.375 208.602 200.466 208.591C200.561 208.584 200.617 208.408 200.599 208.245C200.596 208.232 200.594 208.224 200.591 208.212L200.661 208.224C200.979 208.259 201.249 208.069 201.261 207.818C201.271 207.57 201.045 207.358 200.755 207.325Z" fill="black"/>
<path d="M205.218 206.44L205.167 206.479C205.164 206.467 205.161 206.458 205.158 206.445C205.099 206.29 204.977 206.157 204.901 206.179C204.827 206.201 204.823 206.38 204.874 206.536C204.898 206.609 204.931 206.662 204.969 206.696C204.574 206.605 204.003 206.651 203.58 206.767C203.367 206.839 203.211 206.908 203.105 207.025C203.062 207.072 202.998 207.088 202.938 207.067C202.777 207.01 202.607 207.02 202.426 207.078C202.184 207.171 201.983 207.389 201.924 207.651C201.805 208.144 202.228 208.585 202.794 208.526C202.933 208.506 203.06 208.459 203.167 208.394C203.23 208.356 203.309 208.348 203.38 208.367C203.549 208.412 203.779 208.431 204.059 208.34C204.624 208.184 205.185 207.714 205.317 207.313C205.326 207.363 205.353 207.419 205.405 207.477C205.515 207.601 205.696 207.678 205.772 207.618C205.849 207.557 205.781 207.381 205.666 207.264C205.656 207.256 205.649 207.25 205.64 207.242L205.703 207.209C205.981 207.04 206.074 206.728 205.922 206.523C205.775 206.324 205.461 206.292 205.218 206.44Z" fill="black"/>
<path d="M205.752 202.733L205.717 202.788C205.71 202.777 205.704 202.77 205.697 202.758C205.586 202.632 205.425 202.55 205.362 202.596C205.3 202.642 205.359 202.811 205.462 202.94C205.511 203.001 205.561 203.038 205.608 203.058C205.205 203.106 204.686 203.343 204.33 203.595C204.155 203.735 204.033 203.853 203.975 203.997C203.951 204.056 203.897 204.093 203.833 204.094C203.662 204.094 203.506 204.162 203.356 204.278C203.162 204.446 203.051 204.719 203.088 204.986C203.15 205.488 203.703 205.759 204.212 205.511C204.336 205.446 204.439 205.359 204.516 205.261C204.562 205.205 204.634 205.17 204.706 205.164C204.882 205.149 205.103 205.089 205.334 204.909C205.809 204.572 206.17 203.94 206.152 203.519C206.179 203.563 206.223 203.607 206.292 203.643C206.44 203.722 206.637 203.733 206.688 203.651C206.737 203.568 206.612 203.425 206.463 203.354C206.45 203.35 206.441 203.347 206.43 203.343L206.478 203.29C206.679 203.038 206.656 202.714 206.441 202.574C206.233 202.436 205.928 202.512 205.752 202.733Z" fill="black"/>
<path d="M208.632 203.241L208.599 203.296C208.591 203.287 208.585 203.279 208.576 203.269C208.459 203.153 208.287 203.079 208.228 203.132C208.169 203.184 208.241 203.35 208.355 203.471C208.408 203.528 208.461 203.561 208.51 203.577C208.113 203.658 207.599 203.951 207.272 204.282C207.094 204.454 206.999 204.619 206.96 204.775C206.943 204.837 206.896 204.888 206.833 204.907C206.663 204.957 206.511 205.067 206.397 205.227C206.246 205.45 206.222 205.748 206.339 205.99C206.556 206.45 207.159 206.54 207.559 206.19C207.655 206.102 207.726 205.998 207.773 205.889C207.8 205.825 207.859 205.778 207.928 205.762C208.094 205.723 208.271 205.622 208.463 205.436C208.851 205.047 209.143 204.412 209.091 203.993C209.121 204.035 209.169 204.075 209.241 204.106C209.394 204.172 209.59 204.17 209.631 204.085C209.673 204 209.542 203.869 209.386 203.807C209.373 203.804 209.363 203.801 209.352 203.799L209.398 203.745C209.571 203.475 209.53 203.156 209.309 203.032C209.088 202.909 208.784 203.003 208.632 203.241Z" fill="black"/>
<path d="M190.793 208.57L190.774 208.631C190.764 208.624 190.756 208.618 190.746 208.61C190.604 208.524 190.419 208.492 190.374 208.557C190.33 208.622 190.44 208.766 190.58 208.858C190.645 208.9 190.705 208.921 190.756 208.925C190.389 209.095 189.961 209.499 189.723 209.896C189.591 210.105 189.539 210.287 189.539 210.447C189.538 210.512 189.504 210.573 189.447 210.606C189.294 210.693 189.173 210.835 189.101 211.017C189.008 211.269 189.057 211.564 189.229 211.772C189.551 212.169 190.159 212.116 190.462 211.683C190.534 211.576 190.579 211.459 190.598 211.342C190.608 211.273 190.654 211.213 190.718 211.183C190.87 211.106 191.018 210.966 191.159 210.742C191.442 210.274 191.573 209.589 191.42 209.194C191.46 209.227 191.516 209.255 191.594 209.269C191.758 209.298 191.947 209.251 191.968 209.158C191.988 209.065 191.829 208.969 191.662 208.946C191.649 208.945 191.639 208.945 191.627 208.945L191.659 208.882C191.762 208.58 191.646 208.279 191.401 208.21C191.156 208.142 190.883 208.303 190.793 208.57Z" fill="black"/>
<path d="M210.083 198.917L210.086 198.981C210.074 198.977 210.065 198.973 210.052 198.968C209.889 198.927 209.706 198.948 209.684 199.025C209.66 199.1 209.808 199.207 209.968 199.254C210.043 199.276 210.106 199.278 210.156 199.268C209.858 199.537 209.572 200.053 209.462 200.493C209.402 200.717 209.409 200.897 209.447 201.044C209.463 201.104 209.448 201.17 209.403 201.214C209.287 201.333 209.189 201.482 209.171 201.673C209.14 201.93 209.242 202.203 209.46 202.377C209.847 202.703 210.45 202.537 210.646 202.026C210.697 201.901 210.717 201.773 210.703 201.65C210.696 201.578 210.725 201.507 210.779 201.459C210.913 201.343 211.017 201.158 211.088 200.888C211.223 200.355 211.137 199.667 210.873 199.333C210.92 199.354 210.982 199.365 211.06 199.355C211.227 199.336 211.395 199.237 211.387 199.143C211.377 199.05 211.193 199.003 211.029 199.028C211.016 199.031 211.007 199.034 210.995 199.037L211.004 198.968C211.023 198.652 210.817 198.397 210.56 198.399C210.308 198.401 210.1 198.633 210.083 198.917Z" fill="black"/>
<path d="M213.154 184.943L213.099 184.979C213.097 184.967 213.095 184.957 213.093 184.944C213.044 184.786 212.929 184.644 212.852 184.666C212.773 184.685 212.757 184.864 212.8 185.023C212.82 185.097 212.851 185.151 212.886 185.187C212.496 185.078 211.898 185.108 211.457 185.245C211.231 185.312 211.077 185.412 210.969 185.52C210.925 185.566 210.86 185.587 210.799 185.572C210.634 185.537 210.453 185.533 210.277 185.617C210.037 185.726 209.852 185.954 209.814 186.226C209.732 186.72 210.191 187.138 210.739 187.034C210.874 187.013 210.996 186.962 211.095 186.886C211.154 186.843 211.232 186.83 211.302 186.85C211.473 186.902 211.689 186.892 211.96 186.811C212.496 186.645 213.05 186.215 213.203 185.821C213.209 185.871 213.233 185.928 213.281 185.989C213.385 186.118 213.559 186.206 213.636 186.151C213.713 186.094 213.658 185.916 213.55 185.792C213.54 185.783 213.533 185.776 213.524 185.768L213.589 185.739C213.874 185.59 213.989 185.286 213.853 185.072C213.72 184.862 213.41 184.809 213.154 184.943Z" fill="black"/>
<path d="M209.654 194.102V194.174C209.642 194.17 209.633 194.166 209.62 194.161C209.459 194.116 209.273 194.145 209.249 194.243C209.234 194.341 209.392 194.461 209.556 194.495C209.633 194.512 209.697 194.507 209.745 194.49C209.448 194.808 209.332 195.524 209.437 196.038C209.485 196.297 209.577 196.475 209.687 196.589C209.732 196.636 209.751 196.703 209.733 196.765C209.683 196.934 209.687 197.092 209.756 197.276C209.855 197.52 210.09 197.71 210.359 197.757C210.867 197.85 211.296 197.424 211.223 196.886C211.202 196.753 211.156 196.623 211.085 196.528C211.045 196.471 211.035 196.398 211.059 196.332C211.118 196.171 211.129 195.981 211.084 195.738C210.991 195.268 210.737 194.77 210.465 194.485C210.513 194.5 210.577 194.502 210.653 194.487C210.817 194.455 210.974 194.368 210.956 194.296C210.945 194.225 210.764 194.185 210.598 194.207C210.585 194.21 210.576 194.212 210.564 194.215C210.568 194.195 210.573 194.175 210.575 194.154C210.587 193.885 210.425 193.634 210.177 193.589C209.924 193.543 209.671 193.771 209.654 194.102Z" fill="black"/>
<path d="M207.89 192.105L207.867 192.174C207.858 192.166 207.85 192.16 207.84 192.151C207.7 192.06 207.514 192.031 207.461 192.118C207.415 192.207 207.528 192.368 207.674 192.45C207.742 192.489 207.804 192.503 207.855 192.501C207.474 192.715 207.139 193.363 207.078 193.883C207.044 194.143 207.076 194.342 207.144 194.483C207.172 194.541 207.17 194.61 207.134 194.664C207.033 194.81 206.988 194.961 206.996 195.158C207.014 195.419 207.179 195.671 207.42 195.796C207.874 196.037 208.416 195.759 208.515 195.226C208.536 195.092 208.533 194.955 208.495 194.844C208.474 194.777 208.488 194.704 208.531 194.65C208.637 194.514 208.708 194.336 208.741 194.091C208.799 193.615 208.712 193.066 208.542 192.713C208.584 192.741 208.644 192.762 208.721 192.771C208.887 192.79 209.064 192.753 209.069 192.68C209.081 192.609 208.921 192.516 208.756 192.487C208.743 192.487 208.733 192.486 208.721 192.485C208.731 192.467 208.742 192.45 208.75 192.431C208.846 192.178 208.771 191.89 208.548 191.773C208.322 191.654 208.009 191.795 207.89 192.105Z" fill="black"/>
<path d="M211.927 189.568L211.884 189.623C211.878 189.613 211.874 189.604 211.867 189.592C211.769 189.457 211.609 189.362 211.536 189.419C211.462 189.476 211.504 189.661 211.605 189.793C211.652 189.854 211.702 189.891 211.75 189.911C211.325 189.951 210.75 190.347 210.444 190.815C210.292 191.054 210.215 191.25 210.226 191.432C210.228 191.504 210.197 191.577 210.14 191.622C209.987 191.744 209.86 191.926 209.829 192.159C209.77 192.469 209.907 192.766 210.153 192.903C210.601 193.14 211.123 192.925 211.291 192.543C211.338 192.444 211.365 192.342 211.362 192.236C211.362 192.174 211.397 192.118 211.452 192.089C211.579 192.015 211.727 191.903 211.85 191.709C212.095 191.333 212.298 190.773 212.292 190.374C212.319 190.417 212.364 190.461 212.432 190.499C212.578 190.58 212.761 190.611 212.802 190.541C212.843 190.471 212.73 190.324 212.588 190.239C212.576 190.234 212.568 190.23 212.556 190.225L212.604 190.181C212.795 189.963 212.836 189.666 212.652 189.485C212.477 189.312 212.136 189.331 211.927 189.568Z" fill="black"/>
<path d="M215.195 185.809L215.146 185.861C215.141 185.849 215.138 185.84 215.132 185.828C215.049 185.684 214.9 185.574 214.82 185.623C214.741 185.673 214.764 185.861 214.851 186.002C214.892 186.067 214.938 186.11 214.983 186.134C214.556 186.132 213.944 186.469 213.592 186.906C213.416 187.128 213.32 187.316 213.312 187.498C213.306 187.57 213.268 187.639 213.207 187.679C213.042 187.785 212.897 187.953 212.843 188.183C212.753 188.485 212.858 188.794 213.089 188.954C213.51 189.234 214.053 189.071 214.258 188.708C214.315 188.614 214.352 188.515 214.361 188.409C214.367 188.348 214.407 188.295 214.465 188.271C214.599 188.211 214.758 188.113 214.9 187.932C215.182 187.582 215.441 187.045 215.476 186.648C215.498 186.693 215.538 186.741 215.602 186.785C215.739 186.881 215.918 186.928 215.966 186.863C216.014 186.798 215.917 186.641 215.784 186.543C215.772 186.536 215.764 186.531 215.754 186.525L215.806 186.486C216.018 186.288 216.089 185.996 215.925 185.798C215.767 185.609 215.427 185.594 215.195 185.809Z" fill="black"/>
<path d="M198.434 209.218L198.359 209.218C198.365 209.206 198.369 209.197 198.375 209.185C198.427 209.028 198.404 208.845 198.303 208.821C198.21 208.8 198.088 208.95 198.049 209.109C198.031 209.183 198.033 209.245 198.048 209.294C197.75 209.005 197.115 208.827 196.598 208.872C196.337 208.891 196.146 208.968 196.015 209.068C195.961 209.11 195.889 209.127 195.822 209.107C195.646 209.053 195.438 209.064 195.235 209.158C194.959 209.284 194.782 209.569 194.814 209.836C194.894 210.33 195.324 210.634 195.732 210.563C195.838 210.544 195.934 210.499 196.021 210.439C196.072 210.403 196.138 210.398 196.194 210.426C196.331 210.497 196.505 210.525 196.737 210.507C197.192 210.468 197.74 210.264 198.027 209.998C198.011 210.046 198.006 210.108 198.018 210.183C198.044 210.345 198.124 210.503 198.195 210.49C198.258 210.479 198.302 210.302 198.29 210.14C198.288 210.127 198.286 210.118 198.284 210.107C198.302 210.111 198.32 210.115 198.339 210.117C198.411 210.121 198.437 210.118 198.493 210.102C198.562 210.093 198.627 210.072 198.684 210.042C198.798 209.981 198.88 209.882 198.905 209.76C198.931 209.638 198.897 209.516 198.824 209.418C198.787 209.369 198.741 209.325 198.686 209.291C198.618 209.256 198.508 209.222 198.434 209.218Z" fill="black"/>
<path d="M193.429 210.568L193.383 210.625C193.377 210.614 193.373 210.606 193.366 210.594C193.271 210.458 193.108 210.365 193.027 210.429C192.954 210.49 193.001 210.674 193.107 210.801C193.157 210.861 193.209 210.896 193.257 210.914C192.842 210.972 192.313 211.359 192.036 211.789C191.893 212.005 191.84 212.199 191.842 212.362C191.844 212.43 191.814 212.496 191.757 212.536C191.606 212.641 191.49 212.81 191.443 213.024C191.378 213.316 191.503 213.627 191.738 213.763C192.188 214 192.696 213.849 192.886 213.489C192.934 213.394 192.956 213.292 192.959 213.187C192.961 213.126 192.997 213.072 193.053 213.046C193.194 212.981 193.322 212.862 193.449 212.671C193.693 212.293 193.859 211.742 193.817 211.357C193.845 211.398 193.893 211.44 193.961 211.476C194.109 211.554 194.285 211.588 194.318 211.524C194.347 211.468 194.23 211.327 194.09 211.238C194.079 211.232 194.071 211.228 194.06 211.222C194.074 211.211 194.089 211.2 194.102 211.186C194.149 211.133 194.162 211.111 194.183 211.057C194.217 210.997 194.239 210.934 194.249 210.872C194.269 210.746 194.238 210.623 194.155 210.528C194.071 210.434 193.952 210.386 193.827 210.384C193.765 210.383 193.702 210.393 193.641 210.415C193.571 210.447 193.477 210.512 193.429 210.568Z" fill="black"/>
<path d="M202.998 209.464C202.977 209.468 202.957 209.474 202.937 209.48C202.939 209.468 202.941 209.458 202.943 209.445C202.95 209.28 202.893 209.107 202.816 209.103C202.739 209.097 202.665 209.256 202.652 209.42C202.646 209.496 202.657 209.557 202.677 209.603C202.361 209.364 201.806 209.208 201.356 209.203C201.126 209.196 200.954 209.242 200.821 209.324C200.767 209.359 200.701 209.355 200.648 209.323C200.506 209.234 200.336 209.193 200.148 209.227C199.893 209.264 199.661 209.445 199.558 209.697C199.362 210.159 199.675 210.666 200.189 210.711C200.316 210.722 200.439 210.705 200.549 210.665C200.613 210.641 200.686 210.655 200.743 210.691C200.882 210.78 201.077 210.837 201.342 210.844C201.867 210.851 202.492 210.616 202.757 210.304C202.747 210.353 202.75 210.415 202.774 210.488C202.825 210.644 202.952 210.789 203.038 210.762C203.125 210.732 203.133 210.548 203.077 210.394C203.072 210.382 203.067 210.374 203.062 210.363L203.13 210.358C203.431 210.311 203.635 210.073 203.585 209.828C203.535 209.584 203.272 209.42 202.998 209.464Z" fill="black"/>
<path d="M187.683 209.302C187.674 209.322 187.669 209.341 187.663 209.361C187.653 209.353 187.646 209.346 187.636 209.338C187.499 209.243 187.319 209.196 187.274 209.257C187.227 209.317 187.324 209.465 187.458 209.564C187.52 209.609 187.578 209.634 187.629 209.642C187.252 209.773 186.819 210.147 186.571 210.516C186.441 210.701 186.388 210.868 186.387 211.021C186.387 211.084 186.349 211.137 186.292 211.164C186.139 211.232 186.013 211.351 185.94 211.525C185.834 211.754 185.864 212.044 186.025 212.265C186.316 212.675 186.921 212.691 187.237 212.292C187.315 212.193 187.367 212.082 187.392 211.971C187.406 211.904 187.458 211.852 187.519 211.824C187.671 211.758 187.825 211.628 187.974 211.413C188.263 210.984 188.399 210.341 188.274 209.954C188.311 209.989 188.366 210.02 188.442 210.04C188.603 210.082 188.796 210.056 188.819 209.97C188.84 209.882 188.687 209.776 188.524 209.739C188.511 209.738 188.502 209.736 188.49 209.735L188.522 209.677C188.644 209.402 188.55 209.105 188.312 209.015C188.075 208.925 187.793 209.053 187.683 209.302Z" fill="black"/>
<path d="M207.194 207.925C207.176 207.936 207.16 207.95 207.144 207.963C207.14 207.951 207.138 207.942 207.134 207.929C207.073 207.776 206.947 207.641 206.874 207.667C206.802 207.694 206.805 207.875 206.862 208.03C206.889 208.102 206.924 208.153 206.962 208.187C206.568 208.088 206.001 208.181 205.589 208.353C205.384 208.452 205.241 208.547 205.154 208.674C205.118 208.724 205.06 208.753 204.998 208.745C204.835 208.729 204.663 208.754 204.504 208.852C204.289 208.989 204.154 209.254 204.159 209.518C204.167 210.026 204.657 210.356 205.154 210.199C205.278 210.165 205.382 210.095 205.465 210.011C205.514 209.962 205.584 209.941 205.653 209.953C205.817 209.98 206.027 209.969 206.266 209.854C206.752 209.651 207.216 209.174 207.331 208.792C207.342 208.842 207.371 208.897 207.424 208.953C207.536 209.074 207.709 209.149 207.775 209.089C207.841 209.028 207.772 208.858 207.656 208.739C207.646 208.731 207.639 208.725 207.63 208.718L207.689 208.687C207.949 208.529 208.032 208.227 207.882 208.021C207.736 207.821 207.43 207.781 207.194 207.925Z" fill="black"/>
<path d="M210.49 204.905C210.478 204.922 210.469 204.94 210.458 204.958C210.451 204.948 210.445 204.94 210.437 204.93C210.323 204.809 210.156 204.728 210.099 204.779C210.044 204.832 210.106 204.994 210.217 205.118C210.268 205.175 210.32 205.21 210.368 205.228C210.167 205.252 209.941 205.337 209.732 205.459C209.513 205.574 209.305 205.72 209.152 205.884C208.989 206.046 208.897 206.195 208.865 206.346C208.851 206.406 208.807 206.456 208.747 206.473C208.589 206.521 208.437 206.609 208.329 206.763C208.182 206.971 208.168 207.272 208.282 207.513C208.498 207.975 209.075 208.079 209.467 207.752C209.566 207.674 209.634 207.572 209.676 207.464C209.701 207.401 209.757 207.355 209.824 207.341C209.986 207.305 210.167 207.214 210.351 207.03C210.528 206.843 210.69 206.604 210.799 206.362C210.899 206.111 210.953 205.861 210.936 205.661C210.965 205.703 211.012 205.744 211.082 205.778C211.232 205.851 211.428 205.865 211.465 205.783C211.503 205.702 211.375 205.568 211.223 205.499C211.211 205.495 211.202 205.492 211.191 205.488L211.234 205.438C211.411 205.195 211.381 204.886 211.168 204.75C210.955 204.614 210.651 204.683 210.49 204.905Z" fill="black"/>
<path d="M212.332 200.9C212.327 200.921 212.326 200.941 212.323 200.961C212.313 200.955 212.304 200.951 212.292 200.944C212.139 200.881 211.952 200.872 211.918 200.941C211.884 201.009 212.015 201.134 212.167 201.202C212.239 201.234 212.301 201.246 212.352 201.244C212.016 201.451 211.674 201.908 211.508 202.315C211.432 202.527 211.409 202.696 211.436 202.844C211.447 202.904 211.425 202.965 211.376 203.002C211.248 203.103 211.149 203.243 211.106 203.422C211.052 203.667 211.151 203.949 211.346 204.131C211.72 204.483 212.302 204.373 212.54 203.919C212.603 203.809 212.621 203.685 212.622 203.57C212.621 203.501 212.656 203.438 212.713 203.399C212.853 203.305 212.983 203.148 213.073 202.902C213.268 202.422 213.261 201.765 213.05 201.413C213.094 201.439 213.154 201.458 213.233 201.461C213.4 201.468 213.578 201.401 213.583 201.312C213.587 201.224 213.416 201.152 213.248 201.15C213.234 201.151 213.225 201.152 213.213 201.153L213.234 201.09C213.297 200.797 213.13 200.526 212.88 200.487C212.627 200.448 212.389 200.634 212.332 200.9Z" fill="black"/>
<path d="M212.406 196.483C212.409 196.504 212.415 196.523 212.421 196.543C212.408 196.542 212.399 196.54 212.385 196.539C212.218 196.534 212.041 196.595 212.037 196.672C212.032 196.749 212.201 196.818 212.368 196.826C212.446 196.83 212.509 196.818 212.555 196.796C212.322 197.114 212.182 197.671 212.196 198.115C212.212 198.341 212.254 198.508 212.342 198.634C212.377 198.685 212.383 198.75 212.354 198.804C212.279 198.947 212.235 199.115 212.277 199.298C212.337 199.545 212.527 199.762 212.787 199.851C213.27 200.023 213.769 199.692 213.792 199.185C213.8 199.06 213.779 198.941 213.727 198.836C213.698 198.774 213.704 198.702 213.74 198.645C213.826 198.505 213.888 198.312 213.871 198.054C213.854 197.543 213.595 196.946 213.267 196.698C213.318 196.706 213.381 196.702 213.455 196.676C213.613 196.621 213.753 196.495 213.723 196.412C213.694 196.329 213.507 196.325 213.351 196.384C213.339 196.39 213.33 196.394 213.32 196.4L213.315 196.334C213.273 196.077 213.056 195.886 212.8 195.895C212.547 195.904 212.355 196.175 212.406 196.483Z" fill="black"/>
<path d="M212.897 191.694L212.878 191.761C212.868 191.753 212.861 191.747 212.85 191.739C212.708 191.649 212.524 191.618 212.477 191.701C212.429 191.784 212.54 191.94 212.685 192.021C212.753 192.058 212.815 192.073 212.867 192.073C212.504 192.273 212.153 192.859 212.082 193.369C212.043 193.628 212.073 193.826 212.147 193.973C212.176 194.033 212.174 194.105 212.14 194.163C212.052 194.318 212.008 194.511 212.053 194.716C212.108 194.994 212.333 195.215 212.599 195.274C213.101 195.378 213.54 195.025 213.565 194.591C213.573 194.481 213.552 194.375 213.509 194.277C213.484 194.22 213.497 194.156 213.537 194.108C213.636 193.991 213.706 193.831 213.74 193.61C213.801 193.173 213.737 192.633 213.552 192.287C213.594 192.315 213.653 192.337 213.731 192.347C213.897 192.367 214.076 192.337 214.083 192.268C214.091 192.199 213.929 192.106 213.765 192.077C213.753 192.075 213.743 192.074 213.732 192.074C213.74 192.056 213.75 192.04 213.756 192.021C213.854 191.785 213.764 191.508 213.546 191.388C213.32 191.263 213.018 191.4 212.897 191.694Z" fill="black"/>
<path d="M202.206 212.113L202.139 212.117C202.143 212.106 202.147 212.097 202.151 212.084C202.19 211.924 202.163 211.743 202.084 211.725C202.004 211.71 201.896 211.856 201.851 212.012C201.83 212.085 201.829 212.147 201.841 212.196C201.711 212.054 201.522 211.924 201.313 211.822C201.209 211.766 201.101 211.708 200.991 211.663C200.933 211.642 200.879 211.621 200.826 211.602L200.743 211.576C200.678 211.562 200.614 211.548 200.551 211.534C200.488 211.532 200.429 211.53 200.369 211.528C200.116 211.522 199.923 211.563 199.778 211.641C199.718 211.673 199.645 211.674 199.586 211.641C199.428 211.555 199.241 211.515 199.037 211.545C198.762 211.587 198.522 211.768 198.414 212.018C198.202 212.481 198.562 212.988 199.113 213.033C199.248 213.044 199.378 213.027 199.494 212.984C199.562 212.96 199.64 212.97 199.7 213.008C199.847 213.101 200.05 213.162 200.331 213.169C200.383 213.17 200.385 213.17 200.39 213.167L200.392 213.164C200.402 213.165 200.344 213.154 200.384 213.159L200.488 213.169C200.556 213.171 200.627 213.174 200.701 213.177C200.843 213.177 200.984 213.173 201.118 213.151C201.389 213.098 201.627 213.012 201.788 212.899C201.767 212.945 201.758 213.007 201.77 213.084C201.794 213.25 201.902 213.413 202.002 213.396C202.1 213.382 202.145 213.203 202.114 213.041C202.11 213.029 202.107 213.02 202.103 213.009L202.177 213.016C202.511 213.028 202.772 212.822 202.761 212.568C202.75 212.324 202.501 212.124 202.206 212.113Z" fill="black"/>
<path d="M206.903 211.063L206.844 211.098C206.843 211.085 206.841 211.076 206.84 211.063C206.799 210.902 206.689 210.755 206.608 210.777C206.525 210.795 206.497 210.974 206.533 211.134C206.549 211.209 206.579 211.264 206.613 211.302C206.216 211.176 205.595 211.213 205.131 211.347C204.893 211.412 204.732 211.513 204.62 211.629C204.574 211.674 204.506 211.694 204.441 211.678C204.27 211.632 204.085 211.652 203.901 211.732C203.651 211.833 203.464 212.075 203.426 212.346C203.347 212.846 203.819 213.241 204.377 213.144C204.513 213.116 204.637 213.063 204.739 212.992C204.8 212.95 204.879 212.938 204.951 212.959C205.122 213.005 205.341 212.994 205.618 212.918C206.163 212.759 206.729 212.33 206.906 211.946C206.91 211.996 206.932 212.054 206.978 212.116C207.078 212.249 207.249 212.345 207.33 212.293C207.408 212.237 207.362 212.057 207.259 211.928C207.25 211.919 207.243 211.913 207.235 211.904L207.302 211.877C207.595 211.733 207.733 211.438 207.612 211.219C207.49 211 207.173 210.93 206.903 211.063Z" fill="black"/>
<path d="M214.438 208.162L214.41 208.223C214.402 208.214 214.395 208.207 214.386 208.196C214.26 208.088 214.083 208.028 214.03 208.091C213.972 208.152 214.053 208.315 214.175 208.427C214.232 208.479 214.288 208.508 214.338 208.52C213.939 208.638 213.45 209.014 213.146 209.384C212.988 209.569 212.915 209.743 212.89 209.9C212.878 209.963 212.834 210.017 212.772 210.04C212.604 210.099 212.464 210.217 212.359 210.386C212.212 210.608 212.199 210.912 212.325 211.156C212.551 211.611 213.168 211.673 213.571 211.281C213.667 211.182 213.737 211.07 213.78 210.954C213.806 210.886 213.864 210.832 213.935 210.809C214.103 210.751 214.276 210.621 214.459 210.403C214.816 209.969 215.032 209.301 214.953 208.886C214.986 208.925 215.038 208.961 215.112 208.986C215.272 209.04 215.468 209.022 215.504 208.934C215.536 208.845 215.394 208.723 215.234 208.674C215.221 208.672 215.212 208.67 215.2 208.668L215.239 208.608C215.397 208.327 215.339 208.007 215.112 207.895C214.884 207.782 214.582 207.902 214.438 208.162Z" fill="black"/>
<path d="M210.918 208.277L210.873 208.328C210.867 208.317 210.863 208.308 210.857 208.296C210.768 208.156 210.616 208.05 210.544 208.096C210.473 208.143 210.504 208.325 210.588 208.465C210.628 208.53 210.674 208.574 210.719 208.598C210.297 208.6 209.714 208.848 209.318 209.147C209.121 209.304 208.994 209.445 208.934 209.597C208.908 209.658 208.854 209.705 208.787 209.716C208.614 209.751 208.436 209.826 208.297 209.977C208.109 210.182 208.036 210.479 208.115 210.735C208.262 211.222 208.853 211.391 209.309 211.091C209.424 211.019 209.514 210.926 209.576 210.819C209.613 210.756 209.679 210.716 209.751 210.708C209.923 210.687 210.13 210.615 210.348 210.443C210.787 210.111 211.161 209.532 211.206 209.117C211.227 209.164 211.266 209.212 211.331 209.257C211.47 209.352 211.66 209.39 211.714 209.314C211.77 209.238 211.67 209.083 211.531 208.991C211.519 208.985 211.511 208.981 211.5 208.975L211.555 208.93C211.787 208.709 211.828 208.389 211.646 208.215C211.464 208.04 211.138 208.068 210.918 208.277Z" fill="black"/>
<path d="M213.862 204.458L213.84 204.52C213.83 204.512 213.823 204.505 213.813 204.496C213.678 204.398 213.497 204.351 213.449 204.417C213.402 204.483 213.497 204.639 213.626 204.74C213.687 204.788 213.745 204.813 213.796 204.821C213.402 204.964 212.95 205.367 212.664 205.755C212.522 205.955 212.458 206.133 212.438 206.29C212.431 206.355 212.392 206.414 212.332 206.443C212.173 206.521 212.035 206.649 211.94 206.829C211.814 207.075 211.834 207.384 211.984 207.607C212.269 208.033 212.878 208.027 213.233 207.617C213.322 207.516 213.377 207.396 213.409 207.278C213.428 207.208 213.48 207.15 213.548 207.123C213.714 207.059 213.879 206.92 214.042 206.69C214.372 206.24 214.541 205.549 214.437 205.142C214.472 205.178 214.526 205.21 214.603 205.23C214.767 205.272 214.962 205.239 214.986 205.145C215.012 205.051 214.861 204.941 214.697 204.905C214.684 204.904 214.675 204.903 214.663 204.902L214.699 204.839C214.843 204.547 214.745 204.228 214.507 204.136C214.271 204.046 213.993 204.195 213.862 204.458Z" fill="black"/>
<path d="M214.962 199.788L214.962 199.856C214.951 199.851 214.942 199.848 214.929 199.842C214.768 199.796 214.582 199.817 214.557 199.899C214.533 199.982 214.68 200.097 214.84 200.146C214.916 200.168 214.979 200.17 215.029 200.158C214.72 200.439 214.464 201.015 214.376 201.494C214.338 201.74 214.35 201.927 214.406 202.077C214.429 202.139 214.42 202.209 214.379 202.26C214.274 202.4 214.194 202.568 214.195 202.77C214.2 203.043 214.331 203.305 214.569 203.45C215 203.724 215.573 203.47 215.706 202.938C215.743 202.808 215.746 202.678 215.719 202.557C215.705 202.486 215.726 202.412 215.774 202.358C215.892 202.228 215.987 202.036 216.029 201.764C216.127 201.227 215.999 200.558 215.746 200.222C215.793 200.243 215.855 200.253 215.933 200.243C216.1 200.224 216.267 200.127 216.259 200.036C216.252 199.944 216.071 199.895 215.904 199.917C215.891 199.92 215.882 199.922 215.87 199.926C215.875 199.903 215.879 199.88 215.881 199.857C215.902 199.544 215.713 199.279 215.458 199.265C215.204 199.251 214.982 199.485 214.962 199.788Z" fill="black"/>
<path d="M214.559 194.943C214.562 194.967 214.569 194.989 214.575 195.011C214.562 195.009 214.553 195.007 214.539 195.005C214.371 194.994 214.195 195.056 214.192 195.147C214.19 195.238 214.362 195.322 214.53 195.331C214.609 195.335 214.67 195.322 214.716 195.298C214.486 195.649 214.401 196.303 214.484 196.804C214.525 197.059 214.605 197.238 214.711 197.363C214.755 197.415 214.771 197.484 214.749 197.547C214.693 197.714 214.692 197.903 214.755 198.075C214.801 198.205 214.871 198.261 214.966 198.371C215.059 198.473 215.178 198.549 215.311 198.587C215.559 198.657 215.798 198.598 215.979 198.455C216.07 198.392 216.142 198.281 216.189 198.139C216.231 198.014 216.251 197.869 216.235 197.736C216.221 197.598 216.177 197.475 216.112 197.372C216.074 197.311 216.069 197.234 216.095 197.17C216.16 197.011 216.181 196.806 216.138 196.544C216.053 196.027 215.754 195.448 215.427 195.188C215.477 195.196 215.541 195.19 215.614 195.163C215.771 195.104 215.91 194.978 215.881 194.896C215.851 194.815 215.664 194.807 215.507 194.864C215.495 194.87 215.486 194.874 215.476 194.879L215.471 194.812C215.426 194.513 215.195 194.299 214.941 194.324C214.688 194.348 214.512 194.631 214.559 194.943Z" fill="black"/>
<path d="M193.265 204.504C193.259 204.522 193.257 204.541 193.253 204.56C193.243 204.553 193.235 204.547 193.224 204.54C193.076 204.459 192.9 204.427 192.859 204.479C192.816 204.531 192.927 204.664 193.064 204.757C193.128 204.8 193.187 204.823 193.238 204.83C192.887 204.971 192.437 205.276 192.169 205.614C192.022 205.782 191.943 205.938 191.922 206.09C191.913 206.151 191.874 206.204 191.815 206.224C191.65 206.274 191.504 206.375 191.404 206.54C191.273 206.765 191.252 207.055 191.383 207.294C191.618 207.739 192.217 207.831 192.593 207.464C192.687 207.376 192.757 207.272 192.799 207.164C192.823 207.097 192.877 207.044 192.945 207.024C193.107 206.972 193.287 206.86 193.468 206.651C193.816 206.221 194.042 205.534 193.894 205.119C193.932 205.154 193.987 205.183 194.064 205.199C194.229 205.233 194.425 205.182 194.451 205.083C194.475 204.983 194.308 204.883 194.144 204.865H194.109L194.137 204.798C194.251 204.479 194.092 204.178 193.837 204.139C193.588 204.103 193.35 204.269 193.265 204.504Z" fill="black"/>
<path d="M192.945 200.016L192.955 200.082C192.942 200.079 192.933 200.077 192.919 200.074C192.754 200.05 192.572 200.095 192.561 200.183C192.548 200.271 192.715 200.364 192.882 200.385C192.959 200.394 193.022 200.386 193.07 200.366C192.802 200.664 192.69 201.366 192.8 201.861C192.854 202.115 192.94 202.276 193.053 202.39C193.1 202.437 193.119 202.501 193.099 202.56C193.051 202.72 193.056 202.892 193.125 203.053C193.226 203.275 193.44 203.443 193.717 203.508C193.966 203.563 194.207 203.504 194.371 203.342C194.542 203.179 194.63 202.921 194.59 202.656C194.57 202.524 194.518 202.411 194.45 202.313C194.41 202.256 194.401 202.182 194.424 202.121C194.481 201.969 194.492 201.769 194.443 201.537C194.342 201.077 194.088 200.6 193.787 200.312C193.837 200.323 193.9 200.322 193.976 200.301C194.137 200.257 194.284 200.149 194.264 200.072C194.243 199.995 194.058 199.973 193.896 200.014C193.884 200.019 193.875 200.022 193.863 200.026L193.866 199.963C193.846 199.68 193.637 199.456 193.382 199.461C193.128 199.466 192.924 199.716 192.945 200.016Z" fill="black"/>
<path d="M193.652 195.181L193.63 195.247C193.621 195.239 193.613 195.233 193.603 195.223C193.465 195.129 193.282 195.092 193.23 195.171C193.179 195.25 193.282 195.41 193.423 195.498C193.49 195.539 193.55 195.557 193.601 195.559C193.234 195.746 192.832 196.319 192.742 196.849C192.681 197.115 192.717 197.321 192.778 197.476C192.803 197.539 192.799 197.613 192.765 197.672C192.673 197.829 192.62 198.029 192.662 198.24C192.715 198.527 192.926 198.756 193.197 198.821C193.696 198.939 194.142 198.583 194.177 198.144C194.188 198.033 194.171 197.925 194.13 197.825C194.105 197.766 194.119 197.702 194.163 197.655C194.272 197.542 194.335 197.38 194.387 197.162C194.46 196.725 194.445 196.172 194.276 195.806C194.316 195.837 194.375 195.862 194.451 195.875C194.617 195.902 194.799 195.876 194.812 195.802C194.825 195.729 194.668 195.629 194.505 195.595C194.492 195.594 194.483 195.592 194.471 195.591C194.481 195.573 194.492 195.556 194.5 195.537C194.603 195.285 194.536 195 194.306 194.881C194.086 194.766 193.772 194.891 193.652 195.181Z" fill="black"/>
<path d="M196.875 194.562L196.839 194.623C196.832 194.613 196.826 194.605 196.817 194.594C196.703 194.474 196.531 194.4 196.464 194.468C196.397 194.535 196.465 194.712 196.584 194.826C196.641 194.88 196.695 194.91 196.746 194.922C196.347 195.03 195.833 195.511 195.634 196.012C195.519 196.259 195.511 196.468 195.538 196.632C195.55 196.699 195.529 196.771 195.484 196.821C195.361 196.957 195.267 197.142 195.264 197.357C195.256 197.649 195.414 197.915 195.666 198.034C196.129 198.249 196.641 197.989 196.767 197.568C196.801 197.461 196.806 197.352 196.788 197.246C196.775 197.183 196.803 197.123 196.856 197.087C196.986 196.998 197.082 196.852 197.178 196.649C197.341 196.235 197.442 195.691 197.353 195.3C197.387 195.338 197.439 195.374 197.511 195.401C197.667 195.462 197.851 195.473 197.88 195.403C197.908 195.334 197.775 195.205 197.622 195.139C197.61 195.135 197.601 195.132 197.59 195.128C197.603 195.113 197.618 195.099 197.63 195.081C197.783 194.855 197.777 194.563 197.578 194.4C197.387 194.243 197.053 194.303 196.875 194.562Z" fill="black"/>
<path d="M196.865 191.422C196.846 191.436 196.83 191.452 196.813 191.468C196.809 191.456 196.806 191.447 196.802 191.434C196.732 191.284 196.595 191.16 196.513 191.201C196.431 191.243 196.439 191.431 196.512 191.578C196.546 191.647 196.588 191.694 196.631 191.722C196.21 191.68 195.592 191.956 195.208 192.321C195.016 192.517 194.913 192.701 194.876 192.864C194.859 192.929 194.818 192.994 194.754 193.024C194.587 193.108 194.425 193.248 194.34 193.453C194.227 193.735 194.272 194.037 194.473 194.233C194.84 194.582 195.405 194.513 195.666 194.179C195.737 194.095 195.781 193.997 195.802 193.894C195.815 193.834 195.858 193.784 195.922 193.772C196.076 193.737 196.228 193.652 196.386 193.489C196.719 193.174 197.009 192.666 197.073 192.279C197.091 192.325 197.127 192.376 197.186 192.427C197.312 192.535 197.483 192.6 197.535 192.541C197.586 192.482 197.503 192.317 197.381 192.206C197.371 192.198 197.363 192.193 197.354 192.186L197.407 192.153C197.641 191.996 197.718 191.698 197.581 191.487C197.444 191.277 197.123 191.248 196.865 191.422Z" fill="black"/>
<path d="M201.497 189.579L201.429 189.595C201.431 189.583 201.433 189.573 201.435 189.56C201.45 189.395 201.391 189.221 201.296 189.219C201.201 189.217 201.113 189.386 201.106 189.55C201.102 189.627 201.117 189.687 201.141 189.732C200.791 189.501 200.092 189.456 199.575 189.632C199.311 189.716 199.139 189.837 199.035 189.973C198.991 190.027 198.924 190.061 198.852 190.058C198.663 190.051 198.466 190.121 198.293 190.254C198.063 190.445 197.969 190.746 198.047 191.002C198.201 191.486 198.734 191.676 199.135 191.495C199.239 191.45 199.321 191.374 199.391 191.296C199.432 191.249 199.496 191.229 199.558 191.242C199.709 191.272 199.886 191.258 200.105 191.19C200.53 191.044 201.016 190.741 201.258 190.427C201.251 190.477 201.258 190.538 201.285 190.61C201.344 190.765 201.459 190.903 201.531 190.876C201.603 190.849 201.612 190.665 201.56 190.51C201.555 190.498 201.551 190.49 201.547 190.48L201.609 190.476C201.887 190.452 202.102 190.226 202.091 189.981C202.079 189.728 201.813 189.55 201.497 189.579Z" fill="black"/>
<path d="M196.783 211.491L196.724 211.53C196.722 211.517 196.721 211.508 196.718 211.494C196.673 211.335 196.555 211.193 196.466 211.223C196.376 211.253 196.354 211.442 196.406 211.598C196.43 211.671 196.465 211.723 196.504 211.756C196.093 211.66 195.423 211.858 195.001 212.201C194.785 212.369 194.666 212.542 194.617 212.705C194.596 212.771 194.545 212.825 194.477 212.847C194.298 212.906 194.137 213.039 194.024 213.223C193.876 213.481 193.896 213.795 194.06 214.009C194.377 214.408 194.946 214.403 195.256 214.096C195.337 214.018 195.387 213.919 195.425 213.822C195.446 213.764 195.499 213.723 195.562 213.714C195.714 213.69 195.875 213.616 196.055 213.478C196.402 213.195 196.748 212.745 196.863 212.368C196.874 212.416 196.902 212.472 196.953 212.53C197.063 212.654 197.221 212.744 197.279 212.694C197.337 212.644 197.279 212.469 197.175 212.341C197.166 212.332 197.16 212.326 197.151 212.318L197.209 212.292C197.46 212.175 197.581 211.89 197.483 211.663C197.381 211.431 197.069 211.356 196.783 211.491Z" fill="black"/>
<path d="M206.326 189.9L206.265 189.909C206.268 189.897 206.271 189.888 206.274 189.876C206.299 189.713 206.263 189.536 206.191 189.517C206.119 189.5 206.03 189.654 205.994 189.814C205.979 189.889 205.98 189.951 205.994 189.999C205.713 189.721 205.219 189.477 204.741 189.386C204.499 189.343 204.298 189.359 204.14 189.419C204.078 189.442 204.004 189.437 203.943 189.399C203.784 189.296 203.577 189.245 203.355 189.28C203.053 189.314 202.811 189.537 202.744 189.794C202.626 190.286 202.981 190.716 203.41 190.764C203.521 190.773 203.629 190.766 203.731 190.729C203.789 190.708 203.856 190.724 203.905 190.769C204.02 190.875 204.189 190.956 204.445 191.002C204.947 191.099 205.658 190.982 205.977 190.704C205.959 190.752 205.953 190.814 205.968 190.889C205.999 191.05 206.115 191.205 206.212 191.19C206.31 191.176 206.341 190.992 206.3 190.833C206.296 190.821 206.292 190.812 206.288 190.801C206.312 190.803 206.335 190.804 206.36 190.803C206.686 190.787 206.919 190.557 206.88 190.305C206.843 190.064 206.595 189.887 206.326 189.9Z" fill="black"/>
<path d="M210.465 188.227L210.416 188.268C210.412 188.256 210.409 188.247 210.404 188.235C210.334 188.086 210.199 187.959 210.125 187.991C210.051 188.022 210.062 188.203 210.129 188.354C210.16 188.424 210.2 188.473 210.24 188.504C209.841 188.448 209.26 188.585 208.859 188.788C208.654 188.894 208.527 189.02 208.445 189.141C208.412 189.193 208.354 189.224 208.293 189.219C208.128 189.21 207.962 189.248 207.809 189.345C207.605 189.492 207.472 189.743 207.474 190.012C207.469 190.518 207.984 190.858 208.509 190.669C208.639 190.627 208.741 190.545 208.826 190.459C208.875 190.407 208.948 190.382 209.02 190.389C209.197 190.413 209.4 190.364 209.644 190.239C210.128 189.992 210.567 189.486 210.65 189.083C210.665 189.132 210.697 189.185 210.754 189.237C210.875 189.35 211.055 189.415 211.118 189.351C211.182 189.287 211.102 189.122 210.978 189.011C210.968 189.003 210.96 188.998 210.95 188.991L211.009 188.957C211.265 188.786 211.321 188.464 211.167 188.271C211.007 188.071 210.703 188.069 210.465 188.227Z" fill="black"/>
<path d="M190.658 202.395L190.678 202.458C190.666 202.457 190.656 202.456 190.643 202.455C190.475 202.459 190.303 202.532 190.305 202.62C190.302 202.65 190.33 202.628 190.392 202.634C190.452 202.634 190.531 202.666 190.614 202.669C190.691 202.676 190.755 202.67 190.803 202.655C190.539 202.901 190.295 203.404 190.22 203.842C190.182 204.063 190.2 204.236 190.257 204.375C190.281 204.432 190.273 204.496 190.231 204.541C190.122 204.663 190.052 204.815 190.051 204.993C190.047 205.231 190.183 205.472 190.405 205.635C190.809 205.955 191.404 205.738 191.55 205.221C191.589 205.096 191.588 204.972 191.566 204.857C191.554 204.789 191.575 204.719 191.622 204.669C191.739 204.548 191.829 204.367 191.873 204.109C191.961 203.601 191.828 202.943 191.521 202.613C191.571 202.628 191.634 202.63 191.71 202.607C191.789 202.578 191.872 202.544 191.92 202.468C191.969 202.397 191.986 202.285 191.968 202.236C191.935 202.165 191.749 202.174 191.596 202.24C191.584 202.246 191.576 202.251 191.566 202.257L191.558 202.195C191.499 201.924 191.248 201.741 190.998 201.787C190.747 201.833 190.595 202.105 190.658 202.395Z" fill="black"/>
<path d="M190.336 197.648L190.335 197.715C190.323 197.71 190.314 197.706 190.302 197.7C190.142 197.651 189.955 197.666 189.93 197.751C189.904 197.836 190.05 197.955 190.21 198C190.285 198.021 190.348 198.022 190.399 198.01C190.097 198.28 189.87 198.896 189.888 199.406C189.887 199.665 189.963 199.852 190.056 199.987C190.095 200.041 190.106 200.111 190.081 200.174C190.01 200.342 190.011 200.537 190.085 200.731C190.185 200.996 190.433 201.18 190.711 201.199C191.222 201.231 191.604 200.812 191.557 200.373C191.542 200.262 191.506 200.159 191.451 200.069C191.418 200.016 191.418 199.95 191.451 199.895C191.533 199.763 191.561 199.591 191.563 199.363C191.547 198.915 191.379 198.368 191.116 198.065C191.164 198.083 191.226 198.092 191.304 198.083C191.471 198.065 191.638 197.986 191.629 197.91C191.621 197.834 191.441 197.784 191.275 197.798C191.262 197.8 191.253 197.802 191.241 197.804L191.253 197.744C191.276 197.471 191.111 197.22 190.861 197.181C190.608 197.142 190.362 197.349 190.336 197.648Z" fill="black"/>
<path d="M191.855 193.098L191.826 193.159C191.817 193.15 191.811 193.143 191.802 193.132C191.677 193.022 191.502 192.96 191.442 193.028C191.383 193.097 191.466 193.265 191.593 193.371C191.653 193.421 191.71 193.447 191.761 193.457C191.556 193.516 191.349 193.669 191.161 193.866C190.965 194.06 190.805 194.305 190.714 194.549C190.615 194.793 190.592 194.992 190.636 195.155C190.653 195.221 190.636 195.292 190.59 195.342C190.47 195.477 190.372 195.656 190.379 195.87C190.38 196.158 190.545 196.418 190.794 196.53C191.261 196.733 191.775 196.476 191.883 196.059C191.916 195.955 191.921 195.848 191.901 195.745C191.89 195.684 191.914 195.623 191.963 195.585C192.079 195.491 192.191 195.354 192.275 195.146C192.352 194.938 192.404 194.696 192.433 194.46C192.455 194.221 192.438 193.981 192.391 193.797C192.426 193.832 192.48 193.865 192.554 193.889C192.714 193.94 192.898 193.937 192.921 193.865C192.944 193.792 192.802 193.674 192.645 193.618C192.633 193.615 192.624 193.613 192.612 193.61C192.624 193.594 192.637 193.578 192.648 193.56C192.779 193.32 192.749 193.033 192.534 192.891C192.327 192.753 192.002 192.833 191.855 193.098Z" fill="black"/>
<path d="M215.18 189.377L215.173 189.444C215.161 189.437 215.153 189.433 215.141 189.426C214.987 189.361 214.8 189.358 214.766 189.441C214.733 189.525 214.867 189.658 215.022 189.718C215.095 189.746 215.158 189.753 215.209 189.746C215.035 189.867 214.89 190.077 214.777 190.323C214.656 190.569 214.586 190.852 214.58 191.111C214.567 191.373 214.611 191.569 214.707 191.71C214.744 191.767 214.753 191.839 214.725 191.901C214.656 192.066 214.622 192.268 214.7 192.467C214.797 192.74 215.038 192.934 215.311 192.96C215.82 193.004 216.221 192.597 216.185 192.169C216.182 192.059 216.151 191.957 216.099 191.866C216.068 191.812 216.071 191.747 216.105 191.695C216.183 191.569 216.243 191.404 216.254 191.181C216.258 190.959 216.227 190.714 216.177 190.482C216.119 190.249 216.023 190.027 215.918 189.868C215.963 189.89 216.025 189.904 216.103 189.903C216.271 189.9 216.444 189.839 216.442 189.763C216.44 189.688 216.266 189.621 216.099 189.618C216.086 189.619 216.077 189.62 216.065 189.621C216.071 189.601 216.078 189.583 216.082 189.562C216.127 189.294 216.003 189.031 215.754 188.965C215.512 188.9 215.231 189.079 215.18 189.377Z" fill="black"/>
<path d="M195.168 189.591L195.117 189.635C195.113 189.623 195.11 189.614 195.106 189.602C195.035 189.453 194.898 189.328 194.816 189.366C194.735 189.405 194.744 189.589 194.818 189.736C194.853 189.804 194.895 189.851 194.937 189.88C194.532 189.846 193.913 190.091 193.541 190.449C193.345 190.621 193.252 190.807 193.215 190.967C193.2 191.033 193.155 191.089 193.091 191.114C192.92 191.182 192.758 191.306 192.67 191.502C192.545 191.764 192.579 192.068 192.755 192.273C193.088 192.651 193.669 192.638 193.943 192.303C194.02 192.223 194.072 192.129 194.1 192.027C194.117 191.968 194.166 191.924 194.227 191.91C194.38 191.879 194.525 191.787 194.7 191.635C195.026 191.32 195.33 190.834 195.379 190.436C195.397 190.483 195.433 190.533 195.492 190.584C195.619 190.693 195.791 190.76 195.843 190.703C195.895 190.646 195.812 190.482 195.689 190.371C195.678 190.363 195.671 190.358 195.661 190.351L195.715 190.319C195.939 190.154 196.012 189.859 195.873 189.654C195.73 189.443 195.412 189.412 195.168 189.591Z" fill="black"/>
<path d="M199.555 187.517L199.491 187.541C199.492 187.528 199.493 187.518 199.493 187.505C199.483 187.34 199.402 187.176 199.312 187.184C199.222 187.193 199.162 187.37 199.177 187.534C199.183 187.61 199.205 187.668 199.234 187.71C198.865 187.521 198.196 187.539 197.716 187.746C197.47 187.845 197.312 187.97 197.222 188.112C197.185 188.169 197.122 188.206 197.054 188.207C196.87 188.21 196.676 188.271 196.522 188.419C196.31 188.615 196.228 188.909 196.314 189.164C196.479 189.636 197.027 189.834 197.413 189.619C197.514 189.57 197.597 189.499 197.661 189.414C197.699 189.364 197.761 189.339 197.824 189.348C197.975 189.366 198.153 189.344 198.367 189.259C198.783 189.079 199.241 188.726 199.439 188.386C199.438 188.436 199.453 188.496 199.488 188.564C199.566 188.71 199.699 188.832 199.768 188.796C199.838 188.76 199.821 188.577 199.748 188.43C199.741 188.419 199.737 188.412 199.73 188.402L199.792 188.39C200.062 188.319 200.242 188.081 200.189 187.834C200.137 187.592 199.851 187.439 199.555 187.517Z" fill="black"/>
<path d="M204.43 187.242L204.361 187.238C204.367 187.227 204.371 187.219 204.377 187.206C204.435 187.052 204.428 186.869 204.341 186.841C204.254 186.813 204.126 186.951 204.073 187.106C204.049 187.179 204.045 187.241 204.055 187.291C203.792 186.977 203.164 186.739 202.635 186.743C202.369 186.74 202.173 186.809 202.033 186.898C201.977 186.935 201.904 186.944 201.839 186.919C201.668 186.853 201.465 186.853 201.264 186.922C200.988 187.013 200.803 187.276 200.785 187.541C200.76 188.048 201.187 188.402 201.627 188.367C201.739 188.357 201.842 188.315 201.934 188.261C201.987 188.23 202.054 188.232 202.109 188.265C202.241 188.347 202.413 188.381 202.643 188.384C203.094 188.382 203.651 188.228 203.97 187.991C203.949 188.036 203.938 188.097 203.943 188.174C203.955 188.338 204.027 188.503 204.104 188.497C204.182 188.491 204.241 188.318 204.234 188.154C204.232 188.142 204.231 188.132 204.229 188.121C204.249 188.126 204.269 188.132 204.29 188.135C204.565 188.168 204.833 188.021 204.882 187.774C204.931 187.532 204.735 187.28 204.43 187.242Z" fill="black"/>
<path d="M208.77 186.862L208.712 186.89C208.711 186.878 208.71 186.869 208.709 186.855C208.68 186.694 208.583 186.537 208.5 186.552C208.417 186.566 208.38 186.745 208.409 186.906C208.422 186.982 208.448 187.038 208.48 187.078C208.107 186.921 207.483 186.952 207.058 187.088C206.952 187.121 206.865 187.16 206.813 187.196C206.773 187.22 206.787 187.227 206.781 187.248C206.778 187.268 206.731 187.289 206.712 187.312C206.67 187.352 206.613 187.358 206.565 187.332C206.437 187.258 206.297 187.227 206.126 187.259C205.895 187.3 205.651 187.473 205.541 187.72C205.336 188.176 205.607 188.697 206.19 188.744C206.333 188.755 206.474 188.729 206.594 188.678C206.665 188.646 206.747 188.649 206.817 188.678C206.865 188.694 206.893 188.715 206.97 188.72C207.042 188.726 207.143 188.724 207.193 188.721C207.324 188.713 207.444 188.69 207.575 188.649C208.08 188.487 208.562 188.097 208.738 187.736C208.741 187.786 208.76 187.845 208.802 187.91C208.892 188.049 209.043 188.156 209.114 188.112C209.187 188.068 209.151 187.888 209.062 187.749C209.053 187.739 209.048 187.732 209.04 187.723L209.103 187.705C209.376 187.601 209.522 187.33 209.431 187.097C209.34 186.863 209.043 186.759 208.77 186.862Z" fill="black"/>
<path d="M187.707 199.015L187.722 199.086C187.709 199.084 187.7 199.082 187.686 199.079C187.518 199.061 187.34 199.118 187.336 199.215C187.332 199.311 187.503 199.406 187.67 199.417C187.748 199.423 187.81 199.41 187.856 199.386C187.615 199.741 187.583 200.47 187.687 200.932C187.74 201.182 187.828 201.356 187.939 201.478C187.985 201.528 188.005 201.597 187.986 201.662C187.938 201.833 187.945 202.024 188.023 202.21C188.131 202.463 188.367 202.647 188.641 202.691C189.15 202.787 189.569 202.314 189.479 201.781C189.458 201.648 189.409 201.529 189.339 201.428C189.299 201.369 189.29 201.293 189.313 201.227C189.371 201.065 189.383 200.857 189.326 200.592C189.204 200.043 188.886 199.546 188.568 199.284C188.619 199.292 188.682 199.286 188.756 199.26C188.914 199.204 189.057 199.086 189.031 199.009C189.004 198.932 188.817 198.919 188.658 198.969C188.646 198.975 188.638 198.979 188.626 198.983L188.624 198.918C188.583 198.627 188.382 198.397 188.121 198.408C187.873 198.417 187.662 198.692 187.707 199.015Z" fill="black"/>
<path d="M188.476 193.897L188.455 193.966C188.445 193.958 188.437 193.951 188.427 193.943C188.288 193.848 188.104 193.815 188.054 193.898C188.004 193.98 188.109 194.142 188.25 194.232C188.316 194.273 188.377 194.291 188.428 194.292C188.042 194.489 187.646 195.082 187.525 195.633C187.452 195.908 187.483 196.13 187.54 196.294C187.564 196.362 187.558 196.44 187.518 196.501C187.408 196.666 187.374 196.88 187.401 197.106C187.435 197.414 187.666 197.661 187.929 197.73C188.434 197.852 188.864 197.48 188.919 197.024C188.931 196.906 188.908 196.792 188.879 196.687C188.86 196.625 188.876 196.557 188.92 196.508C189.032 196.39 189.098 196.22 189.162 195.987C189.262 195.525 189.251 194.917 189.103 194.538C189.143 194.569 189.201 194.594 189.278 194.606C189.445 194.631 189.628 194.594 189.642 194.513C189.656 194.432 189.498 194.332 189.333 194.302C189.321 194.301 189.312 194.301 189.299 194.3L189.329 194.24C189.443 193.967 189.368 193.666 189.135 193.557C188.909 193.45 188.601 193.597 188.476 193.897Z" fill="black"/>
<path d="M191.376 189.614L191.33 189.669C191.324 189.658 191.319 189.65 191.312 189.638C191.218 189.503 191.058 189.405 190.98 189.461C190.901 189.515 190.945 189.706 191.043 189.84C191.089 189.902 191.139 189.941 191.186 189.96C190.759 190.007 190.173 190.39 189.836 190.83C189.671 191.055 189.594 191.255 189.577 191.427C189.57 191.496 189.531 191.563 189.468 191.601C189.307 191.705 189.173 191.873 189.099 192.085C188.993 192.371 189.085 192.691 189.286 192.871C189.677 193.208 190.235 193.067 190.499 192.671C190.563 192.569 190.599 192.457 190.614 192.344C190.624 192.279 190.67 192.223 190.733 192.197C190.886 192.133 191.033 192.011 191.181 191.809C191.48 191.42 191.719 190.843 191.721 190.432C191.747 190.475 191.791 190.519 191.859 190.558C192.005 190.641 192.186 190.665 192.234 190.596C192.281 190.525 192.171 190.378 192.028 190.292C192.016 190.286 192.007 190.283 191.996 190.277L192.048 190.233C192.26 190.017 192.287 189.697 192.109 189.519C191.93 189.342 191.602 189.384 191.376 189.614Z" fill="black"/>
<path d="M188.078 204.364L188.089 204.435C188.077 204.432 188.068 204.43 188.054 204.426C187.888 204.406 187.707 204.459 187.698 204.552C187.687 204.645 187.862 204.74 188.029 204.757C188.107 204.766 188.169 204.754 188.216 204.732C187.967 205.077 187.87 205.76 187.982 206.298C188.044 206.57 188.145 206.759 188.265 206.885C188.313 206.937 188.338 207.01 188.325 207.081C188.298 207.268 188.336 207.478 188.449 207.673C188.596 207.94 188.902 208.087 189.173 208.058C189.689 207.996 189.953 207.495 189.826 207.038C189.791 206.923 189.729 206.822 189.653 206.737C189.611 206.685 189.599 206.615 189.62 206.552C189.673 206.397 189.678 206.208 189.623 205.966C189.524 205.488 189.244 204.93 188.931 204.655C188.982 204.665 189.045 204.662 189.119 204.638C189.279 204.587 189.418 204.471 189.398 204.389C189.375 204.307 189.189 204.29 189.028 204.338C189.016 204.343 189.007 204.347 188.996 204.351L188.997 204.284C188.973 203.984 188.748 203.752 188.493 203.765C188.239 203.778 188.053 204.046 188.078 204.364Z" fill="black"/>
<path d="M195.441 186.387L195.379 186.425C195.377 186.413 195.375 186.404 195.373 186.391C195.326 186.233 195.204 186.093 195.11 186.123C195.017 186.156 194.997 186.35 195.05 186.507C195.074 186.58 195.11 186.631 195.15 186.664C194.726 186.586 194.035 186.792 193.596 187.133C193.368 187.299 193.239 187.469 193.179 187.632C193.154 187.698 193.098 187.752 193.028 187.771C192.84 187.822 192.665 187.941 192.538 188.123C192.361 188.368 192.339 188.683 192.478 188.92C192.734 189.357 193.33 189.402 193.701 189.08C193.793 188.996 193.866 188.904 193.914 188.8C193.943 188.74 194.002 188.697 194.069 188.688C194.233 188.663 194.411 188.585 194.614 188.437C195.003 188.133 195.394 187.662 195.517 187.27C195.528 187.319 195.558 187.374 195.61 187.431C195.723 187.553 195.888 187.632 195.951 187.579C196.015 187.527 195.957 187.354 195.847 187.228C195.838 187.219 195.831 187.213 195.822 187.205L195.884 187.179C196.149 187.04 196.277 186.747 196.171 186.526C196.061 186.295 195.734 186.233 195.441 186.387Z" fill="black"/>
<path d="M200.521 185.035L200.449 185.046C200.453 185.034 200.455 185.024 200.459 185.011C200.484 184.848 200.435 184.671 200.339 184.662C200.244 184.653 200.142 184.815 200.121 184.978C200.111 185.054 200.12 185.115 200.142 185.162C199.797 184.908 199.096 184.799 198.538 184.907C198.256 184.957 198.06 185.067 197.93 185.182C197.877 185.23 197.801 185.254 197.728 185.242C197.534 185.219 197.317 185.259 197.116 185.371C196.845 185.533 196.698 185.826 196.735 186.092C196.815 186.595 197.334 186.842 197.786 186.712C197.902 186.677 198.002 186.618 198.087 186.541C198.138 186.499 198.209 186.488 198.273 186.509C198.43 186.563 198.617 186.56 198.863 186.518C199.343 186.424 199.916 186.161 200.204 185.864C200.192 185.913 200.194 185.975 200.216 186.049C200.265 186.207 200.381 186.352 200.464 186.33C200.547 186.308 200.57 186.125 200.525 185.967C200.52 185.955 200.516 185.947 200.512 185.936L200.58 185.936C200.885 185.912 201.13 185.713 201.123 185.46C201.115 185.214 200.847 185.009 200.521 185.035Z" fill="black"/>
<path d="M196.655 183.226L196.587 183.253C196.588 183.241 196.588 183.231 196.588 183.218C196.575 183.053 196.485 182.892 196.39 182.905C196.295 182.917 196.234 183.098 196.251 183.261C196.259 183.337 196.283 183.395 196.315 183.435C195.92 183.266 195.212 183.317 194.695 183.548C194.431 183.659 194.267 183.811 194.166 183.952C194.126 184.011 194.058 184.051 193.984 184.056C193.791 184.078 193.588 184.165 193.419 184.32C193.193 184.539 193.118 184.857 193.217 185.107C193.413 185.578 193.976 185.702 194.385 185.473C194.49 185.414 194.574 185.333 194.638 185.24C194.678 185.188 194.745 185.16 194.812 185.167C194.977 185.184 195.158 185.139 195.388 185.043C195.833 184.844 196.329 184.459 196.54 184.105C196.54 184.155 196.556 184.215 196.595 184.282C196.679 184.425 196.826 184.54 196.902 184.5C196.978 184.46 196.957 184.277 196.877 184.133C196.869 184.123 196.863 184.115 196.856 184.106L196.923 184.091C197.214 183.998 197.406 183.749 197.339 183.505C197.275 183.267 196.965 183.128 196.655 183.226Z" fill="black"/>
<path d="M205.677 185.221L205.607 185.223C205.612 185.211 205.615 185.202 205.62 185.19C205.664 185.031 205.64 184.849 205.553 184.828C205.467 184.807 205.351 184.954 205.304 185.112C205.283 185.185 205.283 185.248 205.296 185.297C205 185.001 204.383 184.762 203.854 184.721C203.586 184.701 203.381 184.737 203.226 184.811C203.164 184.842 203.087 184.843 203.024 184.81C202.856 184.723 202.649 184.685 202.412 184.728C202.113 184.793 201.876 185.008 201.811 185.271C201.685 185.764 202.103 186.193 202.577 186.209C202.7 186.215 202.82 186.194 202.931 186.153C202.996 186.128 203.069 186.138 203.127 186.178C203.265 186.273 203.458 186.338 203.724 186.358C204.25 186.398 204.91 186.256 205.248 186C205.228 186.047 205.22 186.108 205.231 186.184C205.255 186.348 205.356 186.508 205.448 186.497C205.541 186.487 205.588 186.309 205.562 186.146C205.559 186.134 205.556 186.125 205.553 186.113L205.624 186.123C205.945 186.141 206.216 185.947 206.222 185.698C206.228 185.448 205.987 185.239 205.677 185.221Z" fill="black"/>
<path d="M175.269 205.719C175.241 205.813 175.153 205.874 175.055 205.886C173.674 206.045 172.868 206.225 172.252 206.548C171.649 206.837 171.295 207.213 171.3 207.329C171.306 207.445 171.708 207.803 172.502 207.863C172.7 207.885 172.916 207.855 173.152 207.82C173.39 207.789 173.641 207.715 173.896 207.591C174.154 207.481 174.418 207.329 174.665 207.112C174.921 206.916 175.154 206.652 175.359 206.345C175.417 206.26 175.52 206.212 175.624 206.214C175.996 206.209 176.396 206.159 176.55 206.042C176.698 205.912 176.592 205.753 176.051 205.504C175.847 204.936 175.679 204.836 175.572 204.946C175.455 205.048 175.363 205.365 175.269 205.719Z" fill="black"/>
<path d="M178.292 201.165C178.335 201.254 178.322 201.36 178.261 201.435C177.334 202.474 176.918 203.19 176.682 203.818C176.456 204.428 176.469 204.949 176.553 205.029C176.637 205.112 177.175 205.093 177.794 204.594C178.407 204.119 179.024 203.028 178.801 201.576C178.781 201.475 178.814 201.369 178.892 201.303C179.485 200.815 179.906 200.173 178.741 200.498C177.684 199.908 177.994 200.525 178.292 201.165Z" fill="black"/>
<path d="M178.018 195.642C178.1 195.695 178.142 195.793 178.129 195.89C177.928 197.247 177.971 198.102 178.182 198.765C178.361 199.409 178.709 199.808 178.829 199.82C178.946 199.831 179.343 199.49 179.547 198.749C179.728 198.033 179.655 196.832 178.66 195.723C178.591 195.646 178.567 195.538 178.599 195.44C178.803 194.723 178.83 193.929 178.02 194.846C176.833 194.92 177.39 195.275 178.018 195.642Z" fill="black"/>
<path d="M174.43 191.525C174.526 191.507 174.633 191.536 174.685 191.623C175.468 192.755 175.997 193.363 176.568 193.752C176.824 193.957 177.086 194.086 177.297 194.161C177.494 194.245 177.647 194.268 177.701 194.238C177.751 194.21 177.813 194.071 177.834 193.84C177.841 193.619 177.796 193.309 177.654 192.941C177.482 192.597 177.221 192.183 176.764 191.846C176.326 191.497 175.697 191.229 174.96 191.147C174.859 191.129 174.759 191.081 174.712 190.988C174.366 190.303 173.794 189.759 173.874 190.946C173.064 191.833 173.729 191.658 174.43 191.525Z" fill="black"/>
<path d="M168.903 190.895C168.965 190.82 169.066 190.778 169.163 190.805C170.509 191.173 171.366 191.236 172.05 191.158C172.717 191.068 173.175 190.849 173.215 190.721C173.247 190.627 172.99 190.137 172.259 189.837C171.556 189.52 170.306 189.44 169.055 190.268C168.969 190.325 168.859 190.347 168.763 190.307C168.048 190.001 167.253 189.948 168.096 190.805C168.061 191.993 168.453 191.438 168.903 190.895Z" fill="black"/>
<path d="M164.402 194.01C164.393 193.914 164.445 193.821 164.531 193.772C165.742 193.099 166.405 192.625 166.855 192.12C167.288 191.622 167.501 191.175 167.444 191.049C167.421 190.997 167.287 190.928 167.058 190.895C166.829 190.859 166.499 190.857 166.126 190.99C165.385 191.209 164.353 191.998 164.071 193.462C164.052 193.563 163.98 193.649 163.881 193.685C163.171 193.965 162.529 194.447 163.761 194.499C164.56 195.368 164.487 194.715 164.402 194.01Z" fill="black"/>
<path d="M163.067 199.353C163.002 199.279 162.987 199.173 163.026 199.083C163.606 197.821 163.792 196.985 163.773 196.302C163.771 195.64 163.58 195.166 163.47 195.12C163.362 195.074 162.857 195.275 162.457 195.945C162.078 196.596 161.83 197.77 162.467 199.095C162.514 199.187 162.508 199.297 162.45 199.381C162.229 199.688 162.059 200.03 162.083 200.215C162.101 200.403 162.293 200.411 162.819 200.115C163.404 200.275 163.585 200.199 163.559 200.044C163.525 199.887 163.295 199.627 163.067 199.353Z" fill="black"/>
<path d="M164.983 204.496C164.886 204.477 164.808 204.402 164.785 204.31C164.496 202.979 164.215 202.197 163.835 201.624C163.458 201.071 163.053 200.766 162.919 200.791C162.819 200.807 162.487 201.249 162.53 202.019C162.548 202.763 163.003 203.936 164.344 204.646C164.439 204.692 164.503 204.783 164.51 204.885C164.526 205.265 164.623 205.639 164.762 205.773C164.9 205.913 165.051 205.798 165.268 205.24C165.821 205.003 165.91 204.828 165.795 204.728C165.675 204.628 165.331 204.577 164.983 204.496Z" fill="black"/>
<path d="M169.87 207.003C169.786 207.052 169.678 207.046 169.595 206.992C168.433 206.231 167.696 205.872 167.026 205.72C166.38 205.566 165.872 205.595 165.789 205.693C165.721 205.773 165.762 206.323 166.337 206.874C166.883 207.411 168.062 207.941 169.518 207.534C169.619 207.506 169.729 207.532 169.806 207.604C170.378 208.087 171.095 208.461 170.603 207.346C171.05 206.268 170.479 206.6 169.87 207.003Z" fill="black"/>
<path d="M175.27 211.015C175.22 211.096 175.125 211.139 175.031 211.127C174.362 211.044 173.807 210.978 173.355 211.048C172.89 211.062 172.514 211.162 172.207 211.299C171.59 211.534 171.245 211.899 171.248 212.024C171.251 212.132 171.625 212.498 172.346 212.63C172.704 212.676 173.148 212.666 173.647 212.548C174.133 212.374 174.691 212.139 175.202 211.648C175.274 211.579 175.377 211.555 175.471 211.587C175.815 211.701 176.185 211.791 176.352 211.731C176.518 211.663 176.474 211.477 176.057 211.064C176.044 210.466 175.926 210.314 175.788 210.385C175.645 210.448 175.456 210.716 175.27 211.015Z" fill="black"/>
<path d="M179.864 208.224C179.852 208.316 179.784 208.393 179.691 208.419C179.361 208.515 179.082 208.624 178.832 208.735C178.569 208.828 178.343 208.933 178.146 209.047C177.766 209.291 177.445 209.494 177.226 209.743C177.007 209.991 176.853 210.224 176.754 210.402C176.66 210.588 176.631 210.735 176.657 210.789C176.682 210.841 176.815 210.912 177.035 210.954C177.259 211.002 177.563 211.004 177.912 210.899C178.259 210.795 178.688 210.641 179.063 210.281C179.257 210.11 179.449 209.908 179.632 209.675C179.799 209.424 179.949 209.132 180.079 208.813C180.116 208.723 180.201 208.66 180.302 208.65C181.025 208.549 181.721 208.277 180.571 207.909C180 206.875 179.917 207.529 179.864 208.224Z" fill="black"/>
<path d="M182.7 203.708C182.735 203.798 182.712 203.898 182.645 203.964C182.13 204.414 181.796 204.827 181.534 205.197C181.257 205.558 181.136 205.926 181.027 206.227C180.821 206.833 180.909 207.344 181.005 207.418C181.095 207.49 181.598 207.426 182.17 206.959C182.458 206.73 182.698 206.362 182.916 205.904C183.118 205.439 183.212 204.835 183.169 204.154C183.157 204.056 183.2 203.961 183.282 203.907C183.89 203.514 184.438 202.998 183.218 203.131C182.276 202.434 182.444 203.055 182.7 203.708Z" fill="black"/>
<path d="M183.496 198.425C183.561 198.497 183.576 198.599 183.537 198.684C183.239 199.289 183.047 199.799 182.981 200.249C182.87 200.693 182.868 201.077 182.921 201.405C182.992 202.049 183.257 202.472 183.382 202.502C183.488 202.529 183.949 202.273 184.267 201.625C184.408 201.301 184.516 200.881 184.534 200.381C184.506 199.88 184.403 199.296 184.096 198.677C184.049 198.59 184.055 198.487 184.113 198.408C184.54 197.832 184.869 197.169 183.773 197.704C182.64 197.367 183.022 197.901 183.496 198.425Z" fill="black"/>
<path d="M182.374 193.206C182.46 193.25 182.511 193.339 182.507 193.431C182.456 194.097 182.459 194.635 182.546 195.078C182.599 195.53 182.734 195.889 182.899 196.179C183.172 196.766 183.587 197.072 183.71 197.059C183.824 197.048 184.15 196.655 184.242 195.939C184.259 195.587 184.212 195.155 184.051 194.678C183.854 194.212 183.545 193.694 183.025 193.226C182.949 193.161 182.916 193.062 182.941 192.968C183.032 192.624 183.09 192.26 183.023 192.098C182.947 191.939 182.762 191.994 182.364 192.435C181.763 192.487 181.616 192.614 181.692 192.746C181.761 192.884 182.055 193.046 182.374 193.206Z" fill="black"/>
<path d="M179.206 188.913C179.301 188.917 179.383 188.979 179.418 189.067C179.92 190.289 180.408 190.975 180.937 191.385C181.465 191.78 181.922 191.934 182.043 191.867C182.13 191.821 182.323 191.306 182.067 190.633C181.93 190.307 181.754 189.89 181.359 189.551C181.17 189.375 180.95 189.202 180.698 189.041C180.443 188.883 180.124 188.768 179.792 188.661C179.698 188.632 179.627 188.554 179.609 188.455C179.466 187.746 179.13 187.097 178.839 188.241C177.821 188.875 178.503 188.898 179.206 188.913Z" fill="black"/>
<path d="M174.412 186.459C174.501 186.418 174.604 186.432 174.676 186.492C175.665 187.418 176.441 187.765 177.093 187.915C177.725 188.071 178.245 187.941 178.308 187.852C178.381 187.749 178.275 187.271 177.759 186.747C177.25 186.24 176.23 185.771 174.831 185.966C174.732 185.986 174.632 185.952 174.571 185.875C174.123 185.315 173.555 184.822 173.784 186.001C173.146 186.977 173.766 186.762 174.412 186.459Z" fill="black"/>
<path d="M168.981 186.107C169.047 186.037 169.149 186.012 169.239 186.042C169.88 186.29 170.411 186.413 170.871 186.459C171.332 186.529 171.722 186.497 172.052 186.418C172.7 186.312 173.112 186.005 173.133 185.885C173.152 185.775 172.855 185.359 172.171 185.086C171.829 184.976 171.393 184.906 170.882 184.932C170.373 184.982 169.784 185.154 169.181 185.498C169.096 185.552 168.99 185.556 168.905 185.507C168.276 185.148 167.562 184.894 168.222 185.907C168 187.044 168.496 186.621 168.981 186.107Z" fill="black"/>
<path d="M163.864 187.846C163.895 187.757 163.979 187.696 164.074 187.688C164.737 187.61 165.296 187.572 165.721 187.412C166.161 187.289 166.513 187.134 166.782 186.936C167.332 186.582 167.603 186.165 167.574 186.041C167.552 185.938 167.112 185.642 166.374 185.66C166.014 185.689 165.572 185.771 165.113 186.007C164.671 186.277 164.169 186.615 163.788 187.218C163.733 187.3 163.637 187.345 163.537 187.334C162.785 187.233 162.073 187.383 163.094 187.982C163.421 189.134 163.623 188.474 163.864 187.846Z" fill="black"/>
<path d="M160.064 191.607C160.049 191.513 160.087 191.416 160.176 191.372C160.787 191.046 161.182 190.704 161.538 190.414C161.706 190.261 161.843 190.106 161.957 189.951C162.076 189.803 162.185 189.666 162.266 189.525C162.433 189.248 162.516 188.975 162.559 188.768C162.61 188.569 162.604 188.421 162.566 188.374C162.529 188.329 162.382 188.289 162.155 188.296C161.936 188.311 161.65 188.39 161.323 188.558C161.162 188.645 160.984 188.747 160.819 188.891C160.661 189.04 160.502 189.217 160.351 189.424C160.029 189.822 159.823 190.407 159.706 191.077C159.686 191.169 159.63 191.257 159.538 191.292C158.867 191.558 158.226 191.959 159.444 192.071C160.225 192.944 160.183 192.302 160.064 191.607Z" fill="black"/>
<path d="M158.268 196.629C158.217 196.548 158.221 196.445 158.274 196.368C158.666 195.821 158.953 195.358 159.102 194.931C159.294 194.518 159.366 194.143 159.376 193.812C159.448 193.176 159.258 192.702 159.146 192.65C159.043 192.601 158.556 192.768 158.099 193.34C157.899 193.634 157.712 194.03 157.6 194.521C157.533 195.022 157.521 195.618 157.723 196.281C157.753 196.374 157.729 196.476 157.658 196.543C157.135 197.042 156.694 197.642 157.868 197.293C158.925 197.809 158.643 197.224 158.268 196.629Z" fill="black"/>
<path d="M158.422 201.976C158.345 201.916 158.312 201.819 158.334 201.729C158.534 201.082 158.614 200.552 158.62 200.097C158.65 199.639 158.584 199.259 158.474 198.944C158.298 198.317 157.951 197.948 157.826 197.94C157.713 197.933 157.315 198.265 157.109 198.953C157.027 199.295 156.995 199.725 157.066 200.22C157.161 200.711 157.386 201.27 157.786 201.83C157.847 201.908 157.861 202.011 157.817 202.098C157.503 202.741 157.302 203.456 158.28 202.732C159.455 202.86 158.984 202.408 158.422 201.976Z" fill="black"/>
<path d="M160.567 206.856C160.474 206.831 160.406 206.754 160.391 206.662C160.328 206.327 160.273 206.036 160.224 205.774C160.164 205.507 160.088 205.275 159.997 205.069C159.847 204.643 159.656 204.313 159.436 204.063C159.039 203.549 158.588 203.318 158.466 203.355C158.36 203.386 158.099 203.836 158.166 204.555C158.221 204.905 158.343 205.327 158.608 205.761C158.756 205.971 158.935 206.185 159.148 206.394C159.353 206.608 159.615 206.804 159.931 206.971C160.018 207.02 160.071 207.111 160.066 207.209C160.015 207.948 160.204 208.639 160.753 207.602C161.903 207.212 161.226 207.048 160.567 206.856Z" fill="black"/>
<path d="M164.638 210.333C164.54 210.358 164.445 210.318 164.393 210.236C164.017 209.666 163.649 209.295 163.329 208.968C163.163 208.814 162.995 208.692 162.83 208.591C162.678 208.475 162.526 208.384 162.379 208.313C161.777 208.041 161.279 208.012 161.188 208.092C161.101 208.167 161.049 208.692 161.453 209.296C161.55 209.449 161.672 209.609 161.821 209.77C161.983 209.915 162.175 210.058 162.396 210.191C162.824 210.478 163.429 210.65 164.123 210.715C164.219 210.726 164.308 210.785 164.352 210.868C164.669 211.504 165.124 212.102 165.153 210.905C165.989 210.08 165.339 210.167 164.638 210.333Z" fill="black"/>
<path d="M169.877 211.705C169.799 211.762 169.694 211.767 169.612 211.722C169.024 211.382 168.53 211.144 168.086 211.029C167.651 210.875 167.266 210.833 166.929 210.849C166.279 210.821 165.808 211.046 165.762 211.158C165.72 211.263 165.926 211.722 166.542 212.132C166.857 212.305 167.276 212.457 167.786 212.528C168.301 212.558 168.911 212.518 169.569 212.267C169.661 212.23 169.767 212.245 169.841 212.308C170.393 212.776 171.044 213.156 170.586 212.04C171.019 210.964 170.45 211.288 169.877 211.705Z" fill="black"/>
<path d="M173.736 209.14C173.68 209.219 173.58 209.258 173.485 209.242C172.8 209.09 172.262 209.049 171.79 209.021C171.324 209.027 170.933 209.064 170.604 209.149C169.951 209.342 169.546 209.609 169.53 209.746C169.524 209.802 169.601 209.931 169.772 210.079C169.942 210.232 170.207 210.396 170.572 210.486C170.935 210.589 171.398 210.65 171.93 210.541C172.46 210.469 173.055 210.203 173.625 209.772C173.703 209.706 173.811 209.685 173.906 209.721C174.618 210 175.382 210.049 174.536 209.208C174.537 208.019 174.152 208.583 173.736 209.14Z" fill="black"/>
<path d="M178.378 206.236C178.374 206.332 178.306 206.412 178.215 206.447C176.94 206.957 176.219 207.398 175.762 207.899C175.3 208.365 175.122 208.853 175.167 208.954C175.217 209.067 175.707 209.245 176.456 209.051C176.825 208.955 177.235 208.727 177.644 208.381C177.835 208.191 178.025 207.97 178.202 207.717C178.378 207.464 178.507 207.144 178.628 206.815C178.66 206.72 178.746 206.651 178.846 206.63C179.56 206.454 180.274 206.126 179.073 205.854C178.438 204.872 178.378 205.517 178.378 206.236Z" fill="black"/>
<path d="M180.815 201.339C180.858 201.427 180.85 201.532 180.788 201.606C180.315 202.127 180.037 202.59 179.799 202.994C179.596 203.411 179.454 203.769 179.39 204.097C179.274 204.753 179.345 205.23 179.461 205.305C179.543 205.36 180.102 205.276 180.6 204.716C181.12 204.184 181.577 203.137 181.33 201.738C181.311 201.64 181.339 201.537 181.416 201.473C181.974 200.998 182.46 200.406 181.263 200.686C180.247 200.084 180.485 200.701 180.815 201.339Z" fill="black"/>
<path d="M180.881 195.871C180.958 195.931 181.003 196.028 180.97 196.123C180.871 196.457 180.804 196.755 180.766 197.028C180.721 197.301 180.673 197.553 180.667 197.784C180.666 198.243 180.671 198.634 180.766 198.959C180.936 199.607 181.224 200.008 181.358 200.024C181.46 200.037 181.914 199.724 182.13 199.018C182.353 198.331 182.367 197.187 181.518 196.016C181.466 195.933 181.441 195.829 181.483 195.738C181.779 195.068 181.937 194.315 180.996 195.093C179.812 195.003 180.306 195.438 180.881 195.871Z" fill="black"/>
<path d="M178.25 191.123C178.346 191.134 178.427 191.203 178.457 191.293C178.856 192.587 179.293 193.299 179.742 193.803C180.211 194.278 180.648 194.506 180.773 194.462C180.872 194.427 181.136 193.942 180.967 193.212C180.844 192.486 180.22 191.469 178.863 190.917C178.767 190.88 178.698 190.795 178.686 190.695C178.583 189.956 178.256 189.274 177.916 190.413C176.858 190.987 177.546 191.045 178.25 191.123Z" fill="black"/>
<path d="M173.404 188.52C173.495 188.475 173.602 188.487 173.674 188.557C174.727 189.441 175.481 189.847 176.155 189.994C176.795 190.165 177.309 190.092 177.387 189.991C177.453 189.906 177.38 189.387 176.847 188.842C176.317 188.332 175.267 187.784 173.818 188.028C173.719 188.038 173.615 188.006 173.549 187.933C173.068 187.384 172.46 186.904 172.742 188.078C172.125 189.072 172.75 188.84 173.404 188.52Z" fill="black"/>
<path d="M167.862 188.581C167.918 188.501 168.017 188.462 168.112 188.477C168.798 188.629 169.335 188.673 169.806 188.7C170.271 188.691 170.662 188.665 170.99 188.574C171.642 188.393 172.051 188.117 172.067 187.983C172.081 187.886 171.76 187.434 171.029 187.237C170.319 187.016 169.126 187.061 167.973 187.947C167.894 188.014 167.786 188.035 167.691 188C166.979 187.723 166.214 187.673 167.062 188.513C167.063 189.702 167.447 189.14 167.862 188.581Z" fill="black"/>
<path d="M163.228 191.496C163.232 191.4 163.299 191.32 163.391 191.285C164.664 190.772 165.383 190.328 165.84 189.826C166.074 189.596 166.229 189.355 166.324 189.157C166.421 188.967 166.459 188.827 166.432 188.771C166.381 188.658 165.889 188.478 165.143 188.677C164.772 188.772 164.365 189.003 163.957 189.35C163.766 189.54 163.577 189.761 163.4 190.014C163.225 190.268 163.097 190.588 162.977 190.917C162.945 191.012 162.86 191.082 162.76 191.103C162.046 191.281 161.332 191.609 162.533 191.879C163.17 192.86 163.229 192.215 163.228 191.496Z" fill="black"/>
<path d="M160.795 196.396C160.751 196.308 160.759 196.202 160.822 196.128C161.294 195.608 161.572 195.144 161.81 194.74C162.014 194.323 162.156 193.965 162.219 193.637C162.335 192.98 162.262 192.504 162.146 192.429C162.064 192.374 161.505 192.459 161.008 193.019C160.489 193.551 160.032 194.598 160.28 195.997C160.299 196.095 160.27 196.198 160.193 196.262C159.635 196.737 159.149 197.329 160.346 197.049C161.363 197.651 161.125 197.034 160.795 196.396Z" fill="black"/>
<path d="M160.726 201.864C160.649 201.804 160.605 201.707 160.638 201.612C160.738 201.279 160.805 200.98 160.843 200.708C160.888 200.434 160.936 200.182 160.942 199.952C160.944 199.491 160.939 199.101 160.844 198.776C160.673 198.128 160.386 197.727 160.251 197.711C160.15 197.697 159.696 198.01 159.48 198.716C159.256 199.404 159.242 200.547 160.09 201.719C160.141 201.801 160.167 201.906 160.124 201.997C159.828 202.666 159.669 203.419 160.611 202.642C161.795 202.734 161.301 202.298 160.726 201.864Z" fill="black"/>
<path d="M163.347 206.62C163.251 206.608 163.17 206.539 163.141 206.448C162.745 205.154 162.311 204.44 161.863 203.935C161.395 203.459 160.958 203.23 160.833 203.274C160.734 203.308 160.47 203.793 160.636 204.523C160.758 205.249 161.378 206.268 162.735 206.823C162.829 206.861 162.898 206.946 162.91 207.047C163.012 207.784 163.336 208.469 163.68 207.33C164.737 206.759 164.052 206.697 163.347 206.62Z" fill="black"/>
<path d="M168.19 209.216C168.101 209.258 167.993 209.253 167.919 209.186C166.868 208.294 166.109 207.905 165.44 207.75C164.798 207.583 164.287 207.651 164.208 207.753C164.142 207.836 164.212 208.36 164.747 208.902C165.274 209.42 166.333 209.953 167.778 209.715C167.878 209.702 167.984 209.727 168.049 209.804C168.533 210.354 169.146 210.835 168.854 209.659C169.462 208.664 168.842 208.896 168.19 209.216Z" fill="black"/>
<path d="M136.496 187.458C136.77 186.019 135.348 184.471 133.771 185.172C133.721 185.186 133.656 185.246 133.718 185.294C134.927 186.014 135.46 187.687 134.927 189.086C134.917 189.125 134.93 189.143 134.951 189.151C134.96 189.172 134.976 189.187 135.008 189.177C136.274 188.586 137.787 189.174 138.439 190.512C138.486 190.582 138.534 190.507 138.549 190.453C139.177 188.712 137.797 187.156 136.496 187.458Z" fill="black"/>
<path d="M142.624 179.279C142.898 177.84 141.476 176.292 139.899 176.993C139.848 177.007 139.784 177.067 139.846 177.114C141.054 177.835 141.588 179.508 141.054 180.907C141.045 180.946 141.058 180.964 141.079 180.972C141.087 180.993 141.104 181.007 141.136 180.997C142.401 180.407 143.915 180.995 144.567 182.332C144.614 182.403 144.662 182.328 144.677 182.274C145.305 180.533 143.924 178.977 142.624 179.279Z" fill="black"/>
<path d="M154.62 177.46C154.894 176.021 153.471 174.473 151.894 175.174C151.844 175.188 151.779 175.248 151.841 175.296C153.05 176.016 153.584 177.689 153.05 179.088C153.04 179.127 153.054 179.145 153.074 179.153C153.083 179.174 153.099 179.189 153.132 179.178C154.397 178.588 155.91 179.176 156.562 180.513C156.609 180.584 156.657 180.509 156.673 180.455C157.301 178.714 155.92 177.158 154.62 177.46Z" fill="black"/>
<path d="M130.835 193.94C131.109 192.501 129.686 190.953 128.109 191.654C128.059 191.668 127.994 191.728 128.056 191.776C129.265 192.496 129.799 194.169 129.265 195.568C129.255 195.607 129.269 195.625 129.289 195.633C129.298 195.655 129.314 195.669 129.346 195.658C130.612 195.068 132.125 195.656 132.777 196.993C132.824 197.064 132.872 196.989 132.888 196.935C133.515 195.194 132.135 193.638 130.835 193.94Z" fill="black"/>
<path d="M124.804 204.57C125.078 203.13 123.655 201.583 122.078 202.283C122.028 202.297 121.964 202.357 122.025 202.405C123.234 203.126 123.768 204.798 123.234 206.197C123.225 206.236 123.238 206.254 123.258 206.263C123.267 206.284 123.283 206.298 123.316 206.288C124.581 205.698 126.094 206.286 126.746 207.623C126.793 207.693 126.841 207.618 126.857 207.564C127.485 205.823 126.104 204.267 124.804 204.57Z" fill="black"/>
<path d="M144.224 217.695C144.498 216.256 143.076 214.708 141.499 215.409C141.448 215.423 141.384 215.483 141.446 215.53C142.654 216.251 143.188 217.924 142.654 219.323C142.645 219.362 142.658 219.38 142.679 219.388C142.687 219.41 142.704 219.423 142.736 219.413C144.001 218.823 145.515 219.411 146.167 220.748C146.214 220.819 146.262 220.744 146.277 220.69C146.905 218.949 145.524 217.393 144.224 217.695Z" fill="black"/>
<path d="M141.51 187.458C141.784 186.019 140.361 184.471 138.784 185.172C138.734 185.186 138.669 185.246 138.731 185.294C139.94 186.014 140.474 187.687 139.94 189.086C139.93 189.125 139.944 189.143 139.964 189.151C139.973 189.172 139.989 189.187 140.021 189.177C141.287 188.586 142.8 189.174 143.452 190.512C143.499 190.582 143.547 190.507 143.563 190.453C144.191 188.712 142.81 187.156 141.51 187.458Z" fill="black"/>
<path d="M146.523 187.458C146.797 186.019 145.374 184.471 143.797 185.172C143.747 185.186 143.683 185.246 143.744 185.294C144.953 186.014 145.487 187.687 144.953 189.086C144.944 189.125 144.957 189.143 144.977 189.151C144.986 189.172 145.002 189.187 145.034 189.177C146.3 188.586 147.813 189.174 148.465 190.512C148.512 190.582 148.56 190.507 148.576 190.453C149.204 188.712 147.823 187.156 146.523 187.458Z" fill="black"/>
<path d="M151.536 187.458C151.81 186.019 150.387 184.471 148.81 185.172C148.76 185.186 148.696 185.246 148.757 185.294C149.966 186.014 150.5 187.687 149.966 189.086C149.957 189.125 149.97 189.143 149.991 189.151C149.999 189.172 150.016 189.187 150.047 189.177C151.313 188.586 152.827 189.174 153.479 190.512C153.525 190.582 153.573 190.507 153.589 190.453C154.217 188.712 152.836 187.156 151.536 187.458Z" fill="black"/>
<path d="M136.397 210.034C136.681 208.595 135.203 207.047 133.564 207.748C133.511 207.762 133.445 207.822 133.509 207.869C134.765 208.59 135.319 210.263 134.765 211.662C134.755 211.7 134.769 211.719 134.791 211.727C134.799 211.748 134.817 211.762 134.849 211.752C136.165 211.162 137.738 211.75 138.415 213.087C138.464 213.157 138.514 213.083 138.53 213.029C139.182 211.288 137.748 209.731 136.397 210.034Z" fill="black"/>
<path d="M141.607 210.034C141.891 208.595 140.413 207.047 138.774 207.748C138.721 207.762 138.655 207.822 138.719 207.869C139.975 208.59 140.53 210.263 139.975 211.662C139.965 211.7 139.979 211.719 140.001 211.727C140.01 211.748 140.026 211.762 140.06 211.752C141.375 211.162 142.947 211.75 143.625 213.087C143.674 213.157 143.724 213.083 143.74 213.029C144.393 211.288 142.958 209.731 141.607 210.034Z" fill="black"/>
<path d="M146.817 210.034C147.102 208.595 145.623 207.047 143.984 207.748C143.932 207.762 143.865 207.822 143.929 207.869C145.185 208.59 145.74 210.263 145.185 211.662C145.175 211.7 145.189 211.719 145.211 211.727C145.22 211.748 145.237 211.762 145.269 211.752C146.585 211.162 148.158 211.75 148.836 213.087C148.884 213.157 148.934 213.083 148.95 213.029C149.603 211.288 148.168 209.731 146.817 210.034Z" fill="black"/>
<path d="M152.027 210.034C152.312 208.595 150.833 207.047 149.194 207.748C149.141 207.762 149.075 207.822 149.139 207.869C150.395 208.59 150.95 210.263 150.395 211.662C150.385 211.7 150.399 211.719 150.421 211.727C150.43 211.748 150.447 211.762 150.48 211.752C151.795 211.162 153.368 211.75 154.045 213.087C154.094 213.157 154.144 213.083 154.16 213.029C154.813 211.288 153.378 209.731 152.027 210.034Z" fill="black"/>
<path d="M138.132 204.592C138.485 203.241 137.053 201.836 135.356 202.533C135.303 202.548 135.232 202.605 135.295 202.648C136.539 203.287 137.028 204.833 136.401 206.154C136.39 206.19 136.403 206.207 136.425 206.214C136.433 206.234 136.449 206.247 136.483 206.236C137.846 205.651 139.417 206.157 140.046 207.387C140.092 207.452 140.146 207.381 140.165 207.33C140.906 205.688 139.518 204.273 138.132 204.592Z" fill="black"/>
<path d="M141.185 201.725C141.538 200.374 140.106 198.97 138.409 199.667C138.356 199.681 138.285 199.739 138.348 199.782C139.592 200.421 140.081 201.967 139.455 203.288C139.443 203.324 139.456 203.341 139.478 203.348C139.485 203.367 139.502 203.381 139.536 203.37C140.898 202.784 142.47 203.291 143.098 204.521C143.145 204.585 143.199 204.514 143.218 204.463C143.959 202.821 142.571 201.407 141.185 201.725Z" fill="black"/>
<path d="M144.238 198.859C144.591 197.509 143.159 196.103 141.463 196.8C141.409 196.815 141.338 196.873 141.402 196.916C142.645 197.555 143.134 199.101 142.508 200.422C142.496 200.458 142.51 200.475 142.531 200.481C142.539 200.501 142.556 200.514 142.59 200.504C143.952 199.918 145.523 200.425 146.152 201.655C146.198 201.719 146.252 201.648 146.271 201.597C147.012 199.955 145.624 198.541 144.238 198.859Z" fill="black"/>
<path d="M147.291 195.993C147.644 194.642 146.212 193.237 144.516 193.934C144.462 193.949 144.391 194.007 144.455 194.05C145.698 194.689 146.187 196.235 145.56 197.556C145.549 197.592 145.562 197.609 145.584 197.616C145.592 197.635 145.609 197.648 145.643 197.638C147.004 197.052 148.576 197.559 149.205 198.789C149.251 198.853 149.305 198.782 149.324 198.731C150.065 197.089 148.677 195.675 147.291 195.993Z" fill="black"/>
<path d="M150.344 193.127C150.698 191.776 149.265 190.371 147.569 191.068C147.515 191.083 147.445 191.14 147.508 191.183C148.751 191.823 149.24 193.368 148.614 194.689C148.602 194.725 148.616 194.742 148.637 194.749C148.645 194.769 148.662 194.782 148.696 194.771C150.058 194.186 151.63 194.693 152.258 195.922C152.304 195.987 152.359 195.916 152.377 195.865C153.118 194.223 151.73 192.808 150.344 193.127Z" fill="black"/>
<path d="M124.843 217.352H134.925C139.508 217.352 142.64 220.382 142.64 224.198C142.64 226.667 141.303 228.762 139.355 229.735V229.959C141.647 231.119 143.137 233.626 143.137 236.282C143.137 240.397 139.585 243.54 134.849 243.54H124.843V217.352ZM134.62 228.501C137.026 228.501 138.783 226.854 138.783 224.572C138.783 222.29 137.026 220.681 134.62 220.681H128.623V228.501H134.62ZM134.963 240.21C137.293 240.21 139.279 238.302 139.279 236.02C139.279 233.738 137.293 231.793 134.963 231.793H128.623V240.21H134.963Z" fill="black"/>
<path d="M148.748 217.352H158.83C163.414 217.352 166.737 220.606 166.737 224.946C166.737 228.426 164.636 231.044 161.199 232.054L167.691 243.54H163.452L157.379 232.728H152.529V243.54H148.748V217.352ZM158.449 229.398C160.931 229.398 162.879 227.452 162.879 225.021C162.879 222.627 160.931 220.681 158.449 220.681H152.529V229.398H158.449Z" fill="black"/>
<path d="M173.074 217.352H176.931L190.374 237.105H190.603V217.352H194.27V243.54H190.412L176.931 223.786H176.702V243.54H173.074V217.352Z" fill="black"/>
<path d="M200.339 230.446C200.339 222.59 206.067 216.94 213.973 216.94C221.878 216.94 227.607 222.59 227.607 230.446C227.607 238.302 221.878 243.951 213.973 243.951C206.067 243.951 200.339 238.302 200.339 230.446ZM213.973 240.547C219.702 240.547 223.75 236.394 223.75 230.446C223.75 224.497 219.702 220.345 213.973 220.345C208.206 220.345 204.196 224.497 204.196 230.446C204.196 236.394 208.206 240.547 213.973 240.547Z" fill="black"/>
<path d="M175.807 196.95C175.889 197.007 175.937 197.108 175.911 197.208C175.619 198.576 175.516 199.423 175.589 200.109C175.62 200.444 175.686 200.725 175.75 200.933C175.824 201.143 175.904 201.277 175.959 201.297C176.016 201.318 176.165 201.271 176.348 201.124C176.54 200.98 176.76 200.73 176.93 200.358C177.102 199.987 177.21 199.493 177.172 198.919C177.111 198.35 176.932 197.683 176.453 197.075C176.394 196.988 176.365 196.876 176.398 196.776C176.528 196.41 176.578 196.007 176.498 195.819C176.42 195.625 176.238 195.68 175.827 196.131C175.224 196.143 175.078 196.28 175.143 196.416C175.214 196.556 175.511 196.733 175.807 196.95Z" fill="black"/>
<path d="M166.617 195.305C166.608 195.202 166.673 195.114 166.765 195.071C167.411 194.769 167.902 194.565 168.323 194.388C168.735 194.205 169.067 194.03 169.351 193.853C169.634 193.677 169.862 193.5 170.025 193.351C170.185 193.192 170.274 193.07 170.269 193.01C170.264 192.953 170.157 192.836 169.941 192.741C169.725 192.635 169.398 192.547 168.972 192.568C168.55 192.589 168.026 192.728 167.522 193.078C167.015 193.413 166.551 193.992 166.331 194.727C166.299 194.829 166.214 194.911 166.118 194.95C165.935 195.017 165.749 195.098 165.594 195.187C165.45 195.281 165.336 195.38 165.284 195.468C165.178 195.65 165.335 195.755 165.95 195.791C166.334 196.249 166.534 196.276 166.601 196.142C166.636 196.072 166.642 195.954 166.634 195.803C166.636 195.661 166.628 195.488 166.617 195.305Z" fill="black"/>
<path d="M169.865 204.37C169.777 204.415 169.663 204.418 169.584 204.35C169.009 203.933 168.608 203.574 168.25 203.301C167.887 203.035 167.59 202.813 167.291 202.657C166.728 202.324 166.228 202.169 166.112 202.236C166.025 202.284 165.877 202.832 166.297 203.573C166.518 203.923 166.873 204.331 167.429 204.6C167.972 204.875 168.697 205.037 169.467 204.885C169.574 204.874 169.69 204.891 169.767 204.966C170.05 205.243 170.4 205.456 170.606 205.469C170.818 205.484 170.846 205.3 170.609 204.741C170.859 204.204 170.797 204.016 170.643 204.014C170.483 204.013 170.19 204.205 169.865 204.37Z" fill="black"/>
<path d="M175.546 213.647C175.489 213.732 175.384 213.76 175.285 213.742C173.881 213.503 172.954 213.6 172.287 213.873C171.625 214.088 171.26 214.47 171.263 214.59C171.266 214.703 171.657 215.051 172.41 215.205C173.146 215.306 174.289 215.191 175.434 214.27C175.514 214.206 175.627 214.197 175.722 214.226C176.426 214.454 177.197 214.563 176.359 213.689C176.408 212.512 175.962 213.036 175.546 213.647Z" fill="black"/>
<path d="M185.884 201.244C185.935 201.329 185.93 201.436 185.876 201.52C185.515 202.113 185.215 202.612 185.064 203.07C184.925 203.531 184.825 203.922 184.812 204.268C184.796 204.612 184.847 204.905 184.914 205.118C184.965 205.325 185.042 205.455 185.099 205.478C185.152 205.499 185.304 205.459 185.502 205.338C185.683 205.21 185.903 204.997 186.11 204.683C186.314 204.369 186.525 203.958 186.579 203.43C186.645 202.907 186.665 202.291 186.429 201.597C186.399 201.499 186.424 201.392 186.496 201.32C186.757 201.055 187.007 200.762 187.029 200.583C187.043 200.403 186.855 200.351 186.288 200.537C185.74 200.262 185.548 200.296 185.548 200.461C185.54 200.626 185.697 200.932 185.884 201.244Z" fill="black"/>
<path d="M179.877 186.162C179.976 186.159 180.069 186.215 180.116 186.302C180.28 186.616 180.465 186.861 180.617 187.111C180.769 187.359 180.927 187.568 181.087 187.747C181.423 188.09 181.707 188.377 182.006 188.561C182.606 188.921 183.105 189.018 183.205 188.946C183.297 188.88 183.395 188.343 183.035 187.682C182.859 187.351 182.609 186.956 182.164 186.643C181.949 186.48 181.703 186.323 181.425 186.179C181.149 186.034 180.805 185.947 180.45 185.863C180.349 185.841 180.266 185.767 180.235 185.67C180.179 185.491 180.116 185.312 180.045 185.166C179.967 185.029 179.886 184.922 179.808 184.872C179.65 184.772 179.518 184.912 179.422 185.494C178.923 185.839 178.865 186.023 179.011 186.1C179.084 186.14 179.211 186.154 179.368 186.155C179.518 186.165 179.694 186.167 179.877 186.162Z" fill="black"/>
<path d="M168.88 183.527C168.952 183.458 169.058 183.424 169.154 183.466C169.829 183.738 170.392 183.838 170.882 183.893C171.372 183.964 171.788 183.933 172.137 183.855C172.827 183.721 173.249 183.441 173.268 183.312C173.284 183.21 172.962 182.766 172.242 182.522C171.884 182.412 171.427 182.341 170.893 182.366C170.359 182.407 169.745 182.601 169.103 182.921C169.013 182.963 168.902 182.977 168.814 182.926C168.164 182.569 167.43 182.317 168.087 183.332C167.814 184.477 168.355 184.046 168.88 183.527Z" fill="black"/>
<path d="M156.316 193.715C156.282 193.624 156.306 193.519 156.375 193.447C156.621 193.19 156.819 192.946 156.986 192.712C157.175 192.487 157.327 192.271 157.447 192.062C157.568 191.854 157.657 191.652 157.725 191.459C157.81 191.275 157.87 191.099 157.912 190.932C158.07 190.265 157.949 189.751 157.857 189.691C157.75 189.623 157.242 189.744 156.713 190.291C156.581 190.426 156.447 190.587 156.318 190.774C156.209 190.971 156.108 191.194 156.022 191.445C155.936 191.696 155.866 191.974 155.819 192.276C155.797 192.587 155.804 192.924 155.843 193.281C155.854 193.381 155.81 193.482 155.725 193.542C155.089 193.977 154.639 194.558 155.817 194.352C156.819 195.053 156.553 194.376 156.316 193.715Z" fill="black"/>
<path d="M159.566 209.711C159.468 209.694 159.389 209.619 159.361 209.525C159.267 209.184 159.142 208.904 159.043 208.632C158.945 208.357 158.836 208.12 158.717 207.912C158.462 207.506 158.235 207.172 157.985 206.93C157.474 206.454 156.992 206.27 156.884 206.318C156.775 206.368 156.584 206.868 156.796 207.588C156.895 207.949 157.064 208.379 157.431 208.776C157.607 208.978 157.814 209.182 158.054 209.379C158.297 209.574 158.613 209.732 158.942 209.886C159.036 209.928 159.101 210.017 159.11 210.119C159.134 210.499 159.224 210.86 159.36 210.986C159.493 211.116 159.652 211.006 159.869 210.456C160.431 210.22 160.526 210.052 160.401 209.947C160.27 209.844 159.915 209.785 159.566 209.711Z" fill="black"/>
<path d="M184.001 208.336C184.004 208.433 183.947 208.524 183.86 208.568C183.259 208.904 182.743 209.179 182.389 209.501C182.207 209.657 182.062 209.823 181.931 209.977C181.792 210.123 181.679 210.27 181.587 210.413C181.221 210.985 181.181 211.51 181.259 211.603C181.331 211.692 181.845 211.731 182.515 211.394C182.682 211.31 182.858 211.203 183.036 211.07C183.207 210.928 183.367 210.748 183.528 210.544C183.838 210.126 184.167 209.616 184.301 208.904C184.323 208.806 184.397 208.726 184.494 208.699C185.211 208.498 185.906 208.172 184.699 207.927C184.045 206.956 183.982 207.623 184.001 208.336Z" fill="black"/>
<path d="M183.608 186.303C183.705 186.327 183.77 186.411 183.786 186.508C183.885 187.206 184.1 187.707 184.278 188.15C184.459 188.589 184.693 188.916 184.936 189.164C185.387 189.673 185.849 189.882 185.97 189.835C186.071 189.796 186.299 189.31 186.166 188.584C186.083 188.231 185.917 187.815 185.626 187.383C185.34 186.95 184.839 186.552 184.238 186.185C184.151 186.135 184.101 186.039 184.101 185.939C184.078 185.224 183.922 184.492 183.371 185.555C182.227 185.925 182.883 186.143 183.608 186.303Z" fill="black"/>
<path d="M160.908 183.71C160.941 183.62 161.027 183.557 161.127 183.547C161.831 183.474 162.364 183.315 162.833 183.178C163.291 183.028 163.629 182.794 163.907 182.594C164.463 182.205 164.694 181.738 164.657 181.624C164.621 181.516 164.151 181.291 163.396 181.353C163.022 181.39 162.6 181.552 162.143 181.809C161.678 182.051 161.231 182.497 160.83 183.083C160.773 183.166 160.674 183.213 160.571 183.203C159.811 183.131 159.09 183.282 160.12 183.875C160.43 185.037 160.664 184.363 160.908 183.71Z" fill="black"/>
<path d="M154.203 203.309C154.126 203.248 154.092 203.147 154.114 203.053C154.245 202.387 154.362 201.819 154.337 201.343C154.316 200.867 154.218 200.473 154.122 200.147C153.904 199.501 153.515 199.146 153.393 199.148C153.277 199.15 152.92 199.522 152.76 200.237C152.666 200.594 152.668 201.033 152.79 201.534C152.917 202.032 153.102 202.602 153.567 203.164C153.629 203.244 153.643 203.351 153.601 203.441C153.292 204.105 153.093 204.831 154.068 204.095C155.248 204.241 154.769 203.758 154.203 203.309Z" fill="black"/>
<path d="M169.817 216.715C169.736 216.771 169.628 216.776 169.541 216.731C168.918 216.429 168.389 216.193 167.918 216.077C167.447 215.962 167.032 215.965 166.69 215.962C166.003 215.989 165.544 216.256 165.511 216.371C165.479 216.48 165.742 216.919 166.405 217.27C166.732 217.461 167.17 217.563 167.696 217.588C168.221 217.615 168.834 217.565 169.509 217.277C169.604 217.24 169.712 217.254 169.79 217.318C170.364 217.787 171.027 218.167 170.556 217.05C171.008 215.975 170.407 216.299 169.817 216.715Z" fill="black"/>
</g>
</svg>
