<svg width="357" height="503" viewBox="0 0 357 503" fill="none" xmlns="http://www.w3.org/2000/svg">
<rect width="357" height="503" fill="#F9F0E4"/>
<g opacity="0.25">
<path d="M199.685 248.162L199.613 248.189C199.614 248.176 199.615 248.167 199.616 248.152C199.61 247.984 199.524 247.819 199.417 247.832C199.31 247.846 199.237 248.031 199.257 248.196C199.265 248.273 199.291 248.33 199.324 248.371C199.118 248.291 198.836 248.292 198.525 248.333C198.235 248.397 197.92 248.511 197.68 248.668C197.445 248.835 197.301 249.001 197.229 249.159C197.197 249.223 197.14 249.275 197.073 249.296C196.889 249.349 196.709 249.468 196.577 249.648C196.389 249.889 196.392 250.22 196.532 250.453C196.808 250.895 197.385 250.921 197.746 250.633C197.836 250.556 197.902 250.463 197.946 250.359C197.971 250.296 198.029 250.258 198.096 250.257C198.258 250.249 198.431 250.191 198.622 250.054C198.812 249.928 199.003 249.774 199.166 249.584C199.334 249.426 199.477 249.223 199.565 249.046C199.568 249.096 199.586 249.156 199.625 249.224C199.711 249.37 199.843 249.495 199.905 249.46C199.966 249.425 199.948 249.24 199.876 249.091C199.869 249.08 199.864 249.072 199.858 249.062C199.878 249.058 199.898 249.056 199.919 249.05C200.179 248.978 200.377 248.762 200.352 248.502C200.331 248.257 200.022 248.072 199.685 248.162Z" fill="black"/>
<path d="M193.642 254.597L193.601 254.661C193.594 254.651 193.588 254.642 193.581 254.631C193.472 254.5 193.302 254.419 193.225 254.493C193.148 254.567 193.204 254.758 193.321 254.878C193.375 254.934 193.431 254.965 193.483 254.978C193.27 255.036 193.045 255.203 192.822 255.421C192.631 255.644 192.45 255.922 192.356 256.189C192.27 256.461 192.258 256.679 192.298 256.848C192.312 256.917 192.298 256.993 192.258 257.049C192.144 257.201 192.074 257.401 192.079 257.624C192.078 257.927 192.284 258.189 192.539 258.291C193.031 258.48 193.507 258.159 193.617 257.716C193.642 257.601 193.637 257.487 193.608 257.379C193.59 257.314 193.612 257.249 193.665 257.208C193.789 257.107 193.891 256.957 193.959 256.735C194.034 256.522 194.091 256.285 194.103 256.039C194.14 255.812 194.129 255.566 194.091 255.373C194.123 255.411 194.175 255.448 194.248 255.479C194.406 255.544 194.588 255.566 194.616 255.501C194.644 255.437 194.515 255.3 194.366 255.224C194.354 255.219 194.345 255.216 194.334 255.211C194.347 255.197 194.362 255.183 194.374 255.166C194.538 254.955 194.563 254.665 194.383 254.473C194.215 254.29 193.855 254.325 193.642 254.597Z" fill="black"/>
<path d="M190.979 254.912L190.925 254.967C190.921 254.955 190.917 254.946 190.912 254.933C190.833 254.783 190.683 254.67 190.592 254.727C190.502 254.784 190.517 254.982 190.606 255.123C190.647 255.189 190.697 255.23 190.744 255.253C190.523 255.267 190.269 255.386 190.005 255.554C189.771 255.734 189.536 255.971 189.388 256.213C189.248 256.462 189.191 256.673 189.195 256.846C189.195 256.917 189.166 256.988 189.114 257.036C188.971 257.161 188.861 257.344 188.819 257.562C188.755 257.859 188.902 258.156 189.131 258.308C189.574 258.591 190.106 258.372 190.306 257.96C190.354 257.853 190.373 257.741 190.368 257.629C190.363 257.561 190.398 257.502 190.458 257.473C190.601 257.398 190.732 257.273 190.845 257.069C190.962 256.875 191.067 256.655 191.131 256.416C191.214 256.202 191.254 255.959 191.257 255.761C191.281 255.806 191.323 255.852 191.389 255.897C191.53 255.992 191.704 256.05 191.744 255.993C191.785 255.935 191.687 255.775 191.557 255.67C191.546 255.664 191.538 255.658 191.528 255.652C191.545 255.641 191.562 255.63 191.577 255.616C191.781 255.442 191.866 255.163 191.731 254.939C191.604 254.727 191.244 254.689 190.979 254.912Z" fill="black"/>
<path d="M204.756 248.793L204.689 248.793C204.694 248.782 204.698 248.773 204.704 248.76C204.754 248.601 204.74 248.416 204.661 248.392C204.578 248.371 204.476 248.507 204.418 248.664C204.392 248.737 204.386 248.8 204.393 248.85C204.149 248.544 203.669 248.21 203.166 248.062C202.919 247.988 202.692 247.983 202.529 248.026C202.462 248.043 202.38 248.032 202.323 247.988C202.169 247.87 201.958 247.796 201.714 247.812C201.389 247.819 201.106 248.044 201.034 248.298C200.911 248.797 201.239 249.234 201.657 249.319C201.766 249.338 201.881 249.341 201.988 249.313C202.052 249.299 202.116 249.317 202.162 249.368C202.276 249.49 202.427 249.582 202.685 249.659C203.173 249.804 203.908 249.803 204.286 249.558C204.262 249.603 204.248 249.664 204.253 249.743C204.263 249.908 204.372 250.088 204.464 250.078C204.56 250.071 204.617 249.892 204.598 249.727C204.595 249.714 204.594 249.705 204.591 249.693L204.661 249.705C204.983 249.741 205.257 249.548 205.269 249.293C205.279 249.042 205.051 248.826 204.756 248.793Z" fill="black"/>
<path d="M209.277 247.896L209.224 247.935C209.221 247.923 209.219 247.914 209.215 247.9C209.156 247.743 209.032 247.608 208.956 247.631C208.88 247.653 208.876 247.835 208.928 247.993C208.952 248.067 208.986 248.121 209.024 248.156C208.624 248.063 208.046 248.109 207.617 248.227C207.402 248.3 207.244 248.371 207.137 248.488C207.093 248.536 207.028 248.553 206.967 248.531C206.804 248.474 206.633 248.484 206.449 248.543C206.204 248.637 206.001 248.859 205.94 249.124C205.82 249.624 206.248 250.072 206.821 250.011C206.962 249.991 207.091 249.944 207.199 249.877C207.263 249.839 207.343 249.831 207.415 249.851C207.586 249.896 207.819 249.916 208.102 249.823C208.674 249.665 209.243 249.188 209.377 248.781C209.386 248.832 209.413 248.889 209.465 248.948C209.577 249.073 209.76 249.152 209.838 249.09C209.915 249.029 209.847 248.85 209.73 248.731C209.72 248.723 209.712 248.717 209.703 248.709L209.767 248.675C210.049 248.504 210.143 248.188 209.99 247.98C209.84 247.778 209.523 247.746 209.277 247.896Z" fill="black"/>
<path d="M209.817 244.136L209.782 244.191C209.775 244.18 209.769 244.172 209.761 244.161C209.649 244.033 209.486 243.949 209.422 243.996C209.359 244.043 209.419 244.214 209.524 244.346C209.573 244.407 209.624 244.445 209.671 244.465C209.264 244.514 208.737 244.754 208.377 245.01C208.2 245.151 208.077 245.271 208.018 245.418C207.994 245.477 207.938 245.515 207.874 245.516C207.7 245.516 207.543 245.585 207.391 245.703C207.195 245.873 207.082 246.15 207.119 246.42C207.182 246.93 207.742 247.205 208.258 246.954C208.383 246.887 208.487 246.799 208.566 246.7C208.612 246.643 208.685 246.608 208.758 246.601C208.936 246.586 209.16 246.526 209.394 246.343C209.875 246 210.241 245.36 210.223 244.933C210.249 244.977 210.295 245.022 210.365 245.059C210.514 245.139 210.713 245.15 210.765 245.067C210.815 244.982 210.688 244.838 210.537 244.766C210.524 244.761 210.515 244.758 210.504 244.754L210.552 244.701C210.756 244.445 210.733 244.116 210.515 243.973C210.304 243.834 209.995 243.912 209.817 244.136Z" fill="black"/>
<path d="M212.734 244.651L212.7 244.706C212.692 244.697 212.686 244.689 212.678 244.678C212.559 244.561 212.385 244.485 212.325 244.539C212.265 244.593 212.338 244.761 212.453 244.884C212.507 244.941 212.561 244.975 212.61 244.991C212.208 245.073 211.688 245.37 211.357 245.706C211.176 245.88 211.08 246.048 211.04 246.206C211.024 246.269 210.976 246.321 210.912 246.34C210.74 246.391 210.586 246.502 210.471 246.664C210.317 246.891 210.293 247.193 210.412 247.439C210.632 247.906 211.243 247.997 211.647 247.641C211.744 247.552 211.817 247.447 211.864 247.337C211.891 247.271 211.951 247.224 212.021 247.208C212.189 247.168 212.369 247.065 212.563 246.877C212.956 246.482 213.251 245.838 213.199 245.413C213.229 245.455 213.278 245.496 213.35 245.527C213.506 245.595 213.704 245.593 213.746 245.506C213.788 245.42 213.656 245.287 213.497 245.225C213.484 245.221 213.474 245.219 213.463 245.216L213.51 245.161C213.685 244.888 213.644 244.564 213.42 244.438C213.196 244.313 212.888 244.408 212.734 244.651Z" fill="black"/>
<path d="M194.668 250.057L194.649 250.119C194.639 250.111 194.631 250.105 194.62 250.097C194.476 250.01 194.289 249.977 194.244 250.043C194.199 250.109 194.31 250.256 194.452 250.348C194.518 250.391 194.578 250.412 194.63 250.416C194.259 250.589 193.825 250.999 193.584 251.402C193.451 251.613 193.398 251.799 193.398 251.961C193.397 252.026 193.363 252.088 193.305 252.122C193.15 252.21 193.028 252.354 192.955 252.539C192.86 252.795 192.91 253.094 193.084 253.305C193.41 253.708 194.026 253.654 194.333 253.215C194.406 253.106 194.451 252.987 194.47 252.868C194.481 252.799 194.527 252.738 194.592 252.707C194.746 252.63 194.895 252.487 195.038 252.26C195.325 251.785 195.457 251.09 195.303 250.689C195.343 250.723 195.4 250.752 195.479 250.765C195.646 250.795 195.837 250.747 195.857 250.653C195.878 250.559 195.717 250.461 195.548 250.437C195.534 250.437 195.525 250.437 195.512 250.437L195.545 250.373C195.649 250.066 195.531 249.761 195.283 249.691C195.035 249.622 194.759 249.785 194.668 250.057Z" fill="black"/>
<path d="M214.203 240.263L214.206 240.329C214.194 240.324 214.185 240.321 214.172 240.316C214.007 240.274 213.821 240.296 213.799 240.373C213.774 240.449 213.924 240.558 214.086 240.606C214.162 240.628 214.226 240.63 214.277 240.62C213.975 240.893 213.686 241.416 213.574 241.863C213.513 242.09 213.52 242.272 213.559 242.422C213.576 242.483 213.56 242.549 213.514 242.594C213.397 242.715 213.298 242.866 213.279 243.06C213.248 243.321 213.352 243.597 213.572 243.774C213.964 244.105 214.575 243.937 214.773 243.418C214.825 243.291 214.845 243.161 214.831 243.037C214.824 242.964 214.853 242.891 214.908 242.843C215.044 242.725 215.149 242.537 215.221 242.264C215.358 241.722 215.27 241.025 215.003 240.686C215.051 240.708 215.114 240.718 215.193 240.709C215.362 240.689 215.532 240.589 215.524 240.493C215.514 240.399 215.328 240.351 215.161 240.376C215.148 240.38 215.139 240.382 215.127 240.386L215.136 240.315C215.155 239.995 214.947 239.737 214.686 239.739C214.431 239.74 214.22 239.976 214.203 240.263Z" fill="black"/>
<path d="M217.313 226.087L217.258 226.124C217.256 226.112 217.254 226.102 217.252 226.088C217.202 225.928 217.086 225.784 217.007 225.806C216.928 225.825 216.911 226.007 216.954 226.168C216.975 226.243 217.006 226.298 217.042 226.335C216.647 226.224 216.041 226.254 215.594 226.394C215.366 226.462 215.21 226.563 215.1 226.672C215.056 226.719 214.99 226.741 214.928 226.725C214.761 226.689 214.578 226.686 214.399 226.771C214.157 226.882 213.97 227.112 213.931 227.389C213.848 227.89 214.313 228.314 214.868 228.209C215.005 228.187 215.128 228.135 215.229 228.058C215.288 228.015 215.367 228.002 215.437 228.022C215.61 228.074 215.829 228.064 216.104 227.983C216.646 227.814 217.208 227.377 217.362 226.978C217.369 227.028 217.393 227.086 217.442 227.148C217.547 227.279 217.723 227.369 217.802 227.313C217.879 227.255 217.823 227.074 217.714 226.948C217.704 226.939 217.697 226.933 217.688 226.924L217.754 226.895C218.043 226.744 218.159 226.435 218.021 226.218C217.887 226.005 217.573 225.951 217.313 226.087Z" fill="black"/>
<path d="M213.769 235.378V235.452C213.757 235.447 213.748 235.444 213.735 235.438C213.572 235.393 213.383 235.422 213.359 235.522C213.343 235.622 213.503 235.743 213.67 235.778C213.747 235.794 213.812 235.789 213.861 235.772C213.56 236.095 213.443 236.821 213.549 237.342C213.598 237.605 213.691 237.786 213.802 237.902C213.847 237.949 213.867 238.018 213.849 238.08C213.798 238.252 213.802 238.412 213.872 238.599C213.972 238.846 214.211 239.039 214.483 239.087C214.997 239.181 215.432 238.748 215.358 238.203C215.336 238.068 215.29 237.936 215.218 237.84C215.177 237.782 215.168 237.707 215.192 237.641C215.252 237.478 215.263 237.284 215.217 237.039C215.122 236.561 214.865 236.056 214.59 235.767C214.639 235.782 214.703 235.785 214.781 235.77C214.947 235.736 215.105 235.648 215.088 235.575C215.076 235.503 214.893 235.463 214.724 235.485C214.711 235.488 214.702 235.49 214.69 235.493C214.694 235.473 214.7 235.453 214.701 235.432C214.714 235.158 214.55 234.904 214.298 234.858C214.042 234.812 213.786 235.043 213.769 235.378Z" fill="black"/>
<path d="M211.983 233.353L211.96 233.423C211.95 233.415 211.942 233.409 211.932 233.4C211.79 233.308 211.601 233.278 211.548 233.367C211.501 233.456 211.616 233.62 211.764 233.703C211.833 233.743 211.895 233.757 211.947 233.755C211.561 233.972 211.222 234.629 211.161 235.157C211.126 235.421 211.158 235.622 211.227 235.765C211.256 235.824 211.253 235.895 211.217 235.949C211.114 236.097 211.069 236.251 211.077 236.45C211.095 236.715 211.262 236.97 211.506 237.098C211.967 237.342 212.515 237.061 212.615 236.519C212.637 236.384 212.634 236.244 212.595 236.132C212.574 236.064 212.589 235.99 212.632 235.935C212.739 235.797 212.811 235.616 212.844 235.368C212.903 234.885 212.815 234.328 212.643 233.969C212.686 233.998 212.746 234.02 212.824 234.029C212.993 234.048 213.171 234.011 213.177 233.936C213.188 233.864 213.027 233.771 212.859 233.741C212.846 233.74 212.836 233.739 212.824 233.738C212.834 233.721 212.846 233.703 212.854 233.683C212.951 233.427 212.874 233.135 212.649 233.016C212.42 232.896 212.103 233.038 211.983 233.353Z" fill="black"/>
<path d="M216.071 230.778L216.028 230.835C216.021 230.824 216.017 230.816 216.01 230.803C215.911 230.667 215.749 230.57 215.674 230.628C215.6 230.686 215.643 230.873 215.744 231.007C215.792 231.069 215.843 231.107 215.892 231.127C215.461 231.168 214.879 231.569 214.569 232.044C214.415 232.286 214.337 232.485 214.348 232.67C214.35 232.743 214.319 232.817 214.261 232.863C214.106 232.986 213.978 233.171 213.946 233.408C213.886 233.722 214.025 234.023 214.274 234.162C214.727 234.403 215.257 234.184 215.427 233.797C215.474 233.697 215.501 233.593 215.499 233.486C215.499 233.423 215.534 233.366 215.59 233.336C215.719 233.262 215.868 233.147 215.993 232.951C216.241 232.569 216.446 232.001 216.441 231.597C216.468 231.641 216.513 231.685 216.582 231.723C216.73 231.806 216.916 231.837 216.957 231.766C216.999 231.695 216.884 231.546 216.74 231.46C216.728 231.455 216.72 231.451 216.708 231.446L216.757 231.401C216.95 231.18 216.991 230.878 216.805 230.695C216.627 230.519 216.283 230.538 216.071 230.778Z" fill="black"/>
<path d="M219.38 226.966L219.331 227.018C219.326 227.007 219.322 226.998 219.317 226.985C219.232 226.839 219.081 226.727 219.001 226.777C218.92 226.828 218.944 227.019 219.032 227.161C219.073 227.228 219.12 227.271 219.166 227.295C218.733 227.294 218.114 227.636 217.757 228.078C217.579 228.304 217.482 228.495 217.473 228.679C217.468 228.752 217.429 228.822 217.367 228.863C217.2 228.97 217.054 229.141 216.998 229.374C216.907 229.681 217.014 229.994 217.248 230.157C217.674 230.44 218.224 230.275 218.432 229.907C218.489 229.812 218.527 229.711 218.535 229.604C218.542 229.541 218.582 229.488 218.641 229.464C218.777 229.402 218.937 229.303 219.081 229.12C219.367 228.764 219.629 228.22 219.665 227.817C219.687 227.863 219.728 227.911 219.792 227.956C219.931 228.053 220.113 228.101 220.161 228.035C220.21 227.969 220.111 227.81 219.976 227.71C219.965 227.703 219.957 227.698 219.946 227.692L219.999 227.652C220.214 227.451 220.286 227.155 220.119 226.955C219.96 226.762 219.615 226.747 219.38 226.966Z" fill="black"/>
<path d="M202.406 250.714L202.331 250.713C202.336 250.702 202.34 250.693 202.346 250.68C202.399 250.521 202.376 250.335 202.273 250.311C202.179 250.29 202.056 250.441 202.017 250.602C201.998 250.678 202.001 250.741 202.015 250.79C201.714 250.498 201.07 250.317 200.547 250.362C200.282 250.382 200.089 250.459 199.956 250.561C199.901 250.604 199.828 250.621 199.761 250.601C199.583 250.546 199.372 250.558 199.167 250.652C198.887 250.78 198.708 251.069 198.74 251.34C198.821 251.842 199.257 252.15 199.67 252.078C199.777 252.059 199.874 252.013 199.963 251.952C200.014 251.915 200.081 251.911 200.137 251.939C200.277 252.011 200.452 252.039 200.687 252.022C201.148 251.982 201.703 251.775 201.994 251.505C201.978 251.553 201.973 251.616 201.985 251.693C202.011 251.857 202.092 252.017 202.164 252.004C202.228 251.993 202.272 251.813 202.26 251.649C202.258 251.636 202.256 251.627 202.254 251.615C202.273 251.619 202.291 251.624 202.31 251.626C202.382 251.63 202.409 251.627 202.466 251.61C202.536 251.601 202.602 251.58 202.659 251.549C202.775 251.488 202.857 251.387 202.883 251.264C202.91 251.139 202.875 251.016 202.801 250.916C202.764 250.866 202.717 250.822 202.662 250.788C202.592 250.752 202.481 250.718 202.406 250.714Z" fill="black"/>
<path d="M197.338 252.083L197.291 252.142C197.285 252.13 197.28 252.122 197.274 252.11C197.177 251.972 197.012 251.877 196.93 251.942C196.856 252.004 196.905 252.191 197.012 252.32C197.062 252.38 197.114 252.416 197.163 252.434C196.743 252.493 196.207 252.886 195.927 253.322C195.782 253.541 195.728 253.738 195.73 253.904C195.732 253.973 195.701 254.039 195.645 254.08C195.492 254.186 195.374 254.358 195.326 254.575C195.26 254.872 195.387 255.186 195.625 255.325C196.081 255.565 196.595 255.412 196.787 255.046C196.837 254.95 196.858 254.846 196.862 254.741C196.863 254.679 196.9 254.624 196.957 254.597C197.1 254.531 197.23 254.411 197.358 254.217C197.604 253.833 197.773 253.274 197.73 252.884C197.759 252.926 197.807 252.968 197.876 253.005C198.026 253.084 198.205 253.118 198.238 253.053C198.267 252.997 198.149 252.854 198.007 252.763C197.995 252.757 197.987 252.753 197.977 252.747C197.991 252.735 198.006 252.724 198.019 252.71C198.066 252.656 198.08 252.634 198.101 252.579C198.136 252.519 198.158 252.455 198.168 252.391C198.189 252.264 198.157 252.139 198.073 252.043C197.988 251.947 197.867 251.899 197.741 251.897C197.678 251.896 197.614 251.906 197.552 251.928C197.482 251.961 197.387 252.026 197.338 252.083Z" fill="black"/>
<path d="M207.028 250.964C207.007 250.967 206.987 250.973 206.966 250.979C206.969 250.967 206.97 250.957 206.972 250.944C206.98 250.777 206.922 250.601 206.844 250.597C206.766 250.591 206.691 250.753 206.678 250.919C206.672 250.996 206.682 251.058 206.703 251.105C206.383 250.862 205.821 250.704 205.365 250.699C205.132 250.691 204.958 250.738 204.824 250.821C204.769 250.856 204.702 250.853 204.649 250.82C204.505 250.73 204.332 250.689 204.141 250.723C203.883 250.76 203.649 250.944 203.544 251.2C203.346 251.668 203.662 252.183 204.184 252.228C204.312 252.24 204.437 252.222 204.548 252.182C204.613 252.157 204.686 252.172 204.744 252.208C204.885 252.299 205.082 252.356 205.351 252.364C205.883 252.37 206.516 252.132 206.784 251.816C206.774 251.865 206.777 251.928 206.801 252.002C206.853 252.161 206.982 252.308 207.069 252.28C207.157 252.25 207.165 252.063 207.108 251.906C207.103 251.895 207.098 251.887 207.093 251.876L207.161 251.871C207.467 251.822 207.674 251.581 207.622 251.333C207.571 251.085 207.305 250.919 207.028 250.964Z" fill="black"/>
<path d="M191.518 250.8C191.509 250.819 191.505 250.839 191.499 250.859C191.489 250.851 191.481 250.844 191.471 250.835C191.332 250.739 191.15 250.692 191.104 250.754C191.057 250.815 191.155 250.964 191.29 251.065C191.354 251.111 191.412 251.136 191.464 251.144C191.082 251.277 190.643 251.656 190.392 252.03C190.261 252.219 190.207 252.388 190.206 252.544C190.206 252.608 190.168 252.661 190.11 252.688C189.955 252.757 189.827 252.878 189.753 253.054C189.646 253.287 189.676 253.581 189.84 253.805C190.134 254.221 190.746 254.238 191.067 253.832C191.146 253.732 191.198 253.62 191.224 253.506C191.238 253.439 191.29 253.387 191.352 253.358C191.506 253.291 191.662 253.159 191.813 252.941C192.106 252.506 192.244 251.854 192.117 251.461C192.154 251.497 192.21 251.528 192.287 251.548C192.451 251.59 192.646 251.564 192.669 251.476C192.69 251.388 192.535 251.28 192.37 251.243C192.357 251.241 192.348 251.24 192.336 251.239L192.368 251.179C192.492 250.901 192.396 250.6 192.156 250.508C191.916 250.417 191.629 250.547 191.518 250.8Z" fill="black"/>
<path d="M211.277 249.402C211.259 249.414 211.243 249.427 211.227 249.441C211.223 249.429 211.221 249.419 211.217 249.406C211.155 249.252 211.028 249.114 210.954 249.141C210.88 249.168 210.883 249.352 210.941 249.509C210.969 249.582 211.005 249.634 211.043 249.668C210.643 249.567 210.07 249.662 209.652 249.836C209.444 249.938 209.299 250.034 209.212 250.162C209.176 250.213 209.116 250.243 209.054 250.235C208.889 250.218 208.714 250.243 208.553 250.343C208.336 250.482 208.199 250.75 208.204 251.018C208.212 251.534 208.708 251.869 209.211 251.709C209.337 251.675 209.442 251.603 209.527 251.519C209.576 251.469 209.647 251.448 209.717 251.46C209.883 251.487 210.096 251.476 210.338 251.359C210.83 251.154 211.3 250.67 211.416 250.282C211.428 250.332 211.457 250.389 211.51 250.445C211.624 250.568 211.799 250.644 211.866 250.583C211.933 250.521 211.863 250.349 211.745 250.229C211.735 250.22 211.728 250.214 211.719 250.206L211.779 250.175C212.042 250.016 212.126 249.709 211.974 249.5C211.827 249.297 211.517 249.257 211.277 249.402Z" fill="black"/>
<path d="M214.615 246.338C214.603 246.355 214.594 246.374 214.583 246.392C214.576 246.382 214.57 246.374 214.562 246.364C214.446 246.241 214.277 246.159 214.219 246.211C214.164 246.264 214.227 246.429 214.339 246.554C214.391 246.612 214.444 246.648 214.492 246.667C214.288 246.69 214.06 246.777 213.848 246.901C213.626 247.017 213.416 247.165 213.26 247.332C213.096 247.496 213.002 247.647 212.97 247.8C212.956 247.861 212.911 247.912 212.85 247.929C212.691 247.978 212.536 248.067 212.427 248.224C212.278 248.435 212.264 248.74 212.379 248.984C212.598 249.453 213.182 249.558 213.579 249.227C213.679 249.147 213.749 249.044 213.791 248.935C213.817 248.87 213.873 248.824 213.941 248.81C214.105 248.773 214.288 248.681 214.475 248.494C214.654 248.304 214.818 248.062 214.928 247.816C215.03 247.562 215.084 247.308 215.067 247.106C215.096 247.148 215.144 247.189 215.215 247.224C215.367 247.298 215.565 247.313 215.602 247.229C215.642 247.147 215.512 247.011 215.358 246.941C215.345 246.937 215.337 246.934 215.325 246.93L215.369 246.879C215.548 246.632 215.518 246.32 215.302 246.181C215.086 246.043 214.779 246.113 214.615 246.338Z" fill="black"/>
<path d="M216.481 242.276C216.476 242.297 216.475 242.317 216.472 242.337C216.461 242.331 216.453 242.327 216.441 242.32C216.286 242.256 216.096 242.247 216.062 242.317C216.027 242.386 216.16 242.512 216.314 242.582C216.387 242.614 216.45 242.626 216.501 242.624C216.161 242.834 215.815 243.297 215.647 243.711C215.57 243.925 215.547 244.098 215.573 244.248C215.585 244.309 215.563 244.37 215.513 244.408C215.384 244.51 215.283 244.652 215.239 244.834C215.184 245.082 215.285 245.368 215.482 245.553C215.861 245.91 216.451 245.798 216.692 245.338C216.756 245.227 216.774 245.101 216.775 244.984C216.774 244.914 216.809 244.85 216.867 244.81C217.009 244.715 217.141 244.556 217.231 244.306C217.429 243.819 217.422 243.152 217.209 242.795C217.253 242.822 217.314 242.842 217.393 242.845C217.563 242.852 217.743 242.784 217.748 242.693C217.752 242.604 217.579 242.531 217.408 242.529C217.395 242.53 217.385 242.531 217.373 242.532L217.395 242.468C217.458 242.171 217.289 241.896 217.036 241.856C216.779 241.816 216.539 242.005 216.481 242.276Z" fill="black"/>
<path d="M216.555 237.794C216.558 237.816 216.565 237.835 216.571 237.855C216.558 237.854 216.548 237.852 216.535 237.851C216.366 237.846 216.187 237.908 216.182 237.986C216.177 238.064 216.348 238.134 216.518 238.143C216.597 238.146 216.66 238.134 216.706 238.112C216.471 238.434 216.329 239 216.343 239.45C216.359 239.679 216.401 239.848 216.491 239.976C216.527 240.028 216.533 240.094 216.503 240.149C216.428 240.294 216.382 240.465 216.425 240.65C216.485 240.901 216.678 241.121 216.942 241.211C217.431 241.386 217.936 241.05 217.959 240.536C217.967 240.409 217.946 240.288 217.894 240.181C217.865 240.118 217.87 240.046 217.906 239.987C217.993 239.846 218.056 239.65 218.039 239.388C218.023 238.87 217.76 238.264 217.428 238.012C217.479 238.021 217.543 238.016 217.618 237.99C217.778 237.935 217.919 237.807 217.89 237.723C217.86 237.639 217.671 237.634 217.512 237.694C217.5 237.7 217.492 237.704 217.481 237.71L217.477 237.643C217.434 237.382 217.214 237.188 216.955 237.198C216.698 237.207 216.504 237.482 216.555 237.794Z" fill="black"/>
<path d="M217.053 232.936L217.034 233.004C217.024 232.996 217.017 232.99 217.005 232.981C216.862 232.89 216.676 232.859 216.627 232.943C216.579 233.027 216.691 233.185 216.838 233.267C216.908 233.306 216.97 233.321 217.022 233.32C216.655 233.524 216.3 234.118 216.228 234.636C216.188 234.898 216.219 235.098 216.293 235.248C216.323 235.309 216.321 235.382 216.287 235.441C216.197 235.598 216.152 235.794 216.199 236.002C216.254 236.284 216.482 236.508 216.751 236.568C217.26 236.673 217.705 236.315 217.73 235.875C217.738 235.763 217.717 235.655 217.673 235.556C217.647 235.498 217.661 235.433 217.702 235.385C217.801 235.266 217.872 235.104 217.907 234.88C217.969 234.437 217.904 233.888 217.717 233.537C217.759 233.566 217.819 233.588 217.898 233.598C218.066 233.619 218.247 233.589 218.254 233.518C218.262 233.448 218.098 233.354 217.933 233.324C217.92 233.323 217.91 233.322 217.898 233.321C217.907 233.304 217.917 233.286 217.924 233.267C218.022 233.029 217.931 232.747 217.711 232.625C217.481 232.499 217.175 232.638 217.053 232.936Z" fill="black"/>
<path d="M206.226 253.651L206.158 253.655C206.163 253.643 206.166 253.634 206.171 253.621C206.21 253.459 206.182 253.275 206.102 253.257C206.022 253.242 205.913 253.391 205.867 253.548C205.846 253.622 205.844 253.685 205.857 253.735C205.725 253.591 205.533 253.459 205.321 253.356C205.216 253.298 205.107 253.24 204.996 253.195C204.937 253.173 204.882 253.152 204.829 253.132L204.745 253.106C204.679 253.092 204.614 253.077 204.55 253.064C204.487 253.061 204.426 253.059 204.366 253.057C204.11 253.051 203.914 253.093 203.767 253.172C203.706 253.204 203.633 253.206 203.573 253.172C203.413 253.085 203.223 253.044 203.017 253.075C202.738 253.117 202.496 253.301 202.386 253.554C202.171 254.024 202.536 254.538 203.094 254.584C203.231 254.595 203.362 254.578 203.48 254.535C203.549 254.51 203.628 254.52 203.689 254.559C203.837 254.654 204.043 254.715 204.327 254.722C204.38 254.723 204.382 254.723 204.387 254.72L204.389 254.717C204.399 254.718 204.34 254.706 204.381 254.712L204.487 254.722C204.556 254.724 204.627 254.727 204.702 254.73C204.846 254.73 204.988 254.726 205.124 254.704C205.398 254.65 205.64 254.563 205.803 254.449C205.782 254.495 205.773 254.558 205.784 254.636C205.809 254.804 205.919 254.969 206.019 254.952C206.119 254.939 206.164 254.756 206.133 254.593C206.129 254.58 206.126 254.571 206.122 254.56L206.197 254.567C206.535 254.579 206.799 254.37 206.788 254.112C206.777 253.864 206.525 253.662 206.226 253.651Z" fill="black"/>
<path d="M210.983 252.585L210.923 252.621C210.922 252.609 210.92 252.599 210.919 252.585C210.877 252.423 210.766 252.273 210.684 252.296C210.6 252.314 210.572 252.495 210.608 252.658C210.625 252.734 210.654 252.789 210.689 252.828C210.287 252.7 209.658 252.737 209.188 252.874C208.947 252.94 208.784 253.042 208.67 253.16C208.624 253.205 208.555 253.226 208.49 253.209C208.316 253.163 208.129 253.183 207.942 253.264C207.69 253.367 207.5 253.613 207.462 253.887C207.382 254.395 207.859 254.796 208.425 254.697C208.562 254.669 208.688 254.615 208.792 254.542C208.853 254.5 208.933 254.488 209.006 254.51C209.179 254.556 209.401 254.545 209.681 254.467C210.234 254.306 210.806 253.872 210.986 253.481C210.99 253.532 211.012 253.592 211.059 253.654C211.16 253.789 211.334 253.886 211.415 253.834C211.495 253.776 211.448 253.594 211.344 253.463C211.334 253.454 211.328 253.448 211.319 253.439L211.387 253.412C211.683 253.266 211.823 252.967 211.7 252.744C211.577 252.522 211.256 252.451 210.983 252.585Z" fill="black"/>
<path d="M218.613 249.642L218.586 249.704C218.577 249.695 218.57 249.688 218.561 249.678C218.433 249.567 218.254 249.506 218.2 249.571C218.141 249.632 218.223 249.797 218.347 249.911C218.405 249.964 218.462 249.993 218.512 250.005C218.108 250.125 217.613 250.507 217.305 250.882C217.145 251.07 217.071 251.246 217.046 251.406C217.034 251.469 216.989 251.524 216.926 251.547C216.756 251.607 216.614 251.728 216.508 251.898C216.359 252.124 216.346 252.432 216.474 252.679C216.703 253.141 217.328 253.204 217.735 252.807C217.832 252.707 217.904 252.592 217.947 252.475C217.973 252.406 218.032 252.351 218.104 252.328C218.274 252.269 218.449 252.137 218.635 251.916C218.996 251.475 219.214 250.798 219.135 250.377C219.168 250.416 219.221 250.453 219.296 250.478C219.458 250.533 219.657 250.515 219.693 250.426C219.725 250.335 219.582 250.212 219.419 250.162C219.406 250.16 219.397 250.158 219.385 250.156L219.425 250.095C219.584 249.81 219.526 249.485 219.296 249.372C219.065 249.258 218.76 249.378 218.613 249.642Z" fill="black"/>
<path d="M215.049 249.759L215.003 249.811C214.998 249.8 214.993 249.791 214.987 249.779C214.897 249.637 214.743 249.529 214.67 249.575C214.598 249.624 214.629 249.808 214.715 249.95C214.755 250.016 214.802 250.06 214.848 250.085C214.42 250.087 213.829 250.339 213.429 250.642C213.229 250.801 213.101 250.944 213.039 251.099C213.013 251.161 212.958 251.208 212.891 251.22C212.715 251.255 212.536 251.331 212.394 251.484C212.204 251.692 212.13 251.993 212.21 252.252C212.359 252.747 212.957 252.918 213.419 252.614C213.536 252.541 213.627 252.446 213.69 252.338C213.727 252.275 213.794 252.233 213.867 252.225C214.042 252.204 214.251 252.131 214.471 251.956C214.916 251.619 215.295 251.032 215.341 250.612C215.362 250.659 215.402 250.708 215.467 250.753C215.607 250.85 215.8 250.888 215.855 250.811C215.912 250.735 215.81 250.577 215.67 250.483C215.658 250.477 215.649 250.473 215.638 250.467L215.694 250.422C215.929 250.198 215.97 249.873 215.786 249.696C215.601 249.519 215.271 249.548 215.049 249.759Z" fill="black"/>
<path d="M218.031 245.885L218.008 245.948C217.998 245.939 217.991 245.932 217.981 245.923C217.844 245.824 217.661 245.777 217.612 245.843C217.564 245.91 217.661 246.068 217.791 246.171C217.853 246.22 217.912 246.245 217.963 246.253C217.564 246.398 217.107 246.807 216.817 247.201C216.674 247.404 216.608 247.585 216.588 247.744C216.581 247.81 216.541 247.869 216.481 247.898C216.32 247.977 216.18 248.108 216.083 248.29C215.956 248.539 215.977 248.853 216.128 249.079C216.417 249.511 217.033 249.505 217.394 249.09C217.483 248.987 217.539 248.865 217.571 248.746C217.591 248.675 217.644 248.616 217.712 248.589C217.881 248.524 218.047 248.382 218.212 248.149C218.547 247.693 218.718 246.991 218.612 246.579C218.648 246.615 218.703 246.648 218.781 246.668C218.947 246.711 219.144 246.677 219.169 246.582C219.195 246.487 219.042 246.375 218.876 246.339C218.863 246.337 218.853 246.337 218.841 246.335L218.878 246.272C219.024 245.975 218.925 245.651 218.684 245.559C218.444 245.467 218.163 245.618 218.031 245.885Z" fill="black"/>
<path d="M219.144 241.147L219.145 241.216C219.133 241.211 219.124 241.208 219.111 241.202C218.947 241.155 218.76 241.176 218.734 241.26C218.71 241.344 218.859 241.461 219.021 241.51C219.097 241.533 219.161 241.534 219.212 241.523C218.899 241.808 218.64 242.392 218.551 242.878C218.513 243.127 218.525 243.317 218.581 243.47C218.604 243.532 218.595 243.603 218.554 243.655C218.447 243.797 218.367 243.967 218.368 244.172C218.372 244.449 218.505 244.715 218.746 244.862C219.183 245.14 219.763 244.882 219.897 244.343C219.935 244.211 219.938 244.079 219.911 243.956C219.896 243.885 219.917 243.809 219.966 243.755C220.086 243.623 220.182 243.428 220.225 243.152C220.324 242.607 220.195 241.928 219.938 241.588C219.986 241.609 220.049 241.619 220.128 241.609C220.297 241.589 220.466 241.491 220.458 241.399C220.45 241.306 220.267 241.255 220.098 241.278C220.085 241.281 220.076 241.284 220.064 241.287C220.069 241.263 220.073 241.241 220.075 241.217C220.096 240.899 219.904 240.63 219.647 240.617C219.389 240.603 219.164 240.84 219.144 241.147Z" fill="black"/>
<path d="M218.736 236.231C218.739 236.256 218.746 236.278 218.752 236.301C218.739 236.299 218.73 236.297 218.716 236.295C218.546 236.284 218.367 236.346 218.365 236.439C218.362 236.531 218.537 236.616 218.707 236.625C218.786 236.63 218.848 236.616 218.895 236.592C218.662 236.948 218.576 237.612 218.66 238.12C218.702 238.378 218.783 238.56 218.89 238.687C218.935 238.739 218.95 238.809 218.929 238.873C218.872 239.043 218.871 239.235 218.934 239.409C218.981 239.541 219.052 239.598 219.149 239.71C219.243 239.813 219.363 239.89 219.497 239.928C219.748 239.999 219.991 239.94 220.174 239.795C220.266 239.731 220.339 239.618 220.386 239.474C220.43 239.347 220.45 239.2 220.433 239.065C220.419 238.925 220.374 238.8 220.309 238.696C220.27 238.634 220.265 238.556 220.292 238.491C220.357 238.33 220.379 238.122 220.335 237.856C220.249 237.331 219.946 236.744 219.615 236.48C219.666 236.489 219.73 236.483 219.804 236.455C219.963 236.395 220.104 236.267 220.075 236.184C220.045 236.102 219.855 236.094 219.696 236.152C219.684 236.158 219.675 236.161 219.664 236.167L219.66 236.099C219.614 235.796 219.38 235.578 219.122 235.604C218.867 235.628 218.688 235.915 218.736 236.231Z" fill="black"/>
<path d="M197.171 245.931C197.166 245.95 197.163 245.969 197.16 245.989C197.149 245.981 197.141 245.976 197.13 245.968C196.98 245.886 196.802 245.853 196.76 245.907C196.716 245.959 196.829 246.094 196.968 246.189C197.033 246.232 197.093 246.255 197.144 246.262C196.789 246.406 196.332 246.715 196.061 247.058C195.912 247.228 195.832 247.386 195.812 247.54C195.803 247.603 195.763 247.657 195.703 247.677C195.536 247.727 195.388 247.83 195.286 247.997C195.154 248.226 195.133 248.52 195.265 248.762C195.504 249.214 196.111 249.307 196.491 248.934C196.586 248.845 196.656 248.74 196.7 248.63C196.724 248.563 196.779 248.509 196.847 248.488C197.012 248.435 197.194 248.322 197.377 248.11C197.729 247.674 197.958 246.977 197.809 246.555C197.846 246.591 197.903 246.621 197.981 246.636C198.148 246.671 198.346 246.619 198.373 246.519C198.397 246.418 198.228 246.316 198.061 246.298H198.027L198.055 246.23C198.17 245.906 198.009 245.601 197.75 245.562C197.499 245.525 197.258 245.693 197.171 245.931Z" fill="black"/>
<path d="M196.847 241.379L196.857 241.446C196.844 241.443 196.835 241.44 196.821 241.437C196.653 241.413 196.469 241.459 196.458 241.548C196.446 241.638 196.615 241.731 196.783 241.752C196.862 241.762 196.925 241.754 196.974 241.734C196.703 242.036 196.589 242.748 196.701 243.25C196.755 243.508 196.843 243.671 196.957 243.787C197.004 243.834 197.023 243.9 197.004 243.96C196.954 244.122 196.96 244.296 197.03 244.46C197.132 244.684 197.349 244.855 197.629 244.921C197.882 244.977 198.125 244.917 198.291 244.753C198.465 244.587 198.554 244.326 198.513 244.056C198.493 243.922 198.44 243.808 198.372 243.709C198.331 243.651 198.322 243.576 198.345 243.514C198.402 243.36 198.414 243.157 198.365 242.922C198.262 242.455 198.005 241.971 197.7 241.679C197.751 241.69 197.815 241.689 197.891 241.668C198.054 241.623 198.204 241.513 198.183 241.435C198.162 241.357 197.974 241.335 197.81 241.377C197.798 241.381 197.789 241.385 197.777 241.389L197.78 241.325C197.76 241.037 197.548 240.81 197.29 240.816C197.032 240.821 196.826 241.074 196.847 241.379Z" fill="black"/>
<path d="M197.563 236.473L197.541 236.54C197.532 236.532 197.524 236.525 197.514 236.516C197.374 236.42 197.188 236.382 197.136 236.463C197.084 236.543 197.189 236.705 197.332 236.794C197.399 236.837 197.46 236.855 197.512 236.856C197.14 237.046 196.733 237.628 196.641 238.165C196.58 238.435 196.616 238.644 196.678 238.801C196.704 238.865 196.699 238.94 196.665 239C196.572 239.16 196.519 239.363 196.56 239.576C196.614 239.868 196.828 240.1 197.102 240.166C197.607 240.286 198.059 239.924 198.095 239.479C198.106 239.366 198.088 239.257 198.047 239.156C198.022 239.096 198.037 239.031 198.081 238.983C198.191 238.869 198.255 238.704 198.307 238.482C198.382 238.039 198.366 237.479 198.195 237.107C198.235 237.138 198.295 237.164 198.372 237.177C198.54 237.205 198.725 237.178 198.738 237.103C198.751 237.029 198.592 236.928 198.427 236.893C198.414 236.892 198.405 236.89 198.392 236.889C198.402 236.871 198.414 236.854 198.422 236.834C198.526 236.578 198.458 236.29 198.226 236.169C198.003 236.052 197.685 236.179 197.563 236.473Z" fill="black"/>
<path d="M200.827 235.846L200.791 235.907C200.783 235.897 200.778 235.89 200.769 235.878C200.653 235.756 200.479 235.682 200.411 235.75C200.344 235.819 200.412 235.998 200.532 236.114C200.59 236.169 200.646 236.199 200.697 236.211C200.293 236.321 199.772 236.809 199.57 237.316C199.454 237.567 199.446 237.78 199.473 237.946C199.485 238.014 199.465 238.086 199.419 238.138C199.294 238.276 199.199 238.464 199.196 238.681C199.188 238.978 199.348 239.247 199.603 239.368C200.072 239.586 200.59 239.323 200.718 238.895C200.753 238.787 200.758 238.676 200.739 238.569C200.726 238.505 200.755 238.444 200.808 238.407C200.94 238.317 201.037 238.169 201.134 237.963C201.3 237.544 201.402 236.992 201.312 236.594C201.345 236.633 201.398 236.669 201.471 236.698C201.63 236.759 201.816 236.77 201.845 236.699C201.873 236.629 201.739 236.499 201.584 236.431C201.572 236.427 201.563 236.424 201.551 236.421C201.565 236.405 201.579 236.39 201.592 236.373C201.747 236.143 201.741 235.847 201.539 235.682C201.345 235.522 201.007 235.583 200.827 235.846Z" fill="black"/>
<path d="M200.817 232.66C200.798 232.674 200.782 232.691 200.765 232.707C200.761 232.695 200.758 232.686 200.753 232.672C200.683 232.52 200.544 232.394 200.461 232.436C200.378 232.478 200.385 232.669 200.46 232.819C200.495 232.889 200.537 232.936 200.581 232.964C200.154 232.922 199.528 233.202 199.139 233.572C198.945 233.771 198.841 233.958 198.803 234.123C198.786 234.189 198.744 234.255 198.68 234.285C198.51 234.371 198.346 234.512 198.261 234.721C198.145 235.006 198.192 235.313 198.395 235.512C198.767 235.866 199.339 235.796 199.603 235.457C199.675 235.372 199.719 235.273 199.741 235.168C199.754 235.107 199.797 235.057 199.863 235.044C200.018 235.009 200.172 234.922 200.332 234.757C200.669 234.438 200.963 233.922 201.028 233.529C201.046 233.577 201.083 233.628 201.142 233.68C201.27 233.789 201.443 233.855 201.495 233.796C201.548 233.736 201.464 233.568 201.34 233.456C201.329 233.448 201.322 233.443 201.312 233.435L201.367 233.402C201.603 233.242 201.682 232.94 201.542 232.727C201.403 232.514 201.078 232.484 200.817 232.66Z" fill="black"/>
<path d="M205.508 230.79L205.439 230.806C205.441 230.794 205.443 230.784 205.446 230.771C205.46 230.604 205.4 230.427 205.304 230.425C205.209 230.423 205.119 230.594 205.112 230.761C205.108 230.838 205.123 230.9 205.148 230.945C204.793 230.711 204.086 230.666 203.561 230.844C203.294 230.929 203.12 231.052 203.014 231.19C202.97 231.245 202.902 231.279 202.83 231.276C202.638 231.27 202.438 231.34 202.264 231.475C202.03 231.669 201.936 231.974 202.014 232.234C202.17 232.725 202.71 232.918 203.116 232.734C203.221 232.688 203.304 232.612 203.375 232.533C203.417 232.485 203.481 232.464 203.544 232.478C203.698 232.508 203.877 232.494 204.098 232.424C204.529 232.277 205.021 231.969 205.266 231.651C205.259 231.701 205.266 231.763 205.293 231.836C205.353 231.993 205.47 232.133 205.543 232.106C205.616 232.078 205.624 231.892 205.572 231.735C205.567 231.723 205.563 231.715 205.558 231.704L205.622 231.7C205.903 231.676 206.121 231.447 206.11 231.198C206.098 230.942 205.828 230.761 205.508 230.79Z" fill="black"/>
<path d="M200.734 253.02L200.675 253.059C200.673 253.046 200.671 253.037 200.669 253.023C200.622 252.862 200.504 252.717 200.413 252.748C200.322 252.779 200.3 252.97 200.352 253.128C200.377 253.202 200.412 253.255 200.451 253.289C200.036 253.192 199.357 253.392 198.93 253.74C198.71 253.911 198.591 254.086 198.541 254.252C198.52 254.319 198.468 254.374 198.399 254.396C198.217 254.456 198.055 254.59 197.94 254.777C197.79 255.039 197.811 255.357 197.977 255.574C198.298 255.979 198.873 255.974 199.188 255.663C199.269 255.584 199.32 255.483 199.358 255.385C199.38 255.326 199.434 255.284 199.498 255.275C199.652 255.251 199.814 255.176 199.997 255.035C200.348 254.749 200.699 254.292 200.815 253.909C200.826 253.958 200.855 254.015 200.906 254.074C201.017 254.2 201.177 254.291 201.236 254.24C201.295 254.189 201.237 254.012 201.131 253.882C201.122 253.873 201.116 253.867 201.107 253.858L201.165 253.833C201.42 253.713 201.543 253.424 201.443 253.195C201.34 252.959 201.024 252.883 200.734 253.02Z" fill="black"/>
<path d="M210.398 231.116L210.337 231.125C210.34 231.113 210.342 231.104 210.346 231.091C210.371 230.926 210.335 230.746 210.262 230.727C210.189 230.71 210.098 230.866 210.063 231.029C210.047 231.105 210.048 231.167 210.062 231.216C209.778 230.934 209.277 230.686 208.793 230.595C208.548 230.55 208.345 230.567 208.185 230.628C208.121 230.651 208.047 230.645 207.985 230.608C207.824 230.503 207.615 230.452 207.39 230.486C207.084 230.522 206.839 230.747 206.771 231.008C206.652 231.508 207.011 231.943 207.446 231.993C207.558 232.001 207.667 231.994 207.77 231.957C207.83 231.935 207.897 231.951 207.947 231.997C208.064 232.104 208.235 232.187 208.494 232.234C209.002 232.332 209.722 232.214 210.045 231.932C210.027 231.98 210.02 232.042 210.036 232.119C210.067 232.282 210.185 232.44 210.283 232.424C210.382 232.41 210.414 232.224 210.372 232.063C210.368 232.05 210.364 232.041 210.36 232.03C210.384 232.032 210.408 232.033 210.432 232.032C210.763 232.016 210.999 231.782 210.96 231.526C210.922 231.282 210.671 231.102 210.398 231.116Z" fill="black"/>
<path d="M214.59 229.419L214.54 229.461C214.536 229.449 214.533 229.44 214.529 229.427C214.457 229.276 214.321 229.147 214.245 229.179C214.171 229.211 214.182 229.395 214.25 229.548C214.282 229.619 214.321 229.669 214.362 229.7C213.958 229.643 213.369 229.782 212.963 229.989C212.756 230.096 212.627 230.224 212.544 230.347C212.511 230.399 212.452 230.43 212.39 230.425C212.223 230.416 212.055 230.455 211.9 230.554C211.694 230.703 211.559 230.957 211.561 231.23C211.556 231.744 212.077 232.088 212.609 231.897C212.741 231.854 212.844 231.771 212.93 231.683C212.98 231.631 213.054 231.605 213.126 231.613C213.306 231.637 213.512 231.587 213.758 231.46C214.249 231.209 214.693 230.696 214.777 230.288C214.792 230.337 214.825 230.391 214.883 230.444C215.005 230.559 215.187 230.624 215.252 230.56C215.316 230.495 215.235 230.327 215.109 230.214C215.099 230.206 215.091 230.201 215.081 230.194L215.141 230.159C215.4 229.986 215.457 229.659 215.301 229.464C215.138 229.261 214.831 229.259 214.59 229.419Z" fill="black"/>
<path d="M194.532 243.792L194.552 243.856C194.539 243.855 194.529 243.854 194.516 243.853C194.346 243.857 194.172 243.932 194.174 244.02C194.171 244.051 194.199 244.028 194.262 244.034C194.322 244.034 194.403 244.067 194.487 244.07C194.565 244.077 194.629 244.072 194.678 244.056C194.41 244.305 194.164 244.816 194.088 245.26C194.049 245.485 194.067 245.659 194.125 245.801C194.149 245.859 194.141 245.924 194.098 245.969C193.988 246.093 193.918 246.247 193.917 246.428C193.913 246.67 194.05 246.914 194.275 247.079C194.684 247.403 195.286 247.183 195.435 246.659C195.474 246.532 195.473 246.406 195.451 246.289C195.439 246.221 195.46 246.149 195.507 246.099C195.626 245.976 195.717 245.793 195.762 245.531C195.85 245.016 195.716 244.348 195.405 244.013C195.455 244.028 195.52 244.03 195.596 244.007C195.677 243.978 195.761 243.943 195.81 243.866C195.859 243.794 195.877 243.681 195.857 243.631C195.825 243.558 195.636 243.567 195.481 243.635C195.469 243.641 195.461 243.646 195.45 243.652L195.442 243.589C195.383 243.314 195.128 243.129 194.875 243.176C194.622 243.222 194.468 243.498 194.532 243.792Z" fill="black"/>
<path d="M194.205 238.976L194.204 239.044C194.192 239.039 194.183 239.035 194.17 239.029C194.009 238.979 193.819 238.994 193.794 239.081C193.768 239.167 193.916 239.287 194.078 239.333C194.154 239.354 194.218 239.355 194.269 239.343C193.963 239.618 193.733 240.242 193.752 240.76C193.75 241.022 193.828 241.212 193.922 241.349C193.961 241.404 193.973 241.475 193.947 241.539C193.876 241.709 193.876 241.907 193.951 242.104C194.052 242.373 194.303 242.559 194.585 242.579C195.102 242.612 195.489 242.186 195.442 241.741C195.427 241.628 195.39 241.524 195.334 241.432C195.301 241.378 195.301 241.311 195.334 241.256C195.417 241.122 195.446 240.947 195.448 240.716C195.431 240.261 195.261 239.707 194.996 239.399C195.043 239.418 195.107 239.426 195.186 239.418C195.355 239.399 195.524 239.319 195.515 239.242C195.507 239.165 195.324 239.114 195.156 239.128C195.143 239.131 195.134 239.132 195.122 239.135L195.134 239.073C195.157 238.796 194.99 238.542 194.737 238.502C194.481 238.462 194.231 238.673 194.205 238.976Z" fill="black"/>
<path d="M195.744 234.361L195.714 234.422C195.705 234.413 195.699 234.406 195.69 234.395C195.564 234.283 195.386 234.22 195.326 234.29C195.266 234.359 195.35 234.53 195.478 234.638C195.538 234.688 195.597 234.714 195.648 234.724C195.44 234.784 195.231 234.939 195.04 235.139C194.842 235.336 194.68 235.585 194.588 235.832C194.488 236.08 194.464 236.282 194.509 236.447C194.526 236.514 194.509 236.586 194.462 236.637C194.341 236.773 194.241 236.956 194.249 237.172C194.25 237.465 194.417 237.729 194.669 237.842C195.142 238.048 195.663 237.787 195.772 237.365C195.805 237.258 195.81 237.15 195.79 237.045C195.778 236.983 195.803 236.922 195.853 236.884C195.97 236.788 196.083 236.649 196.169 236.438C196.246 236.227 196.299 235.981 196.329 235.742C196.351 235.5 196.334 235.256 196.286 235.069C196.322 235.105 196.376 235.139 196.452 235.163C196.614 235.215 196.799 235.211 196.823 235.138C196.847 235.065 196.702 234.944 196.544 234.888C196.531 234.885 196.522 234.883 196.51 234.88C196.522 234.863 196.536 234.848 196.546 234.829C196.679 234.586 196.648 234.294 196.431 234.15C196.221 234.01 195.892 234.091 195.744 234.361Z" fill="black"/>
<path d="M219.365 230.585L219.358 230.653C219.346 230.646 219.338 230.642 219.326 230.635C219.169 230.569 218.98 230.566 218.946 230.651C218.912 230.736 219.048 230.871 219.205 230.931C219.279 230.96 219.343 230.967 219.395 230.959C219.218 231.082 219.072 231.295 218.957 231.545C218.834 231.795 218.763 232.082 218.757 232.344C218.745 232.611 218.789 232.809 218.886 232.952C218.924 233.01 218.932 233.083 218.904 233.146C218.835 233.314 218.801 233.518 218.879 233.72C218.977 233.997 219.222 234.193 219.497 234.22C220.014 234.265 220.42 233.852 220.383 233.418C220.38 233.306 220.349 233.203 220.295 233.11C220.264 233.055 220.267 232.989 220.302 232.937C220.381 232.809 220.442 232.642 220.453 232.415C220.457 232.191 220.426 231.941 220.375 231.706C220.316 231.47 220.219 231.245 220.112 231.083C220.158 231.106 220.221 231.12 220.3 231.119C220.47 231.116 220.645 231.054 220.643 230.977C220.641 230.9 220.465 230.833 220.296 230.83C220.283 230.831 220.274 230.832 220.262 230.833C220.268 230.813 220.275 230.794 220.279 230.773C220.324 230.501 220.199 230.235 219.946 230.167C219.701 230.102 219.417 230.283 219.365 230.585Z" fill="black"/>
<path d="M199.099 230.803L199.047 230.847C199.043 230.835 199.04 230.826 199.036 230.814C198.964 230.663 198.825 230.536 198.742 230.575C198.66 230.614 198.669 230.801 198.744 230.95C198.779 231.019 198.822 231.067 198.865 231.096C198.455 231.062 197.828 231.31 197.451 231.674C197.252 231.848 197.158 232.036 197.12 232.198C197.106 232.265 197.06 232.323 196.995 232.348C196.822 232.417 196.658 232.542 196.569 232.742C196.442 233.007 196.476 233.315 196.655 233.524C196.992 233.907 197.581 233.894 197.858 233.554C197.936 233.473 197.988 233.377 198.017 233.274C198.034 233.214 198.083 233.169 198.146 233.156C198.301 233.124 198.447 233.031 198.625 232.877C198.955 232.557 199.262 232.063 199.313 231.66C199.331 231.707 199.367 231.759 199.427 231.81C199.555 231.92 199.729 231.989 199.782 231.931C199.835 231.873 199.751 231.707 199.626 231.594C199.615 231.586 199.608 231.581 199.598 231.573L199.653 231.541C199.88 231.374 199.953 231.074 199.813 230.867C199.668 230.653 199.346 230.621 199.099 230.803Z" fill="black"/>
<path d="M203.542 228.698L203.477 228.723C203.478 228.71 203.478 228.7 203.479 228.686C203.469 228.52 203.386 228.353 203.295 228.361C203.204 228.37 203.143 228.55 203.158 228.715C203.165 228.793 203.187 228.852 203.216 228.894C202.843 228.703 202.165 228.721 201.679 228.931C201.43 229.031 201.27 229.158 201.179 229.302C201.141 229.36 201.078 229.397 201.008 229.398C200.822 229.402 200.626 229.464 200.47 229.614C200.255 229.812 200.172 230.11 200.259 230.369C200.426 230.848 200.981 231.049 201.372 230.831C201.474 230.781 201.559 230.71 201.623 230.623C201.661 230.572 201.724 230.547 201.788 230.556C201.941 230.575 202.121 230.552 202.339 230.466C202.76 230.283 203.223 229.925 203.423 229.58C203.423 229.631 203.438 229.692 203.474 229.761C203.552 229.909 203.687 230.033 203.757 229.996C203.827 229.959 203.81 229.774 203.737 229.625C203.73 229.614 203.725 229.606 203.719 229.596L203.781 229.584C204.054 229.512 204.237 229.27 204.183 229.02C204.131 228.775 203.84 228.62 203.542 228.698Z" fill="black"/>
<path d="M208.478 228.419L208.409 228.416C208.414 228.404 208.419 228.396 208.425 228.384C208.483 228.227 208.476 228.041 208.388 228.013C208.3 227.984 208.171 228.124 208.117 228.282C208.092 228.355 208.089 228.419 208.099 228.469C207.832 228.15 207.196 227.91 206.661 227.913C206.391 227.911 206.193 227.981 206.051 228.07C205.994 228.108 205.92 228.118 205.855 228.092C205.681 228.025 205.476 228.025 205.272 228.095C204.992 228.187 204.805 228.454 204.787 228.723C204.762 229.238 205.194 229.597 205.64 229.561C205.753 229.551 205.857 229.508 205.95 229.454C206.005 229.422 206.072 229.424 206.128 229.457C206.262 229.541 206.436 229.576 206.668 229.578C207.125 229.576 207.689 229.42 208.012 229.179C207.991 229.225 207.98 229.287 207.985 229.365C207.997 229.531 208.07 229.699 208.149 229.693C208.227 229.687 208.286 229.511 208.28 229.345C208.278 229.332 208.276 229.323 208.275 229.311C208.295 229.317 208.315 229.323 208.336 229.326C208.615 229.359 208.886 229.21 208.936 228.959C208.985 228.713 208.787 228.458 208.478 228.419Z" fill="black"/>
<path d="M212.874 228.034L212.814 228.063C212.813 228.05 212.813 228.041 212.812 228.027C212.783 227.863 212.684 227.705 212.6 227.719C212.516 227.733 212.479 227.915 212.508 228.079C212.521 228.155 212.548 228.213 212.58 228.253C212.202 228.094 211.57 228.125 211.139 228.263C211.033 228.297 210.944 228.336 210.892 228.373C210.851 228.397 210.866 228.405 210.859 228.426C210.856 228.446 210.809 228.467 210.789 228.491C210.747 228.531 210.689 228.537 210.641 228.511C210.511 228.435 210.369 228.405 210.196 228.436C209.962 228.479 209.715 228.654 209.603 228.905C209.396 229.367 209.67 229.895 210.261 229.943C210.406 229.954 210.548 229.928 210.67 229.876C210.741 229.844 210.825 229.847 210.895 229.876C210.944 229.893 210.972 229.914 211.05 229.919C211.123 229.925 211.225 229.922 211.276 229.919C211.409 229.912 211.53 229.889 211.663 229.847C212.175 229.682 212.663 229.287 212.841 228.92C212.844 228.971 212.863 229.031 212.906 229.097C212.997 229.238 213.15 229.347 213.222 229.302C213.295 229.257 213.26 229.074 213.169 228.934C213.161 228.924 213.155 228.916 213.147 228.907L213.211 228.889C213.488 228.784 213.635 228.508 213.543 228.272C213.451 228.035 213.15 227.929 212.874 228.034Z" fill="black"/>
<path d="M191.543 240.363L191.558 240.435C191.545 240.433 191.536 240.431 191.522 240.428C191.352 240.409 191.171 240.467 191.167 240.566C191.163 240.664 191.336 240.759 191.505 240.771C191.584 240.777 191.647 240.764 191.694 240.74C191.45 241.1 191.417 241.839 191.522 242.308C191.577 242.561 191.665 242.739 191.778 242.862C191.825 242.912 191.844 242.983 191.825 243.048C191.777 243.222 191.784 243.416 191.862 243.605C191.972 243.862 192.212 244.048 192.488 244.092C193.004 244.189 193.428 243.71 193.337 243.169C193.316 243.034 193.266 242.914 193.196 242.812C193.155 242.751 193.146 242.675 193.169 242.607C193.228 242.443 193.24 242.232 193.182 241.963C193.059 241.406 192.737 240.902 192.415 240.636C192.466 240.645 192.53 240.639 192.605 240.612C192.765 240.555 192.91 240.435 192.884 240.357C192.857 240.279 192.667 240.266 192.506 240.317C192.494 240.322 192.485 240.326 192.474 240.331L192.471 240.264C192.43 239.97 192.226 239.736 191.962 239.747C191.711 239.757 191.497 240.035 191.543 240.363Z" fill="black"/>
<path d="M192.321 235.171L192.3 235.241C192.29 235.233 192.282 235.226 192.272 235.217C192.131 235.122 191.945 235.087 191.894 235.172C191.843 235.255 191.95 235.42 192.092 235.51C192.159 235.553 192.221 235.571 192.273 235.571C191.882 235.771 191.48 236.373 191.358 236.932C191.285 237.211 191.316 237.436 191.373 237.603C191.398 237.671 191.392 237.75 191.351 237.813C191.239 237.98 191.205 238.197 191.232 238.427C191.267 238.739 191.501 238.99 191.768 239.06C192.278 239.184 192.714 238.806 192.77 238.343C192.782 238.224 192.759 238.108 192.729 238.002C192.71 237.939 192.726 237.87 192.771 237.82C192.885 237.7 192.951 237.528 193.016 237.291C193.117 236.823 193.106 236.206 192.956 235.821C192.997 235.853 193.055 235.878 193.134 235.89C193.302 235.915 193.488 235.878 193.502 235.796C193.516 235.714 193.356 235.612 193.19 235.582C193.177 235.581 193.167 235.58 193.155 235.58L193.185 235.519C193.3 235.242 193.224 234.936 192.989 234.826C192.759 234.717 192.448 234.866 192.321 235.171Z" fill="black"/>
<path d="M195.258 230.825L195.211 230.881C195.205 230.87 195.2 230.862 195.194 230.849C195.098 230.712 194.936 230.614 194.858 230.67C194.778 230.725 194.822 230.919 194.921 231.054C194.968 231.118 195.018 231.157 195.066 231.176C194.633 231.224 194.04 231.613 193.699 232.059C193.532 232.287 193.454 232.491 193.437 232.664C193.43 232.735 193.39 232.803 193.326 232.841C193.163 232.947 193.027 233.118 192.953 233.332C192.845 233.622 192.938 233.947 193.142 234.13C193.537 234.471 194.103 234.329 194.37 233.927C194.435 233.823 194.472 233.709 194.486 233.595C194.497 233.529 194.543 233.473 194.607 233.446C194.762 233.381 194.911 233.257 195.06 233.053C195.364 232.657 195.606 232.072 195.608 231.655C195.634 231.699 195.679 231.744 195.747 231.783C195.895 231.867 196.078 231.892 196.127 231.822C196.175 231.75 196.063 231.6 195.918 231.513C195.906 231.508 195.897 231.504 195.886 231.498L195.939 231.453C196.154 231.234 196.181 230.91 196 230.729C195.819 230.549 195.487 230.592 195.258 230.825Z" fill="black"/>
<path d="M191.918 245.789L191.93 245.861C191.918 245.858 191.908 245.856 191.894 245.852C191.726 245.831 191.543 245.885 191.534 245.98C191.523 246.075 191.7 246.171 191.868 246.188C191.948 246.197 192.011 246.185 192.058 246.163C191.806 246.512 191.708 247.206 191.821 247.752C191.884 248.027 191.987 248.219 192.108 248.347C192.157 248.399 192.182 248.473 192.169 248.546C192.141 248.735 192.18 248.948 192.294 249.146C192.443 249.417 192.753 249.566 193.027 249.537C193.55 249.474 193.817 248.965 193.689 248.502C193.654 248.385 193.591 248.283 193.514 248.196C193.471 248.144 193.459 248.073 193.48 248.009C193.534 247.852 193.539 247.66 193.483 247.415C193.383 246.93 193.099 246.363 192.783 246.084C192.834 246.095 192.898 246.091 192.973 246.067C193.135 246.015 193.276 245.897 193.255 245.815C193.232 245.732 193.044 245.714 192.881 245.763C192.868 245.768 192.86 245.772 192.848 245.776L192.849 245.708C192.825 245.404 192.597 245.168 192.339 245.182C192.082 245.194 191.893 245.467 191.918 245.789Z" fill="black"/>
<path d="M199.375 227.552L199.312 227.591C199.31 227.579 199.308 227.569 199.306 227.556C199.258 227.396 199.135 227.253 199.039 227.285C198.946 227.318 198.925 227.515 198.979 227.673C199.004 227.748 199.04 227.8 199.08 227.833C198.651 227.754 197.951 227.963 197.507 228.309C197.276 228.478 197.145 228.65 197.084 228.815C197.059 228.882 197.002 228.936 196.932 228.956C196.741 229.008 196.564 229.128 196.435 229.313C196.256 229.562 196.234 229.881 196.374 230.122C196.634 230.565 197.237 230.611 197.613 230.284C197.706 230.199 197.78 230.106 197.829 230C197.858 229.939 197.918 229.896 197.986 229.886C198.151 229.861 198.332 229.782 198.537 229.632C198.932 229.324 199.327 228.846 199.452 228.448C199.464 228.498 199.493 228.554 199.546 228.611C199.661 228.735 199.828 228.815 199.892 228.761C199.956 228.709 199.897 228.533 199.787 228.405C199.777 228.396 199.77 228.39 199.761 228.382L199.824 228.356C200.092 228.215 200.222 227.918 200.115 227.693C200.003 227.459 199.672 227.396 199.375 227.552Z" fill="black"/>
<path d="M204.52 226.18L204.447 226.191C204.451 226.179 204.453 226.169 204.457 226.156C204.482 225.99 204.432 225.811 204.336 225.802C204.239 225.792 204.136 225.957 204.114 226.122C204.104 226.199 204.114 226.261 204.136 226.309C203.787 226.051 203.076 225.94 202.512 226.05C202.226 226.1 202.028 226.212 201.896 226.329C201.842 226.378 201.765 226.402 201.691 226.39C201.495 226.367 201.274 226.407 201.071 226.521C200.796 226.686 200.648 226.983 200.686 227.252C200.767 227.763 201.292 228.013 201.75 227.881C201.867 227.846 201.969 227.786 202.055 227.708C202.107 227.666 202.179 227.654 202.244 227.675C202.402 227.73 202.591 227.727 202.841 227.684C203.327 227.59 203.907 227.323 204.199 227.021C204.186 227.071 204.188 227.134 204.211 227.208C204.26 227.369 204.377 227.517 204.462 227.494C204.546 227.471 204.569 227.286 204.524 227.126C204.518 227.114 204.515 227.105 204.511 227.094L204.58 227.095C204.889 227.069 205.136 226.867 205.129 226.611C205.122 226.362 204.85 226.153 204.52 226.18Z" fill="black"/>
<path d="M200.604 224.346L200.536 224.373C200.536 224.36 200.536 224.35 200.537 224.337C200.523 224.17 200.432 224.006 200.336 224.019C200.24 224.032 200.178 224.215 200.196 224.381C200.204 224.458 200.228 224.517 200.26 224.558C199.86 224.386 199.143 224.438 198.619 224.672C198.353 224.785 198.186 224.939 198.084 225.082C198.043 225.142 197.975 225.183 197.9 225.188C197.704 225.21 197.498 225.298 197.328 225.455C197.098 225.677 197.023 226 197.123 226.253C197.321 226.732 197.891 226.857 198.306 226.625C198.412 226.565 198.497 226.483 198.562 226.388C198.603 226.336 198.67 226.308 198.738 226.314C198.906 226.332 199.089 226.286 199.321 226.188C199.772 225.987 200.274 225.596 200.488 225.237C200.488 225.288 200.504 225.349 200.544 225.417C200.629 225.561 200.778 225.679 200.855 225.638C200.932 225.597 200.911 225.412 200.829 225.266C200.821 225.255 200.815 225.248 200.808 225.238L200.876 225.222C201.171 225.129 201.365 224.876 201.297 224.628C201.232 224.387 200.919 224.246 200.604 224.346Z" fill="black"/>
<path d="M209.741 226.369L209.67 226.371C209.675 226.359 209.679 226.35 209.684 226.337C209.729 226.176 209.703 225.992 209.616 225.97C209.529 225.949 209.411 226.098 209.364 226.258C209.342 226.333 209.342 226.396 209.355 226.446C209.056 226.146 208.431 225.903 207.895 225.862C207.623 225.842 207.416 225.878 207.259 225.954C207.196 225.984 207.118 225.986 207.054 225.952C206.884 225.863 206.674 225.825 206.435 225.869C206.132 225.935 205.892 226.153 205.826 226.42C205.699 226.92 206.122 227.355 206.602 227.371C206.727 227.378 206.848 227.357 206.96 227.315C207.026 227.289 207.101 227.299 207.159 227.339C207.299 227.436 207.494 227.502 207.764 227.523C208.296 227.563 208.965 227.419 209.307 227.159C209.287 227.207 209.278 227.269 209.29 227.346C209.314 227.512 209.416 227.675 209.51 227.664C209.604 227.653 209.652 227.473 209.625 227.308C209.622 227.295 209.619 227.286 209.616 227.274L209.687 227.284C210.013 227.303 210.287 227.106 210.293 226.853C210.3 226.6 210.055 226.387 209.741 226.369Z" fill="black"/>
<path d="M178.946 247.165C178.918 247.26 178.829 247.321 178.73 247.334C177.331 247.495 176.515 247.678 175.892 248.005C175.281 248.299 174.922 248.68 174.927 248.797C174.933 248.915 175.34 249.279 176.144 249.339C176.345 249.362 176.563 249.331 176.803 249.296C177.043 249.264 177.297 249.189 177.556 249.064C177.818 248.951 178.085 248.798 178.335 248.578C178.594 248.379 178.83 248.111 179.037 247.8C179.096 247.713 179.201 247.665 179.306 247.666C179.682 247.662 180.088 247.611 180.244 247.492C180.393 247.36 180.286 247.199 179.738 246.946C179.532 246.37 179.361 246.268 179.254 246.38C179.135 246.484 179.042 246.805 178.946 247.165Z" fill="black"/>
<path d="M182.008 242.544C182.051 242.634 182.039 242.742 181.977 242.819C181.037 243.872 180.617 244.599 180.377 245.236C180.149 245.855 180.162 246.383 180.247 246.465C180.332 246.549 180.877 246.529 181.504 246.023C182.125 245.541 182.749 244.435 182.523 242.962C182.503 242.858 182.537 242.752 182.616 242.685C183.216 242.19 183.643 241.538 182.462 241.868C181.393 241.269 181.706 241.895 182.008 242.544Z" fill="black"/>
<path d="M181.731 236.942C181.813 236.995 181.856 237.094 181.843 237.193C181.639 238.57 181.682 239.437 181.897 240.11C182.077 240.763 182.431 241.168 182.551 241.18C182.67 241.191 183.073 240.845 183.279 240.093C183.462 239.367 183.388 238.149 182.381 237.023C182.311 236.945 182.286 236.836 182.319 236.736C182.526 236.009 182.553 235.203 181.732 236.134C180.53 236.208 181.094 236.569 181.731 236.942Z" fill="black"/>
<path d="M178.096 232.765C178.194 232.747 178.303 232.776 178.356 232.864C179.148 234.013 179.684 234.63 180.262 235.024C180.522 235.232 180.787 235.362 181.001 235.439C181.2 235.525 181.355 235.547 181.409 235.517C181.46 235.489 181.523 235.347 181.544 235.114C181.551 234.889 181.506 234.574 181.362 234.201C181.187 233.853 180.924 233.432 180.461 233.09C180.017 232.736 179.38 232.465 178.634 232.381C178.532 232.363 178.43 232.314 178.383 232.22C178.032 231.525 177.453 230.973 177.533 232.177C176.714 233.077 177.387 232.9 178.096 232.765Z" fill="black"/>
<path d="M172.499 232.126C172.562 232.049 172.665 232.007 172.763 232.034C174.126 232.408 174.994 232.472 175.686 232.393C176.362 232.301 176.826 232.079 176.866 231.949C176.899 231.854 176.638 231.357 175.898 231.052C175.186 230.731 173.921 230.649 172.654 231.489C172.566 231.547 172.455 231.569 172.358 231.529C171.634 231.218 170.829 231.164 171.682 232.034C171.647 233.24 172.044 232.677 172.499 232.126Z" fill="black"/>
<path d="M167.941 235.285C167.933 235.188 167.985 235.094 168.072 235.044C169.298 234.361 169.969 233.881 170.426 233.368C170.864 232.863 171.079 232.409 171.022 232.282C170.998 232.229 170.863 232.159 170.631 232.125C170.399 232.089 170.065 232.087 169.687 232.222C168.936 232.444 167.892 233.244 167.606 234.729C167.587 234.832 167.514 234.919 167.414 234.956C166.695 235.24 166.044 235.728 167.292 235.781C168.101 236.664 168.027 236 167.941 235.285Z" fill="black"/>
<path d="M166.589 240.706C166.523 240.631 166.508 240.523 166.548 240.432C167.135 239.152 167.324 238.304 167.304 237.611C167.302 236.939 167.109 236.458 166.998 236.411C166.888 236.365 166.376 236.569 165.972 237.248C165.588 237.909 165.336 239.1 165.982 240.444C166.029 240.537 166.023 240.649 165.965 240.734C165.74 241.046 165.568 241.393 165.593 241.58C165.611 241.771 165.806 241.78 166.338 241.479C166.93 241.641 167.114 241.564 167.087 241.407C167.053 241.248 166.82 240.984 166.589 240.706Z" fill="black"/>
<path d="M168.53 245.924C168.431 245.904 168.353 245.828 168.329 245.735C168.037 244.385 167.752 243.592 167.367 243.011C166.985 242.449 166.575 242.14 166.439 242.165C166.338 242.182 166.002 242.629 166.046 243.41C166.064 244.166 166.525 245.355 167.883 246.076C167.979 246.123 168.044 246.215 168.051 246.318C168.067 246.704 168.165 247.083 168.306 247.22C168.446 247.362 168.599 247.245 168.818 246.679C169.379 246.438 169.469 246.261 169.352 246.159C169.23 246.057 168.882 246.006 168.53 245.924Z" fill="black"/>
<path d="M173.479 248.467C173.394 248.516 173.285 248.511 173.201 248.456C172.023 247.683 171.277 247.319 170.599 247.165C169.944 247.009 169.43 247.038 169.346 247.138C169.277 247.219 169.319 247.777 169.901 248.336C170.454 248.881 171.648 249.418 173.123 249.006C173.225 248.977 173.336 249.004 173.414 249.077C173.994 249.567 174.719 249.946 174.221 248.815C174.674 247.722 174.096 248.059 173.479 248.467Z" fill="black"/>
<path d="M178.948 252.537C178.896 252.62 178.801 252.663 178.705 252.651C178.028 252.567 177.466 252.5 177.008 252.571C176.538 252.584 176.157 252.687 175.845 252.825C175.221 253.063 174.871 253.434 174.874 253.561C174.877 253.671 175.256 254.041 175.986 254.175C176.348 254.222 176.798 254.212 177.304 254.092C177.796 253.916 178.361 253.677 178.878 253.179C178.951 253.11 179.056 253.085 179.151 253.117C179.5 253.233 179.874 253.324 180.043 253.264C180.211 253.195 180.167 253.006 179.745 252.587C179.731 251.98 179.611 251.826 179.472 251.897C179.327 251.962 179.136 252.233 178.948 252.537Z" fill="black"/>
<path d="M183.6 249.706C183.588 249.799 183.519 249.877 183.425 249.904C183.091 250.001 182.808 250.112 182.555 250.224C182.288 250.318 182.059 250.425 181.861 250.54C181.475 250.788 181.15 250.994 180.928 251.246C180.706 251.498 180.551 251.734 180.45 251.916C180.355 252.104 180.326 252.253 180.353 252.308C180.378 252.36 180.513 252.432 180.735 252.475C180.962 252.524 181.27 252.526 181.623 252.419C181.975 252.314 182.409 252.158 182.789 251.793C182.985 251.619 183.18 251.414 183.365 251.177C183.534 250.923 183.686 250.627 183.818 250.303C183.855 250.212 183.941 250.148 184.044 250.137C184.776 250.035 185.481 249.759 184.316 249.386C183.738 248.337 183.654 249 183.6 249.706Z" fill="black"/>
<path d="M186.472 245.125C186.507 245.215 186.484 245.317 186.417 245.384C185.895 245.84 185.557 246.259 185.291 246.635C185.011 247.001 184.889 247.374 184.778 247.68C184.569 248.294 184.659 248.812 184.756 248.888C184.847 248.96 185.356 248.896 185.935 248.423C186.228 248.19 186.47 247.817 186.691 247.352C186.895 246.88 186.991 246.268 186.947 245.577C186.935 245.477 186.978 245.381 187.062 245.326C187.677 244.927 188.233 244.404 186.997 244.539C186.043 243.831 186.213 244.462 186.472 245.125Z" fill="black"/>
<path d="M187.279 239.765C187.344 239.838 187.359 239.941 187.32 240.027C187.018 240.641 186.823 241.158 186.757 241.615C186.644 242.065 186.643 242.455 186.696 242.787C186.767 243.441 187.036 243.87 187.162 243.901C187.27 243.928 187.737 243.668 188.059 243.011C188.202 242.682 188.312 242.256 188.329 241.749C188.301 241.24 188.197 240.648 187.885 240.02C187.838 239.932 187.844 239.827 187.903 239.748C188.335 239.162 188.668 238.491 187.559 239.034C186.411 238.691 186.798 239.233 187.279 239.765Z" fill="black"/>
<path d="M186.142 234.47C186.229 234.514 186.281 234.605 186.276 234.698C186.225 235.374 186.228 235.92 186.316 236.369C186.37 236.827 186.506 237.192 186.673 237.486C186.951 238.081 187.371 238.392 187.495 238.379C187.61 238.367 187.941 237.969 188.034 237.242C188.051 236.885 188.003 236.447 187.84 235.963C187.641 235.49 187.328 234.965 186.801 234.49C186.724 234.424 186.69 234.324 186.716 234.228C186.809 233.879 186.867 233.51 186.799 233.346C186.722 233.184 186.535 233.24 186.132 233.687C185.523 233.741 185.374 233.869 185.452 234.003C185.521 234.144 185.819 234.308 186.142 234.47Z" fill="black"/>
<path d="M182.933 230.115C183.029 230.119 183.113 230.182 183.148 230.271C183.657 231.511 184.151 232.207 184.687 232.622C185.222 233.024 185.684 233.179 185.807 233.112C185.895 233.065 186.09 232.542 185.831 231.86C185.692 231.529 185.513 231.106 185.114 230.762C184.922 230.583 184.699 230.408 184.444 230.245C184.186 230.085 183.863 229.967 183.527 229.859C183.431 229.83 183.36 229.751 183.342 229.651C183.196 228.931 182.857 228.272 182.561 229.433C181.531 230.077 182.222 230.1 182.933 230.115Z" fill="black"/>
<path d="M178.079 227.625C178.169 227.584 178.274 227.598 178.346 227.658C179.348 228.598 180.133 228.949 180.794 229.102C181.434 229.261 181.961 229.128 182.025 229.038C182.098 228.934 181.991 228.449 181.468 227.917C180.953 227.403 179.92 226.927 178.503 227.125C178.403 227.145 178.301 227.11 178.24 227.033C177.786 226.465 177.211 225.964 177.443 227.16C176.796 228.15 177.424 227.933 178.079 227.625Z" fill="black"/>
<path d="M172.578 227.268C172.645 227.197 172.748 227.172 172.839 227.203C173.489 227.454 174.026 227.579 174.493 227.625C174.959 227.696 175.355 227.664 175.688 227.584C176.345 227.476 176.762 227.165 176.783 227.043C176.803 226.931 176.501 226.51 175.809 226.232C175.463 226.121 175.022 226.05 174.504 226.076C173.988 226.127 173.391 226.301 172.781 226.65C172.695 226.705 172.588 226.71 172.501 226.66C171.864 226.296 171.141 226.038 171.81 227.066C171.585 228.219 172.087 227.79 172.578 227.268Z" fill="black"/>
<path d="M167.396 229.032C167.428 228.942 167.513 228.88 167.609 228.872C168.281 228.793 168.847 228.754 169.277 228.592C169.723 228.467 170.079 228.31 170.352 228.109C170.909 227.75 171.183 227.327 171.154 227.201C171.131 227.096 170.686 226.796 169.939 226.814C169.574 226.844 169.126 226.927 168.661 227.166C168.214 227.44 167.705 227.783 167.32 228.395C167.264 228.478 167.166 228.524 167.065 228.512C166.303 228.41 165.583 228.563 166.616 229.17C166.947 230.339 167.153 229.669 167.396 229.032Z" fill="black"/>
<path d="M163.548 232.848C163.533 232.752 163.572 232.653 163.662 232.609C164.281 232.279 164.68 231.931 165.041 231.637C165.211 231.482 165.35 231.325 165.465 231.168C165.586 231.017 165.696 230.879 165.778 230.735C165.947 230.454 166.032 230.177 166.075 229.967C166.126 229.765 166.12 229.615 166.082 229.567C166.045 229.522 165.896 229.481 165.666 229.488C165.444 229.503 165.154 229.584 164.823 229.754C164.66 229.842 164.48 229.946 164.313 230.092C164.153 230.243 163.992 230.423 163.839 230.633C163.513 231.037 163.304 231.63 163.185 232.309C163.166 232.403 163.109 232.493 163.015 232.528C162.336 232.798 161.687 233.204 162.92 233.318C163.712 234.204 163.669 233.553 163.548 232.848Z" fill="black"/>
<path d="M161.73 237.942C161.678 237.86 161.681 237.756 161.735 237.677C162.132 237.123 162.423 236.653 162.573 236.22C162.768 235.801 162.841 235.42 162.851 235.085C162.924 234.439 162.731 233.958 162.618 233.905C162.514 233.856 162.021 234.025 161.558 234.606C161.355 234.904 161.166 235.305 161.052 235.804C160.984 236.311 160.972 236.916 161.177 237.589C161.208 237.684 161.183 237.787 161.111 237.855C160.582 238.361 160.135 238.97 161.324 238.616C162.395 239.14 162.109 238.545 161.73 237.942Z" fill="black"/>
<path d="M161.885 243.367C161.807 243.306 161.774 243.208 161.797 243.116C161.999 242.46 162.079 241.922 162.085 241.461C162.116 240.997 162.049 240.611 161.938 240.291C161.76 239.655 161.409 239.28 161.282 239.273C161.168 239.265 160.764 239.603 160.556 240.3C160.473 240.647 160.44 241.084 160.512 241.586C160.609 242.084 160.836 242.651 161.241 243.219C161.303 243.298 161.317 243.403 161.273 243.491C160.955 244.143 160.751 244.869 161.742 244.134C162.932 244.264 162.455 243.805 161.885 243.367Z" fill="black"/>
<path d="M164.057 248.318C163.963 248.292 163.894 248.214 163.88 248.12C163.816 247.781 163.76 247.486 163.71 247.22C163.65 246.949 163.572 246.713 163.48 246.505C163.328 246.072 163.135 245.738 162.912 245.484C162.51 244.962 162.053 244.728 161.929 244.766C161.822 244.797 161.558 245.254 161.626 245.983C161.682 246.338 161.805 246.767 162.074 247.207C162.223 247.42 162.404 247.637 162.62 247.849C162.827 248.066 163.093 248.265 163.413 248.435C163.501 248.484 163.555 248.576 163.55 248.676C163.498 249.425 163.69 250.127 164.245 249.074C165.41 248.678 164.725 248.513 164.057 248.318Z" fill="black"/>
<path d="M168.18 251.845C168.081 251.87 167.984 251.83 167.932 251.746C167.551 251.169 167.179 250.792 166.854 250.461C166.686 250.304 166.516 250.18 166.35 250.078C166.196 249.96 166.042 249.868 165.892 249.796C165.283 249.52 164.778 249.49 164.686 249.571C164.599 249.648 164.546 250.18 164.954 250.793C165.053 250.948 165.176 251.111 165.327 251.274C165.492 251.421 165.686 251.566 165.91 251.701C166.344 251.993 166.956 252.167 167.659 252.232C167.756 252.244 167.846 252.304 167.891 252.388C168.212 253.033 168.673 253.64 168.702 252.425C169.548 251.588 168.89 251.677 168.18 251.845Z" fill="black"/>
<path d="M173.486 253.237C173.407 253.295 173.301 253.3 173.217 253.254C172.622 252.91 172.122 252.668 171.672 252.552C171.232 252.395 170.841 252.353 170.5 252.369C169.842 252.34 169.365 252.569 169.319 252.682C169.276 252.789 169.484 253.254 170.109 253.67C170.428 253.845 170.851 253.999 171.368 254.072C171.89 254.102 172.508 254.061 173.174 253.807C173.267 253.769 173.374 253.784 173.45 253.849C174.008 254.323 174.668 254.709 174.204 253.576C174.642 252.485 174.066 252.814 173.486 253.237Z" fill="black"/>
<path d="M177.394 250.635C177.337 250.715 177.236 250.755 177.14 250.739C176.446 250.584 175.901 250.542 175.423 250.514C174.951 250.52 174.556 250.558 174.222 250.644C173.561 250.84 173.15 251.111 173.135 251.25C173.128 251.307 173.206 251.437 173.38 251.587C173.551 251.743 173.82 251.909 174.19 252C174.558 252.105 175.026 252.166 175.565 252.057C176.102 251.983 176.705 251.713 177.281 251.276C177.361 251.209 177.47 251.188 177.566 251.224C178.287 251.508 179.061 251.557 178.204 250.704C178.205 249.498 177.816 250.069 177.394 250.635Z" fill="black"/>
<path d="M182.095 247.689C182.091 247.786 182.022 247.867 181.93 247.903C180.639 248.42 179.909 248.868 179.445 249.376C178.978 249.849 178.798 250.344 178.843 250.446C178.894 250.561 179.39 250.741 180.148 250.544C180.523 250.447 180.938 250.216 181.351 249.864C181.545 249.672 181.737 249.448 181.917 249.192C182.095 248.935 182.226 248.61 182.348 248.276C182.381 248.18 182.467 248.11 182.569 248.089C183.292 247.91 184.015 247.577 182.799 247.301C182.155 246.305 182.095 246.959 182.095 247.689Z" fill="black"/>
<path d="M184.563 242.721C184.607 242.81 184.599 242.917 184.535 242.992C184.057 243.52 183.775 243.99 183.534 244.4C183.328 244.822 183.184 245.186 183.12 245.519C183.002 246.185 183.075 246.668 183.192 246.744C183.275 246.8 183.842 246.714 184.345 246.147C184.872 245.607 185.334 244.545 185.085 243.126C185.065 243.027 185.094 242.922 185.172 242.857C185.737 242.374 186.229 241.774 185.017 242.058C183.988 241.447 184.229 242.073 184.563 242.721Z" fill="black"/>
<path d="M184.63 237.174C184.708 237.235 184.754 237.333 184.72 237.429C184.62 237.768 184.552 238.07 184.513 238.347C184.468 238.624 184.419 238.88 184.413 239.114C184.412 239.581 184.417 239.976 184.513 240.306C184.686 240.964 184.977 241.371 185.113 241.387C185.216 241.401 185.676 241.083 185.895 240.366C186.121 239.669 186.135 238.509 185.275 237.321C185.223 237.237 185.197 237.131 185.24 237.039C185.539 236.359 185.699 235.595 184.746 236.384C183.547 236.294 184.048 236.734 184.63 237.174Z" fill="black"/>
<path d="M181.965 232.357C182.063 232.369 182.145 232.438 182.175 232.53C182.579 233.842 183.022 234.564 183.476 235.075C183.951 235.557 184.394 235.789 184.521 235.744C184.621 235.709 184.888 235.217 184.716 234.476C184.592 233.739 183.96 232.708 182.586 232.148C182.489 232.11 182.419 232.024 182.406 231.922C182.303 231.173 181.971 230.481 181.627 231.636C180.556 232.219 181.252 232.278 181.965 232.357Z" fill="black"/>
<path d="M177.058 229.716C177.15 229.671 177.258 229.683 177.331 229.753C178.398 230.651 179.161 231.062 179.843 231.212C180.492 231.385 181.012 231.31 181.091 231.208C181.159 231.123 181.085 230.595 180.545 230.043C180.008 229.525 178.944 228.969 177.477 229.217C177.377 229.227 177.271 229.195 177.205 229.12C176.718 228.564 176.101 228.077 176.387 229.268C175.762 230.276 176.395 230.041 177.058 229.716Z" fill="black"/>
<path d="M171.445 229.778C171.502 229.697 171.603 229.657 171.699 229.672C172.393 229.827 172.937 229.871 173.414 229.899C173.885 229.89 174.281 229.863 174.613 229.771C175.274 229.587 175.688 229.307 175.704 229.171C175.718 229.073 175.393 228.614 174.652 228.415C173.934 228.191 172.726 228.235 171.557 229.135C171.478 229.203 171.369 229.224 171.272 229.189C170.551 228.907 169.776 228.856 170.635 229.708C170.637 230.915 171.025 230.345 171.445 229.778Z" fill="black"/>
<path d="M166.752 232.735C166.756 232.638 166.824 232.556 166.917 232.521C168.207 232.001 168.935 231.55 169.398 231.041C169.635 230.807 169.792 230.563 169.887 230.362C169.986 230.169 170.024 230.027 169.997 229.97C169.946 229.855 169.448 229.673 168.692 229.875C168.316 229.972 167.904 230.206 167.49 230.558C167.297 230.75 167.106 230.975 166.927 231.232C166.75 231.489 166.62 231.814 166.498 232.148C166.465 232.244 166.379 232.315 166.278 232.336C165.555 232.516 164.833 232.849 166.049 233.124C166.694 234.119 166.754 233.464 166.752 232.735Z" fill="black"/>
<path d="M164.288 237.706C164.244 237.617 164.252 237.51 164.316 237.435C164.794 236.906 165.076 236.436 165.316 236.027C165.523 235.604 165.666 235.24 165.73 234.907C165.848 234.241 165.774 233.758 165.657 233.682C165.574 233.626 165.007 233.712 164.504 234.28C163.979 234.82 163.516 235.882 163.767 237.301C163.786 237.4 163.757 237.505 163.679 237.57C163.114 238.052 162.621 238.653 163.834 238.369C164.863 238.979 164.622 238.353 164.288 237.706Z" fill="black"/>
<path d="M164.219 243.254C164.141 243.193 164.096 243.094 164.129 242.998C164.231 242.659 164.299 242.357 164.337 242.08C164.382 241.803 164.432 241.547 164.437 241.313C164.439 240.846 164.434 240.451 164.338 240.121C164.165 239.463 163.874 239.056 163.738 239.04C163.635 239.026 163.175 239.343 162.956 240.06C162.73 240.758 162.716 241.917 163.574 243.106C163.627 243.19 163.652 243.296 163.609 243.388C163.309 244.067 163.148 244.83 164.102 244.043C165.302 244.135 164.801 243.694 164.219 243.254Z" fill="black"/>
<path d="M166.873 248.078C166.775 248.066 166.694 247.996 166.664 247.904C166.263 246.591 165.824 245.867 165.369 245.355C164.896 244.871 164.453 244.639 164.326 244.684C164.226 244.718 163.959 245.21 164.128 245.951C164.25 246.687 164.878 247.721 166.252 248.284C166.349 248.322 166.418 248.409 166.43 248.511C166.533 249.259 166.862 249.954 167.21 248.798C168.281 248.22 167.587 248.156 166.873 248.078Z" fill="black"/>
<path d="M171.778 250.712C171.688 250.754 171.578 250.749 171.503 250.682C170.438 249.777 169.67 249.381 168.993 249.225C168.342 249.055 167.824 249.124 167.745 249.227C167.678 249.311 167.748 249.844 168.29 250.393C168.824 250.919 169.897 251.46 171.36 251.218C171.461 251.205 171.568 251.23 171.634 251.309C172.124 251.866 172.745 252.354 172.45 251.161C173.066 250.152 172.438 250.387 171.778 250.712Z" fill="black"/>
<path d="M139.681 228.639C139.958 227.179 138.518 225.609 136.921 226.32C136.87 226.334 136.804 226.395 136.867 226.443C138.091 227.174 138.632 228.871 138.091 230.29C138.081 230.33 138.095 230.348 138.116 230.356C138.124 230.378 138.141 230.392 138.174 230.382C139.455 229.783 140.988 230.38 141.648 231.736C141.695 231.808 141.744 231.732 141.76 231.677C142.396 229.911 140.997 228.332 139.681 228.639Z" fill="black"/>
<path d="M145.886 220.341C146.164 218.881 144.723 217.311 143.126 218.022C143.075 218.036 143.01 218.097 143.073 218.145C144.297 218.876 144.837 220.573 144.297 221.992C144.287 222.032 144.3 222.05 144.321 222.059C144.33 222.08 144.347 222.094 144.379 222.084C145.661 221.485 147.193 222.082 147.854 223.439C147.901 223.51 147.95 223.434 147.965 223.379C148.601 221.613 147.203 220.034 145.886 220.341Z" fill="black"/>
<path d="M158.035 218.496C158.312 217.036 156.871 215.466 155.274 216.176C155.223 216.191 155.158 216.252 155.221 216.3C156.445 217.031 156.985 218.728 156.445 220.147C156.435 220.187 156.449 220.205 156.47 220.213C156.478 220.235 156.495 220.249 156.527 220.239C157.809 219.64 159.342 220.237 160.002 221.593C160.049 221.665 160.098 221.589 160.114 221.534C160.75 219.768 159.351 218.189 158.035 218.496Z" fill="black"/>
<path d="M133.947 235.215C134.224 233.754 132.784 232.185 131.187 232.895C131.136 232.91 131.07 232.97 131.133 233.019C132.357 233.75 132.898 235.447 132.357 236.866C132.348 236.905 132.361 236.924 132.382 236.932C132.391 236.954 132.407 236.968 132.44 236.958C133.721 236.359 135.254 236.956 135.914 238.312C135.962 238.383 136.01 238.307 136.026 238.253C136.662 236.487 135.263 234.908 133.947 235.215Z" fill="black"/>
<path d="M127.839 245.998C128.117 244.538 126.676 242.968 125.079 243.679C125.028 243.693 124.963 243.754 125.026 243.802C126.25 244.533 126.79 246.23 126.25 247.65C126.24 247.689 126.254 247.707 126.274 247.716C126.283 247.738 126.3 247.752 126.332 247.741C127.614 247.143 129.147 247.739 129.807 249.096C129.854 249.167 129.903 249.091 129.919 249.036C130.554 247.27 129.156 245.691 127.839 245.998Z" fill="black"/>
<path d="M147.507 259.314C147.784 257.854 146.344 256.284 144.746 256.995C144.696 257.009 144.63 257.07 144.693 257.118C145.917 257.849 146.458 259.546 145.917 260.966C145.907 261.005 145.921 261.023 145.942 261.032C145.95 261.054 145.967 261.068 146 261.057C147.281 260.459 148.814 261.055 149.474 262.412C149.521 262.483 149.57 262.407 149.586 262.352C150.222 260.586 148.823 259.007 147.507 259.314Z" fill="black"/>
<path d="M144.758 228.639C145.035 227.179 143.595 225.609 141.997 226.32C141.947 226.334 141.881 226.395 141.944 226.443C143.168 227.174 143.709 228.871 143.168 230.29C143.158 230.33 143.172 230.348 143.193 230.356C143.201 230.378 143.218 230.392 143.251 230.382C144.532 229.783 146.065 230.38 146.725 231.736C146.772 231.808 146.821 231.732 146.837 231.677C147.473 229.911 146.074 228.332 144.758 228.639Z" fill="black"/>
<path d="M149.835 228.639C150.112 227.179 148.672 225.609 147.074 226.32C147.023 226.334 146.958 226.395 147.021 226.443C148.245 227.174 148.786 228.871 148.245 230.29C148.235 230.33 148.249 230.348 148.27 230.356C148.279 230.378 148.295 230.392 148.327 230.382C149.609 229.783 151.142 230.38 151.802 231.736C151.85 231.808 151.898 231.732 151.914 231.677C152.55 229.911 151.151 228.332 149.835 228.639Z" fill="black"/>
<path d="M154.912 228.639C155.189 227.179 153.749 225.609 152.151 226.32C152.1 226.334 152.035 226.395 152.098 226.443C153.322 227.174 153.863 228.871 153.322 230.29C153.312 230.33 153.326 230.348 153.347 230.356C153.355 230.378 153.372 230.392 153.404 230.382C154.686 229.783 156.219 230.38 156.879 231.736C156.926 231.808 156.975 231.732 156.991 231.677C157.627 229.911 156.228 228.332 154.912 228.639Z" fill="black"/>
<path d="M139.58 251.542C139.868 250.082 138.371 248.512 136.711 249.222C136.658 249.237 136.59 249.297 136.655 249.346C137.927 250.077 138.489 251.774 137.927 253.193C137.918 253.232 137.931 253.251 137.954 253.259C137.962 253.281 137.98 253.295 138.013 253.285C139.345 252.686 140.938 253.283 141.624 254.639C141.673 254.711 141.724 254.635 141.74 254.58C142.401 252.814 140.948 251.235 139.58 251.542Z" fill="black"/>
<path d="M144.856 251.542C145.144 250.082 143.647 248.512 141.987 249.222C141.934 249.237 141.867 249.297 141.931 249.346C143.204 250.077 143.766 251.774 143.204 253.193C143.194 253.232 143.208 253.251 143.23 253.259C143.239 253.281 143.256 253.295 143.289 253.285C144.621 252.686 146.214 253.283 146.9 254.639C146.95 254.711 147 254.635 147.016 254.58C147.678 252.814 146.224 251.235 144.856 251.542Z" fill="black"/>
<path d="M150.132 251.542C150.421 250.082 148.923 248.512 147.264 249.222C147.211 249.237 147.143 249.297 147.207 249.346C148.48 250.077 149.042 251.774 148.48 253.193C148.47 253.232 148.484 253.251 148.506 253.259C148.515 253.281 148.532 253.295 148.565 253.285C149.897 252.686 151.491 253.283 152.177 254.639C152.226 254.711 152.276 254.635 152.293 254.58C152.954 252.814 151.501 251.235 150.132 251.542Z" fill="black"/>
<path d="M155.409 251.542C155.697 250.082 154.2 248.512 152.54 249.222C152.486 249.237 152.419 249.297 152.484 249.346C153.756 250.077 154.318 251.774 153.756 253.193C153.746 253.232 153.76 253.251 153.782 253.259C153.791 253.281 153.809 253.295 153.842 253.285C155.174 252.686 156.767 253.283 157.453 254.639C157.502 254.711 157.553 254.635 157.569 254.58C158.23 252.814 156.777 251.235 155.409 251.542Z" fill="black"/>
<path d="M141.337 246.021C141.695 244.65 140.244 243.225 138.526 243.932C138.472 243.947 138.401 244.005 138.464 244.049C139.724 244.697 140.219 246.266 139.584 247.606C139.573 247.642 139.586 247.66 139.608 247.667C139.616 247.686 139.633 247.7 139.668 247.689C141.047 247.095 142.639 247.609 143.275 248.857C143.322 248.922 143.377 248.85 143.396 248.798C144.146 247.132 142.741 245.698 141.337 246.021Z" fill="black"/>
<path d="M144.429 243.113C144.787 241.742 143.336 240.317 141.618 241.024C141.564 241.039 141.493 241.098 141.556 241.141C142.816 241.79 143.311 243.358 142.677 244.698C142.665 244.735 142.678 244.752 142.7 244.759C142.708 244.779 142.725 244.792 142.759 244.781C144.139 244.187 145.731 244.701 146.367 245.949C146.414 246.014 146.469 245.942 146.488 245.891C147.238 244.225 145.833 242.79 144.429 243.113Z" fill="black"/>
<path d="M147.521 240.205C147.879 238.835 146.428 237.409 144.71 238.117C144.656 238.132 144.584 238.19 144.648 238.234C145.908 238.882 146.403 240.451 145.768 241.79C145.757 241.827 145.77 241.844 145.792 241.851C145.8 241.871 145.817 241.884 145.851 241.874C147.231 241.279 148.823 241.794 149.459 243.041C149.506 243.107 149.561 243.035 149.579 242.983C150.33 241.317 148.925 239.882 147.521 240.205Z" fill="black"/>
<path d="M150.613 237.297C150.971 235.926 149.52 234.501 147.802 235.208C147.748 235.223 147.676 235.282 147.74 235.325C149 235.974 149.494 237.542 148.86 238.882C148.849 238.919 148.862 238.936 148.884 238.943C148.892 238.963 148.909 238.976 148.943 238.965C150.323 238.371 151.915 238.886 152.551 240.133C152.597 240.199 152.653 240.126 152.671 240.075C153.422 238.409 152.016 236.974 150.613 237.297Z" fill="black"/>
<path d="M153.705 234.39C154.063 233.019 152.612 231.594 150.894 232.301C150.84 232.316 150.768 232.374 150.832 232.418C152.091 233.067 152.586 234.635 151.952 235.975C151.94 236.011 151.954 236.029 151.976 236.036C151.984 236.055 152.001 236.069 152.035 236.058C153.414 235.464 155.006 235.979 155.643 237.226C155.69 237.291 155.745 237.219 155.763 237.167C156.514 235.501 155.108 234.067 153.705 234.39Z" fill="black"/>
<path d="M127.879 258.966H138.09C142.731 258.966 145.902 262.04 145.902 265.912C145.902 268.417 144.549 270.542 142.576 271.529V271.756C144.896 272.933 146.405 275.476 146.405 278.171C146.405 282.345 142.808 285.534 138.012 285.534H127.879V258.966ZM137.78 270.276C140.217 270.276 141.996 268.606 141.996 266.291C141.996 263.976 140.217 262.344 137.78 262.344H131.708V270.276H137.78ZM138.128 282.155C140.488 282.155 142.499 280.22 142.499 277.905C142.499 275.59 140.488 273.616 138.128 273.616H131.708V282.155H138.128Z" fill="black"/>
<path d="M152.088 258.966H162.299C166.94 258.966 170.306 262.268 170.306 266.671C170.306 270.2 168.178 272.857 164.697 273.882L171.272 285.534H166.979L160.829 274.565H155.917V285.534H152.088V258.966ZM161.912 271.187C164.426 271.187 166.399 269.213 166.399 266.746C166.399 264.317 164.426 262.344 161.912 262.344H155.917V271.187H161.912Z" fill="black"/>
<path d="M176.723 258.966H180.629L194.244 279.005H194.476V258.966H198.189V285.534H194.282L180.629 265.494H180.397V285.534H176.723V258.966Z" fill="black"/>
<path d="M204.335 272.25C204.335 264.279 210.136 258.548 218.143 258.548C226.149 258.548 231.951 264.279 231.951 272.25C231.951 280.22 226.149 285.951 218.143 285.951C210.136 285.951 204.335 280.22 204.335 272.25ZM218.143 282.497C223.944 282.497 228.044 278.284 228.044 272.25C228.044 266.215 223.944 262.002 218.143 262.002C212.302 262.002 208.242 266.215 208.242 272.25C208.242 278.284 212.302 282.497 218.143 282.497Z" fill="black"/>
<path d="M179.491 238.267C179.574 238.326 179.623 238.428 179.597 238.529C179.301 239.918 179.197 240.777 179.27 241.472C179.302 241.813 179.368 242.098 179.433 242.308C179.508 242.521 179.589 242.657 179.645 242.678C179.702 242.699 179.853 242.652 180.039 242.502C180.233 242.356 180.456 242.103 180.629 241.725C180.802 241.349 180.912 240.848 180.873 240.265C180.812 239.688 180.631 239.011 180.146 238.394C180.086 238.306 180.056 238.193 180.089 238.091C180.222 237.719 180.272 237.311 180.191 237.12C180.112 236.923 179.928 236.979 179.511 237.437C178.901 237.449 178.753 237.588 178.819 237.726C178.89 237.868 179.192 238.048 179.491 238.267Z" fill="black"/>
<path d="M170.185 236.599C170.176 236.495 170.242 236.406 170.335 236.363C170.989 236.056 171.486 235.849 171.912 235.669C172.329 235.483 172.666 235.306 172.954 235.126C173.24 234.948 173.471 234.768 173.636 234.617C173.798 234.456 173.888 234.332 173.883 234.272C173.878 234.214 173.77 234.094 173.551 233.998C173.332 233.891 173.001 233.802 172.569 233.823C172.142 233.844 171.612 233.985 171.102 234.34C170.588 234.68 170.118 235.268 169.895 236.013C169.863 236.117 169.776 236.2 169.679 236.24C169.494 236.308 169.305 236.39 169.149 236.48C169.003 236.575 168.888 236.676 168.835 236.765C168.727 236.949 168.886 237.056 169.509 237.093C169.898 237.557 170.1 237.585 170.169 237.449C170.204 237.378 170.21 237.258 170.202 237.105C170.204 236.961 170.196 236.785 170.185 236.599Z" fill="black"/>
<path d="M173.474 245.795C173.385 245.841 173.269 245.845 173.19 245.776C172.607 245.352 172.201 244.988 171.838 244.712C171.471 244.442 171.17 244.216 170.867 244.058C170.297 243.72 169.79 243.563 169.673 243.631C169.585 243.68 169.435 244.235 169.86 244.987C170.085 245.342 170.444 245.756 171.007 246.029C171.556 246.308 172.291 246.472 173.071 246.319C173.179 246.307 173.296 246.325 173.375 246.401C173.661 246.681 174.016 246.897 174.224 246.91C174.438 246.926 174.468 246.739 174.227 246.172C174.481 245.628 174.418 245.436 174.261 245.434C174.099 245.434 173.803 245.628 173.474 245.795Z" fill="black"/>
<path d="M179.227 255.207C179.17 255.294 179.063 255.322 178.962 255.304C177.541 255.061 176.602 255.16 175.926 255.437C175.257 255.655 174.887 256.042 174.89 256.164C174.893 256.279 175.288 256.632 176.051 256.788C176.797 256.89 177.954 256.774 179.114 255.839C179.195 255.774 179.309 255.765 179.405 255.795C180.119 256.026 180.899 256.137 180.05 255.25C180.1 254.056 179.649 254.588 179.227 255.207Z" fill="black"/>
<path d="M189.696 242.624C189.748 242.711 189.743 242.819 189.689 242.904C189.323 243.506 189.019 244.012 188.866 244.477C188.726 244.945 188.624 245.342 188.611 245.692C188.595 246.042 188.646 246.338 188.714 246.555C188.766 246.765 188.844 246.897 188.901 246.919C188.956 246.941 189.109 246.901 189.309 246.777C189.493 246.648 189.716 246.432 189.925 246.113C190.132 245.794 190.345 245.377 190.4 244.842C190.468 244.312 190.487 243.687 190.249 242.982C190.218 242.883 190.244 242.775 190.316 242.701C190.581 242.433 190.833 242.135 190.856 241.954C190.87 241.771 190.68 241.718 190.105 241.907C189.551 241.629 189.357 241.662 189.356 241.83C189.348 241.997 189.507 242.308 189.696 242.624Z" fill="black"/>
<path d="M183.613 227.323C183.713 227.321 183.807 227.377 183.855 227.466C184.021 227.785 184.208 228.033 184.362 228.286C184.517 228.538 184.676 228.751 184.839 228.932C185.178 229.28 185.467 229.571 185.769 229.757C186.377 230.123 186.882 230.221 186.983 230.148C187.077 230.081 187.175 229.537 186.811 228.866C186.633 228.529 186.38 228.129 185.929 227.812C185.712 227.647 185.462 227.487 185.181 227.341C184.901 227.194 184.552 227.106 184.194 227.021C184.091 226.998 184.007 226.923 183.976 226.824C183.919 226.643 183.855 226.461 183.783 226.313C183.704 226.174 183.622 226.065 183.543 226.015C183.383 225.913 183.25 226.055 183.152 226.646C182.647 226.996 182.589 227.182 182.736 227.261C182.81 227.301 182.939 227.316 183.098 227.316C183.249 227.327 183.428 227.328 183.613 227.323Z" fill="black"/>
<path d="M172.476 224.65C172.549 224.581 172.657 224.547 172.754 224.589C173.438 224.865 174.008 224.967 174.504 225.022C175 225.094 175.422 225.063 175.774 224.984C176.473 224.848 176.9 224.563 176.92 224.433C176.937 224.329 176.61 223.879 175.881 223.631C175.518 223.519 175.056 223.448 174.515 223.473C173.975 223.515 173.353 223.712 172.703 224.036C172.611 224.078 172.499 224.093 172.41 224.041C171.751 223.679 171.008 223.423 171.674 224.453C171.397 225.614 171.945 225.178 172.476 224.65Z" fill="black"/>
<path d="M159.752 234.987C159.718 234.894 159.742 234.788 159.812 234.715C160.061 234.454 160.262 234.206 160.43 233.969C160.623 233.741 160.776 233.522 160.898 233.31C161.02 233.098 161.111 232.893 161.179 232.697C161.266 232.511 161.326 232.333 161.368 232.163C161.529 231.487 161.406 230.965 161.313 230.904C161.205 230.835 160.69 230.958 160.155 231.513C160.02 231.65 159.885 231.813 159.755 232.003C159.644 232.202 159.541 232.429 159.454 232.684C159.367 232.938 159.296 233.22 159.249 233.527C159.227 233.842 159.234 234.184 159.273 234.546C159.285 234.648 159.24 234.75 159.154 234.811C158.51 235.252 158.054 235.841 159.247 235.633C160.261 236.344 159.992 235.657 159.752 234.987Z" fill="black"/>
<path d="M163.043 251.215C162.945 251.197 162.865 251.122 162.836 251.026C162.741 250.68 162.615 250.396 162.514 250.119C162.415 249.841 162.304 249.6 162.184 249.389C161.926 248.978 161.696 248.639 161.442 248.393C160.925 247.911 160.437 247.723 160.328 247.772C160.218 247.823 160.024 248.331 160.239 249.06C160.338 249.427 160.51 249.863 160.882 250.265C161.06 250.471 161.269 250.678 161.513 250.877C161.759 251.075 162.078 251.236 162.411 251.392C162.507 251.434 162.573 251.525 162.582 251.628C162.606 252.014 162.698 252.38 162.835 252.507C162.97 252.64 163.13 252.528 163.351 251.97C163.919 251.731 164.016 251.56 163.889 251.454C163.757 251.349 163.397 251.29 163.043 251.215Z" fill="black"/>
<path d="M187.79 249.819C187.792 249.918 187.735 250.01 187.646 250.055C187.038 250.395 186.515 250.674 186.157 251.001C185.973 251.16 185.826 251.328 185.694 251.484C185.552 251.632 185.438 251.781 185.345 251.926C184.974 252.507 184.934 253.039 185.012 253.134C185.085 253.224 185.606 253.263 186.284 252.921C186.453 252.837 186.632 252.728 186.813 252.593C186.985 252.449 187.148 252.266 187.31 252.059C187.625 251.635 187.957 251.118 188.094 250.395C188.115 250.296 188.19 250.215 188.289 250.187C189.015 249.983 189.719 249.653 188.496 249.404C187.834 248.419 187.77 249.096 187.79 249.819Z" fill="black"/>
<path d="M187.392 227.467C187.489 227.492 187.556 227.577 187.572 227.675C187.673 228.383 187.89 228.892 188.07 229.341C188.253 229.786 188.49 230.118 188.736 230.37C189.193 230.886 189.661 231.098 189.783 231.05C189.886 231.011 190.117 230.518 189.982 229.781C189.898 229.423 189.73 229.001 189.435 228.563C189.145 228.124 188.639 227.72 188.029 227.348C187.941 227.297 187.89 227.199 187.89 227.098C187.867 226.372 187.71 225.63 187.151 226.708C185.993 227.083 186.657 227.305 187.392 227.467Z" fill="black"/>
<path d="M164.402 224.836C164.436 224.744 164.523 224.681 164.624 224.67C165.338 224.597 165.877 224.435 166.352 224.297C166.816 224.144 167.158 223.907 167.44 223.704C168.003 223.31 168.237 222.836 168.199 222.72C168.163 222.611 167.687 222.382 166.923 222.445C166.544 222.483 166.117 222.646 165.653 222.908C165.182 223.153 164.73 223.606 164.324 224.2C164.266 224.284 164.166 224.332 164.061 224.322C163.292 224.249 162.562 224.402 163.605 225.003C163.919 226.182 164.156 225.499 164.402 224.836Z" fill="black"/>
<path d="M157.613 244.72C157.535 244.657 157.5 244.555 157.522 244.459C157.655 243.784 157.774 243.208 157.748 242.725C157.727 242.242 157.628 241.842 157.531 241.511C157.31 240.856 156.916 240.496 156.792 240.498C156.675 240.5 156.314 240.878 156.151 241.603C156.056 241.965 156.058 242.411 156.182 242.918C156.31 243.424 156.498 244.002 156.969 244.573C157.031 244.654 157.046 244.762 157.003 244.853C156.69 245.527 156.489 246.263 157.476 245.517C158.671 245.665 158.186 245.175 157.613 244.72Z" fill="black"/>
<path d="M173.425 258.319C173.344 258.376 173.234 258.382 173.146 258.335C172.515 258.029 171.979 257.79 171.502 257.672C171.025 257.556 170.605 257.558 170.259 257.555C169.563 257.583 169.098 257.853 169.064 257.97C169.032 258.081 169.299 258.526 169.97 258.882C170.302 259.076 170.745 259.179 171.277 259.205C171.809 259.233 172.43 259.181 173.113 258.889C173.209 258.851 173.319 258.866 173.398 258.931C173.979 259.406 174.65 259.792 174.174 258.659C174.631 257.569 174.023 257.897 173.425 258.319Z" fill="black"/>
</g>
</svg>
