<svg width="357" height="268" viewBox="0 0 357 268" fill="none" xmlns="http://www.w3.org/2000/svg">
<rect width="357" height="268" fill="#F9F0E4"/>
<g opacity="0.25">
<path d="M199.685 131.162L199.613 131.189C199.614 131.176 199.615 131.167 199.616 131.152C199.61 130.984 199.524 130.819 199.417 130.832C199.31 130.846 199.237 131.031 199.257 131.196C199.265 131.273 199.291 131.33 199.324 131.371C199.118 131.291 198.836 131.292 198.525 131.333C198.235 131.397 197.92 131.511 197.68 131.668C197.445 131.835 197.301 132.001 197.229 132.159C197.197 132.223 197.14 132.275 197.073 132.296C196.889 132.349 196.709 132.468 196.577 132.648C196.389 132.889 196.392 133.22 196.532 133.453C196.808 133.895 197.385 133.921 197.746 133.633C197.836 133.556 197.902 133.463 197.946 133.359C197.971 133.296 198.029 133.258 198.096 133.257C198.258 133.249 198.431 133.191 198.622 133.054C198.812 132.928 199.003 132.774 199.166 132.584C199.334 132.426 199.477 132.223 199.565 132.046C199.568 132.096 199.586 132.156 199.625 132.224C199.711 132.37 199.843 132.495 199.905 132.46C199.966 132.425 199.948 132.24 199.876 132.091C199.869 132.08 199.864 132.072 199.858 132.062C199.878 132.058 199.898 132.056 199.919 132.05C200.179 131.978 200.377 131.762 200.352 131.502C200.331 131.257 200.022 131.072 199.685 131.162Z" fill="black"/>
<path d="M193.642 137.597L193.601 137.661C193.594 137.651 193.588 137.642 193.581 137.631C193.472 137.5 193.302 137.419 193.225 137.493C193.148 137.567 193.204 137.758 193.321 137.878C193.375 137.934 193.431 137.965 193.483 137.978C193.27 138.036 193.045 138.203 192.822 138.421C192.631 138.644 192.45 138.922 192.356 139.189C192.27 139.461 192.258 139.679 192.298 139.848C192.312 139.917 192.298 139.993 192.258 140.049C192.144 140.201 192.074 140.401 192.079 140.624C192.078 140.927 192.284 141.189 192.539 141.291C193.031 141.48 193.507 141.159 193.617 140.716C193.642 140.601 193.637 140.487 193.608 140.379C193.59 140.314 193.612 140.249 193.665 140.208C193.789 140.107 193.891 139.957 193.959 139.735C194.034 139.522 194.091 139.285 194.103 139.039C194.14 138.812 194.129 138.566 194.091 138.373C194.123 138.411 194.175 138.448 194.248 138.479C194.406 138.544 194.588 138.566 194.616 138.501C194.644 138.437 194.515 138.3 194.366 138.224C194.354 138.219 194.345 138.216 194.334 138.211C194.347 138.197 194.362 138.183 194.374 138.166C194.538 137.955 194.563 137.665 194.383 137.473C194.215 137.29 193.855 137.325 193.642 137.597Z" fill="black"/>
<path d="M190.979 137.912L190.925 137.967C190.921 137.955 190.917 137.946 190.912 137.933C190.833 137.783 190.683 137.67 190.592 137.727C190.502 137.784 190.517 137.982 190.606 138.123C190.647 138.189 190.697 138.23 190.744 138.253C190.523 138.267 190.269 138.386 190.005 138.554C189.771 138.734 189.536 138.971 189.388 139.213C189.248 139.462 189.191 139.673 189.195 139.846C189.195 139.917 189.166 139.988 189.114 140.036C188.971 140.161 188.861 140.344 188.819 140.562C188.755 140.859 188.902 141.156 189.131 141.308C189.574 141.591 190.106 141.372 190.306 140.96C190.354 140.853 190.373 140.741 190.368 140.629C190.363 140.561 190.398 140.502 190.458 140.473C190.601 140.398 190.732 140.273 190.845 140.069C190.962 139.875 191.067 139.655 191.131 139.416C191.214 139.202 191.254 138.959 191.257 138.761C191.281 138.806 191.323 138.852 191.389 138.897C191.53 138.992 191.704 139.05 191.744 138.993C191.785 138.935 191.687 138.775 191.557 138.67C191.546 138.664 191.538 138.658 191.528 138.652C191.545 138.641 191.562 138.63 191.577 138.616C191.781 138.442 191.866 138.163 191.731 137.939C191.604 137.727 191.244 137.689 190.979 137.912Z" fill="black"/>
<path d="M204.756 131.793L204.689 131.793C204.694 131.782 204.698 131.773 204.704 131.76C204.754 131.601 204.74 131.416 204.661 131.392C204.578 131.371 204.476 131.507 204.418 131.664C204.392 131.737 204.386 131.8 204.393 131.85C204.149 131.544 203.669 131.21 203.166 131.062C202.919 130.988 202.692 130.983 202.529 131.026C202.462 131.043 202.38 131.032 202.323 130.988C202.169 130.87 201.958 130.796 201.714 130.812C201.389 130.819 201.106 131.044 201.034 131.298C200.911 131.797 201.239 132.234 201.657 132.319C201.766 132.338 201.881 132.341 201.988 132.313C202.052 132.299 202.116 132.317 202.162 132.368C202.276 132.49 202.427 132.582 202.685 132.659C203.173 132.804 203.908 132.803 204.286 132.558C204.262 132.603 204.248 132.664 204.253 132.743C204.263 132.908 204.372 133.088 204.464 133.078C204.56 133.071 204.617 132.892 204.598 132.727C204.595 132.714 204.594 132.705 204.591 132.693L204.661 132.705C204.983 132.741 205.257 132.548 205.269 132.293C205.279 132.042 205.051 131.826 204.756 131.793Z" fill="black"/>
<path d="M209.277 130.896L209.224 130.935C209.221 130.923 209.219 130.914 209.215 130.9C209.156 130.743 209.032 130.608 208.956 130.631C208.88 130.653 208.876 130.835 208.928 130.993C208.952 131.067 208.986 131.121 209.024 131.156C208.624 131.063 208.046 131.109 207.617 131.227C207.402 131.3 207.244 131.371 207.137 131.488C207.093 131.536 207.028 131.553 206.967 131.531C206.804 131.474 206.633 131.484 206.449 131.543C206.204 131.637 206.001 131.859 205.94 132.124C205.82 132.624 206.248 133.072 206.821 133.011C206.962 132.991 207.091 132.944 207.199 132.877C207.263 132.839 207.343 132.831 207.415 132.851C207.586 132.896 207.819 132.916 208.102 132.823C208.674 132.665 209.243 132.188 209.377 131.781C209.386 131.832 209.413 131.889 209.465 131.948C209.577 132.073 209.76 132.152 209.838 132.09C209.915 132.029 209.847 131.85 209.73 131.731C209.72 131.723 209.712 131.717 209.703 131.709L209.767 131.675C210.049 131.504 210.143 131.188 209.99 130.98C209.84 130.778 209.523 130.746 209.277 130.896Z" fill="black"/>
<path d="M209.817 127.136L209.782 127.191C209.775 127.18 209.769 127.172 209.761 127.161C209.649 127.033 209.486 126.949 209.422 126.996C209.359 127.043 209.419 127.214 209.524 127.346C209.573 127.407 209.624 127.445 209.671 127.465C209.264 127.514 208.737 127.754 208.377 128.01C208.2 128.151 208.077 128.271 208.018 128.418C207.994 128.477 207.938 128.515 207.874 128.516C207.7 128.516 207.543 128.585 207.391 128.703C207.195 128.873 207.082 129.15 207.119 129.42C207.182 129.93 207.742 130.205 208.258 129.954C208.383 129.887 208.487 129.799 208.566 129.7C208.612 129.643 208.685 129.608 208.758 129.601C208.936 129.586 209.16 129.526 209.394 129.343C209.875 129 210.241 128.36 210.223 127.933C210.249 127.977 210.295 128.022 210.365 128.059C210.514 128.139 210.713 128.15 210.765 128.067C210.815 127.982 210.688 127.838 210.537 127.766C210.524 127.761 210.515 127.758 210.504 127.754L210.552 127.701C210.756 127.445 210.733 127.116 210.515 126.973C210.304 126.834 209.995 126.912 209.817 127.136Z" fill="black"/>
<path d="M212.734 127.651L212.7 127.706C212.692 127.697 212.686 127.689 212.678 127.678C212.559 127.561 212.385 127.485 212.325 127.539C212.265 127.593 212.338 127.761 212.453 127.884C212.507 127.941 212.561 127.975 212.61 127.991C212.208 128.073 211.688 128.37 211.357 128.706C211.176 128.88 211.08 129.048 211.04 129.206C211.024 129.269 210.976 129.321 210.912 129.34C210.74 129.391 210.586 129.502 210.471 129.664C210.317 129.891 210.293 130.193 210.412 130.439C210.632 130.906 211.243 130.997 211.647 130.641C211.744 130.552 211.817 130.447 211.864 130.337C211.891 130.271 211.951 130.224 212.021 130.208C212.189 130.168 212.369 130.065 212.563 129.877C212.956 129.482 213.251 128.838 213.199 128.413C213.229 128.455 213.278 128.496 213.35 128.527C213.506 128.595 213.704 128.593 213.746 128.506C213.788 128.42 213.656 128.287 213.497 128.225C213.484 128.221 213.474 128.219 213.463 128.216L213.51 128.161C213.685 127.888 213.644 127.564 213.42 127.438C213.196 127.313 212.888 127.408 212.734 127.651Z" fill="black"/>
<path d="M194.668 133.057L194.649 133.119C194.639 133.111 194.631 133.105 194.62 133.097C194.476 133.01 194.289 132.977 194.244 133.043C194.199 133.109 194.31 133.256 194.452 133.348C194.518 133.391 194.578 133.412 194.63 133.416C194.259 133.589 193.825 133.999 193.584 134.402C193.451 134.613 193.398 134.799 193.398 134.961C193.397 135.026 193.363 135.088 193.305 135.122C193.15 135.21 193.028 135.354 192.955 135.539C192.86 135.795 192.91 136.094 193.084 136.305C193.41 136.708 194.026 136.654 194.333 136.215C194.406 136.106 194.451 135.987 194.47 135.868C194.481 135.799 194.527 135.738 194.592 135.707C194.746 135.63 194.895 135.487 195.038 135.26C195.325 134.785 195.457 134.09 195.303 133.689C195.343 133.723 195.4 133.752 195.479 133.765C195.646 133.795 195.837 133.747 195.857 133.653C195.878 133.559 195.717 133.461 195.548 133.437C195.534 133.437 195.525 133.437 195.512 133.437L195.545 133.373C195.649 133.066 195.531 132.761 195.283 132.691C195.035 132.622 194.759 132.785 194.668 133.057Z" fill="black"/>
<path d="M214.203 123.263L214.206 123.329C214.194 123.324 214.185 123.321 214.172 123.316C214.007 123.274 213.821 123.296 213.799 123.373C213.774 123.449 213.924 123.558 214.086 123.606C214.162 123.628 214.226 123.63 214.277 123.62C213.975 123.893 213.686 124.416 213.574 124.863C213.513 125.09 213.52 125.272 213.559 125.422C213.576 125.483 213.56 125.549 213.514 125.594C213.397 125.715 213.298 125.866 213.279 126.06C213.248 126.321 213.352 126.597 213.572 126.774C213.964 127.105 214.575 126.937 214.773 126.418C214.825 126.291 214.845 126.161 214.831 126.037C214.824 125.964 214.853 125.891 214.908 125.843C215.044 125.725 215.149 125.537 215.221 125.264C215.358 124.722 215.27 124.025 215.003 123.686C215.051 123.708 215.114 123.718 215.193 123.709C215.362 123.689 215.532 123.589 215.524 123.493C215.514 123.399 215.328 123.351 215.161 123.376C215.148 123.38 215.139 123.382 215.127 123.386L215.136 123.315C215.155 122.995 214.947 122.737 214.686 122.739C214.431 122.74 214.22 122.976 214.203 123.263Z" fill="black"/>
<path d="M217.313 109.087L217.258 109.124C217.256 109.112 217.254 109.102 217.252 109.088C217.202 108.928 217.086 108.784 217.007 108.806C216.928 108.825 216.911 109.007 216.954 109.168C216.975 109.243 217.006 109.298 217.042 109.335C216.647 109.224 216.041 109.254 215.594 109.394C215.366 109.462 215.21 109.563 215.1 109.672C215.056 109.719 214.99 109.741 214.928 109.725C214.761 109.689 214.578 109.686 214.399 109.771C214.157 109.882 213.97 110.112 213.931 110.389C213.848 110.89 214.313 111.314 214.868 111.209C215.005 111.187 215.128 111.135 215.229 111.058C215.288 111.015 215.367 111.002 215.437 111.022C215.61 111.074 215.829 111.064 216.104 110.983C216.646 110.814 217.208 110.377 217.362 109.978C217.369 110.028 217.393 110.086 217.442 110.148C217.547 110.279 217.723 110.369 217.802 110.313C217.879 110.255 217.823 110.074 217.714 109.948C217.704 109.939 217.697 109.933 217.688 109.924L217.754 109.895C218.043 109.744 218.159 109.435 218.021 109.218C217.887 109.005 217.573 108.951 217.313 109.087Z" fill="black"/>
<path d="M213.769 118.378V118.452C213.757 118.447 213.748 118.444 213.735 118.438C213.572 118.393 213.383 118.422 213.359 118.522C213.343 118.622 213.503 118.743 213.67 118.778C213.747 118.794 213.812 118.789 213.861 118.772C213.56 119.095 213.443 119.821 213.549 120.342C213.598 120.605 213.691 120.786 213.802 120.902C213.847 120.949 213.867 121.018 213.849 121.08C213.798 121.252 213.802 121.412 213.872 121.599C213.972 121.846 214.211 122.039 214.483 122.087C214.997 122.181 215.432 121.748 215.358 121.203C215.336 121.068 215.29 120.936 215.218 120.84C215.177 120.782 215.168 120.707 215.192 120.641C215.252 120.478 215.263 120.284 215.217 120.039C215.122 119.561 214.865 119.056 214.59 118.767C214.639 118.782 214.703 118.785 214.781 118.77C214.947 118.736 215.105 118.648 215.088 118.575C215.076 118.503 214.893 118.463 214.724 118.485C214.711 118.488 214.702 118.49 214.69 118.493C214.694 118.473 214.7 118.453 214.701 118.432C214.714 118.158 214.55 117.904 214.298 117.858C214.042 117.812 213.786 118.043 213.769 118.378Z" fill="black"/>
<path d="M211.983 116.353L211.96 116.423C211.95 116.415 211.942 116.409 211.932 116.4C211.79 116.308 211.601 116.278 211.548 116.367C211.501 116.456 211.616 116.62 211.764 116.703C211.833 116.743 211.895 116.757 211.947 116.755C211.561 116.972 211.222 117.629 211.161 118.157C211.126 118.421 211.158 118.622 211.227 118.765C211.256 118.824 211.253 118.895 211.217 118.949C211.114 119.097 211.069 119.251 211.077 119.45C211.095 119.715 211.262 119.97 211.506 120.098C211.967 120.342 212.515 120.061 212.615 119.519C212.637 119.384 212.634 119.244 212.595 119.132C212.574 119.064 212.589 118.99 212.632 118.935C212.739 118.797 212.811 118.616 212.844 118.368C212.903 117.885 212.815 117.328 212.643 116.969C212.686 116.998 212.746 117.02 212.824 117.029C212.993 117.048 213.171 117.011 213.177 116.936C213.188 116.864 213.027 116.771 212.859 116.741C212.846 116.74 212.836 116.739 212.824 116.738C212.834 116.721 212.846 116.703 212.854 116.683C212.951 116.427 212.874 116.135 212.649 116.016C212.42 115.896 212.103 116.038 211.983 116.353Z" fill="black"/>
<path d="M216.071 113.778L216.028 113.835C216.021 113.824 216.017 113.816 216.01 113.803C215.911 113.667 215.749 113.57 215.674 113.628C215.6 113.686 215.643 113.873 215.744 114.007C215.792 114.069 215.843 114.107 215.892 114.127C215.461 114.168 214.879 114.569 214.569 115.044C214.415 115.286 214.337 115.485 214.348 115.67C214.35 115.743 214.319 115.817 214.261 115.863C214.106 115.986 213.978 116.171 213.946 116.408C213.886 116.722 214.025 117.023 214.274 117.162C214.727 117.403 215.257 117.184 215.427 116.797C215.474 116.697 215.501 116.593 215.499 116.486C215.499 116.423 215.534 116.366 215.59 116.336C215.719 116.262 215.868 116.147 215.993 115.951C216.241 115.569 216.446 115.001 216.441 114.597C216.468 114.641 216.513 114.685 216.582 114.723C216.73 114.806 216.916 114.837 216.957 114.766C216.999 114.695 216.884 114.546 216.74 114.46C216.728 114.455 216.72 114.451 216.708 114.446L216.757 114.401C216.95 114.18 216.991 113.878 216.805 113.695C216.627 113.519 216.283 113.538 216.071 113.778Z" fill="black"/>
<path d="M219.38 109.966L219.331 110.018C219.326 110.007 219.322 109.998 219.317 109.985C219.232 109.839 219.081 109.727 219.001 109.777C218.92 109.828 218.944 110.019 219.032 110.161C219.073 110.228 219.12 110.271 219.166 110.295C218.733 110.294 218.114 110.636 217.757 111.078C217.579 111.304 217.482 111.495 217.473 111.679C217.468 111.752 217.429 111.822 217.367 111.863C217.2 111.97 217.054 112.141 216.998 112.374C216.907 112.681 217.014 112.994 217.248 113.157C217.674 113.44 218.224 113.275 218.432 112.907C218.489 112.812 218.527 112.711 218.535 112.604C218.542 112.541 218.582 112.488 218.641 112.464C218.777 112.402 218.937 112.303 219.081 112.12C219.367 111.764 219.629 111.22 219.665 110.817C219.687 110.863 219.728 110.911 219.792 110.956C219.931 111.053 220.113 111.101 220.161 111.035C220.21 110.969 220.111 110.81 219.976 110.71C219.965 110.703 219.957 110.698 219.946 110.692L219.999 110.652C220.214 110.451 220.286 110.155 220.119 109.955C219.96 109.762 219.615 109.747 219.38 109.966Z" fill="black"/>
<path d="M202.406 133.714L202.331 133.713C202.336 133.702 202.34 133.693 202.346 133.68C202.399 133.521 202.376 133.335 202.273 133.311C202.179 133.29 202.056 133.441 202.017 133.602C201.998 133.678 202.001 133.741 202.015 133.79C201.714 133.498 201.07 133.317 200.547 133.362C200.282 133.382 200.089 133.459 199.956 133.561C199.901 133.604 199.828 133.621 199.761 133.601C199.583 133.546 199.372 133.558 199.167 133.652C198.887 133.78 198.708 134.069 198.74 134.34C198.821 134.842 199.257 135.15 199.67 135.078C199.777 135.059 199.874 135.013 199.963 134.952C200.014 134.915 200.081 134.911 200.137 134.939C200.277 135.011 200.452 135.039 200.687 135.022C201.148 134.982 201.703 134.775 201.994 134.505C201.978 134.553 201.973 134.616 201.985 134.693C202.011 134.857 202.092 135.017 202.164 135.004C202.228 134.993 202.272 134.813 202.26 134.649C202.258 134.636 202.256 134.627 202.254 134.615C202.273 134.619 202.291 134.624 202.31 134.626C202.382 134.63 202.409 134.627 202.466 134.61C202.536 134.601 202.602 134.58 202.659 134.549C202.775 134.488 202.857 134.387 202.883 134.264C202.91 134.139 202.875 134.016 202.801 133.916C202.764 133.866 202.717 133.822 202.662 133.788C202.592 133.752 202.481 133.718 202.406 133.714Z" fill="black"/>
<path d="M197.338 135.083L197.291 135.142C197.285 135.13 197.28 135.122 197.274 135.11C197.177 134.972 197.012 134.877 196.93 134.942C196.856 135.004 196.905 135.191 197.012 135.32C197.062 135.38 197.114 135.416 197.163 135.434C196.743 135.493 196.207 135.886 195.927 136.322C195.782 136.541 195.728 136.738 195.73 136.904C195.732 136.973 195.701 137.039 195.645 137.08C195.492 137.186 195.374 137.358 195.326 137.575C195.26 137.872 195.387 138.186 195.625 138.325C196.081 138.565 196.595 138.412 196.787 138.046C196.837 137.95 196.858 137.846 196.862 137.741C196.863 137.679 196.9 137.624 196.957 137.597C197.1 137.531 197.23 137.411 197.358 137.217C197.604 136.833 197.773 136.274 197.73 135.884C197.759 135.926 197.807 135.968 197.876 136.005C198.026 136.084 198.205 136.118 198.238 136.053C198.267 135.997 198.149 135.854 198.007 135.763C197.995 135.757 197.987 135.753 197.977 135.747C197.991 135.735 198.006 135.724 198.019 135.71C198.066 135.656 198.08 135.634 198.101 135.579C198.136 135.519 198.158 135.455 198.168 135.391C198.189 135.264 198.157 135.139 198.073 135.043C197.988 134.947 197.867 134.899 197.741 134.897C197.678 134.896 197.614 134.906 197.552 134.928C197.482 134.961 197.387 135.026 197.338 135.083Z" fill="black"/>
<path d="M207.028 133.964C207.007 133.967 206.987 133.973 206.966 133.979C206.969 133.967 206.97 133.957 206.972 133.944C206.98 133.777 206.922 133.601 206.844 133.597C206.766 133.591 206.691 133.753 206.678 133.919C206.672 133.996 206.682 134.058 206.703 134.105C206.383 133.862 205.821 133.704 205.365 133.699C205.132 133.691 204.958 133.738 204.824 133.821C204.769 133.856 204.702 133.853 204.649 133.82C204.505 133.73 204.332 133.689 204.141 133.723C203.883 133.76 203.649 133.944 203.544 134.2C203.346 134.668 203.662 135.183 204.184 135.228C204.312 135.24 204.437 135.222 204.548 135.182C204.613 135.157 204.686 135.172 204.744 135.208C204.885 135.299 205.082 135.356 205.351 135.364C205.883 135.37 206.516 135.132 206.784 134.816C206.774 134.865 206.777 134.928 206.801 135.002C206.853 135.161 206.982 135.308 207.069 135.28C207.157 135.25 207.165 135.063 207.108 134.906C207.103 134.895 207.098 134.887 207.093 134.876L207.161 134.871C207.467 134.822 207.674 134.581 207.622 134.333C207.571 134.085 207.305 133.919 207.028 133.964Z" fill="black"/>
<path d="M191.518 133.8C191.509 133.819 191.505 133.839 191.499 133.859C191.489 133.851 191.481 133.844 191.471 133.835C191.332 133.739 191.15 133.692 191.104 133.754C191.057 133.815 191.155 133.964 191.29 134.065C191.354 134.111 191.412 134.136 191.464 134.144C191.082 134.277 190.643 134.656 190.392 135.03C190.261 135.219 190.207 135.388 190.206 135.544C190.206 135.608 190.168 135.661 190.11 135.688C189.955 135.757 189.827 135.878 189.753 136.054C189.646 136.287 189.676 136.581 189.84 136.805C190.134 137.221 190.746 137.238 191.067 136.832C191.146 136.732 191.198 136.62 191.224 136.506C191.238 136.439 191.29 136.387 191.352 136.358C191.506 136.291 191.662 136.159 191.813 135.941C192.106 135.506 192.244 134.854 192.117 134.461C192.154 134.497 192.21 134.528 192.287 134.548C192.451 134.59 192.646 134.564 192.669 134.476C192.69 134.388 192.535 134.28 192.37 134.243C192.357 134.241 192.348 134.24 192.336 134.239L192.368 134.179C192.492 133.901 192.396 133.6 192.156 133.508C191.916 133.417 191.629 133.547 191.518 133.8Z" fill="black"/>
<path d="M211.277 132.402C211.259 132.414 211.243 132.427 211.227 132.441C211.223 132.429 211.221 132.419 211.217 132.406C211.155 132.252 211.028 132.114 210.954 132.141C210.88 132.168 210.883 132.352 210.941 132.509C210.969 132.582 211.005 132.634 211.043 132.668C210.643 132.567 210.07 132.662 209.652 132.836C209.444 132.938 209.299 133.034 209.212 133.162C209.176 133.213 209.116 133.243 209.054 133.235C208.889 133.218 208.714 133.243 208.553 133.343C208.336 133.482 208.199 133.75 208.204 134.018C208.212 134.534 208.708 134.869 209.211 134.709C209.337 134.675 209.442 134.603 209.527 134.519C209.576 134.469 209.647 134.448 209.717 134.46C209.883 134.487 210.096 134.476 210.338 134.359C210.83 134.154 211.3 133.67 211.416 133.282C211.428 133.332 211.457 133.389 211.51 133.445C211.624 133.568 211.799 133.644 211.866 133.583C211.933 133.521 211.863 133.349 211.745 133.229C211.735 133.22 211.728 133.214 211.719 133.206L211.779 133.175C212.042 133.016 212.126 132.709 211.974 132.5C211.827 132.297 211.517 132.257 211.277 132.402Z" fill="black"/>
<path d="M214.615 129.338C214.603 129.355 214.594 129.374 214.583 129.392C214.576 129.382 214.57 129.374 214.562 129.364C214.446 129.241 214.277 129.159 214.219 129.211C214.164 129.264 214.227 129.429 214.339 129.554C214.391 129.612 214.444 129.648 214.492 129.667C214.288 129.69 214.06 129.777 213.848 129.901C213.626 130.017 213.416 130.165 213.26 130.332C213.096 130.496 213.002 130.647 212.97 130.8C212.956 130.861 212.911 130.912 212.85 130.929C212.691 130.978 212.536 131.067 212.427 131.224C212.278 131.435 212.264 131.74 212.379 131.984C212.598 132.453 213.182 132.558 213.579 132.227C213.679 132.147 213.749 132.044 213.791 131.935C213.817 131.87 213.873 131.824 213.941 131.81C214.105 131.773 214.288 131.681 214.475 131.494C214.654 131.304 214.818 131.062 214.928 130.816C215.03 130.562 215.084 130.308 215.067 130.106C215.096 130.148 215.144 130.189 215.215 130.224C215.367 130.298 215.565 130.313 215.602 130.229C215.642 130.147 215.512 130.011 215.358 129.941C215.345 129.937 215.337 129.934 215.325 129.93L215.369 129.879C215.548 129.632 215.518 129.32 215.302 129.181C215.086 129.043 214.779 129.113 214.615 129.338Z" fill="black"/>
<path d="M216.481 125.276C216.476 125.297 216.475 125.317 216.472 125.337C216.461 125.331 216.453 125.327 216.441 125.32C216.286 125.256 216.096 125.247 216.062 125.317C216.027 125.386 216.16 125.512 216.314 125.582C216.387 125.614 216.45 125.626 216.501 125.624C216.161 125.834 215.815 126.297 215.647 126.711C215.57 126.925 215.547 127.098 215.573 127.248C215.585 127.309 215.563 127.37 215.513 127.408C215.384 127.51 215.283 127.652 215.239 127.834C215.184 128.082 215.285 128.368 215.482 128.553C215.861 128.91 216.451 128.798 216.692 128.338C216.756 128.227 216.774 128.101 216.775 127.984C216.774 127.914 216.809 127.85 216.867 127.81C217.009 127.715 217.141 127.556 217.231 127.306C217.429 126.819 217.422 126.152 217.209 125.795C217.253 125.822 217.314 125.842 217.393 125.845C217.563 125.852 217.743 125.784 217.748 125.693C217.752 125.604 217.579 125.531 217.408 125.529C217.395 125.53 217.385 125.531 217.373 125.532L217.395 125.468C217.458 125.171 217.289 124.896 217.036 124.856C216.779 124.816 216.539 125.005 216.481 125.276Z" fill="black"/>
<path d="M216.555 120.794C216.558 120.816 216.565 120.835 216.571 120.855C216.558 120.854 216.548 120.852 216.535 120.851C216.366 120.846 216.187 120.908 216.182 120.986C216.177 121.064 216.348 121.134 216.518 121.143C216.597 121.146 216.66 121.134 216.706 121.112C216.471 121.434 216.329 122 216.343 122.45C216.359 122.679 216.401 122.848 216.491 122.976C216.527 123.028 216.533 123.094 216.503 123.149C216.428 123.294 216.382 123.465 216.425 123.65C216.485 123.901 216.678 124.121 216.942 124.211C217.431 124.386 217.936 124.05 217.959 123.536C217.967 123.409 217.946 123.288 217.894 123.181C217.865 123.118 217.87 123.046 217.906 122.987C217.993 122.846 218.056 122.65 218.039 122.388C218.023 121.87 217.76 121.264 217.428 121.012C217.479 121.021 217.543 121.016 217.618 120.99C217.778 120.935 217.919 120.807 217.89 120.723C217.86 120.639 217.671 120.634 217.512 120.694C217.5 120.7 217.492 120.704 217.481 120.71L217.477 120.643C217.434 120.382 217.214 120.188 216.955 120.198C216.698 120.207 216.504 120.482 216.555 120.794Z" fill="black"/>
<path d="M217.053 115.936L217.034 116.004C217.024 115.996 217.017 115.99 217.005 115.981C216.862 115.89 216.676 115.859 216.627 115.943C216.579 116.027 216.691 116.185 216.838 116.267C216.908 116.306 216.97 116.321 217.022 116.32C216.655 116.524 216.3 117.118 216.228 117.636C216.188 117.898 216.219 118.098 216.293 118.248C216.323 118.309 216.321 118.382 216.287 118.441C216.197 118.598 216.152 118.794 216.199 119.002C216.254 119.284 216.482 119.508 216.751 119.568C217.26 119.673 217.705 119.315 217.73 118.875C217.738 118.763 217.717 118.655 217.673 118.556C217.647 118.498 217.661 118.433 217.702 118.385C217.801 118.266 217.872 118.104 217.907 117.88C217.969 117.437 217.904 116.888 217.717 116.537C217.759 116.566 217.819 116.588 217.898 116.598C218.066 116.619 218.247 116.589 218.254 116.518C218.262 116.448 218.098 116.354 217.933 116.324C217.92 116.323 217.91 116.322 217.898 116.321C217.907 116.304 217.917 116.286 217.924 116.267C218.022 116.029 217.931 115.747 217.711 115.625C217.481 115.499 217.175 115.638 217.053 115.936Z" fill="black"/>
<path d="M206.226 136.651L206.158 136.655C206.163 136.643 206.166 136.634 206.171 136.621C206.21 136.459 206.182 136.275 206.102 136.257C206.022 136.242 205.913 136.391 205.867 136.548C205.846 136.622 205.844 136.685 205.857 136.735C205.725 136.591 205.533 136.459 205.321 136.356C205.216 136.298 205.107 136.24 204.996 136.195C204.937 136.173 204.882 136.152 204.829 136.132L204.745 136.106C204.679 136.092 204.614 136.077 204.55 136.064C204.487 136.061 204.426 136.059 204.366 136.057C204.11 136.051 203.914 136.093 203.767 136.172C203.706 136.204 203.633 136.206 203.573 136.172C203.413 136.085 203.223 136.044 203.017 136.075C202.738 136.117 202.496 136.301 202.386 136.554C202.171 137.024 202.536 137.538 203.094 137.584C203.231 137.595 203.362 137.578 203.48 137.535C203.549 137.51 203.628 137.52 203.689 137.559C203.837 137.654 204.043 137.715 204.327 137.722C204.38 137.723 204.382 137.723 204.387 137.72L204.389 137.717C204.399 137.718 204.34 137.706 204.381 137.712L204.487 137.722C204.556 137.724 204.627 137.727 204.702 137.73C204.846 137.73 204.988 137.726 205.124 137.704C205.398 137.65 205.64 137.563 205.803 137.449C205.782 137.495 205.773 137.558 205.784 137.636C205.809 137.804 205.919 137.969 206.019 137.952C206.119 137.939 206.164 137.756 206.133 137.593C206.129 137.58 206.126 137.571 206.122 137.56L206.197 137.567C206.535 137.579 206.799 137.37 206.788 137.112C206.777 136.864 206.525 136.662 206.226 136.651Z" fill="black"/>
<path d="M210.983 135.585L210.923 135.621C210.922 135.609 210.92 135.599 210.919 135.585C210.877 135.423 210.766 135.273 210.684 135.296C210.6 135.314 210.572 135.495 210.608 135.658C210.625 135.734 210.654 135.789 210.689 135.828C210.287 135.7 209.658 135.737 209.188 135.874C208.947 135.94 208.784 136.042 208.67 136.16C208.624 136.205 208.555 136.226 208.49 136.209C208.316 136.163 208.129 136.183 207.942 136.264C207.69 136.367 207.5 136.613 207.462 136.887C207.382 137.395 207.859 137.796 208.425 137.697C208.562 137.669 208.688 137.615 208.792 137.542C208.853 137.5 208.933 137.488 209.006 137.51C209.179 137.556 209.401 137.545 209.681 137.467C210.234 137.306 210.806 136.872 210.986 136.481C210.99 136.532 211.012 136.592 211.059 136.654C211.16 136.789 211.334 136.886 211.415 136.834C211.495 136.776 211.448 136.594 211.344 136.463C211.334 136.454 211.328 136.448 211.319 136.439L211.387 136.412C211.683 136.266 211.823 135.967 211.7 135.744C211.577 135.522 211.256 135.451 210.983 135.585Z" fill="black"/>
<path d="M218.613 132.642L218.586 132.704C218.577 132.695 218.57 132.688 218.561 132.678C218.433 132.567 218.254 132.506 218.2 132.571C218.141 132.632 218.223 132.797 218.347 132.911C218.405 132.964 218.462 132.993 218.512 133.005C218.108 133.125 217.613 133.507 217.305 133.882C217.145 134.07 217.071 134.246 217.046 134.406C217.034 134.469 216.989 134.524 216.926 134.547C216.756 134.607 216.614 134.728 216.508 134.898C216.359 135.124 216.346 135.432 216.474 135.679C216.703 136.141 217.328 136.204 217.735 135.807C217.832 135.707 217.904 135.592 217.947 135.475C217.973 135.406 218.032 135.351 218.104 135.328C218.274 135.269 218.449 135.137 218.635 134.916C218.996 134.475 219.214 133.798 219.135 133.377C219.168 133.416 219.221 133.453 219.296 133.478C219.458 133.533 219.657 133.515 219.693 133.426C219.725 133.335 219.582 133.212 219.419 133.162C219.406 133.16 219.397 133.158 219.385 133.156L219.425 133.095C219.584 132.81 219.526 132.485 219.296 132.372C219.065 132.258 218.76 132.378 218.613 132.642Z" fill="black"/>
<path d="M215.049 132.759L215.003 132.811C214.998 132.8 214.993 132.791 214.987 132.779C214.897 132.637 214.743 132.529 214.67 132.575C214.598 132.624 214.629 132.808 214.715 132.95C214.755 133.016 214.802 133.06 214.848 133.085C214.42 133.087 213.829 133.339 213.429 133.642C213.229 133.801 213.101 133.944 213.039 134.099C213.013 134.161 212.958 134.208 212.891 134.22C212.715 134.255 212.536 134.331 212.394 134.484C212.204 134.692 212.13 134.993 212.21 135.252C212.359 135.747 212.957 135.918 213.419 135.614C213.536 135.541 213.627 135.446 213.69 135.338C213.727 135.275 213.794 135.233 213.867 135.225C214.042 135.204 214.251 135.131 214.471 134.956C214.916 134.619 215.295 134.032 215.341 133.612C215.362 133.659 215.402 133.708 215.467 133.753C215.607 133.85 215.8 133.888 215.855 133.811C215.912 133.735 215.81 133.577 215.67 133.483C215.658 133.477 215.649 133.473 215.638 133.467L215.694 133.422C215.929 133.198 215.97 132.873 215.786 132.696C215.601 132.519 215.271 132.548 215.049 132.759Z" fill="black"/>
<path d="M218.031 128.885L218.008 128.948C217.998 128.939 217.991 128.932 217.981 128.923C217.844 128.824 217.661 128.777 217.612 128.843C217.564 128.91 217.661 129.068 217.791 129.171C217.853 129.22 217.912 129.245 217.963 129.253C217.564 129.398 217.107 129.807 216.817 130.201C216.674 130.404 216.608 130.585 216.588 130.744C216.581 130.81 216.541 130.869 216.481 130.898C216.32 130.977 216.18 131.108 216.083 131.29C215.956 131.539 215.977 131.853 216.128 132.079C216.417 132.511 217.033 132.505 217.394 132.09C217.483 131.987 217.539 131.865 217.571 131.746C217.591 131.675 217.644 131.616 217.712 131.589C217.881 131.524 218.047 131.382 218.212 131.149C218.547 130.693 218.718 129.991 218.612 129.579C218.648 129.615 218.703 129.648 218.781 129.668C218.947 129.711 219.144 129.677 219.169 129.582C219.195 129.487 219.042 129.375 218.876 129.339C218.863 129.337 218.853 129.337 218.841 129.335L218.878 129.272C219.024 128.975 218.925 128.651 218.684 128.559C218.444 128.467 218.163 128.618 218.031 128.885Z" fill="black"/>
<path d="M219.144 124.147L219.145 124.216C219.133 124.211 219.124 124.208 219.111 124.202C218.947 124.155 218.76 124.176 218.734 124.26C218.71 124.344 218.859 124.461 219.021 124.51C219.097 124.533 219.161 124.534 219.212 124.523C218.899 124.808 218.64 125.392 218.551 125.878C218.513 126.127 218.525 126.317 218.581 126.47C218.604 126.532 218.595 126.603 218.554 126.655C218.447 126.797 218.367 126.967 218.368 127.172C218.372 127.449 218.505 127.715 218.746 127.862C219.183 128.14 219.763 127.882 219.897 127.343C219.935 127.211 219.938 127.079 219.911 126.956C219.896 126.885 219.917 126.809 219.966 126.755C220.086 126.623 220.182 126.428 220.225 126.152C220.324 125.607 220.195 124.928 219.938 124.588C219.986 124.609 220.049 124.619 220.128 124.609C220.297 124.589 220.466 124.491 220.458 124.399C220.45 124.306 220.267 124.255 220.098 124.278C220.085 124.281 220.076 124.284 220.064 124.287C220.069 124.263 220.073 124.241 220.075 124.217C220.096 123.899 219.904 123.63 219.647 123.617C219.389 123.603 219.164 123.84 219.144 124.147Z" fill="black"/>
<path d="M218.736 119.231C218.739 119.256 218.746 119.278 218.752 119.301C218.739 119.299 218.73 119.297 218.716 119.295C218.546 119.284 218.367 119.346 218.365 119.439C218.362 119.531 218.537 119.616 218.707 119.625C218.786 119.63 218.848 119.616 218.895 119.592C218.662 119.948 218.576 120.612 218.66 121.12C218.702 121.378 218.783 121.56 218.89 121.687C218.935 121.739 218.95 121.809 218.929 121.873C218.872 122.043 218.871 122.235 218.934 122.409C218.981 122.541 219.052 122.598 219.149 122.71C219.243 122.813 219.363 122.89 219.497 122.928C219.748 122.999 219.991 122.94 220.174 122.795C220.266 122.731 220.339 122.618 220.386 122.474C220.43 122.347 220.45 122.2 220.433 122.065C220.419 121.925 220.374 121.8 220.309 121.696C220.27 121.634 220.265 121.556 220.292 121.491C220.357 121.33 220.379 121.122 220.335 120.856C220.249 120.331 219.946 119.744 219.615 119.48C219.666 119.489 219.73 119.483 219.804 119.455C219.963 119.395 220.104 119.267 220.075 119.184C220.045 119.102 219.855 119.094 219.696 119.152C219.684 119.158 219.675 119.161 219.664 119.167L219.66 119.099C219.614 118.796 219.38 118.578 219.122 118.604C218.867 118.628 218.688 118.915 218.736 119.231Z" fill="black"/>
<path d="M197.171 128.931C197.166 128.95 197.163 128.969 197.16 128.989C197.149 128.981 197.141 128.976 197.13 128.968C196.98 128.886 196.802 128.853 196.76 128.907C196.716 128.959 196.829 129.094 196.968 129.189C197.033 129.232 197.093 129.255 197.144 129.262C196.789 129.406 196.332 129.715 196.061 130.058C195.912 130.228 195.832 130.386 195.812 130.54C195.803 130.603 195.763 130.657 195.703 130.677C195.536 130.727 195.388 130.83 195.286 130.997C195.154 131.226 195.133 131.52 195.265 131.762C195.504 132.214 196.111 132.307 196.491 131.934C196.586 131.845 196.656 131.74 196.7 131.63C196.724 131.563 196.779 131.509 196.847 131.488C197.012 131.435 197.194 131.322 197.377 131.11C197.729 130.674 197.958 129.977 197.809 129.555C197.846 129.591 197.903 129.621 197.981 129.636C198.148 129.671 198.346 129.619 198.373 129.519C198.397 129.418 198.228 129.316 198.061 129.298H198.027L198.055 129.23C198.17 128.906 198.009 128.601 197.75 128.562C197.499 128.525 197.258 128.693 197.171 128.931Z" fill="black"/>
<path d="M196.847 124.379L196.857 124.446C196.844 124.443 196.835 124.44 196.821 124.437C196.653 124.413 196.469 124.459 196.458 124.548C196.446 124.638 196.615 124.731 196.783 124.752C196.862 124.762 196.925 124.754 196.974 124.734C196.703 125.036 196.589 125.748 196.701 126.25C196.755 126.508 196.843 126.671 196.957 126.787C197.004 126.834 197.023 126.9 197.004 126.96C196.954 127.122 196.96 127.296 197.03 127.46C197.132 127.684 197.349 127.855 197.629 127.921C197.882 127.977 198.125 127.917 198.291 127.753C198.465 127.587 198.554 127.326 198.513 127.056C198.493 126.922 198.44 126.808 198.372 126.709C198.331 126.651 198.322 126.576 198.345 126.514C198.402 126.36 198.414 126.157 198.365 125.922C198.262 125.455 198.005 124.971 197.7 124.679C197.751 124.69 197.815 124.689 197.891 124.668C198.054 124.623 198.204 124.513 198.183 124.435C198.162 124.357 197.974 124.335 197.81 124.377C197.798 124.381 197.789 124.385 197.777 124.389L197.78 124.325C197.76 124.037 197.548 123.81 197.29 123.816C197.032 123.821 196.826 124.074 196.847 124.379Z" fill="black"/>
<path d="M197.563 119.473L197.541 119.54C197.532 119.532 197.524 119.525 197.514 119.516C197.374 119.42 197.188 119.382 197.136 119.463C197.084 119.543 197.189 119.705 197.332 119.794C197.399 119.837 197.46 119.855 197.512 119.856C197.14 120.046 196.733 120.628 196.641 121.165C196.58 121.435 196.616 121.644 196.678 121.801C196.704 121.865 196.699 121.94 196.665 122C196.572 122.16 196.519 122.363 196.56 122.576C196.614 122.868 196.828 123.1 197.102 123.166C197.607 123.286 198.059 122.924 198.095 122.479C198.106 122.366 198.088 122.257 198.047 122.156C198.022 122.096 198.037 122.031 198.081 121.983C198.191 121.869 198.255 121.704 198.307 121.482C198.382 121.039 198.366 120.479 198.195 120.107C198.235 120.138 198.295 120.164 198.372 120.177C198.54 120.205 198.725 120.178 198.738 120.103C198.751 120.029 198.592 119.928 198.427 119.893C198.414 119.892 198.405 119.89 198.392 119.889C198.402 119.871 198.414 119.854 198.422 119.834C198.526 119.578 198.458 119.29 198.226 119.169C198.003 119.052 197.685 119.179 197.563 119.473Z" fill="black"/>
<path d="M200.827 118.846L200.791 118.907C200.783 118.897 200.778 118.89 200.769 118.878C200.653 118.756 200.479 118.682 200.411 118.75C200.344 118.819 200.412 118.998 200.532 119.114C200.59 119.169 200.646 119.199 200.697 119.211C200.293 119.321 199.772 119.809 199.57 120.316C199.454 120.567 199.446 120.78 199.473 120.946C199.485 121.014 199.465 121.086 199.419 121.138C199.294 121.276 199.199 121.464 199.196 121.681C199.188 121.978 199.348 122.247 199.603 122.368C200.072 122.586 200.59 122.323 200.718 121.895C200.753 121.787 200.758 121.676 200.739 121.569C200.726 121.505 200.755 121.444 200.808 121.407C200.94 121.317 201.037 121.169 201.134 120.963C201.3 120.544 201.402 119.992 201.312 119.594C201.345 119.633 201.398 119.669 201.471 119.698C201.63 119.759 201.816 119.77 201.845 119.699C201.873 119.629 201.739 119.499 201.584 119.431C201.572 119.427 201.563 119.424 201.551 119.421C201.565 119.405 201.579 119.39 201.592 119.373C201.747 119.143 201.741 118.847 201.539 118.682C201.345 118.522 201.007 118.583 200.827 118.846Z" fill="black"/>
<path d="M200.817 115.66C200.798 115.674 200.782 115.691 200.765 115.707C200.761 115.695 200.758 115.686 200.753 115.672C200.683 115.52 200.544 115.394 200.461 115.436C200.378 115.478 200.385 115.669 200.46 115.819C200.495 115.889 200.537 115.936 200.581 115.964C200.154 115.922 199.528 116.202 199.139 116.572C198.945 116.771 198.841 116.958 198.803 117.123C198.786 117.189 198.744 117.255 198.68 117.285C198.51 117.371 198.346 117.512 198.261 117.721C198.145 118.006 198.192 118.313 198.395 118.512C198.767 118.866 199.339 118.796 199.603 118.457C199.675 118.372 199.719 118.273 199.741 118.168C199.754 118.107 199.797 118.057 199.863 118.044C200.018 118.009 200.172 117.922 200.332 117.757C200.669 117.438 200.963 116.922 201.028 116.529C201.046 116.577 201.083 116.628 201.142 116.68C201.27 116.789 201.443 116.855 201.495 116.796C201.548 116.736 201.464 116.568 201.34 116.456C201.329 116.448 201.322 116.443 201.312 116.435L201.367 116.402C201.603 116.242 201.682 115.94 201.542 115.727C201.403 115.514 201.078 115.484 200.817 115.66Z" fill="black"/>
<path d="M205.508 113.79L205.439 113.806C205.441 113.794 205.443 113.784 205.446 113.771C205.46 113.604 205.4 113.427 205.304 113.425C205.209 113.423 205.119 113.594 205.112 113.761C205.108 113.838 205.123 113.9 205.148 113.945C204.793 113.711 204.086 113.666 203.561 113.844C203.294 113.929 203.12 114.052 203.014 114.19C202.97 114.245 202.902 114.279 202.83 114.276C202.638 114.27 202.438 114.34 202.264 114.475C202.03 114.669 201.936 114.974 202.014 115.234C202.17 115.725 202.71 115.918 203.116 115.734C203.221 115.688 203.304 115.612 203.375 115.533C203.417 115.485 203.481 115.464 203.544 115.478C203.698 115.508 203.877 115.494 204.098 115.424C204.529 115.277 205.021 114.969 205.266 114.651C205.259 114.701 205.266 114.763 205.293 114.836C205.353 114.993 205.47 115.133 205.543 115.106C205.616 115.078 205.624 114.892 205.572 114.735C205.567 114.723 205.563 114.715 205.558 114.704L205.622 114.7C205.903 114.676 206.121 114.447 206.11 114.198C206.098 113.942 205.828 113.761 205.508 113.79Z" fill="black"/>
<path d="M200.734 136.02L200.675 136.059C200.673 136.046 200.671 136.037 200.669 136.023C200.622 135.862 200.504 135.717 200.413 135.748C200.322 135.779 200.3 135.97 200.352 136.128C200.377 136.202 200.412 136.255 200.451 136.289C200.036 136.192 199.357 136.392 198.93 136.74C198.71 136.911 198.591 137.086 198.541 137.252C198.52 137.319 198.468 137.374 198.399 137.396C198.217 137.456 198.055 137.59 197.94 137.777C197.79 138.039 197.811 138.357 197.977 138.574C198.298 138.979 198.873 138.974 199.188 138.663C199.269 138.584 199.32 138.483 199.358 138.385C199.38 138.326 199.434 138.284 199.498 138.275C199.652 138.251 199.814 138.176 199.997 138.035C200.348 137.749 200.699 137.292 200.815 136.909C200.826 136.958 200.855 137.015 200.906 137.074C201.017 137.2 201.177 137.291 201.236 137.24C201.295 137.189 201.237 137.012 201.131 136.882C201.122 136.873 201.116 136.867 201.107 136.858L201.165 136.833C201.42 136.713 201.543 136.424 201.443 136.195C201.34 135.959 201.024 135.883 200.734 136.02Z" fill="black"/>
<path d="M210.398 114.116L210.337 114.125C210.34 114.113 210.342 114.104 210.346 114.091C210.371 113.926 210.335 113.746 210.262 113.727C210.189 113.71 210.098 113.866 210.063 114.029C210.047 114.105 210.048 114.167 210.062 114.216C209.778 113.934 209.277 113.686 208.793 113.595C208.548 113.55 208.345 113.567 208.185 113.628C208.121 113.651 208.047 113.645 207.985 113.608C207.824 113.503 207.615 113.452 207.39 113.486C207.084 113.522 206.839 113.747 206.771 114.008C206.652 114.508 207.011 114.943 207.446 114.993C207.558 115.001 207.667 114.994 207.77 114.957C207.83 114.935 207.897 114.951 207.947 114.997C208.064 115.104 208.235 115.187 208.494 115.234C209.002 115.332 209.722 115.214 210.045 114.932C210.027 114.98 210.02 115.042 210.036 115.119C210.067 115.282 210.185 115.44 210.283 115.424C210.382 115.41 210.414 115.224 210.372 115.063C210.368 115.05 210.364 115.041 210.36 115.03C210.384 115.032 210.408 115.033 210.432 115.032C210.763 115.016 210.999 114.782 210.96 114.526C210.922 114.282 210.671 114.102 210.398 114.116Z" fill="black"/>
<path d="M214.59 112.419L214.54 112.461C214.536 112.449 214.533 112.44 214.529 112.427C214.457 112.276 214.321 112.147 214.245 112.179C214.171 112.211 214.182 112.395 214.25 112.548C214.282 112.619 214.321 112.669 214.362 112.7C213.958 112.643 213.369 112.782 212.963 112.989C212.756 113.096 212.627 113.224 212.544 113.347C212.511 113.399 212.452 113.43 212.39 113.425C212.223 113.416 212.055 113.455 211.9 113.554C211.694 113.703 211.559 113.957 211.561 114.23C211.556 114.744 212.077 115.088 212.609 114.897C212.741 114.854 212.844 114.771 212.93 114.683C212.98 114.631 213.054 114.605 213.126 114.613C213.306 114.637 213.512 114.587 213.758 114.46C214.249 114.209 214.693 113.696 214.777 113.288C214.792 113.337 214.825 113.391 214.883 113.444C215.005 113.559 215.187 113.624 215.252 113.56C215.316 113.495 215.235 113.327 215.109 113.214C215.099 113.206 215.091 113.201 215.081 113.194L215.141 113.159C215.4 112.986 215.457 112.659 215.301 112.464C215.138 112.261 214.831 112.259 214.59 112.419Z" fill="black"/>
<path d="M194.532 126.792L194.552 126.856C194.539 126.855 194.529 126.854 194.516 126.853C194.346 126.857 194.172 126.932 194.174 127.02C194.171 127.051 194.199 127.028 194.262 127.034C194.322 127.034 194.403 127.067 194.487 127.07C194.565 127.077 194.629 127.072 194.678 127.056C194.41 127.305 194.164 127.816 194.088 128.26C194.049 128.485 194.067 128.659 194.125 128.801C194.149 128.859 194.141 128.924 194.098 128.969C193.988 129.093 193.918 129.247 193.917 129.428C193.913 129.67 194.05 129.914 194.275 130.079C194.684 130.403 195.286 130.183 195.435 129.659C195.474 129.532 195.473 129.406 195.451 129.289C195.439 129.221 195.46 129.149 195.507 129.099C195.626 128.976 195.717 128.793 195.762 128.531C195.85 128.016 195.716 127.348 195.405 127.013C195.455 127.028 195.52 127.03 195.596 127.007C195.677 126.978 195.761 126.943 195.81 126.866C195.859 126.794 195.877 126.681 195.857 126.631C195.825 126.558 195.636 126.567 195.481 126.635C195.469 126.641 195.461 126.646 195.45 126.652L195.442 126.589C195.383 126.314 195.128 126.129 194.875 126.176C194.622 126.222 194.468 126.498 194.532 126.792Z" fill="black"/>
<path d="M194.205 121.976L194.204 122.044C194.192 122.039 194.183 122.035 194.17 122.029C194.009 121.979 193.819 121.994 193.794 122.081C193.768 122.167 193.916 122.287 194.078 122.333C194.154 122.354 194.218 122.355 194.269 122.343C193.963 122.618 193.733 123.242 193.752 123.76C193.75 124.022 193.828 124.212 193.922 124.349C193.961 124.404 193.973 124.475 193.947 124.539C193.876 124.709 193.876 124.907 193.951 125.104C194.052 125.373 194.303 125.559 194.585 125.579C195.102 125.612 195.489 125.186 195.442 124.741C195.427 124.628 195.39 124.524 195.334 124.432C195.301 124.378 195.301 124.311 195.334 124.256C195.417 124.122 195.446 123.947 195.448 123.716C195.431 123.261 195.261 122.707 194.996 122.399C195.043 122.418 195.107 122.426 195.186 122.418C195.355 122.399 195.524 122.319 195.515 122.242C195.507 122.165 195.324 122.114 195.156 122.128C195.143 122.131 195.134 122.132 195.122 122.135L195.134 122.073C195.157 121.796 194.99 121.542 194.737 121.502C194.481 121.462 194.231 121.673 194.205 121.976Z" fill="black"/>
<path d="M195.744 117.361L195.714 117.422C195.705 117.413 195.699 117.406 195.69 117.395C195.564 117.283 195.386 117.22 195.326 117.29C195.266 117.359 195.35 117.53 195.478 117.638C195.538 117.688 195.597 117.714 195.648 117.724C195.44 117.784 195.231 117.939 195.04 118.139C194.842 118.336 194.68 118.585 194.588 118.832C194.488 119.08 194.464 119.282 194.509 119.447C194.526 119.514 194.509 119.586 194.462 119.637C194.341 119.773 194.241 119.956 194.249 120.172C194.25 120.465 194.417 120.729 194.669 120.842C195.142 121.048 195.663 120.787 195.772 120.365C195.805 120.258 195.81 120.15 195.79 120.045C195.778 119.983 195.803 119.922 195.853 119.884C195.97 119.788 196.083 119.649 196.169 119.438C196.246 119.227 196.299 118.981 196.329 118.742C196.351 118.5 196.334 118.256 196.286 118.069C196.322 118.105 196.376 118.139 196.452 118.163C196.614 118.215 196.799 118.211 196.823 118.138C196.847 118.065 196.702 117.944 196.544 117.888C196.531 117.885 196.522 117.883 196.51 117.88C196.522 117.863 196.536 117.848 196.546 117.829C196.679 117.586 196.648 117.294 196.431 117.15C196.221 117.01 195.892 117.091 195.744 117.361Z" fill="black"/>
<path d="M219.365 113.585L219.358 113.653C219.346 113.646 219.338 113.642 219.326 113.635C219.169 113.569 218.98 113.566 218.946 113.651C218.912 113.736 219.048 113.871 219.205 113.931C219.279 113.96 219.343 113.967 219.395 113.959C219.218 114.082 219.072 114.295 218.957 114.545C218.834 114.795 218.763 115.082 218.757 115.344C218.745 115.611 218.789 115.809 218.886 115.952C218.924 116.01 218.932 116.083 218.904 116.146C218.835 116.314 218.801 116.518 218.879 116.72C218.977 116.997 219.222 117.193 219.497 117.22C220.014 117.265 220.42 116.852 220.383 116.418C220.38 116.306 220.349 116.203 220.295 116.11C220.264 116.055 220.267 115.989 220.302 115.937C220.381 115.809 220.442 115.642 220.453 115.415C220.457 115.191 220.426 114.941 220.375 114.706C220.316 114.47 220.219 114.245 220.112 114.083C220.158 114.106 220.221 114.12 220.3 114.119C220.47 114.116 220.645 114.054 220.643 113.977C220.641 113.9 220.465 113.833 220.296 113.83C220.283 113.831 220.274 113.832 220.262 113.833C220.268 113.813 220.275 113.794 220.279 113.773C220.324 113.501 220.199 113.235 219.946 113.167C219.701 113.102 219.417 113.283 219.365 113.585Z" fill="black"/>
<path d="M199.099 113.803L199.047 113.847C199.043 113.835 199.04 113.826 199.036 113.814C198.964 113.663 198.825 113.536 198.742 113.575C198.66 113.614 198.669 113.801 198.744 113.95C198.779 114.019 198.822 114.067 198.865 114.096C198.455 114.062 197.828 114.31 197.451 114.674C197.252 114.848 197.158 115.036 197.12 115.198C197.106 115.265 197.06 115.323 196.995 115.348C196.822 115.417 196.658 115.542 196.569 115.742C196.442 116.007 196.476 116.315 196.655 116.524C196.992 116.907 197.581 116.894 197.858 116.554C197.936 116.473 197.988 116.377 198.017 116.274C198.034 116.214 198.083 116.169 198.146 116.156C198.301 116.124 198.447 116.031 198.625 115.877C198.955 115.557 199.262 115.063 199.313 114.66C199.331 114.707 199.367 114.759 199.427 114.81C199.555 114.92 199.729 114.989 199.782 114.931C199.835 114.873 199.751 114.707 199.626 114.594C199.615 114.586 199.608 114.581 199.598 114.573L199.653 114.541C199.88 114.374 199.953 114.074 199.813 113.867C199.668 113.653 199.346 113.621 199.099 113.803Z" fill="black"/>
<path d="M203.542 111.698L203.477 111.723C203.478 111.71 203.478 111.7 203.479 111.686C203.469 111.52 203.386 111.353 203.295 111.361C203.204 111.37 203.143 111.55 203.158 111.715C203.165 111.793 203.187 111.852 203.216 111.894C202.843 111.703 202.165 111.721 201.679 111.931C201.43 112.031 201.27 112.158 201.179 112.302C201.141 112.36 201.078 112.397 201.008 112.398C200.822 112.402 200.626 112.464 200.47 112.614C200.255 112.812 200.172 113.11 200.259 113.369C200.426 113.848 200.981 114.049 201.372 113.831C201.474 113.781 201.559 113.71 201.623 113.623C201.661 113.572 201.724 113.547 201.788 113.556C201.941 113.575 202.121 113.552 202.339 113.466C202.76 113.283 203.223 112.925 203.423 112.58C203.423 112.631 203.438 112.692 203.474 112.761C203.552 112.909 203.687 113.033 203.757 112.996C203.827 112.959 203.81 112.774 203.737 112.625C203.73 112.614 203.725 112.606 203.719 112.596L203.781 112.584C204.054 112.512 204.237 112.27 204.183 112.02C204.131 111.775 203.84 111.62 203.542 111.698Z" fill="black"/>
<path d="M208.478 111.419L208.409 111.416C208.414 111.404 208.419 111.396 208.425 111.384C208.483 111.227 208.476 111.041 208.388 111.013C208.3 110.984 208.171 111.124 208.117 111.282C208.092 111.355 208.089 111.419 208.099 111.469C207.832 111.15 207.196 110.91 206.661 110.913C206.391 110.911 206.193 110.981 206.051 111.07C205.994 111.108 205.92 111.118 205.855 111.092C205.681 111.025 205.476 111.025 205.272 111.095C204.992 111.187 204.805 111.454 204.787 111.723C204.762 112.238 205.194 112.597 205.64 112.561C205.753 112.551 205.857 112.508 205.95 112.454C206.005 112.422 206.072 112.424 206.128 112.457C206.262 112.541 206.436 112.576 206.668 112.578C207.125 112.576 207.689 112.42 208.012 112.179C207.991 112.225 207.98 112.287 207.985 112.365C207.997 112.531 208.07 112.699 208.149 112.693C208.227 112.687 208.286 112.511 208.28 112.345C208.278 112.332 208.276 112.323 208.275 112.311C208.295 112.317 208.315 112.323 208.336 112.326C208.615 112.359 208.886 112.21 208.936 111.959C208.985 111.713 208.787 111.458 208.478 111.419Z" fill="black"/>
<path d="M212.874 111.034L212.814 111.063C212.813 111.05 212.813 111.041 212.812 111.027C212.783 110.863 212.684 110.705 212.6 110.719C212.516 110.733 212.479 110.915 212.508 111.079C212.521 111.155 212.548 111.213 212.58 111.253C212.202 111.094 211.57 111.125 211.139 111.263C211.033 111.297 210.944 111.336 210.892 111.373C210.851 111.397 210.866 111.405 210.859 111.426C210.856 111.446 210.809 111.467 210.789 111.491C210.747 111.531 210.689 111.537 210.641 111.511C210.511 111.435 210.369 111.405 210.196 111.436C209.962 111.479 209.715 111.654 209.603 111.905C209.396 112.367 209.67 112.895 210.261 112.943C210.406 112.954 210.548 112.928 210.67 112.876C210.741 112.844 210.825 112.847 210.895 112.876C210.944 112.893 210.972 112.914 211.05 112.919C211.123 112.925 211.225 112.922 211.276 112.919C211.409 112.912 211.53 112.889 211.663 112.847C212.175 112.682 212.663 112.287 212.841 111.92C212.844 111.971 212.863 112.031 212.906 112.097C212.997 112.238 213.15 112.347 213.222 112.302C213.295 112.257 213.26 112.074 213.169 111.934C213.161 111.924 213.155 111.916 213.147 111.907L213.211 111.889C213.488 111.784 213.635 111.508 213.543 111.272C213.451 111.035 213.15 110.929 212.874 111.034Z" fill="black"/>
<path d="M191.543 123.363L191.558 123.435C191.545 123.433 191.536 123.431 191.522 123.428C191.352 123.409 191.171 123.467 191.167 123.566C191.163 123.664 191.336 123.759 191.505 123.771C191.584 123.777 191.647 123.764 191.694 123.74C191.45 124.1 191.417 124.839 191.522 125.308C191.577 125.561 191.665 125.739 191.778 125.862C191.825 125.912 191.844 125.983 191.825 126.048C191.777 126.222 191.784 126.416 191.862 126.605C191.972 126.862 192.212 127.048 192.488 127.092C193.004 127.189 193.428 126.71 193.337 126.169C193.316 126.034 193.266 125.914 193.196 125.812C193.155 125.751 193.146 125.675 193.169 125.607C193.228 125.443 193.24 125.232 193.182 124.963C193.059 124.406 192.737 123.902 192.415 123.636C192.466 123.645 192.53 123.639 192.605 123.612C192.765 123.555 192.91 123.435 192.884 123.357C192.857 123.279 192.667 123.266 192.506 123.317C192.494 123.322 192.485 123.326 192.474 123.331L192.471 123.264C192.43 122.97 192.226 122.736 191.962 122.747C191.711 122.757 191.497 123.035 191.543 123.363Z" fill="black"/>
<path d="M192.321 118.171L192.3 118.241C192.29 118.233 192.282 118.226 192.272 118.217C192.131 118.122 191.945 118.087 191.894 118.172C191.843 118.255 191.95 118.42 192.092 118.51C192.159 118.553 192.221 118.571 192.273 118.571C191.882 118.771 191.48 119.373 191.358 119.932C191.285 120.211 191.316 120.436 191.373 120.603C191.398 120.671 191.392 120.75 191.351 120.813C191.239 120.98 191.205 121.197 191.232 121.427C191.267 121.739 191.501 121.99 191.768 122.06C192.278 122.184 192.714 121.806 192.77 121.343C192.782 121.224 192.759 121.108 192.729 121.002C192.71 120.939 192.726 120.87 192.771 120.82C192.885 120.7 192.951 120.528 193.016 120.291C193.117 119.823 193.106 119.206 192.956 118.821C192.997 118.853 193.055 118.878 193.134 118.89C193.302 118.915 193.488 118.878 193.502 118.796C193.516 118.714 193.356 118.612 193.19 118.582C193.177 118.581 193.167 118.58 193.155 118.58L193.185 118.519C193.3 118.242 193.224 117.936 192.989 117.826C192.759 117.717 192.448 117.866 192.321 118.171Z" fill="black"/>
<path d="M195.258 113.825L195.211 113.881C195.205 113.87 195.2 113.862 195.194 113.849C195.098 113.712 194.936 113.614 194.858 113.67C194.778 113.725 194.822 113.919 194.921 114.054C194.968 114.118 195.018 114.157 195.066 114.176C194.633 114.224 194.04 114.613 193.699 115.059C193.532 115.287 193.454 115.491 193.437 115.664C193.43 115.735 193.39 115.803 193.326 115.841C193.163 115.947 193.027 116.118 192.953 116.332C192.845 116.622 192.938 116.947 193.142 117.13C193.537 117.471 194.103 117.329 194.37 116.927C194.435 116.823 194.472 116.709 194.486 116.595C194.497 116.529 194.543 116.473 194.607 116.446C194.762 116.381 194.911 116.257 195.06 116.053C195.364 115.657 195.606 115.072 195.608 114.655C195.634 114.699 195.679 114.744 195.747 114.783C195.895 114.867 196.078 114.892 196.127 114.822C196.175 114.75 196.063 114.6 195.918 114.513C195.906 114.508 195.897 114.504 195.886 114.498L195.939 114.453C196.154 114.234 196.181 113.91 196 113.729C195.819 113.549 195.487 113.592 195.258 113.825Z" fill="black"/>
<path d="M191.918 128.789L191.93 128.861C191.918 128.858 191.908 128.856 191.894 128.852C191.726 128.831 191.543 128.885 191.534 128.98C191.523 129.075 191.7 129.171 191.868 129.188C191.948 129.197 192.011 129.185 192.058 129.163C191.806 129.512 191.708 130.206 191.821 130.752C191.884 131.027 191.987 131.219 192.108 131.347C192.157 131.399 192.182 131.473 192.169 131.546C192.141 131.735 192.18 131.948 192.294 132.146C192.443 132.417 192.753 132.566 193.027 132.537C193.55 132.474 193.817 131.965 193.689 131.502C193.654 131.385 193.591 131.283 193.514 131.196C193.471 131.144 193.459 131.073 193.48 131.009C193.534 130.852 193.539 130.66 193.483 130.415C193.383 129.93 193.099 129.363 192.783 129.084C192.834 129.095 192.898 129.091 192.973 129.067C193.135 129.015 193.276 128.897 193.255 128.815C193.232 128.732 193.044 128.714 192.881 128.763C192.868 128.768 192.86 128.772 192.848 128.776L192.849 128.708C192.825 128.404 192.597 128.168 192.339 128.182C192.082 128.194 191.893 128.467 191.918 128.789Z" fill="black"/>
<path d="M199.375 110.552L199.312 110.591C199.31 110.579 199.308 110.569 199.306 110.556C199.258 110.396 199.135 110.253 199.039 110.285C198.946 110.318 198.925 110.515 198.979 110.673C199.004 110.748 199.04 110.8 199.08 110.833C198.651 110.754 197.951 110.963 197.507 111.309C197.276 111.478 197.145 111.65 197.084 111.815C197.059 111.882 197.002 111.936 196.932 111.956C196.741 112.008 196.564 112.128 196.435 112.313C196.256 112.562 196.234 112.881 196.374 113.122C196.634 113.565 197.237 113.611 197.613 113.284C197.706 113.199 197.78 113.106 197.829 113C197.858 112.939 197.918 112.896 197.986 112.886C198.151 112.861 198.332 112.782 198.537 112.632C198.932 112.324 199.327 111.846 199.452 111.448C199.464 111.498 199.493 111.554 199.546 111.611C199.661 111.735 199.828 111.815 199.892 111.761C199.956 111.709 199.897 111.533 199.787 111.405C199.777 111.396 199.77 111.39 199.761 111.382L199.824 111.356C200.092 111.215 200.222 110.918 200.115 110.693C200.003 110.459 199.672 110.396 199.375 110.552Z" fill="black"/>
<path d="M204.52 109.18L204.447 109.191C204.451 109.179 204.453 109.169 204.457 109.156C204.482 108.99 204.432 108.811 204.336 108.802C204.239 108.792 204.136 108.957 204.114 109.122C204.104 109.199 204.114 109.261 204.136 109.309C203.787 109.051 203.076 108.94 202.512 109.05C202.226 109.1 202.028 109.212 201.896 109.329C201.842 109.378 201.765 109.402 201.691 109.39C201.495 109.367 201.274 109.407 201.071 109.521C200.796 109.686 200.648 109.983 200.686 110.252C200.767 110.763 201.292 111.013 201.75 110.881C201.867 110.846 201.969 110.786 202.055 110.708C202.107 110.666 202.179 110.654 202.244 110.675C202.402 110.73 202.591 110.727 202.841 110.684C203.327 110.59 203.907 110.323 204.199 110.021C204.186 110.071 204.188 110.134 204.211 110.208C204.26 110.369 204.377 110.517 204.462 110.494C204.546 110.471 204.569 110.286 204.524 110.126C204.518 110.114 204.515 110.105 204.511 110.094L204.58 110.095C204.889 110.069 205.136 109.867 205.129 109.611C205.122 109.362 204.85 109.153 204.52 109.18Z" fill="black"/>
<path d="M200.604 107.346L200.536 107.373C200.536 107.36 200.536 107.35 200.537 107.337C200.523 107.17 200.432 107.006 200.336 107.019C200.24 107.032 200.178 107.215 200.196 107.381C200.204 107.458 200.228 107.517 200.26 107.558C199.86 107.386 199.143 107.438 198.619 107.672C198.353 107.785 198.186 107.939 198.084 108.082C198.043 108.142 197.975 108.183 197.9 108.188C197.704 108.21 197.498 108.298 197.328 108.455C197.098 108.677 197.023 109 197.123 109.253C197.321 109.732 197.891 109.857 198.306 109.625C198.412 109.565 198.497 109.483 198.562 109.388C198.603 109.336 198.67 109.308 198.738 109.314C198.906 109.332 199.089 109.286 199.321 109.188C199.772 108.987 200.274 108.596 200.488 108.237C200.488 108.288 200.504 108.349 200.544 108.417C200.629 108.561 200.778 108.679 200.855 108.638C200.932 108.597 200.911 108.412 200.829 108.266C200.821 108.255 200.815 108.248 200.808 108.238L200.876 108.222C201.171 108.129 201.365 107.876 201.297 107.628C201.232 107.387 200.919 107.246 200.604 107.346Z" fill="black"/>
<path d="M209.741 109.369L209.67 109.371C209.675 109.359 209.679 109.35 209.684 109.337C209.729 109.176 209.703 108.992 209.616 108.97C209.529 108.949 209.411 109.098 209.364 109.258C209.342 109.333 209.342 109.396 209.355 109.446C209.056 109.146 208.431 108.903 207.895 108.862C207.623 108.842 207.416 108.878 207.259 108.954C207.196 108.984 207.118 108.986 207.054 108.952C206.884 108.863 206.674 108.825 206.435 108.869C206.132 108.935 205.892 109.153 205.826 109.42C205.699 109.92 206.122 110.355 206.602 110.371C206.727 110.378 206.848 110.357 206.96 110.315C207.026 110.289 207.101 110.299 207.159 110.339C207.299 110.436 207.494 110.502 207.764 110.523C208.296 110.563 208.965 110.419 209.307 110.159C209.287 110.207 209.278 110.269 209.29 110.346C209.314 110.512 209.416 110.675 209.51 110.664C209.604 110.653 209.652 110.473 209.625 110.308C209.622 110.295 209.619 110.286 209.616 110.274L209.687 110.284C210.013 110.303 210.287 110.106 210.293 109.853C210.3 109.6 210.055 109.387 209.741 109.369Z" fill="black"/>
<path d="M178.946 130.165C178.918 130.26 178.829 130.321 178.73 130.334C177.331 130.495 176.515 130.678 175.892 131.005C175.281 131.299 174.922 131.68 174.927 131.797C174.933 131.915 175.34 132.279 176.144 132.339C176.345 132.362 176.563 132.331 176.803 132.296C177.043 132.264 177.297 132.189 177.556 132.064C177.818 131.951 178.085 131.798 178.335 131.578C178.594 131.379 178.83 131.111 179.037 130.8C179.096 130.713 179.201 130.665 179.306 130.666C179.682 130.662 180.088 130.611 180.244 130.492C180.393 130.36 180.286 130.199 179.738 129.946C179.532 129.37 179.361 129.268 179.254 129.38C179.135 129.484 179.042 129.805 178.946 130.165Z" fill="black"/>
<path d="M182.008 125.544C182.051 125.634 182.039 125.742 181.977 125.819C181.037 126.872 180.617 127.599 180.377 128.236C180.149 128.855 180.162 129.383 180.247 129.465C180.332 129.549 180.877 129.529 181.504 129.023C182.125 128.541 182.749 127.435 182.523 125.962C182.503 125.858 182.537 125.752 182.616 125.685C183.216 125.19 183.643 124.538 182.462 124.868C181.393 124.269 181.706 124.895 182.008 125.544Z" fill="black"/>
<path d="M181.731 119.942C181.813 119.995 181.856 120.094 181.843 120.193C181.639 121.57 181.682 122.437 181.897 123.11C182.077 123.763 182.431 124.168 182.551 124.18C182.67 124.191 183.073 123.845 183.279 123.093C183.462 122.367 183.388 121.149 182.381 120.023C182.311 119.945 182.286 119.836 182.319 119.736C182.526 119.009 182.553 118.203 181.732 119.134C180.53 119.208 181.094 119.569 181.731 119.942Z" fill="black"/>
<path d="M178.096 115.765C178.194 115.747 178.303 115.776 178.356 115.864C179.148 117.013 179.684 117.63 180.262 118.024C180.522 118.232 180.787 118.362 181.001 118.439C181.2 118.525 181.355 118.547 181.409 118.517C181.46 118.489 181.523 118.347 181.544 118.114C181.551 117.889 181.506 117.574 181.362 117.201C181.187 116.853 180.924 116.432 180.461 116.09C180.017 115.736 179.38 115.465 178.634 115.381C178.532 115.363 178.43 115.314 178.383 115.22C178.032 114.525 177.453 113.973 177.533 115.177C176.714 116.077 177.387 115.9 178.096 115.765Z" fill="black"/>
<path d="M172.499 115.126C172.562 115.049 172.665 115.007 172.763 115.034C174.126 115.408 174.994 115.472 175.686 115.393C176.362 115.301 176.826 115.079 176.866 114.949C176.899 114.854 176.638 114.357 175.898 114.052C175.186 113.731 173.921 113.649 172.654 114.489C172.566 114.547 172.455 114.569 172.358 114.529C171.634 114.218 170.829 114.164 171.682 115.034C171.647 116.24 172.044 115.677 172.499 115.126Z" fill="black"/>
<path d="M167.941 118.285C167.933 118.188 167.985 118.094 168.072 118.044C169.298 117.361 169.969 116.881 170.426 116.368C170.864 115.863 171.079 115.409 171.022 115.282C170.998 115.229 170.863 115.159 170.631 115.125C170.399 115.089 170.065 115.087 169.687 115.222C168.936 115.444 167.892 116.244 167.606 117.729C167.587 117.832 167.514 117.919 167.414 117.956C166.695 118.24 166.044 118.728 167.292 118.781C168.101 119.664 168.027 119 167.941 118.285Z" fill="black"/>
<path d="M166.589 123.706C166.523 123.631 166.508 123.523 166.548 123.432C167.135 122.152 167.324 121.304 167.304 120.611C167.302 119.939 167.109 119.458 166.998 119.411C166.888 119.365 166.376 119.569 165.972 120.248C165.588 120.909 165.336 122.1 165.982 123.444C166.029 123.537 166.023 123.649 165.965 123.734C165.74 124.046 165.568 124.393 165.593 124.58C165.611 124.771 165.806 124.78 166.338 124.479C166.93 124.641 167.114 124.564 167.087 124.407C167.053 124.248 166.82 123.984 166.589 123.706Z" fill="black"/>
<path d="M168.53 128.924C168.431 128.904 168.353 128.828 168.329 128.735C168.037 127.385 167.752 126.592 167.367 126.011C166.985 125.449 166.575 125.14 166.439 125.165C166.338 125.182 166.002 125.629 166.046 126.41C166.064 127.166 166.525 128.355 167.883 129.076C167.979 129.123 168.044 129.215 168.051 129.318C168.067 129.704 168.165 130.083 168.306 130.22C168.446 130.362 168.599 130.245 168.818 129.679C169.379 129.438 169.469 129.261 169.352 129.159C169.23 129.057 168.882 129.006 168.53 128.924Z" fill="black"/>
<path d="M173.479 131.467C173.394 131.516 173.285 131.511 173.201 131.456C172.023 130.683 171.277 130.319 170.599 130.165C169.944 130.009 169.43 130.038 169.346 130.138C169.277 130.219 169.319 130.777 169.901 131.336C170.454 131.881 171.648 132.418 173.123 132.006C173.225 131.977 173.336 132.004 173.414 132.077C173.994 132.567 174.719 132.946 174.221 131.815C174.674 130.722 174.096 131.059 173.479 131.467Z" fill="black"/>
<path d="M178.948 135.537C178.896 135.62 178.801 135.663 178.705 135.651C178.028 135.567 177.466 135.5 177.008 135.571C176.538 135.584 176.157 135.687 175.845 135.825C175.221 136.063 174.871 136.434 174.874 136.561C174.877 136.671 175.256 137.041 175.986 137.175C176.348 137.222 176.798 137.212 177.304 137.092C177.796 136.916 178.361 136.677 178.878 136.179C178.951 136.11 179.056 136.085 179.151 136.117C179.5 136.233 179.874 136.324 180.043 136.264C180.211 136.195 180.167 136.006 179.745 135.587C179.731 134.98 179.611 134.826 179.472 134.897C179.327 134.962 179.136 135.233 178.948 135.537Z" fill="black"/>
<path d="M183.6 132.706C183.588 132.799 183.519 132.877 183.425 132.904C183.091 133.001 182.808 133.112 182.555 133.224C182.288 133.318 182.059 133.425 181.861 133.54C181.475 133.788 181.15 133.994 180.928 134.246C180.706 134.498 180.551 134.734 180.45 134.916C180.355 135.104 180.326 135.253 180.353 135.308C180.378 135.36 180.513 135.432 180.735 135.475C180.962 135.524 181.27 135.526 181.623 135.419C181.975 135.314 182.409 135.158 182.789 134.793C182.985 134.619 183.18 134.414 183.365 134.177C183.534 133.923 183.686 133.627 183.818 133.303C183.855 133.212 183.941 133.148 184.044 133.137C184.776 133.035 185.481 132.759 184.316 132.386C183.738 131.337 183.654 132 183.6 132.706Z" fill="black"/>
<path d="M186.472 128.125C186.507 128.215 186.484 128.317 186.417 128.384C185.895 128.84 185.557 129.259 185.291 129.635C185.011 130.001 184.889 130.374 184.778 130.68C184.569 131.294 184.659 131.812 184.756 131.888C184.847 131.96 185.356 131.896 185.935 131.423C186.228 131.19 186.47 130.817 186.691 130.352C186.895 129.88 186.991 129.268 186.947 128.577C186.935 128.477 186.978 128.381 187.062 128.326C187.677 127.927 188.233 127.404 186.997 127.539C186.043 126.831 186.213 127.462 186.472 128.125Z" fill="black"/>
<path d="M187.279 122.765C187.344 122.838 187.359 122.941 187.32 123.027C187.018 123.641 186.823 124.158 186.757 124.615C186.644 125.065 186.643 125.455 186.696 125.787C186.767 126.441 187.036 126.87 187.162 126.901C187.27 126.928 187.737 126.668 188.059 126.011C188.202 125.682 188.312 125.256 188.329 124.749C188.301 124.24 188.197 123.648 187.885 123.02C187.838 122.932 187.844 122.827 187.903 122.748C188.335 122.162 188.668 121.491 187.559 122.034C186.411 121.691 186.798 122.233 187.279 122.765Z" fill="black"/>
<path d="M186.142 117.47C186.229 117.514 186.281 117.605 186.276 117.698C186.225 118.374 186.228 118.92 186.316 119.369C186.37 119.827 186.506 120.192 186.673 120.486C186.951 121.081 187.371 121.392 187.495 121.379C187.61 121.367 187.941 120.969 188.034 120.242C188.051 119.885 188.003 119.447 187.84 118.963C187.641 118.49 187.328 117.965 186.801 117.49C186.724 117.424 186.69 117.324 186.716 117.228C186.809 116.879 186.867 116.51 186.799 116.346C186.722 116.184 186.535 116.24 186.132 116.687C185.523 116.741 185.374 116.869 185.452 117.003C185.521 117.144 185.819 117.308 186.142 117.47Z" fill="black"/>
<path d="M182.933 113.115C183.029 113.119 183.113 113.182 183.148 113.271C183.657 114.511 184.151 115.207 184.687 115.622C185.222 116.024 185.684 116.179 185.807 116.112C185.895 116.065 186.09 115.542 185.831 114.86C185.692 114.529 185.513 114.106 185.114 113.762C184.922 113.583 184.699 113.408 184.444 113.245C184.186 113.085 183.863 112.967 183.527 112.859C183.431 112.83 183.36 112.751 183.342 112.651C183.196 111.931 182.857 111.272 182.561 112.433C181.531 113.077 182.222 113.1 182.933 113.115Z" fill="black"/>
<path d="M178.079 110.625C178.169 110.584 178.274 110.598 178.346 110.658C179.348 111.598 180.133 111.949 180.794 112.102C181.434 112.261 181.961 112.128 182.025 112.038C182.098 111.934 181.991 111.449 181.468 110.917C180.953 110.403 179.92 109.927 178.503 110.125C178.403 110.145 178.301 110.11 178.24 110.033C177.786 109.465 177.211 108.964 177.443 110.16C176.796 111.15 177.424 110.933 178.079 110.625Z" fill="black"/>
<path d="M172.578 110.268C172.645 110.197 172.748 110.172 172.839 110.203C173.489 110.454 174.026 110.579 174.493 110.625C174.959 110.696 175.355 110.664 175.688 110.584C176.345 110.476 176.762 110.165 176.783 110.043C176.803 109.931 176.501 109.51 175.809 109.232C175.463 109.121 175.022 109.05 174.504 109.076C173.988 109.127 173.391 109.301 172.781 109.65C172.695 109.705 172.588 109.71 172.501 109.66C171.864 109.296 171.141 109.038 171.81 110.066C171.585 111.219 172.087 110.79 172.578 110.268Z" fill="black"/>
<path d="M167.396 112.032C167.428 111.942 167.513 111.88 167.609 111.872C168.281 111.793 168.847 111.754 169.277 111.592C169.723 111.467 170.079 111.31 170.352 111.109C170.909 110.75 171.183 110.327 171.154 110.201C171.131 110.096 170.686 109.796 169.939 109.814C169.574 109.844 169.126 109.927 168.661 110.166C168.214 110.44 167.705 110.783 167.32 111.395C167.264 111.478 167.166 111.524 167.065 111.512C166.303 111.41 165.583 111.563 166.616 112.17C166.947 113.339 167.153 112.669 167.396 112.032Z" fill="black"/>
<path d="M163.548 115.848C163.533 115.752 163.572 115.653 163.662 115.609C164.281 115.279 164.68 114.931 165.041 114.637C165.211 114.482 165.35 114.325 165.465 114.168C165.586 114.017 165.696 113.879 165.778 113.735C165.947 113.454 166.032 113.177 166.075 112.967C166.126 112.765 166.12 112.615 166.082 112.567C166.045 112.522 165.896 112.481 165.666 112.488C165.444 112.503 165.154 112.584 164.823 112.754C164.66 112.842 164.48 112.946 164.313 113.092C164.153 113.243 163.992 113.423 163.839 113.633C163.513 114.037 163.304 114.63 163.185 115.309C163.166 115.403 163.109 115.493 163.015 115.528C162.336 115.798 161.687 116.204 162.92 116.318C163.712 117.204 163.669 116.553 163.548 115.848Z" fill="black"/>
<path d="M161.73 120.942C161.678 120.86 161.681 120.756 161.735 120.677C162.132 120.123 162.423 119.653 162.573 119.22C162.768 118.801 162.841 118.42 162.851 118.085C162.924 117.439 162.731 116.958 162.618 116.905C162.514 116.856 162.021 117.025 161.558 117.606C161.355 117.904 161.166 118.305 161.052 118.804C160.984 119.311 160.972 119.916 161.177 120.589C161.208 120.684 161.183 120.787 161.111 120.855C160.582 121.361 160.135 121.97 161.324 121.616C162.395 122.14 162.109 121.545 161.73 120.942Z" fill="black"/>
<path d="M161.885 126.367C161.807 126.306 161.774 126.208 161.797 126.116C161.999 125.46 162.079 124.922 162.085 124.461C162.116 123.997 162.049 123.611 161.938 123.291C161.76 122.655 161.409 122.28 161.282 122.273C161.168 122.265 160.764 122.603 160.556 123.3C160.473 123.647 160.44 124.084 160.512 124.586C160.609 125.084 160.836 125.651 161.241 126.219C161.303 126.298 161.317 126.403 161.273 126.491C160.955 127.143 160.751 127.869 161.742 127.134C162.932 127.264 162.455 126.805 161.885 126.367Z" fill="black"/>
<path d="M164.057 131.318C163.963 131.292 163.894 131.214 163.88 131.12C163.816 130.781 163.76 130.486 163.71 130.22C163.65 129.949 163.572 129.713 163.48 129.505C163.328 129.072 163.135 128.738 162.912 128.484C162.51 127.962 162.053 127.728 161.929 127.766C161.822 127.797 161.558 128.254 161.626 128.983C161.682 129.338 161.805 129.767 162.074 130.207C162.223 130.42 162.404 130.637 162.62 130.849C162.827 131.066 163.093 131.265 163.413 131.435C163.501 131.484 163.555 131.576 163.55 131.676C163.498 132.425 163.69 133.127 164.245 132.074C165.41 131.678 164.725 131.513 164.057 131.318Z" fill="black"/>
<path d="M168.18 134.845C168.081 134.87 167.984 134.83 167.932 134.746C167.551 134.169 167.179 133.792 166.854 133.461C166.686 133.304 166.516 133.18 166.35 133.078C166.196 132.96 166.042 132.868 165.892 132.796C165.283 132.52 164.778 132.49 164.686 132.571C164.599 132.648 164.546 133.18 164.954 133.793C165.053 133.948 165.176 134.111 165.327 134.274C165.492 134.421 165.686 134.566 165.91 134.701C166.344 134.993 166.956 135.167 167.659 135.232C167.756 135.244 167.846 135.304 167.891 135.388C168.212 136.033 168.673 136.64 168.702 135.425C169.548 134.588 168.89 134.677 168.18 134.845Z" fill="black"/>
<path d="M173.486 136.237C173.407 136.295 173.301 136.3 173.217 136.254C172.622 135.91 172.122 135.668 171.672 135.552C171.232 135.395 170.841 135.353 170.5 135.369C169.842 135.34 169.365 135.569 169.319 135.682C169.276 135.789 169.484 136.254 170.109 136.67C170.428 136.845 170.851 136.999 171.368 137.072C171.89 137.102 172.508 137.061 173.174 136.807C173.267 136.769 173.374 136.784 173.45 136.849C174.008 137.323 174.668 137.709 174.204 136.576C174.642 135.485 174.066 135.814 173.486 136.237Z" fill="black"/>
<path d="M177.394 133.635C177.337 133.715 177.236 133.755 177.14 133.739C176.446 133.584 175.901 133.542 175.423 133.514C174.951 133.52 174.556 133.558 174.222 133.644C173.561 133.84 173.15 134.111 173.135 134.25C173.128 134.307 173.206 134.437 173.38 134.587C173.551 134.743 173.82 134.909 174.19 135C174.558 135.105 175.026 135.166 175.565 135.057C176.102 134.983 176.705 134.713 177.281 134.276C177.361 134.209 177.47 134.188 177.566 134.224C178.287 134.508 179.061 134.557 178.204 133.704C178.205 132.498 177.816 133.069 177.394 133.635Z" fill="black"/>
<path d="M182.095 130.689C182.091 130.786 182.022 130.867 181.93 130.903C180.639 131.42 179.909 131.868 179.445 132.376C178.978 132.849 178.798 133.344 178.843 133.446C178.894 133.561 179.39 133.741 180.148 133.544C180.523 133.447 180.938 133.216 181.351 132.864C181.545 132.672 181.737 132.448 181.917 132.192C182.095 131.935 182.226 131.61 182.348 131.276C182.381 131.18 182.467 131.11 182.569 131.089C183.292 130.91 184.015 130.577 182.799 130.301C182.155 129.305 182.095 129.959 182.095 130.689Z" fill="black"/>
<path d="M184.563 125.721C184.607 125.81 184.599 125.917 184.535 125.992C184.057 126.52 183.775 126.99 183.534 127.4C183.328 127.822 183.184 128.186 183.12 128.519C183.002 129.185 183.075 129.668 183.192 129.744C183.275 129.8 183.842 129.714 184.345 129.147C184.872 128.607 185.334 127.545 185.085 126.126C185.065 126.027 185.094 125.922 185.172 125.857C185.737 125.374 186.229 124.774 185.017 125.058C183.988 124.447 184.229 125.073 184.563 125.721Z" fill="black"/>
<path d="M184.63 120.174C184.708 120.235 184.754 120.333 184.72 120.429C184.62 120.768 184.552 121.07 184.513 121.347C184.468 121.624 184.419 121.88 184.413 122.114C184.412 122.581 184.417 122.976 184.513 123.306C184.686 123.964 184.977 124.371 185.113 124.387C185.216 124.401 185.676 124.083 185.895 123.366C186.121 122.669 186.135 121.509 185.275 120.321C185.223 120.237 185.197 120.131 185.24 120.039C185.539 119.359 185.699 118.595 184.746 119.384C183.547 119.294 184.048 119.734 184.63 120.174Z" fill="black"/>
<path d="M181.965 115.357C182.063 115.369 182.145 115.438 182.175 115.53C182.579 116.842 183.022 117.564 183.476 118.075C183.951 118.557 184.394 118.789 184.521 118.744C184.621 118.709 184.888 118.217 184.716 117.476C184.592 116.739 183.96 115.708 182.586 115.148C182.489 115.11 182.419 115.024 182.406 114.922C182.303 114.173 181.971 113.481 181.627 114.636C180.556 115.219 181.252 115.278 181.965 115.357Z" fill="black"/>
<path d="M177.058 112.716C177.15 112.671 177.258 112.683 177.331 112.753C178.398 113.651 179.161 114.062 179.843 114.212C180.492 114.385 181.012 114.31 181.091 114.208C181.159 114.123 181.085 113.595 180.545 113.043C180.008 112.525 178.944 111.969 177.477 112.217C177.377 112.227 177.271 112.195 177.205 112.12C176.718 111.564 176.101 111.077 176.387 112.268C175.762 113.276 176.395 113.041 177.058 112.716Z" fill="black"/>
<path d="M171.445 112.778C171.502 112.697 171.603 112.657 171.699 112.672C172.393 112.827 172.937 112.871 173.414 112.899C173.885 112.89 174.281 112.863 174.613 112.771C175.274 112.587 175.688 112.307 175.704 112.171C175.718 112.073 175.393 111.614 174.652 111.415C173.934 111.191 172.726 111.235 171.557 112.135C171.478 112.203 171.369 112.224 171.272 112.189C170.551 111.907 169.776 111.856 170.635 112.708C170.637 113.915 171.025 113.345 171.445 112.778Z" fill="black"/>
<path d="M166.752 115.735C166.756 115.638 166.824 115.556 166.917 115.521C168.207 115.001 168.935 114.55 169.398 114.041C169.635 113.807 169.792 113.563 169.887 113.362C169.986 113.169 170.024 113.027 169.997 112.97C169.946 112.855 169.448 112.673 168.692 112.875C168.316 112.972 167.904 113.206 167.49 113.558C167.297 113.75 167.106 113.975 166.927 114.232C166.75 114.489 166.62 114.814 166.498 115.148C166.465 115.244 166.379 115.315 166.278 115.336C165.555 115.516 164.833 115.849 166.049 116.124C166.694 117.119 166.754 116.464 166.752 115.735Z" fill="black"/>
<path d="M164.288 120.706C164.244 120.617 164.252 120.51 164.316 120.435C164.794 119.906 165.076 119.436 165.316 119.027C165.523 118.604 165.666 118.24 165.73 117.907C165.848 117.241 165.774 116.758 165.657 116.682C165.574 116.626 165.007 116.712 164.504 117.28C163.979 117.82 163.516 118.882 163.767 120.301C163.786 120.4 163.757 120.505 163.679 120.57C163.114 121.052 162.621 121.653 163.834 121.369C164.863 121.979 164.622 121.353 164.288 120.706Z" fill="black"/>
<path d="M164.219 126.254C164.141 126.193 164.096 126.094 164.129 125.998C164.231 125.659 164.299 125.357 164.337 125.08C164.382 124.803 164.432 124.547 164.437 124.313C164.439 123.846 164.434 123.451 164.338 123.121C164.165 122.463 163.874 122.056 163.738 122.04C163.635 122.026 163.175 122.343 162.956 123.06C162.73 123.758 162.716 124.917 163.574 126.106C163.627 126.19 163.652 126.296 163.609 126.388C163.309 127.067 163.148 127.83 164.102 127.043C165.302 127.135 164.801 126.694 164.219 126.254Z" fill="black"/>
<path d="M166.873 131.078C166.775 131.066 166.694 130.996 166.664 130.904C166.263 129.591 165.824 128.867 165.369 128.355C164.896 127.871 164.453 127.639 164.326 127.684C164.226 127.718 163.959 128.21 164.128 128.951C164.25 129.687 164.878 130.721 166.252 131.284C166.349 131.322 166.418 131.409 166.43 131.511C166.533 132.259 166.862 132.954 167.21 131.798C168.281 131.22 167.587 131.156 166.873 131.078Z" fill="black"/>
<path d="M171.778 133.712C171.688 133.754 171.578 133.749 171.503 133.682C170.438 132.777 169.67 132.381 168.993 132.225C168.342 132.055 167.824 132.124 167.745 132.227C167.678 132.311 167.748 132.844 168.29 133.393C168.824 133.919 169.897 134.46 171.36 134.218C171.461 134.205 171.568 134.23 171.634 134.309C172.124 134.866 172.745 135.354 172.45 134.161C173.066 133.152 172.438 133.387 171.778 133.712Z" fill="black"/>
<path d="M139.681 111.639C139.958 110.179 138.518 108.609 136.921 109.32C136.87 109.334 136.804 109.395 136.867 109.443C138.091 110.174 138.632 111.871 138.091 113.29C138.081 113.33 138.095 113.348 138.116 113.356C138.124 113.378 138.141 113.392 138.174 113.382C139.455 112.783 140.988 113.38 141.648 114.736C141.695 114.808 141.744 114.732 141.76 114.677C142.396 112.911 140.997 111.332 139.681 111.639Z" fill="black"/>
<path d="M145.886 103.341C146.164 101.881 144.723 100.311 143.126 101.022C143.075 101.036 143.01 101.097 143.073 101.145C144.297 101.876 144.837 103.573 144.297 104.992C144.287 105.032 144.3 105.05 144.321 105.059C144.33 105.08 144.347 105.094 144.379 105.084C145.661 104.485 147.193 105.082 147.854 106.439C147.901 106.51 147.95 106.434 147.965 106.379C148.601 104.613 147.203 103.034 145.886 103.341Z" fill="black"/>
<path d="M158.035 101.496C158.312 100.036 156.871 98.4658 155.274 99.1765C155.223 99.1906 155.158 99.2516 155.221 99.2998C156.445 100.031 156.985 101.728 156.445 103.147C156.435 103.187 156.449 103.205 156.47 103.213C156.478 103.235 156.495 103.249 156.527 103.239C157.809 102.64 159.342 103.237 160.002 104.593C160.049 104.665 160.098 104.589 160.114 104.534C160.75 102.768 159.351 101.189 158.035 101.496Z" fill="black"/>
<path d="M133.947 118.215C134.224 116.754 132.784 115.185 131.187 115.895C131.136 115.91 131.07 115.97 131.133 116.019C132.357 116.75 132.898 118.447 132.357 119.866C132.348 119.905 132.361 119.924 132.382 119.932C132.391 119.954 132.407 119.968 132.44 119.958C133.721 119.359 135.254 119.956 135.914 121.312C135.962 121.383 136.01 121.307 136.026 121.253C136.662 119.487 135.263 117.908 133.947 118.215Z" fill="black"/>
<path d="M127.839 128.998C128.117 127.538 126.676 125.968 125.079 126.679C125.028 126.693 124.963 126.754 125.026 126.802C126.25 127.533 126.79 129.23 126.25 130.65C126.24 130.689 126.254 130.707 126.274 130.716C126.283 130.738 126.3 130.752 126.332 130.741C127.614 130.143 129.147 130.739 129.807 132.096C129.854 132.167 129.903 132.091 129.919 132.036C130.554 130.27 129.156 128.691 127.839 128.998Z" fill="black"/>
<path d="M147.507 142.314C147.784 140.854 146.344 139.284 144.746 139.995C144.696 140.009 144.63 140.07 144.693 140.118C145.917 140.849 146.458 142.546 145.917 143.966C145.907 144.005 145.921 144.023 145.942 144.032C145.95 144.054 145.967 144.068 146 144.057C147.281 143.459 148.814 144.055 149.474 145.412C149.521 145.483 149.57 145.407 149.586 145.352C150.222 143.586 148.823 142.007 147.507 142.314Z" fill="black"/>
<path d="M144.758 111.639C145.035 110.179 143.595 108.609 141.997 109.32C141.947 109.334 141.881 109.395 141.944 109.443C143.168 110.174 143.709 111.871 143.168 113.29C143.158 113.33 143.172 113.348 143.193 113.356C143.201 113.378 143.218 113.392 143.251 113.382C144.532 112.783 146.065 113.38 146.725 114.736C146.772 114.808 146.821 114.732 146.837 114.677C147.473 112.911 146.074 111.332 144.758 111.639Z" fill="black"/>
<path d="M149.835 111.639C150.112 110.179 148.672 108.609 147.074 109.32C147.023 109.334 146.958 109.395 147.021 109.443C148.245 110.174 148.786 111.871 148.245 113.29C148.235 113.33 148.249 113.348 148.27 113.356C148.279 113.378 148.295 113.392 148.327 113.382C149.609 112.783 151.142 113.38 151.802 114.736C151.85 114.808 151.898 114.732 151.914 114.677C152.55 112.911 151.151 111.332 149.835 111.639Z" fill="black"/>
<path d="M154.912 111.639C155.189 110.179 153.749 108.609 152.151 109.32C152.1 109.334 152.035 109.395 152.098 109.443C153.322 110.174 153.863 111.871 153.322 113.29C153.312 113.33 153.326 113.348 153.347 113.356C153.355 113.378 153.372 113.392 153.404 113.382C154.686 112.783 156.219 113.38 156.879 114.736C156.926 114.808 156.975 114.732 156.991 114.677C157.627 112.911 156.228 111.332 154.912 111.639Z" fill="black"/>
<path d="M139.58 134.542C139.868 133.082 138.371 131.512 136.711 132.222C136.658 132.237 136.59 132.297 136.655 132.346C137.927 133.077 138.489 134.774 137.927 136.193C137.918 136.232 137.931 136.251 137.954 136.259C137.962 136.281 137.98 136.295 138.013 136.285C139.345 135.686 140.938 136.283 141.624 137.639C141.673 137.711 141.724 137.635 141.74 137.58C142.401 135.814 140.948 134.235 139.58 134.542Z" fill="black"/>
<path d="M144.856 134.542C145.144 133.082 143.647 131.512 141.987 132.222C141.934 132.237 141.867 132.297 141.931 132.346C143.204 133.077 143.766 134.774 143.204 136.193C143.194 136.232 143.208 136.251 143.23 136.259C143.239 136.281 143.256 136.295 143.289 136.285C144.621 135.686 146.214 136.283 146.9 137.639C146.95 137.711 147 137.635 147.016 137.58C147.678 135.814 146.224 134.235 144.856 134.542Z" fill="black"/>
<path d="M150.132 134.542C150.421 133.082 148.923 131.512 147.264 132.222C147.211 132.237 147.143 132.297 147.207 132.346C148.48 133.077 149.042 134.774 148.48 136.193C148.47 136.232 148.484 136.251 148.506 136.259C148.515 136.281 148.532 136.295 148.565 136.285C149.897 135.686 151.491 136.283 152.177 137.639C152.226 137.711 152.276 137.635 152.293 137.58C152.954 135.814 151.501 134.235 150.132 134.542Z" fill="black"/>
<path d="M155.409 134.542C155.697 133.082 154.2 131.512 152.54 132.222C152.486 132.237 152.419 132.297 152.484 132.346C153.756 133.077 154.318 134.774 153.756 136.193C153.746 136.232 153.76 136.251 153.782 136.259C153.791 136.281 153.809 136.295 153.842 136.285C155.174 135.686 156.767 136.283 157.453 137.639C157.502 137.711 157.553 137.635 157.569 137.58C158.23 135.814 156.777 134.235 155.409 134.542Z" fill="black"/>
<path d="M141.337 129.021C141.695 127.65 140.244 126.225 138.526 126.932C138.472 126.947 138.401 127.005 138.464 127.049C139.724 127.697 140.219 129.266 139.584 130.606C139.573 130.642 139.586 130.66 139.608 130.667C139.616 130.686 139.633 130.7 139.668 130.689C141.047 130.095 142.639 130.609 143.275 131.857C143.322 131.922 143.377 131.85 143.396 131.798C144.146 130.132 142.741 128.698 141.337 129.021Z" fill="black"/>
<path d="M144.429 126.113C144.787 124.742 143.336 123.317 141.618 124.024C141.564 124.039 141.493 124.098 141.556 124.141C142.816 124.79 143.311 126.358 142.677 127.698C142.665 127.735 142.678 127.752 142.7 127.759C142.708 127.779 142.725 127.792 142.759 127.781C144.139 127.187 145.731 127.701 146.367 128.949C146.414 129.014 146.469 128.942 146.488 128.891C147.238 127.225 145.833 125.79 144.429 126.113Z" fill="black"/>
<path d="M147.521 123.205C147.879 121.835 146.428 120.409 144.71 121.117C144.656 121.132 144.584 121.19 144.648 121.234C145.908 121.882 146.403 123.451 145.768 124.79C145.757 124.827 145.77 124.844 145.792 124.851C145.8 124.871 145.817 124.884 145.851 124.874C147.231 124.279 148.823 124.794 149.459 126.041C149.506 126.107 149.561 126.035 149.579 125.983C150.33 124.317 148.925 122.882 147.521 123.205Z" fill="black"/>
<path d="M150.613 120.297C150.971 118.926 149.52 117.501 147.802 118.208C147.748 118.223 147.676 118.282 147.74 118.325C149 118.974 149.494 120.542 148.86 121.882C148.849 121.919 148.862 121.936 148.884 121.943C148.892 121.963 148.909 121.976 148.943 121.965C150.323 121.371 151.915 121.886 152.551 123.133C152.597 123.199 152.653 123.126 152.671 123.075C153.422 121.409 152.016 119.974 150.613 120.297Z" fill="black"/>
<path d="M153.705 117.39C154.063 116.019 152.612 114.594 150.894 115.301C150.84 115.316 150.768 115.374 150.832 115.418C152.091 116.067 152.586 117.635 151.952 118.975C151.94 119.011 151.954 119.029 151.976 119.036C151.984 119.055 152.001 119.069 152.035 119.058C153.414 118.464 155.006 118.979 155.643 120.226C155.69 120.291 155.745 120.219 155.763 120.167C156.514 118.501 155.108 117.067 153.705 117.39Z" fill="black"/>
<path d="M127.879 141.966H138.09C142.731 141.966 145.902 145.04 145.902 148.912C145.902 151.417 144.549 153.542 142.576 154.529V154.756C144.896 155.933 146.405 158.476 146.405 161.171C146.405 165.345 142.808 168.534 138.012 168.534H127.879V141.966ZM137.78 153.276C140.217 153.276 141.996 151.606 141.996 149.291C141.996 146.976 140.217 145.344 137.78 145.344H131.708V153.276H137.78ZM138.128 165.155C140.488 165.155 142.499 163.22 142.499 160.905C142.499 158.59 140.488 156.616 138.128 156.616H131.708V165.155H138.128Z" fill="black"/>
<path d="M152.088 141.966H162.299C166.94 141.966 170.306 145.268 170.306 149.671C170.306 153.2 168.178 155.857 164.697 156.882L171.272 168.534H166.979L160.829 157.565H155.917V168.534H152.088V141.966ZM161.912 154.187C164.426 154.187 166.399 152.213 166.399 149.746C166.399 147.317 164.426 145.344 161.912 145.344H155.917V154.187H161.912Z" fill="black"/>
<path d="M176.723 141.966H180.629L194.244 162.005H194.476V141.966H198.189V168.534H194.282L180.629 148.494H180.397V168.534H176.723V141.966Z" fill="black"/>
<path d="M204.335 155.25C204.335 147.279 210.136 141.548 218.143 141.548C226.149 141.548 231.951 147.279 231.951 155.25C231.951 163.22 226.149 168.951 218.143 168.951C210.136 168.951 204.335 163.22 204.335 155.25ZM218.143 165.497C223.944 165.497 228.044 161.284 228.044 155.25C228.044 149.215 223.944 145.002 218.143 145.002C212.302 145.002 208.242 149.215 208.242 155.25C208.242 161.284 212.302 165.497 218.143 165.497Z" fill="black"/>
<path d="M179.491 121.267C179.574 121.326 179.623 121.428 179.597 121.529C179.301 122.918 179.197 123.777 179.27 124.472C179.302 124.813 179.368 125.098 179.433 125.308C179.508 125.521 179.589 125.657 179.645 125.678C179.702 125.699 179.853 125.652 180.039 125.502C180.233 125.356 180.456 125.103 180.629 124.725C180.802 124.349 180.912 123.848 180.873 123.265C180.812 122.688 180.631 122.011 180.146 121.394C180.086 121.306 180.056 121.193 180.089 121.091C180.222 120.719 180.272 120.311 180.191 120.12C180.112 119.923 179.928 119.979 179.511 120.437C178.901 120.449 178.753 120.588 178.819 120.726C178.89 120.868 179.192 121.048 179.491 121.267Z" fill="black"/>
<path d="M170.185 119.599C170.176 119.495 170.242 119.406 170.335 119.363C170.989 119.056 171.486 118.849 171.912 118.669C172.329 118.483 172.666 118.306 172.954 118.126C173.24 117.948 173.471 117.768 173.636 117.617C173.798 117.456 173.888 117.332 173.883 117.272C173.878 117.214 173.77 117.094 173.551 116.998C173.332 116.891 173.001 116.802 172.569 116.823C172.142 116.844 171.612 116.985 171.102 117.34C170.588 117.68 170.118 118.268 169.895 119.013C169.863 119.117 169.776 119.2 169.679 119.24C169.494 119.308 169.305 119.39 169.149 119.48C169.003 119.575 168.888 119.676 168.835 119.765C168.727 119.949 168.886 120.056 169.509 120.093C169.898 120.557 170.1 120.585 170.169 120.449C170.204 120.378 170.21 120.258 170.202 120.105C170.204 119.961 170.196 119.785 170.185 119.599Z" fill="black"/>
<path d="M173.474 128.795C173.385 128.841 173.269 128.845 173.19 128.776C172.607 128.352 172.201 127.988 171.838 127.712C171.471 127.442 171.17 127.216 170.867 127.058C170.297 126.72 169.79 126.563 169.673 126.631C169.585 126.68 169.435 127.235 169.86 127.987C170.085 128.342 170.444 128.756 171.007 129.029C171.556 129.308 172.291 129.472 173.071 129.319C173.179 129.307 173.296 129.325 173.375 129.401C173.661 129.681 174.016 129.897 174.224 129.91C174.438 129.926 174.468 129.739 174.227 129.172C174.481 128.628 174.418 128.436 174.261 128.434C174.099 128.434 173.803 128.628 173.474 128.795Z" fill="black"/>
<path d="M179.227 138.207C179.17 138.294 179.063 138.322 178.962 138.304C177.541 138.061 176.602 138.16 175.926 138.437C175.257 138.655 174.887 139.042 174.89 139.164C174.893 139.279 175.288 139.632 176.051 139.788C176.797 139.89 177.954 139.774 179.114 138.839C179.195 138.774 179.309 138.765 179.405 138.795C180.119 139.026 180.899 139.137 180.05 138.25C180.1 137.056 179.649 137.588 179.227 138.207Z" fill="black"/>
<path d="M189.696 125.624C189.748 125.711 189.743 125.819 189.689 125.904C189.323 126.506 189.019 127.012 188.866 127.477C188.726 127.945 188.624 128.342 188.611 128.692C188.595 129.042 188.646 129.338 188.714 129.555C188.766 129.765 188.844 129.897 188.901 129.919C188.956 129.941 189.109 129.901 189.309 129.777C189.493 129.648 189.716 129.432 189.925 129.113C190.132 128.794 190.345 128.377 190.4 127.842C190.468 127.312 190.487 126.687 190.249 125.982C190.218 125.883 190.244 125.775 190.316 125.701C190.581 125.433 190.833 125.135 190.856 124.954C190.87 124.771 190.68 124.718 190.105 124.907C189.551 124.629 189.357 124.662 189.356 124.83C189.348 124.997 189.507 125.308 189.696 125.624Z" fill="black"/>
<path d="M183.613 110.323C183.713 110.321 183.807 110.377 183.855 110.466C184.021 110.785 184.208 111.033 184.362 111.286C184.517 111.538 184.676 111.751 184.839 111.932C185.178 112.28 185.467 112.571 185.769 112.757C186.377 113.123 186.882 113.221 186.983 113.148C187.077 113.081 187.175 112.537 186.811 111.866C186.633 111.529 186.38 111.129 185.929 110.812C185.712 110.647 185.462 110.487 185.181 110.341C184.901 110.194 184.552 110.106 184.194 110.021C184.091 109.998 184.007 109.923 183.976 109.824C183.919 109.643 183.855 109.461 183.783 109.313C183.704 109.174 183.622 109.065 183.543 109.015C183.383 108.913 183.25 109.055 183.152 109.646C182.647 109.996 182.589 110.182 182.736 110.261C182.81 110.301 182.939 110.316 183.098 110.316C183.249 110.327 183.428 110.328 183.613 110.323Z" fill="black"/>
<path d="M172.476 107.65C172.549 107.581 172.657 107.547 172.754 107.589C173.438 107.865 174.008 107.967 174.504 108.022C175 108.094 175.422 108.063 175.774 107.984C176.473 107.848 176.9 107.563 176.92 107.433C176.937 107.329 176.61 106.879 175.881 106.631C175.518 106.519 175.056 106.448 174.515 106.473C173.975 106.515 173.353 106.712 172.703 107.036C172.611 107.078 172.499 107.093 172.41 107.041C171.751 106.679 171.008 106.423 171.674 107.453C171.397 108.614 171.945 108.178 172.476 107.65Z" fill="black"/>
<path d="M159.752 117.987C159.718 117.894 159.742 117.788 159.812 117.715C160.061 117.454 160.262 117.206 160.43 116.969C160.623 116.741 160.776 116.522 160.898 116.31C161.02 116.098 161.111 115.893 161.179 115.697C161.266 115.511 161.326 115.333 161.368 115.163C161.529 114.487 161.406 113.965 161.313 113.904C161.205 113.835 160.69 113.958 160.155 114.513C160.02 114.65 159.885 114.813 159.755 115.003C159.644 115.202 159.541 115.429 159.454 115.684C159.367 115.938 159.296 116.22 159.249 116.527C159.227 116.842 159.234 117.184 159.273 117.546C159.285 117.648 159.24 117.75 159.154 117.811C158.51 118.252 158.054 118.841 159.247 118.633C160.261 119.344 159.992 118.657 159.752 117.987Z" fill="black"/>
<path d="M163.043 134.215C162.945 134.197 162.865 134.122 162.836 134.026C162.741 133.68 162.615 133.396 162.514 133.119C162.415 132.841 162.304 132.6 162.184 132.389C161.926 131.978 161.696 131.639 161.442 131.393C160.925 130.911 160.437 130.723 160.328 130.772C160.218 130.823 160.024 131.331 160.239 132.06C160.338 132.427 160.51 132.863 160.882 133.265C161.06 133.471 161.269 133.678 161.513 133.877C161.759 134.075 162.078 134.236 162.411 134.392C162.507 134.434 162.573 134.525 162.582 134.628C162.606 135.014 162.698 135.38 162.835 135.507C162.97 135.64 163.13 135.528 163.351 134.97C163.919 134.731 164.016 134.56 163.889 134.454C163.757 134.349 163.397 134.29 163.043 134.215Z" fill="black"/>
<path d="M187.79 132.819C187.792 132.918 187.735 133.01 187.646 133.055C187.038 133.395 186.515 133.674 186.157 134.001C185.973 134.16 185.826 134.328 185.694 134.484C185.552 134.632 185.438 134.781 185.345 134.926C184.974 135.507 184.934 136.039 185.012 136.134C185.085 136.224 185.606 136.263 186.284 135.921C186.453 135.837 186.632 135.728 186.813 135.593C186.985 135.449 187.148 135.266 187.31 135.059C187.625 134.635 187.957 134.118 188.094 133.395C188.115 133.296 188.19 133.215 188.289 133.187C189.015 132.983 189.719 132.653 188.496 132.404C187.834 131.419 187.77 132.096 187.79 132.819Z" fill="black"/>
<path d="M187.392 110.467C187.489 110.492 187.556 110.577 187.572 110.675C187.673 111.383 187.89 111.892 188.07 112.341C188.253 112.786 188.49 113.118 188.736 113.37C189.193 113.886 189.661 114.098 189.783 114.05C189.886 114.011 190.117 113.518 189.982 112.781C189.898 112.423 189.73 112.001 189.435 111.563C189.145 111.124 188.639 110.72 188.029 110.348C187.941 110.297 187.89 110.199 187.89 110.098C187.867 109.372 187.71 108.63 187.151 109.708C185.993 110.083 186.657 110.305 187.392 110.467Z" fill="black"/>
<path d="M164.402 107.836C164.436 107.744 164.523 107.681 164.624 107.67C165.338 107.597 165.877 107.435 166.352 107.297C166.816 107.144 167.158 106.907 167.44 106.704C168.003 106.31 168.237 105.836 168.199 105.72C168.163 105.611 167.687 105.382 166.923 105.445C166.544 105.483 166.117 105.646 165.653 105.908C165.182 106.153 164.73 106.606 164.324 107.2C164.266 107.284 164.166 107.332 164.061 107.322C163.292 107.249 162.562 107.402 163.605 108.003C163.919 109.182 164.156 108.499 164.402 107.836Z" fill="black"/>
<path d="M157.613 127.72C157.535 127.657 157.5 127.555 157.522 127.459C157.655 126.784 157.774 126.208 157.748 125.725C157.727 125.242 157.628 124.842 157.531 124.511C157.31 123.856 156.916 123.496 156.792 123.498C156.675 123.5 156.314 123.878 156.151 124.603C156.056 124.965 156.058 125.411 156.182 125.918C156.31 126.424 156.498 127.002 156.969 127.573C157.031 127.654 157.046 127.762 157.003 127.853C156.69 128.527 156.489 129.263 157.476 128.517C158.671 128.665 158.186 128.175 157.613 127.72Z" fill="black"/>
<path d="M173.425 141.319C173.344 141.376 173.234 141.382 173.146 141.335C172.515 141.029 171.979 140.79 171.502 140.672C171.025 140.556 170.605 140.558 170.259 140.555C169.563 140.583 169.098 140.853 169.064 140.97C169.032 141.081 169.299 141.526 169.97 141.882C170.302 142.076 170.745 142.179 171.277 142.205C171.809 142.233 172.43 142.181 173.113 141.889C173.209 141.851 173.319 141.866 173.398 141.931C173.979 142.406 174.65 142.792 174.174 141.659C174.631 140.569 174.023 140.897 173.425 141.319Z" fill="black"/>
</g>
</svg>
