<svg width="440" height="330" viewBox="0 0 440 330" fill="none" xmlns="http://www.w3.org/2000/svg">
<rect width="440" height="330" fill="#F9F0E4"/>
<g opacity="0.25">
<path d="M236.605 161.108L236.506 161.145C236.507 161.127 236.508 161.114 236.51 161.094C236.501 160.864 236.383 160.637 236.236 160.655C236.09 160.674 235.989 160.928 236.016 161.154C236.028 161.259 236.063 161.339 236.109 161.395C235.826 161.285 235.439 161.285 235.011 161.341C234.613 161.43 234.179 161.586 233.85 161.802C233.527 162.03 233.33 162.258 233.23 162.475C233.187 162.562 233.108 162.635 233.016 162.663C232.764 162.736 232.517 162.898 232.335 163.146C232.076 163.476 232.081 163.929 232.274 164.249C232.653 164.855 233.445 164.891 233.941 164.496C234.064 164.391 234.155 164.263 234.216 164.121C234.25 164.035 234.33 163.982 234.422 163.98C234.644 163.97 234.881 163.89 235.144 163.702C235.406 163.53 235.668 163.318 235.891 163.058C236.123 162.841 236.319 162.563 236.44 162.32C236.443 162.389 236.469 162.471 236.523 162.564C236.64 162.764 236.822 162.936 236.907 162.888C236.991 162.84 236.966 162.585 236.867 162.381C236.858 162.366 236.851 162.355 236.843 162.341C236.87 162.337 236.898 162.333 236.926 162.325C237.283 162.227 237.556 161.93 237.521 161.574C237.492 161.238 237.068 160.984 236.605 161.108Z" fill="black"/>
<path d="M228.302 169.933L228.246 170.021C228.236 170.006 228.229 169.995 228.218 169.979C228.069 169.8 227.835 169.689 227.729 169.79C227.624 169.892 227.701 170.154 227.861 170.318C227.936 170.395 228.013 170.437 228.084 170.455C227.791 170.534 227.483 170.764 227.177 171.062C226.914 171.369 226.665 171.75 226.535 172.117C226.418 172.489 226.401 172.788 226.456 173.02C226.476 173.114 226.457 173.219 226.401 173.296C226.245 173.503 226.148 173.778 226.155 174.084C226.154 174.5 226.437 174.858 226.788 174.999C227.463 175.258 228.117 174.817 228.268 174.21C228.302 174.053 228.295 173.897 228.256 173.748C228.231 173.659 228.262 173.57 228.334 173.514C228.504 173.375 228.644 173.17 228.737 172.865C228.841 172.573 228.919 172.248 228.936 171.91C228.987 171.6 228.972 171.262 228.919 170.997C228.963 171.049 229.034 171.1 229.135 171.143C229.352 171.232 229.603 171.261 229.64 171.173C229.679 171.085 229.502 170.897 229.297 170.793C229.28 170.786 229.268 170.781 229.253 170.776C229.272 170.755 229.291 170.736 229.309 170.713C229.533 170.424 229.567 170.026 229.321 169.762C229.09 169.512 228.595 169.56 228.302 169.933Z" fill="black"/>
<path d="M224.644 170.366L224.57 170.441C224.564 170.424 224.559 170.411 224.552 170.394C224.444 170.189 224.237 170.033 224.112 170.112C223.988 170.19 224.009 170.462 224.132 170.654C224.188 170.745 224.256 170.801 224.322 170.833C224.017 170.852 223.668 171.016 223.306 171.246C222.985 171.493 222.662 171.817 222.458 172.149C222.266 172.491 222.188 172.78 222.193 173.018C222.193 173.115 222.152 173.213 222.082 173.278C221.885 173.449 221.734 173.7 221.677 174C221.588 174.407 221.791 174.814 222.105 175.022C222.713 175.411 223.445 175.11 223.719 174.545C223.785 174.399 223.811 174.245 223.804 174.091C223.798 173.999 223.846 173.918 223.928 173.877C224.124 173.775 224.304 173.603 224.459 173.323C224.621 173.058 224.765 172.755 224.852 172.427C224.967 172.134 225.022 171.8 225.026 171.53C225.058 171.591 225.117 171.655 225.207 171.716C225.4 171.847 225.64 171.926 225.695 171.847C225.751 171.768 225.617 171.549 225.438 171.405C225.423 171.396 225.412 171.389 225.398 171.38C225.421 171.364 225.444 171.35 225.466 171.33C225.746 171.092 225.863 170.709 225.676 170.402C225.502 170.111 225.008 170.059 224.644 170.366Z" fill="black"/>
<path d="M243.572 161.974L243.48 161.973C243.486 161.958 243.492 161.945 243.499 161.928C243.569 161.709 243.549 161.456 243.441 161.423C243.327 161.394 243.187 161.581 243.107 161.797C243.072 161.897 243.063 161.983 243.073 162.052C242.738 161.632 242.078 161.173 241.386 160.971C241.047 160.869 240.736 160.862 240.512 160.921C240.42 160.944 240.308 160.93 240.228 160.869C240.017 160.707 239.727 160.605 239.392 160.628C238.946 160.638 238.558 160.945 238.458 161.294C238.289 161.979 238.739 162.577 239.313 162.694C239.464 162.72 239.622 162.725 239.769 162.687C239.857 162.668 239.945 162.692 240.008 162.761C240.164 162.929 240.372 163.056 240.726 163.16C241.397 163.359 242.406 163.358 242.926 163.022C242.892 163.084 242.873 163.168 242.881 163.276C242.895 163.503 243.043 163.75 243.171 163.735C243.303 163.725 243.38 163.481 243.355 163.254C243.351 163.236 243.348 163.224 243.344 163.207L243.441 163.224C243.884 163.273 244.26 163.008 244.276 162.659C244.291 162.315 243.976 162.019 243.572 161.974Z" fill="black"/>
<path d="M249.782 160.742L249.71 160.797C249.706 160.78 249.703 160.767 249.698 160.749C249.616 160.533 249.446 160.348 249.341 160.38C249.237 160.41 249.232 160.659 249.303 160.876C249.336 160.978 249.383 161.051 249.435 161.099C248.886 160.971 248.091 161.036 247.502 161.197C247.206 161.297 246.989 161.394 246.842 161.556C246.782 161.621 246.693 161.644 246.609 161.614C246.385 161.535 246.15 161.55 245.897 161.63C245.561 161.759 245.281 162.063 245.198 162.428C245.033 163.113 245.621 163.727 246.409 163.644C246.602 163.617 246.779 163.552 246.928 163.46C247.015 163.408 247.126 163.397 247.224 163.423C247.46 163.486 247.779 163.513 248.169 163.386C248.954 163.169 249.735 162.515 249.92 161.957C249.932 162.026 249.969 162.105 250.041 162.185C250.195 162.357 250.447 162.465 250.553 162.381C250.659 162.297 250.565 162.051 250.405 161.888C250.391 161.877 250.381 161.869 250.368 161.858L250.456 161.812C250.843 161.577 250.972 161.143 250.761 160.858C250.556 160.581 250.12 160.537 249.782 160.742Z" fill="black"/>
<path d="M250.524 155.586L250.476 155.661C250.466 155.647 250.458 155.636 250.447 155.621C250.294 155.445 250.069 155.33 249.982 155.395C249.895 155.459 249.978 155.694 250.121 155.874C250.189 155.958 250.258 156.01 250.324 156.038C249.764 156.105 249.041 156.434 248.545 156.785C248.302 156.979 248.133 157.143 248.052 157.344C248.019 157.426 247.943 157.478 247.854 157.478C247.616 157.48 247.4 157.573 247.191 157.735C246.921 157.969 246.767 158.349 246.818 158.719C246.904 159.418 247.673 159.795 248.382 159.451C248.554 159.36 248.697 159.239 248.805 159.103C248.868 159.024 248.968 158.976 249.069 158.968C249.313 158.947 249.621 158.864 249.943 158.613C250.603 158.143 251.106 157.265 251.081 156.679C251.118 156.74 251.18 156.801 251.276 156.852C251.482 156.962 251.755 156.977 251.826 156.863C251.895 156.747 251.721 156.549 251.513 156.45C251.495 156.444 251.483 156.44 251.467 156.434L251.534 156.361C251.813 156.01 251.782 155.559 251.483 155.364C251.193 155.173 250.769 155.279 250.524 155.586Z" fill="black"/>
<path d="M254.531 156.292L254.485 156.368C254.475 156.356 254.466 156.345 254.454 156.33C254.291 156.169 254.052 156.066 253.97 156.14C253.888 156.213 253.988 156.443 254.146 156.612C254.22 156.69 254.294 156.737 254.362 156.759C253.809 156.872 253.094 157.279 252.639 157.739C252.391 157.979 252.259 158.209 252.205 158.425C252.182 158.512 252.117 158.583 252.029 158.61C251.793 158.679 251.581 158.832 251.422 159.054C251.212 159.366 251.178 159.779 251.342 160.117C251.644 160.757 252.483 160.882 253.039 160.394C253.172 160.272 253.272 160.128 253.336 159.976C253.374 159.886 253.456 159.821 253.552 159.799C253.783 159.745 254.03 159.604 254.296 159.346C254.836 158.804 255.242 157.921 255.17 157.338C255.211 157.396 255.279 157.451 255.379 157.495C255.592 157.587 255.864 157.584 255.922 157.465C255.98 157.347 255.798 157.166 255.58 157.08C255.562 157.075 255.549 157.071 255.533 157.067L255.597 156.992C255.838 156.618 255.781 156.174 255.474 156.001C255.166 155.83 254.743 155.96 254.531 156.292Z" fill="black"/>
<path d="M229.712 163.706L229.686 163.791C229.672 163.78 229.661 163.773 229.646 163.761C229.449 163.642 229.191 163.597 229.129 163.687C229.067 163.778 229.221 163.979 229.415 164.106C229.506 164.165 229.589 164.194 229.66 164.2C229.15 164.437 228.554 164.998 228.223 165.551C228.04 165.841 227.967 166.095 227.967 166.317C227.966 166.407 227.919 166.492 227.84 166.538C227.627 166.66 227.459 166.857 227.358 167.11C227.229 167.461 227.297 167.871 227.536 168.161C227.984 168.713 228.83 168.64 229.252 168.037C229.352 167.888 229.414 167.725 229.44 167.562C229.455 167.467 229.519 167.383 229.607 167.341C229.819 167.235 230.024 167.04 230.221 166.727C230.614 166.076 230.797 165.124 230.585 164.574C230.639 164.62 230.718 164.659 230.826 164.678C231.055 164.719 231.318 164.653 231.346 164.524C231.374 164.395 231.154 164.261 230.921 164.228C230.902 164.228 230.889 164.227 230.872 164.227L230.917 164.139C231.06 163.72 230.898 163.301 230.558 163.205C230.217 163.11 229.837 163.334 229.712 163.706Z" fill="black"/>
<path d="M256.551 150.276L256.555 150.365C256.538 150.359 256.526 150.354 256.508 150.348C256.281 150.29 256.025 150.32 255.995 150.426C255.961 150.531 256.167 150.68 256.39 150.746C256.494 150.776 256.582 150.779 256.652 150.764C256.237 151.138 255.84 151.857 255.687 152.469C255.603 152.78 255.612 153.031 255.665 153.236C255.688 153.319 255.667 153.41 255.604 153.472C255.443 153.637 255.307 153.845 255.281 154.111C255.238 154.469 255.381 154.848 255.683 155.091C256.222 155.544 257.062 155.313 257.333 154.601C257.405 154.428 257.432 154.25 257.412 154.079C257.403 153.979 257.443 153.88 257.518 153.813C257.705 153.652 257.85 153.394 257.949 153.019C258.137 152.276 258.016 151.32 257.649 150.856C257.715 150.885 257.801 150.899 257.91 150.886C258.143 150.859 258.376 150.722 258.365 150.591C258.351 150.461 258.095 150.396 257.866 150.431C257.849 150.435 257.836 150.439 257.819 150.444L257.832 150.347C257.857 149.907 257.572 149.553 257.213 149.556C256.863 149.559 256.574 149.881 256.551 150.276Z" fill="black"/>
<path d="M260.823 130.834L260.747 130.884C260.744 130.867 260.741 130.854 260.738 130.836C260.67 130.616 260.51 130.418 260.402 130.448C260.294 130.475 260.271 130.724 260.33 130.945C260.358 131.048 260.401 131.123 260.45 131.174C259.908 131.022 259.075 131.064 258.461 131.255C258.147 131.348 257.934 131.486 257.783 131.637C257.722 131.7 257.631 131.73 257.546 131.709C257.317 131.66 257.066 131.655 256.82 131.772C256.486 131.923 256.23 132.24 256.176 132.619C256.062 133.306 256.701 133.888 257.463 133.744C257.651 133.713 257.82 133.643 257.959 133.537C258.041 133.478 258.149 133.459 258.246 133.487C258.484 133.56 258.784 133.545 259.162 133.434C259.907 133.202 260.678 132.604 260.891 132.055C260.899 132.125 260.932 132.204 261 132.289C261.144 132.469 261.386 132.592 261.494 132.515C261.6 132.436 261.524 132.188 261.373 132.015C261.36 132.002 261.351 131.994 261.338 131.982L261.429 131.942C261.825 131.735 261.985 131.311 261.795 131.013C261.611 130.722 261.179 130.648 260.823 130.834Z" fill="black"/>
<path d="M255.953 143.576V143.677C255.937 143.671 255.925 143.666 255.907 143.659C255.683 143.597 255.423 143.636 255.39 143.773C255.368 143.91 255.588 144.077 255.817 144.124C255.924 144.147 256.013 144.14 256.08 144.116C255.667 144.559 255.505 145.555 255.651 146.27C255.719 146.63 255.846 146.879 255.999 147.037C256.062 147.102 256.088 147.196 256.063 147.282C255.993 147.517 255.999 147.736 256.096 147.993C256.232 148.332 256.56 148.596 256.935 148.662C257.641 148.792 258.238 148.198 258.137 147.449C258.107 147.264 258.043 147.084 257.945 146.952C257.888 146.873 257.875 146.77 257.909 146.68C257.99 146.455 258.006 146.19 257.943 145.853C257.813 145.198 257.46 144.506 257.082 144.109C257.149 144.13 257.238 144.133 257.344 144.113C257.572 144.067 257.79 143.947 257.765 143.847C257.75 143.748 257.498 143.692 257.266 143.722C257.248 143.727 257.236 143.729 257.22 143.734C257.225 143.705 257.232 143.679 257.235 143.649C257.252 143.274 257.026 142.925 256.681 142.863C256.329 142.799 255.977 143.116 255.953 143.576Z" fill="black"/>
<path d="M253.5 140.798L253.468 140.895C253.455 140.884 253.444 140.875 253.43 140.863C253.235 140.737 252.976 140.696 252.902 140.817C252.838 140.94 252.996 141.165 253.199 141.279C253.293 141.333 253.379 141.352 253.451 141.35C252.921 141.648 252.454 142.548 252.37 143.272C252.322 143.635 252.367 143.91 252.462 144.107C252.501 144.188 252.497 144.285 252.447 144.359C252.307 144.562 252.244 144.773 252.256 145.046C252.28 145.41 252.51 145.76 252.845 145.934C253.477 146.27 254.232 145.883 254.369 145.14C254.398 144.955 254.394 144.764 254.342 144.609C254.312 144.517 254.332 144.415 254.392 144.339C254.539 144.15 254.638 143.902 254.683 143.562C254.763 142.9 254.643 142.135 254.407 141.644C254.465 141.683 254.548 141.713 254.656 141.726C254.887 141.751 255.132 141.701 255.14 141.598C255.156 141.5 254.934 141.371 254.704 141.331C254.686 141.33 254.673 141.328 254.656 141.327C254.67 141.303 254.685 141.279 254.697 141.252C254.83 140.9 254.725 140.5 254.415 140.337C254.1 140.171 253.665 140.367 253.5 140.798Z" fill="black"/>
<path d="M259.116 137.268L259.056 137.346C259.047 137.33 259.041 137.319 259.032 137.302C258.896 137.114 258.674 136.982 258.571 137.061C258.468 137.141 258.528 137.398 258.667 137.581C258.733 137.666 258.803 137.719 258.87 137.745C258.278 137.802 257.479 138.352 257.053 139.004C256.841 139.335 256.734 139.609 256.749 139.862C256.752 139.962 256.709 140.063 256.629 140.127C256.416 140.296 256.24 140.549 256.197 140.874C256.115 141.305 256.305 141.718 256.648 141.908C257.27 142.238 257.998 141.938 258.231 141.408C258.296 141.271 258.333 141.128 258.33 140.981C258.33 140.894 258.378 140.816 258.455 140.775C258.632 140.673 258.838 140.517 259.009 140.247C259.35 139.723 259.632 138.945 259.624 138.391C259.661 138.45 259.724 138.511 259.818 138.564C260.021 138.677 260.277 138.719 260.333 138.622C260.391 138.525 260.234 138.321 260.035 138.203C260.018 138.195 260.007 138.19 259.992 138.183L260.058 138.121C260.324 137.818 260.38 137.404 260.125 137.153C259.88 136.912 259.407 136.938 259.116 137.268Z" fill="black"/>
<path d="M263.663 132.039L263.595 132.111C263.588 132.095 263.583 132.082 263.575 132.065C263.459 131.865 263.252 131.711 263.141 131.78C263.031 131.85 263.064 132.111 263.185 132.307C263.241 132.398 263.305 132.457 263.369 132.49C262.774 132.489 261.922 132.958 261.432 133.565C261.188 133.874 261.054 134.135 261.043 134.389C261.035 134.489 260.982 134.584 260.896 134.641C260.668 134.788 260.466 135.022 260.39 135.341C260.265 135.762 260.412 136.192 260.733 136.415C261.319 136.804 262.074 136.578 262.36 136.072C262.438 135.942 262.49 135.804 262.502 135.657C262.51 135.571 262.567 135.498 262.647 135.465C262.834 135.38 263.054 135.245 263.252 134.993C263.645 134.505 264.005 133.758 264.054 133.206C264.084 133.269 264.141 133.335 264.229 133.397C264.42 133.53 264.669 133.596 264.736 133.506C264.803 133.415 264.667 133.196 264.482 133.059C264.466 133.05 264.455 133.044 264.441 133.035L264.513 132.98C264.808 132.705 264.907 132.298 264.678 132.023C264.459 131.76 263.986 131.739 263.663 132.039Z" fill="black"/>
<path d="M240.343 164.608L240.239 164.607C240.246 164.591 240.252 164.579 240.26 164.562C240.334 164.343 240.301 164.088 240.16 164.055C240.031 164.026 239.862 164.234 239.808 164.455C239.782 164.559 239.786 164.646 239.806 164.713C239.392 164.312 238.508 164.064 237.789 164.126C237.425 164.153 237.159 164.259 236.977 164.399C236.902 164.458 236.801 164.48 236.709 164.453C236.464 164.378 236.175 164.394 235.893 164.524C235.508 164.699 235.262 165.096 235.306 165.467C235.418 166.155 236.016 166.578 236.583 166.479C236.732 166.453 236.865 166.389 236.986 166.306C237.057 166.256 237.148 166.249 237.226 166.288C237.418 166.386 237.659 166.426 237.982 166.402C238.615 166.347 239.378 166.063 239.777 165.693C239.755 165.759 239.747 165.846 239.764 165.95C239.8 166.176 239.911 166.396 240.01 166.378C240.098 166.362 240.159 166.116 240.142 165.89C240.139 165.872 240.137 165.86 240.134 165.844C240.16 165.85 240.184 165.856 240.211 165.858C240.31 165.864 240.347 165.86 240.425 165.837C240.521 165.824 240.612 165.796 240.69 165.754C240.849 165.669 240.963 165.532 240.999 165.362C241.035 165.192 240.987 165.022 240.886 164.886C240.834 164.817 240.77 164.757 240.694 164.709C240.598 164.661 240.446 164.613 240.343 164.608Z" fill="black"/>
<path d="M233.38 166.486L233.316 166.566C233.307 166.55 233.301 166.539 233.292 166.522C233.159 166.333 232.932 166.203 232.82 166.293C232.718 166.377 232.785 166.634 232.932 166.81C233.001 166.893 233.073 166.942 233.14 166.968C232.563 167.048 231.826 167.586 231.441 168.185C231.243 168.485 231.169 168.756 231.171 168.982C231.174 169.077 231.132 169.169 231.053 169.224C230.844 169.37 230.681 169.605 230.616 169.904C230.526 170.31 230.699 170.741 231.027 170.932C231.653 171.261 232.359 171.051 232.623 170.549C232.691 170.418 232.721 170.275 232.726 170.13C232.728 170.045 232.779 169.971 232.857 169.933C233.053 169.843 233.231 169.678 233.407 169.412C233.746 168.886 233.977 168.12 233.919 167.584C233.959 167.641 234.025 167.699 234.12 167.75C234.325 167.859 234.571 167.905 234.616 167.816C234.657 167.739 234.494 167.542 234.299 167.418C234.283 167.41 234.272 167.404 234.258 167.397C234.277 167.38 234.298 167.365 234.316 167.346C234.381 167.272 234.399 167.241 234.428 167.166C234.476 167.083 234.507 166.996 234.52 166.908C234.549 166.733 234.506 166.562 234.39 166.431C234.273 166.3 234.106 166.234 233.934 166.231C233.847 166.229 233.759 166.243 233.674 166.273C233.578 166.318 233.447 166.408 233.38 166.486Z" fill="black"/>
<path d="M246.693 164.95C246.664 164.954 246.636 164.963 246.608 164.971C246.611 164.954 246.613 164.941 246.616 164.923C246.627 164.694 246.547 164.453 246.44 164.448C246.333 164.439 246.23 164.661 246.212 164.888C246.204 164.994 246.218 165.079 246.246 165.144C245.807 164.81 245.035 164.593 244.408 164.586C244.088 164.576 243.849 164.641 243.665 164.754C243.589 164.803 243.497 164.798 243.424 164.753C243.226 164.629 242.989 164.573 242.727 164.62C242.373 164.671 242.05 164.923 241.907 165.274C241.635 165.916 242.069 166.622 242.785 166.684C242.962 166.7 243.133 166.676 243.285 166.621C243.375 166.587 243.476 166.607 243.555 166.656C243.748 166.781 244.02 166.86 244.388 166.87C245.119 166.879 245.989 166.552 246.358 166.118C246.343 166.187 246.348 166.273 246.381 166.375C246.453 166.592 246.629 166.793 246.749 166.755C246.869 166.713 246.881 166.457 246.803 166.243C246.795 166.227 246.789 166.216 246.782 166.201L246.876 166.194C247.296 166.128 247.58 165.796 247.509 165.456C247.439 165.116 247.074 164.889 246.693 164.95Z" fill="black"/>
<path d="M225.385 164.725C225.373 164.752 225.366 164.78 225.358 164.807C225.344 164.795 225.334 164.787 225.319 164.774C225.129 164.642 224.879 164.577 224.816 164.663C224.751 164.746 224.886 164.951 225.071 165.089C225.159 165.153 225.239 165.186 225.31 165.198C224.786 165.38 224.183 165.9 223.838 166.413C223.658 166.672 223.583 166.903 223.582 167.117C223.582 167.205 223.529 167.278 223.45 167.315C223.237 167.41 223.061 167.576 222.96 167.818C222.812 168.137 222.854 168.539 223.079 168.847C223.484 169.418 224.324 169.44 224.765 168.884C224.874 168.747 224.945 168.593 224.98 168.438C225 168.345 225.071 168.273 225.157 168.234C225.368 168.142 225.582 167.961 225.79 167.663C226.192 167.065 226.381 166.171 226.207 165.633C226.258 165.681 226.335 165.724 226.44 165.751C226.666 165.81 226.934 165.774 226.966 165.654C226.995 165.532 226.782 165.384 226.555 165.333C226.537 165.331 226.525 165.329 226.508 165.328L226.552 165.246C226.722 164.864 226.591 164.451 226.261 164.326C225.931 164.2 225.538 164.379 225.385 164.725Z" fill="black"/>
<path d="M252.531 162.809C252.505 162.824 252.484 162.843 252.461 162.861C252.456 162.845 252.453 162.832 252.448 162.814C252.362 162.602 252.188 162.414 252.086 162.45C251.985 162.487 251.989 162.739 252.069 162.954C252.107 163.055 252.156 163.127 252.208 163.173C251.66 163.035 250.872 163.165 250.297 163.404C250.012 163.543 249.813 163.674 249.693 163.851C249.643 163.921 249.561 163.961 249.476 163.95C249.249 163.928 249.01 163.962 248.788 164.099C248.49 164.289 248.302 164.657 248.309 165.025C248.319 165.732 249.001 166.191 249.692 165.973C249.865 165.926 250.009 165.827 250.125 165.712C250.193 165.643 250.291 165.614 250.387 165.631C250.615 165.668 250.908 165.652 251.24 165.493C251.916 165.21 252.562 164.547 252.721 164.016C252.737 164.084 252.777 164.161 252.851 164.239C253.007 164.407 253.247 164.512 253.339 164.428C253.432 164.344 253.335 164.106 253.174 163.942C253.16 163.93 253.15 163.922 253.137 163.912L253.22 163.869C253.581 163.65 253.697 163.23 253.488 162.943C253.285 162.665 252.86 162.609 252.531 162.809Z" fill="black"/>
<path d="M257.117 158.606C257.099 158.63 257.087 158.655 257.072 158.68C257.062 158.666 257.054 158.656 257.042 158.641C256.884 158.474 256.652 158.361 256.572 158.432C256.496 158.505 256.582 158.731 256.737 158.903C256.808 158.982 256.881 159.032 256.947 159.057C256.667 159.089 256.353 159.208 256.062 159.378C255.758 159.537 255.468 159.741 255.255 159.969C255.029 160.194 254.9 160.402 254.855 160.611C254.836 160.695 254.775 160.764 254.692 160.788C254.472 160.855 254.26 160.977 254.11 161.192C253.906 161.481 253.886 161.9 254.044 162.235C254.345 162.877 255.148 163.023 255.693 162.568C255.831 162.459 255.926 162.318 255.984 162.167C256.019 162.079 256.097 162.015 256.19 161.996C256.415 161.946 256.667 161.82 256.924 161.563C257.169 161.303 257.394 160.971 257.546 160.634C257.686 160.284 257.76 159.937 257.737 159.659C257.777 159.717 257.843 159.774 257.941 159.822C258.149 159.923 258.422 159.943 258.472 159.828C258.526 159.716 258.348 159.529 258.137 159.434C258.119 159.428 258.107 159.424 258.091 159.419L258.152 159.348C258.398 159.01 258.356 158.581 258.06 158.391C257.763 158.202 257.341 158.298 257.117 158.606Z" fill="black"/>
<path d="M259.68 153.035C259.673 153.064 259.671 153.092 259.667 153.12C259.652 153.111 259.64 153.106 259.624 153.096C259.411 153.008 259.15 152.996 259.103 153.092C259.056 153.187 259.239 153.36 259.45 153.456C259.55 153.5 259.636 153.516 259.707 153.513C259.24 153.802 258.764 154.437 258.533 155.004C258.427 155.298 258.396 155.534 258.432 155.74C258.448 155.823 258.418 155.908 258.35 155.96C258.172 156.1 258.034 156.295 257.973 156.544C257.898 156.885 258.036 157.277 258.307 157.53C258.828 158.02 259.637 157.866 259.969 157.235C260.057 157.083 260.081 156.91 260.083 156.749C260.082 156.654 260.13 156.566 260.21 156.511C260.405 156.381 260.586 156.163 260.71 155.82C260.981 155.153 260.972 154.238 260.679 153.748C260.74 153.785 260.824 153.812 260.932 153.816C261.165 153.826 261.413 153.732 261.419 153.608C261.426 153.485 261.188 153.385 260.953 153.383C260.935 153.384 260.922 153.385 260.905 153.387L260.935 153.299C261.021 152.892 260.789 152.514 260.442 152.46C260.089 152.405 259.759 152.665 259.68 153.035Z" fill="black"/>
<path d="M259.782 146.889C259.786 146.918 259.795 146.945 259.803 146.973C259.785 146.97 259.772 146.969 259.753 146.966C259.521 146.961 259.275 147.045 259.268 147.152C259.261 147.26 259.497 147.355 259.73 147.367C259.839 147.371 259.925 147.355 259.989 147.325C259.665 147.767 259.47 148.542 259.49 149.159C259.512 149.474 259.57 149.706 259.693 149.881C259.742 149.953 259.751 150.043 259.709 150.118C259.606 150.318 259.544 150.551 259.603 150.805C259.686 151.149 259.95 151.451 260.312 151.576C260.984 151.814 261.678 151.354 261.71 150.649C261.721 150.475 261.692 150.309 261.62 150.162C261.58 150.076 261.588 149.977 261.638 149.897C261.757 149.703 261.844 149.434 261.82 149.075C261.797 148.364 261.437 147.534 260.98 147.188C261.051 147.2 261.139 147.193 261.242 147.158C261.461 147.082 261.656 146.906 261.615 146.791C261.574 146.675 261.315 146.67 261.096 146.752C261.08 146.76 261.068 146.766 261.053 146.773L261.047 146.681C260.989 146.324 260.687 146.058 260.331 146.071C259.978 146.083 259.711 146.461 259.782 146.889Z" fill="black"/>
<path d="M260.465 140.227L260.439 140.32C260.426 140.309 260.415 140.3 260.4 140.289C260.203 140.164 259.947 140.121 259.881 140.236C259.814 140.352 259.968 140.568 260.17 140.681C260.265 140.733 260.351 140.754 260.423 140.753C259.918 141.033 259.431 141.847 259.331 142.557C259.277 142.917 259.319 143.192 259.422 143.397C259.463 143.481 259.459 143.581 259.413 143.661C259.29 143.877 259.228 144.146 259.291 144.431C259.368 144.818 259.68 145.125 260.051 145.207C260.75 145.352 261.361 144.86 261.395 144.257C261.406 144.103 261.377 143.956 261.317 143.82C261.282 143.74 261.3 143.652 261.357 143.585C261.493 143.422 261.591 143.2 261.638 142.892C261.723 142.285 261.634 141.532 261.377 141.051C261.435 141.091 261.518 141.12 261.625 141.134C261.857 141.163 262.105 141.122 262.115 141.025C262.126 140.928 261.901 140.8 261.674 140.759C261.656 140.757 261.643 140.756 261.627 140.755C261.639 140.731 261.652 140.707 261.661 140.681C261.797 140.354 261.671 139.967 261.369 139.8C261.054 139.627 260.633 139.817 260.465 140.227Z" fill="black"/>
<path d="M245.591 168.635L245.498 168.641C245.504 168.625 245.508 168.612 245.514 168.595C245.569 168.372 245.531 168.12 245.421 168.096C245.31 168.075 245.16 168.278 245.097 168.494C245.068 168.596 245.066 168.683 245.084 168.751C244.903 168.553 244.639 168.372 244.348 168.231C244.203 168.152 244.054 168.072 243.901 168.01C243.82 167.98 243.744 167.951 243.671 167.924L243.556 167.888C243.465 167.868 243.376 167.849 243.289 167.83C243.201 167.826 243.118 167.824 243.036 167.821C242.683 167.813 242.414 167.87 242.212 167.978C242.129 168.022 242.028 168.025 241.946 167.979C241.726 167.859 241.465 167.803 241.182 167.845C240.799 167.903 240.466 168.155 240.315 168.502C240.02 169.147 240.521 169.852 241.287 169.915C241.476 169.931 241.657 169.906 241.818 169.848C241.913 169.814 242.021 169.827 242.105 169.88C242.309 170.01 242.591 170.095 242.982 170.104C243.055 170.106 243.058 170.105 243.064 170.102L243.067 170.098C243.081 170.099 243 170.083 243.055 170.091L243.201 170.104C243.296 170.108 243.394 170.112 243.497 170.116C243.695 170.116 243.89 170.109 244.077 170.079C244.454 170.006 244.786 169.886 245.009 169.729C244.981 169.793 244.968 169.879 244.984 169.986C245.017 170.217 245.168 170.444 245.306 170.42C245.444 170.401 245.506 170.151 245.463 169.927C245.457 169.91 245.453 169.897 245.448 169.882L245.55 169.892C246.015 169.908 246.378 169.622 246.363 169.268C246.348 168.928 246.002 168.65 245.591 168.635Z" fill="black"/>
<path d="M252.126 167.174L252.044 167.223C252.042 167.206 252.04 167.193 252.038 167.174C251.981 166.951 251.828 166.747 251.715 166.777C251.6 166.802 251.561 167.05 251.61 167.274C251.634 167.378 251.674 167.454 251.722 167.507C251.17 167.332 250.306 167.383 249.66 167.57C249.33 167.66 249.105 167.801 248.949 167.962C248.885 168.024 248.791 168.052 248.701 168.03C248.462 167.967 248.205 167.995 247.949 168.105C247.601 168.246 247.341 168.583 247.288 168.96C247.179 169.656 247.835 170.205 248.611 170.07C248.801 170.032 248.973 169.957 249.116 169.858C249.2 169.8 249.31 169.784 249.41 169.813C249.648 169.876 249.952 169.862 250.338 169.755C251.097 169.535 251.884 168.938 252.13 168.403C252.135 168.473 252.166 168.554 252.231 168.64C252.369 168.825 252.608 168.959 252.72 168.886C252.829 168.808 252.765 168.558 252.622 168.379C252.608 168.366 252.599 168.357 252.588 168.345L252.681 168.308C253.088 168.107 253.281 167.697 253.112 167.392C252.942 167.087 252.501 166.989 252.126 167.174Z" fill="black"/>
<path d="M262.609 163.138L262.571 163.223C262.559 163.211 262.55 163.201 262.537 163.187C262.361 163.035 262.116 162.952 262.041 163.04C261.96 163.125 262.073 163.351 262.243 163.507C262.323 163.579 262.401 163.62 262.471 163.636C261.915 163.801 261.234 164.324 260.812 164.838C260.592 165.097 260.49 165.338 260.456 165.557C260.439 165.644 260.377 165.719 260.291 165.751C260.058 165.833 259.862 165.998 259.716 166.232C259.512 166.541 259.495 166.965 259.67 167.303C259.984 167.937 260.843 168.023 261.403 167.478C261.536 167.341 261.634 167.184 261.694 167.023C261.73 166.928 261.811 166.853 261.909 166.822C262.143 166.741 262.384 166.559 262.639 166.257C263.135 165.652 263.435 164.723 263.326 164.146C263.372 164.2 263.443 164.25 263.547 164.285C263.769 164.36 264.043 164.336 264.092 164.213C264.137 164.089 263.939 163.919 263.716 163.851C263.699 163.848 263.686 163.846 263.669 163.842L263.724 163.76C263.943 163.368 263.863 162.923 263.547 162.767C263.23 162.611 262.81 162.776 262.609 163.138Z" fill="black"/>
<path d="M257.712 163.298L257.649 163.369C257.642 163.354 257.636 163.341 257.627 163.324C257.504 163.13 257.292 162.982 257.192 163.046C257.093 163.112 257.135 163.365 257.253 163.559C257.309 163.65 257.373 163.711 257.435 163.745C256.848 163.748 256.037 164.092 255.486 164.509C255.211 164.727 255.036 164.923 254.951 165.135C254.916 165.22 254.84 165.285 254.748 165.301C254.506 165.349 254.259 165.453 254.065 165.663C253.803 165.948 253.703 166.362 253.812 166.717C254.017 167.396 254.838 167.63 255.473 167.212C255.633 167.113 255.759 166.983 255.845 166.834C255.897 166.748 255.989 166.691 256.089 166.68C256.328 166.651 256.616 166.55 256.919 166.311C257.529 165.849 258.05 165.044 258.113 164.467C258.142 164.531 258.197 164.599 258.286 164.661C258.479 164.794 258.744 164.846 258.82 164.74C258.898 164.636 258.758 164.419 258.565 164.291C258.549 164.283 258.537 164.277 258.522 164.269L258.599 164.207C258.922 163.899 258.978 163.454 258.724 163.211C258.471 162.969 258.017 163.008 257.712 163.298Z" fill="black"/>
<path d="M261.809 157.985L261.777 158.072C261.764 158.06 261.754 158.05 261.74 158.038C261.552 157.901 261.301 157.837 261.233 157.928C261.168 158.019 261.3 158.237 261.479 158.378C261.564 158.444 261.645 158.479 261.716 158.49C261.168 158.689 260.539 159.25 260.141 159.79C259.944 160.069 259.855 160.316 259.827 160.535C259.818 160.625 259.763 160.707 259.679 160.747C259.458 160.855 259.267 161.034 259.133 161.284C258.959 161.626 258.987 162.056 259.195 162.366C259.591 162.959 260.438 162.951 260.933 162.38C261.056 162.24 261.133 162.073 261.178 161.909C261.204 161.812 261.277 161.731 261.371 161.693C261.603 161.604 261.831 161.41 262.058 161.09C262.518 160.465 262.753 159.503 262.608 158.937C262.657 158.987 262.733 159.032 262.839 159.059C263.068 159.118 263.338 159.072 263.372 158.941C263.408 158.811 263.199 158.657 262.97 158.608C262.952 158.606 262.939 158.605 262.922 158.603L262.972 158.516C263.173 158.109 263.037 157.665 262.706 157.538C262.377 157.412 261.99 157.619 261.809 157.985Z" fill="black"/>
<path d="M263.338 151.487L263.339 151.582C263.323 151.576 263.31 151.57 263.293 151.563C263.068 151.499 262.81 151.528 262.775 151.642C262.742 151.757 262.946 151.918 263.169 151.985C263.274 152.016 263.362 152.019 263.431 152.003C263.002 152.393 262.645 153.195 262.523 153.861C262.47 154.203 262.487 154.464 262.564 154.673C262.596 154.758 262.584 154.855 262.527 154.927C262.381 155.121 262.27 155.355 262.271 155.636C262.277 156.016 262.46 156.381 262.791 156.583C263.391 156.964 264.188 156.61 264.373 155.87C264.425 155.689 264.429 155.508 264.392 155.34C264.371 155.242 264.401 155.138 264.468 155.064C264.632 154.883 264.764 154.615 264.822 154.237C264.959 153.489 264.781 152.559 264.429 152.092C264.494 152.121 264.581 152.135 264.69 152.121C264.922 152.094 265.154 151.96 265.143 151.832C265.133 151.705 264.88 151.636 264.649 151.667C264.631 151.672 264.619 151.674 264.602 151.679C264.609 151.647 264.615 151.616 264.617 151.583C264.646 151.148 264.383 150.779 264.029 150.76C263.675 150.741 263.366 151.066 263.338 151.487Z" fill="black"/>
<path d="M262.777 144.746C262.782 144.779 262.792 144.811 262.8 144.842C262.782 144.839 262.769 144.836 262.75 144.833C262.516 144.818 262.271 144.904 262.268 145.031C262.264 145.156 262.504 145.274 262.737 145.286C262.847 145.292 262.932 145.274 262.996 145.24C262.676 145.73 262.557 146.639 262.673 147.336C262.731 147.691 262.842 147.939 262.989 148.114C263.051 148.186 263.072 148.282 263.043 148.37C262.964 148.601 262.963 148.865 263.05 149.104C263.114 149.286 263.212 149.363 263.344 149.516C263.473 149.657 263.639 149.764 263.824 149.816C264.168 149.914 264.501 149.832 264.753 149.633C264.88 149.545 264.981 149.391 265.045 149.194C265.104 149.019 265.132 148.818 265.11 148.632C265.09 148.44 265.028 148.269 264.938 148.127C264.886 148.042 264.878 147.934 264.915 147.845C265.005 147.624 265.034 147.339 264.975 146.974C264.856 146.255 264.44 145.449 263.985 145.087C264.056 145.099 264.143 145.091 264.246 145.053C264.464 144.971 264.657 144.795 264.617 144.682C264.575 144.568 264.315 144.557 264.096 144.637C264.08 144.645 264.068 144.65 264.053 144.658L264.047 144.564C263.984 144.149 263.662 143.851 263.309 143.885C262.957 143.919 262.712 144.312 262.777 144.746Z" fill="black"/>
<path d="M233.151 158.048C233.143 158.074 233.14 158.101 233.135 158.127C233.121 158.117 233.11 158.109 233.094 158.099C232.888 157.986 232.643 157.941 232.587 158.015C232.526 158.087 232.68 158.272 232.872 158.401C232.961 158.461 233.043 158.493 233.113 158.502C232.625 158.699 231.999 159.123 231.626 159.593C231.421 159.827 231.311 160.044 231.283 160.255C231.271 160.341 231.216 160.415 231.134 160.443C230.904 160.511 230.701 160.653 230.561 160.881C230.38 161.195 230.351 161.599 230.532 161.931C230.86 162.55 231.694 162.678 232.217 162.167C232.348 162.044 232.444 161.9 232.504 161.75C232.536 161.657 232.612 161.584 232.705 161.555C232.932 161.482 233.182 161.327 233.433 161.036C233.918 160.439 234.232 159.483 234.027 158.904C234.079 158.953 234.156 158.994 234.263 159.016C234.493 159.063 234.765 158.992 234.802 158.855C234.835 158.716 234.603 158.576 234.374 158.552H234.326L234.365 158.458C234.523 158.014 234.302 157.595 233.947 157.542C233.601 157.491 233.27 157.722 233.151 158.048Z" fill="black"/>
<path d="M232.706 151.804L232.719 151.897C232.702 151.893 232.689 151.889 232.67 151.885C232.44 151.852 232.187 151.915 232.171 152.037C232.154 152.16 232.386 152.289 232.618 152.317C232.726 152.331 232.813 152.319 232.879 152.292C232.507 152.706 232.351 153.682 232.505 154.371C232.579 154.725 232.7 154.948 232.857 155.107C232.922 155.173 232.948 155.262 232.921 155.344C232.853 155.567 232.861 155.806 232.957 156.03C233.098 156.338 233.395 156.573 233.78 156.662C234.127 156.739 234.461 156.658 234.689 156.432C234.928 156.205 235.05 155.846 234.995 155.477C234.967 155.293 234.894 155.137 234.8 155.001C234.744 154.92 234.731 154.818 234.764 154.733C234.842 154.522 234.858 154.244 234.79 153.921C234.65 153.28 234.297 152.617 233.878 152.216C233.947 152.232 234.035 152.23 234.14 152.201C234.364 152.14 234.569 151.989 234.541 151.882C234.513 151.775 234.254 151.745 234.029 151.802C234.012 151.809 233.999 151.813 233.984 151.819L233.987 151.731C233.959 151.337 233.669 151.025 233.314 151.032C232.96 151.039 232.677 151.387 232.706 151.804Z" fill="black"/>
<path d="M233.69 145.078L233.66 145.17C233.646 145.158 233.636 145.15 233.622 145.137C233.43 145.006 233.175 144.954 233.103 145.064C233.032 145.174 233.176 145.396 233.372 145.518C233.464 145.576 233.548 145.601 233.62 145.603C233.109 145.863 232.549 146.662 232.423 147.399C232.34 147.768 232.389 148.055 232.473 148.271C232.509 148.359 232.503 148.461 232.455 148.544C232.328 148.762 232.255 149.041 232.312 149.334C232.386 149.734 232.68 150.051 233.057 150.143C233.75 150.307 234.371 149.81 234.421 149.2C234.436 149.045 234.411 148.896 234.355 148.757C234.32 148.675 234.34 148.585 234.401 148.52C234.553 148.363 234.641 148.138 234.712 147.834C234.814 147.225 234.793 146.457 234.558 145.947C234.613 145.99 234.695 146.025 234.802 146.043C235.032 146.082 235.286 146.044 235.303 145.942C235.322 145.84 235.103 145.702 234.876 145.654C234.858 145.652 234.846 145.65 234.829 145.648C234.843 145.624 234.858 145.6 234.87 145.573C235.012 145.222 234.919 144.826 234.6 144.66C234.294 144.5 233.857 144.674 233.69 145.078Z" fill="black"/>
<path d="M238.173 144.217L238.124 144.301C238.114 144.287 238.106 144.277 238.094 144.261C237.934 144.094 237.695 143.992 237.602 144.086C237.51 144.179 237.603 144.425 237.769 144.584C237.848 144.659 237.924 144.7 237.995 144.717C237.44 144.868 236.724 145.537 236.447 146.233C236.287 146.578 236.276 146.869 236.313 147.097C236.33 147.19 236.302 147.289 236.238 147.36C236.068 147.549 235.937 147.807 235.933 148.105C235.921 148.512 236.142 148.882 236.492 149.047C237.136 149.346 237.848 148.985 238.024 148.399C238.071 148.25 238.078 148.098 238.053 147.952C238.035 147.864 238.074 147.78 238.148 147.729C238.329 147.606 238.463 147.403 238.595 147.12C238.823 146.545 238.963 145.788 238.84 145.243C238.886 145.296 238.958 145.346 239.058 145.385C239.276 145.469 239.532 145.484 239.572 145.387C239.611 145.291 239.426 145.112 239.214 145.019C239.196 145.014 239.184 145.01 239.168 145.005C239.187 144.983 239.207 144.963 239.224 144.939C239.437 144.624 239.429 144.218 239.152 143.992C238.886 143.773 238.421 143.856 238.173 144.217Z" fill="black"/>
<path d="M238.16 139.848C238.134 139.868 238.112 139.89 238.089 139.912C238.083 139.896 238.078 139.883 238.072 139.865C237.976 139.656 237.785 139.483 237.67 139.54C237.556 139.598 237.567 139.861 237.669 140.066C237.717 140.162 237.775 140.226 237.835 140.265C237.249 140.207 236.389 140.591 235.855 141.099C235.588 141.371 235.445 141.628 235.393 141.854C235.369 141.945 235.312 142.035 235.223 142.077C234.991 142.194 234.766 142.388 234.648 142.674C234.489 143.066 234.553 143.486 234.832 143.759C235.343 144.245 236.129 144.149 236.492 143.684C236.59 143.567 236.651 143.431 236.681 143.287C236.7 143.204 236.759 143.135 236.849 143.117C237.062 143.07 237.274 142.95 237.494 142.724C237.957 142.286 238.361 141.579 238.45 141.04C238.475 141.105 238.525 141.176 238.607 141.246C238.782 141.397 239.02 141.487 239.092 141.405C239.164 141.323 239.048 141.093 238.879 140.939C238.864 140.928 238.853 140.921 238.84 140.911L238.915 140.865C239.24 140.646 239.348 140.232 239.156 139.939C238.965 139.647 238.519 139.606 238.16 139.848Z" fill="black"/>
<path d="M244.605 137.284L244.509 137.306C244.513 137.289 244.515 137.276 244.519 137.257C244.539 137.028 244.457 136.786 244.325 136.783C244.193 136.78 244.071 137.015 244.061 137.243C244.055 137.35 244.076 137.434 244.11 137.496C243.622 137.175 242.65 137.113 241.93 137.358C241.563 137.474 241.324 137.643 241.179 137.832C241.118 137.908 241.024 137.954 240.925 137.95C240.661 137.941 240.387 138.038 240.147 138.223C239.826 138.488 239.697 138.908 239.804 139.264C240.019 139.937 240.761 140.202 241.319 139.949C241.462 139.886 241.577 139.781 241.675 139.673C241.731 139.608 241.82 139.58 241.907 139.598C242.117 139.639 242.364 139.62 242.668 139.525C243.26 139.323 243.935 138.901 244.272 138.464C244.263 138.533 244.272 138.618 244.31 138.718C244.391 138.933 244.552 139.126 244.652 139.088C244.753 139.05 244.765 138.795 244.693 138.579C244.686 138.563 244.68 138.552 244.674 138.537L244.761 138.531C245.147 138.498 245.447 138.185 245.431 137.843C245.415 137.492 245.045 137.244 244.605 137.284Z" fill="black"/>
<path d="M238.046 167.77L237.964 167.824C237.962 167.806 237.959 167.794 237.956 167.775C237.892 167.554 237.729 167.355 237.604 167.397C237.48 167.439 237.45 167.702 237.521 167.919C237.555 168.021 237.604 168.093 237.658 168.14C237.086 168.006 236.154 168.281 235.567 168.758C235.266 168.992 235.101 169.233 235.033 169.46C235.004 169.551 234.932 169.627 234.838 169.657C234.588 169.739 234.365 169.924 234.207 170.18C234.001 170.539 234.03 170.976 234.258 171.273C234.699 171.829 235.49 171.822 235.922 171.395C236.033 171.286 236.103 171.149 236.156 171.014C236.186 170.933 236.259 170.876 236.347 170.864C236.559 170.83 236.782 170.727 237.033 170.534C237.515 170.141 237.997 169.515 238.157 168.99C238.172 169.057 238.212 169.135 238.283 169.215C238.435 169.389 238.655 169.514 238.736 169.444C238.816 169.374 238.736 169.131 238.592 168.953C238.579 168.941 238.57 168.932 238.558 168.92L238.638 168.885C238.988 168.721 239.157 168.325 239.02 168.01C238.878 167.687 238.444 167.582 238.046 167.77Z" fill="black"/>
<path d="M251.323 137.731L251.238 137.743C251.242 137.727 251.246 137.714 251.251 137.697C251.286 137.471 251.235 137.224 251.136 137.198C251.036 137.175 250.911 137.388 250.862 137.611C250.84 137.715 250.842 137.801 250.861 137.868C250.47 137.482 249.783 137.142 249.118 137.016C248.781 136.955 248.501 136.978 248.282 137.061C248.195 137.094 248.092 137.086 248.007 137.034C247.787 136.891 247.499 136.82 247.19 136.867C246.769 136.916 246.433 137.225 246.34 137.583C246.176 138.268 246.669 138.865 247.266 138.933C247.421 138.945 247.57 138.935 247.712 138.884C247.794 138.855 247.887 138.876 247.955 138.939C248.115 139.086 248.35 139.199 248.706 139.264C249.405 139.399 250.394 139.236 250.837 138.849C250.813 138.915 250.804 139.001 250.825 139.106C250.868 139.33 251.03 139.546 251.165 139.525C251.3 139.505 251.344 139.25 251.287 139.029C251.281 139.012 251.276 139 251.271 138.984C251.303 138.987 251.336 138.989 251.37 138.987C251.825 138.965 252.148 138.644 252.095 138.294C252.043 137.958 251.698 137.712 251.323 137.731Z" fill="black"/>
<path d="M257.082 135.403L257.013 135.46C257.008 135.444 257.003 135.431 256.997 135.414C256.899 135.207 256.712 135.03 256.608 135.074C256.505 135.118 256.52 135.37 256.614 135.579C256.658 135.677 256.712 135.746 256.768 135.788C256.213 135.71 255.405 135.901 254.847 136.184C254.562 136.331 254.385 136.507 254.271 136.675C254.225 136.747 254.145 136.79 254.059 136.783C253.83 136.77 253.6 136.823 253.386 136.959C253.102 137.163 252.917 137.512 252.921 137.886C252.913 138.591 253.629 139.063 254.36 138.801C254.541 138.743 254.683 138.628 254.801 138.508C254.869 138.436 254.971 138.401 255.071 138.411C255.318 138.445 255.6 138.377 255.939 138.202C256.612 137.858 257.224 137.155 257.339 136.594C257.359 136.662 257.405 136.735 257.484 136.809C257.652 136.966 257.902 137.056 257.99 136.967C258.079 136.878 257.968 136.648 257.795 136.493C257.781 136.483 257.77 136.475 257.756 136.466L257.839 136.418C258.195 136.18 258.272 135.732 258.058 135.465C257.835 135.186 257.413 135.183 257.082 135.403Z" fill="black"/>
<path d="M229.525 155.115L229.552 155.203C229.535 155.201 229.521 155.2 229.503 155.199C229.27 155.204 229.031 155.306 229.034 155.427C229.029 155.47 229.068 155.439 229.154 155.447C229.237 155.447 229.348 155.492 229.463 155.496C229.571 155.506 229.659 155.498 229.726 155.477C229.358 155.819 229.02 156.519 228.915 157.128C228.862 157.436 228.887 157.676 228.966 157.87C228.999 157.95 228.988 158.039 228.93 158.101C228.778 158.271 228.682 158.481 228.68 158.73C228.674 159.061 228.863 159.396 229.173 159.623C229.734 160.068 230.562 159.766 230.765 159.047C230.819 158.872 230.818 158.7 230.788 158.54C230.771 158.446 230.8 158.348 230.865 158.279C231.028 158.111 231.154 157.858 231.215 157.5C231.337 156.793 231.151 155.877 230.725 155.418C230.794 155.439 230.882 155.441 230.988 155.41C231.098 155.37 231.213 155.323 231.28 155.216C231.349 155.118 231.372 154.962 231.346 154.894C231.301 154.795 231.042 154.807 230.829 154.899C230.812 154.908 230.801 154.915 230.787 154.923L230.776 154.837C230.694 154.459 230.345 154.206 229.997 154.27C229.648 154.333 229.437 154.712 229.525 155.115Z" fill="black"/>
<path d="M229.076 148.509L229.074 148.602C229.058 148.595 229.046 148.59 229.028 148.583C228.806 148.513 228.546 148.535 228.511 148.653C228.475 148.772 228.678 148.937 228.901 148.999C229.006 149.029 229.093 149.03 229.164 149.013C228.743 149.39 228.427 150.246 228.453 150.956C228.451 151.316 228.557 151.577 228.687 151.763C228.741 151.839 228.756 151.937 228.722 152.025C228.623 152.257 228.624 152.529 228.727 152.8C228.866 153.168 229.211 153.424 229.598 153.45C230.308 153.496 230.84 152.912 230.776 152.301C230.754 152.147 230.704 152.004 230.627 151.878C230.581 151.804 230.582 151.713 230.627 151.636C230.741 151.453 230.78 151.213 230.783 150.896C230.761 150.272 230.527 149.512 230.162 149.09C230.228 149.115 230.315 149.127 230.424 149.115C230.655 149.09 230.887 148.981 230.875 148.875C230.864 148.769 230.614 148.699 230.382 148.718C230.364 148.722 230.352 148.724 230.335 148.727L230.352 148.643C230.384 148.263 230.154 147.915 229.806 147.86C229.454 147.805 229.112 148.094 229.076 148.509Z" fill="black"/>
<path d="M231.19 142.18L231.149 142.265C231.137 142.252 231.128 142.242 231.116 142.227C230.942 142.074 230.698 141.987 230.616 142.083C230.533 142.178 230.648 142.412 230.825 142.56C230.908 142.629 230.988 142.665 231.058 142.679C230.773 142.761 230.486 142.974 230.224 143.248C229.951 143.518 229.728 143.859 229.602 144.198C229.465 144.538 229.432 144.815 229.494 145.042C229.517 145.134 229.494 145.232 229.429 145.302C229.263 145.489 229.126 145.739 229.136 146.036C229.138 146.437 229.367 146.799 229.713 146.955C230.363 147.237 231.079 146.879 231.229 146.3C231.275 146.154 231.281 146.006 231.254 145.862C231.238 145.777 231.272 145.693 231.34 145.64C231.501 145.509 231.657 145.318 231.774 145.029C231.881 144.74 231.953 144.403 231.994 144.075C232.025 143.742 232.001 143.409 231.936 143.152C231.985 143.202 232.059 143.247 232.163 143.281C232.385 143.351 232.64 143.347 232.673 143.247C232.705 143.146 232.507 142.981 232.289 142.904C232.271 142.899 232.259 142.897 232.243 142.892C232.259 142.87 232.278 142.848 232.292 142.823C232.475 142.489 232.433 142.089 232.135 141.891C231.846 141.699 231.394 141.811 231.19 142.18Z" fill="black"/>
<path d="M263.642 137.002L263.632 137.096C263.616 137.087 263.604 137.08 263.587 137.071C263.373 136.98 263.113 136.977 263.066 137.093C263.02 137.209 263.206 137.394 263.423 137.477C263.524 137.516 263.611 137.526 263.683 137.516C263.44 137.684 263.239 137.976 263.081 138.32C262.913 138.661 262.815 139.055 262.807 139.415C262.79 139.781 262.851 140.053 262.984 140.248C263.035 140.328 263.047 140.428 263.009 140.515C262.913 140.745 262.866 141.024 262.974 141.302C263.109 141.681 263.445 141.951 263.824 141.988C264.533 142.049 265.091 141.483 265.041 140.888C265.037 140.735 264.993 140.593 264.92 140.465C264.877 140.391 264.881 140.3 264.928 140.228C265.037 140.053 265.121 139.823 265.136 139.512C265.142 139.205 265.099 138.863 265.029 138.54C264.949 138.216 264.815 137.907 264.668 137.686C264.732 137.717 264.817 137.736 264.927 137.735C265.16 137.731 265.4 137.646 265.398 137.54C265.395 137.435 265.153 137.342 264.921 137.338C264.903 137.34 264.89 137.341 264.873 137.343C264.882 137.315 264.892 137.289 264.897 137.261C264.959 136.887 264.787 136.522 264.44 136.429C264.104 136.34 263.713 136.588 263.642 137.002Z" fill="black"/>
<path d="M235.8 137.301L235.729 137.362C235.723 137.345 235.718 137.333 235.712 137.316C235.614 137.108 235.423 136.935 235.31 136.988C235.197 137.042 235.209 137.299 235.312 137.502C235.361 137.598 235.419 137.663 235.478 137.703C234.915 137.656 234.054 137.996 233.536 138.495C233.262 138.734 233.133 138.992 233.081 139.215C233.061 139.306 232.998 139.385 232.909 139.42C232.671 139.515 232.446 139.686 232.324 139.96C232.149 140.324 232.196 140.746 232.442 141.032C232.905 141.558 233.714 141.54 234.095 141.074C234.202 140.962 234.274 140.831 234.313 140.69C234.336 140.608 234.404 140.546 234.49 140.528C234.703 140.484 234.904 140.357 235.148 140.145C235.601 139.707 236.024 139.03 236.093 138.476C236.118 138.541 236.168 138.612 236.25 138.682C236.426 138.833 236.666 138.928 236.738 138.848C236.811 138.768 236.695 138.54 236.523 138.386C236.509 138.375 236.499 138.368 236.485 138.358L236.56 138.314C236.872 138.084 236.973 137.673 236.78 137.388C236.581 137.095 236.139 137.052 235.8 137.301Z" fill="black"/>
<path d="M241.903 134.415L241.814 134.448C241.815 134.43 241.816 134.417 241.816 134.398C241.803 134.169 241.69 133.94 241.564 133.952C241.439 133.964 241.356 134.211 241.376 134.438C241.385 134.544 241.415 134.625 241.456 134.683C240.943 134.421 240.012 134.446 239.344 134.734C239.002 134.871 238.782 135.046 238.657 135.243C238.605 135.322 238.518 135.373 238.422 135.375C238.167 135.379 237.897 135.464 237.683 135.67C237.387 135.942 237.274 136.351 237.394 136.706C237.623 137.362 238.385 137.638 238.922 137.339C239.063 137.271 239.179 137.173 239.267 137.054C239.32 136.984 239.406 136.95 239.494 136.963C239.705 136.988 239.951 136.957 240.25 136.839C240.829 136.588 241.466 136.096 241.741 135.624C241.74 135.693 241.76 135.777 241.81 135.872C241.917 136.075 242.103 136.245 242.199 136.195C242.296 136.144 242.272 135.89 242.171 135.685C242.162 135.67 242.155 135.66 242.146 135.646L242.232 135.63C242.608 135.531 242.859 135.199 242.784 134.855C242.712 134.519 242.314 134.307 241.903 134.415Z" fill="black"/>
<path d="M248.685 134.032L248.59 134.027C248.597 134.012 248.603 134 248.612 133.983C248.692 133.768 248.682 133.514 248.561 133.474C248.441 133.435 248.263 133.628 248.189 133.844C248.155 133.944 248.15 134.031 248.163 134.1C247.797 133.663 246.924 133.333 246.189 133.338C245.817 133.334 245.545 133.43 245.351 133.553C245.272 133.605 245.17 133.618 245.081 133.583C244.842 133.492 244.56 133.491 244.28 133.588C243.896 133.714 243.639 134.08 243.614 134.449C243.58 135.154 244.174 135.647 244.785 135.598C244.941 135.584 245.084 135.525 245.212 135.451C245.287 135.407 245.38 135.41 245.456 135.456C245.64 135.571 245.88 135.618 246.199 135.621C246.826 135.619 247.601 135.405 248.045 135.074C248.016 135.137 248.001 135.222 248.008 135.329C248.024 135.557 248.125 135.787 248.232 135.779C248.34 135.771 248.422 135.529 248.413 135.302C248.41 135.284 248.408 135.271 248.405 135.256C248.434 135.263 248.461 135.271 248.49 135.275C248.873 135.321 249.246 135.116 249.314 134.773C249.382 134.436 249.109 134.085 248.685 134.032Z" fill="black"/>
<path d="M254.724 133.504L254.642 133.543C254.641 133.526 254.64 133.513 254.639 133.495C254.599 133.27 254.463 133.052 254.348 133.072C254.232 133.091 254.181 133.341 254.221 133.565C254.239 133.67 254.276 133.749 254.32 133.804C253.801 133.585 252.933 133.629 252.341 133.818C252.195 133.864 252.073 133.919 252.001 133.969C251.945 134.002 251.965 134.012 251.956 134.041C251.952 134.068 251.887 134.098 251.86 134.13C251.802 134.185 251.722 134.194 251.656 134.157C251.477 134.054 251.283 134.012 251.045 134.055C250.723 134.113 250.385 134.353 250.231 134.698C249.946 135.332 250.322 136.056 251.134 136.122C251.333 136.137 251.529 136.101 251.696 136.03C251.794 135.985 251.909 135.99 252.006 136.03C252.073 136.053 252.112 136.081 252.218 136.089C252.319 136.098 252.459 136.094 252.529 136.09C252.712 136.08 252.878 136.047 253.06 135.99C253.763 135.764 254.434 135.222 254.679 134.719C254.683 134.789 254.71 134.871 254.768 134.962C254.893 135.155 255.103 135.305 255.203 135.243C255.303 135.181 255.254 134.931 255.129 134.738C255.118 134.724 255.11 134.714 255.099 134.701L255.187 134.677C255.567 134.533 255.77 134.154 255.643 133.83C255.516 133.506 255.103 133.36 254.724 133.504Z" fill="black"/>
<path d="M225.418 150.412L225.439 150.511C225.422 150.508 225.409 150.505 225.39 150.501C225.156 150.475 224.908 150.555 224.903 150.69C224.897 150.824 225.135 150.955 225.367 150.972C225.476 150.98 225.562 150.961 225.626 150.928C225.29 151.422 225.246 152.436 225.39 153.08C225.465 153.427 225.587 153.67 225.742 153.839C225.806 153.908 225.832 154.005 225.807 154.094C225.74 154.333 225.749 154.598 225.858 154.857C226.008 155.21 226.337 155.465 226.717 155.526C227.426 155.659 228.009 155.003 227.883 154.26C227.855 154.075 227.786 153.91 227.69 153.77C227.634 153.687 227.621 153.582 227.653 153.489C227.734 153.264 227.75 152.975 227.671 152.606C227.501 151.843 227.059 151.15 226.617 150.786C226.687 150.798 226.775 150.79 226.878 150.753C227.098 150.675 227.297 150.511 227.261 150.404C227.224 150.296 226.963 150.278 226.741 150.348C226.725 150.356 226.713 150.361 226.698 150.368L226.694 150.276C226.637 149.872 226.357 149.552 225.995 149.567C225.649 149.58 225.356 149.962 225.418 150.412Z" fill="black"/>
<path d="M226.488 143.291L226.459 143.388C226.445 143.376 226.435 143.367 226.42 143.355C226.227 143.224 225.971 143.177 225.901 143.293C225.832 143.407 225.978 143.633 226.174 143.757C226.265 143.815 226.35 143.84 226.422 143.841C225.884 144.115 225.333 144.94 225.166 145.707C225.064 146.09 225.107 146.398 225.186 146.627C225.22 146.721 225.211 146.829 225.155 146.915C225.002 147.144 224.955 147.442 224.992 147.757C225.039 148.185 225.362 148.529 225.728 148.625C226.429 148.795 227.028 148.277 227.105 147.642C227.121 147.478 227.09 147.32 227.049 147.174C227.022 147.087 227.045 146.993 227.106 146.925C227.262 146.76 227.353 146.524 227.442 146.199C227.582 145.557 227.566 144.711 227.36 144.183C227.416 144.227 227.497 144.262 227.605 144.278C227.836 144.313 228.091 144.261 228.11 144.148C228.13 144.036 227.91 143.897 227.681 143.856C227.663 143.854 227.651 143.853 227.634 143.852L227.675 143.77C227.833 143.39 227.729 142.97 227.406 142.818C227.09 142.67 226.662 142.874 226.488 143.291Z" fill="black"/>
<path d="M230.523 137.332L230.459 137.409C230.45 137.394 230.444 137.382 230.435 137.365C230.303 137.177 230.08 137.042 229.973 137.119C229.863 137.194 229.924 137.46 230.06 137.646C230.124 137.733 230.193 137.786 230.259 137.813C229.664 137.878 228.849 138.412 228.381 139.023C228.151 139.337 228.044 139.616 228.021 139.854C228.011 139.951 227.956 140.044 227.869 140.096C227.645 140.242 227.458 140.476 227.355 140.77C227.208 141.168 227.335 141.614 227.615 141.864C228.159 142.332 228.936 142.137 229.302 141.585C229.393 141.443 229.442 141.287 229.462 141.131C229.477 141.04 229.541 140.963 229.628 140.926C229.841 140.837 230.046 140.667 230.251 140.387C230.668 139.845 231.001 139.042 231.004 138.47C231.039 138.53 231.101 138.592 231.195 138.646C231.398 138.761 231.65 138.795 231.717 138.699C231.782 138.6 231.629 138.395 231.43 138.275C231.413 138.268 231.401 138.262 231.385 138.255L231.458 138.193C231.754 137.892 231.791 137.448 231.543 137.2C231.293 136.953 230.837 137.013 230.523 137.332Z" fill="black"/>
<path d="M225.935 157.854L225.95 157.952C225.934 157.948 225.92 157.945 225.901 157.94C225.67 157.912 225.419 157.985 225.406 158.115C225.391 158.245 225.635 158.378 225.866 158.401C225.975 158.413 226.062 158.397 226.127 158.367C225.781 158.845 225.646 159.797 225.801 160.545C225.887 160.923 226.029 161.186 226.195 161.362C226.262 161.433 226.296 161.535 226.278 161.634C226.241 161.895 226.294 162.187 226.451 162.458C226.656 162.829 227.081 163.033 227.458 162.994C228.176 162.908 228.544 162.209 228.367 161.575C228.318 161.414 228.232 161.274 228.127 161.155C228.067 161.084 228.051 160.986 228.081 160.898C228.154 160.683 228.161 160.419 228.084 160.083C227.947 159.418 227.556 158.641 227.122 158.258C227.192 158.273 227.28 158.268 227.384 158.235C227.606 158.164 227.8 158.002 227.771 157.889C227.739 157.775 227.481 157.751 227.257 157.817C227.24 157.824 227.228 157.83 227.212 157.836L227.213 157.743C227.18 157.326 226.866 157.003 226.513 157.021C226.159 157.038 225.899 157.412 225.935 157.854Z" fill="black"/>
<path d="M236.179 132.843L236.092 132.896C236.089 132.879 236.087 132.867 236.084 132.848C236.018 132.628 235.848 132.433 235.718 132.476C235.589 132.522 235.561 132.792 235.635 133.009C235.669 133.111 235.719 133.183 235.774 133.228C235.185 133.119 234.222 133.407 233.612 133.881C233.295 134.112 233.115 134.349 233.032 134.575C232.996 134.667 232.919 134.742 232.822 134.769C232.56 134.84 232.317 135.005 232.139 135.258C231.894 135.6 231.863 136.037 232.056 136.368C232.413 136.975 233.241 137.038 233.758 136.59C233.885 136.473 233.988 136.345 234.055 136.2C234.094 136.116 234.177 136.057 234.27 136.044C234.497 136.009 234.745 135.901 235.027 135.696C235.57 135.272 236.113 134.617 236.285 134.071C236.3 134.14 236.341 134.216 236.414 134.295C236.572 134.465 236.8 134.575 236.888 134.501C236.977 134.43 236.896 134.188 236.744 134.013C236.731 134.001 236.722 133.992 236.709 133.981L236.796 133.945C237.163 133.752 237.342 133.344 237.195 133.036C237.042 132.716 236.586 132.628 236.179 132.843Z" fill="black"/>
<path d="M243.247 130.961L243.147 130.976C243.151 130.959 243.155 130.946 243.16 130.928C243.195 130.701 243.126 130.455 242.994 130.442C242.861 130.43 242.719 130.655 242.69 130.881C242.676 130.987 242.689 131.073 242.719 131.138C242.24 130.785 241.264 130.633 240.488 130.784C240.096 130.852 239.823 131.006 239.641 131.165C239.567 131.233 239.462 131.266 239.361 131.249C239.091 131.218 238.788 131.272 238.509 131.429C238.131 131.655 237.927 132.062 237.979 132.431C238.091 133.132 238.813 133.475 239.442 133.294C239.603 133.246 239.742 133.163 239.86 133.057C239.931 132.999 240.03 132.982 240.119 133.012C240.338 133.088 240.597 133.083 240.94 133.024C241.607 132.895 242.404 132.529 242.805 132.115C242.789 132.183 242.791 132.269 242.822 132.372C242.89 132.591 243.051 132.794 243.167 132.763C243.282 132.732 243.314 132.478 243.252 132.258C243.245 132.242 243.24 132.23 243.234 132.215L243.329 132.215C243.753 132.181 244.094 131.904 244.084 131.553C244.073 131.21 243.7 130.925 243.247 130.961Z" fill="black"/>
<path d="M237.867 128.446L237.773 128.483C237.774 128.466 237.774 128.452 237.775 128.434C237.756 128.205 237.631 127.98 237.499 127.998C237.367 128.015 237.282 128.267 237.306 128.494C237.317 128.6 237.35 128.681 237.394 128.737C236.845 128.501 235.86 128.572 235.14 128.894C234.774 129.048 234.545 129.26 234.405 129.456C234.349 129.538 234.255 129.594 234.152 129.601C233.883 129.631 233.601 129.752 233.366 129.967C233.051 130.272 232.947 130.714 233.084 131.062C233.357 131.718 234.14 131.89 234.71 131.572C234.855 131.489 234.973 131.377 235.062 131.247C235.118 131.175 235.21 131.137 235.304 131.146C235.534 131.17 235.785 131.107 236.105 130.973C236.725 130.697 237.414 130.161 237.708 129.668C237.708 129.738 237.73 129.821 237.785 129.915C237.902 130.113 238.106 130.274 238.211 130.218C238.317 130.162 238.288 129.908 238.176 129.707C238.165 129.693 238.158 129.683 238.148 129.669L238.241 129.648C238.646 129.519 238.913 129.173 238.82 128.833C238.73 128.503 238.299 128.309 237.867 128.446Z" fill="black"/>
<path d="M250.42 131.221L250.323 131.223C250.329 131.207 250.334 131.194 250.341 131.177C250.403 130.956 250.368 130.703 250.248 130.673C250.128 130.644 249.966 130.848 249.901 131.068C249.872 131.171 249.872 131.257 249.89 131.325C249.479 130.914 248.62 130.581 247.883 130.525C247.511 130.497 247.226 130.547 247.01 130.65C246.923 130.693 246.816 130.694 246.728 130.649C246.495 130.527 246.207 130.474 245.878 130.534C245.462 130.625 245.132 130.924 245.041 131.29C244.866 131.976 245.448 132.573 246.107 132.595C246.278 132.604 246.445 132.575 246.599 132.517C246.69 132.483 246.792 132.496 246.872 132.551C247.065 132.683 247.333 132.774 247.704 132.802C248.434 132.858 249.353 132.661 249.824 132.304C249.796 132.369 249.784 132.455 249.8 132.56C249.833 132.788 249.973 133.011 250.102 132.996C250.231 132.981 250.297 132.734 250.261 132.508C250.256 132.49 250.252 132.478 250.248 132.462L250.346 132.476C250.793 132.501 251.17 132.231 251.178 131.884C251.187 131.537 250.852 131.245 250.42 131.221Z" fill="black"/>
<path d="M208.113 159.74C208.075 159.871 207.952 159.955 207.816 159.972C205.894 160.193 204.773 160.444 203.917 160.893C203.078 161.295 202.584 161.818 202.591 161.979C202.6 162.141 203.159 162.639 204.264 162.723C204.539 162.753 204.839 162.711 205.168 162.663C205.499 162.62 205.848 162.517 206.203 162.344C206.563 162.19 206.929 161.98 207.273 161.678C207.629 161.405 207.954 161.038 208.238 160.611C208.319 160.492 208.463 160.426 208.607 160.428C209.124 160.422 209.682 160.352 209.896 160.189C210.101 160.008 209.954 159.787 209.201 159.44C208.918 158.65 208.683 158.511 208.536 158.664C208.372 158.806 208.245 159.247 208.113 159.74Z" fill="black"/>
<path d="M212.319 153.404C212.379 153.527 212.361 153.675 212.277 153.78C210.986 155.225 210.408 156.222 210.079 157.095C209.765 157.944 209.783 158.668 209.9 158.78C210.017 158.896 210.766 158.869 211.626 158.174C212.48 157.514 213.337 155.996 213.027 153.976C213 153.835 213.046 153.688 213.154 153.596C213.98 152.917 214.565 152.024 212.943 152.476C211.474 151.655 211.904 152.514 212.319 153.404Z" fill="black"/>
<path d="M211.939 145.72C212.052 145.793 212.111 145.929 212.092 146.064C211.813 147.952 211.872 149.142 212.167 150.064C212.415 150.961 212.9 151.516 213.066 151.532C213.229 151.548 213.782 151.073 214.066 150.042C214.317 149.046 214.216 147.375 212.832 145.832C212.736 145.725 212.702 145.575 212.747 145.438C213.031 144.441 213.068 143.336 211.94 144.612C210.289 144.714 211.064 145.209 211.939 145.72Z" fill="black"/>
<path d="M206.945 139.992C207.08 139.967 207.229 140.007 207.302 140.128C208.39 141.703 209.127 142.549 209.921 143.089C210.277 143.375 210.642 143.554 210.935 143.659C211.209 143.776 211.422 143.807 211.496 143.766C211.567 143.727 211.652 143.533 211.682 143.213C211.691 142.904 211.629 142.473 211.432 141.962C211.192 141.483 210.83 140.906 210.194 140.438C209.584 139.952 208.709 139.58 207.683 139.465C207.544 139.44 207.403 139.373 207.339 139.244C206.856 138.291 206.062 137.534 206.172 139.186C205.046 140.419 205.971 140.176 206.945 139.992Z" fill="black"/>
<path d="M199.256 139.116C199.342 139.01 199.483 138.953 199.617 138.99C201.49 139.502 202.684 139.59 203.634 139.481C204.563 139.356 205.2 139.051 205.255 138.873C205.3 138.743 204.942 138.061 203.925 137.643C202.947 137.203 201.209 137.09 199.468 138.242C199.348 138.322 199.195 138.352 199.062 138.297C198.067 137.871 196.961 137.797 198.133 138.989C198.085 140.643 198.63 139.871 199.256 139.116Z" fill="black"/>
<path d="M192.994 143.448C192.982 143.315 193.054 143.186 193.173 143.118C194.859 142.18 195.781 141.522 196.407 140.819C197.009 140.126 197.306 139.504 197.227 139.329C197.194 139.257 197.008 139.161 196.689 139.114C196.37 139.065 195.912 139.062 195.393 139.247C194.361 139.552 192.926 140.649 192.533 142.686C192.507 142.827 192.407 142.946 192.27 142.996C191.282 143.386 190.388 144.056 192.103 144.129C193.214 145.338 193.112 144.429 192.994 143.448Z" fill="black"/>
<path d="M191.136 150.882C191.046 150.779 191.026 150.632 191.08 150.507C191.887 148.752 192.146 147.588 192.119 146.638C192.116 145.716 191.851 145.058 191.698 144.993C191.547 144.929 190.844 145.209 190.288 146.14C189.761 147.047 189.415 148.68 190.303 150.523C190.367 150.651 190.359 150.804 190.279 150.921C189.97 151.349 189.734 151.825 189.768 152.082C189.793 152.343 190.061 152.355 190.792 151.943C191.605 152.165 191.858 152.06 191.821 151.844C191.774 151.626 191.454 151.264 191.136 150.882Z" fill="black"/>
<path d="M193.802 158.039C193.667 158.012 193.56 157.907 193.527 157.779C193.125 155.928 192.734 154.84 192.206 154.043C191.68 153.273 191.117 152.849 190.93 152.883C190.792 152.906 190.33 153.52 190.39 154.591C190.415 155.627 191.048 157.258 192.914 158.246C193.046 158.311 193.135 158.438 193.145 158.579C193.166 159.109 193.301 159.628 193.495 159.815C193.688 160.01 193.898 159.85 194.199 159.074C194.969 158.743 195.092 158.5 194.933 158.361C194.765 158.221 194.287 158.151 193.802 158.039Z" fill="black"/>
<path d="M200.601 161.526C200.485 161.594 200.335 161.586 200.219 161.511C198.602 160.451 197.576 159.952 196.645 159.74C195.745 159.526 195.04 159.567 194.924 159.704C194.829 159.814 194.887 160.58 195.686 161.347C196.446 162.093 198.086 162.831 200.112 162.265C200.252 162.226 200.405 162.262 200.512 162.362C201.309 163.034 202.306 163.555 201.621 162.003C202.243 160.504 201.449 160.966 200.601 161.526Z" fill="black"/>
<path d="M208.115 167.108C208.044 167.221 207.913 167.281 207.782 167.264C206.851 167.148 206.079 167.057 205.45 167.154C204.804 167.172 204.28 167.313 203.853 167.503C202.995 167.829 202.514 168.338 202.519 168.512C202.523 168.662 203.043 169.171 204.047 169.354C204.544 169.419 205.162 169.404 205.856 169.241C206.533 168.998 207.309 168.671 208.019 167.988C208.12 167.893 208.263 167.859 208.395 167.903C208.873 168.063 209.388 168.187 209.62 168.104C209.85 168.01 209.79 167.751 209.21 167.176C209.191 166.344 209.027 166.133 208.836 166.231C208.637 166.319 208.374 166.691 208.115 167.108Z" fill="black"/>
<path d="M214.506 163.225C214.49 163.353 214.395 163.459 214.266 163.497C213.807 163.63 213.419 163.782 213.071 163.935C212.704 164.065 212.39 164.211 212.117 164.37C211.587 164.709 211.14 164.992 210.836 165.338C210.531 165.682 210.317 166.007 210.18 166.256C210.049 166.514 210.009 166.719 210.045 166.794C210.08 166.866 210.265 166.964 210.571 167.022C210.882 167.09 211.305 167.093 211.79 166.946C212.273 166.802 212.87 166.587 213.393 166.087C213.662 165.849 213.929 165.568 214.183 165.243C214.416 164.894 214.624 164.488 214.806 164.045C214.857 163.919 214.975 163.831 215.116 163.817C216.122 163.676 217.09 163.298 215.49 162.786C214.696 161.348 214.58 162.258 214.506 163.225Z" fill="black"/>
<path d="M218.452 156.942C218.5 157.067 218.469 157.206 218.376 157.297C217.66 157.924 217.195 158.498 216.83 159.013C216.445 159.515 216.277 160.027 216.125 160.446C215.838 161.289 215.961 162 216.094 162.104C216.22 162.203 216.919 162.115 217.715 161.465C218.116 161.146 218.449 160.635 218.753 159.997C219.033 159.35 219.165 158.51 219.105 157.562C219.088 157.426 219.148 157.293 219.262 157.219C220.108 156.671 220.871 155.953 219.173 156.138C217.862 155.168 218.096 156.033 218.452 156.942Z" fill="black"/>
<path d="M219.56 149.591C219.651 149.692 219.671 149.833 219.617 149.951C219.202 150.793 218.935 151.503 218.843 152.128C218.689 152.746 218.687 153.281 218.76 153.737C218.858 154.634 219.227 155.222 219.401 155.264C219.549 155.301 220.191 154.945 220.633 154.044C220.829 153.593 220.98 153.009 221.004 152.313C220.965 151.615 220.822 150.803 220.394 149.942C220.329 149.821 220.337 149.677 220.418 149.568C221.012 148.766 221.47 147.844 219.946 148.589C218.369 148.119 218.9 148.862 219.56 149.591Z" fill="black"/>
<path d="M217.998 142.33C218.119 142.391 218.19 142.515 218.183 142.644C218.112 143.57 218.117 144.319 218.238 144.934C218.312 145.563 218.499 146.063 218.729 146.466C219.11 147.283 219.687 147.709 219.857 147.691C220.016 147.675 220.47 147.129 220.598 146.132C220.622 145.642 220.556 145.042 220.332 144.378C220.059 143.729 219.628 143.009 218.904 142.358C218.799 142.268 218.752 142.13 218.787 141.999C218.915 141.52 218.994 141.013 218.902 140.789C218.795 140.567 218.539 140.643 217.984 141.257C217.149 141.33 216.944 141.506 217.051 141.689C217.146 141.883 217.555 142.108 217.998 142.33Z" fill="black"/>
<path d="M213.591 136.358C213.723 136.364 213.837 136.449 213.886 136.571C214.585 138.272 215.263 139.226 216 139.796C216.734 140.347 217.37 140.56 217.538 140.468C217.659 140.403 217.928 139.687 217.572 138.751C217.38 138.296 217.135 137.717 216.586 137.244C216.323 137 216.017 136.759 215.667 136.536C215.312 136.316 214.868 136.155 214.407 136.007C214.275 135.966 214.176 135.858 214.152 135.721C213.952 134.733 213.485 133.831 213.08 135.422C211.664 136.305 212.613 136.337 213.591 136.358Z" fill="black"/>
<path d="M206.921 132.943C207.045 132.886 207.189 132.905 207.289 132.988C208.665 134.277 209.743 134.759 210.651 134.968C211.53 135.186 212.254 135.004 212.342 134.88C212.443 134.738 212.296 134.073 211.577 133.343C210.869 132.638 209.451 131.985 207.504 132.257C207.366 132.284 207.226 132.237 207.142 132.131C206.52 131.352 205.729 130.665 206.047 132.305C205.159 133.663 206.022 133.365 206.921 132.943Z" fill="black"/>
<path d="M199.364 132.453C199.457 132.356 199.598 132.322 199.724 132.363C200.616 132.708 201.354 132.88 201.995 132.943C202.635 133.04 203.179 132.996 203.638 132.886C204.539 132.739 205.112 132.312 205.142 132.144C205.169 131.992 204.754 131.413 203.803 131.032C203.328 130.879 202.722 130.782 202.01 130.818C201.301 130.889 200.482 131.127 199.643 131.606C199.525 131.681 199.378 131.687 199.259 131.619C198.384 131.119 197.39 130.766 198.309 132.175C198 133.757 198.69 133.169 199.364 132.453Z" fill="black"/>
<path d="M192.246 134.873C192.289 134.749 192.405 134.664 192.538 134.653C193.46 134.544 194.238 134.492 194.829 134.269C195.442 134.098 195.931 133.882 196.306 133.607C197.071 133.114 197.447 132.534 197.408 132.362C197.376 132.218 196.764 131.806 195.738 131.831C195.238 131.872 194.622 131.986 193.983 132.314C193.368 132.69 192.67 133.159 192.14 133.999C192.063 134.112 191.93 134.176 191.791 134.16C190.744 134.019 189.754 134.229 191.174 135.062C191.629 136.665 191.911 135.747 192.246 134.873Z" fill="black"/>
<path d="M186.959 140.106C186.938 139.974 186.991 139.839 187.114 139.778C187.965 139.325 188.514 138.848 189.009 138.445C189.244 138.233 189.434 138.018 189.592 137.802C189.758 137.595 189.91 137.405 190.022 137.209C190.254 136.823 190.371 136.443 190.43 136.155C190.5 135.878 190.492 135.672 190.439 135.607C190.388 135.545 190.184 135.489 189.868 135.498C189.563 135.519 189.165 135.629 188.71 135.863C188.486 135.984 188.238 136.126 188.009 136.326C187.789 136.534 187.569 136.78 187.358 137.068C186.91 137.622 186.624 138.436 186.46 139.367C186.433 139.496 186.355 139.618 186.226 139.667C185.293 140.037 184.402 140.595 186.096 140.751C187.183 141.966 187.125 141.073 186.959 140.106Z" fill="black"/>
<path d="M184.46 147.092C184.389 146.979 184.394 146.837 184.468 146.729C185.014 145.969 185.413 145.324 185.62 144.73C185.887 144.155 185.988 143.633 186.001 143.173C186.101 142.288 185.836 141.629 185.681 141.555C185.538 141.488 184.86 141.72 184.224 142.517C183.946 142.926 183.686 143.476 183.53 144.16C183.437 144.856 183.42 145.685 183.701 146.608C183.743 146.738 183.71 146.879 183.611 146.972C182.884 147.666 182.27 148.502 183.903 148.016C185.374 148.734 184.982 147.92 184.46 147.092Z" fill="black"/>
<path d="M184.673 154.531C184.566 154.448 184.52 154.314 184.552 154.188C184.83 153.288 184.941 152.551 184.949 151.917C184.991 151.281 184.899 150.752 184.746 150.313C184.502 149.442 184.019 148.927 183.845 148.917C183.688 148.907 183.134 149.369 182.847 150.326C182.734 150.802 182.688 151.4 182.788 152.089C182.92 152.772 183.233 153.55 183.788 154.329C183.875 154.437 183.893 154.581 183.833 154.702C183.396 155.596 183.116 156.591 184.477 155.584C186.112 155.762 185.456 155.133 184.673 154.531Z" fill="black"/>
<path d="M187.658 161.321C187.528 161.287 187.434 161.18 187.414 161.051C187.326 160.586 187.25 160.181 187.181 159.816C187.098 159.445 186.991 159.121 186.865 158.835C186.656 158.242 186.39 157.784 186.084 157.435C185.532 156.72 184.905 156.399 184.735 156.45C184.588 156.493 184.224 157.12 184.318 158.12C184.394 158.607 184.564 159.194 184.933 159.798C185.138 160.09 185.387 160.388 185.684 160.679C185.968 160.977 186.334 161.249 186.773 161.482C186.894 161.55 186.968 161.676 186.961 161.813C186.89 162.84 187.153 163.802 187.917 162.359C189.517 161.816 188.576 161.589 187.658 161.321Z" fill="black"/>
<path d="M193.322 166.159C193.186 166.194 193.053 166.139 192.982 166.024C192.458 165.232 191.947 164.716 191.501 164.261C191.27 164.047 191.037 163.876 190.808 163.736C190.596 163.575 190.385 163.448 190.179 163.349C189.342 162.971 188.649 162.93 188.522 163.041C188.402 163.146 188.33 163.876 188.891 164.716C189.026 164.929 189.196 165.152 189.403 165.376C189.629 165.577 189.896 165.776 190.204 165.962C190.799 166.362 191.641 166.601 192.606 166.691C192.74 166.706 192.863 166.788 192.925 166.904C193.366 167.789 193.999 168.621 194.039 166.955C195.202 165.807 194.297 165.928 193.322 166.159Z" fill="black"/>
<path d="M200.612 168.068C200.503 168.147 200.358 168.155 200.242 168.092C199.424 167.619 198.738 167.287 198.12 167.128C197.515 166.913 196.978 166.855 196.509 166.878C195.605 166.838 194.95 167.151 194.887 167.307C194.828 167.453 195.114 168.092 195.972 168.662C196.41 168.902 196.992 169.114 197.702 169.213C198.418 169.254 199.268 169.198 200.182 168.85C200.312 168.798 200.458 168.819 200.562 168.908C201.329 169.558 202.236 170.086 201.598 168.534C202.2 167.037 201.409 167.488 200.612 168.068Z" fill="black"/>
<path d="M205.981 164.499C205.902 164.609 205.764 164.663 205.632 164.642C204.679 164.429 203.929 164.372 203.273 164.334C202.625 164.342 202.081 164.393 201.623 164.512C200.715 164.781 200.15 165.151 200.129 165.342C200.12 165.421 200.228 165.6 200.465 165.805C200.701 166.019 201.07 166.247 201.579 166.372C202.084 166.515 202.728 166.6 203.468 166.449C204.205 166.348 205.034 165.978 205.825 165.378C205.935 165.287 206.085 165.258 206.217 165.307C207.208 165.696 208.27 165.764 207.093 164.594C207.095 162.939 206.56 163.724 205.981 164.499Z" fill="black"/>
<path d="M212.439 160.459C212.434 160.592 212.339 160.704 212.212 160.752C210.438 161.462 209.436 162.076 208.799 162.773C208.156 163.421 207.909 164.1 207.971 164.24C208.042 164.397 208.723 164.645 209.764 164.375C210.279 164.241 210.849 163.925 211.417 163.442C211.684 163.179 211.947 162.871 212.194 162.52C212.438 162.168 212.618 161.723 212.786 161.264C212.832 161.133 212.951 161.037 213.09 161.007C214.083 160.762 215.077 160.306 213.406 159.927C212.522 158.561 212.438 159.458 212.439 160.459Z" fill="black"/>
<path d="M215.829 153.646C215.89 153.768 215.879 153.915 215.791 154.018C215.134 154.742 214.748 155.387 214.416 155.948C214.133 156.528 213.935 157.027 213.846 157.483C213.685 158.396 213.785 159.059 213.946 159.163C214.06 159.24 214.838 159.123 215.53 158.344C216.253 157.604 216.889 156.148 216.546 154.201C216.519 154.065 216.559 153.922 216.666 153.832C217.443 153.171 218.119 152.347 216.454 152.737C215.039 151.899 215.371 152.758 215.829 153.646Z" fill="black"/>
<path d="M215.922 146.038C216.029 146.122 216.091 146.257 216.046 146.389C215.907 146.853 215.814 147.268 215.761 147.647C215.699 148.027 215.632 148.378 215.624 148.699C215.622 149.339 215.629 149.882 215.761 150.334C215.999 151.236 216.398 151.794 216.586 151.816C216.727 151.835 217.359 151.399 217.659 150.417C217.969 149.46 217.989 147.87 216.808 146.24C216.736 146.125 216.701 145.98 216.759 145.853C217.171 144.921 217.39 143.873 216.081 144.956C214.434 144.831 215.121 145.436 215.922 146.038Z" fill="black"/>
<path d="M212.261 139.432C212.395 139.448 212.507 139.543 212.549 139.669C213.104 141.469 213.712 142.459 214.336 143.16C214.989 143.821 215.598 144.139 215.771 144.077C215.909 144.029 216.276 143.354 216.04 142.338C215.87 141.328 215.002 139.913 213.113 139.146C212.98 139.094 212.885 138.976 212.867 138.836C212.724 137.808 212.269 136.86 211.796 138.444C210.324 139.243 211.281 139.324 212.261 139.432Z" fill="black"/>
<path d="M205.519 135.811C205.645 135.748 205.794 135.765 205.895 135.862C207.36 137.092 208.408 137.657 209.345 137.862C210.237 138.099 210.952 137.997 211.06 137.857C211.152 137.74 211.051 137.017 210.309 136.259C209.571 135.549 208.11 134.787 206.095 135.126C205.957 135.14 205.812 135.096 205.721 134.994C205.051 134.231 204.205 133.563 204.598 135.196C203.739 136.579 204.609 136.256 205.519 135.811Z" fill="black"/>
<path d="M197.808 135.895C197.886 135.784 198.024 135.729 198.156 135.75C199.11 135.963 199.858 136.024 200.513 136.061C201.16 136.049 201.704 136.012 202.161 135.886C203.068 135.634 203.637 135.25 203.659 135.064C203.678 134.928 203.232 134.3 202.214 134.026C201.227 133.718 199.567 133.78 197.962 135.013C197.853 135.106 197.703 135.136 197.57 135.087C196.58 134.701 195.515 134.632 196.695 135.8C196.697 137.454 197.231 136.673 197.808 135.895Z" fill="black"/>
<path d="M191.36 139.951C191.366 139.818 191.46 139.706 191.587 139.657C193.359 138.944 194.359 138.325 194.995 137.628C195.32 137.307 195.536 136.973 195.668 136.697C195.803 136.432 195.856 136.238 195.819 136.16C195.748 136.002 195.063 135.752 194.025 136.028C193.509 136.161 192.943 136.483 192.374 136.965C192.109 137.229 191.846 137.538 191.601 137.889C191.357 138.242 191.179 138.688 191.011 139.146C190.967 139.278 190.848 139.375 190.709 139.404C189.716 139.651 188.723 140.108 190.394 140.484C191.28 141.849 191.363 140.951 191.36 139.951Z" fill="black"/>
<path d="M187.976 146.768C187.915 146.646 187.926 146.499 188.013 146.396C188.67 145.671 189.057 145.027 189.388 144.465C189.671 143.885 189.869 143.386 189.956 142.93C190.118 142.016 190.017 141.353 189.855 141.249C189.742 141.172 188.963 141.291 188.272 142.07C187.551 142.81 186.915 144.267 187.259 146.213C187.285 146.349 187.245 146.493 187.138 146.582C186.362 147.243 185.686 148.067 187.351 147.677C188.765 148.515 188.434 147.656 187.976 146.768Z" fill="black"/>
<path d="M187.88 154.376C187.773 154.293 187.711 154.158 187.757 154.026C187.896 153.562 187.99 153.147 188.043 152.767C188.105 152.387 188.172 152.036 188.18 151.715C188.183 151.075 188.175 150.532 188.043 150.08C187.806 149.178 187.406 148.62 187.219 148.598C187.078 148.579 186.446 149.014 186.145 149.997C185.835 150.954 185.815 152.543 186.995 154.174C187.066 154.289 187.102 154.434 187.042 154.561C186.63 155.492 186.409 156.539 187.719 155.459C189.368 155.586 188.68 154.98 187.88 154.376Z" fill="black"/>
<path d="M191.526 160.993C191.392 160.976 191.281 160.881 191.239 160.754C190.688 158.953 190.085 157.961 189.461 157.258C188.81 156.595 188.202 156.277 188.028 156.338C187.89 156.385 187.523 157.06 187.755 158.076C187.923 159.086 188.786 160.504 190.674 161.276C190.806 161.328 190.901 161.447 190.918 161.587C191.06 162.613 191.511 163.566 191.989 161.981C193.46 161.187 192.507 161.101 191.526 160.993Z" fill="black"/>
<path d="M198.265 164.605C198.141 164.663 197.99 164.655 197.888 164.563C196.424 163.322 195.37 162.78 194.439 162.565C193.545 162.333 192.834 162.427 192.724 162.569C192.633 162.684 192.729 163.414 193.474 164.168C194.207 164.888 195.681 165.63 197.691 165.299C197.83 165.281 197.977 165.316 198.068 165.423C198.741 166.188 199.594 166.856 199.188 165.22C200.034 163.837 199.171 164.159 198.265 164.605Z" fill="black"/>
<path d="M154.169 134.334C154.55 132.331 152.571 130.178 150.377 131.153C150.307 131.173 150.217 131.256 150.303 131.322C151.985 132.325 152.727 134.652 151.985 136.598C151.972 136.652 151.99 136.677 152.019 136.689C152.031 136.718 152.053 136.738 152.098 136.724C153.859 135.903 155.964 136.721 156.872 138.582C156.937 138.679 157.004 138.575 157.025 138.5C157.899 136.078 155.978 133.913 154.169 134.334Z" fill="black"/>
<path d="M162.694 122.954C163.076 120.951 161.097 118.798 158.902 119.773C158.832 119.792 158.743 119.876 158.829 119.942C160.51 120.945 161.253 123.272 160.51 125.218C160.497 125.272 160.516 125.297 160.544 125.309C160.556 125.338 160.579 125.358 160.624 125.344C162.384 124.523 164.49 125.341 165.397 127.202C165.462 127.299 165.529 127.195 165.551 127.12C166.424 124.698 164.503 122.533 162.694 122.954Z" fill="black"/>
<path d="M179.384 120.423C179.765 118.42 177.786 116.267 175.592 117.242C175.522 117.261 175.432 117.345 175.518 117.411C177.2 118.414 177.943 120.741 177.2 122.688C177.187 122.742 177.205 122.767 177.234 122.778C177.246 122.808 177.268 122.828 177.313 122.814C179.074 121.992 181.18 122.811 182.087 124.671C182.152 124.769 182.219 124.664 182.24 124.59C183.114 122.167 181.193 120.002 179.384 120.423Z" fill="black"/>
<path d="M146.292 143.352C146.673 141.349 144.694 139.196 142.499 140.171C142.43 140.191 142.34 140.274 142.426 140.34C144.107 141.343 144.85 143.67 144.107 145.616C144.094 145.67 144.113 145.695 144.142 145.707C144.153 145.737 144.176 145.756 144.221 145.742C145.981 144.921 148.087 145.739 148.994 147.6C149.059 147.697 149.126 147.593 149.148 147.518C150.022 145.096 148.1 142.931 146.292 143.352Z" fill="black"/>
<path d="M137.901 158.141C138.282 156.138 136.303 153.985 134.109 154.96C134.039 154.979 133.949 155.063 134.035 155.129C135.717 156.132 136.46 158.459 135.717 160.405C135.704 160.459 135.722 160.484 135.751 160.496C135.763 160.526 135.786 160.545 135.83 160.531C137.591 159.71 139.697 160.528 140.604 162.389C140.669 162.486 140.736 162.382 140.757 162.307C141.631 159.885 139.71 157.72 137.901 158.141Z" fill="black"/>
<path d="M164.92 176.402C165.302 174.399 163.323 172.246 161.128 173.221C161.058 173.241 160.969 173.324 161.055 173.39C162.736 174.393 163.479 176.72 162.736 178.667C162.723 178.721 162.742 178.746 162.77 178.757C162.782 178.787 162.805 178.807 162.85 178.793C164.61 177.971 166.716 178.79 167.623 180.65C167.688 180.748 167.755 180.643 167.777 180.569C168.65 178.146 166.729 175.981 164.92 176.402Z" fill="black"/>
<path d="M161.144 134.334C161.525 132.331 159.546 130.178 157.352 131.153C157.282 131.173 157.192 131.256 157.278 131.322C158.96 132.325 159.703 134.652 158.96 136.598C158.947 136.652 158.965 136.677 158.994 136.689C159.006 136.718 159.028 136.738 159.073 136.724C160.834 135.903 162.94 136.721 163.847 138.582C163.912 138.679 163.979 138.575 164 138.5C164.874 136.078 162.953 133.913 161.144 134.334Z" fill="black"/>
<path d="M168.119 134.334C168.5 132.331 166.521 130.178 164.326 131.153C164.256 131.173 164.167 131.256 164.253 131.322C165.935 132.325 166.677 134.652 165.934 136.598C165.922 136.652 165.94 136.677 165.969 136.689C165.981 136.718 166.003 136.738 166.048 136.724C167.809 135.903 169.914 136.721 170.822 138.582C170.887 138.679 170.954 138.575 170.975 138.5C171.849 136.078 169.928 133.913 168.119 134.334Z" fill="black"/>
<path d="M175.094 134.334C175.475 132.331 173.496 130.178 171.301 131.153C171.231 131.173 171.142 131.256 171.227 131.322C172.91 132.325 173.652 134.652 172.909 136.598C172.896 136.652 172.915 136.677 172.944 136.689C172.956 136.718 172.978 136.738 173.022 136.724C174.784 135.903 176.889 136.721 177.796 138.582C177.862 138.679 177.928 138.575 177.95 138.5C178.824 136.078 176.902 133.913 175.094 134.334Z" fill="black"/>
<path d="M154.03 165.743C154.426 163.74 152.369 161.587 150.089 162.562C150.016 162.582 149.923 162.665 150.012 162.731C151.759 163.734 152.531 166.061 151.759 168.007C151.746 168.061 151.765 168.087 151.796 168.098C151.808 168.128 151.832 168.147 151.877 168.133C153.707 167.312 155.896 168.13 156.839 169.991C156.906 170.088 156.976 169.984 156.998 169.909C157.906 167.487 155.91 165.322 154.03 165.743Z" fill="black"/>
<path d="M161.279 165.743C161.675 163.74 159.618 161.587 157.337 162.562C157.264 162.582 157.172 162.665 157.261 162.731C159.009 163.734 159.781 166.061 159.009 168.007C158.995 168.061 159.015 168.087 159.044 168.098C159.057 168.128 159.08 168.147 159.126 168.133C160.956 167.312 163.144 168.13 164.087 169.991C164.155 170.088 164.225 169.984 164.247 169.909C165.155 167.487 163.159 165.322 161.279 165.743Z" fill="black"/>
<path d="M168.527 165.743C168.924 163.74 166.867 161.587 164.586 162.562C164.513 162.582 164.421 162.665 164.509 162.731C166.257 163.734 167.029 166.061 166.257 168.007C166.243 168.061 166.263 168.087 166.293 168.098C166.306 168.128 166.329 168.147 166.375 168.133C168.205 167.312 170.393 168.13 171.336 169.991C171.404 170.088 171.473 169.984 171.495 169.909C172.404 167.487 170.408 165.322 168.527 165.743Z" fill="black"/>
<path d="M175.776 165.743C176.172 163.74 174.116 161.587 171.835 162.562C171.762 162.582 171.669 162.665 171.758 162.731C173.506 163.734 174.278 166.061 173.506 168.007C173.492 168.061 173.512 168.087 173.542 168.098C173.554 168.128 173.578 168.147 173.624 168.133C175.454 167.312 177.642 168.13 178.585 169.991C178.653 170.088 178.722 169.984 178.744 169.909C179.653 167.487 177.656 165.322 175.776 165.743Z" fill="black"/>
<path d="M156.444 158.171C156.936 156.292 154.943 154.337 152.583 155.307C152.508 155.327 152.41 155.408 152.498 155.467C154.228 156.356 154.908 158.508 154.037 160.345C154.02 160.395 154.039 160.419 154.069 160.429C154.08 160.456 154.103 160.474 154.151 160.459C156.046 159.644 158.233 160.35 159.107 162.061C159.171 162.15 159.247 162.051 159.272 161.981C160.303 159.696 158.372 157.728 156.444 158.171Z" fill="black"/>
<path d="M160.692 154.183C161.184 152.304 159.191 150.349 156.83 151.319C156.756 151.34 156.658 151.42 156.745 151.479C158.476 152.369 159.156 154.52 158.285 156.357C158.269 156.408 158.287 156.431 158.317 156.441C158.328 156.468 158.351 156.486 158.398 156.471C160.294 155.657 162.48 156.362 163.355 158.073C163.419 158.163 163.494 158.064 163.521 157.993C164.551 155.708 162.621 153.741 160.692 154.183Z" fill="black"/>
<path d="M164.94 150.195C165.431 148.316 163.439 146.361 161.078 147.331C161.004 147.352 160.905 147.432 160.993 147.492C162.724 148.381 163.404 150.532 162.532 152.369C162.516 152.42 162.535 152.443 162.565 152.453C162.576 152.48 162.599 152.498 162.646 152.484C164.542 151.669 166.728 152.375 167.602 154.085C167.667 154.175 167.742 154.076 167.768 154.005C168.799 151.72 166.869 149.753 164.94 150.195Z" fill="black"/>
<path d="M169.187 146.208C169.679 144.328 167.686 142.374 165.326 143.343C165.252 143.364 165.153 143.444 165.241 143.504C166.972 144.393 167.651 146.544 166.78 148.382C166.764 148.432 166.782 148.455 166.813 148.465C166.823 148.492 166.847 148.511 166.894 148.496C168.789 147.681 170.976 148.386 171.85 150.097C171.914 150.187 171.99 150.088 172.016 150.017C173.047 147.733 171.116 145.765 169.187 146.208Z" fill="black"/>
<path d="M173.436 142.22C173.927 140.341 171.934 138.386 169.574 139.355C169.499 139.376 169.401 139.456 169.489 139.516C171.219 140.406 171.899 142.556 171.028 144.394C171.012 144.444 171.03 144.467 171.061 144.477C171.072 144.504 171.095 144.522 171.142 144.508C173.037 143.693 175.224 144.399 176.098 146.109C176.163 146.199 176.238 146.1 176.264 146.029C177.295 143.745 175.364 141.777 173.436 142.22Z" fill="black"/>
<path d="M137.955 175.924H151.983C158.359 175.924 162.716 180.141 162.716 185.45C162.716 188.885 160.856 191.8 158.146 193.153V193.465C161.334 195.079 163.407 198.567 163.407 202.262C163.407 207.988 158.465 212.36 151.877 212.36H137.955V175.924ZM151.558 191.436C154.905 191.436 157.35 189.145 157.35 185.97C157.35 182.795 154.905 180.557 151.558 180.557H143.215V191.436H151.558ZM152.036 207.727C155.277 207.727 158.041 205.073 158.041 201.898C158.041 198.723 155.277 196.016 152.036 196.016H143.215V207.727H152.036Z" fill="black"/>
<path d="M171.215 175.924H185.242C191.619 175.924 196.242 180.453 196.242 186.491C196.242 191.332 193.32 194.975 188.537 196.381L197.571 212.36H191.673L183.223 197.318H176.475V212.36H171.215V175.924ZM184.711 192.685C188.165 192.685 190.875 189.978 190.875 186.595C190.875 183.264 188.165 180.557 184.711 180.557H176.475V192.685H184.711Z" fill="black"/>
<path d="M205.059 175.924H210.425L229.129 203.407H229.448V175.924H234.549V212.36H229.182L210.425 184.877H210.106V212.36H205.059V175.924Z" fill="black"/>
<path d="M242.993 194.142C242.993 183.212 250.963 175.352 261.962 175.352C272.961 175.352 280.932 183.212 280.932 194.142C280.932 205.073 272.961 212.933 261.962 212.933C250.963 212.933 242.993 205.073 242.993 194.142ZM261.962 208.196C269.933 208.196 275.565 202.418 275.565 194.142C275.565 185.866 269.933 180.088 261.962 180.088C253.938 180.088 248.36 185.866 248.36 194.142C248.36 202.418 253.938 208.196 261.962 208.196Z" fill="black"/>
<path d="M208.861 147.539C208.976 147.619 209.043 147.758 209.007 147.898C208.6 149.802 208.458 150.98 208.559 151.934C208.602 152.401 208.693 152.792 208.782 153.08C208.885 153.372 208.997 153.559 209.073 153.587C209.152 153.616 209.359 153.552 209.614 153.347C209.881 153.146 210.187 152.799 210.425 152.28C210.663 151.765 210.813 151.078 210.761 150.279C210.676 149.487 210.427 148.559 209.761 147.713C209.679 147.591 209.638 147.436 209.684 147.297C209.865 146.787 209.934 146.227 209.823 145.965C209.714 145.695 209.461 145.771 208.889 146.4C208.051 146.416 207.847 146.606 207.938 146.796C208.036 146.99 208.45 147.237 208.861 147.539Z" fill="black"/>
<path d="M196.076 145.25C196.064 145.108 196.154 144.985 196.282 144.926C197.181 144.505 197.864 144.222 198.449 143.975C199.022 143.72 199.485 143.476 199.88 143.23C200.273 142.985 200.591 142.739 200.817 142.532C201.04 142.312 201.164 142.141 201.157 142.058C201.15 141.978 201.001 141.815 200.701 141.683C200.4 141.536 199.944 141.414 199.352 141.443C198.765 141.472 198.036 141.665 197.336 142.152C196.63 142.618 195.984 143.424 195.679 144.446C195.634 144.589 195.515 144.703 195.381 144.757C195.127 144.85 194.868 144.963 194.652 145.087C194.453 145.217 194.294 145.355 194.222 145.477C194.073 145.73 194.292 145.877 195.148 145.927C195.681 146.564 195.96 146.602 196.054 146.416C196.103 146.318 196.111 146.153 196.099 145.944C196.102 145.746 196.091 145.505 196.076 145.25Z" fill="black"/>
<path d="M200.595 157.862C200.473 157.925 200.314 157.93 200.204 157.835C199.404 157.254 198.846 156.754 198.347 156.376C197.843 156.006 197.429 155.695 197.014 155.479C196.23 155.016 195.534 154.8 195.374 154.894C195.252 154.96 195.046 155.722 195.63 156.754C195.938 157.241 196.432 157.808 197.206 158.183C197.96 158.565 198.969 158.79 200.041 158.58C200.189 158.563 200.351 158.588 200.459 158.692C200.851 159.077 201.339 159.373 201.626 159.391C201.92 159.412 201.96 159.156 201.629 158.378C201.978 157.632 201.892 157.37 201.677 157.367C201.454 157.366 201.047 157.632 200.595 157.862Z" fill="black"/>
<path d="M208.499 170.769C208.42 170.888 208.273 170.927 208.135 170.903C206.182 170.569 204.892 170.704 203.964 171.084C203.044 171.383 202.536 171.915 202.54 172.082C202.544 172.24 203.088 172.724 204.135 172.938C205.16 173.077 206.75 172.919 208.343 171.636C208.454 171.547 208.612 171.535 208.744 171.575C209.724 171.893 210.796 172.045 209.63 170.828C209.698 169.191 209.078 169.921 208.499 170.769Z" fill="black"/>
<path d="M222.882 153.513C222.952 153.632 222.946 153.781 222.871 153.897C222.369 154.723 221.951 155.417 221.741 156.054C221.548 156.696 221.409 157.24 221.39 157.721C221.369 158.2 221.439 158.607 221.533 158.903C221.604 159.191 221.711 159.373 221.79 159.404C221.864 159.434 222.075 159.378 222.35 159.209C222.603 159.032 222.909 158.735 223.196 158.297C223.48 157.861 223.773 157.289 223.849 156.555C223.941 155.827 223.968 154.97 223.641 154.004C223.599 153.868 223.634 153.719 223.733 153.619C224.097 153.251 224.444 152.842 224.474 152.594C224.495 152.343 224.233 152.271 223.444 152.529C222.682 152.148 222.415 152.194 222.415 152.423C222.403 152.653 222.621 153.079 222.882 153.513Z" fill="black"/>
<path d="M214.524 132.529C214.662 132.526 214.791 132.604 214.857 132.725C215.085 133.162 215.342 133.502 215.553 133.85C215.766 134.195 215.985 134.487 216.208 134.736C216.675 135.213 217.071 135.612 217.486 135.868C218.322 136.369 219.016 136.503 219.155 136.403C219.283 136.311 219.418 135.565 218.918 134.645C218.674 134.184 218.325 133.635 217.706 133.2C217.408 132.973 217.065 132.754 216.679 132.554C216.294 132.352 215.815 132.231 215.322 132.114C215.181 132.084 215.065 131.981 215.023 131.845C214.945 131.597 214.857 131.347 214.758 131.144C214.65 130.954 214.537 130.804 214.429 130.735C214.209 130.596 214.025 130.79 213.892 131.6C213.197 132.081 213.117 132.336 213.319 132.444C213.421 132.499 213.598 132.519 213.816 132.52C214.025 132.535 214.27 132.536 214.524 132.529Z" fill="black"/>
<path d="M199.224 128.863C199.324 128.768 199.472 128.721 199.605 128.778C200.545 129.158 201.328 129.297 202.01 129.372C202.692 129.471 203.271 129.429 203.755 129.32C204.715 129.134 205.302 128.744 205.329 128.565C205.352 128.422 204.904 127.805 203.902 127.465C203.403 127.312 202.769 127.214 202.025 127.248C201.282 127.306 200.428 127.576 199.535 128.02C199.409 128.079 199.256 128.099 199.132 128.027C198.228 127.531 197.207 127.18 198.121 128.592C197.741 130.185 198.494 129.586 199.224 128.863Z" fill="black"/>
<path d="M181.744 143.039C181.696 142.912 181.73 142.766 181.826 142.666C182.168 142.309 182.444 141.968 182.675 141.643C182.94 141.331 183.15 141.03 183.318 140.739C183.486 140.449 183.61 140.168 183.704 139.899C183.823 139.644 183.906 139.399 183.964 139.166C184.184 138.239 184.016 137.523 183.888 137.44C183.739 137.345 183.032 137.514 182.297 138.274C182.112 138.463 181.926 138.686 181.747 138.947C181.594 139.22 181.454 139.532 181.335 139.881C181.215 140.229 181.117 140.616 181.052 141.037C181.021 141.469 181.032 141.938 181.086 142.435C181.101 142.574 181.039 142.715 180.922 142.797C180.037 143.403 179.41 144.211 181.05 143.925C182.443 144.901 182.074 143.958 181.744 143.039Z" fill="black"/>
<path d="M186.265 165.294C186.13 165.27 186.02 165.167 185.981 165.035C185.85 164.561 185.676 164.172 185.538 163.792C185.402 163.411 185.25 163.081 185.084 162.791C184.73 162.226 184.413 161.762 184.066 161.425C183.355 160.763 182.684 160.506 182.535 160.573C182.383 160.643 182.118 161.339 182.412 162.34C182.549 162.842 182.785 163.441 183.296 163.993C183.54 164.275 183.828 164.559 184.162 164.832C184.501 165.103 184.939 165.323 185.397 165.537C185.528 165.596 185.619 165.72 185.632 165.862C185.664 166.39 185.79 166.893 185.979 167.067C186.164 167.249 186.385 167.096 186.688 166.33C187.469 166.002 187.601 165.769 187.427 165.622C187.245 165.479 186.751 165.397 186.265 165.294Z" fill="black"/>
<path d="M220.262 163.38C220.266 163.515 220.188 163.641 220.066 163.703C219.229 164.17 218.512 164.553 218.02 165.001C217.766 165.218 217.565 165.449 217.383 165.664C217.189 165.866 217.031 166.071 216.904 166.27C216.394 167.066 216.339 167.796 216.447 167.926C216.547 168.049 217.263 168.103 218.194 167.635C218.427 167.518 218.672 167.369 218.92 167.184C219.157 166.987 219.38 166.736 219.604 166.452C220.036 165.87 220.493 165.161 220.68 164.17C220.71 164.033 220.813 163.923 220.948 163.885C221.946 163.605 222.913 163.152 221.233 162.811C220.323 161.46 220.236 162.389 220.262 163.38Z" fill="black"/>
<path d="M219.715 132.727C219.85 132.76 219.941 132.877 219.963 133.011C220.101 133.982 220.4 134.68 220.648 135.296C220.899 135.907 221.225 136.362 221.563 136.707C222.19 137.415 222.834 137.706 223.001 137.64C223.142 137.586 223.459 136.91 223.275 135.9C223.159 135.408 222.927 134.83 222.523 134.229C222.125 133.627 221.429 133.073 220.591 132.563C220.471 132.493 220.401 132.358 220.401 132.22C220.369 131.225 220.152 130.207 219.386 131.686C217.794 132.2 218.707 132.504 219.715 132.727Z" fill="black"/>
<path d="M188.132 129.118C188.178 128.992 188.298 128.905 188.437 128.891C189.417 128.79 190.159 128.569 190.811 128.378C191.449 128.169 191.918 127.844 192.305 127.566C193.079 127.025 193.401 126.375 193.348 126.216C193.299 126.066 192.645 125.753 191.595 125.84C191.075 125.891 190.487 126.115 189.851 126.474C189.204 126.81 188.583 127.431 188.024 128.246C187.945 128.361 187.807 128.426 187.664 128.413C186.607 128.313 185.603 128.523 187.036 129.348C187.468 130.964 187.794 130.027 188.132 129.118Z" fill="black"/>
<path d="M178.805 156.387C178.697 156.301 178.65 156.161 178.68 156.03C178.862 155.104 179.026 154.314 178.991 153.651C178.962 152.989 178.825 152.44 178.692 151.987C178.388 151.088 177.847 150.595 177.677 150.597C177.516 150.6 177.02 151.118 176.797 152.112C176.666 152.609 176.669 153.22 176.839 153.916C177.015 154.61 177.273 155.402 177.92 156.185C178.006 156.296 178.026 156.444 177.967 156.57C177.537 157.494 177.26 158.504 178.617 157.48C180.259 157.683 179.592 157.012 178.805 156.387Z" fill="black"/>
<path d="M200.528 175.037C200.416 175.116 200.265 175.124 200.144 175.06C199.277 174.639 198.542 174.312 197.886 174.15C197.23 173.991 196.654 173.994 196.178 173.99C195.221 174.028 194.583 174.399 194.537 174.56C194.493 174.711 194.859 175.321 195.781 175.81C196.237 176.076 196.846 176.218 197.577 176.253C198.307 176.291 199.161 176.22 200.099 175.82C200.231 175.768 200.383 175.788 200.491 175.877C201.289 176.529 202.211 177.058 201.557 175.505C202.185 174.009 201.349 174.459 200.528 175.037Z" fill="black"/>
</g>
</svg>
