<svg width="440" height="328" viewBox="0 0 440 328" fill="none" xmlns="http://www.w3.org/2000/svg">
<rect width="440" height="328" fill="#F9F0E4"/>
<g opacity="0.25">
<path d="M246.135 160.514L246.046 160.547C246.047 160.531 246.048 160.519 246.05 160.502C246.042 160.295 245.936 160.092 245.804 160.108C245.672 160.125 245.582 160.353 245.606 160.555C245.617 160.65 245.649 160.72 245.69 160.771C245.436 160.672 245.088 160.673 244.704 160.723C244.346 160.802 243.957 160.942 243.661 161.136C243.371 161.34 243.194 161.544 243.105 161.739C243.066 161.816 242.995 161.881 242.912 161.907C242.686 161.972 242.464 162.117 242.301 162.339C242.069 162.635 242.073 163.041 242.246 163.328C242.586 163.871 243.298 163.903 243.743 163.549C243.853 163.455 243.936 163.34 243.99 163.213C244.021 163.136 244.092 163.089 244.175 163.087C244.374 163.078 244.587 163.006 244.823 162.838C245.059 162.684 245.294 162.493 245.494 162.261C245.702 162.066 245.878 161.817 245.987 161.6C245.99 161.661 246.013 161.735 246.061 161.818C246.167 161.997 246.33 162.151 246.406 162.108C246.482 162.065 246.46 161.837 246.371 161.654C246.362 161.641 246.356 161.631 246.349 161.619C246.373 161.614 246.398 161.611 246.423 161.604C246.744 161.516 246.989 161.25 246.958 160.932C246.932 160.631 246.551 160.403 246.135 160.514Z" fill="black"/>
<path d="M238.68 168.419L238.629 168.498C238.62 168.485 238.614 168.474 238.604 168.46C238.47 168.3 238.26 168.2 238.165 168.291C238.071 168.383 238.139 168.617 238.284 168.764C238.351 168.833 238.42 168.871 238.484 168.886C238.22 168.958 237.944 169.163 237.669 169.431C237.433 169.705 237.209 170.046 237.093 170.375C236.987 170.709 236.972 170.977 237.022 171.184C237.039 171.269 237.022 171.363 236.972 171.432C236.832 171.617 236.745 171.864 236.752 172.138C236.75 172.511 237.005 172.831 237.32 172.957C237.926 173.19 238.513 172.795 238.649 172.25C238.68 172.11 238.673 171.97 238.638 171.837C238.615 171.757 238.643 171.677 238.708 171.627C238.861 171.502 238.987 171.319 239.07 171.046C239.163 170.784 239.234 170.493 239.249 170.19C239.295 169.912 239.281 169.61 239.234 169.372C239.273 169.419 239.337 169.465 239.428 169.503C239.622 169.583 239.847 169.609 239.881 169.53C239.916 169.451 239.757 169.282 239.573 169.189C239.558 169.183 239.547 169.179 239.533 169.174C239.55 169.155 239.568 169.139 239.583 169.118C239.785 168.859 239.816 168.502 239.594 168.266C239.387 168.042 238.943 168.085 238.68 168.419Z" fill="black"/>
<path d="M235.395 168.807L235.329 168.874C235.323 168.859 235.318 168.848 235.312 168.832C235.215 168.648 235.029 168.508 234.918 168.579C234.806 168.65 234.825 168.893 234.935 169.065C234.986 169.147 235.046 169.197 235.105 169.225C234.832 169.243 234.518 169.389 234.194 169.596C233.905 169.817 233.615 170.107 233.432 170.405C233.259 170.711 233.189 170.97 233.194 171.183C233.193 171.269 233.158 171.357 233.094 171.416C232.918 171.569 232.781 171.794 232.73 172.062C232.651 172.427 232.833 172.792 233.115 172.978C233.661 173.327 234.318 173.057 234.564 172.551C234.623 172.42 234.647 172.282 234.641 172.144C234.635 172.061 234.678 171.989 234.752 171.953C234.928 171.861 235.09 171.707 235.229 171.456C235.374 171.219 235.503 170.947 235.582 170.654C235.685 170.391 235.734 170.092 235.738 169.85C235.767 169.904 235.82 169.962 235.9 170.017C236.074 170.134 236.289 170.204 236.339 170.134C236.389 170.063 236.269 169.867 236.108 169.738C236.094 169.73 236.085 169.723 236.072 169.716C236.093 169.701 236.114 169.688 236.133 169.671C236.385 169.457 236.489 169.115 236.322 168.839C236.166 168.579 235.721 168.532 235.395 168.807Z" fill="black"/>
<path d="M252.391 161.289L252.308 161.289C252.314 161.275 252.319 161.264 252.326 161.248C252.388 161.052 252.37 160.825 252.273 160.796C252.171 160.77 252.045 160.937 251.973 161.13C251.942 161.22 251.934 161.297 251.943 161.359C251.642 160.983 251.05 160.572 250.428 160.391C250.124 160.3 249.845 160.293 249.643 160.347C249.561 160.367 249.46 160.354 249.389 160.3C249.199 160.155 248.938 160.063 248.637 160.083C248.237 160.092 247.888 160.368 247.799 160.681C247.647 161.294 248.051 161.83 248.567 161.935C248.702 161.958 248.844 161.962 248.976 161.928C249.055 161.911 249.134 161.932 249.191 161.995C249.331 162.145 249.518 162.258 249.835 162.352C250.438 162.531 251.344 162.529 251.811 162.229C251.781 162.284 251.763 162.359 251.77 162.456C251.783 162.659 251.916 162.88 252.031 162.867C252.149 162.858 252.219 162.639 252.196 162.436C252.192 162.42 252.19 162.409 252.186 162.394L252.274 162.409C252.671 162.453 253.009 162.216 253.023 161.903C253.036 161.595 252.754 161.33 252.391 161.289Z" fill="black"/>
<path d="M257.967 160.186L257.903 160.235C257.899 160.22 257.896 160.208 257.892 160.192C257.818 159.998 257.665 159.833 257.571 159.861C257.478 159.888 257.473 160.111 257.537 160.306C257.567 160.397 257.609 160.463 257.656 160.506C257.163 160.391 256.449 160.449 255.92 160.594C255.654 160.683 255.459 160.77 255.327 160.915C255.274 160.973 255.193 160.994 255.118 160.967C254.917 160.896 254.706 160.909 254.479 160.982C254.177 161.097 253.926 161.369 253.851 161.696C253.703 162.31 254.231 162.86 254.938 162.786C255.112 162.761 255.271 162.703 255.404 162.621C255.483 162.574 255.582 162.564 255.67 162.588C255.882 162.644 256.169 162.668 256.519 162.554C257.224 162.36 257.926 161.774 258.091 161.274C258.102 161.336 258.135 161.406 258.2 161.479C258.338 161.633 258.564 161.729 258.66 161.654C258.755 161.578 258.671 161.359 258.527 161.212C258.514 161.202 258.505 161.195 258.494 161.186L258.573 161.144C258.92 160.934 259.036 160.545 258.847 160.29C258.662 160.042 258.271 160.002 257.967 160.186Z" fill="black"/>
<path d="M258.634 155.567L258.591 155.634C258.582 155.621 258.575 155.612 258.565 155.597C258.427 155.441 258.226 155.337 258.147 155.395C258.069 155.453 258.143 155.663 258.272 155.825C258.333 155.9 258.396 155.947 258.454 155.971C257.951 156.031 257.302 156.326 256.857 156.64C256.639 156.815 256.487 156.961 256.415 157.142C256.385 157.215 256.316 157.261 256.236 157.262C256.023 157.263 255.829 157.347 255.641 157.492C255.399 157.701 255.26 158.042 255.306 158.374C255.383 159 256.074 159.337 256.711 159.029C256.865 158.947 256.994 158.839 257.09 158.717C257.147 158.647 257.237 158.604 257.328 158.596C257.547 158.578 257.824 158.503 258.112 158.278C258.705 157.858 259.157 157.07 259.135 156.546C259.167 156.601 259.223 156.655 259.309 156.701C259.494 156.799 259.74 156.813 259.803 156.71C259.865 156.607 259.709 156.429 259.522 156.341C259.506 156.335 259.496 156.332 259.481 156.326L259.541 156.261C259.792 155.946 259.763 155.542 259.496 155.367C259.235 155.196 258.854 155.291 258.634 155.567Z" fill="black"/>
<path d="M262.232 156.199L262.191 156.268C262.181 156.256 262.174 156.247 262.163 156.234C262.016 156.089 261.802 155.997 261.728 156.063C261.654 156.128 261.744 156.335 261.886 156.486C261.953 156.556 262.019 156.598 262.08 156.618C261.584 156.719 260.942 157.084 260.533 157.496C260.311 157.71 260.192 157.917 260.143 158.11C260.123 158.188 260.064 158.252 259.985 158.276C259.773 158.337 259.583 158.474 259.44 158.674C259.251 158.953 259.221 159.323 259.368 159.625C259.639 160.199 260.393 160.311 260.892 159.874C261.011 159.764 261.101 159.635 261.159 159.499C261.193 159.419 261.266 159.36 261.353 159.341C261.56 159.293 261.782 159.166 262.021 158.935C262.506 158.45 262.871 157.658 262.806 157.136C262.843 157.188 262.903 157.238 262.993 157.277C263.185 157.359 263.429 157.357 263.481 157.25C263.533 157.144 263.37 156.982 263.174 156.905C263.158 156.901 263.146 156.897 263.131 156.894L263.189 156.827C263.405 156.491 263.355 156.093 263.078 155.939C262.802 155.785 262.423 155.902 262.232 156.199Z" fill="black"/>
<path d="M239.945 162.841L239.922 162.917C239.909 162.908 239.9 162.901 239.886 162.89C239.709 162.784 239.478 162.744 239.422 162.824C239.366 162.906 239.504 163.085 239.679 163.199C239.76 163.252 239.835 163.278 239.899 163.283C239.441 163.496 238.906 163.998 238.609 164.493C238.444 164.754 238.379 164.981 238.379 165.18C238.378 165.261 238.336 165.337 238.264 165.378C238.073 165.487 237.922 165.664 237.832 165.89C237.715 166.205 237.777 166.572 237.992 166.832C238.394 167.327 239.153 167.261 239.532 166.721C239.622 166.587 239.678 166.441 239.701 166.295C239.715 166.21 239.772 166.135 239.852 166.097C240.041 166.002 240.226 165.828 240.403 165.547C240.756 164.964 240.919 164.111 240.729 163.618C240.778 163.66 240.849 163.695 240.946 163.712C241.152 163.748 241.388 163.689 241.413 163.574C241.438 163.458 241.24 163.338 241.031 163.309C241.014 163.308 241.002 163.308 240.987 163.308L241.027 163.229C241.156 162.853 241.011 162.478 240.705 162.392C240.399 162.307 240.058 162.508 239.945 162.841Z" fill="black"/>
<path d="M264.045 150.809L264.049 150.889C264.034 150.884 264.023 150.879 264.007 150.874C263.803 150.822 263.574 150.849 263.546 150.944C263.516 151.038 263.701 151.171 263.901 151.23C263.995 151.257 264.074 151.26 264.136 151.247C263.764 151.582 263.407 152.225 263.269 152.774C263.194 153.053 263.203 153.277 263.25 153.461C263.271 153.536 263.252 153.617 263.195 153.672C263.05 153.821 262.929 154.006 262.905 154.245C262.867 154.565 262.995 154.905 263.266 155.123C263.75 155.529 264.504 155.322 264.748 154.684C264.813 154.529 264.837 154.369 264.819 154.217C264.81 154.127 264.847 154.038 264.914 153.978C265.082 153.834 265.212 153.602 265.301 153.267C265.469 152.601 265.362 151.745 265.032 151.329C265.091 151.355 265.168 151.368 265.266 151.356C265.475 151.332 265.684 151.209 265.674 151.092C265.662 150.975 265.432 150.917 265.226 150.948C265.211 150.952 265.199 150.955 265.184 150.96L265.196 150.873C265.219 150.479 264.962 150.162 264.64 150.165C264.326 150.167 264.066 150.456 264.045 150.809Z" fill="black"/>
<path d="M267.882 133.393L267.814 133.438C267.811 133.423 267.808 133.411 267.805 133.395C267.744 133.198 267.601 133.021 267.504 133.048C267.406 133.071 267.386 133.295 267.439 133.492C267.464 133.585 267.503 133.652 267.547 133.697C267.06 133.562 266.312 133.599 265.761 133.77C265.479 133.854 265.287 133.977 265.152 134.112C265.097 134.169 265.016 134.196 264.939 134.177C264.734 134.133 264.508 134.129 264.287 134.233C263.988 134.369 263.757 134.653 263.709 134.992C263.607 135.608 264.18 136.129 264.864 136C265.033 135.973 265.185 135.909 265.31 135.815C265.383 135.761 265.48 135.745 265.567 135.77C265.781 135.835 266.051 135.822 266.39 135.722C267.059 135.515 267.751 134.978 267.942 134.487C267.95 134.549 267.98 134.621 268.04 134.696C268.17 134.858 268.387 134.968 268.484 134.899C268.58 134.828 268.511 134.606 268.376 134.451C268.364 134.44 268.355 134.432 268.344 134.422L268.426 134.386C268.782 134.2 268.925 133.821 268.755 133.554C268.589 133.292 268.201 133.226 267.882 133.393Z" fill="black"/>
<path d="M263.509 144.808V144.898C263.495 144.893 263.483 144.888 263.467 144.881C263.266 144.826 263.033 144.861 263.004 144.984C262.984 145.106 263.181 145.256 263.387 145.298C263.483 145.319 263.562 145.313 263.623 145.291C263.252 145.688 263.107 146.581 263.238 147.221C263.298 147.543 263.413 147.766 263.55 147.908C263.606 147.966 263.63 148.05 263.608 148.127C263.545 148.338 263.55 148.534 263.637 148.764C263.76 149.068 264.054 149.305 264.39 149.364C265.024 149.48 265.56 148.948 265.47 148.277C265.443 148.112 265.385 147.95 265.297 147.832C265.247 147.761 265.235 147.669 265.265 147.588C265.338 147.387 265.352 147.149 265.296 146.847C265.179 146.261 264.862 145.641 264.522 145.285C264.583 145.304 264.662 145.307 264.758 145.288C264.963 145.248 265.158 145.139 265.136 145.05C265.122 144.961 264.896 144.911 264.688 144.939C264.672 144.942 264.661 144.945 264.646 144.949C264.651 144.923 264.657 144.899 264.659 144.873C264.675 144.537 264.472 144.224 264.162 144.168C263.847 144.112 263.53 144.395 263.509 144.808Z" fill="black"/>
<path d="M261.306 142.319L261.277 142.406C261.265 142.396 261.256 142.388 261.243 142.377C261.068 142.264 260.835 142.228 260.769 142.336C260.712 142.447 260.853 142.648 261.036 142.75C261.121 142.798 261.198 142.816 261.262 142.814C260.786 143.081 260.367 143.887 260.292 144.536C260.249 144.86 260.288 145.107 260.374 145.283C260.409 145.356 260.406 145.442 260.361 145.51C260.235 145.691 260.178 145.88 260.189 146.125C260.21 146.45 260.417 146.764 260.718 146.92C261.286 147.221 261.963 146.875 262.086 146.209C262.113 146.043 262.109 145.872 262.062 145.733C262.035 145.651 262.053 145.559 262.107 145.491C262.239 145.322 262.328 145.1 262.368 144.795C262.441 144.202 262.333 143.517 262.12 143.077C262.173 143.112 262.247 143.139 262.344 143.15C262.552 143.173 262.772 143.128 262.779 143.036C262.793 142.948 262.594 142.833 262.387 142.796C262.371 142.795 262.359 142.794 262.344 142.793C262.356 142.771 262.37 142.75 262.38 142.726C262.5 142.41 262.406 142.052 262.128 141.906C261.845 141.758 261.454 141.933 261.306 142.319Z" fill="black"/>
<path d="M266.349 139.156L266.296 139.226C266.288 139.212 266.282 139.202 266.274 139.187C266.152 139.019 265.952 138.9 265.86 138.971C265.768 139.042 265.821 139.273 265.946 139.437C266.005 139.513 266.068 139.56 266.128 139.584C265.596 139.634 264.879 140.127 264.496 140.712C264.307 141.008 264.21 141.253 264.224 141.48C264.226 141.57 264.187 141.66 264.116 141.717C263.925 141.869 263.767 142.095 263.728 142.386C263.654 142.772 263.825 143.143 264.133 143.313C264.692 143.609 265.345 143.34 265.555 142.865C265.613 142.742 265.646 142.614 265.644 142.482C265.643 142.405 265.687 142.335 265.756 142.298C265.915 142.207 266.099 142.067 266.253 141.825C266.559 141.356 266.812 140.659 266.805 140.162C266.839 140.215 266.895 140.269 266.98 140.317C267.162 140.418 267.391 140.456 267.442 140.369C267.494 140.282 267.353 140.1 267.175 139.994C267.16 139.987 267.149 139.982 267.135 139.976L267.195 139.921C267.434 139.649 267.484 139.278 267.255 139.053C267.036 138.837 266.611 138.861 266.349 139.156Z" fill="black"/>
<path d="M270.432 134.473L270.371 134.537C270.364 134.523 270.36 134.512 270.353 134.496C270.249 134.317 270.063 134.179 269.964 134.241C269.864 134.303 269.894 134.537 270.002 134.713C270.053 134.794 270.111 134.847 270.168 134.877C269.634 134.876 268.869 135.296 268.429 135.839C268.21 136.116 268.089 136.351 268.079 136.578C268.072 136.667 268.024 136.753 267.948 136.803C267.742 136.935 267.561 137.145 267.493 137.431C267.381 137.808 267.513 138.193 267.801 138.393C268.327 138.741 269.005 138.538 269.262 138.086C269.332 137.969 269.379 137.845 269.389 137.714C269.397 137.637 269.447 137.571 269.52 137.542C269.687 137.466 269.885 137.344 270.063 137.119C270.415 136.682 270.739 136.013 270.783 135.518C270.81 135.575 270.861 135.634 270.94 135.689C271.111 135.809 271.335 135.868 271.395 135.786C271.455 135.705 271.334 135.51 271.167 135.387C271.153 135.379 271.143 135.373 271.13 135.365L271.195 135.316C271.46 135.069 271.549 134.705 271.343 134.459C271.147 134.223 270.722 134.204 270.432 134.473Z" fill="black"/>
<path d="M249.491 163.649L249.398 163.648C249.405 163.634 249.41 163.623 249.417 163.607C249.483 163.412 249.454 163.183 249.328 163.153C249.211 163.128 249.06 163.314 249.011 163.512C248.988 163.605 248.991 163.682 249.009 163.743C248.638 163.383 247.843 163.161 247.198 163.217C246.871 163.241 246.633 163.336 246.469 163.461C246.402 163.514 246.311 163.534 246.229 163.51C246.009 163.443 245.749 163.457 245.495 163.573C245.15 163.731 244.929 164.086 244.969 164.418C245.069 165.034 245.606 165.413 246.116 165.325C246.249 165.302 246.368 165.245 246.477 165.17C246.541 165.125 246.623 165.119 246.692 165.154C246.865 165.242 247.081 165.277 247.371 165.256C247.94 165.207 248.625 164.952 248.983 164.621C248.963 164.68 248.957 164.757 248.972 164.851C249.004 165.054 249.104 165.25 249.193 165.234C249.272 165.22 249.326 165 249.312 164.797C249.309 164.781 249.307 164.77 249.304 164.756C249.327 164.761 249.349 164.767 249.373 164.769C249.462 164.774 249.495 164.77 249.565 164.75C249.652 164.738 249.733 164.713 249.804 164.675C249.946 164.6 250.048 164.476 250.08 164.324C250.113 164.172 250.07 164.02 249.979 163.897C249.933 163.836 249.875 163.782 249.807 163.74C249.721 163.696 249.584 163.654 249.491 163.649Z" fill="black"/>
<path d="M243.239 165.331L243.182 165.403C243.174 165.388 243.168 165.378 243.16 165.363C243.041 165.194 242.837 165.078 242.736 165.158C242.645 165.233 242.705 165.463 242.837 165.621C242.899 165.696 242.963 165.74 243.024 165.762C242.506 165.834 241.844 166.317 241.498 166.853C241.32 167.122 241.254 167.364 241.256 167.567C241.259 167.652 241.22 167.734 241.15 167.784C240.962 167.914 240.816 168.125 240.757 168.393C240.676 168.757 240.832 169.143 241.127 169.314C241.689 169.608 242.323 169.421 242.56 168.971C242.621 168.853 242.647 168.726 242.652 168.596C242.654 168.52 242.699 168.453 242.77 168.419C242.946 168.338 243.106 168.191 243.264 167.952C243.568 167.481 243.776 166.794 243.723 166.315C243.759 166.366 243.818 166.417 243.903 166.463C244.088 166.561 244.309 166.602 244.349 166.523C244.386 166.453 244.239 166.277 244.065 166.166C244.05 166.159 244.04 166.154 244.027 166.147C244.045 166.132 244.063 166.118 244.079 166.101C244.138 166.035 244.155 166.007 244.18 165.94C244.223 165.866 244.251 165.788 244.263 165.709C244.289 165.553 244.25 165.399 244.146 165.282C244.041 165.164 243.892 165.105 243.737 165.102C243.659 165.101 243.58 165.113 243.504 165.14C243.417 165.181 243.299 165.261 243.239 165.331Z" fill="black"/>
<path d="M255.194 163.955C255.167 163.959 255.143 163.967 255.118 163.974C255.12 163.959 255.122 163.947 255.125 163.931C255.134 163.726 255.063 163.51 254.967 163.505C254.87 163.497 254.778 163.696 254.762 163.9C254.754 163.994 254.767 164.071 254.792 164.129C254.398 163.83 253.705 163.636 253.142 163.629C252.855 163.62 252.64 163.678 252.474 163.78C252.407 163.823 252.324 163.819 252.258 163.779C252.081 163.668 251.868 163.617 251.632 163.66C251.314 163.705 251.025 163.931 250.896 164.246C250.652 164.821 251.042 165.453 251.685 165.509C251.843 165.523 251.997 165.501 252.134 165.452C252.214 165.422 252.305 165.44 252.376 165.484C252.549 165.595 252.793 165.666 253.124 165.675C253.78 165.683 254.562 165.391 254.893 165.002C254.88 165.063 254.884 165.14 254.914 165.231C254.978 165.426 255.136 165.606 255.244 165.572C255.352 165.535 255.363 165.305 255.293 165.113C255.286 165.099 255.28 165.089 255.274 165.076L255.358 165.069C255.735 165.01 255.99 164.713 255.927 164.409C255.864 164.104 255.536 163.9 255.194 163.955Z" fill="black"/>
<path d="M236.06 163.754C236.049 163.778 236.043 163.802 236.036 163.827C236.023 163.817 236.014 163.809 236.001 163.798C235.83 163.679 235.606 163.621 235.549 163.698C235.491 163.772 235.612 163.956 235.779 164.079C235.857 164.136 235.929 164.167 235.993 164.177C235.522 164.34 234.981 164.806 234.671 165.266C234.509 165.497 234.442 165.705 234.441 165.896C234.441 165.975 234.394 166.04 234.323 166.074C234.131 166.159 233.973 166.307 233.883 166.524C233.75 166.81 233.788 167.171 233.989 167.446C234.353 167.958 235.108 167.978 235.503 167.479C235.601 167.356 235.665 167.219 235.696 167.079C235.714 166.996 235.779 166.932 235.855 166.897C236.045 166.814 236.237 166.652 236.423 166.385C236.785 165.85 236.955 165.049 236.799 164.566C236.844 164.61 236.913 164.649 237.008 164.673C237.21 164.725 237.451 164.693 237.479 164.585C237.506 164.477 237.314 164.344 237.111 164.298C237.095 164.296 237.083 164.295 237.068 164.293L237.108 164.22C237.261 163.878 237.143 163.508 236.846 163.396C236.55 163.283 236.197 163.443 236.06 163.754Z" fill="black"/>
<path d="M260.435 162.037C260.413 162.051 260.394 162.068 260.373 162.084C260.369 162.07 260.366 162.058 260.361 162.042C260.284 161.852 260.127 161.683 260.036 161.716C259.946 161.749 259.949 161.975 260.021 162.168C260.055 162.258 260.099 162.322 260.146 162.363C259.654 162.24 258.946 162.356 258.43 162.57C258.174 162.695 257.996 162.813 257.887 162.971C257.843 163.033 257.769 163.07 257.692 163.06C257.489 163.04 257.274 163.07 257.075 163.193C256.807 163.363 256.638 163.693 256.644 164.022C256.654 164.656 257.266 165.067 257.887 164.871C258.042 164.829 258.172 164.741 258.276 164.637C258.337 164.576 258.425 164.55 258.51 164.565C258.716 164.598 258.978 164.584 259.277 164.441C259.884 164.189 260.464 163.594 260.607 163.118C260.621 163.18 260.657 163.249 260.723 163.319C260.863 163.469 261.079 163.563 261.161 163.487C261.245 163.412 261.158 163.2 261.013 163.052C261 163.042 260.991 163.034 260.98 163.025L261.055 162.987C261.379 162.791 261.483 162.414 261.295 162.157C261.113 161.908 260.731 161.858 260.435 162.037Z" fill="black"/>
<path d="M264.554 158.272C264.538 158.294 264.527 158.316 264.514 158.339C264.505 158.326 264.497 158.317 264.487 158.304C264.344 158.154 264.136 158.053 264.065 158.116C263.996 158.182 264.074 158.384 264.212 158.538C264.277 158.609 264.342 158.654 264.401 158.676C264.15 158.705 263.868 158.812 263.607 158.963C263.333 159.107 263.074 159.289 262.882 159.494C262.679 159.695 262.563 159.881 262.523 160.068C262.506 160.144 262.451 160.206 262.376 160.227C262.179 160.287 261.988 160.397 261.854 160.589C261.67 160.848 261.652 161.223 261.795 161.523C262.065 162.099 262.786 162.229 263.275 161.821C263.399 161.724 263.484 161.597 263.537 161.463C263.568 161.384 263.638 161.326 263.722 161.309C263.924 161.264 264.15 161.151 264.38 160.922C264.601 160.688 264.803 160.391 264.939 160.089C265.065 159.776 265.131 159.464 265.111 159.216C265.146 159.268 265.206 159.318 265.294 159.361C265.481 159.452 265.725 159.47 265.771 159.367C265.819 159.267 265.659 159.099 265.47 159.014C265.454 159.009 265.443 159.005 265.429 159L265.483 158.937C265.705 158.634 265.667 158.25 265.401 158.08C265.134 157.91 264.755 157.996 264.554 158.272Z" fill="black"/>
<path d="M266.855 153.282C266.849 153.307 266.847 153.332 266.844 153.358C266.831 153.35 266.82 153.345 266.805 153.336C266.614 153.257 266.38 153.247 266.338 153.332C266.295 153.418 266.459 153.573 266.649 153.658C266.739 153.698 266.816 153.713 266.88 153.71C266.461 153.968 266.033 154.537 265.826 155.045C265.731 155.309 265.702 155.52 265.735 155.704C265.749 155.779 265.722 155.856 265.661 155.902C265.501 156.028 265.377 156.202 265.323 156.425C265.255 156.73 265.379 157.082 265.623 157.309C266.09 157.747 266.817 157.61 267.115 157.044C267.194 156.907 267.216 156.753 267.217 156.609C267.217 156.524 267.26 156.444 267.331 156.396C267.506 156.279 267.669 156.084 267.781 155.777C268.024 155.179 268.016 154.359 267.753 153.921C267.807 153.954 267.883 153.977 267.98 153.981C268.189 153.99 268.412 153.906 268.417 153.795C268.423 153.685 268.209 153.595 267.999 153.593C267.982 153.594 267.971 153.595 267.955 153.597L267.982 153.518C268.06 153.153 267.851 152.815 267.54 152.767C267.223 152.718 266.926 152.95 266.855 153.282Z" fill="black"/>
<path d="M266.947 147.776C266.951 147.802 266.959 147.826 266.966 147.851C266.95 147.849 266.938 147.847 266.921 147.845C266.713 147.84 266.492 147.915 266.486 148.011C266.48 148.108 266.691 148.193 266.9 148.204C266.998 148.208 267.076 148.193 267.133 148.167C266.842 148.562 266.667 149.257 266.685 149.81C266.705 150.092 266.757 150.299 266.867 150.457C266.911 150.521 266.919 150.601 266.882 150.669C266.789 150.847 266.733 151.057 266.786 151.284C266.861 151.592 267.098 151.863 267.423 151.974C268.027 152.188 268.65 151.776 268.678 151.144C268.689 150.988 268.662 150.84 268.598 150.708C268.562 150.631 268.568 150.542 268.614 150.47C268.721 150.297 268.799 150.056 268.777 149.734C268.757 149.097 268.433 148.353 268.023 148.043C268.087 148.054 268.165 148.049 268.258 148.017C268.455 147.949 268.63 147.791 268.593 147.688C268.557 147.585 268.323 147.579 268.127 147.653C268.112 147.66 268.102 147.665 268.089 147.672L268.083 147.59C268.031 147.27 267.76 147.031 267.44 147.043C267.123 147.054 266.884 147.393 266.947 147.776Z" fill="black"/>
<path d="M267.56 141.807L267.537 141.89C267.525 141.881 267.516 141.873 267.502 141.862C267.325 141.751 267.095 141.712 267.036 141.816C266.976 141.919 267.115 142.113 267.296 142.214C267.381 142.261 267.458 142.279 267.523 142.279C267.069 142.529 266.632 143.258 266.543 143.895C266.494 144.217 266.532 144.463 266.624 144.647C266.661 144.722 266.657 144.812 266.615 144.884C266.505 145.077 266.45 145.318 266.507 145.573C266.575 145.92 266.856 146.195 267.189 146.268C267.816 146.398 268.365 145.958 268.395 145.417C268.406 145.28 268.38 145.148 268.326 145.026C268.294 144.955 268.311 144.875 268.361 144.815C268.484 144.669 268.571 144.47 268.614 144.195C268.69 143.651 268.61 142.977 268.379 142.546C268.431 142.581 268.506 142.608 268.602 142.62C268.811 142.646 269.033 142.609 269.042 142.522C269.052 142.436 268.85 142.321 268.646 142.283C268.63 142.282 268.618 142.281 268.604 142.28C268.614 142.258 268.627 142.237 268.635 142.214C268.756 141.921 268.644 141.575 268.372 141.425C268.089 141.27 267.712 141.44 267.56 141.807Z" fill="black"/>
<path d="M254.204 167.257L254.12 167.262C254.126 167.248 254.13 167.237 254.136 167.221C254.184 167.021 254.15 166.796 254.051 166.773C253.952 166.755 253.817 166.937 253.761 167.131C253.735 167.222 253.733 167.299 253.749 167.361C253.586 167.184 253.349 167.022 253.088 166.895C252.958 166.824 252.824 166.753 252.687 166.696C252.614 166.67 252.546 166.644 252.48 166.62L252.377 166.588C252.295 166.57 252.215 166.552 252.137 166.535C252.058 166.532 251.984 166.53 251.91 166.528C251.593 166.52 251.352 166.572 251.17 166.668C251.096 166.708 251.005 166.71 250.932 166.669C250.734 166.562 250.5 166.511 250.245 166.549C249.901 166.601 249.602 166.827 249.467 167.138C249.202 167.715 249.652 168.347 250.34 168.403C250.509 168.417 250.671 168.395 250.816 168.343C250.902 168.313 250.999 168.325 251.074 168.372C251.257 168.489 251.511 168.564 251.861 168.573C251.927 168.574 251.93 168.574 251.936 168.571L251.938 168.567C251.951 168.568 251.878 168.554 251.927 168.561L252.058 168.573C252.143 168.576 252.231 168.579 252.324 168.583C252.502 168.583 252.677 168.577 252.845 168.551C253.183 168.485 253.481 168.377 253.682 168.237C253.656 168.294 253.645 168.371 253.659 168.467C253.689 168.674 253.825 168.877 253.949 168.856C254.072 168.839 254.128 168.615 254.089 168.414C254.084 168.399 254.081 168.388 254.076 168.373L254.168 168.382C254.585 168.397 254.911 168.141 254.897 167.823C254.884 167.519 254.573 167.27 254.204 167.257Z" fill="black"/>
<path d="M260.072 165.948L259.999 165.991C259.997 165.976 259.995 165.964 259.993 165.948C259.942 165.748 259.805 165.564 259.703 165.592C259.6 165.614 259.565 165.836 259.609 166.037C259.63 166.13 259.667 166.198 259.71 166.245C259.214 166.089 258.438 166.134 257.858 166.302C257.561 166.383 257.359 166.509 257.219 166.653C257.162 166.709 257.077 166.734 256.997 166.714C256.782 166.658 256.551 166.682 256.321 166.781C256.009 166.907 255.775 167.21 255.728 167.547C255.63 168.171 256.219 168.663 256.916 168.542C257.086 168.507 257.241 168.441 257.369 168.352C257.445 168.3 257.544 168.285 257.633 168.312C257.847 168.368 258.12 168.355 258.466 168.26C259.148 168.062 259.855 167.528 260.076 167.048C260.081 167.111 260.108 167.184 260.166 167.261C260.291 167.426 260.505 167.546 260.606 167.481C260.703 167.411 260.646 167.187 260.517 167.026C260.505 167.015 260.497 167.007 260.487 166.996L260.571 166.963C260.936 166.784 261.109 166.416 260.957 166.143C260.805 165.869 260.409 165.782 260.072 165.948Z" fill="black"/>
<path d="M269.486 162.332L269.451 162.409C269.441 162.397 269.433 162.388 269.421 162.375C269.263 162.24 269.043 162.165 268.975 162.244C268.903 162.32 269.004 162.523 269.157 162.662C269.229 162.727 269.298 162.764 269.361 162.778C268.862 162.926 268.251 163.394 267.872 163.855C267.675 164.087 267.582 164.303 267.552 164.499C267.537 164.577 267.482 164.645 267.404 164.673C267.195 164.746 267.019 164.894 266.888 165.104C266.705 165.381 266.689 165.76 266.846 166.064C267.129 166.631 267.9 166.708 268.402 166.22C268.522 166.097 268.61 165.957 268.664 165.812C268.696 165.727 268.769 165.66 268.857 165.632C269.067 165.56 269.283 165.397 269.513 165.126C269.958 164.584 270.227 163.752 270.13 163.235C270.17 163.283 270.235 163.328 270.328 163.359C270.527 163.426 270.773 163.405 270.818 163.295C270.857 163.184 270.68 163.031 270.48 162.971C270.464 162.968 270.453 162.966 270.438 162.963L270.487 162.889C270.683 162.538 270.611 162.14 270.328 161.999C270.043 161.859 269.666 162.008 269.486 162.332Z" fill="black"/>
<path d="M265.089 162.476L265.032 162.539C265.025 162.526 265.02 162.515 265.012 162.499C264.901 162.325 264.711 162.193 264.621 162.25C264.533 162.309 264.571 162.536 264.676 162.71C264.726 162.791 264.784 162.846 264.84 162.876C264.313 162.879 263.584 163.187 263.09 163.56C262.843 163.756 262.685 163.932 262.609 164.121C262.577 164.197 262.509 164.256 262.427 164.27C262.21 164.313 261.988 164.407 261.814 164.594C261.579 164.85 261.488 165.22 261.586 165.539C261.77 166.147 262.508 166.357 263.078 165.982C263.222 165.893 263.334 165.777 263.412 165.644C263.458 165.566 263.541 165.515 263.631 165.505C263.846 165.48 264.104 165.389 264.376 165.175C264.924 164.761 265.392 164.04 265.449 163.523C265.474 163.581 265.524 163.641 265.604 163.697C265.777 163.816 266.015 163.863 266.083 163.768C266.153 163.674 266.028 163.48 265.854 163.365C265.84 163.358 265.829 163.353 265.816 163.346L265.885 163.29C266.175 163.014 266.225 162.615 265.997 162.398C265.77 162.181 265.363 162.216 265.089 162.476Z" fill="black"/>
<path d="M268.767 157.716L268.738 157.793C268.727 157.783 268.718 157.774 268.705 157.763C268.537 157.641 268.311 157.583 268.25 157.665C268.192 157.747 268.31 157.941 268.471 158.068C268.547 158.127 268.62 158.158 268.684 158.168C268.192 158.347 267.627 158.849 267.269 159.333C267.093 159.583 267.012 159.804 266.987 160C266.979 160.081 266.93 160.154 266.855 160.19C266.657 160.287 266.484 160.447 266.365 160.671C266.208 160.977 266.233 161.363 266.42 161.641C266.776 162.171 267.537 162.164 267.981 161.653C268.091 161.528 268.16 161.378 268.2 161.231C268.224 161.144 268.289 161.072 268.374 161.038C268.582 160.958 268.787 160.784 268.991 160.498C269.404 159.938 269.615 159.075 269.484 158.568C269.529 158.614 269.596 158.654 269.692 158.678C269.898 158.731 270.141 158.69 270.171 158.572C270.203 158.456 270.015 158.318 269.81 158.274C269.793 158.272 269.782 158.271 269.767 158.27L269.812 158.191C269.992 157.827 269.87 157.429 269.572 157.315C269.277 157.203 268.93 157.388 268.767 157.716Z" fill="black"/>
<path d="M270.14 151.895L270.141 151.98C270.126 151.974 270.115 151.969 270.1 151.963C269.898 151.905 269.666 151.931 269.635 152.034C269.605 152.136 269.788 152.281 269.989 152.341C270.082 152.369 270.162 152.371 270.224 152.357C269.838 152.706 269.518 153.425 269.409 154.021C269.361 154.327 269.376 154.561 269.446 154.748C269.474 154.825 269.463 154.912 269.412 154.977C269.281 155.15 269.182 155.36 269.183 155.611C269.188 155.952 269.352 156.279 269.649 156.46C270.188 156.801 270.904 156.484 271.07 155.821C271.116 155.659 271.12 155.497 271.086 155.346C271.068 155.258 271.094 155.165 271.155 155.099C271.302 154.937 271.421 154.697 271.473 154.358C271.596 153.688 271.436 152.855 271.12 152.436C271.179 152.463 271.257 152.475 271.354 152.463C271.562 152.438 271.771 152.318 271.761 152.204C271.752 152.09 271.525 152.028 271.318 152.056C271.302 152.06 271.29 152.063 271.275 152.067C271.281 152.038 271.287 152.01 271.289 151.981C271.315 151.591 271.078 151.26 270.761 151.243C270.443 151.226 270.165 151.518 270.14 151.895Z" fill="black"/>
<path d="M269.637 145.856C269.641 145.886 269.65 145.914 269.657 145.941C269.641 145.939 269.629 145.937 269.612 145.933C269.402 145.92 269.182 145.997 269.179 146.111C269.176 146.223 269.391 146.328 269.601 146.34C269.699 146.345 269.776 146.328 269.833 146.298C269.546 146.737 269.439 147.552 269.543 148.176C269.595 148.494 269.695 148.716 269.827 148.873C269.882 148.937 269.901 149.023 269.875 149.102C269.805 149.309 269.803 149.546 269.881 149.759C269.939 149.922 270.027 149.992 270.146 150.129C270.262 150.255 270.41 150.351 270.576 150.398C270.886 150.485 271.185 150.412 271.411 150.234C271.525 150.155 271.615 150.017 271.673 149.84C271.726 149.683 271.751 149.504 271.731 149.337C271.713 149.165 271.658 149.012 271.577 148.884C271.53 148.808 271.523 148.712 271.556 148.632C271.637 148.434 271.663 148.178 271.61 147.852C271.503 147.207 271.13 146.486 270.721 146.162C270.784 146.172 270.863 146.165 270.955 146.131C271.151 146.057 271.325 145.9 271.288 145.798C271.251 145.696 271.017 145.686 270.821 145.758C270.806 145.765 270.796 145.77 270.782 145.777L270.777 145.693C270.721 145.321 270.431 145.054 270.114 145.084C269.798 145.115 269.578 145.467 269.637 145.856Z" fill="black"/>
<path d="M243.034 157.773C243.027 157.796 243.024 157.819 243.019 157.843C243.007 157.834 242.997 157.827 242.983 157.818C242.797 157.717 242.578 157.677 242.527 157.742C242.473 157.807 242.611 157.973 242.783 158.089C242.863 158.142 242.937 158.171 243 158.179C242.562 158.356 241.999 158.735 241.665 159.157C241.48 159.366 241.382 159.56 241.357 159.75C241.345 159.826 241.296 159.892 241.223 159.918C241.016 159.979 240.834 160.106 240.708 160.31C240.545 160.591 240.519 160.953 240.682 161.251C240.977 161.805 241.725 161.92 242.195 161.462C242.312 161.352 242.399 161.223 242.452 161.089C242.482 161.006 242.549 160.94 242.634 160.914C242.837 160.849 243.061 160.709 243.287 160.449C243.722 159.914 244.005 159.058 243.82 158.539C243.867 158.583 243.936 158.62 244.032 158.639C244.239 158.682 244.483 158.618 244.516 158.495C244.546 158.371 244.337 158.246 244.132 158.224H244.089L244.124 158.139C244.265 157.742 244.067 157.366 243.748 157.319C243.438 157.274 243.14 157.48 243.034 157.773Z" fill="black"/>
<path d="M242.634 152.179L242.646 152.262C242.63 152.258 242.619 152.255 242.602 152.251C242.395 152.222 242.168 152.278 242.154 152.388C242.138 152.497 242.347 152.613 242.555 152.638C242.652 152.651 242.73 152.64 242.79 152.616C242.455 152.987 242.315 153.861 242.453 154.479C242.52 154.795 242.628 154.996 242.769 155.138C242.828 155.196 242.851 155.277 242.827 155.35C242.766 155.549 242.773 155.764 242.859 155.965C242.986 156.24 243.252 156.451 243.598 156.531C243.91 156.6 244.21 156.527 244.415 156.324C244.63 156.121 244.739 155.8 244.689 155.469C244.665 155.304 244.599 155.164 244.514 155.042C244.464 154.97 244.453 154.879 244.482 154.803C244.552 154.613 244.566 154.364 244.506 154.075C244.38 153.501 244.063 152.907 243.686 152.548C243.749 152.562 243.828 152.56 243.922 152.535C244.123 152.48 244.307 152.345 244.282 152.249C244.256 152.152 244.024 152.126 243.822 152.177C243.807 152.183 243.795 152.187 243.781 152.192L243.784 152.113C243.759 151.76 243.499 151.481 243.18 151.487C242.862 151.494 242.608 151.805 242.634 152.179Z" fill="black"/>
<path d="M243.518 146.152L243.49 146.235C243.478 146.225 243.469 146.217 243.456 146.205C243.284 146.088 243.055 146.041 242.991 146.14C242.927 146.239 243.056 146.438 243.232 146.547C243.315 146.599 243.39 146.621 243.454 146.623C242.996 146.856 242.493 147.571 242.38 148.232C242.305 148.563 242.349 148.82 242.425 149.013C242.457 149.092 242.451 149.183 242.409 149.257C242.294 149.454 242.229 149.703 242.28 149.965C242.347 150.323 242.61 150.608 242.949 150.69C243.572 150.837 244.129 150.392 244.174 149.846C244.187 149.707 244.165 149.573 244.114 149.448C244.083 149.375 244.101 149.295 244.156 149.236C244.292 149.096 244.371 148.894 244.435 148.621C244.527 148.076 244.508 147.388 244.297 146.932C244.347 146.97 244.42 147.001 244.516 147.017C244.723 147.052 244.95 147.018 244.966 146.926C244.983 146.835 244.787 146.711 244.583 146.668C244.567 146.667 244.555 146.665 244.54 146.664C244.553 146.642 244.567 146.62 244.577 146.596C244.705 146.282 244.621 145.928 244.335 145.779C244.06 145.635 243.667 145.791 243.518 146.152Z" fill="black"/>
<path d="M247.543 145.382L247.499 145.458C247.49 145.445 247.483 145.436 247.472 145.422C247.329 145.272 247.114 145.18 247.03 145.265C246.947 145.349 247.031 145.569 247.18 145.711C247.251 145.779 247.32 145.815 247.383 145.83C246.884 145.966 246.242 146.565 245.993 147.189C245.85 147.497 245.839 147.758 245.873 147.962C245.888 148.045 245.863 148.135 245.806 148.198C245.652 148.367 245.535 148.598 245.531 148.865C245.521 149.23 245.719 149.561 246.033 149.709C246.612 149.977 247.251 149.654 247.409 149.128C247.452 148.995 247.458 148.859 247.435 148.728C247.419 148.649 247.454 148.574 247.52 148.528C247.683 148.418 247.803 148.236 247.922 147.983C248.127 147.468 248.253 146.79 248.142 146.301C248.183 146.349 248.248 146.394 248.338 146.428C248.534 146.504 248.764 146.517 248.799 146.43C248.834 146.344 248.668 146.184 248.478 146.101C248.462 146.096 248.451 146.093 248.437 146.088C248.454 146.068 248.472 146.051 248.487 146.029C248.678 145.747 248.671 145.383 248.422 145.18C248.183 144.985 247.766 145.059 247.543 145.382Z" fill="black"/>
<path d="M247.532 141.468C247.508 141.486 247.488 141.506 247.467 141.526C247.462 141.511 247.458 141.499 247.453 141.483C247.366 141.296 247.195 141.141 247.092 141.193C246.989 141.245 246.999 141.479 247.091 141.663C247.134 141.749 247.186 141.807 247.24 141.842C246.713 141.79 245.941 142.134 245.462 142.589C245.222 142.833 245.093 143.063 245.047 143.266C245.025 143.347 244.974 143.427 244.894 143.465C244.686 143.57 244.483 143.744 244.378 144C244.235 144.35 244.292 144.728 244.543 144.972C245.002 145.407 245.708 145.321 246.034 144.904C246.122 144.799 246.177 144.678 246.204 144.549C246.22 144.474 246.273 144.412 246.354 144.397C246.545 144.354 246.736 144.247 246.933 144.044C247.349 143.652 247.712 143.019 247.791 142.536C247.814 142.594 247.859 142.658 247.933 142.721C248.09 142.855 248.304 142.937 248.368 142.863C248.433 142.789 248.329 142.584 248.177 142.446C248.163 142.436 248.154 142.43 248.142 142.421L248.209 142.379C248.501 142.183 248.598 141.812 248.426 141.55C248.254 141.288 247.854 141.251 247.532 141.468Z" fill="black"/>
<path d="M253.319 139.171L253.233 139.191C253.236 139.176 253.238 139.164 253.242 139.147C253.259 138.942 253.186 138.725 253.067 138.723C252.949 138.72 252.839 138.93 252.83 139.135C252.825 139.23 252.844 139.305 252.874 139.361C252.436 139.074 251.564 139.018 250.917 139.238C250.588 139.341 250.372 139.493 250.242 139.662C250.188 139.73 250.104 139.771 250.015 139.768C249.777 139.76 249.532 139.846 249.316 140.013C249.028 140.25 248.911 140.626 249.008 140.945C249.201 141.548 249.867 141.785 250.368 141.559C250.497 141.502 250.6 141.409 250.687 141.312C250.738 141.253 250.818 141.228 250.896 141.244C251.085 141.281 251.306 141.264 251.579 141.178C252.111 140.997 252.717 140.619 253.02 140.228C253.011 140.29 253.02 140.367 253.054 140.456C253.127 140.649 253.271 140.821 253.361 140.788C253.451 140.754 253.462 140.524 253.398 140.332C253.391 140.317 253.386 140.307 253.381 140.294L253.459 140.289C253.806 140.259 254.075 139.978 254.061 139.672C254.046 139.357 253.714 139.135 253.319 139.171Z" fill="black"/>
<path d="M247.429 166.482L247.356 166.53C247.354 166.514 247.351 166.503 247.348 166.486C247.291 166.288 247.145 166.11 247.033 166.148C246.921 166.185 246.894 166.42 246.958 166.615C246.988 166.706 247.032 166.771 247.08 166.813C246.567 166.693 245.73 166.939 245.203 167.366C244.933 167.577 244.785 167.792 244.723 167.995C244.697 168.077 244.633 168.145 244.548 168.172C244.324 168.246 244.124 168.411 243.982 168.641C243.797 168.962 243.823 169.353 244.028 169.62C244.424 170.118 245.134 170.112 245.522 169.729C245.622 169.632 245.685 169.508 245.732 169.387C245.759 169.315 245.825 169.264 245.904 169.253C246.094 169.223 246.294 169.131 246.52 168.958C246.953 168.606 247.385 168.044 247.529 167.575C247.542 167.635 247.578 167.704 247.642 167.776C247.779 167.932 247.976 168.044 248.048 167.981C248.121 167.919 248.049 167.7 247.919 167.542C247.908 167.53 247.9 167.523 247.889 167.512L247.961 167.481C248.275 167.334 248.427 166.979 248.304 166.697C248.177 166.407 247.787 166.313 247.429 166.482Z" fill="black"/>
<path d="M259.351 139.571L259.275 139.582C259.279 139.568 259.282 139.557 259.286 139.541C259.318 139.338 259.272 139.117 259.183 139.094C259.093 139.073 258.981 139.264 258.937 139.464C258.917 139.558 258.919 139.635 258.936 139.694C258.586 139.348 257.968 139.044 257.371 138.931C257.069 138.876 256.817 138.897 256.621 138.971C256.542 139.001 256.45 138.993 256.374 138.947C256.176 138.819 255.917 138.755 255.64 138.798C255.262 138.841 254.96 139.118 254.877 139.439C254.729 140.053 255.172 140.588 255.708 140.648C255.847 140.659 255.981 140.65 256.109 140.605C256.182 140.578 256.265 140.597 256.326 140.654C256.471 140.786 256.682 140.887 257.002 140.945C257.629 141.066 258.517 140.92 258.915 140.573C258.893 140.633 258.885 140.71 258.904 140.804C258.943 141.004 259.088 141.198 259.209 141.179C259.331 141.161 259.37 140.933 259.319 140.734C259.313 140.719 259.309 140.708 259.304 140.694C259.334 140.697 259.362 140.698 259.393 140.697C259.801 140.677 260.092 140.39 260.044 140.076C259.997 139.775 259.688 139.554 259.351 139.571Z" fill="black"/>
<path d="M264.523 137.486L264.461 137.537C264.456 137.522 264.452 137.511 264.447 137.496C264.359 137.311 264.19 137.152 264.097 137.192C264.005 137.231 264.018 137.456 264.103 137.644C264.142 137.732 264.191 137.793 264.241 137.831C263.743 137.762 263.017 137.932 262.515 138.186C262.26 138.317 262.101 138.475 261.999 138.626C261.957 138.69 261.885 138.729 261.808 138.722C261.602 138.711 261.396 138.758 261.204 138.88C260.949 139.063 260.783 139.376 260.786 139.711C260.779 140.342 261.422 140.765 262.079 140.53C262.241 140.478 262.368 140.376 262.475 140.268C262.536 140.203 262.627 140.172 262.717 140.181C262.938 140.211 263.192 140.15 263.496 139.993C264.101 139.686 264.65 139.055 264.753 138.553C264.772 138.614 264.812 138.68 264.883 138.745C265.035 138.886 265.259 138.967 265.338 138.887C265.418 138.808 265.318 138.601 265.163 138.463C265.15 138.453 265.14 138.447 265.128 138.438L265.202 138.396C265.522 138.183 265.592 137.781 265.399 137.541C265.199 137.292 264.82 137.289 264.523 137.486Z" fill="black"/>
<path d="M239.777 155.144L239.802 155.223C239.787 155.222 239.774 155.221 239.758 155.219C239.548 155.224 239.334 155.316 239.336 155.424C239.332 155.463 239.367 155.434 239.444 155.442C239.519 155.442 239.619 155.482 239.722 155.486C239.819 155.495 239.898 155.488 239.958 155.469C239.628 155.775 239.324 156.402 239.23 156.948C239.182 157.224 239.204 157.439 239.276 157.613C239.306 157.684 239.296 157.764 239.243 157.819C239.107 157.972 239.02 158.16 239.019 158.383C239.014 158.68 239.183 158.98 239.461 159.183C239.965 159.581 240.708 159.311 240.891 158.667C240.94 158.511 240.939 158.356 240.912 158.213C240.896 158.128 240.922 158.041 240.981 157.979C241.127 157.828 241.24 157.602 241.295 157.281C241.404 156.648 241.238 155.827 240.855 155.416C240.917 155.434 240.997 155.437 241.091 155.409C241.19 155.373 241.294 155.331 241.354 155.235C241.415 155.147 241.437 155.008 241.413 154.946C241.373 154.858 241.14 154.869 240.948 154.951C240.934 154.959 240.924 154.965 240.911 154.972L240.901 154.895C240.827 154.557 240.514 154.33 240.201 154.387C239.888 154.444 239.699 154.784 239.777 155.144Z" fill="black"/>
<path d="M239.374 149.227L239.373 149.311C239.358 149.304 239.347 149.3 239.332 149.293C239.132 149.231 238.898 149.25 238.867 149.356C238.835 149.462 239.017 149.61 239.217 149.666C239.311 149.692 239.39 149.693 239.453 149.679C239.076 150.016 238.792 150.783 238.815 151.419C238.813 151.742 238.909 151.975 239.025 152.142C239.073 152.21 239.087 152.298 239.056 152.376C238.968 152.585 238.968 152.828 239.061 153.07C239.186 153.401 239.495 153.63 239.843 153.654C240.481 153.694 240.958 153.171 240.9 152.624C240.881 152.486 240.836 152.358 240.767 152.245C240.726 152.179 240.727 152.097 240.767 152.029C240.869 151.864 240.905 151.649 240.907 151.365C240.887 150.806 240.677 150.125 240.349 149.747C240.408 149.77 240.487 149.78 240.584 149.77C240.793 149.747 241.001 149.649 240.99 149.554C240.98 149.46 240.755 149.397 240.547 149.414C240.531 149.418 240.52 149.42 240.505 149.422L240.52 149.347C240.549 149.006 240.342 148.694 240.03 148.646C239.714 148.596 239.407 148.855 239.374 149.227Z" fill="black"/>
<path d="M241.272 143.557L241.236 143.633C241.225 143.622 241.217 143.613 241.206 143.6C241.05 143.462 240.831 143.385 240.757 143.47C240.683 143.555 240.786 143.765 240.945 143.898C241.019 143.96 241.091 143.992 241.154 144.004C240.898 144.078 240.64 144.268 240.405 144.514C240.16 144.756 239.96 145.062 239.847 145.365C239.723 145.67 239.694 145.918 239.75 146.121C239.77 146.203 239.75 146.292 239.692 146.354C239.542 146.522 239.419 146.746 239.428 147.012C239.43 147.371 239.635 147.695 239.947 147.835C240.53 148.088 241.173 147.767 241.307 147.248C241.349 147.117 241.354 146.985 241.33 146.856C241.315 146.78 241.346 146.704 241.408 146.657C241.552 146.54 241.692 146.369 241.797 146.11C241.893 145.851 241.958 145.548 241.994 145.255C242.022 144.957 242.001 144.658 241.942 144.428C241.986 144.472 242.053 144.513 242.146 144.543C242.346 144.607 242.575 144.602 242.604 144.513C242.633 144.423 242.455 144.275 242.259 144.206C242.244 144.202 242.232 144.199 242.218 144.196C242.233 144.175 242.25 144.156 242.262 144.133C242.426 143.834 242.389 143.476 242.121 143.299C241.862 143.127 241.455 143.226 241.272 143.557Z" fill="black"/>
<path d="M270.413 138.919L270.404 139.002C270.39 138.994 270.379 138.989 270.364 138.98C270.172 138.899 269.938 138.896 269.896 139C269.855 139.104 270.022 139.27 270.216 139.344C270.307 139.379 270.386 139.388 270.45 139.379C270.232 139.53 270.051 139.791 269.909 140.099C269.758 140.405 269.67 140.758 269.663 141.08C269.648 141.408 269.703 141.651 269.822 141.827C269.868 141.898 269.879 141.988 269.845 142.065C269.759 142.271 269.717 142.522 269.814 142.771C269.934 143.11 270.236 143.352 270.576 143.385C271.213 143.44 271.714 142.933 271.669 142.399C271.665 142.262 271.626 142.135 271.561 142.021C271.522 141.954 271.526 141.873 271.568 141.808C271.666 141.651 271.741 141.446 271.755 141.167C271.76 140.892 271.721 140.585 271.659 140.296C271.587 140.006 271.467 139.73 271.335 139.531C271.392 139.559 271.469 139.576 271.567 139.575C271.776 139.572 271.992 139.495 271.99 139.401C271.987 139.306 271.77 139.223 271.561 139.219C271.545 139.221 271.534 139.222 271.519 139.224C271.527 139.199 271.536 139.176 271.54 139.15C271.596 138.816 271.442 138.488 271.13 138.405C270.828 138.325 270.477 138.548 270.413 138.919Z" fill="black"/>
<path d="M245.412 139.186L245.348 139.241C245.343 139.226 245.339 139.215 245.334 139.199C245.246 139.014 245.074 138.858 244.972 138.906C244.87 138.954 244.882 139.184 244.974 139.367C245.018 139.452 245.07 139.51 245.123 139.546C244.617 139.504 243.844 139.809 243.379 140.256C243.134 140.47 243.017 140.701 242.971 140.901C242.953 140.983 242.896 141.053 242.816 141.085C242.603 141.17 242.4 141.323 242.291 141.568C242.134 141.894 242.176 142.273 242.397 142.529C242.812 143 243.539 142.984 243.881 142.566C243.977 142.466 244.041 142.349 244.077 142.223C244.098 142.149 244.159 142.094 244.236 142.077C244.427 142.037 244.608 141.924 244.827 141.734C245.234 141.342 245.613 140.735 245.675 140.239C245.698 140.298 245.743 140.36 245.816 140.424C245.974 140.559 246.189 140.644 246.254 140.572C246.32 140.5 246.216 140.296 246.062 140.158C246.049 140.149 246.04 140.142 246.027 140.133L246.095 140.094C246.375 139.887 246.465 139.52 246.292 139.264C246.113 139.002 245.717 138.963 245.412 139.186Z" fill="black"/>
<path d="M250.893 136.601L250.813 136.631C250.814 136.615 250.814 136.603 250.815 136.586C250.802 136.381 250.701 136.176 250.588 136.186C250.476 136.197 250.401 136.418 250.419 136.622C250.427 136.717 250.455 136.789 250.491 136.841C250.03 136.606 249.194 136.629 248.594 136.887C248.287 137.009 248.09 137.166 247.978 137.343C247.931 137.413 247.853 137.46 247.767 137.461C247.538 137.465 247.295 137.541 247.103 137.726C246.838 137.969 246.736 138.335 246.843 138.653C247.049 139.242 247.733 139.489 248.215 139.221C248.342 139.159 248.446 139.072 248.526 138.965C248.573 138.903 248.651 138.872 248.729 138.883C248.918 138.906 249.14 138.878 249.408 138.772C249.928 138.548 250.5 138.107 250.747 137.684C250.746 137.746 250.764 137.821 250.809 137.906C250.905 138.088 251.072 138.24 251.159 138.195C251.245 138.15 251.224 137.922 251.133 137.739C251.125 137.726 251.119 137.716 251.111 137.703L251.188 137.689C251.525 137.601 251.75 137.303 251.684 136.996C251.619 136.695 251.261 136.504 250.893 136.601Z" fill="black"/>
<path d="M256.982 136.258L256.897 136.253C256.904 136.239 256.909 136.229 256.916 136.214C256.989 136.021 256.98 135.793 256.871 135.758C256.763 135.723 256.603 135.895 256.537 136.089C256.506 136.179 256.502 136.257 256.514 136.319C256.185 135.927 255.401 135.632 254.741 135.636C254.407 135.633 254.163 135.719 253.988 135.829C253.918 135.875 253.826 135.887 253.746 135.855C253.532 135.774 253.278 135.773 253.027 135.86C252.682 135.972 252.451 136.301 252.429 136.631C252.398 137.263 252.931 137.704 253.481 137.66C253.621 137.648 253.749 137.595 253.864 137.528C253.931 137.49 254.015 137.492 254.083 137.533C254.248 137.636 254.463 137.678 254.75 137.681C255.313 137.679 256.009 137.487 256.407 137.191C256.382 137.248 256.368 137.324 256.375 137.419C256.389 137.624 256.479 137.83 256.576 137.823C256.672 137.815 256.746 137.599 256.738 137.395C256.735 137.379 256.734 137.368 256.731 137.354C256.757 137.36 256.781 137.367 256.808 137.371C257.152 137.412 257.486 137.229 257.548 136.921C257.608 136.619 257.363 136.305 256.982 136.258Z" fill="black"/>
<path d="M262.405 135.785L262.332 135.82C262.331 135.805 262.33 135.793 262.329 135.777C262.293 135.575 262.171 135.38 262.067 135.398C261.964 135.415 261.918 135.639 261.954 135.84C261.97 135.934 262.003 136.004 262.043 136.054C261.577 135.858 260.797 135.897 260.265 136.066C260.134 136.108 260.025 136.156 259.96 136.201C259.91 136.231 259.928 136.24 259.919 136.266C259.916 136.291 259.858 136.317 259.833 136.346C259.781 136.395 259.71 136.403 259.651 136.37C259.49 136.278 259.315 136.24 259.102 136.279C258.813 136.331 258.509 136.546 258.371 136.855C258.115 137.422 258.453 138.071 259.182 138.131C259.361 138.144 259.536 138.111 259.686 138.048C259.774 138.008 259.877 138.012 259.964 138.048C260.025 138.068 260.059 138.094 260.155 138.101C260.246 138.109 260.372 138.105 260.434 138.101C260.599 138.092 260.748 138.064 260.911 138.012C261.543 137.81 262.145 137.324 262.365 136.874C262.369 136.936 262.392 137.01 262.445 137.091C262.557 137.264 262.746 137.398 262.835 137.343C262.925 137.287 262.881 137.063 262.769 136.891C262.759 136.878 262.752 136.869 262.742 136.857L262.821 136.835C263.162 136.706 263.344 136.368 263.231 136.077C263.117 135.787 262.746 135.656 262.405 135.785Z" fill="black"/>
<path d="M236.09 150.932L236.109 151.021C236.093 151.017 236.082 151.015 236.064 151.011C235.855 150.989 235.632 151.06 235.627 151.181C235.622 151.301 235.835 151.419 236.044 151.433C236.142 151.441 236.219 151.424 236.277 151.394C235.975 151.837 235.936 152.745 236.065 153.322C236.132 153.633 236.241 153.85 236.38 154.002C236.438 154.064 236.462 154.15 236.439 154.23C236.379 154.444 236.387 154.682 236.484 154.914C236.62 155.23 236.915 155.459 237.257 155.514C237.893 155.633 238.416 155.044 238.304 154.379C238.278 154.214 238.216 154.065 238.13 153.94C238.079 153.866 238.068 153.772 238.097 153.689C238.169 153.487 238.184 153.228 238.113 152.897C237.96 152.214 237.563 151.593 237.166 151.267C237.229 151.278 237.308 151.27 237.4 151.238C237.598 151.167 237.777 151.021 237.744 150.925C237.711 150.828 237.477 150.812 237.278 150.875C237.264 150.882 237.253 150.886 237.239 150.892L237.236 150.81C237.184 150.448 236.933 150.162 236.608 150.175C236.297 150.187 236.034 150.529 236.09 150.932Z" fill="black"/>
<path d="M237.05 144.552L237.024 144.639C237.012 144.629 237.003 144.621 236.99 144.61C236.816 144.492 236.586 144.45 236.523 144.554C236.461 144.656 236.592 144.859 236.768 144.97C236.85 145.022 236.926 145.044 236.991 145.045C236.508 145.29 236.013 146.03 235.863 146.717C235.772 147.06 235.81 147.336 235.881 147.541C235.912 147.625 235.904 147.722 235.854 147.799C235.716 148.003 235.674 148.271 235.707 148.553C235.75 148.936 236.039 149.244 236.368 149.33C236.998 149.483 237.535 149.019 237.604 148.45C237.619 148.303 237.591 148.161 237.554 148.031C237.53 147.953 237.551 147.868 237.606 147.807C237.746 147.659 237.827 147.449 237.907 147.158C238.033 146.582 238.018 145.824 237.834 145.352C237.884 145.391 237.956 145.422 238.053 145.437C238.261 145.468 238.49 145.421 238.507 145.32C238.525 145.22 238.327 145.095 238.122 145.058C238.106 145.057 238.095 145.056 238.08 145.055L238.116 144.981C238.258 144.641 238.165 144.265 237.875 144.129C237.591 143.996 237.207 144.179 237.05 144.552Z" fill="black"/>
<path d="M240.673 139.214L240.616 139.283C240.608 139.269 240.602 139.259 240.594 139.244C240.476 139.075 240.276 138.954 240.18 139.023C240.081 139.09 240.136 139.329 240.258 139.495C240.315 139.573 240.378 139.621 240.437 139.645C239.903 139.703 239.171 140.182 238.75 140.729C238.544 141.01 238.448 141.26 238.427 141.473C238.418 141.56 238.369 141.643 238.29 141.69C238.089 141.821 237.922 142.03 237.829 142.294C237.697 142.65 237.811 143.05 238.063 143.273C238.551 143.693 239.249 143.518 239.578 143.024C239.659 142.897 239.703 142.757 239.721 142.617C239.735 142.536 239.792 142.466 239.87 142.433C240.061 142.354 240.246 142.202 240.43 141.95C240.804 141.465 241.103 140.746 241.105 140.233C241.137 140.288 241.193 140.343 241.277 140.391C241.459 140.494 241.685 140.525 241.746 140.439C241.804 140.35 241.667 140.166 241.488 140.059C241.473 140.052 241.462 140.047 241.448 140.041L241.513 139.986C241.779 139.716 241.812 139.317 241.589 139.096C241.365 138.875 240.956 138.928 240.673 139.214Z" fill="black"/>
<path d="M236.554 157.598L236.568 157.686C236.553 157.682 236.541 157.68 236.524 157.676C236.316 157.65 236.091 157.716 236.079 157.832C236.065 157.949 236.284 158.067 236.492 158.088C236.59 158.099 236.668 158.085 236.726 158.057C236.415 158.486 236.294 159.338 236.433 160.009C236.511 160.347 236.638 160.583 236.787 160.741C236.848 160.805 236.878 160.896 236.862 160.984C236.828 161.218 236.877 161.479 237.017 161.722C237.201 162.055 237.583 162.238 237.921 162.203C238.566 162.126 238.896 161.5 238.737 160.931C238.694 160.787 238.617 160.662 238.522 160.555C238.469 160.492 238.454 160.404 238.48 160.325C238.546 160.132 238.553 159.896 238.484 159.595C238.361 159 238.01 158.303 237.62 157.96C237.683 157.973 237.762 157.969 237.855 157.94C238.054 157.876 238.228 157.731 238.203 157.629C238.174 157.528 237.942 157.506 237.741 157.565C237.725 157.572 237.715 157.576 237.701 157.582L237.701 157.498C237.672 157.125 237.39 156.835 237.072 156.852C236.755 156.867 236.522 157.202 236.554 157.598Z" fill="black"/>
<path d="M245.753 135.192L245.675 135.241C245.672 135.226 245.67 135.214 245.667 135.197C245.608 135.001 245.456 134.826 245.338 134.864C245.222 134.905 245.198 135.147 245.264 135.342C245.294 135.433 245.339 135.497 245.389 135.538C244.86 135.441 243.995 135.698 243.447 136.123C243.162 136.33 243.001 136.542 242.926 136.745C242.895 136.827 242.825 136.894 242.738 136.918C242.503 136.982 242.285 137.13 242.125 137.356C241.905 137.662 241.877 138.054 242.051 138.35C242.371 138.895 243.115 138.951 243.578 138.55C243.693 138.445 243.785 138.33 243.845 138.2C243.88 138.125 243.954 138.072 244.039 138.06C244.243 138.029 244.465 137.932 244.719 137.748C245.206 137.369 245.693 136.782 245.847 136.293C245.861 136.355 245.898 136.423 245.963 136.494C246.105 136.646 246.311 136.745 246.389 136.678C246.469 136.614 246.396 136.398 246.26 136.241C246.248 136.23 246.24 136.222 246.228 136.212L246.306 136.18C246.636 136.007 246.797 135.642 246.665 135.366C246.527 135.079 246.118 135.001 245.753 135.192Z" fill="black"/>
<path d="M252.1 133.507L252.009 133.521C252.014 133.506 252.017 133.494 252.021 133.478C252.053 133.274 251.991 133.053 251.872 133.042C251.753 133.031 251.626 133.233 251.599 133.436C251.587 133.531 251.598 133.607 251.625 133.665C251.195 133.349 250.319 133.213 249.622 133.348C249.27 133.41 249.025 133.547 248.862 133.69C248.795 133.75 248.701 133.78 248.61 133.765C248.368 133.737 248.096 133.786 247.845 133.927C247.506 134.128 247.322 134.493 247.369 134.824C247.469 135.452 248.118 135.759 248.683 135.597C248.827 135.554 248.952 135.48 249.058 135.384C249.122 135.332 249.211 135.318 249.291 135.345C249.487 135.412 249.72 135.408 250.028 135.356C250.627 135.239 251.343 134.911 251.703 134.541C251.688 134.601 251.69 134.679 251.718 134.771C251.779 134.968 251.924 135.149 252.028 135.122C252.131 135.094 252.16 134.866 252.104 134.669C252.097 134.654 252.093 134.644 252.088 134.63L252.173 134.631C252.554 134.6 252.86 134.352 252.851 134.037C252.842 133.73 252.506 133.475 252.1 133.507Z" fill="black"/>
<path d="M247.269 131.254L247.184 131.287C247.185 131.271 247.185 131.259 247.186 131.243C247.169 131.038 247.057 130.837 246.938 130.852C246.819 130.868 246.743 131.093 246.765 131.297C246.775 131.392 246.804 131.464 246.844 131.514C246.351 131.303 245.466 131.367 244.82 131.655C244.491 131.793 244.285 131.982 244.16 132.158C244.11 132.232 244.025 132.282 243.933 132.288C243.691 132.315 243.437 132.424 243.226 132.616C242.944 132.889 242.851 133.286 242.974 133.597C243.219 134.185 243.922 134.339 244.434 134.054C244.564 133.98 244.669 133.88 244.75 133.763C244.8 133.698 244.883 133.664 244.967 133.672C245.173 133.694 245.399 133.637 245.686 133.517C246.243 133.27 246.862 132.79 247.126 132.349C247.125 132.411 247.146 132.486 247.195 132.569C247.3 132.747 247.483 132.891 247.578 132.841C247.673 132.791 247.647 132.563 247.546 132.384C247.536 132.371 247.529 132.362 247.521 132.35L247.604 132.331C247.968 132.215 248.208 131.905 248.124 131.601C248.043 131.304 247.657 131.131 247.269 131.254Z" fill="black"/>
<path d="M258.541 133.739L258.453 133.741C258.459 133.727 258.463 133.716 258.47 133.7C258.525 133.502 258.494 133.276 258.386 133.249C258.279 133.223 258.133 133.406 258.075 133.603C258.049 133.695 258.048 133.772 258.065 133.833C257.695 133.464 256.924 133.167 256.263 133.116C255.928 133.091 255.672 133.136 255.478 133.229C255.401 133.266 255.304 133.268 255.226 133.227C255.016 133.118 254.757 133.071 254.462 133.124C254.088 133.206 253.792 133.474 253.71 133.802C253.554 134.416 254.076 134.951 254.668 134.971C254.822 134.978 254.971 134.952 255.11 134.901C255.191 134.87 255.283 134.882 255.355 134.931C255.528 135.05 255.768 135.131 256.101 135.156C256.758 135.206 257.583 135.029 258.005 134.71C257.98 134.768 257.97 134.845 257.984 134.94C258.014 135.143 258.139 135.343 258.255 135.33C258.371 135.317 258.43 135.095 258.397 134.892C258.393 134.877 258.39 134.866 258.386 134.851L258.474 134.864C258.875 134.886 259.214 134.644 259.222 134.334C259.23 134.022 258.928 133.761 258.541 133.739Z" fill="black"/>
<path d="M220.551 159.288C220.516 159.405 220.406 159.48 220.283 159.495C218.558 159.693 217.552 159.919 216.782 160.32C216.029 160.681 215.586 161.149 215.592 161.294C215.6 161.438 216.102 161.885 217.094 161.96C217.341 161.987 217.611 161.949 217.906 161.906C218.203 161.867 218.517 161.775 218.835 161.621C219.158 161.483 219.488 161.294 219.796 161.024C220.116 160.779 220.407 160.45 220.663 160.068C220.735 159.961 220.865 159.902 220.994 159.904C221.459 159.899 221.959 159.836 222.151 159.69C222.336 159.528 222.204 159.33 221.527 159.019C221.273 158.311 221.063 158.187 220.93 158.323C220.783 158.451 220.669 158.846 220.551 159.288Z" fill="black"/>
<path d="M224.327 153.611C224.381 153.722 224.365 153.855 224.289 153.949C223.13 155.243 222.611 156.136 222.316 156.918C222.034 157.679 222.05 158.328 222.155 158.428C222.26 158.531 222.933 158.507 223.705 157.885C224.472 157.293 225.242 155.934 224.963 154.124C224.939 153.997 224.98 153.866 225.078 153.784C225.819 153.176 226.344 152.375 224.888 152.78C223.569 152.045 223.955 152.814 224.327 153.611Z" fill="black"/>
<path d="M223.986 146.728C224.088 146.794 224.14 146.916 224.123 147.036C223.873 148.728 223.926 149.794 224.191 150.62C224.413 151.423 224.849 151.921 224.998 151.935C225.145 151.949 225.641 151.524 225.896 150.6C226.121 149.708 226.031 148.211 224.788 146.828C224.701 146.733 224.671 146.598 224.712 146.475C224.966 145.583 225 144.592 223.987 145.735C222.505 145.827 223.201 146.271 223.986 146.728Z" fill="black"/>
<path d="M219.502 141.597C219.623 141.574 219.756 141.61 219.822 141.719C220.799 143.13 221.461 143.887 222.174 144.371C222.494 144.628 222.821 144.788 223.085 144.882C223.331 144.987 223.522 145.015 223.589 144.978C223.652 144.943 223.729 144.769 223.755 144.482C223.764 144.206 223.708 143.819 223.531 143.361C223.315 142.933 222.99 142.416 222.419 141.996C221.872 141.561 221.086 141.228 220.165 141.125C220.039 141.102 219.913 141.043 219.855 140.927C219.422 140.074 218.708 139.395 218.808 140.875C217.796 141.98 218.627 141.762 219.502 141.597Z" fill="black"/>
<path d="M212.597 140.812C212.674 140.718 212.801 140.666 212.922 140.699C214.603 141.158 215.675 141.237 216.529 141.14C217.363 141.027 217.935 140.754 217.985 140.594C218.025 140.478 217.703 139.867 216.79 139.493C215.912 139.098 214.351 138.998 212.788 140.03C212.68 140.101 212.542 140.128 212.423 140.078C211.529 139.697 210.536 139.631 211.589 140.699C211.545 142.18 212.035 141.489 212.597 140.812Z" fill="black"/>
<path d="M206.974 144.694C206.964 144.575 207.029 144.459 207.135 144.397C208.649 143.558 209.476 142.968 210.039 142.339C210.58 141.718 210.846 141.16 210.775 141.003C210.746 140.938 210.579 140.852 210.293 140.811C210.006 140.766 209.595 140.764 209.128 140.93C208.202 141.203 206.913 142.186 206.561 144.01C206.537 144.137 206.447 144.244 206.324 144.289C205.437 144.638 204.634 145.238 206.174 145.303C207.172 146.387 207.08 145.572 206.974 144.694Z" fill="black"/>
<path d="M205.306 151.353C205.225 151.261 205.207 151.129 205.255 151.017C205.98 149.444 206.213 148.402 206.188 147.551C206.185 146.725 205.948 146.135 205.81 146.077C205.675 146.019 205.044 146.27 204.545 147.105C204.071 147.917 203.761 149.38 204.557 151.031C204.615 151.146 204.608 151.283 204.536 151.388C204.259 151.771 204.047 152.197 204.077 152.427C204.1 152.661 204.34 152.672 204.996 152.303C205.727 152.502 205.954 152.408 205.921 152.215C205.879 152.019 205.591 151.695 205.306 151.353Z" fill="black"/>
<path d="M207.7 157.764C207.579 157.739 207.482 157.646 207.452 157.531C207.092 155.873 206.74 154.898 206.266 154.184C205.794 153.495 205.288 153.114 205.121 153.145C204.997 153.166 204.582 153.716 204.636 154.675C204.658 155.604 205.227 157.065 206.902 157.95C207.021 158.008 207.101 158.121 207.11 158.248C207.129 158.722 207.25 159.188 207.424 159.355C207.597 159.53 207.786 159.386 208.056 158.691C208.747 158.395 208.858 158.177 208.715 158.052C208.564 157.927 208.135 157.864 207.7 157.764Z" fill="black"/>
<path d="M213.805 160.888C213.701 160.949 213.566 160.942 213.462 160.874C212.01 159.925 211.089 159.478 210.253 159.288C209.445 159.096 208.811 159.133 208.708 159.255C208.622 159.354 208.674 160.04 209.391 160.727C210.074 161.396 211.547 162.057 213.366 161.549C213.492 161.515 213.629 161.547 213.725 161.637C214.441 162.239 215.336 162.705 214.721 161.315C215.28 159.972 214.567 160.386 213.805 160.888Z" fill="black"/>
<path d="M220.552 165.888C220.489 165.99 220.371 166.043 220.253 166.028C219.417 165.925 218.724 165.842 218.16 165.929C217.579 165.946 217.109 166.072 216.725 166.242C215.955 166.534 215.523 166.99 215.527 167.146C215.531 167.281 215.998 167.736 216.899 167.9C217.346 167.958 217.9 167.946 218.524 167.799C219.132 167.582 219.828 167.289 220.466 166.677C220.557 166.592 220.685 166.561 220.803 166.601C221.233 166.744 221.695 166.855 221.903 166.781C222.11 166.696 222.056 166.464 221.535 165.949C221.519 165.204 221.371 165.015 221.199 165.102C221.021 165.182 220.785 165.515 220.552 165.888Z" fill="black"/>
<path d="M226.291 162.41C226.277 162.525 226.191 162.62 226.076 162.653C225.663 162.773 225.315 162.909 225.003 163.046C224.673 163.163 224.391 163.293 224.146 163.435C223.67 163.739 223.269 163.993 222.995 164.303C222.722 164.611 222.53 164.902 222.406 165.125C222.289 165.357 222.253 165.54 222.285 165.607C222.317 165.671 222.483 165.76 222.758 165.812C223.037 165.873 223.417 165.875 223.852 165.744C224.286 165.614 224.822 165.422 225.291 164.974C225.533 164.76 225.773 164.509 226.001 164.218C226.211 163.905 226.397 163.541 226.56 163.144C226.606 163.032 226.712 162.953 226.839 162.94C227.742 162.814 228.612 162.476 227.175 162.017C226.462 160.729 226.358 161.543 226.291 162.41Z" fill="black"/>
<path d="M229.834 156.781C229.878 156.893 229.849 157.017 229.766 157.1C229.123 157.661 228.705 158.175 228.378 158.637C228.032 159.086 227.881 159.545 227.744 159.92C227.487 160.675 227.597 161.312 227.717 161.405C227.83 161.494 228.458 161.415 229.172 160.833C229.533 160.547 229.832 160.089 230.104 159.518C230.357 158.938 230.475 158.186 230.42 157.337C230.405 157.214 230.459 157.096 230.562 157.029C231.321 156.538 232.007 155.896 230.482 156.061C229.305 155.192 229.515 155.967 229.834 156.781Z" fill="black"/>
<path d="M230.83 150.197C230.911 150.286 230.929 150.413 230.881 150.519C230.508 151.273 230.268 151.909 230.186 152.469C230.047 153.023 230.045 153.502 230.111 153.91C230.199 154.714 230.531 155.241 230.686 155.279C230.819 155.312 231.396 154.992 231.793 154.185C231.969 153.781 232.104 153.258 232.126 152.635C232.091 152.01 231.962 151.282 231.578 150.511C231.52 150.402 231.527 150.273 231.6 150.176C232.133 149.457 232.544 148.631 231.176 149.298C229.76 148.878 230.237 149.543 230.83 150.197Z" fill="black"/>
<path d="M229.427 143.692C229.535 143.746 229.599 143.857 229.593 143.972C229.529 144.802 229.533 145.473 229.643 146.024C229.709 146.588 229.877 147.036 230.083 147.397C230.425 148.129 230.943 148.51 231.096 148.494C231.239 148.479 231.647 147.991 231.761 147.098C231.783 146.659 231.724 146.121 231.522 145.526C231.277 144.945 230.89 144.299 230.24 143.716C230.146 143.636 230.104 143.512 230.135 143.395C230.25 142.965 230.321 142.512 230.238 142.31C230.143 142.112 229.913 142.18 229.415 142.73C228.664 142.796 228.48 142.953 228.576 143.118C228.662 143.291 229.029 143.492 229.427 143.692Z" fill="black"/>
<path d="M225.469 138.341C225.588 138.347 225.691 138.423 225.734 138.533C226.362 140.057 226.971 140.911 227.633 141.422C228.292 141.915 228.862 142.106 229.014 142.023C229.123 141.965 229.364 141.323 229.044 140.485C228.872 140.078 228.652 139.559 228.159 139.136C227.923 138.917 227.648 138.701 227.333 138.501C227.014 138.304 226.616 138.16 226.202 138.027C226.083 137.99 225.995 137.893 225.973 137.771C225.794 136.886 225.375 136.077 225.01 137.503C223.739 138.294 224.591 138.322 225.469 138.341Z" fill="black"/>
<path d="M219.48 135.283C219.591 135.232 219.721 135.249 219.81 135.323C221.046 136.478 222.014 136.91 222.83 137.097C223.619 137.292 224.269 137.129 224.348 137.018C224.438 136.89 224.307 136.295 223.661 135.641C223.025 135.009 221.752 134.425 220.004 134.668C219.88 134.693 219.754 134.65 219.679 134.555C219.12 133.857 218.41 133.242 218.696 134.711C217.898 135.928 218.673 135.661 219.48 135.283Z" fill="black"/>
<path d="M212.695 134.844C212.778 134.756 212.904 134.726 213.017 134.763C213.818 135.071 214.481 135.226 215.057 135.282C215.632 135.369 216.12 135.33 216.532 135.231C217.341 135.099 217.856 134.717 217.882 134.567C217.906 134.43 217.535 133.912 216.68 133.571C216.254 133.434 215.709 133.347 215.071 133.379C214.434 133.442 213.698 133.656 212.945 134.085C212.839 134.152 212.706 134.157 212.6 134.096C211.814 133.649 210.922 133.332 211.747 134.595C211.47 136.012 212.089 135.485 212.695 134.844Z" fill="black"/>
<path d="M206.302 137.011C206.341 136.9 206.446 136.824 206.565 136.814C207.393 136.717 208.092 136.67 208.622 136.47C209.172 136.317 209.612 136.124 209.948 135.877C210.635 135.436 210.973 134.916 210.938 134.761C210.909 134.632 210.36 134.264 209.439 134.286C208.989 134.323 208.436 134.425 207.862 134.719C207.31 135.055 206.683 135.476 206.208 136.228C206.139 136.33 206.018 136.386 205.894 136.372C204.954 136.246 204.065 136.434 205.34 137.18C205.748 138.616 206.002 137.794 206.302 137.011Z" fill="black"/>
<path d="M201.555 141.699C201.536 141.581 201.583 141.46 201.695 141.406C202.458 141 202.951 140.572 203.396 140.211C203.606 140.021 203.778 139.828 203.919 139.635C204.068 139.45 204.205 139.28 204.306 139.104C204.514 138.758 204.618 138.418 204.672 138.16C204.735 137.912 204.728 137.727 204.68 137.669C204.634 137.613 204.45 137.563 204.167 137.571C203.893 137.59 203.536 137.689 203.127 137.898C202.926 138.006 202.704 138.134 202.498 138.313C202.3 138.499 202.102 138.72 201.913 138.978C201.511 139.474 201.254 140.203 201.107 141.037C201.083 141.153 201.013 141.262 200.897 141.306C200.059 141.637 199.258 142.137 200.78 142.277C201.756 143.365 201.704 142.565 201.555 141.699Z" fill="black"/>
<path d="M199.311 147.958C199.248 147.856 199.252 147.729 199.318 147.632C199.808 146.951 200.167 146.374 200.352 145.841C200.592 145.326 200.683 144.859 200.695 144.447C200.785 143.654 200.547 143.063 200.408 142.998C200.279 142.937 199.67 143.145 199.099 143.859C198.849 144.225 198.617 144.718 198.476 145.331C198.392 145.954 198.377 146.697 198.629 147.524C198.668 147.64 198.637 147.766 198.548 147.85C197.896 148.472 197.344 149.221 198.811 148.785C200.132 149.429 199.78 148.699 199.311 147.958Z" fill="black"/>
<path d="M199.503 154.622C199.407 154.547 199.365 154.427 199.394 154.314C199.643 153.508 199.743 152.847 199.75 152.28C199.788 151.71 199.705 151.236 199.568 150.843C199.349 150.062 198.915 149.601 198.759 149.592C198.618 149.583 198.121 149.997 197.863 150.855C197.761 151.281 197.72 151.817 197.809 152.434C197.928 153.046 198.209 153.742 198.708 154.44C198.785 154.537 198.802 154.666 198.748 154.774C198.356 155.576 198.104 156.467 199.326 155.565C200.794 155.724 200.206 155.16 199.503 154.622Z" fill="black"/>
<path d="M202.183 160.705C202.066 160.674 201.981 160.578 201.964 160.462C201.885 160.045 201.816 159.683 201.754 159.356C201.68 159.023 201.584 158.733 201.471 158.478C201.283 157.946 201.045 157.535 200.77 157.223C200.274 156.582 199.711 156.295 199.558 156.341C199.426 156.379 199.099 156.941 199.184 157.836C199.252 158.272 199.404 158.799 199.736 159.34C199.92 159.601 200.144 159.868 200.41 160.129C200.666 160.396 200.994 160.64 201.388 160.848C201.497 160.909 201.563 161.022 201.557 161.145C201.493 162.065 201.73 162.927 202.415 161.634C203.852 161.148 203.007 160.944 202.183 160.705Z" fill="black"/>
<path d="M207.269 165.038C207.147 165.07 207.027 165.02 206.963 164.917C206.493 164.208 206.034 163.745 205.633 163.338C205.426 163.146 205.217 162.993 205.011 162.867C204.821 162.723 204.631 162.61 204.447 162.521C203.695 162.182 203.072 162.145 202.959 162.245C202.851 162.339 202.786 162.993 203.29 163.746C203.411 163.936 203.563 164.136 203.749 164.337C203.952 164.517 204.192 164.695 204.469 164.862C205.003 165.22 205.759 165.434 206.626 165.514C206.746 165.528 206.857 165.602 206.912 165.706C207.308 166.498 207.877 167.243 207.913 165.751C208.957 164.722 208.145 164.832 207.269 165.038Z" fill="black"/>
<path d="M213.815 166.749C213.717 166.82 213.586 166.826 213.483 166.77C212.748 166.347 212.132 166.049 211.577 165.907C211.034 165.714 210.552 165.662 210.131 165.682C209.319 165.647 208.73 165.928 208.674 166.067C208.621 166.198 208.878 166.77 209.648 167.281C210.042 167.496 210.564 167.685 211.202 167.774C211.845 167.811 212.608 167.761 213.429 167.449C213.545 167.403 213.677 167.421 213.77 167.501C214.459 168.083 215.273 168.557 214.7 167.166C215.241 165.825 214.53 166.229 213.815 166.749Z" fill="black"/>
<path d="M218.636 163.551C218.565 163.65 218.441 163.698 218.322 163.679C217.467 163.489 216.794 163.438 216.205 163.403C215.622 163.41 215.134 163.457 214.723 163.562C213.907 163.804 213.4 164.136 213.381 164.307C213.373 164.377 213.47 164.537 213.683 164.721C213.895 164.913 214.226 165.117 214.683 165.229C215.137 165.357 215.715 165.433 216.379 165.298C217.042 165.208 217.785 164.876 218.496 164.339C218.595 164.257 218.729 164.231 218.848 164.275C219.737 164.624 220.692 164.685 219.634 163.636C219.636 162.154 219.156 162.857 218.636 163.551Z" fill="black"/>
<path d="M224.435 159.932C224.43 160.052 224.345 160.151 224.231 160.195C222.639 160.831 221.738 161.38 221.166 162.005C220.589 162.586 220.368 163.194 220.423 163.319C220.486 163.46 221.099 163.682 222.033 163.44C222.495 163.321 223.007 163.037 223.517 162.605C223.757 162.369 223.993 162.093 224.215 161.778C224.435 161.463 224.596 161.064 224.747 160.654C224.788 160.536 224.894 160.45 225.019 160.423C225.911 160.204 226.804 159.795 225.304 159.456C224.51 158.232 224.435 159.036 224.435 159.932Z" fill="black"/>
<path d="M227.479 153.829C227.534 153.938 227.524 154.069 227.445 154.162C226.855 154.811 226.508 155.388 226.21 155.891C225.956 156.41 225.779 156.857 225.699 157.266C225.554 158.084 225.644 158.678 225.789 158.771C225.89 158.84 226.59 158.735 227.211 158.038C227.86 157.375 228.431 156.07 228.123 154.326C228.099 154.204 228.135 154.076 228.231 153.996C228.928 153.403 229.535 152.665 228.04 153.014C226.77 152.264 227.068 153.033 227.479 153.829Z" fill="black"/>
<path d="M227.563 147.013C227.659 147.088 227.715 147.209 227.674 147.327C227.549 147.743 227.466 148.115 227.418 148.455C227.363 148.795 227.302 149.11 227.295 149.397C227.293 149.97 227.3 150.456 227.418 150.862C227.631 151.67 227.99 152.17 228.158 152.189C228.285 152.206 228.853 151.816 229.123 150.936C229.401 150.079 229.419 148.654 228.358 147.194C228.293 147.091 228.262 146.961 228.314 146.847C228.684 146.013 228.881 145.074 227.705 146.044C226.226 145.932 226.844 146.474 227.563 147.013Z" fill="black"/>
<path d="M224.275 141.095C224.395 141.11 224.496 141.194 224.534 141.308C225.032 142.92 225.578 143.807 226.139 144.435C226.725 145.027 227.271 145.312 227.428 145.256C227.551 145.213 227.88 144.609 227.669 143.698C227.516 142.794 226.736 141.526 225.04 140.839C224.921 140.792 224.835 140.687 224.819 140.562C224.692 139.641 224.282 138.791 223.858 140.21C222.536 140.926 223.396 140.998 224.275 141.095Z" fill="black"/>
<path d="M218.221 137.851C218.334 137.795 218.468 137.811 218.558 137.897C219.874 138.999 220.816 139.505 221.657 139.689C222.458 139.901 223.099 139.81 223.197 139.684C223.28 139.579 223.188 138.932 222.523 138.253C221.86 137.617 220.548 136.934 218.738 137.238C218.614 137.25 218.484 137.211 218.402 137.119C217.801 136.436 217.041 135.837 217.394 137.301C216.623 138.539 217.404 138.25 218.221 137.851Z" fill="black"/>
<path d="M211.297 137.927C211.367 137.827 211.491 137.778 211.61 137.797C212.466 137.987 213.138 138.042 213.726 138.075C214.307 138.064 214.795 138.032 215.205 137.919C216.02 137.693 216.531 137.349 216.551 137.182C216.568 137.061 216.167 136.498 215.253 136.252C214.367 135.977 212.877 136.032 211.435 137.137C211.337 137.22 211.202 137.246 211.083 137.203C210.194 136.857 209.238 136.795 210.298 137.842C210.299 139.324 210.779 138.624 211.297 137.927Z" fill="black"/>
<path d="M205.507 141.56C205.512 141.441 205.596 141.341 205.711 141.297C207.302 140.658 208.2 140.104 208.771 139.479C209.063 139.192 209.257 138.892 209.375 138.645C209.497 138.408 209.544 138.234 209.511 138.164C209.447 138.023 208.833 137.798 207.9 138.046C207.437 138.165 206.928 138.453 206.418 138.885C206.18 139.122 205.944 139.398 205.723 139.713C205.504 140.03 205.344 140.429 205.194 140.839C205.154 140.957 205.047 141.044 204.922 141.07C204.031 141.292 203.139 141.701 204.64 142.038C205.435 143.261 205.509 142.456 205.507 141.56Z" fill="black"/>
<path d="M202.468 147.667C202.413 147.558 202.423 147.426 202.502 147.334C203.091 146.685 203.439 146.107 203.736 145.604C203.991 145.084 204.168 144.637 204.247 144.228C204.391 143.41 204.301 142.816 204.156 142.723C204.054 142.654 203.355 142.76 202.734 143.458C202.086 144.121 201.515 145.426 201.824 147.17C201.848 147.292 201.812 147.42 201.716 147.5C201.019 148.093 200.412 148.831 201.907 148.481C203.177 149.232 202.88 148.462 202.468 147.667Z" fill="black"/>
<path d="M202.382 154.483C202.286 154.408 202.23 154.287 202.272 154.169C202.397 153.753 202.48 153.381 202.528 153.041C202.584 152.701 202.645 152.386 202.652 152.099C202.654 151.525 202.647 151.039 202.529 150.634C202.316 149.826 201.957 149.326 201.789 149.306C201.662 149.289 201.094 149.679 200.825 150.559C200.546 151.417 200.528 152.841 201.587 154.302C201.651 154.404 201.683 154.535 201.63 154.648C201.26 155.482 201.061 156.42 202.238 155.453C203.718 155.566 203.101 155.024 202.382 154.483Z" fill="black"/>
<path d="M205.656 160.41C205.536 160.395 205.436 160.31 205.399 160.196C204.904 158.583 204.362 157.694 203.802 157.064C203.217 156.47 202.671 156.185 202.515 156.24C202.391 156.283 202.062 156.887 202.27 157.797C202.421 158.702 203.196 159.972 204.891 160.664C205.01 160.711 205.095 160.817 205.11 160.942C205.238 161.861 205.643 162.715 206.072 161.295C207.393 160.584 206.537 160.507 205.656 160.41Z" fill="black"/>
<path d="M211.707 163.646C211.596 163.697 211.46 163.691 211.368 163.608C210.054 162.497 209.107 162.011 208.271 161.819C207.469 161.61 206.83 161.695 206.732 161.822C206.65 161.925 206.736 162.579 207.405 163.254C208.063 163.9 209.387 164.564 211.192 164.268C211.316 164.252 211.449 164.283 211.53 164.379C212.135 165.064 212.9 165.663 212.536 164.197C213.296 162.958 212.521 163.246 211.707 163.646Z" fill="black"/>
<path d="M172.111 136.528C172.453 134.734 170.676 132.805 168.706 133.678C168.643 133.696 168.562 133.771 168.64 133.83C170.15 134.728 170.817 136.813 170.15 138.557C170.138 138.605 170.154 138.627 170.18 138.638C170.191 138.664 170.211 138.682 170.252 138.669C171.832 137.934 173.723 138.667 174.538 140.333C174.596 140.421 174.656 140.327 174.676 140.26C175.46 138.09 173.735 136.151 172.111 136.528Z" fill="black"/>
<path d="M179.766 126.333C180.109 124.539 178.331 122.611 176.361 123.484C176.298 123.501 176.218 123.576 176.295 123.635C177.805 124.534 178.472 126.619 177.805 128.362C177.793 128.411 177.81 128.433 177.836 128.444C177.846 128.47 177.867 128.488 177.907 128.475C179.488 127.739 181.379 128.472 182.193 130.139C182.252 130.227 182.312 130.133 182.331 130.066C183.116 127.896 181.391 125.956 179.766 126.333Z" fill="black"/>
<path d="M194.753 124.066C195.095 122.272 193.318 120.344 191.348 121.217C191.285 121.234 191.204 121.309 191.282 121.368C192.792 122.267 193.459 124.352 192.792 126.095C192.78 126.143 192.796 126.166 192.822 126.176C192.833 126.203 192.853 126.221 192.894 126.208C194.474 125.472 196.365 126.205 197.18 127.872C197.238 127.959 197.298 127.866 197.318 127.799C198.102 125.629 196.377 123.689 194.753 124.066Z" fill="black"/>
<path d="M165.037 144.606C165.38 142.812 163.602 140.884 161.632 141.757C161.569 141.775 161.489 141.849 161.566 141.908C163.076 142.807 163.743 144.892 163.076 146.635C163.064 146.683 163.081 146.706 163.107 146.717C163.117 146.743 163.138 146.761 163.178 146.748C164.759 146.012 166.65 146.745 167.464 148.412C167.523 148.499 167.583 148.406 167.602 148.339C168.387 146.169 166.662 144.229 165.037 144.606Z" fill="black"/>
<path d="M157.503 157.855C157.845 156.061 156.068 154.132 154.098 155.005C154.035 155.023 153.954 155.098 154.032 155.157C155.542 156.055 156.209 158.14 155.542 159.884C155.53 159.932 155.546 159.955 155.572 159.965C155.583 159.992 155.603 160.009 155.644 159.997C157.224 159.261 159.115 159.994 159.93 161.66C159.988 161.748 160.048 161.655 160.068 161.588C160.852 159.418 159.127 157.478 157.503 157.855Z" fill="black"/>
<path d="M181.765 174.214C182.108 172.42 180.33 170.492 178.36 171.365C178.297 171.383 178.217 171.457 178.294 171.516C179.804 172.415 180.471 174.5 179.804 176.243C179.792 176.291 179.809 176.314 179.835 176.324C179.845 176.351 179.866 176.368 179.906 176.356C181.487 175.62 183.378 176.353 184.192 178.02C184.251 178.107 184.311 178.014 184.33 177.947C185.115 175.777 183.39 173.837 181.765 174.214Z" fill="black"/>
<path d="M178.374 136.528C178.716 134.734 176.939 132.805 174.969 133.678C174.906 133.696 174.826 133.771 174.903 133.83C176.413 134.728 177.08 136.813 176.413 138.557C176.401 138.605 176.418 138.627 176.443 138.638C176.454 138.664 176.474 138.682 176.515 138.669C178.095 137.934 179.986 138.667 180.801 140.333C180.859 140.421 180.92 140.327 180.939 140.26C181.723 138.09 179.998 136.151 178.374 136.528Z" fill="black"/>
<path d="M184.637 136.528C184.98 134.734 183.202 132.805 181.232 133.678C181.169 133.696 181.089 133.771 181.166 133.83C182.676 134.728 183.343 136.813 182.675 138.557C182.664 138.605 182.681 138.627 182.707 138.638C182.717 138.664 182.738 138.682 182.777 138.669C184.359 137.934 186.25 138.667 187.064 140.333C187.123 140.421 187.183 140.327 187.202 140.26C187.987 138.09 186.261 136.151 184.637 136.528Z" fill="black"/>
<path d="M190.9 136.528C191.243 134.734 189.466 132.805 187.495 133.678C187.432 133.696 187.352 133.771 187.429 133.83C188.939 134.728 189.606 136.813 188.939 138.557C188.927 138.605 188.944 138.627 188.97 138.638C188.98 138.664 189.001 138.682 189.041 138.669C190.622 137.934 192.513 138.667 193.327 140.333C193.386 140.421 193.446 140.327 193.465 140.26C194.25 138.09 192.525 136.151 190.9 136.528Z" fill="black"/>
<path d="M171.986 164.665C172.342 162.872 170.495 160.943 168.447 161.816C168.381 161.834 168.298 161.908 168.378 161.967C169.947 162.866 170.641 164.951 169.947 166.694C169.935 166.743 169.953 166.765 169.98 166.776C169.991 166.802 170.012 166.82 170.053 166.807C171.697 166.071 173.661 166.804 174.508 168.471C174.569 168.559 174.631 168.465 174.651 168.398C175.467 166.228 173.674 164.288 171.986 164.665Z" fill="black"/>
<path d="M178.495 164.665C178.851 162.872 177.004 160.943 174.956 161.816C174.89 161.834 174.807 161.908 174.887 161.967C176.457 162.866 177.15 164.951 176.457 166.694C176.444 166.743 176.462 166.765 176.489 166.776C176.5 166.802 176.521 166.82 176.562 166.807C178.205 166.071 180.17 166.804 181.017 168.471C181.078 168.559 181.14 168.465 181.16 168.398C181.976 166.228 180.183 164.288 178.495 164.665Z" fill="black"/>
<path d="M185.004 164.665C185.36 162.872 183.513 160.943 181.465 161.816C181.4 161.834 181.317 161.908 181.396 161.967C182.966 162.866 183.659 164.951 182.966 166.694C182.953 166.743 182.971 166.765 182.998 166.776C183.009 166.802 183.03 166.82 183.071 166.807C184.714 166.071 186.68 166.804 187.526 168.471C187.587 168.559 187.649 168.465 187.669 168.398C188.485 166.228 186.693 164.288 185.004 164.665Z" fill="black"/>
<path d="M191.513 164.665C191.869 162.872 190.022 160.943 187.974 161.816C187.909 161.834 187.825 161.908 187.905 161.967C189.475 162.866 190.168 164.951 189.475 166.694C189.463 166.743 189.48 166.765 189.507 166.776C189.518 166.802 189.54 166.82 189.581 166.807C191.224 166.071 193.189 166.804 194.035 168.471C194.096 168.559 194.159 168.465 194.179 168.398C194.994 166.228 193.201 164.288 191.513 164.665Z" fill="black"/>
<path d="M174.154 157.882C174.595 156.199 172.806 154.447 170.686 155.316C170.619 155.335 170.531 155.406 170.61 155.46C172.164 156.256 172.774 158.184 171.992 159.83C171.977 159.875 171.994 159.896 172.021 159.905C172.031 159.929 172.052 159.945 172.094 159.932C173.796 159.202 175.76 159.834 176.545 161.367C176.603 161.447 176.67 161.358 176.694 161.295C177.619 159.248 175.885 157.486 174.154 157.882Z" fill="black"/>
<path d="M177.968 154.31C178.41 152.626 176.62 150.875 174.501 151.744C174.434 151.762 174.346 151.834 174.424 151.888C175.978 152.684 176.589 154.611 175.807 156.257C175.792 156.302 175.809 156.323 175.836 156.332C175.845 156.357 175.866 156.373 175.909 156.36C177.611 155.63 179.574 156.262 180.359 157.794C180.417 157.875 180.485 157.786 180.508 157.723C181.434 155.676 179.7 153.913 177.968 154.31Z" fill="black"/>
<path d="M181.782 150.737C182.224 149.054 180.435 147.303 178.315 148.172C178.248 148.19 178.16 148.262 178.239 148.315C179.793 149.112 180.403 151.039 179.621 152.685C179.607 152.73 179.623 152.751 179.65 152.76C179.66 152.784 179.681 152.8 179.723 152.787C181.425 152.057 183.388 152.69 184.173 154.222C184.231 154.302 184.299 154.214 184.322 154.15C185.248 152.104 183.515 150.341 181.782 150.737Z" fill="black"/>
<path d="M185.597 147.165C186.038 145.481 184.249 143.731 182.129 144.599C182.063 144.618 181.974 144.69 182.053 144.743C183.607 145.54 184.217 147.467 183.435 149.113C183.421 149.158 183.437 149.179 183.464 149.188C183.474 149.212 183.495 149.228 183.537 149.215C185.239 148.485 187.203 149.117 187.988 150.65C188.045 150.73 188.113 150.641 188.137 150.578C189.063 148.531 187.328 146.769 185.597 147.165Z" fill="black"/>
<path d="M189.411 143.593C189.853 141.909 188.064 140.159 185.944 141.027C185.877 141.045 185.789 141.117 185.868 141.171C187.421 141.968 188.032 143.894 187.25 145.54C187.235 145.585 187.252 145.606 187.279 145.615C187.289 145.639 187.31 145.656 187.352 145.643C189.054 144.913 191.017 145.545 191.802 147.077C191.86 147.158 191.928 147.069 191.951 147.006C192.877 144.959 191.143 143.196 189.411 143.593Z" fill="black"/>
<path d="M157.552 173.786H170.148C175.873 173.786 179.786 177.563 179.786 182.32C179.786 185.397 178.116 188.008 175.682 189.221V189.5C178.545 190.946 180.407 194.07 180.407 197.381C180.407 202.51 175.969 206.427 170.053 206.427H157.552V173.786ZM169.766 187.682C172.772 187.682 174.967 185.63 174.967 182.785C174.967 179.941 172.772 177.936 169.766 177.936H162.275V187.682H169.766ZM170.195 202.276C173.106 202.276 175.587 199.898 175.587 197.054C175.587 194.21 173.106 191.785 170.195 191.785H162.275V202.276H170.195Z" fill="black"/>
<path d="M187.417 173.786H200.014C205.739 173.786 209.891 177.843 209.891 183.252C209.891 187.589 207.267 190.852 202.972 192.111L211.084 206.427H205.788L198.2 192.951H192.141V206.427H187.417V173.786ZM199.537 188.801C202.638 188.801 205.071 186.376 205.071 183.345C205.071 180.361 202.638 177.936 199.537 177.936H192.141V188.801H199.537Z" fill="black"/>
<path d="M217.808 173.786H222.627L239.422 198.406H239.708V173.786H244.289V206.427H239.47L222.627 181.806H222.341V206.427H217.808V173.786Z" fill="black"/>
<path d="M251.871 190.106C251.871 180.314 259.028 173.273 268.905 173.273C278.781 173.273 285.939 180.314 285.939 190.106C285.939 199.898 278.781 206.939 268.905 206.939C259.028 206.939 251.871 199.898 251.871 190.106ZM268.905 202.696C276.062 202.696 281.12 197.52 281.12 190.106C281.12 182.692 276.062 177.516 268.905 177.516C261.7 177.516 256.691 182.692 256.691 190.106C256.691 197.52 261.7 202.696 268.905 202.696Z" fill="black"/>
<path d="M221.222 148.357C221.326 148.429 221.386 148.554 221.353 148.679C220.988 150.385 220.86 151.44 220.95 152.295C220.99 152.713 221.071 153.063 221.151 153.322C221.243 153.584 221.344 153.75 221.412 153.776C221.483 153.802 221.669 153.744 221.898 153.56C222.138 153.381 222.413 153.07 222.626 152.605C222.84 152.144 222.975 151.528 222.928 150.812C222.852 150.103 222.628 149.272 222.03 148.513C221.957 148.405 221.92 148.266 221.961 148.141C222.124 147.684 222.186 147.182 222.086 146.948C221.988 146.706 221.761 146.774 221.247 147.338C220.495 147.352 220.312 147.522 220.393 147.692C220.481 147.866 220.853 148.087 221.222 148.357Z" fill="black"/>
<path d="M209.742 146.308C209.731 146.18 209.812 146.07 209.927 146.017C210.734 145.64 211.348 145.386 211.872 145.165C212.388 144.937 212.803 144.719 213.158 144.498C213.511 144.279 213.796 144.058 213.999 143.873C214.199 143.675 214.311 143.522 214.304 143.448C214.298 143.377 214.164 143.23 213.895 143.112C213.625 142.981 213.216 142.871 212.683 142.897C212.156 142.923 211.502 143.096 210.873 143.532C210.239 143.95 209.659 144.672 209.385 145.588C209.345 145.716 209.238 145.817 209.118 145.866C208.89 145.949 208.657 146.051 208.464 146.161C208.284 146.278 208.142 146.402 208.077 146.511C207.944 146.738 208.139 146.869 208.908 146.914C209.388 147.484 209.638 147.518 209.722 147.352C209.766 147.264 209.773 147.117 209.763 146.93C209.765 146.752 209.755 146.536 209.742 146.308Z" fill="black"/>
<path d="M213.8 157.606C213.69 157.662 213.547 157.666 213.449 157.582C212.73 157.061 212.229 156.613 211.781 156.274C211.328 155.943 210.957 155.665 210.584 155.471C209.88 155.057 209.255 154.863 209.111 154.946C209.002 155.006 208.817 155.689 209.341 156.613C209.618 157.049 210.062 157.557 210.756 157.893C211.434 158.235 212.34 158.437 213.302 158.249C213.435 158.234 213.58 158.256 213.677 158.349C214.03 158.694 214.468 158.959 214.725 158.975C214.989 158.994 215.025 158.765 214.729 158.068C215.041 157.4 214.964 157.165 214.771 157.162C214.571 157.161 214.205 157.4 213.8 157.606Z" fill="black"/>
<path d="M220.897 169.168C220.826 169.275 220.694 169.309 220.57 169.288C218.817 168.989 217.658 169.11 216.825 169.45C215.999 169.718 215.543 170.194 215.546 170.344C215.55 170.485 216.038 170.919 216.979 171.111C217.899 171.236 219.327 171.094 220.757 169.945C220.857 169.865 220.998 169.854 221.117 169.89C221.997 170.175 222.959 170.311 221.912 169.221C221.974 167.754 221.417 168.408 220.897 169.168Z" fill="black"/>
<path d="M233.812 153.71C233.876 153.816 233.87 153.95 233.803 154.053C233.352 154.793 232.977 155.415 232.788 155.986C232.615 156.561 232.49 157.048 232.473 157.479C232.454 157.908 232.517 158.273 232.601 158.539C232.665 158.797 232.761 158.959 232.831 158.987C232.898 159.014 233.088 158.964 233.335 158.812C233.562 158.653 233.836 158.388 234.095 157.996C234.349 157.605 234.613 157.092 234.68 156.435C234.764 155.783 234.788 155.015 234.494 154.149C234.456 154.028 234.487 153.895 234.577 153.804C234.903 153.475 235.215 153.109 235.242 152.886C235.261 152.662 235.026 152.597 234.317 152.828C233.633 152.487 233.393 152.528 233.393 152.734C233.382 152.94 233.578 153.321 233.812 153.71Z" fill="black"/>
<path d="M226.307 134.911C226.431 134.908 226.547 134.978 226.606 135.087C226.811 135.478 227.042 135.783 227.232 136.094C227.423 136.404 227.619 136.665 227.82 136.888C228.239 137.315 228.594 137.673 228.967 137.902C229.718 138.351 230.341 138.471 230.466 138.381C230.581 138.299 230.702 137.631 230.253 136.807C230.034 136.393 229.721 135.901 229.165 135.512C228.897 135.309 228.589 135.112 228.242 134.933C227.897 134.752 227.467 134.644 227.024 134.54C226.897 134.512 226.793 134.42 226.755 134.298C226.685 134.076 226.606 133.853 226.517 133.67C226.42 133.5 226.319 133.366 226.222 133.304C226.024 133.179 225.859 133.353 225.739 134.079C225.116 134.51 225.044 134.738 225.225 134.835C225.317 134.884 225.476 134.902 225.672 134.903C225.859 134.916 226.079 134.918 226.307 134.911Z" fill="black"/>
<path d="M212.568 131.627C212.659 131.542 212.792 131.5 212.911 131.551C213.755 131.891 214.458 132.016 215.071 132.084C215.682 132.172 216.202 132.134 216.637 132.037C217.5 131.87 218.027 131.52 218.051 131.36C218.071 131.232 217.669 130.68 216.769 130.375C216.321 130.238 215.752 130.15 215.084 130.181C214.417 130.232 213.65 130.474 212.848 130.872C212.735 130.925 212.597 130.942 212.486 130.878C211.674 130.434 210.757 130.12 211.578 131.385C211.237 132.811 211.913 132.275 212.568 131.627Z" fill="black"/>
<path d="M196.872 144.326C196.829 144.213 196.86 144.082 196.946 143.992C197.253 143.672 197.501 143.367 197.709 143.075C197.946 142.796 198.135 142.526 198.286 142.266C198.436 142.006 198.548 141.754 198.632 141.514C198.739 141.285 198.814 141.065 198.866 140.857C199.064 140.026 198.912 139.385 198.797 139.311C198.664 139.225 198.029 139.377 197.369 140.058C197.203 140.227 197.035 140.427 196.875 140.66C196.738 140.905 196.612 141.184 196.505 141.497C196.397 141.809 196.309 142.156 196.251 142.533C196.223 142.92 196.233 143.34 196.281 143.785C196.295 143.91 196.24 144.036 196.134 144.11C195.339 144.653 194.777 145.376 196.249 145.12C197.5 145.994 197.168 145.15 196.872 144.326Z" fill="black"/>
<path d="M200.932 164.263C200.81 164.241 200.712 164.149 200.677 164.031C200.559 163.606 200.403 163.258 200.279 162.918C200.157 162.576 200.02 162.28 199.871 162.021C199.553 161.515 199.269 161.099 198.957 160.797C198.318 160.204 197.716 159.974 197.582 160.034C197.446 160.097 197.208 160.72 197.472 161.617C197.595 162.067 197.807 162.603 198.266 163.097C198.485 163.35 198.743 163.604 199.044 163.849C199.348 164.092 199.741 164.289 200.152 164.481C200.27 164.533 200.352 164.645 200.363 164.772C200.392 165.245 200.505 165.696 200.675 165.852C200.841 166.014 201.039 165.877 201.311 165.192C202.013 164.897 202.131 164.688 201.975 164.557C201.812 164.429 201.368 164.356 200.932 164.263Z" fill="black"/>
<path d="M231.46 162.549C231.463 162.67 231.393 162.783 231.284 162.839C230.532 163.257 229.888 163.6 229.446 164.001C229.219 164.196 229.038 164.402 228.874 164.595C228.7 164.776 228.559 164.959 228.444 165.138C227.987 165.851 227.938 166.505 228.034 166.622C228.124 166.732 228.767 166.78 229.603 166.361C229.812 166.256 230.032 166.123 230.255 165.957C230.468 165.78 230.668 165.556 230.869 165.301C231.257 164.78 231.667 164.144 231.835 163.257C231.862 163.135 231.954 163.035 232.076 163.001C232.972 162.751 233.84 162.345 232.332 162.039C231.515 160.829 231.436 161.661 231.46 162.549Z" fill="black"/>
<path d="M230.969 135.089C231.09 135.118 231.171 135.223 231.192 135.343C231.316 136.213 231.583 136.838 231.806 137.39C232.032 137.938 232.324 138.345 232.628 138.654C233.191 139.288 233.769 139.549 233.92 139.49C234.046 139.442 234.331 138.836 234.165 137.931C234.061 137.491 233.853 136.973 233.49 136.435C233.133 135.895 232.507 135.399 231.756 134.942C231.647 134.879 231.585 134.759 231.585 134.635C231.556 133.743 231.361 132.832 230.673 134.156C229.244 134.617 230.063 134.889 230.969 135.089Z" fill="black"/>
<path d="M202.608 131.855C202.65 131.743 202.758 131.665 202.882 131.652C203.762 131.562 204.428 131.363 205.013 131.193C205.586 131.006 206.008 130.715 206.355 130.465C207.051 129.981 207.34 129.398 207.292 129.256C207.248 129.122 206.661 128.841 205.717 128.919C205.251 128.964 204.723 129.166 204.152 129.487C203.571 129.788 203.013 130.344 202.511 131.074C202.44 131.177 202.317 131.236 202.188 131.224C201.239 131.135 200.338 131.322 201.624 132.061C202.012 133.51 202.305 132.67 202.608 131.855Z" fill="black"/>
<path d="M194.233 156.284C194.136 156.207 194.094 156.082 194.121 155.965C194.284 155.135 194.431 154.427 194.4 153.833C194.374 153.24 194.251 152.749 194.131 152.343C193.859 151.538 193.373 151.096 193.22 151.098C193.075 151.1 192.63 151.564 192.43 152.455C192.312 152.9 192.314 153.447 192.467 154.071C192.626 154.692 192.857 155.402 193.438 156.103C193.515 156.203 193.533 156.336 193.48 156.449C193.094 157.276 192.846 158.181 194.064 157.263C195.538 157.445 194.94 156.844 194.233 156.284Z" fill="black"/>
<path d="M213.74 172.992C213.639 173.063 213.504 173.069 213.395 173.012C212.616 172.635 211.956 172.342 211.367 172.197C210.778 172.054 210.26 172.057 209.833 172.054C208.974 172.088 208.401 172.42 208.359 172.564C208.32 172.7 208.649 173.246 209.477 173.684C209.886 173.923 210.433 174.049 211.089 174.08C211.745 174.115 212.512 174.052 213.354 173.693C213.473 173.646 213.609 173.665 213.706 173.744C214.423 174.328 215.251 174.802 214.663 173.41C215.227 172.07 214.476 172.474 213.74 172.992Z" fill="black"/>
</g>
</svg>
