<svg width="464" height="348" viewBox="0 0 464 348" fill="none" xmlns="http://www.w3.org/2000/svg">
<rect width="464" height="348" fill="#F9F0E4"/>
<g opacity="0.25">
<path d="M259.021 169.811L258.927 169.846C258.928 169.829 258.929 169.816 258.931 169.798C258.923 169.579 258.811 169.364 258.672 169.382C258.534 169.4 258.439 169.64 258.464 169.854C258.475 169.955 258.509 170.029 258.553 170.083C258.285 169.978 257.919 169.979 257.514 170.032C257.137 170.116 256.727 170.264 256.416 170.469C256.11 170.685 255.924 170.901 255.83 171.107C255.789 171.189 255.714 171.258 255.627 171.285C255.389 171.354 255.155 171.508 254.983 171.742C254.739 172.056 254.744 172.485 254.926 172.788C255.284 173.363 256.034 173.397 256.502 173.022C256.618 172.923 256.705 172.802 256.762 172.667C256.795 172.585 256.87 172.535 256.957 172.534C257.167 172.524 257.391 172.448 257.639 172.27C257.887 172.107 258.136 171.905 258.346 171.66C258.566 171.454 258.75 171.19 258.866 170.96C258.868 171.025 258.892 171.103 258.944 171.191C259.054 171.381 259.227 171.544 259.306 171.498C259.387 171.453 259.363 171.211 259.269 171.018C259.26 171.003 259.254 170.993 259.246 170.98C259.272 170.975 259.298 170.972 259.324 170.964C259.662 170.871 259.92 170.59 259.888 170.253C259.86 169.935 259.459 169.693 259.021 169.811Z" fill="black"/>
<path d="M251.17 178.176L251.117 178.26C251.108 178.246 251.101 178.235 251.091 178.22C250.95 178.05 250.729 177.945 250.629 178.041C250.529 178.138 250.601 178.386 250.753 178.541C250.824 178.614 250.897 178.654 250.964 178.671C250.687 178.746 250.395 178.964 250.106 179.247C249.857 179.537 249.622 179.898 249.5 180.246C249.388 180.6 249.372 180.883 249.424 181.102C249.443 181.192 249.425 181.291 249.372 181.364C249.225 181.561 249.133 181.821 249.14 182.111C249.139 182.506 249.406 182.845 249.738 182.978C250.377 183.224 250.995 182.806 251.138 182.23C251.17 182.082 251.164 181.934 251.127 181.793C251.103 181.708 251.132 181.624 251.2 181.571C251.361 181.439 251.494 181.244 251.582 180.956C251.68 180.678 251.754 180.371 251.77 180.05C251.818 179.756 251.803 179.436 251.754 179.185C251.795 179.235 251.863 179.283 251.958 179.323C252.163 179.408 252.4 179.435 252.436 179.352C252.472 179.268 252.304 179.09 252.111 178.991C252.095 178.985 252.084 178.98 252.069 178.975C252.087 178.956 252.106 178.938 252.122 178.916C252.334 178.641 252.367 178.264 252.133 178.014C251.915 177.777 251.447 177.823 251.17 178.176Z" fill="black"/>
<path d="M247.711 178.586L247.641 178.657C247.635 178.642 247.631 178.63 247.624 178.613C247.522 178.419 247.326 178.271 247.209 178.345C247.091 178.42 247.111 178.677 247.227 178.86C247.28 178.946 247.344 178.999 247.406 179.029C247.119 179.047 246.788 179.202 246.446 179.421C246.142 179.655 245.837 179.962 245.645 180.277C245.463 180.601 245.389 180.875 245.394 181.1C245.393 181.192 245.355 181.285 245.289 181.347C245.103 181.509 244.959 181.747 244.905 182.031C244.822 182.417 245.013 182.803 245.311 183C245.885 183.369 246.577 183.084 246.837 182.548C246.899 182.409 246.924 182.263 246.917 182.118C246.911 182.03 246.957 181.953 247.035 181.915C247.22 181.818 247.39 181.655 247.536 181.39C247.689 181.138 247.826 180.851 247.908 180.541C248.017 180.263 248.069 179.946 248.072 179.69C248.103 179.748 248.158 179.808 248.243 179.866C248.426 179.99 248.653 180.065 248.705 179.991C248.758 179.916 248.631 179.708 248.462 179.572C248.448 179.563 248.438 179.556 248.424 179.548C248.446 179.533 248.468 179.519 248.488 179.501C248.753 179.274 248.864 178.912 248.687 178.621C248.523 178.345 248.055 178.296 247.711 178.586Z" fill="black"/>
<path d="M265.609 170.632L265.522 170.631C265.528 170.616 265.533 170.604 265.54 170.588C265.606 170.381 265.587 170.141 265.485 170.109C265.378 170.082 265.245 170.259 265.169 170.464C265.136 170.558 265.127 170.64 265.137 170.705C264.82 170.308 264.197 169.873 263.542 169.681C263.221 169.585 262.927 169.577 262.716 169.634C262.629 169.656 262.522 169.642 262.447 169.585C262.247 169.431 261.973 169.334 261.656 169.355C261.235 169.365 260.867 169.657 260.774 169.987C260.614 170.637 261.039 171.204 261.582 171.315C261.725 171.339 261.874 171.344 262.013 171.307C262.096 171.289 262.179 171.312 262.239 171.378C262.386 171.537 262.583 171.657 262.917 171.756C263.552 171.945 264.507 171.943 264.998 171.625C264.966 171.684 264.948 171.764 264.955 171.866C264.968 172.081 265.109 172.315 265.229 172.301C265.354 172.292 265.427 172.06 265.404 171.845C265.4 171.828 265.397 171.816 265.393 171.801L265.485 171.817C265.904 171.863 266.26 171.612 266.274 171.281C266.288 170.955 265.991 170.674 265.609 170.632Z" fill="black"/>
<path d="M271.481 169.464L271.413 169.516C271.409 169.5 271.406 169.487 271.401 169.47C271.324 169.265 271.163 169.09 271.064 169.12C270.965 169.149 270.96 169.385 271.028 169.591C271.059 169.687 271.103 169.756 271.153 169.802C270.633 169.681 269.882 169.742 269.325 169.895C269.045 169.99 268.84 170.082 268.701 170.235C268.644 170.297 268.56 170.319 268.48 170.29C268.269 170.215 268.046 170.229 267.807 170.306C267.489 170.427 267.225 170.716 267.146 171.062C266.99 171.711 267.546 172.293 268.291 172.215C268.474 172.189 268.641 172.127 268.782 172.04C268.865 171.991 268.969 171.98 269.062 172.005C269.285 172.065 269.587 172.09 269.955 171.97C270.698 171.764 271.437 171.144 271.611 170.615C271.623 170.681 271.658 170.755 271.726 170.832C271.871 170.995 272.109 171.097 272.21 171.017C272.31 170.937 272.222 170.705 272.07 170.55C272.057 170.539 272.047 170.532 272.035 170.522L272.118 170.478C272.484 170.255 272.606 169.844 272.407 169.574C272.213 169.311 271.801 169.269 271.481 169.464Z" fill="black"/>
<path d="M272.182 164.576L272.137 164.648C272.128 164.634 272.12 164.624 272.11 164.609C271.965 164.443 271.752 164.334 271.67 164.395C271.588 164.456 271.666 164.678 271.802 164.849C271.865 164.929 271.932 164.979 271.993 165.005C271.464 165.068 270.78 165.38 270.312 165.713C270.082 165.897 269.922 166.052 269.845 166.243C269.814 166.32 269.742 166.37 269.658 166.37C269.433 166.371 269.228 166.46 269.031 166.613C268.776 166.835 268.63 167.195 268.678 167.547C268.759 168.209 269.487 168.566 270.157 168.24C270.319 168.154 270.455 168.039 270.557 167.91C270.617 167.836 270.712 167.79 270.807 167.782C271.038 167.762 271.329 167.684 271.633 167.446C272.258 167.001 272.733 166.168 272.71 165.612C272.744 165.67 272.803 165.728 272.894 165.776C273.088 165.88 273.347 165.895 273.414 165.786C273.479 165.677 273.314 165.489 273.118 165.395C273.101 165.39 273.09 165.386 273.075 165.38L273.137 165.311C273.402 164.978 273.372 164.551 273.09 164.365C272.815 164.185 272.414 164.285 272.182 164.576Z" fill="black"/>
<path d="M275.972 165.246L275.928 165.318C275.918 165.306 275.91 165.296 275.899 165.282C275.745 165.129 275.519 165.031 275.441 165.101C275.363 165.17 275.458 165.389 275.608 165.549C275.678 165.623 275.748 165.668 275.811 165.689C275.289 165.795 274.613 166.181 274.183 166.618C273.949 166.845 273.824 167.063 273.772 167.268C273.751 167.35 273.689 167.418 273.606 167.443C273.382 167.508 273.182 167.653 273.032 167.864C272.833 168.159 272.802 168.551 272.956 168.871C273.242 169.478 274.035 169.596 274.56 169.134C274.686 169.018 274.781 168.881 274.842 168.738C274.877 168.653 274.955 168.591 275.046 168.57C275.265 168.519 275.498 168.385 275.75 168.14C276.26 167.627 276.644 166.79 276.576 166.237C276.615 166.292 276.679 166.345 276.773 166.386C276.975 166.473 277.232 166.471 277.287 166.358C277.342 166.246 277.17 166.074 276.964 165.992C276.947 165.988 276.934 165.984 276.919 165.981L276.98 165.91C277.207 165.554 277.154 165.133 276.863 164.97C276.572 164.808 276.173 164.931 275.972 165.246Z" fill="black"/>
<path d="M252.503 172.274L252.478 172.354C252.465 172.344 252.455 172.337 252.441 172.326C252.255 172.213 252.011 172.17 251.952 172.256C251.894 172.342 252.039 172.532 252.222 172.653C252.308 172.709 252.387 172.736 252.454 172.741C251.972 172.966 251.408 173.498 251.096 174.022C250.922 174.297 250.853 174.538 250.853 174.749C250.852 174.834 250.808 174.914 250.733 174.958C250.532 175.074 250.372 175.261 250.278 175.5C250.155 175.833 250.219 176.222 250.446 176.496C250.87 177.02 251.669 176.95 252.068 176.379C252.163 176.238 252.222 176.083 252.246 175.929C252.26 175.838 252.321 175.759 252.404 175.719C252.604 175.618 252.799 175.434 252.985 175.137C253.356 174.52 253.529 173.618 253.329 173.096C253.38 173.14 253.455 173.177 253.556 173.195C253.773 173.234 254.022 173.171 254.049 173.049C254.075 172.927 253.867 172.8 253.646 172.769C253.629 172.768 253.616 172.767 253.6 172.767L253.642 172.684C253.778 172.286 253.625 171.89 253.303 171.799C252.981 171.708 252.622 171.921 252.503 172.274Z" fill="black"/>
<path d="M277.881 159.542L277.885 159.627C277.869 159.622 277.857 159.617 277.84 159.611C277.626 159.556 277.384 159.584 277.356 159.685C277.324 159.784 277.518 159.926 277.729 159.988C277.828 160.017 277.911 160.02 277.977 160.006C277.585 160.36 277.209 161.041 277.064 161.621C276.985 161.917 276.994 162.154 277.044 162.348C277.066 162.428 277.046 162.514 276.986 162.572C276.833 162.729 276.705 162.925 276.68 163.178C276.64 163.517 276.775 163.876 277.061 164.107C277.57 164.536 278.364 164.318 278.621 163.643C278.689 163.479 278.714 163.309 278.696 163.148C278.687 163.053 278.725 162.959 278.796 162.895C278.973 162.743 279.109 162.498 279.203 162.143C279.381 161.439 279.267 160.532 278.92 160.092C278.982 160.12 279.064 160.133 279.166 160.121C279.386 160.096 279.607 159.965 279.596 159.841C279.583 159.718 279.342 159.656 279.125 159.689C279.108 159.694 279.096 159.697 279.081 159.702L279.092 159.61C279.117 159.193 278.847 158.858 278.508 158.86C278.177 158.863 277.903 159.168 277.881 159.542Z" fill="black"/>
<path d="M281.921 141.114L281.849 141.161C281.846 141.145 281.844 141.132 281.841 141.115C281.776 140.907 281.625 140.72 281.523 140.748C281.42 140.773 281.399 141.009 281.455 141.218C281.481 141.316 281.522 141.388 281.568 141.435C281.056 141.292 280.268 141.331 279.688 141.513C279.391 141.601 279.189 141.732 279.046 141.874C278.989 141.935 278.903 141.963 278.822 141.943C278.606 141.897 278.368 141.892 278.136 142.003C277.82 142.146 277.577 142.446 277.527 142.805C277.419 143.457 278.023 144.008 278.744 143.872C278.922 143.843 279.082 143.776 279.213 143.676C279.29 143.619 279.392 143.602 279.484 143.628C279.709 143.697 279.993 143.684 280.35 143.578C281.055 143.359 281.784 142.791 281.985 142.271C281.993 142.337 282.024 142.413 282.088 142.492C282.225 142.663 282.453 142.78 282.555 142.707C282.656 142.632 282.584 142.397 282.441 142.233C282.429 142.221 282.42 142.213 282.408 142.202L282.494 142.164C282.869 141.968 283.019 141.566 282.84 141.283C282.666 141.007 282.258 140.937 281.921 141.114Z" fill="black"/>
<path d="M277.316 153.192V153.288C277.301 153.282 277.289 153.277 277.272 153.27C277.06 153.211 276.815 153.248 276.784 153.379C276.763 153.508 276.971 153.666 277.188 153.711C277.289 153.733 277.372 153.726 277.436 153.703C277.046 154.123 276.893 155.068 277.031 155.745C277.094 156.087 277.215 156.322 277.359 156.472C277.419 156.534 277.444 156.623 277.42 156.705C277.354 156.927 277.36 157.135 277.451 157.378C277.58 157.7 277.891 157.95 278.244 158.013C278.912 158.136 279.477 157.573 279.381 156.863C279.353 156.688 279.292 156.517 279.2 156.392C279.146 156.317 279.134 156.22 279.165 156.134C279.243 155.921 279.257 155.67 279.198 155.35C279.075 154.729 278.741 154.074 278.383 153.697C278.447 153.717 278.531 153.72 278.631 153.701C278.847 153.657 279.053 153.543 279.03 153.448C279.015 153.354 278.777 153.302 278.558 153.331C278.541 153.334 278.529 153.337 278.514 153.341C278.519 153.314 278.526 153.289 278.528 153.261C278.544 152.906 278.331 152.575 278.004 152.515C277.672 152.455 277.338 152.756 277.316 153.192Z" fill="black"/>
<path d="M274.996 150.559L274.966 150.65C274.954 150.64 274.944 150.632 274.93 150.62C274.746 150.5 274.501 150.462 274.431 150.577C274.371 150.693 274.52 150.907 274.712 151.015C274.801 151.066 274.882 151.084 274.95 151.082C274.449 151.364 274.008 152.218 273.928 152.904C273.883 153.248 273.925 153.509 274.015 153.695C274.052 153.772 274.048 153.863 274.001 153.935C273.868 154.126 273.809 154.326 273.82 154.585C273.843 154.93 274.06 155.262 274.377 155.427C274.975 155.745 275.688 155.379 275.818 154.675C275.846 154.499 275.842 154.318 275.792 154.171C275.765 154.084 275.783 153.987 275.84 153.915C275.979 153.736 276.072 153.501 276.115 153.179C276.191 152.551 276.078 151.826 275.854 151.36C275.909 151.398 275.988 151.426 276.089 151.438C276.308 151.462 276.54 151.414 276.547 151.317C276.562 151.224 276.353 151.102 276.135 151.064C276.118 151.062 276.105 151.061 276.089 151.06C276.102 151.037 276.117 151.014 276.128 150.989C276.254 150.655 276.154 150.276 275.862 150.121C275.564 149.964 275.153 150.15 274.996 150.559Z" fill="black"/>
<path d="M280.307 147.212L280.251 147.286C280.242 147.271 280.236 147.26 280.227 147.244C280.099 147.067 279.889 146.941 279.792 147.016C279.695 147.092 279.751 147.335 279.883 147.509C279.945 147.59 280.011 147.639 280.074 147.665C279.514 147.718 278.759 148.24 278.356 148.858C278.156 149.172 278.055 149.431 278.069 149.671C278.071 149.766 278.031 149.862 277.955 149.922C277.754 150.082 277.588 150.322 277.547 150.63C277.469 151.038 277.649 151.43 277.973 151.611C278.562 151.923 279.249 151.639 279.47 151.137C279.531 151.006 279.567 150.871 279.564 150.732C279.564 150.649 279.609 150.576 279.682 150.537C279.849 150.44 280.044 150.292 280.205 150.036C280.528 149.54 280.795 148.802 280.787 148.276C280.822 148.333 280.882 148.39 280.971 148.441C281.163 148.548 281.404 148.588 281.458 148.495C281.512 148.403 281.364 148.21 281.176 148.098C281.16 148.091 281.15 148.086 281.135 148.079L281.198 148.021C281.449 147.734 281.502 147.341 281.261 147.103C281.03 146.875 280.582 146.9 280.307 147.212Z" fill="black"/>
<path d="M284.606 142.256L284.542 142.323C284.535 142.308 284.531 142.297 284.524 142.28C284.414 142.091 284.218 141.945 284.113 142.011C284.009 142.076 284.04 142.324 284.154 142.509C284.207 142.596 284.268 142.652 284.328 142.684C283.766 142.682 282.961 143.126 282.497 143.702C282.266 143.995 282.14 144.243 282.129 144.483C282.122 144.578 282.071 144.668 281.991 144.722C281.774 144.861 281.584 145.083 281.512 145.386C281.393 145.785 281.532 146.192 281.836 146.403C282.39 146.772 283.104 146.558 283.374 146.079C283.448 145.955 283.497 145.824 283.509 145.685C283.517 145.603 283.57 145.534 283.646 145.503C283.822 145.423 284.031 145.294 284.218 145.056C284.589 144.593 284.93 143.885 284.976 143.362C285.004 143.422 285.058 143.484 285.142 143.543C285.322 143.669 285.558 143.732 285.621 143.646C285.684 143.56 285.556 143.353 285.381 143.223C285.366 143.214 285.355 143.208 285.342 143.2L285.41 143.148C285.689 142.887 285.782 142.502 285.566 142.241C285.359 141.991 284.912 141.972 284.606 142.256Z" fill="black"/>
<path d="M262.555 173.128L262.457 173.127C262.464 173.112 262.47 173.101 262.477 173.085C262.547 172.878 262.516 172.636 262.383 172.604C262.26 172.577 262.101 172.774 262.049 172.984C262.025 173.082 262.028 173.164 262.048 173.228C261.656 172.848 260.82 172.612 260.14 172.671C259.796 172.697 259.545 172.798 259.373 172.93C259.302 172.986 259.207 173.007 259.12 172.981C258.888 172.91 258.614 172.925 258.347 173.049C257.983 173.215 257.751 173.591 257.793 173.942C257.899 174.594 258.464 174.996 259 174.902C259.141 174.877 259.267 174.817 259.381 174.738C259.448 174.69 259.534 174.684 259.608 174.721C259.789 174.814 260.018 174.851 260.323 174.829C260.922 174.777 261.643 174.508 262.02 174.157C261.999 174.219 261.992 174.301 262.008 174.401C262.042 174.615 262.147 174.823 262.241 174.806C262.324 174.791 262.381 174.558 262.366 174.344C262.363 174.327 262.361 174.315 262.358 174.3C262.382 174.305 262.405 174.311 262.431 174.314C262.525 174.319 262.559 174.315 262.633 174.294C262.724 174.281 262.809 174.254 262.884 174.214C263.034 174.134 263.142 174.004 263.176 173.843C263.209 173.682 263.165 173.521 263.069 173.391C263.02 173.327 262.959 173.269 262.887 173.224C262.797 173.178 262.653 173.133 262.555 173.128Z" fill="black"/>
<path d="M255.971 174.908L255.911 174.984C255.903 174.969 255.897 174.958 255.888 174.942C255.763 174.763 255.548 174.64 255.442 174.725C255.346 174.805 255.409 175.048 255.548 175.215C255.613 175.294 255.681 175.341 255.745 175.365C255.199 175.441 254.502 175.951 254.138 176.518C253.951 176.803 253.881 177.06 253.883 177.275C253.886 177.365 253.846 177.451 253.772 177.504C253.573 177.642 253.42 177.865 253.358 178.148C253.273 178.533 253.437 178.942 253.747 179.122C254.339 179.434 255.006 179.236 255.256 178.76C255.321 178.635 255.348 178.5 255.353 178.363C255.355 178.282 255.403 178.211 255.477 178.176C255.662 178.09 255.831 177.934 255.997 177.682C256.318 177.183 256.537 176.457 256.481 175.949C256.519 176.003 256.581 176.058 256.671 176.106C256.865 176.209 257.098 176.253 257.141 176.169C257.179 176.096 257.025 175.91 256.841 175.792C256.826 175.784 256.815 175.779 256.802 175.771C256.82 175.756 256.839 175.742 256.856 175.723C256.918 175.653 256.935 175.624 256.963 175.553C257.008 175.474 257.037 175.391 257.05 175.309C257.077 175.143 257.036 174.98 256.926 174.856C256.816 174.732 256.659 174.669 256.495 174.666C256.413 174.664 256.33 174.678 256.25 174.707C256.158 174.749 256.035 174.834 255.971 174.908Z" fill="black"/>
<path d="M268.56 173.452C268.532 173.457 268.506 173.465 268.48 173.473C268.483 173.457 268.484 173.444 268.487 173.427C268.497 173.21 268.422 172.981 268.321 172.976C268.219 172.968 268.122 173.178 268.105 173.394C268.097 173.494 268.111 173.575 268.137 173.636C267.722 173.32 266.992 173.114 266.399 173.108C266.097 173.098 265.871 173.159 265.697 173.267C265.625 173.313 265.538 173.309 265.469 173.266C265.282 173.148 265.058 173.095 264.81 173.14C264.475 173.188 264.17 173.427 264.034 173.76C263.777 174.369 264.188 175.037 264.865 175.097C265.032 175.111 265.194 175.089 265.338 175.037C265.422 175.004 265.518 175.023 265.593 175.07C265.776 175.188 266.032 175.263 266.381 175.272C267.072 175.281 267.895 174.972 268.243 174.56C268.23 174.625 268.234 174.706 268.265 174.803C268.333 175.009 268.5 175.2 268.613 175.164C268.727 175.124 268.738 174.881 268.664 174.678C268.657 174.663 268.651 174.653 268.644 174.638L268.733 174.632C269.13 174.569 269.399 174.255 269.332 173.932C269.266 173.61 268.92 173.395 268.56 173.452Z" fill="black"/>
<path d="M248.411 173.239C248.4 173.265 248.394 173.291 248.386 173.317C248.373 173.306 248.363 173.298 248.35 173.286C248.169 173.161 247.933 173.099 247.874 173.18C247.812 173.259 247.94 173.454 248.115 173.584C248.198 173.644 248.274 173.677 248.341 173.688C247.845 173.86 247.275 174.353 246.949 174.84C246.778 175.084 246.708 175.304 246.706 175.507C246.707 175.59 246.657 175.659 246.582 175.694C246.38 175.785 246.214 175.942 246.119 176.171C245.979 176.473 246.019 176.855 246.231 177.146C246.614 177.688 247.409 177.709 247.825 177.182C247.928 177.051 247.996 176.906 248.029 176.758C248.047 176.671 248.115 176.603 248.196 176.565C248.395 176.478 248.598 176.307 248.794 176.024C249.175 175.457 249.354 174.61 249.189 174.099C249.237 174.146 249.31 174.187 249.41 174.212C249.623 174.268 249.876 174.233 249.906 174.119C249.934 174.005 249.732 173.864 249.518 173.815C249.501 173.814 249.489 173.812 249.473 173.81L249.515 173.733C249.676 173.371 249.552 172.98 249.24 172.861C248.928 172.742 248.556 172.911 248.411 173.239Z" fill="black"/>
<path d="M274.08 171.423C274.056 171.438 274.036 171.456 274.014 171.473C274.01 171.457 274.006 171.445 274.002 171.428C273.921 171.227 273.756 171.049 273.659 171.084C273.564 171.118 273.568 171.357 273.644 171.561C273.679 171.657 273.726 171.724 273.775 171.768C273.257 171.638 272.511 171.761 271.968 171.987C271.699 172.119 271.511 172.244 271.396 172.411C271.35 172.477 271.272 172.516 271.191 172.505C270.977 172.484 270.751 172.516 270.541 172.646C270.259 172.826 270.081 173.175 270.088 173.524C270.097 174.194 270.742 174.629 271.396 174.422C271.559 174.378 271.696 174.285 271.806 174.175C271.87 174.11 271.963 174.082 272.052 174.098C272.269 174.133 272.545 174.119 272.86 173.967C273.499 173.7 274.11 173.071 274.26 172.567C274.275 172.632 274.313 172.705 274.383 172.779C274.53 172.938 274.757 173.038 274.844 172.958C274.932 172.878 274.841 172.653 274.688 172.497C274.675 172.486 274.665 172.478 274.653 172.468L274.732 172.428C275.073 172.22 275.183 171.822 274.985 171.55C274.793 171.287 274.391 171.234 274.08 171.423Z" fill="black"/>
<path d="M278.416 167.439C278.4 167.462 278.388 167.486 278.374 167.509C278.365 167.496 278.357 167.486 278.346 167.472C278.196 167.314 277.977 167.206 277.902 167.274C277.829 167.343 277.911 167.557 278.057 167.72C278.125 167.795 278.193 167.842 278.256 167.866C277.991 167.897 277.694 168.01 277.42 168.17C277.131 168.322 276.858 168.514 276.656 168.731C276.442 168.944 276.32 169.141 276.278 169.339C276.26 169.419 276.202 169.485 276.123 169.507C275.916 169.571 275.715 169.687 275.574 169.89C275.38 170.165 275.361 170.561 275.511 170.879C275.796 171.488 276.554 171.625 277.07 171.194C277.2 171.091 277.29 170.957 277.346 170.815C277.379 170.731 277.452 170.671 277.54 170.652C277.753 170.605 277.991 170.485 278.234 170.242C278.466 169.995 278.679 169.681 278.823 169.361C278.955 169.03 279.025 168.7 279.003 168.437C279.041 168.492 279.103 168.546 279.195 168.591C279.393 168.687 279.65 168.706 279.698 168.598C279.749 168.491 279.581 168.313 279.381 168.224C279.364 168.218 279.353 168.214 279.338 168.209L279.396 168.143C279.628 167.822 279.589 167.415 279.308 167.235C279.028 167.056 278.628 167.147 278.416 167.439Z" fill="black"/>
<path d="M280.84 162.158C280.834 162.186 280.832 162.212 280.828 162.239C280.814 162.23 280.803 162.225 280.787 162.216C280.586 162.132 280.34 162.121 280.295 162.212C280.25 162.302 280.423 162.466 280.623 162.557C280.717 162.599 280.799 162.614 280.866 162.611C280.424 162.885 279.974 163.487 279.756 164.024C279.656 164.303 279.626 164.527 279.661 164.722C279.675 164.801 279.647 164.882 279.583 164.93C279.414 165.064 279.284 165.248 279.227 165.484C279.155 165.807 279.286 166.179 279.542 166.419C280.035 166.883 280.8 166.738 281.114 166.139C281.197 165.995 281.22 165.831 281.221 165.679C281.221 165.589 281.266 165.505 281.342 165.453C281.526 165.33 281.697 165.123 281.814 164.798C282.071 164.165 282.062 163.298 281.785 162.834C281.843 162.869 281.922 162.894 282.025 162.898C282.245 162.907 282.479 162.819 282.485 162.702C282.491 162.585 282.266 162.49 282.044 162.488C282.027 162.489 282.014 162.49 281.999 162.492L282.027 162.409C282.109 162.022 281.889 161.664 281.561 161.613C281.227 161.561 280.915 161.807 280.84 162.158Z" fill="black"/>
<path d="M280.936 156.333C280.94 156.361 280.949 156.386 280.956 156.412C280.94 156.41 280.927 156.408 280.909 156.406C280.69 156.4 280.457 156.48 280.451 156.582C280.444 156.684 280.667 156.774 280.887 156.786C280.99 156.79 281.072 156.774 281.133 156.746C280.826 157.165 280.642 157.9 280.661 158.485C280.682 158.783 280.736 159.003 280.853 159.169C280.899 159.237 280.907 159.322 280.868 159.393C280.77 159.583 280.712 159.804 280.767 160.045C280.845 160.371 281.096 160.658 281.438 160.775C282.073 161.002 282.73 160.565 282.76 159.897C282.771 159.732 282.743 159.575 282.675 159.436C282.637 159.354 282.644 159.26 282.691 159.184C282.804 159 282.886 158.745 282.864 158.405C282.842 157.731 282.502 156.944 282.07 156.616C282.137 156.627 282.22 156.621 282.317 156.587C282.524 156.515 282.708 156.349 282.67 156.24C282.632 156.13 282.386 156.125 282.18 156.202C282.164 156.21 282.153 156.216 282.139 156.223L282.133 156.136C282.078 155.797 281.792 155.545 281.456 155.557C281.122 155.569 280.87 155.927 280.936 156.333Z" fill="black"/>
<path d="M281.583 150.016L281.558 150.105C281.545 150.095 281.536 150.086 281.521 150.075C281.335 149.957 281.093 149.917 281.03 150.026C280.967 150.135 281.113 150.34 281.304 150.447C281.394 150.497 281.475 150.516 281.543 150.516C281.066 150.78 280.604 151.552 280.511 152.226C280.459 152.567 280.499 152.827 280.596 153.022C280.635 153.102 280.632 153.196 280.588 153.272C280.471 153.477 280.413 153.732 280.473 154.002C280.545 154.368 280.841 154.66 281.191 154.737C281.852 154.875 282.43 154.409 282.462 153.837C282.473 153.691 282.445 153.552 282.388 153.423C282.355 153.347 282.373 153.263 282.426 153.2C282.555 153.046 282.647 152.835 282.692 152.543C282.773 151.967 282.688 151.254 282.445 150.798C282.5 150.835 282.578 150.864 282.68 150.877C282.899 150.904 283.134 150.865 283.143 150.773C283.153 150.682 282.94 150.56 282.726 150.521C282.709 150.519 282.696 150.518 282.681 150.517C282.692 150.494 282.705 150.472 282.714 150.447C282.842 150.137 282.723 149.771 282.437 149.612C282.139 149.448 281.742 149.629 281.583 150.016Z" fill="black"/>
<path d="M267.518 176.946L267.43 176.952C267.436 176.936 267.44 176.925 267.446 176.908C267.497 176.697 267.461 176.458 267.357 176.435C267.253 176.415 267.111 176.608 267.051 176.813C267.024 176.909 267.022 176.991 267.038 177.056C266.867 176.869 266.618 176.697 266.343 176.563C266.206 176.488 266.065 176.413 265.92 176.353C265.844 176.325 265.772 176.298 265.703 176.272L265.594 176.238C265.508 176.22 265.424 176.201 265.341 176.183C265.259 176.18 265.18 176.177 265.102 176.175C264.769 176.167 264.514 176.221 264.323 176.323C264.245 176.365 264.149 176.368 264.072 176.324C263.864 176.211 263.617 176.157 263.349 176.197C262.987 176.252 262.672 176.491 262.529 176.82C262.25 177.431 262.724 178.1 263.449 178.159C263.627 178.174 263.798 178.151 263.95 178.096C264.04 178.063 264.143 178.076 264.222 178.127C264.415 178.25 264.682 178.33 265.051 178.339C265.12 178.34 265.123 178.34 265.129 178.336L265.131 178.332C265.145 178.334 265.068 178.319 265.121 178.326L265.259 178.339C265.348 178.342 265.44 178.346 265.538 178.35C265.725 178.35 265.91 178.344 266.087 178.315C266.443 178.245 266.757 178.132 266.968 177.983C266.941 178.044 266.929 178.125 266.944 178.226C266.976 178.446 267.119 178.66 267.249 178.638C267.379 178.62 267.438 178.384 267.397 178.17C267.392 178.154 267.388 178.143 267.383 178.128L267.48 178.137C267.919 178.153 268.263 177.881 268.248 177.546C268.234 177.224 267.907 176.96 267.518 176.946Z" fill="black"/>
<path d="M273.697 175.561L273.62 175.607C273.618 175.591 273.616 175.579 273.614 175.561C273.56 175.349 273.416 175.155 273.309 175.184C273.2 175.207 273.163 175.443 273.21 175.655C273.232 175.753 273.27 175.826 273.315 175.876C272.793 175.71 271.976 175.758 271.366 175.936C271.053 176.021 270.841 176.154 270.693 176.308C270.633 176.366 270.543 176.393 270.459 176.372C270.233 176.312 269.99 176.338 269.747 176.443C269.419 176.576 269.173 176.896 269.123 177.253C269.019 177.913 269.639 178.434 270.374 178.306C270.553 178.269 270.716 178.199 270.851 178.105C270.93 178.049 271.034 178.034 271.129 178.062C271.354 178.122 271.642 178.108 272.006 178.007C272.724 177.798 273.468 177.233 273.701 176.725C273.706 176.791 273.735 176.869 273.796 176.95C273.927 177.126 274.153 177.252 274.259 177.183C274.362 177.109 274.301 176.873 274.166 176.702C274.153 176.69 274.145 176.682 274.134 176.67L274.222 176.635C274.607 176.445 274.789 176.056 274.629 175.767C274.469 175.478 274.052 175.385 273.697 175.561Z" fill="black"/>
<path d="M283.61 171.735L283.574 171.816C283.562 171.804 283.554 171.794 283.542 171.781C283.375 171.637 283.143 171.558 283.073 171.642C282.996 171.722 283.103 171.937 283.264 172.084C283.339 172.153 283.413 172.191 283.479 172.207C282.953 172.363 282.31 172.859 281.91 173.347C281.703 173.591 281.606 173.82 281.574 174.028C281.558 174.11 281.5 174.182 281.418 174.212C281.197 174.289 281.012 174.446 280.875 174.668C280.681 174.961 280.665 175.362 280.831 175.683C281.128 176.284 281.94 176.365 282.469 175.849C282.595 175.719 282.688 175.57 282.745 175.417C282.778 175.328 282.855 175.257 282.948 175.227C283.169 175.15 283.397 174.978 283.638 174.691C284.107 174.118 284.391 173.237 284.288 172.69C284.331 172.741 284.399 172.789 284.497 172.822C284.707 172.893 284.965 172.87 285.012 172.754C285.054 172.636 284.868 172.475 284.657 172.411C284.64 172.408 284.628 172.406 284.612 172.402L284.664 172.324C284.871 171.953 284.795 171.531 284.496 171.383C284.197 171.235 283.8 171.392 283.61 171.735Z" fill="black"/>
<path d="M278.979 171.887L278.92 171.954C278.913 171.939 278.907 171.928 278.899 171.912C278.782 171.727 278.582 171.587 278.487 171.648C278.394 171.71 278.434 171.95 278.545 172.134C278.598 172.221 278.659 172.278 278.718 172.31C278.162 172.313 277.395 172.64 276.875 173.034C276.615 173.241 276.449 173.427 276.369 173.628C276.335 173.708 276.263 173.77 276.176 173.785C275.948 173.831 275.715 173.93 275.531 174.128C275.284 174.399 275.188 174.791 275.291 175.128C275.485 175.771 276.262 175.993 276.862 175.597C277.014 175.503 277.132 175.38 277.214 175.239C277.263 175.157 277.35 175.103 277.444 175.092C277.671 175.065 277.943 174.97 278.229 174.743C278.807 174.305 279.299 173.541 279.359 172.995C279.386 173.056 279.438 173.12 279.522 173.178C279.705 173.305 279.955 173.354 280.027 173.254C280.1 173.155 279.968 172.949 279.786 172.828C279.771 172.82 279.759 172.814 279.745 172.807L279.818 172.748C280.123 172.457 280.176 172.034 279.937 171.805C279.697 171.574 279.268 171.611 278.979 171.887Z" fill="black"/>
<path d="M282.853 166.85L282.823 166.932C282.811 166.921 282.801 166.912 282.788 166.901C282.611 166.771 282.373 166.71 282.309 166.797C282.247 166.883 282.372 167.089 282.542 167.223C282.622 167.286 282.698 167.319 282.766 167.329C282.247 167.518 281.653 168.05 281.276 168.562C281.09 168.826 281.005 169.06 280.979 169.267C280.97 169.353 280.918 169.431 280.839 169.468C280.631 169.571 280.449 169.741 280.323 169.978C280.158 170.302 280.185 170.71 280.382 171.004C280.756 171.565 281.558 171.557 282.025 171.017C282.142 170.884 282.214 170.725 282.256 170.57C282.281 170.478 282.35 170.402 282.439 170.365C282.658 170.281 282.875 170.097 283.089 169.794C283.524 169.201 283.746 168.289 283.609 167.753C283.656 167.8 283.727 167.843 283.827 167.869C284.044 167.925 284.3 167.881 284.331 167.756C284.366 167.633 284.167 167.488 283.952 167.441C283.934 167.439 283.922 167.438 283.906 167.436L283.953 167.354C284.143 166.968 284.015 166.547 283.701 166.426C283.39 166.308 283.025 166.504 282.853 166.85Z" fill="black"/>
<path d="M284.299 160.691L284.3 160.781C284.285 160.775 284.273 160.77 284.256 160.763C284.044 160.702 283.8 160.729 283.767 160.838C283.735 160.947 283.929 161.099 284.139 161.163C284.238 161.193 284.322 161.195 284.388 161.18C283.981 161.55 283.644 162.31 283.529 162.941C283.479 163.265 283.495 163.512 283.568 163.711C283.598 163.792 283.586 163.884 283.533 163.952C283.394 164.136 283.29 164.358 283.291 164.623C283.296 164.984 283.469 165.33 283.782 165.521C284.35 165.882 285.103 165.547 285.278 164.846C285.327 164.674 285.331 164.502 285.296 164.343C285.276 164.25 285.304 164.152 285.367 164.081C285.523 163.91 285.648 163.656 285.703 163.298C285.832 162.589 285.664 161.707 285.331 161.264C285.393 161.292 285.475 161.305 285.578 161.292C285.797 161.266 286.017 161.139 286.006 161.018C285.996 160.897 285.758 160.832 285.539 160.861C285.522 160.866 285.51 160.868 285.494 160.873C285.501 160.842 285.506 160.813 285.509 160.782C285.536 160.369 285.287 160.02 284.953 160.002C284.618 159.983 284.325 160.292 284.299 160.691Z" fill="black"/>
<path d="M283.769 154.301C283.773 154.333 283.782 154.362 283.79 154.392C283.773 154.389 283.761 154.387 283.743 154.383C283.522 154.369 283.29 154.45 283.287 154.571C283.284 154.69 283.511 154.801 283.731 154.813C283.834 154.819 283.915 154.801 283.976 154.77C283.673 155.233 283.561 156.096 283.67 156.757C283.725 157.092 283.83 157.328 283.969 157.493C284.028 157.562 284.047 157.653 284.02 157.736C283.946 157.956 283.944 158.206 284.027 158.432C284.087 158.604 284.18 158.678 284.305 158.823C284.427 158.957 284.584 159.058 284.758 159.107C285.084 159.2 285.399 159.123 285.637 158.934C285.757 158.85 285.852 158.704 285.913 158.517C285.969 158.351 285.996 158.161 285.974 157.985C285.956 157.803 285.897 157.641 285.812 157.506C285.762 157.425 285.756 157.323 285.79 157.239C285.875 157.03 285.903 156.759 285.847 156.413C285.734 155.731 285.341 154.968 284.911 154.625C284.978 154.636 285.061 154.628 285.157 154.592C285.363 154.514 285.547 154.348 285.508 154.24C285.469 154.133 285.223 154.122 285.016 154.197C285.001 154.205 284.989 154.21 284.975 154.217L284.97 154.129C284.91 153.735 284.606 153.452 284.271 153.485C283.939 153.517 283.707 153.89 283.769 154.301Z" fill="black"/>
<path d="M255.755 166.911C255.748 166.935 255.745 166.96 255.74 166.985C255.726 166.976 255.716 166.969 255.702 166.959C255.506 166.852 255.275 166.809 255.221 166.879C255.164 166.947 255.31 167.122 255.491 167.245C255.576 167.302 255.653 167.332 255.719 167.341C255.258 167.528 254.665 167.929 254.313 168.375C254.119 168.597 254.015 168.802 253.989 169.003C253.977 169.084 253.926 169.154 253.848 169.18C253.631 169.245 253.439 169.38 253.306 169.596C253.135 169.893 253.107 170.276 253.279 170.591C253.589 171.178 254.377 171.299 254.872 170.815C254.995 170.698 255.086 170.562 255.143 170.419C255.174 170.332 255.245 170.262 255.334 170.235C255.548 170.166 255.784 170.018 256.022 169.743C256.48 169.176 256.777 168.27 256.583 167.722C256.632 167.768 256.706 167.808 256.807 167.828C257.024 167.873 257.281 167.805 257.316 167.676C257.348 167.543 257.128 167.411 256.911 167.388H256.866L256.903 167.299C257.052 166.878 256.843 166.481 256.507 166.43C256.181 166.383 255.867 166.601 255.755 166.911Z" fill="black"/>
<path d="M255.334 160.992L255.347 161.079C255.33 161.076 255.318 161.072 255.301 161.068C255.082 161.037 254.843 161.097 254.829 161.213C254.812 161.329 255.032 161.451 255.251 161.478C255.353 161.491 255.436 161.479 255.498 161.454C255.146 161.846 254.998 162.772 255.144 163.425C255.214 163.76 255.328 163.972 255.477 164.122C255.538 164.185 255.563 164.269 255.537 164.347C255.473 164.558 255.481 164.785 255.571 164.997C255.705 165.289 255.985 165.512 256.35 165.597C256.678 165.669 256.994 165.592 257.21 165.378C257.436 165.163 257.551 164.823 257.499 164.473C257.473 164.299 257.404 164.151 257.314 164.021C257.262 163.945 257.249 163.849 257.28 163.768C257.354 163.568 257.369 163.304 257.305 162.998C257.173 162.391 256.839 161.762 256.442 161.382C256.508 161.397 256.591 161.395 256.691 161.368C256.902 161.31 257.096 161.167 257.07 161.066C257.043 160.963 256.798 160.935 256.585 160.99C256.569 160.996 256.557 161 256.543 161.006L256.545 160.922C256.519 160.548 256.245 160.253 255.909 160.26C255.575 160.267 255.307 160.596 255.334 160.992Z" fill="black"/>
<path d="M256.265 154.615L256.236 154.702C256.223 154.692 256.214 154.684 256.2 154.671C256.019 154.547 255.778 154.498 255.71 154.603C255.643 154.707 255.778 154.917 255.963 155.033C256.051 155.088 256.13 155.111 256.198 155.114C255.715 155.36 255.185 156.117 255.067 156.815C254.988 157.166 255.035 157.438 255.114 157.642C255.148 157.725 255.142 157.822 255.097 157.901C254.976 158.108 254.907 158.372 254.962 158.65C255.032 159.029 255.309 159.33 255.666 159.417C256.322 159.572 256.909 159.101 256.956 158.523C256.97 158.376 256.947 158.235 256.893 158.103C256.86 158.025 256.879 157.94 256.937 157.879C257.081 157.73 257.164 157.516 257.231 157.228C257.327 156.651 257.307 155.923 257.085 155.44C257.138 155.48 257.215 155.513 257.316 155.53C257.534 155.567 257.773 155.531 257.79 155.434C257.808 155.338 257.601 155.207 257.386 155.161C257.369 155.16 257.357 155.158 257.342 155.156C257.355 155.133 257.369 155.11 257.38 155.085C257.515 154.752 257.427 154.377 257.125 154.22C256.836 154.068 256.422 154.233 256.265 154.615Z" fill="black"/>
<path d="M260.504 153.799L260.458 153.879C260.448 153.866 260.44 153.856 260.429 153.842C260.278 153.683 260.052 153.586 259.964 153.675C259.876 153.764 259.965 153.997 260.122 154.147C260.196 154.219 260.268 154.258 260.335 154.274C259.81 154.417 259.134 155.051 258.872 155.711C258.721 156.037 258.709 156.314 258.745 156.529C258.761 156.618 258.734 156.712 258.674 156.779C258.513 156.958 258.39 157.203 258.385 157.485C258.374 157.871 258.583 158.221 258.914 158.378C259.523 158.662 260.196 158.32 260.363 157.764C260.407 157.623 260.414 157.479 260.39 157.34C260.374 157.256 260.41 157.177 260.48 157.129C260.651 157.012 260.778 156.82 260.903 156.551C261.118 156.006 261.251 155.289 261.134 154.772C261.178 154.822 261.246 154.87 261.341 154.906C261.547 154.986 261.789 155 261.826 154.909C261.864 154.818 261.688 154.648 261.488 154.56C261.471 154.555 261.46 154.551 261.445 154.546C261.463 154.526 261.482 154.507 261.497 154.484C261.699 154.186 261.692 153.801 261.429 153.586C261.178 153.379 260.739 153.457 260.504 153.799Z" fill="black"/>
<path d="M260.492 149.658C260.467 149.677 260.446 149.698 260.424 149.719C260.418 149.703 260.414 149.691 260.409 149.674C260.317 149.476 260.137 149.312 260.028 149.367C259.92 149.421 259.931 149.67 260.027 149.864C260.072 149.955 260.128 150.017 260.184 150.053C259.63 149.999 258.817 150.363 258.312 150.844C258.06 151.102 257.924 151.345 257.875 151.56C257.852 151.646 257.799 151.731 257.714 151.771C257.495 151.882 257.282 152.066 257.17 152.337C257.021 152.708 257.08 153.107 257.345 153.366C257.827 153.826 258.571 153.735 258.915 153.294C259.007 153.183 259.065 153.055 259.093 152.918C259.111 152.839 259.167 152.773 259.251 152.757C259.453 152.712 259.654 152.599 259.862 152.384C260.299 151.969 260.681 151.299 260.765 150.788C260.789 150.85 260.836 150.917 260.914 150.983C261.08 151.126 261.305 151.212 261.372 151.134C261.44 151.056 261.331 150.839 261.171 150.693C261.157 150.682 261.147 150.675 261.135 150.666L261.205 150.622C261.513 150.415 261.614 150.022 261.434 149.744C261.253 149.468 260.831 149.429 260.492 149.658Z" fill="black"/>
<path d="M266.585 147.227L266.495 147.248C266.498 147.232 266.501 147.22 266.504 147.202C266.523 146.985 266.445 146.756 266.32 146.753C266.196 146.75 266.08 146.973 266.071 147.189C266.066 147.29 266.085 147.369 266.117 147.429C265.656 147.125 264.737 147.065 264.056 147.298C263.709 147.408 263.483 147.568 263.345 147.747C263.288 147.819 263.2 147.863 263.106 147.859C262.856 147.851 262.597 147.942 262.37 148.118C262.067 148.369 261.944 148.767 262.046 149.105C262.249 149.742 262.95 149.993 263.478 149.754C263.614 149.694 263.722 149.595 263.814 149.492C263.868 149.43 263.952 149.404 264.034 149.421C264.233 149.46 264.466 149.442 264.754 149.351C265.313 149.16 265.952 148.76 266.271 148.346C266.262 148.411 266.271 148.493 266.306 148.587C266.383 148.791 266.535 148.974 266.63 148.938C266.725 148.902 266.736 148.66 266.668 148.455C266.662 148.44 266.657 148.429 266.65 148.415L266.733 148.41C267.098 148.378 267.382 148.081 267.367 147.757C267.351 147.424 267.001 147.19 266.585 147.227Z" fill="black"/>
<path d="M260.384 176.126L260.306 176.177C260.304 176.16 260.302 176.148 260.298 176.13C260.239 175.921 260.084 175.733 259.966 175.772C259.849 175.812 259.82 176.061 259.888 176.267C259.919 176.363 259.966 176.432 260.017 176.476C259.476 176.35 258.595 176.61 258.04 177.062C257.755 177.285 257.599 177.513 257.534 177.727C257.507 177.814 257.439 177.886 257.35 177.915C257.114 177.993 256.903 178.168 256.753 178.41C256.559 178.751 256.586 179.164 256.802 179.446C257.219 179.973 257.967 179.967 258.375 179.562C258.481 179.459 258.547 179.329 258.597 179.201C258.625 179.124 258.694 179.07 258.777 179.058C258.977 179.027 259.189 178.929 259.426 178.746C259.882 178.374 260.337 177.779 260.488 177.282C260.503 177.346 260.541 177.419 260.608 177.496C260.752 177.66 260.96 177.779 261.036 177.713C261.112 177.646 261.036 177.415 260.9 177.247C260.888 177.236 260.879 177.227 260.868 177.216L260.944 177.183C261.275 177.028 261.434 176.652 261.305 176.353C261.171 176.047 260.76 175.948 260.384 176.126Z" fill="black"/>
<path d="M272.938 147.651L272.858 147.662C272.862 147.647 272.865 147.635 272.87 147.619C272.903 147.404 272.855 147.17 272.761 147.146C272.666 147.124 272.548 147.326 272.502 147.537C272.481 147.636 272.483 147.718 272.501 147.781C272.132 147.415 271.481 147.092 270.853 146.973C270.534 146.915 270.27 146.937 270.063 147.016C269.98 147.047 269.883 147.039 269.803 146.99C269.594 146.854 269.322 146.787 269.03 146.832C268.632 146.878 268.314 147.171 268.226 147.511C268.071 148.16 268.537 148.726 269.102 148.79C269.248 148.802 269.39 148.793 269.524 148.744C269.601 148.716 269.689 148.737 269.753 148.796C269.905 148.936 270.127 149.043 270.464 149.104C271.124 149.232 272.06 149.078 272.479 148.711C272.456 148.774 272.447 148.855 272.467 148.955C272.508 149.167 272.661 149.372 272.788 149.351C272.917 149.333 272.958 149.091 272.904 148.881C272.898 148.865 272.894 148.854 272.888 148.839C272.92 148.842 272.95 148.843 272.982 148.841C273.412 148.82 273.718 148.517 273.668 148.184C273.618 147.867 273.292 147.633 272.938 147.651Z" fill="black"/>
<path d="M278.384 145.444L278.319 145.499C278.314 145.483 278.309 145.471 278.303 145.455C278.211 145.259 278.033 145.091 277.936 145.133C277.838 145.174 277.853 145.413 277.941 145.612C277.983 145.704 278.034 145.769 278.087 145.809C277.562 145.736 276.798 145.916 276.27 146.185C276.001 146.324 275.834 146.491 275.726 146.65C275.682 146.718 275.606 146.759 275.525 146.753C275.308 146.74 275.091 146.791 274.889 146.92C274.621 147.113 274.445 147.444 274.449 147.798C274.441 148.467 275.119 148.914 275.81 148.666C275.981 148.61 276.115 148.502 276.227 148.388C276.291 148.32 276.387 148.286 276.482 148.296C276.715 148.328 276.982 148.263 277.303 148.098C277.94 147.772 278.518 147.105 278.627 146.574C278.646 146.638 278.689 146.708 278.763 146.777C278.923 146.926 279.159 147.011 279.243 146.927C279.326 146.843 279.222 146.624 279.058 146.478C279.044 146.468 279.034 146.461 279.021 146.452L279.099 146.407C279.436 146.182 279.509 145.757 279.306 145.503C279.096 145.239 278.697 145.236 278.384 145.444Z" fill="black"/>
<path d="M252.326 164.13L252.352 164.213C252.336 164.212 252.323 164.211 252.305 164.209C252.085 164.214 251.859 164.311 251.862 164.426C251.857 164.467 251.894 164.437 251.975 164.445C252.054 164.445 252.159 164.487 252.268 164.491C252.37 164.501 252.453 164.493 252.516 164.473C252.169 164.797 251.849 165.461 251.75 166.038C251.7 166.331 251.723 166.557 251.798 166.742C251.83 166.817 251.819 166.902 251.763 166.96C251.62 167.122 251.529 167.321 251.527 167.557C251.522 167.871 251.7 168.188 251.993 168.403C252.524 168.825 253.307 168.538 253.499 167.858C253.55 167.692 253.549 167.529 253.521 167.376C253.504 167.287 253.532 167.194 253.594 167.129C253.747 166.97 253.866 166.731 253.925 166.39C254.039 165.721 253.864 164.852 253.461 164.417C253.526 164.437 253.61 164.44 253.709 164.41C253.814 164.372 253.923 164.327 253.986 164.226C254.051 164.133 254.073 163.985 254.048 163.92C254.006 163.826 253.761 163.838 253.559 163.926C253.544 163.934 253.533 163.94 253.52 163.948L253.509 163.866C253.432 163.508 253.101 163.268 252.773 163.329C252.443 163.389 252.243 163.748 252.326 164.13Z" fill="black"/>
<path d="M251.902 157.868L251.9 157.957C251.885 157.95 251.873 157.945 251.857 157.938C251.647 157.872 251.401 157.892 251.367 158.005C251.334 158.117 251.526 158.273 251.736 158.333C251.835 158.36 251.918 158.362 251.985 158.346C251.587 158.703 251.288 159.515 251.313 160.188C251.311 160.529 251.412 160.776 251.534 160.953C251.585 161.024 251.6 161.118 251.567 161.2C251.474 161.421 251.474 161.679 251.572 161.935C251.703 162.285 252.029 162.527 252.396 162.552C253.067 162.595 253.57 162.042 253.509 161.463C253.489 161.316 253.441 161.181 253.369 161.062C253.325 160.992 253.326 160.905 253.368 160.832C253.476 160.658 253.513 160.431 253.516 160.131C253.495 159.539 253.274 158.819 252.929 158.419C252.991 158.443 253.073 158.454 253.176 158.443C253.395 158.419 253.615 158.315 253.603 158.215C253.593 158.114 253.356 158.048 253.137 158.066C253.12 158.07 253.108 158.072 253.093 158.075L253.108 157.995C253.139 157.635 252.921 157.305 252.592 157.253C252.26 157.201 251.936 157.475 251.902 157.868Z" fill="black"/>
<path d="M253.901 151.869L253.862 151.949C253.851 151.937 253.842 151.928 253.83 151.914C253.667 151.768 253.436 151.686 253.358 151.777C253.28 151.866 253.389 152.088 253.556 152.229C253.634 152.294 253.71 152.329 253.776 152.341C253.507 152.42 253.235 152.621 252.987 152.881C252.729 153.137 252.518 153.461 252.399 153.781C252.269 154.104 252.239 154.366 252.297 154.582C252.318 154.669 252.297 154.762 252.236 154.828C252.078 155.005 251.949 155.242 251.959 155.524C251.96 155.904 252.177 156.247 252.504 156.395C253.119 156.662 253.795 156.323 253.937 155.774C253.981 155.636 253.986 155.495 253.961 155.359C253.946 155.278 253.978 155.199 254.043 155.149C254.195 155.024 254.342 154.843 254.453 154.569C254.554 154.295 254.622 153.976 254.661 153.665C254.69 153.35 254.667 153.033 254.606 152.79C254.652 152.837 254.723 152.88 254.82 152.912C255.031 152.979 255.272 152.975 255.303 152.88C255.333 152.784 255.146 152.628 254.94 152.555C254.923 152.551 254.911 152.548 254.896 152.544C254.912 152.522 254.929 152.502 254.943 152.478C255.115 152.162 255.076 151.783 254.794 151.595C254.521 151.413 254.093 151.519 253.901 151.869Z" fill="black"/>
<path d="M284.587 146.96L284.577 147.049C284.562 147.04 284.551 147.034 284.535 147.025C284.332 146.939 284.086 146.936 284.042 147.046C283.998 147.156 284.175 147.332 284.379 147.41C284.475 147.448 284.558 147.456 284.625 147.447C284.396 147.607 284.205 147.884 284.056 148.209C283.897 148.533 283.805 148.906 283.797 149.248C283.781 149.594 283.838 149.852 283.964 150.037C284.013 150.113 284.024 150.208 283.988 150.29C283.898 150.508 283.853 150.773 283.955 151.036C284.083 151.396 284.4 151.651 284.758 151.686C285.429 151.745 285.957 151.208 285.909 150.643C285.905 150.498 285.864 150.364 285.795 150.243C285.754 150.172 285.758 150.086 285.803 150.018C285.906 149.852 285.985 149.634 286 149.34C286.005 149.048 285.964 148.724 285.898 148.418C285.822 148.111 285.696 147.818 285.557 147.608C285.617 147.637 285.698 147.656 285.801 147.655C286.022 147.651 286.249 147.57 286.247 147.47C286.244 147.37 286.016 147.282 285.796 147.278C285.779 147.28 285.767 147.281 285.751 147.283C285.759 147.257 285.769 147.232 285.774 147.205C285.832 146.851 285.67 146.505 285.341 146.417C285.023 146.332 284.654 146.568 284.587 146.96Z" fill="black"/>
<path d="M258.26 147.244L258.192 147.301C258.187 147.286 258.183 147.274 258.177 147.258C258.084 147.061 257.904 146.896 257.796 146.947C257.69 146.998 257.701 147.241 257.799 147.435C257.844 147.525 257.9 147.587 257.956 147.624C257.423 147.58 256.609 147.903 256.119 148.376C255.86 148.602 255.738 148.847 255.689 149.058C255.67 149.145 255.61 149.219 255.526 149.252C255.302 149.342 255.088 149.505 254.973 149.764C254.808 150.109 254.852 150.51 255.085 150.78C255.522 151.279 256.287 151.262 256.648 150.82C256.749 150.714 256.817 150.59 256.854 150.456C256.876 150.378 256.94 150.32 257.022 150.302C257.222 150.261 257.413 150.14 257.644 149.939C258.072 149.524 258.472 148.882 258.537 148.358C258.561 148.419 258.608 148.486 258.686 148.553C258.852 148.696 259.078 148.786 259.147 148.71C259.216 148.634 259.106 148.418 258.944 148.272C258.93 148.262 258.921 148.255 258.908 148.245L258.979 148.204C259.274 147.986 259.369 147.597 259.187 147.326C258.998 147.048 258.581 147.007 258.26 147.244Z" fill="black"/>
<path d="M264.031 144.508L263.947 144.539C263.948 144.523 263.948 144.51 263.949 144.492C263.936 144.275 263.829 144.058 263.71 144.069C263.592 144.08 263.513 144.315 263.532 144.53C263.541 144.631 263.57 144.707 263.608 144.762C263.123 144.514 262.243 144.538 261.611 144.811C261.288 144.94 261.08 145.106 260.962 145.293C260.912 145.368 260.83 145.417 260.739 145.418C260.498 145.422 260.243 145.503 260.041 145.698C259.761 145.956 259.653 146.343 259.767 146.679C259.984 147.302 260.704 147.563 261.212 147.28C261.345 147.215 261.455 147.122 261.538 147.01C261.588 146.944 261.67 146.911 261.753 146.923C261.952 146.947 262.185 146.917 262.468 146.805C263.015 146.568 263.617 146.102 263.877 145.654C263.877 145.719 263.896 145.799 263.943 145.889C264.044 146.081 264.22 146.243 264.311 146.195C264.402 146.147 264.38 145.906 264.285 145.712C264.276 145.698 264.269 145.688 264.261 145.675L264.342 145.66C264.697 145.566 264.934 145.251 264.864 144.925C264.796 144.607 264.419 144.406 264.031 144.508Z" fill="black"/>
<path d="M270.443 144.145L270.353 144.14C270.361 144.126 270.366 144.114 270.374 144.098C270.451 143.895 270.441 143.653 270.327 143.616C270.213 143.579 270.044 143.762 269.975 143.966C269.942 144.062 269.937 144.144 269.95 144.209C269.604 143.795 268.778 143.482 268.083 143.487C267.732 143.484 267.474 143.575 267.291 143.691C267.216 143.74 267.12 143.753 267.035 143.719C266.81 143.633 266.543 143.632 266.278 143.724C265.916 143.843 265.672 144.19 265.649 144.54C265.616 145.209 266.178 145.675 266.756 145.629C266.904 145.616 267.039 145.56 267.16 145.489C267.23 145.448 267.319 145.451 267.39 145.494C267.564 145.603 267.791 145.648 268.093 145.651C268.686 145.649 269.419 145.446 269.838 145.133C269.811 145.193 269.797 145.273 269.804 145.374C269.819 145.59 269.914 145.809 270.015 145.801C270.117 145.793 270.195 145.564 270.186 145.349C270.183 145.332 270.182 145.32 270.179 145.305C270.206 145.311 270.232 145.319 270.26 145.323C270.622 145.367 270.974 145.173 271.039 144.847C271.103 144.527 270.845 144.195 270.443 144.145Z" fill="black"/>
<path d="M276.154 143.645L276.077 143.682C276.076 143.666 276.074 143.653 276.073 143.636C276.035 143.423 275.907 143.216 275.798 143.235C275.689 143.253 275.64 143.49 275.678 143.702C275.696 143.802 275.73 143.877 275.772 143.929C275.282 143.722 274.46 143.763 273.901 143.942C273.762 143.986 273.647 144.037 273.579 144.085C273.527 144.116 273.545 144.126 273.536 144.153C273.533 144.179 273.471 144.207 273.446 144.238C273.391 144.29 273.316 144.299 273.253 144.264C273.084 144.166 272.9 144.126 272.675 144.167C272.371 144.222 272.051 144.45 271.906 144.777C271.636 145.377 271.992 146.064 272.76 146.127C272.948 146.14 273.133 146.106 273.29 146.039C273.384 145.997 273.492 146.001 273.584 146.039C273.647 146.061 273.684 146.088 273.785 146.095C273.88 146.103 274.013 146.099 274.079 146.095C274.252 146.086 274.409 146.056 274.581 146.001C275.245 145.787 275.88 145.273 276.112 144.797C276.116 144.863 276.141 144.941 276.195 145.026C276.313 145.209 276.512 145.351 276.607 145.293C276.702 145.234 276.655 144.997 276.537 144.814C276.526 144.801 276.519 144.792 276.509 144.779L276.592 144.756C276.951 144.62 277.143 144.261 277.023 143.954C276.903 143.646 276.513 143.508 276.154 143.645Z" fill="black"/>
<path d="M248.443 159.672L248.463 159.766C248.447 159.762 248.434 159.759 248.416 159.756C248.195 159.732 247.961 159.807 247.956 159.935C247.951 160.062 248.175 160.187 248.395 160.202C248.498 160.21 248.579 160.192 248.64 160.161C248.322 160.63 248.281 161.59 248.417 162.2C248.487 162.529 248.603 162.76 248.749 162.92C248.809 162.986 248.835 163.077 248.811 163.162C248.747 163.388 248.756 163.64 248.859 163.886C249.001 164.22 249.312 164.462 249.672 164.52C250.342 164.646 250.893 164.023 250.774 163.319C250.747 163.144 250.682 162.987 250.591 162.855C250.538 162.776 250.526 162.676 250.557 162.589C250.633 162.375 250.648 162.101 250.573 161.752C250.412 161.028 249.994 160.372 249.577 160.026C249.643 160.037 249.726 160.03 249.823 159.995C250.032 159.921 250.22 159.766 250.185 159.664C250.15 159.562 249.904 159.545 249.694 159.611C249.679 159.619 249.668 159.624 249.653 159.63L249.65 159.543C249.595 159.16 249.331 158.857 248.989 158.871C248.661 158.883 248.385 159.245 248.443 159.672Z" fill="black"/>
<path d="M249.454 152.922L249.427 153.013C249.414 153.002 249.404 152.994 249.391 152.982C249.208 152.858 248.966 152.814 248.9 152.923C248.834 153.032 248.972 153.246 249.157 153.364C249.244 153.419 249.324 153.442 249.392 153.443C248.884 153.703 248.362 154.485 248.204 155.212C248.108 155.575 248.149 155.867 248.223 156.084C248.255 156.173 248.247 156.276 248.194 156.357C248.049 156.574 248.005 156.857 248.04 157.155C248.085 157.561 248.389 157.886 248.736 157.977C249.399 158.139 249.965 157.648 250.038 157.046C250.053 156.891 250.023 156.741 249.985 156.602C249.96 156.52 249.981 156.43 250.039 156.366C250.187 156.21 250.273 155.987 250.357 155.679C250.489 155.069 250.474 154.268 250.279 153.768C250.332 153.809 250.408 153.842 250.511 153.857C250.729 153.89 250.97 153.841 250.989 153.734C251.007 153.628 250.799 153.496 250.583 153.457C250.566 153.456 250.554 153.455 250.538 153.453L250.577 153.375C250.726 153.015 250.628 152.617 250.322 152.474C250.024 152.333 249.619 152.526 249.454 152.922Z" fill="black"/>
<path d="M253.27 147.273L253.209 147.346C253.201 147.332 253.195 147.321 253.187 147.305C253.062 147.126 252.852 146.998 252.75 147.071C252.646 147.142 252.704 147.395 252.832 147.571C252.893 147.654 252.958 147.704 253.021 147.73C252.458 147.791 251.688 148.297 251.245 148.876C251.027 149.174 250.926 149.438 250.904 149.664C250.895 149.756 250.843 149.844 250.76 149.894C250.548 150.032 250.372 150.253 250.275 150.532C250.135 150.909 250.256 151.332 250.521 151.569C251.034 152.013 251.77 151.828 252.116 151.305C252.201 151.17 252.248 151.022 252.267 150.874C252.281 150.788 252.341 150.715 252.424 150.68C252.625 150.595 252.819 150.435 253.013 150.169C253.407 149.655 253.722 148.894 253.725 148.352C253.758 148.409 253.817 148.468 253.905 148.519C254.097 148.628 254.335 148.66 254.399 148.569C254.461 148.475 254.316 148.281 254.127 148.167C254.112 148.16 254.1 148.155 254.086 148.148L254.154 148.09C254.434 147.804 254.469 147.383 254.234 147.149C253.999 146.914 253.567 146.97 253.27 147.273Z" fill="black"/>
<path d="M248.931 166.726L248.946 166.819C248.93 166.815 248.918 166.812 248.9 166.808C248.681 166.781 248.444 166.851 248.432 166.974C248.417 167.097 248.648 167.222 248.866 167.245C248.97 167.256 249.052 167.241 249.113 167.212C248.786 167.666 248.658 168.567 248.805 169.277C248.886 169.635 249.02 169.885 249.177 170.051C249.241 170.119 249.273 170.215 249.256 170.309C249.221 170.556 249.271 170.833 249.42 171.09C249.613 171.442 250.015 171.635 250.372 171.598C251.05 171.517 251.398 170.855 251.231 170.253C251.185 170.101 251.104 169.968 251.004 169.855C250.948 169.788 250.932 169.695 250.96 169.611C251.03 169.408 251.037 169.158 250.964 168.839C250.834 168.209 250.465 167.472 250.054 167.109C250.12 167.123 250.204 167.119 250.302 167.088C250.512 167.02 250.695 166.867 250.668 166.759C250.638 166.651 250.393 166.628 250.181 166.691C250.165 166.698 250.154 166.703 250.139 166.709L250.14 166.62C250.109 166.225 249.812 165.919 249.478 165.936C249.143 165.953 248.898 166.307 248.931 166.726Z" fill="black"/>
<path d="M258.618 143.018L258.536 143.069C258.533 143.052 258.531 143.04 258.528 143.023C258.466 142.814 258.306 142.63 258.182 142.67C258.06 142.713 258.034 142.969 258.103 143.176C258.136 143.272 258.183 143.34 258.235 143.383C257.678 143.28 256.768 143.552 256.191 144.002C255.891 144.221 255.721 144.445 255.642 144.66C255.609 144.747 255.535 144.818 255.444 144.844C255.196 144.911 254.966 145.067 254.798 145.307C254.566 145.631 254.537 146.045 254.72 146.359C255.057 146.935 255.84 146.994 256.329 146.57C256.45 146.459 256.546 146.337 256.609 146.2C256.647 146.12 256.725 146.064 256.813 146.052C257.028 146.019 257.263 145.916 257.529 145.722C258.042 145.321 258.556 144.7 258.718 144.182C258.733 144.247 258.771 144.32 258.84 144.395C258.989 144.555 259.206 144.66 259.289 144.589C259.373 144.522 259.296 144.293 259.153 144.127C259.14 144.116 259.131 144.107 259.119 144.097L259.201 144.062C259.549 143.879 259.718 143.493 259.579 143.201C259.434 142.897 259.004 142.814 258.618 143.018Z" fill="black"/>
<path d="M265.302 141.234L265.207 141.248C265.211 141.232 265.215 141.22 265.219 141.203C265.253 140.987 265.188 140.754 265.062 140.742C264.937 140.73 264.803 140.944 264.775 141.158C264.762 141.259 264.774 141.34 264.802 141.401C264.349 141.067 263.426 140.923 262.693 141.066C262.322 141.131 262.064 141.276 261.892 141.427C261.822 141.491 261.723 141.523 261.627 141.507C261.372 141.477 261.085 141.529 260.821 141.678C260.464 141.891 260.271 142.278 260.32 142.628C260.426 143.291 261.109 143.617 261.704 143.446C261.856 143.4 261.988 143.321 262.099 143.22C262.166 143.165 262.26 143.15 262.344 143.178C262.551 143.25 262.796 143.245 263.12 143.19C263.751 143.067 264.505 142.72 264.884 142.327C264.868 142.392 264.871 142.474 264.9 142.571C264.964 142.779 265.116 142.972 265.226 142.942C265.335 142.913 265.365 142.672 265.306 142.463C265.299 142.448 265.295 142.437 265.289 142.422L265.379 142.423C265.78 142.39 266.102 142.128 266.093 141.795C266.083 141.47 265.73 141.199 265.302 141.234Z" fill="black"/>
<path d="M260.215 138.85L260.126 138.885C260.127 138.869 260.127 138.856 260.128 138.838C260.11 138.621 259.992 138.409 259.867 138.425C259.742 138.441 259.662 138.68 259.684 138.895C259.695 138.996 259.726 139.072 259.768 139.125C259.249 138.902 258.317 138.97 257.636 139.274C257.29 139.421 257.073 139.621 256.941 139.807C256.888 139.885 256.799 139.938 256.702 139.944C256.447 139.973 256.18 140.088 255.958 140.292C255.661 140.58 255.563 141 255.692 141.329C255.95 141.951 256.691 142.115 257.23 141.813C257.367 141.735 257.478 141.629 257.562 141.505C257.615 141.437 257.703 141.4 257.791 141.409C258.008 141.432 258.246 141.372 258.548 141.245C259.134 140.983 259.786 140.476 260.064 140.008C260.064 140.075 260.085 140.154 260.137 140.242C260.248 140.43 260.441 140.583 260.54 140.529C260.64 140.476 260.613 140.235 260.507 140.045C260.497 140.032 260.489 140.022 260.48 140.009L260.568 139.989C260.951 139.867 261.204 139.539 261.115 139.217C261.031 138.904 260.623 138.72 260.215 138.85Z" fill="black"/>
<path d="M272.084 141.48L271.992 141.482C271.999 141.467 272.003 141.455 272.01 141.438C272.068 141.229 272.035 140.989 271.922 140.961C271.809 140.933 271.655 141.127 271.594 141.336C271.566 141.433 271.566 141.515 271.583 141.579C271.194 141.189 270.382 140.874 269.686 140.821C269.333 140.794 269.064 140.841 268.86 140.939C268.778 140.979 268.677 140.981 268.594 140.938C268.373 140.822 268.1 140.772 267.79 140.829C267.396 140.916 267.084 141.199 266.998 141.546C266.833 142.196 267.383 142.762 268.006 142.783C268.168 142.791 268.326 142.763 268.472 142.709C268.557 142.676 268.654 142.689 268.73 142.741C268.912 142.867 269.165 142.953 269.516 142.979C270.207 143.032 271.076 142.845 271.52 142.507C271.494 142.569 271.483 142.65 271.498 142.75C271.53 142.965 271.662 143.177 271.784 143.163C271.906 143.149 271.968 142.914 271.934 142.7C271.929 142.683 271.926 142.672 271.922 142.656L272.014 142.67C272.437 142.693 272.794 142.438 272.801 142.109C272.81 141.78 272.492 141.503 272.084 141.48Z" fill="black"/>
<path d="M232.08 168.514C232.044 168.637 231.928 168.717 231.798 168.733C229.981 168.943 228.922 169.181 228.111 169.606C227.318 169.988 226.851 170.483 226.858 170.636C226.866 170.789 227.395 171.262 228.44 171.341C228.7 171.37 228.984 171.33 229.295 171.284C229.608 171.243 229.938 171.146 230.273 170.982C230.613 170.836 230.96 170.637 231.285 170.351C231.622 170.092 231.929 169.744 232.198 169.339C232.274 169.226 232.41 169.164 232.547 169.166C233.036 169.16 233.563 169.094 233.765 168.939C233.96 168.768 233.821 168.558 233.108 168.23C232.84 167.48 232.619 167.348 232.479 167.493C232.324 167.629 232.204 168.047 232.08 168.514Z" fill="black"/>
<path d="M236.057 162.508C236.113 162.625 236.097 162.765 236.017 162.864C234.796 164.234 234.25 165.179 233.939 166.007C233.642 166.811 233.659 167.498 233.77 167.604C233.88 167.713 234.588 167.688 235.402 167.03C236.209 166.403 237.02 164.965 236.726 163.05C236.7 162.916 236.745 162.777 236.847 162.69C237.627 162.046 238.181 161.2 236.647 161.628C235.258 160.85 235.665 161.664 236.057 162.508Z" fill="black"/>
<path d="M235.697 155.224C235.804 155.293 235.86 155.423 235.842 155.55C235.578 157.34 235.634 158.468 235.913 159.342C236.147 160.192 236.606 160.718 236.763 160.733C236.917 160.748 237.44 160.298 237.708 159.321C237.946 158.377 237.85 156.793 236.542 155.33C236.451 155.229 236.418 155.086 236.461 154.956C236.73 154.012 236.765 152.964 235.699 154.173C234.137 154.271 234.87 154.74 235.697 155.224Z" fill="black"/>
<path d="M230.976 149.794C231.103 149.771 231.243 149.808 231.312 149.923C232.342 151.416 233.038 152.218 233.789 152.73C234.126 153.002 234.471 153.171 234.748 153.271C235.007 153.382 235.209 153.411 235.279 153.372C235.346 153.335 235.426 153.151 235.454 152.847C235.463 152.555 235.404 152.146 235.218 151.662C234.991 151.208 234.648 150.661 234.047 150.217C233.471 149.757 232.644 149.404 231.673 149.295C231.541 149.271 231.408 149.208 231.347 149.086C230.891 148.183 230.14 147.464 230.244 149.03C229.179 150.199 230.054 149.969 230.976 149.794Z" fill="black"/>
<path d="M223.705 148.964C223.786 148.864 223.919 148.809 224.047 148.844C225.817 149.33 226.946 149.413 227.845 149.31C228.723 149.191 229.325 148.902 229.378 148.733C229.42 148.61 229.082 147.964 228.12 147.568C227.195 147.15 225.551 147.044 223.905 148.136C223.792 148.211 223.647 148.24 223.521 148.187C222.58 147.783 221.534 147.713 222.643 148.844C222.597 150.411 223.113 149.679 223.705 148.964Z" fill="black"/>
<path d="M217.783 153.071C217.772 152.945 217.841 152.823 217.953 152.758C219.547 151.869 220.418 151.245 221.011 150.579C221.58 149.922 221.86 149.332 221.786 149.167C221.755 149.098 221.579 149.007 221.278 148.963C220.976 148.916 220.543 148.914 220.052 149.088C219.076 149.377 217.719 150.418 217.348 152.348C217.323 152.482 217.229 152.595 217.099 152.643C216.164 153.012 215.319 153.647 216.941 153.716C217.992 154.863 217.895 154.001 217.783 153.071Z" fill="black"/>
<path d="M216.027 160.118C215.941 160.02 215.922 159.88 215.973 159.762C216.736 158.098 216.982 156.995 216.956 156.094C216.953 155.22 216.702 154.596 216.558 154.535C216.415 154.474 215.75 154.739 215.225 155.623C214.726 156.482 214.399 158.03 215.238 159.777C215.299 159.899 215.292 160.043 215.216 160.154C214.924 160.56 214.7 161.011 214.733 161.255C214.756 161.502 215.01 161.514 215.701 161.123C216.47 161.333 216.709 161.234 216.674 161.029C216.63 160.822 216.327 160.48 216.027 160.118Z" fill="black"/>
<path d="M218.548 166.901C218.42 166.876 218.318 166.777 218.287 166.655C217.907 164.9 217.537 163.87 217.038 163.114C216.541 162.384 216.008 161.982 215.832 162.015C215.701 162.036 215.264 162.618 215.321 163.634C215.345 164.616 215.943 166.162 217.707 167.098C217.833 167.16 217.917 167.28 217.926 167.414C217.946 167.916 218.074 168.408 218.257 168.585C218.439 168.77 218.638 168.618 218.923 167.882C219.651 167.569 219.768 167.339 219.617 167.207C219.458 167.074 219.006 167.008 218.548 166.901Z" fill="black"/>
<path d="M224.977 170.207C224.867 170.271 224.725 170.264 224.616 170.192C223.086 169.188 222.116 168.715 221.236 168.514C220.385 168.311 219.718 168.35 219.609 168.479C219.518 168.584 219.573 169.31 220.329 170.037C221.048 170.744 222.598 171.444 224.515 170.907C224.647 170.87 224.791 170.905 224.893 171C225.646 171.637 226.588 172.13 225.941 170.659C226.529 169.238 225.779 169.676 224.977 170.207Z" fill="black"/>
<path d="M232.082 175.498C232.015 175.605 231.891 175.662 231.767 175.646C230.887 175.537 230.157 175.449 229.562 175.542C228.951 175.559 228.456 175.692 228.051 175.873C227.24 176.182 226.786 176.664 226.79 176.829C226.794 176.971 227.286 177.454 228.235 177.627C228.705 177.688 229.289 177.675 229.946 177.52C230.586 177.29 231.319 176.98 231.991 176.333C232.086 176.242 232.222 176.21 232.346 176.252C232.799 176.403 233.285 176.521 233.504 176.443C233.723 176.353 233.665 176.107 233.117 175.563C233.099 174.774 232.944 174.574 232.763 174.666C232.575 174.75 232.326 175.103 232.082 175.498Z" fill="black"/>
<path d="M238.125 171.818C238.11 171.939 238.02 172.04 237.898 172.075C237.464 172.202 237.097 172.345 236.768 172.491C236.421 172.614 236.124 172.752 235.866 172.902C235.365 173.224 234.942 173.493 234.654 173.82C234.366 174.147 234.164 174.454 234.034 174.69C233.91 174.935 233.872 175.129 233.907 175.201C233.939 175.268 234.115 175.362 234.404 175.417C234.698 175.481 235.098 175.484 235.557 175.345C236.014 175.208 236.578 175.005 237.072 174.53C237.326 174.305 237.579 174.038 237.82 173.73C238.04 173.4 238.237 173.014 238.408 172.594C238.456 172.476 238.568 172.392 238.702 172.379C239.653 172.245 240.569 171.887 239.055 171.401C238.304 170.039 238.195 170.9 238.125 171.818Z" fill="black"/>
<path d="M241.856 165.862C241.902 165.98 241.872 166.112 241.784 166.199C241.107 166.792 240.667 167.337 240.322 167.825C239.958 168.301 239.799 168.786 239.655 169.183C239.384 169.982 239.5 170.656 239.626 170.755C239.745 170.849 240.407 170.765 241.159 170.149C241.538 169.847 241.853 169.362 242.14 168.757C242.406 168.144 242.53 167.348 242.473 166.45C242.457 166.32 242.514 166.195 242.622 166.124C243.422 165.605 244.143 164.925 242.538 165.1C241.298 164.181 241.519 165 241.856 165.862Z" fill="black"/>
<path d="M242.904 158.894C242.989 158.989 243.008 159.123 242.958 159.235C242.565 160.033 242.312 160.706 242.226 161.299C242.08 161.884 242.078 162.392 242.147 162.824C242.24 163.674 242.589 164.231 242.753 164.271C242.893 164.306 243.5 163.968 243.918 163.115C244.103 162.687 244.246 162.133 244.269 161.474C244.232 160.812 244.097 160.043 243.692 159.226C243.631 159.112 243.638 158.975 243.715 158.872C244.276 158.111 244.709 157.238 243.268 157.944C241.777 157.499 242.279 158.203 242.904 158.894Z" fill="black"/>
<path d="M241.427 152.011C241.541 152.068 241.608 152.186 241.602 152.308C241.535 153.186 241.539 153.896 241.654 154.479C241.724 155.075 241.9 155.549 242.118 155.931C242.478 156.706 243.024 157.109 243.185 157.092C243.335 157.077 243.765 156.56 243.885 155.615C243.907 155.15 243.845 154.581 243.633 153.952C243.375 153.337 242.968 152.654 242.284 152.037C242.184 151.951 242.14 151.821 242.173 151.697C242.294 151.242 242.369 150.762 242.281 150.549C242.181 150.34 241.938 150.412 241.414 150.993C240.624 151.063 240.43 151.23 240.531 151.403C240.621 151.586 241.008 151.8 241.427 152.011Z" fill="black"/>
<path d="M237.259 146.349C237.384 146.355 237.492 146.436 237.538 146.552C238.199 148.164 238.841 149.068 239.537 149.609C240.232 150.131 240.832 150.333 240.992 150.245C241.106 150.184 241.36 149.505 241.023 148.618C240.843 148.187 240.611 147.638 240.092 147.19C239.843 146.958 239.553 146.73 239.222 146.518C238.886 146.31 238.467 146.157 238.031 146.017C237.906 145.978 237.813 145.875 237.79 145.746C237.601 144.809 237.16 143.954 236.776 145.463C235.437 146.299 236.335 146.329 237.259 146.349Z" fill="black"/>
<path d="M230.953 143.113C231.07 143.059 231.206 143.077 231.3 143.156C232.601 144.378 233.621 144.834 234.48 145.033C235.311 145.239 235.996 145.067 236.079 144.949C236.174 144.814 236.035 144.184 235.355 143.492C234.686 142.824 233.344 142.205 231.504 142.463C231.374 142.488 231.241 142.443 231.162 142.343C230.573 141.604 229.825 140.953 230.127 142.508C229.287 143.796 230.102 143.513 230.953 143.113Z" fill="black"/>
<path d="M223.807 142.649C223.895 142.556 224.028 142.524 224.147 142.563C224.99 142.889 225.689 143.053 226.294 143.113C226.9 143.205 227.414 143.163 227.848 143.059C228.7 142.919 229.242 142.514 229.27 142.356C229.295 142.211 228.904 141.663 228.004 141.301C227.555 141.157 226.981 141.064 226.309 141.098C225.638 141.165 224.864 141.391 224.07 141.845C223.959 141.916 223.819 141.922 223.708 141.857C222.88 141.384 221.94 141.049 222.809 142.385C222.517 143.884 223.169 143.327 223.807 142.649Z" fill="black"/>
<path d="M217.076 144.942C217.117 144.824 217.227 144.744 217.352 144.734C218.225 144.631 218.96 144.581 219.519 144.37C220.098 144.208 220.561 144.003 220.915 143.742C221.639 143.275 221.995 142.725 221.957 142.561C221.927 142.425 221.349 142.035 220.379 142.059C219.905 142.098 219.322 142.205 218.718 142.516C218.138 142.873 217.477 143.318 216.976 144.113C216.904 144.221 216.777 144.281 216.646 144.266C215.656 144.133 214.72 144.331 216.063 145.121C216.493 146.64 216.759 145.77 217.076 144.942Z" fill="black"/>
<path d="M212.077 149.902C212.057 149.777 212.107 149.65 212.224 149.592C213.028 149.162 213.547 148.71 214.016 148.328C214.237 148.127 214.417 147.923 214.566 147.718C214.724 147.522 214.867 147.342 214.973 147.156C215.193 146.79 215.303 146.43 215.359 146.157C215.425 145.895 215.418 145.699 215.368 145.638C215.32 145.579 215.126 145.526 214.828 145.535C214.539 145.555 214.162 145.659 213.732 145.881C213.521 145.995 213.287 146.13 213.07 146.319C212.862 146.516 212.653 146.75 212.454 147.023C212.031 147.548 211.76 148.32 211.605 149.202C211.58 149.324 211.506 149.44 211.384 149.487C210.502 149.837 209.659 150.366 211.261 150.514C212.289 151.666 212.233 150.819 212.077 149.902Z" fill="black"/>
<path d="M209.714 156.525C209.647 156.417 209.651 156.283 209.722 156.181C210.237 155.46 210.615 154.849 210.81 154.286C211.063 153.741 211.158 153.246 211.171 152.81C211.266 151.971 211.015 151.346 210.869 151.277C210.733 151.213 210.092 151.432 209.491 152.188C209.228 152.576 208.982 153.097 208.834 153.745C208.746 154.405 208.73 155.191 208.996 156.066C209.036 156.189 209.004 156.323 208.911 156.411C208.224 157.069 207.643 157.861 209.187 157.401C210.578 158.082 210.207 157.309 209.714 156.525Z" fill="black"/>
<path d="M209.916 163.577C209.815 163.498 209.771 163.371 209.801 163.251C210.064 162.398 210.168 161.699 210.176 161.099C210.216 160.496 210.129 159.994 209.985 159.578C209.754 158.752 209.297 158.265 209.132 158.255C208.984 158.245 208.46 158.683 208.189 159.591C208.082 160.042 208.039 160.609 208.132 161.261C208.258 161.91 208.553 162.646 209.079 163.385C209.16 163.488 209.178 163.624 209.121 163.738C208.708 164.586 208.443 165.53 209.73 164.575C211.276 164.743 210.656 164.147 209.916 163.577Z" fill="black"/>
<path d="M212.738 170.013C212.615 169.981 212.526 169.879 212.507 169.757C212.424 169.316 212.352 168.932 212.287 168.586C212.208 168.234 212.108 167.927 211.988 167.657C211.791 167.095 211.539 166.66 211.25 166.329C210.728 165.651 210.134 165.347 209.973 165.396C209.834 165.436 209.491 166.03 209.58 166.978C209.652 167.44 209.812 167.997 210.161 168.569C210.355 168.846 210.59 169.128 210.871 169.404C211.14 169.686 211.486 169.944 211.901 170.165C212.016 170.23 212.085 170.349 212.079 170.479C212.012 171.453 212.261 172.365 212.982 170.997C214.495 170.482 213.606 170.267 212.738 170.013Z" fill="black"/>
<path d="M218.094 174.598C217.965 174.632 217.84 174.579 217.772 174.47C217.277 173.719 216.793 173.23 216.372 172.799C216.153 172.596 215.933 172.434 215.716 172.301C215.516 172.149 215.316 172.029 215.122 171.934C214.33 171.576 213.675 171.537 213.555 171.643C213.441 171.742 213.373 172.434 213.903 173.231C214.032 173.433 214.192 173.644 214.388 173.856C214.601 174.047 214.854 174.235 215.145 174.412C215.708 174.79 216.504 175.017 217.417 175.102C217.543 175.117 217.66 175.195 217.718 175.305C218.135 176.143 218.734 176.932 218.772 175.352C219.871 174.264 219.016 174.38 218.094 174.598Z" fill="black"/>
<path d="M224.987 176.408C224.883 176.483 224.746 176.49 224.637 176.43C223.864 175.983 223.214 175.668 222.63 175.517C222.058 175.313 221.551 175.259 221.107 175.28C220.252 175.242 219.633 175.539 219.573 175.686C219.517 175.825 219.788 176.43 220.599 176.971C221.014 177.199 221.564 177.399 222.235 177.493C222.913 177.532 223.716 177.48 224.581 177.15C224.703 177.1 224.841 177.12 224.939 177.204C225.665 177.82 226.522 178.321 225.919 176.849C226.489 175.431 225.74 175.858 224.987 176.408Z" fill="black"/>
<path d="M230.063 173.025C229.989 173.129 229.858 173.181 229.733 173.16C228.832 172.959 228.124 172.905 227.503 172.869C226.89 172.876 226.376 172.925 225.943 173.037C225.084 173.293 224.55 173.644 224.53 173.825C224.522 173.899 224.623 174.069 224.848 174.264C225.071 174.466 225.42 174.682 225.901 174.801C226.379 174.937 226.987 175.017 227.687 174.874C228.385 174.778 229.168 174.427 229.917 173.859C230.02 173.772 230.162 173.745 230.287 173.791C231.224 174.16 232.228 174.225 231.115 173.116C231.117 171.547 230.611 172.29 230.063 173.025Z" fill="black"/>
<path d="M236.17 169.195C236.165 169.322 236.076 169.427 235.955 169.473C234.278 170.146 233.33 170.728 232.728 171.389C232.121 172.003 231.887 172.647 231.945 172.779C232.012 172.928 232.657 173.164 233.641 172.907C234.128 172.781 234.667 172.481 235.204 172.023C235.456 171.774 235.705 171.482 235.939 171.149C236.17 170.815 236.34 170.393 236.498 169.959C236.541 169.834 236.654 169.743 236.786 169.715C237.725 169.483 238.664 169.05 237.085 168.691C236.249 167.396 236.17 168.247 236.17 169.195Z" fill="black"/>
<path d="M239.376 162.738C239.434 162.853 239.423 162.992 239.34 163.09C238.719 163.777 238.353 164.388 238.04 164.92C237.772 165.469 237.585 165.942 237.501 166.375C237.349 167.24 237.443 167.869 237.596 167.967C237.703 168.04 238.439 167.929 239.093 167.191C239.777 166.49 240.378 165.109 240.054 163.264C240.029 163.135 240.066 162.999 240.168 162.914C240.902 162.287 241.541 161.506 239.966 161.876C238.629 161.082 238.943 161.896 239.376 162.738Z" fill="black"/>
<path d="M239.464 155.526C239.565 155.605 239.624 155.733 239.581 155.858C239.45 156.298 239.361 156.691 239.312 157.051C239.253 157.411 239.189 157.744 239.182 158.048C239.18 158.655 239.187 159.169 239.312 159.598C239.536 160.453 239.914 160.982 240.091 161.003C240.225 161.021 240.822 160.608 241.106 159.676C241.399 158.769 241.418 157.262 240.301 155.717C240.233 155.608 240.2 155.47 240.255 155.35C240.644 154.467 240.852 153.474 239.614 154.5C238.056 154.381 238.707 154.955 239.464 155.526Z" fill="black"/>
<path d="M236.002 149.263C236.128 149.279 236.235 149.369 236.274 149.489C236.799 151.195 237.374 152.133 237.964 152.798C238.582 153.424 239.157 153.726 239.321 153.667C239.451 153.621 239.798 152.982 239.576 152.018C239.415 151.061 238.594 149.72 236.808 148.993C236.682 148.943 236.592 148.832 236.575 148.699C236.44 147.725 236.009 146.826 235.562 148.327C234.171 149.085 235.076 149.161 236.002 149.263Z" fill="black"/>
<path d="M229.627 145.831C229.746 145.772 229.887 145.788 229.982 145.879C231.367 147.046 232.359 147.581 233.245 147.775C234.088 148 234.764 147.903 234.866 147.77C234.954 147.659 234.858 146.974 234.157 146.255C233.459 145.583 232.077 144.86 230.171 145.182C230.041 145.195 229.904 145.153 229.818 145.056C229.185 144.333 228.384 143.7 228.756 145.248C227.944 146.559 228.766 146.253 229.627 145.831Z" fill="black"/>
<path d="M222.335 145.911C222.409 145.806 222.54 145.754 222.665 145.774C223.567 145.975 224.274 146.033 224.893 146.068C225.505 146.057 226.019 146.022 226.451 145.903C227.309 145.663 227.847 145.299 227.868 145.123C227.886 144.995 227.464 144.399 226.501 144.139C225.568 143.848 223.999 143.906 222.481 145.075C222.378 145.163 222.236 145.191 222.11 145.145C221.174 144.779 220.167 144.713 221.283 145.821C221.285 147.389 221.789 146.649 222.335 145.911Z" fill="black"/>
<path d="M216.239 149.755C216.244 149.629 216.332 149.523 216.453 149.477C218.129 148.801 219.075 148.214 219.676 147.554C219.983 147.25 220.187 146.932 220.311 146.671C220.44 146.419 220.489 146.236 220.454 146.161C220.387 146.012 219.74 145.775 218.758 146.037C218.271 146.163 217.735 146.468 217.198 146.925C216.947 147.175 216.698 147.468 216.466 147.801C216.235 148.136 216.067 148.558 215.909 148.992C215.866 149.117 215.754 149.209 215.623 149.237C214.684 149.471 213.745 149.904 215.325 150.261C216.163 151.555 216.241 150.704 216.239 149.755Z" fill="black"/>
<path d="M213.038 156.217C212.98 156.102 212.991 155.962 213.074 155.865C213.695 155.178 214.061 154.567 214.374 154.034C214.642 153.484 214.828 153.012 214.911 152.579C215.064 151.713 214.968 151.084 214.816 150.986C214.708 150.913 213.972 151.025 213.319 151.764C212.636 152.466 212.035 153.846 212.361 155.691C212.385 155.82 212.348 155.956 212.246 156.041C211.512 156.668 210.873 157.448 212.448 157.079C213.785 157.873 213.472 157.059 213.038 156.217Z" fill="black"/>
<path d="M212.948 163.429C212.847 163.35 212.788 163.222 212.831 163.097C212.963 162.657 213.051 162.264 213.102 161.904C213.16 161.543 213.224 161.211 213.232 160.907C213.234 160.3 213.227 159.786 213.102 159.357C212.878 158.502 212.5 157.973 212.323 157.952C212.189 157.934 211.592 158.346 211.308 159.278C211.014 160.185 210.995 161.692 212.11 163.237C212.178 163.346 212.212 163.484 212.156 163.604C211.766 164.487 211.557 165.479 212.796 164.455C214.354 164.576 213.704 164.002 212.948 163.429Z" fill="black"/>
<path d="M216.395 169.701C216.269 169.686 216.163 169.595 216.124 169.475C215.603 167.768 215.033 166.827 214.443 166.161C213.827 165.532 213.252 165.231 213.088 165.289C212.957 165.334 212.61 165.973 212.829 166.936C212.989 167.893 213.805 169.237 215.59 169.97C215.715 170.019 215.804 170.132 215.821 170.264C215.955 171.237 216.381 172.14 216.833 170.638C218.224 169.885 217.323 169.803 216.395 169.701Z" fill="black"/>
<path d="M222.767 173.125C222.65 173.18 222.507 173.174 222.411 173.086C221.027 171.91 220.03 171.396 219.149 171.192C218.304 170.972 217.632 171.061 217.528 171.195C217.442 171.305 217.533 171.997 218.237 172.711C218.93 173.394 220.324 174.097 222.225 173.784C222.356 173.767 222.496 173.799 222.581 173.901C223.218 174.626 224.024 175.26 223.64 173.709C224.44 172.397 223.625 172.703 222.767 173.125Z" fill="black"/>
<path d="M181.071 144.431C181.432 142.532 179.56 140.492 177.485 141.415C177.419 141.434 177.335 141.513 177.416 141.576C179.006 142.526 179.708 144.733 179.006 146.577C178.994 146.629 179.011 146.652 179.038 146.663C179.049 146.691 179.071 146.71 179.113 146.697C180.778 145.918 182.769 146.694 183.627 148.457C183.688 148.55 183.752 148.451 183.772 148.38C184.598 146.084 182.782 144.032 181.071 144.431Z" fill="black"/>
<path d="M189.133 133.644C189.493 131.745 187.622 129.704 185.547 130.628C185.481 130.647 185.396 130.726 185.477 130.789C187.068 131.739 187.77 133.945 187.068 135.79C187.055 135.841 187.073 135.865 187.1 135.876C187.111 135.904 187.132 135.923 187.175 135.91C188.839 135.131 190.831 135.907 191.688 137.67C191.75 137.763 191.813 137.664 191.834 137.593C192.66 135.297 190.843 133.245 189.133 133.644Z" fill="black"/>
<path d="M204.914 131.245C205.274 129.346 203.403 127.306 201.328 128.229C201.262 128.248 201.177 128.327 201.259 128.39C202.849 129.34 203.551 131.546 202.849 133.391C202.836 133.442 202.854 133.466 202.881 133.477C202.892 133.505 202.914 133.524 202.956 133.511C204.621 132.732 206.612 133.508 207.47 135.271C207.531 135.364 207.595 135.265 207.615 135.194C208.441 132.898 206.624 130.846 204.914 131.245Z" fill="black"/>
<path d="M173.622 152.979C173.983 151.081 172.112 149.04 170.037 149.964C169.971 149.983 169.886 150.061 169.967 150.124C171.557 151.075 172.26 153.281 171.557 155.126C171.545 155.177 171.562 155.201 171.589 155.212C171.601 155.24 171.622 155.258 171.665 155.245C173.329 154.467 175.32 155.242 176.178 157.006C176.24 157.098 176.303 157 176.323 156.929C177.149 154.633 175.333 152.58 173.622 152.979Z" fill="black"/>
<path d="M165.689 166.998C166.049 165.1 164.178 163.059 162.103 163.983C162.037 164.001 161.952 164.08 162.033 164.143C163.623 165.094 164.326 167.3 163.623 169.145C163.611 169.196 163.628 169.22 163.656 169.231C163.667 169.259 163.688 169.277 163.731 169.264C165.395 168.486 167.387 169.261 168.244 171.025C168.306 171.117 168.369 171.019 168.39 170.948C169.216 168.652 167.399 166.599 165.689 166.998Z" fill="black"/>
<path d="M191.238 184.308C191.598 182.41 189.727 180.369 187.652 181.293C187.586 181.312 187.501 181.391 187.582 181.453C189.172 182.404 189.875 184.61 189.172 186.455C189.16 186.506 189.178 186.53 189.205 186.541C189.216 186.569 189.237 186.588 189.28 186.574C190.944 185.796 192.936 186.571 193.793 188.335C193.855 188.428 193.918 188.329 193.939 188.258C194.765 185.962 192.948 183.909 191.238 184.308Z" fill="black"/>
<path d="M187.667 144.431C188.027 142.532 186.156 140.492 184.081 141.415C184.015 141.434 183.93 141.513 184.011 141.576C185.601 142.526 186.304 144.733 185.601 146.577C185.589 146.629 185.607 146.652 185.634 146.663C185.645 146.691 185.666 146.71 185.709 146.697C187.373 145.918 189.365 146.694 190.222 148.457C190.284 148.55 190.347 148.451 190.368 148.38C191.194 146.084 189.377 144.032 187.667 144.431Z" fill="black"/>
<path d="M194.262 144.431C194.622 142.532 192.751 140.492 190.676 141.415C190.61 141.434 190.525 141.513 190.606 141.576C192.197 142.526 192.899 144.733 192.196 146.577C192.184 146.629 192.202 146.652 192.229 146.663C192.24 146.691 192.262 146.71 192.304 146.697C193.969 145.918 195.96 146.694 196.818 148.457C196.879 148.55 196.942 148.451 196.963 148.38C197.789 146.084 195.972 144.032 194.262 144.431Z" fill="black"/>
<path d="M200.857 144.431C201.218 142.532 199.346 140.492 197.271 141.415C197.205 141.434 197.121 141.513 197.201 141.576C198.792 142.526 199.494 144.733 198.791 146.577C198.78 146.629 198.797 146.652 198.824 146.663C198.835 146.691 198.857 146.71 198.899 146.697C200.564 145.918 202.555 146.694 203.413 148.457C203.474 148.55 203.538 148.451 203.558 148.38C204.384 146.084 202.568 144.032 200.857 144.431Z" fill="black"/>
<path d="M180.94 174.204C181.315 172.306 179.369 170.265 177.213 171.189C177.144 171.208 177.057 171.287 177.141 171.349C178.793 172.3 179.523 174.506 178.793 176.351C178.781 176.402 178.799 176.426 178.827 176.437C178.839 176.465 178.861 176.484 178.904 176.47C180.635 175.692 182.704 176.467 183.596 178.231C183.66 178.324 183.725 178.225 183.747 178.154C184.605 175.858 182.718 173.805 180.94 174.204Z" fill="black"/>
<path d="M187.794 174.204C188.169 172.306 186.224 170.265 184.067 171.189C183.998 171.208 183.911 171.287 183.995 171.349C185.648 172.3 186.378 174.506 185.648 176.351C185.635 176.402 185.653 176.426 185.681 176.437C185.693 176.465 185.715 176.484 185.759 176.47C187.489 175.692 189.558 176.467 190.45 178.231C190.514 178.324 190.58 178.225 190.601 178.154C191.46 175.858 189.572 173.805 187.794 174.204Z" fill="black"/>
<path d="M194.648 174.204C195.023 172.306 193.078 170.265 190.922 171.189C190.853 171.208 190.765 171.287 190.849 171.349C192.502 172.3 193.232 174.506 192.502 176.351C192.489 176.402 192.507 176.426 192.536 176.437C192.547 176.465 192.57 176.484 192.613 176.47C194.343 175.692 196.413 176.467 197.304 178.231C197.368 178.324 197.434 178.225 197.455 178.154C198.314 175.858 196.426 173.805 194.648 174.204Z" fill="black"/>
<path d="M201.503 174.204C201.877 172.306 199.932 170.265 197.776 171.189C197.707 171.208 197.619 171.287 197.703 171.349C199.356 172.3 200.086 174.506 199.356 176.351C199.343 176.402 199.362 176.426 199.39 176.437C199.402 176.465 199.424 176.484 199.467 176.47C201.197 175.692 203.267 176.467 204.158 178.231C204.223 178.324 204.288 178.225 204.309 178.154C205.168 175.858 203.28 173.805 201.503 174.204Z" fill="black"/>
<path d="M183.223 167.027C183.688 165.245 181.803 163.392 179.572 164.312C179.501 164.331 179.408 164.407 179.491 164.464C181.127 165.306 181.77 167.346 180.946 169.087C180.931 169.135 180.949 169.157 180.977 169.167C180.988 169.192 181.01 169.209 181.054 169.196C182.846 168.423 184.914 169.092 185.741 170.714C185.802 170.799 185.873 170.705 185.897 170.638C186.872 168.472 185.046 166.607 183.223 167.027Z" fill="black"/>
<path d="M187.239 163.246C187.704 161.465 185.82 159.612 183.588 160.531C183.518 160.551 183.425 160.627 183.508 160.683C185.144 161.526 185.787 163.565 184.963 165.307C184.948 165.355 184.965 165.377 184.994 165.386C185.004 165.412 185.026 165.429 185.07 165.415C186.863 164.643 188.93 165.312 189.757 166.933C189.818 167.018 189.889 166.925 189.914 166.857C190.889 164.692 189.063 162.827 187.239 163.246Z" fill="black"/>
<path d="M191.256 159.466C191.721 157.685 189.837 155.832 187.605 156.751C187.535 156.771 187.441 156.847 187.524 156.903C189.161 157.746 189.804 159.786 188.979 161.527C188.965 161.575 188.982 161.597 189.01 161.606C189.021 161.632 189.043 161.649 189.087 161.635C190.88 160.863 192.947 161.532 193.774 163.154C193.835 163.239 193.906 163.145 193.93 163.078C194.906 160.912 193.08 159.047 191.256 159.466Z" fill="black"/>
<path d="M195.273 155.686C195.738 153.905 193.853 152.052 191.621 152.971C191.551 152.991 191.458 153.067 191.541 153.123C193.177 153.966 193.82 156.005 192.996 157.747C192.981 157.795 192.998 157.817 193.027 157.826C193.037 157.852 193.059 157.869 193.104 157.855C194.896 157.083 196.964 157.751 197.79 159.373C197.851 159.458 197.923 159.365 197.947 159.297C198.922 157.132 197.096 155.267 195.273 155.686Z" fill="black"/>
<path d="M199.289 151.906C199.754 150.125 197.87 148.272 195.638 149.191C195.567 149.211 195.475 149.287 195.558 149.343C197.193 150.187 197.836 152.225 197.013 153.967C196.997 154.015 197.015 154.037 197.044 154.046C197.054 154.072 197.076 154.089 197.121 154.075C198.912 153.303 200.98 153.972 201.807 155.593C201.868 155.678 201.939 155.584 201.964 155.517C202.938 153.352 201.113 151.487 199.289 151.906Z" fill="black"/>
<path d="M165.74 183.855H179.005C185.034 183.855 189.153 187.852 189.153 192.885C189.153 196.142 187.395 198.904 184.832 200.187V200.483C187.847 202.013 189.807 205.319 189.807 208.822C189.807 214.249 185.134 218.394 178.904 218.394H165.74V183.855ZM178.602 198.559C181.768 198.559 184.079 196.388 184.079 193.378C184.079 190.369 181.768 188.247 178.602 188.247H170.714V198.559H178.602ZM179.054 214.002C182.12 214.002 184.732 211.486 184.732 208.477C184.732 205.466 182.12 202.901 179.054 202.901H170.714V214.002H179.054Z" fill="black"/>
<path d="M197.189 183.855H210.454C216.483 183.855 220.855 188.148 220.855 193.872C220.855 198.46 218.091 201.914 213.569 203.246L222.111 218.394H216.534L208.544 204.135H202.163V218.394H197.189V183.855ZM209.951 199.743C213.217 199.743 215.78 197.177 215.78 193.97C215.78 190.813 213.217 188.247 209.951 188.247H202.163V199.743H209.951Z" fill="black"/>
<path d="M229.192 183.855H234.266L251.952 209.907H252.253V183.855H257.077V218.394H252.002L234.266 192.342H233.965V218.394H229.192V183.855Z" fill="black"/>
<path d="M265.061 201.124C265.061 190.763 272.598 183.312 282.998 183.312C293.399 183.312 300.936 190.763 300.936 201.124C300.936 211.485 293.399 218.936 282.998 218.936C272.598 218.936 265.061 211.485 265.061 201.124ZM282.998 214.446C290.535 214.446 295.861 208.969 295.861 201.124C295.861 193.279 290.535 187.802 282.998 187.802C275.411 187.802 270.136 193.279 270.136 201.124C270.136 208.969 275.411 214.446 282.998 214.446Z" fill="black"/>
<path d="M232.787 156.948C232.896 157.024 232.959 157.156 232.925 157.288C232.541 159.093 232.405 160.21 232.501 161.114C232.542 161.557 232.628 161.928 232.712 162.201C232.809 162.478 232.915 162.654 232.987 162.682C233.062 162.709 233.258 162.648 233.499 162.454C233.751 162.263 234.041 161.934 234.266 161.443C234.491 160.954 234.633 160.303 234.583 159.545C234.503 158.795 234.268 157.915 233.638 157.113C233.56 156.998 233.521 156.851 233.565 156.719C233.737 156.236 233.802 155.705 233.697 155.457C233.594 155.201 233.355 155.273 232.813 155.869C232.021 155.884 231.829 156.064 231.914 156.244C232.007 156.428 232.399 156.662 232.787 156.948Z" fill="black"/>
<path d="M220.698 154.779C220.686 154.644 220.772 154.527 220.893 154.471C221.742 154.072 222.389 153.804 222.942 153.57C223.484 153.328 223.921 153.097 224.295 152.864C224.667 152.632 224.967 152.398 225.181 152.202C225.392 151.993 225.509 151.831 225.502 151.753C225.495 151.677 225.355 151.523 225.071 151.397C224.787 151.258 224.356 151.142 223.795 151.17C223.24 151.197 222.552 151.38 221.889 151.842C221.222 152.284 220.611 153.048 220.322 154.017C220.28 154.152 220.167 154.26 220.041 154.311C219.8 154.4 219.555 154.507 219.352 154.624C219.163 154.747 219.013 154.878 218.944 154.994C218.804 155.234 219.011 155.373 219.82 155.421C220.325 156.024 220.588 156.06 220.677 155.883C220.723 155.791 220.731 155.635 220.72 155.437C220.723 155.249 220.712 155.02 220.698 154.779Z" fill="black"/>
<path d="M224.971 166.734C224.855 166.793 224.705 166.798 224.601 166.708C223.845 166.158 223.317 165.684 222.845 165.325C222.368 164.974 221.977 164.68 221.585 164.475C220.843 164.036 220.185 163.831 220.034 163.92C219.918 163.983 219.723 164.705 220.276 165.683C220.568 166.145 221.035 166.682 221.766 167.038C222.48 167.4 223.433 167.614 224.447 167.414C224.587 167.398 224.74 167.422 224.842 167.52C225.213 167.885 225.674 168.166 225.946 168.183C226.224 168.203 226.262 167.96 225.949 167.223C226.278 166.515 226.197 166.267 225.994 166.264C225.783 166.264 225.398 166.516 224.971 166.734Z" fill="black"/>
<path d="M232.445 178.969C232.37 179.082 232.231 179.118 232.101 179.096C230.254 178.779 229.034 178.907 228.157 179.268C227.286 179.551 226.806 180.055 226.81 180.213C226.813 180.363 227.328 180.822 228.318 181.024C229.287 181.157 230.791 181.007 232.297 179.791C232.402 179.706 232.551 179.695 232.676 179.733C233.602 180.034 234.616 180.178 233.514 179.025C233.579 177.473 232.992 178.164 232.445 178.969Z" fill="black"/>
<path d="M246.045 162.612C246.112 162.724 246.106 162.865 246.035 162.975C245.56 163.758 245.165 164.416 244.966 165.021C244.784 165.629 244.652 166.144 244.635 166.6C244.614 167.054 244.681 167.44 244.769 167.721C244.836 167.994 244.937 168.166 245.012 168.196C245.083 168.224 245.282 168.171 245.542 168.011C245.781 167.843 246.07 167.561 246.342 167.147C246.61 166.733 246.888 166.191 246.959 165.495C247.047 164.805 247.072 163.993 246.762 163.077C246.723 162.948 246.756 162.807 246.85 162.712C247.194 162.363 247.522 161.976 247.551 161.74C247.57 161.503 247.322 161.434 246.576 161.679C245.856 161.317 245.604 161.361 245.603 161.579C245.592 161.797 245.799 162.2 246.045 162.612Z" fill="black"/>
<path d="M238.141 142.72C238.272 142.717 238.395 142.791 238.457 142.906C238.672 143.32 238.916 143.643 239.115 143.972C239.316 144.3 239.523 144.576 239.734 144.812C240.176 145.264 240.55 145.642 240.942 145.885C241.733 146.36 242.389 146.487 242.52 146.392C242.642 146.305 242.77 145.598 242.296 144.726C242.066 144.288 241.736 143.768 241.151 143.356C240.868 143.141 240.544 142.933 240.179 142.744C239.816 142.552 239.362 142.438 238.896 142.327C238.763 142.298 238.653 142.2 238.613 142.072C238.54 141.836 238.456 141.6 238.363 141.407C238.261 141.227 238.154 141.085 238.052 141.02C237.844 140.888 237.67 141.072 237.544 141.84C236.887 142.295 236.811 142.537 237.002 142.639C237.099 142.692 237.266 142.71 237.472 142.711C237.67 142.725 237.902 142.727 238.141 142.72Z" fill="black"/>
<path d="M223.674 139.245C223.769 139.156 223.909 139.111 224.035 139.165C224.924 139.525 225.664 139.657 226.309 139.728C226.953 139.822 227.501 139.782 227.959 139.679C228.867 139.502 229.422 139.132 229.447 138.963C229.469 138.828 229.045 138.243 228.098 137.92C227.626 137.775 227.026 137.682 226.323 137.715C225.621 137.769 224.813 138.025 223.969 138.446C223.85 138.502 223.704 138.521 223.588 138.453C222.733 137.983 221.767 137.65 222.632 138.989C222.272 140.498 222.985 139.931 223.674 139.245Z" fill="black"/>
<path d="M207.146 152.683C207.101 152.562 207.133 152.424 207.223 152.329C207.547 151.99 207.808 151.667 208.027 151.359C208.276 151.063 208.475 150.778 208.634 150.503C208.793 150.228 208.91 149.961 208.999 149.706C209.111 149.465 209.191 149.232 209.245 149.012C209.453 148.132 209.294 147.454 209.173 147.375C209.032 147.285 208.363 147.445 207.668 148.166C207.494 148.345 207.317 148.557 207.149 148.804C207.004 149.063 206.872 149.358 206.759 149.689C206.646 150.019 206.553 150.386 206.491 150.785C206.463 151.195 206.472 151.639 206.524 152.11C206.538 152.242 206.48 152.375 206.368 152.454C205.531 153.028 204.939 153.794 206.489 153.522C207.807 154.447 207.458 153.554 207.146 152.683Z" fill="black"/>
<path d="M211.421 173.779C211.293 173.756 211.189 173.658 211.152 173.533C211.028 173.084 210.864 172.715 210.733 172.355C210.605 171.993 210.461 171.68 210.304 171.406C209.969 170.871 209.67 170.43 209.341 170.111C208.669 169.484 208.035 169.24 207.893 169.304C207.75 169.37 207.499 170.03 207.778 170.978C207.907 171.455 208.13 172.022 208.613 172.545C208.844 172.812 209.116 173.081 209.433 173.341C209.752 173.597 210.167 173.806 210.6 174.009C210.724 174.065 210.81 174.182 210.822 174.317C210.853 174.818 210.972 175.294 211.15 175.46C211.325 175.632 211.534 175.487 211.82 174.761C212.559 174.45 212.684 174.228 212.519 174.09C212.348 173.954 211.88 173.877 211.421 173.779Z" fill="black"/>
<path d="M243.568 171.964C243.571 172.093 243.497 172.212 243.382 172.271C242.591 172.714 241.912 173.076 241.447 173.501C241.208 173.707 241.017 173.926 240.845 174.129C240.661 174.321 240.513 174.515 240.392 174.704C239.91 175.458 239.858 176.151 239.96 176.274C240.055 176.39 240.731 176.441 241.612 175.998C241.832 175.887 242.064 175.746 242.299 175.57C242.523 175.383 242.734 175.146 242.945 174.876C243.354 174.325 243.786 173.653 243.963 172.713C243.991 172.584 244.088 172.479 244.217 172.443C245.16 172.178 246.074 171.749 244.486 171.425C243.626 170.145 243.542 171.025 243.568 171.964Z" fill="black"/>
<path d="M243.051 142.908C243.178 142.939 243.264 143.05 243.285 143.177C243.416 144.098 243.698 144.759 243.932 145.343C244.17 145.922 244.478 146.353 244.798 146.681C245.391 147.352 245.999 147.627 246.158 147.565C246.291 147.514 246.591 146.873 246.416 145.916C246.307 145.45 246.088 144.902 245.706 144.332C245.329 143.761 244.671 143.236 243.879 142.752C243.765 142.686 243.699 142.559 243.699 142.428C243.669 141.484 243.464 140.519 242.739 141.921C241.234 142.408 242.097 142.697 243.051 142.908Z" fill="black"/>
<path d="M213.186 139.486C213.23 139.367 213.343 139.285 213.474 139.271C214.401 139.175 215.102 138.966 215.719 138.785C216.322 138.587 216.766 138.279 217.132 138.015C217.864 137.502 218.168 136.887 218.118 136.736C218.072 136.594 217.453 136.297 216.46 136.379C215.968 136.427 215.413 136.64 214.811 136.98C214.199 137.298 213.612 137.887 213.084 138.66C213.009 138.769 212.879 138.831 212.743 138.818C211.744 138.724 210.795 138.922 212.15 139.704C212.558 141.237 212.866 140.348 213.186 139.486Z" fill="black"/>
<path d="M204.367 165.336C204.265 165.254 204.22 165.122 204.249 164.997C204.421 164.12 204.576 163.371 204.542 162.742C204.515 162.115 204.386 161.595 204.26 161.165C203.973 160.313 203.461 159.845 203.3 159.848C203.148 159.85 202.679 160.341 202.468 161.284C202.344 161.755 202.346 162.334 202.508 162.994C202.674 163.651 202.918 164.403 203.53 165.145C203.611 165.25 203.63 165.39 203.574 165.51C203.167 166.385 202.906 167.342 204.189 166.372C205.741 166.564 205.111 165.928 204.367 165.336Z" fill="black"/>
<path d="M224.908 183.015C224.801 183.09 224.659 183.096 224.544 183.036C223.725 182.637 223.029 182.327 222.409 182.173C221.789 182.023 221.244 182.026 220.794 182.022C219.89 182.058 219.286 182.409 219.242 182.562C219.201 182.706 219.547 183.284 220.419 183.747C220.85 184 221.425 184.133 222.117 184.167C222.807 184.203 223.615 184.136 224.502 183.757C224.627 183.707 224.77 183.727 224.872 183.811C225.627 184.428 226.499 184.93 225.88 183.457C226.474 182.04 225.684 182.466 224.908 183.015Z" fill="black"/>
</g>
</svg>
