<svg width="240" height="179" viewBox="0 0 240 179" fill="none" xmlns="http://www.w3.org/2000/svg">
<g clip-path="url(#clip0_5653_65749)">
<mask id="mask0_5653_65749" style="mask-type:luminance" maskUnits="userSpaceOnUse" x="-145" y="0" width="515" height="179">
<path d="M240 0H0V179H240V0Z" fill="white"/>
<path d="M171.228 5.71502C176.031 4.35478 182.718 13.12 185.406 22.643C185.562 23.4381 185.656 24.018 185.784 24.7398L189.051 22.6777C204.396 14.8041 222.33 19.2931 229.116 32.7084C235.924 46.1286 229.044 63.3892 213.773 71.2345L210.222 72.675C210.731 73.1913 211.109 73.5891 211.656 74.1361C217.744 81.8951 220.927 92.4905 217.074 95.5843C213.204 98.6517 203.71 93.081 197.6 85.3173C194.736 81.6795 193.228 78.2558 192.732 75.2827C184.915 97.9452 159.401 124.243 134.144 137.609C121.303 144.344 110.345 146.628 100.888 145.783C97.0193 145.452 93.2037 147.078 90.9722 150.289C87.1555 155.717 82.1118 160.354 75.9284 163.708C51.298 177.057 19.3512 164.487 11.0941 135.293C6.66197 119.61 11.5327 102.168 23.4845 91.0294C32.2649 82.8245 42.7531 78.8478 53.0988 78.5063C56.9663 78.3447 60.4667 76.1332 62.3777 72.7608C67.0998 64.4738 75.3202 56.6799 88.3385 49.8498C113.976 36.2791 150.378 30.3751 173.375 37.4301C171.249 35.2767 169.339 32.0541 168.085 27.592C165.371 18.0855 166.445 7.08018 171.228 5.71502ZM343.683 107.219C345.718 106.643 348.552 110.357 349.691 114.393C349.757 114.73 349.797 114.976 349.852 115.281L351.236 114.407C357.739 111.07 365.339 112.973 368.215 118.658C371.099 124.345 368.184 131.66 361.712 134.984L360.208 135.595C360.423 135.813 360.583 135.982 360.815 136.214C363.395 139.502 364.744 143.992 363.111 145.303C361.471 146.603 357.447 144.242 354.858 140.952C353.645 139.411 353.006 137.96 352.796 136.7C349.483 146.303 338.671 157.448 327.968 163.112C322.526 165.966 317.883 166.934 313.875 166.575C312.236 166.436 310.619 167.124 309.674 168.486C308.056 170.785 305.918 172.75 303.297 174.172C292.86 179.829 279.322 174.502 275.823 162.13C273.945 155.484 276.009 148.093 281.074 143.373C284.795 139.896 289.239 138.211 293.623 138.066C295.262 137.997 296.745 137.06 297.555 135.631C299.556 132.119 303.04 128.816 308.557 125.922C319.421 120.171 334.848 117.669 344.593 120.659C343.692 119.746 342.883 118.381 342.351 116.49C341.201 112.461 341.656 107.797 343.683 107.219ZM-75.5635 1.16578C-73.528 0.589373 -70.6941 4.30364 -69.555 8.33917C-69.4888 8.67614 -69.449 8.92192 -69.3945 9.22776L-68.0106 8.35378C-61.5078 5.0172 -53.9078 6.91988 -51.0318 12.6049C-48.147 18.292 -51.0624 25.6067 -57.5338 28.9313L-59.039 29.5414C-58.8233 29.7601 -58.6628 29.9287 -58.4313 30.1605C-55.8511 33.4485 -54.5023 37.9388 -56.1351 39.2498C-57.7754 40.5496 -61.7987 38.1886 -64.3878 34.8986C-65.6016 33.357 -66.2406 31.9061 -66.4504 30.6463C-69.7632 40.2499 -80.5754 51.3942 -91.2784 57.058C-96.72 59.9125 -101.364 60.8806 -105.371 60.5226C-107.011 60.3823 -108.628 61.0712 -109.574 62.4323C-111.191 64.7317 -113.328 66.697 -115.949 68.1184C-126.386 73.7755 -139.924 68.4484 -143.424 56.0767C-145.302 49.4311 -143.237 42.0393 -138.173 37.3192C-134.451 33.8423 -130.007 32.1571 -125.623 32.0123C-123.984 31.9438 -122.501 31.0069 -121.691 29.5778C-119.69 26.066 -116.206 22.7631 -110.69 19.8687C-99.8252 14.1179 -84.399 11.616 -74.6538 14.6056C-75.5545 13.6931 -76.3635 12.3272 -76.8954 10.4363C-78.0451 6.40777 -77.59 1.74429 -75.5635 1.16578Z" fill="black"/>
</mask>
<g mask="url(#mask0_5653_65749)">
<path d="M240 0H0V179H240V0Z" fill="#F9F0E4"/>
</g>
<path d="M80.3338 8.35206L78.9495 9.22609C78.8949 8.92015 78.8552 8.67442 78.7889 8.33739C77.6504 4.30182 74.8159 0.587353 72.7804 1.16384C70.754 1.74236 70.2989 6.40604 71.4491 10.4347C71.9804 12.3255 72.79 13.6912 73.6906 14.6038C63.9455 11.6141 48.5191 14.116 37.6547 19.8669C32.1381 22.7613 28.6543 26.064 26.6532 29.5758C25.8435 31.005 24.36 31.9421 22.7211 32.0106C18.3369 32.1554 13.8924 33.8405 10.1716 37.3174C5.1067 42.0374 3.04252 49.4292 4.92074 56.0749C8.41981 68.4465 21.9579 73.7736 32.3955 68.1166C35.0159 66.6952 37.1535 64.7299 38.771 62.4305C39.7164 61.0694 41.3334 60.3804 42.973 60.5202C46.9806 60.8788 51.6239 59.9107 57.0655 57.0562C67.7691 51.3925 78.5807 40.2484 81.8936 30.6447C82.1034 31.9045 82.7428 33.3552 83.9566 34.8969C86.5457 38.1869 90.5691 40.5478 92.2088 39.2478C93.8416 37.9368 92.4928 33.4467 89.9126 30.1587C89.6811 29.9268 89.5206 29.7582 89.305 29.5394L90.8101 28.9292C97.2816 25.6046 100.197 18.2899 97.3124 12.6029C94.4361 6.91778 86.8366 5.01546 80.3338 8.35206Z" fill="#E8D9C4"/>
<path d="M213.488 114.408L212.103 115.282C212.049 114.976 212.009 114.73 211.943 114.393C210.804 110.357 207.97 106.643 205.934 107.22C203.908 107.798 203.453 112.462 204.603 116.49C205.134 118.381 205.944 119.747 206.844 120.659C197.099 117.67 181.673 120.172 170.808 125.922C165.292 128.817 161.808 132.12 159.807 135.631C158.997 137.061 157.514 137.997 155.875 138.066C151.491 138.211 147.046 139.896 143.325 143.373C138.26 148.093 136.196 155.485 138.075 162.131C141.573 174.502 155.112 179.829 165.549 174.172C168.17 172.751 170.307 170.786 171.925 168.486C172.87 167.125 174.487 166.436 176.127 166.576C180.134 166.934 184.778 165.966 190.219 163.112C200.923 157.448 211.734 146.304 215.047 136.701C215.257 137.96 215.897 139.411 217.11 140.953C219.699 144.242 223.723 146.603 225.362 145.304C226.995 143.992 225.646 139.503 223.066 136.214C222.835 135.982 222.674 135.814 222.459 135.595L223.964 134.985C230.435 131.66 233.351 124.346 230.466 118.659C227.59 112.974 219.99 111.071 213.488 114.408Z" fill="#E8D9C4"/>
</g>
<defs>
<clipPath id="clip0_5653_65749">
<rect width="240" height="179" fill="white"/>
</clipPath>
</defs>
</svg>
