<svg width="300" height="223" viewBox="0 0 300 223" fill="none" xmlns="http://www.w3.org/2000/svg">
<g clip-path="url(#clip0_5653_65749)">
<mask id="mask0_5653_65749" style="mask-type:luminance" maskUnits="userSpaceOnUse" x="-181" y="0" width="643" height="223">
<path d="M300 0H0V223H300V0Z" fill="white"/>
<path d="M214.035 7.11982C220.038 5.42522 228.398 16.345 231.757 28.2088C231.953 29.1995 232.07 29.9219 232.231 30.8211L236.314 28.2521C255.495 18.4431 277.912 24.0355 286.395 40.7485C294.905 57.4675 286.305 78.9709 267.216 88.7447L262.778 90.5392C263.413 91.1825 263.887 91.678 264.57 92.3595C272.18 102.026 276.158 115.226 271.342 119.08C266.505 122.901 254.637 115.961 247 106.289C243.42 101.757 241.535 97.4918 240.915 93.7879C231.144 122.021 199.252 154.784 167.68 171.434C151.629 179.826 137.932 182.671 126.111 181.618C121.274 181.205 116.505 183.231 113.715 187.232C108.944 193.993 102.64 199.771 94.9107 203.949C64.1226 220.58 24.1891 204.919 13.8678 168.549C8.32758 149.011 14.416 127.281 29.3557 113.405C40.3312 103.184 53.4415 98.2294 66.3736 97.8039C71.208 97.6027 75.5835 94.8475 77.9723 90.6461C83.8749 80.3221 94.1504 70.6124 110.423 62.1034C142.47 45.1968 187.973 37.8416 216.719 46.6307C214.062 43.9481 211.674 39.9333 210.106 34.3744C206.714 22.531 208.056 8.82056 214.035 7.11982ZM429.603 133.574C432.148 132.856 435.69 137.484 437.114 142.511C437.197 142.932 437.246 143.238 437.315 143.619L439.045 142.53C447.174 138.373 456.674 140.743 460.268 147.825C463.874 154.91 460.23 164.023 452.14 168.165L450.26 168.925C450.529 169.198 450.729 169.408 451.019 169.697C454.244 173.793 455.93 179.386 453.889 181.02C451.839 182.639 446.809 179.698 443.573 175.6C442.056 173.679 441.257 171.872 440.995 170.302C436.854 182.266 423.339 196.15 409.96 203.206C403.158 206.762 397.354 207.968 392.344 207.521C390.295 207.347 388.274 208.205 387.092 209.901C385.07 212.766 382.397 215.214 379.122 216.985C366.075 224.032 349.152 217.396 344.779 201.983C342.431 193.704 345.011 184.495 351.342 178.615C355.993 174.284 361.549 172.184 367.029 172.004C369.078 171.918 370.932 170.751 371.944 168.971C374.445 164.595 378.8 160.481 385.696 156.874C399.277 149.71 418.56 146.593 430.742 150.318C429.615 149.181 428.603 147.48 427.939 145.124C426.501 140.105 427.07 134.295 429.603 133.574ZM-94.4542 1.45234C-91.9098 0.734244 -88.3675 5.36152 -86.9436 10.389C-86.8608 10.8088 -86.8112 11.115 -86.7429 11.496L-85.0131 10.4072C-76.8847 6.25047 -67.3847 8.62085 -63.7896 15.7033C-60.1836 22.7883 -63.8278 31.9011 -71.9171 36.0429L-73.7986 36.803C-73.529 37.0755 -73.3284 37.2855 -73.039 37.5742C-69.8138 41.6704 -68.1277 47.2645 -70.1688 48.8978C-72.2191 50.5171 -77.2482 47.5757 -80.4847 43.4771C-82.0019 41.5565 -82.8006 39.7489 -83.0628 38.1795C-87.2039 50.1438 -100.719 64.0274 -114.098 71.0835C-120.9 74.6396 -126.705 75.8457 -131.714 75.3997C-133.763 75.2248 -135.785 76.0832 -136.967 77.7788C-138.989 80.6435 -141.66 83.0918 -144.936 84.8626C-157.983 91.9102 -174.905 85.2737 -179.279 69.8609C-181.627 61.5817 -179.046 52.3729 -172.716 46.4927C-168.064 42.1611 -162.509 40.0616 -157.028 39.8812C-154.98 39.7959 -153.126 38.6287 -152.114 36.8484C-149.612 32.4733 -145.258 28.3585 -138.362 24.7527C-124.781 17.5882 -105.499 14.4714 -93.3171 18.1958C-94.4429 17.059 -95.4542 15.3573 -96.1191 13.0017C-97.5562 7.98286 -96.9873 2.17306 -94.4542 1.45234Z" fill="black"/>
</mask>
<g mask="url(#mask0_5653_65749)">
<path d="M300 0H0V223H300V0Z" fill="#F9F0E4"/>
</g>
<path d="M100.417 10.4046L98.6868 11.4935C98.6186 11.1123 98.5689 10.8062 98.4862 10.3863C97.063 5.35875 93.5199 0.731231 90.9756 1.44943C88.4424 2.17015 87.8736 7.98021 89.3113 12.9991C89.9756 15.3548 90.9875 17.0562 92.1133 18.193C79.9319 14.4685 60.6489 17.5854 47.0684 24.7499C40.1726 28.3558 35.8179 32.4702 33.3165 36.8453C32.3044 38.6258 30.4501 39.7933 28.4014 39.8786C22.9212 40.059 17.3656 42.1583 12.7145 46.4899C6.38338 52.3701 3.80315 61.5789 6.15093 69.8582C10.5248 85.2709 27.4474 91.9075 40.4944 84.8599C43.7699 83.0891 46.4418 80.6407 48.4637 77.776C49.6456 76.0804 51.6668 75.222 53.7163 75.3962C58.7258 75.8429 64.5299 74.6368 71.3318 71.0807C84.7113 64.0248 98.2259 50.1413 102.367 38.177C102.629 39.7464 103.429 41.5538 104.946 43.4744C108.182 47.5731 113.211 50.5143 115.261 48.8948C117.302 47.2615 115.616 41.6677 112.391 37.5715C112.101 37.2826 111.901 37.0725 111.631 36.7999L113.513 36.0398C121.602 31.898 125.246 22.7853 121.64 15.7003C118.045 8.61774 108.546 6.24781 100.417 10.4046Z" fill="#E8D9C4"/>
<path d="M266.86 142.53L265.129 143.619C265.061 143.238 265.012 142.932 264.928 142.512C263.505 137.484 259.962 132.856 257.418 133.575C254.885 134.295 254.316 140.106 255.754 145.125C256.418 147.48 257.43 149.182 258.556 150.318C246.374 146.594 227.091 149.711 213.51 156.875C206.615 160.481 202.26 164.596 199.759 168.971C198.747 170.751 196.893 171.918 194.844 172.004C189.363 172.184 183.808 174.284 179.157 178.616C172.826 184.495 170.246 193.704 172.593 201.984C176.967 217.397 193.89 224.033 206.937 216.986C210.212 215.215 212.884 212.766 214.906 209.901C216.088 208.206 218.109 207.347 220.159 207.522C225.168 207.968 230.972 206.763 237.774 203.206C251.154 196.15 264.668 182.267 268.809 170.303C269.071 171.872 269.871 173.679 271.388 175.6C274.624 179.698 279.654 182.64 281.703 181.021C283.744 179.387 282.058 173.793 278.833 169.697C278.544 169.408 278.343 169.198 278.074 168.925L279.955 168.165C288.044 164.024 291.689 154.911 288.083 147.826C284.487 140.743 274.988 138.373 266.86 142.53Z" fill="#E8D9C4"/>
</g>
<defs>
<clipPath id="clip0_5653_65749">
<rect width="300" height="223" fill="white"/>
</clipPath>
</defs>
</svg>
