<svg width="320" height="238" viewBox="0 0 320 238" fill="none" xmlns="http://www.w3.org/2000/svg">
<g clip-path="url(#clip0_5653_65749)">
<mask id="mask0_5653_65749" style="mask-type:luminance" maskUnits="userSpaceOnUse" x="-193" y="0" width="686" height="238">
<path d="M320 0H0V238H320V0Z" fill="white"/>
<path d="M228.303 7.59879C234.707 5.7902 243.624 17.4445 247.207 30.1063C247.416 31.1636 247.541 31.9346 247.712 32.8943L252.068 30.1525C272.527 19.6837 296.439 25.6523 305.488 43.4895C314.565 61.3331 305.392 84.2829 285.03 94.7141L280.296 96.6294C280.974 97.3159 281.479 97.8447 282.207 98.5721C290.325 108.888 294.569 122.976 289.432 127.09C284.271 131.168 271.613 123.761 263.466 113.439C259.648 108.602 257.637 104.05 256.976 100.097C246.553 130.229 212.535 165.195 178.858 182.966C161.737 191.922 147.127 194.958 134.518 193.834C129.359 193.394 124.271 195.556 121.296 199.826C116.207 207.042 109.482 213.209 101.238 217.668C68.3972 235.417 25.8014 218.703 14.792 179.886C8.88246 159.035 15.3768 135.843 31.3125 121.034C43.0197 110.124 57.004 104.837 70.7982 104.383C75.9549 104.168 80.6221 101.227 83.1701 96.7434C89.4663 85.725 100.427 75.3622 117.785 66.2808C151.968 48.237 200.504 40.3871 231.167 49.7674C228.332 46.9043 225.786 42.6194 224.113 36.6866C220.495 24.0466 221.927 9.41393 228.303 7.59879ZM458.243 142.559C460.957 141.793 464.736 146.732 466.255 152.097C466.343 152.546 466.396 152.873 466.469 153.279L468.315 152.117C476.985 147.68 487.118 150.21 490.953 157.769C494.799 165.33 490.912 175.056 482.283 179.477L480.277 180.288C480.564 180.579 480.778 180.803 481.086 181.112C484.526 185.483 486.325 191.453 484.148 193.196C481.962 194.924 476.596 191.786 473.144 187.412C471.527 185.362 470.674 183.432 470.394 181.757C465.977 194.526 451.562 209.344 437.29 216.875C430.035 220.67 423.844 221.957 418.5 221.48C416.314 221.294 414.158 222.21 412.898 224.02C410.741 227.077 407.89 229.69 404.396 231.58C390.48 239.102 372.429 232.019 367.764 215.57C365.26 206.733 368.012 196.906 374.765 190.63C379.726 186.007 385.652 183.766 391.498 183.573C393.682 183.482 395.66 182.236 396.74 180.336C399.408 175.666 404.053 171.275 411.409 167.427C425.895 159.78 446.463 156.454 459.458 160.429C458.256 159.216 457.177 157.4 456.468 154.886C454.935 149.529 455.541 143.328 458.243 142.559ZM-100.751 1.55009C-98.0375 0.783687 -94.2589 5.72222 -92.7401 11.0879C-92.6518 11.5359 -92.5989 11.8627 -92.5261 12.2694L-90.681 11.1073C-82.0106 6.67096 -71.8773 9.20078 -68.0426 16.7597C-64.1961 24.3212 -68.0833 34.0469 -76.7119 38.4673L-78.7188 39.2786C-78.4313 39.5694 -78.2172 39.7935 -77.9085 40.1017C-74.4684 44.4734 -72.6699 50.4438 -74.847 52.1869C-77.034 53.9152 -82.3984 50.7759 -85.8506 46.4016C-87.469 44.3518 -88.3209 42.4227 -88.6006 40.7477C-93.0178 53.5167 -107.434 68.3343 -121.705 75.8649C-128.96 79.6603 -135.152 80.9474 -140.495 80.4714C-142.681 80.2848 -144.837 81.2009 -146.098 83.0106C-148.255 86.068 -151.104 88.681 -154.598 90.5709C-168.515 98.0926 -186.566 91.0096 -191.232 74.5602C-193.736 65.724 -190.983 55.8958 -184.23 49.62C-179.269 44.9971 -173.343 42.7564 -167.497 42.5639C-165.312 42.4728 -163.334 41.2271 -162.255 39.327C-159.587 34.6577 -154.942 30.2661 -147.587 26.4177C-133.1 18.7713 -112.532 15.4448 -99.5386 19.4198C-100.739 18.2065 -101.818 16.3904 -102.527 13.8763C-104.06 8.51988 -103.453 2.31928 -100.751 1.55009Z" fill="black"/>
</mask>
<g mask="url(#mask0_5653_65749)">
<path d="M320 0H0V238H320V0Z" fill="#F9F0E4"/>
</g>
<path d="M107.112 11.1047L105.266 12.2668C105.193 11.86 105.14 11.5333 105.052 11.0852C103.534 5.71946 99.7546 0.780669 97.0406 1.54718C94.3386 2.31637 93.7318 8.51725 95.2654 13.8737C95.9739 16.3879 97.0533 18.2037 98.2542 19.417C85.2606 15.4419 64.6922 18.7685 50.2063 26.4149C42.8507 30.2633 38.2057 34.6546 35.5376 39.324C34.458 41.2242 32.4801 42.4702 30.2948 42.5613C24.4493 42.7538 18.5233 44.9943 13.5621 49.6173C6.80894 55.8931 4.0567 65.7212 6.56099 74.5574C11.2264 91.0069 29.2772 98.0898 43.194 90.5682C46.6878 88.6783 49.538 86.0652 51.6946 83.0078C52.9553 81.1982 55.1112 80.2821 57.2974 80.468C62.6408 80.9447 68.8318 79.6575 76.0873 75.8622C90.3587 68.3317 104.774 53.5143 109.191 40.7452C109.471 42.4202 110.324 44.3491 111.942 46.3989C115.394 50.7733 120.759 53.9124 122.945 52.184C125.122 50.4408 123.324 44.4707 119.884 40.099C119.575 39.7907 119.361 39.5665 119.073 39.2755L121.08 38.4642C129.709 34.0438 133.596 24.3182 129.75 16.7566C125.915 9.19767 115.782 6.66832 107.112 11.1047Z" fill="#E8D9C4"/>
<path d="M284.65 152.117L282.804 153.28C282.732 152.873 282.679 152.546 282.59 152.098C281.072 146.732 277.293 141.793 274.579 142.56C271.877 143.329 271.27 149.53 272.804 154.887C273.512 157.4 274.592 159.216 275.793 160.43C262.799 156.455 242.231 159.781 227.745 167.427C220.39 171.276 215.744 175.667 213.076 180.336C211.997 182.237 210.019 183.483 207.833 183.574C201.988 183.766 196.062 186.007 191.101 190.63C184.347 196.906 181.595 206.734 184.1 215.57C188.765 232.02 206.816 239.103 220.733 231.581C224.227 229.691 227.076 227.078 229.233 224.02C230.494 222.211 232.65 221.294 234.836 221.481C240.179 221.957 246.37 220.67 253.626 216.875C267.897 209.344 282.313 194.527 286.73 181.758C287.01 183.433 287.862 185.362 289.481 187.412C292.933 191.786 298.297 194.925 300.483 193.197C302.661 191.453 300.862 185.484 297.422 181.112C297.114 180.803 296.899 180.579 296.612 180.288L298.619 179.477C307.247 175.057 311.135 165.331 307.288 157.769C303.453 150.21 293.321 147.681 284.65 152.117Z" fill="#E8D9C4"/>
</g>
<defs>
<clipPath id="clip0_5653_65749">
<rect width="320" height="238" fill="white"/>
</clipPath>
</defs>
</svg>
