<svg width="346" height="258" viewBox="0 0 346 258" fill="none" xmlns="http://www.w3.org/2000/svg">
<g clip-path="url(#clip0_5653_65749)">
<mask id="mask0_5653_65749" style="mask-type:luminance" maskUnits="userSpaceOnUse" x="-208" y="0" width="741" height="258">
<path d="M346 0H0V258H346V0Z" fill="white"/>
<path d="M246.853 8.23725C253.778 6.27668 263.419 18.9104 267.293 32.6362C267.519 33.7823 267.654 34.6181 267.839 35.6584L272.549 32.6863C294.671 21.3377 320.525 27.8078 330.31 47.144C340.124 66.487 330.206 91.3654 308.189 102.673L303.07 104.749C303.804 105.494 304.35 106.067 305.137 106.855C313.915 118.039 318.503 133.31 312.948 137.77C307.369 142.191 293.682 134.161 284.874 122.971C280.744 117.728 278.57 112.793 277.856 108.508C266.586 141.172 229.804 179.077 193.391 198.341C174.878 208.049 159.082 211.341 145.448 210.123C139.87 209.645 134.369 211.99 131.152 216.618C125.649 224.441 118.378 231.125 109.464 235.959C73.9548 255.2 27.8982 237.081 15.9943 195.003C9.60456 172.399 16.6265 147.258 33.857 131.204C46.5154 119.378 61.6359 113.647 76.551 113.154C82.1267 112.921 87.1731 109.734 89.9281 104.873C96.7358 92.9287 108.587 81.695 127.355 71.8505C164.316 52.2904 216.796 43.7809 249.95 53.9494C246.885 50.8457 244.131 46.2008 242.322 39.7694C238.41 26.0673 239.958 10.2049 246.853 8.23725ZM495.476 154.539C498.411 153.708 502.496 159.062 504.138 164.879C504.234 165.365 504.291 165.719 504.37 166.16L506.366 164.9C515.74 160.09 526.697 162.832 530.843 171.026C535.002 179.224 530.799 189.766 521.469 194.559L519.3 195.438C519.611 195.753 519.841 195.997 520.175 196.331C523.895 201.07 525.839 207.541 523.485 209.431C521.121 211.304 515.32 207.902 511.588 203.16C509.838 200.938 508.917 198.847 508.614 197.031C503.838 210.873 488.251 226.936 472.82 235.1C464.975 239.213 458.281 240.609 452.504 240.092C450.14 239.89 447.809 240.883 446.446 242.845C444.115 246.159 441.032 248.992 437.254 251.041C422.207 259.194 402.689 251.516 397.645 233.685C394.937 224.106 397.913 213.452 405.215 206.649C410.579 201.638 416.987 199.209 423.307 199C425.67 198.901 427.808 197.55 428.975 195.491C431.86 190.428 436.883 185.668 444.836 181.496C460.5 173.207 482.739 169.601 496.789 173.91C495.49 172.595 494.323 170.627 493.557 167.901C491.898 162.095 492.555 155.372 495.476 154.539ZM-108.937 1.68025C-106.003 0.849449 -101.917 6.20298 -100.275 12.0195C-100.179 12.5052 -100.122 12.8595 -100.043 13.3003L-98.0484 12.0406C-88.6736 7.23145 -77.7169 9.97386 -73.5706 18.168C-69.4117 26.365 -73.6147 36.9079 -82.9443 41.6998L-85.1143 42.5792C-84.8034 42.8944 -84.572 43.1374 -84.2382 43.4715C-80.5185 48.2106 -78.5739 54.6827 -80.9279 56.5722C-83.2926 58.4458 -89.0929 55.0427 -92.8256 50.3008C-94.5754 48.0788 -95.4966 45.9875 -95.799 44.1718C-100.575 58.0138 -116.163 74.0766 -131.593 82.24C-139.438 86.3543 -146.133 87.7496 -151.91 87.2336C-154.274 87.0314 -156.605 88.0244 -157.968 89.9862C-160.3 93.3005 -163.381 96.1331 -167.159 98.1819C-182.207 106.336 -201.724 98.6574 -206.769 80.8256C-209.476 71.247 -206.5 60.5929 -199.199 53.7897C-193.834 48.7783 -187.426 46.3493 -181.106 46.1406C-178.744 46.0418 -176.605 44.6914 -175.438 42.6317C-172.553 37.57 -167.53 32.8094 -159.578 28.6376C-143.914 20.3487 -121.675 16.7426 -107.626 21.0516C-108.924 19.7363 -110.09 17.7676 -110.857 15.0423C-112.515 9.23574 -111.859 2.51408 -108.937 1.68025Z" fill="black"/>
</mask>
<g mask="url(#mask0_5653_65749)">
<path d="M346 0H0V258H346V0Z" fill="#F9F0E4"/>
</g>
<path d="M115.815 12.038L113.819 13.2978C113.74 12.8568 113.683 12.5026 113.587 12.0169C111.946 6.20024 107.86 0.846423 104.925 1.67734C102.004 2.51118 101.348 9.23314 103.006 15.0397C103.772 17.7652 104.939 19.7336 106.237 21.0489C92.1881 16.7397 69.9485 20.3458 54.2856 28.6348C46.3324 32.8066 41.31 37.5669 38.4251 42.6286C37.2577 44.6886 35.1191 46.0393 32.7563 46.138C26.4358 46.3467 20.0283 48.7755 14.6641 53.7869C7.36221 60.5901 4.38635 71.2441 7.09412 80.8229C12.1386 98.6546 31.6561 106.333 46.7035 98.1791C50.4813 96.1304 53.563 93.2977 55.8948 89.9834C57.2579 88.0217 59.589 87.0286 61.9528 87.2301C67.7304 87.7469 74.4245 86.3516 82.2694 82.2373C97.7004 74.074 113.287 58.0115 118.063 44.1693C118.366 45.9851 119.288 48.0761 121.037 50.2981C124.77 55.0401 130.57 58.443 132.934 56.5693C135.288 54.6797 133.344 48.2079 129.624 43.4688C129.29 43.1346 129.059 42.8915 128.748 42.5761L130.918 41.6966C140.248 36.9048 144.451 26.3619 140.292 18.1649C136.145 9.97073 125.189 7.22883 115.815 12.038Z" fill="#E8D9C4"/>
<path d="M307.778 164.9L305.783 166.16C305.704 165.719 305.647 165.365 305.551 164.88C303.91 159.062 299.823 153.708 296.889 154.54C293.967 155.373 293.311 162.096 294.969 167.902C295.736 170.627 296.903 172.596 298.201 173.911C284.152 169.602 261.912 173.208 246.249 181.497C238.296 185.669 233.274 190.429 230.389 195.491C229.222 197.551 227.083 198.901 224.72 199C218.4 199.209 211.992 201.638 206.628 206.65C199.326 213.452 196.35 224.107 199.058 233.685C204.102 251.517 223.62 259.195 238.668 251.042C242.445 248.993 245.527 246.16 247.858 242.845C249.222 240.884 251.553 239.89 253.917 240.093C259.694 240.609 266.388 239.214 274.233 235.1C289.664 226.936 305.251 210.874 310.027 197.032C310.329 198.847 311.251 200.938 313.001 203.161C316.734 207.902 322.534 211.305 324.898 209.432C327.252 207.542 325.307 201.071 321.588 196.331C321.255 195.997 321.023 195.754 320.712 195.438L322.882 194.559C332.211 189.767 336.415 179.225 332.256 171.027C328.109 162.833 317.153 160.091 307.778 164.9Z" fill="#E8D9C4"/>
</g>
<defs>
<clipPath id="clip0_5653_65749">
<rect width="346" height="258" fill="white"/>
</clipPath>
</defs>
</svg>
