<svg width="359" height="267" viewBox="0 0 359 267" fill="none" xmlns="http://www.w3.org/2000/svg">
<g clip-path="url(#clip0_5653_65749)">
<mask id="mask0_5653_65749" style="mask-type:luminance" maskUnits="userSpaceOnUse" x="-216" y="0" width="769" height="267">
<path d="M359 0H0V267H359V0Z" fill="white"/>
<path d="M256.128 8.52463C263.313 6.49567 273.316 19.5701 277.336 33.7747C277.57 34.9608 277.71 35.8258 277.902 36.9024L282.789 33.8265C305.742 22.0821 332.568 28.7779 342.72 48.7885C352.903 68.8064 342.612 94.5527 319.768 106.255L314.457 108.403C315.218 109.174 315.784 109.767 316.601 110.583C325.709 122.156 330.469 137.961 324.706 142.576C318.917 147.151 304.716 138.841 295.577 127.261C291.292 121.835 289.036 116.728 288.295 112.293C276.602 146.097 238.438 185.324 200.656 205.26C181.449 215.307 165.058 218.713 150.912 217.452C145.125 216.959 139.417 219.385 136.079 224.175C130.37 232.27 122.825 239.188 113.576 244.19C76.7332 264.102 28.9461 245.352 16.5949 201.805C9.9651 178.413 17.2509 152.395 35.1288 135.781C48.2628 123.543 63.9514 117.611 79.4268 117.102C85.2121 116.861 90.4481 113.562 93.3066 108.531C100.37 96.1705 112.666 84.5449 132.14 74.357C170.489 54.1146 224.941 45.3081 259.341 55.8314C256.16 52.6194 253.303 47.8125 251.427 41.1568C247.368 26.9766 248.974 10.5609 256.128 8.52463ZM514.092 159.93C517.137 159.07 521.376 164.611 523.08 170.63C523.179 171.133 523.238 171.5 523.32 171.956L525.39 170.652C535.118 165.675 546.486 168.512 550.788 176.992C555.103 185.476 550.742 196.386 541.061 201.346L538.811 202.256C539.133 202.582 539.372 202.834 539.719 203.18C543.578 208.084 545.596 214.781 543.153 216.737C540.701 218.675 534.682 215.155 530.809 210.247C528.994 207.948 528.037 205.783 527.724 203.904C522.768 218.229 506.596 234.852 490.585 243.301C482.445 247.558 475.5 249.002 469.505 248.467C467.053 248.259 464.634 249.286 463.22 251.316C460.801 254.746 457.602 257.678 453.682 259.798C438.069 268.236 417.819 260.29 412.585 241.836C409.776 231.923 412.863 220.898 420.44 213.857C426.005 208.671 432.654 206.158 439.211 205.941C441.663 205.84 443.882 204.441 445.093 202.31C448.086 197.071 453.297 192.145 461.55 187.827C477.801 179.249 500.876 175.518 515.454 179.977C514.106 178.616 512.895 176.579 512.1 173.758C510.38 167.749 511.061 160.792 514.092 159.93ZM-113.03 1.7389C-109.986 0.879115 -105.747 6.4194 -104.043 12.4389C-103.944 12.9415 -103.884 13.3081 -103.803 13.7643L-101.733 12.4607C-92.0056 7.48375 -80.6372 10.3218 -76.3352 18.8018C-72.02 27.2847 -76.3809 38.1954 -86.0611 43.1544L-88.3125 44.0645C-87.99 44.3908 -87.7499 44.6422 -87.4036 44.988C-83.5441 49.8924 -81.5264 56.5902 -83.9689 58.5457C-86.4224 60.4846 -92.4406 56.9629 -96.3136 52.0555C-98.1292 49.756 -99.0849 47.5918 -99.3987 45.7127C-104.354 60.0376 -120.527 76.6607 -136.537 85.1089C-144.677 89.3667 -151.623 90.8107 -157.618 90.2767C-160.071 90.0674 -162.489 91.0951 -163.904 93.1252C-166.323 96.5552 -169.52 99.4866 -173.44 101.607C-189.053 110.045 -209.303 102.099 -214.538 83.6452C-217.347 73.7324 -214.259 62.7066 -206.683 55.6661C-201.117 50.4799 -194.469 47.9661 -187.911 47.7502C-185.46 47.6479 -183.241 46.2505 -182.03 44.1189C-179.037 38.8806 -173.825 33.9539 -165.574 29.6366C-149.322 21.0585 -126.247 17.3267 -111.67 21.786C-113.017 20.4248 -114.227 18.3874 -115.023 15.567C-116.742 9.55795 -116.062 2.60182 -113.03 1.7389Z" fill="black"/>
</mask>
<g mask="url(#mask0_5653_65749)">
<path d="M359 0H0V267H359V0Z" fill="#F9F0E4"/>
</g>
<path d="M120.166 12.4576L118.095 13.7613C118.014 13.305 117.954 12.9384 117.855 12.4357C116.152 6.41617 111.912 0.875597 108.867 1.7355C105.836 2.59843 105.155 9.55487 106.876 15.564C107.671 18.3845 108.882 20.4216 110.229 21.7828C95.6519 17.3233 72.5766 21.0552 56.3253 29.6334C48.0733 33.9507 42.8621 38.877 39.8688 44.1153C38.6576 46.2472 36.4386 47.645 33.9871 47.7471C27.4291 47.9631 20.7809 50.4767 15.2151 55.6629C7.63885 62.7034 4.55118 73.729 7.36068 83.6419C12.5947 102.096 32.8455 110.042 48.4583 101.604C52.378 99.4834 55.5755 96.5519 57.995 93.122C59.4093 91.0919 61.828 90.0641 64.2806 90.2727C70.2752 90.8075 77.2208 89.3635 85.3605 85.1057C101.371 76.6576 117.544 60.0348 122.499 45.7098C122.813 47.5889 123.77 49.7528 125.585 52.0524C129.458 56.9598 135.476 60.4813 137.929 58.5423C140.372 56.5868 138.354 49.8893 134.494 44.9848C134.148 44.6389 133.908 44.3874 133.585 44.061L135.837 43.1508C145.517 38.1918 149.878 27.2811 145.563 18.7982C141.261 10.3182 129.893 7.48065 120.166 12.4576Z" fill="#E8D9C4"/>
<path d="M319.342 170.652L317.271 171.956C317.19 171.5 317.131 171.133 317.031 170.631C315.328 164.611 311.088 159.07 308.044 159.93C305.012 160.793 304.332 167.75 306.052 173.759C306.847 176.579 308.058 178.616 309.405 179.978C294.828 175.518 271.753 179.25 255.501 187.828C247.25 192.146 242.038 197.072 239.045 202.31C237.834 204.442 235.615 205.839 233.163 205.942C226.605 206.158 219.957 208.671 214.391 213.858C206.815 220.898 203.728 231.924 206.537 241.837C211.771 260.291 232.022 268.237 247.635 259.799C251.555 257.678 254.751 254.747 257.171 251.316C258.586 249.287 261.004 248.258 263.457 248.468C269.451 249.002 276.397 247.559 284.537 243.301C300.547 234.852 316.72 218.23 321.675 203.905C321.989 205.783 322.946 207.948 324.761 210.247C328.634 215.154 334.652 218.676 337.105 216.737C339.548 214.782 337.53 208.084 333.67 203.18C333.325 202.834 333.084 202.582 332.762 202.255L335.013 201.345C344.693 196.387 349.054 185.476 344.739 176.993C340.437 168.513 329.069 165.676 319.342 170.652Z" fill="#E8D9C4"/>
</g>
<defs>
<clipPath id="clip0_5653_65749">
<rect width="359" height="267" fill="white"/>
</clipPath>
</defs>
</svg>
