<svg width="427" height="318" viewBox="0 0 427 318" fill="none" xmlns="http://www.w3.org/2000/svg">
<g clip-path="url(#clip0_5653_65749)">
<mask id="mask0_5653_65749" style="mask-type:luminance" maskUnits="userSpaceOnUse" x="-257" y="0" width="915" height="318">
<path d="M427 0H0V318H427V0Z" fill="white"/>
<path d="M304.642 10.1531C313.188 7.7366 325.086 23.3083 329.867 40.2262C330.146 41.6389 330.312 42.6691 330.541 43.9513L336.353 40.2879C363.654 26.3002 395.561 34.275 407.636 58.1079C419.748 81.9493 407.508 112.613 380.337 126.551L374.02 129.11C374.925 130.027 375.599 130.734 376.571 131.706C387.403 145.49 393.065 164.313 386.211 169.809C379.325 175.259 362.433 165.362 351.563 151.569C346.467 145.107 343.784 139.024 342.903 133.743C328.994 174.003 283.601 220.723 238.664 244.467C215.818 256.433 196.323 260.49 179.497 258.988C172.613 258.4 165.825 261.29 161.855 266.995C155.064 276.637 146.09 284.875 135.089 290.834C91.2676 314.549 34.4289 292.217 19.7382 240.353C11.8527 212.492 20.5185 181.505 41.7827 161.717C57.4045 147.141 76.0648 140.076 94.4715 139.469C101.353 139.182 107.58 135.254 110.98 129.262C119.382 114.54 134.007 100.694 157.169 88.5602C202.782 64.4512 267.548 53.9627 308.464 66.496C304.681 62.6705 301.283 56.9454 299.051 49.0184C294.223 32.1296 296.133 12.5784 304.642 10.1531ZM611.469 190.478C615.09 189.455 620.132 196.054 622.159 203.223C622.277 203.822 622.347 204.259 622.444 204.801L624.907 203.249C636.477 197.321 649.999 200.7 655.115 210.8C660.248 220.904 655.06 233.898 643.546 239.805L640.869 240.889C641.253 241.277 641.538 241.578 641.95 241.99C646.54 247.83 648.94 255.807 646.035 258.136C643.118 260.445 635.958 256.252 631.352 250.407C629.193 247.668 628.056 245.091 627.682 242.852C621.788 259.913 602.553 279.712 583.509 289.774C573.828 294.844 565.567 296.564 558.437 295.927C555.519 295.679 552.643 296.903 550.961 299.321C548.083 303.406 544.279 306.897 539.617 309.423C521.046 319.472 496.96 310.009 490.735 288.03C487.394 276.224 491.066 263.092 500.077 254.707C506.697 248.53 514.605 245.537 522.405 245.279C525.32 245.157 527.96 243.492 529.4 240.954C532.96 234.714 539.159 228.847 548.974 223.705C568.304 213.488 595.75 209.044 613.089 214.355C611.486 212.734 610.045 210.308 609.1 206.948C607.053 199.792 607.863 191.506 611.469 190.478ZM-134.44 2.07124C-130.819 1.04722 -125.777 7.64576 -123.75 14.815C-123.632 15.4137 -123.561 15.8503 -123.464 16.3936L-121.002 14.841C-109.433 8.91341 -95.9111 12.2936 -90.7942 22.3933C-85.6616 32.4966 -90.8486 45.4914 -102.362 51.3976L-105.04 52.4815C-104.657 52.8701 -104.371 53.1696 -103.959 53.5814C-99.3686 59.4226 -96.9687 67.3998 -99.8738 69.7288C-102.792 72.0381 -109.95 67.8436 -114.557 61.9989C-116.716 59.2601 -117.853 56.6825 -118.226 54.4445C-124.12 71.5057 -143.357 91.3039 -162.4 101.366C-172.081 106.437 -180.343 108.157 -187.473 107.521C-190.39 107.271 -193.267 108.495 -194.95 110.913C-197.827 114.998 -201.63 118.49 -206.292 121.015C-224.862 131.065 -248.949 121.601 -255.175 99.6225C-258.516 87.8162 -254.843 74.6844 -245.832 66.2991C-239.212 60.1223 -231.304 57.1284 -223.504 56.8712C-220.589 56.7494 -217.949 55.085 -216.509 52.5463C-212.949 46.3075 -206.75 40.4397 -196.936 35.2977C-177.606 25.0811 -150.16 20.6365 -132.822 25.9476C-134.424 24.3264 -135.863 21.8998 -136.81 18.5407C-138.855 11.3838 -138.046 3.09898 -134.44 2.07124Z" fill="black"/>
</mask>
<g mask="url(#mask0_5653_65749)">
<path d="M427 0H0V318H427V0Z" fill="#F9F0E4"/>
</g>
<path d="M142.927 14.8375L140.464 16.3902C140.367 15.8467 140.296 15.4102 140.179 14.8114C138.153 7.64208 133.11 1.0432 129.489 2.06736C125.883 3.09511 125.073 11.3803 127.12 18.5373C128.065 21.8965 129.505 24.3227 131.108 25.9439C113.77 20.6326 86.3236 25.0774 66.994 35.294C57.1789 40.436 50.9807 46.3033 47.4204 52.5422C45.9799 55.0812 43.3406 56.746 40.4246 56.8677C32.6245 57.1249 24.7169 60.1186 18.0969 66.2954C9.08565 74.6808 5.41313 87.8125 8.7548 99.6188C14.9802 121.598 39.0668 131.061 57.637 121.011C62.2991 118.486 66.1022 114.995 68.98 110.91C70.6621 108.492 73.539 107.268 76.4562 107.516C83.5863 108.153 91.8475 106.433 101.529 101.362C120.572 91.3004 139.808 71.5024 145.702 54.4412C146.076 56.6792 147.213 59.2565 149.373 61.9953C153.979 67.8401 161.137 72.0343 164.055 69.7249C166.96 67.3958 164.56 59.419 159.97 53.5778C159.558 53.1658 159.272 52.8662 158.888 52.4775L161.566 51.3935C173.08 45.4872 178.267 32.4925 173.135 22.3892C168.017 12.2894 154.497 8.90989 142.927 14.8375Z" fill="#E8D9C4"/>
<path d="M379.83 203.249L377.367 204.802C377.27 204.258 377.2 203.822 377.082 203.224C375.056 196.053 370.013 189.454 366.392 190.479C362.786 191.506 361.976 199.792 364.023 206.949C364.968 210.308 366.409 212.734 368.011 214.355C350.673 209.044 323.227 213.489 303.897 223.705C294.083 228.848 287.884 234.715 284.324 240.954C282.883 243.493 280.244 245.157 277.328 245.279C269.528 245.536 261.62 248.53 255 254.708C245.989 263.092 242.317 276.224 245.658 288.031C251.883 310.009 275.97 319.473 294.541 309.423C299.203 306.898 303.005 303.407 305.883 299.321C307.566 296.904 310.442 295.679 313.36 295.928C320.49 296.564 328.751 294.845 338.432 289.774C357.476 279.712 376.711 259.914 382.605 242.853C382.979 245.09 384.116 247.668 386.276 250.407C390.882 256.251 398.041 260.446 400.958 258.137C403.863 255.807 401.463 247.831 396.873 241.989C396.462 241.577 396.175 241.278 395.792 240.889L398.469 239.805C409.983 233.899 415.17 220.905 410.038 210.801C404.921 200.701 391.4 197.322 379.83 203.249Z" fill="#E8D9C4"/>
</g>
<defs>
<clipPath id="clip0_5653_65749">
<rect width="427" height="318" fill="white"/>
</clipPath>
</defs>
</svg>
