<svg width="440" height="328" viewBox="0 0 440 328" fill="none" xmlns="http://www.w3.org/2000/svg">
<g clip-path="url(#clip0_5653_65749)">
<mask id="mask0_5653_65749" style="mask-type:luminance" maskUnits="userSpaceOnUse" x="-265" y="0" width="943" height="328">
<path d="M440 0H0V328H440V0Z" fill="white"/>
<path d="M313.917 10.4721C322.723 7.97959 334.984 24.041 339.91 41.4909C340.198 42.948 340.369 44.0106 340.605 45.3332L346.594 41.5546C374.726 27.1269 407.604 35.3526 420.047 59.9349C432.528 84.5261 419.914 116.154 391.917 130.53L385.407 133.17C386.34 134.116 387.034 134.845 388.035 135.847C399.198 150.065 405.032 169.48 397.969 175.149C390.874 180.77 373.468 170.562 362.267 156.335C357.016 149.67 354.251 143.396 353.342 137.948C339.011 179.475 292.236 227.664 245.93 252.154C222.388 264.497 202.3 268.681 184.962 267.132C177.869 266.526 170.874 269.506 166.782 275.391C159.785 285.336 150.538 293.833 139.202 299.979C94.0464 324.44 35.4773 301.406 20.3393 247.911C12.2137 219.174 21.1433 187.212 43.055 166.802C59.1524 151.768 78.3807 144.481 97.3479 143.855C104.438 143.559 110.856 139.507 114.359 133.327C123.016 118.142 138.087 103.86 161.954 91.3448C208.956 66.4777 275.694 55.6593 317.855 68.5868C313.957 64.641 310.456 58.7358 308.155 50.5595C303.18 33.1397 305.149 12.9736 313.917 10.4721ZM630.085 196.468C633.817 195.412 639.012 202.219 641.1 209.613C641.222 210.231 641.295 210.682 641.395 211.241L643.933 209.64C655.855 203.526 669.788 207.011 675.06 217.429C680.349 227.85 675.004 241.253 663.139 247.346L660.381 248.464C660.776 248.864 661.07 249.174 661.494 249.599C666.224 255.623 668.697 263.851 665.704 266.253C662.697 268.635 655.32 264.31 650.574 258.281C648.349 255.456 647.177 252.798 646.792 250.489C640.719 268.086 620.897 288.508 601.274 298.886C591.298 304.116 582.785 305.89 575.438 305.233C572.432 304.977 569.468 306.239 567.735 308.733C564.77 312.947 560.85 316.548 556.045 319.153C536.91 329.518 512.09 319.757 505.676 297.087C502.232 284.909 506.017 271.365 515.302 262.716C522.124 256.345 530.272 253.257 538.309 252.992C541.314 252.866 544.033 251.149 545.518 248.531C549.186 242.095 555.573 236.043 565.688 230.739C585.606 220.201 613.887 215.617 631.755 221.095C630.102 219.423 628.618 216.921 627.644 213.456C625.535 206.074 626.37 197.528 630.085 196.468ZM-138.533 2.13608C-134.801 1.07986 -129.606 7.8859 -127.517 15.2806C-127.396 15.8981 -127.323 16.3484 -127.223 16.9089L-124.686 15.3074C-112.764 9.19341 -98.831 12.6799 -93.5582 23.0972C-88.2694 33.5182 -93.6143 46.9216 -105.479 53.0136L-108.238 54.1316C-107.843 54.5324 -107.548 54.8413 -107.124 55.266C-102.394 61.2909 -99.9207 69.519 -102.914 71.9213C-105.921 74.3031 -113.298 69.9767 -118.044 63.9482C-120.27 61.1234 -121.441 58.4647 -121.826 56.1563C-127.899 73.754 -147.721 94.1748 -167.344 104.553C-177.32 109.784 -185.833 111.558 -193.18 110.902C-196.187 110.644 -199.151 111.907 -200.885 114.401C-203.85 118.614 -207.768 122.216 -212.572 124.82C-231.708 135.186 -256.528 125.425 -262.943 102.755C-266.386 90.5775 -262.601 77.0327 -253.317 68.3837C-246.494 62.0126 -238.346 58.9246 -230.308 58.6593C-227.304 58.5337 -224.585 56.8169 -223.1 54.1984C-219.432 47.7634 -213.044 41.7111 -202.931 36.4074C-183.013 25.8696 -154.731 21.2851 -136.865 26.7632C-138.516 25.0911 -140 22.5882 -140.975 19.1234C-143.083 11.7415 -142.248 3.19614 -138.533 2.13608Z" fill="black"/>
</mask>
<g mask="url(#mask0_5653_65749)">
<path d="M440 0H0V328H440V0Z" fill="#F9F0E4"/>
</g>
<path d="M147.279 15.3039L144.741 16.9055C144.641 16.3449 144.568 15.8946 144.446 15.277C142.359 7.88223 137.163 1.07583 133.431 2.13219C129.716 3.19227 128.881 11.738 130.99 19.1201C131.964 22.5849 133.448 25.0874 135.1 26.7595C117.233 21.2813 88.9518 25.8658 69.0337 36.4037C58.9198 41.7074 52.5329 47.7592 48.8642 54.1943C47.3797 56.8132 44.6601 58.5303 41.6554 58.6558C33.6177 58.9211 25.4695 62.009 18.6479 68.38C9.36229 77.029 5.57796 90.5737 9.02136 102.751C15.4363 125.421 40.2562 135.183 59.3917 124.817C64.1958 122.212 68.1147 118.611 71.0801 114.397C72.8135 111.903 75.7779 110.641 78.7839 110.897C86.1311 111.554 94.6438 109.78 104.62 104.55C124.243 94.1713 144.065 73.7508 150.138 56.153C150.523 58.4614 151.695 61.1198 153.92 63.9447C158.667 69.9733 166.043 74.2994 169.049 71.9174C172.043 69.515 169.57 61.2874 164.84 55.2625C164.415 54.8375 164.121 54.5285 163.726 54.1276L166.485 53.0094C178.35 46.9175 183.695 33.5141 178.406 23.0931C173.133 12.6757 159.2 9.1899 147.279 15.3039Z" fill="#E8D9C4"/>
<path d="M391.394 209.641L388.856 211.243C388.756 210.682 388.684 210.232 388.562 209.614C386.475 202.219 381.278 195.412 377.546 196.469C373.831 197.529 372.997 206.075 375.105 213.457C376.08 216.922 377.564 219.424 379.215 221.096C361.349 215.618 333.067 220.203 313.149 230.74C303.036 236.045 296.648 242.096 292.98 248.531C291.496 251.15 288.776 252.867 285.771 252.993C277.733 253.258 269.585 256.346 262.764 262.717C253.478 271.366 249.694 284.911 253.137 297.089C259.552 319.758 284.372 329.52 303.508 319.154C308.312 316.549 312.23 312.948 315.195 308.733C316.929 306.24 319.894 304.977 322.9 305.234C330.247 305.89 338.759 304.117 348.736 298.887C368.359 288.508 388.18 268.088 394.254 250.49C394.638 252.798 395.811 255.457 398.036 258.282C402.783 264.31 410.159 268.636 413.165 266.255C416.159 263.852 413.686 255.625 408.955 249.599C408.532 249.174 408.237 248.866 407.842 248.464L410.601 247.346C422.465 241.255 427.81 227.851 422.522 217.43C417.248 207.013 403.316 203.527 391.394 209.641Z" fill="#E8D9C4"/>
</g>
<defs>
<clipPath id="clip0_5653_65749">
<rect width="440" height="328" fill="white"/>
</clipPath>
</defs>
</svg>
