<svg width="388" height="388" viewBox="0 0 388 388" fill="none" xmlns="http://www.w3.org/2000/svg">
<g clip-path="url(#clip0_5440_50414)">
<g clip-path="url(#clip1_5440_50414)">
<path d="M-8.49899 66C243.001 -9.99994 193.501 133.5 581.219 108L576.736 199.5H-11.2969L-8.49899 66ZM325.042 126.891C321.495 122.841 317.459 119.375 319.185 128.009C314.266 135.319 319.33 133.666 324.163 131.288C324.823 130.964 325.618 131.047 326.212 131.48C343.137 143.82 355.578 137.091 355.931 135.34C356.262 133.686 347.334 122.597 327.008 127.5C326.291 127.673 325.526 127.443 325.042 126.891ZM425.325 124.219C421.269 120.678 416.805 117.781 419.669 126.106C415.771 134.004 420.569 131.692 425.042 128.692C425.652 128.284 426.451 128.26 427.098 128.61C445.521 138.586 456.954 130.26 457.067 128.48C457.174 126.797 446.846 116.998 427.355 124.561C426.668 124.827 425.879 124.702 425.325 124.219ZM383.38 119.267C379.554 115.479 375.28 112.309 377.616 120.798C373.231 128.437 378.165 126.43 382.816 123.715C383.451 123.345 384.25 123.37 384.873 123.761C402.635 134.869 414.568 127.273 414.793 125.503C415.004 123.829 405.31 113.404 385.385 119.734C384.682 119.958 383.902 119.784 383.38 119.267ZM341.679 112.081C338.055 108.099 333.954 104.71 335.844 113.31C331.065 120.712 336.098 118.963 340.885 116.493C341.538 116.157 342.334 116.224 342.936 116.647C360.094 128.663 372.406 121.698 372.724 119.941C373.023 118.282 363.886 107.365 343.656 112.652C342.943 112.839 342.173 112.624 341.679 112.081ZM300.322 102.946C296.887 98.8015 292.947 95.2274 294.437 103.905C289.321 111.079 294.428 109.565 299.324 107.318C299.992 107.013 300.785 107.116 301.366 107.565C317.949 120.362 330.57 113.973 330.969 112.232C331.345 110.588 322.723 99.2602 302.271 103.608C301.55 103.762 300.791 103.512 300.322 102.946Z" fill="#1F824A"/>
<path d="M357.616 30.7019C358.263 30.3528 359.06 30.4045 359.67 30.8151C377.06 42.496 389.234 35.2916 389.516 33.5294C389.783 31.8644 380.435 21.1271 360.313 26.8071C359.603 27.0076 358.83 26.8083 358.325 26.2746C354.624 22.3643 350.457 19.0561 352.514 27.617C347.881 35.1104 352.878 33.2642 357.616 30.7019Z" fill="#1F824A"/>
<path d="M335.154 44.2623C335.81 43.9304 336.606 44.0031 337.205 44.4297C354.279 56.5662 366.639 49.6857 366.968 47.9315C367.279 46.2741 358.219 35.2932 337.953 40.44C337.239 40.6217 336.471 40.402 335.98 39.8551C332.384 35.8483 328.306 32.4311 330.136 41.0436C325.306 48.4123 330.35 46.6986 335.154 44.2623Z" fill="#1F824A"/>
<path d="M212.293 10.005C212.991 9.77432 213.767 9.96457 214.295 10.4756C229.368 25.0173 242.617 20.0515 243.204 18.3658C243.758 16.7729 236.437 4.56599 215.631 6.64132C214.897 6.71475 214.17 6.38322 213.767 5.76942C210.809 1.27215 207.286 -2.71386 207.811 6.07549C201.936 12.6442 207.179 11.6998 212.293 10.005Z" fill="#1F824A"/>
<path d="M377.03 51.7797C377.668 51.415 378.466 51.4471 379.086 51.8427C396.758 63.0946 408.751 55.5952 408.991 53.8267C409.217 52.1557 399.608 41.6504 379.631 47.8204C378.926 48.0381 378.148 47.8578 377.63 47.3366C373.835 43.518 369.587 40.3128 371.854 48.8205C367.406 56.4247 372.356 54.457 377.03 51.7797Z" fill="#1F824A"/>
<path d="M252.61 23.5045C253.293 23.2338 254.079 23.3788 254.637 23.8583C270.528 37.5028 283.466 31.7784 283.955 30.0615C284.416 28.4393 276.399 16.6769 255.747 19.9533C255.019 20.069 254.274 19.7801 253.836 19.1908C250.622 14.8723 246.873 11.097 247.908 19.8411C242.424 26.7387 247.603 25.4924 252.61 23.5045Z" fill="#1F824A"/>
<path d="M283.099 50.2687C283.772 49.9748 284.562 50.0929 285.136 50.553C301.487 63.6454 314.221 57.4818 314.65 55.7492C315.055 54.1121 306.639 42.6313 286.112 46.6124C285.388 46.753 284.634 46.4897 284.175 45.9157C280.815 41.7099 276.94 38.0652 278.274 46.7685C273.03 53.8497 278.163 52.4268 283.099 50.2687Z" fill="#1F824A"/>
<path d="M117.451 10.7853C118.048 10.3578 118.846 10.3089 119.503 10.6395C138.228 20.0391 149.397 11.3643 149.455 9.58112C149.51 7.89622 138.881 -1.57817 119.635 6.58373C118.956 6.87173 118.163 6.77126 117.595 6.30541C113.431 2.8922 108.879 0.134912 112 8.36684C108.349 16.3808 113.073 13.9219 117.451 10.7853Z" fill="#1F824A"/>
<path d="M366.282 68.2178C366.924 67.8618 367.722 67.9049 368.337 68.309C385.851 79.8029 397.947 72.4689 398.21 70.7038C398.46 69.036 388.997 58.3996 368.936 64.2945C368.229 64.5026 367.453 64.3116 366.942 63.7833C363.2 59.9128 358.997 56.6494 361.147 65.1877C356.595 72.7302 361.571 70.8306 366.282 68.2178Z" fill="#1F824A"/>
<path d="M324.488 60.1877C325.148 59.8637 325.943 59.946 326.536 60.3798C343.463 72.7207 355.905 65.9892 356.256 64.2391C356.586 62.5855 347.659 51.4964 327.333 56.3993C326.616 56.5724 325.851 56.3435 325.367 55.7907C321.82 51.7409 317.783 48.2749 319.509 56.9089C314.591 64.2191 319.655 62.5661 324.488 60.1877Z" fill="#1F824A"/>
<path d="M242.211 38.4569C242.898 38.1949 243.681 38.3499 244.233 38.8365C259.949 52.6817 272.959 47.1222 273.469 45.4116C273.951 43.7953 266.084 31.932 245.393 34.9459C244.663 35.0524 243.922 34.754 243.491 34.1591C240.333 29.8002 236.633 25.9776 237.555 34.7341C231.984 41.5616 237.179 40.3811 242.211 38.4569Z" fill="#1F824A"/>
<path d="M202.184 24.1869C202.886 23.972 203.658 24.1797 204.175 24.7025C218.915 39.58 232.272 34.914 232.897 33.2418C233.488 31.6619 226.444 19.2932 205.596 20.8993C204.861 20.9562 204.142 20.6084 203.752 19.9856C200.897 15.4229 197.465 11.3585 197.791 20.1574C191.77 26.5921 197.033 25.766 202.184 24.1869Z" fill="#1F824A"/>
<path d="M160.579 13.217C161.242 12.8998 162.035 12.9902 162.625 13.4301C179.423 25.9446 191.934 19.3414 192.302 17.595C192.65 15.9448 183.838 4.7644 163.462 9.45793C162.744 9.62365 161.981 9.38687 161.503 8.82918C157.998 4.74305 153.997 1.23564 155.634 9.88701C150.64 17.1463 155.721 15.5456 160.579 13.217Z" fill="#1F824A"/>
<path d="M32.2782 22.0369C32.7626 21.485 33.5281 21.2563 34.2432 21.4293C54.6184 26.338 63.519 15.3538 63.1694 13.6036C62.8391 11.9498 50.3317 5.13158 33.4481 17.4485C32.8529 17.883 32.0581 17.965 31.3986 17.6401C26.5661 15.2598 21.5056 13.6065 26.4196 20.9174C24.6893 29.5524 28.7298 26.0853 32.2782 22.0369Z" fill="#1F824A"/>
<path d="M74.5231 14.2216C75.0598 13.7203 75.8443 13.5684 76.5388 13.8112C96.3281 20.7073 106.274 10.6576 106.099 8.88169C105.934 7.20366 94.164 -0.815384 76.142 9.77191C75.5067 10.1455 74.7077 10.1485 74.0836 9.7601C69.5106 6.91462 64.6386 4.76984 68.8041 12.5292C66.2265 20.9496 70.5909 17.8992 74.5231 14.2216Z" fill="#1F824A"/>
<path d="M-20.0011 54.8629C-19.5727 54.2666 -18.833 53.9648 -18.1045 54.0677C2.65116 56.978 10.4416 45.1821 9.9235 43.474C9.43396 41.8599 -3.67686 36.2861 -19.2829 50.1825C-19.833 50.6727 -20.616 50.8313 -21.304 50.5719C-26.3449 48.6712 -31.5421 47.5162 -25.9407 54.3167C-26.8233 63.0791 -23.139 59.2365 -20.0011 54.8629Z" fill="#1F824A"/>
<path d="M21.1877 42.8815C21.6595 42.3188 22.4197 42.073 23.1385 42.2298C43.6193 46.6785 52.2695 35.4966 51.8804 33.7546C51.5128 32.1087 38.8547 25.5736 22.2537 38.2678C21.6685 38.7156 20.8757 38.8155 20.209 38.5055C15.3241 36.2346 10.2276 34.6956 15.3054 41.8942C13.7706 50.5661 17.7317 47.0089 21.1877 42.8815Z" fill="#1F824A"/>
<path d="M191.722 38.0635C192.428 37.8586 193.196 38.0772 193.706 38.6072C208.234 53.692 221.656 49.2156 222.304 47.5525C222.917 45.981 216.05 33.5138 195.181 34.8245C194.445 34.871 193.731 34.513 193.35 33.8849C190.56 29.2821 187.186 25.1696 187.387 33.9722C181.275 40.321 186.549 39.5695 191.722 38.0635Z" fill="#1F824A"/>
<path d="M355.137 84.4429C355.784 84.0958 356.582 84.1499 357.19 84.5623C374.545 96.2954 386.741 89.1276 387.028 87.3663C387.3 85.702 377.985 74.9366 357.845 80.5563C357.135 80.7546 356.362 80.553 355.859 80.0178C352.17 76.0963 348.012 72.7756 350.044 81.3427C345.389 88.8222 350.391 86.991 355.137 84.4429Z" fill="#1F824A"/>
<path d="M313.446 75.8979C314.109 75.582 314.903 75.6739 315.491 76.1149C332.265 88.6615 344.789 82.0822 345.161 80.3365C345.512 78.687 336.722 67.4897 316.337 72.1444C315.618 72.3087 314.855 72.0705 314.378 71.5119C310.881 67.4191 306.887 63.904 308.507 72.5585C303.5 79.8083 308.584 78.2172 313.446 75.8979Z" fill="#1F824A"/>
<path d="M272.172 65.4864C272.849 65.2006 273.638 65.3281 274.206 65.795C290.398 79.0822 303.205 73.0713 303.655 71.3439C304.08 69.7118 295.803 58.131 275.229 61.8663C274.504 61.9983 273.753 61.726 273.301 61.1466C269.992 56.9008 266.16 53.21 267.389 61.9287C262.06 68.9467 267.211 67.5853 272.172 65.4864Z" fill="#1F824A"/>
<path d="M231.458 53.125C232.148 52.8728 232.93 53.039 233.474 53.5333C248.991 67.6014 262.079 62.2279 262.613 60.5248C263.118 58.9155 255.422 46.9412 234.69 49.6596C233.959 49.7557 233.222 49.4469 232.799 48.8459C229.704 44.4423 226.059 40.5673 226.856 49.3361C221.188 56.0835 226.399 54.9772 231.458 53.125Z" fill="#1F824A"/>
<path d="M397.174 90.9581C397.802 90.5761 398.601 90.5863 399.232 90.9646C417.206 101.727 428.989 93.9012 429.179 92.1269C429.359 90.4504 419.465 80.2134 399.665 86.9291C398.967 87.1661 398.184 87.0072 397.651 86.5005C393.752 82.7877 389.418 79.7004 391.919 88.1423C387.682 95.8653 392.576 93.7625 397.174 90.9581Z" fill="#1F824A"/>
<path d="M63.2227 34.0871C63.7447 33.5706 64.5244 33.3962 65.2256 33.6188C85.206 39.9424 94.8569 29.6099 94.6312 27.8397C94.418 26.167 82.4205 18.4899 64.7123 29.5925C64.0881 29.9841 63.2894 30.0102 62.6544 29.64C58.0011 26.9272 53.0692 24.9236 57.4572 32.5601C55.1241 41.0517 59.3985 37.8766 63.2227 34.0871Z" fill="#1F824A"/>
<path d="M105.992 29.3636C106.573 28.9136 107.368 28.8341 108.037 29.1393C127.111 37.8144 137.938 28.7192 137.927 26.9352C137.917 25.2496 126.932 16.1899 108.013 25.0818C107.346 25.3956 106.55 25.3255 105.964 24.8818C101.672 21.6309 97.0167 19.0501 100.453 27.1557C97.112 35.3029 101.739 32.6651 105.992 29.3636Z" fill="#1F824A"/>
<path d="M373.021 104.937C373.661 104.576 374.459 104.612 375.077 105.011C392.689 116.355 404.722 108.918 404.97 107.15C405.205 105.481 395.651 94.9256 375.642 100.992C374.937 101.206 374.159 101.021 373.644 100.497C369.869 96.6593 365.638 93.432 367.861 101.951C363.373 109.532 368.333 107.59 373.021 104.937Z" fill="#1F824A"/>
<path d="M124.38 46.3534C124.988 45.9408 125.787 45.9115 126.435 46.2582C144.922 56.117 156.302 47.7194 156.405 45.938C156.501 44.2549 146.11 34.5208 126.668 42.2066C125.982 42.4778 125.192 42.3578 124.636 41.8781C120.557 38.3631 116.075 35.4943 118.991 43.8012C115.143 51.7233 119.927 49.3814 124.38 46.3534Z" fill="#1F824A"/>
<path d="M208.504 62.3398C209.203 62.1144 209.978 62.3106 210.503 62.8256C225.463 77.4824 238.749 72.6182 239.349 70.937C239.916 69.3484 232.689 57.0858 211.867 59.0018C211.133 59.0696 210.409 58.7325 210.01 58.1156C207.087 53.5958 203.594 49.5829 204.052 58.376C198.127 64.8996 203.377 63.9953 208.504 62.3398Z" fill="#1F824A"/>
<path d="M289.709 87.6031C290.381 87.3044 291.172 87.4167 291.748 87.8727C308.193 100.848 320.882 94.5929 321.299 92.8573C321.693 91.2173 313.194 79.7971 292.696 83.9252C291.973 84.071 291.217 83.8132 290.754 83.2425C287.364 79.0609 283.462 75.444 284.858 84.1376C279.665 91.2561 284.789 89.7965 289.709 87.6031Z" fill="#1F824A"/>
<path d="M-2.55234 66.8603C-2.10611 66.2772 -1.35769 65.9978 -0.632586 66.1225C20.0261 69.6558 28.1687 58.0997 27.7023 56.3768C27.2617 54.7488 14.3248 48.7832 -1.69328 62.2037C-2.25791 62.6771 -3.04541 62.8121 -3.72526 62.5321C-8.70659 60.4808 -13.8667 59.17 -8.47277 66.1357C-9.61919 74.8675 -5.82071 71.1376 -2.55234 66.8603Z" fill="#1F824A"/>
<path d="M331.172 97.2271C331.83 96.8982 332.625 96.9745 333.222 97.4038C350.241 109.617 362.632 102.793 362.969 101.04C363.288 99.3839 354.278 88.3623 333.989 93.4174C333.273 93.5959 332.506 93.3728 332.018 92.8237C328.441 88.8006 324.378 85.365 326.169 93.9857C321.306 101.333 326.357 99.6417 331.172 97.2271Z" fill="#1F824A"/>
<path d="M248.733 76.1101C249.417 75.8426 250.202 75.9912 250.757 76.4733C266.585 90.1915 279.55 84.5272 280.046 82.8126C280.515 81.1925 272.553 69.3931 251.886 72.5735C251.158 72.6859 250.414 72.3935 249.978 71.8021C246.785 67.4688 243.054 63.6762 244.047 72.4249C238.531 79.2971 243.717 78.0748 248.733 76.1101Z" fill="#1F824A"/>
<path d="M39.0086 56.152C39.5009 55.6071 40.2696 55.3894 40.9821 55.5726C61.285 60.7717 70.3421 49.9159 70.0176 48.1609C69.711 46.5026 57.3026 39.5065 40.2441 51.5809C39.6428 52.0069 38.8469 52.0774 38.1921 51.7432C33.3942 49.2942 28.3579 47.5688 33.1667 54.9491C31.3128 63.5583 35.4026 60.1493 39.0086 56.152Z" fill="#1F824A"/>
<path d="M167.454 49.9029C168.127 49.6078 168.917 49.7245 169.492 50.1836C185.865 63.2477 198.588 57.0621 199.015 55.3288C199.417 53.6911 190.981 42.2248 170.461 46.2413C169.737 46.3832 168.983 46.1213 168.523 45.548C165.156 41.348 161.274 37.71 162.622 46.411C157.39 53.5012 162.522 52.0695 167.454 49.9029Z" fill="#1F824A"/>
<path d="M81.3749 48.9627C81.9208 48.4714 82.7079 48.334 83.3978 48.5895C103.056 55.8488 113.187 45.9846 113.045 44.2058C112.911 42.5251 101.291 34.2909 83.0758 44.5438C82.4337 44.9055 81.6347 44.8938 81.0179 44.4941C76.4983 41.5649 71.6668 39.3308 75.6881 47.1653C72.9551 55.5364 77.3752 52.567 81.3749 48.9627Z" fill="#1F824A"/>
<path d="M258.544 96.5082C259.225 96.2328 260.012 96.3724 260.572 96.848C276.558 110.382 289.457 104.568 289.933 102.848C290.383 101.223 282.284 89.5162 261.656 92.9354C260.929 93.0562 260.182 92.7725 259.739 92.1862C256.496 87.8901 252.721 84.1409 253.816 92.8775C248.38 99.8129 253.551 98.5308 258.544 96.5082Z" fill="#1F824A"/>
<path d="M134.771 64.0251C135.395 63.6366 136.194 63.6387 136.828 64.0106C154.913 74.5878 166.614 66.6423 166.787 64.8662C166.949 63.188 156.95 53.053 137.22 59.9709C136.524 60.215 135.74 60.0641 135.203 59.5629C131.266 55.8903 126.9 52.8476 129.487 61.2633C125.33 69.0291 130.202 66.8764 134.771 64.0251Z" fill="#1F824A"/>
<path d="M7.36632 81.4571C7.82303 80.8821 8.57638 80.6163 9.29912 80.754C29.8906 84.6593 38.241 73.2522 37.8059 71.5211C37.3947 69.8854 24.5678 63.6875 8.30947 76.8168C7.73637 77.2799 6.94655 77.4007 6.27187 77.1085C1.32844 74.9676 -3.80712 73.564 1.45993 80.6258C0.15577 89.3354 4.02111 85.6746 7.36632 81.4571Z" fill="#1F824A"/>
<path d="M177.702 69.3544C178.389 69.095 179.172 69.253 179.722 69.7416C195.385 83.6467 208.416 78.1368 208.933 76.4282C209.421 74.8137 201.6 62.9206 180.897 65.8555C180.167 65.9592 179.427 65.6581 178.998 65.0615C175.857 60.6906 172.171 56.8539 173.06 65.6139C167.463 72.4201 172.662 71.2594 177.702 69.3544Z" fill="#1F824A"/>
<path d="M218.077 83.3807C218.772 83.1428 219.55 83.3249 220.084 83.8303C235.308 98.2137 248.504 93.1097 249.074 91.4178C249.612 89.8193 242.163 77.6896 221.379 79.9824C220.646 80.0634 219.916 79.7395 219.506 79.13C216.501 74.6639 212.937 70.7149 213.554 79.4983C207.748 86.1281 212.981 85.1289 218.077 83.3807Z" fill="#1F824A"/>
<path d="M91.6813 65.318C92.2414 64.843 93.0322 64.7286 93.7143 65.0042C113.151 72.8345 123.566 63.2714 123.477 61.4894C123.393 59.8057 112.019 51.2358 93.5113 60.9511C92.8588 61.2939 92.0605 61.2589 91.4557 60.8412C87.024 57.7814 82.2601 55.4072 86.0497 63.3553C83.0721 71.6423 87.5776 68.8036 91.6813 65.318Z" fill="#1F824A"/>
<path d="M49.1294 71.5205C49.6338 70.9868 50.4072 70.7864 51.1155 70.9856C71.2963 76.6388 80.5956 65.9894 80.3107 64.2276C80.0415 62.5629 67.7937 55.2903 50.4676 66.9784C49.8568 67.3907 49.0595 67.4435 48.4124 67.0946C43.6708 64.5386 38.6746 62.7006 43.316 70.1868C41.2688 78.752 45.4343 75.4358 49.1294 71.5205Z" fill="#1F824A"/>
<path d="M242.211 109.78C242.898 109.518 243.681 109.673 244.233 110.159C259.949 124.005 272.959 118.445 273.469 116.734C273.951 115.118 266.084 103.255 245.393 106.269C244.663 106.375 243.922 106.077 243.491 105.482C240.333 101.123 236.633 97.3003 237.555 106.057C231.984 112.884 237.179 111.704 242.211 109.78Z" fill="#1F824A"/>
<path d="M117.452 82.1076C118.049 81.6802 118.847 81.6312 119.504 81.9618C138.229 91.3615 149.398 82.6866 149.456 80.9035C149.511 79.2185 138.882 69.7442 119.636 77.9061C118.957 78.1941 118.164 78.0936 117.596 77.6277C113.432 74.2145 108.88 71.4572 112.001 79.6892C108.35 87.7031 113.074 85.2442 117.452 82.1076Z" fill="#1F824A"/>
<path d="M74.5251 85.5438C75.0618 85.0426 75.8462 84.8907 76.5407 85.1334C96.3301 92.0295 106.276 81.9799 106.101 80.204C105.936 78.526 94.1659 70.5069 76.144 81.0942C75.5087 81.4677 74.7096 81.4708 74.0855 81.0824C69.5125 78.2369 64.6406 76.0921 68.806 83.8515C66.2284 92.2719 70.5928 89.2214 74.5251 85.5438Z" fill="#1F824A"/>
</g>
<rect width="388" height="220" transform="translate(0 168)" fill="#1F824A"/>
</g>
<defs>
<clipPath id="clip0_5440_50414">
<rect width="388" height="388" fill="white"/>
</clipPath>
<clipPath id="clip1_5440_50414">
<rect width="388" height="181" fill="white"/>
</clipPath>
</defs>
</svg>
