<svg width="348" height="348" viewBox="0 0 348 348" fill="none" xmlns="http://www.w3.org/2000/svg">
<g clip-path="url(#clip0_5438_50387)">
<g clip-path="url(#clip1_5438_50387)">
<path d="M-4 33.4982C112.5 8.99911 198.5 87.9972 391 87.9962V158H-4V60.1945C-2.56785 61.6193 -0.510838 62.3628 1.61426 62.0178C2.6246 61.8541 3.54013 61.4594 4.32129 60.8986C4.78078 60.5693 5.37629 60.5159 5.89453 60.7434C7.15365 61.2927 8.76765 61.4827 10.8467 61.1652C14.9446 60.5361 19.6573 58.0926 21.7686 55.3391C21.7 55.7715 21.7491 56.3127 21.9736 56.9455C22.4555 58.2993 23.4993 59.5104 24.1719 59.2707C24.8444 59.031 24.8959 57.4304 24.418 56.0754C24.3703 55.9742 24.3346 55.9028 24.29 55.8088L24.8438 55.7775C27.2989 55.4234 29.0409 53.3827 28.7344 51.2209C28.4281 49.0578 26.1719 47.5949 23.6963 47.9514L23.1494 48.0803C23.1662 47.9735 23.1793 47.891 23.1973 47.7746C23.2676 46.3423 22.755 44.8228 22.0303 44.7844C21.3076 44.7461 20.65 46.2033 20.583 47.6359C20.5518 48.3061 20.6636 48.8393 20.8564 49.2346C18.0185 47.1995 12.7498 46.3338 8.6084 46.969C6.50705 47.2898 5.02408 47.9818 3.99609 48.9064C3.57769 49.2816 2.99766 49.4297 2.46191 49.2629C1.03027 48.8176 -0.586736 48.8557 -2.16797 49.5568C-2.85373 49.8607 -3.47151 50.2882 -4 50.8049V33.4982ZM275.141 94.1462C273.891 93.3162 272.327 92.8982 270.612 93.1272C268.283 93.4372 266.254 95.0902 265.46 97.3132C263.983 101.463 266.707 105.647 270.756 106.15C271.772 106.277 272.761 106.155 273.668 105.836C274.201 105.649 274.788 105.764 275.222 106.128C276.277 107.009 277.773 107.645 279.857 107.924C283.968 108.471 289.176 107.45 291.974 105.399C291.787 105.795 291.683 106.328 291.722 106.998C291.805 108.433 292.468 109.89 293.181 109.849C293.893 109.807 294.39 108.284 294.311 106.85C294.293 106.739 294.28 106.66 294.264 106.558L294.804 106.684C297.26 107.033 299.504 105.563 299.814 103.402C300.126 101.24 298.369 99.2032 295.893 98.8502L295.331 98.8202C295.377 98.7222 295.412 98.6472 295.462 98.5402C295.93 97.1852 295.864 95.5832 295.18 95.3422C294.497 95.1022 293.457 96.3172 292.992 97.6732C292.775 98.3072 292.732 98.8502 292.807 99.2832C290.652 96.5332 285.836 94.2222 281.683 93.6692C279.576 93.3872 277.959 93.6362 276.713 94.2342C276.206 94.4772 275.608 94.4562 275.141 94.1462ZM64.252 44.3781C63.5417 44.2393 62.6875 45.5911 62.4219 47.0002C62.2978 47.6594 62.3337 48.203 62.4697 48.6213C59.9423 46.2098 54.845 44.6168 50.6553 44.6672C48.5298 44.6914 46.965 45.1687 45.8184 45.9406C45.3518 46.2537 44.7573 46.3193 44.25 46.0793C42.8941 45.4383 41.2867 45.2504 39.623 45.7238C37.3631 46.3664 35.5921 48.2943 35.126 50.6086C34.2605 54.9278 37.5573 58.6757 41.6357 58.591C42.6591 58.5701 43.621 58.3066 44.4727 57.8606C44.9734 57.5988 45.5702 57.6285 46.0518 57.926C47.2223 58.6459 48.7942 59.0602 50.8975 59.0363C55.0432 58.986 60.0495 57.2246 62.5234 54.7932C62.3954 55.2118 62.3696 55.7543 62.5039 56.4123C62.7927 57.82 63.6581 59.1659 64.3574 59.0227C65.0568 58.8793 65.3297 57.3011 65.0449 55.8928C65.0118 55.7859 64.9871 55.7098 64.9561 55.6106L65.5088 55.6574C67.9895 55.6498 69.999 53.872 69.9961 51.6887C69.9937 49.5041 67.9622 47.7402 65.4609 47.7473L64.9014 47.799C64.9329 47.6956 64.9573 47.6159 64.9912 47.5031C65.2601 46.0948 64.9642 44.5176 64.252 44.3781Z" fill="#3D5C9C"/>
<path d="M221.279 18.4702L220.722 18.3966C220.775 18.3026 220.817 18.2303 220.875 18.1277C221.449 16.8138 221.51 15.2105 220.846 14.9169C220.184 14.6239 219.052 15.7525 218.481 17.0679C218.214 17.6831 218.129 18.2206 218.169 18.6586C216.238 15.7463 211.62 13.0621 207.523 12.1818C205.445 11.7338 203.813 11.8529 202.524 12.3513C202 12.5531 201.405 12.485 200.964 12.1384C199.783 11.2124 198.258 10.6725 196.53 10.7652C194.184 10.8903 192.03 12.3772 191.063 14.5308C189.262 18.5508 191.647 22.9366 195.644 23.7588C196.646 23.9654 197.642 23.9224 198.571 23.6763C199.118 23.5319 199.693 23.6935 200.097 24.0907C201.079 25.0524 202.521 25.8044 204.577 26.2477C208.631 27.1184 213.904 26.5121 216.855 24.6898C216.637 25.0696 216.492 25.5925 216.477 26.2639C216.447 27.7009 216.993 29.205 217.706 29.2204C218.42 29.2357 219.036 27.7576 219.07 26.3209C219.061 26.2092 219.054 26.1297 219.046 26.0258L219.574 26.1943C221.995 26.7372 224.348 25.4496 224.829 23.3198C225.31 21.1889 223.72 19.0182 221.279 18.4702Z" fill="#3D5C9C"/>
<path d="M258.566 26.8554L258.006 26.7998C258.057 26.7041 258.096 26.6305 258.151 26.5261C258.683 25.1945 258.692 23.59 258.019 23.3179C257.347 23.0464 256.252 24.2109 255.724 25.5439C255.477 26.1674 255.409 26.7073 255.463 27.1439C253.44 24.2952 248.738 21.7611 244.615 21.0131C242.523 20.6322 240.896 20.8038 239.624 21.3434C239.106 21.5619 238.51 21.5131 238.058 21.1809C236.848 20.2933 235.306 19.8029 233.582 19.951C231.241 20.1516 229.136 21.7071 228.239 23.8907C226.569 27.9665 229.094 32.2732 233.114 32.9663C234.123 33.1406 235.117 33.0655 236.038 32.7897C236.579 32.6277 237.16 32.7708 237.576 33.1547C238.589 34.0843 240.053 34.7896 242.123 35.1664C246.203 35.9061 251.453 35.1305 254.344 33.2142C254.139 33.6008 254.01 34.128 254.017 34.7996C254.033 36.2368 254.627 37.7226 255.341 37.7149C256.055 37.7073 256.623 36.2101 256.611 34.7731C256.598 34.6617 256.589 34.5825 256.577 34.4789L257.111 34.6303C259.548 35.095 261.858 33.7323 262.27 31.5882C262.683 29.4429 261.023 27.3246 258.566 26.8554Z" fill="#3D5C9C"/>
<path d="M333.354 38.0482L332.792 38.0501C332.833 37.9498 332.864 37.8726 332.908 37.7631C333.301 36.3841 333.146 34.7871 332.449 34.5853C331.753 34.3838 330.783 35.6542 330.393 37.0342C330.211 37.6797 330.199 38.2237 330.297 38.6524C327.994 36.0256 323.058 33.9855 318.88 33.6631C316.761 33.498 315.16 33.8351 313.949 34.502C313.457 34.7723 312.859 34.7846 312.375 34.5004C311.081 33.7412 309.497 33.411 307.798 33.7346C305.489 34.1735 303.554 35.9361 302.884 38.1999C301.639 42.425 304.591 46.4509 308.661 46.7294C309.682 46.7996 310.663 46.6233 311.551 46.2547C312.073 46.0383 312.665 46.1212 313.118 46.4606C314.22 47.2818 315.749 47.8335 317.846 47.9968C321.981 48.3155 327.124 47.0071 329.804 44.8053C329.639 45.2108 329.565 45.7484 329.641 46.4158C329.803 47.8437 330.546 49.261 331.255 49.1804C331.964 49.0998 332.376 47.5524 332.218 46.1242C332.194 46.0147 332.176 45.9369 332.154 45.8351L332.7 45.9311C335.172 46.1442 337.331 44.5524 337.522 42.3774C337.713 40.2013 335.847 38.2637 333.354 38.0482Z" fill="#3D5C9C"/>
<path d="M295.892 54.9191L295.33 54.8898C295.376 54.7919 295.412 54.7165 295.462 54.6097C295.93 53.2545 295.864 51.6514 295.179 51.4113C294.496 51.1716 293.456 52.3863 292.991 53.7426C292.774 54.3771 292.732 54.9196 292.806 55.3531C290.651 52.6028 285.836 50.2925 281.682 49.7392C279.575 49.4571 277.958 49.705 276.712 50.3038C276.205 50.5464 275.607 50.5257 275.14 50.2151C273.89 49.3854 272.326 48.968 270.612 49.197C268.283 49.5074 266.253 51.1602 265.459 53.3835C263.982 57.5333 266.707 61.7164 270.755 62.2198C271.771 62.3465 272.76 62.2247 273.667 61.9059C274.201 61.7187 274.787 61.8343 275.221 62.1982C276.276 63.0792 277.772 63.7148 279.857 63.9939C283.968 64.5409 289.175 63.5193 291.973 61.4693C291.786 61.8651 291.683 62.3978 291.721 63.0682C291.805 64.5031 292.467 65.9593 293.18 65.9181C293.893 65.8769 294.39 64.3546 294.31 62.9199C294.293 62.8092 294.279 62.7305 294.263 62.6276L294.803 62.7537C297.259 63.1033 299.503 61.6335 299.814 59.4724C300.125 57.3102 298.368 55.2722 295.892 54.9191Z" fill="#3D5C9C"/>
<path d="M333.354 59.4779L332.792 59.4798C332.833 59.3795 332.864 59.3022 332.908 59.1928C333.301 57.8138 333.146 56.2168 332.449 56.015C331.753 55.8135 330.783 57.0838 330.393 58.4639C330.211 59.1094 330.199 59.6534 330.297 60.0821C327.994 57.4553 323.058 55.4152 318.88 55.0928C316.761 54.9277 315.16 55.2648 313.949 55.9316C313.457 56.2019 312.859 56.2143 312.375 55.9301C311.081 55.1709 309.497 54.8407 307.798 55.1643C305.489 55.6032 303.554 57.3657 302.884 59.6296C301.639 63.8547 304.591 67.8806 308.661 68.1591C309.682 68.2293 310.663 68.053 311.551 67.6844C312.073 67.4679 312.665 67.5509 313.118 67.8902C314.22 68.7114 315.749 69.2632 317.846 69.4265C321.981 69.7452 327.124 68.4368 329.804 66.235C329.639 66.6405 329.565 67.1781 329.641 67.8454C329.803 69.2734 330.546 70.6907 331.255 70.6101C331.964 70.5295 332.376 68.9821 332.218 67.5539C332.194 67.4444 332.176 67.3666 332.154 67.2648L332.7 67.3608C335.172 67.5738 337.331 65.9821 337.522 63.8071C337.713 61.6309 335.847 59.6933 333.354 59.4779Z" fill="#3D5C9C"/>
<path d="M258.567 48.2851L258.007 48.2295C258.058 48.1338 258.097 48.0602 258.152 47.9558C258.683 46.6242 258.692 45.0197 258.019 44.7476C257.348 44.4761 256.253 45.6406 255.724 46.9736C255.477 47.5971 255.41 48.137 255.464 48.5736C253.44 45.7249 248.739 43.1908 244.615 42.4428C242.524 42.0619 240.897 42.2335 239.624 42.7731C239.107 42.9916 238.511 42.9428 238.058 42.6105C236.848 41.723 235.306 41.2325 233.583 41.3807C231.242 41.5813 229.137 43.1368 228.239 45.3204C226.569 49.3961 229.094 53.7028 233.115 54.396C234.123 54.5703 235.117 54.4952 236.038 54.2194C236.58 54.0574 237.16 54.2005 237.577 54.5844C238.589 55.514 240.054 56.2192 242.123 56.5961C246.203 57.3358 251.454 56.5602 254.344 54.6439C254.139 55.0305 254.011 55.5577 254.018 56.2293C254.034 57.6664 254.627 59.1522 255.341 59.1446C256.055 59.137 256.623 57.6397 256.611 56.2028C256.599 56.0914 256.589 56.0122 256.577 55.9086L257.111 56.06C259.548 56.5247 261.859 55.162 262.27 53.0179C262.683 50.8726 261.024 48.7542 258.567 48.2851Z" fill="#3D5C9C"/>
<path d="M183.903 30.3336L183.347 30.2518C183.402 30.1587 183.444 30.087 183.504 29.9853C184.097 28.6799 184.181 27.0776 183.521 26.7743C182.864 26.4717 181.715 27.5838 181.125 28.8906C180.849 29.5019 180.756 30.0381 180.79 30.4767C178.902 27.5366 174.323 24.7854 170.24 23.8456C168.168 23.3673 166.535 23.4627 165.239 23.9423C164.711 24.1364 164.118 24.0597 163.681 23.7067C162.515 22.7636 160.997 22.2016 159.269 22.2691C156.921 22.36 154.745 23.8154 153.747 25.9547C151.888 29.9481 154.209 34.3681 158.193 35.2484C159.193 35.4697 160.189 35.4411 161.122 35.2086C161.67 35.0721 162.243 35.2422 162.641 35.6451C163.609 36.6211 165.04 37.394 167.089 37.8672C171.131 38.7968 176.411 38.2673 179.388 36.4882C179.165 36.8648 179.013 37.3854 178.988 38.0566C178.937 39.493 179.461 41.0049 180.174 41.0307C180.888 41.0564 181.525 39.5873 181.58 38.1513C181.573 38.0395 181.567 37.9599 181.56 37.8559L182.086 38.032C184.499 38.6101 186.87 37.3569 187.382 35.2343C187.894 33.1107 186.336 30.917 183.903 30.3336Z" fill="#3D5C9C"/>
<path d="M106.973 9.76952L106.411 9.73792C106.458 9.64022 106.494 9.56502 106.544 9.45832C107.018 8.10512 106.958 6.50172 106.274 6.25882C105.592 6.01622 104.548 7.22662 104.077 8.58102C103.857 9.21452 103.812 9.75682 103.885 10.1906C101.742 7.43142 96.9361 5.10112 92.7848 4.53052C90.6788 4.23962 89.0608 4.48072 87.8126 5.07442C87.3049 5.31492 86.7071 5.29162 86.2407 4.97912C84.9943 4.14422 83.4327 3.72032 81.7172 3.94222C79.3869 4.24292 77.3502 5.88722 76.5472 8.10722C75.053 12.2507 77.7601 16.4452 81.8065 16.9654C82.8218 17.0963 83.8115 16.9787 84.7197 16.6637C85.2539 16.4787 85.8399 16.5967 86.2723 16.9624C87.3237 17.8478 88.8172 18.4896 90.901 18.7774C95.0089 19.3416 100.221 18.3417 103.027 16.3033C102.838 16.6983 102.732 17.2306 102.768 17.9012C102.846 19.3364 103.502 20.7954 104.215 20.7571C104.928 20.7189 105.431 19.1987 105.358 17.7636C105.341 17.6529 105.328 17.5742 105.312 17.4712L105.851 17.5995C108.306 17.9594 110.556 16.4989 110.876 14.3391C111.196 12.1782 109.448 10.1329 106.973 9.76952Z" fill="#3D5C9C"/>
<path d="M370.998 61.8928L370.437 61.9264C370.472 61.8239 370.499 61.7451 370.536 61.6333C370.851 60.2343 370.606 58.6486 369.898 58.4865C369.193 58.3247 368.296 59.6479 367.985 61.0477C367.839 61.7025 367.858 62.2463 367.98 62.6688C365.532 60.1764 360.489 58.4186 356.3 58.3328C354.175 58.2879 352.596 58.7149 351.424 59.4491C350.948 59.7468 350.352 59.793 349.852 59.5366C348.518 58.8518 346.918 58.6116 345.239 59.0308C342.96 59.5994 341.127 61.4686 340.586 63.7667C339.581 68.0555 342.755 71.9081 346.834 71.956C347.857 71.9684 348.827 71.7369 349.692 71.3188C350.202 71.0731 350.797 71.1225 351.269 71.4357C352.416 72.1932 353.973 72.6577 356.076 72.7022C360.222 72.7866 365.283 71.1896 367.834 68.8397C367.693 69.254 367.649 69.7949 367.762 70.4569C368.005 71.8734 368.826 73.2465 369.53 73.1259C370.234 73.0053 370.558 71.4371 370.319 70.0201C370.289 69.9121 370.267 69.8355 370.239 69.735L370.79 69.8C373.269 69.873 375.335 68.1617 375.403 65.9794C375.471 63.7959 373.498 61.9669 370.998 61.8928Z" fill="#3D5C9C"/>
<path d="M65.4623 3.818L64.9024 3.8699C64.9339 3.7663 64.9584 3.6866 64.9924 3.5737C65.2614 2.1652 64.9654 0.588298 64.2529 0.449298C63.5425 0.310498 62.6886 1.6621 62.4231 3.0713C62.299 3.7305 62.3351 4.2734 62.4711 4.6917C59.9437 2.2802 54.8466 0.687197 50.6569 0.737597C48.5313 0.761797 46.9667 1.2399 45.8201 2.0118C45.3535 2.3249 44.7589 2.3904 44.2515 2.1504C42.8955 1.5093 41.2885 1.3212 39.6248 1.7947C37.3647 2.4372 35.5935 4.365 35.1273 6.6794C34.2618 10.9987 37.5587 14.7461 41.6372 14.6614C42.6606 14.6406 43.622 14.3777 44.4736 13.9316C44.9746 13.6695 45.5715 13.6995 46.0532 13.9972C47.2237 14.7171 48.7956 15.1307 50.8988 15.1068C55.0447 15.0564 60.0514 13.2957 62.5253 10.8642C62.3973 11.2828 62.3713 11.8249 62.5057 12.4829C62.7945 13.8907 63.6594 15.2364 64.3588 15.093C65.0582 14.9496 65.3314 13.3717 65.0465 11.9633C65.0133 11.8562 64.9887 11.7804 64.9576 11.6809L65.5102 11.7279C67.9909 11.7203 70.0002 9.9428 69.9972 7.7594C69.9949 5.5748 67.9636 3.8109 65.4623 3.818Z" fill="#3D5C9C"/>
<path d="M23.6973 4.02184L23.1501 4.15144C23.1669 4.04454 23.1801 3.96214 23.1981 3.84554C23.2685 2.41304 22.756 0.892842 22.0312 0.854742C21.3085 0.816442 20.6511 2.27434 20.5842 3.70704C20.553 4.37714 20.6643 4.90974 20.8571 5.30494C18.0191 3.26994 12.7507 2.40444 8.60927 3.03974C6.50792 3.36054 5.02529 4.05264 3.9973 4.97724C3.57889 5.35244 2.99922 5.50044 2.46347 5.33364C1.03165 4.88814 -0.585674 4.92644 -2.16714 5.62774C-4.31562 6.57974 -5.80126 8.73634 -5.94083 11.0935C-6.19697 15.4919 -2.41127 18.7425 1.61527 18.0888C2.62568 17.9251 3.54102 17.5305 4.32223 16.9698C4.78176 16.6402 5.37701 16.5865 5.89536 16.814C7.15453 17.3635 8.76843 17.5535 10.8476 17.2359C14.9456 16.6069 19.6581 14.1637 21.7694 11.4101C21.7008 11.8426 21.7506 12.383 21.9751 13.0159C22.4569 14.3697 23.5005 15.5816 24.1731 15.3419C24.8457 15.1022 24.8966 13.5013 24.4186 12.1463C24.3709 12.045 24.336 11.9733 24.2913 11.8791L24.845 11.8485C27.3002 11.4944 29.0425 9.45334 28.7359 7.29154C28.4296 5.12844 26.173 3.66534 23.6973 4.02184Z" fill="#3D5C9C"/>
<path d="M146.319 20.2466L145.763 20.1657C145.818 20.0725 145.86 20.0007 145.919 19.8989C146.511 18.5926 146.592 16.9902 145.932 16.6879C145.274 16.3863 144.127 17.5001 143.539 18.8079C143.264 19.4196 143.172 19.9559 143.206 20.3945C141.314 17.4572 136.731 14.713 132.646 13.7793C130.574 13.3042 128.941 13.402 127.645 13.8835C127.118 14.0784 126.525 14.0026 126.088 13.6503C124.919 12.709 123.401 12.1492 121.673 12.2193C119.325 12.3138 117.151 13.7725 116.156 15.9133C114.304 19.9095 116.632 24.326 120.617 25.2003C121.617 25.42 122.613 25.39 123.545 25.156C124.094 25.0187 124.667 25.1879 125.066 25.5903C126.035 26.5647 127.466 27.3355 129.517 27.8056C133.559 28.7291 138.839 28.1917 141.814 26.408C141.591 26.785 141.439 27.3059 141.416 27.9771C141.367 29.4135 141.893 30.9247 142.606 30.9493C143.32 30.974 143.955 29.504 144.008 28.0679C144.001 27.9561 143.994 27.8765 143.987 27.7725L144.514 27.9478C146.927 28.5223 149.297 27.2655 149.805 25.1421C150.315 23.0177 148.753 20.8264 146.319 20.2466Z" fill="#3D5C9C"/>
<path d="M370.998 83.6018L370.437 83.6348C370.472 83.5328 370.499 83.4538 370.536 83.3418C370.851 81.9428 370.606 80.3578 369.898 80.1958C369.193 80.0338 368.296 81.3568 367.985 82.7568C367.839 83.4108 367.858 83.9548 367.98 84.3778C365.532 81.8848 360.489 80.1278 356.3 80.0418C354.175 79.9968 352.596 80.4238 351.424 81.1578C350.948 81.4558 350.352 81.5018 349.852 81.2458C348.518 80.5608 346.918 80.3208 345.239 80.7398C342.96 81.3078 341.127 83.1778 340.586 85.4758C339.581 89.7648 342.755 93.6168 346.834 93.6648C347.857 93.6768 348.827 93.4458 349.692 93.0278C350.202 92.7818 350.797 92.8308 351.269 93.1448C352.416 93.9018 353.973 94.3668 356.076 94.4108C360.222 94.4958 365.283 92.8988 367.834 90.5488C367.693 90.9628 367.649 91.5038 367.762 92.1658C368.005 93.5818 368.826 94.9548 369.53 94.8348C370.234 94.7138 370.558 93.1458 370.319 91.7288C370.289 91.6208 370.267 91.5438 370.239 91.4438L370.79 91.5088C373.269 91.5818 375.335 89.8708 375.403 87.6878C375.471 85.5048 373.498 83.6758 370.998 83.6018Z" fill="#3D5C9C"/>
<path d="M221.279 61.6108L220.722 61.5372C220.775 61.4432 220.817 61.3709 220.875 61.2684C221.449 59.9545 221.51 58.3511 220.846 58.0575C220.184 57.7645 219.052 58.8932 218.481 60.2085C218.214 60.8237 218.129 61.3612 218.169 61.7993C216.238 58.8869 211.62 56.2027 207.523 55.3224C205.445 54.8744 203.813 54.9936 202.524 55.4919C202 55.6937 201.405 55.6257 200.964 55.279C199.783 54.353 198.258 53.8132 196.53 53.9058C194.184 54.0309 192.03 55.5179 191.063 57.6715C189.262 61.6914 191.647 66.0772 195.644 66.8994C196.646 67.1061 197.642 67.063 198.571 66.8169C199.118 66.6725 199.693 66.8342 200.097 67.2313C201.079 68.193 202.521 68.9451 204.577 69.3883C208.631 70.259 213.904 69.6528 216.855 67.8305C216.637 68.2103 216.492 68.7331 216.477 69.4045C216.447 70.8415 216.993 72.3457 217.706 72.361C218.42 72.3763 219.036 70.8982 219.07 69.4615C219.061 69.3498 219.054 69.2703 219.046 69.1665L219.574 69.3349C221.995 69.8778 224.348 68.5902 224.829 66.4604C225.31 64.3295 223.72 62.1588 221.279 61.6108Z" fill="#3D5C9C"/>
<path d="M333.354 81.1872L332.792 81.1892C332.833 81.0882 332.864 81.0112 332.908 80.9022C333.301 79.5232 333.146 77.9258 332.449 77.724C331.753 77.5225 330.783 78.7928 330.393 80.1732C330.211 80.8182 330.199 81.3622 330.297 81.7912C327.994 79.1642 323.058 77.1242 318.88 76.8018C316.761 76.6367 315.16 76.9738 313.949 77.6406C313.457 77.9109 312.859 77.9233 312.375 77.6391C311.081 76.8799 309.497 76.5497 307.798 76.8733C305.489 77.3121 303.554 79.0752 302.884 81.3382C301.639 85.5642 304.591 89.5892 308.661 89.8682C309.682 89.9382 310.663 89.7622 311.551 89.3932C312.073 89.1772 312.665 89.2602 313.118 89.5992C314.22 90.4202 315.749 90.9722 317.846 91.1352C321.981 91.4542 327.124 90.1462 329.804 87.9442C329.639 88.3492 329.565 88.8872 329.641 89.5542C329.803 90.9822 330.546 92.4002 331.255 92.3192C331.964 92.2382 332.376 90.6912 332.218 89.2632C332.194 89.1532 332.176 89.0752 332.154 88.9742L332.7 89.0702C335.172 89.2832 337.331 87.6912 337.522 85.5162C337.713 83.3402 335.847 81.4022 333.354 81.1872Z" fill="#3D5C9C"/>
<path d="M23.6954 25.7308L23.1482 25.8604C23.1651 25.7534 23.1782 25.6711 23.1962 25.5545C23.2666 24.122 22.7542 22.6018 22.0293 22.5637C21.3066 22.5254 20.6492 23.9833 20.5823 25.4159C20.5511 26.0861 20.6624 26.6187 20.8552 27.0139C18.0172 24.9788 12.7488 24.1134 8.60731 24.7486C6.50596 25.0695 5.02333 25.7616 3.99534 26.6862C3.57693 27.0614 2.99726 27.2094 2.46151 27.0426C1.02969 26.5971 -0.587635 26.6354 -2.16909 27.3367C-4.31758 28.2887 -5.80321 30.4453 -5.94278 32.8025C-6.19893 37.2009 -2.41323 40.4515 1.61331 39.7978C2.62372 39.6341 3.53906 39.2395 4.32027 38.6787C4.77981 38.3492 5.37505 38.2955 5.89341 38.523C7.15257 39.0724 8.76647 39.2624 10.8457 38.9449C14.9437 38.3159 19.6562 35.8727 21.7675 33.1191C21.699 33.5516 21.7487 34.092 21.9732 34.7248C22.455 36.0787 23.4986 37.2906 24.1712 37.0509C24.8438 36.8111 24.8947 35.2103 24.4168 33.8553C24.369 33.754 24.3341 33.6822 24.2894 33.5881L24.8431 33.5574C27.2984 33.2033 29.0406 31.1623 28.734 29.0005C28.4277 26.8374 26.1711 25.3743 23.6954 25.7308Z" fill="#3D5C9C"/>
<path d="M183.903 52.0426L183.346 51.9608C183.401 51.8676 183.444 51.796 183.503 51.6942C184.097 50.3888 184.181 48.7865 183.521 48.4833C182.863 48.1807 181.715 49.2927 181.125 50.5996C180.849 51.2109 180.756 51.7471 180.79 52.1857C178.901 49.2455 174.323 46.4944 170.239 45.5546C168.168 45.0763 166.534 45.1717 165.238 45.6513C164.711 45.8454 164.118 45.7687 163.681 45.4157C162.514 44.4726 160.997 43.9106 159.268 43.9781C156.92 44.069 154.745 45.5244 153.746 47.6637C151.888 51.6571 154.209 56.0771 158.193 56.9574C159.192 57.1787 160.188 57.1501 161.121 56.9176C161.67 56.7811 162.243 56.9511 162.641 57.3541C163.609 58.3301 165.039 59.103 167.089 59.5762C171.13 60.5058 176.411 59.9763 179.388 58.1972C179.165 58.5738 179.012 59.0944 178.988 59.7656C178.937 61.202 179.46 62.7139 180.174 62.7396C180.887 62.7654 181.524 61.2963 181.579 59.8603C181.572 59.7485 181.566 59.6689 181.559 59.5649L182.086 59.741C184.498 60.3191 186.87 59.0659 187.381 56.9433C187.894 54.8197 186.335 52.626 183.903 52.0426Z" fill="#3D5C9C"/>
<path d="M106.973 31.4785L106.412 31.4469C106.458 31.3491 106.494 31.2739 106.544 31.1673C107.019 29.8141 106.959 28.2107 106.275 27.9677C105.593 27.7252 104.548 28.9355 104.077 30.29C103.857 30.9235 103.813 31.4658 103.886 31.8996C101.742 29.1403 96.9361 26.8101 92.7848 26.2395C90.6789 25.9486 89.0608 26.1897 87.8126 26.7834C87.3049 27.0239 86.7071 27.0006 86.2408 26.6881C84.9943 25.8532 83.4327 25.4293 81.7172 25.6512C79.3869 25.9519 77.3502 27.5961 76.5472 29.8162C75.053 33.9597 77.7601 38.1542 81.8065 38.6744C82.8218 38.8053 83.8115 38.6877 84.7197 38.3727C85.2539 38.1876 85.8399 38.3057 86.2723 38.6714C87.3237 39.5568 88.8172 40.1986 90.901 40.4864C95.0089 41.0506 100.221 40.0507 103.027 38.0123C102.839 38.4073 102.733 38.9396 102.769 39.6102C102.846 41.0453 103.503 42.5043 104.216 42.4661C104.929 42.4279 105.432 40.9077 105.358 39.4726C105.341 39.3618 105.328 39.2831 105.312 39.1802L105.852 39.3085C108.306 39.6683 110.556 38.2079 110.876 36.0481C111.196 33.8872 109.448 31.8419 106.973 31.4785Z" fill="#3D5C9C"/>
<path d="M258.566 69.9941L258.006 69.9385C258.057 69.8428 258.096 69.7692 258.151 69.6648C258.683 68.3331 258.692 66.7287 258.019 66.4566C257.347 66.1851 256.252 67.3495 255.724 68.6826C255.477 69.3061 255.409 69.846 255.463 70.2825C253.44 67.4339 248.738 64.8998 244.615 64.1518C242.523 63.7709 240.896 63.9425 239.624 64.4821C239.106 64.7006 238.51 64.6518 238.058 64.3195C236.848 63.432 235.306 62.9415 233.582 63.0897C231.241 63.2903 229.136 64.8458 228.239 67.0294C226.569 71.1051 229.094 75.4118 233.114 76.105C234.123 76.2793 235.117 76.2042 236.038 75.9283C236.579 75.7664 237.16 75.9094 237.576 76.2934C238.589 77.223 240.053 77.9282 242.123 78.3051C246.203 79.045 251.453 78.2692 254.344 76.3529C254.139 76.7395 254.01 77.2667 254.017 77.9383C254.033 79.375 254.627 80.861 255.341 80.854C256.055 80.846 256.623 79.349 256.611 77.9118C256.598 77.8004 256.589 77.7212 256.577 77.6176L257.111 77.769C259.548 78.2337 261.858 76.871 262.27 74.7269C262.683 72.5816 261.023 70.4632 258.566 69.9941Z" fill="#3D5C9C"/>
<path d="M295.891 76.6281L295.33 76.5988C295.376 76.5009 295.412 76.4255 295.461 76.3187C295.93 74.9635 295.863 73.3604 295.178 73.1203C294.495 72.8806 293.456 74.0953 292.991 75.4516C292.773 76.0861 292.731 76.6285 292.806 77.0621C290.651 74.3117 285.835 72.0015 281.681 71.4482C279.574 71.1661 277.957 71.414 276.711 72.0128C276.205 72.2554 275.607 72.2347 275.139 71.9241C273.889 71.0944 272.326 70.677 270.611 70.906C268.282 71.2164 266.253 72.8692 265.459 75.0925C263.982 79.2418 266.706 83.4258 270.755 83.9288C271.771 84.0558 272.76 83.9338 273.667 83.6148C274.2 83.4278 274.787 83.5428 275.221 83.9068C276.276 84.7878 277.772 85.4238 279.857 85.7028C283.967 86.2498 289.175 85.2288 291.973 83.1778C291.786 83.5738 291.682 84.1068 291.721 84.7768C291.804 86.2118 292.467 87.6678 293.18 87.6268C293.892 87.5858 294.389 86.0638 294.31 84.6288C294.292 84.5178 294.279 84.4398 294.262 84.3368L294.803 84.4628C297.259 84.8118 299.503 83.3428 299.813 81.1818C300.125 79.0188 298.368 76.9812 295.891 76.6281Z" fill="#3D5C9C"/>
<path d="M65.4604 25.527L64.9005 25.5789C64.932 25.4753 64.9566 25.3956 64.9905 25.2827C65.2595 23.8741 64.9635 22.2973 64.251 22.1583C63.5406 22.0195 62.6868 23.3711 62.4212 24.7803C62.2971 25.4395 62.3333 25.9824 62.4692 26.4007C59.9418 23.9892 54.8448 22.3962 50.655 22.4466C48.5294 22.4708 46.9648 22.9489 45.8182 23.7208C45.3516 24.0339 44.757 24.0994 44.2496 23.8593C42.8936 23.2182 41.2866 23.0302 39.6229 23.5037C37.3628 24.1462 35.5916 26.0739 35.1254 28.3884C34.2599 32.7077 37.5568 36.4551 41.6353 36.3704C42.6587 36.3495 43.6201 36.0867 44.4717 35.6406C44.9727 35.3785 45.5696 35.4085 46.0513 35.7062C47.2219 36.4261 48.7937 36.8397 50.8969 36.8158C55.0428 36.7654 60.0495 35.0047 62.5234 32.5732C62.3954 32.9918 62.3695 33.5338 62.5038 34.1918C62.7926 35.5997 63.6575 36.9454 64.3569 36.802C65.0563 36.6586 65.3295 35.0807 65.0446 33.6722C65.0115 33.5652 64.9868 33.4893 64.9557 33.3899L65.5083 33.4369C67.989 33.4293 69.9983 31.6517 69.9954 29.4684C69.993 27.2838 67.9617 25.5199 65.4604 25.527Z" fill="#3D5C9C"/>
<path d="M146.319 41.9556L145.763 41.8747C145.818 41.7815 145.86 41.7097 145.919 41.6079C146.511 40.3016 146.592 38.6992 145.932 38.3969C145.274 38.0953 144.127 39.2091 143.539 40.5169C143.264 41.1286 143.172 41.6649 143.206 42.1034C141.314 39.1662 136.731 36.4219 132.646 35.4882C130.574 35.0131 128.941 35.111 127.645 35.5925C127.118 35.7874 126.525 35.7116 126.088 35.3593C124.919 34.4179 123.401 33.8582 121.673 33.9283C119.325 34.0228 117.151 35.4815 116.156 37.6223C114.304 41.6184 116.632 46.035 120.617 46.9093C121.617 47.129 122.613 47.0989 123.545 46.865C124.094 46.7277 124.667 46.8969 125.066 47.2993C126.035 48.2737 127.466 49.0445 129.517 49.5146C133.559 50.4381 138.839 49.9007 141.814 48.117C141.591 48.494 141.439 49.0148 141.416 49.686C141.367 51.1225 141.893 52.6337 142.606 52.6583C143.32 52.683 143.955 51.2129 144.008 49.7769C144.001 49.665 143.994 49.5855 143.987 49.4815L144.514 49.6568C146.927 50.2313 149.297 48.9744 149.805 46.8511C150.315 44.7267 148.753 42.5354 146.319 41.9556Z" fill="#3D5C9C"/>
</g>
<rect width="348" height="210" transform="translate(0 138)" fill="#3D5C9C"/>
</g>
<defs>
<clipPath id="clip0_5438_50387">
<rect width="348" height="348" fill="white"/>
</clipPath>
<clipPath id="clip1_5438_50387">
<rect width="348" height="163" fill="white" transform="translate(0 -21)"/>
</clipPath>
</defs>
</svg>
