<svg viewBox="0 0 80 80" fill="none" xmlns="http://www.w3.org/2000/svg">
<path d="M69.964 29.9823C68.317 29.9833 66.6863 29.6584 65.1656 29.0265C63.645 28.3946 62.2643 27.4681 61.103 26.3004C59.9416 25.1327 59.023 23.7468 58.3996 22.2225C57.7763 20.6983 57.4606 19.0658 57.4706 17.419C55.317 19.0732 52.6796 19.9739 49.964 19.9823C47.8946 19.9841 45.8573 19.4716 44.0353 18.4911C42.213 17.5105 40.663 16.0926 39.5243 14.3647C38.3856 12.6369 37.6943 10.6532 37.512 8.59192C37.33 6.53065 37.6626 4.45645 38.4806 2.55566C30.6478 2.87364 23.112 5.64095 16.935 10.4678C10.7579 15.2947 6.25083 21.9378 4.04856 29.4614C1.84631 36.9851 2.0599 45.0098 4.65923 52.4058C7.25856 59.8015 12.1127 66.1955 18.5377 70.6871C24.9628 75.1785 32.635 77.5411 40.4736 77.4418C48.3123 77.3428 55.9223 74.7868 62.232 70.1345C68.5413 65.4818 73.2323 58.9671 75.6436 51.5081C78.055 44.0488 78.0656 36.0211 75.674 28.5557C73.9133 29.4841 71.9543 29.9735 69.964 29.9823Z" stroke="#E08545" stroke-width="1.5" stroke-linecap="round" stroke-linejoin="round"/>
<path d="M24.9102 42.4633C29.0523 42.4633 32.4102 39.1057 32.4102 34.9633C32.4102 30.8212 29.0523 27.4634 24.9102 27.4634C20.768 27.4634 17.4102 30.8212 17.4102 34.9633C17.4102 39.1057 20.768 42.4633 24.9102 42.4633Z" stroke="#E08545" stroke-width="1.5" stroke-linecap="round" stroke-linejoin="round"/>
<path d="M47.4102 62.4634C50.1715 62.4634 52.4102 60.2247 52.4102 57.4634C52.4102 54.702 50.1715 52.4634 47.4102 52.4634C44.6488 52.4634 42.4102 54.702 42.4102 57.4634C42.4102 60.2247 44.6488 62.4634 47.4102 62.4634Z" stroke="#E08545" stroke-width="1.5" stroke-linecap="round" stroke-linejoin="round"/>
<path d="M23.6665 57.4634C22.9761 57.4634 22.4165 56.9037 22.4165 56.2134C22.4165 55.523 22.9761 54.9634 23.6665 54.9634" stroke="#E08545" stroke-width="1.5"/>
<path d="M23.6665 57.4634C24.3568 57.4634 24.9165 56.9037 24.9165 56.2134C24.9165 55.523 24.3568 54.9634 23.6665 54.9634" stroke="#E08545" stroke-width="1.5"/>
<path d="M43.6602 34.9633C42.9698 34.9633 42.4102 34.4037 42.4102 33.7133C42.4102 33.023 42.9698 32.4634 43.6602 32.4634" stroke="#E08545" stroke-width="1.5"/>
<path d="M43.6602 34.9633C44.3508 34.9633 44.9102 34.4037 44.9102 33.7133C44.9102 33.023 44.3508 32.4634 43.6602 32.4634" stroke="#E08545" stroke-width="1.5"/>
<path d="M63.6606 44.9636C62.9703 44.9636 62.4106 44.404 62.4106 43.7136C62.4106 43.0233 62.9703 42.4636 63.6606 42.4636" stroke="#E08545" stroke-width="1.5"/>
<path d="M63.6606 44.9636C64.351 44.9636 64.9106 44.404 64.9106 43.7136C64.9106 43.0233 64.351 42.4636 63.6606 42.4636" stroke="#E08545" stroke-width="1.5"/>
</svg>
