<svg width="240" height="179" viewBox="0 0 240 179" fill="none" xmlns="http://www.w3.org/2000/svg">
<g clip-path="url(#clip0_5653_65733)">
<mask id="mask0_5653_65733" style="mask-type:luminance" maskUnits="userSpaceOnUse" x="0" y="0" width="240" height="179">
<path d="M240 0H0V179H240V0Z" fill="white"/>
<path d="M221.994 30.0602C231.91 34.4014 237.406 39.2207 238.038 41.9138C238.711 44.7607 235.848 51.3765 229.535 59.0856C223.34 67.31 214.008 77.5803 201.045 86.3502C194.609 90.901 187.076 94.6605 178.806 98.7203C170.685 103.233 161.548 107.224 151.129 110.451C129.716 115.903 105.556 122.86 72.4218 124.624C67.6626 124.729 64.035 128.207 62.6914 132.676C53.2652 165.655 41.6381 194.734 26.2937 140.328C-23.8085 110.432 12.1712 105.948 46.6087 108.04C51.3072 108.384 55.5831 105.675 58.3571 102.021C77.4215 75.0113 98.5256 53.5281 120.708 42.6436C131.545 36.6497 142.093 32.1063 152.031 28.8035C162.116 25.8767 171.916 25.0338 180.656 24.5283C198.259 23.824 212.258 26.2256 221.994 30.0602ZM104.637 12.6596C108.718 14.4463 110.98 16.4297 111.24 17.5381C111.517 18.7098 110.339 21.4327 107.741 24.6055C105.191 27.9907 101.35 32.2179 96.0144 35.8275C93.3659 37.7003 90.2655 39.248 86.862 40.9188C83.519 42.7761 79.759 44.4188 75.4708 45.7469C66.657 47.9909 56.7132 50.854 43.0758 51.5798C41.117 51.6234 39.6242 53.0546 39.0713 54.8944C35.1917 68.4677 30.4061 80.4358 24.0907 58.0439C3.46962 45.7389 18.2779 43.8935 32.4517 44.7544C34.3855 44.8959 36.1456 43.7808 37.2873 42.2769C45.1338 31.1604 53.8199 22.3181 62.9495 17.8382C67.4099 15.3713 71.7516 13.5013 75.8416 12.142C79.9921 10.9374 84.026 10.591 87.6234 10.3829C94.8679 10.093 100.629 11.0814 104.637 12.6596Z" fill="black"/>
</mask>
<g mask="url(#mask0_5653_65733)">
<path d="M240 0H0V179H240V0Z" fill="#F9F0E4"/>
</g>
<path d="M98.7678 158.935C99.1763 157.577 100.278 156.521 101.725 156.489C111.792 155.953 119.132 153.839 125.639 152.182C128.804 151.202 131.581 149.989 134.048 148.618C136.561 147.385 138.849 146.242 140.805 144.86C144.744 142.195 147.579 139.074 149.461 136.576C151.379 134.233 152.25 132.223 152.045 131.358C151.853 130.54 150.183 129.076 147.17 127.757C144.212 126.592 139.958 125.862 134.61 126.076C131.955 126.229 128.977 126.486 125.913 127.375C122.893 128.378 119.688 129.758 116.395 131.58C109.656 134.887 103.244 141.415 97.4513 149.621C96.6084 150.731 95.3093 151.554 93.8815 151.45C83.4179 150.814 72.486 152.176 87.7088 161.26C92.371 177.791 95.9037 168.955 98.7678 158.935Z" fill="#E8D9C4"/>
<path d="M181.526 147.554C181.935 146.196 183.037 145.14 184.483 145.107C194.55 144.572 201.891 142.458 208.397 140.801C211.563 139.821 214.339 138.608 216.807 137.237C219.319 136.004 221.608 134.862 223.563 133.479C227.502 130.814 230.337 127.694 232.22 125.194C234.138 122.852 235.008 120.842 234.803 119.977C234.611 119.159 232.941 117.694 229.928 116.376C226.97 115.211 222.717 114.481 217.369 114.695C214.713 114.848 211.735 115.104 208.671 115.994C205.652 116.998 202.446 118.378 199.154 120.199C192.414 123.506 186.002 130.033 180.21 138.24C179.367 139.35 178.068 140.173 176.64 140.069C166.176 139.433 155.244 140.796 170.467 149.879C175.129 166.409 178.662 157.574 181.526 147.554Z" fill="#E8D9C4"/>
</g>
<defs>
<clipPath id="clip0_5653_65733">
<rect width="240" height="179" fill="white"/>
</clipPath>
</defs>
</svg>
