<svg width="300" height="223" viewBox="0 0 300 223" fill="none" xmlns="http://www.w3.org/2000/svg">
<g clip-path="url(#clip0_5653_65725)">
<mask id="mask0_5653_65725" style="mask-type:luminance" maskUnits="userSpaceOnUse" x="0" y="0" width="300" height="223">
<path d="M300 0H0V223H300V0Z" fill="white"/>
<path d="M277.492 37.449C289.888 42.8573 296.758 48.8613 297.547 52.2163C298.389 55.763 294.81 64.005 286.919 73.6091C279.176 83.8552 267.51 96.65 251.307 107.576C243.262 113.245 233.845 117.929 223.508 122.986C213.356 128.608 201.935 133.58 188.911 137.601C162.145 144.393 131.945 153.06 90.5273 155.257C84.5783 155.389 80.0439 159.721 78.3644 165.289C66.5816 206.375 52.0478 242.601 32.8673 174.822C-29.7605 137.577 15.2142 131.991 58.261 134.597C64.1342 135.025 69.479 131.65 72.9465 127.098C96.777 93.4495 123.157 66.6855 150.886 53.1255C164.431 45.6583 177.616 39.9981 190.039 35.8834C202.645 32.2371 214.896 31.1871 225.821 30.5573C247.824 29.6799 265.322 32.6718 277.492 37.449ZM130.796 15.7712C135.898 17.9971 138.725 20.468 139.051 21.8489C139.397 23.3086 137.924 26.7008 134.676 30.6535C131.489 34.8708 126.688 40.1371 120.018 44.634C116.707 46.9671 112.832 48.8953 108.578 50.9768C104.399 53.2906 99.6989 55.3371 94.3386 56.9916C83.3214 59.7873 70.8916 63.3542 53.8449 64.2584C51.3963 64.3126 49.5304 66.0957 48.8392 68.3877C43.9897 85.2975 38.0078 100.207 30.1134 72.3113C4.33715 56.9817 22.8475 54.6827 40.5647 55.7552C42.982 55.9315 45.1822 54.5423 46.6092 52.6687C56.4174 38.8196 67.275 27.8038 78.6869 22.2228C84.2624 19.1494 89.6896 16.8198 94.8022 15.1263C99.9903 13.6256 105.033 13.194 109.529 12.9348C118.585 12.5737 125.787 13.805 130.796 15.7712Z" fill="black"/>
</mask>
<g mask="url(#mask0_5653_65725)">
<path d="M300 0H0V223H300V0Z" fill="#F9F0E4"/>
</g>
<path d="M123.46 198.003C123.97 196.311 125.348 194.995 127.156 194.956C139.74 194.288 148.915 191.654 157.048 189.59C161.005 188.369 164.476 186.858 167.56 185.15C170.701 183.614 173.562 182.191 176.006 180.468C180.93 177.149 184.474 173.261 186.827 170.148C189.224 167.23 190.312 164.725 190.056 163.648C189.816 162.628 187.729 160.804 183.962 159.161C180.264 157.709 174.948 156.8 168.263 157.067C164.943 157.258 161.221 157.577 157.391 158.685C153.617 159.935 149.61 161.655 145.494 163.924C137.07 168.044 129.054 176.176 121.814 186.4C120.76 187.783 119.136 188.808 117.352 188.678C104.272 187.886 90.6073 189.583 109.636 200.9C115.464 221.494 119.88 210.487 123.46 198.003Z" fill="#E8D9C4"/>
<path d="M226.908 183.824C227.419 182.133 228.796 180.817 230.604 180.776C243.188 180.109 252.364 177.476 260.497 175.412C264.454 174.191 267.924 172.68 271.009 170.972C274.149 169.435 277.01 168.012 279.454 166.289C284.378 162.969 287.922 159.082 290.275 155.969C292.672 153.05 293.76 150.547 293.504 149.469C293.264 148.449 291.177 146.625 287.411 144.982C283.713 143.531 278.396 142.622 271.711 142.888C268.391 143.079 264.67 143.398 260.839 144.506C257.065 145.757 253.058 147.476 248.942 149.745C240.518 153.865 232.503 161.997 225.262 172.221C224.209 173.604 222.585 174.629 220.8 174.499C207.72 173.708 194.056 175.405 213.084 186.721C218.912 207.315 223.328 196.308 226.908 183.824Z" fill="#E8D9C4"/>
</g>
<defs>
<clipPath id="clip0_5653_65725">
<rect width="300" height="223" fill="white"/>
</clipPath>
</defs>
</svg>
