<svg width="320" height="238" viewBox="0 0 320 238" fill="none" xmlns="http://www.w3.org/2000/svg">
<g clip-path="url(#clip0_5653_65725)">
<mask id="mask0_5653_65725" style="mask-type:luminance" maskUnits="userSpaceOnUse" x="0" y="0" width="320" height="238">
<path d="M320 0H0V238H320V0Z" fill="white"/>
<path d="M295.992 39.9679C309.213 45.74 316.542 52.1478 317.384 55.7285C318.281 59.5138 314.464 68.3102 306.047 78.5603C297.787 89.4956 285.344 103.151 268.06 114.812C259.479 120.862 249.435 125.861 238.409 131.259C227.579 137.259 215.398 142.565 201.505 146.856C172.954 154.106 140.741 163.356 96.5624 165.701C90.2168 165.841 85.38 170.464 83.5886 176.407C71.0203 220.256 55.5175 258.919 35.0583 186.581C-31.7447 146.831 16.2283 140.869 62.1449 143.65C68.4096 144.107 74.1108 140.506 77.8095 135.647C103.229 99.7352 131.367 71.171 160.945 56.6989C175.393 48.7294 189.457 42.6884 202.708 38.297C216.154 34.4054 229.222 33.2848 240.875 32.6126C264.346 31.6762 283.01 34.8694 295.992 39.9679ZM139.516 16.8319C144.957 19.2076 147.974 21.8446 148.32 23.3184C148.69 24.8763 147.119 28.4967 143.655 32.7153C140.255 37.2162 135.133 42.8367 128.019 47.6362C124.488 50.1262 120.354 52.1841 115.816 54.4056C111.359 56.8751 106.345 59.0592 100.628 60.825C88.876 63.8088 75.6176 67.6156 57.4344 68.5806C54.8226 68.6385 52.8323 70.5415 52.095 72.9877C46.9222 91.0348 40.5415 106.948 32.1209 77.1752C4.62616 60.8144 24.3706 58.3608 43.2689 59.5054C45.8473 59.6935 48.1942 58.211 49.7163 56.2113C60.1784 41.4307 71.7599 29.6739 83.9326 23.7174C89.8798 20.4374 95.6688 17.9511 101.122 16.1436C106.656 14.542 112.035 14.0814 116.831 13.8048C126.49 13.4193 134.173 14.7335 139.516 16.8319Z" fill="black"/>
</mask>
<g mask="url(#mask0_5653_65725)">
<path d="M320 0H0V238H320V0Z" fill="#F9F0E4"/>
</g>
<path d="M131.69 211.321C132.235 209.516 133.704 208.111 135.633 208.069C149.056 207.356 158.843 204.545 167.518 202.343C171.739 201.039 175.44 199.427 178.731 197.604C182.081 195.964 185.132 194.445 187.74 192.607C192.992 189.064 196.772 184.915 199.281 181.592C201.839 178.478 202.999 175.805 202.726 174.655C202.47 173.567 200.244 171.62 196.226 169.866C192.282 168.317 186.611 167.347 179.48 167.631C175.939 167.836 171.969 168.176 167.883 169.359C163.858 170.693 159.584 172.528 155.194 174.95C146.207 179.347 137.658 188.026 129.935 198.938C128.811 200.413 127.079 201.508 125.175 201.369C111.224 200.524 96.6476 202.335 116.945 214.413C123.161 236.392 127.871 224.644 131.69 211.321Z" fill="#E8D9C4"/>
<path d="M242.035 196.19C242.58 194.384 244.049 192.979 245.978 192.936C259.401 192.224 269.188 189.414 277.863 187.211C282.084 185.908 285.786 184.295 289.076 182.472C292.426 180.832 295.477 179.313 298.085 177.475C303.337 173.932 307.117 169.783 309.627 166.46C312.184 163.346 313.344 160.673 313.071 159.523C312.815 158.435 310.589 156.488 306.571 154.735C302.627 153.185 296.956 152.215 289.826 152.5C286.284 152.704 282.314 153.044 278.229 154.227C274.203 155.561 269.929 157.396 265.539 159.818C256.553 164.215 248.003 172.894 240.28 183.806C239.156 185.282 237.424 186.376 235.52 186.237C221.569 185.392 206.993 187.203 227.29 199.281C233.506 221.26 238.217 209.513 242.035 196.19Z" fill="#E8D9C4"/>
</g>
<defs>
<clipPath id="clip0_5653_65725">
<rect width="320" height="238" fill="white"/>
</clipPath>
</defs>
</svg>
