<svg width="346" height="258" viewBox="0 0 346 258" fill="none" xmlns="http://www.w3.org/2000/svg">
<g clip-path="url(#clip0_5653_65725)">
<mask id="mask0_5653_65725" style="mask-type:luminance" maskUnits="userSpaceOnUse" x="0" y="0" width="346" height="258">
<path d="M346 0H0V258H346V0Z" fill="white"/>
<path d="M320.041 43.3268C334.337 49.584 342.26 56.5303 343.171 60.4119C344.142 64.5153 340.014 74.0509 330.913 85.1623C321.982 97.0166 308.528 111.82 289.84 124.46C280.562 131.019 269.701 136.438 257.779 142.289C246.07 148.794 232.899 154.546 217.878 159.198C187.007 167.056 152.176 177.084 104.408 179.625C97.5468 179.777 92.3171 184.789 90.3801 191.232C76.7906 238.765 60.0283 280.677 37.9067 202.261C-34.324 159.17 17.5468 152.707 67.1941 155.722C73.9679 156.218 80.1322 152.313 84.1315 147.046C111.616 108.117 142.041 77.1521 174.021 61.4639C189.644 52.8246 204.85 46.2761 219.178 41.5156C233.717 37.297 247.846 36.0822 260.446 35.3535C285.824 34.3384 306.005 37.7999 320.041 43.3268ZM150.851 18.2467C156.735 20.822 159.996 23.6807 160.371 25.2783C160.771 26.9671 159.072 30.8917 155.327 35.4649C151.65 40.344 146.113 46.4368 138.421 51.6396C134.602 54.3389 130.133 56.5696 125.226 58.9778C120.406 61.6548 114.986 64.0225 108.804 65.9367C96.0971 69.1712 81.7614 73.2979 62.1009 74.344C59.2769 74.4068 57.1248 76.4697 56.3277 79.1214C50.7346 98.6852 43.8355 115.935 34.7306 83.6609C5.00198 65.9252 26.3506 63.2654 46.7844 64.5062C49.5723 64.7102 52.1099 63.103 53.7557 60.9353C65.0679 44.9126 77.5903 32.1679 90.7521 25.7109C97.1825 22.1552 103.442 19.4599 109.338 17.5006C115.322 15.7644 121.137 15.2651 126.324 14.9652C136.768 14.5473 145.074 15.972 150.851 18.2467Z" fill="black"/>
</mask>
<g mask="url(#mask0_5653_65725)">
<path d="M346 0H0V258H346V0Z" fill="#F9F0E4"/>
</g>
<path d="M142.39 229.079C142.979 227.122 144.568 225.599 146.653 225.554C161.167 224.781 171.749 221.734 181.129 219.346C185.693 217.934 189.695 216.186 193.253 214.209C196.875 212.432 200.175 210.785 202.994 208.792C208.673 204.952 212.76 200.454 215.473 196.852C218.238 193.476 219.493 190.579 219.198 189.332C218.921 188.152 216.514 186.042 212.17 184.141C207.905 182.462 201.773 181.41 194.063 181.718C190.235 181.939 185.942 182.309 181.524 183.591C177.171 185.037 172.55 187.026 167.803 189.651C158.087 194.418 148.843 203.827 140.492 215.655C139.277 217.255 137.404 218.441 135.346 218.291C120.261 217.375 104.501 219.338 126.447 232.431C133.168 256.257 138.261 243.522 142.39 229.079Z" fill="#E8D9C4"/>
<path d="M261.7 212.676C262.289 210.719 263.878 209.196 265.963 209.15C280.477 208.378 291.059 205.331 300.439 202.943C305.003 201.53 309.005 199.782 312.563 197.806C316.185 196.028 319.485 194.382 322.304 192.389C327.983 188.548 332.07 184.05 334.784 180.448C337.548 177.072 338.803 174.175 338.508 172.928C338.231 171.749 335.824 169.638 331.48 167.738C327.215 166.058 321.083 165.006 313.374 165.315C309.545 165.536 305.252 165.905 300.834 167.187C296.481 168.634 291.86 170.623 287.113 173.248C277.397 178.015 268.153 187.423 259.802 199.252C258.587 200.852 256.714 202.038 254.656 201.887C239.571 200.971 223.811 202.935 245.757 216.028C252.478 239.853 257.571 227.119 261.7 212.676Z" fill="#E8D9C4"/>
</g>
<defs>
<clipPath id="clip0_5653_65725">
<rect width="346" height="258" fill="white"/>
</clipPath>
</defs>
</svg>
