<svg width="359" height="267" viewBox="0 0 359 267" fill="none" xmlns="http://www.w3.org/2000/svg">
<g clip-path="url(#clip0_5653_65725)">
<mask id="mask0_5653_65725" style="mask-type:luminance" maskUnits="userSpaceOnUse" x="0" y="0" width="359" height="267">
<path d="M359 0H0V267H359V0Z" fill="white"/>
<path d="M332.065 44.8383C346.899 51.3137 355.12 58.5023 356.065 62.5194C357.072 66.7658 352.789 76.6341 343.346 88.1331C334.08 100.401 320.12 115.72 300.73 128.802C291.103 135.59 279.835 141.197 267.464 147.253C255.316 153.984 241.649 159.937 226.064 164.751C194.033 172.883 157.893 183.261 108.331 185.891C101.212 186.049 95.7856 191.235 93.7759 197.902C79.6758 247.094 62.2836 290.469 39.3309 209.316C-35.6137 164.723 18.206 158.034 69.7187 161.154C76.747 161.667 83.143 157.627 87.2925 152.176C115.81 111.888 147.378 79.8435 180.56 63.608C196.769 54.6673 212.547 47.8904 227.413 42.9638C242.498 38.5981 257.158 37.3409 270.232 36.5868C296.563 35.5363 317.502 39.1185 332.065 44.8383ZM156.519 18.8833C162.624 21.5484 166.008 24.5068 166.397 26.1601C166.811 27.9079 165.049 31.9693 161.162 36.702C157.348 41.7513 151.603 48.0567 143.621 53.441C139.66 56.2344 135.022 58.543 129.931 61.0352C124.93 63.8056 119.306 66.2559 112.892 68.2369C99.7077 71.5842 84.8333 75.8548 64.4341 76.9374C61.5041 77.0024 59.2711 79.1373 58.444 81.8815C52.6408 102.128 45.4824 119.98 36.0355 86.5793C5.18989 68.2249 27.3407 65.4724 48.5422 66.7564C51.4349 66.9675 54.0678 65.3043 55.7754 63.0609C67.5126 46.4794 80.5055 33.29 94.1618 26.6078C100.834 22.9281 107.328 20.1388 113.446 18.1111C119.655 16.3143 125.689 15.7976 131.07 15.4872C141.906 15.0548 150.525 16.5292 156.519 18.8833Z" fill="black"/>
</mask>
<g mask="url(#mask0_5653_65725)">
<path d="M359 0H0V267H359V0Z" fill="#F9F0E4"/>
</g>
<path d="M147.74 237.071C148.351 235.045 150 233.47 152.163 233.422C167.222 232.623 178.202 229.469 187.935 226.998C192.67 225.536 196.822 223.727 200.514 221.682C204.272 219.842 207.696 218.138 210.621 216.076C216.513 212.102 220.753 207.446 223.569 203.72C226.438 200.226 227.74 197.227 227.433 195.937C227.146 194.716 224.649 192.532 220.142 190.565C215.716 188.827 209.354 187.738 201.355 188.057C197.382 188.286 192.928 188.669 188.344 189.995C183.828 191.492 179.033 193.551 174.108 196.267C164.027 201.2 154.435 210.937 145.771 223.178C144.51 224.834 142.567 226.061 140.431 225.906C124.779 224.958 108.427 226.99 131.198 240.539C138.172 265.197 143.456 252.017 147.74 237.071Z" fill="#E8D9C4"/>
<path d="M271.533 220.095C272.144 218.069 273.793 216.493 275.956 216.445C291.015 215.647 301.995 212.493 311.728 210.022C316.463 208.56 320.615 206.751 324.307 204.706C328.065 202.866 331.488 201.162 334.414 199.1C340.306 195.125 344.546 190.47 347.362 186.743C350.231 183.249 351.533 180.251 351.226 178.96C350.939 177.74 348.442 175.556 343.935 173.589C339.509 171.851 333.147 170.762 325.148 171.081C321.175 171.31 316.721 171.692 312.137 173.019C307.621 174.516 302.826 176.575 297.901 179.291C287.82 184.224 278.228 193.96 269.564 206.202C268.303 207.858 266.36 209.085 264.224 208.93C248.572 207.982 232.22 210.014 254.991 223.563C261.965 248.22 267.249 235.041 271.533 220.095Z" fill="#E8D9C4"/>
</g>
<defs>
<clipPath id="clip0_5653_65725">
<rect width="359" height="267" fill="white"/>
</clipPath>
</defs>
</svg>
