<svg width="427" height="318" viewBox="0 0 427 318" fill="none" xmlns="http://www.w3.org/2000/svg">
<g clip-path="url(#clip0_5653_65733)">
<mask id="mask0_5653_65733" style="mask-type:luminance" maskUnits="userSpaceOnUse" x="0" y="0" width="427" height="318">
<path d="M427 0H0V318H427V0Z" fill="white"/>
<path d="M394.964 53.4028C412.606 61.1152 422.385 69.6769 423.508 74.4612C424.707 79.5188 419.613 91.272 408.381 104.967C397.36 119.579 380.756 137.824 357.693 153.404C346.242 161.489 332.839 168.168 318.126 175.38C303.676 183.397 287.421 190.487 268.884 196.22C230.785 205.906 187.801 218.266 128.85 221.399C120.383 221.586 113.929 227.763 111.538 235.704C94.7675 294.292 74.081 345.951 46.7807 249.298C-42.3596 196.186 21.6544 188.22 82.9244 191.937C91.2839 192.547 98.8914 187.735 103.827 181.243C137.746 133.26 175.293 95.0944 214.76 75.7578C234.04 65.1094 252.807 57.0379 270.489 51.1704C288.43 45.9707 305.868 44.4733 321.418 43.5752C352.736 42.3241 377.641 46.5906 394.964 53.4028ZM186.166 22.4901C193.427 25.6643 197.452 29.1878 197.915 31.157C198.408 33.2385 196.311 38.0758 191.689 43.7125C187.152 49.7263 180.318 57.2361 170.825 63.6487C166.113 66.9758 160.597 69.7254 154.542 72.6936C148.594 75.9932 141.904 78.9114 134.275 81.2708C118.594 85.2575 100.902 90.3439 76.6388 91.6333C73.1537 91.7106 70.4979 94.2533 69.5141 97.5218C62.6117 121.635 54.0974 142.897 42.8611 103.117C6.17282 81.2566 32.5193 77.9783 57.7367 79.5076C61.1773 79.759 64.3089 77.7781 66.34 75.1062C80.3004 55.3574 95.7544 39.6488 111.997 31.6901C119.933 27.3076 127.658 23.9855 134.935 21.5705C142.319 19.4305 149.496 18.8151 155.896 18.4454C168.786 17.9304 179.036 19.6864 186.166 22.4901Z" fill="black"/>
</mask>
<g mask="url(#mask0_5653_65733)">
<path d="M427 0H0V318H427V0Z" fill="#F9F0E4"/>
</g>
<path d="M175.724 282.354C176.451 279.941 178.411 278.064 180.985 278.008C198.896 277.056 211.956 273.3 223.532 270.357C229.164 268.616 234.103 266.461 238.494 264.025C242.964 261.834 247.036 259.805 250.515 257.348C257.523 252.615 262.567 247.071 265.916 242.632C269.328 238.471 270.877 234.899 270.512 233.363C270.171 231.908 267.2 229.308 261.839 226.964C256.576 224.894 249.009 223.598 239.494 223.978C234.769 224.251 229.471 224.706 224.019 226.286C218.647 228.069 212.945 230.521 207.086 233.756C195.095 239.632 183.687 251.228 173.382 265.807C171.882 267.779 169.571 269.241 167.03 269.056C148.414 267.927 128.964 270.347 156.048 286.485C164.343 315.852 170.628 300.155 175.724 282.354Z" fill="#E8D9C4"/>
<path d="M322.966 262.135C323.692 259.723 325.653 257.846 328.226 257.789C346.138 256.838 359.198 253.082 370.774 250.139C376.406 248.397 381.345 246.243 385.736 243.807C390.205 241.616 394.277 239.587 397.757 237.13C404.765 232.396 409.809 226.852 413.158 222.413C416.57 218.251 418.119 214.681 417.754 213.144C417.413 211.69 414.442 209.089 409.081 206.746C403.818 204.676 396.25 203.38 386.736 203.76C382.01 204.033 376.713 204.487 371.261 206.068C365.889 207.851 360.186 210.302 354.328 213.538C342.337 219.413 330.929 231.009 320.623 245.589C319.124 247.561 316.812 249.023 314.272 248.838C295.656 247.709 276.206 250.129 303.29 266.267C311.585 295.633 317.87 279.937 322.966 262.135Z" fill="#E8D9C4"/>
</g>
<defs>
<clipPath id="clip0_5653_65733">
<rect width="427" height="318" fill="white"/>
</clipPath>
</defs>
</svg>
