<svg width="440" height="328" viewBox="0 0 440 328" fill="none" xmlns="http://www.w3.org/2000/svg">
<g clip-path="url(#clip0_5653_65733)">
<mask id="mask0_5653_65733" style="mask-type:luminance" maskUnits="userSpaceOnUse" x="0" y="0" width="440" height="328">
<path d="M440 0H0V328H440V0Z" fill="white"/>
<path d="M406.988 55.0821C425.168 63.037 435.244 71.8679 436.402 76.8027C437.637 82.0193 432.388 94.1421 420.814 108.268C409.457 123.339 392.348 142.158 368.583 158.228C356.784 166.567 342.973 173.456 327.812 180.895C312.921 189.164 296.171 196.477 277.07 202.391C237.812 212.381 193.518 225.129 132.773 228.361C124.048 228.554 117.397 234.926 114.934 243.116C97.6527 303.547 76.3364 356.83 48.2049 257.138C-43.6492 202.356 22.3137 194.139 85.449 197.972C94.063 198.602 101.902 193.639 106.988 186.943C141.939 137.451 180.63 98.0847 221.299 78.14C241.166 67.1568 260.503 58.8315 278.724 52.7794C297.212 47.4162 315.18 45.8718 331.203 44.9454C363.475 43.655 389.139 48.0556 406.988 55.0821ZM191.834 23.1973C199.316 26.4713 203.463 30.1056 203.94 32.1366C204.448 34.2837 202.288 39.2731 197.525 45.087C192.85 51.2899 185.808 59.0359 176.026 65.6502C171.171 69.0819 165.486 71.9179 159.247 74.9795C153.118 78.3828 146.225 81.3928 138.363 83.8264C122.204 87.9385 103.974 93.1848 78.9721 94.5148C75.3809 94.5945 72.6442 97.2172 71.6304 100.588C64.5178 125.46 55.7444 147.391 44.166 106.359C6.36073 83.8118 33.5093 80.4304 59.4945 82.0078C63.0398 82.2671 66.2668 80.2239 68.3597 77.468C82.7451 57.0981 98.6696 40.8955 115.407 32.6866C123.584 28.1662 131.544 24.7397 139.043 22.2487C146.652 20.0414 154.047 19.4067 160.643 19.0254C173.924 18.4942 184.487 20.3054 191.834 23.1973Z" fill="black"/>
</mask>
<g mask="url(#mask0_5653_65733)">
<path d="M440 0H0V328H440V0Z" fill="#F9F0E4"/>
</g>
<path d="M181.074 291.233C181.823 288.745 183.843 286.809 186.495 286.751C204.952 285.769 218.409 281.895 230.338 278.859C236.141 277.063 241.231 274.841 245.755 272.328C250.361 270.068 254.557 267.975 258.142 265.441C265.364 260.559 270.561 254.841 274.012 250.262C277.529 245.97 279.124 242.286 278.748 240.702C278.397 239.201 275.335 236.519 269.811 234.102C264.388 231.967 256.59 230.63 246.786 231.022C241.917 231.303 236.458 231.773 230.84 233.402C225.304 235.241 219.428 237.77 213.391 241.107C201.036 247.167 189.28 259.129 178.661 274.166C177.115 276.2 174.734 277.708 172.116 277.517C152.933 276.353 132.891 278.849 160.799 295.494C169.347 325.785 175.823 309.594 181.074 291.233Z" fill="#E8D9C4"/>
<path d="M332.798 270.379C333.547 267.891 335.568 265.955 338.219 265.896C356.676 264.915 370.133 261.041 382.062 258.005C387.865 256.209 392.955 253.987 397.479 251.474C402.085 249.214 406.281 247.121 409.866 244.587C417.088 239.704 422.285 233.987 425.737 229.407C429.253 225.115 430.848 221.432 430.473 219.847C430.121 218.347 427.059 215.664 421.536 213.248C416.112 211.113 408.314 209.776 398.51 210.168C393.641 210.449 388.182 210.918 382.564 212.548C377.029 214.387 371.152 216.916 365.116 220.253C352.76 226.313 341.004 238.274 330.385 253.312C328.839 255.346 326.458 256.854 323.84 256.663C304.657 255.499 284.615 257.995 312.523 274.64C321.071 304.93 327.548 288.74 332.798 270.379Z" fill="#E8D9C4"/>
</g>
<defs>
<clipPath id="clip0_5653_65733">
<rect width="440" height="328" fill="white"/>
</clipPath>
</defs>
</svg>
