<svg width="744" height="899" viewBox="0 0 744 899" fill="none" xmlns="http://www.w3.org/2000/svg">
<path d="M425.383 20.1987C422.48 8.51777 406.764 1.69326 397.584 12.1989C397.265 12.4699 396.998 13.1352 397.612 13.2866C408.941 14.6411 418.564 25.3699 419.421 37.6206C419.485 37.9393 419.648 38.0309 419.824 38.0269C419.959 38.1584 420.127 38.2062 420.326 38.0229C427.596 29.3817 440.708 28.7284 450.051 36.5529C450.634 36.9234 450.733 36.2023 450.661 35.7481C449.326 20.625 433.889 13.5933 425.383 20.1987Z" fill="#E8D9C4"/>
<path d="M312.951 75.7635C310.048 64.0825 294.332 57.254 285.152 67.7637C284.833 68.0346 284.566 68.6999 285.18 68.8513C296.509 70.2059 306.132 80.9347 306.989 93.1853C307.053 93.504 307.213 93.5957 307.392 93.5917C307.528 93.7231 307.695 93.7709 307.895 93.5877C315.164 84.9465 328.276 84.2931 337.62 92.1176C338.202 92.4881 338.302 91.767 338.23 91.3128C336.894 76.1898 321.457 69.1581 312.951 75.7635Z" fill="#E8D9C4"/>
<path d="M574.523 66.1902C571.62 54.5093 555.904 47.6808 546.724 58.1905C546.405 58.4614 546.138 59.1267 546.752 59.2781C558.082 60.6326 567.704 71.3614 568.562 83.6121C568.625 83.9308 568.789 84.0224 568.964 84.0184C569.1 84.1499 569.267 84.1977 569.467 84.0144C576.737 75.3732 589.849 74.7199 599.192 82.5444C599.778 82.9149 599.874 82.1938 599.802 81.7396C598.466 66.6165 583.029 59.5848 574.523 66.1902Z" fill="#E8D9C4"/>
<path d="M487.299 239.801C484.396 228.12 468.68 221.291 459.5 231.801C459.181 232.072 458.914 232.737 459.528 232.888C470.857 234.243 480.48 244.972 481.337 257.222C481.401 257.541 481.564 257.633 481.74 257.629C481.875 257.76 482.043 257.808 482.242 257.625C489.512 248.984 502.624 248.33 511.967 256.155C512.554 256.525 512.649 255.804 512.577 255.35C511.242 240.227 495.805 233.195 487.299 239.801Z" fill="#E8D9C4"/>
<path d="M622.935 260.662C620.032 248.981 604.316 242.152 595.136 252.662C594.817 252.933 594.55 253.598 595.164 253.75C606.494 255.104 616.116 265.833 616.974 278.084C617.038 278.402 617.201 278.494 617.376 278.49C617.512 278.622 617.68 278.669 617.879 278.486C625.149 269.845 638.261 269.192 647.604 277.016C648.19 277.387 648.286 276.665 648.214 276.211C646.878 261.088 631.441 254.057 622.935 260.662Z" fill="#E8D9C4"/>
<path d="M493.771 147.54C490.868 135.859 475.152 129.031 465.972 139.541C465.653 139.811 465.386 140.477 466 140.628C477.33 141.983 486.952 152.712 487.81 164.962C487.873 165.281 488.037 165.373 488.212 165.369C488.348 165.5 488.515 165.548 488.715 165.365C495.985 156.723 509.097 156.07 518.44 163.894C519.026 164.265 519.122 163.544 519.05 163.09C517.714 147.967 502.277 140.935 493.771 147.54Z" fill="#E8D9C4"/>
<path d="M602.568 184.889C599.665 173.208 583.949 166.38 574.769 176.889C574.45 177.16 574.183 177.825 574.797 177.977C586.127 179.331 595.749 190.06 596.607 202.311C596.67 202.63 596.834 202.721 597.009 202.717C597.145 202.849 597.312 202.896 597.512 202.713C604.782 194.072 617.893 193.419 627.237 201.243C627.823 201.614 627.919 200.893 627.847 200.438C626.511 185.315 611.074 178.284 602.568 184.889Z" fill="#E8D9C4"/>
<path d="M688.219 223.631C685.316 211.95 669.6 205.121 660.42 215.631C660.101 215.902 659.833 216.567 660.448 216.719C671.777 218.073 681.4 228.802 682.257 241.052C682.321 241.371 682.484 241.463 682.66 241.459C682.795 241.59 682.963 241.638 683.162 241.455C690.432 232.814 703.544 232.16 712.887 239.985C713.473 240.355 713.569 239.634 713.497 239.18C712.161 224.057 696.725 217.025 688.219 223.631Z" fill="#E8D9C4"/>
<path d="M711.83 177.187C708.927 165.506 693.211 158.677 684.031 169.187C683.712 169.458 683.445 170.123 684.059 170.275C695.388 171.629 705.011 182.358 705.868 194.609C705.932 194.927 706.096 195.019 706.271 195.015C706.407 195.146 706.574 195.194 706.773 195.011C714.043 186.37 727.155 185.716 736.499 193.541C737.085 193.911 737.181 193.19 737.109 192.736C735.773 177.613 720.336 170.581 711.83 177.187Z" fill="#E8D9C4"/>
<path d="M252.994 143.988C250.091 132.307 234.375 125.478 225.195 135.988C224.876 136.259 224.609 136.924 225.223 137.075C236.552 138.43 246.175 149.159 247.032 161.409C247.096 161.728 247.26 161.82 247.435 161.816C247.571 161.947 247.738 161.995 247.938 161.812C255.207 153.171 268.319 152.517 277.663 160.342C278.249 160.712 278.345 159.991 278.273 159.537C276.937 144.414 261.5 137.382 252.994 143.988Z" fill="#E8D9C4"/>
<path d="M99.9843 160.15C97.0812 148.469 81.3652 141.64 72.1853 152.15C71.8662 152.421 71.5991 153.086 72.2132 153.238C83.5426 154.592 93.1651 165.321 94.0225 177.572C94.0863 177.89 94.2498 177.982 94.4253 177.978C94.5609 178.109 94.7284 178.157 94.9278 177.974C102.198 169.333 115.309 168.679 124.653 176.504C125.239 176.874 125.335 176.153 125.263 175.699C123.927 160.576 108.49 153.544 99.9843 160.15Z" fill="#E8D9C4"/>
<path d="M218.922 54.555C216.019 42.874 200.303 36.0455 191.123 46.5552C190.804 46.8261 190.537 47.4914 191.151 47.6428C202.48 48.9974 212.103 59.7262 212.96 71.9768C213.024 72.2955 213.187 72.3872 213.363 72.3832C213.498 72.5146 213.666 72.5624 213.865 72.3792C221.135 63.738 234.247 63.0846 243.59 70.9091C244.177 71.2796 244.272 70.5585 244.201 70.1044C242.865 54.9813 227.428 47.9496 218.922 54.555Z" fill="#E8D9C4"/>
<path d="M171.4 296.87C168.497 285.189 152.781 278.36 143.601 288.87C143.282 289.141 143.015 289.806 143.629 289.958C154.959 291.312 164.581 302.041 165.439 314.292C165.502 314.61 165.666 314.702 165.841 314.698C165.977 314.83 166.144 314.877 166.344 314.694C173.614 306.053 186.725 305.4 196.069 313.224C196.655 313.595 196.751 312.873 196.679 312.419C195.343 297.296 179.906 290.265 171.4 296.87Z" fill="#E8D9C4"/>
<path d="M346.775 237.474C343.872 225.793 328.156 218.965 318.976 229.475C318.657 229.746 318.39 230.411 319.004 230.562C330.334 231.917 339.956 242.646 340.814 254.896C340.877 255.215 341.041 255.307 341.216 255.303C341.352 255.434 341.519 255.482 341.719 255.299C348.989 246.657 362.1 246.004 371.444 253.829C372.03 254.199 372.126 253.478 372.054 253.024C370.718 237.901 355.281 230.869 346.775 237.474Z" fill="#E8D9C4"/>
<path d="M267.646 479.014C264.743 467.334 249.027 460.505 239.847 471.015C239.528 471.286 239.261 471.951 239.875 472.102C251.205 473.457 260.827 484.186 261.685 496.436C261.748 496.755 261.912 496.847 262.087 496.843C262.223 496.974 262.39 497.022 262.59 496.839C269.86 488.197 282.972 487.544 292.315 495.369C292.901 495.739 292.997 495.018 292.925 494.564C291.589 479.441 276.152 472.409 267.646 479.014Z" fill="#E8D9C4"/>
<path d="M439.801 344.041C436.898 332.36 421.182 325.532 412.002 336.042C411.683 336.312 411.415 336.978 412.03 337.129C423.359 338.484 432.982 349.212 433.839 361.463C433.903 361.782 434.066 361.873 434.242 361.869C434.377 362.001 434.545 362.049 434.744 361.866C442.014 353.224 455.126 352.571 464.469 360.395C465.056 360.766 465.151 360.045 465.079 359.591C463.744 344.468 448.307 337.436 439.801 344.041Z" fill="#E8D9C4"/>
<path d="M530.412 503.798C527.509 492.117 511.793 485.288 502.613 495.798C502.294 496.069 502.027 496.734 502.641 496.886C513.97 498.24 523.593 508.969 524.45 521.219C524.514 521.538 524.678 521.63 524.853 521.626C524.989 521.757 525.156 521.805 525.355 521.622C532.625 512.981 545.737 512.327 555.081 520.152C555.667 520.522 555.763 519.801 555.691 519.347C554.355 504.224 538.918 497.192 530.412 503.798Z" fill="#E8D9C4"/>
<path d="M277.113 619.12C274.21 607.439 258.494 600.61 249.314 611.12C248.995 611.391 248.728 612.056 249.342 612.208C260.671 613.562 270.294 624.291 271.151 636.542C271.215 636.86 271.379 636.952 271.554 636.948C271.69 637.08 271.857 637.127 272.057 636.944C279.326 628.303 292.438 627.65 301.782 635.474C302.368 635.845 302.464 635.123 302.392 634.669C301.056 619.546 285.619 612.515 277.113 619.12Z" fill="#E8D9C4"/>
<path d="M339.67 880.432C336.767 868.751 321.051 861.923 311.871 872.433C311.552 872.704 311.285 873.369 311.899 873.52C323.228 874.875 332.851 885.604 333.708 897.854C333.772 898.173 333.935 898.265 334.111 898.261C334.246 898.392 334.414 898.44 334.613 898.257C341.883 889.615 354.995 888.962 364.338 896.787C364.925 897.157 365.02 896.436 364.949 895.982C363.613 880.859 348.176 873.827 339.67 880.432Z" fill="#E8D9C4"/>
<path d="M714.937 75.7635C712.034 64.0825 696.318 57.254 687.138 67.7637C686.819 68.0346 686.552 68.6999 687.166 68.8513C698.496 70.2059 708.118 80.9347 708.976 93.1853C709.039 93.504 709.203 93.5957 709.378 93.5917C709.514 93.7231 709.681 93.7709 709.881 93.5877C717.151 84.9465 730.263 84.2931 739.606 92.1176C740.192 92.4881 740.288 91.767 740.216 91.3128C738.88 76.1898 723.443 69.1581 714.937 75.7635Z" fill="#E8D9C4"/>
<path d="M619.098 665.836C616.194 654.155 600.478 647.327 591.299 657.836C590.98 658.107 590.712 658.773 591.326 658.924C602.656 660.279 612.278 671.007 613.136 683.258C613.2 683.577 613.363 683.668 613.539 683.664C613.674 683.796 613.842 683.844 614.041 683.66C621.311 675.019 634.423 674.366 643.766 682.19C644.352 682.561 644.448 681.84 644.376 681.386C643.04 666.263 627.604 659.231 619.098 665.836Z" fill="#E8D9C4"/>
<path d="M540.738 806.841C537.835 795.16 522.119 788.331 512.939 798.841C512.62 799.112 512.353 799.777 512.967 799.928C524.296 801.283 533.919 812.012 534.776 824.262C534.84 824.581 535.004 824.673 535.179 824.669C535.315 824.8 535.482 824.848 535.682 824.665C542.951 816.024 556.063 815.37 565.407 823.195C565.993 823.565 566.089 822.844 566.017 822.39C564.681 807.267 549.244 800.235 540.738 806.841Z" fill="#E8D9C4"/>
<path d="M718.701 479.609C715.798 467.928 700.082 461.099 690.902 471.609C690.583 471.88 690.316 472.545 690.93 472.697C702.259 474.051 711.882 484.78 712.739 497.031C712.803 497.349 712.967 497.441 713.142 497.437C713.278 497.568 713.445 497.616 713.645 497.433C720.914 488.792 734.026 488.138 743.37 495.963C743.956 496.333 744.052 495.612 743.98 495.158C742.644 480.035 727.207 473.003 718.701 479.609Z" fill="#E8D9C4"/>
<path d="M585.303 419.446C582.4 407.765 566.684 400.937 557.504 411.446C557.185 411.717 556.917 412.383 557.532 412.534C568.861 413.888 578.484 424.617 579.341 436.868C579.405 437.187 579.568 437.278 579.744 437.274C579.879 437.406 580.047 437.454 580.246 437.27C587.516 428.629 600.628 427.976 609.971 435.8C610.557 436.171 610.653 435.45 610.581 434.995C609.245 419.872 593.809 412.841 585.303 419.446Z" fill="#E8D9C4"/>
<path d="M81.5781 849.289C78.6749 837.608 62.959 830.779 53.779 841.289C53.46 841.56 53.1928 842.225 53.8069 842.377C65.1363 843.731 74.7589 854.46 75.6163 866.711C75.6801 867.029 75.8436 867.121 76.019 867.117C76.1546 867.249 76.3221 867.296 76.5215 867.113C83.7913 858.472 96.9032 857.819 106.247 865.643C106.833 866.014 106.929 865.292 106.857 864.838C105.521 849.715 90.0841 842.683 81.5781 849.289Z" fill="#E8D9C4"/>
<path d="M28.1406 428.126C25.2374 416.445 9.52146 409.616 0.341523 420.126C0.0224982 420.397 -0.244685 421.062 0.369438 421.214C11.6988 422.568 21.3214 433.297 22.1788 445.548C22.2426 445.866 22.4061 445.958 22.5815 445.954C22.7171 446.085 22.8846 446.133 23.084 445.95C30.3538 437.309 43.4657 436.655 52.8091 444.48C53.3954 444.85 53.4911 444.129 53.4193 443.675C52.0834 428.552 36.6466 421.52 28.1406 428.126Z" fill="#E8D9C4"/>
<path d="M126.703 634.692C123.8 623.011 108.084 616.182 98.904 626.692C98.585 626.963 98.3178 627.628 98.9319 627.78C110.261 629.134 119.884 639.863 120.741 652.114C120.805 652.432 120.969 652.524 121.144 652.52C121.28 652.651 121.447 652.699 121.647 652.516C128.916 643.875 142.028 643.221 151.372 651.046C151.958 651.416 152.054 650.695 151.982 650.241C150.646 635.118 135.209 628.086 126.703 634.692Z" fill="#E8D9C4"/>
<path d="M688.219 344.041C685.316 332.36 669.6 325.532 660.42 336.042C660.101 336.312 659.833 336.978 660.448 337.129C671.777 338.484 681.4 349.212 682.257 361.463C682.321 361.782 682.484 361.873 682.66 361.869C682.795 362.001 682.963 362.049 683.162 361.866C690.432 353.224 703.544 352.571 712.887 360.395C713.473 360.766 713.569 360.045 713.497 359.591C712.161 344.468 696.725 337.436 688.219 344.041Z" fill="#E8D9C4"/>
<path d="M573.475 314.739C570.571 303.058 554.855 296.23 545.676 306.739C545.356 307.01 545.089 307.676 545.703 307.827C557.033 309.181 566.655 319.91 567.513 332.161C567.577 332.48 567.74 332.571 567.916 332.567C568.051 332.699 568.219 332.747 568.418 332.563C575.688 323.922 588.8 323.269 598.143 331.093C598.729 331.464 598.825 330.743 598.753 330.288C597.417 315.165 581.981 308.134 573.475 314.739Z" fill="#E8D9C4"/>
<path d="M390.371 151.177C387.468 139.496 371.752 132.667 362.572 143.177C362.253 143.448 361.986 144.113 362.6 144.264C373.929 145.619 383.552 156.348 384.409 168.598C384.473 168.917 384.637 169.009 384.816 169.001C384.948 169.136 385.119 169.184 385.314 169.001C392.584 160.36 405.696 159.706 415.04 167.531C415.626 167.901 415.722 167.18 415.65 166.726C414.318 151.603 398.877 144.571 390.371 151.177Z" fill="#E8D9C4"/>
<path d="M354.264 23.3452C351.365 11.6643 335.645 4.83975 326.465 15.3454C326.146 15.6163 325.883 16.2817 326.493 16.4331C337.818 17.7876 347.445 28.5164 348.302 40.767C348.366 41.0858 348.529 41.1814 348.709 41.1734C348.84 41.3049 349.012 41.3527 349.207 41.1694C356.477 32.5282 369.589 31.8749 378.932 39.6993C379.515 40.0698 379.614 39.3487 379.543 38.8946C378.211 23.7715 362.77 16.7398 354.264 23.3452Z" fill="#E8D9C4"/>
<path d="M427.43 84.2323C424.606 72.5155 408.475 65.8782 398.845 76.5911C398.51 76.87 398.223 77.5433 398.857 77.6867C410.529 78.8819 420.307 89.5429 421.013 101.861C421.073 102.18 421.24 102.272 421.424 102.264C421.563 102.391 421.735 102.443 421.942 102.256C429.575 93.4472 443.126 92.5946 452.656 100.331C453.251 100.694 453.362 99.9689 453.298 99.5108C452.146 84.308 436.31 77.4556 427.43 84.2323Z" fill="#E8D9C4"/>
<path d="M508.828 88.0983C506.004 76.3815 489.877 69.7403 480.243 80.4571C479.908 80.736 479.625 81.4093 480.259 81.5487C491.931 82.7439 501.709 93.405 502.411 105.727C502.471 106.046 502.638 106.138 502.822 106.13C502.961 106.257 503.137 106.305 503.344 106.122C510.973 97.3132 524.524 96.4607 534.054 104.197C534.653 104.56 534.764 103.835 534.696 103.377C533.544 88.174 517.708 81.3216 508.828 88.0983Z" fill="#E8D9C4"/>
<path d="M684.521 113.906C681.702 102.185 665.571 95.5475 655.941 106.26C655.606 106.543 655.319 107.213 655.953 107.356C667.625 108.551 677.403 119.212 678.105 131.535C678.169 131.853 678.332 131.945 678.52 131.933C678.655 132.064 678.831 132.112 679.038 131.929C686.671 123.12 700.217 122.268 709.752 130.005C710.346 130.367 710.458 129.642 710.39 129.184C709.238 113.977 693.402 107.129 684.521 113.906Z" fill="#E8D9C4"/>
<path d="M663.621 22.6975C660.797 10.9807 644.67 4.33941 635.036 15.0562C634.701 15.3351 634.418 16.0044 635.052 16.1478C646.724 17.343 656.502 28.0041 657.204 40.3265C657.268 40.6452 657.431 40.7368 657.615 40.7288C657.754 40.8563 657.93 40.9041 658.137 40.7209C665.766 31.9123 679.317 31.0598 688.847 38.7966C689.446 39.1592 689.557 38.4341 689.489 37.9759C688.337 22.7732 672.501 15.9208 663.621 22.6975Z" fill="#E8D9C4"/>
<path d="M643.404 146.045C641.39 134.758 626.085 129.033 616.02 139.914C615.677 140.204 615.358 140.87 615.964 140.981C627.27 141.611 636.131 151.543 636.043 163.514C636.083 163.825 636.238 163.905 636.418 163.885C636.545 164.004 636.713 164.048 636.924 163.857C644.92 154.921 658.179 153.471 666.984 160.57C667.543 160.893 667.698 160.184 667.662 159.742C667.491 144.981 652.485 139.037 643.404 146.045Z" fill="#E8D9C4"/>
<path d="M639.787 67.6708C637.773 56.3842 622.468 50.6593 612.403 61.5395C612.06 61.8263 611.741 62.4956 612.347 62.6032C623.652 63.2327 632.517 73.1686 632.426 85.1404C632.465 85.4472 632.621 85.5269 632.804 85.5109C632.928 85.6304 633.096 85.6703 633.307 85.4791C641.302 76.547 654.562 75.0929 663.367 82.1923C663.929 82.519 664.081 81.8058 664.045 81.3636C663.877 66.6071 648.871 60.659 639.787 67.6708Z" fill="#E8D9C4"/>
<path d="M576.978 126.872C574.964 115.585 559.659 109.86 549.594 120.741C549.251 121.027 548.928 121.697 549.538 121.804C560.844 122.434 569.708 132.37 569.617 144.342C569.657 144.648 569.812 144.728 569.992 144.712C570.119 144.832 570.287 144.871 570.498 144.68C578.494 135.748 591.753 134.294 600.558 141.393C601.116 141.72 601.272 141.011 601.236 140.565C601.069 125.808 586.062 119.86 576.978 126.872Z" fill="#E8D9C4"/>
<path d="M515.611 33.285C513.597 21.9985 498.292 16.2736 488.227 27.1537C487.884 27.4406 487.565 28.1099 488.171 28.2214C499.477 28.8469 508.338 38.7829 508.25 50.7547C508.29 51.0654 508.445 51.1451 508.629 51.1252C508.752 51.2447 508.92 51.2845 509.131 51.0933C517.127 42.1653 530.386 40.7071 539.191 47.8065C539.75 48.1372 539.905 47.4241 539.869 46.9819C539.702 32.2213 524.692 26.2773 515.611 33.285Z" fill="#E8D9C4"/>
<path d="M582.554 7.97547C580.54 -3.31107 565.235 -9.03601 555.17 1.84417C554.823 2.135 554.508 2.80032 555.114 2.91187C566.419 3.53735 575.28 13.4733 575.192 25.4451C575.228 25.7559 575.388 25.8355 575.567 25.8156C575.695 25.9351 575.858 25.975 576.074 25.7837C584.069 16.8517 597.329 15.3976 606.134 22.501C606.692 22.8276 606.848 22.1145 606.812 21.6683C606.64 6.91175 591.634 0.967698 582.554 7.97547Z" fill="#E8D9C4"/>
</svg>
