<svg width="677" height="657" viewBox="0 0 677 657" fill="none" xmlns="http://www.w3.org/2000/svg">
<path d="M387.076 51.6778C384.434 41.0427 370.134 34.8291 361.78 44.3943C361.49 44.6409 361.247 45.2467 361.806 45.3845C372.115 46.6178 380.871 56.386 381.651 67.5399C381.709 67.8301 381.858 67.9135 382.018 67.9099C382.141 68.0296 382.293 68.0731 382.475 67.9062C389.09 60.0387 401.021 59.4438 409.523 66.5678C410.053 66.9051 410.144 66.2486 410.078 65.8351C408.863 52.0659 394.816 45.6638 387.076 51.6778Z" fill="#E37873"/>
<path d="M284.769 102.267C282.127 91.6322 267.827 85.415 259.473 94.9838C259.183 95.2304 258.94 95.8362 259.499 95.974C269.808 97.2073 278.564 106.976 279.344 118.129C279.402 118.42 279.547 118.503 279.711 118.499C279.834 118.619 279.986 118.663 280.168 118.496C286.783 110.628 298.714 110.033 307.216 117.157C307.746 117.495 307.837 116.838 307.771 116.425C306.556 102.655 292.509 96.2533 284.769 102.267Z" fill="#E37873"/>
<path d="M522.786 93.5505C520.144 82.9154 505.844 76.6982 497.49 86.267C497.2 86.5136 496.957 87.1194 497.516 87.2572C507.825 88.4905 516.581 98.2587 517.361 109.413C517.419 109.703 517.568 109.786 517.728 109.783C517.851 109.902 518.003 109.946 518.185 109.779C524.8 101.911 536.731 101.317 545.233 108.44C545.767 108.778 545.854 108.121 545.788 107.708C544.573 93.9386 530.526 87.5365 522.786 93.5505Z" fill="#E37873"/>
<path d="M443.416 251.619C440.775 240.984 426.474 234.767 418.121 244.335C417.831 244.582 417.587 245.188 418.146 245.326C428.455 246.559 437.211 256.327 437.992 267.481C438.05 267.771 438.198 267.855 438.358 267.851C438.481 267.971 438.634 268.014 438.815 267.847C445.43 259.98 457.362 259.385 465.864 266.509C466.397 266.846 466.484 266.19 466.419 265.776C465.203 252.007 451.156 245.605 443.416 251.619Z" fill="#E37873"/>
<path d="M566.838 270.611C564.196 259.976 549.895 253.759 541.542 263.328C541.252 263.574 541.009 264.18 541.568 264.318C551.877 265.551 560.633 275.319 561.413 286.473C561.471 286.763 561.62 286.847 561.779 286.843C561.903 286.963 562.055 287.006 562.237 286.839C568.852 278.972 580.783 278.377 589.285 285.501C589.818 285.838 589.905 285.182 589.84 284.768C588.625 270.999 574.578 264.597 566.838 270.611Z" fill="#E37873"/>
<path d="M449.305 167.619C446.663 156.984 432.363 150.767 424.009 160.335C423.719 160.582 423.476 161.188 424.035 161.326C434.344 162.559 443.1 172.327 443.88 183.481C443.938 183.771 444.087 183.855 444.247 183.851C444.37 183.971 444.523 184.014 444.704 183.847C451.319 175.98 463.25 175.385 471.752 182.509C472.286 182.846 472.373 182.19 472.307 181.776C471.092 168.007 457.045 161.605 449.305 167.619Z" fill="#E37873"/>
<path d="M548.304 201.623C545.662 190.988 531.361 184.77 523.008 194.339C522.718 194.586 522.475 195.192 523.033 195.329C533.343 196.563 542.099 206.331 542.879 217.485C542.937 217.775 543.086 217.858 543.245 217.855C543.369 217.975 543.521 218.018 543.702 217.851C550.318 209.984 562.249 209.389 570.751 216.513C571.284 216.85 571.371 216.194 571.306 215.78C570.09 202.011 556.044 195.609 548.304 201.623Z" fill="#E37873"/>
<path d="M626.241 236.896C623.599 226.261 609.299 220.044 600.946 229.613C600.655 229.859 600.412 230.465 600.971 230.603C611.28 231.836 620.036 241.604 620.816 252.758C620.874 253.048 621.023 253.132 621.183 253.128C621.306 253.248 621.459 253.291 621.64 253.125C628.255 245.257 640.186 244.662 648.688 251.786C649.222 252.124 649.309 251.467 649.243 251.053C648.028 237.284 633.981 230.882 626.241 236.896Z" fill="#E37873"/>
<path d="M647.726 194.609C645.084 183.974 630.784 177.757 622.43 187.326C622.14 187.572 621.897 188.178 622.456 188.316C632.765 189.549 641.521 199.317 642.301 210.471C642.359 210.761 642.508 210.845 642.668 210.841C642.791 210.961 642.943 211.004 643.125 210.838C649.74 202.97 661.671 202.375 670.173 209.499C670.707 209.836 670.794 209.18 670.728 208.766C669.513 194.997 655.466 188.595 647.726 194.609Z" fill="#E37873"/>
<path d="M585.638 8.39623C582.996 -2.23893 568.696 -8.45607 560.343 1.11267C560.052 1.35932 559.809 1.96508 560.368 2.10292C570.677 3.33619 579.433 13.1044 580.213 24.2583C580.271 24.5485 580.42 24.6319 580.58 24.6283C580.703 24.748 580.856 24.7915 581.037 24.6246C587.652 16.7571 599.583 16.1622 608.085 23.2862C608.619 23.6235 608.706 22.967 608.64 22.5535C607.425 8.78435 593.378 2.38221 585.638 8.39623Z" fill="#E37873"/>
<path d="M518.29 -8.09596C515.648 -18.7311 501.348 -24.9483 492.994 -15.3795C492.704 -15.1329 492.461 -14.5271 493.02 -14.3893C503.329 -13.156 512.085 -3.38776 512.865 7.7661C512.923 8.05628 513.072 8.13971 513.232 8.13608C513.355 8.25578 513.507 8.29931 513.689 8.13245C520.304 0.264902 532.235 -0.329971 540.737 6.79399C541.271 7.13133 541.358 6.47479 541.292 6.06128C540.077 -7.70784 526.03 -14.11 518.29 -8.09596Z" fill="#E37873"/>
<path d="M230.21 164.383C227.569 153.747 213.268 147.53 204.915 157.099C204.624 157.346 204.381 157.951 204.94 158.089C215.249 159.323 224.005 169.091 224.785 180.245C224.844 180.535 224.992 180.618 225.152 180.615C225.275 180.734 225.428 180.778 225.609 180.611C232.224 172.743 244.155 172.149 252.657 179.273C253.191 179.61 253.278 178.953 253.213 178.54C251.997 164.771 237.95 158.369 230.21 164.383Z" fill="#E37873"/>
<path d="M90.9804 179.099C88.3387 168.464 74.038 162.247 65.6848 171.816C65.3945 172.062 65.1514 172.668 65.7102 172.806C76.0193 174.039 84.7753 183.808 85.5555 194.961C85.6136 195.252 85.7624 195.335 85.922 195.331C86.0454 195.451 86.1978 195.495 86.3792 195.328C92.9943 187.46 104.925 186.865 113.428 193.989C113.961 194.327 114.048 193.67 113.983 193.257C112.767 179.487 98.7204 173.085 90.9804 179.099Z" fill="#E37873"/>
<path d="M199.208 82.9568C196.566 72.3216 182.266 66.1045 173.912 75.6732C173.622 75.9199 173.379 76.5256 173.938 76.6635C184.247 77.8967 193.003 87.665 193.783 98.8188C193.841 99.109 193.99 99.1924 194.15 99.1888C194.273 99.3085 194.425 99.352 194.607 99.1852C201.222 91.3176 213.153 90.7228 221.655 97.8467C222.188 98.1841 222.276 97.5275 222.21 97.114C220.995 83.3449 206.948 76.9428 199.208 82.9568Z" fill="#E37873"/>
<path d="M155.965 303.578C153.323 292.943 139.022 286.726 130.669 296.294C130.379 296.541 130.136 297.147 130.695 297.285C141.004 298.518 149.76 308.286 150.54 319.44C150.598 319.73 150.747 319.814 150.906 319.81C151.03 319.93 151.182 319.973 151.364 319.806C157.979 311.939 169.91 311.344 178.412 318.468C178.945 318.805 179.032 318.149 178.967 317.735C177.751 303.966 163.705 297.564 155.965 303.578Z" fill="#E37873"/>
<path d="M315.547 249.5C312.906 238.865 298.605 232.647 290.252 242.216C289.961 242.463 289.718 243.069 290.277 243.206C300.586 244.44 309.342 254.208 310.122 265.362C310.18 265.652 310.329 265.735 310.489 265.732C310.612 265.851 310.765 265.895 310.946 265.728C317.561 257.861 329.492 257.266 337.994 264.39C338.528 264.727 338.615 264.07 338.55 263.657C337.334 249.888 323.287 243.486 315.547 249.5Z" fill="#E37873"/>
<path d="M243.543 469.416C240.902 458.781 226.601 452.563 218.248 462.132C217.957 462.379 217.714 462.985 218.273 463.122C228.582 464.356 237.338 474.124 238.119 485.278C238.177 485.568 238.325 485.651 238.485 485.648C238.608 485.767 238.761 485.811 238.942 485.644C245.557 477.777 257.488 477.182 265.991 484.306C266.524 484.643 266.611 483.987 266.546 483.573C265.33 469.804 251.283 463.402 243.543 469.416Z" fill="#E37873"/>
<path d="M400.195 346.527C397.553 335.892 383.252 329.675 374.899 339.244C374.609 339.49 374.366 340.096 374.925 340.234C385.234 341.467 393.99 351.235 394.77 362.389C394.828 362.679 394.977 362.763 395.136 362.759C395.26 362.879 395.412 362.922 395.594 362.756C402.209 354.888 414.14 354.293 422.642 361.417C423.175 361.754 423.262 361.098 423.197 360.684C421.981 346.915 407.935 340.513 400.195 346.527Z" fill="#E37873"/>
<path d="M482.646 491.98C480.005 481.345 465.704 475.128 457.351 484.697C457.061 484.943 456.817 485.549 457.376 485.687C467.685 486.92 476.441 496.688 477.222 507.842C477.28 508.132 477.428 508.216 477.588 508.212C477.711 508.332 477.864 508.375 478.045 508.209C484.66 500.341 496.591 499.746 505.094 506.87C505.627 507.207 505.714 506.551 505.649 506.137C504.433 492.368 490.386 485.966 482.646 491.98Z" fill="#E37873"/>
<path d="M252.159 596.976C249.517 586.341 235.216 580.124 226.863 589.693C226.573 589.939 226.33 590.545 226.888 590.683C237.198 591.916 245.954 601.685 246.734 612.838C246.792 613.129 246.941 613.212 247.1 613.208C247.224 613.328 247.376 613.372 247.557 613.205C254.173 605.337 266.104 604.742 274.606 611.866C275.139 612.204 275.226 611.547 275.161 611.134C273.945 597.364 259.899 590.962 252.159 596.976Z" fill="#E37873"/>
<path d="M650.554 102.267C647.912 91.6322 633.612 85.415 625.259 94.9838C624.968 95.2304 624.725 95.8362 625.284 95.974C635.593 97.2073 644.349 106.976 645.129 118.129C645.187 118.42 645.336 118.503 645.496 118.499C645.619 118.619 645.772 118.663 645.953 118.496C652.568 110.628 664.499 110.033 673.001 117.157C673.535 117.495 673.622 116.838 673.556 116.425C672.341 102.655 658.294 96.2533 650.554 102.267Z" fill="#E37873"/>
<path d="M563.345 639.511C560.703 628.876 546.402 622.659 538.049 632.228C537.759 632.475 537.516 633.08 538.074 633.218C548.384 634.451 557.14 644.22 557.92 655.374C557.978 655.664 558.127 655.747 558.286 655.744C558.41 655.863 558.562 655.907 558.743 655.74C565.359 647.872 577.29 647.277 585.792 654.401C586.325 654.739 586.412 654.082 586.347 653.669C585.131 639.9 571.085 633.497 563.345 639.511Z" fill="#E37873"/>
<path d="M653.979 469.957C651.337 459.322 637.037 453.104 628.683 462.673C628.393 462.92 628.15 463.526 628.709 463.663C639.018 464.897 647.774 474.665 648.554 485.819C648.612 486.109 648.761 486.192 648.921 486.189C649.044 486.309 649.196 486.352 649.378 486.185C655.993 478.318 667.924 477.723 676.426 484.847C676.959 485.184 677.047 484.528 676.981 484.114C675.766 470.345 661.719 463.943 653.979 469.957Z" fill="#E37873"/>
<path d="M532.593 415.179C529.952 404.544 515.651 398.327 507.298 407.896C507.007 408.143 506.764 408.748 507.323 408.886C517.632 410.119 526.388 419.888 527.168 431.041C527.226 431.332 527.375 431.415 527.535 431.411C527.658 431.531 527.811 431.575 527.992 431.408C534.607 423.54 546.538 422.945 555.04 430.069C555.574 430.407 555.661 429.75 555.595 429.337C554.38 415.568 540.333 409.165 532.593 415.179Z" fill="#E37873"/>
<path d="M25.6064 423.084C22.9647 412.449 8.66402 406.231 0.310768 415.8C0.0204722 416.047 -0.22265 416.653 0.336168 416.79C10.6453 418.024 19.4013 427.792 20.1815 438.946C20.2396 439.236 20.3883 439.319 20.548 439.316C20.6714 439.435 20.8238 439.479 21.0052 439.312C27.6203 431.445 39.5515 430.85 48.0535 437.974C48.5869 438.311 48.674 437.654 48.6087 437.241C47.3931 423.472 33.3464 417.07 25.6064 423.084Z" fill="#E37873"/>
<path d="M115.293 611.154C112.652 600.519 98.351 594.302 89.9978 603.87C89.7075 604.117 89.4644 604.723 90.0232 604.861C100.332 606.094 109.088 615.862 109.869 627.016C109.927 627.306 110.075 627.39 110.235 627.386C110.358 627.506 110.511 627.549 110.692 627.382C117.307 619.515 129.238 618.92 137.741 626.044C138.274 626.381 138.361 625.725 138.296 625.311C137.08 611.542 123.033 605.14 115.293 611.154Z" fill="#E37873"/>
<path d="M626.241 346.527C623.599 335.892 609.299 329.675 600.946 339.244C600.655 339.49 600.412 340.096 600.971 340.234C611.28 341.467 620.036 351.235 620.816 362.389C620.874 362.679 621.023 362.763 621.183 362.759C621.306 362.879 621.459 362.922 621.64 362.756C628.255 354.888 640.186 354.293 648.688 361.417C649.222 361.754 649.309 361.098 649.243 360.684C648.028 346.915 633.981 340.513 626.241 346.527Z" fill="#E37873"/>
<path d="M521.831 319.847C519.189 309.212 504.889 302.995 496.535 312.564C496.245 312.81 496.002 313.416 496.561 313.554C506.87 314.787 515.626 324.556 516.406 335.709C516.464 336 516.613 336.083 516.773 336.079C516.896 336.199 517.048 336.243 517.23 336.076C523.845 328.208 535.776 327.613 544.278 334.737C544.812 335.075 544.899 334.418 544.833 334.005C543.618 320.236 529.571 313.833 521.831 319.847Z" fill="#E37873"/>
<path d="M355.216 170.929C352.574 160.294 338.273 154.077 329.92 163.646C329.63 163.893 329.387 164.498 329.946 164.636C340.255 165.869 349.011 175.638 349.791 186.791C349.849 187.082 349.998 187.165 350.161 187.158C350.281 187.281 350.437 187.325 350.615 187.158C357.23 179.29 369.161 178.695 377.663 185.819C378.196 186.157 378.283 185.5 378.218 185.087C377.006 171.318 362.956 164.915 355.216 170.929Z" fill="#E37873"/>
<path d="M322.361 54.5411C319.723 43.9059 305.419 37.6924 297.066 47.2575C296.775 47.5042 296.536 48.11 297.091 48.2478C307.397 49.4811 316.156 59.2493 316.936 70.4032C316.994 70.6933 317.143 70.7804 317.306 70.7731C317.426 70.8928 317.582 70.9364 317.76 70.7695C324.375 62.902 336.306 62.3071 344.808 69.4311C345.338 69.7684 345.429 69.1119 345.364 68.6983C344.152 54.9292 330.101 48.5271 322.361 54.5411Z" fill="#E37873"/>
<path d="M379.773 -8.66593C377.131 -19.3011 362.83 -25.5146 354.477 -15.9495C354.183 -15.6992 353.944 -15.0971 354.502 -14.9592C364.808 -13.726 373.568 -3.95773 374.348 7.19976C374.406 7.48631 374.551 7.57337 374.718 7.56611C374.838 7.68581 374.994 7.72934 375.171 7.56611C381.787 -0.305067 393.718 -0.899939 402.22 6.22402C402.749 6.56136 402.84 5.90482 402.775 5.49131C401.559 -8.27781 387.513 -14.6799 379.773 -8.66593Z" fill="#E37873"/>
<path d="M449.064 13.1388C446.422 2.5036 432.121 -3.70991 423.768 5.8552C423.474 6.10548 423.235 6.70761 423.793 6.84545C434.099 8.07872 442.859 17.847 443.639 29.0044C443.697 29.291 443.846 29.3744 444.005 29.3708C444.129 29.4905 444.281 29.534 444.462 29.3708C451.078 21.4996 463.009 20.9047 471.511 28.0287C472.041 28.3624 472.131 27.7095 472.066 27.296C470.85 13.5269 456.804 7.12474 449.064 13.1388Z" fill="#E37873"/>
<path d="M388.938 109.978C386.369 99.3101 371.691 93.2671 362.927 103.021C362.623 103.275 362.361 103.888 362.938 104.018C373.559 105.107 382.457 114.813 383.099 126.029C383.154 126.319 383.306 126.402 383.473 126.395C383.6 126.511 383.756 126.558 383.945 126.388C390.89 118.368 403.22 117.592 411.893 124.636C412.434 124.966 412.535 124.306 412.477 123.889C411.428 110.047 397.019 103.808 388.938 109.978Z" fill="#E37873"/>
<path d="M463.006 113.497C460.437 102.829 445.762 96.7827 436.995 106.54C436.691 106.794 436.433 107.407 437.01 107.534C447.631 108.622 456.529 118.329 457.167 129.548C457.222 129.838 457.374 129.921 457.541 129.914C457.668 130.03 457.828 130.074 458.016 129.907C464.958 121.887 477.288 121.111 485.961 128.155C486.505 128.485 486.607 127.825 486.545 127.408C485.497 113.566 471.087 107.327 463.006 113.497Z" fill="#E37873"/>
<path d="M622.878 136.995C620.312 126.324 605.634 120.281 596.871 130.034C596.566 130.292 596.305 130.901 596.882 131.032C607.503 132.12 616.4 141.827 617.039 153.046C617.097 153.336 617.246 153.419 617.416 153.408C617.54 153.528 617.699 153.572 617.888 153.405C624.833 145.385 637.16 144.609 645.836 151.653C646.377 151.983 646.479 151.323 646.417 150.906C645.368 137.06 630.959 130.825 622.878 136.995Z" fill="#E37873"/>
<path d="M603.859 53.9522C601.29 43.2844 586.616 37.2377 577.849 46.9951C577.544 47.249 577.287 47.8584 577.864 47.989C588.485 49.0772 597.382 58.7837 598.021 70.0029C598.079 70.2931 598.228 70.3765 598.395 70.3692C598.522 70.4853 598.681 70.5288 598.87 70.362C605.812 62.3421 618.142 61.5659 626.815 68.61C627.359 68.9401 627.46 68.2799 627.399 67.8628C626.35 54.0211 611.941 47.7822 603.859 53.9522Z" fill="#E37873"/>
<path d="M585.464 166.256C583.631 155.98 569.704 150.767 560.545 160.673C560.233 160.938 559.943 161.544 560.494 161.646C570.782 162.219 578.845 171.261 578.765 182.161C578.801 182.444 578.943 182.517 579.106 182.499C579.222 182.608 579.375 182.647 579.567 182.473C586.842 174.337 598.908 173.017 606.92 179.481C607.428 179.775 607.57 179.129 607.537 178.726C607.381 165.287 593.726 159.875 585.464 166.256Z" fill="#E37873"/>
<path d="M582.172 94.8984C580.339 84.6223 566.412 79.4099 557.253 89.316C556.941 89.5772 556.651 90.1866 557.202 90.2845C567.49 90.8576 575.556 99.904 575.473 110.804C575.509 111.083 575.651 111.156 575.818 111.141C575.93 111.25 576.083 111.286 576.275 111.112C583.55 102.98 595.616 101.656 603.628 108.12C604.14 108.417 604.278 107.768 604.245 107.365C604.092 93.9299 590.438 88.5144 582.172 94.8984Z" fill="#E37873"/>
<path d="M525.019 148.801C523.187 138.525 509.26 133.312 500.101 143.218C499.789 143.48 499.495 144.089 500.05 144.187C510.338 144.76 518.404 153.806 518.321 164.706C518.357 164.986 518.499 165.058 518.662 165.044C518.778 165.152 518.93 165.189 519.123 165.015C526.398 156.882 538.464 155.558 546.476 162.022C546.984 162.32 547.125 161.674 547.093 161.268C546.94 147.832 533.285 142.417 525.019 148.801Z" fill="#E37873"/>
<path d="M469.179 63.5918C467.346 53.3157 453.419 48.1033 444.261 58.0094C443.949 58.2705 443.658 58.8799 444.21 58.9815C454.497 59.551 462.56 68.5974 462.48 79.4973C462.517 79.7803 462.658 79.8528 462.825 79.8347C462.937 79.9435 463.09 79.9798 463.282 79.8057C470.558 71.6769 482.623 70.3494 490.635 76.8132C491.143 77.1142 491.285 76.4649 491.252 76.0623C491.1 62.6233 477.441 57.2114 469.179 63.5918Z" fill="#E37873"/>
<path d="M530.093 40.5488C528.26 30.2727 514.333 25.0603 505.174 34.9664C504.859 35.2312 504.572 35.837 505.123 35.9385C515.411 36.508 523.474 45.5544 523.394 56.4544C523.427 56.7373 523.572 56.8098 523.735 56.7917C523.851 56.9005 524 56.9368 524.196 56.7627C531.471 48.6303 543.537 47.3064 551.549 53.7738C552.057 54.0712 552.199 53.422 552.166 53.0157C552.01 39.5803 538.355 34.1684 530.093 40.5488Z" fill="#E37873"/>
</svg>
