<svg width="952" height="217" viewBox="0 0 952 217" fill="none" xmlns="http://www.w3.org/2000/svg">
<path d="M524.195 116.818C524.843 117.002 525.262 117.601 525.348 118.265C526.442 127.614 527.693 133.065 529.92 137.235C531.919 141.317 534.511 143.718 535.313 143.681C536.118 143.642 538.593 140.922 539.005 135.545C539.154 134.205 538.948 132.746 538.71 131.144C538.492 129.535 537.984 127.837 537.126 126.113C536.363 124.361 535.316 122.575 533.82 120.907C532.461 119.173 530.638 117.593 528.519 116.21C527.926 115.817 527.602 115.116 527.609 114.414C527.58 111.9 527.237 109.184 526.422 108.147C525.527 107.143 524.428 107.862 522.709 111.527C518.779 112.903 518.09 114.044 518.848 114.76C519.559 115.557 521.747 116.178 524.195 116.818Z" fill="#245745"/>
<path d="M831.127 25.3767C831.775 25.5607 832.194 26.1592 832.28 26.824C833.374 36.1725 834.625 41.6231 836.852 45.7933C838.851 49.8751 841.443 52.2766 842.246 52.2398C843.05 52.2006 845.525 49.4802 845.937 44.1031C846.087 42.7638 845.881 41.3042 845.643 39.7024C845.424 38.0932 844.917 36.3957 844.058 34.6712C843.295 32.9198 842.248 31.134 840.752 29.4659C839.393 27.7316 837.571 26.1519 835.451 24.7684C834.858 24.3759 834.534 23.6743 834.541 22.9727C834.512 20.4584 834.169 17.7429 833.354 16.7053C832.459 15.702 831.36 16.4207 829.641 20.0855C825.712 21.4617 825.022 22.6023 825.78 23.3186C826.492 24.1159 828.679 24.7365 831.127 25.3767Z" fill="#245745"/>
<path d="M600.577 83.9626C601.225 84.1466 601.644 84.7452 601.73 85.4099C602.824 94.7584 604.075 100.209 606.302 104.379C608.301 108.461 610.894 110.863 611.696 110.826C612.5 110.787 614.975 108.066 615.387 102.689C615.537 101.35 615.331 99.8902 615.093 98.2883C614.874 96.6791 614.367 94.9816 613.508 93.2572C612.746 91.5057 611.698 89.7199 610.202 88.0518C608.843 86.3176 607.021 84.7378 604.902 83.3543C604.308 82.9618 603.984 82.2602 603.992 81.5587C603.962 79.0443 603.619 76.3288 602.805 75.2912C601.909 74.2879 600.81 75.0066 599.091 78.6715C595.162 80.0476 594.473 81.1883 595.23 81.9046C595.942 82.7018 598.13 83.3224 600.577 83.9626Z" fill="#245745"/>
<path d="M601.831 59.1619C602.496 59.2551 602.999 59.7874 603.173 60.435C605.559 69.5406 607.553 74.7631 610.342 78.5825C612.888 82.3479 615.792 84.3643 616.58 84.2171C617.369 84.065 619.442 81.0257 619.103 75.6462C619.064 74.297 618.657 72.8816 618.198 71.3289C617.759 69.7663 617.019 68.1547 615.93 66.5675C614.931 64.9387 613.646 63.3148 611.929 61.87C610.345 60.3442 608.321 59.0343 606.028 57.9574C605.385 57.6532 604.968 57.0032 604.877 56.3065C604.497 53.8192 603.779 51.1797 602.829 50.2647C601.802 49.3964 600.816 50.2598 599.621 54.1307C595.923 56.0392 595.4 57.2657 596.251 57.8691C597.065 58.5584 599.317 58.8699 601.831 59.1619Z" fill="#245745"/>
<path d="M750.144 9.20678C750.808 9.29999 751.311 9.8323 751.485 10.4799C753.872 19.5855 755.866 24.808 758.655 28.6274C761.201 32.3928 764.105 34.4092 764.892 34.262C765.682 34.1099 767.754 31.0706 767.416 25.6911C767.377 24.342 766.969 22.9266 766.511 21.3738C766.072 19.8112 765.331 18.1996 764.242 16.6125C763.244 14.9837 761.959 13.3598 760.242 11.9149C758.657 10.3891 756.634 9.07922 754.34 8.00234C753.698 7.69816 753.281 7.04811 753.19 6.35145C752.81 3.86408 752.091 1.22462 751.142 0.309642C750.114 -0.558728 749.128 0.304737 747.934 4.17562C744.235 6.08407 743.713 7.31059 744.564 7.91403C745.378 8.60333 747.63 8.91487 750.144 9.20678Z" fill="#245745"/>
<path d="M710.257 51.8669C710.905 52.0509 711.324 52.6495 711.41 53.3142C712.504 62.6627 713.755 68.1133 715.982 72.2835C717.981 76.3653 720.573 78.7668 721.375 78.7301C722.18 78.6908 724.655 75.9704 725.067 70.5934C725.216 69.254 725.01 67.7945 724.772 66.1926C724.554 64.5834 724.046 62.8859 723.188 61.1615C722.425 59.41 721.378 57.6242 719.882 55.9561C718.523 54.2218 716.7 52.6421 714.581 51.2586C713.988 50.8661 713.664 50.1645 713.671 49.463C713.642 46.9486 713.299 44.2331 712.484 43.1955C711.589 42.1922 710.49 42.9109 708.771 46.5758C704.841 47.9519 704.152 49.0926 704.91 49.8089C705.621 50.6061 707.809 51.2267 710.257 51.8669Z" fill="#245745"/>
<path d="M492.729 96.3569C493.342 96.065 494.078 96.1509 494.598 96.563C501.772 102.843 506.722 105.654 511.061 107.253C515.275 108.784 518.875 108.696 519.43 108.127C520.001 107.557 519.866 103.912 516.42 99.7249C513.138 95.5744 505.603 91.4043 495.572 92.9104C494.868 93.0453 494.142 92.8197 493.686 92.2923C490.313 88.2767 485.879 85.4287 488.12 93.3176C484.044 100.468 488.312 98.3758 492.729 96.3569Z" fill="#245745"/>
<path d="M454.572 98.2083C454.938 97.6563 455.615 97.3693 456.282 97.4601C465.661 98.8191 471.565 98.5321 476.149 97.0995C480.598 95.8902 483.358 93.5328 483.434 92.7233C483.515 91.931 481.155 89.24 476.039 87.859C471.091 86.6373 462.794 87.1279 455.127 93.8615C454.599 94.33 453.851 94.4944 453.172 94.2736C448.225 92.8926 442.733 92.7135 449.071 98.2009C449.578 106.232 452.039 102.459 454.572 98.2083Z" fill="#245745"/>
<path d="M426.13 122.5C426.005 121.848 426.203 121.122 426.804 120.768C434.626 115.472 438.825 111.888 441.511 108.022C442.931 106.291 443.819 104.517 444.341 103.089C444.923 101.757 445.077 100.72 444.874 100.359C444.68 100.016 443.716 99.6013 442.124 99.4565C440.594 99.4124 438.45 99.7141 435.911 100.673C433.537 101.841 430.67 103.602 428.345 106.695C425.933 109.661 424.082 113.917 423.513 118.911C423.39 119.589 423.056 120.275 422.419 120.587C417.685 122.934 413.925 126.798 422.129 126.263C428.249 131.743 427.045 127.24 426.13 122.5Z" fill="#245745"/>
<path d="M321.544 53.1136C321.419 52.461 321.618 51.735 322.219 51.3817C330.041 46.0856 334.24 42.5018 336.925 38.6358C338.346 36.9039 339.233 35.1304 339.756 33.7027C340.337 32.3707 340.492 31.3331 340.288 30.9725C340.094 30.6291 339.13 30.2145 337.539 30.0698C336.008 30.0257 333.864 30.3274 331.326 31.2865C328.952 32.4541 326.084 34.2154 323.759 37.3087C321.348 40.2744 319.496 44.5304 318.927 49.5248C318.805 50.2018 318.471 50.8887 317.833 51.2002C313.099 53.5477 309.339 57.4113 317.544 56.8765C323.663 62.3566 322.459 57.8528 321.544 53.1136Z" fill="#245745"/>
<path d="M421.776 159.908C421.252 159.491 420.97 158.802 421.151 158.15C423.695 149.039 424.134 143.233 423.594 138.606C422.969 134.09 421.455 130.99 420.57 130.72C419.925 130.504 416.54 132.243 414.462 137.191C412.277 141.95 411.72 150.408 417.44 158.876C417.832 159.459 417.987 160.205 417.71 160.855C415.593 165.693 415.228 171.075 421.149 165.371C429.36 165.607 425.527 162.953 421.776 159.908Z" fill="#245745"/>
<path d="M149.649 223.967C149.051 223.668 148.629 223.055 148.67 222.378C149.266 212.936 148.487 207.166 146.998 202.753C145.448 198.466 143.323 195.748 142.401 195.669C141.724 195.591 138.776 197.995 137.773 203.266C136.623 208.378 137.837 216.765 145.192 223.859C145.698 224.347 146.004 225.047 145.867 225.738C144.805 230.909 145.563 236.252 150.169 229.442C158.251 227.966 153.949 226.165 149.649 223.967Z" fill="#245745"/>
<path d="M210.431 134.288C209.938 133.834 209.703 133.13 209.928 132.49C213.102 123.578 213.943 117.818 213.73 113.165C213.421 108.617 212.126 105.416 211.263 105.087C210.635 104.825 207.137 106.323 204.721 111.114C202.207 115.711 201.062 124.11 206.178 132.956C206.529 133.564 206.629 134.32 206.308 134.948C203.86 139.626 203.117 144.971 209.423 139.694C217.598 140.501 213.958 137.587 210.431 134.288Z" fill="#245745"/>
<path d="M443.293 190.377C442.634 190.433 441.991 190.08 441.653 189.503C436.997 181.303 433.728 176.816 430.237 173.767C426.796 170.841 423.706 169.398 422.838 169.781C422.479 169.94 422.001 170.846 421.771 172.396C421.525 173.949 421.513 176.176 422.428 178.703C423.941 183.722 429.394 190.703 439.506 192.614C440.208 192.741 440.801 193.227 441.049 193.897C442.987 198.707 446.31 203.054 446.671 194.711C452.68 189.302 448.162 189.8 443.293 190.377Z" fill="#245745"/>
<path d="M361.036 234.578C360.378 234.634 359.733 234.281 359.395 233.705C354.739 225.504 351.47 221.017 347.98 217.968C344.538 215.042 341.448 213.6 340.58 213.982C340.222 214.142 339.743 215.047 339.513 216.597C339.267 218.15 339.255 220.377 340.17 222.904C341.683 227.923 347.136 234.904 357.249 236.815C357.95 236.943 358.544 237.428 358.791 238.098C360.729 242.908 364.052 247.255 364.413 238.912C370.422 233.503 365.904 234.001 361.036 234.578Z" fill="#245745"/>
<path d="M480.209 199.413C479.697 199.85 478.963 199.95 478.345 199.688C469.631 195.763 463.849 194.5 459.133 194.632C454.554 194.647 451.284 195.937 450.96 196.68C450.644 197.411 452.035 200.836 456.66 203.537C461.164 206.1 469.273 207.785 478.424 203.468C479.061 203.154 479.819 203.191 480.401 203.586C482.525 205.084 484.889 206.235 486.165 206.071C487.462 205.948 487.523 204.645 485.473 201.088C486.577 197.132 486.054 195.903 484.985 196.082C483.903 196.31 482.105 197.865 480.209 199.413Z" fill="#245745"/>
<path d="M515.746 186.443C515.612 187.098 515.094 187.623 514.454 187.784C505.263 189.737 499.862 191.641 495.904 194.211C492.082 196.767 489.975 199.51 490.145 200.413C490.258 201.09 493.309 203.334 498.629 203.042C503.775 202.92 511.874 199.841 516.779 190.767C517.1 190.122 517.728 189.686 518.432 189.639C521.062 189.536 523.642 188.879 524.569 187.937C525.538 187 524.741 185.977 520.887 184.515C519.247 180.769 518.04 180.168 517.346 180.943C516.654 181.76 516.303 184.085 515.746 186.443Z" fill="#245745"/>
<path d="M533.065 153.364C533.401 153.928 533.362 154.662 532.989 155.224C527.728 163.093 525.248 168.08 524.198 172.611C523.134 176.989 523.335 180.421 524.017 180.983C524.566 181.446 528.368 181.167 532.175 177.279C535.881 173.577 539.545 165.602 536.732 155.744C536.541 155.062 536.722 154.318 537.217 153.798C540.556 149.923 543.138 145.073 535.432 148.402C527.99 145.375 530.281 149.241 533.065 153.364Z" fill="#245745"/>
<path d="M560.785 116.809C561.346 117.153 561.641 117.793 561.56 118.431C560.986 122.959 560.527 126.715 561.013 129.774C561.104 132.918 561.8 135.465 562.747 137.545C564.368 141.717 566.89 144.06 567.753 144.033C568.504 144.016 571.027 141.484 571.937 136.603C572.259 134.182 572.19 131.177 571.376 127.799C570.171 124.504 568.545 120.732 565.158 117.275C564.685 116.787 564.513 116.088 564.734 115.448C565.526 113.12 566.146 110.618 565.732 109.489C565.261 108.366 563.978 108.66 561.121 111.484C556.99 111.572 555.943 112.374 556.429 113.304C556.868 114.27 558.715 115.551 560.785 116.809Z" fill="#245745"/>
<path d="M673.156 96.2448C673.718 96.5882 674.012 97.2285 673.931 97.8663C673.357 102.395 672.899 106.15 673.384 109.209C673.475 112.354 674.172 114.9 675.119 116.98C676.74 121.153 679.261 123.496 680.125 123.469C680.875 123.451 683.399 120.92 684.309 116.038C684.63 113.617 684.562 110.612 683.747 107.234C682.543 103.94 680.917 100.167 677.53 96.7109C677.056 96.2227 676.885 95.5236 677.105 94.8834C677.898 92.5555 678.518 90.0534 678.104 88.925C677.633 87.8015 676.35 88.0959 673.492 90.9193C669.362 91.0076 668.315 91.8097 668.8 92.7394C669.239 93.7059 671.086 94.9864 673.156 96.2448Z" fill="#245745"/>
<path d="M898.12 71.1843C898.682 71.5277 898.976 72.1679 898.895 72.8057C898.321 77.334 897.863 81.0896 898.348 84.1485C898.439 87.2933 899.136 89.8395 900.082 91.9197C901.704 96.0923 904.225 98.435 905.088 98.408C905.839 98.3908 908.363 95.8593 909.273 90.9778C909.594 88.5566 909.526 85.5517 908.711 82.1738C907.507 78.8794 905.881 75.1067 902.493 71.6503C902.02 71.1622 901.848 70.4631 902.069 69.8228C902.861 67.4949 903.482 64.9928 903.067 63.8644C902.596 62.7409 901.314 63.0353 898.456 65.8587C894.326 65.9471 893.279 66.7492 893.764 67.6789C894.203 68.6454 896.05 69.9259 898.12 71.1843Z" fill="#245745"/>
<path d="M541.501 85.7173C542.139 85.7933 542.664 86.2569 542.85 86.8849C543.512 89.1196 544.265 91.006 545.026 92.6961C545.671 94.4819 546.394 96.0102 547.184 97.3397C548.871 99.9154 550.279 102.091 551.991 103.575C553.706 105.057 555.315 106.097 556.551 106.764C557.834 107.402 558.849 107.598 559.224 107.419C559.58 107.252 560.071 106.35 560.358 104.861C560.694 103.347 560.706 101.292 559.98 98.9293C559.261 96.5793 558.199 93.6724 555.712 91.1311C554.53 89.8261 553.134 88.5211 551.52 87.2872C549.789 86.1515 547.77 85.1408 545.57 84.2577C544.949 84.0124 544.508 83.436 544.439 82.7491C543.743 77.8578 541.866 73.1431 539.323 80.929C532.183 84.7949 536.696 85.3567 541.501 85.7173Z" fill="#245745"/>
<path d="M541.736 34.5127C542.373 34.4538 542.984 34.7997 543.298 35.3737C544.409 37.4219 545.54 39.1121 546.636 40.606C547.637 42.2176 548.662 43.5643 549.71 44.7001C551.897 46.8661 553.725 48.7034 555.709 49.7975C557.693 50.8915 559.486 51.5759 560.833 51.9709C562.221 52.329 563.254 52.3069 563.585 52.0543C563.896 51.8188 564.191 50.8351 564.159 49.3167C564.173 47.7664 563.759 45.7524 562.557 43.5938C561.368 41.4449 559.722 38.8226 556.764 36.8528C555.334 35.8226 553.698 34.8365 551.863 33.9656C549.933 33.215 547.75 32.6459 545.412 32.2387C544.753 32.1283 544.203 31.6573 543.992 30.9999C542.293 26.3588 539.479 22.1371 538.609 30.2836C532.43 35.5478 536.963 35.1578 541.736 34.5127Z" fill="#245745"/>
<path d="M510.301 66.5192C510.922 66.2837 511.611 66.4383 512.065 66.8896C515.175 70.3729 518.027 72.6371 520.585 74.4106C523.08 76.2847 525.618 77.1016 527.703 77.8424C531.888 79.2357 535.417 78.6396 535.935 77.992C536.423 77.3788 535.986 73.9764 532.761 70.108C531.179 68.1529 528.638 66.5339 525.469 65.0572C522.256 63.6909 518.086 63.0506 513.379 63.345C512.702 63.4259 512.045 63.1365 511.677 62.5772C508.954 58.4635 505.391 54.7496 506.31 63.0089C501.493 69.3868 505.788 68.2535 510.301 66.5192Z" fill="#245745"/>
<path d="M473.799 61.1272C474.297 60.6881 474.996 60.59 475.585 60.8524C479.767 62.8688 483.291 64.1714 486.399 64.6154C489.465 65.366 492.119 65.3758 494.385 65.0226C498.837 64.5443 501.76 62.7462 501.969 61.9048C502.153 61.1836 500.382 58.0609 495.911 55.9096C493.669 54.9554 490.77 54.2219 487.311 54.1042C483.848 54.2955 479.816 54.9897 475.54 57.0723C474.94 57.3863 474.223 57.3471 473.681 56.9521C469.696 54.0674 465.124 51.84 468.82 59.2506C466.487 66.9261 470.176 64.3407 473.799 61.1272Z" fill="#245745"/>
<path d="M437.74 68.727C438.039 68.1407 438.655 67.7924 439.295 67.8243C443.897 68.1701 447.615 68.153 450.671 67.5593C453.796 67.2012 456.278 66.2911 458.28 65.1725C462.334 63.3205 464.448 60.5118 464.36 59.6802C464.279 58.9075 461.571 56.6998 456.621 56.0816C454.188 55.9639 451.206 56.2828 447.909 57.3744C444.689 58.7039 441.11 60.8012 437.878 64.3189C437.429 64.8316 436.747 65.0572 436.094 64.888C433.715 64.2674 431.199 63.8822 430.085 64.3311C428.984 64.8487 429.362 66.0973 432.41 68.7932C432.771 72.8579 433.649 73.8563 434.559 73.3362C435.516 72.8726 436.634 70.8832 437.74 68.727Z" fill="#245745"/>
<path d="M408.081 90.1698C408.11 89.5271 408.532 88.9678 409.143 88.7348C417.59 85.3325 422.324 82.0331 425.154 78.4468C427.891 74.8776 428.949 71.7844 428.49 70.9651C428.169 70.3763 424.612 69.0689 419.964 70.8032C417.708 71.7329 414.831 72.925 412.486 75.5964C411.272 76.8744 410.075 78.3659 408.964 80.0707C407.875 81.7976 407.075 83.9539 406.337 86.2008C406.138 86.8411 405.598 87.3219 404.919 87.4421C400.014 88.411 395.532 90.6825 403.435 92.6547C407.818 99.5428 407.978 94.9287 408.081 90.1698Z" fill="#245745"/>
<path d="M391.127 122.618C390.842 122.017 390.938 121.318 391.35 120.83C397.749 114.136 400.145 108.889 401.18 104.471C402.265 100.193 401.362 96.6727 400.746 96.2459C400.035 95.7553 396.736 96.4667 393.111 99.9647C389.608 103.411 386.368 110.314 387.72 119.78C387.852 120.452 387.619 121.132 387.092 121.542C383.221 124.571 379.812 128.42 387.96 126.87C394.703 131.189 393.219 126.995 391.127 122.618Z" fill="#245745"/>
<path d="M253.69 104.322C253.364 103.743 253.411 103.036 253.789 102.521C259.707 95.3976 261.728 89.996 262.454 85.5168C263.237 81.1749 262.091 77.7235 261.448 77.3408C260.703 76.9017 257.463 77.8437 254.09 81.5846C250.838 85.2666 248.086 92.3779 250.092 101.729C250.274 102.389 250.087 103.083 249.589 103.529C245.942 106.821 242.808 110.898 250.828 108.784C257.855 112.623 256.082 108.541 253.69 104.322Z" fill="#245745"/>
<path d="M328.811 100.456C328.526 99.8553 328.622 99.1562 329.034 98.6681C335.433 91.9737 337.829 86.7267 338.864 82.3088C339.949 78.0307 339.046 74.5106 338.43 74.0838C337.719 73.5932 334.42 74.3046 330.795 77.8026C327.292 81.2491 324.052 88.1519 325.404 97.6182C325.536 98.2903 325.303 98.9698 324.776 99.3794C320.905 102.409 317.496 106.258 325.644 104.707C332.387 109.027 330.903 104.833 328.811 100.456Z" fill="#245745"/>
<path d="M388.694 159.382C388.208 158.931 388.041 158.244 388.245 157.636C389.957 153.296 390.808 149.702 391.122 146.585C391.608 143.467 391.387 140.822 390.842 138.593C390.111 134.204 387.99 131.415 387.161 131.275C386.4 131.145 383.528 133.162 381.637 137.786C380.877 140.096 380.396 143.05 380.573 146.509C380.921 149.96 382.106 153.946 384.485 158.028C384.858 158.6 384.89 159.318 384.549 159.895C382.069 164.153 380.313 168.988 387.313 164.516C395.167 166.018 392.245 162.664 388.694 159.382Z" fill="#245745"/>
<path d="M104.158 160.716C103.672 160.265 103.505 159.578 103.709 158.97C105.421 154.63 106.272 151.036 106.588 147.919C107.071 144.801 106.853 142.156 106.306 139.927C105.575 135.538 103.454 132.749 102.625 132.609C101.864 132.479 98.9921 134.496 97.101 139.12C96.3407 141.43 95.86 144.384 96.0366 147.843C96.3848 151.294 97.5695 155.28 99.9487 159.362C100.322 159.934 100.353 160.652 100.012 161.229C97.5327 165.487 95.7766 170.322 102.777 165.85C110.63 167.352 107.709 163.998 104.158 160.716Z" fill="#245745"/>
<path d="M400.707 194.015C400.092 193.802 399.672 193.24 399.618 192.595C399.076 188.103 398.816 184.321 397.712 181.446C396.861 178.463 395.787 176.084 394.421 174.261C391.975 170.54 389.093 168.707 388.237 168.899C387.521 169.053 385.478 172.031 385.603 177.021C385.807 179.459 386.371 182.457 387.999 185.562C389.868 188.552 392.201 191.95 396.368 194.525C396.932 194.901 397.244 195.551 397.165 196.228C396.466 201.323 397.509 206.133 401.647 199.228C409.603 197.015 405.049 195.644 400.707 194.015Z" fill="#245745"/>
<path d="M204.443 240.205C203.828 239.991 203.408 239.429 203.354 238.784C202.812 234.293 202.552 230.51 201.449 227.635C200.598 224.652 199.523 222.273 198.157 220.45C195.712 216.729 192.83 214.897 191.974 215.088C191.258 215.243 189.214 218.221 189.339 223.21C189.543 225.648 190.107 228.646 191.736 231.751C193.605 234.742 195.937 238.139 200.105 240.715C200.669 241.09 200.98 241.74 200.902 242.417C200.203 247.512 201.245 252.323 205.383 245.417C213.34 243.205 208.785 241.833 204.443 240.205Z" fill="#245745"/>
<path d="M426.692 219.736C426.038 219.836 425.37 219.584 425.066 218.98C422.817 214.842 420.45 212.171 418.444 209.759C417.394 208.621 416.322 207.694 415.25 206.929C414.225 206.117 413.283 205.381 412.307 204.834C410.389 203.708 408.505 203.139 407.073 202.847C405.699 202.508 404.677 202.545 404.353 202.805C404.046 203.05 403.764 204.049 403.813 205.584C403.916 207.066 404.463 209.006 405.628 211.219C406.227 212.308 406.933 213.512 407.922 214.626C408.954 215.698 410.181 216.773 411.608 217.795C414.36 219.974 418.402 221.367 423.028 222.162C423.666 222.294 424.274 222.677 424.517 223.3C426.351 227.841 429.123 232.178 429.896 223.933C435.932 218.647 431.495 218.931 426.692 219.736Z" fill="#245745"/>
<path d="M532.049 216.335C531.877 216.966 531.345 217.424 530.707 217.522C528.394 217.949 526.383 218.32 524.57 218.656C522.728 219.058 521.124 219.578 519.702 220.189C516.758 221.207 514.48 222.5 512.751 223.991C509.199 226.677 507.605 229.729 507.86 230.558C508.071 231.272 511.183 233.04 516.15 232.584C518.566 232.214 521.485 231.389 524.485 229.594C525.932 228.593 527.411 227.381 528.855 225.939C530.337 224.555 531.688 222.777 532.846 220.64C533.182 220.051 533.807 219.693 534.487 219.725C539.593 220.071 544.369 218.788 537.202 215.077C534.504 207.291 533.378 211.871 532.049 216.335Z" fill="#245745"/>
<path d="M556.07 188.778C556.244 189.44 555.97 190.085 555.398 190.436C551.464 192.98 548.903 195.47 546.642 197.638C545.577 198.762 544.734 199.898 544.037 201.014C543.237 202.042 542.61 203.069 542.114 204.07C540.235 208.145 540.034 211.515 540.586 212.131C541.108 212.717 544.734 213.068 548.906 210.338C549.963 209.68 551.071 208.856 552.18 207.845C553.181 206.746 554.169 205.446 555.094 203.95C557.078 201.053 558.265 196.959 558.709 192.261C558.79 191.609 559.195 191.013 559.771 190.711C564.164 188.565 568.292 185.484 560.022 185.29C554.321 179.633 554.927 184.034 556.07 188.778Z" fill="#245745"/>
<path d="M565.552 153.312C565.945 153.845 565.982 154.551 565.668 155.113C563.323 159.092 561.672 162.433 560.885 165.44C559.813 168.379 559.528 170.991 559.641 173.275C559.445 177.671 561 180.86 561.773 181.166C562.499 181.456 565.668 180.063 568.503 175.888C569.695 173.756 570.742 170.925 571.238 167.469C571.441 163.985 571.164 159.855 569.437 155.402C569.177 154.774 569.28 154.063 569.72 153.558C572.952 149.824 575.574 145.414 567.865 148.514C560.429 145.585 562.673 149.437 565.552 153.312Z" fill="#245745"/>
<path d="M670.984 160.049C671.396 160.566 671.458 161.27 671.163 161.844C668.958 165.902 667.425 169.299 666.741 172.331C665.775 175.306 665.581 177.929 665.772 180.205C665.731 184.606 667.396 187.738 668.178 188.018C668.914 188.28 672.034 186.777 674.72 182.506C675.838 180.335 676.788 177.47 677.16 173.999C677.244 170.508 676.822 166.39 674.941 162.001C674.659 161.383 674.737 160.669 675.159 160.147C678.257 156.303 680.724 151.806 673.128 155.172C665.596 152.503 667.972 156.276 670.984 160.049Z" fill="#245745"/>
<path d="M943.652 173.674C944.044 174.206 944.081 174.912 943.767 175.474C941.422 179.453 939.772 182.794 938.984 185.801C937.912 188.74 937.628 191.353 937.741 193.636C937.545 198.032 939.1 201.221 939.872 201.528C940.598 201.817 943.767 200.424 946.603 196.249C947.795 194.117 948.842 191.286 949.337 187.83C949.541 184.347 949.264 180.216 947.537 175.764C947.277 175.136 947.38 174.424 947.819 173.919C951.052 170.185 953.674 165.775 945.965 168.876C938.528 165.947 940.772 169.798 943.652 173.674Z" fill="#245745"/>
<path d="M547.827 127.194C548.374 127.576 548.646 128.248 548.536 128.891C547.481 133.527 547.199 137.173 547.008 140.366C547.047 143.521 547.302 146.165 547.891 148.39C549.227 152.811 551.069 155.558 552.014 155.663C552.404 155.708 553.294 155.183 554.317 154.027C555.376 152.879 556.507 151.084 557.128 148.611C557.841 146.151 558.261 143.021 557.513 139.422C557.01 135.831 555.173 131.8 552.198 127.952C551.739 127.417 551.597 126.686 551.842 126.041C553.775 121.223 554.111 116.054 548.303 121.782C540.081 121.775 543.976 124.375 547.827 127.194Z" fill="#245745"/>
<path d="M626.721 125.19C627.241 125.61 627.464 126.299 627.309 126.932C625.936 131.485 625.399 135.103 624.984 138.275C624.805 141.422 624.874 144.081 625.305 146.34C626.331 150.842 627.976 153.712 628.913 153.884C629.298 153.955 630.223 153.493 631.322 152.412C632.46 151.34 633.713 149.628 634.506 147.204C635.389 144.8 636.026 141.707 635.531 138.064C635.281 134.448 633.728 130.3 631.028 126.25C630.608 125.686 630.515 124.948 630.804 124.322C633.071 119.649 633.765 114.517 627.572 119.826C619.372 119.244 623.076 122.109 626.721 125.19Z" fill="#245745"/>
<path d="M788.604 125.699C789.151 126.082 789.423 126.754 789.312 127.397C788.258 132.033 787.976 135.678 787.784 138.872C787.824 142.027 788.079 144.671 788.667 146.896C790.004 151.316 791.846 154.064 792.79 154.169C793.18 154.213 794.071 153.689 795.094 152.533C796.153 151.385 797.284 149.59 797.904 147.117C798.618 144.656 799.038 141.526 798.29 137.928C797.787 134.337 795.95 130.306 792.974 126.457C792.516 125.923 792.374 125.192 792.619 124.547C794.552 119.729 794.888 114.56 789.079 120.288C780.858 120.281 784.753 122.881 788.604 125.699Z" fill="#245745"/>
<path d="M844.119 165.648C844.592 166.119 844.742 166.827 844.524 167.443C842.679 171.824 841.767 175.366 841.024 178.477C840.516 181.592 840.307 184.242 840.501 186.535C841.051 191.117 842.387 194.144 843.3 194.412C843.678 194.525 844.644 194.162 845.851 193.202C847.094 192.253 848.519 190.683 849.562 188.355C850.692 186.057 851.646 183.047 851.536 179.372C851.664 175.749 850.553 171.461 848.291 167.151C847.933 166.545 847.918 165.802 848.271 165.211C851.014 160.803 852.24 155.769 845.527 160.401C837.433 158.966 840.818 162.204 844.119 165.648Z" fill="#245745"/>
<path d="M527.765 95.7722C528.427 95.7967 528.982 96.2579 529.222 96.8785C532.747 105.506 535.793 110.385 539.254 113.483C542.477 116.608 545.849 117.808 546.538 117.511C547.323 117.165 548.557 113.849 547.213 108.786C546.548 106.281 544.976 103.509 542.582 100.744C541.272 99.4493 539.744 98.1639 538 96.9644C536.249 95.7747 534.042 94.9014 531.765 94.0821C531.111 93.8637 530.632 93.2848 530.49 92.6078C529.271 87.7729 527.007 82.9404 525.126 91.0673C518.342 95.3675 522.798 95.7747 527.765 95.7722Z" fill="#245745"/>
<path d="M618.254 15.4324C618.917 15.4569 619.471 15.9181 619.711 16.5387C623.236 25.166 626.282 30.045 629.743 33.1432C632.966 36.2684 636.338 37.4679 637.028 37.1711C637.812 36.8252 639.046 33.5087 637.702 28.4457C637.037 25.9411 635.465 23.1692 633.071 20.4046C631.762 19.1094 630.233 17.8241 628.49 16.6245C626.738 15.4348 624.531 14.5615 622.255 13.7422C621.6 13.5239 621.122 12.945 620.979 12.268C619.76 7.43303 617.496 2.60057 615.615 10.7275C608.831 15.0276 613.287 15.4348 618.254 15.4324Z" fill="#245745"/>
<path d="M493.934 79.2798C494.538 78.983 495.266 79.037 495.781 79.4614C499.379 82.6601 502.578 84.5416 505.366 86.1557C508.246 87.5318 510.721 88.4934 512.987 88.9252C517.522 89.7101 520.814 89.2244 521.331 88.4395C521.714 87.89 521.13 84.1 517.265 80.732C513.59 77.2168 506.357 74.1211 496.691 75.7916C496.014 75.9217 495.3 75.7279 494.859 75.2078C491.575 71.4277 487.483 68.1382 489.421 76.243C485.259 83.1213 489.524 81.5096 493.934 79.2798Z" fill="#245745"/>
<path d="M456.154 78.8268C456.568 78.3068 457.24 78.0026 457.895 78.2258C460.201 78.9004 462.261 79.3518 464.142 79.6093C466.031 79.911 467.777 80.2397 469.367 80.2765C472.546 80.2864 475.239 80.252 477.488 79.6093C481.966 78.4539 484.738 76.5087 484.848 75.6011C484.942 74.9118 482.778 71.8381 477.897 70.3761C473.146 68.8651 465.251 68.7718 457.155 74.5168C456.586 74.8676 455.862 75.0393 455.234 74.7523C450.606 72.7531 445.403 71.6836 450.78 78.0541C450.159 86.0681 453.164 82.7222 456.154 78.8268Z" fill="#245745"/>
<path d="M423.346 96.6407C423.427 95.9882 423.898 95.4436 424.526 95.24C433.463 92.5368 438.379 89.5809 441.862 86.544C445.143 83.3674 446.723 80.4066 446.414 79.5603C446.178 78.8931 442.826 77.1072 437.778 78.2528C432.764 79.0795 425.74 83.3061 421.928 92.4951C421.668 93.1402 421.082 93.6039 420.388 93.6922C415.284 94.3839 410.574 96.6039 418.44 98.9024C422.409 106.063 422.811 101.404 423.346 96.6407Z" fill="#245745"/>
<path d="M405.366 129.438C405.057 128.827 405.138 128.103 405.616 127.612C411.728 120.484 414.534 115.379 415.552 110.822C416.729 106.487 416.222 103.006 415.525 102.481C414.944 102.032 411.353 102.528 407.591 106.134C404.066 109.723 400.279 116.831 401.964 126.639C402.035 127.308 401.814 128.015 401.307 128.456C397.517 131.714 394.201 135.835 402.315 133.919C409.18 138.097 407.576 133.868 405.366 129.438Z" fill="#245745"/>
<path d="M147.745 65.0352C147.436 64.4244 147.517 63.7007 147.997 63.2101C154.107 56.0816 156.913 50.9769 157.931 46.4192C159.108 42.0847 158.601 38.6038 157.904 38.0789C157.323 37.63 153.732 38.1255 149.969 41.7314C146.445 45.3202 142.658 52.4291 144.343 62.2363C144.414 62.906 144.193 63.6124 143.685 64.054C139.896 67.3116 136.58 71.4327 144.694 69.5169C151.559 73.6944 149.955 69.4654 147.745 65.0352Z" fill="#245745"/>
<path d="M342.442 113.107C342.133 112.497 342.213 111.773 342.692 111.282C348.804 104.154 351.61 99.0492 352.628 94.4914C353.805 90.1569 353.297 86.6761 352.601 86.1511C352.02 85.7022 348.429 86.1977 344.666 89.8037C341.142 93.3925 337.355 100.501 339.04 110.309C339.111 110.978 338.89 111.685 338.382 112.126C334.593 115.384 331.277 119.505 339.39 117.589C346.256 121.767 344.651 117.538 342.442 113.107Z" fill="#245745"/>
<path d="M229.019 72.9707C228.71 72.3599 228.791 71.6363 229.269 71.1457C235.381 64.0172 238.187 58.9124 239.205 54.3547C240.382 50.0202 239.875 46.5394 239.178 46.0144C238.597 45.5655 235.006 46.061 231.243 49.667C227.719 53.2558 223.932 60.3646 225.617 70.1718C225.688 70.8415 225.467 71.548 224.959 71.9895C221.17 75.2471 217.854 79.3682 225.967 77.4524C232.833 81.6299 231.229 77.4009 229.019 72.9707Z" fill="#245745"/>
<path d="M405.783 166.955C405.233 166.572 404.958 165.902 405.066 165.26C406.121 160.621 406.42 156.981 406.607 153.792C406.545 150.645 406.366 147.998 405.738 145.778C404.485 141.365 402.579 138.598 401.655 138.487C400.983 138.397 397.86 140.568 396.501 145.52C394.976 150.323 395.28 158.394 401.407 166.204C401.866 166.736 402.013 167.465 401.77 168.11C399.857 172.93 399.508 178.109 405.312 172.366C413.526 172.359 409.651 169.761 405.783 166.955Z" fill="#245745"/>
<path d="M315.993 180.402C315.419 180.059 315.097 179.411 315.159 178.761C315.89 174.059 315.934 170.409 315.897 167.215C315.617 164.08 315.254 161.453 314.472 159.279C312.914 154.965 310.82 152.337 309.89 152.293C309.213 152.249 306.25 154.631 305.24 159.667C304.053 164.566 304.919 172.594 311.575 179.958C312.071 180.459 312.267 181.175 312.071 181.835C310.499 186.775 310.513 191.968 315.902 185.833C324.094 185.255 320.047 182.932 315.993 180.402Z" fill="#245745"/>
<path d="M425.925 198.323C425.262 198.296 424.708 197.84 424.465 197.219C420.923 188.597 417.85 183.733 414.389 180.639C412.797 179.057 411.132 178.007 409.763 177.369C408.449 176.71 407.487 176.452 407.095 176.631C406.312 176.977 405.071 180.306 406.445 185.359C407.105 187.868 408.699 190.626 411.095 193.39C412.407 194.68 413.94 195.961 415.687 197.153C417.438 198.343 419.65 199.206 421.929 200.021C422.581 200.239 423.062 200.813 423.207 201.493C424.436 206.325 426.704 211.153 428.571 203.023C435.35 198.711 430.891 198.311 425.925 198.323Z" fill="#245745"/>
<path d="M459.776 214.79C459.172 215.087 458.441 215.033 457.929 214.609C454.331 211.41 451.13 209.529 448.341 207.917C445.461 206.541 442.982 205.582 440.715 205.152C436.18 204.367 432.886 204.861 432.371 205.643C431.989 206.197 432.577 209.982 436.445 213.348C440.122 216.858 447.355 219.949 457.019 218.279C457.696 218.149 458.407 218.342 458.851 218.862C462.135 222.64 466.224 225.932 464.289 217.827C468.451 210.946 464.186 212.561 459.776 214.79Z" fill="#245745"/>
<path d="M497.559 215.254C497.142 215.774 496.473 216.075 495.818 215.855C493.512 215.175 491.452 214.721 489.568 214.464C487.68 214.162 485.936 213.831 484.344 213.794C481.168 213.782 478.472 213.816 476.22 214.461C471.742 215.614 468.973 217.56 468.862 218.467C468.769 219.159 470.93 222.233 475.811 223.692C480.562 225.206 488.455 225.299 496.554 219.561C497.125 219.213 497.846 219.041 498.474 219.328C503.1 221.335 508.297 222.409 502.933 216.034C503.564 208.02 500.557 211.363 497.559 215.254Z" fill="#245745"/>
<path d="M530.416 197.516C530.333 198.166 529.859 198.71 529.229 198.912C520.286 201.59 515.356 204.529 511.869 207.561C508.577 210.73 506.995 213.691 507.302 214.535C507.537 215.207 510.883 216.993 515.933 215.862C520.946 215.043 527.986 210.846 531.822 201.661C532.084 201.019 532.67 200.558 533.367 200.472C538.459 199.782 543.195 197.589 535.324 195.264C531.38 188.104 530.951 192.742 530.416 197.516Z" fill="#245745"/>
<path d="M548.352 164.733C548.639 165.336 548.605 166.07 548.146 166.568C541.982 173.686 539.291 178.816 538.225 183.349C537.069 187.696 537.538 191.154 538.242 191.689C538.816 192.133 542.441 191.665 546.181 188.041C549.762 184.475 553.446 177.305 551.803 167.524C551.712 166.85 551.886 166.131 552.416 165.692C556.213 162.415 559.534 158.267 551.408 160.241C544.538 156.123 546.14 160.322 548.352 164.733Z" fill="#245745"/>
<path d="M582.943 183.153C583.23 183.756 583.195 184.49 582.737 184.988C576.573 192.106 573.882 197.236 572.815 201.769C571.66 206.115 572.129 209.574 572.833 210.109C573.406 210.553 577.032 210.084 580.772 206.461C584.353 202.895 588.037 195.724 586.394 185.944C586.303 185.27 586.477 184.551 587.007 184.112C590.804 180.835 594.125 176.687 585.999 178.661C579.129 174.543 580.73 178.742 582.943 183.153Z" fill="#245745"/>
<path d="M639.677 199.787C639.964 200.391 639.93 201.124 639.471 201.622C633.307 208.741 630.617 213.87 629.55 218.403C628.395 222.75 628.863 226.209 629.567 226.744C630.141 227.188 633.766 226.719 637.506 223.096C641.087 219.529 644.771 212.359 643.128 202.579C643.037 201.904 643.212 201.186 643.741 200.747C647.538 197.469 650.859 193.321 642.733 195.296C635.863 191.177 637.465 195.377 639.677 199.787Z" fill="#245745"/>
<path d="M717.045 202.08C717.332 202.684 717.298 203.417 716.839 203.915C710.676 211.034 707.985 216.163 706.918 220.696C705.763 225.043 706.231 228.502 706.935 229.037C707.509 229.481 711.134 229.012 714.875 225.389C718.456 221.822 722.14 214.652 720.496 204.872C720.406 204.197 720.58 203.479 721.109 203.04C724.906 199.762 728.227 195.614 720.101 197.589C713.231 193.47 714.833 197.67 717.045 202.08Z" fill="#245745"/>
<path d="M463.604 113.178C464.002 112.621 464.696 112.295 465.385 112.469C474.843 114.448 480.695 115.143 485.429 114.652C487.747 114.439 489.692 113.997 491.124 113.565C492.576 113.065 493.501 112.52 493.641 112.148C493.783 111.765 493.464 110.757 492.446 109.518C491.448 108.215 489.726 106.726 487.151 105.571C484.592 104.411 481.178 103.685 477.21 103.94C473.278 104.347 468.672 105.559 464.468 108.802C463.867 109.199 463.096 109.403 462.405 109.177C459.874 108.294 457.09 107.958 455.79 108.5C454.451 109.03 454.828 110.259 457.951 113.045C458.029 117.12 458.973 118.111 459.915 117.672C460.879 117.191 462.108 115.177 463.604 113.178Z" fill="#245745"/>
<path d="M452.239 175.377C451.533 175.438 450.922 174.999 450.63 174.376C448.538 170.003 447.133 166.679 445.906 163.836C444.638 161.047 443.432 158.795 442.208 156.874C440.994 154.961 439.767 153.413 438.744 152.314C437.648 151.232 436.797 150.626 436.39 150.66C435.993 150.695 435.181 151.421 434.526 152.878C433.8 154.34 433.189 156.56 433.331 159.445C433.476 162.298 434.435 165.842 436.853 169.252C439.171 172.684 443.172 175.828 448.249 177.313C448.958 177.531 449.522 178.11 449.792 178.76C450.255 179.996 450.817 181.259 451.428 182.304C452.078 183.276 452.762 184.049 453.368 184.399C454.626 185.123 455.352 184.061 455.605 179.893C458.761 177.3 458.95 175.946 458.028 175.487C457.542 175.25 456.726 175.208 455.688 175.264C454.7 175.252 453.505 175.308 452.239 175.377Z" fill="#245745"/>
<path d="M514.868 153.394C515.182 153.99 515.204 154.763 514.736 155.295C511.851 159.188 509.369 161.906 507.49 164.332C505.653 166.785 504.11 168.797 503.039 170.816C500.738 174.63 499.661 178.018 500.13 178.798C500.458 179.391 504.243 180.395 509.364 177.549C511.785 176.05 514.601 173.644 516.46 169.883C518.361 166.211 519.479 161.308 518.432 156.09C518.351 155.369 518.474 154.582 518.991 154.059C520.904 152.146 522.371 149.774 522.462 148.38C522.567 146.948 521.294 146.754 517.431 148.361C513.725 146.668 512.423 147.085 512.411 148.13C512.406 149.217 513.728 151.196 514.868 153.394Z" fill="#245745"/>
<path d="M578.965 114.941C579.556 115.326 579.748 116.04 579.628 116.712C577.972 126.21 578.644 132.49 580.53 137.004C582.014 141.48 584.653 143.953 585.482 143.933C586.267 143.916 588.671 141.269 589.733 136.172C590.427 131.185 589.64 123.451 583.27 115.702C582.828 115.159 582.767 114.394 582.968 113.751C584.545 108.983 585.301 103.768 579.26 109.441C571.126 109.105 574.749 112.125 578.965 114.941Z" fill="#245745"/>
<path d="M493.274 44.967C493.861 44.6235 494.604 44.653 495.178 45.0185C499.279 47.4617 502.727 49.4928 505.891 50.5157C509.08 51.4552 511.78 52.1347 514.169 52.223C516.548 52.3285 518.567 51.9851 520.041 51.5288C521.471 51.1854 522.371 50.6653 522.526 50.2802C522.673 49.9172 522.398 48.8943 521.557 47.5524C520.676 46.3259 519.202 44.8345 517.032 43.4363C514.863 42.0552 512.023 40.63 508.378 40.2645C504.766 39.8107 500.51 39.6831 495.71 41.2751C495.035 41.4788 494.3 41.3095 493.799 40.8238C491.972 39.0552 489.944 37.3675 488.71 37.2203C487.464 37.1222 487.103 38.3928 488.389 42.2343C486.493 45.9408 486.721 47.236 487.861 47.2409C489.004 47.2949 491.118 46.2352 493.274 44.967Z" fill="#245745"/>
<path d="M389.069 85.6305C389.052 84.9608 389.439 84.3279 390.04 84.0066C392.211 82.9003 393.901 81.6468 395.627 80.6238C397.342 79.5862 398.789 78.524 400.025 77.4349C402.395 75.1634 404.376 73.2378 405.647 71.2189C408.136 67.1543 408.804 63.7764 408.306 63.0994C407.849 62.4763 404.143 61.8165 399.574 64.2548C397.286 65.4396 394.558 67.1346 392.4 70.147C391.274 71.6016 390.182 73.2672 389.191 75.1462C388.188 77.0154 387.59 79.3483 387.009 81.7473C386.856 82.4317 386.346 82.9959 385.672 83.202C384.441 83.5797 383.199 84.0139 382.189 84.4923C381.245 85.0172 380.501 85.5667 380.16 86.0941C379.469 87.1636 380.433 88.0565 384.455 88.7041C386.844 92.0868 388.11 92.4744 388.645 91.4932C388.917 90.9952 389.017 90.1342 389.022 89.0745C389.096 88.059 389.103 86.8619 389.069 85.6305Z" fill="#245745"/>
<path d="M370.865 160.065C370.394 159.574 370.159 158.855 370.443 158.21C372.327 153.638 373.018 149.831 373.394 146.509C373.887 143.195 373.676 140.379 373.136 138.019C372.211 133.349 370.271 130.494 369.386 130.364C368.675 130.251 365.611 132.431 363.924 137.306C363.161 139.734 362.673 142.818 362.844 146.438C363.131 150.049 364.471 154.207 366.678 158.549C366.97 159.162 367.068 159.913 366.712 160.511C364.252 164.912 362.506 169.879 369.518 165.43C377.428 167.279 374.456 163.614 370.865 160.065Z" fill="#245745"/>
<path d="M239.591 175.75C239.086 175.293 238.804 174.592 239.039 173.929C240.602 169.234 241.026 165.39 241.168 162.049C241.428 158.708 241.021 155.914 240.32 153.601C239.071 149.004 236.935 146.294 236.044 146.225C235.328 146.161 232.424 148.55 231.08 153.53C230.486 156.005 230.217 159.116 230.639 162.714C231.178 166.298 232.804 170.353 235.309 174.53C235.642 175.122 235.792 175.862 235.48 176.483C233.332 181.046 231.938 186.123 238.622 181.195C246.64 182.49 243.42 179.039 239.591 175.75Z" fill="#245745"/>
<path d="M551.777 223.111C551.654 223.771 551.142 224.308 550.487 224.494C548.135 225.13 546.202 225.978 544.318 226.651C542.422 227.308 540.781 228.051 539.344 228.858C536.543 230.583 534.235 232.118 532.56 233.813C529.276 237.27 527.998 240.535 528.334 241.258C528.68 241.999 532.136 243.289 537.107 241.859C539.602 241.19 542.574 240.044 545.314 237.557C546.715 236.372 548.125 234.971 549.481 233.34C550.825 231.694 551.919 229.562 552.981 227.335C553.276 226.7 553.891 226.253 554.595 226.194C557.22 226.035 559.717 225.422 560.58 224.504C561.483 223.604 560.725 222.532 556.923 221.055C555.292 217.258 554.132 216.615 553.403 217.459C552.692 218.342 552.287 220.746 551.777 223.111Z" fill="#245745"/>
<path d="M542.27 57.7101C542.945 57.6954 543.568 58.0756 543.879 58.6668C546.197 62.7363 548.095 66.2294 550.322 68.6211C551.402 69.8526 552.547 70.8338 553.612 71.7218C554.617 72.6637 555.633 73.4291 556.621 74.0521C560.575 76.5297 564.2 76.7946 564.848 76.2746C565.458 75.784 565.723 72.3056 563.4 67.7699C562.822 66.6415 562.083 65.4494 561.164 64.2376C560.182 63.0896 558.939 62.0029 557.524 60.9137C554.639 58.8115 551.117 56.5866 546.194 55.679C545.517 55.5318 544.966 55.0338 544.779 54.3715C543.389 49.517 541.144 44.8145 539.442 52.9855C532.739 57.4157 537.347 57.8401 542.27 57.7101Z" fill="#245745"/>
<path d="M390.049 60.3713C390.216 59.7188 390.792 59.2748 391.46 59.1644C396.284 58.4923 399.75 57.0425 402.806 55.8357C405.845 54.6116 408.101 53.0269 409.816 51.3834C413.331 48.3318 414.775 45.2018 414.447 44.3849C414.182 43.703 410.822 42.1576 405.808 43.0578C403.365 43.6171 400.498 44.7455 397.513 46.7104C394.521 48.6483 391.771 52.0359 389.237 56.1079C388.889 56.6967 388.22 57.0376 387.535 57.0376C382.59 57.1897 377.54 58.247 384.881 61.9756C387.432 69.7173 388.946 65.2774 390.049 60.3713Z" fill="#245745"/>
<path d="M372.127 214.028C371.506 213.802 371.07 213.219 371.001 212.547C370.498 207.778 369.4 204.169 368.458 200.998C367.418 197.892 365.804 195.608 364.42 193.727C361.735 189.959 358.507 188.394 357.72 188.652C356.972 188.894 355.419 192.074 355.848 197.183C356.103 199.712 357.219 202.57 358.995 205.666C360.665 208.815 363.751 211.835 367.798 214.556C368.367 214.938 368.693 215.61 368.627 216.307C368.131 221.451 369.174 226.333 373.268 219.359C381.3 217.259 376.643 215.672 372.127 214.028Z" fill="#245745"/>
<path d="M600.161 153.72C600.553 154.267 600.588 154.998 600.274 155.589C598.184 159.808 596.558 163.385 595.753 166.576C594.961 169.763 594.981 172.572 594.961 174.885C595.15 179.538 596.989 182.644 597.789 182.869C598.542 183.085 601.571 181.302 603.997 176.813C605.319 174.6 606.02 171.639 606.195 168.08C606.383 164.528 606.038 160.37 604.046 155.808C603.788 155.165 603.891 154.429 604.333 153.902C607.568 150.018 610.197 145.534 602.481 148.718C595.052 145.659 597.289 149.729 600.161 153.72Z" fill="#245745"/>
</svg>
