<svg width="1232" height="425" viewBox="0 0 1232 425" fill="none" xmlns="http://www.w3.org/2000/svg">
<path d="M614.999 168.298C614.065 168.563 613.461 169.426 613.337 170.383C611.761 183.852 609.959 191.704 606.75 197.712C603.869 203.593 600.133 207.052 598.978 206.999C597.819 206.943 594.252 203.024 593.659 195.277C593.443 193.347 593.74 191.245 594.083 188.937C594.397 186.619 595.129 184.173 596.366 181.689C597.465 179.165 598.974 176.593 601.13 174.19C603.088 171.691 605.714 169.415 608.768 167.422C609.623 166.856 610.089 165.846 610.079 164.835C610.121 161.213 610.616 157.3 611.789 155.806C613.079 154.36 614.663 155.396 617.14 160.675C622.802 162.658 623.795 164.301 622.703 165.333C621.678 166.482 618.526 167.376 614.999 168.298Z" fill="#1F824A"/>
<path d="M172.728 36.561C171.795 36.8261 171.191 37.6884 171.067 38.6461C169.491 52.1142 167.689 59.9668 164.479 65.9747C161.599 71.8553 157.863 75.3151 156.708 75.2621C155.548 75.2055 151.982 71.2863 151.389 63.5397C151.173 61.6102 151.47 59.5074 151.813 57.1997C152.127 54.8814 152.859 52.4358 154.096 49.9514C155.195 47.4281 156.704 44.8554 158.86 42.4522C160.818 39.9537 163.444 37.6778 166.497 35.6846C167.353 35.1191 167.819 34.1084 167.809 33.0977C167.851 29.4753 168.346 25.5631 169.519 24.0682C170.809 22.6228 172.393 23.6583 174.87 28.9381C180.532 30.9207 181.525 32.564 180.433 33.596C179.408 34.7445 176.256 35.6386 172.728 36.561Z" fill="#1F824A"/>
<path d="M504.936 120.964C504.003 121.229 503.398 122.092 503.275 123.049C501.698 136.518 499.896 144.37 496.687 150.378C493.806 156.259 490.071 159.718 488.915 159.665C487.756 159.609 484.19 155.69 483.596 147.943C483.38 146.013 483.677 143.911 484.02 141.603C484.335 139.285 485.066 136.839 486.303 134.355C487.402 131.831 488.911 129.259 491.067 126.856C493.025 124.357 495.651 122.081 498.705 120.088C499.56 119.522 500.027 118.512 500.016 117.501C500.059 113.879 500.553 109.966 501.727 108.472C503.017 107.026 504.6 108.062 507.078 113.341C512.739 115.324 513.733 116.967 512.64 117.999C511.616 119.148 508.463 120.042 504.936 120.964Z" fill="#1F824A"/>
<path d="M503.13 85.233C502.172 85.3673 501.448 86.1342 501.197 87.0671C497.758 100.185 494.885 107.709 490.866 113.212C487.198 118.637 483.013 121.542 481.879 121.329C480.741 121.11 477.754 116.732 478.242 108.982C478.298 107.038 478.885 104.999 479.546 102.762C480.179 100.511 481.246 98.1887 482.815 95.9022C484.254 93.5556 486.106 91.2161 488.58 89.1345C490.863 86.9364 493.778 85.0492 497.083 83.4978C498.009 83.0595 498.61 82.123 498.741 81.1194C499.288 77.5359 500.324 73.7333 501.692 72.4151C503.172 71.164 504.593 72.408 506.314 77.9847C511.644 80.7342 512.397 82.5012 511.171 83.3705C509.997 84.3636 506.753 84.8124 503.13 85.233Z" fill="#1F824A"/>
<path d="M289.421 13.2628C288.463 13.3971 287.738 14.1639 287.487 15.0969C284.048 28.2152 281.175 35.7391 277.157 41.2416C273.488 46.6663 269.304 49.5713 268.169 49.3593C267.031 49.1402 264.045 44.7615 264.532 37.0114C264.589 35.0677 265.176 33.0286 265.837 30.7915C266.469 28.5403 267.536 26.2185 269.106 23.932C270.544 21.5854 272.396 19.2459 274.87 17.1643C277.153 14.9662 280.069 13.079 283.373 11.5276C284.299 11.0893 284.9 10.1528 285.031 9.14916C285.579 5.56566 286.614 1.76305 287.982 0.444858C289.463 -0.806187 290.884 0.43779 292.605 6.01448C297.935 8.76395 298.687 10.531 297.461 11.4003C296.288 12.3934 293.043 12.8422 289.421 13.2628Z" fill="#1F824A"/>
<path d="M346.895 74.7246C345.962 74.9896 345.358 75.8519 345.234 76.8097C343.658 90.2778 341.856 98.1304 338.646 104.138C335.766 110.019 332.03 113.479 330.875 113.426C329.715 113.369 326.149 109.45 325.556 101.703C325.34 99.7737 325.637 97.671 325.98 95.3633C326.294 93.045 327.026 90.5994 328.263 88.115C329.362 85.5917 330.871 83.0189 333.027 80.6158C334.985 78.1172 337.611 75.8413 340.664 73.8481C341.52 73.2827 341.986 72.272 341.976 71.2612C342.018 67.6389 342.513 63.7267 343.686 62.2318C344.976 60.7864 346.56 61.8219 349.037 67.1017C354.699 69.0843 355.692 70.7276 354.6 71.7595C353.575 72.9081 350.423 73.8022 346.895 74.7246Z" fill="#1F824A"/>
<path d="M660.339 138.819C659.456 138.399 658.395 138.522 657.646 139.116C647.308 148.163 640.176 152.213 633.924 154.517C627.852 156.722 622.664 156.595 621.865 155.775C621.042 154.955 621.236 149.704 626.202 143.671C630.931 137.692 641.788 131.684 656.243 133.854C657.257 134.048 658.303 133.723 658.961 132.963C663.82 127.178 670.21 123.075 666.98 134.44C672.854 144.742 666.704 141.728 660.339 138.819Z" fill="#1F824A"/>
<path d="M715.32 141.487C714.794 140.691 713.818 140.278 712.857 140.409C699.342 142.367 690.835 141.953 684.229 139.889C677.818 138.147 673.842 134.751 673.733 133.585C673.616 132.443 677.016 128.566 684.388 126.577C691.517 124.817 703.473 125.523 714.521 135.224C715.281 135.899 716.359 136.136 717.338 135.818C724.467 133.828 732.38 133.57 723.247 141.476C722.516 153.046 718.971 147.611 715.32 141.487Z" fill="#1F824A"/>
<path d="M756.304 176.484C756.485 175.544 756.198 174.497 755.332 173.989C744.062 166.359 738.011 161.195 734.141 155.626C732.095 153.131 730.815 150.576 730.063 148.519C729.225 146.6 729.002 145.105 729.296 144.586C729.575 144.091 730.964 143.494 733.257 143.285C735.463 143.221 738.552 143.656 742.21 145.038C745.631 146.72 749.762 149.258 753.113 153.714C756.587 157.987 759.255 164.118 760.075 171.313C760.252 172.289 760.733 173.278 761.652 173.727C768.473 177.109 773.891 182.675 762.069 181.905C753.251 189.8 754.986 183.311 756.304 176.484Z" fill="#1F824A"/>
<path d="M907.005 76.5198C907.185 75.5797 906.899 74.5336 906.033 74.0247C894.762 66.3948 888.712 61.2316 884.842 55.6619C882.796 53.1669 881.516 50.6118 880.763 48.555C879.926 46.636 879.703 45.1412 879.996 44.6217C880.276 44.1269 881.665 43.5296 883.958 43.3211C886.164 43.2575 889.253 43.6922 892.911 45.074C896.332 46.7562 900.463 49.2936 903.814 53.75C907.288 58.0227 909.956 64.1542 910.776 71.3495C910.953 72.3249 911.434 73.3144 912.352 73.7632C919.174 77.1453 924.592 82.7114 912.769 81.9409C903.952 89.8359 905.687 83.3475 907.005 76.5198Z" fill="#1F824A"/>
<path d="M762.577 230.378C763.333 229.777 763.74 228.784 763.478 227.844C759.813 214.718 759.181 206.353 759.958 199.688C760.86 193.182 763.04 188.715 764.316 188.326C765.246 188.015 770.123 190.521 773.116 197.649C776.265 204.505 777.068 216.69 768.826 228.89C768.26 229.731 768.038 230.805 768.437 231.742C771.487 238.711 772.014 246.465 763.482 238.248C751.649 238.587 757.173 234.763 762.577 230.378Z" fill="#1F824A"/>
<path d="M1154.69 322.665C1155.56 322.234 1156.17 321.35 1156.11 320.375C1155.25 306.773 1156.37 298.461 1158.52 292.103C1160.75 285.925 1163.81 282.01 1165.14 281.897C1166.11 281.784 1170.36 285.247 1171.81 292.841C1173.47 300.206 1171.72 312.289 1161.12 322.51C1160.39 323.213 1159.95 324.22 1160.14 325.217C1161.68 332.666 1160.58 340.363 1153.95 330.553C1142.3 328.426 1148.5 325.832 1154.69 322.665Z" fill="#1F824A"/>
<path d="M1067.11 193.467C1067.82 192.813 1068.16 191.799 1067.84 190.876C1063.26 178.037 1062.05 169.739 1062.36 163.035C1062.8 156.483 1064.67 151.871 1065.91 151.398C1066.82 151.02 1071.86 153.179 1075.34 160.081C1078.96 166.704 1080.61 178.804 1073.24 191.548C1072.73 192.424 1072.59 193.513 1073.05 194.417C1076.58 201.157 1077.65 208.857 1068.56 201.256C1056.78 202.418 1062.03 198.22 1067.11 193.467Z" fill="#1F824A"/>
<path d="M731.572 274.272C732.523 274.353 733.449 273.844 733.937 273.014C740.645 261.2 745.356 254.736 750.385 250.343C755.344 246.127 759.797 244.049 761.048 244.6C761.564 244.83 762.253 246.134 762.585 248.368C762.939 250.605 762.957 253.814 761.638 257.454C759.458 264.684 751.601 274.742 737.029 277.495C736.019 277.679 735.163 278.379 734.806 279.343C732.014 286.274 727.225 292.536 726.706 280.517C718.047 272.724 724.557 273.442 731.572 274.272Z" fill="#1F824A"/>
<path d="M850.101 337.951C851.048 338.032 851.977 337.523 852.465 336.693C859.173 324.878 863.884 318.415 868.914 314.022C873.872 309.806 878.325 307.728 879.576 308.279C880.092 308.509 880.782 309.813 881.114 312.046C881.467 314.283 881.485 317.492 880.167 321.132C877.986 328.363 870.129 338.421 855.558 341.174C854.547 341.358 853.692 342.057 853.335 343.022C850.543 349.952 845.754 356.215 845.234 344.195C836.575 336.403 843.085 337.12 850.101 337.951Z" fill="#1F824A"/>
<path d="M678.379 287.291C679.118 287.92 680.175 288.065 681.065 287.687C693.623 282.032 701.953 280.212 708.749 280.403C715.348 280.424 720.059 282.283 720.525 283.354C720.981 284.407 718.977 289.34 712.312 293.231C705.823 296.925 694.139 299.352 680.952 293.132C680.033 292.68 678.941 292.733 678.104 293.302C675.043 295.461 671.636 297.119 669.798 296.882C667.929 296.705 667.84 294.829 670.795 289.704C669.204 284.004 669.957 282.234 671.498 282.492C673.057 282.82 675.647 285.061 678.379 287.291Z" fill="#1F824A"/>
<path d="M627.172 268.605C627.367 269.548 628.112 270.305 629.035 270.538C642.278 273.351 650.06 276.093 655.764 279.797C661.271 283.48 664.307 287.431 664.063 288.731C663.9 289.707 659.503 292.94 651.838 292.52C644.423 292.343 632.753 287.908 625.684 274.835C625.221 273.906 624.317 273.277 623.302 273.21C619.513 273.061 615.795 272.114 614.459 270.757C613.063 269.407 614.212 267.933 619.764 265.827C622.129 260.431 623.868 259.565 624.868 260.682C625.865 261.858 626.37 265.209 627.172 268.605Z" fill="#1F824A"/>
<path d="M530.103 329.891C530.096 330.856 530.668 331.75 531.52 332.167C543.89 337.673 550.934 341.974 555.74 346.784C560.363 351.53 562.512 356.025 561.999 357.248C561.639 358.167 556.666 360.418 549.258 358.411C542.042 356.697 531.548 349.933 527.353 335.677C527.092 334.669 526.339 333.867 525.36 333.591C521.688 332.658 518.245 330.959 517.221 329.354C516.136 327.743 517.567 326.541 523.437 325.633C526.869 320.848 528.749 320.36 529.498 321.661C530.227 323.021 530.025 326.403 530.103 329.891Z" fill="#1F824A"/>
<path d="M396.376 337.605C396.104 338.531 396.408 339.545 397.111 340.185C407.484 348.885 413.068 354.96 416.366 360.908C419.501 366.743 420.324 371.659 419.497 372.694C418.896 373.479 413.496 374.27 406.926 370.298C400.462 366.665 392.241 357.268 392.139 342.408C392.163 341.369 391.661 340.39 390.795 339.853C387.523 337.948 384.685 335.361 384.141 333.537C383.543 331.692 385.247 330.929 391.142 331.675C395.761 328.021 397.701 328.07 398.062 329.526C398.391 331.035 397.26 334.23 396.376 337.605Z" fill="#1F824A"/>
<path d="M602.217 220.949C601.733 221.761 601.79 222.818 602.327 223.627C609.908 234.964 613.481 242.149 614.994 248.676C616.527 254.985 616.238 259.929 615.255 260.738C614.463 261.406 608.985 261.003 603.5 255.402C598.16 250.069 592.88 238.58 596.934 224.377C597.209 223.394 596.948 222.323 596.234 221.574C591.424 215.99 587.702 209.004 598.807 213.799C609.53 209.438 606.229 215.008 602.217 220.949Z" fill="#1F824A"/>
<path d="M562.275 168.284C561.466 168.779 561.042 169.701 561.158 170.62C561.985 177.144 562.646 182.554 561.947 186.961C561.816 191.492 560.812 195.16 559.448 198.157C557.112 204.168 553.478 207.543 552.234 207.505C551.153 207.48 547.516 203.833 546.205 196.8C545.742 193.312 545.841 188.983 547.014 184.116C548.75 179.37 551.093 173.935 555.974 168.955C556.656 168.252 556.903 167.245 556.585 166.323C555.443 162.969 554.549 159.364 555.147 157.738C555.825 156.12 557.674 156.544 561.791 160.612C567.743 160.739 569.252 161.894 568.552 163.234C567.919 164.626 565.258 166.471 562.275 168.284Z" fill="#1F824A"/>
<path d="M400.354 138.659C399.545 139.154 399.121 140.076 399.238 140.995C400.065 147.519 400.726 152.929 400.026 157.336C399.895 161.867 398.891 165.535 397.527 168.532C395.191 174.543 391.558 177.918 390.314 177.88C389.232 177.855 385.595 174.208 384.284 167.175C383.821 163.687 383.92 159.358 385.094 154.491C386.829 149.745 389.172 144.31 394.053 139.33C394.735 138.627 394.982 137.62 394.664 136.698C393.523 133.344 392.629 129.739 393.226 128.113C393.904 126.495 395.753 126.919 399.87 130.987C405.822 131.114 407.331 132.269 406.631 133.609C405.999 135.001 403.337 136.846 400.354 138.659Z" fill="#1F824A"/>
<path d="M76.1968 102.555C75.3875 103.05 74.9634 103.972 75.08 104.891C75.907 111.415 76.5679 116.825 75.8681 121.232C75.7374 125.763 74.7336 129.431 73.3694 132.428C71.0333 138.439 67.4001 141.814 66.156 141.776C65.0745 141.751 61.4378 138.104 60.1266 131.071C59.6636 127.583 59.7626 123.254 60.9359 118.387C62.6713 113.641 65.0145 108.206 69.8953 103.226C70.5774 102.523 70.8248 101.516 70.5067 100.594C69.3651 97.2398 68.471 93.6351 69.0682 92.0094C69.7468 90.3908 71.5952 90.8149 75.7126 94.8826C81.6643 95.0098 83.1734 96.1654 82.4736 97.5048C81.841 98.8972 79.1797 100.742 76.1968 102.555Z" fill="#1F824A"/>
<path d="M590.062 123.491C589.143 123.6 588.386 124.268 588.118 125.173C587.164 128.392 586.079 131.11 584.983 133.545C584.053 136.118 583.011 138.319 581.873 140.235C579.441 143.946 577.413 147.08 574.946 149.218C572.475 151.353 570.157 152.851 568.376 153.813C566.527 154.731 565.064 155.014 564.523 154.756C564.011 154.516 563.304 153.215 562.89 151.07C562.406 148.89 562.389 145.928 563.435 142.525C564.47 139.139 566.001 134.951 569.584 131.29C571.288 129.41 573.299 127.53 575.624 125.752C578.119 124.116 581.028 122.66 584.198 121.388C585.093 121.034 585.729 120.204 585.828 119.214C586.831 112.168 589.535 105.375 593.2 116.592C603.488 122.162 596.985 122.971 590.062 123.491Z" fill="#1F824A"/>
<path d="M589.724 49.7221C588.805 49.6373 587.925 50.1356 587.473 50.9625C585.872 53.9135 584.242 56.3484 582.662 58.5006C581.22 60.8225 579.743 62.7626 578.234 64.3989C575.081 67.5194 572.448 70.1664 569.589 71.7426C566.73 73.3188 564.146 74.3048 562.206 74.8737C560.206 75.3897 558.718 75.3579 558.241 74.9939C557.792 74.6546 557.368 73.2375 557.414 71.0499C557.393 68.8164 557.99 65.915 559.722 62.8051C561.436 59.7092 563.807 55.9314 568.07 53.0936C570.13 51.6093 572.487 50.1886 575.131 48.934C577.912 47.8526 581.058 47.0327 584.426 46.4461C585.377 46.287 586.168 45.6085 586.472 44.6614C588.922 37.975 592.975 31.893 594.23 43.6294C603.133 51.2135 596.601 50.6515 589.724 49.7221Z" fill="#1F824A"/>
<path d="M635.019 95.8329C634.124 95.4937 633.131 95.7163 632.478 96.3666C627.996 101.385 623.886 104.647 620.2 107.202C616.605 109.902 612.947 111.079 609.943 112.146C603.914 114.153 598.828 113.295 598.082 112.362C597.379 111.478 598.008 106.576 602.656 101.003C604.935 98.1866 608.597 95.8541 613.163 93.7266C617.793 91.7582 623.801 90.8358 630.583 91.2599C631.559 91.3765 632.506 90.9595 633.036 90.1537C636.959 84.2272 642.094 78.8767 640.769 90.7757C647.71 99.9642 641.522 98.3315 635.019 95.8329Z" fill="#1F824A"/>
<path d="M687.616 88.0632C686.898 87.4306 685.891 87.2892 685.043 87.6674C679.017 90.5723 673.938 92.4489 669.461 93.0885C665.043 94.17 661.219 94.1841 657.953 93.6752C651.538 92.9861 647.326 90.3956 647.025 89.1835C646.76 88.1444 649.312 83.6456 655.755 80.5463C658.985 79.1716 663.162 78.1149 668.146 77.9453C673.136 78.2209 678.946 79.221 685.107 82.2214C685.973 82.6738 687.005 82.6172 687.786 82.0483C693.529 77.8922 700.117 74.6834 694.79 85.3596C698.152 96.4176 692.836 92.6927 687.616 88.0632Z" fill="#1F824A"/>
<path d="M739.574 99.013C739.143 98.1684 738.256 97.6665 737.333 97.7125C730.703 98.2108 725.345 98.186 720.941 97.3308C716.439 96.8148 712.862 95.5037 709.978 93.8922C704.136 91.224 701.09 87.1776 701.217 85.9795C701.333 84.8663 705.235 81.6857 712.367 80.7951C715.873 80.6255 720.171 81.0849 724.921 82.6575C729.562 84.573 734.718 87.5946 739.376 92.6624C740.023 93.401 741.005 93.7261 741.946 93.4823C745.374 92.5882 749 92.0333 750.604 92.68C752.191 93.4257 751.647 95.2245 747.254 99.1084C746.734 104.964 745.469 106.403 744.158 105.653C742.78 104.986 741.168 102.119 739.574 99.013Z" fill="#1F824A"/>
<path d="M782.312 129.906C782.269 128.98 781.661 128.174 780.781 127.839C768.609 122.937 761.788 118.184 757.71 113.017C753.765 107.875 752.242 103.419 752.903 102.238C753.366 101.39 758.491 99.5064 765.188 102.005C768.44 103.344 772.585 105.062 775.964 108.91C777.713 110.752 779.438 112.9 781.039 115.356C782.608 117.844 783.761 120.951 784.824 124.188C785.111 125.11 785.888 125.803 786.867 125.976C793.936 127.372 800.393 130.645 789.005 133.486C782.69 143.41 782.46 136.762 782.312 129.906Z" fill="#1F824A"/>
<path d="M806.741 176.653C807.151 175.787 807.014 174.78 806.42 174.076C797.199 164.432 793.746 156.873 792.255 150.508C790.692 144.345 791.993 139.273 792.88 138.658C793.905 137.952 798.659 138.976 803.882 144.016C808.929 148.981 813.598 158.926 811.651 172.564C811.46 173.532 811.795 174.511 812.555 175.101C818.132 179.466 823.045 185.011 811.304 182.777C801.589 189.001 803.727 182.957 806.741 176.653Z" fill="#1F824A"/>
<path d="M1004.78 150.294C1005.25 149.46 1005.18 148.442 1004.64 147.7C996.109 137.437 993.196 129.655 992.15 123.202C991.023 116.947 992.673 111.974 993.599 111.423C994.674 110.79 999.342 112.147 1004.2 117.537C1008.89 122.841 1012.85 133.087 1009.96 146.558C1009.7 147.509 1009.97 148.509 1010.69 149.152C1015.94 153.895 1020.46 159.768 1008.9 156.722C998.777 162.253 1001.33 156.372 1004.78 150.294Z" fill="#1F824A"/>
<path d="M896.535 144.726C896.945 143.861 896.807 142.853 896.213 142.15C886.993 132.506 883.54 124.946 882.048 118.582C880.486 112.418 881.787 107.347 882.674 106.732C883.699 106.025 888.452 107.05 893.676 112.09C898.723 117.055 903.391 127 901.444 140.638C901.253 141.606 901.589 142.585 902.349 143.175C907.926 147.539 912.838 153.084 901.098 150.851C891.382 157.074 893.52 151.031 896.535 144.726Z" fill="#1F824A"/>
<path d="M810.247 229.619C810.947 228.969 811.187 227.979 810.894 227.103C808.427 220.851 807.2 215.674 806.748 211.182C806.048 206.69 806.366 202.88 807.151 199.668C808.204 193.346 811.261 189.327 812.456 189.126C813.551 188.939 817.69 191.844 820.415 198.505C821.511 201.834 822.203 206.089 821.949 211.072C821.447 216.045 819.74 221.787 816.312 227.668C815.774 228.491 815.729 229.527 816.22 230.357C819.793 236.492 822.323 243.458 812.237 237.016C800.92 239.178 805.129 234.347 810.247 229.619Z" fill="#1F824A"/>
<path d="M1220.25 231.54C1220.95 230.89 1221.19 229.9 1220.89 229.024C1218.43 222.772 1217.2 217.595 1216.74 213.103C1216.05 208.611 1216.36 204.802 1217.15 201.589C1218.2 195.267 1221.26 191.249 1222.45 191.047C1223.55 190.86 1227.69 193.765 1230.41 200.427C1231.51 203.756 1232.2 208.011 1231.95 212.994C1231.45 217.966 1229.74 223.709 1226.31 229.589C1225.77 230.413 1225.73 231.448 1226.22 232.279C1229.79 238.414 1232.32 245.379 1222.24 238.937C1210.92 241.1 1215.13 236.269 1220.25 231.54Z" fill="#1F824A"/>
<path d="M792.937 279.514C793.824 279.207 794.428 278.398 794.506 277.468C795.287 270.997 795.661 265.548 797.252 261.406C798.478 257.109 800.026 253.681 801.995 251.055C805.518 245.694 809.671 243.054 810.905 243.329C811.937 243.552 814.881 247.842 814.7 255.031C814.407 258.543 813.594 262.862 811.247 267.336C808.554 271.644 805.193 276.539 799.189 280.249C798.376 280.79 797.927 281.727 798.04 282.702C799.047 290.042 797.545 296.972 791.583 287.024C780.118 283.836 786.681 281.861 792.937 279.514Z" fill="#1F824A"/>
<path d="M1075.74 346.057C1076.63 345.749 1077.23 344.94 1077.31 344.011C1078.09 337.54 1078.47 332.09 1080.06 327.948C1081.28 323.651 1082.83 320.223 1084.8 317.597C1088.32 312.236 1092.47 309.596 1093.71 309.872C1094.74 310.095 1097.68 314.385 1097.5 321.573C1097.21 325.086 1096.4 329.405 1094.05 333.879C1091.36 338.187 1088 343.081 1081.99 346.792C1081.18 347.333 1080.73 348.269 1080.84 349.245C1081.85 356.585 1080.35 363.515 1074.39 353.567C1062.92 350.379 1069.48 348.403 1075.74 346.057Z" fill="#1F824A"/>
<path d="M755.494 316.568C756.437 316.713 757.399 316.349 757.837 315.48C761.078 309.518 764.488 305.669 767.379 302.196C768.892 300.556 770.436 299.22 771.981 298.117C773.458 296.948 774.815 295.887 776.222 295.099C778.986 293.477 781.7 292.657 783.764 292.237C785.743 291.749 787.217 291.802 787.684 292.177C788.125 292.53 788.532 293.968 788.461 296.181C788.313 298.315 787.524 301.111 785.846 304.298C784.983 305.867 783.966 307.603 782.541 309.207C781.053 310.751 779.286 312.299 777.229 313.773C773.264 316.911 767.439 318.919 760.774 320.064C759.855 320.254 758.978 320.806 758.628 321.703C755.985 328.245 751.991 334.493 750.878 322.615C742.18 314.999 748.574 315.409 755.494 316.568Z" fill="#1F824A"/>
<path d="M824.705 384.159C825.648 384.304 826.61 383.94 827.048 383.071C830.289 377.109 833.699 373.26 836.59 369.786C838.103 368.147 839.648 366.811 841.192 365.708C842.669 364.538 844.027 363.478 845.433 362.69C848.197 361.068 850.911 360.248 852.975 359.827C854.954 359.34 856.428 359.393 856.895 359.767C857.337 360.121 857.743 361.559 857.672 363.771C857.524 365.906 856.736 368.701 855.057 371.889C854.195 373.458 853.177 375.193 851.752 376.798C850.264 378.342 848.497 379.89 846.44 381.364C842.475 384.502 836.651 386.509 829.985 387.654C829.066 387.845 828.19 388.397 827.84 389.294C825.196 395.836 821.202 402.084 820.089 390.206C811.391 382.59 817.785 383 824.705 384.159Z" fill="#1F824A"/>
<path d="M934.962 408.335C935.906 408.48 936.867 408.116 937.305 407.247C940.546 401.285 943.957 397.437 946.848 393.963C948.361 392.323 949.902 390.987 951.45 389.884C952.927 388.715 954.284 387.654 955.691 386.866C958.451 385.244 961.169 384.424 963.233 384.004C965.212 383.516 966.686 383.569 967.152 383.944C967.594 384.297 968 385.735 967.93 387.948C967.781 390.082 966.993 392.878 965.314 396.065C964.452 397.634 963.434 399.37 962.006 400.974C960.522 402.518 958.755 404.066 956.694 405.54C952.732 408.678 946.908 410.686 940.242 411.831C939.324 412.021 938.447 412.573 938.097 413.47C935.454 420.012 931.46 426.26 930.347 414.382C921.649 406.766 928.042 407.176 934.962 408.335Z" fill="#1F824A"/>
<path d="M705.497 334.082C706.31 334.58 707.328 334.548 708.098 334.029C713.537 330.202 718.153 327.406 722.401 325.957C726.519 324.088 730.247 323.377 733.541 323.282C739.874 322.579 744.593 324.438 745.116 325.526C745.6 326.53 743.939 331.283 738.238 335.739C735.312 337.69 731.375 339.507 726.48 340.602C721.503 341.26 715.566 341.373 708.967 339.404C708.034 339.107 707.027 339.344 706.356 340.037C701.394 345.133 695.41 349.434 698.888 337.987C693.745 327.675 699.577 330.424 705.497 334.082Z" fill="#1F824A"/>
<path d="M652.267 332.588C652.861 333.338 653.826 333.659 654.723 333.437C661.17 331.489 666.439 330.719 670.974 330.655C675.526 330.358 679.311 331.009 682.449 332.076C688.687 333.79 692.37 337.172 692.444 338.398C692.519 339.494 689.203 343.374 682.358 345.389C678.951 346.184 674.674 346.502 669.747 345.806C664.852 344.876 659.293 342.685 653.716 338.791C652.939 338.19 651.914 338.059 651.048 338.48C644.647 341.544 637.526 343.505 644.736 333.967C643.46 322.506 647.962 327.1 652.267 332.588Z" fill="#1F824A"/>
<path d="M603.682 311.671C603.929 312.579 604.696 313.24 605.615 313.381C608.948 313.996 611.846 314.53 614.458 315.014C617.112 315.594 619.423 316.343 621.473 317.223C625.714 318.689 628.998 320.552 631.489 322.7C636.607 326.57 638.904 330.967 638.537 332.161C638.233 333.189 633.748 335.737 626.591 335.08C623.11 334.546 618.904 333.359 614.581 330.772C612.496 329.33 610.365 327.584 608.283 325.506C606.149 323.513 604.201 320.951 602.533 317.873C602.049 317.025 601.148 316.509 600.169 316.555C592.811 317.053 585.929 315.205 596.256 309.858C600.144 298.641 601.766 305.239 603.682 311.671Z" fill="#1F824A"/>
<path d="M569.068 271.969C568.817 272.923 569.213 273.852 570.037 274.358C575.706 278.023 579.395 281.61 582.654 284.734C584.188 286.352 585.404 287.988 586.407 289.596C587.559 291.077 588.464 292.558 589.178 294C591.885 299.87 592.175 304.726 591.38 305.613C590.627 306.457 585.404 306.963 579.392 303.029C577.868 302.082 576.271 300.895 574.674 299.439C573.232 297.855 571.807 295.982 570.475 293.827C567.616 289.653 565.905 283.755 565.265 276.987C565.149 276.047 564.566 275.188 563.735 274.754C557.405 271.661 551.457 267.223 563.375 266.943C571.588 258.794 570.715 265.134 569.068 271.969Z" fill="#1F824A"/>
<path d="M555.405 220.873C554.84 221.639 554.787 222.657 555.239 223.467C558.618 229.199 560.997 234.012 562.131 238.345C563.676 242.579 564.086 246.342 563.923 249.632C564.206 255.965 561.965 260.56 560.852 261.001C559.806 261.418 555.239 259.411 551.154 253.396C549.436 250.325 547.927 246.247 547.213 241.267C546.92 236.249 547.319 230.298 549.807 223.884C550.182 222.979 550.033 221.954 549.401 221.226C544.743 215.847 540.965 209.493 552.073 213.96C562.789 209.74 559.555 215.289 555.405 220.873Z" fill="#1F824A"/>
<path d="M403.484 230.58C402.891 231.325 402.802 232.339 403.226 233.166C406.404 239.012 408.613 243.906 409.599 248.274C410.991 252.561 411.27 256.339 410.995 259.619C411.055 265.959 408.655 270.472 407.528 270.874C406.467 271.253 401.972 269.086 398.102 262.933C396.49 259.806 395.122 255.678 394.585 250.677C394.465 245.649 395.073 239.715 397.784 233.393C398.19 232.502 398.077 231.474 397.469 230.721C393.005 225.183 389.45 218.705 400.395 223.554C411.249 219.709 407.824 225.144 403.484 230.58Z" fill="#1F824A"/>
<path d="M10.5882 250.207C10.0227 250.974 9.96973 251.992 10.4221 252.801C13.8008 258.533 16.1794 263.347 17.3139 267.679C18.8584 271.913 19.2683 275.677 19.1058 278.967C19.3885 285.3 17.1478 289.894 16.0345 290.336C14.9884 290.753 10.4221 288.746 6.33652 282.731C4.61888 279.66 3.10975 275.581 2.39583 270.602C2.10249 265.584 2.50186 259.632 4.98997 253.218C5.3646 252.313 5.21616 251.288 4.58354 250.56C-0.0746021 245.182 -3.85271 238.827 7.25542 243.294C17.9713 239.075 14.7374 244.623 10.5882 250.207Z" fill="#1F824A"/>
<path d="M580.946 183.244C580.158 183.795 579.766 184.764 579.925 185.69C581.445 192.369 581.851 197.621 582.127 202.222C582.07 206.767 581.703 210.576 580.854 213.782C578.928 220.15 576.274 224.108 574.913 224.26C574.351 224.324 573.069 223.567 571.595 221.903C570.068 220.249 568.439 217.662 567.545 214.1C566.516 210.555 565.912 206.046 566.99 200.861C567.714 195.687 570.361 189.881 574.648 184.336C575.309 183.566 575.514 182.513 575.161 181.583C572.376 174.642 571.892 167.196 580.261 175.448C592.108 175.437 586.495 179.184 580.946 183.244Z" fill="#1F824A"/>
<path d="M467.266 180.358C466.517 180.962 466.195 181.955 466.418 182.867C468.397 189.426 469.171 194.639 469.768 199.208C470.026 203.742 469.927 207.573 469.305 210.828C467.828 217.313 465.456 221.448 464.106 221.695C463.551 221.798 462.219 221.133 460.636 219.575C458.996 218.031 457.19 215.564 456.048 212.072C454.776 208.609 453.857 204.152 454.571 198.904C454.931 193.695 457.169 187.719 461.06 181.885C461.664 181.072 461.798 180.008 461.381 179.107C458.116 172.374 457.116 164.981 466.04 172.629C477.855 171.791 472.518 175.919 467.266 180.358Z" fill="#1F824A"/>
<path d="M234.002 181.092C233.214 181.644 232.822 182.612 232.981 183.538C234.5 190.217 234.907 195.469 235.182 200.07C235.126 204.615 234.758 208.424 233.91 211.63C231.984 217.998 229.33 221.956 227.969 222.108C227.407 222.172 226.124 221.415 224.65 219.751C223.124 218.097 221.494 215.51 220.6 211.948C219.572 208.403 218.967 203.894 220.045 198.709C220.77 193.536 223.417 187.729 227.704 182.184C228.365 181.414 228.57 180.361 228.216 179.431C225.431 172.49 224.947 165.044 233.316 173.296C245.163 173.286 239.551 177.032 234.002 181.092Z" fill="#1F824A"/>
<path d="M154.008 238.646C153.326 239.324 153.111 240.346 153.425 241.233C156.083 247.544 157.398 252.647 158.468 257.129C159.2 261.617 159.5 265.434 159.221 268.738C158.43 275.339 156.503 279.7 155.189 280.086C154.644 280.248 153.252 279.725 151.513 278.343C149.721 276.976 147.668 274.714 146.166 271.36C144.536 268.049 143.162 263.712 143.321 258.419C143.137 253.199 144.738 247.021 147.997 240.812C148.513 239.939 148.534 238.868 148.025 238.017C144.074 231.666 142.306 224.414 151.98 231.086C163.643 229.019 158.765 233.684 154.008 238.646Z" fill="#1F824A"/>
<path d="M609.855 137.977C608.9 138.013 608.102 138.677 607.755 139.571C602.677 152 598.287 159.03 593.3 163.493C588.656 167.995 583.797 169.723 582.804 169.296C581.673 168.798 579.895 164.02 581.832 156.725C582.789 153.117 585.055 149.124 588.504 145.141C590.392 143.275 592.593 141.423 595.106 139.695C597.63 137.981 600.811 136.723 604.09 135.542C605.034 135.228 605.723 134.394 605.928 133.418C607.685 126.453 610.947 119.491 613.658 131.199C623.433 137.394 617.012 137.981 609.855 137.977Z" fill="#1F824A"/>
<path d="M479.465 22.2337C478.511 22.269 477.712 22.9334 477.366 23.8275C472.287 36.2567 467.897 43.2859 462.911 47.7493C458.267 52.2517 453.407 53.9798 452.414 53.5522C451.283 53.0539 449.505 48.2759 451.442 40.9817C452.4 37.3734 454.665 33.38 458.115 29.3972C460.002 27.5312 462.204 25.6794 464.717 23.9512C467.24 22.2372 470.421 20.9791 473.701 19.7987C474.644 19.4842 475.334 18.6502 475.538 17.6748C477.295 10.7092 480.557 3.74721 483.268 15.4554C493.044 21.6506 486.622 22.2372 479.465 22.2337Z" fill="#1F824A"/>
<path d="M658.603 114.217C657.733 113.789 656.684 113.867 655.941 114.478C650.757 119.087 646.148 121.797 642.13 124.123C637.98 126.105 634.414 127.491 631.149 128.113C624.614 129.243 619.871 128.544 619.125 127.413C618.574 126.621 619.415 121.161 624.985 116.309C630.279 111.245 640.702 106.785 654.63 109.191C655.606 109.379 656.634 109.1 657.27 108.35C662.003 102.904 667.898 98.1653 665.106 109.842C671.103 119.751 664.957 117.429 658.603 114.217Z" fill="#1F824A"/>
<path d="M713.041 113.565C712.444 112.816 711.476 112.377 710.532 112.699C707.21 113.671 704.241 114.321 701.53 114.692C698.809 115.127 696.292 115.6 694.002 115.653C689.422 115.668 685.541 115.618 682.3 114.692C675.847 113.028 671.853 110.225 671.694 108.918C671.56 107.925 674.677 103.496 681.71 101.39C688.556 99.2131 699.933 99.0788 711.599 107.356C712.419 107.861 713.462 108.108 714.367 107.695C721.036 104.815 728.532 103.274 720.785 112.452C721.679 123.997 717.35 119.177 713.041 113.565Z" fill="#1F824A"/>
<path d="M760.315 139.228C760.199 138.288 759.52 137.503 758.616 137.21C745.737 133.315 738.654 129.057 733.635 124.682C728.907 120.105 726.631 115.839 727.076 114.62C727.415 113.659 732.247 111.086 739.52 112.737C746.744 113.927 756.866 120.017 762.358 133.255C762.733 134.185 763.578 134.852 764.578 134.98C771.933 135.976 778.718 139.175 767.384 142.486C761.666 152.802 761.086 146.091 760.315 139.228Z" fill="#1F824A"/>
<path d="M786.223 186.479C786.669 185.599 786.552 184.556 785.863 183.85C777.056 173.58 773.012 166.225 771.546 159.659C769.849 153.415 770.581 148.4 771.585 147.644C772.422 146.997 777.596 147.711 783.018 152.906C788.097 158.076 793.554 168.318 791.125 182.447C791.023 183.411 791.341 184.429 792.073 185.065C797.533 189.758 802.311 195.696 790.62 192.936C780.728 198.954 783.039 192.861 786.223 186.479Z" fill="#1F824A"/>
<path d="M1157.44 93.6942C1157.88 92.8143 1157.77 91.7717 1157.08 91.0649C1148.27 80.795 1144.23 73.4407 1142.76 66.8745C1141.07 60.6299 1141.8 55.6151 1142.8 54.8588C1143.64 54.2121 1148.81 54.926 1154.23 60.121C1159.31 65.2913 1164.77 75.5329 1162.34 89.6619C1162.24 90.6267 1162.56 91.6445 1163.29 92.2806C1168.75 96.9738 1173.53 102.911 1161.84 100.151C1151.94 106.169 1154.26 100.077 1157.44 93.6942Z" fill="#1F824A"/>
<path d="M876.894 162.952C877.339 162.072 877.222 161.03 876.533 160.323C867.726 150.053 863.683 142.699 862.216 136.132C860.519 129.888 861.251 124.873 862.255 124.117C863.092 123.47 868.267 124.184 873.688 129.379C878.767 134.549 884.224 144.791 881.796 158.92C881.693 159.885 882.011 160.902 882.743 161.538C888.203 166.232 892.982 172.169 881.29 169.409C871.398 175.427 873.709 169.334 876.894 162.952Z" fill="#1F824A"/>
<path d="M1040.33 105.127C1040.77 104.247 1040.66 103.205 1039.97 102.498C1031.16 92.2282 1027.12 84.8738 1025.65 78.3076C1023.95 72.063 1024.69 67.0482 1025.69 66.292C1026.53 65.6452 1031.7 66.3591 1037.12 71.5541C1042.2 76.7244 1047.66 86.966 1045.23 101.095C1045.13 102.06 1045.45 103.078 1046.18 103.714C1051.64 108.407 1056.42 114.344 1044.73 111.584C1034.83 117.602 1037.14 111.51 1040.33 105.127Z" fill="#1F824A"/>
<path d="M785.623 240.529C786.415 239.977 786.811 239.013 786.655 238.087C785.136 231.404 784.705 226.159 784.436 221.565C784.524 217.031 784.782 213.218 785.687 210.019C787.493 203.662 790.239 199.675 791.572 199.516C792.54 199.386 797.039 202.513 798.997 209.648C801.195 216.568 800.757 228.195 791.929 239.447C791.268 240.214 791.056 241.264 791.406 242.193C794.162 249.138 794.664 256.598 786.302 248.325C774.466 248.314 780.05 244.572 785.623 240.529Z" fill="#1F824A"/>
<path d="M915.005 259.903C915.832 259.408 916.295 258.475 916.206 257.539C915.153 250.764 915.09 245.505 915.143 240.904C915.545 236.387 916.069 232.603 917.196 229.471C919.44 223.255 922.458 219.47 923.798 219.406C924.773 219.343 929.043 222.774 930.499 230.03C932.209 237.087 930.962 248.654 921.37 259.263C920.656 259.984 920.373 261.016 920.656 261.967C922.921 269.084 922.9 276.566 915.135 267.727C903.331 266.893 909.163 263.546 915.005 259.903Z" fill="#1F824A"/>
<path d="M756.6 285.719C757.554 285.68 758.353 285.023 758.703 284.129C763.807 271.707 768.235 264.699 773.222 260.242C775.516 257.963 777.915 256.45 779.887 255.531C781.782 254.581 783.167 254.21 783.733 254.468C784.86 254.966 786.648 259.762 784.669 267.042C783.719 270.657 781.421 274.629 777.968 278.612C776.077 280.471 773.869 282.316 771.352 284.033C768.829 285.747 765.641 286.991 762.358 288.165C761.417 288.479 760.725 289.306 760.516 290.285C758.746 297.247 755.476 304.202 752.787 292.49C743.018 286.277 749.443 285.701 756.6 285.719Z" fill="#1F824A"/>
<path d="M898.205 358.196C899.16 358.157 899.958 357.499 900.308 356.605C905.412 344.183 909.84 337.175 914.827 332.719C917.121 330.439 919.521 328.927 921.493 328.008C923.387 327.057 924.772 326.686 925.338 326.944C926.465 327.443 928.254 332.238 926.274 339.518C925.324 343.134 923.026 347.106 919.574 351.089C917.683 352.948 915.474 354.792 912.957 356.51C910.434 358.224 907.246 359.468 903.963 360.641C903.023 360.956 902.33 361.783 902.121 362.762C900.351 369.724 897.082 376.679 894.392 364.967C884.623 358.754 891.049 358.178 898.205 358.196Z" fill="#1F824A"/>
<path d="M707.823 309.444C708.692 309.871 709.745 309.794 710.484 309.182C715.669 304.574 720.281 301.863 724.299 299.542C728.449 297.559 732.022 296.177 735.287 295.559C741.822 294.428 746.569 295.138 747.311 296.265C747.862 297.064 747.014 302.517 741.441 307.366C736.143 312.423 725.72 316.876 711.795 314.469C710.82 314.282 709.795 314.561 709.155 315.31C704.423 320.753 698.531 325.495 701.32 313.819C695.322 303.906 701.468 306.231 707.823 309.444Z" fill="#1F824A"/>
<path d="M653.379 310.112C653.98 310.862 654.945 311.296 655.888 310.978C659.211 309.999 662.179 309.345 664.894 308.974C667.615 308.54 670.128 308.063 672.422 308.01C676.998 307.992 680.883 308.041 684.127 308.971C690.581 310.632 694.571 313.434 694.73 314.742C694.864 315.739 691.75 320.167 684.717 322.269C677.871 324.45 666.498 324.584 654.828 316.318C654.005 315.816 652.966 315.569 652.061 315.982C645.395 318.873 637.906 320.421 645.636 311.236C644.727 299.691 649.06 304.507 653.379 310.112Z" fill="#1F824A"/>
<path d="M606.034 284.557C606.154 285.494 606.836 286.278 607.744 286.568C620.63 290.427 627.734 294.661 632.76 299.029C637.503 303.595 639.782 307.861 639.341 309.076C639.001 310.045 634.181 312.617 626.904 310.988C619.68 309.808 609.536 303.761 604.009 290.53C603.631 289.604 602.786 288.939 601.782 288.816C594.445 287.823 587.62 284.663 598.962 281.313C604.645 270.997 605.263 277.68 606.034 284.557Z" fill="#1F824A"/>
<path d="M580.19 237.327C579.776 238.196 579.826 239.253 580.487 239.97C589.368 250.226 593.245 257.615 594.783 264.146C596.448 270.409 595.772 275.392 594.758 276.162C593.931 276.802 588.708 276.127 583.318 270.907C578.158 265.768 572.849 255.439 575.217 241.348C575.348 240.376 575.097 239.341 574.334 238.708C568.863 233.987 564.077 228.011 575.786 230.856C585.686 224.922 583.378 230.972 580.19 237.327Z" fill="#1F824A"/>
<path d="M530.347 263.865C529.933 264.735 529.983 265.791 530.644 266.509C539.525 276.764 543.402 284.154 544.94 290.685C546.604 296.947 545.929 301.93 544.915 302.701C544.088 303.34 538.864 302.665 533.475 297.445C528.315 292.307 523.006 281.977 525.374 267.887C525.505 266.915 525.254 265.88 524.49 265.247C519.019 260.526 514.234 254.55 525.943 257.394C535.842 251.461 533.535 257.511 530.347 263.865Z" fill="#1F824A"/>
<path d="M448.596 287.83C448.183 288.699 448.232 289.756 448.893 290.473C457.775 300.729 461.652 308.118 463.189 314.649C464.854 320.912 464.179 325.895 463.164 326.665C462.337 327.305 457.114 326.63 451.724 321.41C446.564 316.271 441.256 305.941 443.624 291.851C443.754 290.879 443.503 289.844 442.74 289.211C437.269 284.49 432.484 278.514 444.193 281.359C454.092 275.425 451.784 281.475 448.596 287.83Z" fill="#1F824A"/>
<path d="M318.69 383.336C318.432 384.262 318.666 385.297 319.443 385.887C329.968 394.443 335.072 401.052 337.719 407.215C340.444 413.092 340.645 418.118 339.779 419.051C339.08 419.825 333.817 420.069 327.6 415.863C321.627 411.7 314.608 402.448 314.492 388.16C314.453 387.181 314.025 386.206 313.163 385.714C306.953 382.014 301.207 376.961 313.23 377.727C321.949 370.168 320.726 376.526 318.69 383.336Z" fill="#1F824A"/>
<path d="M71.5011 344.403C71.0876 345.273 71.1371 346.329 71.798 347.047C80.6796 357.302 84.5567 364.692 86.094 371.223C87.7587 377.485 87.0836 382.468 86.0693 383.239C85.2423 383.878 80.0187 383.203 74.629 377.984C69.469 372.845 64.1605 362.515 66.5285 348.425C66.6592 347.453 66.4083 346.418 65.6449 345.785C60.1739 341.064 55.3885 335.088 67.0975 337.932C76.9969 331.999 74.689 338.049 71.5011 344.403Z" fill="#1F824A"/>
<path d="M337.114 291.133C336.7 292.003 336.75 293.059 337.411 293.777C346.292 304.032 350.169 311.422 351.707 317.953C353.371 324.215 352.696 329.198 351.682 329.969C350.855 330.608 345.631 329.933 340.242 324.714C335.081 319.575 329.773 309.245 332.141 295.155C332.272 294.183 332.021 293.148 331.257 292.515C325.786 287.794 321.001 281.818 332.71 284.662C342.609 278.729 340.302 284.779 337.114 291.133Z" fill="#1F824A"/>
<path d="M182.526 334.299C182.112 335.168 182.162 336.225 182.823 336.942C191.704 347.198 195.581 354.588 197.119 361.119C198.783 367.381 198.108 372.364 197.094 373.134C196.267 373.774 191.043 373.099 185.653 367.879C180.493 362.741 175.185 352.411 177.553 338.321C177.684 337.349 177.433 336.313 176.669 335.681C171.198 330.959 166.413 324.983 178.122 327.828C188.021 321.894 185.714 327.945 182.526 334.299Z" fill="#1F824A"/>
<path d="M702.306 163.054C701.733 162.251 700.733 161.781 699.74 162.032C686.112 164.884 677.679 165.884 670.858 165.178C667.518 164.87 664.715 164.234 662.651 163.612C660.559 162.891 659.227 162.107 659.025 161.569C658.82 161.018 659.28 159.566 660.746 157.781C662.185 155.904 664.666 153.759 668.377 152.095C672.063 150.423 676.983 149.377 682.701 149.745C688.367 150.331 695.004 152.077 701.062 156.749C701.928 157.321 703.037 157.615 704.034 157.29C707.681 156.017 711.693 155.533 713.566 156.314C715.496 157.078 714.951 158.848 710.452 162.863C710.339 168.733 708.978 170.161 707.621 169.528C706.232 168.835 704.462 165.934 702.306 163.054Z" fill="#1F824A"/>
<path d="M718.682 252.662C719.7 252.751 720.58 252.118 721 251.22C724.015 244.919 726.04 240.131 727.807 236.035C729.634 232.016 731.373 228.772 733.137 226.005C734.886 223.248 736.653 221.019 738.127 219.435C739.707 217.877 740.933 217.004 741.52 217.053C742.093 217.103 743.262 218.149 744.206 220.248C745.252 222.354 746.132 225.553 745.927 229.709C745.719 233.819 744.337 238.925 740.852 243.838C737.512 248.782 731.748 253.312 724.432 255.451C723.411 255.765 722.598 256.599 722.209 257.536C721.541 259.317 720.732 261.137 719.852 262.642C718.915 264.042 717.929 265.155 717.056 265.66C715.243 266.703 714.197 265.173 713.833 259.168C709.284 255.433 709.012 253.482 710.341 252.821C711.041 252.478 712.218 252.418 713.713 252.5C715.137 252.482 716.858 252.563 718.682 252.662Z" fill="#1F824A"/>
<path d="M628.438 220.992C627.986 221.851 627.954 222.964 628.629 223.731C632.785 229.339 636.362 233.255 639.069 236.75C641.716 240.284 643.939 243.182 645.484 246.091C648.799 251.586 650.35 256.466 649.675 257.59C649.202 258.445 643.748 259.891 636.369 255.791C632.88 253.632 628.823 250.165 626.144 244.748C623.405 239.457 621.794 232.393 623.303 224.876C623.419 223.837 623.243 222.702 622.497 221.95C619.74 219.193 617.627 215.776 617.496 213.768C617.344 211.705 619.178 211.425 624.745 213.74C630.085 211.302 631.962 211.902 631.979 213.408C631.986 214.973 630.081 217.825 628.438 220.992Z" fill="#1F824A"/>
<path d="M536.078 165.593C535.226 166.148 534.951 167.176 535.124 168.145C537.509 181.828 536.541 190.875 533.823 197.378C531.685 203.828 527.882 207.39 526.688 207.362C525.557 207.337 522.093 203.524 520.563 196.18C519.563 188.995 520.697 177.853 529.875 166.689C530.512 165.908 530.6 164.805 530.31 163.879C528.038 157.009 526.949 149.496 535.654 157.67C547.374 157.186 542.153 161.536 536.078 165.593Z" fill="#1F824A"/>
<path d="M659.553 64.7834C658.708 64.2886 657.637 64.331 656.81 64.8576C650.901 68.3775 645.932 71.3037 641.373 72.7773C636.778 74.1309 632.887 75.1098 629.445 75.237C626.017 75.389 623.108 74.8942 620.984 74.2369C618.923 73.7421 617.626 72.9929 617.404 72.4381C617.191 71.915 617.587 70.4414 618.8 68.5082C620.068 66.7412 622.192 64.5925 625.32 62.5782C628.445 60.5885 632.537 58.5352 637.789 58.0087C642.995 57.3549 649.127 57.1711 656.043 59.4647C657.015 59.758 658.076 59.5142 658.797 58.8144C661.43 56.2664 664.352 53.835 666.13 53.6229C667.926 53.4816 668.445 55.3122 666.593 60.8465C669.325 66.1864 668.996 68.0524 667.353 68.0594C665.706 68.1372 662.66 66.6105 659.553 64.7834Z" fill="#1F824A"/>
<path d="M809.707 123.366C809.732 122.401 809.173 121.489 808.307 121.026C805.179 119.432 802.744 117.627 800.256 116.153C797.786 114.658 795.701 113.128 793.919 111.559C790.505 108.286 787.65 105.512 785.819 102.603C782.232 96.7475 781.27 91.8812 781.988 90.9058C782.645 90.0081 787.985 89.0575 794.57 92.5703C797.867 94.2772 801.797 96.7193 804.907 101.059C806.529 103.155 808.102 105.554 809.53 108.261C810.976 110.954 811.838 114.315 812.676 117.771C812.895 118.757 813.63 119.57 814.602 119.867C816.376 120.411 818.164 121.037 819.62 121.726C820.981 122.482 822.052 123.274 822.543 124.034C823.54 125.575 822.151 126.861 816.355 127.794C812.912 132.667 811.089 133.226 810.318 131.812C809.926 131.095 809.781 129.854 809.774 128.328C809.668 126.864 809.657 125.14 809.707 123.366Z" fill="#1F824A"/>
<path d="M835.937 230.603C836.616 229.896 836.955 228.861 836.545 227.931C833.831 221.344 832.834 215.859 832.293 211.074C831.583 206.299 831.887 202.242 832.665 198.843C833.997 192.114 836.793 188 838.068 187.813C839.093 187.65 843.508 190.792 845.939 197.814C847.038 201.313 847.742 205.755 847.494 210.971C847.081 216.173 845.151 222.164 841.97 228.419C841.55 229.302 841.408 230.384 841.921 231.246C845.466 237.586 847.982 244.742 837.878 238.332C826.48 240.996 830.763 235.717 835.937 230.603Z" fill="#1F824A"/>
<path d="M1025.09 253.198C1025.82 252.54 1026.23 251.529 1025.89 250.575C1023.64 243.811 1023.03 238.273 1022.82 233.46C1022.45 228.647 1023.03 224.621 1024.05 221.289C1025.84 214.666 1028.92 210.761 1030.21 210.662C1031.24 210.57 1035.42 214.012 1037.36 221.186C1038.21 224.752 1038.6 229.233 1037.99 234.418C1037.22 239.581 1034.87 245.423 1031.27 251.441C1030.78 252.293 1030.57 253.36 1031.02 254.254C1034.11 260.827 1036.12 268.143 1026.49 261.043C1014.94 262.909 1019.58 257.937 1025.09 253.198Z" fill="#1F824A"/>
<path d="M734.502 353.123C735.41 353.455 736.453 353.218 737.174 352.547C739.729 350.151 742.164 348.214 744.493 346.595C746.73 344.74 748.879 343.266 750.957 342.089C753.036 340.913 755.047 340.04 756.969 339.386C758.796 338.552 760.553 337.965 762.21 337.566C768.851 336.018 773.972 337.198 774.566 338.096C775.248 339.139 774.04 344.097 768.597 349.249C767.247 350.543 765.649 351.85 763.783 353.101C761.829 354.169 759.602 355.155 757.103 355.992C754.605 356.83 751.841 357.515 748.83 357.971C745.737 358.187 742.38 358.116 738.828 357.735C737.828 357.625 736.824 358.06 736.234 358.883C731.897 365.089 726.119 369.478 728.162 357.989C721.181 348.225 727.925 350.811 734.502 353.123Z" fill="#1F824A"/>
<path d="M575.255 321.431C575.432 322.382 576.17 323.156 577.114 323.425C580.503 324.34 583.288 325.563 586.002 326.531C588.734 327.478 591.099 328.549 593.17 329.712C597.206 332.196 600.532 334.408 602.946 336.85C607.678 341.83 609.519 346.534 609.035 347.576C608.537 348.643 603.557 350.502 596.393 348.442C592.799 347.477 588.515 345.827 584.568 342.243C582.549 340.536 580.517 338.518 578.563 336.168C576.626 333.797 575.05 330.726 573.519 327.517C573.095 326.602 572.208 325.958 571.194 325.874C567.412 325.644 563.814 324.76 562.57 323.439C561.27 322.142 562.362 320.597 567.84 318.47C570.19 312.999 571.862 312.073 572.912 313.289C573.937 314.561 574.52 318.025 575.255 321.431Z" fill="#1F824A"/>
<path d="M534.207 360.335C534.451 361.271 535.239 361.989 536.2 362.194C539.646 362.872 542.509 363.893 545.283 364.671C548.075 365.427 550.507 366.328 552.656 367.346C556.854 369.541 560.329 371.52 562.905 373.785C567.977 378.422 570.14 382.984 569.73 384.062C569.309 385.158 564.471 387.359 557.18 385.804C553.525 385.094 549.136 383.744 544.951 380.447C542.816 378.885 540.65 377.012 538.533 374.806C536.437 372.576 534.652 369.622 532.899 366.526C532.415 365.643 531.486 365.063 530.468 365.049C526.679 365.084 523.028 364.452 521.692 363.222C520.307 362.017 521.286 360.402 526.605 357.9C528.566 352.274 530.167 351.235 531.302 352.376C532.412 353.574 533.235 356.988 534.207 360.335Z" fill="#1F824A"/>
<path d="M484.86 397.061C485.037 398.011 485.776 398.785 486.719 399.054C490.108 399.969 492.893 401.192 495.608 402.16C498.34 403.108 500.704 404.178 502.775 405.341C506.811 407.825 510.137 410.038 512.551 412.48C517.283 417.459 519.125 422.163 518.64 423.205C518.142 424.273 513.162 426.132 505.998 424.071C502.404 423.107 498.121 421.456 494.173 417.873C492.155 416.166 490.123 414.148 488.168 411.798C486.231 409.426 484.655 406.355 483.125 403.146C482.701 402.231 481.814 401.588 480.799 401.503C477.018 401.273 473.42 400.39 472.176 399.068C470.875 397.771 471.967 396.227 477.445 394.099C479.796 388.629 481.467 387.703 482.517 388.918C483.542 390.191 484.125 393.654 484.86 397.061Z" fill="#1F824A"/>
<path d="M588.953 83.1424C587.981 83.1212 587.084 83.669 586.635 84.5207C583.295 90.3836 580.56 95.4161 577.35 98.8618C575.795 100.636 574.145 102.049 572.611 103.329C571.162 104.686 569.699 105.788 568.274 106.686C562.577 110.255 557.354 110.637 556.421 109.888C555.541 109.181 555.159 104.17 558.506 97.6355C559.34 96.0098 560.404 94.2923 561.729 92.5465C563.143 90.8925 564.935 89.327 566.974 87.7579C571.13 84.7292 576.205 81.5238 583.299 80.2163C584.274 80.0042 585.069 79.2868 585.338 78.3326C587.342 71.3388 590.576 64.5641 593.028 76.3359C602.687 82.7183 596.047 83.3297 588.953 83.1424Z" fill="#1F824A"/>
<path d="M808.294 86.9766C808.054 86.0366 807.223 85.3969 806.262 85.2379C799.31 84.2696 794.316 82.181 789.913 80.4422C785.534 78.6787 782.282 76.3958 779.812 74.028C774.747 69.6316 772.665 65.1222 773.139 63.9454C773.521 62.9629 778.363 60.7365 785.587 62.0335C789.107 62.8392 793.238 64.4649 797.539 67.2957C801.851 70.0875 805.813 74.968 809.464 80.8345C809.966 81.6827 810.931 82.1739 811.917 82.1739C819.042 82.393 826.319 83.9162 815.741 89.2879C812.065 100.441 809.885 94.0447 808.294 86.9766Z" fill="#1F824A"/>
<path d="M834.118 308.345C835.013 308.02 835.642 307.179 835.741 306.211C836.465 299.34 838.049 294.142 839.406 289.572C840.904 285.098 843.23 281.808 845.223 279.098C849.093 273.669 853.744 271.415 854.879 271.786C855.957 272.136 858.194 276.716 857.575 284.077C857.208 287.721 855.6 291.838 853.041 296.298C850.634 300.835 846.188 305.186 840.356 309.105C839.536 309.656 839.066 310.625 839.162 311.628C839.876 319.039 838.374 326.072 832.475 316.025C820.9 312.999 827.612 310.713 834.118 308.345Z" fill="#1F824A"/>
<path d="M638.989 373.722C639.604 374.475 640.604 374.807 641.545 374.595C648.171 373.319 653.826 372.174 658.566 372.418C663.305 372.62 667.232 373.581 670.476 374.514C676.905 376.641 680.435 380.43 680.418 381.624C680.404 382.755 676.696 386.233 669.578 387.795C666.023 388.714 661.651 388.696 656.668 387.501C651.709 386.264 646.033 384.462 640.435 379.924C639.64 379.32 638.579 379.182 637.682 379.596C631.069 382.61 623.845 384.55 631.168 375.037C629.715 363.534 634.522 368.199 638.989 373.722Z" fill="#1F824A"/>
<path d="M505.536 221.461C504.971 222.249 504.921 223.302 505.374 224.154C508.385 230.232 510.728 235.385 511.887 239.982C513.029 244.573 513.001 248.62 513.029 251.952C512.757 258.656 510.106 263.13 508.954 263.455C507.869 263.766 503.504 261.197 500.009 254.73C498.104 251.542 497.093 247.277 496.842 242.149C496.57 237.032 497.068 231.041 499.938 224.468C500.309 223.542 500.161 222.482 499.525 221.722C494.863 216.128 491.074 209.668 502.193 214.255C512.898 209.848 509.675 215.711 505.536 221.461Z" fill="#1F824A"/>
</svg>
