<svg width="736" height="209" viewBox="0 0 736 209" fill="none" xmlns="http://www.w3.org/2000/svg">
<path d="M248.804 58.1149L249.594 57.9649C249.559 58.1189 249.532 58.2369 249.491 58.4019C249.226 60.4759 249.777 62.7069 250.776 62.8099C251.776 62.9989 252.884 61.0319 253.176 58.9879C253.312 58.0359 253.231 57.2539 253.009 56.6519C256.799 60.0849 263.956 62.3809 269.804 62.2699C272.783 62.1649 275 61.5379 276.668 60.6359C277.346 60.2379 278.188 60.2159 278.882 60.6249C280.735 61.7189 282.952 62.1799 285.342 61.7019C288.586 61.0449 291.383 58.4889 292.445 55.2179C294.455 49.1259 290.172 43.3189 283.947 42.9169C282.405 42.8179 280.922 43.0739 279.603 43.6099C278.828 43.9229 277.935 43.8069 277.236 43.3179C275.53 42.0609 273.171 41.3939 269.972 41.4979C263.66 41.6039 256.065 44.1769 252.558 47.7419C252.725 47.1339 252.734 46.3489 252.491 45.4039C251.978 43.3809 250.57 41.4569 249.516 41.6809C248.469 41.9929 248.191 44.3089 248.728 46.3019C248.786 46.4509 248.828 46.5579 248.883 46.6939L248.061 46.7049C244.365 47.0769 241.598 49.9249 241.881 53.0669C242.165 56.2129 245.262 58.4739 248.804 58.1149Z" fill="#1F824A"/>
<path d="M191.831 67.1992L192.591 66.9302C192.58 67.0862 192.572 67.2022 192.566 67.3762C192.656 69.4542 193.587 71.5682 194.601 71.5142C195.616 71.4642 196.355 69.2542 196.283 67.1702C196.25 66.1972 196.03 65.4422 195.712 64.9022C199.969 67.1842 207.55 68.5662 213.33 67.4402C216.272 66.9072 218.349 65.8732 219.799 64.5152C220.393 63.9612 221.213 63.7362 221.972 63.9632C223.998 64.6002 226.254 64.4052 228.531 63.6262C231.607 62.4572 233.86 59.4852 234.252 56.0942C235.012 49.7782 229.649 44.7612 223.478 45.4072C221.967 45.6812 220.586 46.2832 219.411 47.1252C218.72 47.6222 217.833 47.7192 217.057 47.4062C215.182 46.6532 212.752 46.4372 209.624 47.0012C203.464 48.1932 196.417 51.6622 193.703 56.2082C193.751 55.5692 193.625 54.7952 193.225 53.9172C192.368 52.0342 190.679 50.4612 189.701 50.9252C188.722 51.3882 188.852 53.7122 189.725 55.5852C189.81 55.7262 189.868 55.8242 189.949 55.9522L189.136 56.0902C185.554 57.0192 183.306 60.2472 184.111 63.3002C184.916 66.3532 188.375 68.1002 191.831 67.1992Z" fill="#1F824A"/>
<path d="M136.978 85.1419L137.683 84.7549C137.7 84.9079 137.712 85.0279 137.729 85.1989C138.173 87.2339 139.44 89.1469 140.443 88.9579C141.438 88.7619 141.804 86.4999 141.395 84.4699C141.198 83.5219 140.853 82.8129 140.446 82.3279C145.121 84.1369 152.635 83.7879 158.171 81.8279C160.975 80.8019 162.884 79.5409 164.1 77.9709C164.594 77.3419 165.373 76.9949 166.159 77.1189C168.278 77.4749 170.52 77.1079 172.597 75.8009C175.442 74.0949 177.227 70.8659 177.054 67.4529C176.782 61.1769 170.648 56.8389 164.742 58.7079C163.27 59.1659 161.982 59.9319 160.937 60.9069C160.328 61.4889 159.467 61.7219 158.646 61.5269C156.669 61.0709 154.197 61.1629 151.204 62.2609C145.275 64.3569 139.059 69.4119 137.019 74.0909C136.968 73.4569 136.708 72.7129 136.168 71.9099C135.006 70.1849 133.058 68.8849 132.153 69.4799C131.247 70.0739 131.77 72.3569 132.949 74.0579C133.053 74.1799 133.131 74.2659 133.227 74.3809L132.448 74.6459C129.054 76.1439 127.366 79.6679 128.69 82.5569C130.002 85.4069 133.719 86.5809 136.978 85.1419Z" fill="#1F824A"/>
<path d="M86.0141 112.383L86.6561 111.896C86.6961 112.046 86.7251 112.161 86.7691 112.325C87.5261 114.257 89.0981 115.96 90.0521 115.594C91.0081 115.233 91.0081 112.928 90.2681 110.986C89.9211 110.078 89.4681 109.44 88.9871 109.025C93.9181 110.08 101.287 108.428 106.443 105.56C109.046 104.068 110.697 102.455 111.636 100.724C112.022 100.017 112.731 99.5479 113.532 99.5289C115.667 99.4749 117.831 98.7489 119.65 97.0899C122.125 94.8639 123.266 91.2969 122.498 87.9519C121.115 81.7439 114.39 78.7849 108.907 81.6409C107.545 82.3519 106.402 83.3029 105.563 84.4739C105.07 85.1559 104.255 85.5279 103.418 85.4719C101.382 85.3439 98.9931 85.8929 96.2381 87.4679C90.7631 90.5119 85.5381 96.5409 84.2691 101.453C84.1141 100.836 83.7411 100.146 83.0741 99.4429C81.6551 97.9319 79.5311 96.9669 78.7451 97.7069C77.9581 98.4419 78.8281 100.593 80.2671 102.093C80.3941 102.198 80.4811 102.267 80.5961 102.367L79.8651 102.747C76.7501 104.73 75.6781 108.528 77.4171 111.146C79.1681 113.788 82.9951 114.304 86.0141 112.383Z" fill="#1F824A"/>
<path d="M345.408 33.0208C345.669 33.0958 345.926 33.1237 346.186 33.1657C346.102 33.3007 346.041 33.3998 345.956 33.5448C345.07 35.4068 344.889 37.7278 345.777 38.1938C346.664 38.6598 348.318 37.1028 349.228 35.2418C349.652 34.3758 349.814 33.6068 349.793 32.9738C352.285 37.3998 358.401 41.4048 363.864 43.2988C366.629 44.3028 368.889 44.4408 370.778 43.9778C371.548 43.7918 372.355 44.0037 372.89 44.5847C374.325 46.1327 376.3 47.1907 378.722 47.3947C382.032 47.6017 385.382 46.1498 387.337 43.3768C391.013 38.2198 388.866 31.1087 383.068 29.1327C381.64 28.6137 380.164 28.4478 378.753 28.5958C377.92 28.6818 377.116 28.3197 376.601 27.6627C375.356 26.0617 373.368 24.6597 370.41 23.5847C364.539 21.5537 356.516 22.0497 352.129 24.3597C352.473 23.8327 352.722 23.0857 352.792 22.1197C352.932 20.0447 352.204 17.8088 351.138 17.7208C350.071 17.6278 349.101 19.7208 348.988 21.8068C348.993 21.9678 348.999 22.0847 349.006 22.2357L348.243 21.9478C344.739 20.8498 341.22 22.8858 340.526 25.9368C339.815 29.0408 342.061 31.9658 345.408 33.0208Z" fill="#1F824A"/>
<path d="M289.323 24.4978C289.593 24.5078 289.851 24.4788 290.112 24.4578C290.06 24.6028 290.019 24.7198 289.961 24.8798C289.456 26.8968 289.728 29.1878 290.694 29.4348C291.654 29.6778 292.977 27.7808 293.513 25.7688C293.761 24.8268 293.77 24.0408 293.627 23.4298C296.971 26.8428 303.666 30.4038 309.404 31.0268C312.316 31.3858 314.565 31.0118 316.337 30.1398C317.053 29.7878 317.894 29.8098 318.532 30.2538C320.253 31.3688 322.338 32.2838 324.743 32.0788C327.984 31.8618 331.009 29.6908 332.419 26.5788C335.075 20.7808 331.562 14.4348 325.551 13.2148C324.055 12.9158 322.592 12.9368 321.219 13.4368C320.417 13.7048 319.55 13.5328 318.916 13.0058C317.373 11.7338 315.14 10.8048 312.011 10.4198C305.826 9.73882 298.134 10.9618 294.247 14.5308C294.48 13.9358 294.581 13.1568 294.457 12.1958C294.196 10.1498 293.046 8.1488 291.982 8.3088C290.917 8.4638 290.37 10.7268 290.661 12.7738C290.699 12.9338 290.726 13.0408 290.765 13.1868L289.957 13.0838C286.295 12.9288 283.251 15.3588 283.151 18.5148C283.058 21.6738 285.82 24.3488 289.323 24.4978Z" fill="#1F824A"/>
<path d="M176.489 37.4899C176.75 37.4219 176.991 37.3169 177.238 37.2189C177.232 37.3739 177.225 37.4949 177.218 37.6639C177.362 39.7309 178.337 41.8359 179.346 41.7789C180.356 41.7259 181.036 39.5279 180.916 37.4589C180.856 36.4889 180.618 35.7389 180.291 35.2019C184.635 37.8069 191.992 37.9579 197.756 37.0179C200.668 36.4649 202.7 35.4249 204.092 34.0609C204.658 33.5099 205.471 33.2779 206.233 33.4989C208.272 34.0989 210.526 33.9949 212.718 32.9309C215.698 31.4849 217.776 28.3119 217.993 24.8779C218.419 18.4799 212.947 13.9019 206.988 15.0329C205.503 15.3139 204.164 15.9269 203.032 16.7709C202.369 17.2689 201.498 17.3709 200.721 17.0679C198.84 16.3249 196.435 16.1309 193.366 16.7159C187.275 17.7239 180.749 22.3659 178.077 26.5549C178.113 25.9239 177.964 25.1519 177.546 24.2789C176.655 22.4069 174.943 20.8409 173.988 21.3019C173.033 21.7629 173.217 24.0759 174.125 25.9389C174.214 26.0789 174.272 26.1759 174.353 26.3049L173.553 26.4379C170.038 27.3659 167.88 30.5769 168.742 33.6129C169.605 36.6539 173.07 38.3899 176.489 37.4899Z" fill="#1F824A"/>
<path d="M393.719 14.8C393.969 14.902 394.224 14.955 394.479 15.027C394.381 15.147 394.304 15.241 394.196 15.374C393.047 17.105 392.545 19.359 393.384 19.916C394.218 20.459 396.093 19.132 397.248 17.437C397.792 16.636 398.058 15.898 398.128 15.266C400.004 19.962 405.481 25.04 410.787 27.477C413.446 28.799 415.697 29.197 417.639 28.958C418.43 28.86 419.217 29.165 419.689 29.802C420.946 31.508 422.81 32.786 425.206 33.27C428.417 34.012 431.953 32.829 434.183 30.246C438.345 25.484 436.904 18.281 431.505 15.576C430.156 14.909 428.726 14.591 427.316 14.581C426.489 14.575 425.732 14.132 425.302 13.425C424.259 11.703 422.474 10.097 419.687 8.71698C414.108 6.14698 406.308 5.33998 401.637 7.06598C402.047 6.58598 402.396 5.88598 402.6 4.93698C403.043 2.88598 402.639 0.60196 401.589 0.40796C400.543 0.20996 399.277 2.15698 398.871 4.18698C398.857 4.34898 398.843 4.46298 398.831 4.61398L398.111 4.24698C394.734 2.88598 391.057 4.16798 389.895 7.10498C388.738 10.042 390.446 13.484 393.719 14.8Z" fill="#1F824A"/>
<path d="M435.406 189.155L436.124 189.547C436.001 189.646 435.909 189.721 435.774 189.828C434.308 191.295 433.391 193.42 434.127 194.161C434.866 194.895 436.99 193.971 438.466 192.505C439.154 191.822 439.555 191.149 439.73 190.539C440.846 195.418 445.496 201.659 450.478 205.123C453.011 206.884 455.255 207.661 457.266 207.749C458.086 207.781 458.837 208.221 459.225 208.945C460.263 210.874 461.981 212.496 464.334 213.398C467.535 214.63 471.283 213.952 473.847 211.69C478.629 207.472 477.99 200.237 473.069 196.721C471.838 195.842 470.469 195.295 469.078 195.061C468.264 194.922 467.576 194.358 467.249 193.597C466.465 191.735 464.929 189.878 462.354 188.087C457.282 184.564 449.785 182.245 444.72 183.143C445.218 182.751 445.695 182.127 446.067 181.229C446.866 179.316 446.888 176.99 445.902 176.577C444.91 176.162 443.293 177.827 442.505 179.747C442.461 179.903 442.432 180.012 442.389 180.158L441.745 179.644C438.673 177.595 434.783 178.082 433.057 180.725C431.33 183.368 432.383 187.14 435.406 189.155Z" fill="#1F824A"/>
<path d="M385.242 159.018L385.992 159.325C385.881 159.434 385.797 159.521 385.681 159.642C384.38 161.265 383.692 163.47 384.495 164.114C385.295 164.749 387.305 163.587 388.623 161.977C389.237 161.221 389.565 160.513 389.681 159.891C391.31 164.56 396.34 170.458 401.555 173.376C404.182 174.908 406.496 175.407 408.462 175.408C409.269 175.397 410.039 175.788 410.47 176.48C411.61 178.336 413.4 179.831 415.782 180.572C419.016 181.579 422.713 180.668 425.162 178.273C429.735 173.803 428.667 166.633 423.462 163.383C422.16 162.568 420.752 162.1 419.338 161.949C418.505 161.858 417.786 161.333 417.412 160.576C416.527 158.711 414.765 157.04 412.023 155.443C406.553 152.372 398.88 150.554 393.885 152.023C394.345 151.581 394.755 150.91 395.032 149.982C395.625 148.002 395.384 145.687 394.338 145.379C393.297 145.073 391.863 146.904 391.288 148.893C391.259 149.055 391.241 149.17 391.218 149.315L390.514 148.876C387.199 147.177 383.375 148.097 381.976 150.924C380.578 153.755 382.039 157.377 385.242 159.018Z" fill="#1F824A"/>
<path d="M331.659 136.843L332.448 136.994C332.363 137.125 332.298 137.225 332.202 137.368C331.234 139.208 330.968 141.502 331.861 141.971C332.753 142.435 334.502 140.907 335.502 139.077C335.972 138.221 336.165 137.462 336.164 136.832C338.608 141.129 344.444 146.1 349.988 148.056C352.805 149.074 355.13 149.24 357.043 148.97C357.824 148.838 358.636 149.111 359.151 149.736C360.526 151.407 362.472 152.621 364.91 153.007C368.218 153.529 371.754 152.108 373.878 149.408C377.866 144.383 375.833 137.448 370.128 134.92C368.711 134.292 367.231 134.017 365.799 134.062C364.958 134.088 364.16 133.668 363.67 132.969C362.512 131.209 360.509 129.787 357.476 128.687C351.484 126.554 343.52 125.983 338.868 128.333C339.241 127.807 339.523 127.073 339.629 126.116C339.847 124.061 339.165 121.839 338.065 121.733C336.962 121.632 335.894 123.697 335.708 125.762C335.713 125.923 335.713 126.037 335.716 126.189L334.935 125.892C331.322 124.859 327.736 126.496 326.923 129.545C326.111 132.598 328.229 135.865 331.659 136.843Z" fill="#1F824A"/>
<path d="M274.913 127.051L275.716 126.993C275.661 127.143 275.623 127.254 275.567 127.419C275.074 129.446 275.377 131.728 276.351 131.953C277.327 132.173 278.647 130.248 279.174 128.224C279.417 127.278 279.423 126.499 279.275 125.889C282.668 129.689 289.454 132.964 295.251 133.575C298.211 133.824 300.476 133.583 302.259 132.89C302.986 132.592 303.828 132.68 304.463 133.178C306.154 134.502 308.287 135.255 310.729 135.095C314.037 134.878 317.185 132.718 318.712 129.629C321.6 123.876 318.144 117.561 311.946 116.32C310.408 116.01 308.889 116.067 307.492 116.421C306.671 116.627 305.793 116.388 305.154 115.81C303.614 114.355 301.345 113.289 298.101 113.001C291.722 112.305 283.764 113.804 279.838 116.988C280.072 116.383 280.174 115.604 280.038 114.651C279.755 112.612 278.545 110.634 277.45 110.817C276.354 110.996 275.818 113.265 276.141 115.307C276.182 115.462 276.21 115.573 276.253 115.717L275.422 115.631C271.653 115.551 268.572 118.049 268.539 121.204C268.508 124.363 271.357 126.979 274.913 127.051Z" fill="#1F824A"/>
<path d="M217.452 131.537L218.228 131.339C218.212 131.492 218.199 131.611 218.182 131.778C218.186 133.839 219.029 136.012 220.047 136.052C221.063 136.098 221.903 133.986 221.934 131.915C221.948 130.952 221.762 130.186 221.47 129.619C225.686 132.515 233.057 133.674 238.852 132.854C241.819 132.647 243.952 131.849 245.5 130.658C246.129 130.174 246.966 130.039 247.703 130.35C249.672 131.18 251.922 131.335 254.245 130.533C257.39 129.42 259.899 126.524 260.61 123.291C261.971 117.006 257.037 111.508 250.741 112.086C249.177 112.199 247.723 112.652 246.461 113.362C245.718 113.783 244.809 113.787 244.047 113.394C242.2 112.446 239.733 111.978 236.503 112.215C230.177 113.093 222.92 116.831 219.874 120.841C219.959 120.214 219.871 119.439 219.506 118.531C218.733 116.595 217.081 114.891 216.053 115.269C215.024 115.643 215.043 117.947 215.848 119.879C215.924 120.023 215.983 120.125 216.057 120.26L215.222 120.323C211.496 120.851 209.188 124.374 209.869 127.364C210.588 130.528 213.916 132.028 217.452 131.537Z" fill="#1F824A"/>
<path d="M161.936 148.404L162.67 148.066C162.679 148.225 162.69 148.341 162.702 148.509C163.08 150.53 164.315 152.515 165.335 152.368C166.357 152.226 166.805 150.002 166.448 147.971C166.28 147.023 165.956 146.304 165.56 145.806C170.258 147.856 177.866 147.742 183.454 145.766C186.297 144.757 188.205 143.396 189.454 141.811C189.96 141.169 190.743 140.807 191.524 140.913C193.602 141.148 195.919 141.064 198.039 139.821C200.93 138.206 202.765 134.919 202.692 131.505C202.596 125.119 196.58 120.951 190.509 122.493C189.002 122.894 187.65 123.526 186.625 124.6C186.008 125.204 185.145 125.446 184.336 125.258C182.374 124.807 179.937 124.985 176.919 126.046C170.962 128.146 164.571 132.981 162.34 137.483C162.305 136.854 162.067 136.104 161.545 135.281C160.42 133.521 158.487 132.14 157.552 132.686C156.619 133.236 157.063 135.495 158.209 137.244C158.315 137.375 158.389 137.462 158.486 137.581L157.681 137.793C154.113 138.913 152.468 142.773 153.685 145.622C154.953 148.58 158.495 149.472 161.936 148.404Z" fill="#1F824A"/>
<path d="M110.235 174.813L110.89 174.336C110.927 174.492 110.956 174.607 111 174.771C111.733 176.7 113.296 178.425 114.259 178.086C115.227 177.749 115.26 175.458 114.545 173.509C114.213 172.601 113.768 171.956 113.294 171.534C118.236 172.658 125.603 171.078 130.673 168.035C133.319 166.607 135.097 165.194 136.093 163.494C136.502 162.819 137.241 162.384 138.053 162.404C140.222 162.45 142.415 161.773 144.298 160.185C146.857 158.029 148.074 154.431 147.396 151.068C146.162 144.782 139.549 141.799 133.911 144.457C132.51 145.118 131.336 146.06 130.44 147.167C129.91 147.821 129.072 148.147 128.222 148.062C126.168 147.877 123.664 148.213 120.845 149.735C115.404 152.975 110.029 159.01 108.665 163.908C108.518 163.288 108.15 162.596 107.493 161.88C106.084 160.353 103.946 159.358 103.136 160.081C102.322 160.806 103.159 162.962 104.594 164.477C104.72 164.582 104.805 164.657 104.92 164.756L104.174 165.117C100.968 167.037 99.7796 170.732 101.515 173.369C103.249 176.002 107.158 176.651 110.235 174.813Z" fill="#1F824A"/>
<path d="M63.9929 209.859L64.5479 209.274C64.6139 209.416 64.6658 209.525 64.7348 209.676C65.8058 211.448 67.6449 212.866 68.5329 212.353C69.4209 211.845 69.0419 209.581 67.9939 207.794C67.5019 206.957 66.9498 206.401 66.4028 206.072C71.5008 206.338 78.3138 203.272 82.9398 199.588C85.3628 197.811 86.7699 195.984 87.4529 194.148C87.7309 193.398 88.3688 192.835 89.1678 192.697C91.2918 192.336 93.3108 191.253 94.8608 189.33C96.9638 186.718 97.4998 182.931 96.2278 179.736C93.8868 173.752 86.8828 172.05 81.8528 175.739C80.5998 176.657 79.6259 177.806 78.9529 179.071C78.5549 179.815 77.7928 180.299 76.9418 180.372C74.8808 180.547 72.5648 181.452 69.9828 183.352C65.0378 187.293 60.9829 194.382 60.4839 199.398C60.2289 198.816 59.7438 198.196 58.9698 197.616C57.3088 196.364 55.0339 195.772 54.3649 196.631C53.6959 197.493 54.9129 199.464 56.5919 200.696C56.7359 200.778 56.8339 200.834 56.9609 200.911L56.2929 201.406C53.4949 203.877 52.9879 207.731 55.1719 210.016C57.3489 212.297 61.2969 212.228 63.9929 209.859Z" fill="#1F824A"/>
<path d="M502.053 196.131L502.758 196.56C502.634 196.654 502.536 196.726 502.398 196.825C500.864 198.222 499.85 200.309 500.57 201.092C501.284 201.872 503.459 201.057 504.994 199.659C505.71 199.007 506.138 198.345 506.34 197.741C507.225 202.76 511.819 209.132 516.842 212.751C519.38 214.592 521.639 215.436 523.659 215.569C524.48 215.62 525.241 216.076 525.629 216.805C526.659 218.77 528.432 220.384 530.83 221.292C534.089 222.526 537.861 221.836 540.398 219.544C545.12 215.268 544.418 208.046 539.533 204.62C538.302 203.77 536.946 203.224 535.561 202.978C534.747 202.839 534.072 202.271 533.766 201.499C533.017 199.627 531.534 197.754 529.022 195.935C524.076 192.369 516.654 189.937 511.62 190.554C512.134 190.182 512.636 189.579 513.046 188.698C513.922 186.819 514.06 184.496 513.1 184.043C512.145 183.592 510.457 185.179 509.578 187.063C509.528 187.217 509.489 187.324 509.441 187.467L508.826 186.925C505.874 184.75 501.959 185.043 500.088 187.582C498.211 190.121 499.094 193.948 502.053 196.131Z" fill="#1F824A"/>
<path d="M454.13 161.347L454.843 161.755C454.718 161.849 454.622 161.925 454.486 162.028C452.987 163.467 452.026 165.572 452.753 166.329C453.478 167.082 455.625 166.203 457.131 164.776C457.837 164.103 458.249 163.436 458.44 162.83C459.458 167.748 464.019 174.092 468.97 177.661C471.481 179.476 473.721 180.302 475.733 180.428C476.553 180.474 477.304 180.928 477.684 181.66C478.699 183.61 480.403 185.26 482.755 186.205C485.946 187.488 489.717 186.87 492.312 184.646C497.151 180.493 496.603 173.244 491.726 169.653C490.505 168.757 489.144 168.189 487.756 167.934C486.938 167.782 486.262 167.21 485.947 166.441C485.191 164.561 483.685 162.676 481.143 160.837C476.12 157.218 468.662 154.763 463.575 155.539C464.086 155.158 464.576 154.544 464.965 153.655C465.802 151.759 465.872 149.433 464.892 148.995C463.91 148.562 462.258 150.191 461.432 152.093C461.384 152.25 461.348 152.356 461.306 152.503L460.671 151.971C457.637 149.859 453.729 150.255 451.942 152.854C450.157 155.458 451.137 159.26 454.13 161.347Z" fill="#1F824A"/>
<path d="M404.593 129.693L405.336 130.025C405.224 130.13 405.135 130.214 405.012 130.331C403.654 131.905 402.899 134.092 403.68 134.761C404.465 135.425 406.52 134.335 407.889 132.767C408.529 132.032 408.884 131.335 409.019 130.717C410.462 135.527 415.388 141.509 420.537 144.619C423.144 146.214 425.428 146.836 427.404 146.887C428.217 146.893 428.979 147.305 429.394 148.012C430.495 149.898 432.254 151.445 434.631 152.25C437.853 153.347 441.584 152.536 444.089 150.2C448.769 145.846 447.868 138.646 442.743 135.262C441.461 134.417 440.061 133.913 438.65 133.723C437.82 133.612 437.11 133.07 436.757 132.302C435.914 130.42 434.235 128.658 431.523 126.999C426.152 123.75 418.48 121.775 413.482 122.997C413.956 122.569 414.391 121.915 414.698 120.993C415.359 119.034 415.192 116.712 414.157 116.376C413.124 116.03 411.628 117.813 410.989 119.783C410.955 119.941 410.931 120.053 410.899 120.201L410.212 119.738C406.946 117.933 403.082 118.717 401.582 121.494C400.081 124.27 401.429 127.944 404.593 129.693Z" fill="#1F824A"/>
<path d="M351.745 105.089L352.535 105.273C352.44 105.402 352.369 105.5 352.266 105.635C351.196 107.424 350.815 109.699 351.696 110.205C352.57 110.723 354.409 109.258 355.495 107.508C356 106.689 356.234 105.937 356.272 105.296C358.419 109.972 364.149 114.97 369.625 117.228C372.434 118.314 374.683 118.804 376.642 118.54C377.436 118.437 378.239 118.747 378.735 119.386C380.054 121.107 381.964 122.395 384.402 122.876C387.706 123.528 391.311 122.244 393.541 119.627C397.724 114.758 395.947 107.757 390.339 105.023C388.944 104.345 387.472 104.016 386.033 104.005C385.192 103.999 384.409 103.549 383.948 102.833C382.823 101.106 380.996 99.3928 377.984 98.2188C372.106 95.7808 364.072 95.0868 359.403 96.9458C359.794 96.4518 360.115 95.7358 360.272 94.7728C360.604 92.7028 360.027 90.4788 358.936 90.3218C357.836 90.1678 356.661 92.1788 356.37 94.2278C356.366 94.3908 356.361 94.5018 356.353 94.6518L355.587 94.3218C352.021 93.1278 348.338 94.5978 347.362 97.5988C346.382 100.602 348.345 103.954 351.745 105.089Z" fill="#1F824A"/>
<path d="M295.408 91.7391L296.215 91.7271C296.153 91.8701 296.106 91.9841 296.037 92.1381C295.406 94.1501 295.561 96.3991 296.518 96.7291C297.471 97.0941 298.914 95.3571 299.572 93.4041C299.878 92.4921 299.939 91.7061 299.827 91.0761C302.969 95.1361 309.596 98.6781 315.388 99.6111C318.311 100.215 320.582 100.216 322.432 99.5401C323.182 99.2741 324.023 99.4051 324.632 99.9301C326.258 101.335 328.364 102.192 330.828 102.154C334.175 102.083 337.461 100.097 339.126 97.2191C342.332 91.6481 339.298 84.9401 333.137 83.5071C331.612 83.1261 330.088 83.1031 328.666 83.3891C327.832 83.5511 326.967 83.2741 326.361 82.6671C324.889 81.2161 322.708 79.9141 319.531 79.2571C313.194 78.2111 305.121 79.3561 300.988 82.2301C301.262 81.6611 301.41 80.8921 301.344 79.9191C301.2 77.8331 300.136 75.6881 299.038 75.7191C297.936 75.7801 297.24 78.0541 297.429 80.0981C297.461 80.2551 297.485 80.3671 297.514 80.5111L296.688 80.3801C292.926 80.0981 289.669 82.4201 289.415 85.5691C289.164 88.7131 291.848 91.4781 295.408 91.7391Z" fill="#1F824A"/>
<path d="M237.56 92.3581L238.354 92.2021C238.323 92.3551 238.301 92.4761 238.274 92.6411C238.125 94.7001 238.812 96.9241 239.824 97.0241C240.835 97.1191 241.832 95.0561 242.012 92.9881C242.092 92.0241 241.967 91.2501 241.712 90.6671C245.721 93.9401 252.988 95.0191 258.865 95.2291C261.847 95.1851 264.044 94.5071 265.681 93.4041C266.348 92.9521 267.198 92.8611 267.909 93.2121C269.82 94.1511 272.064 94.4321 274.448 93.7551C277.675 92.9171 280.378 90.5411 281.32 87.2201C283.122 81.2761 278.584 74.9161 272.251 75.1471C270.684 75.1701 269.197 75.5421 267.88 76.1821C267.11 76.5601 266.204 76.5101 265.47 76.0801C263.691 75.0251 261.264 74.4221 258.013 74.4751C251.574 74.2841 244.101 78.1001 240.756 81.7931C240.886 81.1721 240.853 80.3901 240.557 79.4621C239.925 77.4831 238.401 75.6851 237.346 75.9991C236.291 76.3181 236.139 78.6261 236.805 80.6041C236.873 80.7501 236.924 80.8591 236.983 80.9941L236.15 81.0141C232.404 81.4091 229.758 84.2642 230.24 87.3852C230.726 90.5052 234.003 92.7301 237.56 92.3581Z" fill="#1F824A"/>
<path d="M180.87 105.211L181.612 104.87C181.613 105.032 181.615 105.151 181.618 105.322C181.874 107.398 182.972 109.4 183.995 109.296C185.021 109.219 185.613 107.028 185.39 104.981C185.28 104.021 185.003 103.282 184.638 102.761C189.205 105.108 196.812 105.486 202.522 103.87C205.429 103.08 207.403 101.733 208.79 100.384C209.35 99.831 210.171 99.591 210.957 99.81C213.051 100.389 215.339 100.27 217.551 99.195C220.55 97.734 222.615 94.546 222.787 91.121C223.14 84.72 217.437 80.211 211.27 81.414C209.737 81.713 208.359 82.338 207.212 83.196C206.541 83.696 205.641 83.812 204.828 83.52C202.85 82.787 200.429 82.922 197.324 83.756C191.21 85.473 184.482 89.898 181.953 94.25C181.961 93.618 181.772 92.858 181.303 92.005C180.29 90.173 178.44 88.672 177.47 89.162C176.511 89.672 176.83 92.006 177.85 93.798C177.946 93.926 178.012 94.021 178.101 94.143L177.299 94.348C173.776 95.589 171.77 99.007 172.812 101.99C173.852 104.968 177.464 106.412 180.87 105.211Z" fill="#1F824A"/>
<path d="M126.829 127.469L127.512 127.026C127.539 127.181 127.556 127.3 127.588 127.472C128.143 129.478 129.527 131.323 130.516 131.038C131.501 130.758 131.772 128.516 131.241 126.507C130.991 125.575 130.61 124.886 130.167 124.426C135.026 126.038 142.592 125.143 148.025 122.679C150.833 121.537 152.669 120.093 153.805 118.466C154.266 117.803 155.031 117.408 155.836 117.469C157.995 117.637 160.229 117.067 162.225 115.57C164.907 113.477 166.482 110.168 166.042 106.753C165.289 100.482 158.791 96.7162 153.07 99.1602C151.637 99.7452 150.414 100.62 149.443 101.682C148.872 102.311 148.021 102.593 147.184 102.456C145.159 102.114 142.707 102.415 139.748 103.626C133.995 106.233 128.089 111.706 126.255 116.405C126.168 115.777 125.867 115.055 125.274 114.282C124.011 112.635 121.96 111.404 121.098 112.081C120.242 112.761 120.885 114.999 122.162 116.627C122.277 116.741 122.358 116.822 122.462 116.929L121.7 117.252C118.387 118.988 116.901 122.662 118.377 125.454C119.852 128.245 123.636 129.146 126.829 127.469Z" fill="#1F824A"/>
<path d="M76.9231 157.739L77.5381 157.207C77.5881 157.36 77.626 157.472 77.679 157.633C78.541 159.519 80.209 161.131 81.141 160.706C82.081 160.287 81.953 157.972 81.11 156.071C80.713 155.187 80.2281 154.568 79.7241 154.189C84.6311 154.807 92.1191 152.996 97.0881 149.711C99.5991 148.022 101.183 146.31 102.077 144.573C102.435 143.851 103.135 143.351 103.944 143.296C106.103 143.149 108.235 142.266 109.989 140.502C112.361 138.106 113.286 134.375 112.38 131.142C110.651 124.97 103.78 122.451 98.434 125.657C97.099 126.441 96.0121 127.486 95.2081 128.675C94.7351 129.379 93.929 129.777 93.08 129.763C91.001 129.7 88.6241 130.384 85.9611 132.171C80.6781 135.654 75.5281 141.742 74.5991 146.882C74.4081 146.275 73.9991 145.605 73.2951 144.941C71.7921 143.514 69.6041 142.686 68.8571 143.477C68.1001 144.266 69.0861 146.372 70.6111 147.779C70.7411 147.879 70.8331 147.947 70.9551 148.035L70.2421 148.462C67.2061 150.646 66.2831 154.462 68.1841 156.983C70.0851 159.505 73.9961 159.842 76.9231 157.739Z" fill="#1F824A"/>
<path d="M32.5088 195.57L33.0228 194.944C33.0968 195.079 33.1528 195.187 33.2358 195.338C34.3948 197.065 36.2938 198.379 37.1438 197.806C37.9938 197.233 37.4888 194.964 36.3458 193.223C35.8118 192.409 35.2298 191.881 34.6748 191.588C39.7858 191.578 46.6598 188.346 51.0958 184.375C53.3878 182.399 54.6618 180.449 55.2238 178.539C55.4548 177.764 56.0529 177.147 56.8349 176.952C58.9229 176.435 60.8208 175.153 62.3308 173.21C64.3418 170.529 64.7018 166.761 63.2538 163.661C60.5748 157.859 53.4008 156.499 48.5088 160.362C47.3328 161.376 46.4438 162.605 45.8598 163.924C45.5148 164.705 44.7929 165.244 43.9599 165.378C41.9339 165.7 39.7098 166.769 37.2808 168.862C32.5638 173.089 28.6818 180.168 28.4298 185.212C28.1458 184.642 27.6298 184.047 26.8298 183.507C25.1148 182.348 22.8318 181.888 22.2248 182.799C21.6178 183.705 22.9288 185.624 24.6618 186.764C24.8078 186.84 24.9089 186.891 25.0439 186.96L24.4088 187.503C21.7888 190.169 21.5138 194.097 23.7998 196.28C26.0808 198.459 29.9838 198.141 32.5088 195.57Z" fill="#1F824A"/>
<path d="M-5.17305 240.122L-4.75606 239.425C-4.66106 239.549 -4.58906 239.647 -4.48606 239.783C-3.06806 241.294 -0.974055 242.287 -0.212055 241.593C0.544945 240.9 -0.304055 238.757 -1.71006 237.224C-2.36606 236.512 -3.02306 236.083 -3.62706 235.881C1.27794 234.94 7.68894 230.748 11.3579 226.061C13.2669 223.712 14.2479 221.61 14.4889 219.634C14.5929 218.83 15.0839 218.125 15.8249 217.809C17.8189 216.976 19.4719 215.386 20.6439 213.219C22.1849 210.244 21.9269 206.465 19.9939 203.643C16.4109 198.358 9.09395 198.167 4.93295 202.805C3.93195 203.991 3.25194 205.343 2.88194 206.742C2.66794 207.56 2.04093 208.21 1.23693 208.473C-0.706065 209.124 -2.76405 210.51 -4.78905 212.999C-8.69405 217.981 -11.5261 225.478 -10.8191 230.603C-11.1911 230.089 -11.7941 229.586 -12.6741 229.18C-14.5601 228.31 -16.9011 228.216 -17.3671 229.199C-17.8351 230.188 -16.2341 231.863 -14.3361 232.71C-14.1771 232.763 -14.0671 232.797 -13.9241 232.845L-14.4721 233.472C-16.7121 236.468 -16.2121 240.486 -13.6311 242.246C-10.9961 244.047 -7.33605 243.009 -5.17305 240.122Z" fill="#1F824A"/>
<path d="M558.7 198.879L559.417 199.285C559.292 199.38 559.2 199.455 559.065 199.562C557.578 201.007 556.631 203.127 557.377 203.883C558.123 204.644 560.268 203.757 561.747 202.304C562.436 201.621 562.837 200.948 563.021 200.335C564.025 205.367 568.97 211.477 574.206 214.818C576.849 216.517 579.153 217.238 581.166 217.254C581.988 217.257 582.76 217.672 583.203 218.375C584.408 220.211 586.301 221.694 588.767 222.415C592.121 223.396 595.813 222.401 598.134 219.9C602.438 215.229 601.211 208.102 596.199 205.147C594.933 204.403 593.559 204.001 592.169 203.9C591.36 203.826 590.673 203.296 590.327 202.554C589.499 200.735 587.953 198.971 585.403 197.33C580.375 194.128 572.959 192.195 568.03 192.958C568.524 192.567 569.001 191.943 569.384 191.051C570.193 189.139 570.271 186.825 569.32 186.417C568.369 186.013 566.742 187.658 565.921 189.563C565.872 189.716 565.838 189.826 565.79 189.97L565.17 189.458C562.199 187.412 558.323 187.852 556.512 190.434C554.697 193.018 555.675 196.797 558.7 198.879Z" fill="#1F824A"/>
<path d="M510.93 164.265L511.625 164.692C511.5 164.787 511.401 164.854 511.265 164.957C509.723 166.347 508.696 168.424 509.402 169.206C510.106 169.984 512.277 169.17 513.813 167.777C514.534 167.123 514.964 166.47 515.171 165.869C515.991 170.86 520.524 177.203 525.432 180.837C527.928 182.68 530.155 183.53 532.157 183.668C532.978 183.719 533.732 184.167 534.118 184.888C535.144 186.825 536.87 188.454 539.23 189.378C542.44 190.626 546.19 189.957 548.739 187.69C553.481 183.451 552.894 176.233 548.086 172.774C546.883 171.906 545.536 171.372 544.159 171.138C543.346 171.003 542.68 170.448 542.38 169.683C541.661 167.811 540.205 165.935 537.733 164.109C532.866 160.501 525.511 158.101 520.494 158.713C521.008 158.341 521.512 157.742 521.927 156.864C522.819 154.99 522.973 152.672 522.028 152.224C521.078 151.772 519.384 153.355 518.497 155.228C518.443 155.382 518.403 155.49 518.355 155.633L517.746 155.094C514.832 152.917 510.94 153.208 509.057 155.741C507.174 158.273 508.011 162.09 510.93 164.265Z" fill="#1F824A"/>
<path d="M463.571 129.751L464.281 130.15C464.152 130.246 464.06 130.321 463.924 130.424C462.431 131.866 461.47 133.971 462.188 134.716C462.91 135.456 465.048 134.565 466.552 133.129C467.252 132.453 467.668 131.785 467.861 131.183C468.807 136.166 473.334 142.41 478.231 145.924C480.721 147.701 482.938 148.53 484.925 148.668C485.738 148.722 486.478 149.174 486.851 149.898C487.844 151.836 489.523 153.469 491.852 154.402C495.014 155.665 498.763 155.039 501.364 152.818C506.211 148.677 505.715 141.456 500.883 137.889C499.672 136.995 498.322 136.433 496.936 136.183C496.123 136.034 495.457 135.464 495.155 134.69C494.432 132.806 492.956 130.926 490.417 129.115C485.429 125.533 477.985 123.155 472.99 123.89C473.5 123.504 473.99 122.89 474.38 122.005C475.217 120.109 475.285 117.793 474.31 117.368C473.335 116.948 471.685 118.58 470.858 120.478C470.809 120.636 470.775 120.746 470.727 120.889L470.1 120.37C467.077 118.292 463.184 118.722 461.409 121.327C459.63 123.938 460.596 127.707 463.571 129.751Z" fill="#1F824A"/>
<path d="M414.443 98.55L415.186 98.863C415.075 98.972 414.986 99.056 414.863 99.174C413.512 100.77 412.775 102.922 413.532 103.622C414.295 104.311 416.32 103.245 417.671 101.683C418.307 100.949 418.656 100.248 418.79 99.626C420.18 104.514 425.149 110.274 430.268 113.301C432.827 114.925 435.054 115.612 437.036 115.604C437.841 115.598 438.603 115.996 439.016 116.693C440.114 118.552 441.866 120.063 444.233 120.833C447.445 121.865 451.158 121.022 453.627 118.711C458.285 114.335 457.443 107.107 452.297 103.844C451.016 103.019 449.617 102.534 448.212 102.365C447.381 102.265 446.673 101.731 446.32 100.977C445.448 99.142 443.843 97.32 441.19 95.638C435.837 92.466 428.111 90.711 423.217 91.879C423.681 91.454 424.11 90.796 424.422 89.873C425.078 87.897 424.937 85.553 423.934 85.193C422.931 84.824 421.423 86.643 420.796 88.605C420.762 88.763 420.742 88.874 420.71 89.022L420.023 88.573C416.759 86.84 412.905 87.688 411.417 90.474C409.928 93.257 411.282 96.872 414.443 98.55Z" fill="#1F824A"/>
<path d="M361.994 74.3011L362.762 74.5251C362.67 74.6481 362.598 74.7411 362.495 74.8771C361.429 76.6461 361.033 78.9351 361.891 79.4911C362.742 80.0441 364.557 78.6581 365.644 76.8981C366.152 76.0731 366.388 75.3251 366.427 74.6891C368.528 79.3701 374.362 83.9021 379.692 86.4371C382.409 87.6941 384.687 88.0411 386.639 87.7561C387.434 87.6381 388.236 87.9291 388.732 88.5541C390.053 90.2321 391.963 91.4711 394.398 91.8961C397.689 92.5041 401.183 91.3871 403.393 88.7531C407.464 83.9891 405.941 76.5921 400.292 74.0751C398.894 73.4321 397.427 73.1341 395.992 73.1521C395.151 73.1641 394.368 72.7331 393.906 72.0311C392.788 70.3261 390.91 68.7481 388.027 67.4121C382.356 64.7251 374.196 64.4891 369.573 66.3441C369.97 65.8491 370.29 65.1331 370.447 64.1701C370.78 62.1181 370.253 59.8221 369.194 59.6271C368.125 59.4351 366.953 61.4221 366.643 63.4851C366.635 63.6501 366.63 63.7661 366.622 63.9161L365.88 63.5501C362.453 62.1181 358.701 63.8091 357.721 66.7641C356.708 69.8011 358.706 72.9181 361.994 74.3011Z" fill="#1F824A"/>
<path d="M640.744 210.865L641.529 211.113C641.426 211.234 641.348 211.324 641.234 211.453C640.04 213.16 639.507 215.404 640.405 216.001C641.306 216.591 643.261 215.293 644.427 213.571C644.974 212.768 645.231 212.028 645.292 211.399C647.343 215.899 653.298 221.46 659.38 223.175C662.408 224.162 664.856 224.278 666.822 223.783C667.619 223.578 668.484 223.774 669.091 224.357C670.726 225.855 672.886 227.053 675.522 226.921C679.068 226.862 682.346 224.817 683.833 221.739C686.563 215.981 683.433 209.64 678.027 208.34C676.68 207.901 675.313 207.827 674 208.046C673.223 208.177 672.452 207.863 671.954 207.234C670.746 205.708 668.901 204.43 666.135 203.536C660.631 202.017 653.446 201.195 648.761 203.178C649.166 202.695 649.514 201.99 649.713 201.042C650.144 199.014 649.814 196.77 648.834 196.589C647.855 196.408 646.565 198.339 646.106 200.351C646.088 200.514 646.074 200.628 646.06 200.771L645.365 200.41C642.099 199.164 638.527 200.033 637.154 202.933C635.824 205.735 637.302 209.542 640.744 210.865Z" fill="#1F824A"/>
<path d="M589.319 182.288L590.042 182.665C589.923 182.762 589.832 182.842 589.697 182.949C588.241 184.433 587.345 186.566 588.112 187.297C588.878 188.028 591.002 187.07 592.444 185.571C593.118 184.874 593.501 184.187 593.666 183.575C594.888 188.394 599.714 194.682 605.155 197.652C607.875 199.209 610.218 199.804 612.227 199.711C613.045 199.673 613.841 200.037 614.308 200.723C615.565 202.525 617.425 204.047 619.926 204.609C623.348 205.355 626.984 204.109 629.149 201.465C633.174 196.485 631.541 189.66 626.536 186.985C625.289 186.273 623.944 185.906 622.591 185.846C621.792 185.807 621.09 185.339 620.727 184.617C619.84 182.872 618.261 181.223 615.692 179.76C610.587 176.986 603.441 174.968 598.491 176.076C598.974 175.665 599.439 175.03 599.796 174.131C600.563 172.208 600.601 169.92 599.655 169.563C598.708 169.201 597.118 170.892 596.334 172.805C596.289 172.962 596.256 173.072 596.216 173.212L595.591 172.731C592.582 170.878 588.843 171.248 587.058 173.899C585.313 176.481 586.22 180.372 589.319 182.288Z" fill="#1F824A"/>
<path d="M541.947 148.211L542.633 148.641C542.503 148.733 542.408 148.799 542.268 148.903C540.718 150.281 539.667 152.341 540.358 153.123C541.048 153.901 543.222 153.1 544.768 151.723C545.49 151.074 545.926 150.423 546.143 149.824C546.931 154.772 551.231 161.199 556.18 164.745C558.668 166.561 560.895 167.392 562.89 167.508C563.701 167.558 564.44 168.005 564.818 168.728C565.834 170.649 567.499 172.315 569.867 173.185C573.095 174.365 576.833 173.624 579.345 171.314C584.029 166.974 583.373 159.891 578.645 156.542C577.463 155.682 576.146 155.153 574.791 154.927C573.994 154.797 573.337 154.243 573.049 153.485C572.35 151.636 570.925 149.798 568.494 148.027C563.686 144.587 556.515 142.066 551.523 142.713C552.042 142.344 552.547 141.75 552.974 140.878C553.889 139.016 554.082 136.72 553.158 136.275C552.232 135.825 550.524 137.394 549.61 139.255C549.554 139.406 549.51 139.514 549.461 139.653L548.872 139.117C546.019 136.97 542.164 137.222 540.244 139.727C538.324 142.232 539.068 146.043 541.947 148.211Z" fill="#1F824A"/>
<path d="M495.949 113.001L496.629 113.423C496.504 113.518 496.411 113.589 496.269 113.688C494.732 115.077 493.692 117.143 494.372 117.919C495.053 118.685 497.21 117.87 498.752 116.484C499.47 115.836 499.905 115.182 500.124 114.587C500.884 119.539 505.177 125.814 509.916 129.489C512.319 131.341 514.499 132.204 516.478 132.364C517.28 132.43 518.003 132.888 518.353 133.614C519.285 135.556 520.913 137.209 523.209 138.176C526.324 139.49 530.057 138.922 532.684 136.741C537.576 132.668 537.279 125.478 532.618 121.889C531.452 120.986 530.125 120.408 528.762 120.141C527.958 119.985 527.313 119.408 527.036 118.637C526.373 116.763 524.969 114.871 522.55 113.01C517.803 109.328 510.484 106.841 505.49 107.466C506.005 107.097 506.513 106.497 506.941 105.626C507.845 103.762 508.02 101.452 507.084 101.001C506.143 100.547 504.446 102.121 503.545 103.994C503.489 104.144 503.45 104.251 503.402 104.394L502.807 103.855C499.927 101.683 496.072 101.982 494.193 104.513C492.311 107.05 493.099 110.848 495.949 113.001Z" fill="#1F824A"/>
<path d="M448.857 79.9678L449.567 80.3338C449.445 80.4368 449.353 80.5118 449.225 80.6268C447.798 82.1258 446.909 84.2668 447.639 84.9698C448.364 85.6748 450.446 84.6918 451.89 83.1968C452.564 82.4998 452.957 81.8148 453.125 81.2118C454.284 85.9818 458.801 92.0958 463.666 95.4378C466.137 97.1348 468.338 97.8638 470.319 97.9168C471.118 97.9418 471.872 98.3418 472.235 99.0648C473.22 100.976 474.873 102.569 477.169 103.455C480.283 104.655 483.986 103.972 486.559 101.721C491.366 97.5388 490.855 90.3508 486.027 86.8408C484.815 85.9608 483.475 85.4158 482.099 85.1858C481.298 85.0428 480.602 84.5158 480.289 83.7548C479.522 81.9168 477.995 80.0898 475.445 78.3348C470.421 74.8878 463.009 72.6678 457.988 73.7298C458.478 73.3258 458.944 72.6958 459.306 71.7958C460.077 69.8708 460.07 67.5588 459.087 67.1738C458.099 66.7858 456.521 68.4868 455.765 70.4158C455.721 70.5728 455.692 70.6818 455.65 70.8278L455.012 70.3358C451.945 68.3858 448.115 68.9778 446.454 71.6638C444.798 74.3478 445.872 78.0658 448.857 79.9678Z" fill="#1F824A"/>
<path d="M398.896 52.2448C399.143 52.3518 399.395 52.4148 399.649 52.4968C399.545 52.6138 399.467 52.7038 399.352 52.8288C398.138 54.5178 397.548 56.7498 398.36 57.3288C399.17 57.9188 401.113 56.6088 402.332 54.9718C402.907 54.1938 403.205 53.4658 403.299 52.8368C404.972 57.6208 410.175 63.0098 415.364 65.6638C418.019 66.9718 420.252 67.4708 422.176 67.3798C422.963 67.3318 423.73 67.6808 424.164 68.3528C425.328 70.1448 427.114 71.5448 429.466 72.1708C432.664 73.0268 436.282 71.9628 438.653 69.4808C443.084 64.8718 441.87 57.8028 436.625 54.7698C435.323 54.0168 433.913 53.6068 432.516 53.5128C431.689 53.4588 430.965 52.9678 430.574 52.2298C429.64 50.4088 427.925 48.7198 425.116 47.3278C419.621 44.5118 411.873 43.2748 407.139 44.7858C407.569 44.3238 407.946 43.6388 408.19 42.6978C408.717 40.6548 408.368 38.4108 407.326 38.1638C406.282 37.9258 404.94 39.8238 404.456 41.8348C404.432 41.9948 404.418 42.1078 404.401 42.2568L403.688 41.8678C400.339 40.3938 396.605 41.5488 395.344 44.4398C394.089 47.3338 395.675 50.8318 398.896 52.2448Z" fill="#1F824A"/>
<path d="M690.526 193.039L691.342 193.168C691.264 193.306 691.205 193.41 691.119 193.554C690.273 195.439 690.184 197.766 691.185 198.226C692.175 198.714 693.881 196.965 694.684 195.065C695.06 194.165 695.167 193.389 695.099 192.76C698.006 196.771 705.173 200.797 711.545 201.227C714.749 201.556 717.183 201.16 718.989 200.259C719.729 199.843 720.624 199.791 721.358 200.173C723.32 201.202 725.749 201.59 728.281 201.026C731.732 200.313 734.403 197.546 735.077 194.124C736.284 187.898 731.698 182.593 726.214 182.309C724.818 182.266 723.49 182.581 722.277 183.167C721.564 183.513 720.744 183.433 720.123 182.969C718.614 181.729 716.563 180.865 713.723 180.571C708.112 180.215 701.061 181.137 696.872 184.018C697.174 183.46 697.372 182.7 697.385 181.736C697.411 179.648 696.652 177.612 695.694 177.549C694.729 177.512 693.842 179.642 693.77 181.721C693.78 181.885 693.787 182.002 693.798 182.151L693.063 181.893C689.716 181.053 686.334 182.844 685.506 185.892C684.677 188.936 686.925 192.141 690.526 193.039Z" fill="#1F824A"/>
<path d="M635.261 171.82L636.022 172.132C635.912 172.241 635.824 172.33 635.701 172.447C634.388 174.06 633.696 176.266 634.538 176.932C635.38 177.597 637.416 176.456 638.7 174.828C639.304 174.07 639.618 173.347 639.722 172.719C641.29 177.611 647.142 182.955 652.858 185.523C655.751 186.827 658.253 186.994 660.244 186.648C661.063 186.5 661.91 186.748 662.479 187.362C664.016 188.951 666.095 190.26 668.718 190.37C672.257 190.609 675.658 188.832 677.353 185.878C680.468 180.34 677.816 173.747 672.574 171.987C671.262 171.472 669.903 171.313 668.572 171.457C667.791 171.542 667.04 171.183 666.588 170.531C665.504 168.911 663.72 167.644 661.069 166.448C655.86 164.096 648.497 163.413 643.786 164.779C644.224 164.328 644.618 163.648 644.893 162.716C645.469 160.726 645.31 158.449 644.348 158.182C643.392 157.918 641.968 159.751 641.364 161.725C641.331 161.888 641.312 161.999 641.284 162.145L640.625 161.726C637.491 160.173 633.815 160.882 632.253 163.662C630.723 166.385 631.974 170.184 635.261 171.82Z" fill="#1F824A"/>
<path d="M585.804 140.386L586.497 140.805C586.372 140.899 586.279 140.97 586.142 141.073C584.633 142.491 583.635 144.583 584.346 145.354C585.07 146.117 587.234 145.248 588.736 143.822C589.442 143.149 589.855 142.486 590.052 141.883C591.003 146.788 595.595 153.103 600.753 156.439C603.34 158.159 605.611 158.895 607.609 158.925C608.412 158.948 609.2 159.334 609.632 160.031C610.78 161.884 612.615 163.399 615.031 164.159C618.316 165.194 621.978 164.246 624.341 161.723C628.669 157.088 627.558 150.045 622.736 146.991C621.512 146.229 620.175 145.807 618.809 145.689C618.006 145.618 617.321 145.13 617.005 144.375C616.227 142.564 614.743 140.801 612.263 139.154C607.356 135.987 600.178 133.783 595.211 134.609C595.715 134.221 596.205 133.607 596.606 132.728C597.459 130.837 597.591 128.56 596.663 128.149C595.735 127.724 594.074 129.336 593.209 131.221C593.155 131.375 593.121 131.486 593.073 131.629L592.474 131.106C589.603 129.012 585.763 129.378 583.898 131.924C582.033 134.47 582.885 138.259 585.804 140.386Z" fill="#1F824A"/>
<path d="M408.354 213.401L409.076 213.759C408.956 213.867 408.869 213.945 408.74 214.055C407.34 215.584 406.5 217.743 407.248 218.446C408.001 219.148 410.069 218.131 411.48 216.608C412.136 215.897 412.511 215.203 412.668 214.593C413.916 219.418 418.738 225.307 423.744 228.598C426.289 230.24 428.534 230.922 430.518 230.922C431.328 230.919 432.087 231.318 432.494 232.013C433.586 233.854 435.322 235.404 437.678 236.205C440.87 237.296 444.558 236.465 447.028 234.111C451.638 229.716 450.807 222.542 445.842 219.244C444.606 218.41 443.228 217.933 441.83 217.772C441.009 217.673 440.31 217.151 439.968 216.404C439.139 214.584 437.563 212.801 434.965 211.127C429.882 207.788 422.322 205.898 417.357 207.006C417.839 206.59 418.292 205.949 418.632 205.041C419.355 203.098 419.303 200.78 418.316 200.41C417.328 200.041 415.786 201.766 415.066 203.718C415.027 203.877 414.998 203.986 414.964 204.13L414.31 203.647C411.215 201.744 407.391 202.392 405.772 205.103C404.15 207.81 405.31 211.526 408.354 213.401Z" fill="#1F824A"/>
<path d="M357.787 185.835L358.536 186.108C358.431 186.221 358.353 186.311 358.238 186.436C357.021 188.115 356.429 190.354 357.238 190.957C358.048 191.561 359.978 190.308 361.218 188.64C361.795 187.857 362.095 187.133 362.186 186.51C363.972 191.065 369.187 196.574 374.396 199.327C377.043 200.719 379.313 201.183 381.286 201.001C382.093 200.923 382.878 201.252 383.316 201.938C384.505 203.736 386.314 205.149 388.688 205.782C391.912 206.645 395.527 205.572 397.864 203.072C402.229 198.416 400.937 191.312 395.698 188.297C394.387 187.547 392.984 187.144 391.582 187.051C390.767 186.989 390.021 186.519 389.61 185.811C388.618 184.069 386.863 182.42 384.092 180.965C378.634 178.081 370.919 176.744 366.036 178.461C366.47 177.998 366.852 177.311 367.092 176.371C367.601 174.367 367.277 172.063 366.237 171.805C365.201 171.546 363.856 173.436 363.365 175.453C363.345 175.612 363.327 175.727 363.309 175.875L362.601 175.466C359.273 173.919 355.546 175.001 354.276 177.895C353.005 180.784 354.579 184.338 357.787 185.835Z" fill="#1F824A"/>
<path d="M304.088 166.756C304.35 166.817 304.609 166.839 304.872 166.871C304.792 167.005 304.732 167.108 304.647 167.253C303.798 169.143 303.666 171.454 304.562 171.884C305.456 172.305 307.083 170.689 307.967 168.807C308.377 167.926 308.53 167.16 308.5 166.53C311.154 170.569 317.15 175.005 322.639 176.839C325.435 177.738 327.717 177.793 329.624 177.278C330.404 177.045 331.212 177.277 331.742 177.887C333.162 179.497 335.117 180.618 337.527 180.893C340.792 181.27 344.207 179.685 346.189 176.889C349.915 171.689 347.631 164.843 341.907 162.569C340.487 161.999 339.018 161.792 337.611 161.902C336.789 161.96 335.984 161.58 335.446 160.962C334.164 159.411 332.125 158.076 329.091 157.1C323.135 155.105 315.183 155.165 310.693 157.882C311.033 157.342 311.272 156.593 311.318 155.624C311.423 153.56 310.629 151.362 309.541 151.31C308.453 151.262 307.515 153.379 307.448 155.46C307.457 155.62 307.468 155.736 307.479 155.885L306.696 155.627C303.085 154.761 299.661 156.573 299.043 159.669C298.425 162.764 300.682 165.938 304.088 166.756Z" fill="#1F824A"/>
<path d="M247.908 161.504C248.176 161.491 248.428 161.44 248.688 161.4C248.652 161.55 248.62 161.669 248.579 161.834C248.292 163.881 248.809 166.142 249.778 166.306C250.743 166.472 251.852 164.476 252.183 162.42C252.337 161.463 252.271 160.681 252.064 160.084C253.887 161.765 256.541 163.117 259.425 164.057C262.315 165.271 265.442 166.063 268.293 166.22C271.185 166.384 273.377 165.865 275.077 164.876C275.772 164.473 276.603 164.445 277.26 164.841C279.005 166.039 281.13 166.718 283.5 166.427C286.705 166.04 289.643 163.719 290.939 160.545C293.413 154.634 289.599 148.479 283.403 147.552C281.869 147.332 280.381 147.431 279.024 147.903C278.227 148.221 277.334 148.105 276.657 147.625C275.008 146.446 272.666 145.664 269.451 145.486C266.282 145.304 262.745 145.714 259.576 146.587C256.398 147.735 253.591 149.344 251.797 151.167C251.971 150.552 251.999 149.766 251.776 148.825C251.309 146.808 249.929 144.914 248.858 145.161C247.786 145.409 247.474 147.707 247.989 149.72C248.049 149.874 248.086 149.982 248.142 150.123L247.311 150.089C243.584 150.241 240.8 152.922 241.089 156.067C241.376 159.208 244.431 161.648 247.908 161.504Z" fill="#1F824A"/>
<path d="M192.415 172.376L193.146 172.058C193.15 172.214 193.153 172.337 193.155 172.504C193.416 174.564 194.506 176.606 195.507 176.49C196.508 176.377 197.063 174.141 196.834 172.076C196.721 171.107 196.441 170.374 196.082 169.856C200.536 171.87 207.98 172.615 213.522 171.269C216.347 170.57 218.305 169.424 219.648 167.978C220.194 167.391 220.985 167.117 221.733 167.304C223.757 167.999 225.974 168.012 228.152 167.062C231.107 165.771 233.245 162.704 233.583 159.292C234.26 152.919 228.836 148.116 222.62 149.009C221.079 149.234 219.685 149.788 218.515 150.586C217.842 151.111 216.96 151.273 216.173 151.002C214.266 150.363 211.809 150.298 208.693 151.064C202.51 152.563 195.725 156.685 193.412 161.345C193.412 160.706 193.224 159.946 192.756 159.097C191.761 157.279 189.954 155.823 189.017 156.346C188.08 156.868 188.389 159.167 189.404 160.974C189.501 161.108 189.568 161.202 189.656 161.324L188.858 161.509C185.37 162.658 183.39 166.002 184.436 168.984C185.48 171.961 189.058 173.481 192.415 172.376Z" fill="#1F824A"/>
<path d="M139.729 194.658C139.969 194.534 140.179 194.376 140.396 194.226C140.423 194.38 140.449 194.496 140.479 194.664C141.084 196.646 142.502 198.476 143.469 198.197C144.435 197.919 144.606 195.625 144.029 193.625C143.756 192.695 143.358 192.016 142.919 191.565C147.621 192.874 155.13 192.159 160.432 189.734C163.126 188.497 164.866 186.991 165.931 185.313C166.378 184.669 167.133 184.287 167.928 184.365C170.064 184.568 172.266 184.051 174.219 182.6C176.872 180.635 178.296 177.138 177.833 173.744C177.005 167.395 170.678 163.949 164.969 166.19C163.552 166.75 162.342 167.603 161.387 168.641C160.825 169.253 159.979 169.519 159.148 169.371C157.162 169.094 154.778 169.48 151.907 170.794C146.238 173.38 140.413 178.676 138.845 183.625C138.743 182.997 138.424 182.276 137.826 181.519C136.537 179.898 134.506 178.766 133.666 179.436C132.827 180.111 133.52 182.324 134.83 183.934C134.946 184.052 135.026 184.128 135.134 184.235L134.381 184.555C131.128 186.268 129.739 189.899 131.279 192.652C132.821 195.409 136.604 196.305 139.729 194.658Z" fill="#1F824A"/>
<path d="M91.7302 225.715C91.9482 225.55 92.1262 225.363 92.3202 225.181C92.3732 225.328 92.4162 225.439 92.4772 225.597C93.4162 227.437 95.1432 228.989 96.0552 228.559C96.9672 228.13 96.7432 225.858 95.8272 224.002C95.3972 223.133 94.8852 222.537 94.3702 222.17C99.3712 222.818 106.355 220.402 111.27 217.272C113.729 215.613 115.192 213.85 115.953 212.034C116.268 211.296 116.92 210.763 117.704 210.673C119.767 210.392 121.908 209.606 123.573 207.831C125.853 205.462 126.657 201.791 125.623 198.529C123.72 192.429 116.872 190.098 111.604 193.262C110.294 194.053 109.226 195.063 108.516 196.33C108.089 197.058 107.323 197.496 106.492 197.525C104.477 197.581 102.174 198.353 99.5532 200.122C94.2972 203.483 89.7712 210.115 88.9592 215.072C88.7482 214.477 88.3112 213.824 87.5852 213.181C86.0262 211.809 83.8102 211.032 83.0942 211.828C82.3722 212.625 83.4422 214.678 85.0202 216.036C85.1582 216.129 85.2522 216.191 85.3742 216.279L84.6791 216.715C81.7361 218.924 81.1552 222.915 83.1322 225.323C85.1622 227.797 88.9032 227.832 91.7302 225.715Z" fill="#1F824A"/>
<path d="M299.11 198.965C299.37 199.035 299.626 199.064 299.885 199.101C299.807 199.239 299.746 199.339 299.661 199.483C298.818 201.362 298.676 203.686 299.565 204.141C300.449 204.594 302.069 203.018 302.953 201.151C303.365 200.279 303.522 199.507 303.49 198.872C306.044 203.346 312.173 207.042 317.565 209.224C320.336 210.217 322.605 210.338 324.503 209.872C325.281 209.683 326.092 209.891 326.63 210.465C328.055 211.997 330.042 212.999 332.42 213.407C335.664 213.872 339.091 212.374 341.101 209.613C344.886 204.481 342.711 197.536 337.047 195.095C335.606 194.551 334.098 194.404 332.666 194.544C331.819 194.63 331.001 194.272 330.481 193.616C329.218 192.016 327.201 190.613 324.192 189.543C318.352 187.198 310.066 187.935 305.703 190.228C306.044 189.692 306.285 188.947 306.335 187.978C306.445 185.898 305.66 183.664 304.576 183.581C303.487 183.496 302.55 185.603 302.476 187.691C302.491 187.854 302.498 187.971 302.51 188.125L301.732 187.836C298.122 186.908 294.603 189.059 294.013 192.103C293.398 195.26 295.725 198.089 299.11 198.965Z" fill="#1F824A"/>
<path d="M243.012 194.842C243.278 194.806 243.528 194.732 243.781 194.67C243.75 194.823 243.725 194.945 243.693 195.112C243.492 197.19 244.097 199.411 245.059 199.487C246.021 199.544 247.037 197.48 247.29 195.481C247.408 194.53 247.308 193.748 247.081 193.147C250.889 196.576 257.79 198.876 263.435 198.74C266.309 198.972 268.469 198.524 270.143 197.577C270.82 197.193 271.648 197.185 272.307 197.605C274.068 198.726 276.199 199.218 278.562 198.776C281.767 198.136 284.641 196.144 285.916 192.914C288.309 187.195 284.557 180.367 278.206 180.04C276.644 179.904 275.132 180.13 273.771 180.636C272.973 180.936 272.078 180.797 271.385 180.297C269.71 179.078 267.338 178.224 264.103 177.981C257.66 178.083 249.919 180.676 246.471 184.247C246.629 183.642 246.624 182.856 246.366 181.911C245.809 179.849 244.348 178.036 243.286 178.395C242.219 178.737 242.001 181.06 242.598 183.034C242.663 183.187 242.707 183.288 242.768 183.427L241.938 183.46C238.212 183.936 235.548 186.858 235.989 189.986C236.428 193.11 239.573 195.29 243.012 194.842Z" fill="#1F824A"/>
<path d="M188.033 208.639L188.755 208.295C188.765 208.455 188.771 208.572 188.779 208.742C189.121 210.787 190.298 212.785 191.297 212.63C192.297 212.48 192.767 210.231 192.446 208.179C192.299 207.22 191.988 206.497 191.608 205.99C196.178 208.073 203.657 208.04 209.266 206.359C212.123 205.412 214.007 204.388 215.281 202.963C215.795 202.385 216.579 202.118 217.342 202.31C219.386 202.813 221.569 202.616 223.661 201.458C226.495 199.907 228.424 196.55 228.584 193.2C228.915 186.754 223.233 182.333 217.08 183.857C215.554 184.225 214.199 184.911 213.082 185.821C212.42 186.353 211.526 186.505 210.705 186.248C208.718 185.633 206.137 185.519 203.168 186.504C197.2 188.292 190.839 193.07 188.582 197.599C188.559 196.961 188.339 196.206 187.839 195.377C186.768 193.606 184.894 192.217 183.977 192.772C183.055 193.328 183.459 195.613 184.553 197.378C184.653 197.505 184.724 197.599 184.815 197.715L184.026 197.931C180.575 199.221 178.759 202.712 179.925 205.634C181.102 208.576 184.714 209.877 188.033 208.639Z" fill="#1F824A"/>
<path d="M136.293 233.276L136.942 232.811C136.977 232.962 137.007 233.078 137.042 233.244C137.735 235.199 139.237 236.961 140.191 236.639C141.14 236.303 141.222 234.031 140.558 232.062C140.243 231.149 139.818 230.489 139.354 230.054C144.198 231.293 151.574 230.035 156.787 227.407C159.446 226.085 161.13 224.519 162.148 222.86C162.559 222.175 163.289 221.743 164.083 221.768C166.195 221.812 168.382 221.212 170.264 219.65C172.824 217.565 174.121 214.057 173.52 210.68C172.434 204.413 165.902 201.124 160.315 203.681C158.918 204.308 157.746 205.225 156.859 206.344C156.329 206.998 155.505 207.325 154.671 207.23C152.645 206.979 150.262 207.45 147.43 208.862C141.852 211.675 136.36 217.43 134.933 222.308C134.799 221.685 134.452 220.982 133.814 220.251C132.45 218.681 130.359 217.62 129.553 218.342C128.745 219.055 129.533 221.235 130.915 222.785C131.038 222.892 131.124 222.971 131.233 223.067L130.494 223.421C127.307 225.273 126.134 229.054 127.789 231.725C129.464 234.419 133.231 235.052 136.293 233.276Z" fill="#1F824A"/>
</svg>
