<svg viewBox="0 0 1920 302" fill="none" xmlns="http://www.w3.org/2000/svg">
<path d="M1569.22 76.5206C1570.22 76.0373 1571.42 76.1718 1572.32 76.837C1597.82 95.7617 1616.75 85.704 1617.3 83.0539C1617.82 80.5499 1604.42 63.6218 1573.57 70.8095C1572.48 71.0632 1571.32 70.7067 1570.6 69.8624C1565.27 63.6767 1559.19 58.3703 1561.71 71.4867C1554.17 82.514 1561.87 80.0689 1569.22 76.5206Z" fill="#245745"/>
<path d="M1063.07 157.582C1063.62 156.618 1064.69 156.051 1065.81 156.097C1097.53 157.363 1107.52 138.386 1106.48 135.886C1105.5 133.524 1084.9 127.085 1063.45 150.41C1062.69 151.233 1061.54 151.59 1060.46 151.302C1052.58 149.193 1044.57 148.232 1054.03 157.652C1054.01 171.011 1058.99 164.656 1063.07 157.582Z" fill="#245745"/>
<path d="M937.07 178.781C937.899 178.037 939.092 177.831 940.136 178.221C969.895 189.299 985.279 174.367 985.071 171.668C984.875 169.118 967.299 156.588 939.663 172.083C938.689 172.629 937.478 172.609 936.545 172C929.708 167.542 922.396 164.137 928.46 176.035C924.288 188.726 930.996 184.236 937.07 178.781Z" fill="#245745"/>
<path d="M1184.39 111.558C1185.04 110.656 1186.16 110.202 1187.27 110.361C1218.7 114.874 1230.57 97.0197 1229.8 94.4264C1229.06 91.9761 1209.23 83.46 1185.51 104.463C1184.67 105.204 1183.48 105.441 1182.44 105.044C1174.81 102.137 1166.95 100.361 1175.39 110.702C1174.01 123.988 1179.61 118.177 1184.39 111.558Z" fill="#245745"/>
<path d="M1374.64 70.4739C1375.48 69.7337 1376.67 69.5327 1377.71 69.9268C1407.43 81.1248 1422.87 66.2556 1422.67 63.5557C1422.49 61.0047 1404.96 48.4033 1377.26 63.7862C1376.29 64.3289 1375.08 64.3037 1374.15 63.6914C1367.33 59.2051 1360.03 55.7703 1366.05 67.6936C1361.82 80.3674 1368.55 75.9043 1374.64 70.4739Z" fill="#245745"/>
<path d="M618.748 136.979C619.769 136.534 620.966 136.713 621.835 137.411C646.615 157.277 665.906 147.935 666.555 145.308C667.169 142.825 654.411 125.407 623.312 131.435C622.215 131.648 621.072 131.248 620.377 130.377C615.285 123.997 609.41 118.467 611.435 131.668C603.493 142.405 611.271 140.25 618.748 136.979Z" fill="#245745"/>
<path d="M367.775 77.0634C368.68 76.4149 369.889 76.3407 370.884 76.8424C399.257 91.1064 416.178 77.9446 416.266 75.2389C416.349 72.6823 400.244 58.3055 371.084 70.6884C370.056 71.1253 368.855 70.9728 367.994 70.2659C361.684 65.0865 354.787 60.9024 359.517 73.3934C353.986 85.553 361.143 81.8224 367.775 77.0634Z" fill="#245745"/>
<path d="M1632.72 90.7662C1633.77 90.3829 1634.95 90.634 1635.78 91.3833C1659.32 112.703 1679.14 104.539 1679.94 101.955C1680.71 99.5137 1669.02 81.3605 1637.61 85.5066C1636.5 85.6531 1635.39 85.1855 1634.75 84.2744C1630.05 77.5989 1624.51 71.7256 1625.74 85.0246C1617.17 95.2648 1625.06 93.5811 1632.72 90.7662Z" fill="#245745"/>
<path d="M808.59 173.21C809.531 172.615 810.742 172.611 811.707 173.17C839.209 189.049 856.861 176.888 857.105 174.192C857.335 171.645 842.088 156.362 812.261 167.038C811.21 167.414 810.019 167.193 809.2 166.437C803.2 160.902 796.556 156.327 800.557 169.069C794.333 180.888 801.695 177.578 808.59 173.21Z" fill="#245745"/>
<path d="M1246.78 93.5366C1247.49 92.678 1248.64 92.297 1249.73 92.5271C1280.81 99.0524 1293.8 81.9989 1293.2 79.3611C1292.62 76.8687 1273.38 67.0942 1248.35 86.5275C1247.47 87.213 1246.27 87.373 1245.26 86.9102C1237.83 83.5189 1230.1 81.2399 1237.86 92.103C1235.62 105.272 1241.59 99.8341 1246.78 93.5366Z" fill="#245745"/>
<path d="M872.778 178.395C873.674 177.733 874.881 177.642 875.883 178.129C904.455 191.989 921.188 178.587 921.237 175.88C921.284 173.323 904.978 159.176 875.996 171.973C874.974 172.424 873.771 172.289 872.9 171.594C866.517 166.505 859.562 162.42 864.468 174.842C859.11 187.08 866.214 183.247 872.778 178.395Z" fill="#245745"/>
<path d="M1504.62 68.5064C1505.57 67.9284 1506.78 67.9458 1507.73 68.5214C1534.95 84.8914 1552.82 73.0494 1553.11 70.3583C1553.38 67.8155 1538.41 52.2619 1508.4 62.4006C1507.34 62.7584 1506.15 62.5154 1505.35 61.7454C1499.45 56.1036 1492.89 51.4097 1496.66 64.2219C1490.23 75.927 1497.64 72.7493 1504.62 68.5064Z" fill="#245745"/>
<path d="M1000.95 172.791C1001.68 171.943 1002.83 171.58 1003.92 171.826C1034.89 178.825 1048.14 161.972 1047.58 159.325C1047.04 156.824 1027.95 146.757 1002.63 165.806C1001.74 166.478 1000.54 166.62 999.53 166.142C992.159 162.637 984.458 160.241 992.056 171.221C989.615 184.355 995.664 179.008 1000.95 172.791Z" fill="#245745"/>
<path d="M744.78 164.22C745.754 163.68 746.962 163.746 747.894 164.359C774.434 181.8 792.759 170.679 793.158 168.002C793.535 165.472 779.193 149.335 748.801 158.27C747.729 158.585 746.554 158.295 745.78 157.494C740.108 151.621 733.739 146.67 736.999 159.622C730.104 171.061 737.644 168.182 744.78 164.22Z" fill="#245745"/>
<path d="M681.457 152.033C682.457 151.541 683.661 151.667 684.561 152.325C710.212 171.051 729.061 160.846 729.591 158.192C730.092 155.684 716.561 138.86 685.766 146.288C684.68 146.55 683.52 146.202 682.787 145.364C677.411 139.22 671.293 133.961 673.912 147.057C666.463 158.143 674.135 155.638 681.457 152.033Z" fill="#245745"/>
<path d="M1123.16 133.11C1123.76 132.173 1124.85 131.657 1125.96 131.754C1157.6 134.505 1168.45 116.017 1167.54 113.471C1166.67 111.065 1146.39 103.669 1123.87 125.964C1123.08 126.75 1121.91 127.053 1120.85 126.715C1113.07 124.239 1105.12 122.904 1114.13 132.757C1113.48 146.1 1118.75 139.985 1123.16 133.11Z" fill="#245745"/>
<path d="M1310.28 79.6392C1311.05 78.8345 1312.22 78.5379 1313.29 78.8466C1343.81 87.613 1358.01 71.5482 1357.59 68.8732C1357.2 66.3457 1338.72 55.1984 1312.35 72.7625C1311.42 73.3821 1310.21 73.4545 1309.24 72.9192C1302.08 68.9973 1294.53 66.162 1301.48 77.561C1298.29 90.5332 1304.64 85.5428 1310.28 79.6392Z" fill="#245745"/>
<path d="M556.8 119.054C557.84 118.657 559.027 118.893 559.863 119.631C583.683 140.639 603.391 132.215 604.163 129.62C604.892 127.169 592.967 109.171 561.618 113.731C560.513 113.892 559.39 113.439 558.737 112.536C553.949 105.923 548.341 100.123 549.744 113.405C541.307 123.757 549.177 121.97 556.8 119.054Z" fill="#245745"/>
<path d="M496.15 97.3995C497.214 97.0739 498.383 97.3894 499.167 98.1826C521.509 120.758 541.743 113.689 542.689 111.153C543.583 108.757 532.903 89.9917 501.318 92.4149C500.205 92.5008 499.115 91.9728 498.524 91.028C494.195 84.1055 488.993 77.9387 489.493 91.2849C480.374 101.041 488.347 99.7915 496.15 97.3995Z" fill="#245745"/>
<path d="M1439.58 66.6027C1440.47 65.9383 1441.68 65.8427 1442.68 66.3267C1471.3 80.088 1487.99 66.6292 1488.03 63.9223C1488.06 61.3645 1471.71 47.2739 1442.77 60.17C1441.75 60.6251 1440.55 60.4938 1439.67 59.8022C1433.27 54.7349 1426.3 50.6731 1431.25 63.0789C1425.94 75.3346 1433.03 71.4781 1439.58 66.6027Z" fill="#245745"/>
<path d="M433.12 80.7504C434.124 80.2696 435.327 80.4071 436.22 81.0746C461.677 100.064 480.631 90.054 481.188 87.4053C481.715 84.9026 468.358 67.9407 437.488 75.0502C436.399 75.3013 435.243 74.9418 434.518 74.0957C429.206 67.8965 423.142 62.5748 425.626 75.6975C418.064 86.7057 425.761 84.2801 433.12 80.7504Z" fill="#245745"/>
<path d="M238.726 94.1417C239.46 93.3044 240.62 92.9573 241.704 93.2194C272.573 100.656 286.063 83.9914 285.534 81.3369C285.035 78.8287 266.087 68.4925 240.501 87.1818C239.599 87.8411 238.394 87.9657 237.395 87.4733C230.074 83.8651 222.408 81.3596 229.85 92.4464C227.225 105.544 233.348 100.284 238.726 94.1417Z" fill="#245745"/>
<path d="M302.737 82.281C303.55 81.5204 304.739 81.2898 305.791 81.6579C335.773 92.1147 350.845 76.8669 350.581 74.1729C350.332 71.6273 332.5 59.4651 305.191 75.5305C304.228 76.0972 303.018 76.102 302.072 75.513C295.144 71.1975 287.763 67.945 294.072 79.715C290.165 92.4895 296.778 87.8608 302.737 82.281Z" fill="#245745"/>
<path d="M1694.54 111.125C1695.62 110.844 1696.77 111.207 1697.52 112.031C1718.92 135.503 1739.43 129.268 1740.48 126.773C1741.47 124.415 1731.57 105.229 1699.91 106.357C1698.79 106.397 1697.72 105.825 1697.17 104.856C1693.13 97.7624 1688.19 91.3876 1688.14 104.743C1678.63 114.118 1686.65 113.196 1694.54 111.125Z" fill="#245745"/>
<path d="M159.516 143.959C160.165 143.055 161.286 142.597 162.39 142.752C193.835 147.154 205.645 129.259 204.861 126.668C204.12 124.221 184.259 115.774 160.607 136.86C159.773 137.604 158.587 137.845 157.544 137.452C149.908 134.572 142.034 132.823 150.517 143.134C149.175 156.425 154.759 150.595 159.516 143.959Z" fill="#245745"/>
<path d="M1552.12 101.352C1553.11 100.843 1554.31 100.946 1555.23 101.588C1581.21 119.845 1599.87 109.299 1600.36 106.636C1600.81 104.119 1586.98 87.5439 1556.32 95.5297C1555.24 95.8117 1554.08 95.4852 1553.33 94.6601C1547.84 88.6146 1541.63 83.4677 1544.48 96.5145C1537.24 107.734 1544.86 105.09 1552.12 101.352Z" fill="#245745"/>
<path d="M1615.98 113.943C1617.01 113.532 1618.2 113.753 1619.05 114.48C1643.13 135.185 1662.73 126.51 1663.47 123.906C1664.17 121.446 1652.02 103.601 1620.73 108.558C1619.63 108.733 1618.5 108.295 1617.83 107.401C1612.96 100.849 1607.28 95.1206 1608.85 108.384C1600.55 118.842 1608.39 116.955 1615.98 113.943Z" fill="#245745"/>
<path d="M221.922 125.775C222.637 124.921 223.789 124.548 224.878 124.786C255.907 131.523 269.019 114.559 268.43 111.917C267.874 109.421 248.698 99.5151 223.539 118.777C222.652 119.456 221.451 119.608 220.441 119.138C213.041 115.696 205.32 113.364 213.01 124.28C210.68 137.434 216.684 132.037 221.922 125.775Z" fill="#245745"/>
<path d="M1422.28 94.6554C1423.15 93.9698 1424.36 93.8453 1425.37 94.3052C1454.31 107.377 1470.67 93.5218 1470.65 90.8147C1470.63 88.2567 1453.94 74.562 1425.32 88.148C1424.31 88.6273 1423.1 88.5249 1422.21 87.8545C1415.69 82.942 1408.63 79.0483 1413.87 91.3321C1408.85 103.712 1415.85 99.6864 1422.28 94.6554Z" fill="#245745"/>
<path d="M1293.3 110.468C1294.05 109.648 1295.22 109.328 1296.3 109.615C1326.98 117.765 1340.86 101.417 1340.39 98.7514C1339.95 96.2322 1321.24 85.4595 1295.23 103.551C1294.32 104.189 1293.11 104.286 1292.12 103.77C1284.89 99.9934 1277.28 97.3108 1284.46 108.567C1281.53 121.601 1287.78 116.484 1293.3 110.468Z" fill="#245745"/>
<path d="M480.299 118.457C481.368 118.146 482.532 118.478 483.304 119.283C505.325 142.172 525.657 135.391 526.638 132.868C527.566 130.485 517.154 111.571 485.537 113.546C484.422 113.616 483.34 113.073 482.763 112.12C478.533 105.136 473.418 98.8964 473.729 112.248C464.473 121.874 472.463 120.738 480.299 118.457Z" fill="#245745"/>
<path d="M1107.07 166.927C1107.66 165.982 1108.75 165.451 1109.86 165.534C1141.53 167.862 1152.14 149.229 1151.19 146.696C1150.29 144.302 1129.91 137.178 1107.69 159.771C1106.91 160.568 1105.74 160.887 1104.68 160.563C1096.87 158.191 1088.9 156.963 1098.04 166.694C1097.57 180.045 1102.76 173.86 1107.07 166.927Z" fill="#245745"/>
<path d="M984.062 202.694C984.819 201.877 985.987 201.561 987.063 201.851C1017.72 210.105 1031.65 193.805 1031.19 191.137C1030.76 188.616 1012.09 177.78 986.021 195.784C985.102 196.419 983.895 196.512 982.909 195.993C975.687 192.191 968.089 189.483 975.235 200.764C972.263 213.788 978.523 208.692 984.062 202.694Z" fill="#245745"/>
<path d="M1046.9 190.502C1047.5 189.563 1048.59 189.044 1049.7 189.138C1081.34 191.81 1092.16 173.293 1091.23 170.75C1090.36 168.346 1070.06 161.002 1047.6 183.353C1046.81 184.141 1045.64 184.447 1044.58 184.112C1036.79 181.655 1028.83 180.341 1037.87 190.171C1037.26 203.516 1042.51 197.388 1046.9 190.502Z" fill="#245745"/>
<path d="M1230.09 125.52C1230.78 124.649 1231.92 124.247 1233.02 124.457C1264.2 130.424 1276.89 113.141 1276.24 110.514C1275.62 108.032 1256.2 98.6046 1231.53 118.484C1230.66 119.185 1229.46 119.366 1228.44 118.922C1220.96 115.664 1213.18 113.524 1221.14 124.246C1219.14 137.454 1225 131.909 1230.09 125.52Z" fill="#245745"/>
<path d="M1357.46 99.9864C1358.27 99.228 1359.46 99.0005 1360.51 99.3714C1390.47 109.907 1405.58 94.6989 1405.32 92.0042C1405.08 89.458 1387.28 77.2489 1359.93 93.2424C1358.96 93.8066 1357.75 93.8082 1356.81 93.2167C1349.89 88.883 1342.52 85.6111 1348.8 97.3977C1344.86 110.162 1351.48 105.551 1357.46 99.9864Z" fill="#245745"/>
<path d="M727.89 188.841C728.871 188.315 730.079 188.397 731.002 189.023C757.301 206.827 775.776 195.959 776.212 193.288C776.623 190.763 762.505 174.431 731.992 182.947C730.916 183.248 729.745 182.942 728.982 182.13C723.392 176.18 717.091 171.142 720.173 184.137C713.122 195.48 720.7 192.705 727.89 188.841Z" fill="#245745"/>
<path d="M664.728 175.874C665.733 175.395 666.936 175.535 667.828 176.204C693.248 195.242 712.221 185.268 712.783 182.621C713.315 180.119 699.99 163.132 669.107 170.182C668.018 170.431 666.862 170.069 666.139 169.222C660.838 163.013 654.785 157.679 657.244 170.807C649.66 181.8 657.363 179.39 664.728 175.874Z" fill="#245745"/>
<path d="M602.192 160.073C603.218 159.64 604.413 159.833 605.274 160.542C629.814 180.703 649.216 171.593 649.896 168.974C650.539 166.498 637.991 148.929 606.822 154.584C605.723 154.783 604.585 154.37 603.9 153.491C598.884 147.05 593.076 141.45 594.943 154.674C586.874 165.316 594.676 163.254 602.192 160.073Z" fill="#245745"/>
<path d="M919.99 206.79C920.84 206.071 922.038 205.899 923.071 206.318C952.505 218.234 968.305 203.743 968.173 201.039C968.049 198.484 950.834 185.461 922.772 200.168C921.782 200.687 920.573 200.632 919.657 199.998C912.949 195.347 905.736 191.736 911.462 203.802C906.933 216.37 913.765 212.072 919.99 206.79Z" fill="#245745"/>
<path d="M540.507 141.314C541.553 140.932 542.737 141.184 543.562 141.934C567.08 163.281 586.906 155.138 587.715 152.555C588.479 150.115 576.812 131.949 545.401 136.06C544.294 136.205 543.178 135.736 542.537 134.824C537.844 128.144 532.319 122.264 533.533 135.565C524.949 145.795 532.844 144.12 540.507 141.314Z" fill="#245745"/>
<path d="M791.583 198.73C792.534 198.151 793.744 198.166 794.7 198.74C821.937 215.071 839.788 203.203 840.076 200.511C840.348 197.968 825.354 182.436 795.355 192.619C794.298 192.978 793.111 192.737 792.305 191.968C786.396 186.335 779.828 181.65 783.619 194.457C777.202 206.172 784.617 202.983 791.583 198.73Z" fill="#245745"/>
<path d="M98.4791 166.138C99.0696 165.194 100.159 164.665 101.27 164.75C132.932 167.138 143.578 148.525 142.631 145.99C141.735 143.595 121.376 136.432 99.1154 158.984C98.3308 159.779 97.162 160.096 96.0969 159.77C88.2925 157.383 80.3234 156.14 89.4461 165.889C88.9536 179.238 94.1549 173.064 98.4791 166.138Z" fill="#245745"/>
<path d="M285.611 112.429C286.402 111.645 287.584 111.38 288.646 111.718C318.917 121.304 333.543 105.628 333.202 102.943C332.879 100.405 314.703 88.7634 287.869 105.61C286.923 106.205 285.713 106.244 284.751 105.683C277.702 101.569 270.23 98.5315 276.876 110.114C273.338 122.996 279.816 118.178 285.611 112.429Z" fill="#245745"/>
<path d="M350.413 105.261C351.292 104.578 352.497 104.457 353.511 104.92C382.409 118.085 398.813 104.282 398.797 101.575C398.782 99.0172 382.139 85.2689 353.474 98.763C352.464 99.2391 351.258 99.1328 350.37 98.4595C343.867 93.526 336.814 89.6097 342.019 101.91C336.959 114.274 343.968 110.271 350.413 105.261Z" fill="#245745"/>
<path d="M1678.3 132.702C1679.37 132.393 1680.53 132.727 1681.31 133.533C1703.29 156.459 1723.63 149.712 1724.62 147.192C1725.55 144.81 1715.17 125.878 1683.55 127.8C1682.43 127.868 1681.35 127.323 1680.78 126.369C1676.56 119.378 1671.45 113.13 1671.74 126.482C1662.47 136.092 1670.46 134.969 1678.3 132.702Z" fill="#245745"/>
<path d="M1642.77 147.681C1643.82 147.314 1645 147.583 1645.81 148.345C1669.02 170.029 1688.96 162.173 1689.81 159.603C1690.61 157.173 1679.2 138.841 1647.74 142.498C1646.63 142.627 1645.52 142.142 1644.89 141.221C1640.3 134.474 1634.86 128.515 1635.88 141.831C1627.15 151.937 1635.07 150.376 1642.77 147.681Z" fill="#245745"/>
<path d="M1256.91 145.067C1257.63 144.216 1258.78 143.848 1259.87 144.09C1290.87 150.961 1304.05 134.053 1303.47 131.408C1302.93 128.91 1283.79 118.922 1258.55 138.076C1257.66 138.751 1256.46 138.898 1255.45 138.424C1248.07 134.95 1240.36 132.585 1248 143.534C1245.62 156.678 1251.64 151.306 1256.91 145.067Z" fill="#245745"/>
<path d="M1194.32 162.47C1194.98 161.574 1196.11 161.131 1197.21 161.301C1228.59 166.12 1240.64 148.383 1239.89 145.782C1239.18 143.325 1219.43 134.615 1195.5 155.386C1194.66 156.119 1193.47 156.344 1192.43 155.937C1184.84 152.956 1176.99 151.103 1185.33 161.526C1183.81 174.798 1189.47 169.042 1194.32 162.47Z" fill="#245745"/>
<path d="M754.987 219.944C755.956 219.396 757.166 219.451 758.102 220.056C784.791 237.269 803.02 225.992 803.396 223.311C803.751 220.778 789.272 204.764 758.957 213.959C757.888 214.284 756.71 214.004 755.929 213.209C750.208 207.386 743.797 202.489 747.167 215.413C740.371 226.911 747.885 223.966 754.987 219.944Z" fill="#245745"/>
<path d="M1072.64 207.538C1073.2 206.577 1074.28 206.018 1075.39 206.071C1107.11 207.556 1117.22 188.648 1116.2 186.141C1115.24 183.772 1094.68 177.192 1073.07 200.368C1072.31 201.186 1071.15 201.535 1070.08 201.24C1062.21 199.076 1054.21 198.061 1063.6 207.546C1063.49 220.904 1068.51 214.584 1072.64 207.538Z" fill="#245745"/>
<path d="M378.274 131.04C379.195 130.414 380.405 130.37 381.388 130.896C409.4 145.857 426.641 133.117 426.795 130.415C426.941 127.861 411.196 113.091 381.739 124.749C380.701 125.16 379.504 124.978 378.66 124.25C372.48 118.917 365.689 114.564 370.109 127.167C364.279 139.186 371.527 135.634 378.274 131.04Z" fill="#245745"/>
<path d="M1320.55 131.892C1321.33 131.096 1322.5 130.814 1323.57 131.136C1353.98 140.281 1368.38 124.394 1368 121.714C1367.64 119.182 1349.29 107.806 1322.71 125.041C1321.77 125.649 1320.56 125.706 1319.59 125.159C1312.48 121.149 1304.97 118.22 1311.78 129.704C1308.43 142.636 1314.84 137.725 1320.55 131.892Z" fill="#245745"/>
<path d="M505.727 155.296C506.787 154.955 507.96 155.253 508.756 156.034C531.431 178.274 551.558 170.905 552.466 168.355C553.324 165.946 542.367 147.342 510.821 150.235C509.709 150.338 508.611 149.826 508.006 148.89C503.575 142.033 498.281 135.944 498.98 149.282C490.007 159.173 497.961 157.804 505.727 155.296Z" fill="#245745"/>
<path d="M628.763 193.636C629.78 193.183 630.978 193.354 631.853 194.046C656.774 213.734 675.998 204.253 676.628 201.621C677.223 199.134 664.342 181.808 633.286 188.059C632.191 188.28 631.045 187.889 630.344 187.023C625.206 180.679 619.292 175.191 621.411 188.377C613.547 199.172 621.309 196.96 628.763 193.636Z" fill="#245745"/>
<path d="M185.954 162.165C186.631 161.28 187.765 160.856 188.864 161.045C220.162 166.393 232.505 148.861 231.8 146.248C231.133 143.779 211.535 134.738 187.259 155.102C186.403 155.82 185.21 156.025 184.18 155.601C176.634 152.492 168.816 150.507 176.985 161.069C175.243 174.313 181 168.654 185.954 162.165Z" fill="#245745"/>
<path d="M691.585 208.243C692.581 207.744 693.786 207.86 694.691 208.512C720.482 227.044 739.254 216.698 739.764 214.04C740.246 211.528 726.589 194.807 695.851 202.466C694.767 202.736 693.604 202.397 692.864 201.564C687.443 195.461 681.285 190.248 684.003 203.324C676.637 214.466 684.29 211.903 691.585 208.243Z" fill="#245745"/>
<path d="M1515.03 123.431C1515.99 122.867 1517.2 122.903 1518.15 123.494C1545.11 140.28 1563.15 128.715 1563.49 126.028C1563.8 123.49 1549.07 107.708 1518.91 117.384C1517.84 117.725 1516.66 117.464 1515.87 116.682C1510.05 110.95 1503.57 106.156 1507.14 119.024C1500.53 130.629 1507.99 127.566 1515.03 123.431Z" fill="#245745"/>
<path d="M1579.5 132.442C1580.51 131.975 1581.71 132.128 1582.59 132.807C1607.8 152.13 1626.88 142.37 1627.48 139.729C1628.03 137.234 1614.9 120.098 1583.94 126.8C1582.85 127.037 1581.7 126.662 1580.98 125.807C1575.75 119.538 1569.76 114.137 1572.07 127.291C1564.37 138.199 1572.09 135.875 1579.5 132.442Z" fill="#245745"/>
<path d="M1385.04 123.537C1385.88 122.808 1387.08 122.624 1388.11 123.032C1417.67 134.635 1433.32 119.977 1433.16 117.275C1433.01 114.721 1415.65 101.882 1387.75 116.886C1386.77 117.415 1385.56 117.373 1384.63 116.748C1377.88 112.169 1370.63 108.635 1376.48 120.64C1372.08 133.255 1378.87 128.884 1385.04 123.537Z" fill="#245745"/>
<path d="M1132.9 183.494C1133.51 182.562 1134.61 182.055 1135.72 182.162C1167.33 185.178 1178.34 166.78 1177.45 164.227C1176.6 161.814 1156.39 154.249 1133.68 176.354C1132.88 177.133 1131.71 177.426 1130.65 177.08C1122.89 174.538 1114.95 173.137 1123.88 183.065C1123.12 196.402 1128.44 190.332 1132.9 183.494Z" fill="#245745"/>
<path d="M947.38 232.355C948.195 231.596 949.384 231.368 950.436 231.739C980.393 242.267 995.501 227.056 995.243 224.361C995 221.815 977.197 209.61 949.85 225.61C948.886 226.175 947.675 226.177 946.731 225.585C939.813 221.253 932.44 217.983 938.721 229.768C934.783 242.533 941.408 237.92 947.38 232.355Z" fill="#245745"/>
<path d="M883.097 232.868C883.984 232.195 885.19 232.087 886.199 232.561C914.953 246.036 931.505 232.411 931.518 229.704C931.531 227.146 915.036 213.219 886.228 226.404C885.213 226.869 884.008 226.75 883.128 226.067C876.678 221.064 869.668 217.071 874.74 229.427C869.547 241.736 876.599 237.809 883.097 232.868Z" fill="#245745"/>
<path d="M1450.01 120.564C1450.92 119.912 1452.13 119.835 1453.12 120.333C1481.54 134.513 1498.42 121.3 1498.5 118.594C1498.57 116.037 1482.43 101.709 1453.3 114.179C1452.28 114.619 1451.08 114.47 1450.21 113.765C1443.89 108.605 1436.98 104.441 1441.75 116.918C1436.25 129.094 1443.4 125.342 1450.01 120.564Z" fill="#245745"/>
<path d="M818.878 228.376C819.813 227.771 821.023 227.754 821.994 228.302C849.66 243.894 867.185 231.55 867.4 228.852C867.604 226.302 852.198 211.179 822.484 222.165C821.437 222.553 820.244 222.343 819.418 221.597C813.36 216.124 806.669 211.618 810.802 224.319C804.702 236.202 812.028 232.815 818.878 228.376Z" fill="#245745"/>
<path d="M566.679 176.195C567.716 175.789 568.905 176.015 569.747 176.747C593.735 197.562 613.375 188.979 614.126 186.378C614.835 183.921 602.765 166.02 571.454 170.833C570.35 171.003 569.224 170.559 568.563 169.662C563.722 163.087 558.067 157.333 559.578 170.603C551.224 181.023 559.08 179.172 566.679 176.195Z" fill="#245745"/>
<path d="M248.924 145.915C249.67 145.088 250.835 144.758 251.915 145.035C282.674 152.913 296.402 136.443 295.911 133.781C295.447 131.266 276.649 120.66 250.798 138.981C249.887 139.627 248.681 139.735 247.689 139.228C240.42 135.515 232.79 132.9 240.073 144.093C237.261 157.152 243.459 151.979 248.924 145.915Z" fill="#245745"/>
<path d="M443.532 136.422C444.551 135.975 445.749 136.152 446.619 136.849C471.434 156.672 490.708 147.297 491.353 144.668C491.962 142.184 479.175 124.789 448.086 130.87C446.99 131.085 445.846 130.687 445.149 129.818C440.046 123.446 434.162 117.926 436.209 131.124C428.286 141.875 436.06 139.706 443.532 136.422Z" fill="#245745"/>
<path d="M313.116 135.003C313.943 134.258 315.136 134.049 316.181 134.437C345.965 145.446 361.315 130.479 361.101 127.781C360.899 125.231 343.294 112.741 315.694 128.299C314.721 128.848 313.51 128.831 312.576 128.224C305.729 123.781 298.409 120.393 304.5 132.278C300.357 144.978 307.055 140.472 313.116 135.003Z" fill="#245745"/>
<path d="M124.332 182.714C124.947 181.786 126.05 181.286 127.159 181.4C158.747 184.62 169.878 166.294 168.998 163.735C168.166 161.316 148.002 153.621 125.156 175.579C124.351 176.354 123.175 176.639 122.118 176.286C114.379 173.694 106.446 172.242 115.309 182.228C114.466 195.559 119.828 189.524 124.332 182.714Z" fill="#245745"/>
<path d="M1704.27 169C1705.35 168.734 1706.5 169.115 1707.24 169.95C1728.29 193.74 1748.88 187.814 1749.97 185.335C1751 182.993 1741.38 163.66 1709.71 164.312C1708.6 164.335 1707.54 163.747 1707 162.771C1703.06 155.617 1698.21 149.169 1697.97 162.522C1688.32 171.753 1696.35 170.951 1704.27 169Z" fill="#245745"/>
<path d="M1530.61 151.516C1531.58 150.975 1532.79 151.039 1533.72 151.651C1560.29 169.058 1578.6 157.914 1578.99 155.237C1579.37 152.706 1565.01 136.587 1534.62 145.561C1533.55 145.878 1532.38 145.589 1531.6 144.789C1525.92 138.924 1519.55 133.98 1522.82 146.928C1515.94 158.376 1523.48 155.487 1530.61 151.516Z" fill="#245745"/>
<path d="M581.542 207.151C582.574 206.734 583.766 206.946 584.616 207.668C608.843 228.204 628.382 219.393 629.103 216.784C629.784 214.319 617.508 196.56 586.255 201.734C585.153 201.917 584.021 201.486 583.35 200.597C578.434 194.079 572.713 188.39 574.376 201.642C566.144 212.158 573.978 210.216 581.542 207.151Z" fill="#245745"/>
<path d="M1272.13 167.974C1272.86 167.136 1274.02 166.788 1275.1 167.048C1305.98 174.447 1319.45 157.766 1318.92 155.112C1318.42 152.604 1299.46 142.292 1273.89 161.012C1272.99 161.673 1271.79 161.799 1270.79 161.307C1263.46 157.708 1255.79 155.212 1263.25 166.29C1260.64 179.391 1266.75 174.123 1272.13 167.974Z" fill="#245745"/>
<path d="M1087.03 227.999C1087.61 227.044 1088.69 226.496 1089.8 226.561C1121.5 228.388 1131.81 209.59 1130.82 207.072C1129.88 204.693 1109.4 197.892 1087.54 220.834C1086.77 221.643 1085.61 221.98 1084.54 221.673C1076.69 219.425 1068.7 218.323 1078 227.909C1077.74 241.265 1082.83 235 1087.03 227.999Z" fill="#245745"/>
<path d="M1465.68 147.192C1466.6 146.561 1467.81 146.51 1468.8 147.031C1496.89 161.838 1514.06 149.005 1514.2 146.302C1514.33 143.747 1498.51 129.063 1469.11 140.882C1468.08 141.299 1466.88 141.123 1466.03 140.4C1459.82 135.1 1453.01 130.784 1457.5 143.363C1451.73 155.414 1458.96 151.822 1465.68 147.192Z" fill="#245745"/>
<path d="M1336 155.904C1336.79 155.124 1337.98 154.865 1339.04 155.207C1369.27 164.928 1383.96 149.317 1383.63 146.631C1383.32 144.092 1365.2 132.369 1338.29 149.096C1337.34 149.686 1336.13 149.72 1335.17 149.155C1328.14 145.01 1320.68 141.938 1327.28 153.551C1323.68 166.417 1330.18 161.628 1336 155.904Z" fill="#245745"/>
<path d="M1026.21 248.616C1026.87 247.72 1028 247.277 1029.1 247.446C1060.49 252.256 1072.53 234.514 1071.78 231.914C1071.07 229.457 1051.32 220.754 1027.4 241.532C1026.55 242.265 1025.36 242.49 1024.33 242.084C1016.73 239.105 1008.88 237.255 1017.23 247.675C1015.71 260.947 1021.37 255.19 1026.21 248.616Z" fill="#245745"/>
<path d="M706.793 237.818C707.783 237.308 708.989 237.41 709.901 238.051C735.904 256.286 754.556 245.724 755.035 243.06C755.488 240.543 741.64 223.98 710.992 231.992C709.911 232.275 708.745 231.95 707.995 231.125C702.504 225.084 696.287 219.943 699.154 232.987C691.918 244.212 699.541 241.562 706.793 237.818Z" fill="#245745"/>
<path d="M1147.58 204.621C1148.2 203.697 1149.3 203.204 1150.41 203.326C1181.98 206.751 1193.23 188.499 1192.36 185.934C1191.55 183.51 1171.44 175.683 1148.45 197.492C1147.64 198.261 1146.46 198.539 1145.4 198.178C1137.68 195.536 1129.76 194.032 1138.56 204.075C1137.63 217.401 1143.03 211.401 1147.58 204.621Z" fill="#245745"/>
<path d="M643.823 223.894C644.835 223.43 646.036 223.588 646.917 224.27C672.049 243.688 691.17 234.001 691.772 231.362C692.341 228.869 679.273 211.683 648.287 218.268C647.194 218.501 646.044 218.122 645.334 217.264C640.127 210.975 634.155 205.552 636.416 218.714C628.668 229.593 636.406 227.298 643.823 223.894Z" fill="#245745"/>
<path d="M962.8 257.798C963.593 257.016 964.774 256.753 965.836 257.092C996.091 266.731 1010.74 251.08 1010.41 248.394C1010.09 245.856 991.933 234.183 965.07 250.984C964.123 251.576 962.913 251.614 961.952 251.051C954.909 246.925 947.443 243.875 954.069 255.469C950.509 268.344 956.995 263.538 962.8 257.798Z" fill="#245745"/>
<path d="M1209.27 184.415C1209.95 183.529 1211.08 183.102 1212.18 183.289C1243.49 188.58 1255.8 171.026 1255.09 168.414C1254.42 165.946 1234.8 156.941 1210.57 177.349C1209.71 178.069 1208.52 178.276 1207.49 177.854C1199.94 174.759 1192.11 172.788 1200.3 183.335C1198.58 196.583 1204.33 190.913 1209.27 184.415Z" fill="#245745"/>
<path d="M1400.64 148.797C1401.49 148.086 1402.69 147.926 1403.72 148.356C1433.03 160.571 1448.98 146.241 1448.87 143.536C1448.78 140.98 1431.69 127.782 1403.48 142.204C1402.49 142.712 1401.28 142.646 1400.37 142.002C1393.71 137.283 1386.54 133.599 1392.14 145.723C1387.48 158.244 1394.36 154.015 1400.64 148.797Z" fill="#245745"/>
<path d="M1594.85 162.028C1595.87 161.585 1597.07 161.766 1597.94 162.466C1622.68 182.376 1641.99 173.068 1642.64 170.442C1643.26 167.96 1630.53 150.52 1599.42 156.492C1598.33 156.703 1597.18 156.302 1596.49 155.43C1591.41 149.04 1585.54 143.499 1587.55 156.704C1579.58 167.427 1587.37 165.286 1594.85 162.028Z" fill="#245745"/>
<path d="M394.015 157.858C394.959 157.269 396.17 157.272 397.132 157.836C424.534 173.886 442.262 161.836 442.523 159.141C442.769 156.595 427.616 141.218 397.724 151.708C396.67 152.078 395.481 151.849 394.667 151.089C388.701 145.516 382.086 140.9 386.008 153.667C379.711 165.447 387.092 162.182 394.015 157.858Z" fill="#245745"/>
<path d="M834.299 256.334C835.224 255.714 836.434 255.677 837.413 256.21C865.33 271.347 882.651 258.718 882.823 256.016C882.985 253.464 867.334 238.594 837.804 250.065C836.763 250.47 835.567 250.28 834.728 249.547C828.582 244.174 821.818 239.778 826.158 252.409C820.253 264.391 827.523 260.885 834.299 256.334Z" fill="#245745"/>
<path d="M78.4502 227.31C79.0217 226.354 80.1002 225.804 81.2131 225.866C112.917 227.618 123.187 208.796 122.189 206.28C121.246 203.903 100.748 197.15 78.943 220.144C78.1745 220.955 77.0123 221.295 75.9408 220.99C68.0901 218.761 60.0977 217.678 69.414 227.242C69.1891 240.598 74.2657 234.32 78.4502 227.31Z" fill="#245745"/>
<path d="M200.984 184.318C201.676 183.445 202.818 183.042 203.913 183.25C235.11 189.163 247.767 171.857 247.109 169.232C246.487 166.751 227.056 157.357 202.416 177.279C201.547 177.982 200.35 178.165 199.328 177.723C191.839 174.478 184.059 172.352 192.036 183.06C190.055 196.271 195.914 190.716 200.984 184.318Z" fill="#245745"/>
<path d="M770.324 248.779C771.285 248.218 772.496 248.257 773.44 248.85C800.355 265.706 818.432 254.187 818.773 251.502C819.094 248.964 804.404 233.144 774.214 242.742C773.149 243.081 771.968 242.817 771.176 242.032C765.378 236.285 758.902 231.474 762.444 244.352C755.801 255.94 763.276 252.896 770.324 248.779Z" fill="#245745"/>
<path d="M459.061 165.943C460.102 165.55 461.289 165.79 462.122 166.532C485.861 187.631 505.601 179.281 506.383 176.69C507.122 174.242 495.265 156.199 463.9 160.638C462.794 160.795 461.672 160.338 461.022 159.433C456.26 152.802 450.674 146.98 452.026 160.267C443.55 170.587 451.427 168.83 459.061 165.943Z" fill="#245745"/>
<path d="M520.234 187.228C521.288 186.867 522.466 187.144 523.276 187.911C546.351 209.736 566.34 202.002 567.202 199.437C568.016 197.012 556.723 178.61 525.235 182.075C524.125 182.198 523.019 181.706 522.397 180.781C517.842 174.006 512.439 168.014 513.379 181.336C504.587 191.389 512.515 189.876 520.234 187.228Z" fill="#245745"/>
<path d="M328.732 159.824C329.581 159.103 330.779 158.929 331.812 159.347C361.261 171.225 377.043 156.715 376.908 154.011C376.78 151.456 359.549 138.455 331.505 153.198C330.517 153.718 329.307 153.665 328.391 153.031C321.677 148.389 314.459 144.788 320.2 156.846C315.687 169.42 322.514 165.113 328.732 159.824Z" fill="#245745"/>
<path d="M139.032 203.902C139.661 202.984 140.771 202.501 141.878 202.632C173.413 206.337 184.825 188.184 183.984 185.612C183.189 183.181 163.146 175.176 139.965 196.781C139.148 197.543 137.967 197.81 136.917 197.44C129.218 194.73 121.308 193.156 130.017 203.277C128.969 216.594 134.423 210.641 139.032 203.902Z" fill="#245745"/>
<path d="M264.26 169.237C265.024 168.428 266.196 168.123 267.269 168.425C297.844 176.993 311.938 160.836 311.507 158.164C311.1 155.639 292.545 144.612 266.289 162.347C265.363 162.973 264.155 163.053 263.175 162.524C255.992 158.649 248.422 155.863 255.452 167.216C252.347 180.209 258.66 175.178 264.26 169.237Z" fill="#245745"/>
<path d="M1310.28 187.877C1311.05 187.073 1312.22 186.776 1313.29 187.085C1343.81 195.851 1358.01 179.787 1357.59 177.112C1357.2 174.584 1338.72 163.437 1312.35 181.001C1311.42 181.62 1310.21 181.693 1309.24 181.157C1302.08 177.236 1294.53 174.4 1301.48 185.799C1298.29 198.771 1304.64 193.781 1310.28 187.877Z" fill="#245745"/>
<path d="M1504.62 176.745C1505.57 176.167 1506.78 176.184 1507.73 176.76C1534.95 193.13 1552.82 181.288 1553.11 178.597C1553.38 176.054 1538.41 160.5 1508.4 170.639C1507.34 170.997 1506.15 170.754 1505.35 169.984C1499.45 164.342 1492.89 159.648 1496.66 172.46C1490.23 184.165 1497.64 180.988 1504.62 176.745Z" fill="#245745"/>
<path d="M681.457 260.271C682.457 259.78 683.661 259.905 684.561 260.563C710.212 279.289 729.061 269.084 729.591 266.43C730.092 263.922 716.561 247.098 685.766 254.526C684.68 254.788 683.52 254.441 682.787 253.602C677.411 247.458 671.293 242.199 673.912 255.295C666.463 266.381 674.135 263.876 681.457 260.271Z" fill="#245745"/>
<path d="M1439.58 174.841C1440.47 174.177 1441.68 174.081 1442.68 174.565C1471.3 188.326 1487.99 174.867 1488.03 172.161C1488.06 169.603 1471.71 155.512 1442.77 168.408C1441.75 168.863 1440.55 168.732 1439.67 168.04C1433.27 162.973 1426.3 158.911 1431.25 171.317C1425.94 183.573 1433.03 179.716 1439.58 174.841Z" fill="#245745"/>
<path d="M1123.16 241.349C1123.76 240.411 1124.85 239.895 1125.96 239.993C1157.6 242.744 1168.45 224.255 1167.54 221.709C1166.67 219.303 1146.39 211.907 1123.87 234.202C1123.08 234.988 1121.91 235.291 1120.85 234.953C1113.07 232.477 1105.12 231.142 1114.13 240.996C1113.48 254.338 1118.75 248.224 1123.16 241.349Z" fill="#245745"/>
<path d="M556.8 227.291C557.84 226.894 559.027 227.129 559.863 227.867C583.683 248.876 603.391 240.451 604.163 237.857C604.892 235.406 592.967 217.408 561.618 221.967C560.513 222.128 559.39 221.675 558.737 220.773C553.949 214.16 548.341 208.36 549.744 221.642C541.307 231.994 549.177 230.206 556.8 227.291Z" fill="#245745"/>
<path d="M367.775 185.302C368.68 184.653 369.889 184.579 370.884 185.081C399.257 199.345 416.178 186.183 416.266 183.477C416.349 180.921 400.244 166.544 371.084 178.927C370.056 179.364 368.855 179.211 367.994 178.504C361.684 173.325 354.787 169.141 359.517 181.632C353.986 193.791 361.143 190.061 367.775 185.302Z" fill="#245745"/>
<path d="M302.737 190.519C303.55 189.759 304.739 189.528 305.791 189.896C335.773 200.353 350.845 185.105 350.581 182.411C350.332 179.866 332.5 167.703 305.191 183.769C304.228 184.336 303.018 184.34 302.072 183.751C295.144 179.436 287.763 176.183 294.072 187.953C290.165 200.728 296.778 196.099 302.737 190.519Z" fill="#245745"/>
<path d="M1184.39 219.797C1185.04 218.894 1186.16 218.44 1187.27 218.6C1218.7 223.112 1230.57 205.258 1229.8 202.665C1229.06 200.214 1209.23 191.698 1185.51 212.701C1184.67 213.442 1183.48 213.679 1182.44 213.282C1174.81 210.376 1166.95 208.599 1175.39 218.94C1174.01 232.226 1179.61 226.415 1184.39 219.797Z" fill="#245745"/>
<path d="M543.886 60.2902C544.931 59.9045 546.116 60.1529 546.944 60.9003C570.542 82.1703 590.354 73.9585 591.155 71.3723C591.912 68.9287 580.18 50.799 548.766 55.0183C547.658 55.1674 546.54 54.7023 545.896 53.7925C541.179 47.1265 535.633 41.2649 536.889 54.5636C528.333 64.8255 536.227 63.1233 543.886 60.2902Z" fill="#1F824A"/>
<path d="M731.517 107.292C732.497 106.762 733.706 106.841 734.631 107.464C760.996 125.189 779.45 114.263 779.878 111.589C780.282 109.063 766.108 92.7715 735.604 101.384C734.529 101.688 733.356 101.385 732.59 100.575C726.979 94.6419 720.66 89.6221 723.782 102.61C716.76 113.977 724.335 111.178 731.517 107.292Z" fill="#1F824A"/>
<path d="M795.277 116.983C796.226 116.4 797.438 116.411 798.396 116.982C825.705 133.215 843.523 121.28 843.802 118.587C844.065 116.043 829.008 100.564 799.03 110.857C797.973 111.22 796.785 110.983 795.975 110.217C790.044 104.605 783.456 99.9438 787.294 112.738C780.915 124.478 788.322 121.262 795.277 116.983Z" fill="#1F824A"/>
<path d="M859.427 123.019C860.334 122.373 861.543 122.301 862.538 122.805C890.894 137.132 907.854 124.007 907.948 121.301C908.037 118.745 891.956 104.332 862.752 116.651C861.722 117.086 860.521 116.931 859.661 116.222C853.359 111.028 846.468 106.829 851.172 119.331C845.611 131.479 852.781 127.764 859.427 123.019Z" fill="#1F824A"/>
<path d="M987.839 119.996C988.589 119.172 989.755 118.846 990.835 119.127C1021.58 127.118 1035.38 110.696 1034.89 108.032C1034.44 105.515 1015.67 94.8379 989.738 113.068C988.824 113.711 987.617 113.814 986.627 113.304C979.367 109.564 971.742 106.921 978.99 118.141C976.131 131.193 982.35 126.042 987.839 119.996Z" fill="#1F824A"/>
<path d="M1050.58 107.234C1051.16 106.287 1052.25 105.754 1053.36 105.834C1085.05 108.098 1095.63 89.4401 1094.67 86.9082C1093.76 84.5158 1073.36 77.4324 1051.18 100.076C1050.4 100.874 1049.23 101.195 1048.17 100.874C1040.35 98.5171 1032.37 97.3052 1041.54 107.02C1041.1 120.373 1046.28 114.177 1050.58 107.234Z" fill="#1F824A"/>
<path d="M1171.75 61.0849C1172.39 60.1745 1173.51 59.7066 1174.61 59.8527C1206.11 63.9846 1217.77 45.9846 1216.96 43.4004C1216.2 40.9586 1196.26 32.682 1172.78 53.9751C1171.95 54.7262 1170.77 54.9775 1169.72 54.5934C1162.05 51.7789 1154.16 50.0976 1162.74 60.3373C1161.51 73.6416 1167.05 67.7623 1171.75 61.0849Z" fill="#1F824A"/>
<path d="M1233.94 42.2822C1234.64 41.4138 1235.79 41.0167 1236.88 41.2317C1268.06 47.3261 1280.82 30.0906 1280.18 27.461C1279.57 24.9763 1260.18 15.4681 1235.42 35.2507C1234.54 35.9486 1233.34 36.1252 1232.32 35.6764C1224.85 32.3879 1217.08 30.2161 1225 40.9724C1222.94 54.174 1228.83 48.6525 1233.94 42.2822Z" fill="#1F824A"/>
<path d="M1263.1 61.9994C1263.82 61.1536 1264.98 60.7931 1266.06 61.0427C1297.03 68.1254 1310.34 51.3043 1309.78 48.6555C1309.25 46.1527 1290.17 36.0329 1264.79 55.0183C1263.89 55.688 1262.69 55.8265 1261.69 55.3454C1254.32 51.8209 1246.62 49.4031 1254.2 60.4058C1251.72 73.5354 1257.79 68.204 1263.1 61.9994Z" fill="#1F824A"/>
<path d="M1521.52 42.4046C1522.48 41.85 1523.69 41.8971 1524.63 42.4959C1551.45 59.5298 1569.61 48.1273 1569.97 45.4438C1570.31 42.9082 1555.72 26.9904 1525.45 36.3924C1524.38 36.7243 1523.2 36.4523 1522.41 35.6626C1516.65 29.8772 1510.2 25.0233 1513.66 37.9259C1506.94 49.4716 1514.44 46.476 1521.52 42.4046Z" fill="#1F824A"/>
<path d="M1200.37 79.0235C1201.04 78.1314 1202.17 77.6949 1203.27 77.8717C1234.65 82.881 1246.8 65.2132 1246.07 62.6075C1245.37 60.1454 1225.66 51.3155 1201.6 71.9453C1200.75 72.6729 1199.56 72.8911 1198.53 72.4779C1190.94 69.4506 1183.1 67.5497 1191.39 78.0248C1189.79 91.2897 1195.49 85.5672 1200.37 79.0235Z" fill="#1F824A"/>
<path d="M1078.41 123.512C1078.97 122.554 1080.05 121.999 1081.16 122.057C1112.89 123.68 1123.09 104.813 1122.08 102.301C1121.12 99.9269 1100.58 93.2568 1078.87 116.343C1078.1 117.157 1076.94 117.502 1075.87 117.202C1068 115.004 1060 113.953 1069.36 123.481C1069.2 136.84 1074.25 130.541 1078.41 123.512Z" fill="#1F824A"/>
<path d="M1391.45 41.3944C1392.3 40.6726 1393.5 40.4977 1394.53 40.9145C1424.01 52.7604 1439.78 38.2306 1439.65 35.5269C1439.52 32.9721 1422.26 19.9894 1394.22 34.7649C1393.23 35.2862 1392.02 35.2345 1391.1 34.602C1384.38 29.9673 1377.15 26.3734 1382.91 38.4266C1378.41 51.0064 1385.24 46.6909 1391.45 41.3944Z" fill="#1F824A"/>
<path d="M1017.14 142.393C1017.82 141.515 1018.96 141.102 1020.06 141.301C1051.32 146.953 1063.84 129.538 1063.16 126.918C1062.51 124.442 1042.99 115.21 1018.51 135.342C1017.65 136.052 1016.45 136.245 1015.42 135.811C1007.9 132.629 1000.1 130.568 1008.17 141.21C1006.31 154.44 1012.12 148.835 1017.14 142.393Z" fill="#1F824A"/>
<path d="M889.19 151.437C890.071 150.756 891.277 150.638 892.291 151.104C921.172 164.341 937.619 150.579 937.61 147.872C937.601 145.314 920.983 131.524 892.269 144.947C891.257 145.42 890.051 145.311 889.164 144.635C882.669 139.686 875.623 135.752 880.8 148.065C875.706 160.416 882.729 156.431 889.19 151.437Z" fill="#1F824A"/>
<path d="M697.464 127.87C698.458 127.367 699.664 127.477 700.573 128.125C726.46 146.541 745.196 136.107 745.694 133.446C746.165 130.931 732.427 114.27 701.706 122.072C700.623 122.348 699.459 122.014 698.715 121.184C693.263 115.105 687.079 109.92 689.856 122.986C682.536 134.163 690.182 131.565 697.464 127.87Z" fill="#1F824A"/>
<path d="M449.412 55.9186C450.441 55.4921 451.635 55.6938 452.492 56.4082C476.907 76.7348 496.381 67.7511 497.08 65.1355C497.74 62.664 485.305 45.0091 454.081 50.4591C452.98 50.6516 451.844 50.2308 451.165 49.347C446.19 42.8714 440.418 37.2321 442.195 50.4713C434.049 61.0614 441.87 59.0504 449.412 55.9186Z" fill="#1F824A"/>
<path d="M318.944 52.6734C319.78 51.9374 320.975 51.7425 322.016 52.1419C351.69 63.492 367.217 48.6998 367.034 45.9987C366.86 43.4465 349.389 30.7549 321.599 45.9985C320.619 46.5362 319.408 46.5048 318.48 45.8878C311.68 41.3664 304.395 37.8942 310.354 49.8491C306.066 62.5027 312.818 58.0733 318.944 52.6734Z" fill="#1F824A"/>
<path d="M824.906 147.369C825.838 146.758 827.049 146.734 828.024 147.276C855.802 162.692 873.259 150.234 873.457 147.534C873.645 144.983 858.135 129.957 828.476 141.135C827.43 141.529 826.235 141.328 825.404 140.586C819.308 135.152 812.585 130.688 816.801 143.363C810.773 155.287 818.081 151.852 824.906 147.369Z" fill="#1F824A"/>
<path d="M384.193 49.4863C385.124 48.8744 386.335 48.8485 387.31 49.3895C415.105 64.7761 432.548 52.2997 432.744 49.5995C432.929 47.0481 417.404 32.0388 387.756 43.248C386.71 43.6436 385.516 43.4432 384.683 42.7025C378.582 37.2749 371.854 32.8185 376.083 45.4891C370.068 57.4189 377.373 53.9769 384.193 49.4863Z" fill="#1F824A"/>
<path d="M511.216 75.8828C512.274 75.5332 513.45 75.8221 514.252 76.5975C537.107 98.6638 557.189 91.1359 558.078 88.5787C558.918 86.1625 547.815 67.6413 516.275 70.7814C515.162 70.8924 514.061 70.3892 513.448 69.4579C508.963 62.6342 503.621 56.5859 504.42 69.9198C495.517 79.8824 503.465 78.4518 511.216 75.8828Z" fill="#1F824A"/>
<path d="M1456.49 38.96C1457.4 38.3167 1458.61 38.2494 1459.6 38.7569C1487.91 53.1853 1504.92 40.1206 1505.02 37.4153C1505.12 34.8591 1489.09 20.3888 1459.84 32.6038C1458.81 33.0348 1457.61 32.8754 1456.75 32.1635C1450.47 26.9475 1443.59 22.7234 1448.25 35.2421C1442.65 47.3703 1449.83 43.6809 1456.49 38.96Z" fill="#1F824A"/>
<path d="M953.488 150.368C954.295 149.6 955.482 149.359 956.538 149.718C986.63 159.907 1001.57 144.522 1001.28 141.831C1001.01 139.287 983.059 127.284 955.882 143.595C954.924 144.171 953.713 144.186 952.762 143.606C945.791 139.352 938.377 136.165 944.796 147.88C941.002 160.69 947.577 156.002 953.488 150.368Z" fill="#1F824A"/>
<path d="M1138.8 99.7305C1139.42 98.8013 1140.52 98.2999 1141.63 98.4126C1173.24 101.594 1184.35 83.2509 1183.46 80.6922C1182.63 78.2746 1162.44 70.6025 1139.62 92.5931C1138.81 93.3687 1137.63 93.6556 1136.58 93.3031C1128.83 90.7208 1120.89 89.278 1129.77 99.2547C1128.95 112.59 1134.3 106.546 1138.8 99.7305Z" fill="#1F824A"/>
<path d="M760.948 139.281C761.914 138.727 763.125 138.776 764.065 139.377C790.856 156.451 809.037 145.076 809.399 142.393C809.741 139.858 795.173 123.918 764.889 133.274C763.821 133.605 762.641 133.331 761.856 132.54C756.101 126.746 749.662 121.882 753.1 134.79C746.359 146.326 753.863 143.341 760.948 139.281Z" fill="#1F824A"/>
<path d="M1326.87 49.2572C1327.65 48.4678 1328.83 48.1947 1329.9 48.5248C1360.25 57.9005 1374.78 42.1199 1374.42 39.4367C1374.07 36.9014 1355.81 25.3853 1329.08 42.4221C1328.14 43.0231 1326.93 43.0713 1325.96 42.5166C1318.88 38.4518 1311.38 35.4658 1318.11 47.0034C1314.66 59.9115 1321.11 55.0479 1326.87 49.2572Z" fill="#1F824A"/>
<path d="M572.339 96.3703C573.374 95.9599 574.565 96.1802 575.411 96.9078C599.506 117.613 619.118 108.934 619.857 106.329C620.556 103.868 608.398 86.0218 577.093 90.9843C575.989 91.1596 574.86 90.7211 574.195 89.8268C569.321 83.2745 563.637 77.5459 565.208 90.8111C556.898 101.273 564.749 99.3841 572.339 96.3703Z" fill="#1F824A"/>
</svg>
