<svg viewBox="0 0 1920 182" fill="none" xmlns="http://www.w3.org/2000/svg">
	<path d="M4605 143C4475 143 4372.18 39.0001 4223 39C4073.82 39 3995.4 134.863 3841 143C3686.6 151.137 3548.15 39.0001 3360.5 39C3172.85 39 3071.99 143 2880 143C2688.01 143 2587.15 39.0001 2399.5 39C2211.85 39 2114 143 1919 143C1710 137.5 1743.5 42 1449.5 36C1157 36 1104 164 872.499 148.5C510.499 113.5 562.499 53.5 369.499 45C191.998 45 102.499 143 0 143C-102.499 143 -294.363 39.0001 -481.375 39C-668.387 39 -768.878 143 -960.25 143C-1151.62 143 -1252.11 39 -1439.12 39C-1626.14 39 -1763.03 150.905 -1918 143C-2072.97 135.095 -2151.73 39 -2301.5 39C-2451.27 39 -2559.5 143 -2685 143C-2685 -33 -2685 -288 -2685 -288H4605C4605 -288 4605 35.9999 4605 143Z" fill="#245745"/>
</svg>
