<svg viewBox="0 0 1920 182" fill="none" xmlns="http://www.w3.org/2000/svg">
	<path d="M1569.2 49.5011C1570.2 49.0178 1571.4 49.1523 1572.3 49.8174C1597.8 68.7421 1616.73 58.6845 1617.28 56.0344C1617.8 53.5304 1604.4 36.6023 1573.55 43.7899C1572.46 44.0437 1571.3 43.6871 1570.58 42.8429C1565.25 36.6571 1559.17 31.3508 1561.69 44.4672C1554.16 55.4945 1561.85 53.0494 1569.2 49.5011Z" fill="#245745"/>
	<path d="M1063.05 130.563C1063.6 129.598 1064.67 129.031 1065.79 129.077C1097.51 130.344 1107.5 111.367 1106.46 108.867C1105.48 106.504 1084.88 100.066 1063.43 123.39C1062.67 124.213 1061.52 124.57 1060.44 124.283C1052.56 122.173 1044.55 121.212 1054.01 130.633C1053.99 143.991 1058.97 137.637 1063.05 130.563Z" fill="#245745"/>
	<path d="M937.05 151.761C937.879 151.018 939.072 150.812 940.117 151.202C969.875 162.279 985.26 147.348 985.052 144.649C984.855 142.098 967.279 129.568 939.644 145.063C938.669 145.61 937.459 145.589 936.526 144.981C929.689 140.522 922.376 137.117 928.44 149.016C924.269 161.707 930.977 157.216 937.05 151.761Z" fill="#245745"/>
	<path d="M1184.37 84.5389C1185.02 83.6365 1186.14 83.1823 1187.25 83.3417C1218.68 87.8542 1230.55 70.0002 1229.77 67.4069C1229.04 64.9566 1209.21 56.4405 1185.48 77.4435C1184.65 78.1843 1183.46 78.4212 1182.42 78.0245C1174.79 75.1179 1166.93 73.3415 1175.37 83.6823C1173.98 96.9682 1179.59 91.1576 1184.37 84.5389Z" fill="#245745"/>
	<path d="M1374.63 43.4543C1375.46 42.7142 1376.65 42.5132 1377.69 42.9073C1407.41 54.1053 1422.85 39.236 1422.66 36.5362C1422.47 33.9852 1404.94 21.3838 1377.25 36.7667C1376.27 37.3094 1375.06 37.2841 1374.13 36.6718C1367.31 32.1855 1360.01 28.7507 1366.03 40.674C1361.8 53.3479 1368.53 48.8847 1374.63 43.4543Z" fill="#245745"/>
	<path d="M618.728 109.96C619.748 109.514 620.946 109.694 621.815 110.392C646.595 130.258 665.885 120.916 666.535 118.288C667.148 115.805 654.391 98.3877 623.291 104.415C622.195 104.628 621.052 104.229 620.357 103.358C615.264 96.977 609.39 91.447 611.415 104.648C603.473 115.386 611.25 113.23 618.728 109.96Z" fill="#245745"/>
	<path d="M367.756 50.0439C368.661 49.3954 369.869 49.3212 370.865 49.8228C399.237 64.0869 416.158 50.925 416.246 48.2193C416.329 45.6627 400.225 31.2859 371.064 43.6688C370.036 44.1058 368.835 43.9533 367.974 43.2464C361.664 38.067 354.767 33.8829 359.497 46.3738C353.966 58.5335 361.124 54.8029 367.756 50.0439Z" fill="#245745"/>
	<path d="M1632.7 63.7466C1633.75 63.3634 1634.93 63.6145 1635.76 64.3637C1659.3 85.6839 1679.12 77.5194 1679.92 74.9356C1680.68 72.4942 1669 54.341 1637.59 58.4871C1636.48 58.6336 1635.37 58.166 1634.73 57.2549C1630.03 50.5794 1624.49 44.7061 1625.72 58.0051C1617.15 68.2453 1625.04 66.5616 1632.7 63.7466Z" fill="#245745"/>
	<path d="M808.57 146.191C809.511 145.596 810.721 145.592 811.686 146.15C839.188 162.03 856.841 149.869 857.085 147.173C857.315 144.625 842.067 129.343 812.241 140.018C811.189 140.395 809.999 140.173 809.18 139.418C803.18 133.883 796.535 129.307 800.536 142.05C794.313 153.869 801.674 150.558 808.57 146.191Z" fill="#245745"/>
	<path d="M1246.76 66.517C1247.47 65.6585 1248.62 65.2774 1249.71 65.5075C1280.79 72.0328 1293.78 54.9793 1293.18 52.3415C1292.6 49.8491 1273.36 40.0747 1248.33 59.508C1247.45 60.1935 1246.25 60.3535 1245.24 59.8906C1237.82 56.4994 1230.08 54.2204 1237.84 65.0835C1235.6 78.2527 1241.57 72.8146 1246.76 66.517Z" fill="#245745"/>
	<path d="M872.758 151.375C873.654 150.714 874.861 150.622 875.864 151.11C904.435 164.969 921.168 151.568 921.218 148.861C921.264 146.303 904.958 132.157 875.976 144.953C874.954 145.405 873.751 145.269 872.88 144.575C866.498 139.486 859.542 135.4 864.448 147.823C859.09 160.06 866.194 156.228 872.758 151.375Z" fill="#245745"/>
	<path d="M1504.6 41.4869C1505.55 40.9088 1506.76 40.9263 1507.71 41.5018C1534.93 57.8719 1552.8 46.0299 1553.09 43.3388C1553.36 40.796 1538.39 25.2423 1508.38 35.3811C1507.32 35.7389 1506.13 35.4959 1505.33 34.7259C1499.43 29.0841 1492.87 24.3901 1496.64 37.2024C1490.21 48.9075 1497.62 45.7297 1504.6 41.4869Z" fill="#245745"/>
	<path d="M1000.94 145.771C1001.66 144.923 1002.81 144.56 1003.9 144.807C1034.87 151.806 1048.12 134.953 1047.56 132.306C1047.02 129.805 1027.93 119.738 1002.61 138.787C1001.72 139.459 1000.52 139.6 999.511 139.122C992.14 135.618 984.438 133.221 992.036 144.201C989.596 157.335 995.645 151.989 1000.94 145.771Z" fill="#245745"/>
	<path d="M744.76 137.2C745.734 136.661 746.943 136.726 747.874 137.34C774.415 154.78 792.74 143.66 793.138 140.982C793.515 138.453 779.174 122.315 748.781 131.25C747.71 131.566 746.534 131.276 745.76 130.474C740.089 124.602 733.72 119.65 736.979 132.602C730.085 144.042 737.624 141.162 744.76 137.2Z" fill="#245745"/>
	<path d="M681.438 125.013C682.437 124.522 683.641 124.647 684.541 125.305C710.192 144.031 729.042 133.826 729.572 131.172C730.072 128.664 716.542 111.841 685.746 119.268C684.661 119.53 683.501 119.183 682.767 118.344C677.391 112.2 671.273 106.941 673.892 120.038C666.444 131.123 674.116 128.618 681.438 125.013Z" fill="#245745"/>
	<path d="M1123.14 106.091C1123.74 105.153 1124.83 104.637 1125.94 104.735C1157.58 107.486 1168.43 88.9971 1167.52 86.4511C1166.65 84.0455 1146.37 76.6497 1123.85 98.9442C1123.06 99.7306 1121.89 100.033 1120.83 99.6954C1113.05 97.219 1105.1 95.8845 1114.11 105.738C1113.46 119.08 1118.73 112.966 1123.14 106.091Z" fill="#245745"/>
	<path d="M1310.26 52.6197C1311.03 51.8149 1312.2 51.5184 1313.27 51.8271C1343.79 60.5934 1357.99 44.5287 1357.57 41.8537C1357.18 39.3261 1338.7 28.1788 1312.33 45.743C1311.4 46.3626 1310.19 46.4349 1309.21 45.8997C1302.06 41.9778 1294.51 39.1425 1301.46 50.5415C1298.27 63.5137 1304.62 58.5233 1310.26 52.6197Z" fill="#245745"/>
	<path d="M556.78 92.0348C557.82 91.6378 559.008 91.8733 559.843 92.6116C583.663 113.62 603.372 105.195 604.143 102.601C604.873 100.15 592.947 82.1519 561.599 86.7113C560.494 86.8724 559.371 86.4195 558.717 85.5169C553.93 78.9039 548.321 73.1039 549.724 86.3857C541.287 96.7379 549.157 94.9504 556.78 92.0348Z" fill="#245745"/>
	<path d="M496.13 70.3799C497.195 70.0544 498.364 70.3699 499.147 71.1631C521.49 93.7381 541.724 86.669 542.669 84.1331C543.563 81.737 532.884 62.9721 501.299 65.3954C500.185 65.4812 499.095 64.9532 498.505 64.0084C494.176 57.086 488.973 50.9191 489.473 64.2654C480.354 74.0217 488.327 72.7719 496.13 70.3799Z" fill="#245745"/>
	<path d="M1439.55 39.5832C1440.45 38.9188 1441.65 38.8232 1442.66 39.3072C1471.28 53.0685 1487.97 39.6096 1488.01 36.9027C1488.04 34.345 1471.69 20.2544 1442.75 33.1505C1441.73 33.6055 1440.53 33.4742 1439.65 32.7826C1433.25 27.7154 1426.28 23.6535 1431.23 36.0594C1425.92 48.3151 1433.01 44.4586 1439.55 39.5832Z" fill="#245745"/>
	<path d="M433.101 53.7308C434.105 53.2501 435.308 53.3876 436.201 54.055C461.658 73.0442 480.611 63.0345 481.169 60.3858C481.695 57.8831 468.338 40.9211 437.468 48.0307C436.38 48.2817 435.224 47.9222 434.499 47.0762C429.186 40.8769 423.123 35.5552 425.607 48.6779C418.044 59.6861 425.742 57.2605 433.101 53.7308Z" fill="#245745"/>
	<path d="M238.706 67.1222C239.44 66.2849 240.6 65.9378 241.684 66.1998C272.553 73.6361 286.043 56.9719 285.514 54.3174C285.015 51.8092 266.067 41.473 240.481 60.1623C239.579 60.8216 238.374 60.9462 237.375 60.4537C230.054 56.8456 222.388 54.3401 229.83 65.4269C227.205 78.5248 233.328 73.2644 238.706 67.1222Z" fill="#245745"/>
	<path d="M302.717 55.2614C303.53 54.5009 304.719 54.2703 305.771 54.6384C335.753 65.0951 350.825 49.8474 350.561 47.1534C350.312 44.6078 332.479 32.4456 305.171 48.5109C304.208 49.0777 302.998 49.0825 302.052 48.4935C295.124 44.178 287.743 40.9254 294.052 52.6955C290.145 65.4699 296.758 60.8413 302.717 55.2614Z" fill="#245745"/>
	<path d="M1694.52 84.1057C1695.6 83.8241 1696.75 84.1871 1697.5 85.0118C1718.9 108.483 1739.41 102.248 1740.46 99.7534C1741.45 97.3959 1731.55 78.2094 1699.89 79.337C1698.77 79.3772 1697.7 78.805 1697.15 77.8368C1693.11 70.7429 1688.16 64.3681 1688.12 77.7237C1678.61 87.0983 1686.63 86.1761 1694.52 84.1057Z" fill="#245745"/>
	<path d="M159.496 116.94C160.146 116.035 161.267 115.577 162.37 115.733C193.816 120.135 205.626 102.239 204.842 99.6488C204.101 97.2011 184.24 88.7546 160.587 109.841C159.754 110.584 158.567 110.825 157.525 110.432C149.888 107.552 142.015 105.804 150.498 116.115C149.155 129.405 154.74 123.575 159.496 116.94Z" fill="#245745"/>
	<path d="M1552.1 74.3325C1553.09 73.8233 1554.29 73.9265 1555.21 74.5683C1581.19 92.8251 1599.85 82.2796 1600.34 79.6161C1600.79 77.0993 1586.96 60.5244 1556.3 68.5102C1555.22 68.7921 1554.05 68.4657 1553.31 67.6406C1547.82 61.5951 1541.61 56.4481 1544.46 69.4949C1537.22 80.7142 1544.84 78.0703 1552.1 74.3325Z" fill="#245745"/>
	<path d="M1615.96 86.923C1616.99 86.5129 1618.18 86.7333 1619.03 87.4609C1643.11 108.165 1662.71 99.4904 1663.45 96.8866C1664.15 94.4264 1652 76.5815 1620.71 81.5387C1619.61 81.7139 1618.48 81.2753 1617.81 80.3811C1612.94 73.8294 1607.26 68.1011 1608.83 81.364C1600.53 91.8225 1608.37 89.9352 1615.96 86.923Z" fill="#245745"/>
	<path d="M221.902 98.7555C222.617 97.9018 223.769 97.5286 224.858 97.7662C255.887 104.504 268.999 87.5397 268.41 84.8978C267.854 82.4015 248.678 72.4956 223.519 91.7573C222.632 92.4368 221.431 92.5886 220.421 92.1188C213.021 88.6768 205.3 86.3449 212.99 97.2609C210.66 110.415 216.664 105.017 221.902 98.7555Z" fill="#245745"/>
	<path d="M1422.26 67.6359C1423.13 66.9503 1424.34 66.8258 1425.35 67.2856C1454.29 80.3573 1470.65 66.5022 1470.63 63.7951C1470.61 61.2372 1453.92 47.5425 1425.3 61.1285C1424.29 61.6078 1423.08 61.5054 1422.19 60.8349C1415.67 55.9224 1408.61 52.0288 1413.85 64.3125C1408.83 76.6922 1415.83 72.6669 1422.26 67.6359Z" fill="#245745"/>
	<path d="M1293.28 83.4484C1294.03 82.6283 1295.2 82.3082 1296.27 82.5953C1326.96 90.7452 1340.84 74.3979 1340.37 71.7318C1339.93 69.2127 1321.22 58.44 1295.21 76.5314C1294.3 77.1696 1293.09 77.2663 1292.1 76.7508C1284.87 72.9739 1277.26 70.2913 1284.44 81.5478C1281.51 94.5814 1287.76 89.4643 1293.28 83.4484Z" fill="#245745"/>
	<path d="M480.279 91.4372C481.348 91.1268 482.513 91.4588 483.285 92.2631C505.305 115.153 525.637 108.371 526.619 105.849C527.546 103.466 517.134 84.5513 485.518 86.5265C484.403 86.5965 483.321 86.0531 482.743 85.1C478.513 78.1169 473.398 71.8769 473.709 85.2289C464.453 94.8549 472.443 93.7183 480.279 91.4372Z" fill="#245745"/>
	<path d="M1107.05 139.907C1107.64 138.962 1108.73 138.431 1109.84 138.514C1141.51 140.842 1152.12 122.21 1151.17 119.676C1150.27 117.282 1129.89 110.158 1107.67 132.752C1106.89 133.549 1105.72 133.867 1104.66 133.543C1096.85 131.171 1088.88 129.943 1098.02 139.675C1097.55 153.025 1102.74 146.841 1107.05 139.907Z" fill="#245745"/>
	<path d="M984.043 175.675C984.799 174.857 985.968 174.541 987.044 174.832C1017.7 183.085 1031.63 166.785 1031.17 164.117C1030.74 161.597 1012.07 150.761 986.001 168.764C985.082 169.399 983.875 169.492 982.889 168.973C975.667 165.172 968.069 162.464 975.215 173.744C972.243 186.768 978.504 181.672 984.043 175.675Z" fill="#245745"/>
	<path d="M1046.88 163.482C1047.48 162.543 1048.57 162.024 1049.68 162.119C1081.32 164.79 1092.13 146.274 1091.21 143.73C1090.34 141.327 1070.04 133.982 1047.58 156.334C1046.79 157.122 1045.62 157.428 1044.55 157.092C1036.77 154.636 1028.81 153.321 1037.85 163.152C1037.24 176.496 1042.49 170.368 1046.88 163.482Z" fill="#245745"/>
	<path d="M1230.07 98.5001C1230.76 97.629 1231.9 97.2274 1233 97.4379C1264.18 103.405 1276.87 86.121 1276.22 83.4945C1275.6 81.0128 1256.18 71.5851 1231.51 91.4641C1230.64 92.1653 1229.44 92.3468 1228.42 91.9022C1220.94 88.6446 1213.16 86.5048 1221.12 97.2268C1219.12 110.434 1224.98 104.89 1230.07 98.5001Z" fill="#245745"/>
	<path d="M1357.44 72.9669C1358.25 72.2085 1359.44 71.981 1360.49 72.3518C1390.45 82.8875 1405.56 67.6794 1405.3 64.9847C1405.06 62.4385 1387.26 50.2294 1359.91 66.2228C1358.95 66.7871 1357.73 66.7887 1356.79 66.1972C1349.87 61.8634 1342.5 58.5915 1348.78 70.3781C1344.84 83.1423 1351.46 78.5311 1357.44 72.9669Z" fill="#245745"/>
	<path d="M664.708 148.854C665.713 148.376 666.915 148.515 667.807 149.184C693.228 168.222 712.201 158.249 712.763 155.601C713.294 153.1 699.97 136.112 669.086 143.163C667.997 143.412 666.842 143.05 666.118 142.202C660.818 135.993 654.765 130.66 657.223 143.787C649.64 154.781 657.342 152.37 664.708 148.854Z" fill="#245745"/>
	<path d="M602.172 133.053C603.197 132.62 604.393 132.814 605.253 133.522C629.794 153.684 649.195 144.574 649.876 141.954C650.519 139.479 637.971 121.91 606.801 127.564C605.702 127.764 604.564 127.351 603.88 126.471C598.864 120.03 593.056 114.43 594.923 127.655C586.853 138.296 594.656 136.234 602.172 133.053Z" fill="#245745"/>
	<path d="M540.488 114.294C541.533 113.912 542.717 114.165 543.542 114.915C567.06 136.261 586.887 128.119 587.695 125.536C588.46 123.095 576.792 104.929 545.382 109.04C544.274 109.186 543.158 108.717 542.518 107.805C537.825 101.124 532.3 95.2447 533.513 108.545C524.929 118.776 532.824 117.101 540.488 114.294Z" fill="#245745"/>
	<path d="M791.563 171.71C792.513 171.131 793.724 171.147 794.68 171.721C821.917 188.051 839.767 176.183 840.055 173.492C840.327 170.948 825.333 155.417 795.335 165.599C794.277 165.958 793.091 165.717 792.284 164.948C786.376 159.315 779.808 154.631 783.599 167.438C777.182 179.152 784.596 175.963 791.563 171.71Z" fill="#245745"/>
	<path d="M285.591 85.4092C286.382 84.6255 287.564 84.3607 288.626 84.6982C318.897 94.2845 333.523 78.6082 333.182 75.923C332.859 73.3858 314.683 61.7439 287.849 78.5908C286.903 79.1851 285.693 79.2249 284.731 78.6635C277.682 74.5499 270.21 71.512 276.856 83.0946C273.318 95.9763 279.796 91.1587 285.591 85.4092Z" fill="#245745"/>
	<path d="M350.393 78.2411C351.273 77.5583 352.477 77.4377 353.491 77.9008C382.389 91.0654 398.794 77.2629 398.778 74.5557C398.762 71.9977 382.119 58.2494 353.455 71.7434C352.444 72.2195 351.238 72.1133 350.351 71.4399C343.847 66.5065 336.795 62.5901 342 74.8907C336.939 87.2543 343.948 83.2514 350.393 78.2411Z" fill="#245745"/>
	<path d="M1678.28 105.68C1679.35 105.371 1680.52 105.705 1681.29 106.511C1703.27 129.438 1723.61 122.691 1724.6 120.17C1725.53 117.789 1715.15 98.8567 1683.53 100.778C1682.41 100.846 1681.33 100.301 1680.76 99.3471C1676.54 92.3568 1671.44 86.1081 1671.72 99.4606C1662.45 109.071 1670.44 107.948 1678.28 105.68Z" fill="#245745"/>
	<path d="M1256.89 118.047C1257.6 117.197 1258.76 116.828 1259.85 117.071C1290.85 123.941 1304.03 107.033 1303.45 104.389C1302.91 101.89 1283.77 91.9022 1258.53 111.056C1257.64 111.732 1256.44 111.878 1255.43 111.404C1248.05 107.931 1240.34 105.566 1247.98 116.515C1245.59 129.658 1251.62 124.287 1256.89 118.047Z" fill="#245745"/>
	<path d="M1194.3 135.451C1194.96 134.555 1196.09 134.111 1197.19 134.282C1228.57 139.101 1240.62 121.363 1239.87 118.762C1239.16 116.305 1219.42 107.596 1195.49 128.366C1194.64 129.099 1193.45 129.324 1192.42 128.917C1184.82 125.937 1176.97 124.083 1185.31 134.506C1183.8 147.778 1189.46 142.022 1194.3 135.451Z" fill="#245745"/>
	<path d="M378.255 104.021C379.176 103.395 380.386 103.35 381.368 103.877C409.38 118.837 426.621 106.098 426.776 103.395C426.922 100.841 411.177 86.0714 381.72 97.7295C380.681 98.1409 379.484 97.9588 378.641 97.2309C372.461 91.8973 365.669 87.5441 370.089 100.148C364.26 112.167 371.508 108.614 378.255 104.021Z" fill="#245745"/>
	<path d="M1320.53 104.872C1321.31 104.077 1322.48 103.795 1323.55 104.117C1353.96 113.262 1368.36 97.3742 1367.97 94.6943C1367.62 92.162 1349.27 80.786 1322.69 98.0215C1321.75 98.6295 1320.54 98.6869 1319.57 98.1395C1312.46 94.129 1304.95 91.2002 1311.76 102.685C1308.41 115.616 1314.82 110.705 1320.53 104.872Z" fill="#245745"/>
	<path d="M505.708 128.277C506.767 127.935 507.941 128.233 508.736 129.015C531.412 151.255 551.538 143.885 552.446 141.335C553.304 138.926 542.347 120.322 510.801 123.216C509.689 123.318 508.592 122.806 507.987 121.871C503.556 115.013 498.262 108.925 498.961 122.262C489.988 132.153 497.941 130.785 505.708 128.277Z" fill="#245745"/>
	<path d="M1515.01 96.4111C1515.97 95.8478 1517.18 95.8838 1518.13 96.474C1545.09 113.261 1563.13 101.695 1563.47 99.0088C1563.78 96.4706 1549.05 80.6886 1518.89 90.3643C1517.82 90.7058 1516.64 90.4446 1515.85 89.6623C1510.03 83.9304 1503.55 79.1361 1507.12 92.0047C1500.51 103.609 1507.98 100.546 1515.01 96.4111Z" fill="#245745"/>
	<path d="M1385.02 96.5176C1385.86 95.7889 1387.06 95.6042 1388.1 96.0124C1417.65 107.615 1433.3 92.9576 1433.14 90.2553C1432.99 87.7019 1415.64 74.8624 1387.73 89.8662C1386.75 90.3956 1385.54 90.3538 1384.61 89.7289C1377.86 85.1499 1370.61 81.6158 1376.46 93.6202C1372.06 106.235 1378.85 101.864 1385.02 96.5176Z" fill="#245745"/>
	<path d="M1450 93.5441C1450.9 92.8929 1452.11 92.815 1453.1 93.3137C1481.52 107.493 1498.4 94.2806 1498.48 91.5746C1498.56 89.0178 1482.41 74.6891 1453.29 87.1591C1452.26 87.5991 1451.06 87.4502 1450.19 86.7459C1443.87 81.5854 1436.96 77.4219 1441.73 89.8987C1436.23 102.075 1443.38 98.3229 1450 93.5441Z" fill="#245745"/>
	<path d="M443.512 109.403C444.532 108.955 445.729 109.133 446.6 109.829C471.414 129.652 490.689 120.277 491.333 117.648C491.943 115.165 479.155 97.769 448.066 103.851C446.97 104.065 445.826 103.668 445.13 102.798C440.026 96.4261 434.142 90.9062 436.19 104.104C428.267 114.855 436.041 112.686 443.512 109.403Z" fill="#245745"/>
	<path d="M313.096 107.982C313.923 107.237 315.116 107.028 316.161 107.415C345.945 118.425 361.295 103.458 361.081 100.759C360.879 98.2095 343.274 85.7196 315.674 101.278C314.701 101.827 313.49 101.809 312.556 101.203C305.708 96.7598 298.389 93.3714 304.48 105.256C300.337 117.957 307.035 113.451 313.096 107.982Z" fill="#245745"/>
	<path d="M1400.62 121.778C1401.47 121.067 1402.67 120.907 1403.7 121.337C1433.01 133.551 1448.96 119.221 1448.85 116.516C1448.76 113.96 1431.67 100.763 1403.46 115.184C1402.47 115.693 1401.26 115.626 1400.35 114.982C1393.69 110.264 1386.51 106.579 1392.12 118.703C1387.46 131.225 1394.34 126.995 1400.62 121.778Z" fill="#245745"/>
	<path d="M393.995 130.838C394.94 130.249 396.151 130.252 397.112 130.817C424.515 146.867 442.243 134.816 442.503 132.122C442.749 129.576 427.597 114.199 397.704 124.689C396.651 125.059 395.462 124.83 394.648 124.069C388.682 118.497 382.066 113.88 385.988 126.647C379.691 138.427 387.073 135.163 393.995 130.838Z" fill="#245745"/>
	<path d="M731.776 80.2916C732.756 79.7622 733.965 79.8407 734.89 80.4638C761.255 98.1891 779.709 87.2625 780.137 84.5892C780.541 82.0633 766.367 65.7715 735.863 74.3836C734.788 74.6876 733.615 74.385 732.849 73.5752C727.239 67.6419 720.92 62.6221 724.041 75.6102C717.02 86.9772 724.594 84.1776 731.776 80.2916Z" fill="#1F824A"/>
	<path d="M795.536 89.9828C796.486 89.3998 797.697 89.4111 798.655 89.9819C825.964 106.215 843.783 94.2803 844.061 91.5874C844.325 89.0429 829.267 73.5637 799.289 83.8569C798.232 84.2202 797.044 83.9833 796.235 83.2173C790.303 77.6049 783.715 72.9438 787.553 85.7384C781.174 97.4779 788.581 94.2618 795.536 89.9828Z" fill="#1F824A"/>
	<path d="M859.687 96.0211C860.594 95.3746 861.803 95.303 862.798 95.8069C891.154 110.134 908.114 97.009 908.208 94.3033C908.296 91.7468 892.216 77.3338 863.011 89.653C861.982 90.0877 860.78 89.9325 859.92 89.2237C853.619 84.0302 846.727 79.8306 851.432 92.3326C845.871 104.481 853.041 100.766 859.687 96.0211Z" fill="#1F824A"/>
	<path d="M988.099 92.9982C988.848 92.1741 990.015 91.8478 991.094 92.1293C1021.84 100.12 1035.63 83.698 1035.15 81.0339C1034.7 78.5166 1015.93 67.8398 989.998 86.07C989.084 86.7131 987.877 86.8161 986.886 86.3057C979.626 82.5659 972.001 79.9226 979.249 91.1434C976.39 104.194 982.61 99.0439 988.099 92.9982Z" fill="#1F824A"/>
	<path d="M1050.84 80.2358C1051.42 79.2891 1052.51 78.756 1053.62 78.8364C1085.31 81.0996 1095.89 62.4421 1094.93 59.9101C1094.02 57.5177 1073.62 50.4343 1051.44 73.0777C1050.66 73.8763 1049.49 74.1972 1048.43 73.8756C1040.61 71.519 1032.63 70.3072 1041.8 80.022C1041.36 93.3754 1046.54 87.1793 1050.84 80.2358Z" fill="#1F824A"/>
	<path d="M1172.01 34.0868C1172.65 33.1765 1173.77 32.7086 1174.87 32.8547C1206.37 36.9866 1218.03 18.9865 1217.22 16.4023C1216.46 13.9606 1196.52 5.68399 1173.04 26.9771C1172.21 27.7282 1171.03 27.9795 1169.98 27.5953C1162.31 24.7808 1154.42 23.0996 1163 33.3392C1161.77 46.6435 1167.31 40.7642 1172.01 34.0868Z" fill="#1F824A"/>
	<path d="M1263.35 34.9994C1264.08 34.1536 1265.24 33.7931 1266.32 34.0427C1297.29 41.1254 1310.6 24.3043 1310.04 21.6555C1309.51 19.1527 1290.43 9.03295 1265.05 28.0183C1264.15 28.688 1262.95 28.8265 1261.95 28.3454C1254.58 24.8209 1246.88 22.4031 1254.45 33.4058C1251.98 46.5354 1258.05 41.204 1263.35 34.9994Z" fill="#1F824A"/>
	<path d="M1200.63 52.0235C1201.3 51.1314 1202.43 50.6949 1203.53 50.8717C1234.91 55.881 1247.06 38.2132 1246.33 35.6075C1245.63 33.1454 1225.92 24.3155 1201.86 44.9453C1201.01 45.6729 1199.82 45.8911 1198.79 45.4779C1191.2 42.4506 1183.36 40.5497 1191.65 51.0248C1190.05 64.2897 1195.75 58.5672 1200.63 52.0235Z" fill="#1F824A"/>
	<path d="M1078.66 96.5121C1079.23 95.5538 1080.31 94.9988 1081.42 95.0568C1113.15 96.6798 1123.35 77.8126 1122.34 75.3006C1121.38 72.9269 1100.84 66.2568 1079.13 89.3432C1078.36 90.1575 1077.2 90.5019 1076.13 90.2019C1068.26 88.0037 1060.26 86.9531 1069.62 96.4808C1069.46 109.84 1074.51 103.541 1078.66 96.5121Z" fill="#1F824A"/>
	<path d="M1391.71 14.3944C1392.56 13.6726 1393.76 13.4977 1394.79 13.9145C1424.27 25.7604 1440.04 11.2306 1439.91 8.52686C1439.77 5.97211 1422.52 -7.01056 1394.48 7.76493C1393.49 8.28623 1392.28 8.23453 1391.36 7.60197C1384.64 2.96727 1377.41 -0.626565 1383.17 11.4266C1378.67 24.0064 1385.49 19.6909 1391.71 14.3944Z" fill="#1F824A"/>
	<path d="M1017.4 115.393C1018.08 114.515 1019.22 114.102 1020.32 114.301C1051.58 119.953 1064.1 102.538 1063.42 99.9176C1062.77 97.4418 1043.25 88.2096 1018.77 108.342C1017.91 109.052 1016.71 109.245 1015.68 108.811C1008.16 105.629 1000.36 103.568 1008.43 114.21C1006.57 127.44 1012.38 121.835 1017.4 115.393Z" fill="#1F824A"/>
	<path d="M889.45 124.437C890.332 123.756 891.537 123.638 892.551 124.104C921.432 137.341 937.88 123.579 937.87 120.872C937.861 118.314 921.243 104.524 892.53 117.947C891.517 118.42 890.311 118.311 889.425 117.635C882.93 112.686 875.883 108.752 881.06 121.065C875.966 133.416 882.989 129.431 889.45 124.437Z" fill="#1F824A"/>
	<path d="M697.724 100.872C698.717 100.369 699.924 100.479 700.832 101.127C726.719 119.543 745.455 109.109 745.954 106.448C746.425 103.933 732.687 87.2721 701.966 95.0742C700.882 95.3497 699.718 95.0162 698.974 94.1864C693.522 88.1068 687.338 82.9215 690.115 95.9877C682.795 107.165 690.441 104.567 697.724 100.872Z" fill="#1F824A"/>
	<path d="M953.749 123.37C954.555 122.602 955.743 122.361 956.799 122.72C986.891 132.909 1001.83 117.524 1001.54 114.832C1001.27 112.289 983.319 100.286 956.143 116.597C955.185 117.173 953.973 117.188 953.022 116.608C946.051 112.354 938.637 109.167 945.056 120.882C941.263 133.692 947.837 129.004 953.749 123.37Z" fill="#1F824A"/>
	<path d="M1139.06 72.7305C1139.68 71.8013 1140.78 71.2999 1141.89 71.4126C1173.5 74.5939 1184.61 56.2509 1183.72 53.6922C1182.89 51.2746 1162.7 43.6025 1139.88 65.5931C1139.07 66.3687 1137.89 66.6556 1136.84 66.3031C1129.09 63.7208 1121.15 62.278 1130.03 72.2547C1129.21 85.5898 1134.56 79.5465 1139.06 72.7305Z" fill="#1F824A"/>
	<path d="M761.207 112.281C762.174 111.727 763.384 111.776 764.324 112.377C791.115 129.451 809.296 118.076 809.658 115.393C810 112.858 795.432 96.9182 765.148 106.274C764.08 106.605 762.9 106.331 762.115 105.54C756.361 99.7459 749.921 94.8823 753.359 107.79C746.618 119.326 754.122 116.341 761.207 112.281Z" fill="#1F824A"/>
	<path d="M572.599 69.3703C573.634 68.9599 574.825 69.1802 575.67 69.9078C599.766 90.6127 619.378 81.9337 620.117 79.3293C620.816 76.8684 608.658 59.0218 577.352 63.9843C576.249 64.1596 575.12 63.7211 574.454 62.8268C569.581 56.2745 563.897 50.5459 565.468 63.8111C557.158 74.2729 565.009 72.3841 572.599 69.3703Z" fill="#1F824A"/>
</svg>
