<svg viewBox="0 0 1920 302" fill="none" xmlns="http://www.w3.org/2000/svg">
<g clip-path="url(#clip0_4410_56537)">
<path d="M4605 170C4475 170 4372.18 66 4223 66C4073.82 66 3995.4 161.863 3841 170C3686.6 178.137 3548.15 66 3360.5 66C3172.85 66 3071.99 170 2880 170C2688.01 170 2587.15 66 2399.5 66C2211.85 66 2114 170 1919 170C1710 164.5 1743.5 69 1449.5 63C1157 63 1104 191 872.499 175.5C510.499 140.5 562.499 80.5 369.499 72C191.998 72 102.499 170 0 170C-102.499 170 -294.363 66 -481.375 66C-668.387 66 -768.878 170 -960.25 170C-1151.62 170 -1252.11 66 -1439.12 66C-1626.14 66.0001 -1763.03 177.905 -1918 170C-2072.97 162.095 -2151.73 66 -2301.5 66C-2451.27 66.0001 -2559.5 170 -2685 170C-2685 -5.99999 -2685 -261 -2685 -261H4605C4605 -261 4605 62.9997 4605 170Z" fill="#245745"/>
</g>
<defs>
<clipPath id="clip0_4410_56537">
<rect width="7290" height="302" fill="white" transform="translate(-2685)"/>
</clipPath>
</defs>
</svg>
