<svg width="238" height="397" viewBox="0 0 238 397" fill="none" xmlns="http://www.w3.org/2000/svg">
<rect width="238" height="397" fill="#ffffff"/>
<g opacity="0.25">
<path d="M132.165 140.135L132.117 140.153C132.118 140.145 132.118 140.138 132.119 140.129C132.115 140.018 132.058 139.91 131.988 139.918C131.918 139.927 131.87 140.049 131.883 140.157C131.888 140.208 131.905 140.246 131.927 140.273C131.792 140.22 131.606 140.22 131.401 140.247C131.21 140.29 131.002 140.364 130.845 140.468C130.69 140.577 130.595 140.686 130.548 140.791C130.527 140.832 130.489 140.867 130.445 140.881C130.324 140.915 130.206 140.993 130.119 141.112C129.995 141.27 129.997 141.487 130.089 141.64C130.271 141.931 130.651 141.948 130.888 141.759C130.947 141.709 130.991 141.647 131.02 141.579C131.037 141.538 131.075 141.513 131.119 141.512C131.225 141.507 131.339 141.468 131.465 141.378C131.59 141.296 131.716 141.194 131.823 141.07C131.934 140.966 132.028 140.833 132.086 140.716C132.087 140.749 132.099 140.789 132.125 140.833C132.182 140.929 132.269 141.011 132.309 140.988C132.35 140.965 132.338 140.843 132.29 140.745C132.286 140.738 132.283 140.733 132.279 140.726C132.292 140.724 132.305 140.722 132.318 140.718C132.49 140.671 132.621 140.529 132.604 140.359C132.59 140.198 132.387 140.076 132.165 140.135Z" fill="black"/>
<path d="M128.187 144.364L128.16 144.406C128.155 144.399 128.151 144.393 128.146 144.386C128.075 144.3 127.963 144.247 127.912 144.295C127.862 144.344 127.898 144.47 127.975 144.548C128.011 144.585 128.048 144.605 128.082 144.614C127.942 144.652 127.794 144.762 127.647 144.905C127.521 145.052 127.402 145.234 127.34 145.41C127.284 145.589 127.276 145.732 127.302 145.843C127.311 145.888 127.302 145.938 127.276 145.975C127.201 146.075 127.154 146.206 127.158 146.353C127.157 146.552 127.293 146.724 127.461 146.791C127.785 146.915 128.098 146.704 128.17 146.413C128.187 146.338 128.183 146.263 128.165 146.192C128.152 146.149 128.167 146.107 128.202 146.08C128.283 146.013 128.35 145.915 128.395 145.769C128.445 145.629 128.482 145.473 128.49 145.311C128.515 145.162 128.507 145.001 128.482 144.873C128.503 144.899 128.537 144.923 128.586 144.943C128.689 144.986 128.81 145 128.828 144.958C128.846 144.916 128.761 144.826 128.663 144.776C128.655 144.773 128.649 144.77 128.642 144.767C128.651 144.758 128.661 144.749 128.669 144.738C128.776 144.599 128.793 144.408 128.675 144.282C128.564 144.162 128.327 144.185 128.187 144.364Z" fill="black"/>
<path d="M126.434 144.571L126.398 144.607C126.395 144.599 126.393 144.593 126.389 144.585C126.338 144.486 126.239 144.412 126.179 144.449C126.119 144.487 126.129 144.617 126.188 144.709C126.215 144.753 126.248 144.78 126.279 144.795C126.133 144.804 125.966 144.883 125.793 144.993C125.639 145.111 125.484 145.267 125.386 145.426C125.294 145.59 125.257 145.728 125.259 145.842C125.259 145.888 125.24 145.935 125.206 145.967C125.112 146.049 125.039 146.169 125.012 146.312C124.97 146.508 125.067 146.703 125.217 146.802C125.508 146.989 125.859 146.845 125.991 146.574C126.022 146.504 126.035 146.43 126.031 146.356C126.028 146.312 126.051 146.273 126.091 146.254C126.185 146.205 126.271 146.122 126.345 145.988C126.423 145.861 126.492 145.716 126.534 145.559C126.588 145.419 126.615 145.259 126.617 145.129C126.632 145.158 126.66 145.189 126.703 145.218C126.796 145.281 126.911 145.319 126.938 145.281C126.964 145.243 126.9 145.138 126.814 145.069C126.807 145.065 126.802 145.061 126.795 145.057C126.806 145.05 126.817 145.043 126.828 145.033C126.962 144.919 127.018 144.736 126.928 144.589C126.845 144.449 126.608 144.424 126.434 144.571Z" fill="black"/>
<path d="M135.503 140.55L135.459 140.55C135.462 140.542 135.465 140.536 135.468 140.528C135.502 140.423 135.492 140.302 135.44 140.286C135.386 140.272 135.319 140.361 135.28 140.465C135.263 140.513 135.259 140.554 135.264 140.587C135.103 140.386 134.788 140.166 134.456 140.069C134.293 140.021 134.144 140.017 134.037 140.046C133.993 140.057 133.939 140.05 133.901 140.021C133.8 139.943 133.661 139.894 133.5 139.905C133.287 139.91 133.1 140.057 133.053 140.224C132.972 140.552 133.187 140.839 133.463 140.895C133.535 140.908 133.61 140.91 133.681 140.892C133.723 140.882 133.765 140.894 133.795 140.927C133.87 141.008 133.97 141.068 134.139 141.118C134.461 141.214 134.945 141.213 135.194 141.052C135.177 141.082 135.168 141.122 135.172 141.174C135.179 141.283 135.25 141.401 135.311 141.394C135.374 141.389 135.411 141.272 135.399 141.163C135.397 141.155 135.396 141.149 135.394 141.141L135.441 141.149C135.653 141.172 135.833 141.046 135.84 140.878C135.847 140.713 135.697 140.571 135.503 140.55Z" fill="black"/>
<path d="M138.479 139.96L138.445 139.986C138.443 139.978 138.441 139.972 138.439 139.963C138.399 139.859 138.318 139.771 138.268 139.786C138.218 139.8 138.215 139.92 138.249 140.024C138.265 140.073 138.288 140.108 138.313 140.131C138.049 140.069 137.669 140.1 137.387 140.178C137.245 140.226 137.141 140.272 137.07 140.349C137.042 140.381 136.999 140.392 136.959 140.377C136.851 140.34 136.738 140.347 136.617 140.385C136.456 140.447 136.322 140.593 136.282 140.767C136.203 141.096 136.485 141.39 136.863 141.35C136.955 141.337 137.04 141.306 137.111 141.262C137.153 141.237 137.206 141.232 137.253 141.244C137.366 141.274 137.519 141.287 137.706 141.226C138.082 141.122 138.457 140.809 138.545 140.542C138.551 140.575 138.569 140.612 138.603 140.651C138.677 140.734 138.797 140.785 138.848 140.745C138.899 140.704 138.854 140.587 138.778 140.509C138.771 140.503 138.766 140.499 138.76 140.494L138.802 140.472C138.987 140.36 139.049 140.152 138.948 140.015C138.85 139.883 138.641 139.861 138.479 139.96Z" fill="black"/>
<path d="M138.835 137.489L138.812 137.525C138.807 137.518 138.803 137.513 138.798 137.506C138.724 137.422 138.617 137.367 138.575 137.398C138.533 137.428 138.573 137.541 138.642 137.627C138.674 137.667 138.708 137.693 138.739 137.706C138.47 137.738 138.124 137.895 137.887 138.064C137.77 138.157 137.689 138.235 137.65 138.332C137.634 138.371 137.598 138.396 137.555 138.396C137.441 138.397 137.338 138.442 137.238 138.519C137.108 138.631 137.034 138.813 137.059 138.991C137.1 139.326 137.469 139.506 137.808 139.341C137.891 139.298 137.959 139.239 138.011 139.174C138.041 139.137 138.089 139.114 138.138 139.11C138.255 139.1 138.402 139.06 138.556 138.94C138.873 138.715 139.114 138.294 139.102 138.013C139.119 138.042 139.149 138.072 139.195 138.096C139.294 138.148 139.425 138.156 139.459 138.101C139.492 138.046 139.408 137.951 139.309 137.903C139.3 137.9 139.294 137.898 139.287 137.896L139.319 137.861C139.453 137.692 139.437 137.476 139.294 137.383C139.155 137.291 138.952 137.342 138.835 137.489Z" fill="black"/>
<path d="M140.755 137.828L140.732 137.864C140.727 137.858 140.723 137.853 140.718 137.846C140.639 137.769 140.525 137.719 140.485 137.754C140.446 137.789 140.494 137.9 140.57 137.981C140.605 138.018 140.641 138.041 140.673 138.051C140.409 138.105 140.066 138.3 139.848 138.521C139.729 138.636 139.666 138.746 139.64 138.85C139.629 138.891 139.597 138.925 139.555 138.938C139.442 138.971 139.341 139.044 139.265 139.151C139.164 139.3 139.148 139.498 139.226 139.66C139.371 139.967 139.773 140.027 140.039 139.793C140.103 139.734 140.151 139.665 140.182 139.593C140.2 139.55 140.239 139.518 140.285 139.508C140.396 139.482 140.514 139.414 140.642 139.291C140.901 139.031 141.095 138.608 141.061 138.328C141.08 138.356 141.113 138.383 141.161 138.404C141.263 138.448 141.393 138.447 141.421 138.39C141.449 138.333 141.362 138.246 141.257 138.205C141.248 138.203 141.242 138.201 141.234 138.199L141.265 138.163C141.38 137.983 141.354 137.771 141.206 137.688C141.059 137.606 140.856 137.668 140.755 137.828Z" fill="black"/>
<path d="M128.862 141.38L128.849 141.421C128.843 141.416 128.838 141.412 128.83 141.406C128.736 141.349 128.613 141.328 128.583 141.371C128.553 141.415 128.627 141.511 128.72 141.572C128.763 141.6 128.803 141.614 128.837 141.616C128.593 141.73 128.307 141.999 128.149 142.264C128.061 142.403 128.026 142.525 128.026 142.631C128.025 142.674 128.003 142.715 127.965 142.737C127.863 142.795 127.782 142.89 127.734 143.011C127.672 143.179 127.705 143.376 127.819 143.515C128.034 143.779 128.439 143.744 128.642 143.455C128.69 143.384 128.719 143.306 128.732 143.228C128.739 143.182 128.77 143.142 128.812 143.122C128.913 143.071 129.012 142.977 129.106 142.828C129.294 142.516 129.382 142.059 129.28 141.796C129.306 141.818 129.344 141.837 129.396 141.846C129.506 141.865 129.632 141.834 129.645 141.772C129.659 141.71 129.553 141.646 129.441 141.63C129.432 141.63 129.426 141.63 129.418 141.63L129.439 141.588C129.508 141.386 129.43 141.186 129.267 141.14C129.104 141.094 128.922 141.202 128.862 141.38Z" fill="black"/>
<path d="M141.722 134.944L141.724 134.987C141.716 134.984 141.71 134.982 141.701 134.979C141.593 134.951 141.47 134.966 141.456 135.016C141.44 135.067 141.538 135.138 141.645 135.17C141.695 135.184 141.737 135.186 141.771 135.179C141.572 135.358 141.381 135.702 141.308 135.995C141.268 136.145 141.273 136.265 141.298 136.363C141.309 136.403 141.299 136.446 141.269 136.476C141.191 136.555 141.126 136.654 141.114 136.782C141.093 136.953 141.161 137.135 141.306 137.252C141.565 137.469 141.967 137.358 142.097 137.017C142.132 136.934 142.144 136.849 142.135 136.767C142.13 136.719 142.15 136.671 142.186 136.639C142.275 136.562 142.345 136.438 142.392 136.259C142.482 135.903 142.424 135.445 142.248 135.222C142.28 135.236 142.321 135.243 142.373 135.237C142.485 135.224 142.597 135.158 142.591 135.096C142.585 135.033 142.462 135.002 142.352 135.019C142.344 135.021 142.338 135.023 142.33 135.025L142.336 134.979C142.348 134.768 142.211 134.598 142.04 134.6C141.872 134.601 141.733 134.755 141.722 134.944Z" fill="black"/>
<path d="M143.769 125.629L143.733 125.653C143.731 125.645 143.73 125.638 143.729 125.63C143.696 125.524 143.619 125.43 143.568 125.444C143.516 125.456 143.505 125.576 143.533 125.682C143.546 125.731 143.567 125.767 143.591 125.791C143.331 125.719 142.932 125.739 142.638 125.83C142.487 125.875 142.385 125.941 142.312 126.013C142.283 126.044 142.24 126.058 142.199 126.048C142.089 126.024 141.969 126.022 141.851 126.078C141.691 126.151 141.568 126.302 141.543 126.484C141.488 126.813 141.794 127.092 142.159 127.023C142.249 127.008 142.33 126.974 142.397 126.924C142.436 126.895 142.488 126.887 142.534 126.9C142.648 126.935 142.792 126.928 142.973 126.874C143.33 126.764 143.7 126.477 143.802 126.214C143.806 126.247 143.822 126.285 143.854 126.326C143.923 126.412 144.039 126.471 144.091 126.434C144.142 126.396 144.105 126.277 144.033 126.194C144.027 126.189 144.022 126.184 144.016 126.179L144.06 126.16C144.249 126.06 144.326 125.857 144.235 125.714C144.147 125.575 143.94 125.539 143.769 125.629Z" fill="black"/>
<path d="M141.436 131.734V131.783C141.428 131.78 141.422 131.778 141.414 131.774C141.306 131.744 141.182 131.763 141.166 131.829C141.156 131.894 141.261 131.974 141.371 131.997C141.422 132.008 141.464 132.005 141.497 131.993C141.299 132.205 141.221 132.683 141.291 133.025C141.323 133.198 141.385 133.317 141.458 133.393C141.488 133.424 141.5 133.469 141.489 133.51C141.455 133.623 141.458 133.728 141.504 133.851C141.57 134.013 141.727 134.14 141.906 134.172C142.245 134.234 142.531 133.949 142.482 133.59C142.468 133.502 142.437 133.415 142.39 133.352C142.363 133.314 142.357 133.265 142.373 133.222C142.412 133.114 142.42 132.987 142.389 132.826C142.327 132.512 142.158 132.18 141.977 131.99C142.009 132 142.051 132.001 142.102 131.992C142.212 131.97 142.316 131.912 142.304 131.864C142.297 131.817 142.176 131.79 142.065 131.805C142.056 131.807 142.05 131.808 142.043 131.81C142.045 131.796 142.049 131.784 142.05 131.769C142.058 131.59 141.95 131.423 141.784 131.393C141.616 131.362 141.447 131.514 141.436 131.734Z" fill="black"/>
<path d="M140.26 130.403L140.245 130.45C140.239 130.444 140.233 130.44 140.227 130.434C140.134 130.374 140.009 130.355 139.974 130.413C139.943 130.472 140.019 130.579 140.116 130.634C140.161 130.66 140.203 130.669 140.237 130.668C139.983 130.811 139.759 131.242 139.719 131.589C139.696 131.763 139.717 131.895 139.763 131.989C139.782 132.028 139.78 132.074 139.756 132.11C139.689 132.207 139.659 132.308 139.664 132.439C139.676 132.613 139.786 132.781 139.947 132.864C140.25 133.025 140.611 132.84 140.677 132.484C140.691 132.395 140.689 132.304 140.664 132.23C140.65 132.185 140.659 132.136 140.688 132.1C140.758 132.009 140.806 131.891 140.827 131.728C140.866 131.41 140.808 131.044 140.695 130.809C140.723 130.827 140.763 130.842 140.814 130.848C140.925 130.86 141.042 130.836 141.046 130.787C141.054 130.74 140.948 130.678 140.837 130.659C140.828 130.658 140.822 130.657 140.814 130.657C140.821 130.645 140.828 130.634 140.834 130.621C140.897 130.452 140.847 130.261 140.699 130.182C140.548 130.103 140.339 130.197 140.26 130.403Z" fill="black"/>
<path d="M142.952 128.712L142.923 128.749C142.919 128.742 142.916 128.736 142.911 128.728C142.846 128.638 142.74 128.575 142.69 128.613C142.641 128.651 142.67 128.774 142.737 128.862C142.768 128.903 142.802 128.928 142.834 128.941C142.55 128.967 142.167 129.231 141.963 129.544C141.862 129.702 141.81 129.833 141.817 129.955C141.819 130.003 141.798 130.051 141.76 130.082C141.658 130.163 141.573 130.284 141.553 130.439C141.513 130.646 141.605 130.844 141.769 130.935C142.067 131.093 142.416 130.95 142.528 130.696C142.558 130.63 142.576 130.561 142.575 130.491C142.575 130.449 142.598 130.412 142.635 130.392C142.72 130.344 142.818 130.268 142.9 130.139C143.064 129.888 143.199 129.515 143.195 129.25C143.213 129.278 143.243 129.307 143.288 129.333C143.385 129.387 143.508 129.407 143.535 129.36C143.562 129.314 143.487 129.216 143.392 129.16C143.384 129.156 143.379 129.153 143.371 129.15L143.403 129.121C143.53 128.975 143.557 128.777 143.435 128.657C143.318 128.541 143.091 128.554 142.952 128.712Z" fill="black"/>
<path d="M145.13 126.206L145.098 126.24C145.094 126.233 145.092 126.227 145.088 126.219C145.033 126.123 144.933 126.049 144.88 126.082C144.827 126.115 144.843 126.241 144.901 126.334C144.928 126.378 144.959 126.406 144.989 126.422C144.704 126.422 144.296 126.646 144.061 126.937C143.944 127.085 143.88 127.211 143.875 127.332C143.871 127.38 143.845 127.426 143.804 127.453C143.695 127.523 143.598 127.636 143.562 127.788C143.502 127.99 143.572 128.196 143.726 128.303C144.007 128.489 144.369 128.381 144.506 128.139C144.543 128.076 144.568 128.01 144.574 127.94C144.578 127.898 144.605 127.863 144.643 127.848C144.733 127.807 144.838 127.742 144.933 127.622C145.121 127.388 145.294 127.03 145.317 126.765C145.332 126.796 145.359 126.827 145.401 126.857C145.493 126.921 145.612 126.952 145.644 126.909C145.676 126.865 145.611 126.761 145.522 126.695C145.515 126.691 145.51 126.688 145.503 126.684L145.537 126.657C145.679 126.525 145.726 126.33 145.616 126.199C145.512 126.072 145.285 126.063 145.13 126.206Z" fill="black"/>
<path d="M133.956 141.812L133.906 141.812C133.91 141.804 133.912 141.798 133.916 141.79C133.951 141.685 133.936 141.563 133.868 141.547C133.806 141.533 133.725 141.633 133.699 141.739C133.687 141.789 133.689 141.83 133.699 141.862C133.5 141.67 133.076 141.551 132.732 141.581C132.558 141.594 132.43 141.645 132.343 141.712C132.307 141.74 132.259 141.751 132.215 141.738C132.097 141.702 131.959 141.71 131.823 141.772C131.639 141.856 131.521 142.046 131.542 142.224C131.596 142.553 131.883 142.756 132.154 142.709C132.225 142.696 132.289 142.666 132.347 142.626C132.381 142.602 132.425 142.599 132.462 142.617C132.554 142.664 132.67 142.683 132.824 142.672C133.128 142.646 133.493 142.51 133.685 142.332C133.674 142.364 133.671 142.405 133.679 142.455C133.696 142.564 133.749 142.669 133.796 142.66C133.839 142.653 133.868 142.535 133.86 142.427C133.858 142.418 133.857 142.412 133.856 142.404C133.868 142.407 133.88 142.41 133.893 142.411C133.94 142.414 133.958 142.412 133.995 142.401C134.041 142.395 134.085 142.381 134.122 142.361C134.199 142.321 134.253 142.255 134.27 142.174C134.287 142.092 134.265 142.011 134.216 141.945C134.191 141.912 134.16 141.883 134.124 141.861C134.078 141.837 134.005 141.815 133.956 141.812Z" fill="black"/>
<path d="M130.62 142.712L130.589 142.75C130.585 142.743 130.582 142.737 130.578 142.729C130.514 142.639 130.405 142.576 130.351 142.619C130.303 142.66 130.334 142.783 130.405 142.867C130.438 142.907 130.472 142.93 130.505 142.943C130.228 142.981 129.875 143.239 129.691 143.526C129.596 143.67 129.56 143.799 129.561 143.908C129.563 143.953 129.542 143.997 129.505 144.024C129.404 144.094 129.327 144.206 129.295 144.349C129.252 144.544 129.335 144.751 129.492 144.842C129.792 145 130.131 144.899 130.257 144.659C130.29 144.596 130.304 144.528 130.306 144.458C130.307 144.417 130.332 144.381 130.369 144.364C130.463 144.32 130.548 144.241 130.633 144.114C130.795 143.862 130.906 143.495 130.878 143.238C130.897 143.265 130.929 143.293 130.974 143.317C131.073 143.369 131.19 143.392 131.212 143.349C131.231 143.312 131.153 143.218 131.06 143.159C131.053 143.155 131.047 143.152 131.04 143.148C131.05 143.14 131.059 143.133 131.068 143.124C131.099 143.088 131.108 143.074 131.122 143.038C131.145 142.998 131.16 142.956 131.166 142.914C131.18 142.83 131.159 142.748 131.103 142.685C131.048 142.623 130.968 142.591 130.885 142.589C130.844 142.589 130.801 142.595 130.761 142.61C130.714 142.631 130.652 142.674 130.62 142.712Z" fill="black"/>
<path d="M136.999 141.976C136.985 141.978 136.972 141.983 136.958 141.987C136.96 141.978 136.96 141.972 136.962 141.963C136.967 141.854 136.929 141.738 136.878 141.735C136.826 141.731 136.777 141.838 136.768 141.947C136.764 141.997 136.771 142.038 136.785 142.069C136.574 141.909 136.204 141.805 135.904 141.802C135.751 141.797 135.636 141.828 135.548 141.882C135.512 141.906 135.467 141.903 135.432 141.882C135.337 141.822 135.224 141.795 135.098 141.818C134.929 141.843 134.774 141.963 134.705 142.132C134.575 142.439 134.783 142.777 135.126 142.807C135.211 142.815 135.293 142.803 135.366 142.777C135.409 142.761 135.457 142.77 135.495 142.794C135.588 142.853 135.718 142.891 135.894 142.896C136.245 142.9 136.661 142.744 136.838 142.536C136.831 142.569 136.833 142.61 136.849 142.659C136.884 142.763 136.968 142.859 137.026 142.841C137.083 142.821 137.089 142.698 137.051 142.596C137.048 142.588 137.045 142.583 137.041 142.576L137.086 142.572C137.288 142.54 137.424 142.382 137.39 142.219C137.356 142.056 137.181 141.947 136.999 141.976Z" fill="black"/>
<path d="M126.789 141.868C126.783 141.881 126.78 141.894 126.776 141.907C126.769 141.902 126.764 141.898 126.757 141.892C126.666 141.829 126.546 141.797 126.516 141.838C126.485 141.878 126.55 141.977 126.638 142.043C126.68 142.073 126.719 142.089 126.753 142.095C126.502 142.182 126.213 142.431 126.047 142.677C125.961 142.801 125.926 142.912 125.925 143.014C125.925 143.056 125.899 143.092 125.862 143.109C125.759 143.155 125.675 143.234 125.627 143.35C125.556 143.503 125.576 143.696 125.684 143.843C125.878 144.117 126.281 144.128 126.492 143.861C126.544 143.795 126.578 143.722 126.595 143.647C126.604 143.603 126.638 143.568 126.679 143.55C126.78 143.506 126.883 143.419 126.983 143.276C127.175 142.989 127.266 142.561 127.183 142.303C127.207 142.326 127.244 142.347 127.294 142.36C127.402 142.388 127.531 142.371 127.546 142.313C127.56 142.255 127.458 142.184 127.349 142.159C127.341 142.159 127.335 142.158 127.327 142.157L127.348 142.118C127.429 141.935 127.367 141.737 127.208 141.677C127.05 141.617 126.862 141.702 126.789 141.868Z" fill="black"/>
<path d="M139.796 140.95C139.784 140.958 139.773 140.967 139.763 140.975C139.76 140.968 139.759 140.961 139.756 140.953C139.715 140.851 139.631 140.761 139.583 140.779C139.534 140.796 139.536 140.917 139.575 141.02C139.593 141.068 139.616 141.103 139.641 141.125C139.379 141.059 139.001 141.121 138.726 141.236C138.589 141.302 138.494 141.365 138.436 141.45C138.412 141.483 138.373 141.503 138.332 141.497C138.223 141.487 138.109 141.503 138.002 141.568C137.86 141.66 137.769 141.836 137.773 142.012C137.778 142.351 138.104 142.571 138.436 142.466C138.518 142.444 138.588 142.397 138.643 142.341C138.676 142.308 138.723 142.294 138.768 142.302C138.878 142.32 139.018 142.313 139.178 142.236C139.501 142.101 139.811 141.783 139.887 141.529C139.895 141.561 139.914 141.598 139.949 141.636C140.024 141.716 140.139 141.766 140.183 141.726C140.228 141.686 140.181 141.572 140.104 141.493C140.097 141.488 140.092 141.484 140.086 141.479L140.126 141.458C140.299 141.353 140.355 141.152 140.254 141.014C140.157 140.881 139.953 140.855 139.796 140.95Z" fill="black"/>
<path d="M141.993 138.936C141.985 138.948 141.979 138.96 141.972 138.972C141.967 138.965 141.963 138.96 141.958 138.953C141.882 138.873 141.771 138.819 141.733 138.853C141.696 138.888 141.737 138.996 141.811 139.078C141.846 139.116 141.88 139.14 141.912 139.152C141.778 139.168 141.627 139.225 141.488 139.306C141.342 139.382 141.204 139.48 141.101 139.589C140.993 139.697 140.931 139.797 140.91 139.897C140.901 139.937 140.872 139.97 140.831 139.982C140.726 140.014 140.624 140.072 140.553 140.175C140.455 140.314 140.445 140.514 140.521 140.675C140.665 140.983 141.05 141.052 141.311 140.835C141.377 140.782 141.423 140.715 141.451 140.643C141.468 140.6 141.505 140.57 141.55 140.56C141.657 140.537 141.778 140.476 141.901 140.353C142.019 140.228 142.127 140.069 142.199 139.908C142.266 139.74 142.302 139.574 142.291 139.441C142.31 139.469 142.341 139.496 142.388 139.519C142.488 139.567 142.619 139.577 142.643 139.522C142.669 139.468 142.584 139.378 142.482 139.333C142.474 139.33 142.468 139.328 142.46 139.326L142.49 139.292C142.608 139.13 142.588 138.924 142.446 138.833C142.303 138.742 142.101 138.788 141.993 138.936Z" fill="black"/>
<path d="M143.222 136.267C143.218 136.281 143.217 136.294 143.216 136.307C143.208 136.303 143.203 136.3 143.195 136.296C143.093 136.254 142.968 136.248 142.945 136.294C142.923 136.339 143.01 136.422 143.112 136.468C143.159 136.489 143.201 136.497 143.234 136.496C143.011 136.634 142.783 136.938 142.672 137.21C142.621 137.351 142.606 137.464 142.624 137.563C142.631 137.603 142.617 137.643 142.584 137.668C142.499 137.735 142.433 137.829 142.404 137.948C142.368 138.111 142.434 138.299 142.564 138.421C142.813 138.655 143.201 138.582 143.36 138.279C143.402 138.206 143.414 138.123 143.415 138.046C143.414 138.001 143.437 137.958 143.476 137.932C143.569 137.87 143.656 137.765 143.715 137.601C143.845 137.281 143.841 136.843 143.7 136.608C143.73 136.626 143.77 136.639 143.822 136.641C143.933 136.645 144.052 136.601 144.055 136.541C144.058 136.482 143.944 136.434 143.832 136.433C143.823 136.434 143.817 136.434 143.809 136.435L143.823 136.393C143.864 136.198 143.753 136.017 143.587 135.991C143.418 135.965 143.259 136.089 143.222 136.267Z" fill="black"/>
<path d="M143.27 133.322C143.272 133.336 143.277 133.349 143.28 133.362C143.272 133.361 143.266 133.36 143.257 133.359C143.146 133.356 143.028 133.397 143.024 133.448C143.021 133.5 143.134 133.545 143.246 133.551C143.298 133.553 143.339 133.545 143.37 133.531C143.215 133.742 143.121 134.114 143.131 134.41C143.141 134.561 143.169 134.672 143.228 134.756C143.252 134.79 143.256 134.833 143.236 134.869C143.186 134.965 143.156 135.077 143.185 135.198C143.224 135.363 143.351 135.508 143.525 135.568C143.847 135.682 144.179 135.461 144.194 135.124C144.2 135.04 144.186 134.961 144.151 134.891C144.132 134.849 144.136 134.802 144.16 134.763C144.217 134.67 144.259 134.541 144.247 134.369C144.236 134.029 144.064 133.631 143.845 133.465C143.879 133.471 143.921 133.468 143.97 133.451C144.075 133.414 144.168 133.33 144.149 133.275C144.129 133.22 144.005 133.217 143.9 133.256C143.892 133.26 143.887 133.263 143.88 133.266L143.877 133.222C143.849 133.051 143.704 132.924 143.534 132.93C143.365 132.936 143.237 133.117 143.27 133.322Z" fill="black"/>
<path d="M143.598 130.129L143.586 130.174C143.579 130.169 143.574 130.165 143.567 130.159C143.472 130.099 143.35 130.079 143.318 130.134C143.286 130.189 143.36 130.293 143.457 130.347C143.502 130.372 143.543 130.382 143.578 130.382C143.336 130.516 143.102 130.906 143.055 131.246C143.029 131.419 143.049 131.55 143.098 131.649C143.118 131.689 143.116 131.737 143.094 131.775C143.035 131.879 143.005 132.008 143.036 132.144C143.072 132.329 143.222 132.477 143.399 132.516C143.734 132.585 144.027 132.35 144.043 132.061C144.049 131.987 144.035 131.916 144.006 131.851C143.989 131.813 143.998 131.771 144.025 131.739C144.091 131.661 144.137 131.554 144.16 131.407C144.201 131.116 144.158 130.755 144.035 130.525C144.063 130.543 144.102 130.558 144.154 130.564C144.265 130.578 144.384 130.558 144.389 130.512C144.394 130.466 144.286 130.404 144.177 130.384C144.169 130.384 144.162 130.383 144.155 130.382C144.16 130.371 144.167 130.36 144.171 130.347C144.236 130.19 144.176 130.005 144.031 129.925C143.88 129.842 143.679 129.933 143.598 130.129Z" fill="black"/>
<path d="M136.471 143.742L136.426 143.745C136.429 143.737 136.431 143.731 136.434 143.723C136.46 143.616 136.442 143.495 136.389 143.483C136.336 143.474 136.264 143.571 136.234 143.674C136.22 143.723 136.219 143.765 136.228 143.798C136.141 143.703 136.015 143.616 135.875 143.548C135.806 143.51 135.734 143.472 135.661 143.442C135.622 143.428 135.586 143.414 135.551 143.401L135.495 143.384C135.452 143.375 135.409 143.365 135.368 143.356C135.326 143.354 135.286 143.353 135.246 143.352C135.077 143.348 134.949 143.375 134.852 143.427C134.812 143.448 134.764 143.45 134.724 143.428C134.619 143.37 134.494 143.343 134.358 143.363C134.175 143.391 134.015 143.512 133.943 143.678C133.801 143.987 134.042 144.325 134.409 144.355C134.499 144.363 134.586 144.351 134.663 144.323C134.708 144.307 134.76 144.313 134.8 144.339C134.898 144.401 135.033 144.441 135.221 144.446C135.256 144.447 135.257 144.446 135.26 144.445L135.261 144.443C135.268 144.444 135.229 144.436 135.256 144.439L135.326 144.446C135.371 144.448 135.418 144.449 135.467 144.451C135.562 144.451 135.656 144.448 135.745 144.434C135.926 144.399 136.085 144.341 136.192 144.266C136.178 144.297 136.172 144.338 136.18 144.389C136.196 144.5 136.268 144.609 136.334 144.597C136.4 144.588 136.43 144.469 136.409 144.361C136.407 144.353 136.405 144.347 136.402 144.339L136.451 144.344C136.674 144.352 136.848 144.215 136.841 144.045C136.834 143.882 136.668 143.749 136.471 143.742Z" fill="black"/>
<path d="M139.602 143.042L139.563 143.065C139.562 143.057 139.561 143.051 139.56 143.042C139.533 142.935 139.459 142.837 139.405 142.852C139.35 142.863 139.331 142.983 139.355 143.09C139.366 143.139 139.386 143.176 139.409 143.201C139.144 143.117 138.73 143.142 138.421 143.232C138.262 143.275 138.155 143.342 138.08 143.42C138.049 143.449 138.004 143.463 137.961 143.452C137.846 143.422 137.723 143.435 137.6 143.488C137.434 143.555 137.309 143.717 137.284 143.897C137.232 144.231 137.546 144.494 137.918 144.43C138.009 144.411 138.091 144.375 138.16 144.328C138.2 144.3 138.253 144.292 138.301 144.306C138.415 144.337 138.561 144.33 138.745 144.279C139.109 144.173 139.486 143.887 139.604 143.631C139.606 143.664 139.621 143.703 139.652 143.744C139.719 143.833 139.833 143.897 139.887 143.862C139.939 143.825 139.908 143.705 139.84 143.619C139.833 143.613 139.829 143.609 139.823 143.603L139.868 143.585C140.063 143.489 140.155 143.292 140.074 143.146C139.993 143 139.782 142.953 139.602 143.042Z" fill="black"/>
<path d="M144.625 141.108L144.607 141.149C144.601 141.143 144.597 141.138 144.59 141.131C144.506 141.059 144.389 141.019 144.353 141.061C144.314 141.101 144.368 141.21 144.45 141.285C144.488 141.319 144.525 141.339 144.559 141.347C144.292 141.425 143.966 141.676 143.764 141.923C143.659 142.046 143.61 142.162 143.593 142.267C143.585 142.309 143.556 142.345 143.514 142.36C143.403 142.399 143.309 142.478 143.239 142.591C143.141 142.739 143.133 142.941 143.217 143.104C143.367 143.407 143.779 143.449 144.047 143.188C144.111 143.122 144.158 143.047 144.187 142.969C144.204 142.924 144.243 142.888 144.29 142.873C144.402 142.834 144.517 142.747 144.639 142.602C144.877 142.313 145.021 141.867 144.969 141.591C144.991 141.617 145.025 141.641 145.075 141.657C145.181 141.693 145.312 141.682 145.336 141.623C145.357 141.563 145.263 141.482 145.156 141.45C145.147 141.448 145.141 141.447 145.133 141.445L145.159 141.406C145.264 141.218 145.226 141.005 145.074 140.93C144.923 140.855 144.721 140.935 144.625 141.108Z" fill="black"/>
<path d="M142.279 141.185L142.248 141.219C142.245 141.211 142.242 141.205 142.238 141.197C142.179 141.104 142.077 141.033 142.029 141.064C141.982 141.096 142.002 141.217 142.059 141.31C142.085 141.354 142.116 141.382 142.146 141.399C141.865 141.4 141.476 141.565 141.212 141.765C141.08 141.869 140.996 141.963 140.956 142.065C140.939 142.106 140.902 142.137 140.858 142.144C140.743 142.168 140.624 142.217 140.531 142.318C140.406 142.455 140.357 142.653 140.41 142.823C140.508 143.148 140.902 143.261 141.206 143.06C141.283 143.013 141.343 142.95 141.384 142.879C141.409 142.838 141.453 142.81 141.501 142.805C141.616 142.791 141.753 142.743 141.898 142.628C142.191 142.407 142.44 142.021 142.471 141.745C142.485 141.776 142.511 141.808 142.554 141.838C142.646 141.902 142.773 141.927 142.81 141.876C142.847 141.826 142.78 141.722 142.687 141.66C142.68 141.657 142.674 141.654 142.667 141.65L142.704 141.62C142.858 141.473 142.885 141.259 142.764 141.143C142.642 141.027 142.425 141.046 142.279 141.185Z" fill="black"/>
<path d="M144.242 138.639L144.226 138.68C144.22 138.675 144.215 138.67 144.209 138.664C144.119 138.599 143.998 138.568 143.966 138.611C143.935 138.655 143.998 138.759 144.084 138.827C144.124 138.859 144.163 138.875 144.197 138.881C143.935 138.976 143.633 139.245 143.442 139.504C143.348 139.637 143.305 139.756 143.292 139.86C143.288 139.904 143.261 139.943 143.221 139.962C143.115 140.014 143.024 140.1 142.96 140.219C142.876 140.383 142.89 140.589 142.989 140.738C143.179 141.022 143.585 141.018 143.822 140.745C143.881 140.677 143.918 140.597 143.939 140.519C143.952 140.472 143.987 140.434 144.032 140.416C144.143 140.373 144.252 140.28 144.361 140.127C144.581 139.827 144.694 139.366 144.624 139.095C144.648 139.119 144.684 139.14 144.735 139.153C144.845 139.182 144.975 139.159 144.991 139.097C145.008 139.034 144.908 138.961 144.798 138.937C144.789 138.936 144.783 138.936 144.775 138.935L144.799 138.893C144.895 138.698 144.83 138.485 144.671 138.424C144.514 138.364 144.329 138.463 144.242 138.639Z" fill="black"/>
<path d="M144.974 135.525L144.975 135.57C144.967 135.567 144.961 135.565 144.953 135.561C144.845 135.531 144.721 135.544 144.705 135.599C144.689 135.654 144.787 135.731 144.893 135.764C144.944 135.779 144.986 135.78 145.019 135.772C144.813 135.959 144.642 136.343 144.584 136.662C144.559 136.826 144.567 136.951 144.604 137.051C144.619 137.092 144.613 137.139 144.586 137.173C144.516 137.266 144.463 137.378 144.463 137.513C144.466 137.695 144.554 137.87 144.712 137.967C145 138.149 145.382 137.98 145.47 137.625C145.495 137.538 145.497 137.452 145.479 137.371C145.47 137.324 145.484 137.274 145.516 137.239C145.594 137.152 145.658 137.024 145.686 136.843C145.751 136.484 145.666 136.039 145.497 135.815C145.529 135.829 145.57 135.835 145.622 135.829C145.733 135.816 145.845 135.751 145.839 135.691C145.834 135.629 145.714 135.596 145.603 135.611C145.594 135.613 145.588 135.615 145.58 135.617C145.583 135.602 145.586 135.587 145.587 135.571C145.601 135.362 145.475 135.186 145.305 135.177C145.136 135.167 144.988 135.323 144.974 135.525Z" fill="black"/>
<path d="M144.706 132.295C144.708 132.311 144.713 132.326 144.717 132.341C144.708 132.34 144.702 132.338 144.693 132.337C144.581 132.33 144.463 132.371 144.461 132.432C144.46 132.492 144.575 132.548 144.687 132.554C144.739 132.557 144.78 132.548 144.81 132.532C144.657 132.766 144.6 133.202 144.656 133.536C144.683 133.706 144.737 133.825 144.807 133.909C144.837 133.943 144.847 133.989 144.833 134.031C144.795 134.143 144.794 134.269 144.836 134.383C144.867 134.47 144.914 134.507 144.977 134.581C145.039 134.649 145.119 134.7 145.207 134.725C145.372 134.771 145.532 134.732 145.652 134.637C145.713 134.595 145.761 134.521 145.792 134.426C145.821 134.343 145.834 134.246 145.823 134.157C145.814 134.065 145.784 133.984 145.741 133.915C145.716 133.874 145.712 133.823 145.73 133.78C145.773 133.674 145.787 133.538 145.759 133.363C145.702 133.018 145.503 132.632 145.284 132.459C145.318 132.464 145.36 132.46 145.409 132.442C145.514 132.403 145.606 132.319 145.587 132.264C145.567 132.21 145.442 132.205 145.338 132.243C145.33 132.247 145.324 132.249 145.317 132.253L145.314 132.208C145.284 132.009 145.13 131.866 144.96 131.883C144.792 131.899 144.674 132.087 144.706 132.295Z" fill="black"/>
<path d="M130.51 138.669C130.506 138.681 130.505 138.694 130.502 138.707C130.495 138.702 130.49 138.698 130.483 138.693C130.384 138.639 130.267 138.618 130.24 138.653C130.211 138.687 130.284 138.776 130.376 138.838C130.419 138.867 130.458 138.882 130.492 138.886C130.258 138.981 129.958 139.184 129.779 139.409C129.681 139.521 129.628 139.625 129.615 139.727C129.609 139.767 129.583 139.803 129.544 139.816C129.433 139.849 129.336 139.917 129.269 140.026C129.182 140.177 129.168 140.37 129.255 140.53C129.412 140.826 129.812 140.887 130.062 140.643C130.125 140.584 130.171 140.515 130.2 140.443C130.215 140.398 130.252 140.363 130.296 140.349C130.405 140.314 130.525 140.24 130.645 140.101C130.877 139.814 131.028 139.356 130.93 139.079C130.954 139.102 130.992 139.122 131.043 139.132C131.153 139.155 131.283 139.121 131.301 139.056C131.317 138.989 131.206 138.922 131.096 138.91H131.073L131.092 138.865C131.167 138.653 131.061 138.452 130.891 138.426C130.726 138.402 130.567 138.513 130.51 138.669Z" fill="black"/>
<path d="M130.296 135.677L130.303 135.721C130.295 135.72 130.288 135.718 130.28 135.716C130.169 135.7 130.048 135.73 130.04 135.789C130.032 135.847 130.144 135.909 130.254 135.923C130.306 135.929 130.348 135.924 130.38 135.911C130.201 136.109 130.126 136.577 130.2 136.907C130.236 137.077 130.294 137.184 130.369 137.26C130.4 137.291 130.412 137.334 130.4 137.373C130.367 137.48 130.371 137.595 130.417 137.702C130.484 137.85 130.627 137.962 130.811 138.005C130.978 138.042 131.138 138.003 131.247 137.894C131.362 137.786 131.42 137.614 131.393 137.437C131.38 137.349 131.345 137.274 131.3 137.209C131.273 137.17 131.267 137.121 131.283 137.08C131.32 136.979 131.328 136.846 131.295 136.691C131.228 136.384 131.059 136.066 130.858 135.874C130.891 135.882 130.934 135.881 130.984 135.867C131.091 135.838 131.19 135.766 131.176 135.714C131.162 135.663 131.039 135.649 130.93 135.676C130.922 135.679 130.916 135.681 130.909 135.684L130.91 135.642C130.897 135.453 130.758 135.304 130.588 135.307C130.418 135.311 130.283 135.477 130.296 135.677Z" fill="black"/>
<path d="M130.768 132.454L130.754 132.498C130.747 132.493 130.742 132.488 130.736 132.482C130.644 132.419 130.521 132.394 130.487 132.447C130.453 132.5 130.522 132.607 130.616 132.665C130.66 132.693 130.7 132.705 130.734 132.706C130.49 132.83 130.221 133.213 130.161 133.566C130.121 133.743 130.145 133.881 130.185 133.984C130.202 134.026 130.199 134.075 130.177 134.115C130.115 134.22 130.08 134.353 130.108 134.493C130.143 134.685 130.284 134.837 130.465 134.881C130.797 134.96 131.095 134.722 131.118 134.429C131.126 134.355 131.114 134.284 131.087 134.217C131.07 134.178 131.08 134.135 131.109 134.103C131.182 134.028 131.224 133.92 131.258 133.774C131.307 133.483 131.296 133.115 131.184 132.871C131.211 132.891 131.25 132.908 131.301 132.916C131.411 132.935 131.533 132.917 131.541 132.868C131.55 132.819 131.445 132.753 131.337 132.73C131.328 132.729 131.322 132.728 131.314 132.727C131.321 132.716 131.328 132.704 131.333 132.691C131.402 132.523 131.357 132.334 131.204 132.254C131.058 132.177 130.848 132.261 130.768 132.454Z" fill="black"/>
<path d="M132.916 132.041L132.893 132.082C132.888 132.075 132.884 132.07 132.878 132.063C132.802 131.983 132.687 131.933 132.643 131.979C132.598 132.023 132.643 132.141 132.723 132.217C132.76 132.253 132.797 132.273 132.831 132.281C132.565 132.354 132.222 132.674 132.089 133.008C132.013 133.173 132.007 133.312 132.025 133.421C132.033 133.466 132.02 133.514 131.989 133.548C131.907 133.638 131.845 133.762 131.843 133.904C131.837 134.099 131.943 134.277 132.111 134.356C132.419 134.499 132.76 134.326 132.845 134.045C132.868 133.974 132.871 133.901 132.859 133.831C132.85 133.789 132.869 133.749 132.904 133.724C132.991 133.665 133.055 133.568 133.119 133.432C133.228 133.157 133.295 132.794 133.236 132.533C133.258 132.558 133.292 132.582 133.341 132.601C133.445 132.641 133.568 132.648 133.586 132.602C133.605 132.556 133.517 132.47 133.415 132.426C133.407 132.423 133.401 132.421 133.393 132.419C133.402 132.409 133.412 132.399 133.42 132.388C133.522 132.237 133.518 132.042 133.385 131.933C133.258 131.829 133.035 131.868 132.916 132.041Z" fill="black"/>
<path d="M132.91 129.948C132.898 129.958 132.887 129.968 132.876 129.979C132.873 129.971 132.871 129.965 132.868 129.956C132.822 129.856 132.73 129.773 132.675 129.801C132.621 129.829 132.626 129.954 132.675 130.052C132.698 130.098 132.726 130.129 132.754 130.148C132.473 130.12 132.061 130.304 131.805 130.547C131.678 130.678 131.609 130.801 131.584 130.91C131.573 130.953 131.545 130.996 131.503 131.016C131.391 131.072 131.283 131.165 131.227 131.302C131.151 131.49 131.182 131.692 131.316 131.822C131.56 132.055 131.937 132.009 132.111 131.786C132.158 131.73 132.187 131.665 132.201 131.596C132.21 131.556 132.239 131.523 132.282 131.515C132.384 131.492 132.485 131.435 132.591 131.326C132.812 131.116 133.006 130.777 133.049 130.519C133.061 130.55 133.085 130.584 133.124 130.618C133.208 130.69 133.322 130.734 133.356 130.694C133.391 130.655 133.336 130.545 133.254 130.471C133.247 130.466 133.242 130.462 133.236 130.458L133.272 130.435C133.428 130.331 133.479 130.132 133.387 129.992C133.296 129.852 133.082 129.832 132.91 129.948Z" fill="black"/>
<path d="M135.998 128.719L135.953 128.73C135.954 128.722 135.955 128.715 135.957 128.706C135.967 128.597 135.927 128.481 135.864 128.48C135.801 128.478 135.742 128.591 135.738 128.7C135.735 128.751 135.745 128.791 135.761 128.821C135.527 128.667 135.062 128.637 134.717 128.755C134.541 128.81 134.426 128.892 134.357 128.982C134.328 129.018 134.283 129.04 134.235 129.039C134.109 129.034 133.977 129.081 133.862 129.17C133.709 129.297 133.646 129.497 133.698 129.668C133.801 129.99 134.156 130.118 134.424 129.997C134.493 129.966 134.548 129.916 134.594 129.864C134.621 129.833 134.664 129.819 134.706 129.828C134.806 129.848 134.924 129.839 135.07 129.793C135.354 129.696 135.677 129.494 135.839 129.285C135.834 129.318 135.839 129.359 135.857 129.407C135.896 129.51 135.973 129.602 136.021 129.584C136.069 129.566 136.075 129.443 136.04 129.34C136.037 129.332 136.034 129.327 136.031 129.32L136.073 129.317C136.258 129.301 136.402 129.151 136.394 128.987C136.386 128.819 136.209 128.7 135.998 128.719Z" fill="black"/>
<path d="M132.855 143.327L132.816 143.353C132.815 143.345 132.814 143.339 132.812 143.33C132.782 143.224 132.704 143.129 132.644 143.149C132.584 143.169 132.57 143.295 132.604 143.399C132.62 143.447 132.644 143.482 132.669 143.504C132.396 143.44 131.949 143.572 131.668 143.801C131.523 143.913 131.444 144.028 131.411 144.137C131.398 144.181 131.363 144.217 131.318 144.232C131.198 144.271 131.092 144.36 131.016 144.482C130.917 144.654 130.931 144.863 131.04 145.006C131.252 145.272 131.631 145.269 131.838 145.064C131.891 145.012 131.925 144.946 131.95 144.882C131.964 144.843 131.999 144.816 132.041 144.81C132.143 144.794 132.25 144.744 132.37 144.652C132.601 144.464 132.832 144.163 132.908 143.912C132.916 143.944 132.935 143.981 132.969 144.02C133.042 144.103 133.147 144.163 133.186 144.13C133.225 144.096 133.186 143.979 133.117 143.894C133.111 143.888 133.107 143.884 133.101 143.879L133.139 143.862C133.307 143.783 133.388 143.593 133.322 143.442C133.254 143.288 133.046 143.237 132.855 143.327Z" fill="black"/>
<path d="M139.217 128.933L139.177 128.939C139.179 128.931 139.18 128.926 139.183 128.917C139.2 128.809 139.175 128.691 139.127 128.678C139.08 128.667 139.02 128.769 138.996 128.876C138.986 128.926 138.987 128.967 138.996 128.999C138.809 128.814 138.479 128.651 138.161 128.591C137.999 128.562 137.865 128.573 137.76 128.613C137.718 128.628 137.669 128.624 137.628 128.6C137.523 128.531 137.385 128.497 137.237 128.52C137.035 128.543 136.874 128.691 136.83 128.863C136.751 129.191 136.987 129.477 137.273 129.51C137.348 129.515 137.419 129.511 137.487 129.486C137.526 129.472 137.571 129.482 137.603 129.512C137.68 129.583 137.793 129.637 137.963 129.668C138.298 129.733 138.772 129.655 138.984 129.469C138.973 129.501 138.968 129.542 138.978 129.593C138.999 129.7 139.077 129.804 139.141 129.793C139.206 129.784 139.227 129.662 139.2 129.556C139.197 129.547 139.195 129.542 139.192 129.534C139.208 129.536 139.223 129.536 139.24 129.535C139.457 129.525 139.612 129.371 139.587 129.203C139.562 129.043 139.397 128.924 139.217 128.933Z" fill="black"/>
<path d="M141.977 127.818L141.944 127.845C141.941 127.837 141.939 127.832 141.936 127.823C141.889 127.724 141.799 127.639 141.75 127.66C141.701 127.681 141.708 127.802 141.753 127.903C141.774 127.949 141.8 127.982 141.827 128.002C141.561 127.965 141.173 128.057 140.906 128.192C140.769 128.263 140.685 128.347 140.63 128.428C140.608 128.462 140.569 128.483 140.528 128.479C140.418 128.473 140.308 128.499 140.206 128.564C140.07 128.662 139.981 128.829 139.983 129.008C139.979 129.346 140.323 129.572 140.673 129.446C140.759 129.418 140.827 129.364 140.884 129.306C140.917 129.271 140.965 129.254 141.013 129.26C141.131 129.276 141.267 129.243 141.429 129.159C141.752 128.994 142.045 128.657 142.1 128.389C142.11 128.421 142.132 128.456 142.169 128.492C142.25 128.567 142.37 128.61 142.412 128.568C142.455 128.525 142.402 128.414 142.319 128.34C142.312 128.335 142.307 128.332 142.3 128.327L142.339 128.304C142.51 128.191 142.547 127.976 142.445 127.848C142.338 127.714 142.136 127.713 141.977 127.818Z" fill="black"/>
<path d="M128.772 137.263L128.786 137.305C128.777 137.305 128.771 137.304 128.762 137.303C128.65 137.306 128.536 137.355 128.537 137.413C128.535 137.434 128.553 137.418 128.595 137.423C128.635 137.423 128.688 137.444 128.743 137.446C128.794 137.451 128.836 137.447 128.869 137.437C128.692 137.601 128.53 137.936 128.48 138.228C128.455 138.376 128.467 138.49 128.505 138.584C128.521 138.622 128.515 138.664 128.487 138.694C128.414 138.776 128.368 138.876 128.367 138.996C128.365 139.154 128.455 139.315 128.604 139.423C128.873 139.636 129.269 139.492 129.367 139.148C129.393 139.064 129.392 138.981 129.378 138.904C129.369 138.859 129.383 138.812 129.415 138.779C129.492 138.699 129.553 138.578 129.582 138.406C129.641 138.067 129.552 137.628 129.348 137.409C129.381 137.418 129.423 137.42 129.473 137.405C129.526 137.386 129.582 137.363 129.614 137.312C129.646 137.265 129.658 137.19 129.645 137.157C129.624 137.11 129.499 137.116 129.397 137.16C129.389 137.164 129.384 137.167 129.377 137.171L129.372 137.13C129.333 136.949 129.165 136.828 128.999 136.858C128.832 136.889 128.73 137.07 128.772 137.263Z" fill="black"/>
<path d="M128.557 134.098L128.557 134.143C128.549 134.14 128.543 134.137 128.534 134.134C128.428 134.1 128.303 134.111 128.287 134.167C128.269 134.224 128.367 134.303 128.474 134.333C128.524 134.347 128.566 134.348 128.599 134.34C128.398 134.52 128.246 134.931 128.259 135.271C128.258 135.443 128.309 135.568 128.371 135.658C128.397 135.694 128.404 135.741 128.388 135.783C128.34 135.894 128.341 136.025 128.39 136.154C128.457 136.331 128.622 136.453 128.808 136.466C129.148 136.488 129.403 136.208 129.372 135.915C129.361 135.841 129.337 135.773 129.301 135.713C129.279 135.677 129.279 135.633 129.3 135.597C129.355 135.509 129.374 135.394 129.375 135.242C129.365 134.943 129.253 134.579 129.078 134.377C129.109 134.389 129.151 134.394 129.203 134.389C129.314 134.377 129.425 134.324 129.42 134.273C129.414 134.223 129.294 134.189 129.183 134.199C129.175 134.2 129.169 134.201 129.161 134.203L129.169 134.162C129.184 133.98 129.074 133.813 128.907 133.787C128.739 133.761 128.575 133.9 128.557 134.098Z" fill="black"/>
<path d="M129.57 131.065L129.551 131.106C129.545 131.1 129.541 131.095 129.535 131.088C129.452 131.014 129.334 130.973 129.295 131.019C129.255 131.064 129.311 131.177 129.395 131.248C129.435 131.281 129.473 131.298 129.507 131.304C129.37 131.344 129.233 131.446 129.107 131.577C128.977 131.707 128.87 131.87 128.809 132.032C128.743 132.195 128.728 132.328 128.757 132.437C128.768 132.481 128.757 132.528 128.727 132.561C128.647 132.651 128.581 132.771 128.586 132.913C128.587 133.105 128.696 133.279 128.863 133.353C129.174 133.489 129.517 133.317 129.589 133.04C129.611 132.97 129.614 132.899 129.601 132.83C129.593 132.789 129.609 132.749 129.642 132.723C129.719 132.661 129.794 132.569 129.85 132.431C129.901 132.292 129.936 132.131 129.955 131.973C129.97 131.814 129.959 131.654 129.927 131.531C129.951 131.555 129.987 131.577 130.036 131.593C130.143 131.627 130.265 131.625 130.281 131.577C130.296 131.528 130.201 131.449 130.097 131.412C130.088 131.41 130.082 131.409 130.075 131.407C130.083 131.396 130.091 131.386 130.098 131.373C130.186 131.214 130.166 131.022 130.023 130.927C129.884 130.835 129.668 130.889 129.57 131.065Z" fill="black"/>
<path d="M145.12 128.585L145.115 128.629C145.108 128.625 145.102 128.622 145.094 128.617C144.991 128.574 144.867 128.572 144.844 128.628C144.822 128.684 144.911 128.772 145.015 128.812C145.063 128.831 145.106 128.835 145.14 128.831C145.023 128.911 144.927 129.051 144.851 129.216C144.771 129.38 144.724 129.568 144.72 129.741C144.712 129.916 144.741 130.046 144.805 130.14C144.83 130.178 144.835 130.226 144.817 130.268C144.771 130.378 144.748 130.512 144.8 130.645C144.865 130.827 145.026 130.956 145.207 130.974C145.547 131.003 145.814 130.732 145.79 130.446C145.788 130.373 145.768 130.305 145.733 130.244C145.712 130.208 145.714 130.165 145.737 130.13C145.789 130.046 145.829 129.936 145.836 129.787C145.839 129.64 145.818 129.476 145.785 129.321C145.746 129.166 145.682 129.018 145.612 128.912C145.642 128.927 145.683 128.936 145.736 128.935C145.847 128.934 145.963 128.893 145.961 128.842C145.96 128.792 145.844 128.747 145.733 128.745C145.724 128.746 145.718 128.747 145.71 128.748C145.714 128.734 145.719 128.722 145.722 128.708C145.751 128.529 145.669 128.354 145.503 128.31C145.341 128.267 145.154 128.386 145.12 128.585Z" fill="black"/>
<path d="M131.779 128.728L131.745 128.757C131.742 128.749 131.74 128.743 131.737 128.735C131.69 128.635 131.598 128.552 131.544 128.578C131.49 128.604 131.496 128.727 131.545 128.824C131.568 128.87 131.596 128.901 131.625 128.92C131.355 128.898 130.942 129.061 130.694 129.3C130.563 129.414 130.501 129.538 130.476 129.645C130.467 129.689 130.436 129.726 130.394 129.743C130.28 129.789 130.172 129.871 130.113 130.002C130.03 130.176 130.052 130.379 130.17 130.516C130.392 130.767 130.779 130.759 130.962 130.536C131.013 130.482 131.048 130.419 131.066 130.352C131.078 130.312 131.11 130.283 131.152 130.274C131.253 130.253 131.35 130.192 131.467 130.09C131.684 129.881 131.886 129.556 131.919 129.291C131.931 129.322 131.956 129.356 131.995 129.39C132.079 129.462 132.194 129.507 132.228 129.469C132.263 129.431 132.208 129.322 132.126 129.248C132.119 129.242 132.114 129.239 132.107 129.234L132.143 129.213C132.293 129.103 132.341 128.906 132.249 128.77C132.153 128.629 131.942 128.608 131.779 128.728Z" fill="black"/>
<path d="M134.704 127.344L134.661 127.36C134.661 127.352 134.662 127.345 134.662 127.336C134.655 127.227 134.601 127.117 134.541 127.123C134.481 127.128 134.441 127.247 134.451 127.356C134.455 127.407 134.47 127.445 134.489 127.473C134.243 127.347 133.797 127.359 133.477 127.497C133.313 127.563 133.208 127.647 133.148 127.741C133.123 127.779 133.081 127.804 133.036 127.804C132.913 127.807 132.784 127.847 132.681 127.946C132.54 128.076 132.485 128.272 132.543 128.442C132.653 128.757 133.018 128.889 133.275 128.746C133.343 128.713 133.398 128.666 133.441 128.609C133.466 128.576 133.507 128.559 133.549 128.565C133.65 128.577 133.768 128.563 133.912 128.506C134.189 128.386 134.494 128.15 134.626 127.924C134.625 127.957 134.635 127.997 134.659 128.043C134.71 128.14 134.799 128.221 134.846 128.197C134.892 128.173 134.88 128.051 134.832 127.953C134.828 127.946 134.824 127.941 134.82 127.934L134.861 127.927C135.041 127.879 135.161 127.72 135.126 127.556C135.091 127.395 134.9 127.293 134.704 127.344Z" fill="black"/>
<path d="M137.953 127.161L137.907 127.159C137.911 127.151 137.914 127.146 137.918 127.138C137.957 127.035 137.952 126.913 137.894 126.894C137.836 126.875 137.751 126.967 137.716 127.071C137.699 127.119 137.697 127.161 137.703 127.194C137.528 126.985 137.109 126.826 136.757 126.829C136.579 126.827 136.449 126.873 136.355 126.932C136.318 126.957 136.269 126.963 136.226 126.946C136.112 126.902 135.977 126.902 135.842 126.948C135.659 127.009 135.535 127.184 135.523 127.361C135.507 127.699 135.791 127.935 136.085 127.912C136.159 127.905 136.228 127.877 136.289 127.841C136.325 127.82 136.37 127.822 136.406 127.843C136.494 127.898 136.609 127.921 136.762 127.923C137.062 127.921 137.434 127.819 137.646 127.661C137.633 127.691 137.625 127.732 137.629 127.783C137.637 127.892 137.685 128.002 137.736 127.998C137.788 127.994 137.827 127.879 137.823 127.77C137.821 127.761 137.82 127.755 137.819 127.748C137.833 127.751 137.846 127.755 137.86 127.757C138.043 127.779 138.222 127.681 138.255 127.516C138.287 127.355 138.157 127.187 137.953 127.161Z" fill="black"/>
<path d="M140.847 126.908L140.808 126.927C140.807 126.919 140.807 126.913 140.806 126.904C140.787 126.796 140.722 126.692 140.667 126.701C140.611 126.711 140.587 126.83 140.606 126.937C140.615 126.988 140.632 127.026 140.653 127.052C140.405 126.947 139.988 126.968 139.705 127.059C139.635 127.081 139.576 127.107 139.542 127.131C139.515 127.147 139.525 127.152 139.52 127.165C139.519 127.179 139.487 127.193 139.475 127.208C139.447 127.234 139.409 127.239 139.377 127.221C139.291 127.172 139.198 127.152 139.084 127.173C138.93 127.2 138.768 127.315 138.694 127.48C138.557 127.784 138.738 128.131 139.127 128.163C139.222 128.17 139.316 128.153 139.396 128.119C139.443 128.097 139.498 128.1 139.544 128.119C139.576 128.13 139.595 128.143 139.646 128.147C139.694 128.151 139.762 128.149 139.795 128.147C139.883 128.142 139.962 128.127 140.05 128.1C140.386 127.991 140.708 127.732 140.825 127.491C140.827 127.524 140.84 127.564 140.868 127.607C140.928 127.699 141.028 127.771 141.076 127.742C141.124 127.712 141.101 127.592 141.041 127.5C141.036 127.493 141.032 127.488 141.027 127.482L141.069 127.47C141.251 127.401 141.348 127.22 141.287 127.065C141.227 126.909 141.029 126.839 140.847 126.908Z" fill="black"/>
<path d="M126.805 135.01L126.815 135.058C126.806 135.056 126.8 135.055 126.791 135.053C126.679 135.041 126.56 135.079 126.558 135.143C126.555 135.208 126.669 135.271 126.78 135.278C126.832 135.282 126.874 135.273 126.904 135.258C126.743 135.494 126.722 135.98 126.791 136.288C126.827 136.455 126.886 136.571 126.96 136.652C126.99 136.685 127.003 136.732 126.991 136.775C126.959 136.889 126.963 137.016 127.015 137.14C127.087 137.309 127.245 137.431 127.427 137.461C127.767 137.525 128.046 137.21 127.986 136.854C127.972 136.766 127.939 136.686 127.893 136.619C127.866 136.58 127.86 136.529 127.876 136.485C127.914 136.377 127.922 136.238 127.884 136.062C127.803 135.696 127.591 135.364 127.379 135.189C127.413 135.195 127.455 135.191 127.504 135.174C127.61 135.136 127.705 135.058 127.688 135.006C127.67 134.955 127.545 134.946 127.439 134.98C127.431 134.983 127.425 134.986 127.418 134.989L127.416 134.945C127.389 134.752 127.255 134.598 127.081 134.605C126.915 134.612 126.775 134.795 126.805 135.01Z" fill="black"/>
<path d="M127.317 131.598L127.303 131.644C127.296 131.639 127.292 131.634 127.285 131.629C127.192 131.566 127.069 131.543 127.036 131.599C127.003 131.653 127.073 131.762 127.166 131.821C127.21 131.849 127.251 131.861 127.286 131.861C127.028 131.993 126.764 132.388 126.683 132.756C126.635 132.939 126.655 133.087 126.693 133.196C126.709 133.241 126.705 133.293 126.679 133.334C126.605 133.444 126.582 133.587 126.6 133.738C126.623 133.943 126.777 134.107 126.953 134.153C127.289 134.235 127.576 133.987 127.613 133.683C127.62 133.604 127.605 133.528 127.586 133.458C127.573 133.417 127.584 133.371 127.613 133.339C127.688 133.26 127.732 133.147 127.774 132.991C127.841 132.683 127.834 132.278 127.735 132.025C127.762 132.046 127.8 132.063 127.852 132.071C127.963 132.087 128.085 132.063 128.094 132.009C128.104 131.955 127.999 131.888 127.889 131.868C127.88 131.868 127.874 131.867 127.866 131.867L127.886 131.827C127.962 131.645 127.912 131.444 127.757 131.371C127.606 131.3 127.401 131.398 127.317 131.598Z" fill="black"/>
<path d="M129.25 128.743L129.22 128.779C129.216 128.772 129.213 128.767 129.208 128.758C129.145 128.668 129.039 128.604 128.987 128.641C128.934 128.676 128.964 128.804 129.029 128.893C129.059 128.935 129.093 128.96 129.124 128.973C128.839 129.004 128.449 129.26 128.224 129.553C128.114 129.703 128.063 129.837 128.052 129.951C128.047 129.998 128.021 130.042 127.979 130.067C127.871 130.137 127.782 130.249 127.733 130.39C127.662 130.58 127.723 130.794 127.857 130.914C128.118 131.138 128.49 131.045 128.666 130.781C128.709 130.713 128.733 130.638 128.742 130.563C128.75 130.519 128.78 130.482 128.822 130.465C128.924 130.422 129.022 130.341 129.12 130.206C129.32 129.947 129.479 129.562 129.481 129.288C129.498 129.317 129.528 129.346 129.573 129.372C129.67 129.427 129.79 129.444 129.823 129.398C129.854 129.35 129.781 129.252 129.685 129.195C129.677 129.191 129.671 129.188 129.664 129.185L129.699 129.155C129.84 129.011 129.858 128.798 129.739 128.68C129.62 128.561 129.401 128.59 129.25 128.743Z" fill="black"/>
<path d="M127.052 138.576L127.059 138.623C127.051 138.621 127.045 138.62 127.036 138.617C126.925 138.604 126.805 138.639 126.799 138.701C126.791 138.763 126.908 138.827 127.019 138.838C127.072 138.844 127.113 138.836 127.144 138.821C126.978 139.051 126.914 139.507 126.988 139.865C127.029 140.046 127.097 140.173 127.177 140.257C127.209 140.291 127.225 140.34 127.217 140.387C127.199 140.512 127.224 140.652 127.299 140.782C127.398 140.96 127.601 141.058 127.782 141.039C128.126 140.997 128.302 140.663 128.217 140.359C128.194 140.282 128.153 140.215 128.102 140.158C128.074 140.123 128.066 140.077 128.08 140.034C128.115 139.931 128.119 139.805 128.082 139.644C128.016 139.325 127.829 138.953 127.621 138.77C127.654 138.777 127.697 138.774 127.746 138.759C127.853 138.724 127.946 138.647 127.932 138.593C127.917 138.538 127.793 138.526 127.685 138.558C127.677 138.562 127.672 138.564 127.664 138.567L127.665 138.522C127.649 138.323 127.498 138.168 127.329 138.177C127.159 138.185 127.035 138.364 127.052 138.576Z" fill="black"/>
<path d="M131.961 126.592L131.919 126.617C131.918 126.609 131.917 126.603 131.915 126.594C131.884 126.489 131.802 126.395 131.74 126.416C131.678 126.438 131.665 126.567 131.7 126.671C131.716 126.72 131.74 126.754 131.767 126.776C131.484 126.724 131.023 126.862 130.731 127.089C130.579 127.2 130.493 127.313 130.453 127.422C130.436 127.466 130.398 127.501 130.352 127.515C130.227 127.549 130.11 127.628 130.025 127.749C129.907 127.913 129.893 128.122 129.985 128.281C130.156 128.572 130.553 128.602 130.8 128.387C130.862 128.331 130.911 128.27 130.943 128.2C130.962 128.16 131.001 128.132 131.046 128.125C131.155 128.109 131.274 128.057 131.409 127.959C131.669 127.756 131.929 127.442 132.011 127.18C132.019 127.213 132.038 127.25 132.073 127.288C132.149 127.369 132.258 127.422 132.301 127.386C132.343 127.352 132.304 127.236 132.232 127.152C132.225 127.147 132.221 127.142 132.215 127.137L132.256 127.12C132.432 127.027 132.518 126.832 132.447 126.684C132.374 126.531 132.156 126.489 131.961 126.592Z" fill="black"/>
<path d="M135.347 125.69L135.299 125.697C135.302 125.689 135.303 125.683 135.306 125.674C135.323 125.565 135.29 125.447 135.226 125.441C135.162 125.435 135.095 125.543 135.08 125.652C135.074 125.702 135.08 125.743 135.094 125.774C134.865 125.605 134.397 125.532 134.025 125.605C133.837 125.638 133.707 125.711 133.62 125.788C133.584 125.82 133.534 125.836 133.485 125.828C133.356 125.813 133.211 125.839 133.077 125.914C132.896 126.022 132.798 126.217 132.823 126.394C132.877 126.73 133.223 126.894 133.524 126.808C133.601 126.784 133.668 126.745 133.725 126.694C133.759 126.666 133.806 126.658 133.849 126.673C133.953 126.709 134.078 126.706 134.242 126.678C134.562 126.616 134.944 126.441 135.136 126.243C135.128 126.275 135.129 126.317 135.144 126.366C135.177 126.471 135.254 126.568 135.309 126.553C135.364 126.538 135.38 126.417 135.35 126.311C135.346 126.303 135.344 126.298 135.341 126.29L135.387 126.291C135.59 126.274 135.753 126.142 135.748 125.973C135.743 125.809 135.565 125.672 135.347 125.69Z" fill="black"/>
<path d="M132.77 124.485L132.725 124.503C132.725 124.494 132.725 124.488 132.726 124.479C132.717 124.369 132.657 124.262 132.593 124.27C132.53 124.278 132.49 124.399 132.501 124.508C132.506 124.559 132.522 124.597 132.543 124.624C132.28 124.511 131.808 124.545 131.463 124.699C131.288 124.773 131.178 124.874 131.111 124.968C131.084 125.008 131.039 125.035 130.99 125.038C130.861 125.052 130.725 125.11 130.613 125.214C130.462 125.359 130.412 125.571 130.478 125.738C130.609 126.052 130.984 126.135 131.257 125.983C131.327 125.943 131.383 125.889 131.426 125.827C131.452 125.792 131.497 125.774 131.541 125.778C131.652 125.79 131.772 125.76 131.925 125.695C132.222 125.563 132.553 125.306 132.694 125.07C132.693 125.104 132.704 125.144 132.73 125.188C132.786 125.283 132.884 125.361 132.935 125.334C132.985 125.307 132.972 125.185 132.918 125.089C132.913 125.082 132.909 125.077 132.904 125.071L132.949 125.061C133.143 124.999 133.271 124.833 133.226 124.67C133.183 124.512 132.977 124.419 132.77 124.485Z" fill="black"/>
<path d="M138.785 125.814L138.738 125.815C138.741 125.807 138.743 125.801 138.747 125.793C138.776 125.687 138.76 125.566 138.702 125.552C138.645 125.538 138.567 125.636 138.536 125.741C138.522 125.79 138.522 125.832 138.531 125.864C138.334 125.667 137.922 125.508 137.569 125.481C137.391 125.467 137.254 125.491 137.151 125.541C137.109 125.561 137.058 125.562 137.016 125.54C136.904 125.482 136.766 125.456 136.608 125.485C136.409 125.529 136.251 125.672 136.207 125.847C136.124 126.176 136.402 126.462 136.718 126.473C136.8 126.477 136.88 126.463 136.954 126.435C136.997 126.419 137.046 126.425 137.085 126.452C137.177 126.515 137.305 126.558 137.483 126.572C137.833 126.599 138.274 126.504 138.499 126.333C138.485 126.364 138.48 126.405 138.487 126.456C138.504 126.565 138.571 126.672 138.632 126.665C138.694 126.658 138.726 126.539 138.708 126.431C138.706 126.422 138.704 126.416 138.702 126.409L138.749 126.415C138.963 126.427 139.144 126.298 139.148 126.132C139.152 125.965 138.991 125.826 138.785 125.814Z" fill="black"/>
<path d="M118.512 139.48C118.494 139.542 118.435 139.582 118.37 139.591C117.449 139.696 116.912 139.817 116.502 140.032C116.1 140.225 115.863 140.475 115.866 140.552C115.871 140.63 116.139 140.869 116.668 140.909C116.8 140.923 116.944 140.903 117.101 140.88C117.26 140.859 117.427 140.81 117.597 140.727C117.769 140.654 117.945 140.553 118.11 140.408C118.281 140.277 118.436 140.101 118.572 139.897C118.611 139.84 118.68 139.808 118.749 139.809C118.997 139.806 119.264 139.773 119.367 139.694C119.465 139.608 119.395 139.502 119.034 139.336C118.898 138.957 118.786 138.891 118.715 138.964C118.636 139.032 118.575 139.243 118.512 139.48Z" fill="black"/>
<path d="M120.528 136.443C120.556 136.503 120.548 136.574 120.507 136.624C119.889 137.316 119.612 137.794 119.455 138.212C119.304 138.619 119.313 138.966 119.369 139.02C119.425 139.075 119.784 139.062 120.196 138.729C120.605 138.413 121.016 137.686 120.867 136.718C120.854 136.65 120.876 136.58 120.928 136.536C121.323 136.21 121.604 135.782 120.827 135.999C120.123 135.605 120.329 136.017 120.528 136.443Z" fill="black"/>
<path d="M120.346 132.762C120.4 132.797 120.428 132.862 120.419 132.926C120.285 133.831 120.314 134.401 120.455 134.843C120.574 135.273 120.806 135.539 120.886 135.547C120.964 135.554 121.229 135.327 121.365 134.833C121.485 134.356 121.437 133.555 120.774 132.815C120.728 132.764 120.711 132.692 120.733 132.626C120.869 132.149 120.887 131.619 120.346 132.231C119.555 132.28 119.927 132.517 120.346 132.762Z" fill="black"/>
<path d="M117.953 130.017C118.017 130.005 118.089 130.024 118.124 130.082C118.645 130.837 118.998 131.242 119.379 131.501C119.55 131.639 119.724 131.724 119.865 131.775C119.996 131.831 120.098 131.846 120.134 131.826C120.167 131.807 120.208 131.714 120.222 131.561C120.227 131.413 120.197 131.206 120.103 130.961C119.988 130.732 119.814 130.455 119.509 130.231C119.217 129.998 118.798 129.82 118.307 129.765C118.24 129.753 118.172 129.721 118.141 129.659C117.91 129.202 117.529 128.84 117.582 129.631C117.043 130.222 117.486 130.106 117.953 130.017Z" fill="black"/>
<path d="M114.269 129.597C114.31 129.547 114.377 129.519 114.442 129.537C115.339 129.782 115.911 129.824 116.367 129.773C116.812 129.712 117.117 129.566 117.143 129.481C117.165 129.419 116.993 129.092 116.506 128.892C116.037 128.681 115.204 128.627 114.37 129.179C114.313 129.217 114.239 129.232 114.176 129.205C113.699 129.001 113.169 128.965 113.731 129.537C113.707 130.329 113.969 129.959 114.269 129.597Z" fill="black"/>
<path d="M111.268 131.673C111.262 131.609 111.297 131.547 111.354 131.515C112.161 131.066 112.603 130.75 112.904 130.413C113.192 130.081 113.334 129.783 113.296 129.699C113.28 129.665 113.191 129.619 113.039 129.596C112.886 129.573 112.666 129.571 112.417 129.66C111.923 129.806 111.235 130.332 111.047 131.308C111.035 131.375 110.987 131.432 110.921 131.457C110.447 131.643 110.019 131.964 110.841 131.999C111.373 132.579 111.324 132.143 111.268 131.673Z" fill="black"/>
<path d="M110.378 135.235C110.334 135.186 110.325 135.115 110.351 135.055C110.737 134.214 110.862 133.657 110.848 133.201C110.847 132.76 110.72 132.444 110.647 132.413C110.575 132.382 110.238 132.516 109.971 132.963C109.719 133.397 109.553 134.18 109.978 135.063C110.009 135.124 110.005 135.198 109.967 135.254C109.819 135.459 109.706 135.687 109.722 135.81C109.734 135.935 109.862 135.941 110.212 135.743C110.602 135.85 110.723 135.799 110.706 135.696C110.683 135.591 110.53 135.418 110.378 135.235Z" fill="black"/>
<path d="M111.655 138.665C111.59 138.652 111.539 138.602 111.523 138.54C111.331 137.653 111.143 137.132 110.89 136.75C110.638 136.381 110.368 136.178 110.279 136.194C110.213 136.205 109.991 136.499 110.02 137.013C110.032 137.509 110.335 138.291 111.229 138.764C111.293 138.795 111.336 138.856 111.34 138.924C111.35 139.177 111.415 139.426 111.508 139.516C111.6 139.609 111.701 139.532 111.845 139.16C112.214 139.002 112.273 138.886 112.197 138.819C112.116 138.752 111.887 138.718 111.655 138.665Z" fill="black"/>
<path d="M114.913 140.336C114.858 140.368 114.786 140.365 114.73 140.328C113.955 139.821 113.464 139.581 113.018 139.48C112.586 139.377 112.248 139.397 112.193 139.462C112.147 139.515 112.175 139.882 112.558 140.25C112.922 140.607 113.708 140.961 114.679 140.69C114.746 140.671 114.819 140.688 114.871 140.736C115.252 141.058 115.73 141.308 115.402 140.564C115.7 139.846 115.32 140.067 114.913 140.336Z" fill="black"/>
<path d="M118.514 143.01C118.48 143.064 118.417 143.093 118.354 143.085C117.908 143.03 117.538 142.985 117.237 143.032C116.927 143.041 116.676 143.108 116.471 143.199C116.06 143.356 115.83 143.599 115.832 143.683C115.834 143.755 116.083 143.999 116.564 144.086C116.802 144.117 117.098 144.111 117.431 144.032C117.756 143.916 118.127 143.759 118.468 143.432C118.516 143.386 118.585 143.37 118.648 143.391C118.877 143.468 119.123 143.527 119.235 143.488C119.345 143.442 119.316 143.318 119.038 143.043C119.029 142.644 118.95 142.543 118.859 142.59C118.764 142.632 118.638 142.81 118.514 143.01Z" fill="black"/>
<path d="M121.576 141.149C121.568 141.211 121.522 141.262 121.461 141.279C121.241 141.343 121.055 141.416 120.888 141.49C120.712 141.552 120.562 141.622 120.431 141.698C120.177 141.86 119.963 141.996 119.817 142.162C119.671 142.327 119.569 142.482 119.503 142.601C119.44 142.725 119.421 142.823 119.438 142.859C119.455 142.894 119.544 142.941 119.69 142.969C119.839 143.001 120.042 143.003 120.274 142.932C120.506 142.863 120.792 142.76 121.042 142.521C121.171 142.406 121.299 142.272 121.421 142.116C121.533 141.949 121.632 141.754 121.719 141.542C121.744 141.482 121.801 141.44 121.868 141.433C122.35 141.366 122.814 141.184 122.047 140.939C121.667 140.25 121.611 140.686 121.576 141.149Z" fill="black"/>
<path d="M123.467 138.139C123.49 138.199 123.475 138.265 123.43 138.309C123.087 138.609 122.864 138.884 122.689 139.131C122.505 139.372 122.424 139.617 122.351 139.818C122.214 140.222 122.273 140.562 122.337 140.612C122.397 140.66 122.732 140.617 123.113 140.306C123.306 140.153 123.465 139.908 123.611 139.602C123.745 139.292 123.808 138.89 123.779 138.436C123.771 138.37 123.8 138.307 123.855 138.271C124.26 138.009 124.626 137.665 123.812 137.754C123.184 137.289 123.296 137.703 123.467 138.139Z" fill="black"/>
<path d="M123.998 134.617C124.041 134.665 124.051 134.732 124.025 134.789C123.826 135.193 123.698 135.533 123.654 135.832C123.58 136.128 123.579 136.385 123.614 136.603C123.661 137.033 123.838 137.315 123.921 137.335C123.992 137.353 124.3 137.182 124.512 136.75C124.606 136.534 124.678 136.254 124.69 135.921C124.671 135.586 124.602 135.197 124.397 134.785C124.366 134.727 124.37 134.658 124.409 134.606C124.693 134.221 124.913 133.78 124.182 134.136C123.427 133.911 123.681 134.267 123.998 134.617Z" fill="black"/>
<path d="M123.249 131.137C123.307 131.166 123.341 131.226 123.338 131.287C123.304 131.731 123.306 132.09 123.364 132.385C123.4 132.686 123.489 132.926 123.599 133.119C123.782 133.511 124.058 133.714 124.14 133.706C124.216 133.698 124.434 133.437 124.495 132.959C124.506 132.724 124.475 132.437 124.367 132.118C124.236 131.808 124.03 131.462 123.683 131.151C123.633 131.107 123.611 131.041 123.627 130.979C123.688 130.749 123.727 130.506 123.682 130.399C123.631 130.292 123.508 130.329 123.243 130.623C122.842 130.658 122.744 130.742 122.795 130.83C122.841 130.923 123.037 131.031 123.249 131.137Z" fill="black"/>
<path d="M121.137 128.275C121.201 128.278 121.256 128.319 121.279 128.378C121.614 129.193 121.939 129.65 122.292 129.923C122.644 130.187 122.948 130.289 123.029 130.245C123.087 130.214 123.215 129.87 123.045 129.422C122.953 129.204 122.836 128.927 122.573 128.7C122.447 128.583 122.3 128.468 122.132 128.361C121.962 128.255 121.749 128.178 121.528 128.107C121.465 128.088 121.418 128.036 121.406 127.97C121.31 127.497 121.087 127.064 120.892 127.827C120.214 128.25 120.669 128.265 121.137 128.275Z" fill="black"/>
<path d="M117.942 126.64C118.001 126.612 118.07 126.621 118.118 126.661C118.777 127.279 119.294 127.51 119.729 127.61C120.15 127.714 120.497 127.627 120.539 127.568C120.587 127.499 120.517 127.181 120.173 126.831C119.833 126.493 119.154 126.18 118.221 126.311C118.155 126.324 118.088 126.301 118.047 126.25C117.749 125.877 117.37 125.548 117.523 126.334C117.097 126.985 117.511 126.842 117.942 126.64Z" fill="black"/>
<path d="M114.321 126.405C114.365 126.358 114.433 126.342 114.493 126.362C114.92 126.527 115.274 126.609 115.581 126.639C115.888 126.686 116.148 126.665 116.368 126.612C116.8 126.542 117.075 126.337 117.089 126.257C117.102 126.184 116.903 125.906 116.447 125.724C116.22 125.651 115.929 125.604 115.588 125.621C115.249 125.655 114.856 125.769 114.454 125.999C114.398 126.035 114.327 126.038 114.27 126.005C113.851 125.766 113.375 125.596 113.815 126.272C113.667 127.03 113.997 126.748 114.321 126.405Z" fill="black"/>
<path d="M110.909 127.564C110.93 127.504 110.986 127.464 111.049 127.459C111.491 127.407 111.864 127.381 112.147 127.275C112.441 127.193 112.675 127.089 112.855 126.957C113.221 126.721 113.402 126.443 113.383 126.361C113.368 126.292 113.074 126.094 112.583 126.106C112.343 126.126 112.048 126.181 111.742 126.338C111.447 126.518 111.113 126.743 110.859 127.145C110.822 127.2 110.758 127.23 110.691 127.222C110.19 127.155 109.716 127.255 110.396 127.654C110.614 128.422 110.749 127.983 110.909 127.564Z" fill="black"/>
<path d="M108.376 130.071C108.366 130.008 108.391 129.944 108.451 129.915C108.858 129.698 109.121 129.469 109.359 129.276C109.471 129.174 109.562 129.071 109.638 128.967C109.717 128.868 109.79 128.778 109.844 128.683C109.955 128.499 110.011 128.316 110.04 128.178C110.073 128.046 110.069 127.947 110.044 127.916C110.019 127.886 109.921 127.859 109.77 127.864C109.624 127.874 109.433 127.927 109.215 128.039C109.108 128.097 108.989 128.165 108.879 128.26C108.774 128.36 108.668 128.478 108.567 128.616C108.353 128.881 108.216 129.272 108.137 129.718C108.124 129.78 108.087 129.838 108.025 129.861C107.578 130.039 107.151 130.306 107.963 130.381C108.484 130.963 108.456 130.535 108.376 130.071Z" fill="black"/>
<path d="M107.179 133.419C107.145 133.365 107.147 133.297 107.183 133.245C107.444 132.881 107.635 132.572 107.734 132.287C107.862 132.012 107.911 131.762 107.917 131.541C107.965 131.117 107.838 130.801 107.764 130.766C107.695 130.734 107.37 130.845 107.066 131.227C106.932 131.423 106.808 131.686 106.733 132.014C106.688 132.347 106.68 132.745 106.815 133.187C106.835 133.249 106.819 133.317 106.772 133.362C106.424 133.694 106.129 134.095 106.912 133.862C107.617 134.206 107.429 133.815 107.179 133.419Z" fill="black"/>
<path d="M107.281 136.984C107.23 136.944 107.208 136.88 107.223 136.819C107.356 136.388 107.409 136.035 107.413 135.731C107.433 135.426 107.389 135.173 107.316 134.963C107.199 134.545 106.968 134.299 106.884 134.294C106.809 134.289 106.544 134.51 106.406 134.969C106.352 135.197 106.33 135.484 106.377 135.813C106.441 136.141 106.591 136.514 106.857 136.887C106.898 136.939 106.907 137.008 106.878 137.066C106.669 137.494 106.535 137.971 107.187 137.488C107.97 137.574 107.656 137.272 107.281 136.984Z" fill="black"/>
<path d="M108.711 140.238C108.649 140.221 108.604 140.17 108.594 140.108C108.552 139.885 108.516 139.691 108.483 139.516C108.443 139.338 108.392 139.183 108.331 139.046C108.231 138.762 108.104 138.542 107.957 138.375C107.693 138.033 107.392 137.879 107.31 137.903C107.24 137.924 107.066 138.224 107.111 138.703C107.147 138.937 107.229 139.218 107.405 139.508C107.504 139.647 107.623 139.79 107.765 139.93C107.902 140.072 108.077 140.203 108.287 140.314C108.345 140.347 108.38 140.407 108.377 140.473C108.343 140.965 108.469 141.426 108.835 140.735C109.602 140.475 109.151 140.366 108.711 140.238Z" fill="black"/>
<path d="M111.425 142.555C111.36 142.572 111.296 142.545 111.262 142.49C111.011 142.111 110.766 141.864 110.552 141.646C110.442 141.543 110.33 141.461 110.22 141.394C110.119 141.317 110.018 141.256 109.919 141.209C109.518 141.027 109.186 141.008 109.125 141.061C109.067 141.112 109.033 141.461 109.302 141.864C109.367 141.966 109.448 142.073 109.547 142.18C109.655 142.276 109.783 142.372 109.931 142.461C110.216 142.652 110.619 142.767 111.082 142.81C111.146 142.817 111.205 142.857 111.235 142.912C111.446 143.336 111.75 143.735 111.769 142.936C112.326 142.386 111.892 142.445 111.425 142.555Z" fill="black"/>
<path d="M114.918 143.47C114.866 143.508 114.796 143.512 114.741 143.481C114.349 143.255 114.02 143.096 113.724 143.02C113.434 142.916 113.177 142.889 112.952 142.9C112.519 142.881 112.205 143.031 112.175 143.105C112.147 143.175 112.284 143.481 112.695 143.755C112.905 143.87 113.184 143.971 113.524 144.018C113.867 144.038 114.274 144.012 114.712 143.845C114.774 143.82 114.844 143.83 114.894 143.872C115.262 144.184 115.696 144.437 115.391 143.693C115.679 142.976 115.3 143.192 114.918 143.47Z" fill="black"/>
<path d="M117.491 141.76C117.453 141.813 117.387 141.839 117.324 141.828C116.867 141.727 116.508 141.699 116.193 141.681C115.883 141.685 115.622 141.71 115.403 141.766C114.968 141.895 114.697 142.073 114.687 142.164C114.682 142.202 114.734 142.288 114.848 142.386C114.961 142.488 115.138 142.598 115.381 142.658C115.624 142.726 115.932 142.767 116.287 142.695C116.64 142.646 117.037 142.469 117.416 142.182C117.469 142.138 117.541 142.124 117.604 142.147C118.079 142.334 118.588 142.366 118.024 141.806C118.025 141.013 117.768 141.389 117.491 141.76Z" fill="black"/>
<path d="M120.585 139.824C120.583 139.888 120.538 139.941 120.477 139.965C119.627 140.305 119.146 140.599 118.841 140.933C118.533 141.244 118.415 141.569 118.445 141.636C118.478 141.711 118.805 141.83 119.304 141.701C119.55 141.637 119.824 141.485 120.096 141.254C120.224 141.128 120.35 140.98 120.468 140.812C120.585 140.643 120.671 140.43 120.752 140.21C120.774 140.147 120.831 140.101 120.897 140.087C121.373 139.97 121.849 139.751 121.049 139.57C120.625 138.915 120.585 139.345 120.585 139.824Z" fill="black"/>
<path d="M122.21 136.56C122.239 136.618 122.234 136.688 122.192 136.738C121.877 137.085 121.692 137.394 121.533 137.663C121.397 137.94 121.302 138.179 121.26 138.398C121.182 138.836 121.23 139.153 121.308 139.203C121.362 139.24 121.735 139.184 122.067 138.811C122.413 138.456 122.718 137.758 122.553 136.826C122.541 136.76 122.56 136.692 122.611 136.649C122.983 136.332 123.307 135.937 122.509 136.124C121.831 135.723 121.99 136.134 122.21 136.56Z" fill="black"/>
<path d="M122.254 132.914C122.306 132.954 122.335 133.019 122.314 133.082C122.247 133.305 122.203 133.503 122.177 133.685C122.148 133.867 122.115 134.036 122.112 134.189C122.111 134.496 122.114 134.756 122.177 134.973C122.291 135.405 122.483 135.672 122.572 135.683C122.64 135.692 122.943 135.483 123.087 135.012C123.235 134.554 123.245 133.792 122.679 133.011C122.644 132.956 122.628 132.886 122.656 132.826C122.853 132.379 122.958 131.877 122.331 132.396C121.541 132.336 121.871 132.626 122.254 132.914Z" fill="black"/>
<path d="M120.5 129.748C120.564 129.756 120.618 129.802 120.638 129.862C120.904 130.725 121.196 131.199 121.494 131.535C121.807 131.852 122.099 132.004 122.182 131.974C122.248 131.951 122.424 131.628 122.311 131.141C122.229 130.657 121.813 129.979 120.908 129.612C120.844 129.587 120.799 129.53 120.79 129.463C120.722 128.971 120.504 128.516 120.277 129.275C119.572 129.658 120.031 129.697 120.5 129.748Z" fill="black"/>
<path d="M117.27 128.014C117.33 127.984 117.401 127.992 117.45 128.038C118.152 128.628 118.654 128.898 119.103 128.996C119.53 129.11 119.873 129.061 119.925 128.994C119.969 128.938 119.92 128.591 119.565 128.228C119.211 127.888 118.511 127.523 117.545 127.685C117.479 127.692 117.41 127.671 117.366 127.622C117.046 127.256 116.64 126.936 116.828 127.719C116.417 128.382 116.833 128.227 117.27 128.014Z" fill="black"/>
<path d="M113.575 128.054C113.612 128.001 113.678 127.974 113.741 127.984C114.198 128.086 114.557 128.115 114.871 128.133C115.181 128.127 115.441 128.11 115.66 128.049C116.095 127.929 116.367 127.745 116.378 127.655C116.387 127.591 116.174 127.289 115.686 127.158C115.213 127.011 114.418 127.04 113.648 127.631C113.596 127.676 113.524 127.69 113.461 127.667C112.986 127.482 112.476 127.448 113.041 128.008C113.042 128.801 113.298 128.427 113.575 128.054Z" fill="black"/>
<path d="M110.485 129.997C110.488 129.933 110.533 129.88 110.594 129.856C111.443 129.515 111.922 129.218 112.227 128.884C112.383 128.73 112.486 128.57 112.549 128.438C112.614 128.311 112.639 128.218 112.621 128.18C112.587 128.105 112.259 127.985 111.762 128.118C111.515 128.181 111.243 128.335 110.971 128.566C110.844 128.693 110.718 128.841 110.6 129.009C110.483 129.178 110.398 129.392 110.318 129.611C110.296 129.675 110.24 129.721 110.173 129.735C109.697 129.854 109.222 130.072 110.022 130.253C110.447 130.907 110.486 130.476 110.485 129.997Z" fill="black"/>
<path d="M108.863 133.264C108.834 133.206 108.84 133.135 108.881 133.086C109.196 132.739 109.382 132.43 109.54 132.16C109.676 131.882 109.77 131.643 109.813 131.425C109.89 130.987 109.841 130.669 109.764 130.619C109.71 130.583 109.337 130.639 109.006 131.013C108.66 131.367 108.355 132.065 108.52 132.998C108.533 133.063 108.513 133.132 108.462 133.175C108.09 133.492 107.766 133.886 108.564 133.699C109.242 134.101 109.083 133.689 108.863 133.264Z" fill="black"/>
<path d="M108.818 136.909C108.766 136.869 108.737 136.804 108.759 136.741C108.825 136.519 108.87 136.32 108.895 136.138C108.925 135.956 108.958 135.788 108.961 135.634C108.962 135.327 108.959 135.067 108.896 134.851C108.782 134.418 108.591 134.151 108.501 134.14C108.433 134.131 108.13 134.34 107.986 134.811C107.837 135.269 107.828 136.031 108.393 136.812C108.428 136.867 108.444 136.937 108.416 136.998C108.219 137.444 108.113 137.946 108.741 137.428C109.53 137.489 109.201 137.199 108.818 136.909Z" fill="black"/>
<path d="M110.565 140.08C110.501 140.072 110.447 140.026 110.427 139.965C110.163 139.103 109.874 138.627 109.575 138.29C109.263 137.972 108.972 137.82 108.888 137.849C108.822 137.872 108.647 138.195 108.758 138.682C108.838 139.166 109.252 139.845 110.156 140.215C110.22 140.24 110.265 140.297 110.273 140.364C110.341 140.856 110.558 141.313 110.787 140.553C111.492 140.173 111.035 140.131 110.565 140.08Z" fill="black"/>
<path d="M113.794 141.81C113.734 141.838 113.662 141.835 113.613 141.79C112.912 141.196 112.406 140.936 111.96 140.833C111.532 140.722 111.191 140.767 111.139 140.835C111.095 140.89 111.141 141.24 111.498 141.601C111.849 141.946 112.556 142.302 113.519 142.143C113.585 142.135 113.656 142.151 113.699 142.202C114.022 142.569 114.43 142.889 114.236 142.105C114.641 141.442 114.228 141.597 113.794 141.81Z" fill="black"/>
<path d="M92.6641 127.306C92.8468 126.346 91.8985 125.314 90.8471 125.781C90.8136 125.791 90.7706 125.831 90.8118 125.863C91.6176 126.343 91.9735 127.458 91.6176 128.391C91.6113 128.417 91.6202 128.429 91.6339 128.434C91.6396 128.448 91.6505 128.458 91.672 128.451C92.5155 128.058 93.5245 128.45 93.9592 129.341C93.9904 129.388 94.0225 129.338 94.0328 129.302C94.4514 128.142 93.5308 127.104 92.6641 127.306Z" fill="black"/>
<path d="M96.7493 121.853C96.932 120.893 95.9837 119.861 94.9323 120.328C94.8988 120.338 94.8558 120.378 94.897 120.409C95.7028 120.89 96.0587 122.005 95.7028 122.938C95.6965 122.964 95.7054 122.976 95.7191 122.981C95.7248 122.995 95.7357 123.005 95.7572 122.998C96.6007 122.605 97.6097 122.997 98.0444 123.888C98.0756 123.935 98.1077 123.885 98.118 123.849C98.5366 122.688 97.616 121.651 96.7493 121.853Z" fill="black"/>
<path d="M104.746 120.64C104.929 119.681 103.981 118.649 102.929 119.116C102.896 119.125 102.853 119.165 102.894 119.197C103.7 119.678 104.056 120.793 103.7 121.725C103.694 121.751 103.702 121.763 103.716 121.769C103.722 121.783 103.733 121.792 103.754 121.786C104.598 121.392 105.607 121.784 106.041 122.676C106.073 122.722 106.105 122.673 106.115 122.637C106.534 121.476 105.613 120.438 104.746 120.64Z" fill="black"/>
<path d="M88.8897 131.627C89.0724 130.667 88.1241 129.636 87.0726 130.103C87.0391 130.112 86.9962 130.152 87.0374 130.184C87.8432 130.664 88.1991 131.78 87.8432 132.712C87.8369 132.738 87.8457 132.75 87.8595 132.756C87.8652 132.77 87.8761 132.779 87.8976 132.772C88.7411 132.379 89.7501 132.771 90.1848 133.662C90.216 133.709 90.2481 133.659 90.2584 133.623C90.677 132.463 89.7564 131.425 88.8897 131.627Z" fill="black"/>
<path d="M84.8692 138.713C85.0519 137.754 84.1035 136.722 83.0521 137.189C83.0186 137.198 82.9757 137.239 83.0169 137.27C83.8227 137.751 84.1786 138.866 83.8227 139.799C83.8164 139.824 83.8252 139.836 83.839 139.842C83.8447 139.856 83.8556 139.866 83.8771 139.859C84.7206 139.465 85.7296 139.857 86.1643 140.749C86.1955 140.796 86.2276 140.746 86.2379 140.71C86.6565 139.549 85.7359 138.512 84.8692 138.713Z" fill="black"/>
<path d="M97.816 147.463C97.9987 146.504 97.0503 145.472 95.9989 145.939C95.9654 145.949 95.9225 145.989 95.9637 146.02C96.7694 146.501 97.1253 147.616 96.7694 148.549C96.7631 148.574 96.772 148.586 96.7858 148.592C96.7915 148.606 96.8024 148.616 96.8238 148.609C97.6674 148.215 98.6764 148.607 99.111 149.499C99.1423 149.546 99.1743 149.496 99.1846 149.46C99.6033 148.299 98.6827 147.262 97.816 147.463Z" fill="black"/>
<path d="M96.0064 127.306C96.1891 126.346 95.2408 125.314 94.1893 125.781C94.1558 125.791 94.1129 125.831 94.1541 125.863C94.9599 126.343 95.3158 127.458 94.9599 128.391C94.9536 128.417 94.9624 128.429 94.9762 128.434C94.9819 128.448 94.9928 128.458 95.0143 128.451C95.8578 128.058 96.8668 128.45 97.3015 129.341C97.3327 129.388 97.3648 129.338 97.3751 129.302C97.7937 128.142 96.8731 127.104 96.0064 127.306Z" fill="black"/>
<path d="M99.3486 127.306C99.5313 126.346 98.583 125.314 97.5313 125.781C97.4978 125.791 97.4551 125.831 97.496 125.863C98.3021 126.343 98.658 127.458 98.3018 128.391C98.2958 128.417 98.3046 128.429 98.3184 128.434C98.3241 128.448 98.335 128.458 98.3562 128.451C99.2 128.058 100.209 128.45 100.644 129.341C100.675 129.388 100.707 129.338 100.717 129.302C101.136 128.142 100.215 127.104 99.3486 127.306Z" fill="black"/>
<path d="M102.691 127.306C102.873 126.346 101.925 125.314 100.873 125.781C100.84 125.791 100.797 125.831 100.838 125.863C101.644 126.343 102 127.458 101.644 128.391C101.638 128.417 101.647 128.429 101.66 128.434C101.666 128.448 101.677 128.458 101.698 128.451C102.542 128.058 103.551 128.45 103.986 129.341C104.017 129.388 104.049 129.338 104.059 129.302C104.478 128.142 103.557 127.104 102.691 127.306Z" fill="black"/>
<path d="M92.5978 142.356C92.7877 141.396 91.8018 140.365 90.7092 140.832C90.6743 140.841 90.6299 140.881 90.6725 140.913C91.5098 141.393 91.8797 142.509 91.5098 143.441C91.5035 143.467 91.5126 143.479 91.5272 143.485C91.533 143.499 91.5444 143.508 91.5662 143.501C92.4432 143.108 93.4918 143.5 93.9436 144.391C93.9759 144.438 94.0092 144.388 94.02 144.352C94.455 143.192 93.4986 142.154 92.5978 142.356Z" fill="black"/>
<path d="M96.071 142.356C96.2608 141.396 95.2753 140.365 94.1823 140.832C94.1474 140.841 94.103 140.881 94.1457 140.913C94.9832 141.393 95.3531 142.509 94.9832 143.441C94.9766 143.467 94.9861 143.479 95.0004 143.485C95.0064 143.499 95.0176 143.508 95.0396 143.501C95.9164 143.108 96.9649 143.5 97.4167 144.391C97.4494 144.438 97.4826 144.388 97.4932 144.352C97.9284 143.192 96.9718 142.154 96.071 142.356Z" fill="black"/>
<path d="M99.5444 142.356C99.7345 141.396 98.7487 140.365 97.6561 140.832C97.6211 140.841 97.5768 140.881 97.6191 140.913C98.4567 141.393 98.8266 142.509 98.4567 143.441C98.4501 143.467 98.4595 143.479 98.4738 143.485C98.4798 143.499 98.4913 143.508 98.5131 143.501C99.3898 143.108 100.439 143.5 100.89 144.391C100.923 144.438 100.956 144.388 100.967 144.352C101.402 143.192 100.446 142.154 99.5444 142.356Z" fill="black"/>
<path d="M103.018 142.356C103.208 141.396 102.222 140.365 101.129 140.832C101.094 140.841 101.05 140.881 101.092 140.913C101.93 141.393 102.3 142.509 101.93 143.441C101.923 143.467 101.933 143.479 101.947 143.485C101.953 143.499 101.965 143.508 101.986 143.501C102.863 143.108 103.912 143.5 104.364 144.391C104.396 144.438 104.429 144.388 104.44 144.352C104.875 143.192 103.919 142.154 103.018 142.356Z" fill="black"/>
<path d="M93.7545 138.728C93.9901 137.827 93.0352 136.89 91.9042 137.355C91.8684 137.365 91.8214 137.403 91.8635 137.432C92.6925 137.858 93.0183 138.889 92.6008 139.769C92.5931 139.793 92.602 139.805 92.6163 139.809C92.6217 139.822 92.6329 139.831 92.6555 139.824C93.5638 139.434 94.6115 139.771 95.0304 140.591C95.0613 140.634 95.0974 140.587 95.1097 140.553C95.6036 139.458 94.6785 138.515 93.7545 138.728Z" fill="black"/>
<path d="M95.7897 136.817C96.0253 135.916 95.0704 134.98 93.9394 135.444C93.9039 135.454 93.857 135.493 93.8988 135.521C94.728 135.947 95.0538 136.978 94.6364 137.859C94.6286 137.883 94.6375 137.894 94.6518 137.899C94.657 137.912 94.6681 137.92 94.6908 137.913C95.599 137.523 96.6467 137.861 97.0656 138.681C97.0965 138.724 97.1326 138.676 97.1452 138.642C97.6391 137.548 96.714 136.605 95.7897 136.817Z" fill="black"/>
<path d="M97.8252 134.906C98.0609 134.006 97.106 133.069 95.9749 133.534C95.9394 133.544 95.8922 133.582 95.9343 133.611C96.7635 134.037 97.0893 135.068 96.6716 135.948C96.6641 135.972 96.673 135.983 96.6873 135.988C96.6925 136.001 96.7037 136.01 96.7263 136.003C97.6345 135.612 98.6822 135.95 99.1011 136.77C99.132 136.813 99.1681 136.766 99.1804 136.732C99.6746 135.637 98.7495 134.694 97.8252 134.906Z" fill="black"/>
<path d="M99.8606 132.995C100.096 132.094 99.1414 131.158 98.0103 131.623C97.9748 131.633 97.9276 131.671 97.9697 131.7C98.7989 132.126 99.1245 133.156 98.707 134.037C98.6995 134.061 98.7081 134.072 98.7227 134.077C98.7279 134.09 98.7391 134.099 98.7617 134.092C99.6696 133.701 100.718 134.039 101.137 134.859C101.167 134.902 101.204 134.854 101.216 134.821C101.71 133.726 100.785 132.783 99.8606 132.995Z" fill="black"/>
<path d="M101.896 131.084C102.132 130.184 101.177 129.247 100.046 129.712C100.01 129.722 99.963 129.76 100.005 129.789C100.834 130.215 101.16 131.246 100.742 132.126C100.735 132.15 100.744 132.161 100.758 132.166C100.763 132.179 100.775 132.188 100.797 132.181C101.705 131.79 102.753 132.129 103.172 132.948C103.203 132.991 103.239 132.944 103.251 132.91C103.745 131.815 102.82 130.872 101.896 131.084Z" fill="black"/>
<path d="M84.8953 147.234H91.6169C94.672 147.234 96.7597 149.255 96.7597 151.799C96.7597 153.445 95.8686 154.841 94.5701 155.49V155.639C96.0977 156.413 97.091 158.084 97.091 159.855C97.091 162.598 94.723 164.693 91.5659 164.693H84.8953V147.234ZM91.413 154.667C93.0171 154.667 94.1884 153.569 94.1884 152.048C94.1884 150.527 93.0171 149.454 91.413 149.454H87.4156V154.667H91.413ZM91.6421 162.473C93.1954 162.473 94.5194 161.201 94.5194 159.68C94.5194 158.159 93.1954 156.862 91.6421 156.862H87.4156V162.473H91.6421Z" fill="black"/>
<path d="M100.832 147.234H107.554C110.609 147.234 112.824 149.404 112.824 152.297C112.824 154.617 111.424 156.363 109.132 157.036L113.461 164.693H110.635L106.586 157.485H103.353V164.693H100.832V147.234ZM107.299 155.266C108.954 155.266 110.253 153.968 110.253 152.347C110.253 150.751 108.954 149.454 107.299 149.454H103.353V155.266H107.299Z" fill="black"/>
<path d="M117.049 147.234H119.62L128.583 160.403H128.735V147.234H131.18V164.693H128.608L119.62 151.524H119.468V164.693H117.049V147.234Z" fill="black"/>
<path d="M135.226 155.964C135.226 150.727 139.045 146.96 144.315 146.96C149.586 146.96 153.405 150.727 153.405 155.964C153.405 161.202 149.586 164.968 144.315 164.968C139.045 164.968 135.226 161.202 135.226 155.964ZM144.315 162.698C148.135 162.698 150.833 159.93 150.833 155.964C150.833 151.998 148.135 149.23 144.315 149.23C140.471 149.23 137.798 151.998 137.798 155.964C137.798 159.93 140.471 162.698 144.315 162.698Z" fill="black"/>
<path d="M118.871 133.633C118.926 133.672 118.958 133.738 118.941 133.805C118.746 134.718 118.677 135.282 118.726 135.739C118.747 135.963 118.79 136.15 118.833 136.289C118.882 136.428 118.936 136.518 118.972 136.531C119.01 136.545 119.11 136.514 119.232 136.416C119.36 136.32 119.506 136.154 119.62 135.905C119.734 135.658 119.806 135.329 119.781 134.946C119.741 134.567 119.621 134.122 119.302 133.716C119.263 133.658 119.243 133.584 119.265 133.517C119.352 133.273 119.385 133.005 119.332 132.879C119.28 132.75 119.159 132.786 118.884 133.088C118.483 133.095 118.385 133.186 118.428 133.277C118.476 133.37 118.674 133.489 118.871 133.633Z" fill="black"/>
<path d="M112.745 132.536C112.739 132.468 112.782 132.409 112.844 132.381C113.274 132.179 113.602 132.044 113.882 131.925C114.157 131.803 114.378 131.686 114.568 131.568C114.756 131.451 114.908 131.333 115.017 131.234C115.123 131.128 115.183 131.046 115.179 131.007C115.176 130.969 115.105 130.89 114.961 130.827C114.817 130.757 114.598 130.698 114.314 130.712C114.033 130.726 113.684 130.818 113.348 131.052C113.01 131.275 112.701 131.661 112.554 132.151C112.533 132.22 112.476 132.274 112.412 132.3C112.29 132.345 112.166 132.399 112.063 132.458C111.967 132.521 111.891 132.587 111.856 132.645C111.785 132.766 111.89 132.837 112.3 132.861C112.556 133.166 112.689 133.184 112.734 133.095C112.758 133.048 112.762 132.969 112.756 132.869C112.757 132.774 112.752 132.658 112.745 132.536Z" fill="black"/>
<path d="M114.91 138.58C114.851 138.61 114.775 138.612 114.723 138.567C114.339 138.288 114.072 138.049 113.833 137.867C113.591 137.69 113.393 137.542 113.194 137.438C112.819 137.216 112.485 137.112 112.408 137.157C112.35 137.189 112.251 137.554 112.531 138.049C112.679 138.282 112.916 138.554 113.286 138.733C113.648 138.916 114.131 139.024 114.645 138.923C114.716 138.916 114.793 138.927 114.845 138.977C115.033 139.162 115.267 139.304 115.404 139.312C115.545 139.322 115.564 139.2 115.406 138.827C115.573 138.469 115.531 138.344 115.428 138.342C115.322 138.342 115.127 138.47 114.91 138.58Z" fill="black"/>
<path d="M118.698 144.765C118.66 144.822 118.589 144.84 118.523 144.829C117.587 144.669 116.969 144.734 116.525 144.916C116.084 145.059 115.84 145.314 115.842 145.394C115.844 145.469 116.105 145.701 116.607 145.804C117.098 145.871 117.86 145.795 118.623 145.18C118.676 145.137 118.751 145.132 118.815 145.151C119.284 145.303 119.798 145.376 119.239 144.793C119.272 144.008 118.975 144.358 118.698 144.765Z" fill="black"/>
<path d="M125.589 136.496C125.623 136.553 125.62 136.624 125.584 136.68C125.344 137.076 125.144 137.408 125.043 137.714C124.95 138.021 124.884 138.282 124.875 138.512C124.864 138.742 124.898 138.937 124.943 139.079C124.977 139.217 125.028 139.304 125.066 139.319C125.102 139.333 125.203 139.306 125.335 139.225C125.456 139.14 125.602 138.998 125.74 138.789C125.876 138.579 126.017 138.305 126.053 137.954C126.097 137.605 126.11 137.194 125.953 136.731C125.933 136.666 125.95 136.595 125.997 136.547C126.171 136.37 126.338 136.175 126.352 136.055C126.362 135.935 126.237 135.901 125.859 136.025C125.493 135.842 125.366 135.864 125.365 135.974C125.36 136.084 125.465 136.288 125.589 136.496Z" fill="black"/>
<path d="M121.584 126.441C121.65 126.439 121.713 126.477 121.744 126.535C121.853 126.744 121.977 126.907 122.078 127.074C122.18 127.239 122.284 127.379 122.391 127.498C122.615 127.727 122.805 127.918 123.004 128.041C123.404 128.281 123.737 128.345 123.803 128.297C123.865 128.253 123.93 127.896 123.69 127.455C123.573 127.234 123.406 126.971 123.109 126.762C122.966 126.654 122.802 126.548 122.617 126.453C122.433 126.356 122.203 126.298 121.967 126.242C121.899 126.228 121.844 126.178 121.823 126.113C121.786 125.994 121.744 125.875 121.697 125.777C121.645 125.686 121.591 125.614 121.539 125.581C121.433 125.515 121.345 125.608 121.281 125.996C120.949 126.226 120.91 126.348 121.007 126.4C121.056 126.426 121.141 126.436 121.245 126.437C121.345 126.444 121.463 126.444 121.584 126.441Z" fill="black"/>
<path d="M114.253 124.684C114.301 124.639 114.372 124.616 114.436 124.644C114.886 124.825 115.261 124.892 115.588 124.928C115.915 124.976 116.192 124.956 116.424 124.903C116.885 124.814 117.166 124.627 117.179 124.542C117.189 124.473 116.975 124.178 116.495 124.015C116.256 123.941 115.952 123.894 115.595 123.911C115.24 123.938 114.83 124.068 114.402 124.281C114.342 124.309 114.268 124.318 114.209 124.284C113.776 124.046 113.286 123.878 113.725 124.555C113.542 125.318 113.904 125.031 114.253 124.684Z" fill="black"/>
<path d="M105.877 131.477C105.854 131.416 105.871 131.346 105.917 131.298C106.081 131.127 106.213 130.964 106.324 130.808C106.45 130.658 106.551 130.514 106.632 130.375C106.712 130.236 106.772 130.101 106.817 129.973C106.874 129.85 106.914 129.733 106.941 129.621C107.047 129.177 106.966 128.834 106.905 128.794C106.833 128.749 106.494 128.83 106.142 129.194C106.054 129.284 105.964 129.391 105.879 129.516C105.806 129.647 105.738 129.796 105.681 129.964C105.624 130.131 105.577 130.316 105.546 130.518C105.531 130.725 105.536 130.95 105.562 131.187C105.57 131.254 105.54 131.322 105.483 131.361C105.059 131.652 104.759 132.039 105.545 131.902C106.212 132.369 106.035 131.918 105.877 131.477Z" fill="black"/>
<path d="M108.044 142.141C107.979 142.129 107.926 142.08 107.907 142.017C107.845 141.79 107.761 141.603 107.695 141.421C107.63 141.239 107.557 141.08 107.478 140.941C107.308 140.671 107.156 140.448 106.99 140.287C106.649 139.97 106.328 139.847 106.256 139.879C106.183 139.912 106.056 140.246 106.197 140.726C106.263 140.966 106.376 141.253 106.621 141.517C106.738 141.653 106.876 141.789 107.036 141.92C107.198 142.049 107.408 142.155 107.628 142.258C107.69 142.286 107.734 142.345 107.74 142.413C107.756 142.666 107.816 142.907 107.907 142.991C107.995 143.078 108.101 143.004 108.246 142.638C108.62 142.48 108.684 142.368 108.6 142.298C108.513 142.229 108.277 142.191 108.044 142.141Z" fill="black"/>
<path d="M124.334 141.223C124.336 141.289 124.298 141.349 124.24 141.379C123.839 141.602 123.495 141.786 123.259 142C123.138 142.104 123.042 142.215 122.954 142.318C122.861 142.415 122.786 142.513 122.725 142.608C122.481 142.99 122.454 143.34 122.506 143.402C122.554 143.461 122.897 143.487 123.343 143.262C123.454 143.206 123.572 143.135 123.691 143.046C123.804 142.952 123.911 142.832 124.019 142.695C124.226 142.417 124.445 142.077 124.534 141.602C124.549 141.537 124.598 141.484 124.663 141.466C125.141 141.331 125.604 141.115 124.799 140.951C124.363 140.304 124.321 140.749 124.334 141.223Z" fill="black"/>
<path d="M124.072 126.536C124.136 126.552 124.18 126.608 124.191 126.672C124.257 127.138 124.4 127.472 124.519 127.767C124.639 128.06 124.795 128.278 124.957 128.443C125.258 128.782 125.566 128.922 125.646 128.89C125.714 128.864 125.866 128.54 125.777 128.056C125.722 127.821 125.611 127.544 125.417 127.256C125.226 126.967 124.893 126.702 124.492 126.457C124.434 126.424 124.4 126.359 124.4 126.293C124.385 125.816 124.281 125.329 123.914 126.037C123.151 126.283 123.589 126.429 124.072 126.536Z" fill="black"/>
<path d="M108.938 124.806C108.96 124.746 109.018 124.705 109.084 124.698C109.554 124.649 109.909 124.543 110.222 124.452C110.528 124.352 110.753 124.196 110.938 124.063C111.309 123.804 111.463 123.492 111.438 123.416C111.414 123.344 111.101 123.194 110.597 123.236C110.348 123.26 110.067 123.368 109.762 123.539C109.452 123.7 109.154 123.998 108.887 124.389C108.849 124.444 108.783 124.475 108.714 124.469C108.207 124.421 107.727 124.521 108.413 124.917C108.62 125.691 108.776 125.242 108.938 124.806Z" fill="black"/>
<path d="M104.469 137.873C104.417 137.832 104.395 137.765 104.409 137.702C104.496 137.258 104.575 136.879 104.558 136.562C104.544 136.245 104.479 135.982 104.415 135.765C104.269 135.334 104.01 135.098 103.929 135.099C103.851 135.1 103.614 135.348 103.507 135.825C103.444 136.063 103.445 136.356 103.527 136.689C103.611 137.021 103.735 137.401 104.045 137.776C104.086 137.829 104.095 137.9 104.067 137.961C103.861 138.403 103.729 138.887 104.379 138.397C105.166 138.494 104.846 138.172 104.469 137.873Z" fill="black"/>
<path d="M114.878 146.809C114.824 146.847 114.752 146.851 114.694 146.82C114.278 146.619 113.926 146.462 113.612 146.384C113.298 146.308 113.022 146.31 112.794 146.308C112.335 146.326 112.029 146.503 112.007 146.581C111.986 146.653 112.162 146.945 112.603 147.18C112.822 147.307 113.113 147.375 113.464 147.392C113.814 147.41 114.223 147.376 114.672 147.184C114.736 147.159 114.808 147.169 114.86 147.212C115.243 147.524 115.684 147.778 115.371 147.033C115.672 146.317 115.271 146.532 114.878 146.809Z" fill="black"/>
</g>
</svg>
