<svg width="240" height="338" viewBox="0 0 240 338" fill="none" xmlns="http://www.w3.org/2000/svg">
<rect width="240" height="338" fill="#ffffff"/>
<g opacity="0.25">
<path d="M134.255 166.595L134.207 166.613C134.207 166.604 134.208 166.597 134.209 166.588C134.205 166.475 134.147 166.364 134.075 166.373C134.003 166.382 133.954 166.507 133.967 166.617C133.973 166.669 133.99 166.708 134.013 166.735C133.874 166.681 133.684 166.681 133.475 166.709C133.28 166.752 133.067 166.829 132.906 166.935C132.748 167.046 132.651 167.158 132.603 167.264C132.582 167.306 132.543 167.342 132.498 167.356C132.374 167.392 132.253 167.471 132.164 167.592C132.037 167.754 132.04 167.976 132.134 168.132C132.32 168.429 132.708 168.447 132.951 168.253C133.011 168.202 133.056 168.139 133.086 168.07C133.102 168.028 133.141 168.002 133.186 168.001C133.295 167.996 133.411 167.956 133.54 167.865C133.668 167.781 133.797 167.676 133.906 167.55C134.02 167.443 134.115 167.307 134.175 167.188C134.176 167.222 134.189 167.262 134.215 167.308C134.273 167.405 134.362 167.49 134.403 167.466C134.445 167.443 134.433 167.318 134.384 167.218C134.379 167.21 134.376 167.205 134.372 167.198C134.385 167.196 134.399 167.194 134.413 167.19C134.588 167.142 134.721 166.997 134.704 166.823C134.69 166.659 134.482 166.534 134.255 166.595Z" fill="black"/>
<path d="M130.189 170.915L130.161 170.958C130.157 170.951 130.153 170.945 130.148 170.937C130.075 170.85 129.96 170.795 129.908 170.845C129.857 170.895 129.894 171.023 129.973 171.103C130.01 171.141 130.047 171.162 130.082 171.17C129.938 171.209 129.787 171.322 129.638 171.468C129.509 171.618 129.387 171.804 129.324 171.984C129.266 172.167 129.258 172.313 129.285 172.426C129.294 172.472 129.285 172.524 129.258 172.562C129.181 172.663 129.134 172.798 129.137 172.947C129.137 173.151 129.275 173.326 129.447 173.395C129.778 173.522 130.098 173.306 130.172 173.009C130.189 172.932 130.185 172.856 130.166 172.783C130.154 172.739 130.169 172.696 130.205 172.668C130.288 172.6 130.356 172.5 130.402 172.351C130.453 172.207 130.491 172.049 130.5 171.883C130.524 171.731 130.517 171.566 130.491 171.436C130.513 171.462 130.548 171.487 130.597 171.507C130.703 171.551 130.826 171.565 130.844 171.522C130.863 171.479 130.776 171.387 130.676 171.336C130.668 171.333 130.662 171.33 130.654 171.327C130.664 171.317 130.673 171.308 130.682 171.297C130.792 171.155 130.809 170.96 130.688 170.831C130.575 170.709 130.332 170.733 130.189 170.915Z" fill="black"/>
<path d="M128.397 171.127L128.361 171.163C128.358 171.155 128.355 171.149 128.352 171.141C128.299 171.04 128.198 170.964 128.137 171.002C128.076 171.041 128.086 171.174 128.146 171.268C128.174 171.313 128.207 171.34 128.239 171.355C128.09 171.365 127.919 171.445 127.742 171.558C127.584 171.679 127.426 171.837 127.327 172C127.232 172.167 127.194 172.309 127.197 172.425C127.196 172.473 127.177 172.521 127.142 172.553C127.046 172.637 126.972 172.759 126.944 172.906C126.9 173.105 127 173.305 127.154 173.407C127.451 173.597 127.81 173.45 127.944 173.173C127.976 173.101 127.989 173.026 127.986 172.951C127.983 172.905 128.006 172.866 128.047 172.846C128.143 172.796 128.231 172.712 128.307 172.575C128.386 172.445 128.456 172.297 128.499 172.136C128.555 171.993 128.582 171.829 128.584 171.697C128.6 171.727 128.629 171.758 128.673 171.788C128.768 171.852 128.885 171.891 128.912 171.852C128.939 171.813 128.874 171.706 128.786 171.636C128.779 171.631 128.773 171.628 128.766 171.623C128.778 171.616 128.789 171.609 128.8 171.599C128.937 171.482 128.994 171.295 128.903 171.145C128.818 171.002 128.575 170.977 128.397 171.127Z" fill="black"/>
<path d="M137.668 167.019L137.623 167.018C137.626 167.011 137.628 167.005 137.632 166.996C137.666 166.889 137.657 166.765 137.604 166.749C137.548 166.735 137.479 166.826 137.44 166.932C137.423 166.981 137.418 167.023 137.424 167.057C137.259 166.851 136.936 166.626 136.597 166.527C136.431 166.478 136.279 166.474 136.169 166.503C136.124 166.514 136.069 166.508 136.03 166.478C135.926 166.398 135.785 166.349 135.62 166.359C135.402 166.364 135.212 166.515 135.163 166.686C135.08 167.021 135.301 167.314 135.582 167.371C135.656 167.384 135.733 167.386 135.805 167.368C135.848 167.358 135.891 167.37 135.922 167.404C135.998 167.486 136.101 167.548 136.274 167.599C136.603 167.697 137.097 167.696 137.352 167.532C137.335 167.562 137.325 167.603 137.329 167.656C137.336 167.767 137.409 167.888 137.471 167.881C137.536 167.876 137.574 167.756 137.561 167.645C137.559 167.636 137.558 167.63 137.556 167.622L137.604 167.631C137.82 167.654 138.005 167.525 138.012 167.354C138.02 167.185 137.866 167.041 137.668 167.019Z" fill="black"/>
<path d="M140.71 166.416L140.674 166.442C140.672 166.434 140.671 166.428 140.668 166.419C140.628 166.313 140.545 166.223 140.494 166.238C140.443 166.253 140.44 166.375 140.475 166.481C140.491 166.531 140.514 166.567 140.54 166.59C140.271 166.528 139.881 166.559 139.593 166.638C139.448 166.687 139.342 166.735 139.27 166.814C139.24 166.846 139.196 166.857 139.155 166.842C139.046 166.804 138.93 166.811 138.807 166.85C138.642 166.913 138.505 167.062 138.464 167.241C138.383 167.576 138.672 167.877 139.057 167.836C139.152 167.823 139.239 167.791 139.311 167.746C139.354 167.721 139.409 167.715 139.457 167.728C139.572 167.759 139.729 167.772 139.919 167.71C140.304 167.604 140.687 167.284 140.777 167.01C140.783 167.044 140.801 167.083 140.837 167.122C140.912 167.206 141.035 167.259 141.087 167.218C141.139 167.177 141.093 167.057 141.015 166.977C141.008 166.971 141.003 166.967 140.997 166.962L141.04 166.939C141.229 166.824 141.292 166.612 141.189 166.472C141.089 166.337 140.875 166.315 140.71 166.416Z" fill="black"/>
<path d="M141.073 163.891L141.049 163.928C141.044 163.921 141.041 163.916 141.035 163.908C140.96 163.822 140.85 163.766 140.807 163.797C140.765 163.829 140.805 163.944 140.876 164.032C140.909 164.073 140.943 164.099 140.975 164.112C140.701 164.145 140.346 164.306 140.104 164.478C139.985 164.573 139.902 164.653 139.862 164.752C139.846 164.792 139.809 164.817 139.765 164.818C139.649 164.818 139.543 164.864 139.441 164.943C139.308 165.058 139.233 165.244 139.258 165.425C139.3 165.767 139.676 165.952 140.024 165.783C140.108 165.739 140.178 165.679 140.231 165.613C140.262 165.574 140.311 165.551 140.36 165.547C140.48 165.537 140.631 165.496 140.788 165.373C141.112 165.143 141.358 164.713 141.346 164.426C141.364 164.456 141.394 164.486 141.441 164.511C141.542 164.564 141.676 164.572 141.711 164.516C141.745 164.46 141.659 164.362 141.557 164.314C141.549 164.311 141.543 164.309 141.535 164.306L141.567 164.27C141.704 164.098 141.689 163.878 141.543 163.782C141.401 163.689 141.193 163.741 141.073 163.891Z" fill="black"/>
<path d="M143.036 164.237L143.013 164.274C143.008 164.268 143.004 164.262 142.998 164.255C142.918 164.176 142.801 164.126 142.761 164.162C142.721 164.198 142.77 164.311 142.847 164.393C142.883 164.431 142.92 164.454 142.953 164.465C142.682 164.52 142.332 164.72 142.109 164.945C141.988 165.062 141.923 165.175 141.896 165.281C141.885 165.323 141.853 165.358 141.81 165.371C141.695 165.405 141.591 165.48 141.513 165.589C141.41 165.741 141.394 165.944 141.474 166.109C141.622 166.422 142.033 166.483 142.305 166.245C142.37 166.185 142.419 166.114 142.451 166.04C142.469 165.996 142.509 165.964 142.556 165.954C142.669 165.927 142.79 165.858 142.921 165.731C143.185 165.466 143.384 165.034 143.349 164.748C143.369 164.777 143.402 164.804 143.451 164.825C143.555 164.871 143.689 164.869 143.717 164.811C143.746 164.753 143.656 164.664 143.55 164.622C143.541 164.62 143.534 164.618 143.526 164.616L143.558 164.579C143.676 164.396 143.648 164.178 143.497 164.094C143.347 164.01 143.14 164.074 143.036 164.237Z" fill="black"/>
<path d="M130.879 167.866L130.867 167.908C130.86 167.903 130.855 167.899 130.847 167.893C130.751 167.835 130.624 167.813 130.594 167.857C130.564 167.902 130.639 168 130.734 168.062C130.778 168.091 130.819 168.105 130.854 168.108C130.604 168.224 130.312 168.499 130.15 168.769C130.06 168.912 130.025 169.036 130.025 169.145C130.024 169.189 130.001 169.23 129.962 169.253C129.858 169.313 129.776 169.409 129.727 169.533C129.663 169.705 129.696 169.905 129.814 170.047C130.033 170.318 130.447 170.282 130.654 169.987C130.703 169.914 130.734 169.834 130.746 169.754C130.754 169.707 130.785 169.667 130.828 169.646C130.932 169.594 131.032 169.499 131.129 169.345C131.321 169.027 131.411 168.561 131.307 168.291C131.334 168.314 131.372 168.333 131.425 168.342C131.537 168.362 131.666 168.33 131.68 168.267C131.694 168.204 131.586 168.138 131.471 168.122C131.462 168.122 131.456 168.121 131.447 168.121L131.469 168.078C131.54 167.873 131.46 167.668 131.294 167.621C131.127 167.574 130.941 167.684 130.879 167.866Z" fill="black"/>
<path d="M144.025 161.291L144.027 161.335C144.019 161.332 144.012 161.33 144.004 161.326C143.892 161.298 143.767 161.313 143.753 161.365C143.736 161.416 143.837 161.489 143.946 161.521C143.997 161.536 144.04 161.538 144.074 161.53C143.871 161.714 143.676 162.065 143.602 162.365C143.561 162.517 143.565 162.64 143.591 162.74C143.602 162.781 143.592 162.826 143.561 162.856C143.482 162.937 143.416 163.038 143.403 163.169C143.382 163.344 143.452 163.53 143.6 163.649C143.864 163.87 144.275 163.758 144.408 163.409C144.443 163.324 144.456 163.237 144.447 163.153C144.442 163.104 144.462 163.056 144.499 163.023C144.59 162.944 144.661 162.818 144.71 162.634C144.802 162.271 144.743 161.802 144.563 161.575C144.595 161.59 144.637 161.596 144.691 161.59C144.804 161.577 144.919 161.51 144.913 161.446C144.907 161.382 144.781 161.35 144.669 161.367C144.66 161.369 144.654 161.371 144.646 161.373L144.652 161.326C144.665 161.111 144.525 160.938 144.349 160.939C144.178 160.94 144.036 161.098 144.025 161.291Z" fill="black"/>
<path d="M146.117 151.773L146.08 151.797C146.079 151.789 146.077 151.783 146.076 151.774C146.042 151.666 145.964 151.569 145.911 151.584C145.858 151.597 145.847 151.719 145.876 151.827C145.89 151.877 145.911 151.914 145.935 151.939C145.669 151.865 145.261 151.885 144.961 151.979C144.807 152.024 144.702 152.092 144.628 152.166C144.599 152.197 144.554 152.212 144.512 152.201C144.4 152.177 144.277 152.175 144.157 152.232C143.993 152.306 143.868 152.461 143.841 152.647C143.786 152.983 144.098 153.268 144.472 153.197C144.564 153.183 144.647 153.148 144.715 153.096C144.755 153.067 144.808 153.058 144.855 153.072C144.972 153.107 145.119 153.1 145.304 153.046C145.669 152.932 146.046 152.639 146.15 152.371C146.155 152.405 146.171 152.444 146.204 152.485C146.275 152.573 146.393 152.633 146.446 152.596C146.498 152.557 146.461 152.436 146.387 152.351C146.38 152.345 146.376 152.341 146.37 152.335L146.414 152.315C146.608 152.214 146.686 152.006 146.594 151.861C146.503 151.718 146.292 151.682 146.117 151.773Z" fill="black"/>
<path d="M143.732 158.011V158.061C143.724 158.057 143.718 158.055 143.709 158.051C143.6 158.021 143.472 158.04 143.457 158.108C143.446 158.174 143.553 158.256 143.666 158.279C143.718 158.29 143.761 158.287 143.794 158.275C143.592 158.492 143.513 158.98 143.584 159.33C143.617 159.506 143.68 159.628 143.755 159.705C143.785 159.737 143.798 159.783 143.786 159.825C143.752 159.94 143.755 160.048 143.802 160.173C143.869 160.34 144.03 160.469 144.213 160.501C144.559 160.564 144.851 160.274 144.802 159.907C144.787 159.817 144.756 159.728 144.708 159.664C144.68 159.625 144.674 159.575 144.69 159.53C144.73 159.421 144.738 159.291 144.707 159.126C144.643 158.805 144.47 158.466 144.285 158.272C144.318 158.282 144.361 158.284 144.413 158.274C144.525 158.251 144.632 158.192 144.62 158.143C144.612 158.095 144.489 158.068 144.375 158.083C144.367 158.085 144.36 158.086 144.352 158.088C144.355 158.074 144.359 158.061 144.36 158.047C144.368 157.863 144.258 157.692 144.088 157.662C143.916 157.631 143.744 157.786 143.732 158.011Z" fill="black"/>
<path d="M142.53 156.651L142.515 156.698C142.508 156.693 142.503 156.689 142.496 156.683C142.401 156.621 142.274 156.601 142.238 156.66C142.206 156.721 142.284 156.831 142.383 156.887C142.429 156.913 142.472 156.922 142.507 156.921C142.247 157.067 142.019 157.508 141.977 157.862C141.954 158.04 141.976 158.175 142.022 158.271C142.041 158.311 142.04 158.358 142.015 158.395C141.946 158.494 141.916 158.597 141.921 158.731C141.933 158.909 142.046 159.08 142.21 159.165C142.52 159.33 142.889 159.141 142.956 158.777C142.971 158.686 142.969 158.593 142.943 158.517C142.928 158.472 142.938 158.422 142.967 158.385C143.04 158.292 143.088 158.171 143.11 158.004C143.149 157.68 143.091 157.306 142.975 157.065C143.003 157.084 143.044 157.099 143.097 157.105C143.21 157.118 143.33 157.093 143.334 157.043C143.342 156.995 143.233 156.932 143.12 156.912C143.111 156.911 143.105 156.911 143.097 156.91C143.104 156.898 143.111 156.886 143.117 156.873C143.182 156.701 143.13 156.505 142.979 156.425C142.825 156.344 142.612 156.44 142.53 156.651Z" fill="black"/>
<path d="M145.281 154.923L145.252 154.961C145.248 154.953 145.245 154.947 145.24 154.939C145.174 154.847 145.065 154.783 145.014 154.821C144.964 154.86 144.993 154.986 145.062 155.076C145.094 155.118 145.128 155.143 145.161 155.156C144.871 155.184 144.479 155.453 144.271 155.773C144.167 155.935 144.115 156.069 144.122 156.193C144.123 156.242 144.102 156.291 144.063 156.322C143.959 156.405 143.873 156.529 143.852 156.688C143.811 156.899 143.905 157.101 144.072 157.194C144.377 157.356 144.734 157.209 144.848 156.95C144.88 156.882 144.898 156.812 144.897 156.74C144.896 156.698 144.92 156.66 144.958 156.64C145.044 156.59 145.145 156.513 145.229 156.381C145.396 156.125 145.534 155.744 145.53 155.472C145.548 155.501 145.579 155.531 145.625 155.557C145.725 155.612 145.85 155.633 145.878 155.585C145.906 155.538 145.829 155.438 145.732 155.38C145.723 155.377 145.718 155.374 145.71 155.37L145.743 155.34C145.873 155.192 145.9 154.989 145.775 154.866C145.656 154.748 145.424 154.761 145.281 154.923Z" fill="black"/>
<path d="M147.508 152.363L147.475 152.398C147.472 152.39 147.469 152.384 147.465 152.376C147.409 152.278 147.307 152.202 147.253 152.236C147.199 152.27 147.215 152.398 147.274 152.494C147.301 152.539 147.333 152.568 147.364 152.584C147.073 152.583 146.656 152.813 146.416 153.11C146.296 153.261 146.231 153.389 146.225 153.513C146.221 153.562 146.195 153.609 146.153 153.636C146.041 153.709 145.943 153.823 145.905 153.98C145.844 154.186 145.916 154.396 146.073 154.505C146.36 154.696 146.73 154.585 146.87 154.337C146.908 154.274 146.934 154.206 146.94 154.134C146.944 154.092 146.971 154.056 147.011 154.04C147.102 153.999 147.21 153.932 147.307 153.809C147.499 153.57 147.676 153.205 147.7 152.934C147.714 152.965 147.742 152.997 147.786 153.028C147.879 153.093 148.001 153.125 148.034 153.081C148.067 153.036 148 152.929 147.909 152.862C147.902 152.858 147.896 152.855 147.889 152.851L147.925 152.824C148.069 152.689 148.117 152.49 148.005 152.355C147.898 152.226 147.666 152.216 147.508 152.363Z" fill="black"/>
<path d="M136.086 168.308L136.036 168.308C136.039 168.3 136.042 168.294 136.046 168.286C136.082 168.179 136.066 168.054 135.997 168.037C135.933 168.023 135.851 168.125 135.824 168.233C135.812 168.284 135.813 168.327 135.823 168.36C135.621 168.163 135.187 168.042 134.835 168.072C134.657 168.085 134.527 168.137 134.438 168.206C134.401 168.235 134.352 168.246 134.307 168.232C134.187 168.196 134.045 168.203 133.907 168.267C133.718 168.353 133.598 168.547 133.619 168.729C133.674 169.065 133.967 169.273 134.245 169.224C134.318 169.212 134.383 169.18 134.442 169.14C134.477 169.115 134.522 169.112 134.56 169.131C134.654 169.179 134.772 169.198 134.93 169.186C135.24 169.16 135.614 169.021 135.809 168.84C135.798 168.872 135.795 168.914 135.803 168.965C135.82 169.076 135.875 169.183 135.923 169.175C135.966 169.167 135.996 169.047 135.988 168.936C135.987 168.927 135.986 168.921 135.984 168.913C135.997 168.916 136.009 168.919 136.022 168.92C136.07 168.923 136.088 168.921 136.127 168.91C136.174 168.904 136.218 168.89 136.257 168.869C136.334 168.828 136.39 168.76 136.408 168.677C136.425 168.594 136.402 168.511 136.352 168.444C136.327 168.411 136.295 168.381 136.258 168.358C136.211 168.334 136.137 168.311 136.086 168.308Z" fill="black"/>
<path d="M132.676 169.228L132.645 169.267C132.64 169.259 132.637 169.253 132.633 169.245C132.568 169.153 132.457 169.089 132.402 169.133C132.352 169.174 132.384 169.3 132.456 169.386C132.49 169.427 132.525 169.451 132.558 169.463C132.276 169.503 131.915 169.766 131.726 170.059C131.629 170.206 131.593 170.339 131.594 170.45C131.596 170.496 131.575 170.541 131.536 170.568C131.434 170.64 131.354 170.755 131.322 170.901C131.278 171.1 131.363 171.311 131.524 171.404C131.83 171.565 132.176 171.463 132.305 171.217C132.339 171.153 132.353 171.083 132.356 171.012C132.357 170.97 132.381 170.934 132.42 170.915C132.516 170.871 132.603 170.791 132.689 170.66C132.855 170.403 132.969 170.027 132.94 169.765C132.959 169.793 132.992 169.821 133.038 169.846C133.139 169.9 133.259 169.922 133.281 169.879C133.301 169.841 133.221 169.745 133.126 169.684C133.118 169.68 133.113 169.677 133.106 169.673C133.115 169.665 133.125 169.658 133.134 169.649C133.166 169.612 133.175 169.597 133.189 169.561C133.213 169.52 133.228 169.477 133.235 169.434C133.248 169.349 133.227 169.265 133.17 169.201C133.113 169.136 133.032 169.104 132.947 169.103C132.905 169.102 132.862 169.109 132.82 169.124C132.773 169.146 132.709 169.189 132.676 169.228Z" fill="black"/>
<path d="M139.196 168.476C139.182 168.478 139.169 168.482 139.155 168.486C139.156 168.478 139.157 168.471 139.159 168.462C139.164 168.35 139.125 168.232 139.073 168.23C139.02 168.225 138.97 168.334 138.961 168.445C138.957 168.497 138.964 168.539 138.978 168.57C138.762 168.407 138.384 168.301 138.077 168.298C137.921 168.293 137.804 168.324 137.713 168.38C137.676 168.404 137.631 168.401 137.595 168.379C137.498 168.318 137.382 168.291 137.254 168.314C137.08 168.339 136.922 168.462 136.852 168.634C136.719 168.949 136.932 169.294 137.282 169.325C137.369 169.332 137.453 169.321 137.527 169.294C137.571 169.277 137.621 169.287 137.66 169.311C137.754 169.372 137.887 169.411 138.068 169.416C138.426 169.42 138.852 169.26 139.032 169.048C139.025 169.081 139.027 169.123 139.044 169.173C139.079 169.279 139.165 169.378 139.224 169.359C139.283 169.339 139.289 169.213 139.25 169.109C139.247 169.101 139.244 169.095 139.24 169.088L139.286 169.084C139.492 169.052 139.631 168.89 139.596 168.723C139.562 168.557 139.383 168.446 139.196 168.476Z" fill="black"/>
<path d="M128.76 168.366C128.754 168.379 128.751 168.392 128.747 168.405C128.74 168.4 128.735 168.396 128.728 168.39C128.635 168.325 128.512 168.293 128.481 168.335C128.45 168.376 128.516 168.476 128.606 168.544C128.649 168.575 128.689 168.591 128.723 168.597C128.467 168.686 128.171 168.941 128.002 169.192C127.914 169.318 127.878 169.432 127.877 169.537C127.877 169.58 127.851 169.615 127.812 169.633C127.708 169.68 127.622 169.761 127.572 169.88C127.5 170.036 127.521 170.233 127.63 170.383C127.829 170.663 128.241 170.674 128.456 170.402C128.51 170.334 128.545 170.259 128.562 170.183C128.571 170.138 128.606 170.103 128.648 170.083C128.752 170.038 128.857 169.95 128.958 169.804C129.155 169.511 129.248 169.073 129.163 168.81C129.188 168.834 129.225 168.855 129.277 168.868C129.387 168.897 129.519 168.879 129.534 168.82C129.549 168.761 129.444 168.688 129.333 168.663C129.324 168.662 129.318 168.661 129.31 168.66L129.332 168.621C129.415 168.434 129.351 168.231 129.189 168.17C129.027 168.109 128.835 168.196 128.76 168.366Z" fill="black"/>
<path d="M142.056 167.427C142.043 167.435 142.033 167.444 142.022 167.453C142.019 167.445 142.018 167.439 142.015 167.43C141.973 167.326 141.888 167.234 141.838 167.252C141.788 167.27 141.791 167.393 141.83 167.499C141.848 167.548 141.872 167.583 141.898 167.605C141.629 167.538 141.243 167.602 140.962 167.719C140.822 167.787 140.725 167.851 140.666 167.938C140.641 167.972 140.601 167.991 140.559 167.986C140.449 167.975 140.331 167.992 140.223 168.059C140.077 168.152 139.984 168.332 139.988 168.512C139.993 168.858 140.327 169.083 140.665 168.976C140.75 168.953 140.821 168.905 140.878 168.848C140.911 168.815 140.959 168.8 141.006 168.809C141.118 168.827 141.261 168.819 141.424 168.741C141.755 168.603 142.071 168.278 142.149 168.018C142.157 168.052 142.177 168.089 142.213 168.128C142.289 168.21 142.407 168.261 142.452 168.22C142.497 168.179 142.45 168.063 142.371 167.982C142.364 167.976 142.359 167.972 142.353 167.967L142.393 167.946C142.57 167.839 142.627 167.633 142.525 167.493C142.425 167.357 142.217 167.329 142.056 167.427Z" fill="black"/>
<path d="M144.302 165.37C144.294 165.381 144.287 165.394 144.28 165.406C144.275 165.399 144.271 165.394 144.266 165.387C144.188 165.305 144.074 165.25 144.035 165.284C143.998 165.32 144.04 165.431 144.116 165.515C144.151 165.554 144.186 165.578 144.219 165.59C144.082 165.606 143.928 165.665 143.786 165.747C143.637 165.826 143.495 165.925 143.39 166.037C143.279 166.147 143.216 166.249 143.195 166.351C143.185 166.392 143.155 166.426 143.114 166.438C143.007 166.471 142.903 166.531 142.83 166.636C142.73 166.777 142.72 166.982 142.797 167.146C142.945 167.461 143.338 167.532 143.605 167.309C143.672 167.256 143.719 167.187 143.747 167.113C143.765 167.07 143.803 167.039 143.848 167.029C143.958 167.005 144.082 166.943 144.208 166.817C144.328 166.69 144.438 166.527 144.513 166.362C144.581 166.191 144.617 166.021 144.606 165.885C144.626 165.914 144.658 165.941 144.706 165.965C144.808 166.014 144.941 166.024 144.966 165.968C144.993 165.913 144.905 165.821 144.802 165.775C144.793 165.772 144.787 165.77 144.779 165.767L144.809 165.733C144.93 165.567 144.909 165.357 144.764 165.264C144.619 165.172 144.412 165.219 144.302 165.37Z" fill="black"/>
<path d="M145.558 162.642C145.554 162.656 145.553 162.67 145.551 162.684C145.544 162.68 145.538 162.677 145.53 162.672C145.426 162.629 145.298 162.623 145.275 162.67C145.252 162.717 145.342 162.802 145.445 162.848C145.494 162.87 145.536 162.878 145.571 162.876C145.342 163.018 145.109 163.329 144.996 163.606C144.944 163.75 144.929 163.866 144.946 163.966C144.954 164.007 144.939 164.049 144.906 164.074C144.819 164.143 144.751 164.238 144.722 164.36C144.685 164.527 144.752 164.719 144.885 164.843C145.14 165.083 145.537 165.008 145.699 164.698C145.742 164.624 145.754 164.539 145.755 164.461C145.755 164.414 145.778 164.371 145.817 164.344C145.913 164.281 146.001 164.174 146.062 164.006C146.195 163.679 146.19 163.231 146.047 162.992C146.077 163.01 146.118 163.022 146.171 163.024C146.285 163.029 146.407 162.983 146.41 162.923C146.413 162.863 146.296 162.814 146.181 162.813C146.172 162.813 146.166 162.814 146.158 162.815L146.172 162.772C146.215 162.572 146.101 162.387 145.931 162.361C145.758 162.334 145.596 162.461 145.558 162.642Z" fill="black"/>
<path d="M145.607 159.633C145.609 159.648 145.614 159.661 145.618 159.674C145.609 159.673 145.603 159.672 145.593 159.671C145.48 159.668 145.359 159.71 145.356 159.762C145.353 159.815 145.468 159.861 145.582 159.867C145.635 159.869 145.678 159.861 145.709 159.847C145.55 160.063 145.455 160.443 145.465 160.745C145.475 160.899 145.504 161.012 145.564 161.098C145.588 161.133 145.592 161.177 145.572 161.214C145.521 161.312 145.491 161.426 145.52 161.551C145.56 161.719 145.69 161.867 145.867 161.928C146.196 162.045 146.536 161.819 146.552 161.474C146.557 161.389 146.543 161.308 146.508 161.236C146.488 161.194 146.492 161.145 146.517 161.106C146.575 161.011 146.617 160.879 146.606 160.703C146.595 160.355 146.418 159.949 146.195 159.779C146.229 159.785 146.272 159.782 146.322 159.765C146.43 159.728 146.525 159.642 146.505 159.585C146.485 159.529 146.358 159.526 146.251 159.566C146.243 159.57 146.238 159.573 146.23 159.577L146.227 159.532C146.199 159.357 146.051 159.226 145.876 159.233C145.704 159.239 145.573 159.424 145.607 159.633Z" fill="black"/>
<path d="M145.942 156.371L145.929 156.417C145.923 156.412 145.918 156.407 145.91 156.402C145.814 156.341 145.688 156.32 145.656 156.376C145.623 156.433 145.699 156.539 145.798 156.594C145.844 156.62 145.886 156.63 145.921 156.629C145.674 156.766 145.435 157.165 145.387 157.513C145.36 157.688 145.381 157.823 145.431 157.924C145.451 157.965 145.449 158.014 145.427 158.053C145.366 158.158 145.336 158.29 145.367 158.43C145.405 158.619 145.558 158.769 145.739 158.81C146.082 158.881 146.381 158.64 146.397 158.344C146.403 158.269 146.389 158.197 146.359 158.131C146.342 158.092 146.351 158.048 146.379 158.015C146.446 157.936 146.493 157.827 146.516 157.676C146.558 157.379 146.514 157.011 146.389 156.775C146.417 156.794 146.458 156.809 146.51 156.816C146.624 156.83 146.745 156.81 146.75 156.762C146.756 156.715 146.645 156.652 146.534 156.632C146.525 156.631 146.519 156.63 146.511 156.63C146.517 156.618 146.523 156.607 146.528 156.594C146.594 156.434 146.533 156.244 146.385 156.163C146.23 156.078 146.024 156.171 145.942 156.371Z" fill="black"/>
<path d="M138.657 170.28L138.611 170.283C138.614 170.275 138.616 170.269 138.619 170.26C138.646 170.151 138.627 170.028 138.573 170.016C138.519 170.006 138.446 170.105 138.415 170.211C138.401 170.261 138.4 170.303 138.408 170.337C138.32 170.24 138.191 170.151 138.048 170.082C137.977 170.043 137.904 170.004 137.829 169.974C137.79 169.959 137.752 169.945 137.716 169.932L137.66 169.914C137.616 169.904 137.572 169.895 137.529 169.886C137.486 169.884 137.446 169.883 137.405 169.881C137.233 169.877 137.101 169.905 137.002 169.958C136.961 169.98 136.912 169.981 136.872 169.959C136.764 169.9 136.636 169.872 136.497 169.893C136.31 169.921 136.147 170.045 136.073 170.215C135.928 170.53 136.174 170.876 136.549 170.906C136.641 170.914 136.73 170.902 136.809 170.873C136.855 170.857 136.908 170.863 136.949 170.889C137.049 170.953 137.188 170.994 137.379 170.999C137.415 171 137.416 170.999 137.419 170.998L137.421 170.996C137.428 170.997 137.388 170.989 137.415 170.992L137.486 170.999C137.533 171.001 137.581 171.003 137.631 171.005C137.728 171.005 137.824 171.001 137.916 170.987C138.1 170.951 138.263 170.892 138.372 170.816C138.358 170.847 138.352 170.889 138.36 170.941C138.376 171.054 138.45 171.165 138.518 171.154C138.585 171.145 138.615 171.022 138.594 170.912C138.591 170.904 138.59 170.898 138.587 170.89L138.637 170.895C138.865 170.903 139.043 170.763 139.035 170.589C139.028 170.423 138.858 170.287 138.657 170.28Z" fill="black"/>
<path d="M141.857 169.564L141.818 169.588C141.816 169.58 141.815 169.573 141.814 169.564C141.786 169.455 141.712 169.355 141.656 169.37C141.6 169.382 141.581 169.503 141.605 169.613C141.616 169.664 141.636 169.701 141.66 169.727C141.389 169.641 140.966 169.666 140.65 169.758C140.488 169.802 140.378 169.871 140.301 169.95C140.27 169.98 140.224 169.994 140.18 169.983C140.063 169.952 139.937 169.966 139.811 170.02C139.641 170.089 139.514 170.254 139.488 170.438C139.434 170.779 139.756 171.048 140.136 170.982C140.229 170.963 140.313 170.927 140.383 170.878C140.424 170.85 140.478 170.842 140.527 170.856C140.644 170.887 140.793 170.88 140.982 170.828C141.353 170.72 141.739 170.428 141.859 170.166C141.862 170.2 141.877 170.24 141.909 170.282C141.977 170.372 142.094 170.438 142.149 170.402C142.202 170.364 142.17 170.242 142.1 170.154C142.094 170.147 142.089 170.143 142.084 170.137L142.13 170.119C142.329 170.021 142.423 169.82 142.34 169.671C142.257 169.522 142.041 169.474 141.857 169.564Z" fill="black"/>
<path d="M146.992 167.588L146.973 167.63C146.968 167.624 146.963 167.619 146.957 167.612C146.871 167.538 146.75 167.497 146.714 167.541C146.674 167.582 146.73 167.693 146.813 167.769C146.852 167.805 146.89 167.824 146.924 167.832C146.652 167.913 146.319 168.169 146.112 168.421C146.004 168.547 145.954 168.665 145.937 168.773C145.929 168.815 145.899 168.852 145.857 168.868C145.742 168.908 145.647 168.989 145.575 169.103C145.475 169.255 145.467 169.462 145.552 169.628C145.706 169.938 146.127 169.98 146.401 169.713C146.466 169.646 146.514 169.569 146.544 169.491C146.561 169.444 146.601 169.407 146.649 169.392C146.764 169.352 146.882 169.264 147.007 169.115C147.25 168.819 147.397 168.365 147.343 168.082C147.366 168.108 147.401 168.133 147.452 168.15C147.56 168.187 147.694 168.175 147.719 168.115C147.74 168.054 147.644 167.971 147.534 167.937C147.526 167.936 147.52 167.935 147.511 167.933L147.538 167.893C147.645 167.701 147.606 167.483 147.451 167.407C147.296 167.33 147.09 167.411 146.992 167.588Z" fill="black"/>
<path d="M144.594 167.667L144.563 167.702C144.559 167.694 144.556 167.688 144.552 167.68C144.492 167.585 144.388 167.512 144.339 167.543C144.291 167.576 144.311 167.7 144.369 167.795C144.396 167.84 144.428 167.869 144.458 167.886C144.171 167.887 143.773 168.056 143.504 168.26C143.369 168.367 143.283 168.463 143.242 168.566C143.224 168.608 143.187 168.64 143.142 168.647C143.024 168.671 142.903 168.722 142.808 168.825C142.679 168.964 142.63 169.167 142.683 169.341C142.784 169.673 143.186 169.788 143.497 169.583C143.576 169.535 143.637 169.471 143.679 169.398C143.705 169.356 143.75 169.328 143.799 169.323C143.916 169.309 144.057 169.259 144.205 169.142C144.504 168.916 144.759 168.522 144.79 168.239C144.804 168.271 144.831 168.304 144.875 168.334C144.97 168.4 145.099 168.425 145.136 168.373C145.174 168.322 145.106 168.216 145.011 168.153C145.004 168.149 144.998 168.146 144.99 168.142L145.028 168.112C145.186 167.961 145.214 167.743 145.09 167.625C144.965 167.506 144.743 167.525 144.594 167.667Z" fill="black"/>
<path d="M146.6 165.066L146.585 165.108C146.578 165.102 146.573 165.098 146.566 165.092C146.475 165.025 146.351 164.993 146.318 165.038C146.286 165.082 146.351 165.189 146.439 165.258C146.48 165.291 146.52 165.307 146.555 165.313C146.286 165.41 145.978 165.685 145.783 165.949C145.687 166.086 145.643 166.207 145.629 166.314C145.625 166.358 145.598 166.398 145.557 166.418C145.449 166.471 145.355 166.558 145.29 166.681C145.204 166.848 145.218 167.059 145.32 167.211C145.514 167.501 145.929 167.497 146.171 167.218C146.232 167.149 146.269 167.067 146.291 166.987C146.304 166.939 146.34 166.9 146.386 166.881C146.499 166.837 146.611 166.743 146.722 166.586C146.948 166.28 147.063 165.809 146.991 165.532C147.016 165.556 147.053 165.578 147.105 165.591C147.217 165.62 147.349 165.598 147.366 165.534C147.384 165.47 147.281 165.395 147.169 165.37C147.16 165.37 147.154 165.369 147.145 165.368L147.17 165.325C147.268 165.126 147.202 164.909 147.039 164.847C146.878 164.785 146.689 164.886 146.6 165.066Z" fill="black"/>
<path d="M147.349 161.884L147.35 161.931C147.342 161.927 147.336 161.925 147.327 161.921C147.217 161.89 147.091 161.904 147.074 161.96C147.057 162.016 147.157 162.095 147.267 162.128C147.318 162.143 147.361 162.144 147.395 162.137C147.185 162.328 147.01 162.72 146.95 163.046C146.924 163.214 146.933 163.341 146.97 163.444C146.986 163.486 146.98 163.533 146.952 163.568C146.88 163.663 146.826 163.778 146.827 163.915C146.83 164.101 146.919 164.28 147.082 164.379C147.375 164.565 147.766 164.392 147.856 164.03C147.881 163.941 147.884 163.853 147.865 163.77C147.855 163.722 147.87 163.672 147.903 163.635C147.983 163.547 148.048 163.416 148.076 163.231C148.143 162.864 148.056 162.409 147.883 162.18C147.916 162.195 147.958 162.201 148.011 162.195C148.125 162.181 148.239 162.115 148.234 162.053C148.228 161.991 148.105 161.957 147.991 161.972C147.983 161.974 147.977 161.976 147.968 161.978C147.972 161.962 147.975 161.947 147.976 161.931C147.99 161.718 147.861 161.537 147.688 161.528C147.514 161.519 147.363 161.678 147.349 161.884Z" fill="black"/>
<path d="M147.075 158.584C147.077 158.6 147.082 158.616 147.086 158.631C147.077 158.629 147.071 158.628 147.061 158.626C146.947 158.619 146.827 158.661 146.825 158.723C146.823 158.785 146.941 158.842 147.055 158.849C147.109 158.851 147.15 158.842 147.182 158.826C147.025 159.065 146.967 159.511 147.023 159.852C147.052 160.026 147.106 160.147 147.179 160.233C147.209 160.268 147.219 160.315 147.205 160.358C147.166 160.471 147.165 160.601 147.208 160.717C147.239 160.806 147.287 160.844 147.352 160.919C147.416 160.988 147.497 161.041 147.587 161.066C147.756 161.114 147.919 161.074 148.042 160.977C148.105 160.933 148.154 160.858 148.185 160.762C148.214 160.676 148.228 160.578 148.217 160.487C148.207 160.393 148.177 160.309 148.133 160.239C148.107 160.198 148.104 160.145 148.122 160.101C148.166 159.993 148.18 159.853 148.151 159.675C148.093 159.323 147.889 158.928 147.666 158.751C147.701 158.757 147.744 158.753 147.794 158.734C147.901 158.694 147.995 158.608 147.976 158.553C147.955 158.497 147.828 158.491 147.721 158.53C147.713 158.534 147.707 158.537 147.7 158.541L147.697 158.495C147.666 158.292 147.508 158.146 147.335 158.162C147.163 158.179 147.042 158.372 147.075 158.584Z" fill="black"/>
<path d="M132.564 165.097C132.56 165.109 132.558 165.122 132.556 165.135C132.549 165.13 132.544 165.127 132.536 165.121C132.435 165.066 132.315 165.044 132.287 165.08C132.258 165.115 132.333 165.206 132.427 165.27C132.471 165.299 132.511 165.314 132.545 165.319C132.306 165.415 131.999 165.623 131.817 165.853C131.717 165.968 131.663 166.074 131.649 166.177C131.643 166.219 131.616 166.255 131.576 166.269C131.463 166.302 131.364 166.372 131.295 166.484C131.206 166.637 131.192 166.835 131.281 166.998C131.442 167.301 131.85 167.363 132.106 167.113C132.17 167.053 132.217 166.983 132.247 166.909C132.263 166.864 132.3 166.827 132.346 166.813C132.456 166.778 132.579 166.702 132.702 166.56C132.939 166.267 133.093 165.799 132.993 165.516C133.018 165.54 133.056 165.56 133.109 165.57C133.221 165.593 133.354 165.559 133.372 165.492C133.389 165.423 133.275 165.355 133.163 165.343H133.139L133.158 165.297C133.236 165.08 133.127 164.875 132.953 164.849C132.784 164.824 132.622 164.937 132.564 165.097Z" fill="black"/>
<path d="M132.346 162.04L132.352 162.085C132.344 162.083 132.337 162.081 132.328 162.079C132.215 162.063 132.092 162.094 132.084 162.154C132.075 162.214 132.189 162.277 132.303 162.291C132.356 162.297 132.398 162.292 132.431 162.278C132.248 162.481 132.172 162.959 132.247 163.296C132.284 163.469 132.343 163.579 132.42 163.657C132.452 163.689 132.464 163.733 132.451 163.773C132.418 163.882 132.422 163.999 132.469 164.109C132.538 164.259 132.683 164.374 132.872 164.418C133.042 164.456 133.206 164.416 133.317 164.305C133.434 164.194 133.494 164.019 133.467 163.838C133.453 163.748 133.418 163.671 133.371 163.604C133.344 163.565 133.338 163.515 133.354 163.473C133.392 163.37 133.4 163.234 133.367 163.076C133.298 162.762 133.125 162.437 132.92 162.241C132.954 162.249 132.997 162.248 133.048 162.234C133.158 162.204 133.258 162.13 133.245 162.078C133.231 162.025 133.104 162.01 132.994 162.039C132.985 162.042 132.979 162.044 132.972 162.047L132.973 162.004C132.96 161.811 132.817 161.658 132.644 161.662C132.47 161.665 132.332 161.835 132.346 162.04Z" fill="black"/>
<path d="M132.828 158.746L132.813 158.791C132.806 158.786 132.801 158.782 132.794 158.775C132.7 158.711 132.575 158.686 132.54 158.74C132.505 158.794 132.576 158.902 132.672 158.962C132.717 158.991 132.758 159.003 132.793 159.004C132.543 159.131 132.269 159.522 132.207 159.883C132.166 160.064 132.191 160.204 132.232 160.31C132.249 160.353 132.246 160.403 132.223 160.443C132.16 160.551 132.125 160.687 132.153 160.83C132.189 161.026 132.333 161.182 132.517 161.226C132.857 161.307 133.161 161.064 133.186 160.765C133.193 160.689 133.181 160.616 133.153 160.548C133.136 160.508 133.146 160.464 133.176 160.432C133.25 160.355 133.293 160.245 133.328 160.096C133.378 159.798 133.368 159.422 133.253 159.172C133.28 159.193 133.32 159.21 133.372 159.219C133.485 159.238 133.609 159.22 133.618 159.169C133.627 159.12 133.52 159.052 133.409 159.028C133.4 159.028 133.394 159.027 133.386 159.026C133.392 159.014 133.4 159.002 133.405 158.989C133.475 158.817 133.43 158.624 133.273 158.542C133.124 158.464 132.909 158.549 132.828 158.746Z" fill="black"/>
<path d="M135.024 158.325L135 158.366C134.995 158.359 134.991 158.354 134.985 158.347C134.907 158.265 134.79 158.214 134.744 158.261C134.699 158.306 134.745 158.427 134.826 158.504C134.864 158.541 134.902 158.562 134.936 158.57C134.664 158.644 134.314 158.971 134.178 159.312C134.1 159.481 134.094 159.623 134.113 159.735C134.121 159.78 134.107 159.829 134.076 159.864C133.992 159.956 133.929 160.082 133.926 160.228C133.921 160.427 134.029 160.609 134.2 160.689C134.516 160.836 134.864 160.659 134.951 160.372C134.974 160.299 134.977 160.225 134.965 160.153C134.956 160.11 134.975 160.069 135.011 160.044C135.1 159.984 135.165 159.885 135.23 159.746C135.342 159.465 135.411 159.094 135.35 158.827C135.373 158.853 135.408 158.878 135.457 158.897C135.564 158.938 135.689 158.945 135.709 158.898C135.728 158.851 135.637 158.763 135.533 158.718C135.525 158.715 135.519 158.713 135.511 158.711C135.52 158.7 135.53 158.69 135.538 158.678C135.643 158.524 135.639 158.325 135.503 158.214C135.373 158.108 135.145 158.148 135.024 158.325Z" fill="black"/>
<path d="M135.017 156.186C135.004 156.195 134.993 156.207 134.982 156.217C134.979 156.209 134.977 156.203 134.974 156.194C134.927 156.092 134.833 156.007 134.777 156.035C134.721 156.064 134.727 156.192 134.777 156.292C134.8 156.339 134.829 156.371 134.858 156.39C134.571 156.362 134.15 156.55 133.888 156.798C133.757 156.932 133.687 157.057 133.662 157.168C133.65 157.213 133.622 157.256 133.579 157.277C133.465 157.335 133.354 157.429 133.297 157.569C133.219 157.761 133.25 157.967 133.387 158.101C133.637 158.339 134.022 158.292 134.2 158.064C134.248 158.006 134.278 157.94 134.293 157.87C134.302 157.829 134.331 157.795 134.375 157.786C134.479 157.763 134.583 157.705 134.691 157.594C134.917 157.379 135.116 157.033 135.159 156.769C135.171 156.801 135.196 156.836 135.236 156.87C135.322 156.944 135.438 156.988 135.473 156.948C135.509 156.908 135.452 156.796 135.369 156.72C135.362 156.715 135.357 156.711 135.35 156.706L135.387 156.684C135.546 156.577 135.599 156.374 135.505 156.23C135.411 156.087 135.193 156.067 135.017 156.186Z" fill="black"/>
<path d="M138.174 154.931L138.127 154.941C138.129 154.933 138.13 154.927 138.132 154.917C138.141 154.805 138.101 154.687 138.037 154.686C137.972 154.684 137.912 154.799 137.907 154.911C137.905 154.963 137.915 155.004 137.931 155.035C137.692 154.878 137.216 154.847 136.864 154.967C136.684 155.024 136.567 155.107 136.496 155.199C136.466 155.236 136.42 155.259 136.371 155.257C136.242 155.252 136.108 155.3 135.99 155.391C135.833 155.52 135.77 155.726 135.822 155.9C135.927 156.229 136.291 156.359 136.564 156.236C136.635 156.205 136.691 156.153 136.738 156.1C136.766 156.068 136.81 156.055 136.852 156.063C136.955 156.084 137.076 156.074 137.225 156.028C137.515 155.929 137.846 155.722 138.011 155.508C138.006 155.542 138.011 155.584 138.029 155.633C138.069 155.738 138.148 155.832 138.197 155.814C138.246 155.796 138.252 155.67 138.217 155.565C138.213 155.557 138.211 155.551 138.207 155.544L138.25 155.541C138.439 155.525 138.586 155.372 138.579 155.204C138.57 155.032 138.389 154.911 138.174 154.931Z" fill="black"/>
<path d="M134.961 169.856L134.921 169.883C134.92 169.874 134.919 169.868 134.917 169.859C134.886 169.75 134.806 169.653 134.745 169.674C134.684 169.694 134.669 169.823 134.704 169.929C134.721 169.979 134.745 170.014 134.771 170.037C134.491 169.972 134.035 170.106 133.747 170.34C133.6 170.455 133.519 170.572 133.485 170.683C133.471 170.728 133.436 170.765 133.39 170.78C133.268 170.82 133.159 170.911 133.081 171.036C132.98 171.212 132.994 171.426 133.106 171.571C133.322 171.843 133.709 171.84 133.921 171.631C133.976 171.578 134.01 171.51 134.036 171.444C134.05 171.405 134.086 171.377 134.129 171.371C134.233 171.355 134.342 171.304 134.465 171.209C134.702 171.017 134.937 170.71 135.016 170.453C135.023 170.486 135.043 170.524 135.077 170.564C135.152 170.649 135.26 170.71 135.299 170.676C135.339 170.641 135.299 170.522 135.229 170.435C135.223 170.429 135.218 170.425 135.212 170.419L135.251 170.402C135.423 170.322 135.506 170.128 135.439 169.974C135.369 169.816 135.156 169.764 134.961 169.856Z" fill="black"/>
<path d="M141.464 155.149L141.423 155.155C141.425 155.147 141.427 155.141 141.429 155.133C141.446 155.022 141.421 154.901 141.373 154.888C141.324 154.877 141.262 154.981 141.238 155.091C141.228 155.142 141.229 155.184 141.238 155.216C141.047 155.027 140.71 154.861 140.384 154.799C140.219 154.769 140.082 154.781 139.975 154.821C139.932 154.837 139.882 154.833 139.84 154.808C139.732 154.738 139.591 154.703 139.44 154.726C139.234 154.75 139.069 154.902 139.024 155.077C138.943 155.412 139.185 155.705 139.477 155.738C139.553 155.744 139.626 155.739 139.696 155.714C139.736 155.699 139.781 155.71 139.815 155.741C139.893 155.813 140.008 155.868 140.183 155.9C140.525 155.966 141.009 155.886 141.226 155.697C141.214 155.729 141.21 155.771 141.22 155.823C141.242 155.932 141.321 156.038 141.387 156.028C141.453 156.018 141.475 155.893 141.447 155.785C141.444 155.776 141.441 155.77 141.439 155.763C141.455 155.764 141.471 155.765 141.487 155.764C141.71 155.753 141.868 155.596 141.842 155.425C141.817 155.261 141.648 155.14 141.464 155.149Z" fill="black"/>
<path d="M144.285 154.01L144.251 154.038C144.249 154.03 144.246 154.024 144.244 154.015C144.196 153.914 144.104 153.828 144.053 153.849C144.003 153.871 144.01 153.994 144.056 154.096C144.077 154.144 144.104 154.178 144.131 154.198C143.86 154.161 143.464 154.254 143.19 154.392C143.051 154.464 142.964 154.55 142.908 154.633C142.886 154.668 142.846 154.689 142.804 154.686C142.692 154.679 142.579 154.705 142.475 154.772C142.336 154.872 142.245 155.043 142.247 155.226C142.243 155.571 142.594 155.802 142.952 155.674C143.041 155.645 143.11 155.589 143.168 155.53C143.201 155.495 143.251 155.478 143.3 155.483C143.421 155.499 143.559 155.466 143.725 155.38C144.055 155.212 144.354 154.868 144.411 154.593C144.421 154.626 144.443 154.662 144.482 154.698C144.564 154.775 144.687 154.819 144.73 154.776C144.773 154.732 144.719 154.619 144.634 154.544C144.627 154.539 144.622 154.535 144.615 154.53L144.656 154.507C144.83 154.391 144.868 154.171 144.763 154.04C144.654 153.904 144.447 153.902 144.285 154.01Z" fill="black"/>
<path d="M130.788 163.66L130.801 163.703C130.793 163.703 130.786 163.702 130.777 163.701C130.663 163.704 130.546 163.754 130.547 163.813C130.545 163.834 130.564 163.819 130.606 163.823C130.647 163.823 130.701 163.845 130.758 163.847C130.81 163.852 130.853 163.848 130.886 163.837C130.706 164.005 130.54 164.348 130.489 164.646C130.463 164.797 130.475 164.914 130.514 165.009C130.53 165.048 130.525 165.092 130.496 165.122C130.422 165.206 130.375 165.308 130.374 165.43C130.371 165.592 130.463 165.756 130.615 165.867C130.89 166.085 131.295 165.937 131.395 165.586C131.422 165.5 131.421 165.416 131.406 165.337C131.398 165.291 131.412 165.243 131.444 165.209C131.524 165.127 131.586 165.004 131.616 164.828C131.675 164.482 131.584 164.033 131.376 163.809C131.409 163.819 131.453 163.82 131.504 163.805C131.558 163.785 131.615 163.762 131.648 163.71C131.681 163.662 131.693 163.586 131.68 163.552C131.658 163.504 131.531 163.51 131.426 163.555C131.418 163.559 131.413 163.562 131.406 163.566L131.401 163.524C131.36 163.339 131.189 163.215 131.019 163.247C130.848 163.278 130.745 163.463 130.788 163.66Z" fill="black"/>
<path d="M130.568 160.427L130.567 160.472C130.559 160.469 130.553 160.466 130.545 160.462C130.436 160.429 130.308 160.439 130.291 160.497C130.274 160.555 130.373 160.636 130.482 160.666C130.533 160.681 130.576 160.681 130.611 160.673C130.405 160.858 130.25 161.277 130.263 161.625C130.262 161.801 130.314 161.928 130.377 162.02C130.404 162.057 130.411 162.105 130.394 162.148C130.346 162.262 130.346 162.395 130.397 162.527C130.465 162.708 130.634 162.833 130.824 162.846C131.171 162.868 131.432 162.582 131.4 162.283C131.39 162.207 131.365 162.137 131.328 162.076C131.305 162.04 131.306 161.995 131.327 161.958C131.383 161.868 131.403 161.75 131.404 161.595C131.393 161.289 131.279 160.917 131.1 160.711C131.132 160.723 131.175 160.729 131.228 160.723C131.342 160.711 131.455 160.657 131.449 160.605C131.444 160.554 131.321 160.519 131.208 160.529C131.199 160.531 131.193 160.532 131.185 160.533L131.193 160.492C131.209 160.306 131.096 160.135 130.926 160.109C130.753 160.082 130.586 160.223 130.568 160.427Z" fill="black"/>
<path d="M131.603 157.328L131.583 157.369C131.577 157.363 131.573 157.358 131.567 157.351C131.482 157.276 131.362 157.233 131.322 157.28C131.281 157.327 131.338 157.441 131.425 157.514C131.465 157.548 131.504 157.565 131.539 157.572C131.399 157.612 131.258 157.716 131.13 157.851C130.996 157.983 130.887 158.15 130.825 158.316C130.758 158.482 130.742 158.618 130.773 158.729C130.784 158.774 130.773 158.822 130.741 158.856C130.659 158.948 130.592 159.07 130.597 159.216C130.598 159.412 130.71 159.589 130.88 159.665C131.198 159.804 131.549 159.628 131.622 159.345C131.645 159.273 131.648 159.201 131.634 159.13C131.627 159.089 131.643 159.048 131.677 159.022C131.756 158.958 131.832 158.864 131.889 158.723C131.941 158.581 131.977 158.416 131.997 158.255C132.012 158.093 132 157.929 131.968 157.803C131.992 157.828 132.029 157.85 132.08 157.867C132.189 157.901 132.313 157.899 132.33 157.85C132.345 157.801 132.248 157.72 132.141 157.682C132.133 157.68 132.127 157.679 132.119 157.677C132.127 157.665 132.136 157.655 132.143 157.642C132.232 157.479 132.212 157.283 132.066 157.186C131.925 157.092 131.703 157.147 131.603 157.328Z" fill="black"/>
<path d="M147.498 154.793L147.493 154.838C147.485 154.834 147.479 154.831 147.471 154.826C147.366 154.782 147.239 154.78 147.216 154.837C147.193 154.894 147.285 154.985 147.391 155.025C147.44 155.045 147.483 155.049 147.518 155.044C147.399 155.127 147.3 155.27 147.223 155.438C147.141 155.605 147.093 155.798 147.089 155.974C147.081 156.153 147.11 156.286 147.176 156.382C147.201 156.421 147.207 156.47 147.188 156.512C147.141 156.625 147.118 156.762 147.171 156.898C147.237 157.084 147.401 157.216 147.587 157.234C147.934 157.264 148.208 156.987 148.183 156.695C148.181 156.62 148.16 156.551 148.124 156.488C148.103 156.452 148.105 156.407 148.128 156.372C148.181 156.286 148.222 156.174 148.23 156.022C148.233 155.871 148.211 155.704 148.177 155.545C148.138 155.387 148.073 155.236 148.001 155.127C148.032 155.143 148.074 155.152 148.127 155.151C148.241 155.15 148.359 155.108 148.358 155.056C148.357 155.005 148.238 154.959 148.124 154.957C148.115 154.958 148.109 154.959 148.101 154.959C148.105 154.946 148.11 154.933 148.113 154.919C148.143 154.736 148.059 154.558 147.889 154.512C147.724 154.468 147.533 154.59 147.498 154.793Z" fill="black"/>
<path d="M133.861 154.939L133.826 154.969C133.823 154.961 133.821 154.955 133.818 154.946C133.77 154.845 133.677 154.76 133.621 154.786C133.566 154.812 133.572 154.938 133.622 155.038C133.646 155.084 133.675 155.116 133.704 155.136C133.428 155.113 133.006 155.28 132.752 155.524C132.618 155.641 132.555 155.767 132.53 155.876C132.52 155.921 132.489 155.959 132.445 155.977C132.329 156.023 132.218 156.107 132.159 156.241C132.073 156.419 132.096 156.626 132.217 156.766C132.443 157.023 132.839 157.015 133.026 156.786C133.078 156.732 133.114 156.668 133.133 156.598C133.144 156.558 133.178 156.528 133.22 156.519C133.324 156.497 133.422 156.435 133.542 156.331C133.764 156.117 133.971 155.785 134.005 155.515C134.017 155.546 134.042 155.581 134.082 155.615C134.168 155.689 134.285 155.736 134.321 155.697C134.356 155.657 134.3 155.546 134.216 155.47C134.209 155.465 134.204 155.461 134.197 155.456L134.234 155.435C134.386 155.322 134.436 155.121 134.341 154.982C134.244 154.838 134.027 154.817 133.861 154.939Z" fill="black"/>
<path d="M136.85 153.526L136.807 153.542C136.807 153.534 136.808 153.527 136.808 153.518C136.801 153.406 136.746 153.294 136.684 153.3C136.623 153.305 136.582 153.426 136.592 153.537C136.597 153.59 136.612 153.629 136.631 153.657C136.38 153.529 135.924 153.541 135.597 153.682C135.429 153.749 135.322 153.835 135.261 153.931C135.235 153.97 135.192 153.995 135.145 153.996C135.021 153.998 134.888 154.04 134.783 154.141C134.639 154.274 134.583 154.474 134.642 154.648C134.754 154.969 135.127 155.104 135.39 154.958C135.459 154.924 135.516 154.876 135.559 154.818C135.585 154.784 135.628 154.767 135.67 154.773C135.774 154.786 135.894 154.771 136.041 154.713C136.324 154.59 136.636 154.349 136.771 154.118C136.77 154.152 136.78 154.193 136.805 154.24C136.857 154.339 136.948 154.422 136.996 154.397C137.043 154.373 137.031 154.248 136.982 154.148C136.977 154.141 136.974 154.135 136.969 154.129L137.011 154.121C137.195 154.072 137.318 153.91 137.282 153.742C137.247 153.577 137.051 153.473 136.85 153.526Z" fill="black"/>
<path d="M140.172 153.338L140.126 153.336C140.129 153.328 140.132 153.323 140.136 153.314C140.176 153.209 140.171 153.085 140.112 153.065C140.053 153.046 139.965 153.14 139.929 153.246C139.913 153.295 139.91 153.338 139.917 153.372C139.737 153.158 139.31 152.996 138.95 152.999C138.768 152.997 138.634 153.044 138.539 153.104C138.501 153.13 138.451 153.136 138.407 153.118C138.29 153.074 138.152 153.073 138.015 153.121C137.827 153.183 137.701 153.362 137.689 153.543C137.672 153.888 137.963 154.129 138.262 154.105C138.339 154.098 138.409 154.069 138.471 154.033C138.508 154.012 138.554 154.013 138.591 154.035C138.681 154.092 138.798 154.115 138.955 154.117C139.262 154.115 139.641 154.011 139.859 153.849C139.845 153.88 139.837 153.921 139.841 153.973C139.849 154.085 139.898 154.198 139.951 154.194C140.003 154.19 140.043 154.071 140.039 153.96C140.037 153.951 140.037 153.945 140.035 153.937C140.049 153.941 140.063 153.945 140.077 153.947C140.265 153.97 140.447 153.869 140.481 153.701C140.514 153.536 140.38 153.365 140.172 153.338Z" fill="black"/>
<path d="M143.13 153.08L143.09 153.099C143.09 153.091 143.089 153.085 143.088 153.076C143.069 152.966 143.002 152.859 142.946 152.869C142.889 152.878 142.864 153 142.884 153.11C142.893 153.162 142.911 153.2 142.932 153.227C142.678 153.12 142.253 153.141 141.963 153.234C141.891 153.257 141.832 153.283 141.797 153.308C141.769 153.324 141.779 153.329 141.774 153.343C141.773 153.357 141.741 153.371 141.727 153.387C141.699 153.414 141.66 153.418 141.628 153.4C141.54 153.35 141.445 153.329 141.328 153.35C141.171 153.379 141.005 153.496 140.93 153.665C140.79 153.975 140.974 154.33 141.372 154.362C141.47 154.369 141.565 154.352 141.647 154.317C141.695 154.295 141.751 154.297 141.799 154.317C141.832 154.328 141.851 154.342 141.903 154.346C141.952 154.35 142.021 154.348 142.055 154.346C142.145 154.341 142.226 154.325 142.315 154.297C142.66 154.187 142.988 153.921 143.108 153.675C143.11 153.709 143.123 153.75 143.152 153.794C143.213 153.888 143.316 153.962 143.365 153.932C143.414 153.901 143.39 153.779 143.329 153.684C143.323 153.678 143.319 153.673 143.314 153.666L143.357 153.654C143.543 153.584 143.642 153.399 143.58 153.24C143.518 153.081 143.316 153.01 143.13 153.08Z" fill="black"/>
<path d="M128.776 161.358L128.787 161.406C128.778 161.405 128.772 161.403 128.762 161.401C128.648 161.389 128.526 161.428 128.524 161.494C128.521 161.56 128.637 161.624 128.751 161.632C128.804 161.636 128.847 161.627 128.878 161.611C128.714 161.853 128.692 162.349 128.763 162.664C128.799 162.834 128.859 162.953 128.935 163.036C128.966 163.069 128.979 163.117 128.967 163.161C128.934 163.277 128.938 163.407 128.991 163.534C129.065 163.707 129.226 163.832 129.413 163.862C129.76 163.927 130.045 163.605 129.984 163.242C129.97 163.151 129.936 163.07 129.889 163.002C129.861 162.961 129.855 162.91 129.871 162.864C129.91 162.754 129.918 162.613 129.88 162.432C129.796 162.058 129.58 161.719 129.363 161.541C129.398 161.547 129.441 161.543 129.491 161.525C129.599 161.487 129.697 161.406 129.679 161.354C129.661 161.301 129.533 161.292 129.424 161.327C129.416 161.33 129.411 161.333 129.403 161.336L129.401 161.291C129.373 161.094 129.236 160.937 129.059 160.944C128.889 160.951 128.746 161.138 128.776 161.358Z" fill="black"/>
<path d="M129.3 157.872L129.286 157.919C129.279 157.913 129.274 157.909 129.267 157.903C129.172 157.839 129.047 157.816 129.013 157.873C128.979 157.929 129.05 158.039 129.146 158.1C129.191 158.128 129.233 158.14 129.268 158.141C129.005 158.275 128.734 158.679 128.652 159.055C128.603 159.242 128.624 159.393 128.662 159.505C128.679 159.551 128.675 159.604 128.647 159.646C128.572 159.758 128.549 159.904 128.568 160.058C128.591 160.268 128.748 160.436 128.928 160.483C129.271 160.566 129.565 160.313 129.602 160.002C129.61 159.922 129.595 159.844 129.575 159.773C129.562 159.73 129.573 159.684 129.603 159.651C129.679 159.57 129.724 159.455 129.768 159.296C129.836 158.981 129.828 158.567 129.727 158.309C129.755 158.33 129.794 158.347 129.847 158.355C129.96 158.372 130.085 158.347 130.095 158.292C130.104 158.236 129.997 158.169 129.885 158.148C129.876 158.148 129.87 158.147 129.861 158.146L129.881 158.106C129.959 157.92 129.908 157.715 129.75 157.64C129.595 157.568 129.386 157.668 129.3 157.872Z" fill="black"/>
<path d="M131.276 154.954L131.245 154.992C131.241 154.984 131.238 154.979 131.233 154.97C131.169 154.878 131.06 154.812 131.007 154.85C130.953 154.887 130.983 155.017 131.05 155.108C131.081 155.15 131.115 155.177 131.147 155.19C130.856 155.222 130.457 155.483 130.227 155.782C130.115 155.936 130.062 156.072 130.051 156.189C130.046 156.236 130.019 156.282 129.977 156.307C129.867 156.379 129.776 156.493 129.725 156.637C129.653 156.832 129.715 157.05 129.853 157.173C130.119 157.402 130.499 157.306 130.679 157.036C130.723 156.967 130.747 156.89 130.757 156.814C130.765 156.769 130.796 156.732 130.838 156.713C130.942 156.67 131.043 156.587 131.144 156.45C131.348 156.184 131.511 155.791 131.512 155.511C131.53 155.541 131.56 155.571 131.606 155.597C131.705 155.654 131.828 155.67 131.862 155.623C131.893 155.575 131.818 155.474 131.721 155.416C131.713 155.412 131.707 155.41 131.699 155.406L131.734 155.376C131.879 155.228 131.898 155.011 131.776 154.89C131.654 154.769 131.43 154.798 131.276 154.954Z" fill="black"/>
<path d="M129.029 165.002L129.037 165.05C129.029 165.048 129.022 165.046 129.013 165.044C128.899 165.03 128.777 165.066 128.77 165.13C128.763 165.193 128.882 165.258 128.995 165.269C129.049 165.275 129.091 165.267 129.123 165.252C128.954 165.487 128.888 165.953 128.964 166.319C129.006 166.504 129.075 166.633 129.156 166.719C129.189 166.754 129.206 166.804 129.197 166.852C129.179 166.98 129.205 167.123 129.282 167.255C129.382 167.437 129.59 167.537 129.775 167.518C130.127 167.476 130.307 167.134 130.22 166.823C130.197 166.744 130.154 166.676 130.103 166.618C130.074 166.583 130.065 166.535 130.08 166.492C130.116 166.386 130.12 166.258 130.082 166.093C130.015 165.767 129.823 165.387 129.611 165.199C129.645 165.207 129.688 165.204 129.739 165.188C129.848 165.153 129.943 165.074 129.929 165.019C129.913 164.963 129.786 164.951 129.677 164.984C129.668 164.987 129.662 164.99 129.655 164.993L129.655 164.947C129.639 164.743 129.485 164.585 129.312 164.594C129.139 164.602 129.012 164.785 129.029 165.002Z" fill="black"/>
<path d="M134.047 152.757L134.004 152.783C134.003 152.775 134.002 152.768 134 152.759C133.968 152.652 133.885 152.556 133.821 152.577C133.758 152.599 133.744 152.732 133.78 152.838C133.797 152.888 133.821 152.923 133.848 152.945C133.56 152.892 133.088 153.033 132.789 153.265C132.634 153.378 132.546 153.494 132.505 153.605C132.488 153.65 132.45 153.686 132.403 153.7C132.274 153.734 132.155 153.815 132.068 153.939C131.948 154.106 131.933 154.32 132.028 154.482C132.202 154.78 132.608 154.81 132.861 154.591C132.924 154.534 132.974 154.471 133.006 154.4C133.026 154.359 133.066 154.33 133.112 154.324C133.223 154.307 133.345 154.254 133.483 154.153C133.749 153.946 134.015 153.625 134.099 153.358C134.106 153.392 134.126 153.429 134.162 153.468C134.239 153.551 134.351 153.605 134.394 153.568C134.438 153.533 134.398 153.415 134.324 153.33C134.317 153.324 134.313 153.319 134.306 153.314L134.349 153.296C134.529 153.202 134.616 153.002 134.544 152.851C134.469 152.694 134.246 152.652 134.047 152.757Z" fill="black"/>
<path d="M137.509 151.835L137.46 151.843C137.462 151.834 137.464 151.828 137.466 151.819C137.483 151.708 137.45 151.587 137.385 151.581C137.32 151.575 137.25 151.685 137.236 151.796C137.229 151.848 137.235 151.89 137.25 151.922C137.015 151.749 136.537 151.674 136.157 151.748C135.965 151.782 135.832 151.857 135.743 151.935C135.706 151.968 135.655 151.985 135.605 151.976C135.473 151.961 135.325 151.988 135.188 152.064C135.003 152.175 134.903 152.374 134.928 152.555C134.983 152.898 135.337 153.066 135.645 152.978C135.724 152.954 135.792 152.913 135.85 152.861C135.885 152.833 135.933 152.825 135.977 152.839C136.084 152.876 136.211 152.874 136.379 152.845C136.706 152.782 137.096 152.603 137.292 152.4C137.284 152.433 137.285 152.476 137.301 152.526C137.334 152.633 137.413 152.733 137.47 152.718C137.526 152.702 137.542 152.578 137.511 152.47C137.508 152.462 137.505 152.457 137.502 152.449L137.549 152.449C137.757 152.432 137.924 152.297 137.919 152.125C137.914 151.957 137.731 151.817 137.509 151.835Z" fill="black"/>
<path d="M134.874 150.604L134.828 150.622C134.828 150.613 134.828 150.607 134.829 150.597C134.819 150.485 134.758 150.376 134.694 150.384C134.629 150.393 134.587 150.516 134.599 150.627C134.605 150.679 134.621 150.718 134.642 150.746C134.373 150.631 133.891 150.665 133.538 150.823C133.359 150.898 133.246 151.002 133.178 151.098C133.151 151.138 133.105 151.165 133.054 151.169C132.922 151.184 132.784 151.243 132.669 151.348C132.515 151.497 132.464 151.714 132.531 151.884C132.665 152.206 133.048 152.29 133.328 152.134C133.399 152.093 133.456 152.039 133.5 151.975C133.527 151.94 133.573 151.921 133.618 151.925C133.731 151.937 133.854 151.906 134.011 151.841C134.314 151.705 134.652 151.443 134.796 151.202C134.796 151.236 134.807 151.277 134.833 151.323C134.891 151.42 134.991 151.499 135.042 151.471C135.094 151.443 135.08 151.319 135.025 151.221C135.02 151.214 135.016 151.209 135.011 151.202L135.057 151.192C135.255 151.129 135.386 150.96 135.34 150.793C135.296 150.631 135.085 150.536 134.874 150.604Z" fill="black"/>
<path d="M141.022 151.962L140.974 151.963C140.978 151.955 140.98 151.949 140.984 151.941C141.014 151.832 140.997 151.709 140.938 151.694C140.879 151.68 140.8 151.78 140.768 151.888C140.754 151.938 140.753 151.98 140.763 152.013C140.561 151.812 140.14 151.649 139.78 151.622C139.597 151.608 139.457 151.632 139.352 151.683C139.309 151.704 139.257 151.704 139.214 151.682C139.1 151.622 138.958 151.597 138.797 151.626C138.593 151.671 138.432 151.817 138.387 151.996C138.302 152.332 138.587 152.624 138.91 152.635C138.994 152.639 139.075 152.625 139.151 152.597C139.195 152.58 139.245 152.586 139.284 152.613C139.379 152.678 139.51 152.723 139.692 152.736C140.05 152.764 140.5 152.667 140.73 152.492C140.716 152.524 140.711 152.566 140.718 152.618C140.735 152.729 140.803 152.839 140.866 152.831C140.93 152.824 140.962 152.703 140.944 152.592C140.942 152.584 140.94 152.578 140.938 152.57L140.986 152.576C141.205 152.589 141.389 152.457 141.394 152.287C141.398 152.117 141.233 151.974 141.022 151.962Z" fill="black"/>
<path d="M120.3 165.925C120.282 165.989 120.222 166.03 120.155 166.038C119.213 166.146 118.665 166.27 118.245 166.489C117.834 166.686 117.592 166.942 117.596 167.021C117.6 167.1 117.874 167.344 118.415 167.385C118.55 167.4 118.697 167.379 118.858 167.356C119.02 167.335 119.191 167.284 119.365 167.2C119.541 167.125 119.721 167.021 119.889 166.874C120.063 166.74 120.222 166.56 120.362 166.351C120.401 166.293 120.472 166.261 120.542 166.262C120.796 166.259 121.069 166.225 121.173 166.144C121.274 166.056 121.202 165.948 120.833 165.778C120.694 165.391 120.58 165.323 120.507 165.398C120.427 165.468 120.365 165.684 120.3 165.925Z" fill="black"/>
<path d="M122.36 162.823C122.39 162.883 122.381 162.956 122.34 163.007C121.707 163.714 121.424 164.202 121.263 164.63C121.11 165.046 121.118 165.4 121.176 165.455C121.233 165.512 121.6 165.498 122.021 165.158C122.439 164.835 122.859 164.092 122.707 163.103C122.694 163.034 122.717 162.962 122.77 162.917C123.174 162.585 123.461 162.147 122.666 162.369C121.947 161.966 122.157 162.387 122.36 162.823Z" fill="black"/>
<path d="M122.174 159.061C122.23 159.097 122.258 159.163 122.249 159.229C122.113 160.154 122.142 160.736 122.286 161.188C122.407 161.627 122.645 161.899 122.726 161.906C122.806 161.914 123.077 161.682 123.216 161.177C123.339 160.69 123.289 159.871 122.612 159.116C122.564 159.063 122.548 158.99 122.57 158.923C122.709 158.435 122.727 157.894 122.175 158.518C121.366 158.568 121.746 158.811 122.174 159.061Z" fill="black"/>
<path d="M119.728 156.257C119.794 156.244 119.867 156.264 119.903 156.323C120.436 157.094 120.797 157.508 121.186 157.773C121.36 157.913 121.539 158 121.683 158.052C121.817 158.109 121.921 158.124 121.957 158.104C121.992 158.085 122.034 157.99 122.048 157.833C122.053 157.682 122.022 157.471 121.926 157.221C121.808 156.987 121.631 156.704 121.319 156.475C121.021 156.237 120.592 156.055 120.09 155.999C120.021 155.986 119.953 155.954 119.921 155.891C119.685 155.424 119.295 155.053 119.35 155.862C118.798 156.466 119.251 156.347 119.728 156.257Z" fill="black"/>
<path d="M115.962 155.827C116.004 155.776 116.073 155.748 116.139 155.766C117.057 156.016 117.641 156.059 118.107 156.006C118.562 155.945 118.874 155.795 118.901 155.708C118.923 155.645 118.747 155.311 118.249 155.106C117.77 154.891 116.919 154.836 116.066 155.4C116.007 155.439 115.932 155.454 115.867 155.426C115.38 155.218 114.838 155.182 115.412 155.765C115.389 156.575 115.656 156.197 115.962 155.827Z" fill="black"/>
<path d="M112.895 157.949C112.889 157.884 112.925 157.821 112.983 157.787C113.808 157.328 114.26 157.006 114.567 156.662C114.862 156.323 115.007 156.018 114.968 155.932C114.952 155.897 114.861 155.85 114.705 155.827C114.549 155.803 114.324 155.802 114.07 155.892C113.565 156.041 112.862 156.579 112.67 157.576C112.657 157.645 112.608 157.703 112.54 157.728C112.056 157.919 111.619 158.246 112.459 158.282C113.003 158.874 112.953 158.429 112.895 157.949Z" fill="black"/>
<path d="M111.985 161.588C111.941 161.538 111.931 161.465 111.957 161.404C112.353 160.545 112.48 159.975 112.466 159.51C112.465 159.059 112.335 158.736 112.26 158.704C112.186 158.673 111.842 158.81 111.57 159.266C111.312 159.71 111.142 160.51 111.577 161.412C111.608 161.475 111.605 161.55 111.565 161.607C111.414 161.816 111.298 162.049 111.315 162.175C111.327 162.303 111.458 162.309 111.816 162.107C112.215 162.216 112.338 162.164 112.321 162.059C112.297 161.952 112.141 161.775 111.985 161.588Z" fill="black"/>
<path d="M113.291 165.092C113.225 165.079 113.172 165.028 113.156 164.965C112.959 164.058 112.767 163.526 112.509 163.136C112.251 162.759 111.975 162.551 111.884 162.568C111.816 162.579 111.59 162.88 111.62 163.404C111.632 163.911 111.942 164.71 112.856 165.194C112.921 165.225 112.964 165.287 112.969 165.357C112.979 165.616 113.046 165.87 113.14 165.962C113.235 166.057 113.338 165.979 113.485 165.598C113.862 165.437 113.923 165.318 113.845 165.249C113.762 165.181 113.528 165.147 113.291 165.092Z" fill="black"/>
<path d="M116.621 166.799C116.564 166.832 116.491 166.829 116.434 166.792C115.642 166.273 115.14 166.029 114.684 165.925C114.243 165.82 113.897 165.84 113.841 165.907C113.794 165.961 113.822 166.336 114.214 166.711C114.586 167.077 115.389 167.438 116.382 167.161C116.45 167.142 116.525 167.16 116.578 167.209C116.968 167.538 117.456 167.792 117.121 167.033C117.425 166.299 117.036 166.525 116.621 166.799Z" fill="black"/>
<path d="M120.301 169.532C120.267 169.588 120.202 169.617 120.138 169.608C119.682 169.552 119.304 169.507 118.996 169.555C118.68 169.564 118.423 169.633 118.214 169.726C117.794 169.885 117.558 170.134 117.56 170.219C117.562 170.293 117.817 170.542 118.309 170.632C118.552 170.663 118.855 170.656 119.195 170.576C119.527 170.458 119.906 170.297 120.254 169.963C120.304 169.917 120.374 169.9 120.438 169.921C120.673 170 120.925 170.061 121.038 170.02C121.151 169.974 121.122 169.847 120.837 169.565C120.828 169.158 120.748 169.055 120.654 169.103C120.557 169.146 120.428 169.328 120.301 169.532Z" fill="black"/>
<path d="M123.431 167.631C123.424 167.694 123.377 167.746 123.314 167.764C123.089 167.829 122.899 167.903 122.729 167.979C122.549 168.042 122.395 168.114 122.261 168.191C122.002 168.357 121.783 168.496 121.634 168.665C121.484 168.834 121.38 168.993 121.312 169.115C121.248 169.241 121.229 169.341 121.247 169.378C121.263 169.413 121.354 169.462 121.504 169.49C121.657 169.523 121.863 169.524 122.101 169.453C122.338 169.382 122.63 169.277 122.886 169.032C123.018 168.915 123.149 168.778 123.273 168.619C123.387 168.448 123.489 168.249 123.578 168.032C123.603 167.971 123.661 167.928 123.73 167.921C124.223 167.852 124.697 167.667 123.913 167.416C123.524 166.712 123.468 167.157 123.431 167.631Z" fill="black"/>
<path d="M125.364 164.555C125.388 164.616 125.373 164.684 125.327 164.729C124.976 165.036 124.749 165.317 124.57 165.569C124.381 165.815 124.299 166.065 124.224 166.27C124.084 166.683 124.144 167.031 124.209 167.082C124.271 167.13 124.614 167.087 125.003 166.769C125.2 166.613 125.363 166.363 125.512 166.05C125.649 165.734 125.713 165.322 125.684 164.858C125.676 164.792 125.705 164.727 125.761 164.69C126.175 164.422 126.549 164.071 125.718 164.161C125.075 163.687 125.19 164.11 125.364 164.555Z" fill="black"/>
<path d="M125.907 160.956C125.951 161.005 125.961 161.074 125.935 161.133C125.732 161.545 125.601 161.892 125.556 162.198C125.48 162.501 125.479 162.763 125.515 162.986C125.563 163.425 125.744 163.713 125.829 163.734C125.902 163.752 126.216 163.577 126.432 163.136C126.528 162.915 126.602 162.629 126.614 162.289C126.595 161.947 126.525 161.549 126.315 161.128C126.284 161.069 126.288 160.998 126.327 160.945C126.618 160.552 126.842 160.101 126.096 160.465C125.324 160.236 125.584 160.599 125.907 160.956Z" fill="black"/>
<path d="M125.142 157.401C125.201 157.431 125.236 157.491 125.233 157.554C125.198 158.008 125.2 158.375 125.26 158.676C125.296 158.984 125.387 159.229 125.5 159.426C125.686 159.826 125.969 160.034 126.052 160.026C126.13 160.018 126.353 159.751 126.415 159.263C126.427 159.023 126.395 158.729 126.285 158.404C126.151 158.086 125.94 157.733 125.586 157.415C125.534 157.37 125.511 157.303 125.528 157.239C125.591 157.004 125.63 156.756 125.584 156.646C125.532 156.538 125.407 156.575 125.135 156.876C124.726 156.911 124.626 156.998 124.678 157.087C124.725 157.182 124.925 157.292 125.142 157.401Z" fill="black"/>
<path d="M122.983 154.477C123.048 154.48 123.104 154.522 123.128 154.582C123.47 155.415 123.802 155.881 124.163 156.161C124.523 156.43 124.834 156.535 124.917 156.489C124.976 156.458 125.107 156.107 124.933 155.649C124.839 155.426 124.719 155.143 124.45 154.911C124.322 154.792 124.171 154.674 124 154.564C123.826 154.457 123.609 154.378 123.383 154.306C123.318 154.285 123.27 154.232 123.258 154.165C123.16 153.682 122.932 153.24 122.733 154.019C122.039 154.451 122.504 154.467 122.983 154.477Z" fill="black"/>
<path d="M119.717 152.806C119.777 152.778 119.848 152.787 119.897 152.828C120.571 153.459 121.099 153.695 121.543 153.797C121.974 153.904 122.329 153.815 122.372 153.754C122.421 153.684 122.349 153.359 121.997 153.001C121.65 152.656 120.955 152.337 120.002 152.47C119.935 152.483 119.866 152.46 119.825 152.408C119.52 152.026 119.133 151.69 119.289 152.493C118.854 153.158 119.276 153.012 119.717 152.806Z" fill="black"/>
<path d="M116.015 152.566C116.06 152.518 116.13 152.501 116.191 152.521C116.628 152.69 116.99 152.774 117.303 152.805C117.617 152.853 117.884 152.831 118.108 152.777C118.55 152.705 118.83 152.496 118.845 152.414C118.858 152.339 118.655 152.056 118.189 151.87C117.956 151.795 117.659 151.747 117.311 151.765C116.964 151.8 116.562 151.916 116.151 152.151C116.094 152.187 116.022 152.19 115.964 152.157C115.535 151.912 115.048 151.739 115.498 152.429C115.347 153.204 115.685 152.916 116.015 152.566Z" fill="black"/>
<path d="M112.528 153.75C112.55 153.69 112.607 153.648 112.672 153.643C113.124 153.59 113.505 153.564 113.794 153.455C114.094 153.371 114.334 153.265 114.517 153.13C114.892 152.889 115.076 152.605 115.057 152.521C115.041 152.45 114.742 152.249 114.239 152.261C113.994 152.281 113.692 152.337 113.379 152.498C113.078 152.682 112.736 152.912 112.477 153.323C112.439 153.378 112.374 153.409 112.306 153.401C111.793 153.333 111.308 153.435 112.004 153.843C112.226 154.628 112.365 154.178 112.528 153.75Z" fill="black"/>
<path d="M109.939 156.312C109.929 156.247 109.955 156.181 110.015 156.152C110.432 155.93 110.701 155.696 110.943 155.499C111.058 155.395 111.151 155.29 111.229 155.184C111.31 155.083 111.384 154.99 111.439 154.894C111.553 154.705 111.61 154.519 111.639 154.378C111.673 154.242 111.67 154.141 111.644 154.109C111.619 154.079 111.518 154.052 111.364 154.056C111.215 154.066 111.019 154.12 110.797 154.235C110.687 154.294 110.566 154.364 110.453 154.461C110.346 154.563 110.238 154.684 110.134 154.825C109.915 155.096 109.775 155.495 109.695 155.95C109.681 156.014 109.643 156.073 109.58 156.097C109.123 156.278 108.686 156.551 109.516 156.628C110.049 157.223 110.02 156.785 109.939 156.312Z" fill="black"/>
<path d="M108.715 159.733C108.681 159.677 108.683 159.608 108.719 159.555C108.986 159.183 109.182 158.867 109.283 158.576C109.414 158.295 109.463 158.039 109.47 157.814C109.519 157.381 109.389 157.058 109.313 157.022C109.243 156.989 108.911 157.103 108.6 157.493C108.463 157.693 108.336 157.962 108.26 158.297C108.214 158.638 108.206 159.044 108.343 159.496C108.364 159.559 108.348 159.628 108.299 159.674C107.943 160.014 107.642 160.423 108.442 160.185C109.163 160.537 108.971 160.138 108.715 159.733Z" fill="black"/>
<path d="M108.82 163.375C108.767 163.334 108.745 163.268 108.76 163.207C108.896 162.766 108.95 162.405 108.955 162.095C108.975 161.784 108.93 161.524 108.855 161.31C108.736 160.883 108.499 160.631 108.414 160.626C108.337 160.621 108.066 160.848 107.925 161.316C107.87 161.549 107.847 161.842 107.896 162.179C107.961 162.514 108.114 162.894 108.386 163.276C108.428 163.329 108.437 163.399 108.408 163.458C108.194 163.896 108.057 164.383 108.723 163.89C109.524 163.977 109.203 163.669 108.82 163.375Z" fill="black"/>
<path d="M110.281 166.699C110.218 166.682 110.172 166.63 110.162 166.567C110.119 166.339 110.082 166.14 110.048 165.962C110.007 165.78 109.955 165.622 109.893 165.482C109.791 165.192 109.661 164.967 109.511 164.796C109.24 164.446 108.933 164.289 108.85 164.314C108.778 164.335 108.6 164.642 108.646 165.131C108.683 165.37 108.766 165.658 108.947 165.953C109.047 166.096 109.169 166.242 109.315 166.384C109.454 166.53 109.633 166.664 109.848 166.778C109.907 166.811 109.943 166.872 109.94 166.939C109.905 167.443 110.034 167.914 110.408 167.207C111.192 166.941 110.731 166.83 110.281 166.699Z" fill="black"/>
<path d="M113.056 169.067C112.989 169.084 112.924 169.057 112.889 169.001C112.633 168.613 112.382 168.361 112.164 168.138C112.051 168.033 111.936 167.95 111.824 167.881C111.721 167.802 111.617 167.74 111.516 167.691C111.106 167.506 110.767 167.486 110.705 167.541C110.646 167.592 110.611 167.95 110.885 168.361C110.952 168.465 111.035 168.574 111.136 168.684C111.247 168.782 111.378 168.88 111.528 168.971C111.82 169.166 112.232 169.284 112.705 169.327C112.771 169.335 112.831 169.375 112.861 169.432C113.077 169.865 113.387 170.272 113.407 169.457C113.977 168.895 113.534 168.954 113.056 169.067Z" fill="black"/>
<path d="M116.626 170.002C116.573 170.041 116.502 170.045 116.445 170.014C116.044 169.782 115.708 169.62 115.405 169.542C115.109 169.436 114.846 169.408 114.617 169.419C114.174 169.4 113.853 169.553 113.822 169.629C113.793 169.701 113.933 170.014 114.354 170.293C114.568 170.41 114.853 170.514 115.201 170.562C115.552 170.583 115.968 170.555 116.416 170.385C116.479 170.359 116.551 170.369 116.602 170.413C116.977 170.731 117.421 170.99 117.109 170.23C117.404 169.497 117.016 169.718 116.626 170.002Z" fill="black"/>
<path d="M119.256 168.255C119.217 168.308 119.15 168.335 119.085 168.324C118.618 168.22 118.251 168.193 117.93 168.174C117.612 168.178 117.346 168.203 117.122 168.261C116.677 168.393 116.4 168.574 116.39 168.668C116.385 168.706 116.438 168.794 116.554 168.894C116.67 168.999 116.851 169.11 117.1 169.172C117.347 169.242 117.663 169.283 118.025 169.209C118.386 169.16 118.792 168.979 119.18 168.685C119.233 168.64 119.307 168.626 119.372 168.65C119.857 168.841 120.377 168.874 119.801 168.301C119.801 167.491 119.54 167.875 119.256 168.255Z" fill="black"/>
<path d="M122.419 166.277C122.417 166.342 122.37 166.397 122.308 166.421C121.439 166.768 120.948 167.068 120.636 167.41C120.322 167.727 120.201 168.06 120.231 168.128C120.265 168.205 120.599 168.327 121.109 168.194C121.361 168.129 121.64 167.974 121.919 167.738C122.049 167.609 122.178 167.458 122.299 167.286C122.419 167.113 122.507 166.896 122.589 166.671C122.611 166.607 122.67 166.56 122.738 166.545C123.224 166.425 123.711 166.202 122.893 166.017C122.46 165.348 122.419 165.787 122.419 166.277Z" fill="black"/>
<path d="M124.08 162.941C124.11 163.001 124.104 163.073 124.061 163.123C123.739 163.478 123.55 163.794 123.387 164.068C123.249 164.352 123.152 164.596 123.109 164.82C123.03 165.267 123.078 165.591 123.157 165.642C123.213 165.68 123.594 165.623 123.933 165.241C124.287 164.879 124.599 164.166 124.431 163.213C124.418 163.147 124.437 163.076 124.49 163.032C124.87 162.709 125.201 162.305 124.386 162.496C123.693 162.086 123.855 162.507 124.08 162.941Z" fill="black"/>
<path d="M124.125 159.217C124.177 159.258 124.208 159.324 124.186 159.389C124.118 159.616 124.072 159.819 124.046 160.005C124.016 160.191 123.983 160.363 123.979 160.52C123.978 160.833 123.982 161.099 124.046 161.32C124.163 161.762 124.358 162.035 124.45 162.046C124.519 162.055 124.829 161.842 124.976 161.36C125.128 160.892 125.137 160.114 124.559 159.316C124.524 159.259 124.506 159.188 124.535 159.126C124.736 158.67 124.844 158.157 124.203 158.687C123.396 158.626 123.733 158.922 124.125 159.217Z" fill="black"/>
<path d="M122.332 155.982C122.397 155.99 122.452 156.037 122.473 156.099C122.745 156.98 123.043 157.465 123.348 157.808C123.668 158.131 123.966 158.287 124.051 158.257C124.119 158.233 124.298 157.903 124.183 157.405C124.1 156.911 123.674 156.218 122.749 155.842C122.684 155.817 122.637 155.759 122.629 155.691C122.559 155.188 122.336 154.723 122.104 155.499C121.383 155.89 121.852 155.93 122.332 155.982Z" fill="black"/>
<path d="M119.03 154.21C119.091 154.179 119.164 154.187 119.214 154.235C119.931 154.837 120.445 155.114 120.904 155.214C121.341 155.33 121.691 155.28 121.744 155.211C121.789 155.154 121.739 154.8 121.376 154.429C121.015 154.082 120.299 153.708 119.312 153.874C119.244 153.881 119.173 153.859 119.128 153.81C118.801 153.436 118.386 153.109 118.579 153.909C118.158 154.586 118.584 154.428 119.03 154.21Z" fill="black"/>
<path d="M115.253 154.251C115.291 154.196 115.359 154.169 115.423 154.18C115.891 154.284 116.257 154.314 116.578 154.332C116.895 154.326 117.161 154.308 117.385 154.246C117.829 154.123 118.108 153.935 118.119 153.844C118.128 153.777 117.909 153.47 117.411 153.335C116.927 153.185 116.114 153.215 115.328 153.819C115.275 153.864 115.201 153.879 115.136 153.855C114.651 153.666 114.13 153.632 114.708 154.204C114.709 155.014 114.97 154.632 115.253 154.251Z" fill="black"/>
<path d="M112.095 156.236C112.098 156.171 112.144 156.116 112.206 156.092C113.074 155.743 113.564 155.44 113.875 155.099C114.035 154.942 114.14 154.778 114.205 154.643C114.271 154.513 114.297 154.418 114.279 154.38C114.244 154.303 113.909 154.18 113.4 154.316C113.147 154.381 112.87 154.538 112.592 154.774C112.462 154.903 112.333 155.054 112.213 155.227C112.093 155.4 112.006 155.618 111.924 155.842C111.902 155.906 111.844 155.954 111.776 155.968C111.29 156.089 110.803 156.313 111.622 156.497C112.056 157.165 112.096 156.726 112.095 156.236Z" fill="black"/>
<path d="M110.437 159.574C110.407 159.514 110.413 159.442 110.455 159.392C110.777 159.037 110.967 158.721 111.129 158.446C111.268 158.162 111.364 157.918 111.407 157.694C111.486 157.247 111.437 156.923 111.358 156.872C111.302 156.834 110.921 156.892 110.583 157.273C110.229 157.636 109.918 158.349 110.086 159.302C110.099 159.369 110.079 159.439 110.027 159.482C109.647 159.806 109.315 160.209 110.131 160.019C110.824 160.429 110.662 160.008 110.437 159.574Z" fill="black"/>
<path d="M110.39 163.299C110.338 163.258 110.307 163.192 110.33 163.127C110.398 162.9 110.444 162.697 110.47 162.511C110.5 162.325 110.533 162.153 110.537 161.996C110.538 161.682 110.535 161.417 110.47 161.195C110.354 160.754 110.158 160.48 110.066 160.47C109.997 160.46 109.688 160.673 109.541 161.154C109.388 161.623 109.379 162.401 109.956 163.2C109.992 163.256 110.009 163.327 109.98 163.389C109.778 163.845 109.67 164.357 110.311 163.829C111.119 163.891 110.782 163.594 110.39 163.299Z" fill="black"/>
<path d="M112.176 166.538C112.111 166.53 112.056 166.483 112.036 166.421C111.766 165.539 111.47 165.053 111.165 164.71C110.846 164.385 110.548 164.229 110.463 164.259C110.395 164.282 110.215 164.612 110.329 165.11C110.412 165.604 110.834 166.298 111.759 166.677C111.823 166.702 111.87 166.76 111.878 166.829C111.948 167.331 112.169 167.798 112.403 167.022C113.124 166.633 112.657 166.591 112.176 166.538Z" fill="black"/>
<path d="M115.477 168.306C115.416 168.335 115.342 168.331 115.292 168.286C114.575 167.678 114.059 167.413 113.603 167.308C113.165 167.194 112.816 167.24 112.763 167.309C112.718 167.366 112.765 167.723 113.13 168.092C113.489 168.445 114.211 168.808 115.196 168.646C115.264 168.637 115.336 168.654 115.38 168.707C115.71 169.081 116.128 169.409 115.929 168.608C116.343 167.93 115.921 168.088 115.477 168.306Z" fill="black"/>
<path d="M93.8787 153.486C94.0654 152.506 93.096 151.452 92.0213 151.929C91.9871 151.939 91.9432 151.979 91.9853 152.012C92.8089 152.503 93.1727 153.642 92.8089 154.595C92.8025 154.622 92.8116 154.634 92.8256 154.64C92.8315 154.654 92.8426 154.664 92.8645 154.657C93.7268 154.255 94.7582 154.655 95.2025 155.566C95.2344 155.614 95.2672 155.563 95.2777 155.526C95.7056 154.34 94.7646 153.28 93.8787 153.486Z" fill="black"/>
<path d="M98.0545 147.915C98.2412 146.934 97.2718 145.88 96.1971 146.357C96.1628 146.367 96.1189 146.408 96.1611 146.44C96.9847 146.931 97.3485 148.07 96.9847 149.023C96.9783 149.05 96.9873 149.062 97.0014 149.068C97.0072 149.082 97.0184 149.092 97.0403 149.085C97.9026 148.683 98.934 149.084 99.3783 149.994C99.4102 150.042 99.4429 149.991 99.4535 149.954C99.8814 148.769 98.9404 147.709 98.0545 147.915Z" fill="black"/>
<path d="M106.229 146.676C106.416 145.695 105.446 144.641 104.371 145.118C104.337 145.128 104.293 145.169 104.335 145.201C105.159 145.692 105.523 146.832 105.159 147.785C105.153 147.811 105.162 147.823 105.176 147.829C105.182 147.843 105.193 147.853 105.215 147.846C106.077 147.444 107.108 147.845 107.553 148.756C107.584 148.803 107.617 148.752 107.628 148.716C108.056 147.53 107.115 146.47 106.229 146.676Z" fill="black"/>
<path d="M90.0203 157.901C90.207 156.921 89.2376 155.867 88.1629 156.344C88.1287 156.354 88.0848 156.395 88.1269 156.427C88.9505 156.918 89.3143 158.057 88.9505 159.01C88.9441 159.037 88.9532 159.049 88.9672 159.055C88.9731 159.069 88.9842 159.079 89.0061 159.072C89.8684 158.67 90.8998 159.07 91.3441 159.981C91.376 160.029 91.4088 159.978 91.4193 159.941C91.8472 158.755 90.9062 157.695 90.0203 157.901Z" fill="black"/>
<path d="M85.9107 165.142C86.0974 164.161 85.128 163.107 84.0533 163.584C84.019 163.594 83.9751 163.635 84.0173 163.667C84.8409 164.158 85.2047 165.298 84.8409 166.25C84.8345 166.277 84.8435 166.289 84.8576 166.295C84.8634 166.309 84.8746 166.319 84.8965 166.312C85.7588 165.91 86.7902 166.311 87.2345 167.221C87.2664 167.269 87.2991 167.218 87.3097 167.182C87.7376 165.996 86.7966 164.936 85.9107 165.142Z" fill="black"/>
<path d="M99.1448 174.083C99.3315 173.102 98.3622 172.048 97.2874 172.525C97.2532 172.535 97.2093 172.576 97.2514 172.608C98.075 173.099 98.4388 174.238 98.075 175.191C98.0686 175.218 98.0777 175.23 98.0917 175.236C98.0976 175.25 98.1087 175.26 98.1306 175.253C98.9929 174.851 100.024 175.252 100.469 176.162C100.5 176.21 100.533 176.159 100.544 176.122C100.972 174.937 100.031 173.876 99.1448 174.083Z" fill="black"/>
<path d="M97.2949 153.486C97.4817 152.506 96.5123 151.452 95.4376 151.929C95.4033 151.939 95.3594 151.979 95.4016 152.012C96.2252 152.503 96.589 153.642 96.2252 154.595C96.2187 154.622 96.2278 154.634 96.2419 154.64C96.2477 154.654 96.2588 154.664 96.2808 154.657C97.143 154.255 98.1744 154.655 98.6187 155.566C98.6506 155.614 98.6834 155.563 98.694 155.526C99.1219 154.34 98.1809 153.28 97.2949 153.486Z" fill="black"/>
<path d="M100.711 153.486C100.898 152.506 99.9285 151.452 98.8535 151.929C98.8192 151.939 98.7756 151.979 98.8175 152.012C99.6414 152.503 100.005 153.642 99.6411 154.595C99.6349 154.622 99.644 154.634 99.658 154.64C99.6639 154.654 99.675 154.664 99.6967 154.657C100.559 154.255 101.591 154.655 102.035 155.566C102.067 155.614 102.1 155.563 102.11 155.526C102.538 154.34 101.597 153.28 100.711 153.486Z" fill="black"/>
<path d="M104.127 153.486C104.314 152.506 103.345 151.452 102.27 151.929C102.235 151.939 102.192 151.979 102.234 152.012C103.058 152.503 103.421 153.642 103.057 154.595C103.051 154.622 103.06 154.634 103.074 154.64C103.08 154.654 103.091 154.664 103.113 154.657C103.975 154.255 105.007 154.655 105.451 155.566C105.483 155.614 105.516 155.563 105.526 155.526C105.954 154.34 105.013 153.28 104.127 153.486Z" fill="black"/>
<path d="M93.8106 168.864C94.0047 167.883 92.9969 166.829 91.8801 167.306C91.8444 167.316 91.799 167.357 91.8426 167.389C92.6984 167.88 93.0766 169.02 92.6984 169.973C92.692 169.999 92.7013 170.011 92.7163 170.017C92.7221 170.032 92.7338 170.041 92.7561 170.034C93.6526 169.632 94.7244 170.033 95.1862 170.944C95.2193 170.991 95.2532 170.94 95.2644 170.904C95.7089 169.718 94.7314 168.658 93.8106 168.864Z" fill="black"/>
<path d="M97.3609 168.864C97.5549 167.883 96.5475 166.829 95.4304 167.306C95.3947 167.316 95.3493 167.357 95.3929 167.389C96.249 167.88 96.6271 169.02 96.249 169.973C96.2423 169.999 96.2519 170.011 96.2666 170.017C96.2727 170.032 96.2841 170.041 96.3067 170.034C97.2028 169.632 98.2747 170.033 98.7365 170.944C98.7699 170.991 98.8038 170.94 98.8147 170.904C99.2595 169.718 98.2817 168.658 97.3609 168.864Z" fill="black"/>
<path d="M100.911 168.864C101.106 167.883 100.098 166.829 98.981 167.306C98.9453 167.316 98.8999 167.357 98.9432 167.389C99.7993 167.88 100.177 169.02 99.7993 169.973C99.7926 169.999 99.8023 170.011 99.8169 170.017C99.8231 170.032 99.8348 170.041 99.857 170.034C100.753 169.632 101.825 170.033 102.287 170.944C102.32 170.991 102.354 170.94 102.365 170.904C102.81 169.718 101.832 168.658 100.911 168.864Z" fill="black"/>
<path d="M104.462 168.864C104.656 167.883 103.648 166.829 102.531 167.306C102.495 167.316 102.45 167.357 102.494 167.389C103.35 167.88 103.728 169.02 103.35 169.973C103.343 169.999 103.353 170.011 103.367 170.017C103.374 170.032 103.385 170.041 103.407 170.034C104.304 169.632 105.376 170.033 105.837 170.944C105.871 170.991 105.905 170.94 105.915 170.904C106.36 169.718 105.383 168.658 104.462 168.864Z" fill="black"/>
<path d="M94.9931 165.157C95.2339 164.237 94.2579 163.279 93.1018 163.754C93.0652 163.764 93.0172 163.804 93.0602 163.833C93.9075 164.268 94.2406 165.321 93.8139 166.221C93.8059 166.246 93.815 166.257 93.8297 166.262C93.8352 166.275 93.8466 166.284 93.8698 166.277C94.7981 165.878 95.8691 166.223 96.2973 167.061C96.3289 167.105 96.3658 167.056 96.3783 167.022C96.8832 165.903 95.9376 164.94 94.9931 165.157Z" fill="black"/>
<path d="M97.0735 163.204C97.3143 162.284 96.3382 161.327 95.1821 161.802C95.1459 161.812 95.0979 161.851 95.1406 161.881C95.9882 162.316 96.3213 163.369 95.8945 164.269C95.8866 164.293 95.8957 164.305 95.9103 164.31C95.9156 164.323 95.927 164.332 95.9501 164.325C96.8785 163.926 97.9495 164.271 98.3777 165.109C98.4093 165.153 98.4461 165.104 98.459 165.069C98.9639 163.951 98.0182 162.988 97.0735 163.204Z" fill="black"/>
<path d="M99.1542 161.252C99.395 160.332 98.4189 159.375 97.2628 159.849C97.2265 159.859 97.1783 159.899 97.2213 159.928C98.0689 160.363 98.402 161.417 97.9749 162.316C97.9673 162.341 97.9764 162.352 97.991 162.357C97.9963 162.37 98.0077 162.379 98.0308 162.372C98.9592 161.973 100.03 162.319 100.458 163.156C100.49 163.2 100.527 163.152 100.539 163.117C101.045 161.998 100.099 161.035 99.1542 161.252Z" fill="black"/>
<path d="M101.235 159.3C101.476 158.379 100.5 157.422 99.3434 157.897C99.3071 157.907 99.2588 157.947 99.3018 157.976C100.149 158.411 100.482 159.464 100.056 160.364C100.048 160.389 100.057 160.4 100.072 160.405C100.077 160.418 100.088 160.427 100.111 160.42C101.04 160.021 102.111 160.366 102.539 161.204C102.57 161.248 102.607 161.199 102.62 161.165C103.125 160.046 102.179 159.083 101.235 159.3Z" fill="black"/>
<path d="M103.315 157.347C103.556 156.427 102.58 155.47 101.424 155.945C101.387 155.955 101.339 155.994 101.382 156.024C102.23 156.459 102.563 157.512 102.136 158.412C102.128 158.436 102.137 158.448 102.152 158.453C102.157 158.466 102.169 158.475 102.192 158.468C103.12 158.069 104.191 158.414 104.62 159.252C104.651 159.296 104.688 159.247 104.701 159.212C105.205 158.094 104.26 157.131 103.315 157.347Z" fill="black"/>
<path d="M85.9373 173.848H92.808C95.9309 173.848 98.0649 175.912 98.0649 178.512C98.0649 180.194 97.154 181.621 95.8267 182.283V182.436C97.3882 183.226 98.4035 184.934 98.4035 186.743C98.4035 189.546 95.983 191.687 92.7559 191.687H85.9373V173.848ZM92.5996 181.442C94.2392 181.442 95.4366 180.321 95.4366 178.766C95.4366 177.212 94.2392 176.116 92.5996 176.116H88.5135V181.442H92.5996ZM92.8337 189.418C94.4215 189.418 95.7749 188.119 95.7749 186.565C95.7749 185.01 94.4215 183.685 92.8337 183.685H88.5135V189.418H92.8337Z" fill="black"/>
<path d="M102.228 173.848H109.098C112.221 173.848 114.486 176.065 114.486 179.021C114.486 181.391 113.054 183.175 110.712 183.863L115.137 191.687H112.248L108.109 184.322H104.804V191.687H102.228V173.848ZM108.838 182.054C110.53 182.054 111.857 180.728 111.857 179.072C111.857 177.441 110.53 176.116 108.838 176.116H104.804V182.054H108.838Z" fill="black"/>
<path d="M118.804 173.848H121.433L130.594 187.303H130.75V173.848H133.249V191.687H130.62L121.433 178.231H121.277V191.687H118.804V173.848Z" fill="black"/>
<path d="M137.384 182.767C137.384 177.416 141.288 173.568 146.675 173.568C152.063 173.568 155.967 177.416 155.967 182.767C155.967 188.119 152.063 191.967 146.675 191.967C141.288 191.967 137.384 188.119 137.384 182.767ZM146.675 189.648C150.579 189.648 153.338 186.819 153.338 182.767C153.338 178.715 150.579 175.887 146.675 175.887C142.745 175.887 140.013 178.715 140.013 182.767C140.013 186.819 142.745 189.648 146.675 189.648Z" fill="black"/>
<path d="M120.667 159.951C120.723 159.991 120.756 160.059 120.738 160.127C120.539 161.059 120.469 161.636 120.519 162.103C120.54 162.332 120.584 162.523 120.628 162.664C120.678 162.807 120.733 162.899 120.771 162.913C120.809 162.927 120.911 162.895 121.035 162.795C121.166 162.697 121.316 162.527 121.433 162.273C121.549 162.021 121.623 161.684 121.597 161.293C121.556 160.905 121.434 160.451 121.107 160.036C121.067 159.977 121.047 159.901 121.07 159.833C121.159 159.583 121.192 159.309 121.138 159.181C121.085 159.049 120.961 159.086 120.68 159.394C120.27 159.402 120.17 159.495 120.214 159.588C120.263 159.683 120.466 159.804 120.667 159.951Z" fill="black"/>
<path d="M114.405 158.831C114.399 158.761 114.443 158.701 114.506 158.672C114.946 158.466 115.281 158.327 115.567 158.207C115.848 158.082 116.074 157.963 116.268 157.842C116.46 157.722 116.616 157.601 116.727 157.5C116.836 157.392 116.897 157.309 116.893 157.268C116.89 157.229 116.817 157.149 116.67 157.084C116.523 157.013 116.299 156.953 116.009 156.967C115.722 156.981 115.365 157.076 115.022 157.314C114.676 157.542 114.359 157.937 114.21 158.437C114.188 158.507 114.13 158.563 114.064 158.59C113.94 158.635 113.813 158.69 113.707 158.751C113.61 158.815 113.532 158.883 113.496 158.942C113.424 159.066 113.531 159.138 113.95 159.163C114.211 159.474 114.348 159.493 114.394 159.402C114.418 159.354 114.422 159.273 114.416 159.171C114.417 159.074 114.412 158.956 114.405 158.831Z" fill="black"/>
<path d="M116.618 165.005C116.558 165.036 116.48 165.039 116.427 164.992C116.035 164.708 115.761 164.463 115.517 164.278C115.27 164.097 115.067 163.945 114.864 163.839C114.48 163.612 114.139 163.506 114.061 163.552C114.001 163.585 113.9 163.958 114.186 164.463C114.337 164.701 114.579 164.979 114.958 165.162C115.328 165.349 115.822 165.46 116.347 165.357C116.419 165.349 116.498 165.361 116.551 165.412C116.744 165.6 116.982 165.745 117.123 165.754C117.267 165.764 117.286 165.639 117.125 165.258C117.295 164.893 117.253 164.764 117.148 164.763C117.039 164.763 116.839 164.893 116.618 165.005Z" fill="black"/>
<path d="M120.489 171.325C120.451 171.383 120.379 171.402 120.311 171.39C119.355 171.227 118.723 171.293 118.268 171.479C117.818 171.625 117.569 171.885 117.571 171.967C117.573 172.044 117.839 172.281 118.352 172.386C118.854 172.455 119.633 172.377 120.413 171.749C120.467 171.705 120.544 171.699 120.609 171.719C121.089 171.875 121.614 171.949 121.043 171.354C121.077 170.552 120.773 170.909 120.489 171.325Z" fill="black"/>
<path d="M127.534 162.877C127.568 162.934 127.566 163.007 127.529 163.064C127.283 163.469 127.078 163.808 126.975 164.121C126.881 164.435 126.812 164.701 126.803 164.936C126.793 165.171 126.827 165.37 126.873 165.515C126.908 165.656 126.96 165.745 126.999 165.76C127.036 165.775 127.139 165.748 127.273 165.665C127.397 165.578 127.547 165.433 127.688 165.219C127.827 165.005 127.971 164.725 128.008 164.366C128.053 164.009 128.066 163.59 127.906 163.117C127.885 163.05 127.902 162.977 127.951 162.928C128.129 162.748 128.299 162.548 128.314 162.426C128.324 162.304 128.196 162.268 127.809 162.395C127.436 162.208 127.305 162.231 127.305 162.343C127.3 162.456 127.406 162.664 127.534 162.877Z" fill="black"/>
<path d="M123.44 152.603C123.508 152.601 123.571 152.639 123.603 152.698C123.715 152.913 123.841 153.079 123.944 153.249C124.049 153.418 124.156 153.561 124.265 153.683C124.494 153.916 124.688 154.112 124.891 154.237C125.3 154.482 125.64 154.548 125.708 154.499C125.771 154.454 125.837 154.089 125.592 153.638C125.473 153.413 125.302 153.144 124.999 152.931C124.853 152.82 124.685 152.712 124.496 152.615C124.307 152.516 124.073 152.457 123.831 152.4C123.762 152.385 123.705 152.334 123.685 152.268C123.646 152.146 123.603 152.024 123.555 151.924C123.502 151.831 123.447 151.758 123.394 151.724C123.286 151.656 123.196 151.751 123.13 152.148C122.79 152.383 122.751 152.508 122.85 152.561C122.9 152.588 122.987 152.598 123.094 152.598C123.196 152.605 123.316 152.606 123.44 152.603Z" fill="black"/>
<path d="M115.946 150.808C115.996 150.762 116.068 150.739 116.133 150.767C116.594 150.952 116.977 151.021 117.311 151.058C117.645 151.106 117.928 151.085 118.166 151.032C118.636 150.941 118.924 150.75 118.937 150.662C118.948 150.592 118.728 150.29 118.238 150.124C117.993 150.049 117.683 150.001 117.319 150.018C116.955 150.046 116.536 150.178 116.099 150.396C116.037 150.424 115.962 150.434 115.902 150.399C115.459 150.156 114.958 149.984 115.406 150.676C115.22 151.455 115.589 151.162 115.946 150.808Z" fill="black"/>
<path d="M107.385 157.748C107.361 157.686 107.378 157.615 107.425 157.565C107.593 157.39 107.728 157.224 107.841 157.064C107.97 156.912 108.074 156.764 108.156 156.622C108.238 156.48 108.299 156.342 108.345 156.211C108.403 156.086 108.444 155.966 108.472 155.852C108.58 155.398 108.498 155.048 108.435 155.007C108.362 154.96 108.016 155.043 107.656 155.415C107.565 155.508 107.474 155.617 107.386 155.745C107.312 155.878 107.243 156.031 107.184 156.202C107.126 156.373 107.078 156.562 107.046 156.768C107.031 156.98 107.036 157.209 107.063 157.452C107.07 157.521 107.04 157.589 106.982 157.63C106.549 157.926 106.242 158.322 107.045 158.182C107.727 158.659 107.546 158.198 107.385 157.748Z" fill="black"/>
<path d="M109.599 168.644C109.533 168.632 109.479 168.582 109.46 168.517C109.396 168.285 109.311 168.094 109.243 167.909C109.177 167.722 109.102 167.56 109.021 167.418C108.847 167.142 108.692 166.914 108.522 166.749C108.174 166.426 107.845 166.3 107.772 166.333C107.698 166.367 107.568 166.708 107.712 167.198C107.779 167.444 107.895 167.737 108.145 168.007C108.264 168.145 108.405 168.284 108.569 168.418C108.735 168.55 108.95 168.658 109.174 168.763C109.238 168.792 109.283 168.852 109.289 168.922C109.305 169.181 109.367 169.427 109.459 169.512C109.55 169.601 109.658 169.526 109.806 169.151C110.189 168.991 110.253 168.876 110.168 168.805C110.079 168.734 109.837 168.694 109.599 168.644Z" fill="black"/>
<path d="M126.251 167.707C126.253 167.773 126.215 167.835 126.155 167.865C125.745 168.094 125.394 168.281 125.153 168.5C125.029 168.607 124.93 168.72 124.841 168.825C124.746 168.924 124.669 169.024 124.606 169.121C124.357 169.511 124.33 169.869 124.382 169.933C124.431 169.993 124.782 170.019 125.238 169.79C125.352 169.733 125.472 169.66 125.594 169.569C125.71 169.473 125.819 169.35 125.929 169.211C126.14 168.926 126.364 168.579 126.456 168.094C126.47 168.027 126.521 167.973 126.587 167.954C127.076 167.817 127.549 167.595 126.727 167.428C126.281 166.767 126.238 167.221 126.251 167.707Z" fill="black"/>
<path d="M125.983 152.699C126.049 152.716 126.093 152.773 126.104 152.839C126.172 153.314 126.318 153.656 126.44 153.957C126.563 154.256 126.722 154.479 126.888 154.648C127.195 154.995 127.51 155.137 127.592 155.105C127.661 155.078 127.817 154.747 127.726 154.253C127.67 154.012 127.556 153.729 127.358 153.435C127.163 153.14 126.822 152.869 126.412 152.619C126.353 152.585 126.319 152.519 126.319 152.452C126.303 151.964 126.197 151.466 125.821 152.19C125.042 152.442 125.489 152.591 125.983 152.699Z" fill="black"/>
<path d="M110.514 150.932C110.536 150.871 110.595 150.828 110.663 150.822C111.143 150.772 111.506 150.664 111.826 150.571C112.138 150.468 112.368 150.309 112.558 150.173C112.937 149.908 113.094 149.59 113.069 149.512C113.044 149.439 112.724 149.285 112.21 149.328C111.955 149.353 111.667 149.463 111.355 149.638C111.039 149.802 110.734 150.107 110.461 150.506C110.422 150.562 110.355 150.594 110.284 150.587C109.767 150.539 109.275 150.641 109.977 151.045C110.189 151.837 110.348 151.378 110.514 150.932Z" fill="black"/>
<path d="M105.945 164.283C105.893 164.241 105.869 164.173 105.884 164.109C105.973 163.655 106.054 163.268 106.036 162.944C106.022 162.62 105.955 162.351 105.89 162.129C105.741 161.689 105.476 161.448 105.393 161.449C105.314 161.45 105.071 161.704 104.962 162.19C104.898 162.434 104.899 162.733 104.982 163.074C105.069 163.413 105.195 163.801 105.512 164.184C105.554 164.239 105.564 164.311 105.535 164.373C105.324 164.825 105.189 165.32 105.853 164.818C106.657 164.918 106.331 164.589 105.945 164.283Z" fill="black"/>
<path d="M116.585 173.414C116.53 173.453 116.457 173.456 116.397 173.425C115.972 173.219 115.612 173.059 115.291 172.98C114.97 172.902 114.688 172.903 114.455 172.901C113.986 172.92 113.673 173.101 113.651 173.18C113.629 173.254 113.809 173.553 114.26 173.792C114.483 173.923 114.782 173.992 115.14 174.009C115.497 174.028 115.916 173.993 116.375 173.797C116.44 173.772 116.514 173.782 116.567 173.825C116.958 174.144 117.41 174.403 117.089 173.643C117.397 172.911 116.987 173.131 116.585 173.414Z" fill="black"/>
</g>
</svg>
