<svg width="260" height="388" viewBox="0 0 260 388" fill="none" xmlns="http://www.w3.org/2000/svg">
<rect width="260" height="388" fill="#ffffff"/>
<g opacity="0.25">
<path d="M145.509 120.432L145.456 120.452C145.457 120.443 145.457 120.435 145.458 120.425C145.454 120.303 145.391 120.182 145.313 120.192C145.235 120.202 145.182 120.337 145.196 120.457C145.202 120.513 145.221 120.555 145.246 120.585C145.095 120.526 144.89 120.527 144.662 120.556C144.45 120.603 144.22 120.686 144.045 120.801C143.874 120.922 143.769 121.043 143.716 121.159C143.693 121.205 143.651 121.243 143.602 121.259C143.468 121.297 143.337 121.383 143.24 121.515C143.103 121.691 143.106 121.931 143.208 122.101C143.409 122.423 143.83 122.442 144.094 122.232C144.159 122.177 144.208 122.109 144.24 122.033C144.258 121.987 144.3 121.959 144.349 121.958C144.467 121.953 144.593 121.91 144.733 121.811C144.872 121.719 145.011 121.606 145.13 121.469C145.253 121.353 145.357 121.205 145.422 121.076C145.423 121.113 145.436 121.157 145.465 121.206C145.528 121.312 145.624 121.404 145.669 121.378C145.714 121.353 145.701 121.217 145.648 121.109C145.643 121.101 145.64 121.095 145.635 121.088C145.65 121.085 145.664 121.083 145.679 121.079C145.869 121.027 146.014 120.869 145.996 120.68C145.98 120.502 145.755 120.366 145.509 120.432Z" fill="black"/>
<path d="M141.098 125.121L141.068 125.167C141.063 125.159 141.059 125.153 141.054 125.145C140.975 125.05 140.85 124.991 140.794 125.045C140.738 125.099 140.779 125.238 140.864 125.325C140.904 125.366 140.945 125.388 140.982 125.398C140.827 125.44 140.663 125.562 140.5 125.72C140.361 125.883 140.228 126.086 140.16 126.281C140.097 126.479 140.088 126.637 140.117 126.76C140.128 126.81 140.118 126.866 140.088 126.907C140.005 127.017 139.954 127.163 139.958 127.326C139.957 127.547 140.107 127.737 140.294 127.812C140.653 127.95 141 127.715 141.08 127.393C141.098 127.309 141.095 127.226 141.074 127.147C141.06 127.1 141.077 127.053 141.115 127.023C141.206 126.949 141.28 126.84 141.329 126.678C141.384 126.523 141.426 126.35 141.435 126.171C141.462 126.006 141.454 125.827 141.426 125.686C141.449 125.714 141.487 125.741 141.541 125.763C141.656 125.811 141.789 125.826 141.809 125.779C141.829 125.732 141.735 125.632 141.627 125.577C141.618 125.574 141.611 125.571 141.603 125.568C141.613 125.557 141.624 125.547 141.633 125.535C141.752 125.381 141.77 125.17 141.639 125.03C141.517 124.897 141.254 124.922 141.098 125.121Z" fill="black"/>
<path d="M139.155 125.351L139.116 125.39C139.112 125.382 139.11 125.375 139.106 125.366C139.048 125.257 138.938 125.174 138.872 125.216C138.806 125.257 138.817 125.402 138.883 125.504C138.913 125.552 138.949 125.582 138.984 125.599C138.822 125.609 138.636 125.696 138.444 125.818C138.273 125.95 138.102 126.122 137.994 126.298C137.891 126.48 137.85 126.633 137.853 126.76C137.852 126.811 137.831 126.863 137.794 126.898C137.689 126.989 137.609 127.122 137.578 127.281C137.531 127.498 137.639 127.714 137.806 127.824C138.129 128.031 138.518 127.871 138.664 127.571C138.698 127.493 138.712 127.411 138.709 127.33C138.705 127.281 138.731 127.238 138.775 127.216C138.879 127.162 138.974 127.07 139.057 126.922C139.143 126.781 139.219 126.62 139.265 126.446C139.326 126.29 139.356 126.113 139.358 125.969C139.375 126.002 139.406 126.035 139.454 126.068C139.557 126.137 139.684 126.179 139.713 126.138C139.743 126.096 139.672 125.979 139.577 125.903C139.569 125.898 139.563 125.894 139.555 125.89C139.568 125.881 139.58 125.873 139.591 125.863C139.74 125.736 139.802 125.533 139.703 125.37C139.611 125.215 139.348 125.188 139.155 125.351Z" fill="black"/>
<path d="M149.21 120.893L149.161 120.892C149.165 120.884 149.167 120.877 149.172 120.868C149.208 120.752 149.198 120.617 149.14 120.6C149.08 120.584 149.006 120.684 148.963 120.798C148.944 120.852 148.939 120.897 148.945 120.934C148.767 120.711 148.417 120.467 148.049 120.36C147.869 120.306 147.704 120.302 147.585 120.334C147.536 120.346 147.476 120.338 147.434 120.306C147.321 120.22 147.167 120.166 146.989 120.177C146.753 120.183 146.546 120.346 146.494 120.532C146.404 120.895 146.643 121.213 146.948 121.275C147.028 121.289 147.112 121.292 147.19 121.271C147.236 121.261 147.283 121.274 147.317 121.311C147.4 121.4 147.51 121.467 147.698 121.523C148.055 121.629 148.591 121.628 148.867 121.45C148.849 121.482 148.839 121.527 148.843 121.584C148.85 121.705 148.929 121.836 148.997 121.828C149.067 121.823 149.108 121.693 149.095 121.572C149.093 121.563 149.091 121.557 149.089 121.548L149.141 121.557C149.376 121.583 149.576 121.442 149.584 121.256C149.592 121.074 149.425 120.917 149.21 120.893Z" fill="black"/>
<path d="M152.509 120.238L152.471 120.267C152.469 120.258 152.467 120.251 152.464 120.242C152.421 120.127 152.33 120.029 152.275 120.045C152.22 120.062 152.217 120.194 152.255 120.309C152.272 120.363 152.297 120.402 152.325 120.428C152.033 120.36 151.611 120.394 151.298 120.48C151.141 120.533 151.025 120.584 150.947 120.67C150.916 120.705 150.868 120.717 150.823 120.701C150.704 120.659 150.579 120.667 150.445 120.71C150.267 120.778 150.118 120.94 150.074 121.133C149.986 121.498 150.299 121.823 150.717 121.78C150.82 121.765 150.914 121.731 150.993 121.682C151.039 121.654 151.098 121.648 151.15 121.662C151.276 121.696 151.445 121.71 151.652 121.643C152.069 121.527 152.484 121.18 152.582 120.883C152.589 120.92 152.609 120.962 152.647 121.005C152.729 121.096 152.862 121.153 152.919 121.109C152.975 121.064 152.925 120.933 152.84 120.847C152.833 120.841 152.827 120.836 152.821 120.831L152.867 120.806C153.073 120.682 153.141 120.451 153.029 120.3C152.92 120.153 152.689 120.129 152.509 120.238Z" fill="black"/>
<path d="M152.903 117.499L152.878 117.539C152.872 117.531 152.868 117.526 152.863 117.517C152.781 117.424 152.662 117.363 152.615 117.397C152.569 117.431 152.613 117.556 152.689 117.652C152.725 117.696 152.762 117.724 152.797 117.739C152.499 117.774 152.115 117.949 151.852 118.136C151.723 118.239 151.633 118.326 151.59 118.433C151.572 118.476 151.532 118.504 151.485 118.504C151.358 118.505 151.244 118.555 151.133 118.641C150.989 118.765 150.907 118.967 150.934 119.164C150.98 119.535 151.389 119.735 151.765 119.552C151.857 119.504 151.933 119.439 151.99 119.367C152.023 119.326 152.077 119.3 152.13 119.295C152.26 119.285 152.424 119.24 152.595 119.107C152.945 118.858 153.212 118.391 153.199 118.08C153.219 118.112 153.252 118.145 153.303 118.172C153.412 118.23 153.557 118.238 153.595 118.177C153.632 118.116 153.539 118.011 153.429 117.958C153.419 117.955 153.413 117.953 153.404 117.95L153.44 117.911C153.588 117.724 153.571 117.485 153.413 117.381C153.259 117.279 153.033 117.336 152.903 117.499Z" fill="black"/>
<path d="M155.032 117.874L155.008 117.914C155.002 117.908 154.998 117.902 154.991 117.894C154.905 117.809 154.778 117.754 154.734 117.793C154.69 117.832 154.744 117.954 154.827 118.044C154.867 118.085 154.906 118.11 154.942 118.122C154.649 118.182 154.269 118.398 154.027 118.643C153.895 118.77 153.825 118.892 153.796 119.007C153.784 119.053 153.749 119.091 153.703 119.105C153.577 119.142 153.465 119.223 153.381 119.341C153.269 119.507 153.251 119.726 153.338 119.906C153.498 120.246 153.944 120.312 154.239 120.053C154.31 119.988 154.363 119.911 154.397 119.831C154.417 119.783 154.461 119.748 154.512 119.737C154.635 119.708 154.766 119.633 154.907 119.496C155.194 119.208 155.41 118.739 155.372 118.429C155.394 118.46 155.429 118.49 155.482 118.513C155.596 118.562 155.74 118.56 155.771 118.497C155.802 118.434 155.705 118.338 155.589 118.292C155.58 118.29 155.573 118.288 155.564 118.286L155.599 118.246C155.726 118.047 155.696 117.811 155.533 117.719C155.369 117.628 155.145 117.697 155.032 117.874Z" fill="black"/>
<path d="M141.847 121.813L141.833 121.858C141.826 121.852 141.82 121.848 141.812 121.842C141.707 121.779 141.571 121.755 141.538 121.803C141.505 121.851 141.586 121.957 141.689 122.025C141.738 122.056 141.782 122.072 141.819 122.075C141.549 122.201 141.232 122.499 141.056 122.792C140.959 122.947 140.92 123.082 140.92 123.2C140.919 123.247 140.895 123.292 140.853 123.317C140.739 123.382 140.65 123.487 140.597 123.621C140.528 123.807 140.564 124.025 140.691 124.179C140.929 124.473 141.379 124.433 141.603 124.113C141.656 124.034 141.689 123.947 141.703 123.861C141.711 123.81 141.745 123.766 141.792 123.743C141.904 123.687 142.013 123.584 142.118 123.417C142.326 123.072 142.423 122.566 142.311 122.273C142.34 122.298 142.382 122.319 142.439 122.329C142.561 122.351 142.7 122.315 142.715 122.247C142.73 122.179 142.613 122.107 142.489 122.09C142.479 122.09 142.472 122.089 142.463 122.089L142.487 122.043C142.563 121.82 142.477 121.597 142.296 121.546C142.115 121.496 141.914 121.615 141.847 121.813Z" fill="black"/>
<path d="M156.105 114.678L156.107 114.725C156.098 114.722 156.092 114.719 156.082 114.716C155.962 114.685 155.826 114.701 155.81 114.758C155.792 114.813 155.901 114.892 156.02 114.927C156.075 114.943 156.122 114.945 156.159 114.937C155.939 115.136 155.727 115.518 155.646 115.843C155.602 116.008 155.607 116.141 155.635 116.25C155.647 116.295 155.636 116.343 155.602 116.376C155.516 116.464 155.444 116.574 155.43 116.715C155.408 116.905 155.483 117.107 155.644 117.236C155.93 117.476 156.376 117.354 156.521 116.976C156.559 116.884 156.573 116.789 156.563 116.698C156.558 116.645 156.579 116.592 156.619 116.557C156.718 116.471 156.795 116.334 156.848 116.135C156.948 115.741 156.884 115.232 156.688 114.986C156.723 115.001 156.769 115.009 156.827 115.002C156.951 114.988 157.075 114.915 157.069 114.845C157.061 114.776 156.926 114.741 156.804 114.76C156.795 114.763 156.788 114.764 156.779 114.767L156.786 114.716C156.799 114.482 156.648 114.294 156.457 114.295C156.271 114.297 156.117 114.468 156.105 114.678Z" fill="black"/>
<path d="M158.375 104.349L158.334 104.376C158.333 104.367 158.331 104.36 158.33 104.35C158.293 104.233 158.209 104.128 158.151 104.144C158.093 104.158 158.081 104.291 158.113 104.408C158.128 104.463 158.151 104.503 158.177 104.529C157.889 104.449 157.446 104.471 157.12 104.573C156.953 104.622 156.84 104.696 156.76 104.775C156.727 104.809 156.679 104.825 156.634 104.814C156.512 104.788 156.379 104.785 156.248 104.847C156.071 104.928 155.934 105.096 155.906 105.297C155.846 105.662 156.185 105.971 156.59 105.895C156.69 105.879 156.78 105.841 156.853 105.785C156.897 105.753 156.954 105.744 157.006 105.758C157.132 105.797 157.292 105.79 157.492 105.73C157.888 105.607 158.298 105.289 158.411 104.998C158.415 105.035 158.433 105.077 158.469 105.122C158.546 105.218 158.674 105.283 158.731 105.242C158.788 105.2 158.747 105.068 158.667 104.976C158.66 104.97 158.655 104.965 158.648 104.959L158.697 104.938C158.907 104.828 158.992 104.603 158.891 104.444C158.793 104.289 158.564 104.25 158.375 104.349Z" fill="black"/>
<path d="M155.788 111.119V111.172C155.779 111.169 155.772 111.167 155.763 111.163C155.644 111.13 155.506 111.15 155.489 111.223C155.477 111.296 155.594 111.385 155.715 111.41C155.772 111.422 155.819 111.418 155.855 111.405C155.636 111.641 155.55 112.17 155.627 112.55C155.663 112.741 155.731 112.873 155.812 112.957C155.845 112.992 155.859 113.042 155.846 113.087C155.809 113.212 155.812 113.329 155.863 113.465C155.936 113.645 156.11 113.786 156.309 113.821C156.684 113.889 157.001 113.574 156.948 113.176C156.932 113.078 156.898 112.982 156.846 112.912C156.816 112.87 156.809 112.816 156.826 112.767C156.87 112.648 156.878 112.508 156.845 112.328C156.776 111.98 156.588 111.613 156.387 111.402C156.423 111.413 156.47 111.415 156.526 111.404C156.648 111.38 156.763 111.316 156.75 111.262C156.742 111.21 156.608 111.18 156.485 111.196C156.476 111.199 156.469 111.2 156.46 111.202C156.463 111.187 156.467 111.173 156.468 111.158C156.477 110.958 156.357 110.773 156.174 110.74C155.987 110.706 155.8 110.874 155.788 111.119Z" fill="black"/>
<path d="M154.484 109.643L154.467 109.694C154.46 109.688 154.455 109.684 154.447 109.677C154.344 109.61 154.206 109.589 154.167 109.653C154.133 109.718 154.217 109.838 154.324 109.898C154.375 109.927 154.42 109.937 154.458 109.936C154.177 110.094 153.929 110.573 153.884 110.957C153.859 111.15 153.882 111.296 153.933 111.4C153.954 111.444 153.952 111.495 153.925 111.535C153.85 111.642 153.817 111.754 153.824 111.9C153.836 112.093 153.958 112.279 154.137 112.371C154.472 112.55 154.873 112.344 154.946 111.95C154.962 111.851 154.959 111.75 154.931 111.668C154.916 111.618 154.926 111.564 154.958 111.524C155.037 111.423 155.089 111.292 155.113 111.111C155.156 110.759 155.092 110.353 154.966 110.092C154.997 110.113 155.041 110.129 155.098 110.136C155.221 110.149 155.351 110.122 155.356 110.068C155.364 110.016 155.246 109.947 155.124 109.926C155.114 109.925 155.107 109.925 155.098 109.924C155.106 109.911 155.114 109.898 155.12 109.884C155.191 109.697 155.135 109.485 154.97 109.398C154.803 109.31 154.572 109.414 154.484 109.643Z" fill="black"/>
<path d="M157.468 107.767L157.436 107.808C157.431 107.8 157.428 107.794 157.423 107.785C157.351 107.686 157.233 107.615 157.178 107.657C157.124 107.7 157.155 107.836 157.229 107.933C157.264 107.979 157.302 108.006 157.337 108.021C157.023 108.051 156.598 108.343 156.372 108.689C156.259 108.865 156.203 109.011 156.21 109.145C156.212 109.198 156.189 109.252 156.147 109.286C156.034 109.376 155.94 109.51 155.917 109.683C155.873 109.911 155.975 110.131 156.156 110.232C156.487 110.408 156.874 110.248 156.998 109.967C157.032 109.893 157.052 109.818 157.05 109.74C157.05 109.694 157.076 109.652 157.117 109.63C157.211 109.576 157.32 109.493 157.411 109.35C157.592 109.072 157.742 108.658 157.738 108.363C157.757 108.395 157.791 108.427 157.841 108.456C157.949 108.516 158.084 108.538 158.115 108.486C158.145 108.435 158.062 108.326 157.956 108.264C157.947 108.26 157.941 108.257 157.933 108.253L157.968 108.22C158.109 108.059 158.139 107.839 158.004 107.706C157.874 107.578 157.623 107.592 157.468 107.767Z" fill="black"/>
<path d="M159.883 104.99L159.847 105.028C159.843 105.019 159.841 105.013 159.837 105.003C159.775 104.897 159.665 104.815 159.606 104.852C159.548 104.889 159.565 105.028 159.629 105.132C159.659 105.18 159.693 105.212 159.727 105.229C159.411 105.228 158.959 105.478 158.698 105.8C158.569 105.964 158.497 106.103 158.491 106.238C158.487 106.291 158.459 106.342 158.414 106.372C158.292 106.45 158.185 106.574 158.145 106.744C158.078 106.967 158.156 107.196 158.327 107.314C158.638 107.521 159.039 107.401 159.191 107.132C159.233 107.063 159.26 106.99 159.267 106.911C159.271 106.866 159.301 106.827 159.344 106.809C159.443 106.765 159.56 106.693 159.665 106.559C159.874 106.3 160.065 105.903 160.091 105.609C160.107 105.643 160.137 105.678 160.184 105.711C160.285 105.782 160.418 105.817 160.453 105.769C160.489 105.72 160.417 105.604 160.318 105.532C160.31 105.527 160.304 105.523 160.297 105.519L160.335 105.49C160.492 105.343 160.544 105.127 160.423 104.981C160.306 104.841 160.055 104.83 159.883 104.99Z" fill="black"/>
<path d="M147.494 122.292L147.439 122.291C147.443 122.283 147.446 122.276 147.451 122.267C147.49 122.151 147.472 122.016 147.398 121.998C147.329 121.983 147.239 122.093 147.21 122.211C147.197 122.266 147.199 122.312 147.209 122.348C146.989 122.135 146.519 122.003 146.138 122.036C145.944 122.05 145.803 122.107 145.706 122.181C145.666 122.212 145.613 122.224 145.564 122.209C145.434 122.17 145.28 122.178 145.13 122.247C144.926 122.34 144.795 122.551 144.819 122.748C144.878 123.113 145.196 123.338 145.497 123.286C145.576 123.272 145.647 123.238 145.711 123.194C145.749 123.167 145.797 123.164 145.839 123.184C145.94 123.237 146.069 123.257 146.24 123.245C146.577 123.216 146.982 123.065 147.194 122.868C147.182 122.903 147.178 122.949 147.187 123.005C147.206 123.125 147.265 123.242 147.318 123.232C147.365 123.224 147.397 123.093 147.388 122.973C147.386 122.964 147.385 122.957 147.384 122.948C147.397 122.951 147.41 122.955 147.425 122.956C147.477 122.959 147.497 122.957 147.538 122.945C147.589 122.938 147.637 122.923 147.679 122.9C147.764 122.856 147.824 122.783 147.843 122.692C147.862 122.602 147.837 122.512 147.783 122.439C147.756 122.403 147.721 122.371 147.681 122.346C147.63 122.32 147.549 122.295 147.494 122.292Z" fill="black"/>
<path d="M143.796 123.289L143.762 123.332C143.757 123.324 143.754 123.317 143.749 123.309C143.678 123.208 143.558 123.139 143.498 123.187C143.444 123.232 143.479 123.368 143.557 123.462C143.594 123.506 143.632 123.532 143.668 123.545C143.362 123.588 142.97 123.874 142.766 124.192C142.66 124.351 142.621 124.495 142.622 124.616C142.624 124.666 142.601 124.715 142.56 124.744C142.448 124.822 142.362 124.947 142.327 125.105C142.279 125.321 142.371 125.55 142.546 125.651C142.878 125.826 143.253 125.715 143.394 125.448C143.43 125.378 143.445 125.303 143.448 125.226C143.449 125.181 143.476 125.141 143.518 125.121C143.622 125.073 143.716 124.986 143.81 124.844C143.99 124.564 144.113 124.157 144.082 123.873C144.103 123.903 144.138 123.934 144.189 123.961C144.298 124.019 144.428 124.043 144.452 123.996C144.474 123.955 144.387 123.851 144.284 123.785C144.276 123.781 144.269 123.777 144.262 123.773C144.272 123.765 144.283 123.757 144.293 123.746C144.327 123.707 144.337 123.691 144.352 123.651C144.378 123.607 144.394 123.56 144.402 123.514C144.416 123.421 144.394 123.33 144.332 123.26C144.27 123.191 144.182 123.155 144.09 123.154C144.044 123.153 143.997 123.16 143.952 123.177C143.901 123.201 143.831 123.248 143.796 123.289Z" fill="black"/>
<path d="M150.868 122.473C150.853 122.476 150.838 122.481 150.823 122.485C150.825 122.476 150.826 122.469 150.827 122.459C150.833 122.338 150.791 122.209 150.734 122.207C150.677 122.202 150.622 122.32 150.613 122.441C150.608 122.497 150.616 122.542 150.631 122.576C150.397 122.399 149.987 122.284 149.654 122.28C149.484 122.275 149.357 122.309 149.259 122.37C149.219 122.395 149.171 122.393 149.131 122.369C149.026 122.303 148.901 122.273 148.761 122.298C148.573 122.325 148.402 122.459 148.325 122.646C148.181 122.987 148.412 123.362 148.792 123.395C148.886 123.403 148.977 123.391 149.058 123.361C149.105 123.343 149.159 123.354 149.201 123.38C149.304 123.446 149.448 123.488 149.644 123.493C150.032 123.498 150.494 123.325 150.69 123.094C150.683 123.131 150.685 123.176 150.703 123.23C150.741 123.346 150.834 123.453 150.898 123.433C150.962 123.41 150.968 123.274 150.927 123.16C150.923 123.152 150.919 123.146 150.916 123.138L150.965 123.134C151.189 123.099 151.339 122.923 151.302 122.742C151.265 122.562 151.07 122.441 150.868 122.473Z" fill="black"/>
<path d="M139.548 122.354C139.542 122.368 139.538 122.383 139.534 122.397C139.526 122.391 139.521 122.387 139.513 122.38C139.412 122.31 139.279 122.275 139.246 122.321C139.211 122.365 139.283 122.474 139.382 122.547C139.428 122.581 139.471 122.599 139.508 122.605C139.23 122.702 138.91 122.978 138.726 123.251C138.631 123.388 138.591 123.511 138.59 123.625C138.591 123.671 138.562 123.71 138.52 123.73C138.407 123.781 138.314 123.869 138.26 123.997C138.181 124.166 138.204 124.38 138.323 124.544C138.538 124.847 138.985 124.859 139.219 124.564C139.277 124.491 139.315 124.409 139.333 124.326C139.344 124.277 139.382 124.239 139.427 124.218C139.539 124.169 139.653 124.073 139.763 123.915C139.977 123.597 140.077 123.122 139.985 122.836C140.012 122.862 140.053 122.885 140.109 122.899C140.229 122.93 140.371 122.911 140.388 122.847C140.404 122.783 140.29 122.704 140.17 122.677C140.16 122.676 140.154 122.675 140.145 122.674L140.168 122.631C140.258 122.428 140.189 122.209 140.013 122.142C139.838 122.075 139.629 122.17 139.548 122.354Z" fill="black"/>
<path d="M153.969 121.336C153.956 121.344 153.944 121.354 153.932 121.364C153.93 121.355 153.928 121.348 153.925 121.339C153.88 121.226 153.787 121.126 153.733 121.146C153.679 121.165 153.682 121.299 153.724 121.413C153.744 121.467 153.77 121.505 153.798 121.529C153.507 121.456 153.088 121.525 152.783 121.652C152.631 121.726 152.526 121.796 152.462 121.89C152.435 121.927 152.392 121.948 152.346 121.942C152.226 121.93 152.099 121.948 151.981 122.021C151.823 122.122 151.723 122.318 151.726 122.513C151.732 122.889 152.094 123.133 152.461 123.017C152.553 122.992 152.63 122.94 152.691 122.878C152.728 122.842 152.78 122.826 152.83 122.835C152.952 122.855 153.107 122.847 153.284 122.762C153.643 122.612 153.986 122.259 154.071 121.977C154.079 122.013 154.1 122.055 154.139 122.096C154.222 122.185 154.35 122.241 154.399 122.196C154.448 122.151 154.397 122.025 154.311 121.938C154.304 121.932 154.298 121.927 154.291 121.922L154.336 121.899C154.527 121.783 154.589 121.559 154.478 121.407C154.37 121.259 154.144 121.23 153.969 121.336Z" fill="black"/>
<path d="M156.406 119.103C156.397 119.116 156.39 119.129 156.382 119.143C156.377 119.135 156.372 119.13 156.366 119.122C156.282 119.033 156.159 118.973 156.117 119.011C156.076 119.05 156.122 119.17 156.204 119.261C156.242 119.303 156.28 119.329 156.316 119.343C156.167 119.36 156 119.423 155.846 119.513C155.684 119.598 155.53 119.706 155.417 119.828C155.297 119.947 155.228 120.057 155.204 120.168C155.194 120.213 155.162 120.25 155.118 120.262C155.001 120.298 154.888 120.363 154.809 120.477C154.7 120.631 154.689 120.853 154.774 121.031C154.933 121.373 155.36 121.45 155.649 121.208C155.723 121.15 155.773 121.075 155.804 120.995C155.823 120.948 155.864 120.914 155.914 120.904C156.033 120.878 156.167 120.811 156.303 120.674C156.434 120.536 156.553 120.36 156.634 120.181C156.708 119.995 156.748 119.81 156.736 119.663C156.757 119.694 156.791 119.724 156.844 119.749C156.954 119.803 157.099 119.814 157.126 119.753C157.155 119.693 157.06 119.593 156.948 119.543C156.938 119.54 156.932 119.538 156.924 119.535L156.956 119.498C157.087 119.318 157.064 119.09 156.907 118.989C156.749 118.888 156.525 118.939 156.406 119.103Z" fill="black"/>
<path d="M157.768 116.144C157.764 116.159 157.763 116.174 157.761 116.189C157.753 116.184 157.747 116.181 157.738 116.176C157.625 116.129 157.486 116.123 157.461 116.174C157.436 116.224 157.533 116.316 157.646 116.367C157.698 116.391 157.744 116.399 157.782 116.398C157.534 116.551 157.281 116.888 157.158 117.19C157.102 117.346 157.085 117.471 157.105 117.58C157.113 117.625 157.097 117.67 157.061 117.697C156.966 117.772 156.893 117.875 156.861 118.008C156.821 118.189 156.894 118.397 157.038 118.532C157.315 118.792 157.745 118.71 157.921 118.375C157.968 118.294 157.981 118.202 157.982 118.117C157.981 118.066 158.007 118.019 158.049 117.99C158.153 117.921 158.249 117.805 158.315 117.623C158.459 117.269 158.454 116.783 158.298 116.523C158.331 116.542 158.375 116.556 158.433 116.558C158.557 116.564 158.689 116.514 158.692 116.448C158.695 116.383 158.569 116.33 158.444 116.328C158.434 116.329 158.427 116.33 158.418 116.331L158.434 116.284C158.48 116.068 158.357 115.867 158.172 115.838C157.985 115.809 157.809 115.947 157.768 116.144Z" fill="black"/>
<path d="M157.822 112.879C157.824 112.894 157.829 112.909 157.833 112.923C157.824 112.922 157.817 112.921 157.806 112.92C157.683 112.917 157.552 112.962 157.549 113.018C157.545 113.076 157.67 113.126 157.794 113.133C157.852 113.135 157.898 113.126 157.932 113.111C157.76 113.345 157.656 113.757 157.667 114.085C157.678 114.252 157.709 114.375 157.775 114.469C157.801 114.506 157.805 114.554 157.783 114.594C157.728 114.7 157.695 114.824 157.726 114.959C157.77 115.142 157.911 115.303 158.104 115.369C158.46 115.495 158.829 115.251 158.846 114.876C158.852 114.784 158.837 114.696 158.798 114.618C158.777 114.572 158.781 114.519 158.808 114.477C158.871 114.374 158.917 114.231 158.904 114.04C158.892 113.662 158.701 113.221 158.458 113.037C158.496 113.044 158.543 113.041 158.597 113.022C158.714 112.981 158.817 112.888 158.796 112.827C158.774 112.765 158.636 112.762 158.52 112.806C158.511 112.81 158.505 112.813 158.497 112.817L158.494 112.768C158.463 112.579 158.303 112.437 158.113 112.444C157.926 112.451 157.784 112.652 157.822 112.879Z" fill="black"/>
<path d="M158.184 109.339L158.171 109.388C158.164 109.383 158.158 109.378 158.15 109.372C158.045 109.306 157.909 109.283 157.874 109.344C157.839 109.406 157.921 109.521 158.028 109.58C158.078 109.608 158.124 109.619 158.162 109.619C157.894 109.767 157.635 110.2 157.582 110.577C157.553 110.768 157.576 110.914 157.63 111.024C157.652 111.068 157.65 111.121 157.625 111.164C157.56 111.278 157.527 111.421 157.561 111.572C157.602 111.778 157.768 111.941 157.965 111.985C158.336 112.062 158.66 111.801 158.678 111.48C158.684 111.399 158.669 111.32 158.637 111.248C158.618 111.206 158.628 111.159 158.658 111.123C158.731 111.037 158.783 110.918 158.808 110.755C158.853 110.432 158.805 110.033 158.669 109.777C158.7 109.798 158.744 109.814 158.801 109.821C158.924 109.837 159.056 109.815 159.061 109.763C159.067 109.712 158.947 109.644 158.827 109.622C158.817 109.621 158.81 109.62 158.802 109.62C158.808 109.607 158.815 109.594 158.82 109.58C158.892 109.407 158.825 109.201 158.665 109.113C158.497 109.021 158.274 109.122 158.184 109.339Z" fill="black"/>
<path d="M150.283 124.432L150.233 124.435C150.236 124.426 150.239 124.419 150.242 124.41C150.271 124.292 150.251 124.158 150.192 124.145C150.134 124.134 150.054 124.242 150.02 124.357C150.005 124.411 150.004 124.457 150.013 124.493C149.917 124.388 149.777 124.292 149.622 124.217C149.546 124.175 149.466 124.132 149.385 124.099C149.342 124.083 149.302 124.068 149.263 124.054L149.201 124.035C149.153 124.024 149.106 124.014 149.06 124.004C149.013 124.002 148.969 124.001 148.925 123.999C148.738 123.995 148.595 124.025 148.488 124.082C148.444 124.106 148.39 124.107 148.347 124.083C148.23 124.019 148.091 123.989 147.941 124.012C147.737 124.042 147.56 124.177 147.48 124.361C147.323 124.703 147.589 125.078 147.996 125.111C148.096 125.12 148.193 125.107 148.278 125.076C148.329 125.058 148.386 125.065 148.431 125.093C148.539 125.162 148.689 125.207 148.897 125.212C148.935 125.213 148.937 125.212 148.941 125.211L148.942 125.208C148.949 125.209 148.906 125.201 148.936 125.205L149.013 125.212C149.063 125.214 149.115 125.216 149.17 125.218C149.275 125.218 149.379 125.215 149.479 125.199C149.679 125.16 149.855 125.096 149.974 125.013C149.959 125.047 149.952 125.092 149.96 125.149C149.978 125.272 150.058 125.392 150.132 125.38C150.205 125.37 150.238 125.237 150.215 125.118C150.212 125.109 150.21 125.102 150.207 125.094L150.261 125.099C150.508 125.108 150.701 124.956 150.693 124.767C150.685 124.587 150.501 124.439 150.283 124.432Z" fill="black"/>
<path d="M153.754 123.655L153.711 123.681C153.71 123.672 153.709 123.665 153.707 123.655C153.677 123.537 153.596 123.428 153.536 123.444C153.475 123.457 153.454 123.589 153.48 123.708C153.493 123.763 153.514 123.804 153.54 123.832C153.247 123.739 152.787 123.766 152.444 123.865C152.269 123.913 152.149 123.988 152.067 124.074C152.033 124.107 151.982 124.122 151.935 124.11C151.808 124.076 151.671 124.091 151.535 124.15C151.351 124.224 151.212 124.404 151.184 124.604C151.126 124.973 151.474 125.265 151.887 125.194C151.988 125.173 152.079 125.134 152.155 125.081C152.2 125.05 152.258 125.041 152.311 125.057C152.438 125.091 152.6 125.083 152.804 125.026C153.207 124.909 153.626 124.592 153.756 124.308C153.759 124.345 153.775 124.388 153.81 124.434C153.884 124.532 154.01 124.603 154.07 124.564C154.128 124.523 154.094 124.39 154.018 124.295C154.011 124.288 154.006 124.283 154 124.277L154.049 124.257C154.266 124.151 154.368 123.933 154.278 123.771C154.188 123.609 153.953 123.557 153.754 123.655Z" fill="black"/>
<path d="M159.324 121.511L159.303 121.556C159.297 121.549 159.292 121.544 159.285 121.536C159.192 121.456 159.061 121.412 159.022 121.459C158.979 121.503 159.039 121.624 159.129 121.707C159.171 121.745 159.213 121.767 159.25 121.775C158.955 121.863 158.593 122.141 158.369 122.414C158.252 122.551 158.198 122.679 158.179 122.796C158.171 122.842 158.138 122.882 158.092 122.899C157.968 122.942 157.864 123.03 157.787 123.154C157.678 123.319 157.669 123.543 157.762 123.724C157.929 124.06 158.385 124.106 158.683 123.817C158.753 123.743 158.805 123.66 158.838 123.575C158.856 123.524 158.899 123.484 158.952 123.468C159.076 123.425 159.204 123.328 159.339 123.168C159.603 122.846 159.762 122.353 159.704 122.046C159.729 122.075 159.767 122.102 159.822 122.12C159.94 122.16 160.085 122.147 160.111 122.082C160.135 122.016 160.03 121.925 159.912 121.889C159.902 121.888 159.896 121.887 159.887 121.885L159.916 121.841C160.032 121.633 159.99 121.397 159.822 121.313C159.653 121.23 159.43 121.318 159.324 121.511Z" fill="black"/>
<path d="M156.722 121.596L156.688 121.634C156.685 121.626 156.681 121.619 156.677 121.61C156.611 121.507 156.499 121.428 156.446 121.462C156.393 121.497 156.416 121.632 156.478 121.735C156.508 121.783 156.542 121.815 156.575 121.833C156.263 121.835 155.832 122.018 155.54 122.239C155.394 122.355 155.3 122.459 155.255 122.572C155.236 122.617 155.196 122.652 155.147 122.66C155.019 122.686 154.888 122.741 154.785 122.852C154.646 123.004 154.592 123.224 154.65 123.413C154.759 123.773 155.195 123.898 155.533 123.676C155.618 123.623 155.684 123.554 155.73 123.475C155.758 123.429 155.807 123.399 155.86 123.393C155.987 123.377 156.14 123.324 156.301 123.197C156.625 122.951 156.901 122.523 156.935 122.217C156.95 122.251 156.98 122.287 157.027 122.32C157.13 122.391 157.27 122.419 157.311 122.362C157.352 122.307 157.278 122.192 157.175 122.124C157.167 122.119 157.16 122.116 157.152 122.112L157.193 122.079C157.365 121.915 157.394 121.679 157.26 121.55C157.125 121.421 156.884 121.442 156.722 121.596Z" fill="black"/>
<path d="M158.898 118.773L158.882 118.819C158.875 118.813 158.869 118.808 158.862 118.802C158.762 118.729 158.629 118.695 158.593 118.743C158.558 118.792 158.628 118.907 158.723 118.982C158.769 119.017 158.811 119.036 158.849 119.042C158.558 119.147 158.224 119.446 158.012 119.732C157.908 119.88 157.86 120.012 157.845 120.128C157.841 120.176 157.811 120.219 157.767 120.24C157.65 120.298 157.548 120.393 157.477 120.526C157.384 120.707 157.399 120.936 157.51 121.101C157.72 121.416 158.17 121.411 158.433 121.108C158.499 121.034 158.539 120.945 158.563 120.858C158.577 120.806 158.616 120.763 158.666 120.743C158.789 120.696 158.91 120.593 159.031 120.423C159.275 120.091 159.4 119.58 159.323 119.279C159.349 119.306 159.389 119.33 159.446 119.344C159.567 119.375 159.711 119.351 159.729 119.281C159.748 119.212 159.637 119.131 159.516 119.104C159.506 119.103 159.499 119.103 159.49 119.102L159.516 119.055C159.623 118.839 159.551 118.603 159.375 118.536C159.2 118.469 158.995 118.579 158.898 118.773Z" fill="black"/>
<path d="M159.711 115.321L159.711 115.372C159.703 115.368 159.696 115.365 159.687 115.362C159.567 115.327 159.43 115.343 159.412 115.404C159.394 115.465 159.503 115.55 159.621 115.586C159.677 115.602 159.724 115.604 159.76 115.595C159.532 115.803 159.343 116.229 159.278 116.582C159.25 116.764 159.259 116.903 159.3 117.014C159.317 117.059 159.31 117.111 159.28 117.149C159.202 117.252 159.144 117.376 159.144 117.525C159.147 117.727 159.244 117.921 159.42 118.028C159.739 118.231 160.163 118.043 160.261 117.65C160.288 117.553 160.291 117.457 160.271 117.368C160.26 117.316 160.275 117.261 160.311 117.221C160.398 117.125 160.468 116.983 160.5 116.782C160.572 116.385 160.478 115.891 160.29 115.642C160.325 115.658 160.371 115.665 160.429 115.658C160.552 115.643 160.676 115.572 160.67 115.505C160.664 115.437 160.53 115.4 160.407 115.417C160.398 115.419 160.391 115.421 160.382 115.423C160.386 115.406 160.389 115.39 160.39 115.372C160.406 115.141 160.266 114.945 160.078 114.935C159.89 114.925 159.726 115.098 159.711 115.321Z" fill="black"/>
<path d="M159.413 111.74C159.415 111.758 159.421 111.774 159.425 111.791C159.415 111.789 159.408 111.788 159.398 111.786C159.274 111.778 159.144 111.824 159.142 111.891C159.14 111.958 159.268 112.02 159.392 112.027C159.45 112.03 159.495 112.02 159.529 112.003C159.359 112.263 159.296 112.746 159.357 113.116C159.388 113.304 159.447 113.437 159.526 113.529C159.558 113.567 159.569 113.618 159.554 113.665C159.512 113.788 159.511 113.928 159.558 114.055C159.592 114.152 159.644 114.193 159.714 114.274C159.783 114.349 159.871 114.406 159.969 114.433C160.152 114.485 160.329 114.442 160.462 114.336C160.53 114.29 160.583 114.208 160.618 114.103C160.649 114.01 160.664 113.903 160.652 113.805C160.641 113.703 160.609 113.612 160.561 113.536C160.533 113.491 160.529 113.434 160.548 113.386C160.596 113.269 160.612 113.117 160.58 112.924C160.517 112.542 160.296 112.114 160.054 111.921C160.092 111.928 160.139 111.923 160.193 111.903C160.309 111.86 160.412 111.766 160.39 111.706C160.368 111.646 160.23 111.64 160.114 111.682C160.105 111.686 160.099 111.689 160.091 111.693L160.087 111.643C160.054 111.423 159.883 111.264 159.695 111.283C159.508 111.301 159.378 111.51 159.413 111.74Z" fill="black"/>
<path d="M143.674 118.807C143.67 118.821 143.668 118.835 143.666 118.849C143.658 118.844 143.652 118.839 143.644 118.834C143.534 118.774 143.404 118.75 143.374 118.789C143.342 118.827 143.424 118.926 143.526 118.995C143.573 119.026 143.617 119.043 143.654 119.048C143.395 119.153 143.062 119.378 142.864 119.628C142.755 119.752 142.697 119.867 142.682 119.98C142.675 120.025 142.646 120.064 142.603 120.079C142.48 120.115 142.373 120.191 142.298 120.312C142.202 120.479 142.187 120.693 142.283 120.87C142.457 121.199 142.9 121.266 143.178 120.995C143.247 120.93 143.298 120.853 143.33 120.773C143.347 120.724 143.387 120.685 143.437 120.67C143.558 120.631 143.69 120.549 143.824 120.394C144.081 120.077 144.248 119.569 144.139 119.262C144.167 119.288 144.208 119.31 144.265 119.321C144.387 119.346 144.531 119.308 144.551 119.236C144.569 119.162 144.445 119.088 144.324 119.075H144.298L144.319 119.025C144.403 118.789 144.285 118.566 144.097 118.538C143.913 118.511 143.737 118.634 143.674 118.807Z" fill="black"/>
<path d="M143.437 115.49L143.445 115.539C143.435 115.537 143.428 115.535 143.419 115.532C143.296 115.515 143.162 115.549 143.154 115.614C143.144 115.679 143.268 115.747 143.391 115.762C143.448 115.769 143.495 115.763 143.53 115.749C143.332 115.969 143.249 116.487 143.331 116.853C143.37 117.041 143.434 117.16 143.518 117.244C143.552 117.279 143.566 117.327 143.552 117.37C143.516 117.488 143.52 117.616 143.571 117.735C143.646 117.898 143.803 118.023 144.008 118.071C144.193 118.111 144.37 118.068 144.491 117.948C144.618 117.827 144.683 117.637 144.654 117.441C144.639 117.343 144.6 117.26 144.55 117.188C144.521 117.145 144.514 117.091 144.531 117.046C144.573 116.933 144.581 116.786 144.545 116.614C144.47 116.274 144.283 115.921 144.06 115.708C144.097 115.717 144.144 115.716 144.2 115.701C144.319 115.668 144.428 115.588 144.413 115.531C144.397 115.474 144.26 115.458 144.14 115.489C144.131 115.492 144.125 115.494 144.116 115.498L144.118 115.451C144.103 115.241 143.949 115.076 143.761 115.08C143.573 115.083 143.422 115.268 143.437 115.49Z" fill="black"/>
<path d="M143.96 111.916L143.944 111.965C143.937 111.959 143.932 111.954 143.924 111.948C143.822 111.878 143.687 111.85 143.649 111.909C143.611 111.968 143.687 112.085 143.791 112.15C143.84 112.181 143.885 112.194 143.923 112.196C143.651 112.334 143.354 112.758 143.287 113.149C143.243 113.345 143.269 113.498 143.314 113.613C143.333 113.659 143.33 113.714 143.305 113.758C143.237 113.874 143.198 114.022 143.228 114.177C143.268 114.39 143.424 114.559 143.624 114.607C143.992 114.694 144.322 114.43 144.349 114.106C144.357 114.024 144.344 113.945 144.313 113.871C144.295 113.827 144.306 113.78 144.338 113.745C144.419 113.662 144.465 113.542 144.503 113.38C144.557 113.057 144.546 112.649 144.421 112.378C144.451 112.401 144.494 112.419 144.551 112.429C144.673 112.45 144.808 112.43 144.817 112.375C144.827 112.321 144.711 112.248 144.591 112.222C144.581 112.221 144.574 112.22 144.565 112.219C144.573 112.206 144.581 112.194 144.587 112.179C144.663 111.993 144.613 111.783 144.444 111.695C144.281 111.609 144.049 111.702 143.96 111.916Z" fill="black"/>
<path d="M146.342 111.459L146.316 111.504C146.31 111.497 146.306 111.491 146.3 111.483C146.215 111.394 146.088 111.34 146.039 111.39C145.989 111.439 146.039 111.57 146.127 111.654C146.169 111.694 146.21 111.716 146.247 111.725C145.952 111.805 145.572 112.161 145.425 112.531C145.34 112.713 145.334 112.868 145.354 112.989C145.363 113.039 145.348 113.092 145.314 113.129C145.223 113.229 145.154 113.367 145.152 113.525C145.146 113.741 145.263 113.937 145.449 114.025C145.791 114.184 146.169 113.993 146.263 113.681C146.288 113.602 146.292 113.521 146.278 113.443C146.269 113.397 146.289 113.352 146.328 113.325C146.425 113.26 146.496 113.152 146.566 113.001C146.687 112.696 146.762 112.294 146.696 112.004C146.72 112.032 146.759 112.059 146.812 112.08C146.928 112.124 147.064 112.132 147.085 112.081C147.106 112.03 147.007 111.935 146.895 111.886C146.886 111.883 146.879 111.881 146.871 111.878C146.881 111.866 146.891 111.856 146.9 111.843C147.013 111.676 147.009 111.46 146.862 111.34C146.72 111.224 146.474 111.267 146.342 111.459Z" fill="black"/>
<path d="M146.335 109.138C146.321 109.149 146.309 109.161 146.297 109.172C146.294 109.163 146.292 109.157 146.288 109.147C146.237 109.036 146.136 108.944 146.075 108.975C146.014 109.005 146.02 109.145 146.074 109.254C146.099 109.305 146.131 109.339 146.162 109.36C145.851 109.329 145.394 109.533 145.11 109.802C144.969 109.947 144.893 110.084 144.865 110.204C144.852 110.252 144.822 110.3 144.775 110.322C144.651 110.385 144.532 110.488 144.469 110.639C144.385 110.847 144.419 111.071 144.567 111.216C144.838 111.474 145.256 111.423 145.449 111.176C145.501 111.114 145.533 111.042 145.549 110.965C145.559 110.921 145.591 110.884 145.638 110.875C145.752 110.85 145.864 110.786 145.981 110.666C146.227 110.433 146.442 110.057 146.489 109.771C146.502 109.806 146.529 109.844 146.572 109.881C146.665 109.961 146.792 110.009 146.83 109.965C146.868 109.922 146.807 109.8 146.717 109.718C146.709 109.712 146.703 109.708 146.696 109.703L146.736 109.678C146.909 109.562 146.966 109.342 146.864 109.186C146.763 109.031 146.525 109.009 146.335 109.138Z" fill="black"/>
<path d="M149.759 107.776L149.708 107.787C149.71 107.778 149.711 107.771 149.713 107.761C149.723 107.64 149.68 107.511 149.61 107.51C149.54 107.508 149.475 107.633 149.469 107.754C149.467 107.811 149.478 107.855 149.495 107.889C149.236 107.718 148.72 107.685 148.338 107.815C148.143 107.877 148.015 107.967 147.938 108.067C147.906 108.107 147.856 108.132 147.804 108.13C147.663 108.125 147.518 108.176 147.39 108.275C147.22 108.416 147.151 108.638 147.208 108.828C147.322 109.185 147.716 109.326 148.013 109.192C148.089 109.158 148.15 109.103 148.202 109.045C148.232 109.01 148.279 108.995 148.325 109.005C148.437 109.027 148.568 109.017 148.729 108.966C149.044 108.859 149.403 108.635 149.582 108.403C149.577 108.439 149.582 108.485 149.602 108.538C149.645 108.652 149.73 108.754 149.784 108.734C149.837 108.714 149.843 108.578 149.805 108.464C149.801 108.455 149.799 108.449 149.795 108.441L149.841 108.438C150.047 108.421 150.206 108.254 150.198 108.073C150.189 107.886 149.992 107.755 149.759 107.776Z" fill="black"/>
<path d="M146.275 123.972L146.231 124C146.23 123.991 146.229 123.984 146.227 123.974C146.193 123.857 146.106 123.751 146.04 123.774C145.974 123.796 145.958 123.935 145.996 124.051C146.014 124.105 146.04 124.143 146.068 124.168C145.765 124.097 145.269 124.243 144.958 124.496C144.797 124.621 144.71 124.749 144.674 124.869C144.658 124.918 144.62 124.958 144.57 124.974C144.437 125.018 144.319 125.116 144.235 125.252C144.126 125.443 144.141 125.675 144.262 125.833C144.496 126.128 144.916 126.124 145.146 125.897C145.205 125.84 145.242 125.767 145.27 125.695C145.286 125.652 145.325 125.622 145.372 125.615C145.484 125.597 145.603 125.543 145.736 125.44C145.993 125.231 146.248 124.898 146.333 124.62C146.342 124.655 146.363 124.697 146.4 124.739C146.481 124.831 146.598 124.898 146.641 124.861C146.684 124.824 146.641 124.694 146.564 124.6C146.558 124.594 146.553 124.589 146.547 124.583L146.589 124.564C146.775 124.477 146.865 124.266 146.792 124.099C146.717 123.927 146.486 123.872 146.275 123.972Z" fill="black"/>
<path d="M153.328 108.013L153.283 108.019C153.285 108.011 153.287 108.004 153.289 107.995C153.308 107.875 153.281 107.744 153.228 107.73C153.175 107.717 153.109 107.831 153.083 107.949C153.071 108.005 153.072 108.05 153.082 108.086C152.875 107.881 152.509 107.7 152.156 107.633C151.977 107.601 151.829 107.613 151.712 107.657C151.666 107.675 151.611 107.67 151.566 107.643C151.449 107.567 151.296 107.529 151.132 107.554C150.908 107.58 150.73 107.744 150.681 107.934C150.593 108.298 150.855 108.616 151.173 108.652C151.255 108.658 151.334 108.653 151.409 108.626C151.453 108.61 151.502 108.621 151.538 108.655C151.624 108.733 151.748 108.793 151.938 108.827C152.309 108.899 152.834 108.813 153.07 108.607C153.057 108.642 153.052 108.688 153.063 108.744C153.086 108.863 153.172 108.978 153.244 108.966C153.316 108.956 153.339 108.82 153.309 108.703C153.305 108.694 153.303 108.687 153.3 108.679C153.317 108.681 153.334 108.681 153.353 108.68C153.594 108.668 153.766 108.498 153.738 108.312C153.71 108.134 153.527 108.003 153.328 108.013Z" fill="black"/>
<path d="M156.388 106.776L156.351 106.807C156.348 106.798 156.346 106.791 156.342 106.782C156.29 106.672 156.191 106.578 156.136 106.602C156.081 106.625 156.089 106.759 156.139 106.87C156.162 106.922 156.191 106.958 156.221 106.981C155.926 106.94 155.496 107.041 155.2 107.191C155.049 107.269 154.955 107.363 154.894 107.452C154.87 107.49 154.827 107.513 154.782 107.509C154.66 107.503 154.537 107.531 154.424 107.603C154.273 107.712 154.175 107.897 154.177 108.096C154.173 108.47 154.553 108.721 154.942 108.582C155.038 108.551 155.113 108.49 155.176 108.426C155.212 108.388 155.266 108.369 155.319 108.375C155.45 108.392 155.6 108.356 155.78 108.263C156.138 108.081 156.463 107.707 156.524 107.409C156.535 107.445 156.559 107.484 156.601 107.523C156.69 107.607 156.823 107.654 156.87 107.607C156.917 107.56 156.858 107.438 156.766 107.356C156.759 107.35 156.753 107.346 156.746 107.341L156.789 107.316C156.979 107.189 157.02 106.951 156.906 106.809C156.788 106.661 156.563 106.66 156.388 106.776Z" fill="black"/>
<path d="M141.748 117.249L141.762 117.295C141.753 117.295 141.746 117.294 141.736 117.293C141.612 117.296 141.485 117.35 141.487 117.415C141.484 117.437 141.505 117.421 141.55 117.425C141.595 117.425 141.654 117.449 141.715 117.451C141.772 117.456 141.819 117.452 141.854 117.441C141.659 117.623 141.479 117.995 141.424 118.318C141.395 118.482 141.408 118.609 141.451 118.712C141.468 118.755 141.462 118.802 141.431 118.835C141.351 118.925 141.3 119.037 141.299 119.169C141.296 119.345 141.396 119.523 141.561 119.644C141.859 119.88 142.298 119.719 142.407 119.338C142.435 119.245 142.435 119.153 142.419 119.068C142.409 119.018 142.425 118.966 142.46 118.93C142.546 118.84 142.613 118.706 142.646 118.516C142.71 118.14 142.612 117.654 142.385 117.41C142.422 117.421 142.469 117.422 142.525 117.405C142.583 117.384 142.645 117.359 142.68 117.303C142.716 117.25 142.729 117.168 142.715 117.131C142.691 117.079 142.554 117.085 142.44 117.134C142.432 117.139 142.426 117.142 142.418 117.147L142.412 117.101C142.369 116.9 142.183 116.766 141.998 116.8C141.813 116.834 141.701 117.035 141.748 117.249Z" fill="black"/>
<path d="M141.509 113.74L141.508 113.789C141.5 113.785 141.493 113.782 141.484 113.778C141.366 113.742 141.228 113.753 141.209 113.816C141.19 113.879 141.298 113.967 141.416 114C141.472 114.015 141.518 114.016 141.556 114.007C141.332 114.207 141.164 114.662 141.178 115.039C141.177 115.231 141.234 115.369 141.302 115.468C141.331 115.508 141.339 115.561 141.321 115.607C141.268 115.731 141.269 115.875 141.324 116.019C141.397 116.215 141.581 116.351 141.787 116.364C142.164 116.388 142.446 116.078 142.412 115.754C142.401 115.672 142.374 115.596 142.333 115.529C142.309 115.49 142.309 115.441 142.333 115.401C142.394 115.303 142.415 115.176 142.416 115.007C142.404 114.676 142.28 114.272 142.086 114.048C142.121 114.061 142.167 114.068 142.225 114.061C142.348 114.048 142.471 113.99 142.465 113.934C142.459 113.877 142.326 113.84 142.203 113.851C142.194 113.852 142.187 113.854 142.178 113.855L142.187 113.81C142.204 113.609 142.082 113.424 141.897 113.395C141.71 113.365 141.528 113.519 141.509 113.74Z" fill="black"/>
<path d="M142.632 110.377L142.611 110.422C142.604 110.415 142.599 110.41 142.593 110.402C142.501 110.32 142.371 110.275 142.327 110.325C142.283 110.376 142.345 110.5 142.438 110.579C142.482 110.615 142.525 110.635 142.562 110.642C142.411 110.686 142.258 110.799 142.119 110.944C141.974 111.088 141.856 111.269 141.789 111.449C141.716 111.629 141.699 111.777 141.731 111.897C141.743 111.946 141.731 111.998 141.697 112.035C141.608 112.135 141.536 112.268 141.541 112.425C141.542 112.639 141.664 112.831 141.848 112.913C142.193 113.063 142.573 112.873 142.653 112.566C142.677 112.488 142.68 112.409 142.666 112.333C142.658 112.288 142.676 112.243 142.712 112.215C142.798 112.145 142.88 112.044 142.942 111.89C142.999 111.737 143.038 111.558 143.059 111.383C143.076 111.207 143.063 111.03 143.028 110.893C143.054 110.92 143.094 110.944 143.149 110.961C143.267 110.999 143.403 110.997 143.42 110.943C143.437 110.89 143.332 110.802 143.216 110.761C143.207 110.759 143.2 110.757 143.191 110.755C143.2 110.743 143.21 110.732 143.218 110.718C143.315 110.541 143.292 110.329 143.134 110.224C142.981 110.122 142.74 110.181 142.632 110.377Z" fill="black"/>
<path d="M159.872 107.626L159.867 107.676C159.859 107.671 159.852 107.668 159.843 107.663C159.729 107.614 159.591 107.612 159.567 107.674C159.542 107.736 159.641 107.834 159.756 107.878C159.809 107.899 159.856 107.904 159.894 107.899C159.765 107.988 159.658 108.144 159.574 108.326C159.485 108.507 159.433 108.717 159.429 108.908C159.42 109.102 159.452 109.247 159.523 109.351C159.55 109.393 159.556 109.446 159.536 109.492C159.485 109.614 159.46 109.763 159.518 109.91C159.589 110.112 159.768 110.255 159.969 110.275C160.346 110.307 160.642 110.007 160.615 109.69C160.613 109.609 160.59 109.534 160.551 109.466C160.528 109.426 160.531 109.378 160.556 109.34C160.614 109.247 160.658 109.125 160.666 108.96C160.669 108.796 160.646 108.614 160.609 108.443C160.567 108.271 160.496 108.107 160.418 107.989C160.451 108.006 160.497 108.016 160.555 108.015C160.679 108.013 160.806 107.968 160.805 107.912C160.804 107.856 160.675 107.807 160.552 107.804C160.542 107.805 160.535 107.806 160.527 107.807C160.531 107.792 160.536 107.779 160.539 107.763C160.572 107.565 160.481 107.371 160.296 107.322C160.118 107.274 159.91 107.406 159.872 107.626Z" fill="black"/>
<path d="M145.081 107.785L145.043 107.817C145.04 107.809 145.038 107.802 145.035 107.793C144.983 107.683 144.881 107.59 144.821 107.619C144.761 107.647 144.767 107.784 144.822 107.892C144.848 107.943 144.879 107.977 144.91 107.998C144.611 107.974 144.153 108.155 143.878 108.419C143.733 108.546 143.664 108.683 143.637 108.802C143.626 108.85 143.593 108.892 143.545 108.911C143.419 108.961 143.299 109.052 143.234 109.198C143.142 109.391 143.167 109.615 143.297 109.767C143.543 110.047 143.973 110.037 144.175 109.789C144.232 109.73 144.27 109.661 144.291 109.586C144.304 109.542 144.34 109.509 144.386 109.499C144.498 109.476 144.605 109.408 144.735 109.296C144.976 109.063 145.2 108.703 145.237 108.41C145.25 108.444 145.277 108.481 145.32 108.519C145.414 108.599 145.541 108.649 145.579 108.607C145.618 108.564 145.557 108.443 145.466 108.361C145.458 108.356 145.453 108.352 145.445 108.346L145.485 108.323C145.651 108.201 145.704 107.983 145.602 107.831C145.496 107.676 145.261 107.653 145.081 107.785Z" fill="black"/>
<path d="M148.323 106.251L148.276 106.269C148.277 106.26 148.277 106.253 148.277 106.243C148.27 106.121 148.21 105.999 148.143 106.006C148.077 106.012 148.033 106.143 148.043 106.264C148.048 106.32 148.064 106.363 148.086 106.394C147.813 106.255 147.319 106.268 146.964 106.421C146.782 106.494 146.665 106.587 146.599 106.691C146.571 106.733 146.525 106.761 146.474 106.761C146.339 106.764 146.195 106.809 146.082 106.918C145.924 107.063 145.864 107.28 145.928 107.468C146.05 107.817 146.454 107.964 146.74 107.805C146.815 107.769 146.876 107.717 146.923 107.653C146.951 107.616 146.997 107.598 147.043 107.605C147.156 107.618 147.287 107.602 147.445 107.539C147.753 107.406 148.091 107.145 148.237 106.894C148.237 106.93 148.248 106.975 148.274 107.026C148.331 107.133 148.43 107.224 148.481 107.197C148.532 107.17 148.52 107.035 148.466 106.926C148.461 106.918 148.457 106.913 148.453 106.905L148.498 106.897C148.698 106.844 148.831 106.668 148.792 106.485C148.753 106.307 148.542 106.194 148.323 106.251Z" fill="black"/>
<path d="M151.926 106.048L151.876 106.045C151.88 106.037 151.883 106.031 151.887 106.022C151.93 105.908 151.925 105.773 151.861 105.752C151.797 105.731 151.702 105.833 151.663 105.948C151.644 106.001 151.642 106.047 151.649 106.084C151.455 105.852 150.991 105.677 150.6 105.679C150.403 105.677 150.258 105.728 150.155 105.794C150.113 105.821 150.059 105.828 150.011 105.809C149.885 105.761 149.735 105.76 149.586 105.812C149.382 105.879 149.245 106.074 149.232 106.269C149.214 106.644 149.53 106.906 149.855 106.88C149.938 106.872 150.013 106.841 150.081 106.802C150.121 106.779 150.171 106.78 150.211 106.804C150.309 106.865 150.436 106.89 150.605 106.892C150.939 106.891 151.351 106.777 151.586 106.602C151.571 106.635 151.563 106.68 151.567 106.737C151.575 106.858 151.629 106.98 151.686 106.976C151.743 106.972 151.786 106.843 151.782 106.723C151.78 106.713 151.779 106.706 151.778 106.698C151.793 106.702 151.807 106.706 151.823 106.708C152.026 106.733 152.224 106.624 152.261 106.441C152.297 106.262 152.152 106.076 151.926 106.048Z" fill="black"/>
<path d="M155.135 105.768L155.091 105.789C155.091 105.78 155.09 105.773 155.089 105.763C155.068 105.643 154.996 105.528 154.935 105.538C154.873 105.549 154.846 105.681 154.867 105.8C154.877 105.856 154.897 105.898 154.92 105.927C154.645 105.811 154.183 105.834 153.869 105.934C153.791 105.959 153.726 105.988 153.688 106.015C153.658 106.032 153.669 106.038 153.664 106.053C153.662 106.068 153.627 106.083 153.613 106.101C153.582 106.129 153.54 106.134 153.505 106.115C153.41 106.06 153.306 106.038 153.18 106.061C153.009 106.091 152.829 106.219 152.748 106.402C152.596 106.739 152.796 107.124 153.228 107.159C153.333 107.167 153.437 107.147 153.526 107.11C153.578 107.086 153.639 107.088 153.691 107.11C153.726 107.122 153.747 107.137 153.804 107.141C153.857 107.146 153.932 107.144 153.969 107.141C154.066 107.136 154.154 107.119 154.251 107.088C154.624 106.968 154.981 106.68 155.111 106.413C155.113 106.45 155.127 106.494 155.158 106.542C155.224 106.645 155.336 106.724 155.389 106.692C155.442 106.659 155.416 106.526 155.35 106.423C155.344 106.416 155.34 106.411 155.334 106.404L155.381 106.391C155.583 106.314 155.69 106.113 155.623 105.941C155.556 105.769 155.336 105.691 155.135 105.768Z" fill="black"/>
<path d="M139.566 114.75L139.577 114.803C139.568 114.801 139.561 114.799 139.551 114.797C139.427 114.784 139.295 114.826 139.292 114.897C139.289 114.969 139.415 115.039 139.539 115.047C139.596 115.052 139.643 115.042 139.676 115.024C139.498 115.287 139.475 115.825 139.551 116.167C139.591 116.352 139.656 116.481 139.738 116.571C139.772 116.607 139.786 116.659 139.772 116.706C139.737 116.833 139.742 116.974 139.799 117.112C139.879 117.299 140.054 117.434 140.256 117.467C140.633 117.538 140.942 117.189 140.876 116.794C140.86 116.696 140.824 116.608 140.773 116.534C140.743 116.49 140.736 116.434 140.753 116.385C140.796 116.265 140.805 116.112 140.763 115.916C140.672 115.51 140.437 115.142 140.203 114.948C140.24 114.955 140.287 114.951 140.341 114.931C140.458 114.89 140.564 114.803 140.545 114.746C140.525 114.689 140.387 114.679 140.269 114.716C140.26 114.72 140.254 114.723 140.246 114.726L140.244 114.678C140.213 114.463 140.065 114.293 139.872 114.301C139.689 114.308 139.533 114.511 139.566 114.75Z" fill="black"/>
<path d="M140.134 110.967L140.119 111.019C140.111 111.012 140.106 111.008 140.098 111.001C139.995 110.932 139.86 110.907 139.822 110.968C139.786 111.029 139.863 111.149 139.967 111.215C140.016 111.246 140.061 111.259 140.099 111.259C139.814 111.405 139.52 111.843 139.432 112.251C139.378 112.454 139.4 112.618 139.442 112.74C139.46 112.789 139.456 112.847 139.426 112.893C139.345 113.014 139.32 113.173 139.34 113.34C139.365 113.567 139.536 113.75 139.73 113.801C140.103 113.891 140.421 113.616 140.462 113.279C140.47 113.192 140.454 113.108 140.432 113.03C140.418 112.984 140.43 112.934 140.463 112.898C140.546 112.81 140.594 112.685 140.641 112.512C140.715 112.171 140.707 111.722 140.598 111.441C140.627 111.465 140.67 111.483 140.727 111.492C140.85 111.51 140.986 111.483 140.996 111.423C141.006 111.363 140.89 111.289 140.768 111.267C140.759 111.267 140.752 111.266 140.743 111.265L140.765 111.221C140.849 111.02 140.793 110.797 140.622 110.716C140.454 110.637 140.227 110.746 140.134 110.967Z" fill="black"/>
<path d="M142.278 107.801L142.244 107.842C142.239 107.834 142.236 107.828 142.231 107.819C142.161 107.719 142.043 107.647 141.986 107.688C141.927 107.728 141.96 107.87 142.032 107.968C142.066 108.014 142.103 108.043 142.138 108.057C141.822 108.092 141.389 108.375 141.14 108.7C141.018 108.867 140.961 109.015 140.949 109.141C140.943 109.193 140.914 109.242 140.868 109.27C140.749 109.347 140.65 109.471 140.595 109.628C140.517 109.839 140.584 110.076 140.733 110.209C141.022 110.457 141.435 110.354 141.629 110.061C141.677 109.985 141.704 109.902 141.715 109.819C141.722 109.771 141.756 109.73 141.802 109.711C141.916 109.663 142.025 109.573 142.134 109.424C142.355 109.136 142.532 108.71 142.533 108.406C142.552 108.438 142.585 108.471 142.635 108.499C142.743 108.561 142.876 108.579 142.912 108.528C142.947 108.475 142.866 108.366 142.76 108.302C142.751 108.298 142.744 108.296 142.736 108.292L142.775 108.259C142.932 108.099 142.952 107.863 142.82 107.731C142.687 107.6 142.445 107.632 142.278 107.801Z" fill="black"/>
<path d="M139.84 118.704L139.849 118.756C139.84 118.754 139.833 118.752 139.823 118.75C139.7 118.734 139.566 118.774 139.56 118.843C139.551 118.912 139.681 118.982 139.804 118.994C139.862 119.001 139.908 118.992 139.942 118.976C139.758 119.23 139.687 119.736 139.769 120.134C139.815 120.334 139.89 120.474 139.978 120.567C140.014 120.605 140.032 120.659 140.023 120.712C140.003 120.85 140.031 121.005 140.115 121.149C140.223 121.347 140.449 121.455 140.65 121.434C141.031 121.389 141.226 121.018 141.132 120.681C141.107 120.595 141.061 120.521 141.005 120.458C140.973 120.42 140.964 120.368 140.98 120.321C141.019 120.207 141.023 120.067 140.982 119.888C140.91 119.535 140.702 119.122 140.471 118.919C140.508 118.926 140.555 118.924 140.61 118.906C140.728 118.868 140.831 118.783 140.816 118.722C140.799 118.662 140.662 118.649 140.543 118.684C140.534 118.688 140.527 118.691 140.519 118.694L140.519 118.645C140.502 118.423 140.335 118.251 140.147 118.261C139.959 118.27 139.822 118.469 139.84 118.704Z" fill="black"/>
<path d="M145.283 105.417L145.236 105.445C145.235 105.436 145.234 105.429 145.232 105.419C145.197 105.303 145.107 105.199 145.037 105.222C144.969 105.246 144.954 105.39 144.993 105.505C145.011 105.559 145.038 105.597 145.067 105.621C144.754 105.564 144.243 105.716 143.919 105.968C143.75 106.091 143.655 106.217 143.61 106.337C143.592 106.386 143.551 106.425 143.499 106.44C143.36 106.478 143.231 106.565 143.137 106.7C143.006 106.881 142.99 107.114 143.092 107.289C143.282 107.612 143.722 107.645 143.996 107.407C144.064 107.345 144.118 107.277 144.154 107.2C144.175 107.156 144.219 107.124 144.269 107.117C144.389 107.099 144.521 107.041 144.671 106.932C144.959 106.707 145.248 106.359 145.339 106.069C145.347 106.106 145.369 106.146 145.407 106.188C145.491 106.278 145.613 106.337 145.659 106.298C145.707 106.26 145.663 106.132 145.583 106.039C145.576 106.032 145.571 106.027 145.564 106.021L145.61 106.002C145.805 105.9 145.9 105.683 145.822 105.519C145.741 105.349 145.499 105.303 145.283 105.417Z" fill="black"/>
<path d="M149.038 104.417L148.984 104.425C148.987 104.416 148.989 104.409 148.991 104.4C149.01 104.279 148.973 104.148 148.903 104.141C148.832 104.135 148.757 104.254 148.741 104.375C148.734 104.431 148.741 104.476 148.757 104.511C148.502 104.323 147.984 104.242 147.572 104.323C147.363 104.359 147.219 104.441 147.122 104.525C147.083 104.561 147.027 104.579 146.973 104.57C146.83 104.553 146.669 104.582 146.52 104.666C146.32 104.785 146.211 105.002 146.239 105.198C146.298 105.57 146.682 105.753 147.016 105.656C147.101 105.631 147.176 105.587 147.238 105.53C147.276 105.499 147.329 105.491 147.376 105.507C147.492 105.547 147.63 105.544 147.812 105.513C148.166 105.444 148.59 105.25 148.803 105.03C148.794 105.066 148.795 105.112 148.812 105.166C148.848 105.283 148.933 105.391 148.995 105.374C149.056 105.358 149.073 105.223 149.04 105.106C149.036 105.097 149.034 105.091 149.031 105.083L149.081 105.083C149.306 105.065 149.487 104.918 149.482 104.731C149.477 104.549 149.278 104.398 149.038 104.417Z" fill="black"/>
<path d="M146.18 103.081L146.13 103.101C146.13 103.091 146.13 103.084 146.131 103.074C146.12 102.953 146.054 102.833 145.984 102.843C145.914 102.852 145.869 102.986 145.881 103.106C145.887 103.163 145.905 103.205 145.928 103.235C145.637 103.11 145.113 103.148 144.731 103.319C144.536 103.401 144.414 103.513 144.34 103.617C144.311 103.661 144.26 103.691 144.206 103.694C144.063 103.71 143.913 103.774 143.788 103.889C143.621 104.051 143.566 104.286 143.639 104.47C143.784 104.819 144.2 104.91 144.502 104.742C144.58 104.697 144.642 104.638 144.689 104.569C144.719 104.53 144.768 104.51 144.818 104.515C144.94 104.528 145.073 104.494 145.243 104.423C145.573 104.276 145.939 103.992 146.095 103.73C146.095 103.767 146.107 103.811 146.136 103.861C146.198 103.966 146.306 104.052 146.362 104.022C146.419 103.992 146.403 103.857 146.344 103.751C146.338 103.743 146.334 103.738 146.329 103.731L146.378 103.719C146.593 103.651 146.735 103.467 146.686 103.287C146.638 103.111 146.409 103.008 146.18 103.081Z" fill="black"/>
<path d="M152.848 104.555L152.797 104.556C152.8 104.547 152.803 104.541 152.806 104.531C152.839 104.414 152.821 104.28 152.757 104.264C152.693 104.248 152.607 104.357 152.573 104.474C152.557 104.528 152.557 104.574 152.567 104.61C152.348 104.392 151.892 104.215 151.501 104.185C151.303 104.17 151.151 104.197 151.037 104.252C150.991 104.274 150.934 104.275 150.887 104.251C150.763 104.186 150.61 104.158 150.435 104.19C150.214 104.238 150.039 104.397 149.991 104.592C149.898 104.956 150.207 105.273 150.557 105.285C150.648 105.289 150.737 105.274 150.818 105.243C150.866 105.225 150.921 105.232 150.964 105.261C151.066 105.332 151.208 105.38 151.405 105.395C151.793 105.424 152.282 105.32 152.531 105.13C152.517 105.165 152.51 105.21 152.519 105.266C152.537 105.387 152.611 105.506 152.679 105.498C152.748 105.49 152.783 105.359 152.763 105.238C152.761 105.229 152.759 105.223 152.757 105.214L152.809 105.221C153.046 105.235 153.247 105.091 153.251 104.907C153.256 104.723 153.077 104.568 152.848 104.555Z" fill="black"/>
<path d="M130.373 119.705C130.352 119.775 130.287 119.82 130.215 119.829C129.194 119.946 128.598 120.08 128.143 120.318C127.697 120.532 127.435 120.809 127.439 120.895C127.443 120.981 127.741 121.246 128.328 121.29C128.474 121.306 128.633 121.284 128.808 121.258C128.984 121.235 129.169 121.18 129.358 121.089C129.549 121.007 129.744 120.895 129.926 120.735C130.115 120.59 130.288 120.395 130.439 120.168C130.482 120.105 130.558 120.07 130.635 120.071C130.91 120.068 131.206 120.031 131.32 119.944C131.429 119.848 131.351 119.73 130.95 119.546C130.8 119.126 130.675 119.052 130.597 119.134C130.51 119.209 130.442 119.444 130.373 119.705Z" fill="black"/>
<path d="M132.607 116.34C132.639 116.405 132.63 116.484 132.584 116.54C131.899 117.307 131.592 117.837 131.417 118.301C131.25 118.751 131.26 119.136 131.322 119.196C131.384 119.257 131.782 119.243 132.239 118.874C132.692 118.523 133.148 117.717 132.983 116.644C132.969 116.568 132.993 116.491 133.051 116.442C133.489 116.081 133.8 115.607 132.939 115.847C132.158 115.41 132.387 115.867 132.607 116.34Z" fill="black"/>
<path d="M132.405 112.257C132.465 112.296 132.496 112.369 132.486 112.44C132.338 113.443 132.37 114.075 132.526 114.565C132.658 115.042 132.916 115.337 133.004 115.345C133.09 115.354 133.384 115.101 133.535 114.554C133.668 114.025 133.615 113.137 132.879 112.317C132.828 112.26 132.81 112.18 132.834 112.108C132.985 111.578 133.005 110.991 132.406 111.669C131.529 111.723 131.94 111.986 132.405 112.257Z" fill="black"/>
<path d="M129.752 109.215C129.824 109.201 129.903 109.223 129.942 109.287C130.52 110.124 130.911 110.573 131.333 110.86C131.522 111.012 131.716 111.107 131.872 111.163C132.017 111.225 132.131 111.242 132.17 111.22C132.207 111.199 132.253 111.096 132.268 110.926C132.274 110.762 132.241 110.533 132.136 110.261C132.008 110.007 131.816 109.701 131.478 109.452C131.154 109.194 130.689 108.996 130.144 108.935C130.07 108.922 129.995 108.886 129.961 108.818C129.705 108.311 129.283 107.909 129.342 108.787C128.743 109.442 129.235 109.313 129.752 109.215Z" fill="black"/>
<path d="M125.667 108.749C125.713 108.693 125.788 108.662 125.859 108.682C126.854 108.954 127.488 109.001 127.993 108.943C128.487 108.876 128.825 108.714 128.855 108.62C128.878 108.551 128.688 108.188 128.148 107.966C127.628 107.733 126.705 107.673 125.78 108.285C125.716 108.327 125.635 108.343 125.564 108.314C125.036 108.087 124.448 108.048 125.071 108.682C125.045 109.56 125.335 109.15 125.667 108.749Z" fill="black"/>
<path d="M122.34 111.051C122.334 110.98 122.373 110.911 122.436 110.875C123.331 110.377 123.821 110.027 124.154 109.654C124.474 109.286 124.631 108.955 124.589 108.862C124.572 108.824 124.473 108.773 124.304 108.748C124.134 108.722 123.891 108.721 123.615 108.819C123.067 108.981 122.304 109.564 122.096 110.645C122.082 110.721 122.029 110.784 121.956 110.811C121.431 111.018 120.956 111.373 121.867 111.412C122.457 112.055 122.403 111.572 122.34 111.051Z" fill="black"/>
<path d="M121.354 115C121.306 114.945 121.295 114.867 121.323 114.801C121.752 113.868 121.89 113.25 121.875 112.745C121.874 112.255 121.733 111.905 121.652 111.871C121.572 111.837 121.198 111.986 120.903 112.481C120.623 112.962 120.439 113.83 120.911 114.809C120.945 114.877 120.941 114.958 120.898 115.02C120.734 115.248 120.608 115.501 120.627 115.637C120.64 115.776 120.782 115.782 121.17 115.563C121.603 115.681 121.737 115.625 121.717 115.511C121.692 115.395 121.522 115.203 121.354 115Z" fill="black"/>
<path d="M122.77 118.802C122.698 118.788 122.641 118.732 122.624 118.664C122.41 117.68 122.202 117.103 121.922 116.679C121.643 116.27 121.343 116.045 121.244 116.063C121.171 116.075 120.925 116.401 120.957 116.97C120.971 117.521 121.307 118.387 122.298 118.912C122.368 118.947 122.416 119.014 122.421 119.089C122.432 119.37 122.504 119.646 122.607 119.746C122.709 119.849 122.821 119.764 122.981 119.352C123.39 119.176 123.455 119.047 123.371 118.973C123.281 118.899 123.027 118.862 122.77 118.802Z" fill="black"/>
<path d="M126.382 120.655C126.32 120.691 126.24 120.687 126.179 120.647C125.32 120.084 124.775 119.818 124.281 119.706C123.802 119.592 123.428 119.614 123.366 119.687C123.315 119.745 123.346 120.152 123.771 120.56C124.175 120.956 125.046 121.348 126.122 121.047C126.197 121.027 126.278 121.046 126.335 121.099C126.758 121.456 127.287 121.733 126.924 120.908C127.254 120.112 126.833 120.357 126.382 120.655Z" fill="black"/>
<path d="M130.374 123.62C130.336 123.68 130.266 123.712 130.197 123.703C129.702 123.641 129.292 123.593 128.958 123.644C128.615 123.654 128.337 123.729 128.109 123.83C127.654 124.003 127.398 124.273 127.401 124.366C127.403 124.446 127.679 124.716 128.212 124.813C128.477 124.847 128.805 124.84 129.174 124.753C129.533 124.624 129.945 124.45 130.323 124.088C130.376 124.037 130.452 124.019 130.522 124.042C130.776 124.127 131.05 124.193 131.173 124.149C131.295 124.099 131.263 123.961 130.955 123.656C130.945 123.214 130.858 123.102 130.756 123.154C130.651 123.201 130.511 123.399 130.374 123.62Z" fill="black"/>
<path d="M133.769 121.557C133.76 121.625 133.71 121.681 133.641 121.701C133.397 121.772 133.191 121.853 133.006 121.934C132.812 122.003 132.645 122.081 132.5 122.165C132.218 122.345 131.981 122.496 131.819 122.679C131.657 122.862 131.543 123.035 131.47 123.167C131.401 123.304 131.38 123.413 131.399 123.453C131.417 123.491 131.516 123.543 131.678 123.574C131.844 123.61 132.068 123.611 132.326 123.534C132.583 123.457 132.9 123.343 133.177 123.077C133.32 122.951 133.462 122.801 133.597 122.629C133.721 122.443 133.832 122.228 133.928 121.992C133.955 121.926 134.018 121.879 134.093 121.871C134.627 121.797 135.142 121.596 134.292 121.324C133.87 120.56 133.808 121.043 133.769 121.557Z" fill="black"/>
<path d="M135.865 118.219C135.891 118.286 135.874 118.359 135.825 118.408C135.444 118.741 135.197 119.046 135.003 119.32C134.799 119.587 134.71 119.858 134.629 120.081C134.477 120.529 134.542 120.906 134.613 120.962C134.679 121.014 135.051 120.968 135.474 120.622C135.687 120.453 135.864 120.181 136.025 119.842C136.174 119.499 136.244 119.052 136.212 118.549C136.203 118.476 136.235 118.406 136.296 118.367C136.745 118.075 137.15 117.694 136.248 117.792C135.552 117.277 135.676 117.737 135.865 118.219Z" fill="black"/>
<path d="M136.454 114.314C136.502 114.367 136.513 114.442 136.484 114.505C136.264 114.953 136.122 115.329 136.073 115.662C135.991 115.99 135.99 116.274 136.029 116.516C136.081 116.993 136.277 117.305 136.369 117.328C136.448 117.347 136.789 117.158 137.024 116.679C137.128 116.44 137.208 116.13 137.221 115.76C137.2 115.389 137.124 114.958 136.897 114.5C136.863 114.436 136.867 114.36 136.91 114.302C137.225 113.875 137.468 113.386 136.659 113.781C135.821 113.532 136.103 113.927 136.454 114.314Z" fill="black"/>
<path d="M135.624 110.457C135.688 110.489 135.726 110.555 135.723 110.623C135.685 111.116 135.687 111.513 135.752 111.84C135.791 112.174 135.89 112.44 136.012 112.654C136.215 113.088 136.521 113.314 136.612 113.305C136.696 113.296 136.937 113.006 137.005 112.477C137.018 112.216 136.983 111.897 136.864 111.545C136.719 111.2 136.49 110.817 136.105 110.472C136.05 110.424 136.025 110.351 136.043 110.281C136.111 110.026 136.153 109.757 136.104 109.638C136.048 109.52 135.911 109.561 135.617 109.887C135.173 109.925 135.064 110.019 135.121 110.116C135.171 110.219 135.389 110.339 135.624 110.457Z" fill="black"/>
<path d="M133.283 107.284C133.353 107.287 133.414 107.332 133.439 107.397C133.811 108.301 134.171 108.808 134.563 109.11C134.953 109.403 135.29 109.516 135.38 109.467C135.444 109.433 135.587 109.052 135.397 108.555C135.296 108.314 135.166 108.006 134.874 107.755C134.734 107.625 134.571 107.497 134.385 107.378C134.197 107.262 133.961 107.176 133.716 107.097C133.646 107.076 133.594 107.018 133.581 106.945C133.475 106.421 133.227 105.941 133.011 106.787C132.259 107.256 132.763 107.273 133.283 107.284Z" fill="black"/>
<path d="M129.739 105.47C129.805 105.439 129.882 105.45 129.935 105.494C130.666 106.179 131.239 106.434 131.721 106.545C132.188 106.661 132.573 106.565 132.619 106.499C132.673 106.423 132.595 106.07 132.213 105.682C131.837 105.307 131.083 104.961 130.049 105.105C129.976 105.12 129.902 105.094 129.857 105.038C129.526 104.624 129.106 104.259 129.275 105.131C128.804 105.852 129.262 105.694 129.739 105.47Z" fill="black"/>
<path d="M125.725 105.21C125.774 105.158 125.849 105.14 125.916 105.162C126.39 105.345 126.782 105.436 127.122 105.47C127.463 105.521 127.752 105.498 127.995 105.44C128.474 105.361 128.779 105.134 128.794 105.046C128.808 104.964 128.588 104.657 128.083 104.455C127.831 104.373 127.508 104.322 127.131 104.341C126.754 104.378 126.319 104.505 125.873 104.759C125.81 104.799 125.732 104.803 125.669 104.766C125.204 104.501 124.676 104.313 125.164 105.062C125 105.902 125.367 105.59 125.725 105.21Z" fill="black"/>
<path d="M121.943 106.495C121.966 106.429 122.028 106.384 122.098 106.378C122.588 106.32 123.002 106.292 123.316 106.174C123.641 106.083 123.901 105.969 124.1 105.822C124.506 105.561 124.706 105.252 124.685 105.161C124.669 105.084 124.344 104.866 123.799 104.879C123.533 104.901 123.205 104.961 122.866 105.136C122.54 105.335 122.168 105.585 121.887 106.031C121.846 106.091 121.775 106.124 121.701 106.116C121.145 106.041 120.62 106.153 121.374 106.595C121.615 107.447 121.765 106.959 121.943 106.495Z" fill="black"/>
<path d="M119.135 109.275C119.123 109.205 119.151 109.133 119.217 109.101C119.669 108.86 119.961 108.607 120.224 108.393C120.348 108.28 120.449 108.166 120.533 108.051C120.621 107.941 120.702 107.84 120.762 107.736C120.885 107.531 120.947 107.329 120.979 107.176C121.016 107.029 121.012 106.92 120.983 106.885C120.956 106.852 120.847 106.822 120.68 106.827C120.518 106.838 120.306 106.897 120.065 107.021C119.946 107.085 119.814 107.161 119.692 107.267C119.575 107.377 119.458 107.508 119.346 107.661C119.108 107.955 118.956 108.388 118.869 108.883C118.855 108.951 118.814 109.016 118.745 109.042C118.249 109.239 117.776 109.535 118.676 109.618C119.254 110.263 119.222 109.789 119.135 109.275Z" fill="black"/>
<path d="M117.807 112.987C117.769 112.927 117.772 112.851 117.811 112.794C118.101 112.39 118.313 112.047 118.423 111.732C118.565 111.426 118.618 111.149 118.626 110.905C118.679 110.435 118.538 110.084 118.456 110.045C118.38 110.01 118.019 110.133 117.682 110.556C117.534 110.773 117.396 111.066 117.313 111.429C117.263 111.799 117.254 112.239 117.404 112.729C117.426 112.798 117.408 112.873 117.356 112.923C116.97 113.292 116.643 113.736 117.511 113.478C118.292 113.859 118.084 113.426 117.807 112.987Z" fill="black"/>
<path d="M117.92 116.939C117.863 116.894 117.839 116.823 117.856 116.756C118.003 116.278 118.062 115.886 118.067 115.55C118.089 115.212 118.04 114.931 117.959 114.698C117.829 114.235 117.573 113.961 117.48 113.956C117.397 113.95 117.103 114.196 116.95 114.704C116.89 114.957 116.866 115.275 116.918 115.641C116.989 116.004 117.155 116.417 117.45 116.831C117.496 116.888 117.506 116.965 117.474 117.029C117.242 117.504 117.093 118.033 117.816 117.498C118.684 117.592 118.336 117.258 117.92 116.939Z" fill="black"/>
<path d="M119.506 120.546C119.437 120.527 119.387 120.471 119.376 120.402C119.33 120.155 119.289 119.94 119.252 119.746C119.208 119.549 119.152 119.377 119.085 119.225C118.974 118.91 118.832 118.666 118.67 118.481C118.377 118.101 118.043 117.931 117.953 117.958C117.875 117.981 117.682 118.314 117.731 118.845C117.772 119.103 117.862 119.416 118.058 119.737C118.167 119.892 118.299 120.05 118.457 120.204C118.608 120.363 118.802 120.507 119.036 120.631C119.1 120.667 119.139 120.734 119.136 120.807C119.098 121.353 119.238 121.864 119.643 121.097C120.493 120.809 119.993 120.688 119.506 120.546Z" fill="black"/>
<path d="M122.515 123.115C122.443 123.134 122.372 123.105 122.334 123.044C122.056 122.623 121.784 122.349 121.547 122.107C121.425 121.993 121.301 121.903 121.179 121.828C121.067 121.742 120.954 121.675 120.845 121.622C120.4 121.422 120.032 121.4 119.965 121.459C119.901 121.515 119.863 121.903 120.161 122.349C120.233 122.462 120.323 122.581 120.433 122.699C120.553 122.806 120.695 122.912 120.858 123.011C121.175 123.223 121.622 123.35 122.135 123.398C122.206 123.406 122.271 123.45 122.304 123.511C122.538 123.981 122.875 124.423 122.896 123.538C123.514 122.928 123.033 122.993 122.515 123.115Z" fill="black"/>
<path d="M126.388 124.13C126.33 124.172 126.253 124.176 126.191 124.142C125.757 123.891 125.392 123.715 125.064 123.631C124.742 123.516 124.457 123.486 124.208 123.497C123.728 123.477 123.38 123.643 123.346 123.725C123.315 123.803 123.467 124.142 123.923 124.446C124.155 124.573 124.465 124.685 124.842 124.738C125.222 124.76 125.674 124.731 126.16 124.545C126.228 124.518 126.306 124.529 126.361 124.576C126.769 124.921 127.25 125.202 126.912 124.377C127.232 123.582 126.811 123.822 126.388 124.13Z" fill="black"/>
<path d="M129.24 122.234C129.198 122.292 129.124 122.321 129.054 122.31C128.548 122.197 128.15 122.166 127.801 122.146C127.457 122.15 127.168 122.178 126.925 122.241C126.442 122.384 126.142 122.58 126.131 122.682C126.126 122.723 126.183 122.819 126.31 122.928C126.435 123.041 126.631 123.162 126.901 123.229C127.17 123.305 127.511 123.35 127.905 123.27C128.297 123.216 128.737 123.019 129.157 122.701C129.215 122.652 129.295 122.637 129.365 122.663C129.891 122.87 130.456 122.906 129.831 122.284C129.831 121.405 129.547 121.822 129.24 122.234Z" fill="black"/>
<path d="M132.671 120.087C132.668 120.158 132.618 120.217 132.55 120.243C131.608 120.62 131.075 120.946 130.737 121.317C130.395 121.661 130.264 122.022 130.297 122.096C130.335 122.18 130.697 122.311 131.25 122.168C131.523 122.097 131.826 121.929 132.128 121.672C132.269 121.532 132.409 121.369 132.541 121.182C132.67 120.995 132.766 120.759 132.855 120.515C132.879 120.445 132.942 120.394 133.016 120.379C133.544 120.248 134.072 120.006 133.185 119.805C132.715 119.079 132.67 119.556 132.671 120.087Z" fill="black"/>
<path d="M134.472 116.468C134.504 116.533 134.498 116.611 134.452 116.666C134.102 117.051 133.897 117.393 133.721 117.691C133.571 117.999 133.466 118.264 133.418 118.506C133.333 118.992 133.386 119.344 133.471 119.399C133.532 119.44 133.945 119.378 134.313 118.964C134.697 118.571 135.035 117.797 134.853 116.763C134.838 116.691 134.86 116.615 134.916 116.567C135.329 116.216 135.688 115.778 134.803 115.985C134.052 115.54 134.228 115.996 134.472 116.468Z" fill="black"/>
<path d="M134.521 112.427C134.578 112.471 134.611 112.543 134.587 112.613C134.513 112.859 134.464 113.08 134.436 113.281C134.403 113.483 134.367 113.67 134.363 113.84C134.362 114.18 134.366 114.468 134.436 114.709C134.562 115.188 134.774 115.484 134.873 115.496C134.949 115.506 135.284 115.275 135.444 114.753C135.609 114.245 135.619 113.4 134.992 112.534C134.953 112.473 134.935 112.395 134.966 112.328C135.184 111.833 135.301 111.277 134.606 111.852C133.73 111.785 134.096 112.107 134.521 112.427Z" fill="black"/>
<path d="M132.576 108.917C132.647 108.926 132.707 108.976 132.729 109.043C133.024 110 133.347 110.525 133.678 110.898C134.025 111.249 134.349 111.418 134.441 111.385C134.514 111.359 134.709 111.001 134.584 110.461C134.493 109.925 134.032 109.173 133.029 108.765C132.958 108.738 132.907 108.675 132.898 108.601C132.822 108.055 132.58 107.551 132.329 108.392C131.547 108.817 132.056 108.86 132.576 108.917Z" fill="black"/>
<path d="M128.994 106.993C129.061 106.96 129.14 106.969 129.194 107.02C129.972 107.674 130.529 107.974 131.027 108.083C131.501 108.209 131.88 108.155 131.938 108.08C131.987 108.018 131.933 107.634 131.539 107.231C131.147 106.854 130.371 106.449 129.3 106.629C129.227 106.637 129.15 106.613 129.101 106.559C128.746 106.153 128.296 105.799 128.505 106.667C128.049 107.401 128.511 107.23 128.994 106.993Z" fill="black"/>
<path d="M124.898 107.038C124.939 106.979 125.013 106.95 125.083 106.961C125.59 107.074 125.987 107.106 126.335 107.126C126.679 107.12 126.968 107.1 127.21 107.033C127.692 106.899 127.994 106.695 128.006 106.596C128.016 106.525 127.779 106.191 127.238 106.045C126.714 105.882 125.832 105.914 124.98 106.57C124.922 106.619 124.842 106.635 124.771 106.609C124.245 106.404 123.68 106.367 124.307 106.988C124.308 107.866 124.591 107.452 124.898 107.038Z" fill="black"/>
<path d="M121.473 109.193C121.476 109.122 121.525 109.063 121.593 109.037C122.535 108.658 123.066 108.329 123.404 107.959C123.577 107.788 123.691 107.611 123.761 107.464C123.833 107.323 123.861 107.22 123.841 107.179C123.804 107.095 123.44 106.962 122.888 107.109C122.614 107.18 122.313 107.35 122.011 107.606C121.871 107.747 121.731 107.911 121.6 108.098C121.471 108.285 121.376 108.522 121.287 108.765C121.264 108.835 121.201 108.887 121.127 108.902C120.599 109.034 120.072 109.276 120.959 109.476C121.43 110.201 121.474 109.724 121.473 109.193Z" fill="black"/>
<path d="M119.674 112.814C119.642 112.749 119.648 112.671 119.694 112.617C120.043 112.232 120.249 111.889 120.425 111.591C120.575 111.283 120.68 111.018 120.727 110.775C120.812 110.29 120.759 109.938 120.673 109.882C120.613 109.841 120.199 109.904 119.832 110.318C119.449 110.712 119.111 111.485 119.294 112.519C119.308 112.592 119.286 112.668 119.23 112.715C118.817 113.067 118.458 113.504 119.343 113.297C120.094 113.742 119.918 113.286 119.674 112.814Z" fill="black"/>
<path d="M119.624 116.856C119.567 116.812 119.534 116.74 119.558 116.67C119.632 116.424 119.682 116.203 119.71 116.002C119.743 115.799 119.779 115.613 119.783 115.443C119.784 115.102 119.781 114.814 119.711 114.574C119.584 114.095 119.372 113.798 119.273 113.786C119.198 113.776 118.862 114.008 118.702 114.53C118.537 115.038 118.527 115.882 119.153 116.749C119.191 116.81 119.21 116.887 119.179 116.954C118.96 117.449 118.842 118.005 119.538 117.431C120.414 117.499 120.049 117.177 119.624 116.856Z" fill="black"/>
<path d="M121.561 120.371C121.49 120.363 121.43 120.312 121.408 120.245C121.116 119.288 120.795 118.761 120.464 118.387C120.118 118.035 119.795 117.866 119.702 117.899C119.629 117.924 119.434 118.282 119.557 118.822C119.647 119.358 120.105 120.111 121.108 120.522C121.178 120.55 121.229 120.613 121.238 120.687C121.313 121.232 121.553 121.738 121.807 120.896C122.588 120.475 122.082 120.429 121.561 120.371Z" fill="black"/>
<path d="M125.141 122.29C125.075 122.321 124.995 122.317 124.94 122.268C124.163 121.609 123.602 121.321 123.108 121.207C122.633 121.083 122.255 121.133 122.197 121.209C122.149 121.27 122.2 121.658 122.595 122.058C122.985 122.441 123.768 122.835 124.836 122.659C124.909 122.65 124.988 122.668 125.036 122.725C125.394 123.131 125.847 123.486 125.631 122.617C126.081 121.882 125.622 122.053 125.141 122.29Z" fill="black"/>
<path d="M101.715 106.209C101.917 105.145 100.866 104.001 99.7001 104.519C99.663 104.529 99.6154 104.573 99.6611 104.609C100.554 105.141 100.949 106.378 100.554 107.412C100.547 107.44 100.557 107.454 100.573 107.46C100.579 107.475 100.591 107.486 100.615 107.479C101.55 107.042 102.669 107.477 103.151 108.465C103.185 108.517 103.221 108.462 103.232 108.422C103.696 107.135 102.676 105.985 101.715 106.209Z" fill="black"/>
<path d="M106.244 100.163C106.446 99.0988 105.395 97.955 104.229 98.4728C104.192 98.4831 104.144 98.5275 104.19 98.5627C105.083 99.0954 105.478 100.332 105.083 101.366C105.076 101.394 105.086 101.408 105.102 101.414C105.108 101.43 105.12 101.44 105.144 101.433C106.079 100.996 107.198 101.431 107.68 102.419C107.714 102.471 107.75 102.416 107.761 102.376C108.225 101.089 107.205 99.9391 106.244 100.163Z" fill="black"/>
<path d="M115.11 98.8184C115.313 97.7546 114.261 96.6108 113.096 97.1286C113.059 97.1388 113.011 97.1833 113.057 97.2184C113.95 97.7511 114.345 98.9876 113.95 100.022C113.943 100.05 113.953 100.064 113.968 100.07C113.974 100.085 113.986 100.096 114.01 100.088C114.945 99.6521 116.064 100.087 116.546 101.075C116.581 101.127 116.616 101.072 116.628 101.032C117.092 99.7451 116.071 98.5948 115.11 98.8184Z" fill="black"/>
<path d="M97.5299 110.999C97.7324 109.935 96.681 108.791 95.5153 109.309C95.4782 109.32 95.4306 109.364 95.4763 109.399C96.3696 109.932 96.7642 111.168 96.3696 112.202C96.3626 112.231 96.3724 112.244 96.3877 112.25C96.394 112.266 96.4061 112.277 96.4299 112.269C97.3651 111.833 98.4838 112.268 98.9657 113.256C99.0003 113.308 99.0359 113.252 99.0473 113.213C99.5114 111.926 98.4908 110.775 97.5299 110.999Z" fill="black"/>
<path d="M93.0724 118.856C93.2749 117.792 92.2235 116.648 91.0578 117.166C91.0207 117.176 90.973 117.221 91.0188 117.256C91.9121 117.789 92.3067 119.025 91.9121 120.059C91.9051 120.088 91.9149 120.101 91.9302 120.107C91.9365 120.123 91.9486 120.133 91.9724 120.126C92.9076 119.69 94.0263 120.124 94.5082 121.113C94.5428 121.165 94.5784 121.109 94.5898 121.07C95.0539 119.783 94.0333 118.632 93.0724 118.856Z" fill="black"/>
<path d="M107.427 128.557C107.629 127.493 106.578 126.35 105.412 126.867C105.375 126.878 105.327 126.922 105.373 126.957C106.266 127.49 106.661 128.726 106.266 129.76C106.259 129.789 106.269 129.802 106.284 129.809C106.291 129.824 106.303 129.835 106.327 129.827C107.262 129.391 108.381 129.826 108.862 130.814C108.897 130.866 108.933 130.811 108.944 130.771C109.408 129.484 108.388 128.334 107.427 128.557Z" fill="black"/>
<path d="M105.42 106.209C105.623 105.145 104.571 104.001 103.405 104.519C103.368 104.529 103.321 104.573 103.366 104.609C104.26 105.141 104.654 106.378 104.26 107.412C104.253 107.44 104.263 107.454 104.278 107.46C104.284 107.475 104.296 107.486 104.32 107.479C105.255 107.042 106.374 107.477 106.856 108.465C106.89 108.517 106.926 108.462 106.937 108.422C107.402 107.135 106.381 105.985 105.42 106.209Z" fill="black"/>
<path d="M109.126 106.209C109.328 105.145 108.277 104.001 107.111 104.519C107.073 104.529 107.026 104.573 107.072 104.609C107.965 105.141 108.36 106.378 107.965 107.412C107.958 107.44 107.968 107.454 107.983 107.46C107.99 107.475 108.002 107.486 108.025 107.479C108.961 107.042 110.079 107.477 110.561 108.465C110.596 108.517 110.632 108.462 110.643 108.422C111.107 107.135 110.086 105.985 109.126 106.209Z" fill="black"/>
<path d="M112.831 106.209C113.034 105.145 111.982 104.001 110.816 104.519C110.779 104.529 110.732 104.573 110.777 104.609C111.671 105.141 112.065 106.378 111.67 107.412C111.664 107.44 111.674 107.454 111.689 107.46C111.695 107.475 111.707 107.486 111.731 107.479C112.666 107.042 113.785 107.477 114.267 108.465C114.302 108.517 114.337 108.462 114.349 108.422C114.813 107.135 113.792 105.985 112.831 106.209Z" fill="black"/>
<path d="M101.641 122.895C101.852 121.831 100.759 120.687 99.5471 121.205C99.5084 121.215 99.4592 121.259 99.5065 121.295C100.435 121.827 100.845 123.064 100.435 124.098C100.428 124.126 100.438 124.14 100.454 124.146C100.46 124.162 100.473 124.172 100.497 124.165C101.47 123.728 102.632 124.163 103.133 125.151C103.169 125.203 103.206 125.148 103.218 125.108C103.7 123.821 102.64 122.671 101.641 122.895Z" fill="black"/>
<path d="M105.492 122.895C105.702 121.831 104.61 120.687 103.398 121.205C103.359 121.215 103.31 121.259 103.357 121.295C104.286 121.827 104.696 123.064 104.286 124.098C104.279 124.126 104.289 124.14 104.305 124.146C104.312 124.162 104.324 124.172 104.348 124.165C105.32 123.728 106.483 124.163 106.984 125.151C107.02 125.203 107.057 125.148 107.069 125.108C107.551 123.821 106.491 122.671 105.492 122.895Z" fill="black"/>
<path d="M109.342 122.895C109.553 121.831 108.46 120.687 107.249 121.205C107.21 121.215 107.161 121.259 107.208 121.295C108.136 121.827 108.547 123.064 108.136 124.098C108.129 124.126 108.14 124.14 108.156 124.146C108.162 124.162 108.175 124.172 108.199 124.165C109.171 123.728 110.334 124.163 110.835 125.151C110.871 125.203 110.908 125.148 110.919 125.108C111.402 123.821 110.342 122.671 109.342 122.895Z" fill="black"/>
<path d="M113.194 122.895C113.404 121.831 112.311 120.687 111.1 121.205C111.061 121.215 111.012 121.259 111.059 121.295C111.988 121.827 112.398 123.064 111.988 124.098C111.98 124.126 111.991 124.14 112.007 124.146C112.013 124.162 112.026 124.172 112.05 124.165C113.022 123.728 114.185 124.163 114.686 125.151C114.722 125.203 114.759 125.148 114.77 125.108C115.253 123.821 114.192 122.671 113.194 122.895Z" fill="black"/>
<path d="M102.923 118.872C103.185 117.874 102.126 116.835 100.872 117.35C100.832 117.361 100.78 117.404 100.827 117.436C101.746 117.908 102.107 119.051 101.644 120.027C101.636 120.054 101.646 120.066 101.662 120.071C101.668 120.086 101.68 120.095 101.705 120.088C102.712 119.655 103.874 120.029 104.338 120.938C104.372 120.986 104.412 120.933 104.426 120.896C104.974 119.682 103.948 118.637 102.923 118.872Z" fill="black"/>
<path d="M105.18 116.753C105.441 115.755 104.382 114.716 103.128 115.232C103.089 115.243 103.037 115.285 103.083 115.317C104.003 115.789 104.364 116.932 103.901 117.908C103.893 117.935 103.902 117.948 103.918 117.953C103.924 117.967 103.936 117.977 103.961 117.969C104.968 117.536 106.13 117.911 106.594 118.82C106.629 118.867 106.669 118.815 106.683 118.777C107.23 117.563 106.205 116.518 105.18 116.753Z" fill="black"/>
<path d="M107.437 114.635C107.698 113.637 106.639 112.598 105.385 113.114C105.346 113.124 105.293 113.167 105.34 113.199C106.259 113.671 106.621 114.814 106.158 115.79C106.149 115.817 106.159 115.829 106.175 115.834C106.181 115.849 106.193 115.859 106.218 115.851C107.225 115.418 108.387 115.793 108.851 116.702C108.885 116.749 108.925 116.697 108.939 116.659C109.487 115.445 108.461 114.4 107.437 114.635Z" fill="black"/>
<path d="M109.693 112.517C109.955 111.518 108.896 110.48 107.642 110.995C107.603 111.006 107.55 111.048 107.597 111.08C108.516 111.553 108.877 112.695 108.414 113.672C108.406 113.698 108.416 113.711 108.432 113.716C108.438 113.73 108.45 113.74 108.475 113.732C109.482 113.299 110.644 113.674 111.108 114.583C111.142 114.631 111.182 114.578 111.196 114.54C111.744 113.327 110.718 112.281 109.693 112.517Z" fill="black"/>
<path d="M111.95 110.398C112.211 109.4 111.153 108.361 109.899 108.876C109.859 108.887 109.807 108.93 109.854 108.961C110.773 109.434 111.134 110.577 110.671 111.553C110.662 111.579 110.672 111.592 110.689 111.597C110.694 111.612 110.707 111.621 110.732 111.613C111.738 111.181 112.9 111.556 113.365 112.464C113.399 112.512 113.439 112.459 113.453 112.422C114 111.208 112.975 110.163 111.95 110.398Z" fill="black"/>
<path d="M93.1013 128.304H100.554C103.941 128.304 106.255 130.544 106.255 133.364C106.255 135.189 105.267 136.738 103.828 137.457V137.622C105.521 138.48 106.623 140.333 106.623 142.296C106.623 145.337 103.997 147.66 100.497 147.66H93.1013V128.304ZM100.328 136.544C102.106 136.544 103.405 135.327 103.405 133.64C103.405 131.954 102.106 130.765 100.328 130.765H95.8956V136.544H100.328ZM100.581 145.199C102.304 145.199 103.772 143.789 103.772 142.102C103.772 140.415 102.304 138.978 100.581 138.978H95.8956V145.199H100.581Z" fill="black"/>
<path d="M110.77 128.304H118.223C121.61 128.304 124.066 130.709 124.066 133.917C124.066 136.489 122.514 138.424 119.973 139.171L124.772 147.66H121.639L117.15 139.669H113.565V147.66H110.77V128.304ZM117.94 137.208C119.775 137.208 121.215 135.77 121.215 133.972C121.215 132.203 119.775 130.765 117.94 130.765H113.565V137.208H117.94Z" fill="black"/>
<path d="M128.75 128.304H131.601L141.537 142.904H141.707V128.304H144.417V147.66H141.565L131.601 133.06H131.432V147.66H128.75V128.304Z" fill="black"/>
<path d="M148.903 137.982C148.903 132.175 153.137 128 158.98 128C164.823 128 169.058 132.175 169.058 137.982C169.058 143.789 164.823 147.964 158.98 147.964C153.137 147.964 148.903 143.789 148.903 137.982ZM158.98 145.448C163.214 145.448 166.207 142.378 166.207 137.982C166.207 133.585 163.214 130.516 158.98 130.516C154.717 130.516 151.754 133.585 151.754 137.982C151.754 142.378 154.717 145.448 158.98 145.448Z" fill="black"/>
<path d="M130.77 113.224C130.831 113.266 130.867 113.34 130.847 113.414C130.632 114.426 130.556 115.052 130.609 115.559C130.633 115.807 130.681 116.014 130.728 116.168C130.783 116.323 130.842 116.422 130.883 116.437C130.925 116.452 131.035 116.418 131.17 116.309C131.312 116.203 131.475 116.018 131.601 115.743C131.727 115.469 131.807 115.104 131.779 114.679C131.734 114.259 131.602 113.766 131.248 113.316C131.205 113.252 131.183 113.169 131.207 113.095C131.304 112.824 131.34 112.527 131.281 112.388C131.223 112.244 131.089 112.285 130.785 112.619C130.34 112.627 130.232 112.728 130.279 112.829C130.332 112.932 130.552 113.064 130.77 113.224Z" fill="black"/>
<path d="M123.978 112.008C123.971 111.932 124.019 111.867 124.087 111.836C124.565 111.612 124.928 111.461 125.238 111.33C125.543 111.195 125.789 111.066 125.999 110.935C126.208 110.805 126.377 110.674 126.497 110.564C126.615 110.447 126.681 110.356 126.677 110.312C126.673 110.27 126.594 110.183 126.435 110.113C126.275 110.035 126.033 109.97 125.718 109.985C125.406 110 125.019 110.103 124.647 110.362C124.272 110.61 123.929 111.038 123.767 111.581C123.743 111.657 123.68 111.717 123.609 111.746C123.474 111.795 123.336 111.855 123.222 111.921C123.116 111.99 123.031 112.064 122.993 112.128C122.914 112.263 123.03 112.341 123.485 112.368C123.768 112.706 123.916 112.726 123.966 112.627C123.992 112.575 123.997 112.488 123.99 112.377C123.992 112.271 123.986 112.143 123.978 112.008Z" fill="black"/>
<path d="M126.379 118.708C126.314 118.742 126.229 118.744 126.171 118.694C125.746 118.385 125.45 118.12 125.184 117.918C124.917 117.722 124.697 117.557 124.476 117.442C124.06 117.196 123.69 117.081 123.605 117.131C123.54 117.166 123.43 117.571 123.741 118.119C123.905 118.378 124.167 118.679 124.578 118.878C124.979 119.081 125.515 119.201 126.084 119.089C126.163 119.081 126.249 119.094 126.306 119.149C126.515 119.354 126.774 119.511 126.926 119.52C127.082 119.531 127.104 119.396 126.928 118.982C127.113 118.586 127.068 118.446 126.953 118.445C126.835 118.445 126.619 118.586 126.379 118.708Z" fill="black"/>
<path d="M130.578 125.565C130.536 125.628 130.458 125.649 130.384 125.636C129.347 125.459 128.662 125.53 128.169 125.732C127.68 125.891 127.41 126.174 127.412 126.262C127.414 126.346 127.703 126.603 128.259 126.717C128.804 126.791 129.649 126.707 130.495 126.026C130.554 125.978 130.637 125.972 130.708 125.993C131.228 126.162 131.798 126.243 131.178 125.596C131.215 124.726 130.885 125.114 130.578 125.565Z" fill="black"/>
<path d="M138.219 116.398C138.256 116.46 138.253 116.54 138.213 116.601C137.946 117.04 137.724 117.409 137.612 117.747C137.51 118.088 137.436 118.377 137.426 118.633C137.415 118.887 137.452 119.103 137.502 119.261C137.539 119.414 137.596 119.51 137.638 119.527C137.678 119.543 137.79 119.513 137.936 119.423C138.07 119.329 138.233 119.171 138.385 118.939C138.536 118.707 138.692 118.403 138.732 118.013C138.781 117.627 138.796 117.172 138.622 116.658C138.599 116.586 138.618 116.507 138.671 116.454C138.864 116.258 139.048 116.041 139.065 115.909C139.075 115.776 138.936 115.737 138.517 115.875C138.112 115.672 137.971 115.697 137.97 115.819C137.964 115.941 138.08 116.167 138.219 116.398Z" fill="black"/>
<path d="M133.778 105.25C133.852 105.248 133.92 105.29 133.955 105.354C134.076 105.586 134.213 105.767 134.325 105.952C134.438 106.135 134.554 106.29 134.673 106.422C134.921 106.676 135.132 106.888 135.352 107.024C135.796 107.29 136.165 107.361 136.239 107.308C136.307 107.259 136.379 106.863 136.112 106.374C135.983 106.129 135.798 105.837 135.469 105.606C135.31 105.486 135.128 105.369 134.923 105.263C134.719 105.156 134.464 105.092 134.202 105.03C134.127 105.013 134.066 104.959 134.043 104.886C134.002 104.755 133.955 104.622 133.903 104.514C133.845 104.413 133.785 104.334 133.728 104.297C133.611 104.223 133.514 104.326 133.442 104.756C133.074 105.012 133.031 105.147 133.138 105.205C133.193 105.234 133.287 105.244 133.402 105.245C133.513 105.253 133.644 105.254 133.778 105.25Z" fill="black"/>
<path d="M125.65 103.303C125.704 103.252 125.782 103.227 125.853 103.257C126.352 103.459 126.768 103.533 127.131 103.573C127.492 103.626 127.8 103.603 128.058 103.545C128.568 103.447 128.879 103.239 128.894 103.144C128.906 103.068 128.668 102.741 128.136 102.56C127.871 102.478 127.533 102.426 127.138 102.445C126.744 102.475 126.29 102.619 125.816 102.855C125.749 102.886 125.667 102.896 125.602 102.858C125.121 102.595 124.579 102.409 125.065 103.159C124.862 104.005 125.263 103.687 125.65 103.303Z" fill="black"/>
<path d="M116.364 110.834C116.338 110.766 116.357 110.689 116.407 110.635C116.589 110.445 116.736 110.264 116.859 110.092C116.999 109.926 117.111 109.766 117.2 109.612C117.289 109.457 117.355 109.308 117.405 109.165C117.468 109.03 117.513 108.9 117.543 108.776C117.66 108.283 117.571 107.903 117.503 107.859C117.424 107.808 117.048 107.898 116.657 108.302C116.559 108.402 116.46 108.521 116.365 108.659C116.284 108.805 116.21 108.97 116.146 109.155C116.083 109.341 116.031 109.546 115.996 109.77C115.98 109.999 115.985 110.249 116.014 110.512C116.023 110.587 115.99 110.661 115.927 110.705C115.457 111.027 115.124 111.456 115.995 111.304C116.735 111.822 116.539 111.322 116.364 110.834Z" fill="black"/>
<path d="M118.766 122.656C118.694 122.643 118.636 122.588 118.615 122.518C118.545 122.266 118.453 122.06 118.38 121.858C118.308 121.655 118.227 121.48 118.138 121.326C117.95 121.026 117.782 120.779 117.597 120.6C117.22 120.249 116.864 120.112 116.784 120.148C116.704 120.185 116.563 120.555 116.719 121.087C116.792 121.353 116.917 121.672 117.189 121.965C117.318 122.114 117.471 122.265 117.649 122.41C117.829 122.554 118.062 122.671 118.305 122.785C118.374 122.816 118.423 122.882 118.43 122.957C118.447 123.238 118.514 123.505 118.614 123.598C118.712 123.694 118.829 123.613 118.99 123.207C119.405 123.032 119.476 122.908 119.383 122.83C119.287 122.754 119.024 122.711 118.766 122.656Z" fill="black"/>
<path d="M136.827 121.639C136.829 121.711 136.787 121.778 136.722 121.811C136.278 122.059 135.897 122.263 135.636 122.501C135.501 122.616 135.394 122.739 135.297 122.853C135.194 122.96 135.11 123.069 135.043 123.175C134.772 123.598 134.743 123.986 134.8 124.055C134.853 124.12 135.233 124.149 135.728 123.9C135.852 123.838 135.982 123.759 136.114 123.66C136.24 123.556 136.358 123.422 136.477 123.271C136.707 122.963 136.949 122.586 137.049 122.059C137.065 121.987 137.119 121.928 137.191 121.908C137.722 121.759 138.235 121.519 137.343 121.337C136.859 120.62 136.813 121.113 136.827 121.639Z" fill="black"/>
<path d="M136.536 105.355C136.608 105.373 136.656 105.434 136.668 105.506C136.741 106.022 136.9 106.393 137.032 106.72C137.165 107.044 137.338 107.286 137.518 107.47C137.851 107.845 138.193 108 138.282 107.965C138.357 107.936 138.525 107.577 138.427 107.041C138.366 106.779 138.243 106.473 138.028 106.153C137.816 105.833 137.446 105.539 137.002 105.268C136.938 105.231 136.9 105.159 136.9 105.086C136.884 104.557 136.768 104.016 136.361 104.802C135.516 105.075 136 105.237 136.536 105.355Z" fill="black"/>
<path d="M119.758 103.437C119.782 103.371 119.846 103.324 119.92 103.317C120.44 103.263 120.834 103.146 121.181 103.045C121.52 102.934 121.769 102.761 121.975 102.613C122.386 102.326 122.557 101.98 122.529 101.896C122.503 101.816 122.155 101.65 121.597 101.696C121.321 101.723 121.009 101.842 120.671 102.033C120.327 102.211 119.997 102.541 119.7 102.974C119.658 103.035 119.585 103.07 119.509 103.063C118.947 103.01 118.414 103.121 119.176 103.56C119.405 104.418 119.578 103.92 119.758 103.437Z" fill="black"/>
<path d="M114.803 117.924C114.745 117.879 114.72 117.804 114.737 117.735C114.833 117.243 114.92 116.823 114.901 116.471C114.886 116.119 114.813 115.828 114.743 115.587C114.581 115.11 114.294 114.847 114.204 114.849C114.118 114.85 113.854 115.125 113.736 115.653C113.666 115.917 113.668 116.242 113.758 116.612C113.852 116.98 113.989 117.401 114.332 117.817C114.378 117.876 114.389 117.955 114.358 118.022C114.129 118.513 113.982 119.049 114.703 118.505C115.575 118.613 115.221 118.256 114.803 117.924Z" fill="black"/>
<path d="M126.343 127.832C126.283 127.874 126.203 127.878 126.139 127.844C125.678 127.621 125.288 127.447 124.939 127.361C124.591 127.276 124.285 127.278 124.032 127.276C123.524 127.296 123.185 127.493 123.16 127.578C123.137 127.659 123.331 127.983 123.821 128.243C124.063 128.384 124.387 128.459 124.775 128.478C125.163 128.498 125.617 128.461 126.115 128.248C126.185 128.22 126.266 128.231 126.323 128.278C126.747 128.625 127.237 128.906 126.889 128.08C127.223 127.286 126.779 127.525 126.343 127.832Z" fill="black"/>
</g>
</svg>
