<svg width="280" height="395" viewBox="0 0 280 395" fill="none" xmlns="http://www.w3.org/2000/svg">
<rect width="280" height="395" fill="#ffffff"/>
<g opacity="0.25">
<path d="M156.631 195.27L156.575 195.291C156.575 195.281 156.576 195.273 156.577 195.262C156.572 195.13 156.505 195 156.421 195.011C156.337 195.022 156.28 195.167 156.295 195.296C156.301 195.357 156.322 195.402 156.348 195.434C156.186 195.371 155.965 195.372 155.721 195.404C155.493 195.455 155.245 195.544 155.057 195.668C154.872 195.798 154.76 195.929 154.703 196.054C154.679 196.103 154.633 196.145 154.581 196.161C154.436 196.203 154.295 196.296 154.191 196.438C154.044 196.627 154.046 196.887 154.156 197.07C154.373 197.417 154.826 197.438 155.109 197.211C155.179 197.151 155.232 197.078 155.267 196.996C155.286 196.947 155.331 196.917 155.384 196.916C155.511 196.91 155.647 196.864 155.796 196.756C155.946 196.658 156.096 196.536 156.224 196.388C156.356 196.263 156.468 196.104 156.537 195.965C156.539 196.004 156.553 196.051 156.585 196.105C156.651 196.219 156.756 196.317 156.804 196.29C156.852 196.262 156.838 196.117 156.781 196C156.776 195.991 156.772 195.985 156.767 195.977C156.783 195.974 156.799 195.972 156.815 195.967C157.019 195.911 157.175 195.741 157.155 195.537C157.138 195.345 156.896 195.199 156.631 195.27Z" fill="black"/>
<path d="M151.887 200.327L151.855 200.377C151.849 200.368 151.845 200.362 151.839 200.353C151.754 200.25 151.62 200.186 151.56 200.245C151.5 200.303 151.543 200.453 151.635 200.547C151.678 200.591 151.722 200.615 151.763 200.625C151.595 200.671 151.419 200.802 151.244 200.973C151.094 201.149 150.951 201.367 150.878 201.577C150.81 201.791 150.801 201.962 150.832 202.095C150.843 202.149 150.832 202.209 150.801 202.253C150.712 202.372 150.656 202.53 150.66 202.705C150.659 202.943 150.821 203.148 151.022 203.229C151.408 203.377 151.781 203.125 151.868 202.777C151.887 202.687 151.883 202.597 151.861 202.512C151.846 202.461 151.864 202.41 151.905 202.378C152.003 202.298 152.083 202.181 152.136 202.006C152.195 201.839 152.24 201.653 152.25 201.459C152.279 201.281 152.27 201.088 152.24 200.936C152.265 200.966 152.306 200.995 152.363 201.019C152.487 201.071 152.63 201.088 152.652 201.037C152.674 200.986 152.573 200.879 152.455 200.819C152.446 200.815 152.439 200.813 152.43 200.809C152.441 200.797 152.452 200.787 152.462 200.774C152.59 200.608 152.61 200.38 152.469 200.229C152.337 200.085 152.055 200.113 151.887 200.327Z" fill="black"/>
<path d="M149.796 200.574L149.754 200.617C149.751 200.608 149.748 200.6 149.744 200.59C149.682 200.473 149.564 200.383 149.493 200.428C149.422 200.473 149.434 200.629 149.504 200.739C149.536 200.791 149.575 200.824 149.612 200.842C149.439 200.853 149.239 200.946 149.032 201.078C148.848 201.22 148.664 201.405 148.548 201.596C148.438 201.792 148.393 201.957 148.396 202.094C148.396 202.149 148.373 202.205 148.333 202.242C148.22 202.341 148.133 202.484 148.101 202.656C148.05 202.889 148.166 203.122 148.346 203.242C148.693 203.465 149.111 203.292 149.268 202.969C149.306 202.885 149.321 202.796 149.317 202.708C149.313 202.655 149.341 202.609 149.388 202.586C149.5 202.527 149.602 202.429 149.691 202.268C149.783 202.116 149.866 201.943 149.916 201.755C149.981 201.587 150.013 201.396 150.015 201.241C150.033 201.276 150.067 201.312 150.118 201.348C150.229 201.422 150.366 201.468 150.397 201.423C150.429 201.378 150.353 201.252 150.25 201.17C150.242 201.164 150.236 201.16 150.227 201.155C150.241 201.146 150.254 201.138 150.266 201.127C150.426 200.99 150.493 200.771 150.386 200.595C150.287 200.428 150.004 200.398 149.796 200.574Z" fill="black"/>
<path d="M160.612 195.766L160.56 195.766C160.564 195.757 160.567 195.75 160.571 195.74C160.611 195.615 160.599 195.469 160.538 195.451C160.473 195.434 160.393 195.541 160.347 195.665C160.327 195.722 160.321 195.771 160.328 195.811C160.136 195.57 159.759 195.307 159.364 195.191C159.17 195.133 158.992 195.129 158.864 195.163C158.812 195.176 158.747 195.168 158.702 195.133C158.581 195.041 158.415 194.982 158.224 194.995C157.969 195.001 157.747 195.177 157.691 195.377C157.594 195.769 157.851 196.112 158.179 196.179C158.265 196.194 158.355 196.197 158.439 196.175C158.49 196.164 158.54 196.177 158.576 196.217C158.665 196.314 158.784 196.386 158.986 196.446C159.37 196.56 159.947 196.559 160.244 196.367C160.224 196.402 160.213 196.45 160.218 196.512C160.226 196.642 160.311 196.784 160.383 196.775C160.459 196.77 160.503 196.629 160.488 196.499C160.486 196.489 160.485 196.482 160.482 196.473L160.538 196.483C160.791 196.51 161.006 196.359 161.015 196.159C161.023 195.961 160.844 195.792 160.612 195.766Z" fill="black"/>
<path d="M164.161 195.061L164.12 195.092C164.118 195.082 164.116 195.075 164.113 195.065C164.066 194.941 163.969 194.835 163.909 194.853C163.85 194.871 163.847 195.013 163.887 195.137C163.906 195.196 163.933 195.238 163.963 195.265C163.649 195.192 163.195 195.229 162.858 195.322C162.689 195.379 162.565 195.434 162.481 195.527C162.447 195.564 162.396 195.577 162.348 195.56C162.22 195.515 162.085 195.523 161.941 195.57C161.749 195.643 161.589 195.818 161.542 196.027C161.447 196.419 161.783 196.771 162.233 196.723C162.344 196.708 162.445 196.67 162.53 196.618C162.58 196.588 162.643 196.582 162.699 196.597C162.834 196.633 163.016 196.648 163.239 196.576C163.688 196.451 164.134 196.077 164.24 195.757C164.247 195.796 164.268 195.841 164.309 195.888C164.397 195.986 164.541 196.048 164.602 196C164.662 195.951 164.609 195.811 164.517 195.717C164.509 195.711 164.503 195.706 164.496 195.7L164.546 195.674C164.767 195.539 164.841 195.29 164.721 195.127C164.603 194.969 164.354 194.943 164.161 195.061Z" fill="black"/>
<path d="M164.585 192.106L164.558 192.15C164.552 192.141 164.548 192.135 164.541 192.126C164.454 192.026 164.325 191.96 164.275 191.997C164.226 192.034 164.273 192.168 164.355 192.271C164.394 192.319 164.434 192.35 164.471 192.365C164.151 192.404 163.738 192.592 163.455 192.793C163.316 192.905 163.219 192.999 163.173 193.114C163.154 193.161 163.11 193.19 163.06 193.191C162.924 193.191 162.8 193.245 162.681 193.338C162.526 193.472 162.438 193.689 162.467 193.902C162.517 194.302 162.956 194.518 163.361 194.321C163.459 194.269 163.541 194.199 163.603 194.121C163.639 194.076 163.696 194.049 163.754 194.044C163.893 194.032 164.07 193.985 164.253 193.841C164.631 193.572 164.918 193.068 164.904 192.733C164.925 192.768 164.96 192.803 165.015 192.832C165.133 192.895 165.289 192.904 165.329 192.838C165.369 192.772 165.269 192.658 165.15 192.601C165.14 192.598 165.134 192.596 165.124 192.592L165.162 192.55C165.322 192.349 165.304 192.091 165.134 191.979C164.968 191.87 164.725 191.93 164.585 192.106Z" fill="black"/>
<path d="M166.875 192.511L166.849 192.555C166.843 192.547 166.838 192.541 166.831 192.533C166.738 192.441 166.601 192.381 166.554 192.424C166.507 192.466 166.565 192.598 166.655 192.694C166.697 192.739 166.739 192.766 166.778 192.779C166.462 192.843 166.054 193.077 165.794 193.34C165.652 193.477 165.577 193.61 165.546 193.733C165.533 193.783 165.495 193.824 165.445 193.839C165.31 193.879 165.189 193.966 165.098 194.094C164.978 194.272 164.959 194.509 165.052 194.702C165.225 195.069 165.704 195.141 166.022 194.861C166.098 194.791 166.155 194.709 166.192 194.622C166.214 194.57 166.26 194.533 166.315 194.52C166.447 194.49 166.588 194.408 166.741 194.261C167.049 193.95 167.281 193.444 167.24 193.11C167.264 193.143 167.302 193.175 167.359 193.2C167.481 193.253 167.636 193.251 167.67 193.183C167.703 193.116 167.599 193.012 167.474 192.962C167.464 192.96 167.456 192.958 167.447 192.955L167.484 192.912C167.621 192.698 167.589 192.443 167.413 192.345C167.238 192.246 166.996 192.321 166.875 192.511Z" fill="black"/>
<path d="M152.693 196.759L152.678 196.807C152.67 196.801 152.664 196.797 152.655 196.79C152.542 196.722 152.395 196.696 152.36 196.748C152.324 196.8 152.412 196.915 152.523 196.988C152.575 197.022 152.622 197.038 152.663 197.041C152.372 197.177 152.031 197.499 151.842 197.815C151.737 197.982 151.695 198.127 151.695 198.255C151.695 198.306 151.668 198.355 151.623 198.381C151.501 198.451 151.405 198.564 151.348 198.709C151.273 198.91 151.312 199.145 151.449 199.311C151.705 199.627 152.189 199.585 152.43 199.24C152.487 199.154 152.523 199.061 152.537 198.968C152.546 198.913 152.582 198.865 152.633 198.841C152.754 198.78 152.871 198.669 152.983 198.489C153.208 198.117 153.312 197.571 153.191 197.256C153.223 197.282 153.268 197.305 153.329 197.315C153.46 197.339 153.61 197.301 153.626 197.227C153.643 197.153 153.517 197.077 153.383 197.058C153.373 197.057 153.365 197.057 153.355 197.057L153.381 197.007C153.463 196.766 153.37 196.527 153.176 196.472C152.981 196.417 152.764 196.545 152.693 196.759Z" fill="black"/>
<path d="M168.029 189.064L168.031 189.115C168.022 189.112 168.015 189.109 168.004 189.105C167.875 189.072 167.729 189.09 167.711 189.15C167.692 189.21 167.81 189.296 167.937 189.333C167.997 189.351 168.047 189.352 168.087 189.344C167.85 189.558 167.623 189.97 167.535 190.321C167.487 190.499 167.493 190.643 167.523 190.76C167.536 190.808 167.524 190.86 167.488 190.895C167.396 190.99 167.318 191.109 167.303 191.261C167.279 191.466 167.36 191.684 167.533 191.823C167.841 192.082 168.321 191.95 168.476 191.542C168.517 191.443 168.533 191.341 168.521 191.243C168.516 191.186 168.539 191.129 168.582 191.091C168.689 190.998 168.771 190.851 168.828 190.636C168.935 190.21 168.866 189.662 168.656 189.396C168.694 189.413 168.744 189.421 168.806 189.414C168.939 189.398 169.072 189.32 169.066 189.245C169.058 189.17 168.912 189.133 168.78 189.153C168.771 189.156 168.763 189.158 168.754 189.16L168.761 189.105C168.776 188.853 168.612 188.65 168.408 188.652C168.207 188.653 168.042 188.838 168.029 189.064Z" fill="black"/>
<path d="M170.47 177.926L170.427 177.955C170.425 177.945 170.423 177.937 170.422 177.927C170.383 177.801 170.292 177.688 170.23 177.705C170.168 177.72 170.155 177.863 170.188 177.989C170.205 178.048 170.229 178.092 170.257 178.12C169.947 178.034 169.471 178.057 169.121 178.167C168.941 178.22 168.819 178.299 168.733 178.386C168.698 178.422 168.646 178.439 168.598 178.427C168.467 178.399 168.323 178.396 168.183 178.463C167.992 178.55 167.845 178.731 167.815 178.948C167.75 179.342 168.115 179.675 168.55 179.593C168.658 179.576 168.754 179.535 168.834 179.475C168.88 179.44 168.942 179.43 168.997 179.446C169.133 179.487 169.305 179.479 169.521 179.415C169.947 179.283 170.387 178.94 170.509 178.625C170.514 178.665 170.533 178.711 170.571 178.759C170.654 178.863 170.792 178.933 170.854 178.889C170.914 178.843 170.871 178.702 170.785 178.602C170.777 178.595 170.772 178.59 170.765 178.584L170.816 178.561C171.043 178.442 171.134 178.199 171.026 178.028C170.92 177.861 170.674 177.819 170.47 177.926Z" fill="black"/>
<path d="M167.688 185.226V185.284C167.678 185.28 167.671 185.278 167.661 185.273C167.533 185.238 167.384 185.26 167.366 185.339C167.353 185.417 167.479 185.513 167.61 185.54C167.671 185.553 167.721 185.549 167.76 185.535C167.524 185.789 167.431 186.36 167.515 186.769C167.553 186.976 167.626 187.118 167.713 187.209C167.749 187.246 167.764 187.3 167.75 187.349C167.71 187.484 167.714 187.609 167.769 187.756C167.847 187.951 168.034 188.102 168.248 188.14C168.652 188.214 168.993 187.874 168.935 187.445C168.918 187.339 168.882 187.235 168.826 187.16C168.793 187.115 168.786 187.056 168.805 187.004C168.852 186.876 168.86 186.724 168.825 186.53C168.75 186.155 168.548 185.759 168.332 185.531C168.371 185.543 168.421 185.545 168.482 185.533C168.613 185.507 168.737 185.438 168.723 185.381C168.714 185.324 168.57 185.292 168.438 185.31C168.427 185.312 168.42 185.314 168.411 185.316C168.414 185.3 168.418 185.285 168.42 185.268C168.43 185.053 168.3 184.853 168.103 184.817C167.902 184.781 167.701 184.962 167.688 185.226Z" fill="black"/>
<path d="M166.285 183.634L166.267 183.69C166.26 183.683 166.254 183.678 166.245 183.671C166.134 183.599 165.986 183.576 165.944 183.645C165.907 183.716 165.998 183.844 166.114 183.91C166.168 183.941 166.217 183.952 166.258 183.95C165.955 184.121 165.688 184.637 165.64 185.052C165.613 185.259 165.638 185.417 165.692 185.53C165.715 185.576 165.713 185.632 165.684 185.675C165.604 185.791 165.568 185.911 165.575 186.068C165.588 186.276 165.72 186.477 165.911 186.577C166.273 186.769 166.704 186.548 166.782 186.122C166.799 186.016 166.797 185.906 166.767 185.818C166.75 185.765 166.761 185.706 166.795 185.663C166.88 185.555 166.936 185.413 166.961 185.218C167.008 184.838 166.939 184.4 166.804 184.119C166.837 184.141 166.885 184.158 166.946 184.166C167.078 184.18 167.218 184.151 167.223 184.093C167.232 184.036 167.105 183.963 166.974 183.939C166.963 183.939 166.956 183.938 166.946 183.937C166.954 183.923 166.963 183.91 166.969 183.894C167.045 183.693 166.985 183.464 166.809 183.37C166.629 183.275 166.38 183.387 166.285 183.634Z" fill="black"/>
<path d="M169.495 181.611L169.461 181.656C169.456 181.647 169.452 181.641 169.447 181.631C169.369 181.524 169.242 181.448 169.183 181.493C169.125 181.539 169.159 181.686 169.238 181.791C169.276 181.84 169.316 181.87 169.354 181.885C169.016 181.917 168.559 182.233 168.316 182.606C168.195 182.796 168.134 182.953 168.142 183.098C168.144 183.155 168.119 183.213 168.074 183.249C167.952 183.346 167.851 183.491 167.827 183.677C167.78 183.924 167.889 184.161 168.084 184.27C168.44 184.459 168.856 184.287 168.989 183.984C169.026 183.905 169.048 183.823 169.046 183.739C169.046 183.689 169.073 183.644 169.117 183.621C169.218 183.563 169.336 183.473 169.433 183.318C169.628 183.018 169.79 182.572 169.785 182.255C169.806 182.289 169.842 182.323 169.896 182.354C170.012 182.419 170.158 182.443 170.19 182.387C170.223 182.331 170.133 182.215 170.02 182.147C170.011 182.143 170.004 182.14 169.995 182.136L170.033 182.1C170.185 181.927 170.217 181.69 170.071 181.546C169.932 181.408 169.661 181.423 169.495 181.611Z" fill="black"/>
<path d="M172.093 178.616L172.054 178.657C172.05 178.648 172.047 178.641 172.043 178.631C171.977 178.517 171.858 178.429 171.795 178.468C171.732 178.508 171.751 178.658 171.82 178.77C171.852 178.822 171.889 178.856 171.925 178.875C171.585 178.874 171.099 179.143 170.819 179.49C170.679 179.667 170.602 179.817 170.596 179.962C170.591 180.02 170.561 180.075 170.512 180.107C170.381 180.191 170.266 180.325 170.223 180.508C170.151 180.749 170.235 180.995 170.419 181.123C170.754 181.346 171.185 181.216 171.348 180.927C171.393 180.852 171.423 180.773 171.43 180.689C171.435 180.64 171.467 180.598 171.513 180.579C171.619 180.531 171.745 180.453 171.858 180.309C172.083 180.029 172.289 179.601 172.317 179.285C172.334 179.321 172.366 179.359 172.417 179.394C172.525 179.471 172.668 179.508 172.706 179.456C172.744 179.404 172.667 179.279 172.561 179.201C172.552 179.196 172.546 179.192 172.537 179.187L172.579 179.156C172.747 178.998 172.804 178.765 172.673 178.607C172.548 178.456 172.278 178.445 172.093 178.616Z" fill="black"/>
<path d="M158.767 197.275L158.708 197.275C158.712 197.266 158.716 197.259 158.72 197.249C158.762 197.124 158.744 196.978 158.663 196.959C158.589 196.942 158.493 197.061 158.462 197.188C158.447 197.248 158.449 197.297 158.461 197.336C158.224 197.106 157.719 196.964 157.308 196.999C157.1 197.015 156.948 197.076 156.844 197.155C156.801 197.189 156.744 197.202 156.691 197.187C156.551 197.144 156.386 197.153 156.224 197.227C156.004 197.328 155.864 197.555 155.889 197.767C155.953 198.162 156.295 198.404 156.619 198.348C156.704 198.333 156.78 198.296 156.849 198.248C156.89 198.22 156.942 198.216 156.986 198.238C157.096 198.294 157.234 198.317 157.418 198.303C157.78 198.272 158.216 198.109 158.444 197.897C158.431 197.935 158.427 197.984 158.437 198.044C158.457 198.174 158.521 198.3 158.577 198.289C158.628 198.28 158.662 198.139 158.653 198.01C158.651 198 158.65 197.993 158.648 197.983C158.663 197.987 158.677 197.99 158.692 197.992C158.749 197.995 158.77 197.993 158.814 197.98C158.869 197.972 158.921 197.956 158.966 197.932C159.057 197.883 159.122 197.805 159.142 197.707C159.163 197.61 159.136 197.513 159.078 197.434C159.048 197.395 159.011 197.361 158.968 197.333C158.913 197.306 158.826 197.278 158.767 197.275Z" fill="black"/>
<path d="M154.788 198.351L154.752 198.397C154.747 198.388 154.743 198.382 154.738 198.372C154.662 198.264 154.533 198.189 154.468 198.241C154.41 198.289 154.448 198.436 154.532 198.537C154.572 198.585 154.613 198.613 154.651 198.627C154.322 198.673 153.901 198.982 153.681 199.325C153.567 199.497 153.525 199.652 153.526 199.782C153.528 199.836 153.504 199.888 153.459 199.92C153.339 200.004 153.246 200.139 153.209 200.31C153.158 200.542 153.257 200.789 153.444 200.898C153.802 201.087 154.205 200.967 154.356 200.679C154.395 200.604 154.412 200.523 154.415 200.439C154.416 200.391 154.445 200.348 154.49 200.326C154.602 200.275 154.703 200.18 154.804 200.028C154.998 199.726 155.13 199.287 155.096 198.981C155.119 199.013 155.157 199.046 155.211 199.075C155.329 199.138 155.469 199.164 155.495 199.114C155.518 199.069 155.425 198.957 155.314 198.886C155.305 198.881 155.298 198.878 155.29 198.873C155.301 198.864 155.313 198.855 155.323 198.844C155.36 198.802 155.371 198.784 155.387 198.741C155.415 198.693 155.432 198.643 155.44 198.594C155.456 198.493 155.432 198.395 155.365 198.32C155.299 198.245 155.204 198.207 155.105 198.205C155.055 198.204 155.005 198.212 154.957 198.23C154.901 198.255 154.827 198.307 154.788 198.351Z" fill="black"/>
<path d="M162.396 197.471C162.379 197.474 162.363 197.479 162.347 197.484C162.349 197.474 162.35 197.466 162.352 197.456C162.358 197.325 162.313 197.187 162.251 197.184C162.19 197.179 162.131 197.306 162.121 197.436C162.116 197.497 162.124 197.546 162.14 197.582C161.89 197.391 161.448 197.267 161.09 197.263C160.907 197.258 160.771 197.294 160.665 197.359C160.622 197.387 160.57 197.385 160.528 197.359C160.415 197.288 160.28 197.256 160.13 197.283C159.927 197.312 159.743 197.456 159.661 197.657C159.505 198.025 159.754 198.429 160.163 198.465C160.264 198.474 160.361 198.46 160.449 198.429C160.5 198.41 160.557 198.421 160.603 198.449C160.713 198.521 160.868 198.566 161.079 198.571C161.496 198.577 161.994 198.39 162.204 198.141C162.196 198.18 162.199 198.229 162.218 198.288C162.259 198.412 162.359 198.528 162.428 198.506C162.497 198.482 162.503 198.335 162.459 198.212C162.454 198.203 162.451 198.197 162.447 198.188L162.5 198.184C162.74 198.146 162.903 197.956 162.862 197.762C162.822 197.567 162.613 197.437 162.396 197.471Z" fill="black"/>
<path d="M150.22 197.343C150.213 197.358 150.209 197.374 150.204 197.389C150.196 197.383 150.191 197.378 150.182 197.371C150.074 197.295 149.931 197.258 149.895 197.307C149.858 197.355 149.935 197.472 150.041 197.551C150.091 197.587 150.137 197.607 150.177 197.614C149.878 197.718 149.533 198.016 149.336 198.31C149.233 198.458 149.19 198.591 149.189 198.713C149.19 198.763 149.159 198.805 149.114 198.826C148.992 198.881 148.892 198.976 148.834 199.114C148.75 199.297 148.774 199.528 148.902 199.704C149.133 200.031 149.614 200.044 149.866 199.725C149.928 199.647 149.969 199.559 149.988 199.47C150 199.417 150.041 199.375 150.09 199.353C150.21 199.3 150.333 199.197 150.451 199.026C150.681 198.683 150.789 198.171 150.69 197.862C150.719 197.89 150.763 197.915 150.823 197.931C150.952 197.964 151.105 197.943 151.123 197.875C151.14 197.805 151.018 197.72 150.889 197.691C150.878 197.69 150.871 197.689 150.862 197.688L150.887 197.641C150.984 197.422 150.909 197.186 150.72 197.114C150.532 197.042 150.307 197.144 150.22 197.343Z" fill="black"/>
<path d="M165.732 196.245C165.717 196.254 165.705 196.264 165.692 196.275C165.689 196.265 165.687 196.258 165.685 196.248C165.635 196.126 165.536 196.018 165.478 196.039C165.42 196.06 165.422 196.205 165.468 196.328C165.49 196.386 165.518 196.427 165.548 196.453C165.234 196.374 164.784 196.449 164.456 196.586C164.293 196.665 164.179 196.741 164.11 196.842C164.082 196.882 164.035 196.905 163.986 196.898C163.857 196.886 163.72 196.905 163.593 196.984C163.423 197.093 163.315 197.304 163.319 197.514C163.325 197.919 163.715 198.182 164.11 198.057C164.208 198.03 164.291 197.974 164.357 197.908C164.396 197.868 164.452 197.852 164.506 197.861C164.637 197.882 164.804 197.874 164.994 197.782C165.381 197.621 165.75 197.241 165.841 196.936C165.85 196.975 165.873 197.02 165.915 197.064C166.004 197.16 166.141 197.22 166.194 197.172C166.247 197.124 166.192 196.988 166.099 196.894C166.091 196.887 166.085 196.882 166.078 196.876L166.126 196.852C166.332 196.726 166.398 196.486 166.279 196.321C166.163 196.162 165.92 196.13 165.732 196.245Z" fill="black"/>
<path d="M168.352 193.837C168.342 193.851 168.335 193.865 168.327 193.88C168.321 193.872 168.316 193.866 168.31 193.857C168.219 193.761 168.087 193.697 168.041 193.737C167.997 193.779 168.047 193.908 168.135 194.007C168.176 194.052 168.217 194.081 168.255 194.095C168.095 194.114 167.916 194.182 167.75 194.279C167.576 194.371 167.41 194.487 167.288 194.618C167.159 194.747 167.085 194.866 167.06 194.986C167.049 195.034 167.014 195.074 166.967 195.087C166.841 195.126 166.72 195.196 166.634 195.319C166.518 195.484 166.506 195.724 166.597 195.916C166.769 196.284 167.227 196.367 167.539 196.107C167.617 196.044 167.672 195.964 167.705 195.877C167.725 195.827 167.77 195.79 167.823 195.779C167.951 195.751 168.095 195.678 168.242 195.531C168.382 195.382 168.511 195.192 168.598 194.999C168.678 194.799 168.72 194.599 168.707 194.44C168.73 194.474 168.767 194.506 168.823 194.534C168.942 194.592 169.098 194.603 169.127 194.537C169.158 194.473 169.056 194.366 168.935 194.311C168.925 194.308 168.918 194.306 168.909 194.303L168.944 194.262C169.085 194.068 169.061 193.823 168.891 193.714C168.722 193.605 168.48 193.66 168.352 193.837Z" fill="black"/>
<path d="M169.817 190.645C169.813 190.662 169.812 190.677 169.81 190.694C169.801 190.689 169.795 190.685 169.785 190.68C169.664 190.629 169.515 190.623 169.488 190.677C169.461 190.732 169.565 190.831 169.686 190.886C169.743 190.911 169.792 190.921 169.833 190.919C169.566 191.084 169.294 191.448 169.162 191.773C169.101 191.941 169.083 192.077 169.104 192.194C169.113 192.242 169.096 192.291 169.057 192.321C168.955 192.401 168.876 192.512 168.842 192.655C168.799 192.85 168.878 193.075 169.033 193.22C169.33 193.501 169.793 193.413 169.982 193.051C170.033 192.964 170.047 192.865 170.047 192.773C170.047 192.718 170.075 192.668 170.12 192.636C170.231 192.562 170.335 192.437 170.406 192.241C170.561 191.858 170.555 191.334 170.388 191.054C170.423 191.075 170.471 191.09 170.533 191.092C170.666 191.098 170.808 191.044 170.811 190.973C170.815 190.903 170.679 190.846 170.545 190.844C170.534 190.845 170.527 190.846 170.517 190.847L170.534 190.796C170.584 190.563 170.451 190.347 170.253 190.316C170.051 190.284 169.862 190.433 169.817 190.645Z" fill="black"/>
<path d="M169.875 187.124C169.878 187.141 169.883 187.156 169.887 187.172C169.877 187.17 169.87 187.169 169.859 187.168C169.727 187.165 169.586 187.213 169.582 187.274C169.578 187.336 169.713 187.391 169.846 187.398C169.908 187.4 169.957 187.391 169.994 187.374C169.809 187.627 169.698 188.071 169.709 188.424C169.721 188.605 169.755 188.738 169.825 188.838C169.853 188.879 169.858 188.931 169.834 188.974C169.775 189.088 169.74 189.222 169.773 189.367C169.82 189.565 169.972 189.738 170.179 189.809C170.562 189.946 170.959 189.682 170.977 189.278C170.984 189.178 170.967 189.083 170.926 188.999C170.903 188.95 170.907 188.893 170.936 188.847C171.004 188.736 171.054 188.582 171.04 188.376C171.027 187.969 170.821 187.493 170.56 187.295C170.601 187.302 170.651 187.298 170.71 187.278C170.835 187.234 170.946 187.134 170.923 187.068C170.9 187.001 170.751 186.998 170.627 187.045C170.617 187.05 170.611 187.053 170.602 187.057L170.599 187.005C170.565 186.8 170.393 186.648 170.189 186.655C169.988 186.662 169.835 186.879 169.875 187.124Z" fill="black"/>
<path d="M170.266 183.307L170.251 183.36C170.243 183.354 170.237 183.349 170.228 183.342C170.116 183.271 169.97 183.246 169.932 183.312C169.894 183.378 169.982 183.503 170.097 183.567C170.152 183.597 170.2 183.609 170.242 183.609C169.953 183.769 169.675 184.235 169.618 184.642C169.587 184.848 169.611 185.006 169.669 185.123C169.693 185.171 169.691 185.229 169.664 185.275C169.594 185.398 169.559 185.552 169.595 185.715C169.639 185.937 169.817 186.113 170.029 186.16C170.429 186.243 170.777 185.961 170.797 185.616C170.803 185.528 170.787 185.443 170.753 185.366C170.732 185.32 170.743 185.269 170.775 185.231C170.853 185.137 170.909 185.01 170.936 184.834C170.985 184.486 170.934 184.055 170.787 183.779C170.82 183.802 170.867 183.819 170.929 183.827C171.061 183.843 171.203 183.819 171.209 183.764C171.215 183.709 171.086 183.635 170.956 183.612C170.946 183.611 170.939 183.61 170.929 183.609C170.936 183.595 170.944 183.582 170.949 183.567C171.027 183.379 170.955 183.158 170.782 183.063C170.602 182.963 170.362 183.072 170.266 183.307Z" fill="black"/>
<path d="M161.766 199.583L161.713 199.586C161.716 199.577 161.719 199.57 161.722 199.56C161.754 199.432 161.732 199.288 161.669 199.273C161.606 199.262 161.52 199.378 161.484 199.502C161.467 199.56 161.466 199.61 161.476 199.649C161.373 199.536 161.222 199.432 161.056 199.351C160.973 199.306 160.888 199.26 160.801 199.224C160.754 199.207 160.711 199.191 160.669 199.175L160.603 199.155C160.551 199.143 160.5 199.132 160.451 199.121C160.401 199.119 160.353 199.118 160.306 199.116C160.105 199.111 159.951 199.144 159.836 199.206C159.788 199.232 159.73 199.233 159.684 199.207C159.558 199.138 159.409 199.106 159.247 199.13C159.028 199.163 158.837 199.308 158.751 199.507C158.583 199.876 158.869 200.28 159.307 200.316C159.415 200.325 159.518 200.311 159.61 200.277C159.664 200.258 159.726 200.265 159.774 200.296C159.891 200.37 160.052 200.419 160.275 200.424C160.317 200.425 160.319 200.425 160.322 200.423L160.324 200.42C160.332 200.421 160.286 200.412 160.317 200.416L160.401 200.424C160.455 200.426 160.511 200.428 160.57 200.431C160.683 200.431 160.794 200.427 160.901 200.41C161.116 200.368 161.306 200.299 161.434 200.209C161.418 200.246 161.41 200.295 161.419 200.356C161.438 200.489 161.525 200.619 161.604 200.605C161.682 200.594 161.718 200.451 161.693 200.322C161.69 200.313 161.688 200.306 161.685 200.297L161.743 200.302C162.009 200.312 162.216 200.148 162.207 199.945C162.199 199.75 162.001 199.591 161.766 199.583Z" fill="black"/>
<path d="M165.5 198.746L165.454 198.773C165.452 198.764 165.451 198.756 165.45 198.746C165.418 198.618 165.33 198.5 165.266 198.518C165.2 198.532 165.178 198.674 165.206 198.803C165.219 198.862 165.242 198.906 165.27 198.936C164.954 198.836 164.46 198.865 164.091 198.972C163.903 199.024 163.774 199.104 163.685 199.197C163.648 199.233 163.595 199.249 163.543 199.236C163.407 199.2 163.26 199.215 163.113 199.279C162.915 199.359 162.766 199.553 162.736 199.768C162.674 200.167 163.048 200.482 163.492 200.405C163.6 200.382 163.699 200.34 163.78 200.283C163.828 200.25 163.891 200.241 163.948 200.257C164.085 200.294 164.258 200.285 164.479 200.224C164.912 200.098 165.362 199.756 165.503 199.449C165.506 199.489 165.523 199.536 165.56 199.585C165.64 199.691 165.776 199.768 165.84 199.726C165.902 199.681 165.866 199.538 165.784 199.435C165.776 199.428 165.771 199.423 165.764 199.416L165.818 199.395C166.05 199.28 166.16 199.045 166.064 198.87C165.967 198.696 165.715 198.64 165.5 198.746Z" fill="black"/>
<path d="M171.491 196.433L171.469 196.482C171.462 196.475 171.457 196.469 171.45 196.461C171.349 196.374 171.209 196.327 171.166 196.377C171.12 196.426 171.185 196.555 171.282 196.645C171.327 196.686 171.372 196.709 171.412 196.719C171.094 196.813 170.705 197.113 170.464 197.408C170.338 197.555 170.28 197.694 170.26 197.819C170.251 197.869 170.216 197.912 170.166 197.93C170.033 197.977 169.921 198.072 169.838 198.206C169.721 198.383 169.711 198.626 169.811 198.82C169.991 199.183 170.482 199.232 170.801 198.92C170.878 198.841 170.934 198.751 170.968 198.659C170.988 198.605 171.035 198.562 171.091 198.544C171.224 198.498 171.362 198.394 171.508 198.22C171.791 197.874 171.963 197.342 171.901 197.011C171.927 197.042 171.968 197.071 172.027 197.09C172.154 197.133 172.31 197.12 172.338 197.049C172.364 196.978 172.251 196.881 172.124 196.842C172.113 196.84 172.106 196.839 172.097 196.837L172.128 196.79C172.253 196.565 172.207 196.31 172.027 196.221C171.846 196.131 171.606 196.226 171.491 196.433Z" fill="black"/>
<path d="M168.693 196.525L168.656 196.566C168.652 196.557 168.649 196.55 168.644 196.54C168.573 196.429 168.453 196.344 168.395 196.381C168.339 196.419 168.363 196.563 168.43 196.675C168.462 196.727 168.499 196.762 168.534 196.781C168.199 196.783 167.735 196.98 167.421 197.219C167.264 197.344 167.163 197.456 167.115 197.578C167.095 197.626 167.051 197.663 166.999 197.673C166.861 197.7 166.72 197.76 166.609 197.88C166.459 198.043 166.401 198.281 166.464 198.484C166.581 198.873 167.05 199.007 167.413 198.768C167.505 198.711 167.576 198.636 167.626 198.551C167.655 198.502 167.708 198.469 167.765 198.463C167.902 198.446 168.066 198.389 168.239 198.251C168.588 197.987 168.886 197.525 168.922 197.195C168.938 197.232 168.97 197.27 169.021 197.306C169.131 197.382 169.282 197.412 169.326 197.352C169.37 197.292 169.29 197.167 169.18 197.094C169.171 197.089 169.164 197.086 169.155 197.082L169.199 197.046C169.384 196.87 169.416 196.614 169.271 196.476C169.126 196.336 168.867 196.359 168.693 196.525Z" fill="black"/>
<path d="M171.033 193.481L171.015 193.531C171.008 193.524 171.002 193.518 170.994 193.511C170.887 193.433 170.743 193.396 170.705 193.448C170.667 193.501 170.743 193.625 170.845 193.706C170.894 193.744 170.94 193.764 170.981 193.77C170.667 193.884 170.308 194.206 170.08 194.515C169.968 194.675 169.917 194.817 169.901 194.942C169.896 194.993 169.864 195.04 169.816 195.063C169.69 195.125 169.581 195.228 169.505 195.371C169.405 195.567 169.421 195.813 169.54 195.991C169.766 196.33 170.25 196.326 170.533 195.999C170.604 195.919 170.647 195.823 170.673 195.729C170.688 195.673 170.73 195.627 170.783 195.605C170.916 195.554 171.046 195.443 171.176 195.26C171.439 194.902 171.573 194.35 171.49 194.026C171.518 194.055 171.561 194.081 171.622 194.096C171.753 194.13 171.908 194.104 171.927 194.029C171.948 193.954 171.828 193.866 171.697 193.838C171.687 193.837 171.679 193.836 171.67 193.835L171.698 193.785C171.813 193.552 171.735 193.297 171.546 193.225C171.358 193.153 171.137 193.271 171.033 193.481Z" fill="black"/>
<path d="M171.907 189.758L171.908 189.813C171.899 189.809 171.892 189.806 171.882 189.802C171.753 189.765 171.606 189.781 171.586 189.847C171.567 189.913 171.684 190.005 171.811 190.044C171.871 190.061 171.921 190.063 171.961 190.054C171.715 190.277 171.512 190.737 171.442 191.118C171.412 191.314 171.421 191.464 171.465 191.583C171.484 191.632 171.477 191.688 171.444 191.729C171.361 191.84 171.297 191.974 171.298 192.135C171.302 192.353 171.406 192.562 171.595 192.678C171.938 192.896 172.394 192.693 172.499 192.27C172.528 192.166 172.531 192.062 172.51 191.966C172.498 191.909 172.515 191.85 172.553 191.807C172.647 191.704 172.722 191.55 172.756 191.334C172.834 190.905 172.732 190.372 172.531 190.105C172.568 190.122 172.618 190.129 172.68 190.122C172.812 190.106 172.945 190.029 172.939 189.956C172.933 189.883 172.789 189.843 172.657 189.861C172.647 189.864 172.639 189.866 172.63 189.868C172.634 189.85 172.637 189.832 172.638 189.813C172.655 189.564 172.504 189.353 172.302 189.342C172.1 189.331 171.923 189.517 171.907 189.758Z" fill="black"/>
<path d="M171.587 185.896C171.59 185.915 171.595 185.933 171.6 185.951C171.59 185.949 171.582 185.948 171.571 185.946C171.438 185.937 171.298 185.986 171.296 186.059C171.294 186.131 171.431 186.198 171.564 186.206C171.627 186.209 171.675 186.198 171.712 186.179C171.529 186.46 171.461 186.981 171.527 187.38C171.56 187.583 171.624 187.726 171.708 187.826C171.743 187.867 171.755 187.922 171.739 187.972C171.694 188.105 171.693 188.256 171.743 188.393C171.779 188.497 171.835 188.541 171.911 188.629C171.985 188.71 172.079 188.771 172.185 188.801C172.382 188.857 172.572 188.81 172.716 188.696C172.789 188.646 172.846 188.557 172.883 188.444C172.917 188.344 172.933 188.229 172.92 188.123C172.908 188.013 172.873 187.915 172.822 187.833C172.792 187.784 172.788 187.723 172.808 187.672C172.86 187.545 172.877 187.382 172.843 187.173C172.775 186.76 172.537 186.299 172.277 186.092C172.317 186.098 172.368 186.094 172.426 186.072C172.551 186.025 172.661 185.924 172.638 185.859C172.614 185.794 172.466 185.788 172.341 185.834C172.331 185.838 172.325 185.841 172.316 185.846L172.313 185.792C172.277 185.554 172.093 185.383 171.891 185.403C171.69 185.422 171.549 185.648 171.587 185.896Z" fill="black"/>
<path d="M154.658 193.518C154.653 193.532 154.651 193.547 154.649 193.562C154.64 193.557 154.634 193.552 154.625 193.546C154.507 193.482 154.368 193.456 154.335 193.498C154.301 193.539 154.389 193.645 154.498 193.72C154.549 193.754 154.596 193.772 154.636 193.777C154.357 193.89 153.999 194.133 153.786 194.403C153.669 194.537 153.606 194.661 153.59 194.782C153.583 194.831 153.552 194.873 153.505 194.889C153.374 194.928 153.258 195.01 153.178 195.14C153.074 195.32 153.058 195.552 153.161 195.742C153.349 196.096 153.825 196.17 154.124 195.877C154.199 195.807 154.254 195.724 154.288 195.638C154.306 195.585 154.349 195.543 154.403 195.526C154.532 195.485 154.675 195.396 154.819 195.229C155.096 194.887 155.276 194.339 155.158 194.008C155.188 194.036 155.232 194.059 155.293 194.072C155.424 194.099 155.58 194.058 155.601 193.98C155.62 193.9 155.487 193.82 155.356 193.806H155.329L155.351 193.752C155.441 193.498 155.315 193.258 155.112 193.227C154.915 193.198 154.725 193.33 154.658 193.518Z" fill="black"/>
<path d="M154.403 189.94L154.411 189.993C154.401 189.991 154.394 189.989 154.383 189.986C154.251 189.967 154.107 190.003 154.098 190.073C154.088 190.144 154.221 190.217 154.353 190.234C154.415 190.241 154.465 190.235 154.503 190.219C154.29 190.456 154.2 191.016 154.288 191.411C154.331 191.613 154.4 191.741 154.49 191.832C154.527 191.87 154.541 191.921 154.526 191.968C154.488 192.095 154.492 192.233 154.547 192.361C154.627 192.537 154.797 192.672 155.017 192.723C155.216 192.767 155.406 192.72 155.537 192.591C155.673 192.461 155.743 192.256 155.711 192.044C155.696 191.939 155.654 191.849 155.6 191.771C155.568 191.725 155.561 191.667 155.579 191.618C155.624 191.497 155.633 191.337 155.595 191.153C155.514 190.785 155.313 190.405 155.073 190.176C155.113 190.185 155.163 190.184 155.223 190.167C155.351 190.132 155.468 190.046 155.452 189.985C155.436 189.923 155.288 189.906 155.159 189.939C155.15 189.942 155.142 189.945 155.134 189.948L155.135 189.898C155.12 189.672 154.954 189.494 154.751 189.498C154.549 189.502 154.387 189.701 154.403 189.94Z" fill="black"/>
<path d="M154.966 186.086L154.948 186.139C154.941 186.132 154.935 186.127 154.927 186.12C154.817 186.045 154.671 186.015 154.63 186.078C154.59 186.141 154.672 186.268 154.784 186.339C154.837 186.372 154.884 186.386 154.925 186.387C154.633 186.536 154.314 186.994 154.242 187.416C154.194 187.627 154.222 187.792 154.271 187.915C154.291 187.966 154.287 188.024 154.26 188.072C154.187 188.197 154.146 188.356 154.178 188.524C154.221 188.754 154.388 188.936 154.604 188.988C155 189.082 155.355 188.797 155.383 188.448C155.392 188.359 155.378 188.274 155.345 188.194C155.326 188.147 155.337 188.096 155.372 188.058C155.459 187.968 155.509 187.839 155.55 187.665C155.608 187.316 155.596 186.876 155.462 186.584C155.493 186.609 155.54 186.629 155.601 186.639C155.733 186.661 155.877 186.64 155.888 186.581C155.898 186.523 155.773 186.444 155.644 186.416C155.633 186.415 155.626 186.414 155.617 186.413C155.624 186.399 155.633 186.385 155.64 186.37C155.721 186.169 155.668 185.942 155.486 185.847C155.311 185.755 155.061 185.855 154.966 186.086Z" fill="black"/>
<path d="M157.528 185.593L157.5 185.642C157.493 185.634 157.489 185.628 157.482 185.619C157.391 185.523 157.254 185.464 157.201 185.518C157.148 185.572 157.202 185.713 157.296 185.804C157.341 185.847 157.385 185.87 157.425 185.88C157.108 185.967 156.7 186.35 156.541 186.749C156.45 186.946 156.443 187.113 156.465 187.243C156.474 187.297 156.458 187.354 156.422 187.394C156.324 187.502 156.25 187.65 156.247 187.821C156.241 188.054 156.367 188.266 156.567 188.36C156.935 188.532 157.341 188.325 157.442 187.989C157.469 187.904 157.473 187.817 157.459 187.733C157.449 187.683 157.471 187.635 157.513 187.606C157.616 187.535 157.693 187.419 157.769 187.256C157.899 186.927 157.979 186.493 157.908 186.181C157.935 186.211 157.976 186.24 158.033 186.262C158.158 186.311 158.304 186.319 158.327 186.264C158.349 186.209 158.243 186.106 158.122 186.053C158.112 186.05 158.105 186.048 158.096 186.045C158.107 186.032 158.118 186.021 158.128 186.007C158.25 185.827 158.245 185.594 158.087 185.464C157.935 185.339 157.669 185.386 157.528 185.593Z" fill="black"/>
<path d="M157.52 183.09C157.505 183.101 157.492 183.114 157.479 183.127C157.476 183.117 157.473 183.11 157.47 183.099C157.415 182.98 157.306 182.881 157.24 182.914C157.175 182.947 157.181 183.097 157.239 183.214C157.267 183.269 157.3 183.307 157.334 183.329C156.999 183.296 156.508 183.516 156.203 183.806C156.05 183.963 155.968 184.11 155.939 184.239C155.925 184.291 155.893 184.343 155.842 184.367C155.709 184.434 155.58 184.545 155.513 184.709C155.422 184.933 155.459 185.174 155.618 185.331C155.91 185.609 156.359 185.554 156.567 185.287C156.623 185.22 156.658 185.143 156.675 185.06C156.686 185.012 156.719 184.973 156.771 184.963C156.892 184.936 157.014 184.867 157.139 184.737C157.404 184.486 157.635 184.081 157.685 183.773C157.7 183.81 157.728 183.851 157.775 183.891C157.876 183.977 158.011 184.029 158.052 183.982C158.093 183.935 158.028 183.803 157.931 183.715C157.922 183.709 157.916 183.705 157.909 183.699L157.951 183.673C158.137 183.547 158.199 183.31 158.089 183.142C157.98 182.975 157.725 182.951 157.52 183.09Z" fill="black"/>
<path d="M161.203 181.621L161.148 181.634C161.15 181.624 161.151 181.617 161.153 181.606C161.165 181.475 161.118 181.336 161.042 181.334C160.967 181.332 160.897 181.467 160.891 181.598C160.888 181.659 160.9 181.707 160.919 181.743C160.641 181.559 160.086 181.523 159.674 181.664C159.464 181.73 159.328 181.827 159.245 181.935C159.21 181.979 159.156 182.005 159.1 182.003C158.949 181.998 158.792 182.053 158.655 182.159C158.472 182.311 158.398 182.552 158.459 182.756C158.582 183.141 159.006 183.293 159.325 183.148C159.407 183.112 159.472 183.052 159.528 182.99C159.56 182.953 159.611 182.937 159.661 182.947C159.781 182.971 159.922 182.96 160.095 182.905C160.434 182.789 160.82 182.548 161.012 182.297C161.007 182.337 161.012 182.386 161.034 182.443C161.08 182.566 161.172 182.677 161.229 182.655C161.287 182.633 161.294 182.487 161.253 182.363C161.249 182.354 161.246 182.348 161.242 182.339L161.292 182.336C161.512 182.317 161.684 182.137 161.675 181.942C161.665 181.74 161.454 181.598 161.203 181.621Z" fill="black"/>
<path d="M157.455 199.087L157.408 199.118C157.407 199.108 157.405 199.1 157.403 199.09C157.367 198.963 157.274 198.849 157.203 198.873C157.131 198.898 157.114 199.048 157.155 199.172C157.174 199.231 157.202 199.272 157.233 199.299C156.906 199.222 156.374 199.379 156.038 199.653C155.866 199.787 155.772 199.925 155.733 200.055C155.716 200.108 155.675 200.151 155.622 200.168C155.479 200.215 155.351 200.321 155.261 200.468C155.143 200.673 155.16 200.923 155.29 201.094C155.542 201.412 155.994 201.408 156.241 201.164C156.305 201.102 156.345 201.023 156.375 200.945C156.392 200.899 156.434 200.866 156.484 200.859C156.605 200.84 156.733 200.781 156.876 200.671C157.152 200.446 157.427 200.086 157.518 199.786C157.527 199.824 157.55 199.869 157.59 199.915C157.677 200.014 157.803 200.086 157.849 200.046C157.895 200.006 157.849 199.866 157.767 199.765C157.759 199.758 157.754 199.753 157.747 199.746L157.793 199.726C157.993 199.632 158.09 199.405 158.011 199.225C157.931 199.039 157.682 198.979 157.455 199.087Z" fill="black"/>
<path d="M165.042 181.877L164.993 181.884C164.996 181.874 164.998 181.867 165 181.857C165.021 181.728 164.992 181.586 164.935 181.571C164.878 181.558 164.806 181.68 164.778 181.808C164.766 181.868 164.767 181.917 164.777 181.955C164.554 181.734 164.161 181.539 163.782 181.467C163.589 181.432 163.429 181.445 163.304 181.493C163.254 181.512 163.195 181.507 163.147 181.478C163.021 181.395 162.856 181.355 162.68 181.382C162.439 181.41 162.248 181.587 162.194 181.792C162.1 182.184 162.382 182.527 162.724 182.565C162.812 182.572 162.897 182.567 162.978 182.538C163.025 182.52 163.078 182.533 163.117 182.569C163.209 182.653 163.343 182.718 163.546 182.755C163.946 182.832 164.511 182.739 164.764 182.517C164.75 182.555 164.745 182.605 164.757 182.665C164.782 182.793 164.874 182.917 164.951 182.904C165.029 182.893 165.054 182.747 165.021 182.62C165.018 182.611 165.015 182.604 165.012 182.595C165.03 182.597 165.049 182.597 165.068 182.596C165.328 182.584 165.513 182.4 165.483 182.199C165.453 182.007 165.256 181.866 165.042 181.877Z" fill="black"/>
<path d="M168.333 180.543L168.293 180.576C168.29 180.567 168.288 180.56 168.284 180.549C168.228 180.431 168.121 180.33 168.062 180.355C168.003 180.38 168.012 180.524 168.065 180.644C168.09 180.7 168.121 180.74 168.153 180.764C167.836 180.719 167.374 180.828 167.055 180.991C166.893 181.075 166.792 181.176 166.726 181.272C166.7 181.313 166.654 181.338 166.605 181.334C166.474 181.326 166.343 181.357 166.221 181.435C166.058 181.552 165.953 181.752 165.955 181.966C165.95 182.37 166.36 182.64 166.777 182.49C166.881 182.457 166.962 182.391 167.029 182.323C167.068 182.281 167.126 182.261 167.183 182.267C167.324 182.286 167.486 182.247 167.679 182.147C168.064 181.95 168.414 181.547 168.479 181.226C168.491 181.264 168.517 181.307 168.562 181.349C168.658 181.439 168.801 181.49 168.852 181.44C168.902 181.389 168.839 181.256 168.74 181.168C168.732 181.162 168.726 181.158 168.718 181.152L168.765 181.125C168.968 180.989 169.013 180.732 168.89 180.579C168.763 180.419 168.522 180.417 168.333 180.543Z" fill="black"/>
<path d="M152.585 191.837L152.601 191.887C152.591 191.886 152.583 191.886 152.573 191.885C152.44 191.888 152.303 191.946 152.305 192.016C152.302 192.04 152.324 192.022 152.373 192.027C152.421 192.027 152.484 192.053 152.55 192.055C152.612 192.061 152.662 192.056 152.7 192.044C152.49 192.24 152.297 192.641 152.237 192.99C152.207 193.167 152.221 193.304 152.266 193.415C152.285 193.461 152.279 193.512 152.245 193.547C152.159 193.645 152.104 193.765 152.103 193.908C152.1 194.098 152.207 194.289 152.384 194.419C152.705 194.674 153.178 194.501 153.294 194.09C153.325 193.989 153.325 193.891 153.307 193.799C153.297 193.745 153.314 193.689 153.351 193.649C153.444 193.553 153.516 193.408 153.551 193.203C153.621 192.798 153.515 192.273 153.271 192.01C153.311 192.022 153.361 192.024 153.421 192.006C153.485 191.983 153.55 191.956 153.589 191.895C153.628 191.838 153.641 191.749 153.626 191.71C153.601 191.653 153.452 191.66 153.331 191.713C153.321 191.718 153.315 191.722 153.307 191.727L153.3 191.677C153.254 191.461 153.054 191.316 152.855 191.352C152.656 191.389 152.535 191.606 152.585 191.837Z" fill="black"/>
<path d="M152.329 188.053L152.328 188.106C152.319 188.102 152.312 188.099 152.302 188.094C152.175 188.055 152.026 188.067 152.006 188.135C151.986 188.203 152.102 188.297 152.229 188.333C152.289 188.35 152.339 188.351 152.379 188.341C152.139 188.557 151.958 189.048 151.973 189.454C151.972 189.661 152.033 189.81 152.107 189.917C152.138 189.96 152.146 190.016 152.127 190.066C152.07 190.2 152.071 190.355 152.13 190.51C152.209 190.722 152.406 190.868 152.628 190.883C153.033 190.909 153.337 190.575 153.3 190.225C153.288 190.136 153.259 190.055 153.216 189.983C153.189 189.94 153.19 189.888 153.215 189.844C153.28 189.739 153.303 189.602 153.305 189.42C153.292 189.062 153.158 188.627 152.95 188.385C152.987 188.4 153.037 188.406 153.099 188.4C153.232 188.385 153.364 188.322 153.357 188.262C153.351 188.201 153.208 188.161 153.076 188.172C153.065 188.174 153.058 188.176 153.049 188.177L153.058 188.129C153.077 187.911 152.945 187.712 152.746 187.681C152.545 187.649 152.35 187.815 152.329 188.053Z" fill="black"/>
<path d="M153.537 184.426L153.514 184.475C153.507 184.467 153.502 184.461 153.495 184.453C153.396 184.365 153.256 184.316 153.209 184.37C153.162 184.425 153.228 184.559 153.329 184.644C153.376 184.683 153.422 184.704 153.462 184.712C153.299 184.759 153.135 184.881 152.985 185.038C152.829 185.193 152.702 185.388 152.63 185.582C152.551 185.777 152.533 185.935 152.568 186.066C152.581 186.118 152.568 186.175 152.531 186.214C152.436 186.322 152.358 186.465 152.363 186.635C152.364 186.865 152.495 187.072 152.693 187.162C153.065 187.323 153.473 187.118 153.559 186.786C153.585 186.703 153.589 186.618 153.573 186.535C153.564 186.487 153.584 186.438 153.623 186.408C153.715 186.333 153.804 186.224 153.871 186.058C153.932 185.892 153.973 185.699 153.996 185.512C154.014 185.321 154 185.13 153.963 184.983C153.991 185.011 154.034 185.037 154.093 185.056C154.22 185.097 154.366 185.094 154.384 185.037C154.403 184.979 154.29 184.885 154.165 184.84C154.155 184.838 154.148 184.836 154.139 184.834C154.148 184.821 154.159 184.809 154.167 184.794C154.271 184.603 154.247 184.374 154.077 184.261C153.912 184.151 153.653 184.214 153.537 184.426Z" fill="black"/>
<path d="M172.081 181.459L172.075 181.513C172.066 181.508 172.059 181.504 172.05 181.499C171.927 181.447 171.779 181.445 171.752 181.511C171.726 181.578 171.832 181.684 171.956 181.731C172.013 181.754 172.064 181.759 172.104 181.753C171.966 181.85 171.85 182.017 171.76 182.214C171.664 182.41 171.608 182.636 171.604 182.842C171.594 183.051 171.629 183.207 171.705 183.319C171.734 183.365 171.741 183.422 171.719 183.472C171.665 183.603 171.638 183.764 171.7 183.923C171.776 184.14 171.968 184.295 172.185 184.316C172.59 184.351 172.909 184.027 172.88 183.685C172.878 183.598 172.853 183.517 172.811 183.443C172.787 183.4 172.789 183.348 172.816 183.307C172.878 183.207 172.926 183.076 172.935 182.897C172.938 182.721 172.913 182.525 172.874 182.34C172.828 182.155 172.752 181.978 172.668 181.851C172.704 181.869 172.753 181.88 172.815 181.879C172.948 181.877 173.086 181.828 173.084 181.768C173.083 181.707 172.945 181.654 172.812 181.652C172.801 181.653 172.794 181.653 172.785 181.654C172.79 181.638 172.795 181.624 172.798 181.607C172.834 181.393 172.736 181.184 172.537 181.131C172.345 181.08 172.122 181.222 172.081 181.459Z" fill="black"/>
<path d="M156.171 181.631L156.131 181.666C156.127 181.657 156.125 181.649 156.121 181.639C156.065 181.521 155.956 181.421 155.891 181.452C155.827 181.482 155.834 181.63 155.893 181.746C155.92 181.801 155.954 181.838 155.988 181.861C155.666 181.834 155.173 182.029 154.877 182.315C154.721 182.452 154.647 182.6 154.618 182.727C154.606 182.78 154.57 182.825 154.519 182.845C154.384 182.899 154.255 182.998 154.185 183.154C154.085 183.363 154.112 183.605 154.253 183.769C154.517 184.07 154.979 184.06 155.197 183.792C155.258 183.729 155.299 183.654 155.322 183.573C155.335 183.526 155.374 183.49 155.423 183.48C155.544 183.454 155.659 183.382 155.799 183.26C156.058 183.009 156.299 182.621 156.339 182.304C156.353 182.342 156.382 182.382 156.429 182.423C156.529 182.509 156.666 182.563 156.707 182.517C156.749 182.471 156.683 182.341 156.585 182.252C156.577 182.246 156.571 182.242 156.563 182.236L156.606 182.211C156.784 182.079 156.842 181.844 156.732 181.681C156.618 181.513 156.365 181.488 156.171 181.631Z" fill="black"/>
<path d="M159.659 179.977L159.608 179.996C159.609 179.986 159.609 179.978 159.609 179.968C159.601 179.837 159.537 179.705 159.465 179.712C159.394 179.719 159.346 179.86 159.358 179.991C159.363 180.052 159.38 180.098 159.403 180.131C159.11 179.981 158.578 179.995 158.196 180.16C158.001 180.238 157.875 180.339 157.804 180.452C157.774 180.497 157.724 180.526 157.67 180.527C157.524 180.53 157.37 180.578 157.247 180.696C157.078 180.852 157.014 181.086 157.082 181.29C157.213 181.666 157.648 181.824 157.955 181.653C158.036 181.613 158.102 181.557 158.153 181.489C158.183 181.449 158.232 181.43 158.282 181.437C158.403 181.451 158.544 181.434 158.714 181.366C159.045 181.222 159.409 180.941 159.566 180.67C159.566 180.71 159.577 180.758 159.606 180.812C159.667 180.928 159.773 181.026 159.828 180.997C159.883 180.968 159.87 180.822 159.812 180.705C159.807 180.696 159.803 180.69 159.798 180.682L159.847 180.673C160.061 180.617 160.205 180.426 160.163 180.23C160.121 180.037 159.893 179.915 159.659 179.977Z" fill="black"/>
<path d="M163.534 179.758L163.48 179.755C163.484 179.746 163.488 179.74 163.492 179.73C163.539 179.607 163.533 179.461 163.464 179.439C163.395 179.416 163.293 179.526 163.251 179.65C163.231 179.708 163.229 179.757 163.236 179.797C163.027 179.547 162.528 179.358 162.108 179.36C161.896 179.358 161.74 179.413 161.629 179.484C161.584 179.514 161.526 179.521 161.475 179.501C161.339 179.449 161.177 179.448 161.017 179.504C160.798 179.576 160.651 179.786 160.637 179.997C160.617 180.401 160.956 180.683 161.306 180.655C161.395 180.647 161.477 180.613 161.55 180.571C161.593 180.546 161.646 180.548 161.689 180.574C161.794 180.639 161.931 180.667 162.114 180.669C162.472 180.667 162.915 180.545 163.168 180.355C163.152 180.391 163.143 180.44 163.148 180.501C163.157 180.632 163.214 180.764 163.276 180.759C163.337 180.754 163.384 180.616 163.379 180.486C163.377 180.475 163.376 180.468 163.375 180.459C163.391 180.463 163.406 180.468 163.423 180.47C163.642 180.497 163.855 180.379 163.894 180.182C163.933 179.989 163.777 179.789 163.534 179.758Z" fill="black"/>
<path d="M166.985 179.456L166.938 179.478C166.938 179.468 166.937 179.461 166.936 179.45C166.914 179.322 166.836 179.197 166.77 179.208C166.704 179.219 166.675 179.362 166.698 179.491C166.708 179.551 166.729 179.596 166.754 179.627C166.458 179.502 165.962 179.527 165.623 179.636C165.54 179.662 165.47 179.693 165.429 179.722C165.397 179.741 165.409 179.747 165.403 179.763C165.401 179.779 165.364 179.796 165.349 179.815C165.315 179.846 165.27 179.851 165.232 179.83C165.13 179.771 165.019 179.747 164.883 179.772C164.699 179.805 164.506 179.942 164.418 180.14C164.255 180.503 164.47 180.918 164.934 180.956C165.048 180.964 165.159 180.943 165.255 180.903C165.311 180.877 165.377 180.88 165.432 180.903C165.47 180.916 165.492 180.932 165.553 180.937C165.611 180.942 165.691 180.939 165.731 180.937C165.836 180.931 165.93 180.913 166.035 180.88C166.436 180.751 166.82 180.44 166.96 180.152C166.962 180.192 166.977 180.239 167.01 180.291C167.082 180.401 167.202 180.487 167.259 180.452C167.316 180.417 167.288 180.273 167.217 180.163C167.21 180.155 167.206 180.149 167.2 180.142L167.25 180.127C167.467 180.045 167.583 179.828 167.51 179.643C167.438 179.457 167.202 179.373 166.985 179.456Z" fill="black"/>
<path d="M150.239 189.142L150.251 189.199C150.241 189.197 150.234 189.195 150.223 189.193C150.089 189.178 149.947 189.224 149.944 189.301C149.941 189.378 150.077 189.453 150.21 189.463C150.272 189.468 150.321 189.457 150.358 189.438C150.166 189.721 150.141 190.302 150.223 190.671C150.266 190.869 150.335 191.009 150.424 191.105C150.46 191.145 150.476 191.2 150.461 191.252C150.423 191.389 150.428 191.54 150.49 191.689C150.576 191.891 150.764 192.037 150.981 192.072C151.386 192.148 151.719 191.772 151.648 191.347C151.631 191.241 151.592 191.146 151.537 191.066C151.505 191.019 151.498 190.958 151.516 190.905C151.562 190.776 151.571 190.61 151.526 190.399C151.429 189.962 151.176 189.565 150.924 189.356C150.964 189.363 151.014 189.359 151.073 189.338C151.199 189.293 151.313 189.199 151.292 189.138C151.271 189.076 151.122 189.065 150.995 189.106C150.986 189.11 150.979 189.113 150.97 189.117L150.968 189.064C150.935 188.833 150.776 188.65 150.569 188.658C150.371 188.666 150.204 188.884 150.239 189.142Z" fill="black"/>
<path d="M150.85 185.063L150.834 185.118C150.826 185.111 150.82 185.106 150.812 185.099C150.701 185.024 150.555 184.997 150.515 185.064C150.475 185.129 150.559 185.259 150.671 185.33C150.723 185.363 150.771 185.377 150.813 185.378C150.505 185.535 150.19 186.008 150.095 186.447C150.037 186.666 150.061 186.843 150.106 186.974C150.126 187.028 150.121 187.09 150.089 187.139C150.001 187.27 149.974 187.441 149.996 187.621C150.023 187.867 150.207 188.063 150.416 188.118C150.817 188.216 151.159 187.919 151.203 187.555C151.212 187.462 151.194 187.371 151.171 187.287C151.156 187.238 151.168 187.183 151.204 187.144C151.293 187.05 151.345 186.915 151.396 186.729C151.475 186.361 151.466 185.876 151.349 185.574C151.381 185.599 151.427 185.619 151.488 185.628C151.621 185.648 151.766 185.619 151.777 185.554C151.789 185.489 151.663 185.41 151.532 185.386C151.522 185.385 151.515 185.385 151.505 185.384L151.528 185.337C151.619 185.119 151.559 184.879 151.375 184.792C151.194 184.707 150.95 184.824 150.85 185.063Z" fill="black"/>
<path d="M153.156 181.649L153.119 181.693C153.114 181.684 153.111 181.677 153.106 181.668C153.03 181.56 152.903 181.482 152.842 181.527C152.779 181.57 152.814 181.722 152.891 181.828C152.928 181.878 152.968 181.909 153.005 181.924C152.665 181.962 152.2 182.267 151.932 182.618C151.8 182.797 151.739 182.957 151.726 183.093C151.721 183.149 151.689 183.202 151.639 183.232C151.511 183.316 151.405 183.45 151.346 183.618C151.262 183.846 151.334 184.102 151.495 184.245C151.805 184.513 152.249 184.401 152.458 184.086C152.51 184.004 152.538 183.914 152.55 183.825C152.559 183.773 152.595 183.729 152.645 183.708C152.766 183.657 152.884 183.559 153.001 183.399C153.239 183.088 153.429 182.628 153.431 182.3C153.451 182.335 153.486 182.37 153.54 182.401C153.656 182.467 153.8 182.487 153.838 182.432C153.876 182.375 153.788 182.257 153.674 182.189C153.665 182.185 153.658 182.182 153.649 182.177L153.69 182.142C153.859 181.97 153.881 181.715 153.739 181.573C153.596 181.432 153.335 181.466 153.156 181.649Z" fill="black"/>
<path d="M150.534 193.406L150.543 193.462C150.534 193.46 150.526 193.458 150.515 193.455C150.383 193.439 150.24 193.481 150.232 193.556C150.223 193.63 150.363 193.706 150.495 193.719C150.557 193.726 150.607 193.717 150.644 193.7C150.446 193.974 150.369 194.519 150.458 194.948C150.507 195.164 150.588 195.315 150.683 195.416C150.721 195.457 150.741 195.515 150.731 195.572C150.709 195.721 150.74 195.888 150.829 196.044C150.946 196.256 151.189 196.373 151.405 196.351C151.815 196.301 152.025 195.901 151.924 195.538C151.896 195.446 151.847 195.365 151.787 195.297C151.753 195.256 151.743 195.2 151.76 195.15C151.802 195.027 151.806 194.876 151.762 194.683C151.684 194.302 151.461 193.857 151.213 193.638C151.253 193.646 151.303 193.643 151.362 193.625C151.489 193.584 151.6 193.491 151.584 193.426C151.565 193.361 151.418 193.347 151.29 193.385C151.28 193.389 151.273 193.392 151.264 193.396L151.265 193.342C151.246 193.103 151.067 192.918 150.864 192.929C150.662 192.939 150.514 193.153 150.534 193.406Z" fill="black"/>
<path d="M156.388 179.077L156.339 179.107C156.337 179.098 156.335 179.09 156.334 179.08C156.296 178.954 156.199 178.842 156.124 178.867C156.051 178.893 156.035 179.047 156.077 179.172C156.096 179.231 156.125 179.271 156.157 179.297C155.82 179.235 155.27 179.4 154.921 179.672C154.74 179.804 154.637 179.94 154.59 180.069C154.569 180.122 154.525 180.165 154.47 180.18C154.32 180.221 154.181 180.315 154.08 180.46C153.939 180.656 153.922 180.907 154.032 181.096C154.236 181.444 154.709 181.48 155.004 181.224C155.077 181.157 155.136 181.083 155.174 181C155.197 180.952 155.244 180.918 155.297 180.911C155.427 180.891 155.569 180.829 155.73 180.711C156.04 180.469 156.35 180.093 156.448 179.781C156.457 179.82 156.481 179.864 156.522 179.909C156.612 180.006 156.743 180.069 156.793 180.027C156.844 179.986 156.798 179.848 156.711 179.747C156.704 179.74 156.698 179.735 156.691 179.729L156.74 179.708C156.95 179.597 157.053 179.364 156.969 179.187C156.881 179.004 156.621 178.954 156.388 179.077Z" fill="black"/>
<path d="M160.427 177.999L160.37 178.007C160.372 177.998 160.374 177.99 160.377 177.98C160.397 177.85 160.358 177.709 160.282 177.701C160.206 177.694 160.126 177.823 160.108 177.953C160.101 178.014 160.108 178.063 160.125 178.1C159.851 177.898 159.294 177.81 158.85 177.897C158.626 177.936 158.47 178.024 158.367 178.116C158.324 178.154 158.264 178.173 158.206 178.164C158.052 178.146 157.879 178.177 157.72 178.267C157.504 178.396 157.387 178.629 157.417 178.841C157.481 179.242 157.893 179.439 158.253 179.335C158.344 179.308 158.424 179.26 158.492 179.199C158.532 179.166 158.589 179.157 158.64 179.174C158.764 179.217 158.913 179.214 159.109 179.181C159.49 179.106 159.946 178.897 160.175 178.66C160.165 178.699 160.166 178.748 160.184 178.807C160.223 178.933 160.315 179.049 160.381 179.031C160.447 179.013 160.465 178.868 160.43 178.742C160.426 178.732 160.423 178.726 160.42 178.717L160.474 178.717C160.716 178.698 160.911 178.539 160.905 178.338C160.899 178.141 160.686 177.978 160.427 177.999Z" fill="black"/>
<path d="M157.353 176.557L157.299 176.579C157.3 176.569 157.3 176.561 157.3 176.55C157.289 176.419 157.218 176.291 157.142 176.301C157.067 176.311 157.019 176.455 157.032 176.585C157.039 176.646 157.057 176.692 157.083 176.724C156.769 176.589 156.206 176.63 155.795 176.814C155.585 176.902 155.454 177.024 155.375 177.136C155.343 177.183 155.289 177.215 155.23 177.219C155.076 177.236 154.915 177.306 154.781 177.429C154.601 177.603 154.542 177.857 154.62 178.056C154.776 178.432 155.223 178.531 155.549 178.349C155.632 178.301 155.699 178.237 155.75 178.162C155.782 178.121 155.835 178.099 155.888 178.104C156.019 178.118 156.163 178.082 156.346 178.005C156.7 177.847 157.094 177.54 157.262 177.258C157.262 177.298 157.275 177.346 157.306 177.399C157.373 177.513 157.489 177.605 157.549 177.573C157.61 177.54 157.594 177.395 157.529 177.28C157.523 177.272 157.519 177.266 157.513 177.258L157.567 177.246C157.798 177.172 157.95 176.974 157.897 176.779C157.846 176.59 157.6 176.479 157.353 176.557Z" fill="black"/>
<path d="M164.526 178.147L164.47 178.149C164.474 178.139 164.477 178.132 164.481 178.122C164.516 177.996 164.496 177.851 164.428 177.834C164.359 177.817 164.266 177.934 164.229 178.06C164.213 178.119 164.212 178.168 164.223 178.207C163.988 177.972 163.497 177.781 163.076 177.749C162.863 177.733 162.7 177.761 162.577 177.821C162.528 177.845 162.466 177.846 162.416 177.82C162.283 177.75 162.118 177.72 161.93 177.754C161.692 177.806 161.504 177.978 161.452 178.187C161.352 178.58 161.685 178.922 162.061 178.935C162.159 178.94 162.254 178.923 162.343 178.89C162.394 178.87 162.453 178.878 162.499 178.91C162.609 178.985 162.762 179.037 162.974 179.053C163.391 179.085 163.916 178.972 164.185 178.768C164.169 178.805 164.163 178.854 164.171 178.915C164.191 179.045 164.27 179.173 164.344 179.164C164.418 179.156 164.456 179.014 164.435 178.885C164.432 178.875 164.43 178.868 164.428 178.858L164.484 178.866C164.739 178.881 164.954 178.726 164.959 178.528C164.964 178.328 164.772 178.161 164.526 178.147Z" fill="black"/>
<path d="M140.35 194.486C140.328 194.561 140.258 194.61 140.18 194.619C139.082 194.746 138.442 194.89 137.952 195.147C137.473 195.378 137.191 195.677 137.195 195.769C137.2 195.862 137.519 196.148 138.151 196.195C138.308 196.213 138.479 196.188 138.668 196.161C138.856 196.136 139.056 196.077 139.259 195.979C139.464 195.89 139.674 195.77 139.87 195.597C140.074 195.44 140.259 195.23 140.422 194.986C140.468 194.917 140.55 194.88 140.633 194.881C140.928 194.877 141.247 194.837 141.369 194.743C141.486 194.64 141.402 194.513 140.972 194.315C140.81 193.862 140.676 193.782 140.592 193.87C140.498 193.952 140.425 194.204 140.35 194.486Z" fill="black"/>
<path d="M142.754 190.856C142.788 190.927 142.778 191.012 142.729 191.072C141.992 191.9 141.662 192.471 141.474 192.971C141.294 193.457 141.305 193.873 141.371 193.937C141.438 194.003 141.866 193.987 142.358 193.59C142.846 193.211 143.336 192.342 143.158 191.184C143.143 191.103 143.169 191.019 143.231 190.967C143.703 190.578 144.037 190.066 143.111 190.325C142.271 189.854 142.517 190.347 142.754 190.856Z" fill="black"/>
<path d="M142.536 186.454C142.601 186.496 142.635 186.574 142.624 186.651C142.464 187.733 142.498 188.415 142.667 188.943C142.808 189.457 143.086 189.775 143.181 189.784C143.274 189.793 143.59 189.521 143.752 188.93C143.895 188.36 143.837 187.402 143.047 186.518C142.992 186.457 142.972 186.371 142.998 186.292C143.16 185.722 143.182 185.088 142.537 185.819C141.594 185.878 142.037 186.162 142.536 186.454Z" fill="black"/>
<path d="M139.683 183.173C139.76 183.158 139.845 183.181 139.887 183.25C140.509 184.153 140.929 184.638 141.384 184.947C141.587 185.111 141.795 185.213 141.963 185.274C142.119 185.341 142.241 185.359 142.284 185.335C142.324 185.313 142.373 185.202 142.389 185.018C142.395 184.841 142.359 184.594 142.247 184.301C142.109 184.027 141.903 183.696 141.539 183.428C141.191 183.15 140.691 182.937 140.105 182.871C140.025 182.856 139.945 182.818 139.908 182.744C139.632 182.198 139.178 181.764 139.241 182.711C138.598 183.417 139.126 183.278 139.683 183.173Z" fill="black"/>
<path d="M135.289 182.67C135.338 182.61 135.419 182.577 135.496 182.598C136.566 182.892 137.248 182.942 137.791 182.88C138.322 182.808 138.686 182.633 138.717 182.531C138.743 182.457 138.539 182.066 137.957 181.827C137.398 181.574 136.405 181.51 135.41 182.17C135.342 182.216 135.254 182.233 135.178 182.201C134.61 181.957 133.978 181.915 134.648 182.598C134.62 183.545 134.932 183.103 135.289 182.67Z" fill="black"/>
<path d="M131.711 185.153C131.704 185.077 131.745 185.003 131.813 184.963C132.776 184.426 133.303 184.049 133.661 183.647C134.005 183.25 134.175 182.893 134.13 182.793C134.111 182.751 134.005 182.696 133.823 182.67C133.64 182.641 133.378 182.64 133.082 182.746C132.492 182.92 131.672 183.549 131.448 184.716C131.433 184.797 131.376 184.865 131.297 184.894C130.732 185.117 130.222 185.501 131.202 185.543C131.837 186.236 131.778 185.715 131.711 185.153Z" fill="black"/>
<path d="M130.649 189.412C130.598 189.353 130.586 189.268 130.617 189.197C131.078 188.191 131.226 187.524 131.211 186.98C131.209 186.452 131.058 186.074 130.97 186.037C130.884 186.001 130.482 186.161 130.165 186.695C129.863 187.214 129.666 188.15 130.173 189.206C130.21 189.279 130.205 189.367 130.159 189.434C129.983 189.679 129.848 189.952 129.867 190.099C129.882 190.248 130.035 190.255 130.452 190.019C130.917 190.146 131.061 190.086 131.04 189.963C131.013 189.838 130.831 189.63 130.649 189.412Z" fill="black"/>
<path d="M132.173 193.512C132.095 193.496 132.034 193.437 132.015 193.363C131.786 192.302 131.562 191.679 131.26 191.223C130.96 190.782 130.638 190.538 130.531 190.558C130.452 190.571 130.188 190.923 130.223 191.537C130.237 192.13 130.599 193.065 131.665 193.631C131.741 193.668 131.791 193.741 131.797 193.822C131.809 194.125 131.886 194.423 131.997 194.53C132.107 194.641 132.227 194.549 132.399 194.105C132.839 193.916 132.91 193.776 132.819 193.696C132.723 193.616 132.449 193.576 132.173 193.512Z" fill="black"/>
<path d="M136.058 195.51C135.992 195.549 135.906 195.544 135.84 195.501C134.915 194.894 134.329 194.608 133.797 194.487C133.283 194.364 132.88 194.387 132.814 194.466C132.759 194.529 132.792 194.968 133.249 195.407C133.684 195.835 134.621 196.257 135.779 195.933C135.858 195.911 135.946 195.932 136.007 195.989C136.462 196.374 137.032 196.672 136.641 195.783C136.996 194.924 136.542 195.189 136.058 195.51Z" fill="black"/>
<path d="M140.351 198.708C140.311 198.772 140.236 198.807 140.161 198.797C139.629 198.731 139.188 198.678 138.829 198.734C138.459 198.745 138.16 198.825 137.916 198.934C137.426 199.121 137.151 199.412 137.154 199.512C137.156 199.598 137.453 199.89 138.027 199.995C138.311 200.031 138.664 200.023 139.061 199.93C139.448 199.791 139.891 199.603 140.297 199.212C140.354 199.157 140.436 199.138 140.511 199.163C140.785 199.255 141.079 199.326 141.211 199.279C141.343 199.224 141.309 199.076 140.977 198.747C140.966 198.27 140.872 198.149 140.763 198.205C140.649 198.256 140.499 198.469 140.351 198.708Z" fill="black"/>
<path d="M144.003 196.483C143.995 196.557 143.94 196.617 143.866 196.639C143.604 196.715 143.382 196.802 143.184 196.89C142.974 196.965 142.794 197.048 142.638 197.139C142.336 197.333 142.08 197.496 141.906 197.694C141.732 197.891 141.61 198.077 141.531 198.219C141.456 198.368 141.434 198.485 141.454 198.528C141.474 198.569 141.58 198.626 141.755 198.659C141.933 198.698 142.174 198.699 142.451 198.615C142.728 198.532 143.069 198.41 143.367 198.123C143.521 197.986 143.674 197.825 143.819 197.639C143.952 197.439 144.071 197.207 144.175 196.953C144.204 196.881 144.271 196.83 144.352 196.822C144.927 196.742 145.48 196.525 144.566 196.232C144.112 195.408 144.046 195.929 144.003 196.483Z" fill="black"/>
<path d="M146.258 192.884C146.286 192.955 146.268 193.034 146.215 193.087C145.805 193.446 145.54 193.775 145.331 194.07C145.111 194.358 145.015 194.651 144.928 194.891C144.765 195.374 144.835 195.781 144.911 195.841C144.983 195.897 145.382 195.847 145.837 195.475C146.066 195.292 146.257 194.999 146.43 194.633C146.591 194.263 146.666 193.782 146.631 193.239C146.622 193.161 146.656 193.085 146.721 193.042C147.204 192.728 147.641 192.317 146.67 192.423C145.921 191.867 146.055 192.363 146.258 192.884Z" fill="black"/>
<path d="M146.892 188.672C146.943 188.729 146.955 188.81 146.924 188.878C146.687 189.361 146.534 189.767 146.482 190.126C146.394 190.479 146.392 190.786 146.434 191.047C146.49 191.561 146.701 191.898 146.8 191.922C146.885 191.943 147.252 191.739 147.505 191.223C147.617 190.965 147.703 190.63 147.717 190.231C147.694 189.831 147.612 189.366 147.368 188.873C147.331 188.804 147.335 188.721 147.382 188.659C147.721 188.199 147.983 187.671 147.112 188.098C146.211 187.829 146.514 188.254 146.892 188.672Z" fill="black"/>
<path d="M145.999 184.512C146.068 184.547 146.109 184.618 146.105 184.692C146.064 185.223 146.067 185.651 146.136 186.004C146.178 186.364 146.285 186.651 146.417 186.882C146.634 187.35 146.964 187.594 147.061 187.584C147.152 187.574 147.412 187.262 147.484 186.69C147.498 186.41 147.46 186.066 147.332 185.685C147.176 185.314 146.93 184.901 146.517 184.528C146.457 184.476 146.43 184.398 146.45 184.322C146.523 184.048 146.568 183.758 146.515 183.629C146.454 183.502 146.308 183.546 145.991 183.897C145.514 183.939 145.397 184.04 145.457 184.145C145.512 184.256 145.746 184.385 145.999 184.512Z" fill="black"/>
<path d="M143.48 181.09C143.556 181.094 143.621 181.143 143.649 181.213C144.049 182.187 144.436 182.734 144.857 183.06C145.277 183.376 145.64 183.498 145.736 183.445C145.805 183.408 145.959 182.998 145.755 182.461C145.646 182.201 145.506 181.869 145.192 181.598C145.042 181.458 144.867 181.32 144.667 181.192C144.464 181.066 144.21 180.974 143.947 180.889C143.871 180.866 143.815 180.804 143.801 180.725C143.687 180.16 143.42 179.643 143.188 180.554C142.38 181.06 142.922 181.078 143.48 181.09Z" fill="black"/>
<path d="M139.669 179.134C139.74 179.102 139.822 179.113 139.879 179.16C140.666 179.899 141.282 180.175 141.801 180.294C142.303 180.419 142.717 180.315 142.767 180.244C142.824 180.162 142.741 179.782 142.33 179.363C141.925 178.959 141.115 178.585 140.003 178.741C139.924 178.757 139.844 178.73 139.796 178.669C139.44 178.223 138.988 177.829 139.17 178.769C138.663 179.547 139.155 179.376 139.669 179.134Z" fill="black"/>
<path d="M135.351 178.854C135.404 178.798 135.485 178.778 135.556 178.802C136.066 178.999 136.488 179.098 136.854 179.134C137.22 179.19 137.531 179.165 137.793 179.102C138.308 179.017 138.636 178.773 138.652 178.677C138.668 178.589 138.431 178.258 137.888 178.04C137.616 177.952 137.269 177.896 136.863 177.917C136.458 177.957 135.99 178.094 135.51 178.368C135.443 178.411 135.359 178.415 135.291 178.376C134.791 178.09 134.223 177.887 134.748 178.695C134.572 179.601 134.966 179.264 135.351 178.854Z" fill="black"/>
<path d="M131.283 180.24C131.308 180.169 131.374 180.12 131.45 180.114C131.977 180.052 132.422 180.021 132.76 179.894C133.11 179.796 133.389 179.672 133.603 179.514C134.041 179.232 134.256 178.9 134.233 178.801C134.215 178.719 133.865 178.483 133.279 178.497C132.993 178.521 132.641 178.586 132.276 178.774C131.925 178.989 131.526 179.258 131.223 179.739C131.179 179.804 131.103 179.84 131.023 179.831C130.425 179.751 129.86 179.871 130.671 180.348C130.931 181.266 131.092 180.74 131.283 180.24Z" fill="black"/>
<path d="M128.262 183.237C128.25 183.162 128.28 183.085 128.351 183.05C128.837 182.79 129.151 182.517 129.434 182.286C129.568 182.165 129.677 182.041 129.767 181.917C129.862 181.799 129.948 181.69 130.013 181.578C130.145 181.357 130.212 181.139 130.246 180.974C130.286 180.815 130.281 180.697 130.251 180.66C130.222 180.625 130.105 180.592 129.925 180.598C129.75 180.61 129.523 180.673 129.263 180.807C129.135 180.876 128.993 180.958 128.862 181.072C128.737 181.191 128.611 181.332 128.49 181.497C128.234 181.814 128.071 182.281 127.977 182.815C127.962 182.888 127.917 182.958 127.844 182.986C127.31 183.198 126.801 183.518 127.769 183.607C128.39 184.303 128.357 183.791 128.262 183.237Z" fill="black"/>
<path d="M126.834 187.241C126.794 187.175 126.796 187.094 126.839 187.032C127.151 186.597 127.379 186.227 127.497 185.887C127.649 185.558 127.707 185.259 127.715 184.995C127.772 184.488 127.621 184.11 127.532 184.068C127.45 184.03 127.063 184.163 126.699 184.619C126.54 184.853 126.392 185.169 126.303 185.56C126.249 185.959 126.24 186.434 126.4 186.963C126.425 187.037 126.405 187.118 126.349 187.172C125.934 187.569 125.583 188.048 126.516 187.77C127.356 188.181 127.132 187.714 126.834 187.241Z" fill="black"/>
<path d="M126.956 191.503C126.895 191.455 126.869 191.378 126.887 191.306C127.046 190.79 127.109 190.368 127.114 190.005C127.138 189.64 127.085 189.337 126.998 189.086C126.858 188.587 126.582 188.292 126.483 188.286C126.393 188.28 126.077 188.545 125.913 189.093C125.848 189.366 125.822 189.709 125.879 190.103C125.954 190.495 126.133 190.94 126.451 191.387C126.5 191.449 126.51 191.531 126.476 191.6C126.226 192.113 126.066 192.683 126.844 192.106C127.778 192.208 127.404 191.847 126.956 191.503Z" fill="black"/>
<path d="M128.662 195.393C128.587 195.373 128.533 195.311 128.522 195.238C128.472 194.971 128.428 194.739 128.389 194.53C128.342 194.317 128.281 194.132 128.209 193.968C128.089 193.629 127.937 193.366 127.762 193.166C127.447 192.756 127.088 192.572 126.991 192.602C126.907 192.626 126.699 192.985 126.753 193.558C126.797 193.837 126.893 194.174 127.104 194.52C127.222 194.687 127.364 194.858 127.534 195.024C127.696 195.195 127.905 195.351 128.156 195.484C128.225 195.523 128.267 195.595 128.263 195.674C128.223 196.263 128.373 196.814 128.809 195.987C129.724 195.676 129.186 195.546 128.662 195.393Z" fill="black"/>
<path d="M131.898 198.164C131.821 198.184 131.745 198.152 131.704 198.087C131.405 197.633 131.112 197.337 130.858 197.077C130.726 196.954 130.592 196.856 130.462 196.776C130.341 196.683 130.22 196.611 130.102 196.554C129.624 196.337 129.228 196.314 129.155 196.378C129.087 196.438 129.046 196.856 129.366 197.337C129.444 197.46 129.54 197.587 129.659 197.715C129.788 197.831 129.94 197.945 130.116 198.051C130.457 198.28 130.938 198.417 131.489 198.469C131.566 198.478 131.636 198.525 131.671 198.591C131.923 199.098 132.285 199.574 132.308 198.62C132.973 197.962 132.456 198.032 131.898 198.164Z" fill="black"/>
<path d="M136.064 199.258C136.002 199.303 135.919 199.308 135.853 199.271C135.385 199.001 134.993 198.811 134.64 198.719C134.294 198.596 133.988 198.563 133.72 198.576C133.203 198.553 132.828 198.733 132.793 198.822C132.759 198.905 132.922 199.271 133.413 199.598C133.663 199.736 133.996 199.857 134.401 199.914C134.811 199.937 135.296 199.906 135.819 199.706C135.892 199.676 135.976 199.688 136.035 199.739C136.474 200.111 136.992 200.414 136.628 199.525C136.972 198.667 136.519 198.926 136.064 199.258Z" fill="black"/>
<path d="M139.132 197.213C139.087 197.276 139.008 197.307 138.932 197.295C138.388 197.173 137.96 197.14 137.585 197.118C137.214 197.123 136.903 197.152 136.642 197.22C136.123 197.374 135.8 197.587 135.788 197.696C135.783 197.741 135.844 197.844 135.98 197.961C136.115 198.084 136.326 198.214 136.616 198.286C136.905 198.368 137.273 198.416 137.696 198.33C138.117 198.272 138.591 198.06 139.043 197.717C139.106 197.664 139.191 197.648 139.267 197.676C139.833 197.899 140.44 197.938 139.767 197.267C139.768 196.319 139.463 196.769 139.132 197.213Z" fill="black"/>
<path d="M142.822 194.898C142.819 194.975 142.765 195.038 142.692 195.066C141.679 195.473 141.106 195.825 140.742 196.224C140.375 196.596 140.234 196.985 140.269 197.064C140.309 197.155 140.699 197.297 141.294 197.142C141.588 197.065 141.914 196.884 142.238 196.608C142.391 196.457 142.541 196.28 142.682 196.079C142.822 195.877 142.925 195.622 143.021 195.36C143.047 195.284 143.115 195.229 143.194 195.213C143.762 195.072 144.329 194.811 143.375 194.594C142.87 193.811 142.822 194.325 142.822 194.898Z" fill="black"/>
<path d="M144.759 190.995C144.794 191.065 144.788 191.149 144.738 191.208C144.362 191.623 144.141 191.993 143.952 192.314C143.79 192.646 143.677 192.932 143.626 193.194C143.534 193.717 143.591 194.096 143.683 194.156C143.748 194.2 144.193 194.133 144.589 193.687C145.002 193.263 145.365 192.429 145.169 191.313C145.154 191.235 145.177 191.153 145.238 191.102C145.681 190.723 146.068 190.251 145.116 190.474C144.308 189.995 144.498 190.487 144.759 190.995Z" fill="black"/>
<path d="M144.813 186.636C144.874 186.684 144.909 186.762 144.883 186.837C144.804 187.103 144.751 187.341 144.721 187.558C144.685 187.776 144.647 187.977 144.642 188.161C144.641 188.527 144.645 188.838 144.721 189.098C144.856 189.614 145.085 189.934 145.192 189.947C145.272 189.957 145.633 189.708 145.805 189.145C145.982 188.597 145.994 187.686 145.319 186.752C145.278 186.686 145.257 186.603 145.291 186.53C145.526 185.996 145.652 185.396 144.903 186.016C143.962 185.945 144.355 186.291 144.813 186.636Z" fill="black"/>
<path d="M142.721 182.851C142.797 182.861 142.861 182.915 142.885 182.987C143.202 184.019 143.55 184.586 143.906 184.988C144.28 185.366 144.627 185.548 144.727 185.513C144.805 185.485 145.015 185.099 144.88 184.516C144.783 183.938 144.287 183.127 143.207 182.688C143.131 182.658 143.077 182.59 143.067 182.51C142.986 181.921 142.725 181.378 142.455 182.285C141.614 182.743 142.161 182.79 142.721 182.851Z" fill="black"/>
<path d="M138.868 180.777C138.94 180.741 139.025 180.751 139.083 180.806C139.92 181.511 140.519 181.835 141.055 181.952C141.564 182.088 141.972 182.03 142.034 181.949C142.087 181.882 142.029 181.468 141.605 181.034C141.184 180.627 140.349 180.19 139.197 180.385C139.118 180.393 139.035 180.367 138.983 180.309C138.601 179.872 138.117 179.489 138.342 180.425C137.851 181.217 138.348 181.032 138.868 180.777Z" fill="black"/>
<path d="M134.462 180.825C134.506 180.762 134.585 180.73 134.661 180.742C135.206 180.864 135.633 180.899 136.008 180.92C136.377 180.913 136.688 180.892 136.949 180.82C137.467 180.675 137.792 180.455 137.805 180.349C137.816 180.271 137.561 179.911 136.979 179.754C136.415 179.578 135.467 179.613 134.55 180.32C134.487 180.373 134.402 180.39 134.326 180.362C133.76 180.141 133.152 180.101 133.826 180.771C133.827 181.718 134.132 181.271 134.462 180.825Z" fill="black"/>
<path d="M130.777 183.149C130.78 183.073 130.834 183.009 130.907 182.981C131.92 182.572 132.491 182.218 132.855 181.818C133.04 181.634 133.164 181.443 133.239 181.285C133.316 181.133 133.346 181.022 133.325 180.977C133.284 180.887 132.893 180.743 132.3 180.902C132.005 180.978 131.682 181.162 131.357 181.438C131.205 181.59 131.055 181.766 130.915 181.968C130.775 182.17 130.674 182.425 130.578 182.688C130.552 182.763 130.485 182.819 130.405 182.835C129.838 182.977 129.271 183.239 130.225 183.454C130.732 184.237 130.779 183.722 130.777 183.149Z" fill="black"/>
<path d="M128.843 187.055C128.808 186.985 128.815 186.901 128.865 186.842C129.24 186.426 129.461 186.057 129.65 185.735C129.812 185.403 129.925 185.117 129.975 184.856C130.067 184.332 130.01 183.952 129.917 183.893C129.852 183.849 129.408 183.917 129.013 184.363C128.6 184.787 128.237 185.622 128.434 186.737C128.449 186.815 128.426 186.897 128.365 186.948C127.921 187.327 127.535 187.799 128.486 187.575C129.295 188.055 129.105 187.563 128.843 187.055Z" fill="black"/>
<path d="M128.789 191.414C128.728 191.366 128.692 191.288 128.718 191.213C128.798 190.947 128.851 190.709 128.882 190.492C128.917 190.274 128.956 190.072 128.96 189.889C128.961 189.522 128.957 189.211 128.882 188.952C128.746 188.435 128.518 188.116 128.411 188.103C128.33 188.092 127.969 188.341 127.797 188.904C127.62 189.453 127.609 190.363 128.283 191.298C128.324 191.363 128.344 191.447 128.31 191.519C128.074 192.053 127.948 192.652 128.697 192.034C129.639 192.106 129.246 191.759 128.789 191.414Z" fill="black"/>
<path d="M130.872 195.204C130.796 195.195 130.732 195.14 130.708 195.067C130.393 194.036 130.049 193.467 129.692 193.065C129.32 192.685 128.973 192.502 128.873 192.537C128.794 192.565 128.585 192.951 128.717 193.533C128.813 194.112 129.307 194.924 130.385 195.367C130.461 195.396 130.515 195.465 130.525 195.545C130.606 196.132 130.864 196.679 131.137 195.77C131.977 195.316 131.433 195.266 130.872 195.204Z" fill="black"/>
<path d="M134.723 197.274C134.652 197.307 134.566 197.303 134.507 197.25C133.671 196.539 133.068 196.228 132.536 196.105C132.025 195.972 131.619 196.026 131.557 196.107C131.504 196.173 131.559 196.591 131.985 197.023C132.404 197.436 133.246 197.861 134.395 197.672C134.474 197.661 134.558 197.681 134.61 197.742C134.995 198.181 135.482 198.564 135.25 197.626C135.734 196.834 135.241 197.018 134.723 197.274Z" fill="black"/>
<path d="M109.525 179.931C109.743 178.783 108.612 177.55 107.358 178.108C107.318 178.12 107.267 178.167 107.316 178.205C108.277 178.78 108.701 180.113 108.277 181.228C108.269 181.259 108.28 181.274 108.296 181.28C108.303 181.297 108.316 181.308 108.342 181.3C109.348 180.83 110.551 181.299 111.069 182.365C111.107 182.421 111.145 182.361 111.157 182.318C111.656 180.93 110.559 179.69 109.525 179.931Z" fill="black"/>
<path d="M114.397 173.411C114.615 172.263 113.484 171.03 112.23 171.588C112.19 171.599 112.139 171.647 112.188 171.685C113.149 172.26 113.573 173.593 113.149 174.708C113.141 174.739 113.152 174.754 113.168 174.76C113.175 174.777 113.188 174.788 113.214 174.78C114.22 174.31 115.423 174.779 115.941 175.844C115.978 175.9 116.017 175.841 116.029 175.798C116.528 174.41 115.43 173.17 114.397 173.411Z" fill="black"/>
<path d="M123.934 171.961C124.152 170.814 123.021 169.58 121.767 170.139C121.727 170.15 121.676 170.198 121.725 170.236C122.686 170.81 123.11 172.143 122.686 173.259C122.678 173.289 122.689 173.304 122.705 173.311C122.712 173.327 122.725 173.339 122.751 173.331C123.756 172.86 124.96 173.329 125.478 174.395C125.515 174.451 125.554 174.391 125.566 174.348C126.065 172.96 124.967 171.72 123.934 171.961Z" fill="black"/>
<path d="M105.024 185.097C105.242 183.95 104.111 182.717 102.857 183.275C102.817 183.286 102.766 183.334 102.815 183.372C103.776 183.946 104.2 185.28 103.776 186.395C103.768 186.426 103.779 186.44 103.795 186.447C103.802 186.464 103.815 186.475 103.841 186.467C104.847 185.996 106.05 186.465 106.568 187.531C106.605 187.587 106.644 187.527 106.656 187.484C107.155 186.097 106.057 184.856 105.024 185.097Z" fill="black"/>
<path d="M100.229 193.57C100.447 192.423 99.316 191.189 98.0622 191.748C98.0222 191.759 97.971 191.807 98.0202 191.844C98.9811 192.419 99.4055 193.752 98.9811 194.867C98.9735 194.898 98.9841 194.913 99.0005 194.919C99.0073 194.937 99.0203 194.948 99.0459 194.94C100.052 194.469 101.255 194.938 101.774 196.004C101.811 196.06 101.849 196 101.861 195.957C102.361 194.569 101.263 193.329 100.229 193.57Z" fill="black"/>
<path d="M115.669 204.032C115.887 202.885 114.756 201.652 113.502 202.21C113.462 202.221 113.411 202.269 113.46 202.307C114.421 202.881 114.845 204.215 114.421 205.33C114.413 205.361 114.424 205.375 114.44 205.382C114.447 205.399 114.46 205.41 114.486 205.402C115.492 204.931 116.695 205.4 117.213 206.466C117.25 206.522 117.289 206.462 117.301 206.419C117.8 205.032 116.702 203.791 115.669 204.032Z" fill="black"/>
<path d="M113.511 179.931C113.729 178.783 112.598 177.55 111.344 178.108C111.304 178.12 111.253 178.167 111.302 178.205C112.263 178.78 112.687 180.113 112.263 181.228C112.255 181.259 112.266 181.274 112.282 181.28C112.289 181.297 112.302 181.308 112.328 181.3C113.334 180.83 114.537 181.299 115.055 182.365C115.092 182.421 115.131 182.361 115.143 182.318C115.642 180.93 114.544 179.69 113.511 179.931Z" fill="black"/>
<path d="M117.496 179.931C117.714 178.783 116.583 177.55 115.329 178.108C115.289 178.12 115.238 178.167 115.287 178.205C116.248 178.78 116.673 180.113 116.248 181.228C116.241 181.259 116.251 181.274 116.268 181.28C116.275 181.297 116.288 181.308 116.313 181.3C117.319 180.83 118.522 181.299 119.041 182.365C119.078 182.421 119.116 182.361 119.129 182.318C119.628 180.93 118.53 179.69 117.496 179.931Z" fill="black"/>
<path d="M121.482 179.931C121.7 178.783 120.569 177.55 119.315 178.108C119.275 178.12 119.224 178.167 119.273 178.205C120.234 178.78 120.658 180.113 120.234 181.228C120.226 181.259 120.237 181.274 120.253 181.28C120.26 181.297 120.273 181.308 120.298 181.3C121.305 180.83 122.508 181.299 123.026 182.365C123.064 182.421 123.102 182.361 123.114 182.318C123.613 180.93 122.516 179.69 121.482 179.931Z" fill="black"/>
<path d="M109.446 197.925C109.672 196.778 108.497 195.545 107.193 196.103C107.152 196.114 107.099 196.162 107.15 196.2C108.148 196.774 108.589 198.108 108.148 199.223C108.141 199.254 108.152 199.268 108.169 199.275C108.176 199.292 108.19 199.303 108.215 199.295C109.261 198.825 110.512 199.293 111.051 200.359C111.089 200.415 111.129 200.355 111.142 200.313C111.661 198.925 110.52 197.684 109.446 197.925Z" fill="black"/>
<path d="M113.588 197.925C113.814 196.778 112.639 195.545 111.336 196.103C111.294 196.114 111.241 196.162 111.292 196.2C112.291 196.774 112.732 198.108 112.291 199.223C112.283 199.254 112.294 199.268 112.311 199.275C112.318 199.292 112.332 199.303 112.358 199.295C113.403 198.825 114.654 199.293 115.193 200.359C115.232 200.415 115.271 200.355 115.284 200.313C115.803 198.925 114.662 197.684 113.588 197.925Z" fill="black"/>
<path d="M117.73 197.925C117.956 196.778 116.781 195.545 115.478 196.103C115.436 196.114 115.383 196.162 115.434 196.2C116.433 196.774 116.874 198.108 116.433 199.223C116.425 199.254 116.436 199.268 116.453 199.275C116.46 199.292 116.474 199.303 116.5 199.295C117.545 198.825 118.796 199.293 119.335 200.359C119.374 200.415 119.413 200.355 119.426 200.313C119.945 198.925 118.804 197.684 117.73 197.925Z" fill="black"/>
<path d="M121.872 197.925C122.098 196.778 120.923 195.545 119.62 196.103C119.578 196.114 119.525 196.162 119.576 196.2C120.575 196.774 121.016 198.108 120.575 199.223C120.567 199.254 120.578 199.268 120.595 199.275C120.602 199.292 120.616 199.303 120.642 199.295C121.688 198.825 122.938 199.293 123.477 200.359C123.516 200.415 123.555 200.355 123.568 200.313C124.087 198.925 122.946 197.684 121.872 197.925Z" fill="black"/>
<path d="M110.825 193.588C111.106 192.511 109.967 191.391 108.619 191.947C108.576 191.958 108.52 192.004 108.57 192.038C109.559 192.548 109.947 193.78 109.449 194.833C109.44 194.862 109.451 194.875 109.468 194.881C109.474 194.896 109.488 194.907 109.515 194.898C110.598 194.432 111.847 194.836 112.347 195.816C112.384 195.867 112.427 195.811 112.441 195.77C113.03 194.461 111.927 193.334 110.825 193.588Z" fill="black"/>
<path d="M113.252 191.303C113.533 190.226 112.395 189.106 111.046 189.662C111.004 189.674 110.948 189.72 110.997 189.754C111.986 190.263 112.375 191.496 111.877 192.548C111.868 192.577 111.878 192.591 111.895 192.596C111.902 192.612 111.915 192.622 111.942 192.614C113.025 192.147 114.274 192.551 114.774 193.531C114.811 193.583 114.854 193.526 114.869 193.485C115.458 192.177 114.355 191.049 113.252 191.303Z" fill="black"/>
<path d="M115.68 189.018C115.961 187.942 114.822 186.822 113.473 187.377C113.431 187.389 113.375 187.435 113.425 187.469C114.414 187.979 114.802 189.211 114.304 190.264C114.295 190.293 114.306 190.306 114.323 190.311C114.329 190.327 114.342 190.338 114.369 190.329C115.452 189.862 116.702 190.267 117.201 191.247C117.238 191.298 117.281 191.241 117.296 191.201C117.885 189.892 116.782 188.765 115.68 189.018Z" fill="black"/>
<path d="M118.107 186.734C118.388 185.657 117.249 184.537 115.901 185.093C115.858 185.104 115.802 185.15 115.852 185.184C116.841 185.694 117.229 186.926 116.731 187.979C116.722 188.008 116.733 188.021 116.75 188.027C116.756 188.042 116.77 188.053 116.797 188.044C117.879 187.578 119.129 187.982 119.629 188.962C119.665 189.013 119.709 188.957 119.723 188.916C120.313 187.607 119.209 186.48 118.107 186.734Z" fill="black"/>
<path d="M120.535 184.449C120.816 183.372 119.677 182.252 118.328 182.808C118.285 182.82 118.229 182.865 118.28 182.9C119.268 183.409 119.657 184.642 119.159 185.694C119.15 185.723 119.16 185.737 119.178 185.742C119.184 185.758 119.197 185.768 119.224 185.76C120.307 185.293 121.557 185.697 122.056 186.677C122.093 186.729 122.136 186.672 122.151 186.631C122.74 185.322 121.637 184.195 120.535 184.449Z" fill="black"/>
<path d="M100.26 203.759H108.276C111.92 203.759 114.409 206.174 114.409 209.216C114.409 211.184 113.346 212.854 111.798 213.63V213.808C113.62 214.733 114.804 216.731 114.804 218.848C114.804 222.128 111.98 224.634 108.215 224.634H100.26V203.759ZM108.033 212.646C109.946 212.646 111.343 211.333 111.343 209.514C111.343 207.695 109.946 206.413 108.033 206.413H103.266V212.646H108.033ZM108.306 221.979C110.159 221.979 111.738 220.458 111.738 218.64C111.738 216.82 110.159 215.27 108.306 215.27H103.266V221.979H108.306Z" fill="black"/>
<path d="M119.265 203.759H127.281C130.925 203.759 133.567 206.353 133.567 209.812C133.567 212.586 131.897 214.673 129.164 215.478L134.326 224.634H130.956L126.127 216.015H122.271V224.634H119.265V203.759ZM126.978 213.361C128.951 213.361 130.5 211.81 130.5 209.872C130.5 207.964 128.951 206.413 126.978 206.413H122.271V213.361H126.978Z" fill="black"/>
<path d="M138.605 203.759H141.672L152.36 219.504H152.542V203.759H155.457V224.634H152.39L141.672 208.888H141.49V224.634H138.605V203.759Z" fill="black"/>
<path d="M160.282 214.196C160.282 207.934 164.836 203.431 171.121 203.431C177.406 203.431 181.961 207.934 181.961 214.196C181.961 220.458 177.406 224.961 171.121 224.961C164.836 224.961 160.282 220.458 160.282 214.196ZM171.121 222.247C175.676 222.247 178.895 218.937 178.895 214.196C178.895 209.454 175.676 206.144 171.121 206.144C166.536 206.144 163.349 209.454 163.349 214.196C163.349 218.937 166.536 222.247 171.121 222.247Z" fill="black"/>
<path d="M140.778 187.496C140.843 187.542 140.882 187.622 140.861 187.702C140.629 188.793 140.547 189.468 140.605 190.014C140.63 190.282 140.682 190.506 140.733 190.671C140.791 190.838 140.855 190.945 140.899 190.961C140.944 190.978 141.062 190.941 141.208 190.824C141.36 190.709 141.536 190.51 141.671 190.213C141.807 189.917 141.893 189.524 141.863 189.066C141.815 188.612 141.673 188.081 141.292 187.596C141.245 187.526 141.221 187.437 141.248 187.358C141.352 187.066 141.391 186.745 141.327 186.595C141.265 186.44 141.121 186.484 140.794 186.844C140.315 186.853 140.198 186.962 140.25 187.071C140.306 187.182 140.543 187.323 140.778 187.496Z" fill="black"/>
<path d="M133.472 186.185C133.465 186.104 133.517 186.033 133.59 185.999C134.103 185.758 134.494 185.596 134.828 185.455C135.156 185.309 135.42 185.169 135.646 185.028C135.87 184.888 136.052 184.746 136.181 184.628C136.309 184.502 136.38 184.404 136.375 184.356C136.371 184.311 136.286 184.217 136.115 184.141C135.943 184.058 135.683 183.987 135.344 184.004C135.009 184.02 134.592 184.131 134.192 184.41C133.789 184.677 133.419 185.139 133.245 185.725C133.219 185.807 133.151 185.872 133.075 185.903C132.93 185.956 132.782 186.021 132.659 186.092C132.545 186.166 132.454 186.246 132.412 186.315C132.328 186.46 132.452 186.544 132.942 186.573C133.247 186.938 133.406 186.96 133.459 186.853C133.487 186.797 133.492 186.703 133.485 186.583C133.487 186.469 133.481 186.331 133.472 186.185Z" fill="black"/>
<path d="M136.054 193.411C135.984 193.447 135.894 193.45 135.831 193.395C135.374 193.063 135.055 192.776 134.77 192.559C134.482 192.347 134.245 192.169 134.008 192.046C133.56 191.78 133.162 191.656 133.071 191.71C133.001 191.748 132.883 192.185 133.217 192.776C133.393 193.055 133.676 193.38 134.118 193.594C134.549 193.813 135.125 193.943 135.738 193.822C135.823 193.812 135.915 193.827 135.977 193.886C136.201 194.107 136.48 194.276 136.643 194.287C136.811 194.299 136.834 194.152 136.646 193.706C136.845 193.279 136.795 193.129 136.672 193.127C136.545 193.127 136.313 193.279 136.054 193.411Z" fill="black"/>
<path d="M140.571 200.805C140.526 200.874 140.442 200.896 140.363 200.882C139.247 200.691 138.51 200.768 137.979 200.986C137.454 201.157 137.163 201.462 137.166 201.557C137.168 201.648 137.479 201.925 138.077 202.048C138.663 202.128 139.571 202.037 140.482 201.302C140.545 201.251 140.635 201.244 140.711 201.267C141.271 201.449 141.883 201.536 141.217 200.839C141.256 199.901 140.902 200.319 140.571 200.805Z" fill="black"/>
<path d="M148.79 190.919C148.83 190.987 148.826 191.072 148.783 191.139C148.497 191.612 148.258 192.01 148.138 192.375C148.027 192.742 147.948 193.054 147.937 193.33C147.925 193.604 147.965 193.837 148.019 194.007C148.059 194.172 148.12 194.276 148.165 194.294C148.208 194.311 148.329 194.279 148.486 194.182C148.63 194.081 148.805 193.911 148.969 193.66C149.131 193.41 149.299 193.082 149.342 192.662C149.395 192.245 149.41 191.754 149.223 191.2C149.199 191.122 149.219 191.037 149.276 190.979C149.484 190.769 149.682 190.535 149.7 190.392C149.711 190.249 149.562 190.207 149.111 190.355C148.675 190.137 148.523 190.163 148.523 190.295C148.516 190.426 148.641 190.67 148.79 190.919Z" fill="black"/>
<path d="M144.014 178.897C144.093 178.895 144.167 178.939 144.204 179.009C144.334 179.259 144.481 179.454 144.602 179.653C144.724 179.851 144.849 180.018 144.976 180.161C145.243 180.434 145.469 180.663 145.706 180.809C146.184 181.096 146.58 181.174 146.66 181.116C146.733 181.064 146.811 180.636 146.524 180.109C146.385 179.845 146.186 179.53 145.832 179.281C145.662 179.151 145.466 179.025 145.245 178.911C145.025 178.795 144.752 178.726 144.47 178.659C144.389 178.642 144.323 178.583 144.299 178.505C144.254 178.363 144.204 178.22 144.148 178.103C144.086 177.994 144.021 177.908 143.959 177.869C143.834 177.789 143.729 177.9 143.652 178.365C143.256 178.64 143.21 178.786 143.325 178.848C143.384 178.879 143.485 178.891 143.609 178.891C143.729 178.9 143.869 178.901 144.014 178.897Z" fill="black"/>
<path d="M135.271 176.796C135.328 176.742 135.413 176.715 135.489 176.748C136.026 176.965 136.473 177.045 136.863 177.088C137.252 177.145 137.583 177.121 137.86 177.058C138.409 176.952 138.744 176.728 138.76 176.626C138.773 176.544 138.517 176.19 137.944 175.996C137.659 175.908 137.297 175.851 136.872 175.871C136.447 175.904 135.959 176.059 135.449 176.313C135.377 176.347 135.289 176.358 135.219 176.318C134.702 176.033 134.118 175.832 134.641 176.641C134.423 177.554 134.854 177.211 135.271 176.796Z" fill="black"/>
<path d="M125.282 184.918C125.255 184.846 125.274 184.762 125.329 184.704C125.525 184.5 125.683 184.305 125.815 184.118C125.966 183.939 126.086 183.767 126.182 183.601C126.278 183.434 126.349 183.273 126.402 183.119C126.47 182.973 126.518 182.833 126.551 182.7C126.677 182.168 126.581 181.758 126.507 181.711C126.422 181.656 126.018 181.753 125.598 182.189C125.493 182.296 125.386 182.425 125.284 182.574C125.197 182.73 125.117 182.909 125.048 183.109C124.98 183.309 124.924 183.53 124.887 183.771C124.869 184.019 124.875 184.288 124.906 184.572C124.915 184.652 124.88 184.733 124.812 184.78C124.307 185.127 123.949 185.59 124.886 185.426C125.682 185.985 125.471 185.445 125.282 184.918Z" fill="black"/>
<path d="M127.866 197.669C127.788 197.655 127.726 197.596 127.703 197.52C127.629 197.248 127.529 197.025 127.45 196.808C127.373 196.589 127.286 196.4 127.191 196.234C126.988 195.911 126.808 195.645 126.609 195.452C126.203 195.073 125.819 194.925 125.734 194.964C125.647 195.004 125.496 195.403 125.664 195.976C125.742 196.264 125.877 196.607 126.169 196.923C126.308 197.084 126.473 197.247 126.664 197.404C126.858 197.559 127.108 197.685 127.37 197.808C127.444 197.841 127.497 197.912 127.504 197.994C127.522 198.296 127.594 198.585 127.702 198.685C127.808 198.788 127.934 198.701 128.107 198.262C128.554 198.074 128.629 197.94 128.53 197.856C128.426 197.774 128.143 197.728 127.866 197.669Z" fill="black"/>
<path d="M147.293 196.572C147.295 196.649 147.25 196.721 147.181 196.757C146.702 197.025 146.292 197.244 146.011 197.501C145.867 197.625 145.752 197.757 145.647 197.88C145.536 197.996 145.447 198.113 145.374 198.227C145.083 198.683 145.051 199.102 145.113 199.176C145.17 199.247 145.579 199.278 146.111 199.009C146.244 198.943 146.384 198.857 146.526 198.751C146.661 198.638 146.789 198.495 146.917 198.332C147.163 197.999 147.425 197.592 147.532 197.024C147.549 196.946 147.607 196.883 147.685 196.861C148.255 196.701 148.808 196.441 147.848 196.246C147.328 195.472 147.278 196.004 147.293 196.572Z" fill="black"/>
<path d="M146.98 179.01C147.057 179.029 147.109 179.096 147.122 179.173C147.201 179.729 147.371 180.129 147.513 180.482C147.657 180.832 147.843 181.092 148.036 181.29C148.394 181.696 148.762 181.862 148.858 181.825C148.938 181.794 149.12 181.406 149.014 180.828C148.948 180.546 148.816 180.215 148.585 179.871C148.357 179.526 147.959 179.208 147.481 178.916C147.412 178.876 147.372 178.799 147.372 178.72C147.354 178.149 147.23 177.566 146.792 178.414C145.882 178.708 146.404 178.882 146.98 179.01Z" fill="black"/>
<path d="M128.933 176.942C128.959 176.87 129.028 176.821 129.107 176.812C129.667 176.754 130.091 176.628 130.463 176.519C130.828 176.399 131.096 176.213 131.317 176.053C131.76 175.743 131.943 175.371 131.913 175.28C131.885 175.194 131.512 175.015 130.911 175.064C130.614 175.093 130.278 175.222 129.915 175.427C129.545 175.62 129.19 175.976 128.871 176.443C128.826 176.509 128.747 176.546 128.665 176.538C128.061 176.481 127.488 176.602 128.307 177.074C128.553 178 128.74 177.463 128.933 176.942Z" fill="black"/>
<path d="M123.603 192.566C123.541 192.516 123.514 192.436 123.532 192.361C123.635 191.831 123.729 191.378 123.709 190.998C123.692 190.619 123.614 190.305 123.538 190.045C123.365 189.53 123.056 189.247 122.958 189.249C122.866 189.25 122.583 189.547 122.455 190.116C122.38 190.401 122.382 190.751 122.479 191.15C122.58 191.547 122.727 192.002 123.097 192.45C123.146 192.514 123.157 192.599 123.124 192.671C122.878 193.2 122.72 193.778 123.495 193.192C124.433 193.308 124.053 192.923 123.603 192.566Z" fill="black"/>
<path d="M136.016 203.251C135.952 203.296 135.866 203.3 135.797 203.264C135.301 203.023 134.881 202.835 134.506 202.742C134.132 202.651 133.802 202.653 133.53 202.651C132.984 202.673 132.619 202.885 132.592 202.977C132.567 203.064 132.777 203.414 133.304 203.694C133.564 203.846 133.912 203.927 134.33 203.947C134.747 203.969 135.235 203.929 135.771 203.699C135.846 203.669 135.933 203.681 135.995 203.732C136.451 204.105 136.978 204.409 136.604 203.518C136.963 202.662 136.485 202.92 136.016 203.251Z" fill="black"/>
</g>
</svg>
