<svg width="299" height="498" viewBox="0 0 299 498" fill="none" xmlns="http://www.w3.org/2000/svg">
<rect width="299" height="498" fill="#ffffff"/>
<g opacity="0.25">
<path d="M167.059 176.108L166.998 176.131C166.999 176.12 167 176.111 167.001 176.1C166.996 175.958 166.923 175.818 166.833 175.83C166.743 175.841 166.681 175.997 166.697 176.136C166.704 176.201 166.726 176.25 166.755 176.284C166.581 176.217 166.343 176.217 166.08 176.251C165.835 176.306 165.568 176.402 165.366 176.535C165.167 176.674 165.046 176.815 164.985 176.948C164.959 177.001 164.91 177.046 164.853 177.064C164.698 177.108 164.547 177.208 164.435 177.36C164.276 177.563 164.279 177.842 164.397 178.038C164.63 178.411 165.117 178.433 165.422 178.19C165.498 178.126 165.554 178.047 165.591 177.96C165.612 177.907 165.661 177.874 165.718 177.873C165.854 177.867 166 177.817 166.161 177.702C166.322 177.597 166.484 177.466 166.621 177.307C166.763 177.173 166.883 177.002 166.958 176.853C166.96 176.895 166.975 176.946 167.009 177.003C167.081 177.126 167.193 177.231 167.245 177.202C167.297 177.172 167.281 177.016 167.22 176.89C167.214 176.881 167.21 176.874 167.205 176.866C167.222 176.863 167.239 176.861 167.256 176.856C167.476 176.795 167.644 176.613 167.622 176.395C167.604 176.188 167.344 176.032 167.059 176.108Z" fill="black"/>
<path d="M161.957 181.532L161.922 181.586C161.916 181.577 161.912 181.57 161.905 181.56C161.813 181.45 161.67 181.382 161.605 181.444C161.54 181.507 161.587 181.668 161.686 181.768C161.732 181.816 161.779 181.842 161.823 181.853C161.642 181.902 161.453 182.043 161.265 182.226C161.103 182.414 160.95 182.648 160.871 182.874C160.798 183.103 160.788 183.287 160.822 183.429C160.834 183.487 160.822 183.551 160.788 183.599C160.692 183.726 160.633 183.895 160.637 184.083C160.636 184.339 160.81 184.559 161.026 184.645C161.441 184.805 161.843 184.534 161.936 184.16C161.957 184.064 161.952 183.968 161.928 183.877C161.913 183.822 161.932 183.767 161.976 183.733C162.081 183.647 162.167 183.521 162.224 183.334C162.288 183.154 162.336 182.955 162.346 182.747C162.378 182.556 162.368 182.349 162.336 182.186C162.363 182.218 162.407 182.249 162.469 182.275C162.602 182.33 162.756 182.348 162.779 182.294C162.803 182.24 162.694 182.124 162.568 182.06C162.558 182.056 162.55 182.053 162.541 182.05C162.552 182.037 162.565 182.026 162.575 182.012C162.713 181.834 162.734 181.589 162.583 181.427C162.441 181.273 162.137 181.303 161.957 181.532Z" fill="black"/>
<path d="M159.708 181.798L159.663 181.844C159.659 181.834 159.656 181.826 159.652 181.815C159.585 181.689 159.458 181.593 159.382 181.642C159.305 181.69 159.318 181.857 159.394 181.975C159.428 182.031 159.47 182.066 159.51 182.085C159.323 182.097 159.109 182.197 158.886 182.339C158.689 182.491 158.49 182.69 158.365 182.894C158.247 183.104 158.199 183.282 158.202 183.428C158.202 183.487 158.177 183.548 158.134 183.588C158.013 183.693 157.92 183.847 157.885 184.031C157.831 184.282 157.955 184.532 158.148 184.66C158.522 184.899 158.972 184.714 159.14 184.367C159.181 184.277 159.197 184.182 159.192 184.087C159.188 184.031 159.218 183.981 159.269 183.956C159.389 183.893 159.5 183.787 159.595 183.615C159.694 183.452 159.783 183.266 159.836 183.065C159.907 182.885 159.941 182.68 159.943 182.513C159.963 182.551 159.999 182.59 160.054 182.628C160.173 182.708 160.32 182.757 160.355 182.708C160.389 182.66 160.307 182.525 160.196 182.437C160.187 182.431 160.181 182.427 160.172 182.421C160.186 182.412 160.2 182.403 160.214 182.391C160.386 182.244 160.457 182.009 160.343 181.82C160.236 181.641 159.932 181.609 159.708 181.798Z" fill="black"/>
<path d="M171.341 176.64L171.284 176.64C171.288 176.63 171.292 176.623 171.297 176.612C171.339 176.478 171.327 176.322 171.261 176.302C171.191 176.284 171.104 176.399 171.055 176.531C171.034 176.593 171.028 176.646 171.035 176.688C170.828 176.43 170.423 176.148 169.998 176.024C169.789 175.961 169.598 175.957 169.461 175.993C169.404 176.008 169.335 175.999 169.286 175.961C169.156 175.862 168.978 175.799 168.772 175.813C168.498 175.819 168.259 176.008 168.198 176.223C168.094 176.644 168.371 177.011 168.724 177.083C168.816 177.099 168.913 177.102 169.004 177.079C169.058 177.067 169.112 177.081 169.151 177.124C169.247 177.227 169.375 177.305 169.592 177.37C170.005 177.492 170.625 177.491 170.944 177.285C170.923 177.322 170.912 177.374 170.916 177.44C170.925 177.58 171.016 177.732 171.095 177.723C171.176 177.717 171.223 177.566 171.208 177.427C171.205 177.416 171.204 177.408 171.201 177.398L171.261 177.409C171.533 177.439 171.764 177.276 171.774 177.061C171.783 176.85 171.59 176.668 171.341 176.64Z" fill="black"/>
<path d="M175.158 175.883L175.114 175.917C175.111 175.906 175.109 175.899 175.106 175.887C175.056 175.755 174.951 175.641 174.887 175.66C174.823 175.679 174.819 175.832 174.863 175.965C174.884 176.028 174.912 176.073 174.944 176.103C174.607 176.024 174.118 176.064 173.757 176.163C173.574 176.224 173.441 176.284 173.351 176.383C173.314 176.423 173.259 176.437 173.208 176.419C173.07 176.371 172.925 176.38 172.77 176.429C172.563 176.508 172.392 176.695 172.34 176.919C172.239 177.34 172.6 177.717 173.085 177.667C173.203 177.65 173.312 177.61 173.403 177.554C173.457 177.522 173.525 177.515 173.585 177.531C173.731 177.57 173.927 177.586 174.166 177.508C174.649 177.375 175.129 176.973 175.242 176.63C175.25 176.672 175.273 176.721 175.317 176.77C175.411 176.876 175.566 176.942 175.631 176.89C175.697 176.839 175.639 176.688 175.541 176.587C175.532 176.581 175.526 176.576 175.518 176.569L175.572 176.541C175.81 176.396 175.889 176.129 175.76 175.955C175.633 175.784 175.366 175.757 175.158 175.883Z" fill="black"/>
<path d="M175.614 172.714L175.584 172.761C175.578 172.752 175.573 172.745 175.567 172.736C175.472 172.628 175.334 172.557 175.281 172.597C175.227 172.636 175.278 172.781 175.366 172.891C175.408 172.943 175.451 172.975 175.491 172.992C175.147 173.033 174.702 173.235 174.398 173.451C174.248 173.571 174.144 173.671 174.095 173.795C174.074 173.845 174.028 173.877 173.973 173.878C173.827 173.878 173.694 173.936 173.566 174.035C173.4 174.179 173.305 174.412 173.336 174.64C173.389 175.07 173.862 175.301 174.297 175.09C174.403 175.034 174.491 174.959 174.557 174.876C174.596 174.828 174.658 174.798 174.72 174.793C174.87 174.78 175.059 174.729 175.257 174.575C175.663 174.286 175.971 173.746 175.956 173.386C175.979 173.424 176.017 173.461 176.076 173.493C176.202 173.56 176.371 173.57 176.414 173.499C176.457 173.428 176.349 173.306 176.221 173.245C176.211 173.242 176.203 173.239 176.194 173.236L176.234 173.191C176.406 172.975 176.387 172.698 176.203 172.578C176.025 172.46 175.764 172.526 175.614 172.714Z" fill="black"/>
<path d="M178.077 173.148L178.048 173.195C178.042 173.187 178.037 173.181 178.029 173.172C177.929 173.073 177.782 173.009 177.731 173.054C177.681 173.099 177.743 173.241 177.84 173.345C177.885 173.393 177.931 173.422 177.972 173.435C177.633 173.504 177.193 173.755 176.914 174.037C176.762 174.185 176.68 174.326 176.647 174.459C176.633 174.512 176.593 174.556 176.539 174.572C176.394 174.615 176.264 174.709 176.166 174.845C176.037 175.037 176.016 175.291 176.116 175.498C176.302 175.892 176.818 175.969 177.159 175.669C177.241 175.594 177.302 175.505 177.342 175.412C177.365 175.357 177.416 175.317 177.475 175.303C177.617 175.27 177.769 175.183 177.932 175.025C178.264 174.692 178.514 174.149 178.469 173.791C178.495 173.826 178.536 173.86 178.597 173.887C178.729 173.944 178.896 173.942 178.931 173.869C178.967 173.796 178.855 173.685 178.721 173.632C178.71 173.629 178.702 173.627 178.692 173.624L178.732 173.578C178.879 173.348 178.845 173.075 178.656 172.969C178.467 172.864 178.207 172.944 178.077 173.148Z" fill="black"/>
<path d="M162.823 177.705L162.807 177.757C162.798 177.75 162.792 177.746 162.783 177.739C162.661 177.666 162.503 177.638 162.465 177.693C162.427 177.749 162.521 177.872 162.641 177.95C162.696 177.987 162.747 178.004 162.791 178.008C162.478 178.154 162.111 178.499 161.908 178.838C161.795 179.017 161.751 179.173 161.751 179.31C161.75 179.365 161.721 179.417 161.672 179.445C161.542 179.52 161.438 179.641 161.376 179.797C161.297 180.013 161.339 180.264 161.486 180.442C161.761 180.782 162.281 180.737 162.54 180.367C162.602 180.275 162.64 180.174 162.656 180.074C162.665 180.016 162.704 179.965 162.759 179.938C162.889 179.873 163.015 179.754 163.136 179.561C163.378 179.161 163.49 178.576 163.36 178.238C163.393 178.267 163.441 178.29 163.508 178.302C163.649 178.327 163.81 178.286 163.827 178.207C163.845 178.128 163.709 178.046 163.566 178.026C163.555 178.025 163.547 178.025 163.536 178.025L163.563 177.971C163.652 177.713 163.552 177.456 163.343 177.397C163.133 177.338 162.9 177.476 162.823 177.705Z" fill="black"/>
<path d="M179.317 169.45L179.32 169.505C179.31 169.502 179.302 169.499 179.291 169.495C179.151 169.459 178.995 169.478 178.976 169.543C178.955 169.607 179.082 169.699 179.219 169.739C179.283 169.758 179.337 169.76 179.38 169.751C179.125 169.981 178.88 170.422 178.786 170.798C178.735 170.99 178.741 171.144 178.773 171.27C178.787 171.321 178.775 171.377 178.736 171.415C178.637 171.517 178.553 171.644 178.537 171.808C178.511 172.027 178.598 172.261 178.784 172.41C179.115 172.688 179.631 172.547 179.798 172.109C179.843 172.003 179.859 171.893 179.847 171.788C179.841 171.727 179.866 171.665 179.912 171.624C180.027 171.526 180.116 171.367 180.177 171.137C180.292 170.68 180.218 170.092 179.992 169.807C180.033 169.825 180.086 169.834 180.153 169.826C180.296 169.809 180.439 169.725 180.432 169.644C180.424 169.564 180.267 169.524 180.126 169.546C180.115 169.549 180.107 169.551 180.097 169.554L180.105 169.494C180.121 169.224 179.945 169.007 179.725 169.008C179.509 169.01 179.332 169.208 179.317 169.45Z" fill="black"/>
<path d="M181.943 157.502L181.897 157.533C181.895 157.523 181.893 157.514 181.891 157.503C181.849 157.368 181.751 157.247 181.685 157.265C181.618 157.281 181.604 157.434 181.64 157.57C181.658 157.633 181.684 157.68 181.714 157.711C181.381 157.618 180.869 157.643 180.492 157.761C180.299 157.818 180.168 157.903 180.075 157.995C180.038 158.035 179.982 158.053 179.929 158.04C179.789 158.01 179.634 158.007 179.483 158.078C179.278 158.172 179.12 158.366 179.087 158.599C179.017 159.021 179.41 159.379 179.878 159.29C179.994 159.272 180.098 159.228 180.183 159.163C180.233 159.127 180.3 159.116 180.359 159.133C180.505 159.177 180.69 159.168 180.922 159.1C181.38 158.958 181.854 158.59 181.985 158.253C181.99 158.295 182.01 158.344 182.052 158.396C182.141 158.507 182.289 158.582 182.356 158.535C182.421 158.486 182.374 158.334 182.281 158.228C182.273 158.22 182.268 158.215 182.26 158.208L182.316 158.183C182.559 158.056 182.657 157.795 182.541 157.612C182.427 157.433 182.162 157.388 181.943 157.502Z" fill="black"/>
<path d="M178.95 165.333V165.395C178.94 165.391 178.933 165.389 178.922 165.384C178.784 165.346 178.624 165.37 178.604 165.454C178.591 165.538 178.726 165.641 178.867 165.67C178.932 165.684 178.987 165.68 179.028 165.665C178.774 165.937 178.675 166.549 178.765 166.989C178.806 167.21 178.885 167.363 178.978 167.46C179.017 167.5 179.033 167.558 179.018 167.611C178.975 167.755 178.979 167.89 179.038 168.047C179.122 168.256 179.324 168.418 179.553 168.459C179.988 168.539 180.354 168.174 180.292 167.714C180.274 167.6 180.235 167.489 180.174 167.408C180.14 167.359 180.131 167.296 180.152 167.241C180.202 167.103 180.212 166.94 180.173 166.733C180.093 166.33 179.876 165.905 179.644 165.661C179.685 165.673 179.74 165.676 179.805 165.663C179.945 165.635 180.079 165.561 180.064 165.499C180.054 165.439 179.9 165.404 179.757 165.423C179.746 165.426 179.739 165.427 179.729 165.43C179.732 165.413 179.736 165.396 179.738 165.378C179.748 165.147 179.61 164.933 179.397 164.895C179.181 164.856 178.965 165.05 178.95 165.333Z" fill="black"/>
<path d="M177.442 163.626L177.423 163.685C177.415 163.678 177.408 163.673 177.399 163.666C177.28 163.588 177.12 163.563 177.075 163.637C177.036 163.713 177.133 163.851 177.258 163.921C177.316 163.954 177.369 163.966 177.413 163.965C177.087 164.148 176.8 164.701 176.748 165.146C176.719 165.369 176.746 165.538 176.804 165.659C176.829 165.709 176.826 165.768 176.796 165.814C176.709 165.939 176.671 166.068 176.678 166.236C176.693 166.46 176.834 166.675 177.04 166.782C177.429 166.988 177.892 166.751 177.977 166.294C177.995 166.18 177.992 166.063 177.96 165.968C177.942 165.911 177.954 165.849 177.991 165.802C178.081 165.686 178.142 165.533 178.17 165.324C178.219 164.917 178.145 164.447 178 164.145C178.036 164.17 178.087 164.188 178.153 164.196C178.295 164.211 178.446 164.18 178.45 164.117C178.46 164.057 178.324 163.978 178.183 163.953C178.171 163.952 178.163 163.952 178.153 163.951C178.161 163.936 178.171 163.921 178.178 163.904C178.26 163.688 178.195 163.442 178.005 163.342C177.811 163.24 177.544 163.361 177.442 163.626Z" fill="black"/>
<path d="M180.894 161.456L180.858 161.504C180.852 161.495 180.848 161.488 180.843 161.477C180.759 161.362 180.623 161.281 180.559 161.329C180.496 161.378 180.533 161.536 180.619 161.649C180.659 161.701 180.702 161.733 180.743 161.75C180.379 161.785 179.888 162.123 179.626 162.523C179.496 162.727 179.431 162.895 179.44 163.051C179.441 163.112 179.415 163.174 179.366 163.213C179.235 163.317 179.127 163.473 179.1 163.673C179.05 163.937 179.167 164.191 179.377 164.308C179.76 164.511 180.207 164.327 180.35 164.001C180.39 163.916 180.413 163.829 180.411 163.738C180.411 163.685 180.441 163.637 180.488 163.612C180.597 163.549 180.723 163.453 180.828 163.287C181.038 162.966 181.211 162.487 181.207 162.146C181.229 162.183 181.268 162.22 181.326 162.253C181.451 162.322 181.608 162.348 181.642 162.289C181.678 162.229 181.581 162.104 181.459 162.031C181.449 162.026 181.442 162.023 181.432 162.019L181.473 161.981C181.637 161.795 181.671 161.54 181.514 161.386C181.364 161.238 181.073 161.254 180.894 161.456Z" fill="black"/>
<path d="M183.688 158.243L183.647 158.287C183.642 158.277 183.64 158.27 183.635 158.259C183.564 158.136 183.436 158.042 183.368 158.084C183.3 158.126 183.32 158.287 183.395 158.407C183.429 158.464 183.469 158.5 183.508 158.52C183.142 158.519 182.619 158.808 182.318 159.181C182.168 159.371 182.085 159.531 182.078 159.687C182.074 159.749 182.041 159.807 181.988 159.842C181.848 159.932 181.724 160.076 181.677 160.272C181.6 160.531 181.691 160.795 181.888 160.932C182.248 161.171 182.712 161.032 182.888 160.722C182.936 160.642 182.968 160.557 182.975 160.466C182.98 160.413 183.015 160.368 183.064 160.348C183.179 160.297 183.315 160.213 183.436 160.058C183.677 159.759 183.899 159.3 183.929 158.96C183.947 158.999 183.982 159.04 184.037 159.078C184.154 159.159 184.307 159.2 184.348 159.144C184.389 159.088 184.306 158.954 184.192 158.87C184.182 158.864 184.175 158.86 184.167 158.855L184.211 158.822C184.392 158.652 184.453 158.402 184.312 158.233C184.178 158.071 183.887 158.059 183.688 158.243Z" fill="black"/>
<path d="M169.356 178.259L169.293 178.258C169.297 178.249 169.301 178.241 169.306 178.231C169.351 178.096 169.331 177.94 169.244 177.919C169.165 177.901 169.061 178.029 169.028 178.165C169.012 178.229 169.014 178.282 169.027 178.323C168.772 178.077 168.229 177.925 167.787 177.963C167.563 177.979 167.4 178.045 167.288 178.13C167.242 178.167 167.18 178.181 167.124 178.164C166.973 178.118 166.795 178.127 166.621 178.207C166.385 178.315 166.234 178.559 166.261 178.787C166.33 179.21 166.698 179.47 167.046 179.409C167.137 179.393 167.219 179.354 167.294 179.303C167.337 179.272 167.393 179.268 167.441 179.292C167.559 179.352 167.707 179.376 167.905 179.361C168.295 179.328 168.763 179.153 169.009 178.926C168.995 178.966 168.991 179.02 169.001 179.084C169.023 179.223 169.091 179.358 169.152 179.347C169.206 179.337 169.243 179.186 169.233 179.047C169.232 179.036 169.23 179.029 169.228 179.019C169.244 179.022 169.259 179.026 169.276 179.028C169.337 179.031 169.359 179.029 169.407 179.015C169.466 179.007 169.522 178.989 169.57 178.963C169.668 178.911 169.738 178.827 169.76 178.722C169.782 178.618 169.753 178.513 169.69 178.43C169.659 178.388 169.619 178.35 169.572 178.321C169.514 178.291 169.42 178.262 169.356 178.259Z" fill="black"/>
<path d="M165.077 179.413L165.038 179.462C165.033 179.452 165.029 179.445 165.023 179.435C164.942 179.319 164.802 179.239 164.733 179.294C164.671 179.346 164.711 179.504 164.802 179.612C164.844 179.663 164.888 179.693 164.93 179.709C164.575 179.758 164.122 180.089 163.886 180.457C163.764 180.641 163.718 180.808 163.72 180.947C163.722 181.005 163.696 181.062 163.647 181.096C163.519 181.185 163.419 181.33 163.379 181.513C163.323 181.763 163.43 182.028 163.631 182.145C164.016 182.347 164.45 182.219 164.612 181.91C164.654 181.829 164.672 181.742 164.675 181.653C164.676 181.6 164.708 181.554 164.756 181.531C164.876 181.476 164.986 181.375 165.094 181.211C165.302 180.888 165.444 180.417 165.408 180.088C165.433 180.123 165.473 180.158 165.532 180.19C165.658 180.256 165.809 180.285 165.837 180.231C165.862 180.183 165.762 180.062 165.642 179.986C165.632 179.981 165.625 179.977 165.617 179.973C165.629 179.963 165.641 179.953 165.652 179.941C165.692 179.896 165.704 179.877 165.721 179.831C165.751 179.78 165.77 179.726 165.778 179.673C165.795 179.565 165.769 179.46 165.698 179.379C165.626 179.298 165.524 179.258 165.418 179.256C165.364 179.255 165.31 179.264 165.258 179.282C165.199 179.31 165.118 179.365 165.077 179.413Z" fill="black"/>
<path d="M173.259 178.469C173.241 178.472 173.224 178.478 173.207 178.483C173.209 178.472 173.21 178.464 173.212 178.453C173.219 178.312 173.17 178.164 173.104 178.161C173.038 178.155 172.975 178.292 172.964 178.432C172.959 178.496 172.967 178.549 172.985 178.589C172.715 178.383 172.24 178.25 171.855 178.246C171.658 178.24 171.512 178.28 171.398 178.349C171.352 178.379 171.295 178.376 171.25 178.349C171.129 178.272 170.983 178.238 170.822 178.267C170.604 178.298 170.406 178.453 170.318 178.669C170.151 179.063 170.418 179.497 170.857 179.535C170.966 179.545 171.071 179.53 171.165 179.497C171.22 179.476 171.282 179.488 171.331 179.518C171.449 179.595 171.616 179.643 171.843 179.649C172.292 179.655 172.827 179.454 173.053 179.188C173.044 179.23 173.047 179.283 173.068 179.345C173.112 179.479 173.22 179.602 173.294 179.579C173.368 179.553 173.375 179.396 173.327 179.264C173.322 179.254 173.318 179.248 173.314 179.238L173.372 179.234C173.63 179.193 173.804 178.99 173.761 178.781C173.718 178.572 173.493 178.432 173.259 178.469Z" fill="black"/>
<path d="M160.163 178.331C160.156 178.348 160.152 178.365 160.147 178.381C160.139 178.374 160.132 178.369 160.123 178.361C160.006 178.28 159.853 178.24 159.814 178.293C159.774 178.344 159.857 178.47 159.971 178.555C160.025 178.594 160.074 178.615 160.118 178.622C159.796 178.734 159.425 179.053 159.213 179.369C159.102 179.527 159.057 179.67 159.055 179.801C159.056 179.855 159.023 179.9 158.975 179.923C158.844 179.981 158.736 180.083 158.674 180.232C158.582 180.428 158.609 180.675 158.746 180.864C158.995 181.215 159.512 181.229 159.783 180.887C159.849 180.803 159.894 180.708 159.915 180.613C159.927 180.556 159.971 180.512 160.024 180.488C160.153 180.431 160.285 180.32 160.412 180.136C160.66 179.769 160.776 179.22 160.669 178.889C160.7 178.919 160.747 178.945 160.812 178.962C160.951 178.998 161.116 178.975 161.135 178.902C161.153 178.827 161.022 178.736 160.883 178.705C160.872 178.704 160.864 178.702 160.854 178.701L160.881 178.651C160.985 178.416 160.905 178.163 160.702 178.086C160.499 178.008 160.258 178.118 160.163 178.331Z" fill="black"/>
<path d="M176.847 177.153C176.832 177.163 176.818 177.174 176.804 177.186C176.801 177.176 176.799 177.168 176.796 177.156C176.743 177.026 176.636 176.91 176.574 176.933C176.512 176.956 176.514 177.11 176.563 177.243C176.587 177.305 176.617 177.349 176.649 177.377C176.312 177.292 175.827 177.372 175.475 177.519C175.299 177.604 175.177 177.685 175.103 177.794C175.072 177.837 175.022 177.862 174.97 177.855C174.83 177.841 174.683 177.862 174.547 177.946C174.364 178.063 174.248 178.289 174.252 178.515C174.259 178.95 174.678 179.232 175.103 179.098C175.209 179.069 175.298 179.008 175.369 178.937C175.411 178.895 175.471 178.877 175.529 178.888C175.67 178.91 175.849 178.901 176.054 178.803C176.469 178.629 176.866 178.222 176.964 177.895C176.974 177.937 176.999 177.985 177.044 178.032C177.14 178.136 177.287 178.2 177.344 178.148C177.401 178.096 177.342 177.951 177.242 177.85C177.234 177.842 177.227 177.837 177.22 177.831L177.271 177.805C177.493 177.67 177.564 177.412 177.435 177.236C177.311 177.065 177.049 177.031 176.847 177.153Z" fill="black"/>
<path d="M179.665 174.57C179.655 174.585 179.647 174.6 179.638 174.616C179.632 174.607 179.627 174.601 179.62 174.592C179.522 174.489 179.38 174.42 179.331 174.463C179.284 174.508 179.337 174.647 179.432 174.753C179.476 174.801 179.52 174.832 179.561 174.847C179.389 174.867 179.196 174.94 179.018 175.044C178.83 175.143 178.653 175.267 178.521 175.408C178.382 175.546 178.303 175.674 178.276 175.802C178.264 175.854 178.227 175.897 178.175 175.911C178.04 175.952 177.91 176.028 177.818 176.16C177.692 176.337 177.68 176.595 177.777 176.8C177.962 177.195 178.455 177.285 178.79 177.005C178.875 176.938 178.933 176.851 178.969 176.759C178.991 176.705 179.039 176.665 179.096 176.654C179.234 176.623 179.389 176.545 179.547 176.388C179.698 176.228 179.836 176.024 179.929 175.816C180.015 175.602 180.061 175.388 180.047 175.217C180.071 175.253 180.112 175.288 180.172 175.317C180.3 175.38 180.467 175.392 180.499 175.321C180.532 175.252 180.422 175.137 180.292 175.079C180.282 175.075 180.274 175.073 180.264 175.07L180.302 175.026C180.453 174.818 180.427 174.555 180.245 174.438C180.063 174.322 179.803 174.381 179.665 174.57Z" fill="black"/>
<path d="M181.241 171.147C181.236 171.164 181.235 171.181 181.233 171.199C181.224 171.194 181.217 171.19 181.206 171.184C181.076 171.13 180.915 171.123 180.886 171.181C180.857 171.24 180.97 171.347 181.1 171.405C181.161 171.433 181.214 171.443 181.257 171.44C180.971 171.618 180.678 172.008 180.536 172.357C180.471 172.537 180.452 172.683 180.474 172.809C180.484 172.86 180.465 172.913 180.423 172.944C180.314 173.031 180.229 173.15 180.192 173.303C180.146 173.513 180.231 173.754 180.397 173.909C180.717 174.21 181.215 174.116 181.419 173.728C181.473 173.634 181.488 173.528 181.488 173.43C181.488 173.371 181.518 173.317 181.567 173.283C181.686 173.203 181.798 173.069 181.874 172.859C182.041 172.448 182.035 171.886 181.855 171.585C181.892 171.608 181.944 171.624 182.011 171.626C182.154 171.633 182.306 171.575 182.31 171.499C182.314 171.424 182.167 171.362 182.023 171.361C182.012 171.361 182.004 171.362 181.994 171.363L182.012 171.309C182.065 171.059 181.922 170.827 181.709 170.794C181.492 170.76 181.289 170.919 181.241 171.147Z" fill="black"/>
<path d="M181.303 167.369C181.306 167.387 181.311 167.404 181.316 167.421C181.306 167.419 181.297 167.418 181.286 167.417C181.143 167.413 180.992 167.465 180.988 167.531C180.983 167.597 181.129 167.656 181.271 167.663C181.338 167.666 181.391 167.656 181.431 167.637C181.232 167.909 181.112 168.385 181.124 168.765C181.138 168.958 181.173 169.101 181.249 169.208C181.279 169.252 181.284 169.308 181.259 169.354C181.195 169.477 181.157 169.62 181.193 169.776C181.244 169.988 181.407 170.173 181.629 170.25C182.042 170.396 182.469 170.113 182.488 169.68C182.495 169.573 182.477 169.471 182.433 169.381C182.409 169.328 182.413 169.267 182.444 169.218C182.517 169.099 182.571 168.933 182.556 168.713C182.542 168.276 182.321 167.766 182.04 167.553C182.083 167.56 182.137 167.556 182.201 167.535C182.335 167.488 182.455 167.38 182.43 167.309C182.405 167.238 182.245 167.235 182.111 167.285C182.101 167.29 182.094 167.294 182.085 167.298L182.081 167.242C182.045 167.022 181.86 166.859 181.641 166.866C181.424 166.874 181.26 167.106 181.303 167.369Z" fill="black"/>
<path d="M181.723 163.274L181.707 163.332C181.699 163.325 181.693 163.32 181.683 163.313C181.562 163.236 181.405 163.21 181.364 163.281C181.323 163.351 181.418 163.485 181.542 163.554C181.6 163.586 181.653 163.599 181.697 163.598C181.387 163.77 181.087 164.27 181.026 164.707C180.993 164.928 181.019 165.097 181.082 165.223C181.107 165.275 181.105 165.336 181.076 165.385C181.001 165.518 180.963 165.683 181.002 165.858C181.049 166.096 181.241 166.285 181.469 166.335C181.898 166.424 182.274 166.122 182.295 165.751C182.302 165.657 182.284 165.566 182.247 165.483C182.225 165.434 182.237 165.379 182.271 165.338C182.355 165.238 182.415 165.102 182.444 164.913C182.497 164.539 182.441 164.077 182.284 163.781C182.319 163.805 182.37 163.824 182.436 163.832C182.579 163.85 182.731 163.824 182.737 163.765C182.744 163.706 182.606 163.627 182.466 163.601C182.455 163.6 182.447 163.6 182.437 163.599C182.444 163.584 182.453 163.57 182.458 163.554C182.542 163.352 182.465 163.115 182.279 163.013C182.085 162.906 181.827 163.023 181.723 163.274Z" fill="black"/>
<path d="M172.582 180.734L172.525 180.738C172.528 180.728 172.531 180.72 172.535 180.709C172.568 180.572 172.545 180.418 172.477 180.403C172.409 180.39 172.317 180.515 172.279 180.648C172.261 180.71 172.26 180.763 172.27 180.806C172.159 180.684 171.997 180.573 171.818 180.486C171.729 180.437 171.637 180.388 171.543 180.35C171.494 180.331 171.447 180.314 171.402 180.297L171.331 180.275C171.275 180.263 171.221 180.251 171.167 180.239C171.113 180.237 171.062 180.236 171.012 180.234C170.795 180.229 170.63 180.264 170.506 180.33C170.455 180.358 170.392 180.359 170.342 180.331C170.207 180.257 170.047 180.223 169.872 180.249C169.637 180.284 169.432 180.439 169.34 180.653C169.158 181.049 169.466 181.482 169.937 181.521C170.053 181.53 170.164 181.515 170.263 181.479C170.322 181.458 170.388 181.467 170.44 181.499C170.565 181.579 170.738 181.631 170.979 181.637C171.023 181.638 171.025 181.638 171.029 181.635L171.031 181.633C171.04 181.634 170.99 181.624 171.024 181.629L171.113 181.637C171.171 181.639 171.232 181.642 171.295 181.644C171.417 181.644 171.537 181.64 171.652 181.622C171.883 181.576 172.087 181.503 172.225 181.407C172.207 181.446 172.199 181.498 172.209 181.564C172.229 181.706 172.322 181.846 172.407 181.831C172.492 181.82 172.53 181.666 172.503 181.528C172.5 181.517 172.498 181.51 172.494 181.5L172.557 181.506C172.843 181.516 173.066 181.34 173.057 181.123C173.047 180.914 172.835 180.743 172.582 180.734Z" fill="black"/>
<path d="M176.598 179.836L176.548 179.866C176.547 179.856 176.545 179.848 176.544 179.836C176.509 179.699 176.415 179.573 176.346 179.592C176.275 179.607 176.251 179.76 176.281 179.898C176.296 179.961 176.321 180.008 176.35 180.041C176.011 179.933 175.48 179.965 175.083 180.08C174.88 180.135 174.741 180.221 174.646 180.321C174.606 180.359 174.548 180.376 174.493 180.362C174.346 180.324 174.188 180.34 174.031 180.408C173.817 180.495 173.657 180.702 173.625 180.934C173.558 181.361 173.961 181.699 174.438 181.616C174.555 181.592 174.66 181.547 174.748 181.486C174.8 181.45 174.867 181.44 174.929 181.458C175.075 181.497 175.262 181.488 175.499 181.423C175.966 181.287 176.449 180.92 176.601 180.592C176.604 180.634 176.623 180.684 176.663 180.737C176.748 180.851 176.894 180.933 176.963 180.888C177.03 180.84 176.991 180.687 176.903 180.576C176.895 180.569 176.889 180.563 176.882 180.556L176.939 180.533C177.19 180.41 177.308 180.158 177.204 179.97C177.1 179.783 176.829 179.723 176.598 179.836Z" fill="black"/>
<path d="M183.041 177.356L183.018 177.408C183.01 177.4 183.005 177.394 182.997 177.385C182.889 177.292 182.738 177.241 182.692 177.295C182.642 177.347 182.712 177.487 182.816 177.582C182.865 177.627 182.913 177.652 182.956 177.662C182.614 177.763 182.196 178.084 181.936 178.401C181.802 178.559 181.739 178.708 181.718 178.842C181.707 178.896 181.669 178.942 181.617 178.962C181.473 179.012 181.353 179.113 181.263 179.257C181.138 179.447 181.127 179.707 181.235 179.916C181.428 180.305 181.956 180.358 182.3 180.023C182.382 179.939 182.442 179.842 182.479 179.743C182.501 179.685 182.55 179.639 182.611 179.62C182.754 179.57 182.903 179.458 183.06 179.272C183.364 178.901 183.549 178.33 183.482 177.975C183.51 178.008 183.554 178.039 183.618 178.06C183.754 178.106 183.922 178.092 183.953 178.016C183.98 177.94 183.859 177.835 183.722 177.794C183.711 177.792 183.703 177.791 183.693 177.788L183.726 177.738C183.861 177.497 183.812 177.224 183.617 177.127C183.423 177.031 183.165 177.133 183.041 177.356Z" fill="black"/>
<path d="M180.031 177.454L179.993 177.498C179.988 177.489 179.984 177.481 179.979 177.471C179.903 177.351 179.773 177.26 179.712 177.299C179.651 177.34 179.677 177.495 179.749 177.615C179.784 177.671 179.823 177.708 179.861 177.729C179.5 177.731 179.002 177.943 178.663 178.198C178.495 178.332 178.387 178.453 178.335 178.583C178.313 178.635 178.266 178.675 178.21 178.685C178.061 178.715 177.91 178.779 177.79 178.908C177.629 179.083 177.567 179.337 177.634 179.556C177.76 179.973 178.265 180.117 178.655 179.86C178.754 179.799 178.831 179.719 178.884 179.628C178.916 179.574 178.972 179.539 179.034 179.533C179.181 179.515 179.358 179.453 179.544 179.306C179.919 179.022 180.239 178.527 180.278 178.173C180.296 178.212 180.329 178.254 180.384 178.292C180.503 178.374 180.666 178.406 180.712 178.341C180.76 178.276 180.674 178.143 180.556 178.064C180.546 178.059 180.538 178.056 180.529 178.051L180.576 178.013C180.775 177.824 180.809 177.55 180.654 177.401C180.498 177.252 180.219 177.276 180.031 177.454Z" fill="black"/>
<path d="M182.549 174.189L182.53 174.242C182.522 174.235 182.515 174.229 182.507 174.221C182.392 174.137 182.237 174.098 182.195 174.154C182.155 174.21 182.237 174.343 182.347 174.43C182.399 174.471 182.448 174.492 182.492 174.499C182.155 174.621 181.769 174.966 181.524 175.298C181.403 175.469 181.348 175.621 181.331 175.756C181.325 175.811 181.292 175.861 181.24 175.886C181.105 175.952 180.987 176.063 180.905 176.216C180.798 176.426 180.815 176.691 180.943 176.881C181.186 177.245 181.707 177.24 182.011 176.89C182.087 176.804 182.134 176.701 182.161 176.6C182.177 176.541 182.222 176.491 182.28 176.468C182.422 176.413 182.563 176.294 182.702 176.097C182.985 175.713 183.129 175.121 183.04 174.773C183.071 174.804 183.117 174.832 183.182 174.849C183.323 174.885 183.489 174.857 183.51 174.776C183.532 174.696 183.403 174.602 183.263 174.571C183.252 174.57 183.244 174.57 183.233 174.568L183.264 174.515C183.388 174.265 183.304 173.992 183.1 173.914C182.898 173.837 182.661 173.964 182.549 174.189Z" fill="black"/>
<path d="M183.489 170.195L183.489 170.254C183.479 170.25 183.472 170.246 183.461 170.242C183.323 170.203 183.164 170.22 183.143 170.291C183.123 170.361 183.248 170.46 183.385 170.502C183.449 170.521 183.504 170.522 183.546 170.512C183.282 170.752 183.063 171.245 182.988 171.654C182.956 171.864 182.966 172.025 183.013 172.153C183.033 172.206 183.026 172.265 182.991 172.31C182.901 172.429 182.833 172.573 182.834 172.745C182.837 172.979 182.949 173.203 183.153 173.327C183.522 173.561 184.012 173.344 184.125 172.889C184.157 172.778 184.16 172.667 184.137 172.563C184.124 172.503 184.142 172.439 184.183 172.393C184.284 172.282 184.365 172.118 184.401 171.886C184.485 171.426 184.376 170.854 184.159 170.567C184.2 170.585 184.253 170.593 184.32 170.585C184.462 170.568 184.605 170.486 184.599 170.408C184.592 170.329 184.437 170.287 184.295 170.306C184.284 170.309 184.276 170.31 184.266 170.313C184.27 170.294 184.273 170.275 184.275 170.254C184.293 169.987 184.131 169.76 183.914 169.749C183.696 169.737 183.506 169.937 183.489 170.195Z" fill="black"/>
<path d="M183.144 166.052C183.147 166.073 183.153 166.092 183.158 166.111C183.147 166.109 183.139 166.108 183.127 166.106C182.984 166.097 182.833 166.149 182.831 166.227C182.829 166.305 182.977 166.376 183.12 166.384C183.187 166.388 183.239 166.376 183.279 166.356C183.082 166.657 183.009 167.216 183.08 167.644C183.116 167.862 183.184 168.015 183.275 168.122C183.313 168.166 183.325 168.225 183.307 168.279C183.259 168.422 183.258 168.584 183.312 168.73C183.351 168.842 183.411 168.89 183.493 168.984C183.572 169.071 183.674 169.136 183.787 169.168C183.999 169.228 184.204 169.178 184.358 169.056C184.437 169.002 184.498 168.907 184.538 168.786C184.574 168.678 184.592 168.555 184.578 168.441C184.566 168.323 184.528 168.218 184.472 168.13C184.44 168.078 184.436 168.012 184.458 167.957C184.513 167.821 184.531 167.646 184.495 167.422C184.422 166.979 184.166 166.484 183.887 166.262C183.93 166.269 183.984 166.264 184.047 166.241C184.181 166.191 184.3 166.083 184.275 166.013C184.249 165.943 184.089 165.936 183.955 165.985C183.945 165.99 183.938 165.993 183.928 165.998L183.925 165.94C183.886 165.685 183.688 165.502 183.471 165.523C183.255 165.544 183.104 165.786 183.144 166.052Z" fill="black"/>
<path d="M164.937 174.228C164.932 174.244 164.93 174.26 164.927 174.276C164.918 174.27 164.911 174.265 164.902 174.259C164.775 174.19 164.625 174.162 164.59 174.207C164.553 174.251 164.647 174.365 164.765 174.445C164.82 174.481 164.87 174.501 164.913 174.507C164.614 174.628 164.228 174.888 164 175.177C163.874 175.321 163.806 175.454 163.789 175.584C163.781 175.637 163.748 175.682 163.697 175.699C163.556 175.741 163.431 175.828 163.345 175.969C163.233 176.162 163.216 176.41 163.327 176.614C163.529 176.994 164.041 177.073 164.362 176.759C164.443 176.684 164.502 176.595 164.539 176.503C164.559 176.446 164.605 176.4 164.663 176.383C164.802 176.338 164.955 176.243 165.11 176.064C165.408 175.697 165.601 175.109 165.475 174.754C165.507 174.784 165.554 174.809 165.62 174.822C165.761 174.851 165.928 174.808 165.951 174.724C165.972 174.638 165.829 174.552 165.688 174.537H165.659L165.683 174.479C165.78 174.207 165.644 173.949 165.426 173.916C165.213 173.885 165.009 174.027 164.937 174.228Z" fill="black"/>
<path d="M164.663 170.39L164.671 170.447C164.661 170.444 164.653 170.442 164.641 170.439C164.499 170.419 164.344 170.458 164.335 170.533C164.324 170.608 164.467 170.688 164.609 170.705C164.675 170.714 164.729 170.706 164.77 170.69C164.541 170.944 164.445 171.544 164.539 171.968C164.585 172.185 164.659 172.322 164.756 172.42C164.796 172.46 164.812 172.515 164.795 172.566C164.754 172.702 164.758 172.849 164.817 172.987C164.904 173.176 165.086 173.321 165.323 173.376C165.537 173.423 165.742 173.373 165.882 173.234C166.029 173.094 166.104 172.874 166.07 172.647C166.053 172.534 166.008 172.438 165.95 172.354C165.916 172.305 165.908 172.243 165.928 172.19C165.976 172.06 165.986 171.889 165.944 171.691C165.858 171.297 165.641 170.889 165.383 170.643C165.426 170.653 165.48 170.652 165.545 170.634C165.682 170.596 165.808 170.504 165.791 170.438C165.773 170.372 165.615 170.353 165.476 170.389C165.466 170.393 165.458 170.396 165.448 170.399L165.45 170.345C165.433 170.103 165.255 169.911 165.037 169.916C164.819 169.92 164.645 170.134 164.663 170.39Z" fill="black"/>
<path d="M165.268 166.256L165.249 166.312C165.241 166.305 165.235 166.3 165.226 166.292C165.108 166.212 164.951 166.179 164.907 166.247C164.863 166.315 164.952 166.451 165.072 166.527C165.129 166.562 165.18 166.577 165.224 166.579C164.91 166.739 164.566 167.229 164.489 167.682C164.438 167.909 164.468 168.086 164.52 168.218C164.542 168.272 164.538 168.335 164.509 168.386C164.43 168.52 164.386 168.691 164.421 168.872C164.466 169.117 164.647 169.313 164.878 169.369C165.305 169.469 165.686 169.164 165.717 168.79C165.726 168.694 165.711 168.602 165.676 168.517C165.655 168.466 165.667 168.411 165.705 168.371C165.798 168.275 165.852 168.137 165.896 167.949C165.959 167.576 165.945 167.103 165.801 166.79C165.835 166.817 165.885 166.838 165.951 166.849C166.093 166.873 166.248 166.85 166.259 166.787C166.271 166.724 166.136 166.639 165.997 166.61C165.986 166.609 165.978 166.608 165.968 166.607C165.976 166.591 165.986 166.577 165.993 166.56C166.08 166.345 166.023 166.101 165.827 165.999C165.639 165.901 165.37 166.008 165.268 166.256Z" fill="black"/>
<path d="M168.023 165.727L167.993 165.779C167.986 165.771 167.982 165.764 167.974 165.755C167.876 165.652 167.729 165.589 167.672 165.647C167.615 165.704 167.673 165.855 167.775 165.953C167.823 165.999 167.87 166.025 167.913 166.035C167.572 166.128 167.133 166.539 166.962 166.967C166.864 167.178 166.857 167.357 166.88 167.497C166.89 167.555 166.873 167.616 166.834 167.659C166.729 167.775 166.649 167.934 166.646 168.117C166.639 168.367 166.775 168.594 166.99 168.696C167.386 168.88 167.823 168.658 167.931 168.297C167.96 168.206 167.965 168.113 167.949 168.023C167.938 167.969 167.962 167.917 168.007 167.886C168.119 167.81 168.201 167.685 168.282 167.511C168.422 167.158 168.509 166.693 168.433 166.358C168.461 166.39 168.505 166.421 168.567 166.445C168.701 166.497 168.858 166.506 168.883 166.446C168.907 166.387 168.793 166.277 168.663 166.221C168.652 166.217 168.645 166.215 168.635 166.212C168.646 166.198 168.659 166.186 168.669 166.171C168.8 165.978 168.795 165.728 168.624 165.589C168.461 165.455 168.176 165.505 168.023 165.727Z" fill="black"/>
<path d="M168.015 163.042C167.999 163.054 167.985 163.068 167.971 163.081C167.967 163.071 167.965 163.063 167.961 163.052C167.902 162.924 167.785 162.818 167.714 162.853C167.644 162.889 167.651 163.05 167.713 163.176C167.743 163.235 167.779 163.275 167.815 163.298C167.455 163.263 166.927 163.499 166.598 163.811C166.435 163.978 166.346 164.136 166.314 164.275C166.3 164.331 166.265 164.386 166.21 164.412C166.067 164.484 165.929 164.603 165.856 164.779C165.759 165.019 165.798 165.278 165.97 165.446C166.284 165.744 166.767 165.685 166.99 165.399C167.05 165.327 167.088 165.244 167.106 165.156C167.118 165.104 167.154 165.062 167.209 165.051C167.34 165.022 167.471 164.949 167.606 164.809C167.89 164.54 168.139 164.106 168.193 163.775C168.208 163.815 168.239 163.858 168.29 163.901C168.397 163.994 168.544 164.05 168.588 163.999C168.632 163.948 168.561 163.807 168.457 163.713C168.447 163.706 168.441 163.702 168.433 163.696L168.479 163.667C168.679 163.533 168.745 163.278 168.627 163.098C168.51 162.919 168.236 162.893 168.015 163.042Z" fill="black"/>
<path d="M171.976 161.466L171.917 161.48C171.919 161.47 171.921 161.461 171.923 161.45C171.935 161.309 171.885 161.161 171.804 161.159C171.723 161.157 171.647 161.301 171.641 161.441C171.638 161.507 171.651 161.558 171.671 161.597C171.372 161.4 170.774 161.361 170.332 161.512C170.106 161.583 169.959 161.687 169.87 161.803C169.833 161.85 169.775 161.878 169.714 161.876C169.552 161.87 169.384 161.93 169.236 162.044C169.039 162.207 168.959 162.464 169.025 162.683C169.157 163.097 169.613 163.26 169.956 163.105C170.044 163.066 170.115 163.001 170.175 162.935C170.21 162.895 170.264 162.877 170.318 162.888C170.447 162.914 170.598 162.902 170.785 162.843C171.149 162.719 171.564 162.46 171.771 162.192C171.765 162.234 171.771 162.287 171.794 162.348C171.844 162.48 171.943 162.598 172.005 162.575C172.066 162.552 172.074 162.395 172.03 162.262C172.025 162.252 172.022 162.246 172.018 162.237L172.072 162.233C172.309 162.212 172.493 162.02 172.484 161.81C172.473 161.594 172.246 161.442 171.976 161.466Z" fill="black"/>
<path d="M167.945 180.202L167.895 180.235C167.893 180.225 167.892 180.217 167.89 180.205C167.851 180.069 167.75 179.947 167.674 179.973C167.597 179.999 167.579 180.16 167.623 180.294C167.643 180.356 167.673 180.401 167.706 180.429C167.355 180.347 166.782 180.516 166.422 180.809C166.236 180.954 166.135 181.101 166.093 181.241C166.075 181.297 166.031 181.344 165.973 181.362C165.82 181.413 165.683 181.526 165.586 181.684C165.459 181.904 165.477 182.172 165.617 182.355C165.888 182.697 166.374 182.693 166.64 182.43C166.708 182.363 166.751 182.279 166.784 182.196C166.802 182.146 166.847 182.111 166.901 182.104C167.031 182.083 167.168 182.02 167.323 181.901C167.619 181.66 167.915 181.274 168.013 180.952C168.023 180.993 168.047 181.041 168.091 181.091C168.184 181.197 168.319 181.274 168.369 181.231C168.419 181.188 168.369 181.038 168.28 180.929C168.273 180.922 168.267 180.917 168.26 180.909L168.309 180.888C168.524 180.787 168.628 180.543 168.544 180.35C168.457 180.151 168.19 180.087 167.945 180.202Z" fill="black"/>
<path d="M176.105 161.741L176.053 161.748C176.055 161.738 176.057 161.731 176.06 161.72C176.082 161.581 176.051 161.429 175.99 161.413C175.928 161.399 175.851 161.53 175.821 161.667C175.808 161.731 175.809 161.784 175.821 161.825C175.581 161.588 175.158 161.379 174.75 161.302C174.543 161.264 174.371 161.278 174.236 161.329C174.182 161.349 174.119 161.344 174.067 161.313C173.931 161.225 173.754 161.181 173.565 161.21C173.306 161.24 173.1 161.43 173.042 161.65C172.941 162.071 173.244 162.438 173.612 162.48C173.707 162.487 173.799 162.481 173.886 162.45C173.936 162.432 173.993 162.445 174.035 162.483C174.133 162.574 174.278 162.643 174.497 162.683C174.926 162.766 175.534 162.666 175.806 162.428C175.791 162.469 175.786 162.522 175.799 162.586C175.825 162.724 175.925 162.857 176.008 162.843C176.091 162.832 176.118 162.675 176.083 162.539C176.079 162.528 176.076 162.521 176.073 162.511C176.093 162.513 176.113 162.514 176.134 162.513C176.413 162.499 176.612 162.302 176.579 162.087C176.547 161.881 176.335 161.729 176.105 161.741Z" fill="black"/>
<path d="M179.644 160.31L179.602 160.345C179.599 160.335 179.596 160.328 179.592 160.317C179.532 160.19 179.417 160.081 179.353 160.108C179.29 160.135 179.299 160.29 179.357 160.419C179.383 160.479 179.417 160.521 179.451 160.547C179.11 160.499 178.613 160.616 178.27 160.79C178.096 160.881 177.987 160.988 177.917 161.092C177.888 161.136 177.839 161.163 177.786 161.158C177.645 161.15 177.504 161.183 177.373 161.267C177.198 161.392 177.085 161.607 177.087 161.836C177.082 162.27 177.522 162.56 177.971 162.399C178.083 162.363 178.17 162.293 178.242 162.219C178.284 162.174 178.347 162.153 178.408 162.159C178.56 162.18 178.733 162.138 178.942 162.03C179.356 161.819 179.731 161.387 179.802 161.042C179.815 161.084 179.843 161.129 179.891 161.174C179.995 161.271 180.148 161.326 180.202 161.272C180.257 161.217 180.189 161.075 180.082 160.98C180.074 160.974 180.067 160.969 180.059 160.963L180.109 160.934C180.328 160.788 180.376 160.513 180.244 160.348C180.107 160.177 179.848 160.175 179.644 160.31Z" fill="black"/>
<path d="M162.708 172.425L162.725 172.479C162.714 172.478 162.706 172.477 162.694 172.476C162.551 172.48 162.404 172.543 162.406 172.617C162.403 172.643 162.427 172.624 162.48 172.629C162.531 172.629 162.599 172.657 162.67 172.659C162.736 172.665 162.79 172.661 162.831 172.647C162.605 172.858 162.398 173.288 162.333 173.662C162.301 173.852 162.316 173.999 162.364 174.118C162.385 174.167 162.378 174.222 162.342 174.26C162.249 174.365 162.19 174.494 162.189 174.647C162.185 174.85 162.301 175.056 162.492 175.195C162.836 175.469 163.345 175.283 163.47 174.842C163.503 174.734 163.503 174.628 163.484 174.53C163.474 174.472 163.492 174.412 163.532 174.369C163.631 174.266 163.709 174.111 163.747 173.891C163.821 173.456 163.707 172.893 163.446 172.611C163.488 172.624 163.542 172.626 163.607 172.606C163.675 172.582 163.746 172.553 163.787 172.487C163.829 172.427 163.843 172.331 163.827 172.289C163.8 172.228 163.64 172.236 163.509 172.293C163.499 172.298 163.492 172.302 163.483 172.307L163.477 172.254C163.427 172.022 163.212 171.866 162.998 171.905C162.784 171.945 162.654 172.177 162.708 172.425Z" fill="black"/>
<path d="M162.432 168.365L162.431 168.423C162.421 168.418 162.414 168.415 162.403 168.41C162.266 168.368 162.107 168.381 162.085 168.454C162.063 168.527 162.188 168.628 162.325 168.667C162.389 168.685 162.443 168.685 162.486 168.675C162.228 168.907 162.033 169.433 162.049 169.869C162.048 170.091 162.114 170.251 162.193 170.365C162.226 170.412 162.236 170.472 162.215 170.526C162.154 170.669 162.154 170.836 162.218 171.002C162.303 171.229 162.515 171.386 162.753 171.402C163.19 171.43 163.516 171.071 163.477 170.696C163.464 170.601 163.433 170.513 163.386 170.436C163.357 170.391 163.358 170.334 163.385 170.287C163.455 170.174 163.48 170.027 163.482 169.832C163.468 169.449 163.324 168.982 163.1 168.722C163.14 168.738 163.194 168.745 163.26 168.738C163.403 168.722 163.545 168.655 163.538 168.59C163.531 168.525 163.377 168.482 163.235 168.494C163.224 168.496 163.216 168.498 163.206 168.499L163.216 168.448C163.236 168.214 163.095 168 162.881 167.967C162.665 167.933 162.454 168.11 162.432 168.365Z" fill="black"/>
<path d="M163.731 164.476L163.706 164.528C163.699 164.52 163.693 164.514 163.686 164.505C163.579 164.41 163.429 164.357 163.378 164.416C163.328 164.474 163.399 164.618 163.507 164.709C163.558 164.751 163.607 164.774 163.651 164.782C163.475 164.833 163.299 164.963 163.137 165.132C162.97 165.298 162.833 165.508 162.756 165.716C162.671 165.925 162.651 166.095 162.689 166.234C162.703 166.291 162.689 166.351 162.649 166.394C162.547 166.509 162.463 166.663 162.469 166.845C162.47 167.092 162.611 167.314 162.824 167.41C163.223 167.583 163.663 167.364 163.755 167.007C163.783 166.918 163.787 166.827 163.771 166.738C163.761 166.686 163.782 166.634 163.824 166.602C163.923 166.521 164.018 166.404 164.09 166.226C164.156 166.049 164.2 165.842 164.225 165.64C164.244 165.436 164.23 165.231 164.19 165.073C164.22 165.103 164.266 165.131 164.329 165.152C164.466 165.195 164.623 165.193 164.643 165.131C164.663 165.069 164.541 164.968 164.407 164.92C164.396 164.918 164.388 164.916 164.378 164.913C164.389 164.899 164.4 164.886 164.409 164.871C164.521 164.665 164.495 164.42 164.312 164.298C164.135 164.18 163.857 164.249 163.731 164.476Z" fill="black"/>
<path d="M183.676 161.293L183.669 161.35C183.66 161.345 183.653 161.341 183.642 161.335C183.51 161.279 183.351 161.277 183.322 161.348C183.293 161.42 183.408 161.534 183.541 161.585C183.603 161.609 183.657 161.615 183.701 161.609C183.552 161.712 183.428 161.892 183.331 162.103C183.228 162.313 183.167 162.555 183.163 162.776C183.152 163 183.189 163.168 183.271 163.288C183.303 163.337 183.31 163.398 183.287 163.452C183.228 163.593 183.199 163.765 183.265 163.936C183.348 164.169 183.555 164.334 183.787 164.357C184.223 164.395 184.566 164.047 184.535 163.681C184.533 163.587 184.506 163.5 184.461 163.421C184.435 163.375 184.437 163.32 184.466 163.275C184.533 163.168 184.585 163.027 184.594 162.836C184.598 162.646 184.571 162.436 184.528 162.238C184.479 162.039 184.397 161.849 184.307 161.713C184.346 161.732 184.398 161.744 184.465 161.743C184.609 161.741 184.756 161.688 184.755 161.624C184.753 161.559 184.604 161.502 184.462 161.499C184.451 161.5 184.443 161.501 184.433 161.502C184.438 161.485 184.444 161.469 184.447 161.452C184.486 161.222 184.38 160.998 184.166 160.941C183.96 160.886 183.719 161.038 183.676 161.293Z" fill="black"/>
<path d="M166.564 161.477L166.521 161.514C166.517 161.504 166.514 161.496 166.511 161.486C166.45 161.358 166.333 161.251 166.263 161.284C166.194 161.317 166.201 161.475 166.265 161.6C166.294 161.659 166.33 161.699 166.367 161.723C166.02 161.695 165.491 161.904 165.173 162.21C165.005 162.357 164.925 162.516 164.894 162.653C164.881 162.709 164.842 162.757 164.788 162.779C164.642 162.837 164.503 162.943 164.428 163.111C164.321 163.334 164.35 163.594 164.501 163.77C164.785 164.093 165.282 164.082 165.517 163.795C165.582 163.727 165.626 163.646 165.651 163.56C165.665 163.509 165.707 163.471 165.76 163.459C165.89 163.433 166.014 163.354 166.164 163.224C166.442 162.955 166.702 162.539 166.745 162.199C166.76 162.239 166.791 162.282 166.841 162.326C166.949 162.418 167.096 162.476 167.141 162.427C167.186 162.378 167.114 162.238 167.009 162.143C167 162.137 166.994 162.132 166.986 162.126L167.032 162.099C167.223 161.958 167.285 161.705 167.167 161.53C167.044 161.35 166.773 161.323 166.564 161.477Z" fill="black"/>
<path d="M170.315 159.703L170.261 159.723C170.261 159.713 170.262 159.704 170.262 159.693C170.254 159.552 170.184 159.412 170.107 159.419C170.03 159.426 169.979 159.578 169.992 159.717C169.997 159.783 170.016 159.832 170.041 159.868C169.725 159.707 169.153 159.722 168.742 159.899C168.532 159.983 168.397 160.091 168.321 160.212C168.289 160.261 168.235 160.292 168.176 160.293C168.019 160.296 167.853 160.348 167.722 160.475C167.54 160.642 167.47 160.893 167.544 161.111C167.685 161.515 168.153 161.684 168.483 161.5C168.57 161.458 168.641 161.398 168.695 161.325C168.728 161.282 168.781 161.261 168.835 161.269C168.964 161.284 169.116 161.265 169.3 161.193C169.655 161.039 170.047 160.737 170.216 160.446C170.215 160.489 170.228 160.54 170.258 160.599C170.324 160.723 170.438 160.828 170.498 160.797C170.557 160.766 170.542 160.61 170.48 160.484C170.474 160.475 170.47 160.468 170.465 160.459L170.517 160.45C170.748 160.389 170.903 160.185 170.857 159.974C170.813 159.767 170.568 159.637 170.315 159.703Z" fill="black"/>
<path d="M174.483 159.468L174.425 159.465C174.43 159.455 174.433 159.448 174.438 159.438C174.488 159.305 174.482 159.149 174.408 159.125C174.333 159.101 174.224 159.219 174.179 159.352C174.157 159.414 174.155 159.467 174.163 159.509C173.938 159.241 173.401 159.038 172.949 159.041C172.721 159.039 172.554 159.098 172.434 159.173C172.386 159.205 172.323 159.213 172.268 159.191C172.122 159.136 171.948 159.135 171.776 159.195C171.54 159.272 171.382 159.497 171.367 159.724C171.346 160.157 171.711 160.46 172.087 160.43C172.183 160.421 172.271 160.385 172.349 160.339C172.395 160.313 172.452 160.315 172.499 160.343C172.612 160.413 172.759 160.442 172.955 160.444C173.341 160.443 173.817 160.311 174.09 160.108C174.072 160.147 174.063 160.199 174.067 160.265C174.077 160.405 174.139 160.546 174.205 160.541C174.271 160.536 174.322 160.388 174.316 160.248C174.314 160.237 174.313 160.229 174.312 160.22C174.329 160.224 174.346 160.229 174.364 160.232C174.599 160.26 174.828 160.134 174.87 159.923C174.912 159.716 174.744 159.5 174.483 159.468Z" fill="black"/>
<path d="M178.195 159.143L178.145 159.167C178.144 159.157 178.143 159.149 178.142 159.137C178.118 158.999 178.034 158.866 177.964 158.878C177.893 158.89 177.861 159.043 177.886 159.181C177.897 159.245 177.919 159.294 177.947 159.327C177.628 159.193 177.094 159.22 176.73 159.336C176.64 159.364 176.565 159.398 176.521 159.429C176.487 159.449 176.499 159.456 176.493 159.473C176.491 159.49 176.451 159.508 176.435 159.528C176.399 159.562 176.35 159.567 176.309 159.545C176.2 159.481 176.08 159.456 175.934 159.482C175.736 159.518 175.528 159.665 175.434 159.877C175.258 160.266 175.49 160.712 175.989 160.752C176.111 160.761 176.231 160.739 176.334 160.696C176.394 160.668 176.465 160.671 176.524 160.696C176.565 160.71 176.589 160.727 176.655 160.732C176.717 160.737 176.803 160.735 176.846 160.732C176.958 160.726 177.06 160.706 177.173 160.671C177.604 160.532 178.017 160.199 178.167 159.89C178.17 159.933 178.186 159.984 178.222 160.039C178.298 160.158 178.428 160.25 178.489 160.212C178.551 160.174 178.521 160.02 178.444 159.902C178.437 159.893 178.432 159.887 178.426 159.879L178.48 159.864C178.713 159.775 178.838 159.543 178.76 159.344C178.682 159.144 178.428 159.055 178.195 159.143Z" fill="black"/>
<path d="M160.184 169.534L160.197 169.595C160.186 169.593 160.178 169.591 160.167 169.589C160.023 169.573 159.871 169.622 159.867 169.705C159.864 169.788 160.01 169.868 160.153 169.878C160.219 169.883 160.273 169.872 160.312 169.852C160.106 170.155 160.078 170.778 160.167 171.174C160.213 171.387 160.288 171.536 160.383 171.64C160.422 171.683 160.439 171.742 160.423 171.797C160.382 171.944 160.388 172.107 160.454 172.266C160.547 172.483 160.749 172.64 160.983 172.678C161.418 172.759 161.776 172.356 161.699 171.899C161.681 171.786 161.639 171.684 161.58 171.598C161.546 171.547 161.538 171.483 161.558 171.426C161.607 171.287 161.617 171.109 161.569 170.883C161.464 170.414 161.192 169.988 160.921 169.764C160.964 169.772 161.018 169.766 161.081 169.744C161.217 169.696 161.339 169.595 161.316 169.529C161.294 169.463 161.134 169.452 160.997 169.495C160.987 169.5 160.98 169.503 160.97 169.507L160.968 169.451C160.933 169.203 160.761 169.006 160.539 169.015C160.326 169.023 160.146 169.258 160.184 169.534Z" fill="black"/>
<path d="M160.842 165.158L160.824 165.218C160.815 165.21 160.809 165.205 160.8 165.198C160.681 165.117 160.524 165.088 160.481 165.159C160.438 165.23 160.528 165.368 160.648 165.445C160.705 165.48 160.757 165.495 160.801 165.496C160.471 165.664 160.132 166.172 160.029 166.643C159.966 166.878 159.993 167.068 160.041 167.209C160.062 167.266 160.057 167.333 160.023 167.386C159.928 167.526 159.899 167.709 159.922 167.903C159.951 168.166 160.149 168.377 160.374 168.436C160.806 168.541 161.174 168.222 161.221 167.832C161.231 167.732 161.211 167.634 161.186 167.545C161.17 167.491 161.184 167.433 161.222 167.391C161.318 167.29 161.373 167.145 161.428 166.946C161.514 166.551 161.504 166.031 161.378 165.707C161.412 165.734 161.462 165.755 161.528 165.765C161.67 165.786 161.827 165.754 161.839 165.685C161.851 165.616 161.716 165.531 161.575 165.505C161.564 165.504 161.556 165.504 161.546 165.503L161.571 165.452C161.668 165.219 161.604 164.961 161.406 164.868C161.212 164.776 160.949 164.902 160.842 165.158Z" fill="black"/>
<path d="M163.321 161.496L163.282 161.543C163.277 161.534 163.273 161.527 163.267 161.516C163.186 161.401 163.049 161.318 162.983 161.365C162.916 161.411 162.953 161.575 163.037 161.689C163.076 161.742 163.119 161.775 163.159 161.792C162.794 161.832 162.293 162.16 162.005 162.535C161.864 162.728 161.798 162.899 161.784 163.046C161.778 163.106 161.744 163.162 161.69 163.195C161.553 163.284 161.438 163.428 161.375 163.609C161.284 163.853 161.362 164.127 161.535 164.281C161.868 164.569 162.346 164.449 162.571 164.11C162.627 164.023 162.657 163.927 162.67 163.83C162.679 163.775 162.718 163.727 162.771 163.705C162.902 163.65 163.029 163.546 163.154 163.373C163.41 163.04 163.615 162.547 163.617 162.195C163.639 162.232 163.677 162.27 163.734 162.303C163.859 162.374 164.014 162.395 164.055 162.336C164.095 162.275 164.001 162.149 163.879 162.076C163.868 162.071 163.861 162.068 163.852 162.063L163.896 162.025C164.078 161.84 164.101 161.567 163.948 161.415C163.795 161.263 163.514 161.3 163.321 161.496Z" fill="black"/>
<path d="M160.502 174.108L160.511 174.169C160.501 174.166 160.493 174.164 160.481 174.161C160.339 174.144 160.185 174.189 160.177 174.269C160.167 174.349 160.317 174.43 160.459 174.444C160.527 174.452 160.58 174.442 160.619 174.423C160.407 174.718 160.324 175.302 160.419 175.762C160.472 175.994 160.559 176.156 160.661 176.264C160.703 176.308 160.724 176.371 160.713 176.431C160.69 176.591 160.723 176.771 160.819 176.938C160.945 177.166 161.206 177.291 161.438 177.267C161.879 177.214 162.105 176.785 161.996 176.395C161.967 176.296 161.914 176.21 161.849 176.137C161.812 176.093 161.802 176.033 161.82 175.979C161.866 175.847 161.87 175.685 161.823 175.478C161.738 175.07 161.498 174.592 161.231 174.357C161.274 174.366 161.329 174.363 161.392 174.343C161.529 174.299 161.648 174.199 161.63 174.13C161.611 174.06 161.452 174.045 161.314 174.086C161.304 174.09 161.296 174.093 161.287 174.097L161.287 174.04C161.267 173.784 161.074 173.585 160.857 173.596C160.639 173.607 160.48 173.836 160.502 174.108Z" fill="black"/>
<path d="M166.797 158.737L166.744 158.77C166.742 158.759 166.741 158.751 166.739 158.74C166.699 158.605 166.594 158.485 166.514 158.511C166.435 158.54 166.418 158.705 166.463 158.839C166.484 158.902 166.515 158.946 166.548 158.973C166.186 158.907 165.595 159.083 165.22 159.375C165.025 159.517 164.915 159.662 164.863 159.802C164.841 159.858 164.794 159.904 164.734 159.921C164.573 159.964 164.424 160.066 164.315 160.221C164.164 160.431 164.145 160.7 164.264 160.903C164.483 161.277 164.992 161.315 165.309 161.04C165.388 160.968 165.451 160.889 165.492 160.8C165.516 160.748 165.567 160.712 165.624 160.704C165.764 160.683 165.916 160.616 166.09 160.49C166.423 160.23 166.757 159.827 166.862 159.492C166.872 159.534 166.897 159.581 166.942 159.63C167.039 159.734 167.179 159.802 167.233 159.756C167.288 159.712 167.238 159.564 167.145 159.456C167.137 159.449 167.131 159.443 167.123 159.436L167.176 159.414C167.402 159.295 167.512 159.045 167.422 158.855C167.328 158.659 167.048 158.605 166.797 158.737Z" fill="black"/>
<path d="M171.142 157.58L171.08 157.59C171.083 157.579 171.085 157.571 171.088 157.56C171.11 157.421 171.067 157.269 170.986 157.262C170.904 157.254 170.817 157.392 170.799 157.531C170.79 157.596 170.799 157.649 170.817 157.689C170.522 157.472 169.923 157.378 169.446 157.471C169.205 157.513 169.037 157.608 168.926 157.706C168.88 157.747 168.815 157.768 168.753 157.757C168.587 157.738 168.401 157.772 168.23 157.868C167.997 158.007 167.872 158.257 167.904 158.484C167.973 158.914 168.416 159.125 168.803 159.014C168.902 158.984 168.988 158.934 169.06 158.868C169.104 158.833 169.165 158.823 169.219 158.841C169.353 158.887 169.513 158.884 169.724 158.848C170.134 158.769 170.624 158.544 170.87 158.289C170.86 158.331 170.861 158.384 170.88 158.447C170.922 158.582 171.021 158.707 171.092 158.688C171.163 158.669 171.183 158.513 171.144 158.378C171.14 158.367 171.137 158.36 171.133 158.351L171.192 158.351C171.453 158.33 171.662 158.16 171.656 157.944C171.649 157.734 171.42 157.558 171.142 157.58Z" fill="black"/>
<path d="M167.835 156.034L167.778 156.057C167.778 156.046 167.778 156.038 167.779 156.027C167.767 155.886 167.69 155.748 167.609 155.759C167.528 155.769 167.476 155.924 167.49 156.064C167.497 156.129 167.518 156.178 167.545 156.213C167.207 156.068 166.602 156.112 166.159 156.309C165.934 156.404 165.793 156.534 165.708 156.655C165.673 156.705 165.615 156.74 165.552 156.744C165.386 156.762 165.213 156.837 165.069 156.969C164.875 157.156 164.812 157.428 164.896 157.642C165.064 158.045 165.545 158.151 165.895 157.956C165.984 157.904 166.056 157.836 166.111 157.756C166.145 157.711 166.202 157.688 166.26 157.693C166.401 157.708 166.556 157.67 166.752 157.587C167.133 157.417 167.557 157.088 167.738 156.785C167.737 156.828 167.751 156.88 167.785 156.937C167.857 157.059 167.982 157.158 168.047 157.123C168.112 157.089 168.094 156.932 168.025 156.809C168.018 156.8 168.014 156.794 168.008 156.786L168.065 156.773C168.314 156.694 168.478 156.481 168.421 156.272C168.366 156.069 168.101 155.95 167.835 156.034Z" fill="black"/>
<path d="M175.55 157.74L175.49 157.741C175.494 157.731 175.497 157.724 175.501 157.713C175.539 157.577 175.518 157.422 175.444 157.404C175.371 157.386 175.271 157.511 175.231 157.646C175.213 157.709 175.213 157.763 175.224 157.804C174.971 157.551 174.443 157.347 173.991 157.313C173.762 157.295 173.587 157.326 173.454 157.389C173.401 157.415 173.335 157.416 173.281 157.388C173.137 157.314 172.96 157.281 172.758 157.318C172.502 157.374 172.3 157.558 172.244 157.783C172.137 158.204 172.494 158.571 172.899 158.585C173.004 158.59 173.107 158.572 173.202 158.537C173.257 158.516 173.32 158.524 173.369 158.558C173.488 158.639 173.652 158.695 173.88 158.712C174.329 158.746 174.894 158.625 175.183 158.406C175.166 158.446 175.159 158.498 175.169 158.563C175.189 158.703 175.275 158.84 175.354 158.831C175.434 158.822 175.474 158.67 175.452 158.531C175.449 158.52 175.447 158.513 175.444 158.503L175.504 158.511C175.779 158.527 176.011 158.361 176.016 158.148C176.021 157.934 175.815 157.755 175.55 157.74Z" fill="black"/>
<path d="M149.549 175.267C149.525 175.347 149.45 175.399 149.366 175.409C148.185 175.545 147.496 175.7 146.97 175.975C146.454 176.223 146.151 176.544 146.155 176.643C146.16 176.742 146.504 177.049 147.183 177.1C147.352 177.119 147.537 177.093 147.739 177.063C147.942 177.037 148.157 176.973 148.375 176.868C148.596 176.773 148.821 176.643 149.032 176.458C149.251 176.29 149.451 176.065 149.626 175.802C149.675 175.729 149.764 175.689 149.853 175.69C150.17 175.686 150.513 175.643 150.644 175.543C150.771 175.432 150.68 175.296 150.217 175.083C150.043 174.597 149.899 174.512 149.808 174.605C149.708 174.693 149.63 174.964 149.549 175.267Z" fill="black"/>
<path d="M152.133 171.373C152.17 171.449 152.16 171.54 152.107 171.604C151.314 172.492 150.959 173.105 150.757 173.642C150.564 174.163 150.575 174.609 150.647 174.678C150.719 174.748 151.179 174.732 151.708 174.305C152.232 173.899 152.759 172.967 152.569 171.725C152.552 171.638 152.58 171.548 152.647 171.492C153.154 171.074 153.514 170.525 152.517 170.803C151.614 170.298 151.879 170.826 152.133 171.373Z" fill="black"/>
<path d="M151.9 166.651C151.969 166.696 152.005 166.779 151.994 166.862C151.823 168.023 151.859 168.754 152.04 169.321C152.192 169.872 152.491 170.213 152.593 170.223C152.693 170.232 153.033 169.941 153.207 169.307C153.361 168.695 153.299 167.668 152.449 166.719C152.39 166.654 152.369 166.561 152.397 166.477C152.571 165.865 152.594 165.185 151.901 165.97C150.886 166.033 151.362 166.337 151.9 166.651Z" fill="black"/>
<path d="M148.831 163.13C148.914 163.115 149.005 163.139 149.05 163.214C149.719 164.182 150.171 164.702 150.66 165.034C150.879 165.21 151.103 165.32 151.283 165.384C151.451 165.456 151.582 165.475 151.628 165.45C151.671 165.426 151.724 165.307 151.742 165.11C151.748 164.92 151.71 164.655 151.588 164.341C151.441 164.047 151.218 163.692 150.827 163.405C150.453 163.106 149.915 162.877 149.285 162.807C149.199 162.791 149.112 162.75 149.073 162.671C148.776 162.085 148.288 161.62 148.356 162.635C147.664 163.393 148.232 163.244 148.831 163.13Z" fill="black"/>
<path d="M144.105 162.592C144.158 162.527 144.245 162.492 144.327 162.515C145.478 162.829 146.212 162.883 146.796 162.817C147.367 162.739 147.758 162.552 147.792 162.443C147.82 162.363 147.6 161.944 146.975 161.687C146.374 161.416 145.305 161.347 144.236 162.055C144.162 162.104 144.068 162.123 143.986 162.089C143.374 161.827 142.695 161.781 143.415 162.514C143.385 163.53 143.721 163.056 144.105 162.592Z" fill="black"/>
<path d="M140.256 165.255C140.249 165.173 140.294 165.093 140.367 165.051C141.403 164.475 141.969 164.071 142.355 163.639C142.724 163.213 142.906 162.83 142.858 162.723C142.838 162.678 142.724 162.619 142.528 162.591C142.332 162.56 142.05 162.559 141.731 162.672C141.097 162.86 140.215 163.534 139.974 164.786C139.957 164.873 139.896 164.946 139.812 164.977C139.204 165.216 138.655 165.628 139.709 165.673C140.392 166.416 140.329 165.857 140.256 165.255Z" fill="black"/>
<path d="M139.115 169.823C139.059 169.76 139.047 169.669 139.08 169.593C139.576 168.514 139.736 167.799 139.719 167.215C139.717 166.648 139.554 166.243 139.46 166.204C139.368 166.164 138.935 166.336 138.594 166.909C138.27 167.466 138.057 168.47 138.603 169.603C138.642 169.681 138.637 169.775 138.588 169.847C138.398 170.11 138.253 170.403 138.274 170.561C138.289 170.721 138.454 170.729 138.903 170.475C139.403 170.612 139.558 170.547 139.536 170.415C139.507 170.28 139.31 170.058 139.115 169.823Z" fill="black"/>
<path d="M140.753 174.222C140.67 174.205 140.604 174.141 140.584 174.062C140.337 172.925 140.097 172.256 139.772 171.766C139.449 171.293 139.103 171.032 138.988 171.053C138.903 171.067 138.619 171.445 138.656 172.103C138.672 172.74 139.061 173.742 140.207 174.35C140.289 174.389 140.344 174.467 140.349 174.554C140.363 174.879 140.446 175.199 140.565 175.314C140.683 175.433 140.812 175.335 140.997 174.858C141.47 174.655 141.546 174.506 141.448 174.42C141.345 174.334 141.051 174.291 140.753 174.222Z" fill="black"/>
<path d="M144.932 176.365C144.861 176.407 144.768 176.402 144.697 176.355C143.703 175.704 143.073 175.397 142.501 175.268C141.948 175.136 141.514 175.161 141.443 175.245C141.384 175.313 141.42 175.783 141.911 176.255C142.378 176.713 143.386 177.167 144.632 176.819C144.718 176.795 144.812 176.817 144.877 176.879C145.367 177.292 145.979 177.612 145.559 176.658C145.941 175.737 145.453 176.021 144.932 176.365Z" fill="black"/>
<path d="M149.55 179.796C149.507 179.865 149.426 179.902 149.345 179.891C148.773 179.82 148.299 179.764 147.912 179.824C147.515 179.835 147.193 179.921 146.93 180.038C146.403 180.239 146.108 180.551 146.111 180.658C146.113 180.751 146.433 181.063 147.05 181.176C147.355 181.216 147.735 181.207 148.162 181.106C148.578 180.957 149.055 180.756 149.491 180.337C149.553 180.278 149.641 180.257 149.722 180.284C150.016 180.382 150.332 180.459 150.475 180.408C150.616 180.35 150.579 180.191 150.223 179.837C150.211 179.326 150.11 179.196 149.993 179.256C149.871 179.311 149.709 179.539 149.55 179.796Z" fill="black"/>
<path d="M153.478 177.409C153.468 177.488 153.409 177.553 153.33 177.576C153.048 177.658 152.81 177.751 152.596 177.846C152.37 177.925 152.177 178.015 152.009 178.113C151.684 178.321 151.409 178.495 151.222 178.708C151.035 178.919 150.903 179.119 150.819 179.272C150.738 179.431 150.714 179.556 150.736 179.603C150.757 179.647 150.871 179.707 151.059 179.743C151.251 179.785 151.51 179.786 151.809 179.696C152.106 179.607 152.473 179.476 152.794 179.168C152.959 179.022 153.123 178.849 153.279 178.649C153.423 178.435 153.55 178.185 153.662 177.913C153.693 177.836 153.766 177.782 153.853 177.773C154.471 177.687 155.066 177.454 154.083 177.139C153.594 176.256 153.523 176.815 153.478 177.409Z" fill="black"/>
<path d="M155.903 173.548C155.933 173.624 155.913 173.709 155.856 173.766C155.416 174.151 155.13 174.504 154.906 174.82C154.669 175.129 154.566 175.443 154.472 175.701C154.296 176.219 154.372 176.656 154.454 176.72C154.531 176.781 154.961 176.727 155.45 176.327C155.696 176.131 155.901 175.817 156.088 175.425C156.26 175.027 156.341 174.511 156.304 173.929C156.294 173.845 156.33 173.763 156.401 173.718C156.92 173.381 157.389 172.94 156.346 173.054C155.54 172.458 155.684 172.989 155.903 173.548Z" fill="black"/>
<path d="M156.584 169.03C156.639 169.091 156.652 169.178 156.619 169.251C156.364 169.769 156.199 170.205 156.143 170.589C156.048 170.969 156.047 171.297 156.092 171.578C156.152 172.129 156.379 172.49 156.486 172.516C156.577 172.539 156.971 172.32 157.243 171.766C157.364 171.489 157.456 171.13 157.471 170.702C157.447 170.274 157.359 169.775 157.096 169.245C157.057 169.171 157.061 169.082 157.111 169.016C157.476 168.522 157.757 167.956 156.821 168.414C155.852 168.125 156.178 168.582 156.584 169.03Z" fill="black"/>
<path d="M155.624 164.568C155.698 164.605 155.742 164.681 155.738 164.76C155.694 165.329 155.697 165.79 155.772 166.168C155.817 166.554 155.932 166.862 156.073 167.109C156.307 167.611 156.662 167.873 156.766 167.862C156.864 167.852 157.143 167.517 157.222 166.904C157.236 166.603 157.196 166.234 157.058 165.826C156.89 165.427 156.625 164.984 156.181 164.584C156.116 164.529 156.087 164.444 156.109 164.364C156.187 164.069 156.236 163.758 156.179 163.62C156.114 163.484 155.956 163.531 155.616 163.908C155.102 163.953 154.976 164.061 155.042 164.174C155.1 164.292 155.351 164.431 155.624 164.568Z" fill="black"/>
<path d="M152.915 160.897C152.996 160.9 153.067 160.953 153.097 161.028C153.526 162.074 153.943 162.66 154.396 163.01C154.847 163.349 155.238 163.48 155.341 163.423C155.416 163.383 155.581 162.943 155.362 162.368C155.244 162.088 155.094 161.732 154.756 161.442C154.595 161.291 154.406 161.144 154.191 161.006C153.973 160.871 153.7 160.772 153.417 160.681C153.336 160.656 153.275 160.59 153.26 160.505C153.137 159.899 152.85 159.344 152.601 160.322C151.731 160.864 152.314 160.884 152.915 160.897Z" fill="black"/>
<path d="M148.816 158.799C148.892 158.763 148.981 158.775 149.042 158.826C149.888 159.618 150.551 159.915 151.109 160.043C151.649 160.177 152.094 160.065 152.148 159.989C152.21 159.901 152.12 159.493 151.678 159.044C151.243 158.611 150.371 158.21 149.175 158.377C149.09 158.393 149.004 158.364 148.952 158.299C148.569 157.82 148.083 157.398 148.279 158.406C147.733 159.241 148.263 159.058 148.816 158.799Z" fill="black"/>
<path d="M144.172 158.497C144.229 158.437 144.315 158.417 144.393 158.442C144.941 158.654 145.395 158.759 145.788 158.798C146.182 158.858 146.516 158.831 146.798 158.763C147.352 158.673 147.704 158.41 147.722 158.308C147.739 158.214 147.484 157.858 146.9 157.624C146.608 157.53 146.235 157.47 145.798 157.492C145.362 157.536 144.859 157.682 144.343 157.977C144.271 158.023 144.18 158.027 144.107 157.984C143.569 157.678 142.958 157.46 143.523 158.327C143.333 159.299 143.757 158.937 144.172 158.497Z" fill="black"/>
<path d="M139.797 159.984C139.824 159.908 139.895 159.856 139.976 159.849C140.543 159.782 141.022 159.75 141.385 159.613C141.761 159.508 142.062 159.376 142.292 159.206C142.762 158.904 142.994 158.547 142.969 158.441C142.95 158.352 142.574 158.099 141.943 158.115C141.636 158.14 141.257 158.21 140.864 158.412C140.487 158.643 140.057 158.931 139.732 159.447C139.685 159.517 139.602 159.556 139.517 159.546C138.874 159.46 138.266 159.588 139.138 160.1C139.418 161.085 139.591 160.521 139.797 159.984Z" fill="black"/>
<path d="M136.548 163.2C136.535 163.119 136.567 163.037 136.643 162.999C137.166 162.721 137.503 162.428 137.808 162.18C137.952 162.05 138.069 161.917 138.166 161.784C138.268 161.657 138.361 161.541 138.43 161.42C138.573 161.183 138.644 160.949 138.681 160.772C138.724 160.602 138.719 160.476 138.687 160.436C138.655 160.398 138.529 160.363 138.336 160.369C138.148 160.382 137.903 160.449 137.624 160.593C137.486 160.667 137.334 160.755 137.193 160.877C137.058 161.005 136.922 161.157 136.793 161.334C136.518 161.674 136.342 162.174 136.241 162.747C136.225 162.826 136.176 162.901 136.098 162.931C135.524 163.158 134.976 163.501 136.017 163.597C136.685 164.344 136.649 163.795 136.548 163.2Z" fill="black"/>
<path d="M135.012 167.495C134.968 167.425 134.971 167.337 135.017 167.271C135.352 166.804 135.597 166.408 135.724 166.043C135.889 165.689 135.951 165.369 135.959 165.086C136.02 164.542 135.858 164.137 135.762 164.092C135.674 164.05 135.258 164.193 134.867 164.682C134.696 164.934 134.536 165.272 134.44 165.692C134.383 166.12 134.373 166.63 134.545 167.197C134.571 167.277 134.551 167.363 134.49 167.421C134.043 167.847 133.666 168.361 134.669 168.062C135.574 168.504 135.333 168.003 135.012 167.495Z" fill="black"/>
<path d="M135.143 172.066C135.077 172.015 135.049 171.932 135.069 171.855C135.239 171.302 135.307 170.849 135.312 170.459C135.338 170.068 135.282 169.743 135.188 169.474C135.038 168.938 134.741 168.622 134.634 168.615C134.537 168.609 134.197 168.893 134.021 169.482C133.951 169.774 133.923 170.142 133.984 170.565C134.066 170.985 134.258 171.463 134.599 171.942C134.652 172.008 134.663 172.096 134.626 172.171C134.358 172.721 134.186 173.332 135.022 172.713C136.027 172.822 135.624 172.436 135.143 172.066Z" fill="black"/>
<path d="M136.977 176.239C136.898 176.218 136.84 176.152 136.827 176.073C136.773 175.787 136.726 175.538 136.684 175.314C136.633 175.086 136.568 174.887 136.49 174.711C136.362 174.347 136.198 174.065 136.01 173.851C135.671 173.411 135.285 173.214 135.181 173.245C135.09 173.272 134.867 173.657 134.925 174.271C134.972 174.571 135.076 174.932 135.303 175.303C135.429 175.482 135.582 175.665 135.764 175.844C135.939 176.027 136.163 176.195 136.433 176.338C136.508 176.38 136.553 176.457 136.549 176.541C136.505 177.173 136.667 177.764 137.136 176.877C138.12 176.543 137.541 176.404 136.977 176.239Z" fill="black"/>
<path d="M140.458 179.212C140.375 179.234 140.293 179.2 140.249 179.129C139.927 178.642 139.613 178.325 139.339 178.046C139.197 177.914 139.054 177.809 138.913 177.723C138.783 177.624 138.653 177.546 138.527 177.485C138.012 177.253 137.586 177.228 137.508 177.296C137.434 177.361 137.39 177.809 137.735 178.326C137.818 178.456 137.922 178.594 138.05 178.731C138.188 178.855 138.353 178.977 138.542 179.091C138.908 179.337 139.425 179.484 140.018 179.539C140.101 179.549 140.176 179.599 140.214 179.67C140.485 180.214 140.874 180.725 140.899 179.701C141.614 178.996 141.058 179.071 140.458 179.212Z" fill="black"/>
<path d="M144.939 180.386C144.872 180.434 144.782 180.439 144.711 180.4C144.209 180.11 143.787 179.906 143.407 179.808C143.035 179.676 142.705 179.64 142.417 179.654C141.862 179.63 141.459 179.822 141.42 179.918C141.384 180.008 141.56 180.4 142.087 180.751C142.356 180.899 142.714 181.028 143.15 181.089C143.591 181.115 144.112 181.081 144.675 180.866C144.754 180.834 144.844 180.847 144.908 180.902C145.379 181.301 145.937 181.626 145.545 180.672C145.915 179.752 145.428 180.029 144.939 180.386Z" fill="black"/>
<path d="M148.238 178.192C148.19 178.259 148.105 178.293 148.024 178.28C147.438 178.149 146.977 178.114 146.574 178.09C146.176 178.095 145.841 178.127 145.56 178.2C145.002 178.365 144.655 178.593 144.642 178.71C144.636 178.758 144.702 178.869 144.848 178.995C144.994 179.126 145.22 179.266 145.533 179.343C145.843 179.431 146.239 179.483 146.694 179.391C147.147 179.328 147.656 179.101 148.143 178.733C148.21 178.676 148.302 178.658 148.384 178.689C148.992 178.928 149.645 178.97 148.922 178.25C148.923 177.233 148.594 177.716 148.238 178.192Z" fill="black"/>
<path d="M152.207 175.709C152.204 175.791 152.146 175.86 152.068 175.889C150.978 176.326 150.362 176.703 149.97 177.131C149.575 177.53 149.424 177.947 149.461 178.033C149.505 178.13 149.924 178.282 150.564 178.116C150.88 178.034 151.23 177.839 151.579 177.543C151.743 177.381 151.905 177.192 152.057 176.976C152.207 176.759 152.318 176.486 152.421 176.204C152.449 176.123 152.522 176.064 152.607 176.046C153.218 175.896 153.828 175.615 152.802 175.383C152.258 174.543 152.207 175.094 152.207 175.709Z" fill="black"/>
<path d="M154.291 171.522C154.328 171.597 154.321 171.687 154.268 171.75C153.864 172.196 153.626 172.592 153.422 172.937C153.249 173.293 153.127 173.6 153.072 173.88C152.973 174.441 153.035 174.849 153.134 174.913C153.203 174.96 153.682 174.888 154.107 174.409C154.552 173.955 154.942 173.06 154.732 171.863C154.715 171.78 154.74 171.691 154.805 171.636C155.283 171.23 155.698 170.724 154.675 170.963C153.805 170.448 154.009 170.976 154.291 171.522Z" fill="black"/>
<path d="M154.348 166.847C154.414 166.898 154.452 166.981 154.424 167.062C154.339 167.347 154.281 167.602 154.249 167.836C154.211 168.069 154.169 168.285 154.165 168.482C154.164 168.875 154.168 169.209 154.249 169.487C154.395 170.041 154.641 170.384 154.756 170.398C154.843 170.409 155.231 170.142 155.416 169.538C155.606 168.95 155.618 167.972 154.892 166.971C154.848 166.9 154.826 166.811 154.862 166.733C155.115 166.16 155.25 165.516 154.446 166.181C153.433 166.105 153.856 166.476 154.348 166.847Z" fill="black"/>
<path d="M152.098 162.786C152.18 162.796 152.249 162.854 152.275 162.932C152.616 164.038 152.99 164.647 153.373 165.078C153.775 165.484 154.148 165.679 154.255 165.641C154.34 165.611 154.565 165.197 154.421 164.572C154.316 163.952 153.782 163.082 152.621 162.61C152.54 162.578 152.481 162.506 152.47 162.42C152.383 161.788 152.103 161.206 151.812 162.179C150.908 162.67 151.496 162.72 152.098 162.786Z" fill="black"/>
<path d="M147.955 160.561C148.032 160.522 148.123 160.533 148.185 160.592C149.086 161.348 149.73 161.696 150.306 161.822C150.854 161.967 151.293 161.905 151.36 161.818C151.417 161.746 151.354 161.302 150.899 160.836C150.445 160.4 149.547 159.931 148.308 160.14C148.223 160.149 148.135 160.121 148.078 160.059C147.667 159.59 147.147 159.179 147.388 160.183C146.861 161.033 147.395 160.835 147.955 160.561Z" fill="black"/>
<path d="M143.215 160.612C143.263 160.544 143.348 160.511 143.429 160.524C144.015 160.654 144.475 160.692 144.878 160.715C145.276 160.707 145.61 160.685 145.89 160.607C146.448 160.452 146.797 160.216 146.811 160.102C146.823 160.019 146.549 159.632 145.923 159.464C145.316 159.275 144.296 159.313 143.31 160.071C143.243 160.128 143.151 160.146 143.069 160.116C142.461 159.879 141.806 159.836 142.531 160.554C142.533 161.571 142.86 161.091 143.215 160.612Z" fill="black"/>
<path d="M139.253 163.105C139.256 163.024 139.314 162.955 139.392 162.925C140.481 162.486 141.096 162.106 141.487 161.678C141.687 161.481 141.819 161.275 141.9 161.105C141.983 160.942 142.016 160.823 141.993 160.775C141.949 160.678 141.529 160.524 140.89 160.694C140.573 160.776 140.225 160.974 139.876 161.27C139.713 161.432 139.551 161.622 139.4 161.838C139.251 162.055 139.141 162.329 139.038 162.611C139.011 162.691 138.938 162.751 138.853 162.769C138.242 162.921 137.632 163.202 138.659 163.433C139.204 164.272 139.254 163.72 139.253 163.105Z" fill="black"/>
<path d="M137.172 167.295C137.135 167.22 137.142 167.13 137.195 167.066C137.599 166.621 137.837 166.225 138.041 165.879C138.215 165.523 138.336 165.216 138.39 164.936C138.489 164.375 138.427 163.967 138.328 163.903C138.258 163.856 137.779 163.928 137.355 164.407C136.911 164.862 136.52 165.757 136.732 166.954C136.748 167.037 136.724 167.126 136.658 167.18C136.181 167.587 135.765 168.093 136.789 167.853C137.658 168.368 137.454 167.84 137.172 167.295Z" fill="black"/>
<path d="M137.114 171.971C137.048 171.919 137.01 171.836 137.038 171.755C137.124 171.47 137.181 171.215 137.214 170.982C137.252 170.748 137.293 170.532 137.298 170.335C137.3 169.942 137.295 169.608 137.214 169.33C137.068 168.776 136.823 168.433 136.708 168.419C136.621 168.408 136.232 168.675 136.048 169.279C135.857 169.867 135.845 170.844 136.57 171.846C136.614 171.917 136.635 172.006 136.599 172.084C136.345 172.657 136.21 173.3 137.015 172.636C138.028 172.714 137.606 172.342 137.114 171.971Z" fill="black"/>
<path d="M139.355 176.037C139.272 176.027 139.204 175.969 139.178 175.89C138.84 174.784 138.469 174.174 138.085 173.742C137.685 173.334 137.312 173.139 137.205 173.176C137.12 173.206 136.894 173.62 137.037 174.245C137.14 174.865 137.671 175.736 138.831 176.211C138.912 176.243 138.97 176.316 138.981 176.402C139.068 177.033 139.345 177.619 139.639 176.645C140.543 176.157 139.958 176.103 139.355 176.037Z" fill="black"/>
<path d="M143.496 178.257C143.42 178.293 143.327 178.288 143.264 178.231C142.365 177.469 141.717 177.136 141.145 177.004C140.595 176.861 140.158 176.919 140.091 177.006C140.035 177.077 140.094 177.525 140.551 177.989C141.002 178.431 141.908 178.887 143.143 178.684C143.229 178.673 143.319 178.694 143.375 178.76C143.789 179.23 144.313 179.641 144.063 178.635C144.583 177.785 144.053 177.983 143.496 178.257Z" fill="black"/>
<path d="M116.395 159.653C116.63 158.422 115.413 157.099 114.065 157.698C114.022 157.71 113.967 157.761 114.02 157.802C115.053 158.418 115.51 159.849 115.053 161.045C115.045 161.078 115.056 161.093 115.074 161.101C115.081 161.119 115.095 161.131 115.123 161.122C116.205 160.617 117.499 161.12 118.057 162.264C118.097 162.324 118.138 162.26 118.151 162.214C118.688 160.725 117.507 159.394 116.395 159.653Z" fill="black"/>
<path d="M121.635 152.659C121.869 151.428 120.653 150.105 119.304 150.704C119.261 150.716 119.206 150.767 119.259 150.808C120.293 151.424 120.749 152.855 120.293 154.051C120.285 154.084 120.296 154.099 120.314 154.106C120.321 154.124 120.335 154.137 120.362 154.128C121.444 153.623 122.739 154.126 123.296 155.27C123.336 155.33 123.377 155.266 123.39 155.22C123.927 153.731 122.747 152.4 121.635 152.659Z" fill="black"/>
<path d="M131.892 151.104C132.126 149.873 130.91 148.55 129.561 149.149C129.519 149.161 129.463 149.212 129.516 149.253C130.55 149.869 131.006 151.299 130.55 152.496C130.542 152.529 130.553 152.544 130.571 152.551C130.578 152.569 130.592 152.582 130.62 152.573C131.701 152.068 132.996 152.571 133.553 153.714C133.593 153.774 133.634 153.71 133.648 153.664C134.184 152.176 133.004 150.845 131.892 151.104Z" fill="black"/>
<path d="M111.554 165.195C111.788 163.964 110.572 162.641 109.224 163.24C109.181 163.252 109.126 163.303 109.178 163.344C110.212 163.96 110.668 165.391 110.212 166.587C110.204 166.62 110.215 166.635 110.233 166.643C110.24 166.661 110.254 166.673 110.282 166.664C111.364 166.159 112.658 166.662 113.215 167.806C113.255 167.866 113.296 167.802 113.31 167.756C113.847 166.267 112.666 164.936 111.554 165.195Z" fill="black"/>
<path d="M106.397 174.284C106.632 173.054 105.415 171.73 104.067 172.329C104.024 172.341 103.969 172.393 104.022 172.433C105.055 173.05 105.512 174.48 105.055 175.676C105.047 175.709 105.058 175.725 105.076 175.732C105.083 175.75 105.097 175.762 105.125 175.754C106.207 175.249 107.501 175.752 108.059 176.895C108.099 176.955 108.14 176.891 108.153 176.845C108.69 175.356 107.509 174.026 106.397 174.284Z" fill="black"/>
<path d="M123.003 185.507C123.237 184.277 122.021 182.954 120.673 183.553C120.63 183.565 120.575 183.616 120.627 183.657C121.661 184.273 122.117 185.703 121.661 186.899C121.653 186.932 121.664 186.948 121.682 186.955C121.689 186.973 121.703 186.985 121.731 186.977C122.813 186.472 124.107 186.975 124.664 188.118C124.704 188.178 124.745 188.114 124.759 188.068C125.296 186.58 124.115 185.249 123.003 185.507Z" fill="black"/>
<path d="M120.682 159.653C120.916 158.422 119.7 157.099 118.352 157.698C118.309 157.71 118.253 157.761 118.306 157.802C119.34 158.418 119.796 159.849 119.34 161.045C119.332 161.078 119.343 161.093 119.361 161.101C119.368 161.119 119.382 161.131 119.41 161.122C120.492 160.617 121.786 161.12 122.343 162.264C122.383 162.324 122.424 162.26 122.438 162.214C122.974 160.725 121.794 159.394 120.682 159.653Z" fill="black"/>
<path d="M124.969 159.653C125.203 158.422 123.987 157.099 122.638 157.698C122.595 157.71 122.54 157.761 122.593 157.802C123.626 158.418 124.083 159.849 123.626 161.045C123.618 161.078 123.63 161.093 123.647 161.101C123.655 161.119 123.669 161.131 123.696 161.122C124.778 160.617 126.072 161.12 126.63 162.264C126.67 162.324 126.711 162.26 126.724 162.214C127.261 160.725 126.08 159.394 124.969 159.653Z" fill="black"/>
<path d="M129.256 159.653C129.49 158.422 128.274 157.099 126.925 157.698C126.882 157.71 126.827 157.761 126.879 157.802C127.913 158.418 128.37 159.849 127.913 161.045C127.905 161.078 127.917 161.093 127.934 161.101C127.942 161.119 127.955 161.131 127.983 161.122C129.065 160.617 130.359 161.12 130.917 162.264C130.957 162.324 130.998 162.26 131.011 162.214C131.548 160.725 130.367 159.394 129.256 159.653Z" fill="black"/>
<path d="M116.31 178.957C116.554 177.726 115.289 176.403 113.888 177.002C113.843 177.014 113.786 177.065 113.841 177.106C114.915 177.722 115.389 179.152 114.915 180.349C114.907 180.382 114.918 180.397 114.937 180.404C114.944 180.423 114.959 180.435 114.987 180.426C116.112 179.921 117.457 180.424 118.036 181.567C118.078 181.628 118.12 181.563 118.134 181.517C118.692 180.029 117.466 178.698 116.31 178.957Z" fill="black"/>
<path d="M120.765 178.957C121.009 177.726 119.744 176.403 118.343 177.002C118.298 177.014 118.241 177.065 118.296 177.106C119.37 177.722 119.844 179.152 119.37 180.349C119.361 180.382 119.374 180.397 119.392 180.404C119.4 180.423 119.414 180.435 119.442 180.426C120.567 179.921 121.912 180.424 122.491 181.567C122.533 181.628 122.576 181.563 122.589 181.517C123.147 180.029 121.92 178.698 120.765 178.957Z" fill="black"/>
<path d="M125.22 178.957C125.464 177.726 124.199 176.403 122.798 177.002C122.753 177.014 122.696 177.065 122.75 177.106C123.825 177.722 124.299 179.152 123.825 180.349C123.816 180.382 123.828 180.397 123.847 180.404C123.854 180.423 123.869 180.435 123.897 180.426C125.022 179.921 126.367 180.424 126.946 181.567C126.988 181.628 127.03 181.563 127.044 181.517C127.602 180.029 126.376 178.698 125.22 178.957Z" fill="black"/>
<path d="M129.675 178.957C129.918 177.726 128.654 176.403 127.253 177.002C127.208 177.014 127.151 177.065 127.206 177.106C128.28 177.722 128.754 179.152 128.28 180.349C128.271 180.382 128.283 180.397 128.302 180.404C128.31 180.423 128.324 180.435 128.352 180.426C129.477 179.921 130.822 180.424 131.401 181.567C131.443 181.628 131.486 181.563 131.499 181.517C132.057 180.029 130.83 178.698 129.675 178.957Z" fill="black"/>
<path d="M117.794 174.303C118.096 173.148 116.871 171.947 115.421 172.543C115.375 172.555 115.314 172.605 115.368 172.641C116.432 173.188 116.85 174.51 116.314 175.639C116.304 175.67 116.316 175.684 116.334 175.691C116.341 175.707 116.355 175.718 116.384 175.709C117.549 175.209 118.893 175.642 119.43 176.694C119.47 176.749 119.516 176.688 119.532 176.644C120.166 175.24 118.979 174.031 117.794 174.303Z" fill="black"/>
<path d="M120.404 171.852C120.706 170.697 119.482 169.495 118.031 170.092C117.985 170.104 117.925 170.153 117.979 170.19C119.042 170.737 119.46 172.059 118.925 173.188C118.915 173.219 118.926 173.233 118.945 173.239C118.951 173.256 118.966 173.267 118.995 173.258C120.16 172.757 121.503 173.191 122.041 174.242C122.08 174.297 122.127 174.237 122.143 174.193C122.776 172.789 121.59 171.58 120.404 171.852Z" fill="black"/>
<path d="M123.015 169.401C123.317 168.246 122.092 167.045 120.642 167.641C120.596 167.653 120.536 167.703 120.59 167.739C121.653 168.286 122.071 169.608 121.535 170.737C121.526 170.768 121.537 170.783 121.555 170.788C121.562 170.805 121.576 170.816 121.605 170.807C122.77 170.307 124.114 170.741 124.651 171.792C124.691 171.847 124.737 171.786 124.753 171.742C125.387 170.338 124.2 169.129 123.015 169.401Z" fill="black"/>
<path d="M125.626 166.951C125.928 165.795 124.703 164.594 123.252 165.19C123.207 165.203 123.146 165.252 123.2 165.289C124.264 165.835 124.681 167.157 124.146 168.287C124.136 168.318 124.147 168.332 124.166 168.338C124.173 168.355 124.187 168.366 124.216 168.357C125.381 167.856 126.725 168.29 127.262 169.341C127.301 169.396 127.348 169.335 127.364 169.292C127.998 167.888 126.811 166.679 125.626 166.951Z" fill="black"/>
<path d="M128.236 164.5C128.539 163.345 127.314 162.144 125.863 162.739C125.817 162.752 125.757 162.801 125.811 162.838C126.874 163.385 127.292 164.707 126.757 165.836C126.747 165.867 126.758 165.881 126.777 165.887C126.784 165.904 126.798 165.915 126.827 165.906C127.991 165.405 129.336 165.839 129.873 166.89C129.913 166.945 129.959 166.884 129.975 166.841C130.608 165.437 129.422 164.228 128.236 164.5Z" fill="black"/>
<path d="M106.431 185.214H115.052C118.971 185.214 121.648 187.805 121.648 191.068C121.648 193.18 120.505 194.971 118.84 195.803V195.994C120.799 196.986 122.073 199.13 122.073 201.401C122.073 204.92 119.036 207.607 114.987 207.607H106.431V185.214ZM114.791 194.747C116.848 194.747 118.35 193.339 118.35 191.388C118.35 189.437 116.848 188.061 114.791 188.061H109.663V194.747H114.791ZM115.084 204.759C117.077 204.759 118.775 203.128 118.775 201.177C118.775 199.225 117.077 197.562 115.084 197.562H109.663V204.759H115.084Z" fill="black"/>
<path d="M126.871 185.214H135.493C139.411 185.214 142.253 187.997 142.253 191.708C142.253 194.683 140.457 196.922 137.518 197.786L143.069 207.607H139.445L134.252 198.362H130.104V207.607H126.871V185.214ZM135.166 195.515C137.289 195.515 138.954 193.851 138.954 191.772C138.954 189.724 137.289 188.061 135.166 188.061H130.104V195.515H135.166Z" fill="black"/>
<path d="M147.672 185.214H150.97L162.465 202.104H162.661V185.214H165.796V207.607H162.497L150.97 190.716H150.774V207.607H147.672V185.214Z" fill="black"/>
<path d="M170.985 196.41C170.985 189.693 175.884 184.862 182.644 184.862C189.403 184.862 194.302 189.693 194.302 196.41C194.302 203.128 189.403 207.959 182.644 207.959C175.884 207.959 170.985 203.128 170.985 196.41ZM182.644 205.047C187.542 205.047 191.004 201.497 191.004 196.41C191.004 191.324 187.542 187.773 182.644 187.773C177.712 187.773 174.284 191.324 174.284 196.41C174.284 201.497 177.712 205.047 182.644 205.047Z" fill="black"/>
<path d="M150.009 167.769C150.079 167.818 150.12 167.903 150.098 167.989C149.848 169.159 149.76 169.884 149.822 170.47C149.849 170.757 149.905 170.997 149.96 171.174C150.023 171.354 150.092 171.468 150.139 171.486C150.187 171.504 150.314 171.464 150.471 171.338C150.635 171.215 150.824 171.001 150.969 170.683C151.116 170.366 151.208 169.944 151.176 169.453C151.124 168.966 150.971 168.396 150.561 167.875C150.511 167.801 150.486 167.706 150.514 167.62C150.626 167.307 150.668 166.962 150.599 166.802C150.533 166.636 150.377 166.682 150.025 167.069C149.511 167.079 149.385 167.195 149.441 167.312C149.501 167.431 149.756 167.583 150.009 167.769Z" fill="black"/>
<path d="M142.151 166.362C142.143 166.275 142.199 166.199 142.278 166.163C142.83 165.904 143.25 165.73 143.609 165.579C143.962 165.422 144.246 165.272 144.489 165.121C144.73 164.97 144.926 164.819 145.065 164.692C145.202 164.556 145.278 164.451 145.274 164.4C145.269 164.351 145.178 164.251 144.993 164.17C144.809 164.08 144.528 164.004 144.164 164.022C143.803 164.04 143.356 164.159 142.925 164.458C142.491 164.745 142.094 165.24 141.907 165.868C141.879 165.956 141.806 166.026 141.724 166.059C141.568 166.116 141.408 166.186 141.276 166.262C141.153 166.342 141.056 166.427 141.011 166.502C140.92 166.657 141.054 166.747 141.58 166.778C141.908 167.169 142.08 167.193 142.137 167.078C142.167 167.018 142.172 166.917 142.165 166.789C142.167 166.667 142.16 166.519 142.151 166.362Z" fill="black"/>
<path d="M144.928 174.113C144.853 174.152 144.755 174.155 144.688 174.096C144.196 173.739 143.853 173.432 143.547 173.199C143.237 172.972 142.983 172.781 142.727 172.649C142.245 172.364 141.818 172.231 141.719 172.289C141.644 172.33 141.518 172.798 141.877 173.432C142.066 173.731 142.37 174.08 142.845 174.31C143.309 174.545 143.929 174.683 144.588 174.554C144.679 174.544 144.778 174.559 144.845 174.623C145.086 174.86 145.385 175.041 145.562 175.053C145.742 175.066 145.767 174.908 145.564 174.43C145.778 173.972 145.725 173.81 145.593 173.809C145.456 173.808 145.206 173.972 144.928 174.113Z" fill="black"/>
<path d="M149.786 182.046C149.738 182.119 149.647 182.143 149.562 182.128C148.362 181.923 147.569 182.006 146.999 182.239C146.433 182.423 146.121 182.75 146.124 182.852C146.126 182.95 146.46 183.247 147.104 183.378C147.734 183.464 148.711 183.367 149.69 182.579C149.758 182.524 149.855 182.516 149.936 182.541C150.539 182.736 151.197 182.83 150.481 182.082C150.523 181.076 150.142 181.524 149.786 182.046Z" fill="black"/>
<path d="M158.625 171.441C158.669 171.513 158.665 171.605 158.619 171.676C158.31 172.184 158.054 172.611 157.924 173.002C157.806 173.397 157.72 173.731 157.709 174.027C157.695 174.321 157.739 174.571 157.796 174.753C157.84 174.93 157.906 175.042 157.954 175.061C158 175.079 158.13 175.045 158.298 174.941C158.454 174.832 158.642 174.65 158.819 174.381C158.993 174.113 159.173 173.761 159.22 173.31C159.276 172.863 159.293 172.336 159.092 171.742C159.066 171.659 159.087 171.567 159.149 171.505C159.372 171.279 159.585 171.028 159.604 170.875C159.617 170.721 159.456 170.677 158.971 170.836C158.502 170.601 158.339 170.63 158.338 170.771C158.331 170.912 158.465 171.174 158.625 171.441Z" fill="black"/>
<path d="M153.489 158.544C153.573 158.542 153.653 158.59 153.693 158.664C153.833 158.933 153.992 159.142 154.121 159.356C154.252 159.568 154.386 159.747 154.524 159.9C154.811 160.193 155.054 160.439 155.309 160.596C155.823 160.904 156.249 160.986 156.335 160.925C156.414 160.868 156.497 160.41 156.189 159.844C156.039 159.561 155.825 159.223 155.444 158.956C155.261 158.817 155.05 158.682 154.813 158.559C154.577 158.435 154.282 158.361 153.979 158.289C153.892 158.27 153.821 158.207 153.795 158.124C153.747 157.971 153.693 157.818 153.632 157.693C153.566 157.576 153.497 157.484 153.43 157.441C153.295 157.356 153.182 157.475 153.1 157.973C152.673 158.269 152.624 158.425 152.748 158.492C152.811 158.525 152.92 158.538 153.054 158.538C153.182 158.547 153.333 158.548 153.489 158.544Z" fill="black"/>
<path d="M144.085 156.291C144.147 156.232 144.238 156.203 144.32 156.239C144.897 156.472 145.379 156.557 145.798 156.604C146.217 156.665 146.572 156.639 146.87 156.572C147.461 156.457 147.821 156.217 147.838 156.108C147.852 156.02 147.576 155.641 146.961 155.432C146.654 155.337 146.264 155.277 145.807 155.298C145.351 155.334 144.825 155.5 144.277 155.773C144.199 155.809 144.105 155.821 144.029 155.777C143.473 155.472 142.846 155.256 143.408 156.124C143.174 157.103 143.637 156.735 144.085 156.291Z" fill="black"/>
<path d="M133.343 165.003C133.313 164.925 133.334 164.836 133.393 164.774C133.603 164.554 133.773 164.345 133.915 164.145C134.077 163.953 134.207 163.768 134.31 163.59C134.413 163.411 134.49 163.239 134.547 163.074C134.62 162.917 134.672 162.766 134.707 162.623C134.842 162.053 134.739 161.613 134.66 161.562C134.569 161.504 134.134 161.608 133.682 162.075C133.569 162.191 133.454 162.328 133.344 162.488C133.251 162.656 133.164 162.848 133.091 163.062C133.018 163.276 132.957 163.514 132.917 163.773C132.899 164.038 132.905 164.327 132.938 164.632C132.948 164.718 132.91 164.804 132.837 164.855C132.293 165.227 131.908 165.724 132.916 165.548C133.772 166.147 133.545 165.568 133.343 165.003Z" fill="black"/>
<path d="M136.121 178.681C136.038 178.666 135.97 178.602 135.947 178.521C135.866 178.23 135.759 177.991 135.674 177.758C135.591 177.523 135.497 177.32 135.395 177.142C135.178 176.795 134.983 176.51 134.77 176.302C134.332 175.896 133.92 175.738 133.829 175.779C133.735 175.822 133.572 176.25 133.753 176.865C133.837 177.174 133.982 177.542 134.296 177.881C134.446 178.054 134.623 178.229 134.829 178.397C135.037 178.563 135.306 178.698 135.588 178.83C135.668 178.866 135.724 178.942 135.732 179.029C135.752 179.354 135.829 179.663 135.945 179.77C136.059 179.882 136.195 179.788 136.381 179.318C136.861 179.116 136.942 178.972 136.835 178.882C136.724 178.794 136.42 178.744 136.121 178.681Z" fill="black"/>
<path d="M157.015 177.504C157.018 177.588 156.97 177.665 156.895 177.703C156.38 177.99 155.939 178.225 155.637 178.501C155.481 178.634 155.358 178.776 155.246 178.908C155.126 179.033 155.03 179.158 154.951 179.28C154.638 179.77 154.604 180.219 154.671 180.299C154.732 180.374 155.172 180.407 155.744 180.119C155.887 180.048 156.038 179.956 156.191 179.842C156.336 179.721 156.473 179.567 156.611 179.392C156.876 179.035 157.157 178.599 157.272 177.99C157.29 177.906 157.354 177.838 157.437 177.815C158.05 177.643 158.645 177.365 157.612 177.155C157.053 176.325 156.999 176.895 157.015 177.504Z" fill="black"/>
<path d="M156.679 158.665C156.762 158.686 156.818 158.757 156.832 158.84C156.917 159.437 157.1 159.866 157.252 160.244C157.407 160.62 157.607 160.899 157.815 161.112C158.2 161.547 158.596 161.725 158.699 161.685C158.785 161.652 158.98 161.236 158.867 160.615C158.796 160.313 158.653 159.958 158.405 159.589C158.16 159.219 157.732 158.878 157.218 158.565C157.144 158.522 157.101 158.439 157.101 158.354C157.081 157.742 156.948 157.117 156.477 158.026C155.499 158.341 156.059 158.529 156.679 158.665Z" fill="black"/>
<path d="M137.269 156.447C137.297 156.37 137.371 156.317 137.456 156.308C138.058 156.246 138.514 156.11 138.915 155.993C139.307 155.864 139.596 155.665 139.833 155.493C140.309 155.161 140.507 154.762 140.475 154.664C140.444 154.572 140.042 154.379 139.397 154.432C139.077 154.464 138.716 154.602 138.325 154.822C137.927 155.029 137.546 155.41 137.202 155.911C137.154 155.982 137.069 156.022 136.981 156.014C136.331 155.953 135.715 156.082 136.595 156.589C136.861 157.582 137.061 157.006 137.269 156.447Z" fill="black"/>
<path d="M131.536 173.207C131.47 173.154 131.441 173.068 131.46 172.987C131.572 172.418 131.672 171.933 131.65 171.525C131.633 171.118 131.549 170.781 131.467 170.503C131.28 169.95 130.948 169.647 130.843 169.648C130.744 169.65 130.439 169.968 130.302 170.579C130.222 170.885 130.223 171.261 130.328 171.688C130.436 172.115 130.595 172.602 130.992 173.083C131.045 173.151 131.057 173.242 131.021 173.319C130.757 173.887 130.587 174.508 131.421 173.878C132.43 174.003 132.02 173.591 131.536 173.207Z" fill="black"/>
<path d="M144.887 184.669C144.818 184.718 144.726 184.722 144.651 184.683C144.118 184.424 143.666 184.223 143.263 184.124C142.86 184.026 142.506 184.028 142.214 184.025C141.626 184.049 141.233 184.277 141.205 184.375C141.178 184.469 141.403 184.843 141.97 185.144C142.25 185.308 142.624 185.394 143.073 185.416C143.522 185.439 144.047 185.396 144.624 185.15C144.705 185.118 144.798 185.131 144.864 185.185C145.355 185.586 145.921 185.911 145.519 184.956C145.905 184.037 145.391 184.314 144.887 184.669Z" fill="black"/>
</g>
</svg>
