<svg width="300" height="225" viewBox="0 0 300 225" fill="none" xmlns="http://www.w3.org/2000/svg">
<rect width="300" height="225" fill="#ffffff"/>
<g opacity="0.25">
<path d="M167.819 110.108L167.758 110.131C167.759 110.12 167.76 110.111 167.761 110.1C167.756 109.958 167.683 109.818 167.593 109.83C167.504 109.841 167.442 109.997 167.459 110.136C167.466 110.201 167.488 110.25 167.516 110.284C167.342 110.217 167.105 110.217 166.843 110.251C166.599 110.306 166.334 110.402 166.133 110.535C165.935 110.674 165.814 110.815 165.753 110.948C165.727 111.001 165.678 111.046 165.622 111.064C165.467 111.108 165.316 111.208 165.205 111.36C165.047 111.563 165.05 111.842 165.167 112.038C165.399 112.411 165.885 112.433 166.188 112.19C166.264 112.126 166.32 112.047 166.357 111.96C166.378 111.907 166.426 111.874 166.483 111.873C166.619 111.867 166.764 111.817 166.925 111.702C167.085 111.597 167.246 111.466 167.382 111.307C167.524 111.173 167.644 111.002 167.719 110.853C167.72 110.895 167.736 110.946 167.769 111.003C167.841 111.126 167.952 111.231 168.004 111.202C168.056 111.172 168.041 111.016 167.98 110.89C167.974 110.881 167.97 110.874 167.965 110.866C167.982 110.863 167.998 110.861 168.016 110.856C168.234 110.795 168.402 110.613 168.38 110.395C168.362 110.188 168.103 110.032 167.819 110.108Z" fill="black"/>
<path d="M162.736 115.532L162.702 115.586C162.696 115.577 162.691 115.57 162.685 115.56C162.593 115.45 162.45 115.382 162.385 115.444C162.321 115.507 162.368 115.668 162.466 115.768C162.512 115.816 162.559 115.842 162.603 115.853C162.423 115.902 162.234 116.043 162.047 116.226C161.886 116.414 161.733 116.648 161.654 116.874C161.582 117.103 161.572 117.287 161.606 117.429C161.618 117.487 161.606 117.551 161.572 117.599C161.476 117.726 161.417 117.895 161.422 118.083C161.421 118.339 161.594 118.559 161.809 118.645C162.222 118.805 162.623 118.534 162.715 118.16C162.736 118.064 162.732 117.968 162.708 117.877C162.692 117.822 162.711 117.767 162.756 117.733C162.86 117.647 162.945 117.521 163.002 117.334C163.066 117.154 163.114 116.955 163.124 116.747C163.155 116.556 163.146 116.349 163.114 116.186C163.141 116.218 163.184 116.249 163.246 116.275C163.379 116.33 163.532 116.348 163.555 116.294C163.579 116.24 163.47 116.124 163.345 116.06C163.335 116.056 163.327 116.053 163.318 116.05C163.33 116.037 163.342 116.026 163.352 116.012C163.489 115.834 163.511 115.589 163.36 115.427C163.218 115.273 162.915 115.303 162.736 115.532Z" fill="black"/>
<path d="M160.496 115.798L160.451 115.844C160.447 115.834 160.444 115.826 160.44 115.815C160.374 115.689 160.247 115.593 160.171 115.642C160.095 115.69 160.108 115.857 160.183 115.975C160.217 116.031 160.259 116.066 160.299 116.085C160.113 116.097 159.899 116.197 159.677 116.339C159.481 116.491 159.283 116.69 159.158 116.894C159.04 117.104 158.993 117.282 158.996 117.428C158.995 117.487 158.971 117.548 158.928 117.588C158.807 117.693 158.715 117.847 158.68 118.031C158.626 118.282 158.75 118.532 158.942 118.66C159.314 118.899 159.762 118.714 159.93 118.367C159.97 118.277 159.987 118.182 159.982 118.087C159.978 118.031 160.008 117.981 160.058 117.956C160.178 117.893 160.288 117.787 160.383 117.615C160.482 117.452 160.57 117.266 160.624 117.065C160.694 116.885 160.728 116.68 160.73 116.513C160.75 116.551 160.786 116.59 160.841 116.628C160.959 116.708 161.106 116.757 161.14 116.708C161.174 116.66 161.092 116.525 160.982 116.437C160.973 116.431 160.967 116.427 160.958 116.421C160.972 116.412 160.986 116.403 161 116.391C161.171 116.244 161.243 116.009 161.128 115.82C161.022 115.641 160.719 115.609 160.496 115.798Z" fill="black"/>
<path d="M172.085 110.64L172.028 110.64C172.032 110.63 172.036 110.623 172.041 110.612C172.083 110.478 172.071 110.322 172.005 110.302C171.935 110.284 171.849 110.399 171.8 110.531C171.779 110.593 171.773 110.646 171.78 110.688C171.574 110.43 171.171 110.148 170.747 110.024C170.539 109.961 170.349 109.957 170.212 109.993C170.155 110.008 170.087 109.999 170.038 109.961C169.908 109.862 169.731 109.799 169.526 109.813C169.253 109.819 169.015 110.008 168.954 110.223C168.851 110.644 169.126 111.011 169.478 111.083C169.57 111.099 169.667 111.102 169.757 111.079C169.81 111.067 169.864 111.081 169.903 111.124C169.998 111.227 170.126 111.305 170.342 111.37C170.753 111.492 171.371 111.491 171.69 111.285C171.669 111.322 171.657 111.374 171.662 111.44C171.67 111.58 171.761 111.732 171.839 111.723C171.92 111.717 171.967 111.566 171.952 111.427C171.949 111.416 171.948 111.408 171.945 111.398L172.005 111.409C172.276 111.439 172.506 111.276 172.516 111.061C172.525 110.85 172.332 110.668 172.085 110.64Z" fill="black"/>
<path d="M175.887 109.883L175.843 109.917C175.84 109.906 175.838 109.899 175.835 109.887C175.785 109.755 175.681 109.641 175.617 109.66C175.553 109.679 175.55 109.832 175.593 109.965C175.614 110.028 175.642 110.073 175.674 110.103C175.338 110.024 174.851 110.064 174.491 110.163C174.31 110.224 174.177 110.284 174.087 110.383C174.05 110.423 173.995 110.437 173.944 110.419C173.807 110.371 173.663 110.38 173.508 110.429C173.302 110.508 173.131 110.695 173.08 110.919C172.979 111.34 173.339 111.717 173.822 111.667C173.94 111.65 174.048 111.61 174.139 111.554C174.193 111.522 174.261 111.515 174.321 111.531C174.465 111.57 174.661 111.586 174.899 111.508C175.38 111.375 175.858 110.973 175.971 110.63C175.979 110.672 176.001 110.721 176.046 110.77C176.14 110.876 176.294 110.942 176.359 110.89C176.424 110.839 176.366 110.688 176.268 110.587C176.26 110.581 176.253 110.576 176.246 110.569L176.3 110.541C176.536 110.396 176.615 110.129 176.486 109.955C176.361 109.784 176.094 109.757 175.887 109.883Z" fill="black"/>
<path d="M176.341 106.714L176.312 106.761C176.306 106.752 176.301 106.745 176.294 106.736C176.2 106.628 176.063 106.557 176.009 106.597C175.956 106.636 176.007 106.781 176.095 106.891C176.136 106.943 176.179 106.975 176.219 106.992C175.876 107.033 175.433 107.235 175.13 107.451C174.981 107.571 174.878 107.671 174.828 107.795C174.808 107.845 174.761 107.877 174.707 107.878C174.561 107.878 174.429 107.936 174.301 108.035C174.136 108.179 174.041 108.412 174.072 108.64C174.125 109.07 174.596 109.301 175.03 109.09C175.135 109.034 175.223 108.959 175.289 108.876C175.328 108.828 175.389 108.798 175.451 108.793C175.6 108.78 175.789 108.729 175.986 108.575C176.39 108.286 176.698 107.746 176.683 107.386C176.705 107.424 176.743 107.461 176.802 107.493C176.928 107.56 177.095 107.57 177.139 107.499C177.181 107.428 177.074 107.306 176.947 107.245C176.936 107.242 176.929 107.239 176.919 107.236L176.96 107.191C177.131 106.975 177.111 106.698 176.929 106.578C176.751 106.46 176.491 106.526 176.341 106.714Z" fill="black"/>
<path d="M178.795 107.148L178.767 107.195C178.76 107.187 178.755 107.181 178.748 107.172C178.648 107.073 178.501 107.009 178.451 107.054C178.401 107.099 178.462 107.241 178.559 107.345C178.604 107.393 178.65 107.422 178.691 107.435C178.353 107.504 177.915 107.755 177.636 108.037C177.485 108.185 177.404 108.326 177.371 108.459C177.357 108.512 177.316 108.556 177.263 108.572C177.118 108.615 176.989 108.709 176.891 108.845C176.762 109.037 176.742 109.291 176.842 109.498C177.027 109.892 177.541 109.969 177.881 109.669C177.962 109.594 178.024 109.505 178.063 109.412C178.086 109.357 178.136 109.317 178.195 109.303C178.337 109.27 178.488 109.183 178.651 109.025C178.981 108.692 179.23 108.149 179.186 107.791C179.211 107.826 179.252 107.86 179.314 107.887C179.444 107.944 179.611 107.942 179.646 107.869C179.682 107.796 179.57 107.685 179.437 107.632C179.426 107.629 179.418 107.627 179.408 107.624L179.447 107.578C179.595 107.348 179.56 107.075 179.372 106.969C179.183 106.864 178.925 106.944 178.795 107.148Z" fill="black"/>
<path d="M163.599 111.705L163.583 111.757C163.575 111.75 163.568 111.746 163.559 111.739C163.438 111.666 163.28 111.638 163.242 111.693C163.204 111.749 163.298 111.872 163.417 111.95C163.473 111.987 163.524 112.004 163.567 112.008C163.255 112.154 162.89 112.499 162.688 112.838C162.575 113.017 162.531 113.173 162.531 113.31C162.53 113.365 162.502 113.417 162.453 113.445C162.323 113.52 162.219 113.641 162.158 113.797C162.079 114.013 162.12 114.264 162.267 114.442C162.541 114.782 163.059 114.737 163.317 114.367C163.379 114.275 163.417 114.174 163.433 114.074C163.442 114.016 163.481 113.965 163.535 113.938C163.665 113.873 163.79 113.754 163.911 113.561C164.152 113.161 164.263 112.576 164.134 112.238C164.167 112.267 164.215 112.29 164.281 112.302C164.422 112.327 164.583 112.286 164.6 112.207C164.617 112.128 164.482 112.046 164.339 112.026C164.328 112.025 164.32 112.025 164.309 112.025L164.337 111.971C164.424 111.713 164.325 111.456 164.117 111.397C163.908 111.338 163.676 111.476 163.599 111.705Z" fill="black"/>
<path d="M180.031 103.45L180.034 103.505C180.023 103.502 180.016 103.499 180.005 103.495C179.866 103.459 179.709 103.478 179.691 103.543C179.67 103.607 179.796 103.699 179.933 103.739C179.997 103.758 180.05 103.76 180.093 103.751C179.839 103.981 179.596 104.422 179.502 104.798C179.451 104.99 179.457 105.144 179.489 105.27C179.503 105.321 179.49 105.377 179.451 105.415C179.353 105.517 179.27 105.644 179.254 105.808C179.228 106.027 179.315 106.261 179.5 106.41C179.83 106.688 180.344 106.547 180.51 106.109C180.554 106.003 180.571 105.893 180.559 105.788C180.553 105.727 180.578 105.665 180.623 105.624C180.738 105.526 180.826 105.367 180.887 105.137C181.002 104.68 180.928 104.092 180.703 103.807C180.744 103.825 180.797 103.834 180.863 103.826C181.006 103.809 181.148 103.725 181.142 103.644C181.133 103.564 180.977 103.524 180.836 103.546C180.826 103.549 180.818 103.551 180.808 103.554L180.815 103.494C180.831 103.224 180.656 103.007 180.437 103.008C180.222 103.01 180.045 103.208 180.031 103.45Z" fill="black"/>
<path d="M182.647 91.5021L182.6 91.533C182.598 91.5226 182.597 91.5143 182.595 91.5032C182.553 91.3683 182.455 91.2467 182.389 91.265C182.323 91.2812 182.309 91.4345 182.345 91.5701C182.362 91.6334 182.388 91.6798 182.418 91.7108C182.087 91.6176 181.577 91.6431 181.201 91.7608C181.008 91.818 180.878 91.9029 180.785 91.9953C180.748 92.0345 180.693 92.0529 180.64 92.0399C180.5 92.0097 180.346 92.0068 180.196 92.0784C179.992 92.1716 179.834 92.3662 179.802 92.599C179.732 93.0214 180.123 93.379 180.59 93.2905C180.705 93.2717 180.808 93.2282 180.893 93.1635C180.943 93.1268 181.01 93.1156 181.069 93.1325C181.214 93.1771 181.398 93.1685 181.63 93.0998C182.086 92.9577 182.558 92.5896 182.688 92.2526C182.693 92.2954 182.714 92.3443 182.755 92.3961C182.844 92.5069 182.991 92.5825 183.058 92.5353C183.123 92.4864 183.076 92.3342 182.984 92.2277C182.976 92.2202 182.97 92.2148 182.962 92.2076L183.018 92.1831C183.26 92.0558 183.358 91.7953 183.242 91.6122C183.129 91.433 182.865 91.3877 182.647 91.5021Z" fill="black"/>
<path d="M179.665 99.3331V99.3954C179.655 99.3914 179.648 99.3885 179.637 99.3839C179.499 99.3457 179.34 99.3698 179.321 99.4544C179.307 99.5382 179.442 99.6407 179.582 99.6699C179.647 99.6839 179.701 99.6796 179.743 99.6648C179.49 99.9372 179.391 100.549 179.48 100.989C179.521 101.21 179.6 101.363 179.693 101.46C179.731 101.5 179.747 101.558 179.732 101.611C179.69 101.755 179.693 101.89 179.752 102.047C179.836 102.256 180.037 102.418 180.266 102.459C180.698 102.539 181.064 102.174 181.002 101.714C180.984 101.6 180.945 101.489 180.885 101.408C180.85 101.359 180.842 101.296 180.862 101.241C180.912 101.103 180.922 100.94 180.883 100.733C180.804 100.33 180.587 99.9048 180.356 99.6609C180.397 99.6735 180.451 99.6756 180.516 99.663C180.656 99.635 180.789 99.5609 180.774 99.4993C180.765 99.4385 180.611 99.4044 180.469 99.4231C180.458 99.4256 180.45 99.4274 180.44 99.4299C180.444 99.4126 180.448 99.3961 180.45 99.3781C180.46 99.1475 180.322 98.9331 180.11 98.8946C179.895 98.8557 179.679 99.0504 179.665 99.3331Z" fill="black"/>
<path d="M178.163 97.6256L178.143 97.685C178.135 97.6781 178.129 97.6731 178.12 97.6655C178.001 97.5878 177.842 97.563 177.797 97.6375C177.758 97.713 177.854 97.8512 177.979 97.9213C178.037 97.9544 178.089 97.9663 178.133 97.9649C177.808 98.148 177.523 98.7013 177.471 99.1463C177.442 99.369 177.469 99.5384 177.527 99.6589C177.552 99.709 177.549 99.7683 177.519 99.8144C177.433 99.9388 177.394 100.068 177.402 100.236C177.416 100.46 177.557 100.675 177.762 100.782C178.149 100.988 178.611 100.751 178.695 100.294C178.713 100.18 178.711 100.063 178.678 99.968C178.66 99.9111 178.672 99.8485 178.709 99.8018C178.799 99.6856 178.86 99.5334 178.887 99.3244C178.937 98.9171 178.863 98.4473 178.718 98.1455C178.754 98.1696 178.805 98.1879 178.871 98.1958C179.012 98.2113 179.162 98.1803 179.167 98.1174C179.177 98.057 179.041 97.9778 178.9 97.953C178.889 97.9523 178.881 97.9515 178.871 97.9508C178.879 97.9357 178.889 97.921 178.896 97.9044C178.977 97.6882 178.913 97.4425 178.723 97.3421C178.531 97.2403 178.264 97.3608 178.163 97.6256Z" fill="black"/>
<path d="M181.602 95.4564L181.565 95.5043C181.56 95.4949 181.556 95.4877 181.55 95.4773C181.467 95.3621 181.331 95.2808 181.268 95.3294C181.205 95.3783 181.242 95.5363 181.327 95.6489C181.367 95.7014 181.41 95.7334 181.451 95.75C181.089 95.7845 180.599 96.1227 180.339 96.5234C180.209 96.7271 180.144 96.8951 180.153 97.0508C180.154 97.1124 180.128 97.1742 180.079 97.2135C179.949 97.3174 179.841 97.4728 179.815 97.6725C179.764 97.9373 179.881 98.1913 180.091 98.3082C180.472 98.5111 180.917 98.3269 181.06 98.001C181.1 97.9164 181.123 97.8286 181.121 97.7383C181.12 97.6851 181.15 97.6372 181.197 97.6121C181.306 97.5495 181.431 97.4531 181.536 97.2872C181.745 96.9656 181.918 96.4871 181.913 96.1464C181.936 96.1831 181.974 96.2202 182.032 96.2529C182.156 96.3223 182.312 96.3482 182.347 96.2885C182.382 96.2288 182.286 96.1036 182.165 96.0309C182.154 96.0263 182.147 96.023 182.138 96.0187L182.178 95.9809C182.341 95.7946 182.376 95.5402 182.219 95.3859C182.07 95.2377 181.78 95.2539 181.602 95.4564Z" fill="black"/>
<path d="M184.385 92.2431L184.344 92.2869C184.339 92.2772 184.337 92.2697 184.332 92.2589C184.261 92.1362 184.134 92.0416 184.066 92.084C183.999 92.1265 184.019 92.2873 184.093 92.4075C184.127 92.4636 184.166 92.4999 184.205 92.5204C183.841 92.5193 183.32 92.8075 183.02 93.1806C182.87 93.3705 182.788 93.5313 182.781 93.6871C182.777 93.7486 182.744 93.8073 182.692 93.8418C182.552 93.9325 182.428 94.0764 182.382 94.2724C182.305 94.5311 182.395 94.7952 182.592 94.9322C182.95 95.1715 183.412 95.0322 183.588 94.7218C183.636 94.6415 183.667 94.5566 183.675 94.4663C183.68 94.4135 183.714 94.3685 183.764 94.3483C183.878 94.2965 184.013 94.2131 184.134 94.0584C184.374 93.7587 184.595 93.2997 184.625 92.96C184.643 92.9989 184.678 93.0396 184.732 93.0777C184.849 93.1593 185.001 93.2 185.042 93.1442C185.083 93.0885 185 92.9543 184.887 92.8701C184.877 92.8643 184.87 92.8604 184.862 92.8554L184.906 92.8215C185.087 92.6521 185.147 92.4024 185.007 92.2333C184.873 92.0714 184.583 92.0589 184.385 92.2431Z" fill="black"/>
<path d="M170.108 112.259L170.045 112.258C170.049 112.249 170.053 112.241 170.057 112.231C170.102 112.096 170.083 111.94 169.996 111.919C169.917 111.901 169.814 112.029 169.78 112.165C169.765 112.229 169.767 112.282 169.779 112.323C169.526 112.077 168.984 111.925 168.544 111.963C168.321 111.979 168.159 112.045 168.047 112.13C168.001 112.167 167.94 112.181 167.883 112.164C167.733 112.118 167.556 112.127 167.383 112.207C167.148 112.315 166.997 112.559 167.024 112.787C167.093 113.21 167.459 113.47 167.806 113.409C167.897 113.393 167.979 113.354 168.053 113.303C168.096 113.272 168.152 113.268 168.2 113.292C168.317 113.352 168.465 113.376 168.662 113.361C169.05 113.328 169.517 113.153 169.761 112.926C169.748 112.966 169.743 113.02 169.754 113.084C169.776 113.223 169.844 113.358 169.904 113.347C169.958 113.337 169.995 113.186 169.985 113.047C169.983 113.036 169.982 113.029 169.98 113.019C169.996 113.022 170.011 113.026 170.027 113.028C170.088 113.031 170.11 113.029 170.158 113.015C170.217 113.007 170.272 112.989 170.321 112.963C170.418 112.911 170.488 112.827 170.51 112.722C170.531 112.618 170.503 112.513 170.44 112.43C170.409 112.388 170.369 112.35 170.323 112.321C170.264 112.291 170.171 112.262 170.108 112.259Z" fill="black"/>
<path d="M165.845 113.413L165.806 113.462C165.801 113.452 165.797 113.445 165.791 113.435C165.71 113.319 165.571 113.239 165.502 113.294C165.44 113.346 165.48 113.504 165.57 113.612C165.613 113.663 165.657 113.693 165.698 113.709C165.345 113.758 164.894 114.089 164.658 114.457C164.537 114.641 164.491 114.808 164.493 114.947C164.494 115.005 164.468 115.062 164.421 115.096C164.292 115.185 164.193 115.33 164.153 115.513C164.097 115.763 164.204 116.028 164.404 116.145C164.788 116.347 165.22 116.219 165.382 115.91C165.423 115.829 165.441 115.742 165.445 115.653C165.446 115.6 165.477 115.554 165.525 115.531C165.645 115.476 165.754 115.375 165.862 115.211C166.069 114.888 166.211 114.417 166.175 114.088C166.199 114.123 166.24 114.158 166.298 114.19C166.424 114.256 166.574 114.285 166.602 114.231C166.627 114.183 166.527 114.062 166.408 113.986C166.398 113.981 166.391 113.977 166.382 113.973C166.394 113.963 166.407 113.953 166.418 113.941C166.458 113.896 166.469 113.877 166.487 113.831C166.516 113.78 166.535 113.726 166.543 113.673C166.56 113.565 166.534 113.46 166.463 113.379C166.392 113.298 166.29 113.258 166.184 113.256C166.131 113.255 166.077 113.264 166.025 113.282C165.966 113.31 165.886 113.365 165.845 113.413Z" fill="black"/>
<path d="M173.996 112.469C173.978 112.472 173.961 112.478 173.944 112.483C173.946 112.472 173.947 112.464 173.949 112.453C173.955 112.312 173.906 112.164 173.841 112.161C173.775 112.155 173.712 112.292 173.701 112.432C173.696 112.496 173.705 112.549 173.722 112.589C173.453 112.383 172.98 112.25 172.597 112.246C172.401 112.24 172.255 112.28 172.142 112.349C172.095 112.379 172.039 112.376 171.994 112.349C171.873 112.272 171.728 112.238 171.568 112.267C171.351 112.298 171.153 112.453 171.065 112.669C170.899 113.063 171.165 113.497 171.603 113.535C171.711 113.545 171.816 113.53 171.909 113.497C171.964 113.476 172.026 113.488 172.075 113.518C172.193 113.595 172.359 113.643 172.585 113.649C173.032 113.655 173.565 113.454 173.79 113.188C173.782 113.23 173.784 113.283 173.805 113.345C173.849 113.479 173.957 113.602 174.03 113.579C174.104 113.553 174.111 113.396 174.063 113.264C174.058 113.254 174.055 113.248 174.05 113.238L174.108 113.234C174.365 113.193 174.539 112.99 174.495 112.781C174.453 112.572 174.229 112.432 173.996 112.469Z" fill="black"/>
<path d="M160.95 112.331C160.943 112.348 160.939 112.365 160.933 112.381C160.925 112.374 160.919 112.369 160.91 112.361C160.793 112.28 160.64 112.24 160.602 112.293C160.562 112.344 160.645 112.47 160.758 112.555C160.812 112.594 160.861 112.615 160.904 112.622C160.583 112.734 160.214 113.053 160.003 113.369C159.893 113.527 159.847 113.67 159.846 113.801C159.846 113.855 159.814 113.9 159.766 113.923C159.635 113.981 159.527 114.083 159.466 114.232C159.375 114.428 159.401 114.675 159.538 114.864C159.786 115.215 160.301 115.229 160.57 114.887C160.637 114.803 160.681 114.708 160.702 114.613C160.714 114.556 160.758 114.512 160.81 114.488C160.94 114.431 161.071 114.32 161.198 114.136C161.444 113.769 161.56 113.22 161.454 112.889C161.485 112.919 161.532 112.945 161.596 112.962C161.734 112.998 161.899 112.975 161.918 112.902C161.936 112.827 161.805 112.736 161.667 112.705C161.656 112.704 161.648 112.702 161.638 112.701L161.665 112.651C161.769 112.416 161.689 112.163 161.486 112.086C161.284 112.008 161.044 112.118 160.95 112.331Z" fill="black"/>
<path d="M177.57 111.153C177.554 111.163 177.541 111.174 177.527 111.186C177.524 111.176 177.522 111.168 177.519 111.156C177.467 111.026 177.36 110.91 177.298 110.933C177.236 110.956 177.238 111.11 177.287 111.243C177.31 111.305 177.34 111.349 177.373 111.377C177.037 111.292 176.554 111.372 176.203 111.519C176.028 111.604 175.906 111.685 175.832 111.794C175.802 111.837 175.752 111.862 175.699 111.855C175.561 111.841 175.414 111.862 175.278 111.946C175.096 112.063 174.981 112.289 174.985 112.515C174.991 112.95 175.409 113.232 175.832 113.098C175.938 113.069 176.026 113.008 176.097 112.937C176.139 112.895 176.199 112.877 176.257 112.888C176.397 112.91 176.576 112.901 176.78 112.803C177.194 112.629 177.589 112.222 177.686 111.895C177.696 111.937 177.721 111.985 177.766 112.032C177.861 112.136 178.008 112.2 178.065 112.148C178.121 112.096 178.063 111.951 177.963 111.85C177.955 111.842 177.949 111.837 177.941 111.831L177.992 111.805C178.213 111.67 178.284 111.412 178.156 111.236C178.032 111.065 177.771 111.031 177.57 111.153Z" fill="black"/>
<path d="M180.377 108.57C180.367 108.585 180.359 108.6 180.35 108.616C180.344 108.607 180.339 108.601 180.332 108.592C180.235 108.489 180.093 108.42 180.044 108.463C179.997 108.508 180.05 108.647 180.145 108.753C180.189 108.801 180.233 108.832 180.274 108.847C180.102 108.867 179.91 108.94 179.732 109.044C179.545 109.143 179.368 109.267 179.237 109.408C179.099 109.546 179.02 109.674 178.993 109.802C178.981 109.854 178.944 109.897 178.893 109.911C178.759 109.952 178.628 110.028 178.537 110.16C178.412 110.337 178.399 110.595 178.497 110.8C178.681 111.195 179.172 111.285 179.506 111.005C179.59 110.938 179.648 110.851 179.684 110.759C179.706 110.705 179.753 110.665 179.81 110.654C179.948 110.623 180.102 110.545 180.259 110.388C180.41 110.228 180.548 110.024 180.64 109.816C180.726 109.602 180.771 109.388 180.758 109.217C180.782 109.253 180.822 109.288 180.882 109.317C181.01 109.38 181.176 109.392 181.208 109.321C181.24 109.252 181.131 109.137 181.002 109.079C180.991 109.075 180.984 109.073 180.974 109.07L181.011 109.026C181.162 108.818 181.137 108.555 180.955 108.438C180.773 108.322 180.515 108.381 180.377 108.57Z" fill="black"/>
<path d="M181.947 105.147C181.943 105.164 181.942 105.181 181.939 105.199C181.93 105.194 181.923 105.19 181.913 105.184C181.782 105.13 181.623 105.123 181.594 105.181C181.565 105.24 181.677 105.347 181.807 105.405C181.867 105.433 181.92 105.443 181.963 105.44C181.678 105.618 181.386 106.008 181.245 106.357C181.18 106.537 181.161 106.683 181.183 106.809C181.193 106.86 181.174 106.913 181.133 106.944C181.024 107.031 180.939 107.15 180.902 107.303C180.856 107.513 180.941 107.754 181.107 107.909C181.425 108.21 181.921 108.116 182.124 107.728C182.178 107.634 182.193 107.528 182.194 107.43C182.193 107.371 182.223 107.317 182.272 107.283C182.391 107.203 182.502 107.069 182.578 106.859C182.744 106.448 182.738 105.886 182.559 105.585C182.596 105.608 182.647 105.624 182.714 105.626C182.857 105.633 183.008 105.575 183.012 105.499C183.016 105.424 182.87 105.362 182.727 105.361C182.715 105.361 182.707 105.362 182.697 105.363L182.715 105.309C182.768 105.059 182.626 104.827 182.413 104.794C182.198 104.76 181.995 104.919 181.947 105.147Z" fill="black"/>
<path d="M182.009 101.369C182.012 101.387 182.017 101.404 182.022 101.421C182.011 101.419 182.003 101.418 181.992 101.417C181.85 101.413 181.699 101.465 181.695 101.531C181.691 101.597 181.835 101.656 181.977 101.663C182.044 101.666 182.097 101.656 182.136 101.637C181.938 101.909 181.819 102.385 181.831 102.765C181.844 102.958 181.88 103.101 181.955 103.208C181.985 103.252 181.99 103.308 181.965 103.354C181.902 103.477 181.864 103.62 181.899 103.776C181.95 103.988 182.112 104.173 182.334 104.25C182.745 104.396 183.17 104.113 183.19 103.68C183.197 103.573 183.179 103.471 183.135 103.381C183.11 103.328 183.115 103.267 183.146 103.218C183.219 103.099 183.272 102.933 183.257 102.713C183.243 102.276 183.023 101.766 182.743 101.553C182.786 101.56 182.84 101.556 182.903 101.535C183.037 101.488 183.157 101.38 183.132 101.309C183.107 101.238 182.948 101.235 182.814 101.285C182.804 101.29 182.797 101.294 182.788 101.298L182.784 101.242C182.748 101.022 182.563 100.859 182.345 100.866C182.13 100.874 181.966 101.106 182.009 101.369Z" fill="black"/>
<path d="M182.428 97.2744L182.412 97.3316C182.403 97.3251 182.397 97.3197 182.388 97.3125C182.267 97.2359 182.11 97.2097 182.07 97.2805C182.029 97.3514 182.124 97.4845 182.247 97.5536C182.305 97.586 182.358 97.5986 182.402 97.5982C182.093 97.7698 181.794 98.2702 181.734 98.707C181.7 98.9279 181.726 99.0969 181.789 99.2232C181.814 99.2747 181.812 99.3362 181.783 99.3855C181.708 99.5179 181.67 99.6833 181.709 99.8582C181.756 100.096 181.947 100.285 182.174 100.335C182.602 100.424 182.976 100.122 182.997 99.7513C183.004 99.6571 182.986 99.5664 182.949 99.483C182.928 99.434 182.939 99.3793 182.973 99.3383C183.057 99.2383 183.117 99.1016 183.146 98.9127C183.198 98.5393 183.143 98.077 182.986 97.7813C183.021 97.8054 183.072 97.8238 183.138 97.8324C183.28 97.85 183.432 97.8245 183.438 97.7651C183.445 97.7058 183.307 97.627 183.168 97.6014C183.157 97.6004 183.149 97.5996 183.139 97.5989C183.146 97.5842 183.155 97.5698 183.16 97.5536C183.243 97.3525 183.166 97.115 182.981 97.0125C182.788 96.906 182.531 97.0229 182.428 97.2744Z" fill="black"/>
<path d="M173.321 114.734L173.264 114.738C173.268 114.728 173.27 114.72 173.274 114.709C173.307 114.572 173.284 114.418 173.217 114.403C173.149 114.39 173.057 114.515 173.019 114.648C173.001 114.71 173 114.763 173.01 114.806C172.9 114.684 172.738 114.573 172.56 114.486C172.471 114.437 172.38 114.388 172.286 114.35C172.237 114.331 172.19 114.314 172.145 114.297L172.075 114.275C172.019 114.263 171.965 114.251 171.911 114.239C171.858 114.237 171.807 114.236 171.757 114.234C171.541 114.229 171.376 114.264 171.252 114.33C171.202 114.358 171.14 114.359 171.09 114.331C170.955 114.257 170.795 114.223 170.622 114.249C170.387 114.284 170.183 114.439 170.091 114.653C169.91 115.049 170.217 115.482 170.686 115.521C170.801 115.53 170.912 115.515 171.011 115.479C171.069 115.458 171.135 115.467 171.187 115.499C171.312 115.579 171.484 115.631 171.724 115.637C171.768 115.638 171.77 115.638 171.774 115.635L171.776 115.633C171.784 115.634 171.735 115.624 171.769 115.629L171.858 115.637C171.916 115.639 171.976 115.642 172.039 115.644C172.16 115.644 172.28 115.64 172.394 115.622C172.625 115.576 172.828 115.503 172.965 115.407C172.947 115.446 172.939 115.498 172.949 115.564C172.97 115.706 173.062 115.846 173.147 115.831C173.231 115.82 173.269 115.666 173.243 115.528C173.239 115.517 173.237 115.51 173.234 115.5L173.296 115.506C173.581 115.516 173.803 115.34 173.794 115.123C173.785 114.914 173.573 114.743 173.321 114.734Z" fill="black"/>
<path d="M177.322 113.836L177.272 113.866C177.27 113.856 177.269 113.848 177.268 113.836C177.233 113.699 177.14 113.573 177.07 113.592C177 113.607 176.976 113.76 177.006 113.898C177.021 113.961 177.045 114.008 177.075 114.041C176.737 113.933 176.208 113.965 175.812 114.08C175.61 114.135 175.472 114.221 175.377 114.321C175.338 114.359 175.28 114.376 175.225 114.362C175.079 114.324 174.921 114.34 174.764 114.408C174.552 114.495 174.392 114.702 174.36 114.934C174.293 115.361 174.695 115.699 175.17 115.616C175.286 115.592 175.391 115.547 175.479 115.486C175.53 115.45 175.598 115.44 175.659 115.458C175.805 115.497 175.991 115.488 176.227 115.423C176.692 115.287 177.174 114.92 177.324 114.592C177.328 114.634 177.346 114.684 177.386 114.737C177.471 114.851 177.617 114.933 177.686 114.888C177.752 114.84 177.713 114.687 177.625 114.576C177.617 114.569 177.612 114.563 177.605 114.556L177.662 114.533C177.911 114.41 178.029 114.158 177.925 113.97C177.822 113.783 177.551 113.723 177.322 113.836Z" fill="black"/>
<path d="M183.74 111.356L183.717 111.408C183.71 111.4 183.704 111.394 183.696 111.385C183.588 111.292 183.438 111.241 183.392 111.295C183.343 111.347 183.412 111.487 183.516 111.582C183.565 111.627 183.613 111.652 183.655 111.662C183.315 111.763 182.898 112.084 182.64 112.401C182.506 112.559 182.443 112.708 182.422 112.842C182.412 112.896 182.374 112.942 182.321 112.962C182.178 113.012 182.058 113.113 181.969 113.257C181.844 113.447 181.833 113.707 181.941 113.916C182.133 114.305 182.659 114.358 183.002 114.023C183.083 113.939 183.143 113.842 183.18 113.743C183.202 113.685 183.252 113.639 183.312 113.62C183.455 113.57 183.602 113.458 183.759 113.272C184.062 112.901 184.246 112.33 184.179 111.975C184.207 112.008 184.251 112.039 184.315 112.06C184.45 112.106 184.618 112.092 184.648 112.016C184.675 111.94 184.555 111.835 184.418 111.794C184.407 111.792 184.4 111.791 184.389 111.788L184.423 111.738C184.557 111.497 184.508 111.224 184.314 111.127C184.12 111.031 183.863 111.133 183.74 111.356Z" fill="black"/>
<path d="M180.742 111.454L180.703 111.498C180.699 111.489 180.695 111.481 180.69 111.471C180.615 111.351 180.485 111.26 180.424 111.299C180.363 111.34 180.389 111.495 180.461 111.615C180.495 111.671 180.534 111.708 180.573 111.729C180.213 111.731 179.716 111.943 179.379 112.198C179.211 112.332 179.104 112.453 179.052 112.583C179.03 112.635 178.984 112.675 178.927 112.685C178.779 112.715 178.628 112.779 178.509 112.908C178.349 113.083 178.287 113.337 178.354 113.556C178.48 113.973 178.983 114.117 179.371 113.86C179.469 113.799 179.546 113.719 179.599 113.628C179.631 113.574 179.687 113.539 179.748 113.533C179.895 113.515 180.071 113.453 180.256 113.306C180.63 113.022 180.949 112.527 180.988 112.173C181.005 112.212 181.039 112.254 181.094 112.292C181.212 112.374 181.374 112.406 181.421 112.341C181.468 112.276 181.382 112.143 181.264 112.064C181.254 112.059 181.247 112.056 181.238 112.051L181.285 112.013C181.483 111.824 181.517 111.55 181.362 111.401C181.207 111.252 180.929 111.276 180.742 111.454Z" fill="black"/>
<path d="M183.25 108.189L183.231 108.242C183.223 108.235 183.216 108.229 183.208 108.221C183.093 108.137 182.939 108.098 182.898 108.154C182.858 108.21 182.939 108.343 183.049 108.43C183.1 108.471 183.15 108.492 183.193 108.499C182.858 108.621 182.473 108.966 182.229 109.298C182.109 109.469 182.054 109.621 182.037 109.756C182.031 109.811 181.997 109.861 181.946 109.886C181.811 109.952 181.694 110.063 181.612 110.216C181.505 110.426 181.523 110.691 181.65 110.881C181.892 111.245 182.411 111.24 182.714 110.89C182.789 110.804 182.836 110.701 182.864 110.6C182.88 110.541 182.924 110.491 182.982 110.468C183.124 110.413 183.264 110.294 183.403 110.097C183.684 109.713 183.828 109.121 183.739 108.773C183.77 108.804 183.816 108.832 183.881 108.849C184.021 108.885 184.187 108.857 184.207 108.776C184.229 108.696 184.101 108.602 183.961 108.571C183.95 108.57 183.942 108.57 183.932 108.568L183.962 108.515C184.085 108.265 184.002 107.992 183.799 107.914C183.598 107.837 183.361 107.964 183.25 108.189Z" fill="black"/>
<path d="M184.186 104.195L184.187 104.254C184.177 104.25 184.17 104.246 184.159 104.242C184.021 104.203 183.863 104.22 183.842 104.291C183.822 104.361 183.947 104.46 184.083 104.502C184.147 104.521 184.201 104.522 184.244 104.512C183.981 104.752 183.762 105.245 183.688 105.654C183.656 105.864 183.666 106.025 183.713 106.153C183.732 106.206 183.725 106.265 183.69 106.31C183.601 106.429 183.533 106.573 183.534 106.745C183.537 106.979 183.649 107.203 183.852 107.327C184.219 107.561 184.707 107.344 184.82 106.889C184.852 106.778 184.855 106.667 184.832 106.563C184.819 106.503 184.837 106.439 184.878 106.393C184.979 106.282 185.06 106.118 185.096 105.886C185.179 105.426 185.07 104.854 184.854 104.567C184.895 104.585 184.948 104.593 185.014 104.585C185.156 104.568 185.299 104.486 185.292 104.408C185.285 104.329 185.131 104.287 184.989 104.306C184.978 104.309 184.971 104.31 184.961 104.313C184.965 104.294 184.968 104.275 184.97 104.254C184.988 103.987 184.826 103.76 184.61 103.749C184.393 103.737 184.204 103.937 184.186 104.195Z" fill="black"/>
<path d="M183.843 100.052C183.846 100.073 183.852 100.092 183.857 100.111C183.846 100.109 183.838 100.108 183.826 100.106C183.683 100.097 183.533 100.149 183.531 100.227C183.529 100.305 183.676 100.376 183.819 100.384C183.886 100.388 183.938 100.376 183.977 100.356C183.781 100.657 183.708 101.216 183.779 101.644C183.815 101.862 183.883 102.015 183.973 102.122C184.011 102.166 184.023 102.225 184.006 102.279C183.958 102.422 183.957 102.584 184.01 102.73C184.049 102.842 184.109 102.89 184.19 102.984C184.269 103.071 184.371 103.136 184.484 103.168C184.695 103.228 184.899 103.178 185.053 103.056C185.131 103.002 185.192 102.907 185.232 102.786C185.268 102.678 185.285 102.555 185.271 102.441C185.259 102.323 185.221 102.218 185.166 102.13C185.134 102.078 185.129 102.012 185.152 101.957C185.207 101.821 185.225 101.646 185.188 101.422C185.116 100.979 184.861 100.484 184.582 100.262C184.626 100.269 184.679 100.264 184.742 100.241C184.876 100.191 184.994 100.083 184.969 100.013C184.944 99.943 184.784 99.9362 184.651 99.9851C184.641 99.9901 184.633 99.9934 184.624 99.998L184.621 99.9405C184.582 99.6854 184.385 99.5019 184.168 99.5232C183.953 99.544 183.803 99.7858 183.843 100.052Z" fill="black"/>
<path d="M165.705 108.228C165.7 108.244 165.698 108.26 165.695 108.276C165.686 108.27 165.68 108.265 165.67 108.259C165.543 108.19 165.394 108.162 165.359 108.207C165.322 108.251 165.416 108.365 165.534 108.445C165.588 108.481 165.639 108.501 165.681 108.507C165.383 108.628 164.999 108.888 164.771 109.177C164.646 109.321 164.578 109.454 164.561 109.584C164.553 109.637 164.52 109.682 164.47 109.699C164.329 109.741 164.205 109.828 164.119 109.969C164.008 110.162 163.99 110.41 164.101 110.614C164.302 110.994 164.812 111.073 165.133 110.759C165.213 110.684 165.272 110.595 165.308 110.503C165.328 110.446 165.374 110.4 165.432 110.383C165.57 110.338 165.723 110.243 165.877 110.064C166.174 109.697 166.367 109.109 166.241 108.754C166.273 108.784 166.32 108.809 166.386 108.822C166.526 108.851 166.693 108.808 166.715 108.724C166.736 108.638 166.593 108.552 166.453 108.537H166.424L166.448 108.479C166.544 108.207 166.409 107.949 166.192 107.916C165.98 107.885 165.777 108.027 165.705 108.228Z" fill="black"/>
<path d="M165.432 104.39L165.441 104.447C165.43 104.444 165.422 104.442 165.411 104.439C165.269 104.419 165.115 104.458 165.105 104.533C165.094 104.608 165.237 104.688 165.378 104.705C165.445 104.714 165.498 104.706 165.539 104.69C165.311 104.944 165.215 105.544 165.309 105.968C165.355 106.185 165.428 106.322 165.525 106.42C165.565 106.46 165.58 106.515 165.564 106.566C165.522 106.702 165.527 106.849 165.586 106.987C165.672 107.176 165.854 107.321 166.09 107.376C166.302 107.423 166.507 107.373 166.647 107.234C166.793 107.094 166.868 106.874 166.834 106.647C166.817 106.534 166.772 106.438 166.714 106.354C166.68 106.305 166.672 106.243 166.692 106.19C166.74 106.06 166.75 105.889 166.709 105.691C166.623 105.297 166.406 104.889 166.15 104.643C166.192 104.653 166.246 104.652 166.311 104.634C166.448 104.596 166.573 104.504 166.556 104.438C166.538 104.372 166.38 104.353 166.242 104.389C166.232 104.393 166.224 104.396 166.215 104.399L166.217 104.345C166.2 104.103 166.022 103.911 165.805 103.916C165.588 103.92 165.415 104.134 165.432 104.39Z" fill="black"/>
<path d="M166.035 100.256L166.016 100.312C166.008 100.305 166.002 100.3 165.993 100.292C165.876 100.212 165.719 100.179 165.675 100.247C165.632 100.315 165.72 100.451 165.84 100.527C165.896 100.562 165.948 100.577 165.992 100.579C165.679 100.739 165.336 101.229 165.259 101.682C165.208 101.909 165.238 102.086 165.29 102.218C165.312 102.272 165.308 102.335 165.279 102.386C165.201 102.52 165.156 102.691 165.191 102.872C165.236 103.117 165.416 103.313 165.647 103.369C166.072 103.469 166.452 103.164 166.482 102.79C166.491 102.694 166.476 102.602 166.442 102.517C166.42 102.466 166.433 102.411 166.47 102.371C166.563 102.275 166.617 102.137 166.66 101.949C166.723 101.576 166.71 101.103 166.566 100.79C166.6 100.817 166.65 100.838 166.715 100.849C166.856 100.873 167.012 100.85 167.023 100.787C167.034 100.724 166.9 100.639 166.761 100.61C166.75 100.609 166.742 100.608 166.732 100.607C166.74 100.591 166.75 100.577 166.757 100.56C166.844 100.345 166.787 100.101 166.592 99.9993C166.405 99.9007 166.137 100.008 166.035 100.256Z" fill="black"/>
<path d="M168.78 99.7273L168.75 99.7791C168.743 99.7705 168.738 99.764 168.731 99.7547C168.633 99.6518 168.487 99.5888 168.43 99.6468C168.373 99.7043 168.431 99.8554 168.532 99.9529C168.58 99.9993 168.627 100.025 168.67 100.035C168.33 100.128 167.892 100.539 167.723 100.967C167.625 101.178 167.618 101.357 167.641 101.497C167.651 101.555 167.634 101.616 167.595 101.659C167.49 101.775 167.411 101.934 167.408 102.117C167.401 102.367 167.536 102.594 167.75 102.696C168.145 102.88 168.58 102.658 168.688 102.297C168.717 102.206 168.722 102.113 168.706 102.023C168.695 101.969 168.719 101.917 168.764 101.886C168.875 101.81 168.957 101.685 169.038 101.511C169.177 101.158 169.263 100.693 169.188 100.358C169.216 100.39 169.26 100.421 169.322 100.445C169.455 100.497 169.612 100.506 169.636 100.446C169.66 100.387 169.547 100.277 169.417 100.221C169.406 100.217 169.399 100.215 169.389 100.212C169.401 100.198 169.413 100.186 169.423 100.171C169.553 99.9777 169.549 99.7281 169.379 99.5888C169.216 99.4546 168.932 99.5054 168.78 99.7273Z" fill="black"/>
<path d="M168.771 97.0423C168.755 97.0541 168.742 97.0682 168.728 97.0815C168.724 97.0714 168.721 97.0635 168.718 97.0523C168.658 96.9239 168.542 96.8178 168.471 96.853C168.402 96.8887 168.408 97.0498 168.471 97.1757C168.5 97.2347 168.536 97.2747 168.572 97.2984C168.213 97.2628 167.687 97.4988 167.36 97.8107C167.197 97.9784 167.109 98.1359 167.077 98.2752C167.063 98.3309 167.028 98.386 166.973 98.4119C166.831 98.4842 166.693 98.6032 166.621 98.7788C166.524 99.0195 166.563 99.2782 166.734 99.4458C167.046 99.7444 167.528 99.6854 167.75 99.3994C167.81 99.3274 167.848 99.2443 167.866 99.1558C167.877 99.1044 167.913 99.0619 167.968 99.0511C168.099 99.022 168.229 98.9486 168.363 98.8094C168.647 98.5403 168.894 98.1057 168.948 97.7747C168.964 97.8147 168.995 97.8582 169.045 97.9014C169.152 97.9938 169.298 98.0496 169.342 97.9992C169.386 97.9485 169.315 97.8075 169.211 97.7129C169.202 97.706 169.196 97.7017 169.188 97.6956L169.233 97.6672C169.433 97.5326 169.498 97.2779 169.381 97.098C169.264 96.9185 168.991 96.8933 168.771 97.0423Z" fill="black"/>
<path d="M172.717 95.4663L172.659 95.48C172.661 95.4695 172.662 95.4613 172.665 95.4498C172.677 95.3091 172.627 95.1605 172.546 95.1587C172.465 95.1566 172.39 95.3012 172.384 95.4415C172.381 95.507 172.394 95.5584 172.414 95.5969C172.116 95.3998 171.521 95.3613 171.08 95.512C170.855 95.5832 170.708 95.6872 170.62 95.803C170.583 95.8498 170.525 95.8782 170.464 95.8761C170.303 95.8703 170.135 95.9297 169.988 96.0437C169.792 96.2067 169.712 96.4643 169.778 96.6834C169.909 97.0967 170.364 97.2597 170.706 97.1046C170.793 97.0658 170.864 97.0014 170.923 96.9348C170.958 96.8945 171.012 96.8773 171.066 96.8884C171.194 96.914 171.345 96.9021 171.531 96.8435C171.894 96.7193 172.307 96.46 172.514 96.1916C172.508 96.234 172.514 96.2866 172.537 96.3481C172.586 96.4801 172.685 96.5985 172.746 96.5754C172.808 96.5521 172.815 96.3948 172.771 96.2624C172.767 96.2524 172.763 96.2455 172.759 96.2365L172.813 96.2329C173.049 96.2124 173.233 96.02 173.223 95.8099C173.213 95.594 172.987 95.4418 172.717 95.4663Z" fill="black"/>
<path d="M168.702 114.202L168.652 114.235C168.65 114.225 168.649 114.217 168.646 114.205C168.608 114.069 168.508 113.947 168.431 113.973C168.355 113.999 168.337 114.16 168.38 114.294C168.401 114.356 168.431 114.401 168.464 114.429C168.114 114.347 167.543 114.516 167.184 114.809C166.999 114.954 166.899 115.101 166.857 115.241C166.839 115.297 166.795 115.344 166.737 115.362C166.584 115.413 166.448 115.526 166.351 115.684C166.225 115.904 166.243 116.172 166.383 116.355C166.653 116.697 167.137 116.693 167.401 116.43C167.469 116.363 167.512 116.279 167.544 116.196C167.563 116.146 167.608 116.111 167.662 116.104C167.791 116.083 167.928 116.02 168.082 115.901C168.377 115.66 168.672 115.274 168.769 114.952C168.779 114.993 168.803 115.041 168.847 115.091C168.94 115.197 169.074 115.274 169.124 115.231C169.173 115.188 169.124 115.038 169.036 114.929C169.028 114.922 169.023 114.917 169.015 114.909L169.064 114.888C169.279 114.787 169.382 114.543 169.298 114.35C169.211 114.151 168.945 114.087 168.702 114.202Z" fill="black"/>
<path d="M176.83 95.7408L176.778 95.7484C176.781 95.7383 176.783 95.7307 176.786 95.72C176.808 95.5811 176.777 95.4293 176.716 95.4134C176.654 95.399 176.578 95.53 176.548 95.6674C176.534 95.7315 176.536 95.7843 176.547 95.8254C176.308 95.5879 175.887 95.3789 175.48 95.3016C175.274 95.2641 175.103 95.2782 174.969 95.3293C174.915 95.3494 174.852 95.3444 174.8 95.3127C174.665 95.2246 174.489 95.181 174.3 95.2102C174.042 95.24 173.837 95.43 173.78 95.6502C173.679 96.0711 173.981 96.438 174.347 96.4798C174.441 96.487 174.533 96.4812 174.62 96.4499C174.67 96.4315 174.726 96.4449 174.768 96.4834C174.867 96.574 175.01 96.6434 175.228 96.683C175.656 96.7661 176.262 96.6661 176.533 96.4283C176.518 96.469 176.513 96.5218 176.525 96.5862C176.552 96.724 176.651 96.8568 176.733 96.8435C176.817 96.8316 176.843 96.6747 176.808 96.5388C176.804 96.5283 176.802 96.5208 176.798 96.5111C176.818 96.5132 176.838 96.5139 176.859 96.5129C177.137 96.4992 177.335 96.3024 177.303 96.0869C177.271 95.8808 177.06 95.7293 176.83 95.7408Z" fill="black"/>
<path d="M180.356 94.31L180.314 94.3452C180.311 94.3352 180.308 94.3276 180.304 94.3168C180.244 94.1898 180.13 94.0812 180.066 94.1082C180.003 94.1351 180.013 94.2898 180.07 94.4186C180.097 94.4787 180.13 94.5208 180.164 94.5467C179.824 94.4992 179.329 94.6161 178.988 94.7903C178.814 94.8805 178.705 94.9885 178.635 95.0921C178.607 95.136 178.558 95.1626 178.506 95.1583C178.365 95.1504 178.224 95.1831 178.094 95.2666C177.92 95.3921 177.806 95.6065 177.809 95.8364C177.804 96.2696 178.243 96.5595 178.69 96.3987C178.801 96.3627 178.888 96.2926 178.96 96.2188C179.002 96.1742 179.064 96.1526 179.125 96.1591C179.276 96.1796 179.449 96.1379 179.657 96.0303C180.069 95.8192 180.443 95.3867 180.514 95.0424C180.526 95.0838 180.554 95.1291 180.602 95.1741C180.705 95.2709 180.858 95.3259 180.913 95.2716C180.967 95.2169 180.899 95.0752 180.793 94.9802C180.784 94.9737 180.778 94.9694 180.769 94.9633L180.82 94.9342C181.038 94.7881 181.085 94.5125 180.954 94.3481C180.817 94.1769 180.559 94.1751 180.356 94.31Z" fill="black"/>
<path d="M163.484 106.425L163.501 106.479C163.491 106.478 163.482 106.477 163.471 106.476C163.328 106.48 163.182 106.543 163.184 106.617C163.181 106.643 163.205 106.624 163.257 106.629C163.308 106.629 163.376 106.657 163.447 106.659C163.513 106.665 163.566 106.661 163.607 106.647C163.382 106.858 163.175 107.288 163.111 107.662C163.079 107.852 163.094 107.999 163.142 108.118C163.163 108.167 163.156 108.222 163.12 108.26C163.027 108.365 162.968 108.494 162.967 108.647C162.964 108.85 163.079 109.056 163.269 109.195C163.612 109.469 164.119 109.283 164.244 108.842C164.277 108.734 164.276 108.628 164.258 108.53C164.247 108.472 164.265 108.412 164.305 108.369C164.405 108.266 164.482 108.111 164.519 107.891C164.594 107.456 164.48 106.893 164.219 106.611C164.261 106.624 164.316 106.626 164.38 106.606C164.448 106.582 164.518 106.553 164.559 106.487C164.601 106.427 164.616 106.331 164.6 106.289C164.572 106.228 164.413 106.236 164.283 106.293C164.273 106.298 164.266 106.302 164.257 106.307L164.251 106.254C164.2 106.022 163.986 105.866 163.773 105.905C163.56 105.945 163.431 106.177 163.484 106.425Z" fill="black"/>
<path d="M163.21 102.365L163.209 102.423C163.199 102.418 163.191 102.415 163.181 102.41C163.045 102.368 162.885 102.381 162.864 102.454C162.842 102.527 162.966 102.628 163.103 102.667C163.167 102.685 163.22 102.685 163.264 102.675C163.006 102.907 162.813 103.433 162.828 103.869C162.827 104.091 162.892 104.251 162.971 104.365C163.005 104.412 163.014 104.472 162.993 104.526C162.933 104.669 162.933 104.836 162.996 105.002C163.081 105.229 163.292 105.386 163.53 105.402C163.964 105.43 164.29 105.071 164.25 104.696C164.237 104.601 164.206 104.513 164.16 104.436C164.131 104.391 164.132 104.334 164.159 104.287C164.229 104.174 164.253 104.027 164.255 103.832C164.241 103.449 164.098 102.982 163.875 102.722C163.915 102.738 163.968 102.745 164.035 102.738C164.177 102.722 164.319 102.655 164.311 102.59C164.305 102.525 164.151 102.482 164.01 102.494C163.999 102.496 163.991 102.498 163.981 102.499L163.991 102.448C164.011 102.214 163.87 102 163.657 101.967C163.441 101.933 163.232 102.11 163.21 102.365Z" fill="black"/>
<path d="M164.504 98.4755L164.479 98.5277C164.472 98.5198 164.466 98.5137 164.458 98.5047C164.352 98.41 164.203 98.3572 164.152 98.4158C164.102 98.4741 164.172 98.618 164.281 98.709C164.331 98.7515 164.38 98.7738 164.423 98.782C164.249 98.8328 164.073 98.9634 163.912 99.1321C163.745 99.2979 163.609 99.5077 163.532 99.7156C163.448 99.9246 163.428 100.095 163.466 100.234C163.479 100.291 163.466 100.351 163.426 100.394C163.324 100.509 163.24 100.663 163.246 100.845C163.248 101.092 163.388 101.314 163.6 101.41C163.998 101.583 164.436 101.364 164.528 101.007C164.556 100.918 164.559 100.827 164.543 100.738C164.533 100.686 164.554 100.634 164.596 100.602C164.694 100.521 164.79 100.404 164.861 100.226C164.927 100.049 164.971 99.8415 164.996 99.6401C165.015 99.4357 165 99.2306 164.96 99.0727C164.99 99.1033 165.036 99.1314 165.099 99.1519C165.236 99.1954 165.392 99.1925 165.412 99.131C165.432 99.0691 165.31 98.9677 165.177 98.9202C165.166 98.9177 165.158 98.9159 165.148 98.9133C165.159 98.8993 165.17 98.886 165.179 98.8705C165.29 98.6655 165.265 98.4198 165.082 98.2982C164.906 98.1802 164.629 98.2485 164.504 98.4755Z" fill="black"/>
<path d="M184.372 95.2931L184.366 95.3503C184.357 95.3449 184.349 95.3409 184.339 95.3352C184.208 95.2794 184.049 95.2773 184.02 95.3485C183.992 95.4201 184.106 95.5338 184.238 95.5849C184.3 95.609 184.354 95.6147 184.397 95.6086C184.249 95.7122 184.126 95.8917 184.029 96.1025C183.926 96.3126 183.866 96.5548 183.861 96.776C183.851 97.0005 183.888 97.1678 183.97 97.2879C184.001 97.3369 184.008 97.3984 183.985 97.4516C183.927 97.593 183.898 97.765 183.964 97.9355C184.046 98.1686 184.252 98.3345 184.484 98.3571C184.918 98.3949 185.26 98.047 185.229 97.6808C185.226 97.5869 185.2 97.4998 185.155 97.4214C185.129 97.3754 185.131 97.3196 185.16 97.2754C185.227 97.1678 185.278 97.0268 185.287 96.8357C185.291 96.6465 185.264 96.4364 185.222 96.2378C185.173 96.0389 185.091 95.8493 185.001 95.7129C185.04 95.732 185.092 95.7439 185.159 95.7431C185.302 95.741 185.449 95.6885 185.447 95.6237C185.446 95.559 185.298 95.5018 185.155 95.4992C185.144 95.5003 185.137 95.501 185.127 95.5021C185.132 95.4852 185.138 95.4694 185.141 95.4517C185.179 95.2222 185.074 94.9977 184.861 94.9409C184.655 94.8859 184.416 95.0384 184.372 95.2931Z" fill="black"/>
<path d="M167.326 95.4765L167.283 95.5139C167.279 95.5039 167.277 95.4963 167.273 95.4855C167.213 95.3582 167.096 95.2513 167.026 95.2844C166.957 95.3171 166.965 95.4751 167.028 95.6003C167.058 95.6589 167.093 95.6988 167.13 95.7233C166.785 95.6945 166.257 95.9039 165.94 96.2104C165.773 96.3572 165.694 96.5159 165.662 96.6526C165.65 96.709 165.611 96.7572 165.556 96.7788C165.411 96.8371 165.273 96.9425 165.198 97.1105C165.091 97.3343 165.12 97.594 165.271 97.7696C165.554 98.0927 166.049 98.0819 166.283 97.7951C166.348 97.7268 166.392 97.6462 166.416 97.5595C166.43 97.5088 166.472 97.471 166.525 97.4595C166.655 97.4325 166.778 97.3544 166.928 97.2242C167.205 96.9551 167.464 96.5389 167.506 96.1989C167.521 96.2388 167.552 96.282 167.602 96.3255C167.71 96.4184 167.857 96.4763 167.901 96.4274C167.945 96.3781 167.874 96.2381 167.769 96.1431C167.761 96.1367 167.754 96.132 167.746 96.1259L167.792 96.0989C167.983 95.9575 168.045 95.7053 167.927 95.5301C167.805 95.3499 167.534 95.3233 167.326 95.4765Z" fill="black"/>
<path d="M171.063 93.7029L171.009 93.7234C171.009 93.7126 171.01 93.7044 171.01 93.6929C171.002 93.5522 170.932 93.4115 170.856 93.4187C170.779 93.4259 170.728 93.5777 170.74 93.7173C170.746 93.7828 170.765 93.8324 170.789 93.8681C170.475 93.7069 169.905 93.7224 169.496 93.8994C169.287 93.9832 169.152 94.0907 169.076 94.212C169.044 94.2606 168.991 94.2922 168.932 94.2929C168.776 94.2958 168.61 94.348 168.479 94.4746C168.298 94.6419 168.229 94.893 168.302 95.111C168.443 95.5147 168.909 95.6841 169.238 95.5003C169.324 95.4582 169.395 95.3981 169.449 95.3251C169.481 95.2823 169.535 95.2614 169.588 95.2689C169.717 95.2844 169.868 95.2653 170.051 95.1927C170.405 95.0387 170.795 94.7365 170.964 94.4462C170.963 94.4886 170.976 94.5404 171.006 94.5987C171.072 94.7232 171.186 94.8279 171.245 94.7969C171.303 94.7656 171.289 94.6095 171.227 94.484C171.221 94.4746 171.217 94.4681 171.212 94.4595L171.264 94.4498C171.494 94.389 171.648 94.185 171.603 93.9738C171.558 93.7673 171.314 93.6367 171.063 93.7029Z" fill="black"/>
<path d="M175.215 93.4677L175.157 93.4645C175.162 93.4552 175.165 93.448 175.17 93.4375C175.22 93.3055 175.214 93.149 175.14 93.1249C175.066 93.1008 174.957 93.2192 174.912 93.3519C174.891 93.4138 174.888 93.467 174.896 93.5095C174.672 93.2411 174.137 93.0382 173.687 93.0411C173.46 93.0389 173.293 93.0979 173.174 93.1735C173.126 93.2055 173.063 93.2134 173.009 93.1915C172.863 93.1357 172.69 93.135 172.518 93.1947C172.283 93.272 172.126 93.4972 172.111 93.7239C172.09 94.1574 172.453 94.46 172.828 94.4301C172.923 94.4215 173.011 94.3851 173.089 94.3394C173.135 94.3128 173.192 94.3146 173.238 94.3427C173.351 94.4132 173.498 94.4423 173.693 94.4445C174.077 94.4427 174.552 94.3114 174.823 94.1081C174.806 94.147 174.796 94.1991 174.801 94.2646C174.811 94.4049 174.872 94.5463 174.938 94.5413C175.004 94.5362 175.054 94.3876 175.049 94.2481C175.047 94.2373 175.046 94.2293 175.044 94.2196C175.061 94.224 175.078 94.229 175.096 94.2315C175.331 94.2599 175.559 94.134 175.601 93.9228C175.642 93.7156 175.475 93.5005 175.215 93.4677Z" fill="black"/>
<path d="M178.913 93.1432L178.863 93.1673C178.862 93.1569 178.861 93.149 178.86 93.1375C178.836 92.9993 178.753 92.8655 178.682 92.8777C178.612 92.8896 178.58 93.0429 178.605 93.1806C178.616 93.2454 178.638 93.2936 178.665 93.3274C178.348 93.1932 177.816 93.2199 177.454 93.3361C177.364 93.3645 177.289 93.3979 177.246 93.4289C177.212 93.449 177.224 93.4555 177.218 93.4731C177.216 93.49 177.176 93.508 177.159 93.5282C177.124 93.5616 177.075 93.5674 177.034 93.5447C176.925 93.4814 176.806 93.4555 176.66 93.4821C176.463 93.5177 176.256 93.6652 176.162 93.8771C175.987 94.2664 176.218 94.7118 176.715 94.7524C176.837 94.7614 176.957 94.7391 177.059 94.6956C177.119 94.6682 177.189 94.6711 177.248 94.6956C177.289 94.7096 177.313 94.7272 177.379 94.7319C177.44 94.7373 177.526 94.7348 177.569 94.7323C177.681 94.7262 177.783 94.7064 177.894 94.6711C178.324 94.5323 178.735 94.1991 178.885 93.8901C178.888 93.9329 178.904 93.9836 178.939 94.039C179.016 94.1577 179.145 94.2498 179.206 94.2121C179.267 94.1739 179.237 94.02 179.161 93.9016C179.154 93.893 179.149 93.8868 179.142 93.8789L179.196 93.8638C179.429 93.7753 179.553 93.5429 179.475 93.3436C179.398 93.1443 179.145 93.0547 178.913 93.1432Z" fill="black"/>
<path d="M160.971 103.534L160.983 103.595C160.973 103.593 160.965 103.591 160.953 103.589C160.81 103.573 160.658 103.622 160.655 103.705C160.652 103.788 160.797 103.868 160.939 103.878C161.006 103.883 161.059 103.872 161.098 103.852C160.892 104.155 160.865 104.778 160.953 105.174C160.999 105.387 161.074 105.536 161.168 105.64C161.208 105.683 161.224 105.742 161.208 105.797C161.167 105.944 161.173 106.107 161.239 106.266C161.332 106.483 161.533 106.64 161.766 106.678C162.2 106.759 162.557 106.356 162.48 105.899C162.462 105.786 162.42 105.684 162.361 105.598C162.327 105.547 162.319 105.483 162.339 105.426C162.388 105.287 162.398 105.109 162.35 104.883C162.246 104.414 161.975 103.988 161.704 103.764C161.747 103.772 161.801 103.766 161.864 103.744C161.999 103.696 162.121 103.595 162.098 103.529C162.076 103.463 161.916 103.452 161.781 103.495C161.771 103.5 161.763 103.503 161.754 103.507L161.752 103.451C161.717 103.203 161.545 103.006 161.324 103.015C161.112 103.023 160.933 103.258 160.971 103.534Z" fill="black"/>
<path d="M161.625 99.1583L161.607 99.2177C161.599 99.2105 161.593 99.2051 161.584 99.1975C161.465 99.1169 161.309 99.0881 161.266 99.159C161.223 99.2295 161.313 99.3684 161.433 99.4447C161.489 99.4803 161.541 99.4954 161.585 99.4961C161.256 99.6645 160.918 100.172 160.816 100.643C160.753 100.878 160.78 101.068 160.828 101.209C160.849 101.266 160.843 101.333 160.809 101.386C160.715 101.526 160.686 101.709 160.709 101.903C160.738 102.166 160.936 102.377 161.16 102.436C161.589 102.541 161.956 102.222 162.003 101.832C162.013 101.732 161.994 101.634 161.969 101.545C161.952 101.491 161.966 101.433 162.004 101.391C162.099 101.29 162.155 101.145 162.209 100.946C162.295 100.551 162.285 100.031 162.159 99.7066C162.193 99.7335 162.243 99.7548 162.309 99.7648C162.451 99.7861 162.606 99.7544 162.618 99.685C162.631 99.6159 162.496 99.5306 162.356 99.5051C162.345 99.5044 162.337 99.5037 162.327 99.5029L162.352 99.4522C162.449 99.2187 162.385 98.9608 162.187 98.8676C161.994 98.7762 161.732 98.9018 161.625 99.1583Z" fill="black"/>
<path d="M164.095 95.496L164.056 95.5432C164.051 95.5338 164.047 95.5266 164.042 95.5162C163.961 95.4007 163.825 95.3176 163.759 95.3651C163.692 95.4111 163.729 95.5748 163.812 95.6889C163.851 95.7425 163.894 95.7752 163.934 95.7918C163.57 95.8317 163.071 96.1598 162.784 96.5354C162.643 96.7282 162.578 96.8994 162.564 97.0459C162.558 97.1056 162.524 97.1624 162.471 97.1948C162.333 97.2844 162.219 97.4279 162.156 97.6089C162.066 97.8532 162.144 98.1273 162.316 98.2809C162.648 98.5687 163.124 98.4489 163.348 98.11C163.404 98.0226 163.434 97.9266 163.446 97.8305C163.456 97.7747 163.494 97.7272 163.548 97.7046C163.678 97.6499 163.804 97.5456 163.929 97.3732C164.184 97.0401 164.388 96.5469 164.39 96.195C164.412 96.2325 164.45 96.2702 164.507 96.3033C164.631 96.3742 164.785 96.3951 164.827 96.3361C164.867 96.2753 164.773 96.149 164.651 96.0756C164.641 96.0709 164.633 96.0677 164.624 96.063L164.668 96.0252C164.849 95.8403 164.872 95.5669 164.72 95.4151C164.567 95.2633 164.288 95.2996 164.095 95.496Z" fill="black"/>
<path d="M161.286 108.108L161.296 108.169C161.286 108.166 161.278 108.164 161.266 108.161C161.124 108.144 160.971 108.189 160.963 108.269C160.954 108.349 161.103 108.43 161.244 108.444C161.311 108.452 161.364 108.442 161.404 108.423C161.192 108.718 161.11 109.302 161.205 109.762C161.257 109.994 161.344 110.156 161.446 110.264C161.487 110.308 161.508 110.371 161.497 110.431C161.474 110.591 161.507 110.771 161.603 110.938C161.728 111.166 161.988 111.291 162.219 111.267C162.658 111.214 162.884 110.785 162.776 110.395C162.746 110.296 162.693 110.21 162.628 110.137C162.592 110.093 162.582 110.033 162.6 109.979C162.645 109.847 162.65 109.685 162.602 109.478C162.519 109.07 162.279 108.592 162.013 108.357C162.056 108.366 162.11 108.363 162.174 108.343C162.31 108.299 162.428 108.199 162.411 108.13C162.391 108.06 162.233 108.045 162.096 108.086C162.086 108.09 162.078 108.093 162.069 108.097L162.069 108.04C162.049 107.784 161.857 107.585 161.64 107.596C161.424 107.607 161.265 107.836 161.286 108.108Z" fill="black"/>
<path d="M167.559 92.7367L167.505 92.7698C167.504 92.7593 167.502 92.7514 167.5 92.7399C167.46 92.605 167.356 92.4852 167.276 92.5115C167.197 92.5395 167.18 92.7054 167.225 92.8392C167.246 92.9018 167.277 92.9457 167.31 92.9734C166.95 92.9068 166.36 93.0835 165.987 93.3749C165.793 93.517 165.683 93.6623 165.632 93.8015C165.61 93.858 165.562 93.9037 165.503 93.9206C165.343 93.9642 165.194 94.0656 165.085 94.221C164.935 94.4311 164.916 94.6999 165.034 94.9031C165.253 95.2765 165.76 95.315 166.076 95.0398C166.154 94.9679 166.217 94.8891 166.258 94.8002C166.282 94.7484 166.333 94.7121 166.39 94.7042C166.529 94.6829 166.681 94.616 166.854 94.4901C167.186 94.23 167.518 93.8274 167.623 93.4918C167.633 93.5339 167.658 93.581 167.702 93.6296C167.799 93.7335 167.939 93.8015 167.993 93.7559C168.047 93.712 167.998 93.5637 167.905 93.4562C167.897 93.4486 167.891 93.4432 167.883 93.4364L167.936 93.4141C168.161 93.2954 168.27 93.045 168.18 92.8554C168.087 92.6586 167.808 92.605 167.559 92.7367Z" fill="black"/>
<path d="M171.886 91.5803L171.825 91.5897C171.827 91.5792 171.83 91.5713 171.833 91.5602C171.854 91.4206 171.812 91.2691 171.731 91.2616C171.65 91.2536 171.563 91.3921 171.545 91.5314C171.536 91.5965 171.544 91.649 171.563 91.6889C171.269 91.472 170.672 91.3785 170.197 91.4713C169.957 91.5134 169.79 91.6076 169.678 91.7059C169.633 91.7472 169.569 91.7677 169.507 91.7573C169.342 91.7382 169.156 91.7717 168.985 91.8681C168.754 92.0066 168.629 92.257 168.661 92.484C168.729 92.9143 169.171 93.1255 169.556 93.0143C169.655 92.9844 169.74 92.9337 169.812 92.8682C169.856 92.8326 169.917 92.8225 169.971 92.8409C170.105 92.8873 170.263 92.8844 170.473 92.8484C170.882 92.7686 171.37 92.5437 171.616 92.2894C171.605 92.3311 171.607 92.3844 171.626 92.4473C171.668 92.5822 171.766 92.7071 171.837 92.688C171.908 92.6689 171.927 92.5128 171.889 92.3775C171.885 92.3674 171.882 92.3602 171.878 92.3509L171.936 92.3513C172.196 92.33 172.404 92.1599 172.398 91.944C172.392 91.7336 172.163 91.558 171.886 91.5803Z" fill="black"/>
<path d="M168.592 90.0341L168.535 90.0571C168.535 90.0463 168.535 90.0381 168.536 90.0266C168.524 89.8859 168.448 89.7481 168.367 89.7589C168.286 89.7693 168.234 89.924 168.249 90.0636C168.256 90.1291 168.276 90.1784 168.303 90.2129C167.967 90.0683 167.363 90.1118 166.923 90.3093C166.699 90.4043 166.558 90.5342 166.473 90.6547C166.438 90.7051 166.381 90.7396 166.318 90.7439C166.153 90.7623 165.98 90.8367 165.836 90.9691C165.643 91.1562 165.58 91.4282 165.664 91.6419C165.831 92.0451 166.31 92.1509 166.659 91.9556C166.748 91.9045 166.82 91.8358 166.875 91.7555C166.909 91.7113 166.966 91.6879 167.023 91.6933C167.164 91.7084 167.318 91.6696 167.513 91.5872C167.893 91.4174 168.315 91.0882 168.495 90.7853C168.495 90.8285 168.508 90.8795 168.542 90.9367C168.613 91.0587 168.739 91.1576 168.803 91.1231C168.868 91.0886 168.85 90.9324 168.781 90.8094C168.775 90.8004 168.77 90.7943 168.764 90.786L168.821 90.773C169.069 90.6939 169.232 90.4813 169.175 90.2723C169.12 90.069 168.857 89.9499 168.592 90.0341Z" fill="black"/>
<path d="M176.278 91.7399L176.218 91.7413C176.222 91.7313 176.225 91.7237 176.229 91.7129C176.267 91.5773 176.246 91.4219 176.172 91.4035C176.099 91.3855 176 91.5111 175.96 91.6464C175.942 91.7093 175.942 91.7626 175.953 91.8043C175.701 91.5514 175.175 91.347 174.725 91.3125C174.496 91.2952 174.322 91.3258 174.19 91.3895C174.137 91.4154 174.071 91.4165 174.017 91.3884C173.874 91.3136 173.698 91.2812 173.497 91.3179C173.242 91.374 173.04 91.5579 172.984 91.7827C172.877 92.2043 173.233 92.5709 173.637 92.5846C173.742 92.59 173.844 92.572 173.938 92.5368C173.994 92.5155 174.057 92.5238 174.106 92.5576C174.223 92.6389 174.387 92.6947 174.615 92.712C175.062 92.7461 175.625 92.6249 175.913 92.4058C175.895 92.4457 175.888 92.4983 175.898 92.5634C175.918 92.703 176.004 92.8404 176.083 92.831C176.162 92.822 176.202 92.6699 176.18 92.531C176.177 92.5202 176.175 92.5126 176.172 92.5026L176.232 92.5112C176.506 92.5267 176.737 92.3608 176.742 92.1479C176.747 91.9342 176.542 91.755 176.278 91.7399Z" fill="black"/>
<path d="M150.376 109.267C150.352 109.347 150.277 109.399 150.193 109.409C149.017 109.545 148.331 109.7 147.806 109.975C147.292 110.223 146.99 110.544 146.995 110.643C147 110.742 147.342 111.049 148.019 111.1C148.187 111.119 148.371 111.093 148.573 111.063C148.775 111.037 148.989 110.973 149.206 110.868C149.426 110.773 149.651 110.643 149.861 110.458C150.079 110.29 150.278 110.065 150.452 109.802C150.501 109.729 150.59 109.689 150.678 109.69C150.995 109.686 151.336 109.643 151.467 109.543C151.593 109.432 151.503 109.296 151.041 109.083C150.868 108.597 150.725 108.512 150.634 108.605C150.534 108.693 150.456 108.964 150.376 109.267Z" fill="black"/>
<path d="M152.95 105.373C152.987 105.449 152.976 105.54 152.924 105.604C152.134 106.492 151.78 107.105 151.579 107.642C151.387 108.163 151.398 108.609 151.469 108.678C151.541 108.748 152 108.732 152.526 108.305C153.049 107.899 153.574 106.967 153.384 105.725C153.367 105.638 153.396 105.548 153.462 105.492C153.967 105.074 154.326 104.525 153.333 104.803C152.433 104.298 152.696 104.826 152.95 105.373Z" fill="black"/>
<path d="M152.717 100.651C152.787 100.696 152.823 100.779 152.812 100.862C152.641 102.023 152.677 102.754 152.857 103.321C153.009 103.872 153.306 104.213 153.408 104.223C153.508 104.232 153.846 103.941 154.02 103.307C154.174 102.695 154.112 101.668 153.264 100.719C153.206 100.654 153.185 100.561 153.212 100.477C153.386 99.8649 153.409 99.1853 152.719 99.9696C151.708 100.033 152.182 100.337 152.717 100.651Z" fill="black"/>
<path d="M149.661 97.1304C149.743 97.115 149.834 97.1394 149.879 97.2139C150.545 98.182 150.996 98.7019 151.482 99.0339C151.701 99.2098 151.924 99.3196 152.103 99.3843C152.271 99.4563 152.401 99.4753 152.447 99.4502C152.49 99.426 152.542 99.307 152.56 99.1098C152.566 98.9202 152.528 98.6551 152.407 98.341C152.26 98.0471 152.039 97.6924 151.649 97.4046C151.276 97.106 150.741 96.8772 150.112 96.8067C150.027 96.7912 149.941 96.7502 149.901 96.671C149.606 96.0854 149.119 95.6198 149.187 96.6351C148.497 97.3931 149.064 97.2438 149.661 97.1304Z" fill="black"/>
<path d="M144.953 96.5919C145.005 96.5271 145.092 96.4919 145.174 96.5145C146.321 96.8293 147.051 96.8833 147.633 96.8167C148.202 96.7394 148.592 96.5519 148.626 96.4426C148.653 96.3627 148.434 95.9436 147.812 95.6867C147.213 95.4162 146.148 95.3471 145.083 96.0551C145.009 96.1041 144.915 96.1228 144.834 96.0886C144.225 95.8267 143.547 95.7813 144.265 96.5142C144.236 97.5305 144.57 97.056 144.953 96.5919Z" fill="black"/>
<path d="M141.119 99.2546C141.112 99.1729 141.156 99.0934 141.229 99.0513C142.26 98.4754 142.825 98.0706 143.209 97.6389C143.577 97.213 143.759 96.8302 143.71 96.723C143.69 96.6784 143.576 96.6194 143.381 96.591C143.186 96.5604 142.905 96.559 142.587 96.6723C141.956 96.8597 141.077 97.5343 140.837 98.7858C140.821 98.8729 140.76 98.9459 140.675 98.9769C140.07 99.2165 139.523 99.628 140.573 99.6726C141.254 100.416 141.191 99.8572 141.119 99.2546Z" fill="black"/>
<path d="M139.981 103.823C139.926 103.76 139.914 103.669 139.947 103.593C140.441 102.514 140.6 101.799 140.583 101.215C140.581 100.648 140.419 100.243 140.325 100.204C140.233 100.164 139.802 100.336 139.462 100.909C139.139 101.466 138.928 102.47 139.471 103.603C139.51 103.681 139.506 103.775 139.456 103.847C139.268 104.11 139.123 104.403 139.143 104.561C139.159 104.721 139.323 104.729 139.77 104.475C140.268 104.612 140.423 104.547 140.401 104.415C140.372 104.28 140.176 104.058 139.981 103.823Z" fill="black"/>
<path d="M141.614 108.222C141.531 108.205 141.465 108.141 141.445 108.062C141.199 106.925 140.959 106.256 140.636 105.766C140.314 105.293 139.969 105.032 139.855 105.053C139.77 105.067 139.488 105.445 139.525 106.103C139.54 106.74 139.927 107.742 141.07 108.35C141.151 108.389 141.205 108.467 141.211 108.554C141.224 108.879 141.307 109.199 141.426 109.314C141.543 109.433 141.672 109.335 141.857 108.858C142.328 108.655 142.403 108.506 142.306 108.42C142.203 108.334 141.91 108.291 141.614 108.222Z" fill="black"/>
<path d="M145.776 110.365C145.705 110.407 145.613 110.402 145.543 110.355C144.552 109.704 143.924 109.397 143.354 109.268C142.803 109.136 142.371 109.161 142.301 109.245C142.242 109.313 142.278 109.783 142.767 110.255C143.233 110.713 144.236 111.167 145.477 110.819C145.563 110.795 145.656 110.817 145.722 110.879C146.209 111.292 146.82 111.612 146.401 110.658C146.782 109.737 146.295 110.021 145.776 110.365Z" fill="black"/>
<path d="M150.377 113.796C150.334 113.865 150.253 113.902 150.173 113.891C149.603 113.82 149.13 113.764 148.745 113.824C148.349 113.835 148.029 113.921 147.767 114.038C147.242 114.239 146.948 114.551 146.95 114.658C146.953 114.751 147.272 115.063 147.886 115.176C148.19 115.216 148.569 115.207 148.994 115.106C149.408 114.957 149.883 114.756 150.318 114.337C150.38 114.278 150.467 114.257 150.548 114.284C150.841 114.382 151.156 114.459 151.298 114.408C151.439 114.35 151.402 114.191 151.047 113.837C151.036 113.326 150.935 113.196 150.818 113.256C150.696 113.311 150.535 113.539 150.377 113.796Z" fill="black"/>
<path d="M154.289 111.409C154.28 111.488 154.221 111.553 154.143 111.576C153.861 111.658 153.624 111.751 153.411 111.846C153.186 111.925 152.994 112.015 152.827 112.113C152.502 112.321 152.229 112.495 152.042 112.708C151.856 112.919 151.725 113.119 151.64 113.272C151.56 113.431 151.536 113.556 151.558 113.603C151.579 113.647 151.693 113.707 151.88 113.743C152.071 113.785 152.329 113.786 152.626 113.696C152.922 113.607 153.288 113.476 153.608 113.168C153.772 113.022 153.936 112.849 154.092 112.649C154.234 112.435 154.362 112.185 154.473 111.913C154.504 111.836 154.576 111.782 154.663 111.773C155.279 111.687 155.872 111.454 154.892 111.139C154.406 110.256 154.335 110.815 154.289 111.409Z" fill="black"/>
<path d="M156.705 107.548C156.735 107.624 156.716 107.709 156.659 107.766C156.22 108.151 155.936 108.504 155.712 108.82C155.476 109.129 155.374 109.443 155.28 109.701C155.105 110.219 155.18 110.656 155.262 110.72C155.339 110.781 155.767 110.727 156.254 110.327C156.5 110.131 156.704 109.817 156.889 109.425C157.061 109.027 157.142 108.511 157.105 107.929C157.095 107.845 157.131 107.763 157.201 107.718C157.719 107.381 158.186 106.94 157.147 107.054C156.344 106.458 156.487 106.989 156.705 107.548Z" fill="black"/>
<path d="M157.384 103.03C157.439 103.091 157.452 103.178 157.419 103.251C157.165 103.769 157.001 104.205 156.945 104.589C156.851 104.969 156.849 105.297 156.894 105.578C156.954 106.129 157.18 106.49 157.286 106.516C157.377 106.539 157.77 106.32 158.041 105.766C158.161 105.489 158.253 105.13 158.268 104.702C158.244 104.274 158.156 103.775 157.894 103.245C157.855 103.171 157.86 103.082 157.909 103.016C158.273 102.522 158.553 101.956 157.62 102.414C156.654 102.125 156.98 102.582 157.384 103.03Z" fill="black"/>
<path d="M156.427 98.5675C156.501 98.6046 156.545 98.6808 156.541 98.76C156.497 99.3295 156.5 99.7896 156.574 100.168C156.619 100.554 156.734 100.862 156.875 101.109C157.108 101.611 157.461 101.873 157.566 101.862C157.663 101.852 157.941 101.517 158.019 100.904C158.033 100.603 157.993 100.234 157.856 99.8259C157.689 99.4273 157.425 98.9845 156.982 98.5844C156.918 98.529 156.889 98.4445 156.91 98.3639C156.989 98.0693 157.037 97.7581 156.981 97.6199C156.915 97.4839 156.758 97.5307 156.419 97.9077C155.907 97.9527 155.782 98.061 155.847 98.1736C155.906 98.2923 156.156 98.4308 156.427 98.5675Z" fill="black"/>
<path d="M153.729 94.8968C153.81 94.9004 153.88 94.953 153.91 95.0281C154.338 96.0736 154.753 96.6596 155.204 97.01C155.654 97.3486 156.043 97.4795 156.146 97.4227C156.22 97.3831 156.384 96.9428 156.166 96.3675C156.049 96.0883 155.899 95.7322 155.563 95.4419C155.402 95.2915 155.214 95.1436 155 95.0062C154.783 94.8713 154.511 94.7724 154.229 94.6813C154.148 94.6562 154.087 94.5896 154.072 94.5054C153.95 93.8985 153.664 93.3438 153.416 94.3219C152.549 94.8645 153.13 94.8839 153.729 94.8968Z" fill="black"/>
<path d="M149.646 92.7986C149.721 92.7633 149.81 92.7752 149.871 92.8263C150.713 93.6185 151.374 93.9145 151.929 94.043C152.468 94.1768 152.911 94.0653 152.965 93.989C153.026 93.9012 152.937 93.4929 152.496 93.0443C152.063 92.6108 151.194 92.2097 150.003 92.3769C149.918 92.3935 149.833 92.3644 149.781 92.2992C149.4 91.8204 148.916 91.3981 149.111 92.4064C148.567 93.2411 149.095 93.0576 149.646 92.7986Z" fill="black"/>
<path d="M145.019 92.4975C145.076 92.4374 145.162 92.4166 145.239 92.4421C145.785 92.6536 146.237 92.7594 146.63 92.7983C147.022 92.858 147.355 92.831 147.635 92.7634C148.187 92.6727 148.538 92.4104 148.556 92.3075C148.573 92.2136 148.319 91.8582 147.737 91.624C147.446 91.5301 147.074 91.4704 146.639 91.4923C146.205 91.5359 145.703 91.6823 145.19 91.9766C145.117 92.0226 145.027 92.0266 144.955 91.9845C144.419 91.6776 143.81 91.4603 144.373 92.3266C144.184 93.2987 144.606 92.9371 145.019 92.4975Z" fill="black"/>
<path d="M140.66 93.9842C140.687 93.908 140.758 93.8562 140.839 93.8493C141.404 93.7824 141.881 93.75 142.242 93.6133C142.617 93.5083 142.917 93.3755 143.146 93.2061C143.615 92.9035 143.845 92.547 143.821 92.4409C143.802 92.3524 143.427 92.0995 142.799 92.1149C142.492 92.1401 142.115 92.2099 141.724 92.4117C141.348 92.6427 140.92 92.9312 140.596 93.4471C140.549 93.5169 140.467 93.5558 140.382 93.546C139.741 93.4597 139.135 93.5885 140.005 94.1004C140.283 95.0854 140.456 94.5213 140.66 93.9842Z" fill="black"/>
<path d="M137.424 97.2004C137.411 97.1195 137.443 97.0367 137.519 96.9993C138.04 96.7209 138.376 96.4277 138.679 96.1798C138.823 96.0496 138.939 95.9172 139.036 95.7844C139.138 95.6574 139.23 95.5409 139.299 95.42C139.441 95.1829 139.513 94.9494 139.549 94.7724C139.592 94.6023 139.587 94.4756 139.555 94.4357C139.524 94.3976 139.398 94.363 139.205 94.3688C139.018 94.3817 138.774 94.4494 138.496 94.5933C138.359 94.6674 138.207 94.7548 138.067 94.8775C137.932 95.0052 137.797 95.1567 137.668 95.3337C137.394 95.674 137.219 96.1744 137.118 96.7468C137.102 96.8259 137.054 96.9011 136.975 96.931C136.404 97.1583 135.858 97.5012 136.896 97.5969C137.561 98.3437 137.525 97.7948 137.424 97.2004Z" fill="black"/>
<path d="M135.894 101.495C135.85 101.425 135.853 101.337 135.899 101.271C136.233 100.804 136.477 100.408 136.604 100.043C136.767 99.6894 136.829 99.3689 136.838 99.0861C136.899 98.5421 136.737 98.1367 136.641 98.0917C136.554 98.0504 136.139 98.1928 135.749 98.6824C135.579 98.9339 135.42 99.2721 135.324 99.6923C135.267 100.12 135.257 100.63 135.429 101.197C135.455 101.277 135.434 101.363 135.374 101.421C134.929 101.847 134.553 102.361 135.553 102.062C136.453 102.504 136.213 102.003 135.894 101.495Z" fill="black"/>
<path d="M136.025 106.066C135.959 106.015 135.931 105.932 135.95 105.855C136.12 105.302 136.188 104.849 136.193 104.459C136.219 104.068 136.162 103.743 136.069 103.474C135.92 102.938 135.624 102.622 135.517 102.615C135.421 102.609 135.082 102.893 134.906 103.482C134.837 103.774 134.809 104.142 134.87 104.565C134.951 104.985 135.142 105.463 135.483 105.942C135.535 106.008 135.547 106.096 135.51 106.171C135.242 106.721 135.071 107.332 135.904 106.713C136.905 106.822 136.504 106.436 136.025 106.066Z" fill="black"/>
<path d="M137.852 110.239C137.772 110.218 137.715 110.152 137.702 110.073C137.649 109.787 137.602 109.538 137.56 109.314C137.509 109.086 137.444 108.887 137.367 108.711C137.239 108.347 137.076 108.065 136.888 107.851C136.55 107.411 136.166 107.214 136.062 107.245C135.972 107.272 135.75 107.657 135.807 108.271C135.854 108.571 135.957 108.932 136.183 109.303C136.309 109.482 136.461 109.665 136.643 109.844C136.817 110.027 137.041 110.195 137.31 110.338C137.384 110.38 137.429 110.457 137.425 110.541C137.382 111.173 137.543 111.764 138.01 110.877C138.99 110.543 138.414 110.404 137.852 110.239Z" fill="black"/>
<path d="M141.32 113.212C141.236 113.234 141.155 113.2 141.111 113.129C140.791 112.642 140.478 112.325 140.205 112.046C140.063 111.914 139.92 111.809 139.78 111.723C139.651 111.624 139.521 111.546 139.395 111.485C138.883 111.253 138.458 111.228 138.381 111.296C138.307 111.361 138.263 111.809 138.607 112.326C138.69 112.456 138.793 112.594 138.92 112.731C139.058 112.855 139.222 112.977 139.41 113.091C139.775 113.337 140.29 113.484 140.881 113.539C140.963 113.549 141.039 113.599 141.076 113.67C141.346 114.214 141.734 114.725 141.759 113.701C142.471 112.996 141.917 113.071 141.32 113.212Z" fill="black"/>
<path d="M145.783 114.386C145.716 114.434 145.627 114.439 145.557 114.4C145.056 114.11 144.635 113.906 144.257 113.808C143.887 113.676 143.558 113.64 143.271 113.654C142.718 113.63 142.316 113.822 142.278 113.918C142.242 114.008 142.417 114.4 142.942 114.751C143.21 114.899 143.567 115.028 144.001 115.089C144.44 115.115 144.96 115.081 145.52 114.866C145.599 114.834 145.689 114.847 145.752 114.902C146.222 115.301 146.777 115.626 146.387 114.672C146.755 113.752 146.271 114.029 145.783 114.386Z" fill="black"/>
<path d="M149.07 112.192C149.022 112.259 148.937 112.293 148.856 112.28C148.273 112.149 147.814 112.114 147.412 112.09C147.015 112.095 146.682 112.127 146.402 112.2C145.846 112.365 145.5 112.593 145.487 112.71C145.482 112.758 145.547 112.869 145.693 112.995C145.838 113.126 146.063 113.266 146.375 113.343C146.684 113.431 147.078 113.483 147.531 113.391C147.983 113.328 148.49 113.101 148.975 112.733C149.042 112.676 149.134 112.658 149.215 112.689C149.821 112.928 150.472 112.97 149.751 112.25C149.752 111.233 149.424 111.716 149.07 112.192Z" fill="black"/>
<path d="M153.024 109.709C153.02 109.791 152.963 109.86 152.885 109.889C151.799 110.326 151.185 110.703 150.795 111.131C150.402 111.53 150.251 111.947 150.288 112.033C150.331 112.13 150.749 112.282 151.386 112.116C151.701 112.034 152.05 111.839 152.398 111.543C152.561 111.381 152.723 111.192 152.874 110.976C153.023 110.759 153.134 110.486 153.236 110.204C153.264 110.123 153.337 110.064 153.422 110.046C154.03 109.896 154.639 109.615 153.616 109.383C153.075 108.543 153.023 109.094 153.024 109.709Z" fill="black"/>
<path d="M155.1 105.522C155.137 105.597 155.13 105.687 155.077 105.75C154.674 106.196 154.437 106.592 154.234 106.937C154.061 107.293 153.94 107.6 153.886 107.88C153.787 108.441 153.848 108.849 153.947 108.913C154.016 108.96 154.493 108.888 154.917 108.409C155.359 107.955 155.749 107.06 155.539 105.863C155.522 105.78 155.547 105.691 155.612 105.636C156.087 105.23 156.502 104.724 155.482 104.963C154.616 104.448 154.819 104.976 155.1 105.522Z" fill="black"/>
<path d="M155.157 100.847C155.222 100.898 155.26 100.981 155.232 101.062C155.147 101.347 155.09 101.602 155.058 101.836C155.02 102.069 154.979 102.285 154.974 102.482C154.973 102.875 154.977 103.209 155.058 103.487C155.203 104.041 155.448 104.384 155.563 104.398C155.649 104.409 156.036 104.142 156.22 103.538C156.41 102.95 156.422 101.972 155.699 100.971C155.655 100.9 155.633 100.811 155.669 100.733C155.921 100.16 156.055 99.5162 155.254 100.181C154.245 100.105 154.666 100.476 155.157 100.847Z" fill="black"/>
<path d="M152.915 96.7859C152.997 96.796 153.065 96.8543 153.091 96.932C153.431 98.0382 153.803 98.6466 154.185 99.0776C154.585 99.4837 154.958 99.6791 155.064 99.6409C155.148 99.6114 155.373 99.1966 155.229 98.5721C155.124 97.9515 154.593 97.082 153.436 96.6104C153.355 96.5783 153.297 96.506 153.286 96.42C153.199 95.7883 152.919 95.2055 152.63 96.179C151.729 96.6701 152.315 96.7197 152.915 96.7859Z" fill="black"/>
<path d="M148.787 94.561C148.864 94.5225 148.955 94.5329 149.017 94.5923C149.914 95.3485 150.556 95.6956 151.13 95.8216C151.676 95.9673 152.113 95.9047 152.18 95.8183C152.236 95.7464 152.174 95.3021 151.72 94.8362C151.268 94.4002 150.374 93.9314 149.14 94.1401C149.055 94.1487 148.967 94.1213 148.911 94.0587C148.501 93.5896 147.982 93.1791 148.223 94.1832C147.697 95.033 148.23 94.8347 148.787 94.561Z" fill="black"/>
<path d="M144.066 94.6125C144.114 94.5445 144.198 94.5107 144.279 94.5236C144.863 94.6542 145.321 94.6916 145.722 94.7146C146.118 94.7071 146.451 94.6848 146.731 94.6071C147.286 94.452 147.634 94.216 147.648 94.1016C147.66 94.0185 147.387 93.6321 146.763 93.4638C146.159 93.2749 145.143 93.3127 144.16 94.0707C144.093 94.1279 144.002 94.1459 143.92 94.116C143.314 93.8789 142.662 93.8361 143.385 94.5542C143.386 95.5709 143.713 95.0909 144.066 94.6125Z" fill="black"/>
<path d="M140.119 97.1052C140.122 97.0235 140.179 96.9548 140.258 96.9246C141.342 96.4864 141.955 96.1061 142.344 95.6777C142.543 95.4805 142.675 95.2747 142.756 95.1053C142.839 94.9423 142.871 94.8232 142.848 94.775C142.805 94.6783 142.386 94.5243 141.75 94.6945C141.434 94.7761 141.087 94.9736 140.739 95.2701C140.577 95.4323 140.416 95.6219 140.266 95.8381C140.116 96.0551 140.007 96.3288 139.905 96.6105C139.878 96.6915 139.805 96.7512 139.72 96.7688C139.112 96.921 138.504 97.2016 139.527 97.4329C140.07 98.2719 140.12 97.72 140.119 97.1052Z" fill="black"/>
<path d="M138.046 101.295C138.009 101.22 138.016 101.13 138.069 101.066C138.471 100.621 138.708 100.225 138.911 99.8794C139.084 99.5229 139.205 99.2164 139.259 98.9357C139.358 98.3745 139.296 97.9669 139.197 97.9029C139.128 97.8558 138.651 97.9284 138.228 98.4073C137.786 98.8624 137.397 99.7574 137.607 100.954C137.624 101.037 137.599 101.126 137.534 101.18C137.058 101.587 136.644 102.093 137.664 101.853C138.53 102.368 138.327 101.84 138.046 101.295Z" fill="black"/>
<path d="M137.988 105.971C137.922 105.919 137.884 105.836 137.913 105.755C137.998 105.47 138.055 105.215 138.087 104.982C138.126 104.748 138.167 104.532 138.172 104.335C138.173 103.942 138.169 103.608 138.088 103.33C137.943 102.776 137.698 102.433 137.583 102.419C137.497 102.408 137.11 102.675 136.926 103.279C136.736 103.867 136.724 104.844 137.446 105.846C137.49 105.917 137.511 106.006 137.475 106.084C137.223 106.657 137.087 107.3 137.89 106.636C138.899 106.714 138.478 106.342 137.988 105.971Z" fill="black"/>
<path d="M140.22 110.037C140.138 110.027 140.07 109.969 140.044 109.89C139.707 108.784 139.338 108.174 138.956 107.742C138.557 107.334 138.185 107.139 138.078 107.176C137.994 107.206 137.769 107.62 137.911 108.245C138.014 108.865 138.543 109.736 139.698 110.211C139.779 110.243 139.837 110.316 139.848 110.402C139.935 111.033 140.211 111.619 140.504 110.645C141.404 110.157 140.821 110.103 140.22 110.037Z" fill="black"/>
<path d="M144.346 112.257C144.27 112.293 144.177 112.288 144.115 112.231C143.219 111.469 142.573 111.136 142.003 111.004C141.456 110.861 141.021 110.919 140.954 111.006C140.898 111.077 140.957 111.525 141.412 111.989C141.861 112.431 142.764 112.887 143.995 112.684C144.079 112.673 144.17 112.694 144.225 112.76C144.637 113.23 145.159 113.641 144.911 112.635C145.429 111.785 144.901 111.983 144.346 112.257Z" fill="black"/>
<path d="M117.348 93.653C117.582 92.4222 116.37 91.0991 115.027 91.6981C114.984 91.7103 114.929 91.7614 114.982 91.802C116.011 92.4183 116.466 93.8487 116.011 95.0449C116.003 95.078 116.014 95.0934 116.032 95.1006C116.039 95.1186 116.053 95.1308 116.081 95.1222C117.158 94.6175 118.448 95.1204 119.003 96.2637C119.043 96.3238 119.084 96.2598 119.097 96.2137C119.632 94.725 118.456 93.3943 117.348 93.653Z" fill="black"/>
<path d="M122.568 86.6588C122.801 85.4281 121.59 84.1049 120.246 84.7039C120.203 84.7158 120.149 84.7672 120.201 84.8079C121.231 85.4241 121.686 86.8545 121.231 88.0507C121.223 88.0838 121.234 88.0993 121.252 88.1065C121.259 88.1245 121.273 88.1367 121.3 88.1281C122.378 87.6233 123.667 88.1263 124.223 89.2696C124.263 89.3297 124.304 89.2656 124.317 89.2196C124.852 87.7309 123.675 86.4002 122.568 86.6588Z" fill="black"/>
<path d="M132.786 85.1037C133.019 83.8729 131.808 82.5497 130.464 83.1487C130.422 83.1606 130.367 83.2121 130.419 83.2527C131.449 83.869 131.904 85.2994 131.449 86.4955C131.441 86.5286 131.452 86.5441 131.47 86.5513C131.477 86.5693 131.491 86.5815 131.518 86.5729C132.596 86.0682 133.885 86.5711 134.441 87.7144C134.481 87.7745 134.522 87.7104 134.535 87.6644C135.07 86.1757 133.893 84.845 132.786 85.1037Z" fill="black"/>
<path d="M112.525 99.195C112.759 97.9642 111.547 96.6411 110.204 97.24C110.161 97.2523 110.106 97.3034 110.159 97.344C111.188 97.9603 111.643 99.3907 111.188 100.587C111.18 100.62 111.191 100.635 111.209 100.643C111.216 100.661 111.23 100.673 111.258 100.664C112.335 100.159 113.625 100.662 114.18 101.806C114.22 101.866 114.261 101.802 114.274 101.756C114.809 100.267 113.633 98.9363 112.525 99.195Z" fill="black"/>
<path d="M107.388 108.284C107.622 107.054 106.41 105.73 105.067 106.329C105.024 106.341 104.969 106.393 105.022 106.433C106.051 107.05 106.506 108.48 106.051 109.676C106.043 109.709 106.054 109.725 106.072 109.732C106.079 109.75 106.093 109.762 106.121 109.754C107.198 109.249 108.488 109.752 109.043 110.895C109.083 110.955 109.124 110.891 109.137 110.845C109.672 109.356 108.496 108.026 107.388 108.284Z" fill="black"/>
<path d="M123.931 119.507C124.164 118.277 122.953 116.954 121.609 117.553C121.567 117.565 121.512 117.616 121.564 117.657C122.594 118.273 123.049 119.703 122.594 120.899C122.586 120.932 122.597 120.948 122.615 120.955C122.622 120.973 122.636 120.985 122.663 120.977C123.741 120.472 125.03 120.975 125.586 122.118C125.626 122.178 125.667 122.114 125.68 122.068C126.215 120.58 125.038 119.249 123.931 119.507Z" fill="black"/>
<path d="M121.619 93.653C121.852 92.4222 120.64 91.0991 119.297 91.6981C119.254 91.7103 119.199 91.7614 119.252 91.802C120.281 92.4183 120.736 93.8487 120.281 95.0449C120.273 95.078 120.285 95.0934 120.302 95.1006C120.31 95.1186 120.323 95.1308 120.351 95.1222C121.429 94.6175 122.718 95.1204 123.273 96.2637C123.313 96.3238 123.354 96.2598 123.367 96.2137C123.902 94.725 122.726 93.3943 121.619 93.653Z" fill="black"/>
<path d="M125.889 93.653C126.122 92.4222 124.911 91.0991 123.567 91.6981C123.524 91.7103 123.47 91.7614 123.522 91.802C124.552 92.4183 125.007 93.8487 124.551 95.0449C124.544 95.078 124.555 95.0934 124.573 95.1006C124.58 95.1186 124.594 95.1308 124.621 95.1222C125.699 94.6175 126.988 95.1204 127.544 96.2637C127.584 96.3238 127.625 96.2598 127.638 96.2137C128.173 94.725 126.996 93.3943 125.889 93.653Z" fill="black"/>
<path d="M130.159 93.653C130.393 92.4222 129.181 91.0991 127.837 91.6981C127.794 91.7103 127.74 91.7614 127.792 91.802C128.822 92.4183 129.277 93.8487 128.822 95.0449C128.814 95.078 128.825 95.0934 128.843 95.1006C128.85 95.1186 128.864 95.1308 128.891 95.1222C129.969 94.6175 131.259 95.1204 131.814 96.2637C131.854 96.3238 131.895 96.2598 131.908 96.2137C132.443 94.725 131.267 93.3943 130.159 93.653Z" fill="black"/>
<path d="M117.263 112.957C117.506 111.726 116.246 110.403 114.85 111.002C114.806 111.014 114.749 111.065 114.803 111.106C115.873 111.722 116.346 113.152 115.873 114.349C115.865 114.382 115.877 114.397 115.895 114.404C115.903 114.423 115.917 114.435 115.945 114.426C117.066 113.921 118.406 114.424 118.983 115.567C119.024 115.628 119.067 115.563 119.081 115.517C119.636 114.029 118.414 112.698 117.263 112.957Z" fill="black"/>
<path d="M121.701 112.957C121.944 111.726 120.685 110.403 119.288 111.002C119.244 111.014 119.187 111.065 119.241 111.106C120.311 111.722 120.784 113.152 120.311 114.349C120.303 114.382 120.315 114.397 120.333 114.404C120.341 114.423 120.355 114.435 120.384 114.426C121.504 113.921 122.844 114.424 123.421 115.567C123.463 115.628 123.505 115.563 123.519 115.517C124.075 114.029 122.852 112.698 121.701 112.957Z" fill="black"/>
<path d="M126.139 112.957C126.382 111.726 125.122 110.403 123.726 111.002C123.682 111.014 123.625 111.065 123.679 111.106C124.749 111.722 125.222 113.152 124.749 114.349C124.741 114.382 124.753 114.397 124.771 114.404C124.779 114.423 124.794 114.435 124.821 114.426C125.942 113.921 127.282 114.424 127.859 115.567C127.9 115.628 127.943 115.563 127.956 115.517C128.512 114.029 127.29 112.698 126.139 112.957Z" fill="black"/>
<path d="M130.577 112.957C130.82 111.726 129.561 110.403 128.164 111.002C128.12 111.014 128.063 111.065 128.117 111.106C129.187 111.722 129.66 113.152 129.187 114.349C129.179 114.382 129.191 114.397 129.209 114.404C129.217 114.423 129.232 114.435 129.26 114.426C130.38 113.921 131.72 114.424 132.297 115.567C132.339 115.628 132.381 115.563 132.395 115.517C132.951 114.029 131.728 112.698 130.577 112.957Z" fill="black"/>
<path d="M118.741 108.303C119.042 107.148 117.822 105.947 116.377 106.543C116.331 106.555 116.271 106.605 116.325 106.641C117.384 107.188 117.801 108.51 117.267 109.639C117.257 109.67 117.269 109.684 117.287 109.691C117.294 109.707 117.308 109.718 117.337 109.709C118.498 109.209 119.836 109.642 120.372 110.694C120.411 110.749 120.457 110.688 120.473 110.644C121.104 109.24 119.922 108.031 118.741 108.303Z" fill="black"/>
<path d="M121.342 105.852C121.643 104.697 120.423 103.495 118.978 104.092C118.932 104.104 118.872 104.153 118.926 104.19C119.985 104.737 120.402 106.059 119.868 107.188C119.858 107.219 119.87 107.233 119.888 107.239C119.895 107.256 119.909 107.267 119.938 107.258C121.098 106.757 122.437 107.191 122.972 108.242C123.012 108.297 123.058 108.237 123.074 108.193C123.705 106.789 122.523 105.58 121.342 105.852Z" fill="black"/>
<path d="M123.943 103.401C124.244 102.246 123.024 101.045 121.578 101.641C121.533 101.653 121.473 101.703 121.527 101.739C122.586 102.286 123.002 103.608 122.469 104.737C122.459 104.768 122.47 104.783 122.489 104.788C122.495 104.805 122.51 104.816 122.538 104.807C123.699 104.307 125.038 104.741 125.573 105.792C125.612 105.847 125.658 105.786 125.674 105.742C126.306 104.338 125.124 103.129 123.943 103.401Z" fill="black"/>
<path d="M126.543 100.951C126.845 99.7953 125.624 98.5941 124.179 99.1902C124.134 99.2028 124.074 99.2521 124.127 99.2888C125.187 99.8353 125.603 101.157 125.069 102.287C125.06 102.318 125.071 102.332 125.09 102.338C125.096 102.355 125.11 102.366 125.139 102.357C126.299 101.856 127.638 102.29 128.174 103.341C128.213 103.396 128.259 103.335 128.275 103.292C128.907 101.888 127.724 100.679 126.543 100.951Z" fill="black"/>
<path d="M129.144 98.4997C129.445 97.3448 128.225 96.1436 126.78 96.7394C126.734 96.752 126.674 96.8013 126.728 96.8379C127.787 97.3848 128.204 98.7065 127.67 99.8358C127.66 99.8667 127.672 99.8811 127.69 99.8872C127.697 99.9038 127.711 99.9149 127.74 99.9059C128.9 99.4052 130.239 99.839 130.774 100.89C130.814 100.945 130.86 100.884 130.876 100.841C131.507 99.4368 130.325 98.2277 129.144 98.4997Z" fill="black"/>
<path d="M107.422 119.214H116.01C119.914 119.214 122.581 121.805 122.581 125.068C122.581 127.18 121.443 128.971 119.783 129.803V129.994C121.735 130.986 123.004 133.13 123.004 135.401C123.004 138.92 119.979 141.607 115.945 141.607H107.422V119.214ZM115.75 128.747C117.799 128.747 119.296 127.339 119.296 125.388C119.296 123.437 117.799 122.061 115.75 122.061H110.642V128.747H115.75ZM116.042 138.759C118.027 138.759 119.719 137.128 119.719 135.177C119.719 133.225 118.027 131.562 116.042 131.562H110.642V138.759H116.042Z" fill="black"/>
<path d="M127.784 119.214H136.373C140.277 119.214 143.107 121.997 143.107 125.708C143.107 128.683 141.318 130.922 138.39 131.786L143.921 141.607H140.31L135.137 132.362H131.005V141.607H127.784V119.214ZM136.048 129.515C138.162 129.515 139.821 127.851 139.821 125.772C139.821 123.724 138.162 122.061 136.048 122.061H131.005V129.515H136.048Z" fill="black"/>
<path d="M148.505 119.214H151.791L163.242 136.104H163.437V119.214H166.561V141.607H163.275L151.791 124.716H151.596V141.607H148.505V119.214Z" fill="black"/>
<path d="M171.73 130.41C171.73 123.693 176.61 118.862 183.344 118.862C190.078 118.862 194.959 123.693 194.959 130.41C194.959 137.128 190.078 141.959 183.344 141.959C176.61 141.959 171.73 137.128 171.73 130.41ZM183.344 139.047C188.224 139.047 191.673 135.497 191.673 130.41C191.673 125.324 188.224 121.773 183.344 121.773C178.432 121.773 175.017 125.324 175.017 130.41C175.017 135.497 178.432 139.047 183.344 139.047Z" fill="black"/>
<path d="M150.834 101.769C150.904 101.818 150.945 101.903 150.922 101.989C150.674 103.159 150.586 103.884 150.648 104.47C150.675 104.757 150.73 104.997 150.785 105.174C150.848 105.354 150.916 105.468 150.963 105.486C151.011 105.504 151.138 105.464 151.294 105.338C151.458 105.215 151.645 105.001 151.791 104.683C151.937 104.366 152.028 103.944 151.996 103.453C151.945 102.966 151.792 102.396 151.384 101.875C151.334 101.801 151.309 101.706 151.337 101.62C151.448 101.307 151.49 100.962 151.422 100.802C151.356 100.636 151.201 100.682 150.85 101.069C150.337 101.079 150.213 101.195 150.268 101.312C150.328 101.431 150.582 101.583 150.834 101.769Z" fill="black"/>
<path d="M143.006 100.362C142.998 100.275 143.054 100.199 143.132 100.163C143.682 99.9041 144.101 99.73 144.459 99.5785C144.81 99.4217 145.093 99.272 145.335 99.1205C145.576 98.9702 145.77 98.8187 145.908 98.6917C146.045 98.5561 146.121 98.451 146.117 98.4003C146.112 98.3514 146.021 98.251 145.837 98.1697C145.653 98.0798 145.374 98.0042 145.011 98.0222C144.652 98.0398 144.206 98.1585 143.777 98.4579C143.345 98.7446 142.949 99.24 142.762 99.8681C142.735 99.9559 142.662 100.026 142.58 100.059C142.425 100.116 142.266 100.186 142.134 100.262C142.012 100.342 141.915 100.427 141.871 100.502C141.78 100.657 141.913 100.747 142.438 100.778C142.764 101.169 142.935 101.193 142.992 101.078C143.022 101.018 143.027 100.917 143.02 100.789C143.022 100.667 143.015 100.519 143.006 100.362Z" fill="black"/>
<path d="M145.773 108.113C145.698 108.152 145.6 108.155 145.533 108.096C145.044 107.739 144.702 107.432 144.396 107.199C144.088 106.972 143.834 106.781 143.58 106.649C143.1 106.364 142.674 106.231 142.576 106.289C142.501 106.33 142.375 106.798 142.733 107.432C142.922 107.731 143.224 108.08 143.698 108.31C144.16 108.545 144.777 108.683 145.434 108.554C145.524 108.544 145.623 108.559 145.689 108.623C145.93 108.86 146.228 109.041 146.404 109.053C146.584 109.066 146.608 108.908 146.406 108.43C146.619 107.972 146.567 107.81 146.435 107.809C146.298 107.808 146.049 107.972 145.773 108.113Z" fill="black"/>
<path d="M150.612 116.046C150.563 116.119 150.473 116.143 150.389 116.128C149.193 115.923 148.403 116.006 147.835 116.239C147.272 116.423 146.961 116.75 146.963 116.852C146.966 116.95 147.299 117.247 147.94 117.378C148.567 117.464 149.541 117.367 150.516 116.579C150.584 116.524 150.68 116.516 150.761 116.541C151.361 116.736 152.018 116.83 151.304 116.082C151.346 115.076 150.966 115.524 150.612 116.046Z" fill="black"/>
<path d="M159.418 105.441C159.461 105.513 159.457 105.605 159.411 105.676C159.104 106.184 158.848 106.611 158.719 107.002C158.601 107.397 158.516 107.731 158.504 108.027C158.491 108.321 158.534 108.571 158.591 108.753C158.635 108.93 158.7 109.042 158.749 109.061C158.794 109.079 158.924 109.045 159.092 108.941C159.247 108.832 159.434 108.65 159.61 108.381C159.784 108.113 159.963 107.761 160.009 107.31C160.066 106.863 160.083 106.336 159.882 105.742C159.857 105.659 159.878 105.567 159.939 105.505C160.161 105.279 160.374 105.028 160.393 104.875C160.405 104.721 160.245 104.677 159.761 104.836C159.295 104.601 159.132 104.63 159.131 104.771C159.124 104.912 159.258 105.174 159.418 105.441Z" fill="black"/>
<path d="M154.3 92.5441C154.385 92.5419 154.464 92.5898 154.504 92.6642C154.644 92.933 154.801 93.142 154.931 93.3557C155.061 93.5679 155.195 93.7471 155.332 93.9C155.617 94.1932 155.86 94.4386 156.114 94.5958C156.626 94.9037 157.05 94.9865 157.136 94.9246C157.214 94.8685 157.297 94.4098 156.99 93.8442C156.841 93.5608 156.628 93.2233 156.249 92.956C156.066 92.8168 155.856 92.6819 155.619 92.5592C155.384 92.4351 155.091 92.361 154.789 92.289C154.703 92.2703 154.632 92.207 154.606 92.1235C154.558 91.971 154.504 91.8177 154.444 91.6925C154.377 91.5756 154.308 91.4839 154.242 91.4414C154.107 91.3558 153.995 91.4752 153.913 91.9731C153.488 92.2685 153.439 92.4254 153.563 92.4916C153.625 92.5254 153.733 92.5376 153.867 92.5383C153.995 92.5473 154.145 92.5484 154.3 92.5441Z" fill="black"/>
<path d="M144.933 90.2908C144.995 90.2325 145.085 90.2033 145.167 90.2386C145.742 90.4717 146.221 90.5573 146.639 90.6037C147.056 90.6645 147.411 90.6386 147.707 90.5717C148.295 90.4573 148.655 90.2174 148.671 90.1076C148.685 90.0199 148.411 89.6407 147.797 89.4317C147.492 89.3374 147.103 89.277 146.648 89.2982C146.193 89.3338 145.67 89.4997 145.124 89.7727C145.047 89.8087 144.953 89.8209 144.877 89.777C144.323 89.4723 143.698 89.2565 144.258 90.1242C144.025 91.1031 144.486 90.7351 144.933 90.2908Z" fill="black"/>
<path d="M134.231 99.0033C134.202 98.9252 134.223 98.8356 134.281 98.7738C134.491 98.5543 134.66 98.3449 134.801 98.1449C134.963 97.9531 135.092 97.7682 135.195 97.5898C135.297 97.4114 135.373 97.2387 135.431 97.0735C135.504 96.9167 135.555 96.766 135.59 96.6231C135.725 96.0529 135.622 95.6133 135.544 95.5622C135.453 95.5036 135.019 95.6075 134.569 96.0749C134.456 96.1907 134.342 96.3281 134.233 96.4882C134.139 96.6562 134.053 96.8476 133.98 97.062C133.907 97.2764 133.847 97.5142 133.807 97.7725C133.789 98.0384 133.795 98.3266 133.828 98.6316C133.838 98.7176 133.8 98.804 133.728 98.8547C133.186 99.227 132.802 99.7235 133.806 99.5476C134.659 100.147 134.433 99.5681 134.231 99.0033Z" fill="black"/>
<path d="M136.999 112.681C136.916 112.666 136.849 112.602 136.825 112.521C136.745 112.23 136.638 111.991 136.554 111.758C136.471 111.523 136.377 111.32 136.276 111.142C136.059 110.795 135.865 110.51 135.652 110.302C135.217 109.896 134.806 109.738 134.715 109.779C134.622 109.822 134.46 110.25 134.64 110.865C134.724 111.174 134.868 111.542 135.181 111.881C135.33 112.054 135.507 112.229 135.712 112.397C135.919 112.563 136.187 112.698 136.467 112.83C136.548 112.866 136.604 112.942 136.611 113.029C136.631 113.354 136.708 113.663 136.824 113.77C136.937 113.882 137.072 113.788 137.258 113.318C137.736 113.116 137.817 112.972 137.71 112.882C137.599 112.794 137.296 112.744 136.999 112.681Z" fill="black"/>
<path d="M157.814 111.504C157.816 111.588 157.768 111.665 157.693 111.703C157.181 111.99 156.742 112.225 156.441 112.501C156.286 112.634 156.162 112.776 156.051 112.908C155.932 113.033 155.836 113.158 155.757 113.28C155.446 113.77 155.412 114.219 155.478 114.299C155.539 114.374 155.977 114.407 156.548 114.119C156.69 114.048 156.84 113.956 156.992 113.842C157.137 113.721 157.274 113.567 157.411 113.392C157.675 113.035 157.955 112.599 158.069 111.99C158.088 111.906 158.151 111.838 158.234 111.815C158.845 111.643 159.437 111.365 158.408 111.155C157.851 110.325 157.797 110.895 157.814 111.504Z" fill="black"/>
<path d="M157.479 92.6652C157.561 92.6857 157.617 92.7573 157.631 92.8401C157.715 93.4369 157.898 93.8657 158.05 94.2442C158.204 94.6198 158.403 94.8993 158.61 95.1116C158.994 95.5465 159.388 95.7253 159.491 95.6847C159.577 95.6516 159.771 95.2361 159.658 94.6155C159.587 94.3133 159.445 93.9582 159.198 93.5887C158.954 93.2185 158.528 92.8782 158.015 92.5645C157.941 92.5217 157.898 92.439 157.898 92.354C157.879 91.7421 157.746 91.1168 157.277 92.0256C156.303 92.3415 156.861 92.5285 157.479 92.6652Z" fill="black"/>
<path d="M138.142 90.4471C138.17 90.3701 138.244 90.3165 138.329 90.3079C138.929 90.2457 139.383 90.1097 139.782 89.9928C140.173 89.8643 140.46 89.6647 140.697 89.4934C141.171 89.161 141.368 88.7617 141.336 88.6638C141.305 88.5717 140.905 88.3792 140.262 88.4325C139.944 88.4638 139.584 88.6019 139.194 88.8221C138.798 89.0286 138.418 89.4103 138.076 89.9115C138.028 89.982 137.943 90.0223 137.855 90.014C137.208 89.9528 136.594 90.0816 137.471 90.5885C137.736 91.5822 137.935 91.0058 138.142 90.4471Z" fill="black"/>
<path d="M132.431 107.207C132.366 107.154 132.337 107.068 132.355 106.987C132.467 106.418 132.567 105.933 132.545 105.525C132.528 105.118 132.444 104.781 132.362 104.503C132.176 103.95 131.845 103.647 131.741 103.648C131.642 103.65 131.339 103.968 131.202 104.579C131.122 104.885 131.124 105.261 131.228 105.688C131.336 106.115 131.493 106.602 131.89 107.083C131.942 107.151 131.954 107.242 131.919 107.319C131.655 107.887 131.486 108.508 132.317 107.878C133.322 108.003 132.914 107.591 132.431 107.207Z" fill="black"/>
<path d="M145.732 118.669C145.663 118.718 145.571 118.722 145.496 118.683C144.965 118.424 144.515 118.223 144.114 118.124C143.712 118.026 143.359 118.028 143.068 118.025C142.482 118.049 142.092 118.277 142.063 118.375C142.036 118.469 142.261 118.843 142.825 119.144C143.104 119.308 143.477 119.394 143.925 119.416C144.372 119.439 144.894 119.396 145.469 119.15C145.55 119.118 145.642 119.131 145.709 119.185C146.197 119.586 146.762 119.911 146.361 118.956C146.746 118.037 146.234 118.314 145.732 118.669Z" fill="black"/>
</g>
</svg>
