<svg width="300" height="500" viewBox="0 0 300 500" fill="none" xmlns="http://www.w3.org/2000/svg">
<rect width="300" height="500" fill="#ffffff"/>
<g opacity="0.25">
<path d="M167.819 177.108L167.758 177.131C167.759 177.12 167.76 177.111 167.761 177.1C167.756 176.958 167.683 176.818 167.593 176.83C167.504 176.841 167.442 176.997 167.459 177.136C167.466 177.201 167.488 177.25 167.516 177.284C167.342 177.217 167.105 177.217 166.843 177.251C166.599 177.306 166.334 177.402 166.133 177.535C165.935 177.674 165.814 177.815 165.753 177.948C165.727 178.001 165.678 178.046 165.622 178.064C165.467 178.108 165.316 178.208 165.205 178.36C165.047 178.563 165.05 178.842 165.167 179.038C165.399 179.411 165.885 179.433 166.188 179.19C166.264 179.126 166.32 179.047 166.357 178.96C166.378 178.907 166.426 178.874 166.483 178.873C166.619 178.867 166.764 178.817 166.925 178.702C167.085 178.597 167.246 178.466 167.382 178.307C167.524 178.173 167.644 178.002 167.719 177.853C167.72 177.895 167.736 177.946 167.769 178.003C167.841 178.126 167.952 178.231 168.004 178.202C168.056 178.172 168.041 178.016 167.98 177.89C167.974 177.881 167.97 177.874 167.965 177.866C167.982 177.863 167.998 177.861 168.016 177.856C168.234 177.795 168.402 177.613 168.38 177.395C168.362 177.188 168.103 177.032 167.819 177.108Z" fill="black"/>
<path d="M162.736 182.532L162.702 182.586C162.696 182.577 162.691 182.57 162.685 182.56C162.593 182.45 162.45 182.382 162.385 182.444C162.321 182.507 162.368 182.668 162.466 182.768C162.512 182.816 162.559 182.842 162.603 182.853C162.423 182.902 162.234 183.043 162.047 183.226C161.886 183.414 161.733 183.648 161.654 183.874C161.582 184.103 161.572 184.287 161.606 184.429C161.618 184.487 161.606 184.551 161.572 184.599C161.476 184.726 161.417 184.895 161.422 185.083C161.421 185.339 161.594 185.559 161.809 185.645C162.222 185.805 162.623 185.534 162.715 185.16C162.736 185.064 162.732 184.968 162.708 184.877C162.692 184.822 162.711 184.767 162.756 184.733C162.86 184.647 162.945 184.521 163.002 184.334C163.066 184.154 163.114 183.955 163.124 183.747C163.155 183.556 163.146 183.349 163.114 183.186C163.141 183.218 163.184 183.249 163.246 183.275C163.379 183.33 163.532 183.348 163.555 183.294C163.579 183.24 163.47 183.124 163.345 183.06C163.335 183.056 163.327 183.053 163.318 183.05C163.33 183.037 163.342 183.026 163.352 183.012C163.489 182.834 163.511 182.589 163.36 182.427C163.218 182.273 162.915 182.303 162.736 182.532Z" fill="black"/>
<path d="M160.496 182.798L160.451 182.844C160.447 182.834 160.444 182.826 160.44 182.815C160.374 182.689 160.247 182.593 160.171 182.642C160.095 182.69 160.108 182.857 160.183 182.975C160.217 183.031 160.259 183.066 160.299 183.085C160.113 183.097 159.899 183.197 159.677 183.339C159.481 183.491 159.283 183.69 159.158 183.894C159.04 184.104 158.993 184.282 158.996 184.428C158.995 184.487 158.971 184.548 158.928 184.588C158.807 184.693 158.715 184.847 158.68 185.031C158.626 185.282 158.75 185.532 158.942 185.66C159.314 185.899 159.762 185.714 159.93 185.367C159.97 185.277 159.987 185.182 159.982 185.087C159.978 185.031 160.008 184.981 160.058 184.956C160.178 184.893 160.288 184.787 160.383 184.615C160.482 184.452 160.57 184.266 160.624 184.065C160.694 183.885 160.728 183.68 160.73 183.513C160.75 183.551 160.786 183.59 160.841 183.628C160.959 183.708 161.106 183.757 161.14 183.708C161.174 183.66 161.092 183.525 160.982 183.437C160.973 183.431 160.967 183.427 160.958 183.421C160.972 183.412 160.986 183.403 161 183.391C161.171 183.244 161.243 183.009 161.128 182.82C161.022 182.641 160.719 182.609 160.496 182.798Z" fill="black"/>
<path d="M172.085 177.64L172.028 177.64C172.032 177.63 172.036 177.623 172.041 177.612C172.083 177.478 172.071 177.322 172.005 177.302C171.935 177.284 171.849 177.399 171.8 177.531C171.779 177.593 171.773 177.646 171.78 177.688C171.574 177.43 171.171 177.148 170.747 177.024C170.539 176.961 170.349 176.957 170.212 176.993C170.155 177.008 170.087 176.999 170.038 176.961C169.908 176.862 169.731 176.799 169.526 176.813C169.253 176.819 169.015 177.008 168.954 177.223C168.851 177.644 169.126 178.011 169.478 178.083C169.57 178.099 169.667 178.102 169.757 178.079C169.81 178.067 169.864 178.081 169.903 178.124C169.998 178.227 170.126 178.305 170.342 178.37C170.753 178.492 171.371 178.491 171.69 178.285C171.669 178.322 171.657 178.374 171.662 178.44C171.67 178.58 171.761 178.732 171.839 178.723C171.92 178.717 171.967 178.566 171.952 178.427C171.949 178.416 171.948 178.408 171.945 178.398L172.005 178.409C172.276 178.439 172.506 178.276 172.516 178.061C172.525 177.85 172.332 177.668 172.085 177.64Z" fill="black"/>
<path d="M175.887 176.883L175.843 176.917C175.84 176.906 175.838 176.899 175.835 176.887C175.785 176.755 175.681 176.641 175.617 176.66C175.553 176.679 175.55 176.832 175.593 176.965C175.614 177.028 175.642 177.073 175.674 177.103C175.338 177.024 174.851 177.064 174.491 177.163C174.31 177.224 174.177 177.284 174.087 177.383C174.05 177.423 173.995 177.437 173.944 177.419C173.807 177.371 173.663 177.38 173.508 177.429C173.302 177.508 173.131 177.695 173.08 177.919C172.979 178.34 173.339 178.717 173.822 178.667C173.94 178.65 174.048 178.61 174.139 178.554C174.193 178.522 174.261 178.515 174.321 178.531C174.465 178.57 174.661 178.586 174.899 178.508C175.38 178.375 175.858 177.973 175.971 177.63C175.979 177.672 176.001 177.721 176.046 177.77C176.14 177.876 176.294 177.942 176.359 177.89C176.424 177.839 176.366 177.688 176.268 177.587C176.26 177.581 176.253 177.576 176.246 177.569L176.3 177.541C176.536 177.396 176.615 177.129 176.486 176.955C176.361 176.784 176.094 176.757 175.887 176.883Z" fill="black"/>
<path d="M176.341 173.714L176.312 173.761C176.306 173.752 176.301 173.745 176.294 173.736C176.2 173.628 176.063 173.557 176.009 173.597C175.956 173.636 176.007 173.781 176.095 173.891C176.136 173.943 176.179 173.975 176.219 173.992C175.876 174.033 175.433 174.235 175.13 174.451C174.981 174.571 174.878 174.671 174.828 174.795C174.808 174.845 174.761 174.877 174.707 174.878C174.561 174.878 174.429 174.936 174.301 175.035C174.136 175.179 174.041 175.412 174.072 175.64C174.125 176.07 174.596 176.301 175.03 176.09C175.135 176.034 175.223 175.959 175.289 175.876C175.328 175.828 175.389 175.798 175.451 175.793C175.6 175.78 175.789 175.729 175.986 175.575C176.39 175.286 176.698 174.746 176.683 174.386C176.705 174.424 176.743 174.461 176.802 174.493C176.928 174.56 177.095 174.57 177.139 174.499C177.181 174.428 177.074 174.306 176.947 174.245C176.936 174.242 176.929 174.239 176.919 174.236L176.96 174.191C177.131 173.975 177.111 173.698 176.929 173.578C176.751 173.46 176.491 173.526 176.341 173.714Z" fill="black"/>
<path d="M178.795 174.148L178.767 174.195C178.76 174.187 178.755 174.181 178.748 174.172C178.648 174.073 178.501 174.009 178.451 174.054C178.401 174.099 178.462 174.241 178.559 174.345C178.604 174.393 178.65 174.422 178.691 174.435C178.353 174.504 177.915 174.755 177.636 175.037C177.485 175.185 177.404 175.326 177.371 175.459C177.357 175.512 177.316 175.556 177.263 175.572C177.118 175.615 176.989 175.709 176.891 175.845C176.762 176.037 176.742 176.291 176.842 176.498C177.027 176.892 177.541 176.969 177.881 176.669C177.962 176.594 178.024 176.505 178.063 176.412C178.086 176.357 178.136 176.317 178.195 176.303C178.337 176.27 178.488 176.183 178.651 176.025C178.981 175.692 179.23 175.149 179.186 174.791C179.211 174.826 179.252 174.86 179.314 174.887C179.444 174.944 179.611 174.942 179.646 174.869C179.682 174.796 179.57 174.685 179.437 174.632C179.426 174.629 179.418 174.627 179.408 174.624L179.447 174.578C179.595 174.348 179.56 174.075 179.372 173.969C179.183 173.864 178.925 173.944 178.795 174.148Z" fill="black"/>
<path d="M163.599 178.705L163.583 178.757C163.575 178.75 163.568 178.746 163.559 178.739C163.438 178.666 163.28 178.638 163.242 178.693C163.204 178.749 163.298 178.872 163.417 178.95C163.473 178.987 163.524 179.004 163.567 179.008C163.255 179.154 162.89 179.499 162.688 179.838C162.575 180.017 162.531 180.173 162.531 180.31C162.53 180.365 162.502 180.417 162.453 180.445C162.323 180.52 162.219 180.641 162.158 180.797C162.079 181.013 162.12 181.264 162.267 181.442C162.541 181.782 163.059 181.737 163.317 181.367C163.379 181.275 163.417 181.174 163.433 181.074C163.442 181.016 163.481 180.965 163.535 180.938C163.665 180.873 163.79 180.754 163.911 180.561C164.152 180.161 164.263 179.576 164.134 179.238C164.167 179.267 164.215 179.29 164.281 179.302C164.422 179.327 164.583 179.286 164.6 179.207C164.617 179.128 164.482 179.046 164.339 179.026C164.328 179.025 164.32 179.025 164.309 179.025L164.337 178.971C164.424 178.713 164.325 178.456 164.117 178.397C163.908 178.338 163.676 178.476 163.599 178.705Z" fill="black"/>
<path d="M180.031 170.45L180.034 170.505C180.023 170.502 180.016 170.499 180.005 170.495C179.866 170.459 179.709 170.478 179.691 170.543C179.67 170.607 179.796 170.699 179.933 170.739C179.997 170.758 180.05 170.76 180.093 170.751C179.839 170.981 179.596 171.422 179.502 171.798C179.451 171.99 179.457 172.144 179.489 172.27C179.503 172.321 179.49 172.377 179.451 172.415C179.353 172.517 179.27 172.644 179.254 172.808C179.228 173.027 179.315 173.261 179.5 173.41C179.83 173.688 180.344 173.547 180.51 173.109C180.554 173.003 180.571 172.893 180.559 172.788C180.553 172.727 180.578 172.665 180.623 172.624C180.738 172.526 180.826 172.367 180.887 172.137C181.002 171.68 180.928 171.092 180.703 170.807C180.744 170.825 180.797 170.834 180.863 170.826C181.006 170.809 181.148 170.725 181.142 170.644C181.133 170.564 180.977 170.524 180.836 170.546C180.826 170.549 180.818 170.551 180.808 170.554L180.815 170.494C180.831 170.224 180.656 170.007 180.437 170.008C180.222 170.01 180.045 170.208 180.031 170.45Z" fill="black"/>
<path d="M182.647 158.502L182.6 158.533C182.598 158.523 182.597 158.514 182.595 158.503C182.553 158.368 182.455 158.247 182.389 158.265C182.323 158.281 182.309 158.434 182.345 158.57C182.362 158.633 182.388 158.68 182.418 158.711C182.087 158.618 181.577 158.643 181.201 158.761C181.008 158.818 180.878 158.903 180.785 158.995C180.748 159.035 180.693 159.053 180.64 159.04C180.5 159.01 180.346 159.007 180.196 159.078C179.992 159.172 179.834 159.366 179.802 159.599C179.732 160.021 180.123 160.379 180.59 160.29C180.705 160.272 180.808 160.228 180.893 160.163C180.943 160.127 181.01 160.116 181.069 160.133C181.214 160.177 181.398 160.168 181.63 160.1C182.086 159.958 182.558 159.59 182.688 159.253C182.693 159.295 182.714 159.344 182.755 159.396C182.844 159.507 182.991 159.582 183.058 159.535C183.123 159.486 183.076 159.334 182.984 159.228C182.976 159.22 182.97 159.215 182.962 159.208L183.018 159.183C183.26 159.056 183.358 158.795 183.242 158.612C183.129 158.433 182.865 158.388 182.647 158.502Z" fill="black"/>
<path d="M179.665 166.333V166.395C179.655 166.391 179.648 166.389 179.637 166.384C179.499 166.346 179.34 166.37 179.321 166.454C179.307 166.538 179.442 166.641 179.582 166.67C179.647 166.684 179.701 166.68 179.743 166.665C179.49 166.937 179.391 167.549 179.48 167.989C179.521 168.21 179.6 168.363 179.693 168.46C179.731 168.5 179.747 168.558 179.732 168.611C179.69 168.755 179.693 168.89 179.752 169.047C179.836 169.256 180.037 169.418 180.266 169.459C180.698 169.539 181.064 169.174 181.002 168.714C180.984 168.6 180.945 168.489 180.885 168.408C180.85 168.359 180.842 168.296 180.862 168.241C180.912 168.103 180.922 167.94 180.883 167.733C180.804 167.33 180.587 166.905 180.356 166.661C180.397 166.673 180.451 166.676 180.516 166.663C180.656 166.635 180.789 166.561 180.774 166.499C180.765 166.439 180.611 166.404 180.469 166.423C180.458 166.426 180.45 166.427 180.44 166.43C180.444 166.413 180.448 166.396 180.45 166.378C180.46 166.147 180.322 165.933 180.11 165.895C179.895 165.856 179.679 166.05 179.665 166.333Z" fill="black"/>
<path d="M178.163 164.626L178.143 164.685C178.135 164.678 178.129 164.673 178.12 164.666C178.001 164.588 177.842 164.563 177.797 164.637C177.758 164.713 177.854 164.851 177.979 164.921C178.037 164.954 178.089 164.966 178.133 164.965C177.808 165.148 177.523 165.701 177.471 166.146C177.442 166.369 177.469 166.538 177.527 166.659C177.552 166.709 177.549 166.768 177.519 166.814C177.433 166.939 177.394 167.068 177.402 167.236C177.416 167.46 177.557 167.675 177.762 167.782C178.149 167.988 178.611 167.751 178.695 167.294C178.713 167.18 178.711 167.063 178.678 166.968C178.66 166.911 178.672 166.849 178.709 166.802C178.799 166.686 178.86 166.533 178.887 166.324C178.937 165.917 178.863 165.447 178.718 165.145C178.754 165.17 178.805 165.188 178.871 165.196C179.012 165.211 179.162 165.18 179.167 165.117C179.177 165.057 179.041 164.978 178.9 164.953C178.889 164.952 178.881 164.952 178.871 164.951C178.879 164.936 178.889 164.921 178.896 164.904C178.977 164.688 178.913 164.442 178.723 164.342C178.531 164.24 178.264 164.361 178.163 164.626Z" fill="black"/>
<path d="M181.602 162.456L181.565 162.504C181.56 162.495 181.556 162.488 181.55 162.477C181.467 162.362 181.331 162.281 181.268 162.329C181.205 162.378 181.242 162.536 181.327 162.649C181.367 162.701 181.41 162.733 181.451 162.75C181.089 162.785 180.599 163.123 180.339 163.523C180.209 163.727 180.144 163.895 180.153 164.051C180.154 164.112 180.128 164.174 180.079 164.213C179.949 164.317 179.841 164.473 179.815 164.673C179.764 164.937 179.881 165.191 180.091 165.308C180.472 165.511 180.917 165.327 181.06 165.001C181.1 164.916 181.123 164.829 181.121 164.738C181.12 164.685 181.15 164.637 181.197 164.612C181.306 164.549 181.431 164.453 181.536 164.287C181.745 163.966 181.918 163.487 181.913 163.146C181.936 163.183 181.974 163.22 182.032 163.253C182.156 163.322 182.312 163.348 182.347 163.289C182.382 163.229 182.286 163.104 182.165 163.031C182.154 163.026 182.147 163.023 182.138 163.019L182.178 162.981C182.341 162.795 182.376 162.54 182.219 162.386C182.07 162.238 181.78 162.254 181.602 162.456Z" fill="black"/>
<path d="M184.385 159.243L184.344 159.287C184.339 159.277 184.337 159.27 184.332 159.259C184.261 159.136 184.134 159.042 184.066 159.084C183.999 159.126 184.019 159.287 184.093 159.407C184.127 159.464 184.166 159.5 184.205 159.52C183.841 159.519 183.32 159.808 183.02 160.181C182.87 160.371 182.788 160.531 182.781 160.687C182.777 160.749 182.744 160.807 182.692 160.842C182.552 160.932 182.428 161.076 182.382 161.272C182.305 161.531 182.395 161.795 182.592 161.932C182.95 162.171 183.412 162.032 183.588 161.722C183.636 161.642 183.667 161.557 183.675 161.466C183.68 161.413 183.714 161.368 183.764 161.348C183.878 161.297 184.013 161.213 184.134 161.058C184.374 160.759 184.595 160.3 184.625 159.96C184.643 159.999 184.678 160.04 184.732 160.078C184.849 160.159 185.001 160.2 185.042 160.144C185.083 160.088 185 159.954 184.887 159.87C184.877 159.864 184.87 159.86 184.862 159.855L184.906 159.822C185.087 159.652 185.147 159.402 185.007 159.233C184.873 159.071 184.583 159.059 184.385 159.243Z" fill="black"/>
<path d="M170.108 179.259L170.045 179.258C170.049 179.249 170.053 179.241 170.057 179.231C170.102 179.096 170.083 178.94 169.996 178.919C169.917 178.901 169.814 179.029 169.78 179.165C169.765 179.229 169.767 179.282 169.779 179.323C169.526 179.077 168.984 178.925 168.544 178.963C168.321 178.979 168.159 179.045 168.047 179.13C168.001 179.167 167.94 179.181 167.883 179.164C167.733 179.118 167.556 179.127 167.383 179.207C167.148 179.315 166.997 179.559 167.024 179.787C167.093 180.21 167.459 180.47 167.806 180.409C167.897 180.393 167.979 180.354 168.053 180.303C168.096 180.272 168.152 180.268 168.2 180.292C168.317 180.352 168.465 180.376 168.662 180.361C169.05 180.328 169.517 180.153 169.761 179.926C169.748 179.966 169.743 180.02 169.754 180.084C169.776 180.223 169.844 180.358 169.904 180.347C169.958 180.337 169.995 180.186 169.985 180.047C169.983 180.036 169.982 180.029 169.98 180.019C169.996 180.022 170.011 180.026 170.027 180.028C170.088 180.031 170.11 180.029 170.158 180.015C170.217 180.007 170.272 179.989 170.321 179.963C170.418 179.911 170.488 179.827 170.51 179.722C170.531 179.618 170.503 179.513 170.44 179.43C170.409 179.388 170.369 179.35 170.323 179.321C170.264 179.291 170.171 179.262 170.108 179.259Z" fill="black"/>
<path d="M165.845 180.413L165.806 180.462C165.801 180.452 165.797 180.445 165.791 180.435C165.71 180.319 165.571 180.239 165.502 180.294C165.44 180.346 165.48 180.504 165.57 180.612C165.613 180.663 165.657 180.693 165.698 180.709C165.345 180.758 164.894 181.089 164.658 181.457C164.537 181.641 164.491 181.808 164.493 181.947C164.494 182.005 164.468 182.062 164.421 182.096C164.292 182.185 164.193 182.33 164.153 182.513C164.097 182.763 164.204 183.028 164.404 183.145C164.788 183.347 165.22 183.219 165.382 182.91C165.423 182.829 165.441 182.742 165.445 182.653C165.446 182.6 165.477 182.554 165.525 182.531C165.645 182.476 165.754 182.375 165.862 182.211C166.069 181.888 166.211 181.417 166.175 181.088C166.199 181.123 166.24 181.158 166.298 181.19C166.424 181.256 166.574 181.285 166.602 181.231C166.627 181.183 166.527 181.062 166.408 180.986C166.398 180.981 166.391 180.977 166.382 180.973C166.394 180.963 166.407 180.953 166.418 180.941C166.458 180.896 166.469 180.877 166.487 180.831C166.516 180.78 166.535 180.726 166.543 180.673C166.56 180.565 166.534 180.46 166.463 180.379C166.392 180.298 166.29 180.258 166.184 180.256C166.131 180.255 166.077 180.264 166.025 180.282C165.966 180.31 165.886 180.365 165.845 180.413Z" fill="black"/>
<path d="M173.996 179.469C173.978 179.472 173.961 179.478 173.944 179.483C173.946 179.472 173.947 179.464 173.949 179.453C173.955 179.312 173.906 179.164 173.841 179.161C173.775 179.155 173.712 179.292 173.701 179.432C173.696 179.496 173.705 179.549 173.722 179.589C173.453 179.383 172.98 179.25 172.597 179.246C172.401 179.24 172.255 179.28 172.142 179.349C172.095 179.379 172.039 179.376 171.994 179.349C171.873 179.272 171.728 179.238 171.568 179.267C171.351 179.298 171.153 179.453 171.065 179.669C170.899 180.063 171.165 180.497 171.603 180.535C171.711 180.545 171.816 180.53 171.909 180.497C171.964 180.476 172.026 180.488 172.075 180.518C172.193 180.595 172.359 180.643 172.585 180.649C173.032 180.655 173.565 180.454 173.79 180.188C173.782 180.23 173.784 180.283 173.805 180.345C173.849 180.479 173.957 180.602 174.03 180.579C174.104 180.553 174.111 180.396 174.063 180.264C174.058 180.254 174.055 180.248 174.05 180.238L174.108 180.234C174.365 180.193 174.539 179.99 174.495 179.781C174.453 179.572 174.229 179.432 173.996 179.469Z" fill="black"/>
<path d="M160.95 179.331C160.943 179.348 160.939 179.365 160.933 179.381C160.925 179.374 160.919 179.369 160.91 179.361C160.793 179.28 160.64 179.24 160.602 179.293C160.562 179.344 160.645 179.47 160.758 179.555C160.812 179.594 160.861 179.615 160.904 179.622C160.583 179.734 160.214 180.053 160.003 180.369C159.893 180.527 159.847 180.67 159.846 180.801C159.846 180.855 159.814 180.9 159.766 180.923C159.635 180.981 159.527 181.083 159.466 181.232C159.375 181.428 159.401 181.675 159.538 181.864C159.786 182.215 160.301 182.229 160.57 181.887C160.637 181.803 160.681 181.708 160.702 181.613C160.714 181.556 160.758 181.512 160.81 181.488C160.94 181.431 161.071 181.32 161.198 181.136C161.444 180.769 161.56 180.22 161.454 179.889C161.485 179.919 161.532 179.945 161.596 179.962C161.734 179.998 161.899 179.975 161.918 179.902C161.936 179.827 161.805 179.736 161.667 179.705C161.656 179.704 161.648 179.702 161.638 179.701L161.665 179.651C161.769 179.416 161.689 179.163 161.486 179.086C161.284 179.008 161.044 179.118 160.95 179.331Z" fill="black"/>
<path d="M177.57 178.153C177.554 178.163 177.541 178.174 177.527 178.186C177.524 178.176 177.522 178.168 177.519 178.156C177.467 178.026 177.36 177.91 177.298 177.933C177.236 177.956 177.238 178.11 177.287 178.243C177.31 178.305 177.34 178.349 177.373 178.377C177.037 178.292 176.554 178.372 176.203 178.519C176.028 178.604 175.906 178.685 175.832 178.794C175.802 178.837 175.752 178.862 175.699 178.855C175.561 178.841 175.414 178.862 175.278 178.946C175.096 179.063 174.981 179.289 174.985 179.515C174.991 179.95 175.409 180.232 175.832 180.098C175.938 180.069 176.026 180.008 176.097 179.937C176.139 179.895 176.199 179.877 176.257 179.888C176.397 179.91 176.576 179.901 176.78 179.803C177.194 179.629 177.589 179.222 177.686 178.895C177.696 178.937 177.721 178.985 177.766 179.032C177.861 179.136 178.008 179.2 178.065 179.148C178.121 179.096 178.063 178.951 177.963 178.85C177.955 178.842 177.949 178.837 177.941 178.831L177.992 178.805C178.213 178.67 178.284 178.412 178.156 178.236C178.032 178.065 177.771 178.031 177.57 178.153Z" fill="black"/>
<path d="M180.377 175.57C180.367 175.585 180.359 175.6 180.35 175.616C180.344 175.607 180.339 175.601 180.332 175.592C180.235 175.489 180.093 175.42 180.044 175.463C179.997 175.508 180.05 175.647 180.145 175.753C180.189 175.801 180.233 175.832 180.274 175.847C180.102 175.867 179.91 175.94 179.732 176.044C179.545 176.143 179.368 176.267 179.237 176.408C179.099 176.546 179.02 176.674 178.993 176.802C178.981 176.854 178.944 176.897 178.893 176.911C178.759 176.952 178.628 177.028 178.537 177.16C178.412 177.337 178.399 177.595 178.497 177.8C178.681 178.195 179.172 178.285 179.506 178.005C179.59 177.938 179.648 177.851 179.684 177.759C179.706 177.705 179.753 177.665 179.81 177.654C179.948 177.623 180.102 177.545 180.259 177.388C180.41 177.228 180.548 177.024 180.64 176.816C180.726 176.602 180.771 176.388 180.758 176.217C180.782 176.253 180.822 176.288 180.882 176.317C181.01 176.38 181.176 176.392 181.208 176.321C181.24 176.252 181.131 176.137 181.002 176.079C180.991 176.075 180.984 176.073 180.974 176.07L181.011 176.026C181.162 175.818 181.137 175.555 180.955 175.438C180.773 175.322 180.515 175.381 180.377 175.57Z" fill="black"/>
<path d="M181.947 172.147C181.943 172.164 181.942 172.181 181.939 172.199C181.93 172.194 181.923 172.19 181.913 172.184C181.782 172.13 181.623 172.123 181.594 172.181C181.565 172.24 181.677 172.347 181.807 172.405C181.867 172.433 181.92 172.443 181.963 172.44C181.678 172.618 181.386 173.008 181.245 173.357C181.18 173.537 181.161 173.683 181.183 173.809C181.193 173.86 181.174 173.913 181.133 173.944C181.024 174.031 180.939 174.15 180.902 174.303C180.856 174.513 180.941 174.754 181.107 174.909C181.425 175.21 181.921 175.116 182.124 174.728C182.178 174.634 182.193 174.528 182.194 174.43C182.193 174.371 182.223 174.317 182.272 174.283C182.391 174.203 182.502 174.069 182.578 173.859C182.744 173.448 182.738 172.886 182.559 172.585C182.596 172.608 182.647 172.624 182.714 172.626C182.857 172.633 183.008 172.575 183.012 172.499C183.016 172.424 182.87 172.362 182.727 172.361C182.715 172.361 182.707 172.362 182.697 172.363L182.715 172.309C182.768 172.059 182.626 171.827 182.413 171.794C182.198 171.76 181.995 171.919 181.947 172.147Z" fill="black"/>
<path d="M182.009 168.369C182.012 168.387 182.017 168.404 182.022 168.421C182.011 168.419 182.003 168.418 181.992 168.417C181.85 168.413 181.699 168.465 181.695 168.531C181.691 168.597 181.835 168.656 181.977 168.663C182.044 168.666 182.097 168.656 182.136 168.637C181.938 168.909 181.819 169.385 181.831 169.765C181.844 169.958 181.88 170.101 181.955 170.208C181.985 170.252 181.99 170.308 181.965 170.354C181.902 170.477 181.864 170.62 181.899 170.776C181.95 170.988 182.112 171.173 182.334 171.25C182.745 171.396 183.17 171.113 183.19 170.68C183.197 170.573 183.179 170.471 183.135 170.381C183.11 170.328 183.115 170.267 183.146 170.218C183.219 170.099 183.272 169.933 183.257 169.713C183.243 169.276 183.023 168.766 182.743 168.553C182.786 168.56 182.84 168.556 182.903 168.535C183.037 168.488 183.157 168.38 183.132 168.309C183.107 168.238 182.948 168.235 182.814 168.285C182.804 168.29 182.797 168.294 182.788 168.298L182.784 168.242C182.748 168.022 182.563 167.859 182.345 167.866C182.13 167.874 181.966 168.106 182.009 168.369Z" fill="black"/>
<path d="M182.428 164.274L182.412 164.332C182.403 164.325 182.397 164.32 182.388 164.313C182.267 164.236 182.11 164.21 182.07 164.281C182.029 164.351 182.124 164.485 182.247 164.554C182.305 164.586 182.358 164.599 182.402 164.598C182.093 164.77 181.794 165.27 181.734 165.707C181.7 165.928 181.726 166.097 181.789 166.223C181.814 166.275 181.812 166.336 181.783 166.385C181.708 166.518 181.67 166.683 181.709 166.858C181.756 167.096 181.947 167.285 182.174 167.335C182.602 167.424 182.976 167.122 182.997 166.751C183.004 166.657 182.986 166.566 182.949 166.483C182.928 166.434 182.939 166.379 182.973 166.338C183.057 166.238 183.117 166.102 183.146 165.913C183.198 165.539 183.143 165.077 182.986 164.781C183.021 164.805 183.072 164.824 183.138 164.832C183.28 164.85 183.432 164.824 183.438 164.765C183.445 164.706 183.307 164.627 183.168 164.601C183.157 164.6 183.149 164.6 183.139 164.599C183.146 164.584 183.155 164.57 183.16 164.554C183.243 164.352 183.166 164.115 182.981 164.013C182.788 163.906 182.531 164.023 182.428 164.274Z" fill="black"/>
<path d="M173.321 181.734L173.264 181.738C173.268 181.728 173.27 181.72 173.274 181.709C173.307 181.572 173.284 181.418 173.217 181.403C173.149 181.39 173.057 181.515 173.019 181.648C173.001 181.71 173 181.763 173.01 181.806C172.9 181.684 172.738 181.573 172.56 181.486C172.471 181.437 172.38 181.388 172.286 181.35C172.237 181.331 172.19 181.314 172.145 181.297L172.075 181.275C172.019 181.263 171.965 181.251 171.911 181.239C171.858 181.237 171.807 181.236 171.757 181.234C171.541 181.229 171.376 181.264 171.252 181.33C171.202 181.358 171.14 181.359 171.09 181.331C170.955 181.257 170.795 181.223 170.622 181.249C170.387 181.284 170.183 181.439 170.091 181.653C169.91 182.049 170.217 182.482 170.686 182.521C170.801 182.53 170.912 182.515 171.011 182.479C171.069 182.458 171.135 182.467 171.187 182.499C171.312 182.579 171.484 182.631 171.724 182.637C171.768 182.638 171.77 182.638 171.774 182.635L171.776 182.633C171.784 182.634 171.735 182.624 171.769 182.629L171.858 182.637C171.916 182.639 171.976 182.642 172.039 182.644C172.16 182.644 172.28 182.64 172.394 182.622C172.625 182.576 172.828 182.503 172.965 182.407C172.947 182.446 172.939 182.498 172.949 182.564C172.97 182.706 173.062 182.846 173.147 182.831C173.231 182.82 173.269 182.666 173.243 182.528C173.239 182.517 173.237 182.51 173.234 182.5L173.296 182.506C173.581 182.516 173.803 182.34 173.794 182.123C173.785 181.914 173.573 181.743 173.321 181.734Z" fill="black"/>
<path d="M177.322 180.836L177.272 180.866C177.27 180.856 177.269 180.848 177.268 180.836C177.233 180.699 177.14 180.573 177.07 180.592C177 180.607 176.976 180.76 177.006 180.898C177.021 180.961 177.045 181.008 177.075 181.041C176.737 180.933 176.208 180.965 175.812 181.08C175.61 181.135 175.472 181.221 175.377 181.321C175.338 181.359 175.28 181.376 175.225 181.362C175.079 181.324 174.921 181.34 174.764 181.408C174.552 181.495 174.392 181.702 174.36 181.934C174.293 182.361 174.695 182.699 175.17 182.616C175.286 182.592 175.391 182.547 175.479 182.486C175.53 182.45 175.598 182.44 175.659 182.458C175.805 182.497 175.991 182.488 176.227 182.423C176.692 182.287 177.174 181.92 177.324 181.592C177.328 181.634 177.346 181.684 177.386 181.737C177.471 181.851 177.617 181.933 177.686 181.888C177.752 181.84 177.713 181.687 177.625 181.576C177.617 181.569 177.612 181.563 177.605 181.556L177.662 181.533C177.911 181.41 178.029 181.158 177.925 180.97C177.822 180.783 177.551 180.723 177.322 180.836Z" fill="black"/>
<path d="M183.74 178.356L183.717 178.408C183.71 178.4 183.704 178.394 183.696 178.385C183.588 178.292 183.438 178.241 183.392 178.295C183.343 178.347 183.412 178.487 183.516 178.582C183.565 178.627 183.613 178.652 183.655 178.662C183.315 178.763 182.898 179.084 182.64 179.401C182.506 179.559 182.443 179.708 182.422 179.842C182.412 179.896 182.374 179.942 182.321 179.962C182.178 180.012 182.058 180.113 181.969 180.257C181.844 180.447 181.833 180.707 181.941 180.916C182.133 181.305 182.659 181.358 183.002 181.023C183.083 180.939 183.143 180.842 183.18 180.743C183.202 180.685 183.252 180.639 183.312 180.62C183.455 180.57 183.602 180.458 183.759 180.272C184.062 179.901 184.246 179.33 184.179 178.975C184.207 179.008 184.251 179.039 184.315 179.06C184.45 179.106 184.618 179.092 184.648 179.016C184.675 178.94 184.555 178.835 184.418 178.794C184.407 178.792 184.4 178.791 184.389 178.788L184.423 178.738C184.557 178.497 184.508 178.224 184.314 178.127C184.12 178.031 183.863 178.133 183.74 178.356Z" fill="black"/>
<path d="M180.742 178.454L180.703 178.498C180.699 178.489 180.695 178.481 180.69 178.471C180.615 178.351 180.485 178.26 180.424 178.299C180.363 178.34 180.389 178.495 180.461 178.615C180.495 178.671 180.534 178.708 180.573 178.729C180.213 178.731 179.716 178.943 179.379 179.198C179.211 179.332 179.104 179.453 179.052 179.583C179.03 179.635 178.984 179.675 178.927 179.685C178.779 179.715 178.628 179.779 178.509 179.908C178.349 180.083 178.287 180.337 178.354 180.556C178.48 180.973 178.983 181.117 179.371 180.86C179.469 180.799 179.546 180.719 179.599 180.628C179.631 180.574 179.687 180.539 179.748 180.533C179.895 180.515 180.071 180.453 180.256 180.306C180.63 180.022 180.949 179.527 180.988 179.173C181.005 179.212 181.039 179.254 181.094 179.292C181.212 179.374 181.374 179.406 181.421 179.341C181.468 179.276 181.382 179.143 181.264 179.064C181.254 179.059 181.247 179.056 181.238 179.051L181.285 179.013C181.483 178.824 181.517 178.55 181.362 178.401C181.207 178.252 180.929 178.276 180.742 178.454Z" fill="black"/>
<path d="M183.25 175.189L183.231 175.242C183.223 175.235 183.216 175.229 183.208 175.221C183.093 175.137 182.939 175.098 182.898 175.154C182.858 175.21 182.939 175.343 183.049 175.43C183.1 175.471 183.15 175.492 183.193 175.499C182.858 175.621 182.473 175.966 182.229 176.298C182.109 176.469 182.054 176.621 182.037 176.756C182.031 176.811 181.997 176.861 181.946 176.886C181.811 176.952 181.694 177.063 181.612 177.216C181.505 177.426 181.523 177.691 181.65 177.881C181.892 178.245 182.411 178.24 182.714 177.89C182.789 177.804 182.836 177.701 182.864 177.6C182.88 177.541 182.924 177.491 182.982 177.468C183.124 177.413 183.264 177.294 183.403 177.097C183.684 176.713 183.828 176.121 183.739 175.773C183.77 175.804 183.816 175.832 183.881 175.849C184.021 175.885 184.187 175.857 184.207 175.776C184.229 175.696 184.101 175.602 183.961 175.571C183.95 175.57 183.942 175.57 183.932 175.568L183.962 175.515C184.085 175.265 184.002 174.992 183.799 174.914C183.598 174.837 183.361 174.964 183.25 175.189Z" fill="black"/>
<path d="M184.186 171.195L184.187 171.254C184.177 171.25 184.17 171.246 184.159 171.242C184.021 171.203 183.863 171.22 183.842 171.291C183.822 171.361 183.947 171.46 184.083 171.502C184.147 171.521 184.201 171.522 184.244 171.512C183.981 171.752 183.762 172.245 183.688 172.654C183.656 172.864 183.666 173.025 183.713 173.153C183.732 173.206 183.725 173.265 183.69 173.31C183.601 173.429 183.533 173.573 183.534 173.745C183.537 173.979 183.649 174.203 183.852 174.327C184.219 174.561 184.707 174.344 184.82 173.889C184.852 173.778 184.855 173.667 184.832 173.563C184.819 173.503 184.837 173.439 184.878 173.393C184.979 173.282 185.06 173.118 185.096 172.886C185.179 172.426 185.07 171.854 184.854 171.567C184.895 171.585 184.948 171.593 185.014 171.585C185.156 171.568 185.299 171.486 185.292 171.408C185.285 171.329 185.131 171.287 184.989 171.306C184.978 171.309 184.971 171.31 184.961 171.313C184.965 171.294 184.968 171.275 184.97 171.254C184.988 170.987 184.826 170.76 184.61 170.749C184.393 170.737 184.204 170.937 184.186 171.195Z" fill="black"/>
<path d="M183.843 167.052C183.846 167.073 183.852 167.092 183.857 167.111C183.846 167.109 183.838 167.108 183.826 167.106C183.683 167.097 183.533 167.149 183.531 167.227C183.529 167.305 183.676 167.376 183.819 167.384C183.886 167.388 183.938 167.376 183.977 167.356C183.781 167.657 183.708 168.216 183.779 168.644C183.815 168.862 183.883 169.015 183.973 169.122C184.011 169.166 184.023 169.225 184.006 169.279C183.958 169.422 183.957 169.584 184.01 169.73C184.049 169.842 184.109 169.89 184.19 169.984C184.269 170.071 184.371 170.136 184.484 170.168C184.695 170.228 184.899 170.178 185.053 170.056C185.131 170.002 185.192 169.907 185.232 169.786C185.268 169.678 185.285 169.555 185.271 169.441C185.259 169.323 185.221 169.218 185.166 169.13C185.134 169.078 185.129 169.012 185.152 168.957C185.207 168.821 185.225 168.646 185.188 168.422C185.116 167.979 184.861 167.484 184.582 167.262C184.626 167.269 184.679 167.264 184.742 167.241C184.876 167.191 184.994 167.083 184.969 167.013C184.944 166.943 184.784 166.936 184.651 166.985C184.641 166.99 184.633 166.993 184.624 166.998L184.621 166.94C184.582 166.685 184.385 166.502 184.168 166.523C183.953 166.544 183.803 166.786 183.843 167.052Z" fill="black"/>
<path d="M165.705 175.228C165.7 175.244 165.698 175.26 165.695 175.276C165.686 175.27 165.68 175.265 165.67 175.259C165.543 175.19 165.394 175.162 165.359 175.207C165.322 175.251 165.416 175.365 165.534 175.445C165.588 175.481 165.639 175.501 165.681 175.507C165.383 175.628 164.999 175.888 164.771 176.177C164.646 176.321 164.578 176.454 164.561 176.584C164.553 176.637 164.52 176.682 164.47 176.699C164.329 176.741 164.205 176.828 164.119 176.969C164.008 177.162 163.99 177.41 164.101 177.614C164.302 177.994 164.812 178.073 165.133 177.759C165.213 177.684 165.272 177.595 165.308 177.503C165.328 177.446 165.374 177.4 165.432 177.383C165.57 177.338 165.723 177.243 165.877 177.064C166.174 176.697 166.367 176.109 166.241 175.754C166.273 175.784 166.32 175.809 166.386 175.822C166.526 175.851 166.693 175.808 166.715 175.724C166.736 175.638 166.593 175.552 166.453 175.537H166.424L166.448 175.479C166.544 175.207 166.409 174.949 166.192 174.916C165.98 174.885 165.777 175.027 165.705 175.228Z" fill="black"/>
<path d="M165.432 171.39L165.441 171.447C165.43 171.444 165.422 171.442 165.411 171.439C165.269 171.419 165.115 171.458 165.105 171.533C165.094 171.608 165.237 171.688 165.378 171.705C165.445 171.714 165.498 171.706 165.539 171.69C165.311 171.944 165.215 172.544 165.309 172.968C165.355 173.185 165.428 173.322 165.525 173.42C165.565 173.46 165.58 173.515 165.564 173.566C165.522 173.702 165.527 173.849 165.586 173.987C165.672 174.176 165.854 174.321 166.09 174.376C166.302 174.423 166.507 174.373 166.647 174.234C166.793 174.094 166.868 173.874 166.834 173.647C166.817 173.534 166.772 173.438 166.714 173.354C166.68 173.305 166.672 173.243 166.692 173.19C166.74 173.06 166.75 172.889 166.709 172.691C166.623 172.297 166.406 171.889 166.15 171.643C166.192 171.653 166.246 171.652 166.311 171.634C166.448 171.596 166.573 171.504 166.556 171.438C166.538 171.372 166.38 171.353 166.242 171.389C166.232 171.393 166.224 171.396 166.215 171.399L166.217 171.345C166.2 171.103 166.022 170.911 165.805 170.916C165.588 170.92 165.415 171.134 165.432 171.39Z" fill="black"/>
<path d="M166.035 167.256L166.016 167.312C166.008 167.305 166.002 167.3 165.993 167.292C165.876 167.212 165.719 167.179 165.675 167.247C165.632 167.315 165.72 167.451 165.84 167.527C165.896 167.562 165.948 167.577 165.992 167.579C165.679 167.739 165.336 168.229 165.259 168.682C165.208 168.909 165.238 169.086 165.29 169.218C165.312 169.272 165.308 169.335 165.279 169.386C165.201 169.52 165.156 169.691 165.191 169.872C165.236 170.117 165.416 170.313 165.647 170.369C166.072 170.469 166.452 170.164 166.482 169.79C166.491 169.694 166.476 169.602 166.442 169.517C166.42 169.466 166.433 169.411 166.47 169.371C166.563 169.275 166.617 169.137 166.66 168.949C166.723 168.576 166.71 168.103 166.566 167.79C166.6 167.817 166.65 167.838 166.715 167.849C166.856 167.873 167.012 167.85 167.023 167.787C167.034 167.724 166.9 167.639 166.761 167.61C166.75 167.609 166.742 167.608 166.732 167.607C166.74 167.591 166.75 167.577 166.757 167.56C166.844 167.345 166.787 167.101 166.592 166.999C166.405 166.901 166.137 167.008 166.035 167.256Z" fill="black"/>
<path d="M168.78 166.727L168.75 166.779C168.743 166.771 168.738 166.764 168.731 166.755C168.633 166.652 168.487 166.589 168.43 166.647C168.373 166.704 168.431 166.855 168.532 166.953C168.58 166.999 168.627 167.025 168.67 167.035C168.33 167.128 167.892 167.539 167.723 167.967C167.625 168.178 167.618 168.357 167.641 168.497C167.651 168.555 167.634 168.616 167.595 168.659C167.49 168.775 167.411 168.934 167.408 169.117C167.401 169.367 167.536 169.594 167.75 169.696C168.145 169.88 168.58 169.658 168.688 169.297C168.717 169.206 168.722 169.113 168.706 169.023C168.695 168.969 168.719 168.917 168.764 168.886C168.875 168.81 168.957 168.685 169.038 168.511C169.177 168.158 169.263 167.693 169.188 167.358C169.216 167.39 169.26 167.421 169.322 167.445C169.455 167.497 169.612 167.506 169.636 167.446C169.66 167.387 169.547 167.277 169.417 167.221C169.406 167.217 169.399 167.215 169.389 167.212C169.401 167.198 169.413 167.186 169.423 167.171C169.553 166.978 169.549 166.728 169.379 166.589C169.216 166.455 168.932 166.505 168.78 166.727Z" fill="black"/>
<path d="M168.771 164.042C168.755 164.054 168.742 164.068 168.728 164.081C168.724 164.071 168.721 164.063 168.718 164.052C168.658 163.924 168.542 163.818 168.471 163.853C168.402 163.889 168.408 164.05 168.471 164.176C168.5 164.235 168.536 164.275 168.572 164.298C168.213 164.263 167.687 164.499 167.36 164.811C167.197 164.978 167.109 165.136 167.077 165.275C167.063 165.331 167.028 165.386 166.973 165.412C166.831 165.484 166.693 165.603 166.621 165.779C166.524 166.019 166.563 166.278 166.734 166.446C167.046 166.744 167.528 166.685 167.75 166.399C167.81 166.327 167.848 166.244 167.866 166.156C167.877 166.104 167.913 166.062 167.968 166.051C168.099 166.022 168.229 165.949 168.363 165.809C168.647 165.54 168.894 165.106 168.948 164.775C168.964 164.815 168.995 164.858 169.045 164.901C169.152 164.994 169.298 165.05 169.342 164.999C169.386 164.948 169.315 164.807 169.211 164.713C169.202 164.706 169.196 164.702 169.188 164.696L169.233 164.667C169.433 164.533 169.498 164.278 169.381 164.098C169.264 163.919 168.991 163.893 168.771 164.042Z" fill="black"/>
<path d="M172.717 162.466L172.659 162.48C172.661 162.47 172.662 162.461 172.665 162.45C172.677 162.309 172.627 162.161 172.546 162.159C172.465 162.157 172.39 162.301 172.384 162.441C172.381 162.507 172.394 162.558 172.414 162.597C172.116 162.4 171.521 162.361 171.08 162.512C170.855 162.583 170.708 162.687 170.62 162.803C170.583 162.85 170.525 162.878 170.464 162.876C170.303 162.87 170.135 162.93 169.988 163.044C169.792 163.207 169.712 163.464 169.778 163.683C169.909 164.097 170.364 164.26 170.706 164.105C170.793 164.066 170.864 164.001 170.923 163.935C170.958 163.895 171.012 163.877 171.066 163.888C171.194 163.914 171.345 163.902 171.531 163.843C171.894 163.719 172.307 163.46 172.514 163.192C172.508 163.234 172.514 163.287 172.537 163.348C172.586 163.48 172.685 163.598 172.746 163.575C172.808 163.552 172.815 163.395 172.771 163.262C172.767 163.252 172.763 163.246 172.759 163.237L172.813 163.233C173.049 163.212 173.233 163.02 173.223 162.81C173.213 162.594 172.987 162.442 172.717 162.466Z" fill="black"/>
<path d="M168.702 181.202L168.652 181.235C168.65 181.225 168.649 181.217 168.646 181.205C168.608 181.069 168.508 180.947 168.431 180.973C168.355 180.999 168.337 181.16 168.38 181.294C168.401 181.356 168.431 181.401 168.464 181.429C168.114 181.347 167.543 181.516 167.184 181.809C166.999 181.954 166.899 182.101 166.857 182.241C166.839 182.297 166.795 182.344 166.737 182.362C166.584 182.413 166.448 182.526 166.351 182.684C166.225 182.904 166.243 183.172 166.383 183.355C166.653 183.697 167.137 183.693 167.401 183.43C167.469 183.363 167.512 183.279 167.544 183.196C167.563 183.146 167.608 183.111 167.662 183.104C167.791 183.083 167.928 183.02 168.082 182.901C168.377 182.66 168.672 182.274 168.769 181.952C168.779 181.993 168.803 182.041 168.847 182.091C168.94 182.197 169.074 182.274 169.124 182.231C169.173 182.188 169.124 182.038 169.036 181.929C169.028 181.922 169.023 181.917 169.015 181.909L169.064 181.888C169.279 181.787 169.382 181.543 169.298 181.35C169.211 181.151 168.945 181.087 168.702 181.202Z" fill="black"/>
<path d="M176.83 162.741L176.778 162.748C176.781 162.738 176.783 162.731 176.786 162.72C176.808 162.581 176.777 162.429 176.716 162.413C176.654 162.399 176.578 162.53 176.548 162.667C176.534 162.731 176.536 162.784 176.547 162.825C176.308 162.588 175.887 162.379 175.48 162.302C175.274 162.264 175.103 162.278 174.969 162.329C174.915 162.349 174.852 162.344 174.8 162.313C174.665 162.225 174.489 162.181 174.3 162.21C174.042 162.24 173.837 162.43 173.78 162.65C173.679 163.071 173.981 163.438 174.347 163.48C174.441 163.487 174.533 163.481 174.62 163.45C174.67 163.432 174.726 163.445 174.768 163.483C174.867 163.574 175.01 163.643 175.228 163.683C175.656 163.766 176.262 163.666 176.533 163.428C176.518 163.469 176.513 163.522 176.525 163.586C176.552 163.724 176.651 163.857 176.733 163.843C176.817 163.832 176.843 163.675 176.808 163.539C176.804 163.528 176.802 163.521 176.798 163.511C176.818 163.513 176.838 163.514 176.859 163.513C177.137 163.499 177.335 163.302 177.303 163.087C177.271 162.881 177.06 162.729 176.83 162.741Z" fill="black"/>
<path d="M180.356 161.31L180.314 161.345C180.311 161.335 180.308 161.328 180.304 161.317C180.244 161.19 180.13 161.081 180.066 161.108C180.003 161.135 180.013 161.29 180.07 161.419C180.097 161.479 180.13 161.521 180.164 161.547C179.824 161.499 179.329 161.616 178.988 161.79C178.814 161.881 178.705 161.988 178.635 162.092C178.607 162.136 178.558 162.163 178.506 162.158C178.365 162.15 178.224 162.183 178.094 162.267C177.92 162.392 177.806 162.607 177.809 162.836C177.804 163.27 178.243 163.56 178.69 163.399C178.801 163.363 178.888 163.293 178.96 163.219C179.002 163.174 179.064 163.153 179.125 163.159C179.276 163.18 179.449 163.138 179.657 163.03C180.069 162.819 180.443 162.387 180.514 162.042C180.526 162.084 180.554 162.129 180.602 162.174C180.705 162.271 180.858 162.326 180.913 162.272C180.967 162.217 180.899 162.075 180.793 161.98C180.784 161.974 180.778 161.969 180.769 161.963L180.82 161.934C181.038 161.788 181.085 161.513 180.954 161.348C180.817 161.177 180.559 161.175 180.356 161.31Z" fill="black"/>
<path d="M163.484 173.425L163.501 173.479C163.491 173.478 163.482 173.477 163.471 173.476C163.328 173.48 163.182 173.543 163.184 173.617C163.181 173.643 163.205 173.624 163.257 173.629C163.308 173.629 163.376 173.657 163.447 173.659C163.513 173.665 163.566 173.661 163.607 173.647C163.382 173.858 163.175 174.288 163.111 174.662C163.079 174.852 163.094 174.999 163.142 175.118C163.163 175.167 163.156 175.222 163.12 175.26C163.027 175.365 162.968 175.494 162.967 175.647C162.964 175.85 163.079 176.056 163.269 176.195C163.612 176.469 164.119 176.283 164.244 175.842C164.277 175.734 164.276 175.628 164.258 175.53C164.247 175.472 164.265 175.412 164.305 175.369C164.405 175.266 164.482 175.111 164.519 174.891C164.594 174.456 164.48 173.893 164.219 173.611C164.261 173.624 164.316 173.626 164.38 173.606C164.448 173.582 164.518 173.553 164.559 173.487C164.601 173.427 164.616 173.331 164.6 173.289C164.572 173.228 164.413 173.236 164.283 173.293C164.273 173.298 164.266 173.302 164.257 173.307L164.251 173.254C164.2 173.022 163.986 172.866 163.773 172.905C163.56 172.945 163.431 173.177 163.484 173.425Z" fill="black"/>
<path d="M163.21 169.365L163.209 169.423C163.199 169.418 163.191 169.415 163.181 169.41C163.045 169.368 162.885 169.381 162.864 169.454C162.842 169.527 162.966 169.628 163.103 169.667C163.167 169.685 163.22 169.685 163.264 169.675C163.006 169.907 162.813 170.433 162.828 170.869C162.827 171.091 162.892 171.251 162.971 171.365C163.005 171.412 163.014 171.472 162.993 171.526C162.933 171.669 162.933 171.836 162.996 172.002C163.081 172.229 163.292 172.386 163.53 172.402C163.964 172.43 164.29 172.071 164.25 171.696C164.237 171.601 164.206 171.513 164.16 171.436C164.131 171.391 164.132 171.334 164.159 171.287C164.229 171.174 164.253 171.027 164.255 170.832C164.241 170.449 164.098 169.982 163.875 169.722C163.915 169.738 163.968 169.745 164.035 169.738C164.177 169.722 164.319 169.655 164.311 169.59C164.305 169.525 164.151 169.482 164.01 169.494C163.999 169.496 163.991 169.498 163.981 169.499L163.991 169.448C164.011 169.214 163.87 169 163.657 168.967C163.441 168.933 163.232 169.11 163.21 169.365Z" fill="black"/>
<path d="M164.504 165.476L164.479 165.528C164.472 165.52 164.466 165.514 164.458 165.505C164.352 165.41 164.203 165.357 164.152 165.416C164.102 165.474 164.172 165.618 164.281 165.709C164.331 165.751 164.38 165.774 164.423 165.782C164.249 165.833 164.073 165.963 163.912 166.132C163.745 166.298 163.609 166.508 163.532 166.716C163.448 166.925 163.428 167.095 163.466 167.234C163.479 167.291 163.466 167.351 163.426 167.394C163.324 167.509 163.24 167.663 163.246 167.845C163.248 168.092 163.388 168.314 163.6 168.41C163.998 168.583 164.436 168.364 164.528 168.007C164.556 167.918 164.559 167.827 164.543 167.738C164.533 167.686 164.554 167.634 164.596 167.602C164.694 167.521 164.79 167.404 164.861 167.226C164.927 167.049 164.971 166.842 164.996 166.64C165.015 166.436 165 166.231 164.96 166.073C164.99 166.103 165.036 166.131 165.099 166.152C165.236 166.195 165.392 166.193 165.412 166.131C165.432 166.069 165.31 165.968 165.177 165.92C165.166 165.918 165.158 165.916 165.148 165.913C165.159 165.899 165.17 165.886 165.179 165.871C165.29 165.665 165.265 165.42 165.082 165.298C164.906 165.18 164.629 165.249 164.504 165.476Z" fill="black"/>
<path d="M184.372 162.293L184.366 162.35C184.357 162.345 184.349 162.341 184.339 162.335C184.208 162.279 184.049 162.277 184.02 162.348C183.992 162.42 184.106 162.534 184.238 162.585C184.3 162.609 184.354 162.615 184.397 162.609C184.249 162.712 184.126 162.892 184.029 163.103C183.926 163.313 183.866 163.555 183.861 163.776C183.851 164 183.888 164.168 183.97 164.288C184.001 164.337 184.008 164.398 183.985 164.452C183.927 164.593 183.898 164.765 183.964 164.936C184.046 165.169 184.252 165.334 184.484 165.357C184.918 165.395 185.26 165.047 185.229 164.681C185.226 164.587 185.2 164.5 185.155 164.421C185.129 164.375 185.131 164.32 185.16 164.275C185.227 164.168 185.278 164.027 185.287 163.836C185.291 163.646 185.264 163.436 185.222 163.238C185.173 163.039 185.091 162.849 185.001 162.713C185.04 162.732 185.092 162.744 185.159 162.743C185.302 162.741 185.449 162.688 185.447 162.624C185.446 162.559 185.298 162.502 185.155 162.499C185.144 162.5 185.137 162.501 185.127 162.502C185.132 162.485 185.138 162.469 185.141 162.452C185.179 162.222 185.074 161.998 184.861 161.941C184.655 161.886 184.416 162.038 184.372 162.293Z" fill="black"/>
<path d="M167.326 162.477L167.283 162.514C167.279 162.504 167.277 162.496 167.273 162.486C167.213 162.358 167.096 162.251 167.026 162.284C166.957 162.317 166.965 162.475 167.028 162.6C167.058 162.659 167.093 162.699 167.13 162.723C166.785 162.695 166.257 162.904 165.94 163.21C165.773 163.357 165.694 163.516 165.662 163.653C165.65 163.709 165.611 163.757 165.556 163.779C165.411 163.837 165.273 163.943 165.198 164.111C165.091 164.334 165.12 164.594 165.271 164.77C165.554 165.093 166.049 165.082 166.283 164.795C166.348 164.727 166.392 164.646 166.416 164.56C166.43 164.509 166.472 164.471 166.525 164.459C166.655 164.433 166.778 164.354 166.928 164.224C167.205 163.955 167.464 163.539 167.506 163.199C167.521 163.239 167.552 163.282 167.602 163.326C167.71 163.418 167.857 163.476 167.901 163.427C167.945 163.378 167.874 163.238 167.769 163.143C167.761 163.137 167.754 163.132 167.746 163.126L167.792 163.099C167.983 162.958 168.045 162.705 167.927 162.53C167.805 162.35 167.534 162.323 167.326 162.477Z" fill="black"/>
<path d="M171.063 160.703L171.009 160.723C171.009 160.713 171.01 160.704 171.01 160.693C171.002 160.552 170.932 160.412 170.856 160.419C170.779 160.426 170.728 160.578 170.74 160.717C170.746 160.783 170.765 160.832 170.789 160.868C170.475 160.707 169.905 160.722 169.496 160.899C169.287 160.983 169.152 161.091 169.076 161.212C169.044 161.261 168.991 161.292 168.932 161.293C168.776 161.296 168.61 161.348 168.479 161.475C168.298 161.642 168.229 161.893 168.302 162.111C168.443 162.515 168.909 162.684 169.238 162.5C169.324 162.458 169.395 162.398 169.449 162.325C169.481 162.282 169.535 162.261 169.588 162.269C169.717 162.284 169.868 162.265 170.051 162.193C170.405 162.039 170.795 161.737 170.964 161.446C170.963 161.489 170.976 161.54 171.006 161.599C171.072 161.723 171.186 161.828 171.245 161.797C171.303 161.766 171.289 161.61 171.227 161.484C171.221 161.475 171.217 161.468 171.212 161.459L171.264 161.45C171.494 161.389 171.648 161.185 171.603 160.974C171.558 160.767 171.314 160.637 171.063 160.703Z" fill="black"/>
<path d="M175.215 160.468L175.157 160.465C175.162 160.455 175.165 160.448 175.17 160.438C175.22 160.305 175.214 160.149 175.14 160.125C175.066 160.101 174.957 160.219 174.912 160.352C174.891 160.414 174.888 160.467 174.896 160.509C174.672 160.241 174.137 160.038 173.687 160.041C173.46 160.039 173.293 160.098 173.174 160.173C173.126 160.205 173.063 160.213 173.009 160.191C172.863 160.136 172.69 160.135 172.518 160.195C172.283 160.272 172.126 160.497 172.111 160.724C172.09 161.157 172.453 161.46 172.828 161.43C172.923 161.421 173.011 161.385 173.089 161.339C173.135 161.313 173.192 161.315 173.238 161.343C173.351 161.413 173.498 161.442 173.693 161.444C174.077 161.443 174.552 161.311 174.823 161.108C174.806 161.147 174.796 161.199 174.801 161.265C174.811 161.405 174.872 161.546 174.938 161.541C175.004 161.536 175.054 161.388 175.049 161.248C175.047 161.237 175.046 161.229 175.044 161.22C175.061 161.224 175.078 161.229 175.096 161.232C175.331 161.26 175.559 161.134 175.601 160.923C175.642 160.716 175.475 160.5 175.215 160.468Z" fill="black"/>
<path d="M178.913 160.143L178.863 160.167C178.862 160.157 178.861 160.149 178.86 160.137C178.836 159.999 178.753 159.866 178.682 159.878C178.612 159.89 178.58 160.043 178.605 160.181C178.616 160.245 178.638 160.294 178.665 160.327C178.348 160.193 177.816 160.22 177.454 160.336C177.364 160.364 177.289 160.398 177.246 160.429C177.212 160.449 177.224 160.456 177.218 160.473C177.216 160.49 177.176 160.508 177.159 160.528C177.124 160.562 177.075 160.567 177.034 160.545C176.925 160.481 176.806 160.456 176.66 160.482C176.463 160.518 176.256 160.665 176.162 160.877C175.987 161.266 176.218 161.712 176.715 161.752C176.837 161.761 176.957 161.739 177.059 161.696C177.119 161.668 177.189 161.671 177.248 161.696C177.289 161.71 177.313 161.727 177.379 161.732C177.44 161.737 177.526 161.735 177.569 161.732C177.681 161.726 177.783 161.706 177.894 161.671C178.324 161.532 178.735 161.199 178.885 160.89C178.888 160.933 178.904 160.984 178.939 161.039C179.016 161.158 179.145 161.25 179.206 161.212C179.267 161.174 179.237 161.02 179.161 160.902C179.154 160.893 179.149 160.887 179.142 160.879L179.196 160.864C179.429 160.775 179.553 160.543 179.475 160.344C179.398 160.144 179.145 160.055 178.913 160.143Z" fill="black"/>
<path d="M160.971 170.534L160.983 170.595C160.973 170.593 160.965 170.591 160.953 170.589C160.81 170.573 160.658 170.622 160.655 170.705C160.652 170.788 160.797 170.868 160.939 170.878C161.006 170.883 161.059 170.872 161.098 170.852C160.892 171.155 160.865 171.778 160.953 172.174C160.999 172.387 161.074 172.536 161.168 172.64C161.208 172.683 161.224 172.742 161.208 172.797C161.167 172.944 161.173 173.107 161.239 173.266C161.332 173.483 161.533 173.64 161.766 173.678C162.2 173.759 162.557 173.356 162.48 172.899C162.462 172.786 162.42 172.684 162.361 172.598C162.327 172.547 162.319 172.483 162.339 172.426C162.388 172.287 162.398 172.109 162.35 171.883C162.246 171.414 161.975 170.988 161.704 170.764C161.747 170.772 161.801 170.766 161.864 170.744C161.999 170.696 162.121 170.595 162.098 170.529C162.076 170.463 161.916 170.452 161.781 170.495C161.771 170.5 161.763 170.503 161.754 170.507L161.752 170.451C161.717 170.203 161.545 170.006 161.324 170.015C161.112 170.023 160.933 170.258 160.971 170.534Z" fill="black"/>
<path d="M161.625 166.158L161.607 166.218C161.599 166.21 161.593 166.205 161.584 166.198C161.465 166.117 161.309 166.088 161.266 166.159C161.223 166.23 161.313 166.368 161.433 166.445C161.489 166.48 161.541 166.495 161.585 166.496C161.256 166.664 160.918 167.172 160.816 167.643C160.753 167.878 160.78 168.068 160.828 168.209C160.849 168.266 160.843 168.333 160.809 168.386C160.715 168.526 160.686 168.709 160.709 168.903C160.738 169.166 160.936 169.377 161.16 169.436C161.589 169.541 161.956 169.222 162.003 168.832C162.013 168.732 161.994 168.634 161.969 168.545C161.952 168.491 161.966 168.433 162.004 168.391C162.099 168.29 162.155 168.145 162.209 167.946C162.295 167.551 162.285 167.031 162.159 166.707C162.193 166.734 162.243 166.755 162.309 166.765C162.451 166.786 162.606 166.754 162.618 166.685C162.631 166.616 162.496 166.531 162.356 166.505C162.345 166.504 162.337 166.504 162.327 166.503L162.352 166.452C162.449 166.219 162.385 165.961 162.187 165.868C161.994 165.776 161.732 165.902 161.625 166.158Z" fill="black"/>
<path d="M164.095 162.496L164.056 162.543C164.051 162.534 164.047 162.527 164.042 162.516C163.961 162.401 163.825 162.318 163.759 162.365C163.692 162.411 163.729 162.575 163.812 162.689C163.851 162.742 163.894 162.775 163.934 162.792C163.57 162.832 163.071 163.16 162.784 163.535C162.643 163.728 162.578 163.899 162.564 164.046C162.558 164.106 162.524 164.162 162.471 164.195C162.333 164.284 162.219 164.428 162.156 164.609C162.066 164.853 162.144 165.127 162.316 165.281C162.648 165.569 163.124 165.449 163.348 165.11C163.404 165.023 163.434 164.927 163.446 164.83C163.456 164.775 163.494 164.727 163.548 164.705C163.678 164.65 163.804 164.546 163.929 164.373C164.184 164.04 164.388 163.547 164.39 163.195C164.412 163.232 164.45 163.27 164.507 163.303C164.631 163.374 164.785 163.395 164.827 163.336C164.867 163.275 164.773 163.149 164.651 163.076C164.641 163.071 164.633 163.068 164.624 163.063L164.668 163.025C164.849 162.84 164.872 162.567 164.72 162.415C164.567 162.263 164.288 162.3 164.095 162.496Z" fill="black"/>
<path d="M161.286 175.108L161.296 175.169C161.286 175.166 161.278 175.164 161.266 175.161C161.124 175.144 160.971 175.189 160.963 175.269C160.954 175.349 161.103 175.43 161.244 175.444C161.311 175.452 161.364 175.442 161.404 175.423C161.192 175.718 161.11 176.302 161.205 176.762C161.257 176.994 161.344 177.156 161.446 177.264C161.487 177.308 161.508 177.371 161.497 177.431C161.474 177.591 161.507 177.771 161.603 177.938C161.728 178.166 161.988 178.291 162.219 178.267C162.658 178.214 162.884 177.785 162.776 177.395C162.746 177.296 162.693 177.21 162.628 177.137C162.592 177.093 162.582 177.033 162.6 176.979C162.645 176.847 162.65 176.685 162.602 176.478C162.519 176.07 162.279 175.592 162.013 175.357C162.056 175.366 162.11 175.363 162.174 175.343C162.31 175.299 162.428 175.199 162.411 175.13C162.391 175.06 162.233 175.045 162.096 175.086C162.086 175.09 162.078 175.093 162.069 175.097L162.069 175.04C162.049 174.784 161.857 174.585 161.64 174.596C161.424 174.607 161.265 174.836 161.286 175.108Z" fill="black"/>
<path d="M167.559 159.737L167.505 159.77C167.504 159.759 167.502 159.751 167.5 159.74C167.46 159.605 167.356 159.485 167.276 159.511C167.197 159.54 167.18 159.705 167.225 159.839C167.246 159.902 167.277 159.946 167.31 159.973C166.95 159.907 166.36 160.083 165.987 160.375C165.793 160.517 165.683 160.662 165.632 160.802C165.61 160.858 165.562 160.904 165.503 160.921C165.343 160.964 165.194 161.066 165.085 161.221C164.935 161.431 164.916 161.7 165.034 161.903C165.253 162.277 165.76 162.315 166.076 162.04C166.154 161.968 166.217 161.889 166.258 161.8C166.282 161.748 166.333 161.712 166.39 161.704C166.529 161.683 166.681 161.616 166.854 161.49C167.186 161.23 167.518 160.827 167.623 160.492C167.633 160.534 167.658 160.581 167.702 160.63C167.799 160.734 167.939 160.802 167.993 160.756C168.047 160.712 167.998 160.564 167.905 160.456C167.897 160.449 167.891 160.443 167.883 160.436L167.936 160.414C168.161 160.295 168.27 160.045 168.18 159.855C168.087 159.659 167.808 159.605 167.559 159.737Z" fill="black"/>
<path d="M171.886 158.58L171.825 158.59C171.827 158.579 171.83 158.571 171.833 158.56C171.854 158.421 171.812 158.269 171.731 158.262C171.65 158.254 171.563 158.392 171.545 158.531C171.536 158.596 171.544 158.649 171.563 158.689C171.269 158.472 170.672 158.378 170.197 158.471C169.957 158.513 169.79 158.608 169.678 158.706C169.633 158.747 169.569 158.768 169.507 158.757C169.342 158.738 169.156 158.772 168.985 158.868C168.754 159.007 168.629 159.257 168.661 159.484C168.729 159.914 169.171 160.125 169.556 160.014C169.655 159.984 169.74 159.934 169.812 159.868C169.856 159.833 169.917 159.823 169.971 159.841C170.105 159.887 170.263 159.884 170.473 159.848C170.882 159.769 171.37 159.544 171.616 159.289C171.605 159.331 171.607 159.384 171.626 159.447C171.668 159.582 171.766 159.707 171.837 159.688C171.908 159.669 171.927 159.513 171.889 159.378C171.885 159.367 171.882 159.36 171.878 159.351L171.936 159.351C172.196 159.33 172.404 159.16 172.398 158.944C172.392 158.734 172.163 158.558 171.886 158.58Z" fill="black"/>
<path d="M168.592 157.034L168.535 157.057C168.535 157.046 168.535 157.038 168.536 157.027C168.524 156.886 168.448 156.748 168.367 156.759C168.286 156.769 168.234 156.924 168.249 157.064C168.256 157.129 168.276 157.178 168.303 157.213C167.967 157.068 167.363 157.112 166.923 157.309C166.699 157.404 166.558 157.534 166.473 157.655C166.438 157.705 166.381 157.74 166.318 157.744C166.153 157.762 165.98 157.837 165.836 157.969C165.643 158.156 165.58 158.428 165.664 158.642C165.831 159.045 166.31 159.151 166.659 158.956C166.748 158.904 166.82 158.836 166.875 158.756C166.909 158.711 166.966 158.688 167.023 158.693C167.164 158.708 167.318 158.67 167.513 158.587C167.893 158.417 168.315 158.088 168.495 157.785C168.495 157.828 168.508 157.88 168.542 157.937C168.613 158.059 168.739 158.158 168.803 158.123C168.868 158.089 168.85 157.932 168.781 157.809C168.775 157.8 168.77 157.794 168.764 157.786L168.821 157.773C169.069 157.694 169.232 157.481 169.175 157.272C169.12 157.069 168.857 156.95 168.592 157.034Z" fill="black"/>
<path d="M176.278 158.74L176.218 158.741C176.222 158.731 176.225 158.724 176.229 158.713C176.267 158.577 176.246 158.422 176.172 158.404C176.099 158.386 176 158.511 175.96 158.646C175.942 158.709 175.942 158.763 175.953 158.804C175.701 158.551 175.175 158.347 174.725 158.313C174.496 158.295 174.322 158.326 174.19 158.389C174.137 158.415 174.071 158.416 174.017 158.388C173.874 158.314 173.698 158.281 173.497 158.318C173.242 158.374 173.04 158.558 172.984 158.783C172.877 159.204 173.233 159.571 173.637 159.585C173.742 159.59 173.844 159.572 173.938 159.537C173.994 159.516 174.057 159.524 174.106 159.558C174.223 159.639 174.387 159.695 174.615 159.712C175.062 159.746 175.625 159.625 175.913 159.406C175.895 159.446 175.888 159.498 175.898 159.563C175.918 159.703 176.004 159.84 176.083 159.831C176.162 159.822 176.202 159.67 176.18 159.531C176.177 159.52 176.175 159.513 176.172 159.503L176.232 159.511C176.506 159.527 176.737 159.361 176.742 159.148C176.747 158.934 176.542 158.755 176.278 158.74Z" fill="black"/>
<path d="M150.376 176.267C150.352 176.347 150.277 176.399 150.193 176.409C149.017 176.545 148.331 176.7 147.806 176.975C147.292 177.223 146.99 177.544 146.995 177.643C147 177.742 147.342 178.049 148.019 178.1C148.187 178.119 148.371 178.093 148.573 178.063C148.775 178.037 148.989 177.973 149.206 177.868C149.426 177.773 149.651 177.643 149.861 177.458C150.079 177.29 150.278 177.065 150.452 176.802C150.501 176.729 150.59 176.689 150.678 176.69C150.995 176.686 151.336 176.643 151.467 176.543C151.593 176.432 151.503 176.296 151.041 176.083C150.868 175.597 150.725 175.512 150.634 175.605C150.534 175.693 150.456 175.964 150.376 176.267Z" fill="black"/>
<path d="M152.95 172.373C152.987 172.449 152.976 172.54 152.924 172.604C152.134 173.492 151.78 174.105 151.579 174.642C151.387 175.163 151.398 175.609 151.469 175.678C151.541 175.748 152 175.732 152.526 175.305C153.049 174.899 153.574 173.967 153.384 172.725C153.367 172.638 153.396 172.548 153.462 172.492C153.967 172.074 154.326 171.525 153.333 171.803C152.433 171.298 152.696 171.826 152.95 172.373Z" fill="black"/>
<path d="M152.717 167.651C152.787 167.696 152.823 167.779 152.812 167.862C152.641 169.023 152.677 169.754 152.857 170.321C153.009 170.872 153.306 171.213 153.408 171.223C153.508 171.232 153.846 170.941 154.02 170.307C154.174 169.695 154.112 168.668 153.264 167.719C153.206 167.654 153.185 167.561 153.212 167.477C153.386 166.865 153.409 166.185 152.719 166.97C151.708 167.033 152.182 167.337 152.717 167.651Z" fill="black"/>
<path d="M149.661 164.13C149.743 164.115 149.834 164.139 149.879 164.214C150.545 165.182 150.996 165.702 151.482 166.034C151.701 166.21 151.924 166.32 152.103 166.384C152.271 166.456 152.401 166.475 152.447 166.45C152.49 166.426 152.542 166.307 152.56 166.11C152.566 165.92 152.528 165.655 152.407 165.341C152.26 165.047 152.039 164.692 151.649 164.405C151.276 164.106 150.741 163.877 150.112 163.807C150.027 163.791 149.941 163.75 149.901 163.671C149.606 163.085 149.119 162.62 149.187 163.635C148.497 164.393 149.064 164.244 149.661 164.13Z" fill="black"/>
<path d="M144.953 163.592C145.005 163.527 145.092 163.492 145.174 163.515C146.321 163.829 147.051 163.883 147.633 163.817C148.202 163.739 148.592 163.552 148.626 163.443C148.653 163.363 148.434 162.944 147.812 162.687C147.213 162.416 146.148 162.347 145.083 163.055C145.009 163.104 144.915 163.123 144.834 163.089C144.225 162.827 143.547 162.781 144.265 163.514C144.236 164.53 144.57 164.056 144.953 163.592Z" fill="black"/>
<path d="M141.119 166.255C141.112 166.173 141.156 166.093 141.229 166.051C142.26 165.475 142.825 165.071 143.209 164.639C143.577 164.213 143.759 163.83 143.71 163.723C143.69 163.678 143.576 163.619 143.381 163.591C143.186 163.56 142.905 163.559 142.587 163.672C141.956 163.86 141.077 164.534 140.837 165.786C140.821 165.873 140.76 165.946 140.675 165.977C140.07 166.216 139.523 166.628 140.573 166.673C141.254 167.416 141.191 166.857 141.119 166.255Z" fill="black"/>
<path d="M139.981 170.823C139.926 170.76 139.914 170.669 139.947 170.593C140.441 169.514 140.6 168.799 140.583 168.215C140.581 167.648 140.419 167.243 140.325 167.204C140.233 167.164 139.802 167.336 139.462 167.909C139.139 168.466 138.928 169.47 139.471 170.603C139.51 170.681 139.506 170.775 139.456 170.847C139.268 171.11 139.123 171.403 139.143 171.561C139.159 171.721 139.323 171.729 139.77 171.475C140.268 171.612 140.423 171.547 140.401 171.415C140.372 171.28 140.176 171.058 139.981 170.823Z" fill="black"/>
<path d="M141.614 175.222C141.531 175.205 141.465 175.141 141.445 175.062C141.199 173.925 140.959 173.256 140.636 172.766C140.314 172.293 139.969 172.032 139.855 172.053C139.77 172.067 139.488 172.445 139.525 173.103C139.54 173.74 139.927 174.742 141.07 175.35C141.151 175.389 141.205 175.467 141.211 175.554C141.224 175.879 141.307 176.199 141.426 176.314C141.543 176.433 141.672 176.335 141.857 175.858C142.328 175.655 142.403 175.506 142.306 175.42C142.203 175.334 141.91 175.291 141.614 175.222Z" fill="black"/>
<path d="M145.776 177.365C145.705 177.407 145.613 177.402 145.543 177.355C144.552 176.704 143.924 176.397 143.354 176.268C142.803 176.136 142.371 176.161 142.301 176.245C142.242 176.313 142.278 176.783 142.767 177.255C143.233 177.713 144.236 178.167 145.477 177.819C145.563 177.795 145.656 177.817 145.722 177.879C146.209 178.292 146.82 178.612 146.401 177.658C146.782 176.737 146.295 177.021 145.776 177.365Z" fill="black"/>
<path d="M150.377 180.796C150.334 180.865 150.253 180.902 150.173 180.891C149.603 180.82 149.13 180.764 148.745 180.824C148.349 180.835 148.029 180.921 147.767 181.038C147.242 181.239 146.948 181.551 146.95 181.658C146.953 181.751 147.272 182.063 147.886 182.176C148.19 182.216 148.569 182.207 148.994 182.106C149.408 181.957 149.883 181.756 150.318 181.337C150.38 181.278 150.467 181.257 150.548 181.284C150.841 181.382 151.156 181.459 151.298 181.408C151.439 181.35 151.402 181.191 151.047 180.837C151.036 180.326 150.935 180.196 150.818 180.256C150.696 180.311 150.535 180.539 150.377 180.796Z" fill="black"/>
<path d="M154.289 178.409C154.28 178.488 154.221 178.553 154.143 178.576C153.861 178.658 153.624 178.751 153.411 178.846C153.186 178.925 152.994 179.015 152.827 179.113C152.502 179.321 152.229 179.495 152.042 179.708C151.856 179.919 151.725 180.119 151.64 180.272C151.56 180.431 151.536 180.556 151.558 180.603C151.579 180.647 151.693 180.707 151.88 180.743C152.071 180.785 152.329 180.786 152.626 180.696C152.922 180.607 153.288 180.476 153.608 180.168C153.772 180.022 153.936 179.849 154.092 179.649C154.234 179.435 154.362 179.185 154.473 178.913C154.504 178.836 154.576 178.782 154.663 178.773C155.279 178.687 155.872 178.454 154.892 178.139C154.406 177.256 154.335 177.815 154.289 178.409Z" fill="black"/>
<path d="M156.705 174.548C156.735 174.624 156.716 174.709 156.659 174.766C156.22 175.151 155.936 175.504 155.712 175.82C155.476 176.129 155.374 176.443 155.28 176.701C155.105 177.219 155.18 177.656 155.262 177.72C155.339 177.781 155.767 177.727 156.254 177.327C156.5 177.131 156.704 176.817 156.889 176.425C157.061 176.027 157.142 175.511 157.105 174.929C157.095 174.845 157.131 174.763 157.201 174.718C157.719 174.381 158.186 173.94 157.147 174.054C156.344 173.458 156.487 173.989 156.705 174.548Z" fill="black"/>
<path d="M157.384 170.03C157.439 170.091 157.452 170.178 157.419 170.251C157.165 170.769 157.001 171.205 156.945 171.589C156.851 171.969 156.849 172.297 156.894 172.578C156.954 173.129 157.18 173.49 157.286 173.516C157.377 173.539 157.77 173.32 158.041 172.766C158.161 172.489 158.253 172.13 158.268 171.702C158.244 171.274 158.156 170.775 157.894 170.245C157.855 170.171 157.86 170.082 157.909 170.016C158.273 169.522 158.553 168.956 157.62 169.414C156.654 169.125 156.98 169.582 157.384 170.03Z" fill="black"/>
<path d="M156.427 165.568C156.501 165.605 156.545 165.681 156.541 165.76C156.497 166.329 156.5 166.79 156.574 167.168C156.619 167.554 156.734 167.862 156.875 168.109C157.108 168.611 157.461 168.873 157.566 168.862C157.663 168.852 157.941 168.517 158.019 167.904C158.033 167.603 157.993 167.234 157.856 166.826C157.689 166.427 157.425 165.984 156.982 165.584C156.918 165.529 156.889 165.444 156.91 165.364C156.989 165.069 157.037 164.758 156.981 164.62C156.915 164.484 156.758 164.531 156.419 164.908C155.907 164.953 155.782 165.061 155.847 165.174C155.906 165.292 156.156 165.431 156.427 165.568Z" fill="black"/>
<path d="M153.729 161.897C153.81 161.9 153.88 161.953 153.91 162.028C154.338 163.074 154.753 163.66 155.204 164.01C155.654 164.349 156.043 164.48 156.146 164.423C156.22 164.383 156.384 163.943 156.166 163.368C156.049 163.088 155.899 162.732 155.563 162.442C155.402 162.291 155.214 162.144 155 162.006C154.783 161.871 154.511 161.772 154.229 161.681C154.148 161.656 154.087 161.59 154.072 161.505C153.95 160.899 153.664 160.344 153.416 161.322C152.549 161.864 153.13 161.884 153.729 161.897Z" fill="black"/>
<path d="M149.646 159.799C149.721 159.763 149.81 159.775 149.871 159.826C150.713 160.618 151.374 160.915 151.929 161.043C152.468 161.177 152.911 161.065 152.965 160.989C153.026 160.901 152.937 160.493 152.496 160.044C152.063 159.611 151.194 159.21 150.003 159.377C149.918 159.393 149.833 159.364 149.781 159.299C149.4 158.82 148.916 158.398 149.111 159.406C148.567 160.241 149.095 160.058 149.646 159.799Z" fill="black"/>
<path d="M145.019 159.497C145.076 159.437 145.162 159.417 145.239 159.442C145.785 159.654 146.237 159.759 146.63 159.798C147.022 159.858 147.355 159.831 147.635 159.763C148.187 159.673 148.538 159.41 148.556 159.308C148.573 159.214 148.319 158.858 147.737 158.624C147.446 158.53 147.074 158.47 146.639 158.492C146.205 158.536 145.703 158.682 145.19 158.977C145.117 159.023 145.027 159.027 144.955 158.984C144.419 158.678 143.81 158.46 144.373 159.327C144.184 160.299 144.606 159.937 145.019 159.497Z" fill="black"/>
<path d="M140.66 160.984C140.687 160.908 140.758 160.856 140.839 160.849C141.404 160.782 141.881 160.75 142.242 160.613C142.617 160.508 142.917 160.376 143.146 160.206C143.615 159.904 143.845 159.547 143.821 159.441C143.802 159.352 143.427 159.099 142.799 159.115C142.492 159.14 142.115 159.21 141.724 159.412C141.348 159.643 140.92 159.931 140.596 160.447C140.549 160.517 140.467 160.556 140.382 160.546C139.741 160.46 139.135 160.588 140.005 161.1C140.283 162.085 140.456 161.521 140.66 160.984Z" fill="black"/>
<path d="M137.424 164.2C137.411 164.119 137.443 164.037 137.519 163.999C138.04 163.721 138.376 163.428 138.679 163.18C138.823 163.05 138.939 162.917 139.036 162.784C139.138 162.657 139.23 162.541 139.299 162.42C139.441 162.183 139.513 161.949 139.549 161.772C139.592 161.602 139.587 161.476 139.555 161.436C139.524 161.398 139.398 161.363 139.205 161.369C139.018 161.382 138.774 161.449 138.496 161.593C138.359 161.667 138.207 161.755 138.067 161.877C137.932 162.005 137.797 162.157 137.668 162.334C137.394 162.674 137.219 163.174 137.118 163.747C137.102 163.826 137.054 163.901 136.975 163.931C136.404 164.158 135.858 164.501 136.896 164.597C137.561 165.344 137.525 164.795 137.424 164.2Z" fill="black"/>
<path d="M135.894 168.495C135.85 168.425 135.853 168.337 135.899 168.271C136.233 167.804 136.477 167.408 136.604 167.043C136.767 166.689 136.829 166.369 136.838 166.086C136.899 165.542 136.737 165.137 136.641 165.092C136.554 165.05 136.139 165.193 135.749 165.682C135.579 165.934 135.42 166.272 135.324 166.692C135.267 167.12 135.257 167.63 135.429 168.197C135.455 168.277 135.434 168.363 135.374 168.421C134.929 168.847 134.553 169.361 135.553 169.062C136.453 169.504 136.213 169.003 135.894 168.495Z" fill="black"/>
<path d="M136.025 173.066C135.959 173.015 135.931 172.932 135.95 172.855C136.12 172.302 136.188 171.849 136.193 171.459C136.219 171.068 136.162 170.743 136.069 170.474C135.92 169.938 135.624 169.622 135.517 169.615C135.421 169.609 135.082 169.893 134.906 170.482C134.837 170.774 134.809 171.142 134.87 171.565C134.951 171.985 135.142 172.463 135.483 172.942C135.535 173.008 135.547 173.096 135.51 173.171C135.242 173.721 135.071 174.332 135.904 173.713C136.905 173.822 136.504 173.436 136.025 173.066Z" fill="black"/>
<path d="M137.852 177.239C137.772 177.218 137.715 177.152 137.702 177.073C137.649 176.787 137.602 176.538 137.56 176.314C137.509 176.086 137.444 175.887 137.367 175.711C137.239 175.347 137.076 175.065 136.888 174.851C136.55 174.411 136.166 174.214 136.062 174.245C135.972 174.272 135.75 174.657 135.807 175.271C135.854 175.571 135.957 175.932 136.183 176.303C136.309 176.482 136.461 176.665 136.643 176.844C136.817 177.027 137.041 177.195 137.31 177.338C137.384 177.38 137.429 177.457 137.425 177.541C137.382 178.173 137.543 178.764 138.01 177.877C138.99 177.543 138.414 177.404 137.852 177.239Z" fill="black"/>
<path d="M141.32 180.212C141.236 180.234 141.155 180.2 141.111 180.129C140.791 179.642 140.478 179.325 140.205 179.046C140.063 178.914 139.92 178.809 139.78 178.723C139.651 178.624 139.521 178.546 139.395 178.485C138.883 178.253 138.458 178.228 138.381 178.296C138.307 178.361 138.263 178.809 138.607 179.326C138.69 179.456 138.793 179.594 138.92 179.731C139.058 179.855 139.222 179.977 139.41 180.091C139.775 180.337 140.29 180.484 140.881 180.539C140.963 180.549 141.039 180.599 141.076 180.67C141.346 181.214 141.734 181.725 141.759 180.701C142.471 179.996 141.917 180.071 141.32 180.212Z" fill="black"/>
<path d="M145.783 181.386C145.716 181.434 145.627 181.439 145.557 181.4C145.056 181.11 144.635 180.906 144.257 180.808C143.887 180.676 143.558 180.64 143.271 180.654C142.718 180.63 142.316 180.822 142.278 180.918C142.242 181.008 142.417 181.4 142.942 181.751C143.21 181.899 143.567 182.028 144.001 182.089C144.44 182.115 144.96 182.081 145.52 181.866C145.599 181.834 145.689 181.847 145.752 181.902C146.222 182.301 146.777 182.626 146.387 181.672C146.755 180.752 146.271 181.029 145.783 181.386Z" fill="black"/>
<path d="M149.07 179.192C149.022 179.259 148.937 179.293 148.856 179.28C148.273 179.149 147.814 179.114 147.412 179.09C147.015 179.095 146.682 179.127 146.402 179.2C145.846 179.365 145.5 179.593 145.487 179.71C145.482 179.758 145.547 179.869 145.693 179.995C145.838 180.126 146.063 180.266 146.375 180.343C146.684 180.431 147.078 180.483 147.531 180.391C147.983 180.328 148.49 180.101 148.975 179.733C149.042 179.676 149.134 179.658 149.215 179.689C149.821 179.928 150.472 179.97 149.751 179.25C149.752 178.233 149.424 178.716 149.07 179.192Z" fill="black"/>
<path d="M153.024 176.709C153.02 176.791 152.963 176.86 152.885 176.889C151.799 177.326 151.185 177.703 150.795 178.131C150.402 178.53 150.251 178.947 150.288 179.033C150.331 179.13 150.749 179.282 151.386 179.116C151.701 179.034 152.05 178.839 152.398 178.543C152.561 178.381 152.723 178.192 152.874 177.976C153.023 177.759 153.134 177.486 153.236 177.204C153.264 177.123 153.337 177.064 153.422 177.046C154.03 176.896 154.639 176.615 153.616 176.383C153.075 175.543 153.023 176.094 153.024 176.709Z" fill="black"/>
<path d="M155.1 172.522C155.137 172.597 155.13 172.687 155.077 172.75C154.674 173.196 154.437 173.592 154.234 173.937C154.061 174.293 153.94 174.6 153.886 174.88C153.787 175.441 153.848 175.849 153.947 175.913C154.016 175.96 154.493 175.888 154.917 175.409C155.359 174.955 155.749 174.06 155.539 172.863C155.522 172.78 155.547 172.691 155.612 172.636C156.087 172.23 156.502 171.724 155.482 171.963C154.616 171.448 154.819 171.976 155.1 172.522Z" fill="black"/>
<path d="M155.157 167.847C155.222 167.898 155.26 167.981 155.232 168.062C155.147 168.347 155.09 168.602 155.058 168.836C155.02 169.069 154.979 169.285 154.974 169.482C154.973 169.875 154.977 170.209 155.058 170.487C155.203 171.041 155.448 171.384 155.563 171.398C155.649 171.409 156.036 171.142 156.22 170.538C156.41 169.95 156.422 168.972 155.699 167.971C155.655 167.9 155.633 167.811 155.669 167.733C155.921 167.16 156.055 166.516 155.254 167.181C154.245 167.105 154.666 167.476 155.157 167.847Z" fill="black"/>
<path d="M152.915 163.786C152.997 163.796 153.065 163.854 153.091 163.932C153.431 165.038 153.803 165.647 154.185 166.078C154.585 166.484 154.958 166.679 155.064 166.641C155.148 166.611 155.373 166.197 155.229 165.572C155.124 164.952 154.593 164.082 153.436 163.61C153.355 163.578 153.297 163.506 153.286 163.42C153.199 162.788 152.919 162.206 152.63 163.179C151.729 163.67 152.315 163.72 152.915 163.786Z" fill="black"/>
<path d="M148.787 161.561C148.864 161.522 148.955 161.533 149.017 161.592C149.914 162.348 150.556 162.696 151.13 162.822C151.676 162.967 152.113 162.905 152.18 162.818C152.236 162.746 152.174 162.302 151.72 161.836C151.268 161.4 150.374 160.931 149.14 161.14C149.055 161.149 148.967 161.121 148.911 161.059C148.501 160.59 147.982 160.179 148.223 161.183C147.697 162.033 148.23 161.835 148.787 161.561Z" fill="black"/>
<path d="M144.066 161.612C144.114 161.544 144.198 161.511 144.279 161.524C144.863 161.654 145.321 161.692 145.722 161.715C146.118 161.707 146.451 161.685 146.731 161.607C147.286 161.452 147.634 161.216 147.648 161.102C147.66 161.019 147.387 160.632 146.763 160.464C146.159 160.275 145.143 160.313 144.16 161.071C144.093 161.128 144.002 161.146 143.92 161.116C143.314 160.879 142.662 160.836 143.385 161.554C143.386 162.571 143.713 162.091 144.066 161.612Z" fill="black"/>
<path d="M140.119 164.105C140.122 164.024 140.179 163.955 140.258 163.925C141.342 163.486 141.955 163.106 142.344 162.678C142.543 162.481 142.675 162.275 142.756 162.105C142.839 161.942 142.871 161.823 142.848 161.775C142.805 161.678 142.386 161.524 141.75 161.694C141.434 161.776 141.087 161.974 140.739 162.27C140.577 162.432 140.416 162.622 140.266 162.838C140.116 163.055 140.007 163.329 139.905 163.611C139.878 163.691 139.805 163.751 139.72 163.769C139.112 163.921 138.504 164.202 139.527 164.433C140.07 165.272 140.12 164.72 140.119 164.105Z" fill="black"/>
<path d="M138.046 168.295C138.009 168.22 138.016 168.13 138.069 168.066C138.471 167.621 138.708 167.225 138.911 166.879C139.084 166.523 139.205 166.216 139.259 165.936C139.358 165.375 139.296 164.967 139.197 164.903C139.128 164.856 138.651 164.928 138.228 165.407C137.786 165.862 137.397 166.757 137.607 167.954C137.624 168.037 137.599 168.126 137.534 168.18C137.058 168.587 136.644 169.093 137.664 168.853C138.53 169.368 138.327 168.84 138.046 168.295Z" fill="black"/>
<path d="M137.988 172.971C137.922 172.919 137.884 172.836 137.913 172.755C137.998 172.47 138.055 172.215 138.087 171.982C138.126 171.748 138.167 171.532 138.172 171.335C138.173 170.942 138.169 170.608 138.088 170.33C137.943 169.776 137.698 169.433 137.583 169.419C137.497 169.408 137.11 169.675 136.926 170.279C136.736 170.867 136.724 171.844 137.446 172.846C137.49 172.917 137.511 173.006 137.475 173.084C137.223 173.657 137.087 174.3 137.89 173.636C138.899 173.714 138.478 173.342 137.988 172.971Z" fill="black"/>
<path d="M140.22 177.037C140.138 177.027 140.07 176.969 140.044 176.89C139.707 175.784 139.338 175.174 138.956 174.742C138.557 174.334 138.185 174.139 138.078 174.176C137.994 174.206 137.769 174.62 137.911 175.245C138.014 175.865 138.543 176.736 139.698 177.211C139.779 177.243 139.837 177.316 139.848 177.402C139.935 178.033 140.211 178.619 140.504 177.645C141.404 177.157 140.821 177.103 140.22 177.037Z" fill="black"/>
<path d="M144.346 179.257C144.27 179.293 144.177 179.288 144.115 179.231C143.219 178.469 142.573 178.136 142.003 178.004C141.456 177.861 141.021 177.919 140.954 178.006C140.898 178.077 140.957 178.525 141.412 178.989C141.861 179.431 142.764 179.887 143.995 179.684C144.079 179.673 144.17 179.694 144.225 179.76C144.637 180.23 145.159 180.641 144.911 179.635C145.429 178.785 144.901 178.983 144.346 179.257Z" fill="black"/>
<path d="M117.348 160.653C117.582 159.422 116.37 158.099 115.027 158.698C114.984 158.71 114.929 158.761 114.982 158.802C116.011 159.418 116.466 160.849 116.011 162.045C116.003 162.078 116.014 162.093 116.032 162.101C116.039 162.119 116.053 162.131 116.081 162.122C117.158 161.617 118.448 162.12 119.003 163.264C119.043 163.324 119.084 163.26 119.097 163.214C119.632 161.725 118.456 160.394 117.348 160.653Z" fill="black"/>
<path d="M122.568 153.659C122.801 152.428 121.59 151.105 120.246 151.704C120.203 151.716 120.149 151.767 120.201 151.808C121.231 152.424 121.686 153.855 121.231 155.051C121.223 155.084 121.234 155.099 121.252 155.106C121.259 155.124 121.273 155.137 121.3 155.128C122.378 154.623 123.667 155.126 124.223 156.27C124.263 156.33 124.304 156.266 124.317 156.22C124.852 154.731 123.675 153.4 122.568 153.659Z" fill="black"/>
<path d="M132.786 152.104C133.019 150.873 131.808 149.55 130.464 150.149C130.422 150.161 130.367 150.212 130.419 150.253C131.449 150.869 131.904 152.299 131.449 153.496C131.441 153.529 131.452 153.544 131.47 153.551C131.477 153.569 131.491 153.582 131.518 153.573C132.596 153.068 133.885 153.571 134.441 154.714C134.481 154.774 134.522 154.71 134.535 154.664C135.07 153.176 133.893 151.845 132.786 152.104Z" fill="black"/>
<path d="M112.525 166.195C112.759 164.964 111.547 163.641 110.204 164.24C110.161 164.252 110.106 164.303 110.159 164.344C111.188 164.96 111.643 166.391 111.188 167.587C111.18 167.62 111.191 167.635 111.209 167.643C111.216 167.661 111.23 167.673 111.258 167.664C112.335 167.159 113.625 167.662 114.18 168.806C114.22 168.866 114.261 168.802 114.274 168.756C114.809 167.267 113.633 165.936 112.525 166.195Z" fill="black"/>
<path d="M107.388 175.284C107.622 174.054 106.41 172.73 105.067 173.329C105.024 173.341 104.969 173.393 105.022 173.433C106.051 174.05 106.506 175.48 106.051 176.676C106.043 176.709 106.054 176.725 106.072 176.732C106.079 176.75 106.093 176.762 106.121 176.754C107.198 176.249 108.488 176.752 109.043 177.895C109.083 177.955 109.124 177.891 109.137 177.845C109.672 176.356 108.496 175.026 107.388 175.284Z" fill="black"/>
<path d="M123.931 186.507C124.164 185.277 122.953 183.954 121.609 184.553C121.567 184.565 121.512 184.616 121.564 184.657C122.594 185.273 123.049 186.703 122.594 187.899C122.586 187.932 122.597 187.948 122.615 187.955C122.622 187.973 122.636 187.985 122.663 187.977C123.741 187.472 125.03 187.975 125.586 189.118C125.626 189.178 125.667 189.114 125.68 189.068C126.215 187.58 125.038 186.249 123.931 186.507Z" fill="black"/>
<path d="M121.619 160.653C121.852 159.422 120.64 158.099 119.297 158.698C119.254 158.71 119.199 158.761 119.252 158.802C120.281 159.418 120.736 160.849 120.281 162.045C120.273 162.078 120.285 162.093 120.302 162.101C120.31 162.119 120.323 162.131 120.351 162.122C121.429 161.617 122.718 162.12 123.273 163.264C123.313 163.324 123.354 163.26 123.367 163.214C123.902 161.725 122.726 160.394 121.619 160.653Z" fill="black"/>
<path d="M125.889 160.653C126.122 159.422 124.911 158.099 123.567 158.698C123.524 158.71 123.47 158.761 123.522 158.802C124.552 159.418 125.007 160.849 124.551 162.045C124.544 162.078 124.555 162.093 124.573 162.101C124.58 162.119 124.594 162.131 124.621 162.122C125.699 161.617 126.988 162.12 127.544 163.264C127.584 163.324 127.625 163.26 127.638 163.214C128.173 161.725 126.996 160.394 125.889 160.653Z" fill="black"/>
<path d="M130.159 160.653C130.393 159.422 129.181 158.099 127.837 158.698C127.794 158.71 127.74 158.761 127.792 158.802C128.822 159.418 129.277 160.849 128.822 162.045C128.814 162.078 128.825 162.093 128.843 162.101C128.85 162.119 128.864 162.131 128.891 162.122C129.969 161.617 131.259 162.12 131.814 163.264C131.854 163.324 131.895 163.26 131.908 163.214C132.443 161.725 131.267 160.394 130.159 160.653Z" fill="black"/>
<path d="M117.263 179.957C117.506 178.726 116.246 177.403 114.85 178.002C114.806 178.014 114.749 178.065 114.803 178.106C115.873 178.722 116.346 180.152 115.873 181.349C115.865 181.382 115.877 181.397 115.895 181.404C115.903 181.423 115.917 181.435 115.945 181.426C117.066 180.921 118.406 181.424 118.983 182.567C119.024 182.628 119.067 182.563 119.081 182.517C119.636 181.029 118.414 179.698 117.263 179.957Z" fill="black"/>
<path d="M121.701 179.957C121.944 178.726 120.685 177.403 119.288 178.002C119.244 178.014 119.187 178.065 119.241 178.106C120.311 178.722 120.784 180.152 120.311 181.349C120.303 181.382 120.315 181.397 120.333 181.404C120.341 181.423 120.355 181.435 120.384 181.426C121.504 180.921 122.844 181.424 123.421 182.567C123.463 182.628 123.505 182.563 123.519 182.517C124.075 181.029 122.852 179.698 121.701 179.957Z" fill="black"/>
<path d="M126.139 179.957C126.382 178.726 125.122 177.403 123.726 178.002C123.682 178.014 123.625 178.065 123.679 178.106C124.749 178.722 125.222 180.152 124.749 181.349C124.741 181.382 124.753 181.397 124.771 181.404C124.779 181.423 124.794 181.435 124.821 181.426C125.942 180.921 127.282 181.424 127.859 182.567C127.9 182.628 127.943 182.563 127.956 182.517C128.512 181.029 127.29 179.698 126.139 179.957Z" fill="black"/>
<path d="M130.577 179.957C130.82 178.726 129.561 177.403 128.164 178.002C128.12 178.014 128.063 178.065 128.117 178.106C129.187 178.722 129.66 180.152 129.187 181.349C129.179 181.382 129.191 181.397 129.209 181.404C129.217 181.423 129.232 181.435 129.26 181.426C130.38 180.921 131.72 181.424 132.297 182.567C132.339 182.628 132.381 182.563 132.395 182.517C132.951 181.029 131.728 179.698 130.577 179.957Z" fill="black"/>
<path d="M118.741 175.303C119.042 174.148 117.822 172.947 116.377 173.543C116.331 173.555 116.271 173.605 116.325 173.641C117.384 174.188 117.801 175.51 117.267 176.639C117.257 176.67 117.269 176.684 117.287 176.691C117.294 176.707 117.308 176.718 117.337 176.709C118.498 176.209 119.836 176.642 120.372 177.694C120.411 177.749 120.457 177.688 120.473 177.644C121.104 176.24 119.922 175.031 118.741 175.303Z" fill="black"/>
<path d="M121.342 172.852C121.643 171.697 120.423 170.495 118.978 171.092C118.932 171.104 118.872 171.153 118.926 171.19C119.985 171.737 120.402 173.059 119.868 174.188C119.858 174.219 119.87 174.233 119.888 174.239C119.895 174.256 119.909 174.267 119.938 174.258C121.098 173.757 122.437 174.191 122.972 175.242C123.012 175.297 123.058 175.237 123.074 175.193C123.705 173.789 122.523 172.58 121.342 172.852Z" fill="black"/>
<path d="M123.943 170.401C124.244 169.246 123.024 168.045 121.578 168.641C121.533 168.653 121.473 168.703 121.527 168.739C122.586 169.286 123.002 170.608 122.469 171.737C122.459 171.768 122.47 171.783 122.489 171.788C122.495 171.805 122.51 171.816 122.538 171.807C123.699 171.307 125.038 171.741 125.573 172.792C125.612 172.847 125.658 172.786 125.674 172.742C126.306 171.338 125.124 170.129 123.943 170.401Z" fill="black"/>
<path d="M126.543 167.951C126.845 166.795 125.624 165.594 124.179 166.19C124.134 166.203 124.074 166.252 124.127 166.289C125.187 166.835 125.603 168.157 125.069 169.287C125.06 169.318 125.071 169.332 125.09 169.338C125.096 169.355 125.11 169.366 125.139 169.357C126.299 168.856 127.638 169.29 128.174 170.341C128.213 170.396 128.259 170.335 128.275 170.292C128.907 168.888 127.724 167.679 126.543 167.951Z" fill="black"/>
<path d="M129.144 165.5C129.445 164.345 128.225 163.144 126.78 163.739C126.734 163.752 126.674 163.801 126.728 163.838C127.787 164.385 128.204 165.707 127.67 166.836C127.66 166.867 127.672 166.881 127.69 166.887C127.697 166.904 127.711 166.915 127.74 166.906C128.9 166.405 130.239 166.839 130.774 167.89C130.814 167.945 130.86 167.884 130.876 167.841C131.507 166.437 130.325 165.228 129.144 165.5Z" fill="black"/>
<path d="M107.422 186.214H116.01C119.914 186.214 122.581 188.805 122.581 192.068C122.581 194.18 121.443 195.971 119.783 196.803V196.994C121.735 197.986 123.004 200.13 123.004 202.401C123.004 205.92 119.979 208.607 115.945 208.607H107.422V186.214ZM115.75 195.747C117.799 195.747 119.296 194.339 119.296 192.388C119.296 190.437 117.799 189.061 115.75 189.061H110.642V195.747H115.75ZM116.042 205.759C118.027 205.759 119.719 204.128 119.719 202.177C119.719 200.225 118.027 198.562 116.042 198.562H110.642V205.759H116.042Z" fill="black"/>
<path d="M127.784 186.214H136.373C140.277 186.214 143.107 188.997 143.107 192.708C143.107 195.683 141.318 197.922 138.39 198.786L143.921 208.607H140.31L135.137 199.362H131.005V208.607H127.784V186.214ZM136.048 196.515C138.162 196.515 139.821 194.851 139.821 192.772C139.821 190.724 138.162 189.061 136.048 189.061H131.005V196.515H136.048Z" fill="black"/>
<path d="M148.505 186.214H151.791L163.242 203.104H163.437V186.214H166.561V208.607H163.275L151.791 191.716H151.596V208.607H148.505V186.214Z" fill="black"/>
<path d="M171.73 197.41C171.73 190.693 176.61 185.862 183.344 185.862C190.078 185.862 194.959 190.693 194.959 197.41C194.959 204.128 190.078 208.959 183.344 208.959C176.61 208.959 171.73 204.128 171.73 197.41ZM183.344 206.047C188.224 206.047 191.673 202.497 191.673 197.41C191.673 192.324 188.224 188.773 183.344 188.773C178.432 188.773 175.017 192.324 175.017 197.41C175.017 202.497 178.432 206.047 183.344 206.047Z" fill="black"/>
<path d="M150.834 168.769C150.904 168.818 150.945 168.903 150.922 168.989C150.674 170.159 150.586 170.884 150.648 171.47C150.675 171.757 150.73 171.997 150.785 172.174C150.848 172.354 150.916 172.468 150.963 172.486C151.011 172.504 151.138 172.464 151.294 172.338C151.458 172.215 151.645 172.001 151.791 171.683C151.937 171.366 152.028 170.944 151.996 170.453C151.945 169.966 151.792 169.396 151.384 168.875C151.334 168.801 151.309 168.706 151.337 168.62C151.448 168.307 151.49 167.962 151.422 167.802C151.356 167.636 151.201 167.682 150.85 168.069C150.337 168.079 150.213 168.195 150.268 168.312C150.328 168.431 150.582 168.583 150.834 168.769Z" fill="black"/>
<path d="M143.006 167.362C142.998 167.275 143.054 167.199 143.132 167.163C143.682 166.904 144.101 166.73 144.459 166.579C144.81 166.422 145.093 166.272 145.335 166.121C145.576 165.97 145.77 165.819 145.908 165.692C146.045 165.556 146.121 165.451 146.117 165.4C146.112 165.351 146.021 165.251 145.837 165.17C145.653 165.08 145.374 165.004 145.011 165.022C144.652 165.04 144.206 165.159 143.777 165.458C143.345 165.745 142.949 166.24 142.762 166.868C142.735 166.956 142.662 167.026 142.58 167.059C142.425 167.116 142.266 167.186 142.134 167.262C142.012 167.342 141.915 167.427 141.871 167.502C141.78 167.657 141.913 167.747 142.438 167.778C142.764 168.169 142.935 168.193 142.992 168.078C143.022 168.018 143.027 167.917 143.02 167.789C143.022 167.667 143.015 167.519 143.006 167.362Z" fill="black"/>
<path d="M145.773 175.113C145.698 175.152 145.6 175.155 145.533 175.096C145.044 174.739 144.702 174.432 144.396 174.199C144.088 173.972 143.834 173.781 143.58 173.649C143.1 173.364 142.674 173.231 142.576 173.289C142.501 173.33 142.375 173.798 142.733 174.432C142.922 174.731 143.224 175.08 143.698 175.31C144.16 175.545 144.777 175.683 145.434 175.554C145.524 175.544 145.623 175.559 145.689 175.623C145.93 175.86 146.228 176.041 146.404 176.053C146.584 176.066 146.608 175.908 146.406 175.43C146.619 174.972 146.567 174.81 146.435 174.809C146.298 174.808 146.049 174.972 145.773 175.113Z" fill="black"/>
<path d="M150.612 183.046C150.563 183.119 150.473 183.143 150.389 183.128C149.193 182.923 148.403 183.006 147.835 183.239C147.272 183.423 146.961 183.75 146.963 183.852C146.966 183.95 147.299 184.247 147.94 184.378C148.567 184.464 149.541 184.367 150.516 183.579C150.584 183.524 150.68 183.516 150.761 183.541C151.361 183.736 152.018 183.83 151.304 183.082C151.346 182.076 150.966 182.524 150.612 183.046Z" fill="black"/>
<path d="M159.418 172.441C159.461 172.513 159.457 172.605 159.411 172.676C159.104 173.184 158.848 173.611 158.719 174.002C158.601 174.397 158.516 174.731 158.504 175.027C158.491 175.321 158.534 175.571 158.591 175.753C158.635 175.93 158.7 176.042 158.749 176.061C158.794 176.079 158.924 176.045 159.092 175.941C159.247 175.832 159.434 175.65 159.61 175.381C159.784 175.113 159.963 174.761 160.009 174.31C160.066 173.863 160.083 173.336 159.882 172.742C159.857 172.659 159.878 172.567 159.939 172.505C160.161 172.279 160.374 172.028 160.393 171.875C160.405 171.721 160.245 171.677 159.761 171.836C159.295 171.601 159.132 171.63 159.131 171.771C159.124 171.912 159.258 172.174 159.418 172.441Z" fill="black"/>
<path d="M154.3 159.544C154.385 159.542 154.464 159.59 154.504 159.664C154.644 159.933 154.801 160.142 154.931 160.356C155.061 160.568 155.195 160.747 155.332 160.9C155.617 161.193 155.86 161.439 156.114 161.596C156.626 161.904 157.05 161.986 157.136 161.925C157.214 161.868 157.297 161.41 156.99 160.844C156.841 160.561 156.628 160.223 156.249 159.956C156.066 159.817 155.856 159.682 155.619 159.559C155.384 159.435 155.091 159.361 154.789 159.289C154.703 159.27 154.632 159.207 154.606 159.124C154.558 158.971 154.504 158.818 154.444 158.693C154.377 158.576 154.308 158.484 154.242 158.441C154.107 158.356 153.995 158.475 153.913 158.973C153.488 159.269 153.439 159.425 153.563 159.492C153.625 159.525 153.733 159.538 153.867 159.538C153.995 159.547 154.145 159.548 154.3 159.544Z" fill="black"/>
<path d="M144.933 157.291C144.995 157.232 145.085 157.203 145.167 157.239C145.742 157.472 146.221 157.557 146.639 157.604C147.056 157.665 147.411 157.639 147.707 157.572C148.295 157.457 148.655 157.217 148.671 157.108C148.685 157.02 148.411 156.641 147.797 156.432C147.492 156.337 147.103 156.277 146.648 156.298C146.193 156.334 145.67 156.5 145.124 156.773C145.047 156.809 144.953 156.821 144.877 156.777C144.323 156.472 143.698 156.256 144.258 157.124C144.025 158.103 144.486 157.735 144.933 157.291Z" fill="black"/>
<path d="M134.231 166.003C134.202 165.925 134.223 165.836 134.281 165.774C134.491 165.554 134.66 165.345 134.801 165.145C134.963 164.953 135.092 164.768 135.195 164.59C135.297 164.411 135.373 164.239 135.431 164.074C135.504 163.917 135.555 163.766 135.59 163.623C135.725 163.053 135.622 162.613 135.544 162.562C135.453 162.504 135.019 162.608 134.569 163.075C134.456 163.191 134.342 163.328 134.233 163.488C134.139 163.656 134.053 163.848 133.98 164.062C133.907 164.276 133.847 164.514 133.807 164.773C133.789 165.038 133.795 165.327 133.828 165.632C133.838 165.718 133.8 165.804 133.728 165.855C133.186 166.227 132.802 166.724 133.806 166.548C134.659 167.147 134.433 166.568 134.231 166.003Z" fill="black"/>
<path d="M136.999 179.681C136.916 179.666 136.849 179.602 136.825 179.521C136.745 179.23 136.638 178.991 136.554 178.758C136.471 178.523 136.377 178.32 136.276 178.142C136.059 177.795 135.865 177.51 135.652 177.302C135.217 176.896 134.806 176.738 134.715 176.779C134.622 176.822 134.46 177.25 134.64 177.865C134.724 178.174 134.868 178.542 135.181 178.881C135.33 179.054 135.507 179.229 135.712 179.397C135.919 179.563 136.187 179.698 136.467 179.83C136.548 179.866 136.604 179.942 136.611 180.029C136.631 180.354 136.708 180.663 136.824 180.77C136.937 180.882 137.072 180.788 137.258 180.318C137.736 180.116 137.817 179.972 137.71 179.882C137.599 179.794 137.296 179.744 136.999 179.681Z" fill="black"/>
<path d="M157.814 178.504C157.816 178.588 157.768 178.665 157.693 178.703C157.181 178.99 156.742 179.225 156.441 179.501C156.286 179.634 156.162 179.776 156.051 179.908C155.932 180.033 155.836 180.158 155.757 180.28C155.446 180.77 155.412 181.219 155.478 181.299C155.539 181.374 155.977 181.407 156.548 181.119C156.69 181.048 156.84 180.956 156.992 180.842C157.137 180.721 157.274 180.567 157.411 180.392C157.675 180.035 157.955 179.599 158.069 178.99C158.088 178.906 158.151 178.838 158.234 178.815C158.845 178.643 159.437 178.365 158.408 178.155C157.851 177.325 157.797 177.895 157.814 178.504Z" fill="black"/>
<path d="M157.479 159.665C157.561 159.686 157.617 159.757 157.631 159.84C157.715 160.437 157.898 160.866 158.05 161.244C158.204 161.62 158.403 161.899 158.61 162.112C158.994 162.547 159.388 162.725 159.491 162.685C159.577 162.652 159.771 162.236 159.658 161.615C159.587 161.313 159.445 160.958 159.198 160.589C158.954 160.219 158.528 159.878 158.015 159.565C157.941 159.522 157.898 159.439 157.898 159.354C157.879 158.742 157.746 158.117 157.277 159.026C156.303 159.341 156.861 159.529 157.479 159.665Z" fill="black"/>
<path d="M138.142 157.447C138.17 157.37 138.244 157.317 138.329 157.308C138.929 157.246 139.383 157.11 139.782 156.993C140.173 156.864 140.46 156.665 140.697 156.493C141.171 156.161 141.368 155.762 141.336 155.664C141.305 155.572 140.905 155.379 140.262 155.432C139.944 155.464 139.584 155.602 139.194 155.822C138.798 156.029 138.418 156.41 138.076 156.911C138.028 156.982 137.943 157.022 137.855 157.014C137.208 156.953 136.594 157.082 137.471 157.589C137.736 158.582 137.935 158.006 138.142 157.447Z" fill="black"/>
<path d="M132.431 174.207C132.366 174.154 132.337 174.068 132.355 173.987C132.467 173.418 132.567 172.933 132.545 172.525C132.528 172.118 132.444 171.781 132.362 171.503C132.176 170.95 131.845 170.647 131.741 170.648C131.642 170.65 131.339 170.968 131.202 171.579C131.122 171.885 131.124 172.261 131.228 172.688C131.336 173.115 131.493 173.602 131.89 174.083C131.942 174.151 131.954 174.242 131.919 174.319C131.655 174.887 131.486 175.508 132.317 174.878C133.322 175.003 132.914 174.591 132.431 174.207Z" fill="black"/>
<path d="M145.732 185.669C145.663 185.718 145.571 185.722 145.496 185.683C144.965 185.424 144.515 185.223 144.114 185.124C143.712 185.026 143.359 185.028 143.068 185.025C142.482 185.049 142.092 185.277 142.063 185.375C142.036 185.469 142.261 185.843 142.825 186.144C143.104 186.308 143.477 186.394 143.925 186.416C144.372 186.439 144.894 186.396 145.469 186.15C145.55 186.118 145.642 186.131 145.709 186.185C146.197 186.586 146.762 186.911 146.361 185.956C146.746 185.037 146.234 185.314 145.732 185.669Z" fill="black"/>
</g>
</svg>
