<svg width="301" height="424" viewBox="0 0 301 424" fill="none" xmlns="http://www.w3.org/2000/svg">
<rect width="301" height="424" fill="#ffffff"/>
<g opacity="0.25">
<path d="M167.819 209.108L167.758 209.131C167.759 209.12 167.76 209.111 167.761 209.1C167.756 208.958 167.683 208.818 167.593 208.83C167.504 208.841 167.442 208.997 167.459 209.136C167.466 209.201 167.488 209.25 167.516 209.284C167.342 209.217 167.105 209.217 166.843 209.251C166.599 209.306 166.334 209.402 166.133 209.535C165.935 209.674 165.814 209.815 165.753 209.948C165.727 210.001 165.678 210.046 165.622 210.064C165.467 210.108 165.316 210.208 165.205 210.36C165.047 210.563 165.05 210.842 165.167 211.038C165.399 211.411 165.885 211.433 166.188 211.19C166.264 211.126 166.32 211.047 166.357 210.96C166.378 210.907 166.426 210.874 166.483 210.873C166.619 210.867 166.764 210.817 166.925 210.702C167.085 210.597 167.246 210.466 167.382 210.307C167.524 210.173 167.644 210.002 167.719 209.853C167.72 209.895 167.736 209.946 167.769 210.003C167.841 210.126 167.952 210.231 168.004 210.202C168.056 210.172 168.041 210.016 167.98 209.89C167.974 209.881 167.97 209.874 167.965 209.866C167.982 209.863 167.998 209.861 168.016 209.856C168.234 209.795 168.402 209.613 168.38 209.395C168.362 209.188 168.103 209.032 167.819 209.108Z" fill="black"/>
<path d="M162.736 214.532L162.702 214.586C162.696 214.577 162.691 214.57 162.685 214.56C162.593 214.45 162.45 214.382 162.385 214.444C162.321 214.507 162.368 214.668 162.466 214.768C162.512 214.816 162.559 214.842 162.603 214.853C162.423 214.902 162.234 215.043 162.047 215.226C161.886 215.414 161.733 215.648 161.654 215.874C161.582 216.103 161.572 216.287 161.606 216.429C161.618 216.487 161.606 216.551 161.572 216.599C161.476 216.726 161.417 216.895 161.422 217.083C161.421 217.339 161.594 217.559 161.809 217.645C162.222 217.805 162.623 217.534 162.715 217.16C162.736 217.064 162.732 216.968 162.708 216.877C162.692 216.822 162.711 216.767 162.756 216.733C162.86 216.647 162.945 216.521 163.002 216.334C163.066 216.154 163.114 215.955 163.124 215.747C163.155 215.556 163.146 215.349 163.114 215.186C163.141 215.218 163.184 215.249 163.246 215.275C163.379 215.33 163.532 215.348 163.555 215.294C163.579 215.24 163.47 215.124 163.345 215.06C163.335 215.056 163.327 215.053 163.318 215.05C163.33 215.037 163.342 215.026 163.352 215.012C163.489 214.834 163.511 214.589 163.36 214.427C163.218 214.273 162.915 214.303 162.736 214.532Z" fill="black"/>
<path d="M160.496 214.798L160.451 214.844C160.447 214.834 160.444 214.826 160.44 214.815C160.374 214.689 160.247 214.593 160.171 214.642C160.095 214.69 160.108 214.857 160.183 214.975C160.217 215.031 160.259 215.066 160.299 215.085C160.113 215.097 159.899 215.197 159.677 215.339C159.481 215.491 159.283 215.69 159.158 215.894C159.04 216.104 158.993 216.282 158.996 216.428C158.995 216.487 158.971 216.548 158.928 216.588C158.807 216.693 158.715 216.847 158.68 217.031C158.626 217.282 158.75 217.532 158.942 217.66C159.314 217.899 159.762 217.714 159.93 217.367C159.97 217.277 159.987 217.182 159.982 217.087C159.978 217.031 160.008 216.981 160.058 216.956C160.178 216.893 160.288 216.787 160.383 216.615C160.482 216.452 160.57 216.266 160.624 216.065C160.694 215.885 160.728 215.68 160.73 215.513C160.75 215.551 160.786 215.59 160.841 215.628C160.959 215.708 161.106 215.757 161.14 215.708C161.174 215.66 161.092 215.525 160.982 215.437C160.973 215.431 160.967 215.427 160.958 215.421C160.972 215.412 160.986 215.403 161 215.391C161.171 215.244 161.243 215.009 161.128 214.82C161.022 214.641 160.719 214.609 160.496 214.798Z" fill="black"/>
<path d="M172.085 209.64L172.028 209.64C172.032 209.63 172.036 209.623 172.041 209.612C172.083 209.478 172.071 209.322 172.005 209.302C171.935 209.284 171.849 209.399 171.8 209.531C171.779 209.593 171.773 209.646 171.78 209.688C171.574 209.43 171.171 209.148 170.747 209.024C170.539 208.961 170.349 208.957 170.212 208.993C170.155 209.008 170.087 208.999 170.038 208.961C169.908 208.862 169.731 208.799 169.526 208.813C169.253 208.819 169.015 209.008 168.954 209.223C168.851 209.644 169.126 210.011 169.478 210.083C169.57 210.099 169.667 210.102 169.757 210.079C169.81 210.067 169.864 210.081 169.903 210.124C169.998 210.227 170.126 210.305 170.342 210.37C170.753 210.492 171.371 210.491 171.69 210.285C171.669 210.322 171.657 210.374 171.662 210.44C171.67 210.58 171.761 210.732 171.839 210.723C171.92 210.717 171.967 210.566 171.952 210.427C171.949 210.416 171.948 210.408 171.945 210.398L172.005 210.409C172.276 210.439 172.506 210.276 172.516 210.061C172.525 209.85 172.332 209.668 172.085 209.64Z" fill="black"/>
<path d="M175.887 208.883L175.843 208.917C175.84 208.906 175.838 208.899 175.835 208.887C175.785 208.755 175.681 208.641 175.617 208.66C175.553 208.679 175.55 208.832 175.593 208.965C175.614 209.028 175.642 209.073 175.674 209.103C175.338 209.024 174.851 209.064 174.491 209.163C174.31 209.224 174.177 209.284 174.087 209.383C174.05 209.423 173.995 209.437 173.944 209.419C173.807 209.371 173.663 209.38 173.508 209.429C173.302 209.508 173.131 209.695 173.08 209.919C172.979 210.34 173.339 210.717 173.822 210.667C173.94 210.65 174.048 210.61 174.139 210.554C174.193 210.522 174.261 210.515 174.321 210.531C174.465 210.57 174.661 210.586 174.899 210.508C175.38 210.375 175.858 209.973 175.971 209.63C175.979 209.672 176.001 209.721 176.046 209.77C176.14 209.876 176.294 209.942 176.359 209.89C176.424 209.839 176.366 209.688 176.268 209.587C176.26 209.581 176.253 209.576 176.246 209.569L176.3 209.541C176.536 209.396 176.615 209.129 176.486 208.955C176.361 208.784 176.094 208.757 175.887 208.883Z" fill="black"/>
<path d="M176.341 205.714L176.312 205.761C176.306 205.752 176.301 205.745 176.294 205.736C176.2 205.628 176.063 205.557 176.009 205.597C175.956 205.636 176.007 205.781 176.095 205.891C176.136 205.943 176.179 205.975 176.219 205.992C175.876 206.033 175.433 206.235 175.13 206.451C174.981 206.571 174.878 206.671 174.828 206.795C174.808 206.845 174.761 206.877 174.707 206.878C174.561 206.878 174.429 206.936 174.301 207.035C174.136 207.179 174.041 207.412 174.072 207.64C174.125 208.07 174.596 208.301 175.03 208.09C175.135 208.034 175.223 207.959 175.289 207.876C175.328 207.828 175.389 207.798 175.451 207.793C175.6 207.78 175.789 207.729 175.986 207.575C176.39 207.286 176.698 206.746 176.683 206.386C176.705 206.424 176.743 206.461 176.802 206.493C176.928 206.56 177.095 206.57 177.139 206.499C177.181 206.428 177.074 206.306 176.947 206.245C176.936 206.242 176.929 206.239 176.919 206.236L176.96 206.191C177.131 205.975 177.111 205.698 176.929 205.578C176.751 205.46 176.491 205.526 176.341 205.714Z" fill="black"/>
<path d="M178.795 206.148L178.767 206.195C178.76 206.187 178.755 206.181 178.748 206.172C178.648 206.073 178.501 206.009 178.451 206.054C178.401 206.099 178.462 206.241 178.559 206.345C178.604 206.393 178.65 206.422 178.691 206.435C178.353 206.504 177.915 206.755 177.636 207.037C177.485 207.185 177.404 207.326 177.371 207.459C177.357 207.512 177.316 207.556 177.263 207.572C177.118 207.615 176.989 207.709 176.891 207.845C176.762 208.037 176.742 208.291 176.842 208.498C177.027 208.892 177.541 208.969 177.881 208.669C177.962 208.594 178.024 208.505 178.063 208.412C178.086 208.357 178.136 208.317 178.195 208.303C178.337 208.27 178.488 208.183 178.651 208.025C178.981 207.692 179.23 207.149 179.186 206.791C179.211 206.826 179.252 206.86 179.314 206.887C179.444 206.944 179.611 206.942 179.646 206.869C179.682 206.796 179.57 206.685 179.437 206.632C179.426 206.629 179.418 206.627 179.408 206.624L179.447 206.578C179.595 206.348 179.56 206.075 179.372 205.969C179.183 205.864 178.925 205.944 178.795 206.148Z" fill="black"/>
<path d="M163.599 210.705L163.583 210.757C163.575 210.75 163.568 210.746 163.559 210.739C163.438 210.666 163.28 210.638 163.242 210.693C163.204 210.749 163.298 210.872 163.417 210.95C163.473 210.987 163.524 211.004 163.567 211.008C163.255 211.154 162.89 211.499 162.688 211.838C162.575 212.017 162.531 212.173 162.531 212.31C162.53 212.365 162.502 212.417 162.453 212.445C162.323 212.52 162.219 212.641 162.158 212.797C162.079 213.013 162.12 213.264 162.267 213.442C162.541 213.782 163.059 213.737 163.317 213.367C163.379 213.275 163.417 213.174 163.433 213.074C163.442 213.016 163.481 212.965 163.535 212.938C163.665 212.873 163.79 212.754 163.911 212.561C164.152 212.161 164.263 211.576 164.134 211.238C164.167 211.267 164.215 211.29 164.281 211.302C164.422 211.327 164.583 211.286 164.6 211.207C164.617 211.128 164.482 211.046 164.339 211.026C164.328 211.025 164.32 211.025 164.309 211.025L164.337 210.971C164.424 210.713 164.325 210.456 164.117 210.397C163.908 210.338 163.676 210.476 163.599 210.705Z" fill="black"/>
<path d="M180.031 202.45L180.034 202.505C180.023 202.502 180.016 202.499 180.005 202.495C179.866 202.459 179.709 202.478 179.691 202.543C179.67 202.607 179.796 202.699 179.933 202.739C179.997 202.758 180.05 202.76 180.093 202.751C179.839 202.981 179.596 203.422 179.502 203.798C179.451 203.99 179.457 204.144 179.489 204.27C179.503 204.321 179.49 204.377 179.451 204.415C179.353 204.517 179.27 204.644 179.254 204.808C179.228 205.027 179.315 205.261 179.5 205.41C179.83 205.688 180.344 205.547 180.51 205.109C180.554 205.003 180.571 204.893 180.559 204.788C180.553 204.727 180.578 204.665 180.623 204.624C180.738 204.526 180.826 204.367 180.887 204.137C181.002 203.68 180.928 203.092 180.703 202.807C180.744 202.825 180.797 202.834 180.863 202.826C181.006 202.809 181.148 202.725 181.142 202.644C181.133 202.564 180.977 202.524 180.836 202.546C180.826 202.549 180.818 202.551 180.808 202.554L180.815 202.494C180.831 202.224 180.656 202.007 180.437 202.008C180.222 202.01 180.045 202.208 180.031 202.45Z" fill="black"/>
<path d="M182.647 190.502L182.6 190.533C182.598 190.523 182.597 190.514 182.595 190.503C182.553 190.368 182.455 190.247 182.389 190.265C182.323 190.281 182.309 190.434 182.345 190.57C182.362 190.633 182.388 190.68 182.418 190.711C182.087 190.618 181.577 190.643 181.201 190.761C181.008 190.818 180.878 190.903 180.785 190.995C180.748 191.035 180.693 191.053 180.64 191.04C180.5 191.01 180.346 191.007 180.196 191.078C179.992 191.172 179.834 191.366 179.802 191.599C179.732 192.021 180.123 192.379 180.59 192.29C180.705 192.272 180.808 192.228 180.893 192.163C180.943 192.127 181.01 192.116 181.069 192.133C181.214 192.177 181.398 192.168 181.63 192.1C182.086 191.958 182.558 191.59 182.688 191.253C182.693 191.295 182.714 191.344 182.755 191.396C182.844 191.507 182.991 191.582 183.058 191.535C183.123 191.486 183.076 191.334 182.984 191.228C182.976 191.22 182.97 191.215 182.962 191.208L183.018 191.183C183.26 191.056 183.358 190.795 183.242 190.612C183.129 190.433 182.865 190.388 182.647 190.502Z" fill="black"/>
<path d="M179.665 198.333V198.395C179.655 198.391 179.648 198.389 179.637 198.384C179.499 198.346 179.34 198.37 179.321 198.454C179.307 198.538 179.442 198.641 179.582 198.67C179.647 198.684 179.701 198.68 179.743 198.665C179.49 198.937 179.391 199.549 179.48 199.989C179.521 200.21 179.6 200.363 179.693 200.46C179.731 200.5 179.747 200.558 179.732 200.611C179.69 200.755 179.693 200.89 179.752 201.047C179.836 201.256 180.037 201.418 180.266 201.459C180.698 201.539 181.064 201.174 181.002 200.714C180.984 200.6 180.945 200.489 180.885 200.408C180.85 200.359 180.842 200.296 180.862 200.241C180.912 200.103 180.922 199.94 180.883 199.733C180.804 199.33 180.587 198.905 180.356 198.661C180.397 198.673 180.451 198.676 180.516 198.663C180.656 198.635 180.789 198.561 180.774 198.499C180.765 198.439 180.611 198.404 180.469 198.423C180.458 198.426 180.45 198.427 180.44 198.43C180.444 198.413 180.448 198.396 180.45 198.378C180.46 198.147 180.322 197.933 180.11 197.895C179.895 197.856 179.679 198.05 179.665 198.333Z" fill="black"/>
<path d="M178.163 196.626L178.143 196.685C178.135 196.678 178.129 196.673 178.12 196.666C178.001 196.588 177.842 196.563 177.797 196.637C177.758 196.713 177.854 196.851 177.979 196.921C178.037 196.954 178.089 196.966 178.133 196.965C177.808 197.148 177.523 197.701 177.471 198.146C177.442 198.369 177.469 198.538 177.527 198.659C177.552 198.709 177.549 198.768 177.519 198.814C177.433 198.939 177.394 199.068 177.402 199.236C177.416 199.46 177.557 199.675 177.762 199.782C178.149 199.988 178.611 199.751 178.695 199.294C178.713 199.18 178.711 199.063 178.678 198.968C178.66 198.911 178.672 198.849 178.709 198.802C178.799 198.686 178.86 198.533 178.887 198.324C178.937 197.917 178.863 197.447 178.718 197.145C178.754 197.17 178.805 197.188 178.871 197.196C179.012 197.211 179.162 197.18 179.167 197.117C179.177 197.057 179.041 196.978 178.9 196.953C178.889 196.952 178.881 196.952 178.871 196.951C178.879 196.936 178.889 196.921 178.896 196.904C178.977 196.688 178.913 196.442 178.723 196.342C178.531 196.24 178.264 196.361 178.163 196.626Z" fill="black"/>
<path d="M181.602 194.456L181.565 194.504C181.56 194.495 181.556 194.488 181.55 194.477C181.467 194.362 181.331 194.281 181.268 194.329C181.205 194.378 181.242 194.536 181.327 194.649C181.367 194.701 181.41 194.733 181.451 194.75C181.089 194.785 180.599 195.123 180.339 195.523C180.209 195.727 180.144 195.895 180.153 196.051C180.154 196.112 180.128 196.174 180.079 196.213C179.949 196.317 179.841 196.473 179.815 196.673C179.764 196.937 179.881 197.191 180.091 197.308C180.472 197.511 180.917 197.327 181.06 197.001C181.1 196.916 181.123 196.829 181.121 196.738C181.12 196.685 181.15 196.637 181.197 196.612C181.306 196.549 181.431 196.453 181.536 196.287C181.745 195.966 181.918 195.487 181.913 195.146C181.936 195.183 181.974 195.22 182.032 195.253C182.156 195.322 182.312 195.348 182.347 195.289C182.382 195.229 182.286 195.104 182.165 195.031C182.154 195.026 182.147 195.023 182.138 195.019L182.178 194.981C182.341 194.795 182.376 194.54 182.219 194.386C182.07 194.238 181.78 194.254 181.602 194.456Z" fill="black"/>
<path d="M184.385 191.243L184.344 191.287C184.339 191.277 184.337 191.27 184.332 191.259C184.261 191.136 184.134 191.042 184.066 191.084C183.999 191.126 184.019 191.287 184.093 191.407C184.127 191.464 184.166 191.5 184.205 191.52C183.841 191.519 183.32 191.808 183.02 192.181C182.87 192.371 182.788 192.531 182.781 192.687C182.777 192.749 182.744 192.807 182.692 192.842C182.552 192.932 182.428 193.076 182.382 193.272C182.305 193.531 182.395 193.795 182.592 193.932C182.95 194.171 183.412 194.032 183.588 193.722C183.636 193.642 183.667 193.557 183.675 193.466C183.68 193.413 183.714 193.368 183.764 193.348C183.878 193.297 184.013 193.213 184.134 193.058C184.374 192.759 184.595 192.3 184.625 191.96C184.643 191.999 184.678 192.04 184.732 192.078C184.849 192.159 185.001 192.2 185.042 192.144C185.083 192.088 185 191.954 184.887 191.87C184.877 191.864 184.87 191.86 184.862 191.855L184.906 191.822C185.087 191.652 185.147 191.402 185.007 191.233C184.873 191.071 184.583 191.059 184.385 191.243Z" fill="black"/>
<path d="M170.108 211.259L170.045 211.258C170.049 211.249 170.053 211.241 170.057 211.231C170.102 211.096 170.083 210.94 169.996 210.919C169.917 210.901 169.814 211.029 169.78 211.165C169.765 211.229 169.767 211.282 169.779 211.323C169.526 211.077 168.984 210.925 168.544 210.963C168.321 210.979 168.159 211.045 168.047 211.13C168.001 211.167 167.94 211.181 167.883 211.164C167.733 211.118 167.556 211.127 167.383 211.207C167.148 211.315 166.997 211.559 167.024 211.787C167.093 212.21 167.459 212.47 167.806 212.409C167.897 212.393 167.979 212.354 168.053 212.303C168.096 212.272 168.152 212.268 168.2 212.292C168.317 212.352 168.465 212.376 168.662 212.361C169.05 212.328 169.517 212.153 169.761 211.926C169.748 211.966 169.743 212.02 169.754 212.084C169.776 212.223 169.844 212.358 169.904 212.347C169.958 212.337 169.995 212.186 169.985 212.047C169.983 212.036 169.982 212.029 169.98 212.019C169.996 212.022 170.011 212.026 170.027 212.028C170.088 212.031 170.11 212.029 170.158 212.015C170.217 212.007 170.272 211.989 170.321 211.963C170.418 211.911 170.488 211.827 170.51 211.722C170.531 211.618 170.503 211.513 170.44 211.43C170.409 211.388 170.369 211.35 170.323 211.321C170.264 211.291 170.171 211.262 170.108 211.259Z" fill="black"/>
<path d="M165.845 212.413L165.806 212.462C165.801 212.452 165.797 212.445 165.791 212.435C165.71 212.319 165.571 212.239 165.502 212.294C165.44 212.346 165.48 212.504 165.57 212.612C165.613 212.663 165.657 212.693 165.698 212.709C165.345 212.758 164.894 213.089 164.658 213.457C164.537 213.641 164.491 213.808 164.493 213.947C164.494 214.005 164.468 214.062 164.421 214.096C164.292 214.185 164.193 214.33 164.153 214.513C164.097 214.763 164.204 215.028 164.404 215.145C164.788 215.347 165.22 215.219 165.382 214.91C165.423 214.829 165.441 214.742 165.445 214.653C165.446 214.6 165.477 214.554 165.525 214.531C165.645 214.476 165.754 214.375 165.862 214.211C166.069 213.888 166.211 213.417 166.175 213.088C166.199 213.123 166.24 213.158 166.298 213.19C166.424 213.256 166.574 213.285 166.602 213.231C166.627 213.183 166.527 213.062 166.408 212.986C166.398 212.981 166.391 212.977 166.382 212.973C166.394 212.963 166.407 212.953 166.418 212.941C166.458 212.896 166.469 212.877 166.487 212.831C166.516 212.78 166.535 212.726 166.543 212.673C166.56 212.565 166.534 212.46 166.463 212.379C166.392 212.298 166.29 212.258 166.184 212.256C166.131 212.255 166.077 212.264 166.025 212.282C165.966 212.31 165.886 212.365 165.845 212.413Z" fill="black"/>
<path d="M173.996 211.469C173.978 211.472 173.961 211.478 173.944 211.483C173.946 211.472 173.947 211.464 173.949 211.453C173.955 211.312 173.906 211.164 173.841 211.161C173.775 211.155 173.712 211.292 173.701 211.432C173.696 211.496 173.705 211.549 173.722 211.589C173.453 211.383 172.98 211.25 172.597 211.246C172.401 211.24 172.255 211.28 172.142 211.349C172.095 211.379 172.039 211.376 171.994 211.349C171.873 211.272 171.728 211.238 171.568 211.267C171.351 211.298 171.153 211.453 171.065 211.669C170.899 212.063 171.165 212.497 171.603 212.535C171.711 212.545 171.816 212.53 171.909 212.497C171.964 212.476 172.026 212.488 172.075 212.518C172.193 212.595 172.359 212.643 172.585 212.649C173.032 212.655 173.565 212.454 173.79 212.188C173.782 212.23 173.784 212.283 173.805 212.345C173.849 212.479 173.957 212.602 174.03 212.579C174.104 212.553 174.111 212.396 174.063 212.264C174.058 212.254 174.055 212.248 174.05 212.238L174.108 212.234C174.365 212.193 174.539 211.99 174.495 211.781C174.453 211.572 174.229 211.432 173.996 211.469Z" fill="black"/>
<path d="M160.95 211.331C160.943 211.348 160.939 211.365 160.933 211.381C160.925 211.374 160.919 211.369 160.91 211.361C160.793 211.28 160.64 211.24 160.602 211.293C160.562 211.344 160.645 211.47 160.758 211.555C160.812 211.594 160.861 211.615 160.904 211.622C160.583 211.734 160.214 212.053 160.003 212.369C159.893 212.527 159.847 212.67 159.846 212.801C159.846 212.855 159.814 212.9 159.766 212.923C159.635 212.981 159.527 213.083 159.466 213.232C159.375 213.428 159.401 213.675 159.538 213.864C159.786 214.215 160.301 214.229 160.57 213.887C160.637 213.803 160.681 213.708 160.702 213.613C160.714 213.556 160.758 213.512 160.81 213.488C160.94 213.431 161.071 213.32 161.198 213.136C161.444 212.769 161.56 212.22 161.454 211.889C161.485 211.919 161.532 211.945 161.596 211.962C161.734 211.998 161.899 211.975 161.918 211.902C161.936 211.827 161.805 211.736 161.667 211.705C161.656 211.704 161.648 211.702 161.638 211.701L161.665 211.651C161.769 211.416 161.689 211.163 161.486 211.086C161.284 211.008 161.044 211.118 160.95 211.331Z" fill="black"/>
<path d="M177.57 210.153C177.554 210.163 177.541 210.174 177.527 210.186C177.524 210.176 177.522 210.168 177.519 210.156C177.467 210.026 177.36 209.91 177.298 209.933C177.236 209.956 177.238 210.11 177.287 210.243C177.31 210.305 177.34 210.349 177.373 210.377C177.037 210.292 176.554 210.372 176.203 210.519C176.028 210.604 175.906 210.685 175.832 210.794C175.802 210.837 175.752 210.862 175.699 210.855C175.561 210.841 175.414 210.862 175.278 210.946C175.096 211.063 174.981 211.289 174.985 211.515C174.991 211.95 175.409 212.232 175.832 212.098C175.938 212.069 176.026 212.008 176.097 211.937C176.139 211.895 176.199 211.877 176.257 211.888C176.397 211.91 176.576 211.901 176.78 211.803C177.194 211.629 177.589 211.222 177.686 210.895C177.696 210.937 177.721 210.985 177.766 211.032C177.861 211.136 178.008 211.2 178.065 211.148C178.121 211.096 178.063 210.951 177.963 210.85C177.955 210.842 177.949 210.837 177.941 210.831L177.992 210.805C178.213 210.67 178.284 210.412 178.156 210.236C178.032 210.065 177.771 210.031 177.57 210.153Z" fill="black"/>
<path d="M180.377 207.57C180.367 207.585 180.359 207.6 180.35 207.616C180.344 207.607 180.339 207.601 180.332 207.592C180.235 207.489 180.093 207.42 180.044 207.463C179.997 207.508 180.05 207.647 180.145 207.753C180.189 207.801 180.233 207.832 180.274 207.847C180.102 207.867 179.91 207.94 179.732 208.044C179.545 208.143 179.368 208.267 179.237 208.408C179.099 208.546 179.02 208.674 178.993 208.802C178.981 208.854 178.944 208.897 178.893 208.911C178.759 208.952 178.628 209.028 178.537 209.16C178.412 209.337 178.399 209.595 178.497 209.8C178.681 210.195 179.172 210.285 179.506 210.005C179.59 209.938 179.648 209.851 179.684 209.759C179.706 209.705 179.753 209.665 179.81 209.654C179.948 209.623 180.102 209.545 180.259 209.388C180.41 209.228 180.548 209.024 180.64 208.816C180.726 208.602 180.771 208.388 180.758 208.217C180.782 208.253 180.822 208.288 180.882 208.317C181.01 208.38 181.176 208.392 181.208 208.321C181.24 208.252 181.131 208.137 181.002 208.079C180.991 208.075 180.984 208.073 180.974 208.07L181.011 208.026C181.162 207.818 181.137 207.555 180.955 207.438C180.773 207.322 180.515 207.381 180.377 207.57Z" fill="black"/>
<path d="M181.947 204.147C181.943 204.164 181.942 204.181 181.939 204.199C181.93 204.194 181.923 204.19 181.913 204.184C181.782 204.13 181.623 204.123 181.594 204.181C181.565 204.24 181.677 204.347 181.807 204.405C181.867 204.433 181.92 204.443 181.963 204.44C181.678 204.618 181.386 205.008 181.245 205.357C181.18 205.537 181.161 205.683 181.183 205.809C181.193 205.86 181.174 205.913 181.133 205.944C181.024 206.031 180.939 206.15 180.902 206.303C180.856 206.513 180.941 206.754 181.107 206.909C181.425 207.21 181.921 207.116 182.124 206.728C182.178 206.634 182.193 206.528 182.194 206.43C182.193 206.371 182.223 206.317 182.272 206.283C182.391 206.203 182.502 206.069 182.578 205.859C182.744 205.448 182.738 204.886 182.559 204.585C182.596 204.608 182.647 204.624 182.714 204.626C182.857 204.633 183.008 204.575 183.012 204.499C183.016 204.424 182.87 204.362 182.727 204.361C182.715 204.361 182.707 204.362 182.697 204.363L182.715 204.309C182.768 204.059 182.626 203.827 182.413 203.794C182.198 203.76 181.995 203.919 181.947 204.147Z" fill="black"/>
<path d="M182.009 200.369C182.012 200.387 182.017 200.404 182.022 200.421C182.011 200.419 182.003 200.418 181.992 200.417C181.85 200.413 181.699 200.465 181.695 200.531C181.691 200.597 181.835 200.656 181.977 200.663C182.044 200.666 182.097 200.656 182.136 200.637C181.938 200.909 181.819 201.385 181.831 201.765C181.844 201.958 181.88 202.101 181.955 202.208C181.985 202.252 181.99 202.308 181.965 202.354C181.902 202.477 181.864 202.62 181.899 202.776C181.95 202.988 182.112 203.173 182.334 203.25C182.745 203.396 183.17 203.113 183.19 202.68C183.197 202.573 183.179 202.471 183.135 202.381C183.11 202.328 183.115 202.267 183.146 202.218C183.219 202.099 183.272 201.933 183.257 201.713C183.243 201.276 183.023 200.766 182.743 200.553C182.786 200.56 182.84 200.556 182.903 200.535C183.037 200.488 183.157 200.38 183.132 200.309C183.107 200.238 182.948 200.235 182.814 200.285C182.804 200.29 182.797 200.294 182.788 200.298L182.784 200.242C182.748 200.022 182.563 199.859 182.345 199.866C182.13 199.874 181.966 200.106 182.009 200.369Z" fill="black"/>
<path d="M182.428 196.274L182.412 196.332C182.403 196.325 182.397 196.32 182.388 196.313C182.267 196.236 182.11 196.21 182.07 196.281C182.029 196.351 182.124 196.485 182.247 196.554C182.305 196.586 182.358 196.599 182.402 196.598C182.093 196.77 181.794 197.27 181.734 197.707C181.7 197.928 181.726 198.097 181.789 198.223C181.814 198.275 181.812 198.336 181.783 198.385C181.708 198.518 181.67 198.683 181.709 198.858C181.756 199.096 181.947 199.285 182.174 199.335C182.602 199.424 182.976 199.122 182.997 198.751C183.004 198.657 182.986 198.566 182.949 198.483C182.928 198.434 182.939 198.379 182.973 198.338C183.057 198.238 183.117 198.102 183.146 197.913C183.198 197.539 183.143 197.077 182.986 196.781C183.021 196.805 183.072 196.824 183.138 196.832C183.28 196.85 183.432 196.824 183.438 196.765C183.445 196.706 183.307 196.627 183.168 196.601C183.157 196.6 183.149 196.6 183.139 196.599C183.146 196.584 183.155 196.57 183.16 196.554C183.243 196.352 183.166 196.115 182.981 196.013C182.788 195.906 182.531 196.023 182.428 196.274Z" fill="black"/>
<path d="M173.321 213.734L173.264 213.738C173.268 213.728 173.27 213.72 173.274 213.709C173.307 213.572 173.284 213.418 173.217 213.403C173.149 213.39 173.057 213.515 173.019 213.648C173.001 213.71 173 213.763 173.01 213.806C172.9 213.684 172.738 213.573 172.56 213.486C172.471 213.437 172.38 213.388 172.286 213.35C172.237 213.331 172.19 213.314 172.145 213.297L172.075 213.275C172.019 213.263 171.965 213.251 171.911 213.239C171.858 213.237 171.807 213.236 171.757 213.234C171.541 213.229 171.376 213.264 171.252 213.33C171.202 213.358 171.14 213.359 171.09 213.331C170.955 213.257 170.795 213.223 170.622 213.249C170.387 213.284 170.183 213.439 170.091 213.653C169.91 214.049 170.217 214.482 170.686 214.521C170.801 214.53 170.912 214.515 171.011 214.479C171.069 214.458 171.135 214.467 171.187 214.499C171.312 214.579 171.484 214.631 171.724 214.637C171.768 214.638 171.77 214.638 171.774 214.635L171.776 214.633C171.784 214.634 171.735 214.624 171.769 214.629L171.858 214.637C171.916 214.639 171.976 214.642 172.039 214.644C172.16 214.644 172.28 214.64 172.394 214.622C172.625 214.576 172.828 214.503 172.965 214.407C172.947 214.446 172.939 214.498 172.949 214.564C172.97 214.706 173.062 214.846 173.147 214.831C173.231 214.82 173.269 214.666 173.243 214.528C173.239 214.517 173.237 214.51 173.234 214.5L173.296 214.506C173.581 214.516 173.803 214.34 173.794 214.123C173.785 213.914 173.573 213.743 173.321 213.734Z" fill="black"/>
<path d="M177.322 212.836L177.272 212.866C177.27 212.856 177.269 212.848 177.268 212.836C177.233 212.699 177.14 212.573 177.07 212.592C177 212.607 176.976 212.76 177.006 212.898C177.021 212.961 177.045 213.008 177.075 213.041C176.737 212.933 176.208 212.965 175.812 213.08C175.61 213.135 175.472 213.221 175.377 213.321C175.338 213.359 175.28 213.376 175.225 213.362C175.079 213.324 174.921 213.34 174.764 213.408C174.552 213.495 174.392 213.702 174.36 213.934C174.293 214.361 174.695 214.699 175.17 214.616C175.286 214.592 175.391 214.547 175.479 214.486C175.53 214.45 175.598 214.44 175.659 214.458C175.805 214.497 175.991 214.488 176.227 214.423C176.692 214.287 177.174 213.92 177.324 213.592C177.328 213.634 177.346 213.684 177.386 213.737C177.471 213.851 177.617 213.933 177.686 213.888C177.752 213.84 177.713 213.687 177.625 213.576C177.617 213.569 177.612 213.563 177.605 213.556L177.662 213.533C177.911 213.41 178.029 213.158 177.925 212.97C177.822 212.783 177.551 212.723 177.322 212.836Z" fill="black"/>
<path d="M183.74 210.356L183.717 210.408C183.71 210.4 183.704 210.394 183.696 210.385C183.588 210.292 183.438 210.241 183.392 210.295C183.343 210.347 183.412 210.487 183.516 210.582C183.565 210.627 183.613 210.652 183.655 210.662C183.315 210.763 182.898 211.084 182.64 211.401C182.506 211.559 182.443 211.708 182.422 211.842C182.412 211.896 182.374 211.942 182.321 211.962C182.178 212.012 182.058 212.113 181.969 212.257C181.844 212.447 181.833 212.707 181.941 212.916C182.133 213.305 182.659 213.358 183.002 213.023C183.083 212.939 183.143 212.842 183.18 212.743C183.202 212.685 183.252 212.639 183.312 212.62C183.455 212.57 183.602 212.458 183.759 212.272C184.062 211.901 184.246 211.33 184.179 210.975C184.207 211.008 184.251 211.039 184.315 211.06C184.45 211.106 184.618 211.092 184.648 211.016C184.675 210.94 184.555 210.835 184.418 210.794C184.407 210.792 184.4 210.791 184.389 210.788L184.423 210.738C184.557 210.497 184.508 210.224 184.314 210.127C184.12 210.031 183.863 210.133 183.74 210.356Z" fill="black"/>
<path d="M180.742 210.454L180.703 210.498C180.699 210.489 180.695 210.481 180.69 210.471C180.615 210.351 180.485 210.26 180.424 210.299C180.363 210.34 180.389 210.495 180.461 210.615C180.495 210.671 180.534 210.708 180.573 210.729C180.213 210.731 179.716 210.943 179.379 211.198C179.211 211.332 179.104 211.453 179.052 211.583C179.03 211.635 178.984 211.675 178.927 211.685C178.779 211.715 178.628 211.779 178.509 211.908C178.349 212.083 178.287 212.337 178.354 212.556C178.48 212.973 178.983 213.117 179.371 212.86C179.469 212.799 179.546 212.719 179.599 212.628C179.631 212.574 179.687 212.539 179.748 212.533C179.895 212.515 180.071 212.453 180.256 212.306C180.63 212.022 180.949 211.527 180.988 211.173C181.005 211.212 181.039 211.254 181.094 211.292C181.212 211.374 181.374 211.406 181.421 211.341C181.468 211.276 181.382 211.143 181.264 211.064C181.254 211.059 181.247 211.056 181.238 211.051L181.285 211.013C181.483 210.824 181.517 210.55 181.362 210.401C181.207 210.252 180.929 210.276 180.742 210.454Z" fill="black"/>
<path d="M183.25 207.189L183.231 207.242C183.223 207.235 183.216 207.229 183.208 207.221C183.093 207.137 182.939 207.098 182.898 207.154C182.858 207.21 182.939 207.343 183.049 207.43C183.1 207.471 183.15 207.492 183.193 207.499C182.858 207.621 182.473 207.966 182.229 208.298C182.109 208.469 182.054 208.621 182.037 208.756C182.031 208.811 181.997 208.861 181.946 208.886C181.811 208.952 181.694 209.063 181.612 209.216C181.505 209.426 181.523 209.691 181.65 209.881C181.892 210.245 182.411 210.24 182.714 209.89C182.789 209.804 182.836 209.701 182.864 209.6C182.88 209.541 182.924 209.491 182.982 209.468C183.124 209.413 183.264 209.294 183.403 209.097C183.684 208.713 183.828 208.121 183.739 207.773C183.77 207.804 183.816 207.832 183.881 207.849C184.021 207.885 184.187 207.857 184.207 207.776C184.229 207.696 184.101 207.602 183.961 207.571C183.95 207.57 183.942 207.57 183.932 207.568L183.962 207.515C184.085 207.265 184.002 206.992 183.799 206.914C183.598 206.837 183.361 206.964 183.25 207.189Z" fill="black"/>
<path d="M184.186 203.195L184.187 203.254C184.177 203.25 184.17 203.246 184.159 203.242C184.021 203.203 183.863 203.22 183.842 203.291C183.822 203.361 183.947 203.46 184.083 203.502C184.147 203.521 184.201 203.522 184.244 203.512C183.981 203.752 183.762 204.245 183.688 204.654C183.656 204.864 183.666 205.025 183.713 205.153C183.732 205.206 183.725 205.265 183.69 205.31C183.601 205.429 183.533 205.573 183.534 205.745C183.537 205.979 183.649 206.203 183.852 206.327C184.219 206.561 184.707 206.344 184.82 205.889C184.852 205.778 184.855 205.667 184.832 205.563C184.819 205.503 184.837 205.439 184.878 205.393C184.979 205.282 185.06 205.118 185.096 204.886C185.179 204.426 185.07 203.854 184.854 203.567C184.895 203.585 184.948 203.593 185.014 203.585C185.156 203.568 185.299 203.486 185.292 203.408C185.285 203.329 185.131 203.287 184.989 203.306C184.978 203.309 184.971 203.31 184.961 203.313C184.965 203.294 184.968 203.275 184.97 203.254C184.988 202.987 184.826 202.76 184.61 202.749C184.393 202.737 184.204 202.937 184.186 203.195Z" fill="black"/>
<path d="M183.843 199.052C183.846 199.073 183.852 199.092 183.857 199.111C183.846 199.109 183.838 199.108 183.826 199.106C183.683 199.097 183.533 199.149 183.531 199.227C183.529 199.305 183.676 199.376 183.819 199.384C183.886 199.388 183.938 199.376 183.977 199.356C183.781 199.657 183.708 200.216 183.779 200.644C183.815 200.862 183.883 201.015 183.973 201.122C184.011 201.166 184.023 201.225 184.006 201.279C183.958 201.422 183.957 201.584 184.01 201.73C184.049 201.842 184.109 201.89 184.19 201.984C184.269 202.071 184.371 202.136 184.484 202.168C184.695 202.228 184.899 202.178 185.053 202.056C185.131 202.002 185.192 201.907 185.232 201.786C185.268 201.678 185.285 201.555 185.271 201.441C185.259 201.323 185.221 201.218 185.166 201.13C185.134 201.078 185.129 201.012 185.152 200.957C185.207 200.821 185.225 200.646 185.188 200.422C185.116 199.979 184.861 199.484 184.582 199.262C184.626 199.269 184.679 199.264 184.742 199.241C184.876 199.191 184.994 199.083 184.969 199.013C184.944 198.943 184.784 198.936 184.651 198.985C184.641 198.99 184.633 198.993 184.624 198.998L184.621 198.94C184.582 198.685 184.385 198.502 184.168 198.523C183.953 198.544 183.803 198.786 183.843 199.052Z" fill="black"/>
<path d="M165.705 207.228C165.7 207.244 165.698 207.26 165.695 207.276C165.686 207.27 165.68 207.265 165.67 207.259C165.543 207.19 165.394 207.162 165.359 207.207C165.322 207.251 165.416 207.365 165.534 207.445C165.588 207.481 165.639 207.501 165.681 207.507C165.383 207.628 164.999 207.888 164.771 208.177C164.646 208.321 164.578 208.454 164.561 208.584C164.553 208.637 164.52 208.682 164.47 208.699C164.329 208.741 164.205 208.828 164.119 208.969C164.008 209.162 163.99 209.41 164.101 209.614C164.302 209.994 164.812 210.073 165.133 209.759C165.213 209.684 165.272 209.595 165.308 209.503C165.328 209.446 165.374 209.4 165.432 209.383C165.57 209.338 165.723 209.243 165.877 209.064C166.174 208.697 166.367 208.109 166.241 207.754C166.273 207.784 166.32 207.809 166.386 207.822C166.526 207.851 166.693 207.808 166.715 207.724C166.736 207.638 166.593 207.552 166.453 207.537H166.424L166.448 207.479C166.544 207.207 166.409 206.949 166.192 206.916C165.98 206.885 165.777 207.027 165.705 207.228Z" fill="black"/>
<path d="M165.432 203.39L165.441 203.447C165.43 203.444 165.422 203.442 165.411 203.439C165.269 203.419 165.115 203.458 165.105 203.533C165.094 203.608 165.237 203.688 165.378 203.705C165.445 203.714 165.498 203.706 165.539 203.69C165.311 203.944 165.215 204.544 165.309 204.968C165.355 205.185 165.428 205.322 165.525 205.42C165.565 205.46 165.58 205.515 165.564 205.566C165.522 205.702 165.527 205.849 165.586 205.987C165.672 206.176 165.854 206.321 166.09 206.376C166.302 206.423 166.507 206.373 166.647 206.234C166.793 206.094 166.868 205.874 166.834 205.647C166.817 205.534 166.772 205.438 166.714 205.354C166.68 205.305 166.672 205.243 166.692 205.19C166.74 205.06 166.75 204.889 166.709 204.691C166.623 204.297 166.406 203.889 166.15 203.643C166.192 203.653 166.246 203.652 166.311 203.634C166.448 203.596 166.573 203.504 166.556 203.438C166.538 203.372 166.38 203.353 166.242 203.389C166.232 203.393 166.224 203.396 166.215 203.399L166.217 203.345C166.2 203.103 166.022 202.911 165.805 202.916C165.588 202.92 165.415 203.134 165.432 203.39Z" fill="black"/>
<path d="M166.035 199.256L166.016 199.312C166.008 199.305 166.002 199.3 165.993 199.292C165.876 199.212 165.719 199.179 165.675 199.247C165.632 199.315 165.72 199.451 165.84 199.527C165.896 199.562 165.948 199.577 165.992 199.579C165.679 199.739 165.336 200.229 165.259 200.682C165.208 200.909 165.238 201.086 165.29 201.218C165.312 201.272 165.308 201.335 165.279 201.386C165.201 201.52 165.156 201.691 165.191 201.872C165.236 202.117 165.416 202.313 165.647 202.369C166.072 202.469 166.452 202.164 166.482 201.79C166.491 201.694 166.476 201.602 166.442 201.517C166.42 201.466 166.433 201.411 166.47 201.371C166.563 201.275 166.617 201.137 166.66 200.949C166.723 200.576 166.71 200.103 166.566 199.79C166.6 199.817 166.65 199.838 166.715 199.849C166.856 199.873 167.012 199.85 167.023 199.787C167.034 199.724 166.9 199.639 166.761 199.61C166.75 199.609 166.742 199.608 166.732 199.607C166.74 199.591 166.75 199.577 166.757 199.56C166.844 199.345 166.787 199.101 166.592 198.999C166.405 198.901 166.137 199.008 166.035 199.256Z" fill="black"/>
<path d="M168.78 198.727L168.75 198.779C168.743 198.771 168.738 198.764 168.731 198.755C168.633 198.652 168.487 198.589 168.43 198.647C168.373 198.704 168.431 198.855 168.532 198.953C168.58 198.999 168.627 199.025 168.67 199.035C168.33 199.128 167.892 199.539 167.723 199.967C167.625 200.178 167.618 200.357 167.641 200.497C167.651 200.555 167.634 200.616 167.595 200.659C167.49 200.775 167.411 200.934 167.408 201.117C167.401 201.367 167.536 201.594 167.75 201.696C168.145 201.88 168.58 201.658 168.688 201.297C168.717 201.206 168.722 201.113 168.706 201.023C168.695 200.969 168.719 200.917 168.764 200.886C168.875 200.81 168.957 200.685 169.038 200.511C169.177 200.158 169.263 199.693 169.188 199.358C169.216 199.39 169.26 199.421 169.322 199.445C169.455 199.497 169.612 199.506 169.636 199.446C169.66 199.387 169.547 199.277 169.417 199.221C169.406 199.217 169.399 199.215 169.389 199.212C169.401 199.198 169.413 199.186 169.423 199.171C169.553 198.978 169.549 198.728 169.379 198.589C169.216 198.455 168.932 198.505 168.78 198.727Z" fill="black"/>
<path d="M168.771 196.042C168.755 196.054 168.742 196.068 168.728 196.081C168.724 196.071 168.721 196.063 168.718 196.052C168.658 195.924 168.542 195.818 168.471 195.853C168.402 195.889 168.408 196.05 168.471 196.176C168.5 196.235 168.536 196.275 168.572 196.298C168.213 196.263 167.687 196.499 167.36 196.811C167.197 196.978 167.109 197.136 167.077 197.275C167.063 197.331 167.028 197.386 166.973 197.412C166.831 197.484 166.693 197.603 166.621 197.779C166.524 198.019 166.563 198.278 166.734 198.446C167.046 198.744 167.528 198.685 167.75 198.399C167.81 198.327 167.848 198.244 167.866 198.156C167.877 198.104 167.913 198.062 167.968 198.051C168.099 198.022 168.229 197.949 168.363 197.809C168.647 197.54 168.894 197.106 168.948 196.775C168.964 196.815 168.995 196.858 169.045 196.901C169.152 196.994 169.298 197.05 169.342 196.999C169.386 196.948 169.315 196.807 169.211 196.713C169.202 196.706 169.196 196.702 169.188 196.696L169.233 196.667C169.433 196.533 169.498 196.278 169.381 196.098C169.264 195.919 168.991 195.893 168.771 196.042Z" fill="black"/>
<path d="M172.717 194.466L172.659 194.48C172.661 194.47 172.662 194.461 172.665 194.45C172.677 194.309 172.627 194.161 172.546 194.159C172.465 194.157 172.39 194.301 172.384 194.441C172.381 194.507 172.394 194.558 172.414 194.597C172.116 194.4 171.521 194.361 171.08 194.512C170.855 194.583 170.708 194.687 170.62 194.803C170.583 194.85 170.525 194.878 170.464 194.876C170.303 194.87 170.135 194.93 169.988 195.044C169.792 195.207 169.712 195.464 169.778 195.683C169.909 196.097 170.364 196.26 170.706 196.105C170.793 196.066 170.864 196.001 170.923 195.935C170.958 195.895 171.012 195.877 171.066 195.888C171.194 195.914 171.345 195.902 171.531 195.843C171.894 195.719 172.307 195.46 172.514 195.192C172.508 195.234 172.514 195.287 172.537 195.348C172.586 195.48 172.685 195.598 172.746 195.575C172.808 195.552 172.815 195.395 172.771 195.262C172.767 195.252 172.763 195.246 172.759 195.237L172.813 195.233C173.049 195.212 173.233 195.02 173.223 194.81C173.213 194.594 172.987 194.442 172.717 194.466Z" fill="black"/>
<path d="M168.702 213.202L168.652 213.235C168.65 213.225 168.649 213.217 168.646 213.205C168.608 213.069 168.508 212.947 168.431 212.973C168.355 212.999 168.337 213.16 168.38 213.294C168.401 213.356 168.431 213.401 168.464 213.429C168.114 213.347 167.543 213.516 167.184 213.809C166.999 213.954 166.899 214.101 166.857 214.241C166.839 214.297 166.795 214.344 166.737 214.362C166.584 214.413 166.448 214.526 166.351 214.684C166.225 214.904 166.243 215.172 166.383 215.355C166.653 215.697 167.137 215.693 167.401 215.43C167.469 215.363 167.512 215.279 167.544 215.196C167.563 215.146 167.608 215.111 167.662 215.104C167.791 215.083 167.928 215.02 168.082 214.901C168.377 214.66 168.672 214.274 168.769 213.952C168.779 213.993 168.803 214.041 168.847 214.091C168.94 214.197 169.074 214.274 169.124 214.231C169.173 214.188 169.124 214.038 169.036 213.929C169.028 213.922 169.023 213.917 169.015 213.909L169.064 213.888C169.279 213.787 169.382 213.543 169.298 213.35C169.211 213.151 168.945 213.087 168.702 213.202Z" fill="black"/>
<path d="M176.83 194.741L176.778 194.748C176.781 194.738 176.783 194.731 176.786 194.72C176.808 194.581 176.777 194.429 176.716 194.413C176.654 194.399 176.578 194.53 176.548 194.667C176.534 194.731 176.536 194.784 176.547 194.825C176.308 194.588 175.887 194.379 175.48 194.302C175.274 194.264 175.103 194.278 174.969 194.329C174.915 194.349 174.852 194.344 174.8 194.313C174.665 194.225 174.489 194.181 174.3 194.21C174.042 194.24 173.837 194.43 173.78 194.65C173.679 195.071 173.981 195.438 174.347 195.48C174.441 195.487 174.533 195.481 174.62 195.45C174.67 195.432 174.726 195.445 174.768 195.483C174.867 195.574 175.01 195.643 175.228 195.683C175.656 195.766 176.262 195.666 176.533 195.428C176.518 195.469 176.513 195.522 176.525 195.586C176.552 195.724 176.651 195.857 176.733 195.843C176.817 195.832 176.843 195.675 176.808 195.539C176.804 195.528 176.802 195.521 176.798 195.511C176.818 195.513 176.838 195.514 176.859 195.513C177.137 195.499 177.335 195.302 177.303 195.087C177.271 194.881 177.06 194.729 176.83 194.741Z" fill="black"/>
<path d="M180.356 193.31L180.314 193.345C180.311 193.335 180.308 193.328 180.304 193.317C180.244 193.19 180.13 193.081 180.066 193.108C180.003 193.135 180.013 193.29 180.07 193.419C180.097 193.479 180.13 193.521 180.164 193.547C179.824 193.499 179.329 193.616 178.988 193.79C178.814 193.881 178.705 193.988 178.635 194.092C178.607 194.136 178.558 194.163 178.506 194.158C178.365 194.15 178.224 194.183 178.094 194.267C177.92 194.392 177.806 194.607 177.809 194.836C177.804 195.27 178.243 195.56 178.69 195.399C178.801 195.363 178.888 195.293 178.96 195.219C179.002 195.174 179.064 195.153 179.125 195.159C179.276 195.18 179.449 195.138 179.657 195.03C180.069 194.819 180.443 194.387 180.514 194.042C180.526 194.084 180.554 194.129 180.602 194.174C180.705 194.271 180.858 194.326 180.913 194.272C180.967 194.217 180.899 194.075 180.793 193.98C180.784 193.974 180.778 193.969 180.769 193.963L180.82 193.934C181.038 193.788 181.085 193.513 180.954 193.348C180.817 193.177 180.559 193.175 180.356 193.31Z" fill="black"/>
<path d="M163.484 205.425L163.501 205.479C163.491 205.478 163.482 205.477 163.471 205.476C163.328 205.48 163.182 205.543 163.184 205.617C163.181 205.643 163.205 205.624 163.257 205.629C163.308 205.629 163.376 205.657 163.447 205.659C163.513 205.665 163.566 205.661 163.607 205.647C163.382 205.858 163.175 206.288 163.111 206.662C163.079 206.852 163.094 206.999 163.142 207.118C163.163 207.167 163.156 207.222 163.12 207.26C163.027 207.365 162.968 207.494 162.967 207.647C162.964 207.85 163.079 208.056 163.269 208.195C163.612 208.469 164.119 208.283 164.244 207.842C164.277 207.734 164.276 207.628 164.258 207.53C164.247 207.472 164.265 207.412 164.305 207.369C164.405 207.266 164.482 207.111 164.519 206.891C164.594 206.456 164.48 205.893 164.219 205.611C164.261 205.624 164.316 205.626 164.38 205.606C164.448 205.582 164.518 205.553 164.559 205.487C164.601 205.427 164.616 205.331 164.6 205.289C164.572 205.228 164.413 205.236 164.283 205.293C164.273 205.298 164.266 205.302 164.257 205.307L164.251 205.254C164.2 205.022 163.986 204.866 163.773 204.905C163.56 204.945 163.431 205.177 163.484 205.425Z" fill="black"/>
<path d="M163.21 201.365L163.209 201.423C163.199 201.418 163.191 201.415 163.181 201.41C163.045 201.368 162.885 201.381 162.864 201.454C162.842 201.527 162.966 201.628 163.103 201.667C163.167 201.685 163.22 201.685 163.264 201.675C163.006 201.907 162.813 202.433 162.828 202.869C162.827 203.091 162.892 203.251 162.971 203.365C163.005 203.412 163.014 203.472 162.993 203.526C162.933 203.669 162.933 203.836 162.996 204.002C163.081 204.229 163.292 204.386 163.53 204.402C163.964 204.43 164.29 204.071 164.25 203.696C164.237 203.601 164.206 203.513 164.16 203.436C164.131 203.391 164.132 203.334 164.159 203.287C164.229 203.174 164.253 203.027 164.255 202.832C164.241 202.449 164.098 201.982 163.875 201.722C163.915 201.738 163.968 201.745 164.035 201.738C164.177 201.722 164.319 201.655 164.311 201.59C164.305 201.525 164.151 201.482 164.01 201.494C163.999 201.496 163.991 201.498 163.981 201.499L163.991 201.448C164.011 201.214 163.87 201 163.657 200.967C163.441 200.933 163.232 201.11 163.21 201.365Z" fill="black"/>
<path d="M164.504 197.476L164.479 197.528C164.472 197.52 164.466 197.514 164.458 197.505C164.352 197.41 164.203 197.357 164.152 197.416C164.102 197.474 164.172 197.618 164.281 197.709C164.331 197.751 164.38 197.774 164.423 197.782C164.249 197.833 164.073 197.963 163.912 198.132C163.745 198.298 163.609 198.508 163.532 198.716C163.448 198.925 163.428 199.095 163.466 199.234C163.479 199.291 163.466 199.351 163.426 199.394C163.324 199.509 163.24 199.663 163.246 199.845C163.248 200.092 163.388 200.314 163.6 200.41C163.998 200.583 164.436 200.364 164.528 200.007C164.556 199.918 164.559 199.827 164.543 199.738C164.533 199.686 164.554 199.634 164.596 199.602C164.694 199.521 164.79 199.404 164.861 199.226C164.927 199.049 164.971 198.842 164.996 198.64C165.015 198.436 165 198.231 164.96 198.073C164.99 198.103 165.036 198.131 165.099 198.152C165.236 198.195 165.392 198.193 165.412 198.131C165.432 198.069 165.31 197.968 165.177 197.92C165.166 197.918 165.158 197.916 165.148 197.913C165.159 197.899 165.17 197.886 165.179 197.871C165.29 197.665 165.265 197.42 165.082 197.298C164.906 197.18 164.629 197.249 164.504 197.476Z" fill="black"/>
<path d="M184.372 194.293L184.366 194.35C184.357 194.345 184.349 194.341 184.339 194.335C184.208 194.279 184.049 194.277 184.02 194.348C183.992 194.42 184.106 194.534 184.238 194.585C184.3 194.609 184.354 194.615 184.397 194.609C184.249 194.712 184.126 194.892 184.029 195.103C183.926 195.313 183.866 195.555 183.861 195.776C183.851 196 183.888 196.168 183.97 196.288C184.001 196.337 184.008 196.398 183.985 196.452C183.927 196.593 183.898 196.765 183.964 196.936C184.046 197.169 184.252 197.334 184.484 197.357C184.918 197.395 185.26 197.047 185.229 196.681C185.226 196.587 185.2 196.5 185.155 196.421C185.129 196.375 185.131 196.32 185.16 196.275C185.227 196.168 185.278 196.027 185.287 195.836C185.291 195.646 185.264 195.436 185.222 195.238C185.173 195.039 185.091 194.849 185.001 194.713C185.04 194.732 185.092 194.744 185.159 194.743C185.302 194.741 185.449 194.688 185.447 194.624C185.446 194.559 185.298 194.502 185.155 194.499C185.144 194.5 185.137 194.501 185.127 194.502C185.132 194.485 185.138 194.469 185.141 194.452C185.179 194.222 185.074 193.998 184.861 193.941C184.655 193.886 184.416 194.038 184.372 194.293Z" fill="black"/>
<path d="M167.326 194.477L167.283 194.514C167.279 194.504 167.277 194.496 167.273 194.486C167.213 194.358 167.096 194.251 167.026 194.284C166.957 194.317 166.965 194.475 167.028 194.6C167.058 194.659 167.093 194.699 167.13 194.723C166.785 194.695 166.257 194.904 165.94 195.21C165.773 195.357 165.694 195.516 165.662 195.653C165.65 195.709 165.611 195.757 165.556 195.779C165.411 195.837 165.273 195.943 165.198 196.111C165.091 196.334 165.12 196.594 165.271 196.77C165.554 197.093 166.049 197.082 166.283 196.795C166.348 196.727 166.392 196.646 166.416 196.56C166.43 196.509 166.472 196.471 166.525 196.459C166.655 196.433 166.778 196.354 166.928 196.224C167.205 195.955 167.464 195.539 167.506 195.199C167.521 195.239 167.552 195.282 167.602 195.326C167.71 195.418 167.857 195.476 167.901 195.427C167.945 195.378 167.874 195.238 167.769 195.143C167.761 195.137 167.754 195.132 167.746 195.126L167.792 195.099C167.983 194.958 168.045 194.705 167.927 194.53C167.805 194.35 167.534 194.323 167.326 194.477Z" fill="black"/>
<path d="M171.063 192.703L171.009 192.723C171.009 192.713 171.01 192.704 171.01 192.693C171.002 192.552 170.932 192.412 170.856 192.419C170.779 192.426 170.728 192.578 170.74 192.717C170.746 192.783 170.765 192.832 170.789 192.868C170.475 192.707 169.905 192.722 169.496 192.899C169.287 192.983 169.152 193.091 169.076 193.212C169.044 193.261 168.991 193.292 168.932 193.293C168.776 193.296 168.61 193.348 168.479 193.475C168.298 193.642 168.229 193.893 168.302 194.111C168.443 194.515 168.909 194.684 169.238 194.5C169.324 194.458 169.395 194.398 169.449 194.325C169.481 194.282 169.535 194.261 169.588 194.269C169.717 194.284 169.868 194.265 170.051 194.193C170.405 194.039 170.795 193.737 170.964 193.446C170.963 193.489 170.976 193.54 171.006 193.599C171.072 193.723 171.186 193.828 171.245 193.797C171.303 193.766 171.289 193.61 171.227 193.484C171.221 193.475 171.217 193.468 171.212 193.459L171.264 193.45C171.494 193.389 171.648 193.185 171.603 192.974C171.558 192.767 171.314 192.637 171.063 192.703Z" fill="black"/>
<path d="M175.215 192.468L175.157 192.465C175.162 192.455 175.165 192.448 175.17 192.438C175.22 192.305 175.214 192.149 175.14 192.125C175.066 192.101 174.957 192.219 174.912 192.352C174.891 192.414 174.888 192.467 174.896 192.509C174.672 192.241 174.137 192.038 173.687 192.041C173.46 192.039 173.293 192.098 173.174 192.173C173.126 192.205 173.063 192.213 173.009 192.191C172.863 192.136 172.69 192.135 172.518 192.195C172.283 192.272 172.126 192.497 172.111 192.724C172.09 193.157 172.453 193.46 172.828 193.43C172.923 193.421 173.011 193.385 173.089 193.339C173.135 193.313 173.192 193.315 173.238 193.343C173.351 193.413 173.498 193.442 173.693 193.444C174.077 193.443 174.552 193.311 174.823 193.108C174.806 193.147 174.796 193.199 174.801 193.265C174.811 193.405 174.872 193.546 174.938 193.541C175.004 193.536 175.054 193.388 175.049 193.248C175.047 193.237 175.046 193.229 175.044 193.22C175.061 193.224 175.078 193.229 175.096 193.232C175.331 193.26 175.559 193.134 175.601 192.923C175.642 192.716 175.475 192.5 175.215 192.468Z" fill="black"/>
<path d="M178.913 192.143L178.863 192.167C178.862 192.157 178.861 192.149 178.86 192.137C178.836 191.999 178.753 191.866 178.682 191.878C178.612 191.89 178.58 192.043 178.605 192.181C178.616 192.245 178.638 192.294 178.665 192.327C178.348 192.193 177.816 192.22 177.454 192.336C177.364 192.364 177.289 192.398 177.246 192.429C177.212 192.449 177.224 192.456 177.218 192.473C177.216 192.49 177.176 192.508 177.159 192.528C177.124 192.562 177.075 192.567 177.034 192.545C176.925 192.481 176.806 192.456 176.66 192.482C176.463 192.518 176.256 192.665 176.162 192.877C175.987 193.266 176.218 193.712 176.715 193.752C176.837 193.761 176.957 193.739 177.059 193.696C177.119 193.668 177.189 193.671 177.248 193.696C177.289 193.71 177.313 193.727 177.379 193.732C177.44 193.737 177.526 193.735 177.569 193.732C177.681 193.726 177.783 193.706 177.894 193.671C178.324 193.532 178.735 193.199 178.885 192.89C178.888 192.933 178.904 192.984 178.939 193.039C179.016 193.158 179.145 193.25 179.206 193.212C179.267 193.174 179.237 193.02 179.161 192.902C179.154 192.893 179.149 192.887 179.142 192.879L179.196 192.864C179.429 192.775 179.553 192.543 179.475 192.344C179.398 192.144 179.145 192.055 178.913 192.143Z" fill="black"/>
<path d="M160.971 202.534L160.983 202.595C160.973 202.593 160.965 202.591 160.953 202.589C160.81 202.573 160.658 202.622 160.655 202.705C160.652 202.788 160.797 202.868 160.939 202.878C161.006 202.883 161.059 202.872 161.098 202.852C160.892 203.155 160.865 203.778 160.953 204.174C160.999 204.387 161.074 204.536 161.168 204.64C161.208 204.683 161.224 204.742 161.208 204.797C161.167 204.944 161.173 205.107 161.239 205.266C161.332 205.483 161.533 205.64 161.766 205.678C162.2 205.759 162.557 205.356 162.48 204.899C162.462 204.786 162.42 204.684 162.361 204.598C162.327 204.547 162.319 204.483 162.339 204.426C162.388 204.287 162.398 204.109 162.35 203.883C162.246 203.414 161.975 202.988 161.704 202.764C161.747 202.772 161.801 202.766 161.864 202.744C161.999 202.696 162.121 202.595 162.098 202.529C162.076 202.463 161.916 202.452 161.781 202.495C161.771 202.5 161.763 202.503 161.754 202.507L161.752 202.451C161.717 202.203 161.545 202.006 161.324 202.015C161.112 202.023 160.933 202.258 160.971 202.534Z" fill="black"/>
<path d="M161.625 198.158L161.607 198.218C161.599 198.21 161.593 198.205 161.584 198.198C161.465 198.117 161.309 198.088 161.266 198.159C161.223 198.23 161.313 198.368 161.433 198.445C161.489 198.48 161.541 198.495 161.585 198.496C161.256 198.664 160.918 199.172 160.816 199.643C160.753 199.878 160.78 200.068 160.828 200.209C160.849 200.266 160.843 200.333 160.809 200.386C160.715 200.526 160.686 200.709 160.709 200.903C160.738 201.166 160.936 201.377 161.16 201.436C161.589 201.541 161.956 201.222 162.003 200.832C162.013 200.732 161.994 200.634 161.969 200.545C161.952 200.491 161.966 200.433 162.004 200.391C162.099 200.29 162.155 200.145 162.209 199.946C162.295 199.551 162.285 199.031 162.159 198.707C162.193 198.734 162.243 198.755 162.309 198.765C162.451 198.786 162.606 198.754 162.618 198.685C162.631 198.616 162.496 198.531 162.356 198.505C162.345 198.504 162.337 198.504 162.327 198.503L162.352 198.452C162.449 198.219 162.385 197.961 162.187 197.868C161.994 197.776 161.732 197.902 161.625 198.158Z" fill="black"/>
<path d="M164.095 194.496L164.056 194.543C164.051 194.534 164.047 194.527 164.042 194.516C163.961 194.401 163.825 194.318 163.759 194.365C163.692 194.411 163.729 194.575 163.812 194.689C163.851 194.742 163.894 194.775 163.934 194.792C163.57 194.832 163.071 195.16 162.784 195.535C162.643 195.728 162.578 195.899 162.564 196.046C162.558 196.106 162.524 196.162 162.471 196.195C162.333 196.284 162.219 196.428 162.156 196.609C162.066 196.853 162.144 197.127 162.316 197.281C162.648 197.569 163.124 197.449 163.348 197.11C163.404 197.023 163.434 196.927 163.446 196.83C163.456 196.775 163.494 196.727 163.548 196.705C163.678 196.65 163.804 196.546 163.929 196.373C164.184 196.04 164.388 195.547 164.39 195.195C164.412 195.232 164.45 195.27 164.507 195.303C164.631 195.374 164.785 195.395 164.827 195.336C164.867 195.275 164.773 195.149 164.651 195.076C164.641 195.071 164.633 195.068 164.624 195.063L164.668 195.025C164.849 194.84 164.872 194.567 164.72 194.415C164.567 194.263 164.288 194.3 164.095 194.496Z" fill="black"/>
<path d="M161.286 207.108L161.296 207.169C161.286 207.166 161.278 207.164 161.266 207.161C161.124 207.144 160.971 207.189 160.963 207.269C160.954 207.349 161.103 207.43 161.244 207.444C161.311 207.452 161.364 207.442 161.404 207.423C161.192 207.718 161.11 208.302 161.205 208.762C161.257 208.994 161.344 209.156 161.446 209.264C161.487 209.308 161.508 209.371 161.497 209.431C161.474 209.591 161.507 209.771 161.603 209.938C161.728 210.166 161.988 210.291 162.219 210.267C162.658 210.214 162.884 209.785 162.776 209.395C162.746 209.296 162.693 209.21 162.628 209.137C162.592 209.093 162.582 209.033 162.6 208.979C162.645 208.847 162.65 208.685 162.602 208.478C162.519 208.07 162.279 207.592 162.013 207.357C162.056 207.366 162.11 207.363 162.174 207.343C162.31 207.299 162.428 207.199 162.411 207.13C162.391 207.06 162.233 207.045 162.096 207.086C162.086 207.09 162.078 207.093 162.069 207.097L162.069 207.04C162.049 206.784 161.857 206.585 161.64 206.596C161.424 206.607 161.265 206.836 161.286 207.108Z" fill="black"/>
<path d="M167.559 191.737L167.505 191.77C167.504 191.759 167.502 191.751 167.5 191.74C167.46 191.605 167.356 191.485 167.276 191.511C167.197 191.54 167.18 191.705 167.225 191.839C167.246 191.902 167.277 191.946 167.31 191.973C166.95 191.907 166.36 192.083 165.987 192.375C165.793 192.517 165.683 192.662 165.632 192.802C165.61 192.858 165.562 192.904 165.503 192.921C165.343 192.964 165.194 193.066 165.085 193.221C164.935 193.431 164.916 193.7 165.034 193.903C165.253 194.277 165.76 194.315 166.076 194.04C166.154 193.968 166.217 193.889 166.258 193.8C166.282 193.748 166.333 193.712 166.39 193.704C166.529 193.683 166.681 193.616 166.854 193.49C167.186 193.23 167.518 192.827 167.623 192.492C167.633 192.534 167.658 192.581 167.702 192.63C167.799 192.734 167.939 192.802 167.993 192.756C168.047 192.712 167.998 192.564 167.905 192.456C167.897 192.449 167.891 192.443 167.883 192.436L167.936 192.414C168.161 192.295 168.27 192.045 168.18 191.855C168.087 191.659 167.808 191.605 167.559 191.737Z" fill="black"/>
<path d="M171.886 190.58L171.825 190.59C171.827 190.579 171.83 190.571 171.833 190.56C171.854 190.421 171.812 190.269 171.731 190.262C171.65 190.254 171.563 190.392 171.545 190.531C171.536 190.596 171.544 190.649 171.563 190.689C171.269 190.472 170.672 190.378 170.197 190.471C169.957 190.513 169.79 190.608 169.678 190.706C169.633 190.747 169.569 190.768 169.507 190.757C169.342 190.738 169.156 190.772 168.985 190.868C168.754 191.007 168.629 191.257 168.661 191.484C168.729 191.914 169.171 192.125 169.556 192.014C169.655 191.984 169.74 191.934 169.812 191.868C169.856 191.833 169.917 191.823 169.971 191.841C170.105 191.887 170.263 191.884 170.473 191.848C170.882 191.769 171.37 191.544 171.616 191.289C171.605 191.331 171.607 191.384 171.626 191.447C171.668 191.582 171.766 191.707 171.837 191.688C171.908 191.669 171.927 191.513 171.889 191.378C171.885 191.367 171.882 191.36 171.878 191.351L171.936 191.351C172.196 191.33 172.404 191.16 172.398 190.944C172.392 190.734 172.163 190.558 171.886 190.58Z" fill="black"/>
<path d="M168.592 189.034L168.535 189.057C168.535 189.046 168.535 189.038 168.536 189.027C168.524 188.886 168.448 188.748 168.367 188.759C168.286 188.769 168.234 188.924 168.249 189.064C168.256 189.129 168.276 189.178 168.303 189.213C167.967 189.068 167.363 189.112 166.923 189.309C166.699 189.404 166.558 189.534 166.473 189.655C166.438 189.705 166.381 189.74 166.318 189.744C166.153 189.762 165.98 189.837 165.836 189.969C165.643 190.156 165.58 190.428 165.664 190.642C165.831 191.045 166.31 191.151 166.659 190.956C166.748 190.904 166.82 190.836 166.875 190.756C166.909 190.711 166.966 190.688 167.023 190.693C167.164 190.708 167.318 190.67 167.513 190.587C167.893 190.417 168.315 190.088 168.495 189.785C168.495 189.828 168.508 189.88 168.542 189.937C168.613 190.059 168.739 190.158 168.803 190.123C168.868 190.089 168.85 189.932 168.781 189.809C168.775 189.8 168.77 189.794 168.764 189.786L168.821 189.773C169.069 189.694 169.232 189.481 169.175 189.272C169.12 189.069 168.857 188.95 168.592 189.034Z" fill="black"/>
<path d="M176.278 190.74L176.218 190.741C176.222 190.731 176.225 190.724 176.229 190.713C176.267 190.577 176.246 190.422 176.172 190.404C176.099 190.386 176 190.511 175.96 190.646C175.942 190.709 175.942 190.763 175.953 190.804C175.701 190.551 175.175 190.347 174.725 190.313C174.496 190.295 174.322 190.326 174.19 190.389C174.137 190.415 174.071 190.416 174.017 190.388C173.874 190.314 173.698 190.281 173.497 190.318C173.242 190.374 173.04 190.558 172.984 190.783C172.877 191.204 173.233 191.571 173.637 191.585C173.742 191.59 173.844 191.572 173.938 191.537C173.994 191.516 174.057 191.524 174.106 191.558C174.223 191.639 174.387 191.695 174.615 191.712C175.062 191.746 175.625 191.625 175.913 191.406C175.895 191.446 175.888 191.498 175.898 191.563C175.918 191.703 176.004 191.84 176.083 191.831C176.162 191.822 176.202 191.67 176.18 191.531C176.177 191.52 176.175 191.513 176.172 191.503L176.232 191.511C176.506 191.527 176.737 191.361 176.742 191.148C176.747 190.934 176.542 190.755 176.278 190.74Z" fill="black"/>
<path d="M150.376 208.267C150.352 208.347 150.277 208.399 150.193 208.409C149.017 208.545 148.331 208.7 147.806 208.975C147.292 209.223 146.99 209.544 146.995 209.643C147 209.742 147.342 210.049 148.019 210.1C148.187 210.119 148.371 210.093 148.573 210.063C148.775 210.037 148.989 209.973 149.206 209.868C149.426 209.773 149.651 209.643 149.861 209.458C150.079 209.29 150.278 209.065 150.452 208.802C150.501 208.729 150.59 208.689 150.678 208.69C150.995 208.686 151.336 208.643 151.467 208.543C151.593 208.432 151.503 208.296 151.041 208.083C150.868 207.597 150.725 207.512 150.634 207.605C150.534 207.693 150.456 207.964 150.376 208.267Z" fill="black"/>
<path d="M152.95 204.373C152.987 204.449 152.976 204.54 152.924 204.604C152.134 205.492 151.78 206.105 151.579 206.642C151.387 207.163 151.398 207.609 151.469 207.678C151.541 207.748 152 207.732 152.526 207.305C153.049 206.899 153.574 205.967 153.384 204.725C153.367 204.638 153.396 204.548 153.462 204.492C153.967 204.074 154.326 203.525 153.333 203.803C152.433 203.298 152.696 203.826 152.95 204.373Z" fill="black"/>
<path d="M152.717 199.651C152.787 199.696 152.823 199.779 152.812 199.862C152.641 201.023 152.677 201.754 152.857 202.321C153.009 202.872 153.306 203.213 153.408 203.223C153.508 203.232 153.846 202.941 154.02 202.307C154.174 201.695 154.112 200.668 153.264 199.719C153.206 199.654 153.185 199.561 153.212 199.477C153.386 198.865 153.409 198.185 152.719 198.97C151.708 199.033 152.182 199.337 152.717 199.651Z" fill="black"/>
<path d="M149.661 196.13C149.743 196.115 149.834 196.139 149.879 196.214C150.545 197.182 150.996 197.702 151.482 198.034C151.701 198.21 151.924 198.32 152.103 198.384C152.271 198.456 152.401 198.475 152.447 198.45C152.49 198.426 152.542 198.307 152.56 198.11C152.566 197.92 152.528 197.655 152.407 197.341C152.26 197.047 152.039 196.692 151.649 196.405C151.276 196.106 150.741 195.877 150.112 195.807C150.027 195.791 149.941 195.75 149.901 195.671C149.606 195.085 149.119 194.62 149.187 195.635C148.497 196.393 149.064 196.244 149.661 196.13Z" fill="black"/>
<path d="M144.953 195.592C145.005 195.527 145.092 195.492 145.174 195.515C146.321 195.829 147.051 195.883 147.633 195.817C148.202 195.739 148.592 195.552 148.626 195.443C148.653 195.363 148.434 194.944 147.812 194.687C147.213 194.416 146.148 194.347 145.083 195.055C145.009 195.104 144.915 195.123 144.834 195.089C144.225 194.827 143.547 194.781 144.265 195.514C144.236 196.53 144.57 196.056 144.953 195.592Z" fill="black"/>
<path d="M141.119 198.255C141.112 198.173 141.156 198.093 141.229 198.051C142.26 197.475 142.825 197.071 143.209 196.639C143.577 196.213 143.759 195.83 143.71 195.723C143.69 195.678 143.576 195.619 143.381 195.591C143.186 195.56 142.905 195.559 142.587 195.672C141.956 195.86 141.077 196.534 140.837 197.786C140.821 197.873 140.76 197.946 140.675 197.977C140.07 198.216 139.523 198.628 140.573 198.673C141.254 199.416 141.191 198.857 141.119 198.255Z" fill="black"/>
<path d="M139.981 202.823C139.926 202.76 139.914 202.669 139.947 202.593C140.441 201.514 140.6 200.799 140.583 200.215C140.581 199.648 140.419 199.243 140.325 199.204C140.233 199.164 139.802 199.336 139.462 199.909C139.139 200.466 138.928 201.47 139.471 202.603C139.51 202.681 139.506 202.775 139.456 202.847C139.268 203.11 139.123 203.403 139.143 203.561C139.159 203.721 139.323 203.729 139.77 203.475C140.268 203.612 140.423 203.547 140.401 203.415C140.372 203.28 140.176 203.058 139.981 202.823Z" fill="black"/>
<path d="M141.614 207.222C141.531 207.205 141.465 207.141 141.445 207.062C141.199 205.925 140.959 205.256 140.636 204.766C140.314 204.293 139.969 204.032 139.855 204.053C139.77 204.067 139.488 204.445 139.525 205.103C139.54 205.74 139.927 206.742 141.07 207.35C141.151 207.389 141.205 207.467 141.211 207.554C141.224 207.879 141.307 208.199 141.426 208.314C141.543 208.433 141.672 208.335 141.857 207.858C142.328 207.655 142.403 207.506 142.306 207.42C142.203 207.334 141.91 207.291 141.614 207.222Z" fill="black"/>
<path d="M145.776 209.365C145.705 209.407 145.613 209.402 145.543 209.355C144.552 208.704 143.924 208.397 143.354 208.268C142.803 208.136 142.371 208.161 142.301 208.245C142.242 208.313 142.278 208.783 142.767 209.255C143.233 209.713 144.236 210.167 145.477 209.819C145.563 209.795 145.656 209.817 145.722 209.879C146.209 210.292 146.82 210.612 146.401 209.658C146.782 208.737 146.295 209.021 145.776 209.365Z" fill="black"/>
<path d="M150.377 212.796C150.334 212.865 150.253 212.902 150.173 212.891C149.603 212.82 149.13 212.764 148.745 212.824C148.349 212.835 148.029 212.921 147.767 213.038C147.242 213.239 146.948 213.551 146.95 213.658C146.953 213.751 147.272 214.063 147.886 214.176C148.19 214.216 148.569 214.207 148.994 214.106C149.408 213.957 149.883 213.756 150.318 213.337C150.38 213.278 150.467 213.257 150.548 213.284C150.841 213.382 151.156 213.459 151.298 213.408C151.439 213.35 151.402 213.191 151.047 212.837C151.036 212.326 150.935 212.196 150.818 212.256C150.696 212.311 150.535 212.539 150.377 212.796Z" fill="black"/>
<path d="M154.289 210.409C154.28 210.488 154.221 210.553 154.143 210.576C153.861 210.658 153.624 210.751 153.411 210.846C153.186 210.925 152.994 211.015 152.827 211.113C152.502 211.321 152.229 211.495 152.042 211.708C151.856 211.919 151.725 212.119 151.64 212.272C151.56 212.431 151.536 212.556 151.558 212.603C151.579 212.647 151.693 212.707 151.88 212.743C152.071 212.785 152.329 212.786 152.626 212.696C152.922 212.607 153.288 212.476 153.608 212.168C153.772 212.022 153.936 211.849 154.092 211.649C154.234 211.435 154.362 211.185 154.473 210.913C154.504 210.836 154.576 210.782 154.663 210.773C155.279 210.687 155.872 210.454 154.892 210.139C154.406 209.256 154.335 209.815 154.289 210.409Z" fill="black"/>
<path d="M156.705 206.548C156.735 206.624 156.716 206.709 156.659 206.766C156.22 207.151 155.936 207.504 155.712 207.82C155.476 208.129 155.374 208.443 155.28 208.701C155.105 209.219 155.18 209.656 155.262 209.72C155.339 209.781 155.767 209.727 156.254 209.327C156.5 209.131 156.704 208.817 156.889 208.425C157.061 208.027 157.142 207.511 157.105 206.929C157.095 206.845 157.131 206.763 157.201 206.718C157.719 206.381 158.186 205.94 157.147 206.054C156.344 205.458 156.487 205.989 156.705 206.548Z" fill="black"/>
<path d="M157.384 202.03C157.439 202.091 157.452 202.178 157.419 202.251C157.165 202.769 157.001 203.205 156.945 203.589C156.851 203.969 156.849 204.297 156.894 204.578C156.954 205.129 157.18 205.49 157.286 205.516C157.377 205.539 157.77 205.32 158.041 204.766C158.161 204.489 158.253 204.13 158.268 203.702C158.244 203.274 158.156 202.775 157.894 202.245C157.855 202.171 157.86 202.082 157.909 202.016C158.273 201.522 158.553 200.956 157.62 201.414C156.654 201.125 156.98 201.582 157.384 202.03Z" fill="black"/>
<path d="M156.427 197.568C156.501 197.605 156.545 197.681 156.541 197.76C156.497 198.329 156.5 198.79 156.574 199.168C156.619 199.554 156.734 199.862 156.875 200.109C157.108 200.611 157.461 200.873 157.566 200.862C157.663 200.852 157.941 200.517 158.019 199.904C158.033 199.603 157.993 199.234 157.856 198.826C157.689 198.427 157.425 197.984 156.982 197.584C156.918 197.529 156.889 197.444 156.91 197.364C156.989 197.069 157.037 196.758 156.981 196.62C156.915 196.484 156.758 196.531 156.419 196.908C155.907 196.953 155.782 197.061 155.847 197.174C155.906 197.292 156.156 197.431 156.427 197.568Z" fill="black"/>
<path d="M153.729 193.897C153.81 193.9 153.88 193.953 153.91 194.028C154.338 195.074 154.753 195.66 155.204 196.01C155.654 196.349 156.043 196.48 156.146 196.423C156.22 196.383 156.384 195.943 156.166 195.368C156.049 195.088 155.899 194.732 155.563 194.442C155.402 194.291 155.214 194.144 155 194.006C154.783 193.871 154.511 193.772 154.229 193.681C154.148 193.656 154.087 193.59 154.072 193.505C153.95 192.899 153.664 192.344 153.416 193.322C152.549 193.864 153.13 193.884 153.729 193.897Z" fill="black"/>
<path d="M149.646 191.799C149.721 191.763 149.81 191.775 149.871 191.826C150.713 192.618 151.374 192.915 151.929 193.043C152.468 193.177 152.911 193.065 152.965 192.989C153.026 192.901 152.937 192.493 152.496 192.044C152.063 191.611 151.194 191.21 150.003 191.377C149.918 191.393 149.833 191.364 149.781 191.299C149.4 190.82 148.916 190.398 149.111 191.406C148.567 192.241 149.095 192.058 149.646 191.799Z" fill="black"/>
<path d="M145.019 191.497C145.076 191.437 145.162 191.417 145.239 191.442C145.785 191.654 146.237 191.759 146.63 191.798C147.022 191.858 147.355 191.831 147.635 191.763C148.187 191.673 148.538 191.41 148.556 191.308C148.573 191.214 148.319 190.858 147.737 190.624C147.446 190.53 147.074 190.47 146.639 190.492C146.205 190.536 145.703 190.682 145.19 190.977C145.117 191.023 145.027 191.027 144.955 190.984C144.419 190.678 143.81 190.46 144.373 191.327C144.184 192.299 144.606 191.937 145.019 191.497Z" fill="black"/>
<path d="M140.66 192.984C140.687 192.908 140.758 192.856 140.839 192.849C141.404 192.782 141.881 192.75 142.242 192.613C142.617 192.508 142.917 192.376 143.146 192.206C143.615 191.904 143.845 191.547 143.821 191.441C143.802 191.352 143.427 191.099 142.799 191.115C142.492 191.14 142.115 191.21 141.724 191.412C141.348 191.643 140.92 191.931 140.596 192.447C140.549 192.517 140.467 192.556 140.382 192.546C139.741 192.46 139.135 192.588 140.005 193.1C140.283 194.085 140.456 193.521 140.66 192.984Z" fill="black"/>
<path d="M137.424 196.2C137.411 196.119 137.443 196.037 137.519 195.999C138.04 195.721 138.376 195.428 138.679 195.18C138.823 195.05 138.939 194.917 139.036 194.784C139.138 194.657 139.23 194.541 139.299 194.42C139.441 194.183 139.513 193.949 139.549 193.772C139.592 193.602 139.587 193.476 139.555 193.436C139.524 193.398 139.398 193.363 139.205 193.369C139.018 193.382 138.774 193.449 138.496 193.593C138.359 193.667 138.207 193.755 138.067 193.877C137.932 194.005 137.797 194.157 137.668 194.334C137.394 194.674 137.219 195.174 137.118 195.747C137.102 195.826 137.054 195.901 136.975 195.931C136.404 196.158 135.858 196.501 136.896 196.597C137.561 197.344 137.525 196.795 137.424 196.2Z" fill="black"/>
<path d="M135.894 200.495C135.85 200.425 135.853 200.337 135.899 200.271C136.233 199.804 136.477 199.408 136.604 199.043C136.767 198.689 136.829 198.369 136.838 198.086C136.899 197.542 136.737 197.137 136.641 197.092C136.554 197.05 136.139 197.193 135.749 197.682C135.579 197.934 135.42 198.272 135.324 198.692C135.267 199.12 135.257 199.63 135.429 200.197C135.455 200.277 135.434 200.363 135.374 200.421C134.929 200.847 134.553 201.361 135.553 201.062C136.453 201.504 136.213 201.003 135.894 200.495Z" fill="black"/>
<path d="M136.025 205.066C135.959 205.015 135.931 204.932 135.95 204.855C136.12 204.302 136.188 203.849 136.193 203.459C136.219 203.068 136.162 202.743 136.069 202.474C135.92 201.938 135.624 201.622 135.517 201.615C135.421 201.609 135.082 201.893 134.906 202.482C134.837 202.774 134.809 203.142 134.87 203.565C134.951 203.985 135.142 204.463 135.483 204.942C135.535 205.008 135.547 205.096 135.51 205.171C135.242 205.721 135.071 206.332 135.904 205.713C136.905 205.822 136.504 205.436 136.025 205.066Z" fill="black"/>
<path d="M137.852 209.239C137.772 209.218 137.715 209.152 137.702 209.073C137.649 208.787 137.602 208.538 137.56 208.314C137.509 208.086 137.444 207.887 137.367 207.711C137.239 207.347 137.076 207.065 136.888 206.851C136.55 206.411 136.166 206.214 136.062 206.245C135.972 206.272 135.75 206.657 135.807 207.271C135.854 207.571 135.957 207.932 136.183 208.303C136.309 208.482 136.461 208.665 136.643 208.844C136.817 209.027 137.041 209.195 137.31 209.338C137.384 209.38 137.429 209.457 137.425 209.541C137.382 210.173 137.543 210.764 138.01 209.877C138.99 209.543 138.414 209.404 137.852 209.239Z" fill="black"/>
<path d="M141.32 212.212C141.236 212.234 141.155 212.2 141.111 212.129C140.791 211.642 140.478 211.325 140.205 211.046C140.063 210.914 139.92 210.809 139.78 210.723C139.651 210.624 139.521 210.546 139.395 210.485C138.883 210.253 138.458 210.228 138.381 210.296C138.307 210.361 138.263 210.809 138.607 211.326C138.69 211.456 138.793 211.594 138.92 211.731C139.058 211.855 139.222 211.977 139.41 212.091C139.775 212.337 140.29 212.484 140.881 212.539C140.963 212.549 141.039 212.599 141.076 212.67C141.346 213.214 141.734 213.725 141.759 212.701C142.471 211.996 141.917 212.071 141.32 212.212Z" fill="black"/>
<path d="M145.783 213.386C145.716 213.434 145.627 213.439 145.557 213.4C145.056 213.11 144.635 212.906 144.257 212.808C143.887 212.676 143.558 212.64 143.271 212.654C142.718 212.63 142.316 212.822 142.278 212.918C142.242 213.008 142.417 213.4 142.942 213.751C143.21 213.899 143.567 214.028 144.001 214.089C144.44 214.115 144.96 214.081 145.52 213.866C145.599 213.834 145.689 213.847 145.752 213.902C146.222 214.301 146.777 214.626 146.387 213.672C146.755 212.752 146.271 213.029 145.783 213.386Z" fill="black"/>
<path d="M149.07 211.192C149.022 211.259 148.937 211.293 148.856 211.28C148.273 211.149 147.814 211.114 147.412 211.09C147.015 211.095 146.682 211.127 146.402 211.2C145.846 211.365 145.5 211.593 145.487 211.71C145.482 211.758 145.547 211.869 145.693 211.995C145.838 212.126 146.063 212.266 146.375 212.343C146.684 212.431 147.078 212.483 147.531 212.391C147.983 212.328 148.49 212.101 148.975 211.733C149.042 211.676 149.134 211.658 149.215 211.689C149.821 211.928 150.472 211.97 149.751 211.25C149.752 210.233 149.424 210.716 149.07 211.192Z" fill="black"/>
<path d="M153.024 208.709C153.02 208.791 152.963 208.86 152.885 208.889C151.799 209.326 151.185 209.703 150.795 210.131C150.402 210.53 150.251 210.947 150.288 211.033C150.331 211.13 150.749 211.282 151.386 211.116C151.701 211.034 152.05 210.839 152.398 210.543C152.561 210.381 152.723 210.192 152.874 209.976C153.023 209.759 153.134 209.486 153.236 209.204C153.264 209.123 153.337 209.064 153.422 209.046C154.03 208.896 154.639 208.615 153.616 208.383C153.075 207.543 153.023 208.094 153.024 208.709Z" fill="black"/>
<path d="M155.1 204.522C155.137 204.597 155.13 204.687 155.077 204.75C154.674 205.196 154.437 205.592 154.234 205.937C154.061 206.293 153.94 206.6 153.886 206.88C153.787 207.441 153.848 207.849 153.947 207.913C154.016 207.96 154.493 207.888 154.917 207.409C155.359 206.955 155.749 206.06 155.539 204.863C155.522 204.78 155.547 204.691 155.612 204.636C156.087 204.23 156.502 203.724 155.482 203.963C154.616 203.448 154.819 203.976 155.1 204.522Z" fill="black"/>
<path d="M155.157 199.847C155.222 199.898 155.26 199.981 155.232 200.062C155.147 200.347 155.09 200.602 155.058 200.836C155.02 201.069 154.979 201.285 154.974 201.482C154.973 201.875 154.977 202.209 155.058 202.487C155.203 203.041 155.448 203.384 155.563 203.398C155.649 203.409 156.036 203.142 156.22 202.538C156.41 201.95 156.422 200.972 155.699 199.971C155.655 199.9 155.633 199.811 155.669 199.733C155.921 199.16 156.055 198.516 155.254 199.181C154.245 199.105 154.666 199.476 155.157 199.847Z" fill="black"/>
<path d="M152.915 195.786C152.997 195.796 153.065 195.854 153.091 195.932C153.431 197.038 153.803 197.647 154.185 198.078C154.585 198.484 154.958 198.679 155.064 198.641C155.148 198.611 155.373 198.197 155.229 197.572C155.124 196.952 154.593 196.082 153.436 195.61C153.355 195.578 153.297 195.506 153.286 195.42C153.199 194.788 152.919 194.206 152.63 195.179C151.729 195.67 152.315 195.72 152.915 195.786Z" fill="black"/>
<path d="M148.787 193.561C148.864 193.522 148.955 193.533 149.017 193.592C149.914 194.348 150.556 194.696 151.13 194.822C151.676 194.967 152.113 194.905 152.18 194.818C152.236 194.746 152.174 194.302 151.72 193.836C151.268 193.4 150.374 192.931 149.14 193.14C149.055 193.149 148.967 193.121 148.911 193.059C148.501 192.59 147.982 192.179 148.223 193.183C147.697 194.033 148.23 193.835 148.787 193.561Z" fill="black"/>
<path d="M144.066 193.612C144.114 193.544 144.198 193.511 144.279 193.524C144.863 193.654 145.321 193.692 145.722 193.715C146.118 193.707 146.451 193.685 146.731 193.607C147.286 193.452 147.634 193.216 147.648 193.102C147.66 193.019 147.387 192.632 146.763 192.464C146.159 192.275 145.143 192.313 144.16 193.071C144.093 193.128 144.002 193.146 143.92 193.116C143.314 192.879 142.662 192.836 143.385 193.554C143.386 194.571 143.713 194.091 144.066 193.612Z" fill="black"/>
<path d="M140.119 196.105C140.122 196.024 140.179 195.955 140.258 195.925C141.342 195.486 141.955 195.106 142.344 194.678C142.543 194.481 142.675 194.275 142.756 194.105C142.839 193.942 142.871 193.823 142.848 193.775C142.805 193.678 142.386 193.524 141.75 193.694C141.434 193.776 141.087 193.974 140.739 194.27C140.577 194.432 140.416 194.622 140.266 194.838C140.116 195.055 140.007 195.329 139.905 195.611C139.878 195.691 139.805 195.751 139.72 195.769C139.112 195.921 138.504 196.202 139.527 196.433C140.07 197.272 140.12 196.72 140.119 196.105Z" fill="black"/>
<path d="M138.046 200.295C138.009 200.22 138.016 200.13 138.069 200.066C138.471 199.621 138.708 199.225 138.911 198.879C139.084 198.523 139.205 198.216 139.259 197.936C139.358 197.375 139.296 196.967 139.197 196.903C139.128 196.856 138.651 196.928 138.228 197.407C137.786 197.862 137.397 198.757 137.607 199.954C137.624 200.037 137.599 200.126 137.534 200.18C137.058 200.587 136.644 201.093 137.664 200.853C138.53 201.368 138.327 200.84 138.046 200.295Z" fill="black"/>
<path d="M137.988 204.971C137.922 204.919 137.884 204.836 137.913 204.755C137.998 204.47 138.055 204.215 138.087 203.982C138.126 203.748 138.167 203.532 138.172 203.335C138.173 202.942 138.169 202.608 138.088 202.33C137.943 201.776 137.698 201.433 137.583 201.419C137.497 201.408 137.11 201.675 136.926 202.279C136.736 202.867 136.724 203.844 137.446 204.846C137.49 204.917 137.511 205.006 137.475 205.084C137.223 205.657 137.087 206.3 137.89 205.636C138.899 205.714 138.478 205.342 137.988 204.971Z" fill="black"/>
<path d="M140.22 209.037C140.138 209.027 140.07 208.969 140.044 208.89C139.707 207.784 139.338 207.174 138.956 206.742C138.557 206.334 138.185 206.139 138.078 206.176C137.994 206.206 137.769 206.62 137.911 207.245C138.014 207.865 138.543 208.736 139.698 209.211C139.779 209.243 139.837 209.316 139.848 209.402C139.935 210.033 140.211 210.619 140.504 209.645C141.404 209.157 140.821 209.103 140.22 209.037Z" fill="black"/>
<path d="M144.346 211.257C144.27 211.293 144.177 211.288 144.115 211.231C143.219 210.469 142.573 210.136 142.003 210.004C141.456 209.861 141.021 209.919 140.954 210.006C140.898 210.077 140.957 210.525 141.412 210.989C141.861 211.431 142.764 211.887 143.995 211.684C144.079 211.673 144.17 211.694 144.225 211.76C144.637 212.23 145.159 212.641 144.911 211.635C145.429 210.785 144.901 210.983 144.346 211.257Z" fill="black"/>
<path d="M117.348 192.653C117.582 191.422 116.37 190.099 115.027 190.698C114.984 190.71 114.929 190.761 114.982 190.802C116.011 191.418 116.466 192.849 116.011 194.045C116.003 194.078 116.014 194.093 116.032 194.101C116.039 194.119 116.053 194.131 116.081 194.122C117.158 193.617 118.448 194.12 119.003 195.264C119.043 195.324 119.084 195.26 119.097 195.214C119.632 193.725 118.456 192.394 117.348 192.653Z" fill="black"/>
<path d="M122.568 185.659C122.801 184.428 121.59 183.105 120.246 183.704C120.203 183.716 120.149 183.767 120.201 183.808C121.231 184.424 121.686 185.855 121.231 187.051C121.223 187.084 121.234 187.099 121.252 187.106C121.259 187.124 121.273 187.137 121.3 187.128C122.378 186.623 123.667 187.126 124.223 188.27C124.263 188.33 124.304 188.266 124.317 188.22C124.852 186.731 123.675 185.4 122.568 185.659Z" fill="black"/>
<path d="M132.786 184.104C133.019 182.873 131.808 181.55 130.464 182.149C130.422 182.161 130.367 182.212 130.419 182.253C131.449 182.869 131.904 184.299 131.449 185.496C131.441 185.529 131.452 185.544 131.47 185.551C131.477 185.569 131.491 185.582 131.518 185.573C132.596 185.068 133.885 185.571 134.441 186.714C134.481 186.774 134.522 186.71 134.535 186.664C135.07 185.176 133.893 183.845 132.786 184.104Z" fill="black"/>
<path d="M112.525 198.195C112.759 196.964 111.547 195.641 110.204 196.24C110.161 196.252 110.106 196.303 110.159 196.344C111.188 196.96 111.643 198.391 111.188 199.587C111.18 199.62 111.191 199.635 111.209 199.643C111.216 199.661 111.23 199.673 111.258 199.664C112.335 199.159 113.625 199.662 114.18 200.806C114.22 200.866 114.261 200.802 114.274 200.756C114.809 199.267 113.633 197.936 112.525 198.195Z" fill="black"/>
<path d="M107.388 207.284C107.622 206.054 106.41 204.73 105.067 205.329C105.024 205.341 104.969 205.393 105.022 205.433C106.051 206.05 106.506 207.48 106.051 208.676C106.043 208.709 106.054 208.725 106.072 208.732C106.079 208.75 106.093 208.762 106.121 208.754C107.198 208.249 108.488 208.752 109.043 209.895C109.083 209.955 109.124 209.891 109.137 209.845C109.672 208.356 108.496 207.026 107.388 207.284Z" fill="black"/>
<path d="M123.931 218.507C124.164 217.277 122.953 215.954 121.609 216.553C121.567 216.565 121.512 216.616 121.564 216.657C122.594 217.273 123.049 218.703 122.594 219.899C122.586 219.932 122.597 219.948 122.615 219.955C122.622 219.973 122.636 219.985 122.663 219.977C123.741 219.472 125.03 219.975 125.586 221.118C125.626 221.178 125.667 221.114 125.68 221.068C126.215 219.58 125.038 218.249 123.931 218.507Z" fill="black"/>
<path d="M121.619 192.653C121.852 191.422 120.64 190.099 119.297 190.698C119.254 190.71 119.199 190.761 119.252 190.802C120.281 191.418 120.736 192.849 120.281 194.045C120.273 194.078 120.285 194.093 120.302 194.101C120.31 194.119 120.323 194.131 120.351 194.122C121.429 193.617 122.718 194.12 123.273 195.264C123.313 195.324 123.354 195.26 123.367 195.214C123.902 193.725 122.726 192.394 121.619 192.653Z" fill="black"/>
<path d="M125.889 192.653C126.122 191.422 124.911 190.099 123.567 190.698C123.524 190.71 123.47 190.761 123.522 190.802C124.552 191.418 125.007 192.849 124.551 194.045C124.544 194.078 124.555 194.093 124.573 194.101C124.58 194.119 124.594 194.131 124.621 194.122C125.699 193.617 126.988 194.12 127.544 195.264C127.584 195.324 127.625 195.26 127.638 195.214C128.173 193.725 126.996 192.394 125.889 192.653Z" fill="black"/>
<path d="M130.159 192.653C130.393 191.422 129.181 190.099 127.837 190.698C127.794 190.71 127.74 190.761 127.792 190.802C128.822 191.418 129.277 192.849 128.822 194.045C128.814 194.078 128.825 194.093 128.843 194.101C128.85 194.119 128.864 194.131 128.891 194.122C129.969 193.617 131.259 194.12 131.814 195.264C131.854 195.324 131.895 195.26 131.908 195.214C132.443 193.725 131.267 192.394 130.159 192.653Z" fill="black"/>
<path d="M117.263 211.957C117.506 210.726 116.246 209.403 114.85 210.002C114.806 210.014 114.749 210.065 114.803 210.106C115.873 210.722 116.346 212.152 115.873 213.349C115.865 213.382 115.877 213.397 115.895 213.404C115.903 213.423 115.917 213.435 115.945 213.426C117.066 212.921 118.406 213.424 118.983 214.567C119.024 214.628 119.067 214.563 119.081 214.517C119.636 213.029 118.414 211.698 117.263 211.957Z" fill="black"/>
<path d="M121.701 211.957C121.944 210.726 120.685 209.403 119.288 210.002C119.244 210.014 119.187 210.065 119.241 210.106C120.311 210.722 120.784 212.152 120.311 213.349C120.303 213.382 120.315 213.397 120.333 213.404C120.341 213.423 120.355 213.435 120.384 213.426C121.504 212.921 122.844 213.424 123.421 214.567C123.463 214.628 123.505 214.563 123.519 214.517C124.075 213.029 122.852 211.698 121.701 211.957Z" fill="black"/>
<path d="M126.139 211.957C126.382 210.726 125.122 209.403 123.726 210.002C123.682 210.014 123.625 210.065 123.679 210.106C124.749 210.722 125.222 212.152 124.749 213.349C124.741 213.382 124.753 213.397 124.771 213.404C124.779 213.423 124.794 213.435 124.821 213.426C125.942 212.921 127.282 213.424 127.859 214.567C127.9 214.628 127.943 214.563 127.956 214.517C128.512 213.029 127.29 211.698 126.139 211.957Z" fill="black"/>
<path d="M130.577 211.957C130.82 210.726 129.561 209.403 128.164 210.002C128.12 210.014 128.063 210.065 128.117 210.106C129.187 210.722 129.66 212.152 129.187 213.349C129.179 213.382 129.191 213.397 129.209 213.404C129.217 213.423 129.232 213.435 129.26 213.426C130.38 212.921 131.72 213.424 132.297 214.567C132.339 214.628 132.381 214.563 132.395 214.517C132.951 213.029 131.728 211.698 130.577 211.957Z" fill="black"/>
<path d="M118.741 207.303C119.042 206.148 117.822 204.947 116.377 205.543C116.331 205.555 116.271 205.605 116.325 205.641C117.384 206.188 117.801 207.51 117.267 208.639C117.257 208.67 117.269 208.684 117.287 208.691C117.294 208.707 117.308 208.718 117.337 208.709C118.498 208.209 119.836 208.642 120.372 209.694C120.411 209.749 120.457 209.688 120.473 209.644C121.104 208.24 119.922 207.031 118.741 207.303Z" fill="black"/>
<path d="M121.342 204.852C121.643 203.697 120.423 202.495 118.978 203.092C118.932 203.104 118.872 203.153 118.926 203.19C119.985 203.737 120.402 205.059 119.868 206.188C119.858 206.219 119.87 206.233 119.888 206.239C119.895 206.256 119.909 206.267 119.938 206.258C121.098 205.757 122.437 206.191 122.972 207.242C123.012 207.297 123.058 207.237 123.074 207.193C123.705 205.789 122.523 204.58 121.342 204.852Z" fill="black"/>
<path d="M123.943 202.401C124.244 201.246 123.024 200.045 121.578 200.641C121.533 200.653 121.473 200.703 121.527 200.739C122.586 201.286 123.002 202.608 122.469 203.737C122.459 203.768 122.47 203.783 122.489 203.788C122.495 203.805 122.51 203.816 122.538 203.807C123.699 203.307 125.038 203.741 125.573 204.792C125.612 204.847 125.658 204.786 125.674 204.742C126.306 203.338 125.124 202.129 123.943 202.401Z" fill="black"/>
<path d="M126.543 199.951C126.845 198.795 125.624 197.594 124.179 198.19C124.134 198.203 124.074 198.252 124.127 198.289C125.187 198.835 125.603 200.157 125.069 201.287C125.06 201.318 125.071 201.332 125.09 201.338C125.096 201.355 125.11 201.366 125.139 201.357C126.299 200.856 127.638 201.29 128.174 202.341C128.213 202.396 128.259 202.335 128.275 202.292C128.907 200.888 127.724 199.679 126.543 199.951Z" fill="black"/>
<path d="M129.144 197.5C129.445 196.345 128.225 195.144 126.78 195.739C126.734 195.752 126.674 195.801 126.728 195.838C127.787 196.385 128.204 197.707 127.67 198.836C127.66 198.867 127.672 198.881 127.69 198.887C127.697 198.904 127.711 198.915 127.74 198.906C128.9 198.405 130.239 198.839 130.774 199.89C130.814 199.945 130.86 199.884 130.876 199.841C131.507 198.437 130.325 197.228 129.144 197.5Z" fill="black"/>
<path d="M107.422 218.214H116.01C119.914 218.214 122.581 220.805 122.581 224.068C122.581 226.18 121.443 227.971 119.783 228.803V228.994C121.735 229.986 123.004 232.13 123.004 234.401C123.004 237.92 119.979 240.607 115.945 240.607H107.422V218.214ZM115.75 227.747C117.799 227.747 119.296 226.339 119.296 224.388C119.296 222.437 117.799 221.061 115.75 221.061H110.642V227.747H115.75ZM116.042 237.759C118.027 237.759 119.719 236.128 119.719 234.177C119.719 232.225 118.027 230.562 116.042 230.562H110.642V237.759H116.042Z" fill="black"/>
<path d="M127.784 218.214H136.373C140.277 218.214 143.107 220.997 143.107 224.708C143.107 227.683 141.318 229.922 138.39 230.786L143.921 240.607H140.31L135.137 231.362H131.005V240.607H127.784V218.214ZM136.048 228.515C138.162 228.515 139.821 226.851 139.821 224.772C139.821 222.724 138.162 221.061 136.048 221.061H131.005V228.515H136.048Z" fill="black"/>
<path d="M148.505 218.214H151.791L163.242 235.104H163.437V218.214H166.561V240.607H163.275L151.791 223.716H151.596V240.607H148.505V218.214Z" fill="black"/>
<path d="M171.73 229.41C171.73 222.693 176.61 217.862 183.344 217.862C190.078 217.862 194.959 222.693 194.959 229.41C194.959 236.128 190.078 240.959 183.344 240.959C176.61 240.959 171.73 236.128 171.73 229.41ZM183.344 238.047C188.224 238.047 191.673 234.497 191.673 229.41C191.673 224.324 188.224 220.773 183.344 220.773C178.432 220.773 175.017 224.324 175.017 229.41C175.017 234.497 178.432 238.047 183.344 238.047Z" fill="black"/>
<path d="M150.834 200.769C150.904 200.818 150.945 200.903 150.922 200.989C150.674 202.159 150.586 202.884 150.648 203.47C150.675 203.757 150.73 203.997 150.785 204.174C150.848 204.354 150.916 204.468 150.963 204.486C151.011 204.504 151.138 204.464 151.294 204.338C151.458 204.215 151.645 204.001 151.791 203.683C151.937 203.366 152.028 202.944 151.996 202.453C151.945 201.966 151.792 201.396 151.384 200.875C151.334 200.801 151.309 200.706 151.337 200.62C151.448 200.307 151.49 199.962 151.422 199.802C151.356 199.636 151.201 199.682 150.85 200.069C150.337 200.079 150.213 200.195 150.268 200.312C150.328 200.431 150.582 200.583 150.834 200.769Z" fill="black"/>
<path d="M143.006 199.362C142.998 199.275 143.054 199.199 143.132 199.163C143.682 198.904 144.101 198.73 144.459 198.579C144.81 198.422 145.093 198.272 145.335 198.121C145.576 197.97 145.77 197.819 145.908 197.692C146.045 197.556 146.121 197.451 146.117 197.4C146.112 197.351 146.021 197.251 145.837 197.17C145.653 197.08 145.374 197.004 145.011 197.022C144.652 197.04 144.206 197.159 143.777 197.458C143.345 197.745 142.949 198.24 142.762 198.868C142.735 198.956 142.662 199.026 142.58 199.059C142.425 199.116 142.266 199.186 142.134 199.262C142.012 199.342 141.915 199.427 141.871 199.502C141.78 199.657 141.913 199.747 142.438 199.778C142.764 200.169 142.935 200.193 142.992 200.078C143.022 200.018 143.027 199.917 143.02 199.789C143.022 199.667 143.015 199.519 143.006 199.362Z" fill="black"/>
<path d="M145.773 207.113C145.698 207.152 145.6 207.155 145.533 207.096C145.044 206.739 144.702 206.432 144.396 206.199C144.088 205.972 143.834 205.781 143.58 205.649C143.1 205.364 142.674 205.231 142.576 205.289C142.501 205.33 142.375 205.798 142.733 206.432C142.922 206.731 143.224 207.08 143.698 207.31C144.16 207.545 144.777 207.683 145.434 207.554C145.524 207.544 145.623 207.559 145.689 207.623C145.93 207.86 146.228 208.041 146.404 208.053C146.584 208.066 146.608 207.908 146.406 207.43C146.619 206.972 146.567 206.81 146.435 206.809C146.298 206.808 146.049 206.972 145.773 207.113Z" fill="black"/>
<path d="M150.612 215.046C150.563 215.119 150.473 215.143 150.389 215.128C149.193 214.923 148.403 215.006 147.835 215.239C147.272 215.423 146.961 215.75 146.963 215.852C146.966 215.95 147.299 216.247 147.94 216.378C148.567 216.464 149.541 216.367 150.516 215.579C150.584 215.524 150.68 215.516 150.761 215.541C151.361 215.736 152.018 215.83 151.304 215.082C151.346 214.076 150.966 214.524 150.612 215.046Z" fill="black"/>
<path d="M159.418 204.441C159.461 204.513 159.457 204.605 159.411 204.676C159.104 205.184 158.848 205.611 158.719 206.002C158.601 206.397 158.516 206.731 158.504 207.027C158.491 207.321 158.534 207.571 158.591 207.753C158.635 207.93 158.7 208.042 158.749 208.061C158.794 208.079 158.924 208.045 159.092 207.941C159.247 207.832 159.434 207.65 159.61 207.381C159.784 207.113 159.963 206.761 160.009 206.31C160.066 205.863 160.083 205.336 159.882 204.742C159.857 204.659 159.878 204.567 159.939 204.505C160.161 204.279 160.374 204.028 160.393 203.875C160.405 203.721 160.245 203.677 159.761 203.836C159.295 203.601 159.132 203.63 159.131 203.771C159.124 203.912 159.258 204.174 159.418 204.441Z" fill="black"/>
<path d="M154.3 191.544C154.385 191.542 154.464 191.59 154.504 191.664C154.644 191.933 154.801 192.142 154.931 192.356C155.061 192.568 155.195 192.747 155.332 192.9C155.617 193.193 155.86 193.439 156.114 193.596C156.626 193.904 157.05 193.986 157.136 193.925C157.214 193.868 157.297 193.41 156.99 192.844C156.841 192.561 156.628 192.223 156.249 191.956C156.066 191.817 155.856 191.682 155.619 191.559C155.384 191.435 155.091 191.361 154.789 191.289C154.703 191.27 154.632 191.207 154.606 191.124C154.558 190.971 154.504 190.818 154.444 190.693C154.377 190.576 154.308 190.484 154.242 190.441C154.107 190.356 153.995 190.475 153.913 190.973C153.488 191.269 153.439 191.425 153.563 191.492C153.625 191.525 153.733 191.538 153.867 191.538C153.995 191.547 154.145 191.548 154.3 191.544Z" fill="black"/>
<path d="M144.933 189.291C144.995 189.232 145.085 189.203 145.167 189.239C145.742 189.472 146.221 189.557 146.639 189.604C147.056 189.665 147.411 189.639 147.707 189.572C148.295 189.457 148.655 189.217 148.671 189.108C148.685 189.02 148.411 188.641 147.797 188.432C147.492 188.337 147.103 188.277 146.648 188.298C146.193 188.334 145.67 188.5 145.124 188.773C145.047 188.809 144.953 188.821 144.877 188.777C144.323 188.472 143.698 188.256 144.258 189.124C144.025 190.103 144.486 189.735 144.933 189.291Z" fill="black"/>
<path d="M134.231 198.003C134.202 197.925 134.223 197.836 134.281 197.774C134.491 197.554 134.66 197.345 134.801 197.145C134.963 196.953 135.092 196.768 135.195 196.59C135.297 196.411 135.373 196.239 135.431 196.074C135.504 195.917 135.555 195.766 135.59 195.623C135.725 195.053 135.622 194.613 135.544 194.562C135.453 194.504 135.019 194.608 134.569 195.075C134.456 195.191 134.342 195.328 134.233 195.488C134.139 195.656 134.053 195.848 133.98 196.062C133.907 196.276 133.847 196.514 133.807 196.773C133.789 197.038 133.795 197.327 133.828 197.632C133.838 197.718 133.8 197.804 133.728 197.855C133.186 198.227 132.802 198.724 133.806 198.548C134.659 199.147 134.433 198.568 134.231 198.003Z" fill="black"/>
<path d="M136.999 211.681C136.916 211.666 136.849 211.602 136.825 211.521C136.745 211.23 136.638 210.991 136.554 210.758C136.471 210.523 136.377 210.32 136.276 210.142C136.059 209.795 135.865 209.51 135.652 209.302C135.217 208.896 134.806 208.738 134.715 208.779C134.622 208.822 134.46 209.25 134.64 209.865C134.724 210.174 134.868 210.542 135.181 210.881C135.33 211.054 135.507 211.229 135.712 211.397C135.919 211.563 136.187 211.698 136.467 211.83C136.548 211.866 136.604 211.942 136.611 212.029C136.631 212.354 136.708 212.663 136.824 212.77C136.937 212.882 137.072 212.788 137.258 212.318C137.736 212.116 137.817 211.972 137.71 211.882C137.599 211.794 137.296 211.744 136.999 211.681Z" fill="black"/>
<path d="M157.814 210.504C157.816 210.588 157.768 210.665 157.693 210.703C157.181 210.99 156.742 211.225 156.441 211.501C156.286 211.634 156.162 211.776 156.051 211.908C155.932 212.033 155.836 212.158 155.757 212.28C155.446 212.77 155.412 213.219 155.478 213.299C155.539 213.374 155.977 213.407 156.548 213.119C156.69 213.048 156.84 212.956 156.992 212.842C157.137 212.721 157.274 212.567 157.411 212.392C157.675 212.035 157.955 211.599 158.069 210.99C158.088 210.906 158.151 210.838 158.234 210.815C158.845 210.643 159.437 210.365 158.408 210.155C157.851 209.325 157.797 209.895 157.814 210.504Z" fill="black"/>
<path d="M157.479 191.665C157.561 191.686 157.617 191.757 157.631 191.84C157.715 192.437 157.898 192.866 158.05 193.244C158.204 193.62 158.403 193.899 158.61 194.112C158.994 194.547 159.388 194.725 159.491 194.685C159.577 194.652 159.771 194.236 159.658 193.615C159.587 193.313 159.445 192.958 159.198 192.589C158.954 192.219 158.528 191.878 158.015 191.565C157.941 191.522 157.898 191.439 157.898 191.354C157.879 190.742 157.746 190.117 157.277 191.026C156.303 191.341 156.861 191.529 157.479 191.665Z" fill="black"/>
<path d="M138.142 189.447C138.17 189.37 138.244 189.317 138.329 189.308C138.929 189.246 139.383 189.11 139.782 188.993C140.173 188.864 140.46 188.665 140.697 188.493C141.171 188.161 141.368 187.762 141.336 187.664C141.305 187.572 140.905 187.379 140.262 187.432C139.944 187.464 139.584 187.602 139.194 187.822C138.798 188.029 138.418 188.41 138.076 188.911C138.028 188.982 137.943 189.022 137.855 189.014C137.208 188.953 136.594 189.082 137.471 189.589C137.736 190.582 137.935 190.006 138.142 189.447Z" fill="black"/>
<path d="M132.431 206.207C132.366 206.154 132.337 206.068 132.355 205.987C132.467 205.418 132.567 204.933 132.545 204.525C132.528 204.118 132.444 203.781 132.362 203.503C132.176 202.95 131.845 202.647 131.741 202.648C131.642 202.65 131.339 202.968 131.202 203.579C131.122 203.885 131.124 204.261 131.228 204.688C131.336 205.115 131.493 205.602 131.89 206.083C131.942 206.151 131.954 206.242 131.919 206.319C131.655 206.887 131.486 207.508 132.317 206.878C133.322 207.003 132.914 206.591 132.431 206.207Z" fill="black"/>
<path d="M145.732 217.669C145.663 217.718 145.571 217.722 145.496 217.683C144.965 217.424 144.515 217.223 144.114 217.124C143.712 217.026 143.359 217.028 143.068 217.025C142.482 217.049 142.092 217.277 142.063 217.375C142.036 217.469 142.261 217.843 142.825 218.144C143.104 218.308 143.477 218.394 143.925 218.416C144.372 218.439 144.894 218.396 145.469 218.15C145.55 218.118 145.642 218.131 145.709 218.185C146.197 218.586 146.762 218.911 146.361 217.956C146.746 217.037 146.234 217.314 145.732 217.669Z" fill="black"/>
</g>
</svg>
