<svg width="320" height="238" viewBox="0 0 320 238" fill="none" xmlns="http://www.w3.org/2000/svg">
<rect width="320" height="238" fill="#ffffff"/>
<g opacity="0.25">
<path d="M179.007 115.946L178.942 115.97C178.943 115.959 178.944 115.95 178.945 115.937C178.94 115.786 178.862 115.637 178.766 115.649C178.671 115.661 178.605 115.828 178.623 115.976C178.63 116.046 178.654 116.097 178.684 116.134C178.499 116.062 178.246 116.062 177.966 116.099C177.706 116.157 177.423 116.26 177.208 116.402C176.997 116.551 176.868 116.701 176.804 116.843C176.775 116.9 176.724 116.948 176.663 116.967C176.499 117.014 176.338 117.121 176.219 117.283C176.05 117.5 176.053 117.798 176.179 118.007C176.426 118.405 176.944 118.429 177.268 118.17C177.348 118.101 177.408 118.017 177.447 117.923C177.47 117.867 177.522 117.832 177.582 117.831C177.727 117.825 177.882 117.772 178.053 117.649C178.224 117.536 178.396 117.396 178.541 117.226C178.693 117.084 178.82 116.901 178.9 116.742C178.902 116.787 178.918 116.841 178.954 116.902C179.03 117.033 179.149 117.146 179.204 117.114C179.26 117.083 179.243 116.916 179.179 116.782C179.172 116.772 179.168 116.765 179.163 116.755C179.181 116.752 179.198 116.75 179.217 116.745C179.45 116.68 179.629 116.485 179.606 116.252C179.587 116.032 179.31 115.865 179.007 115.946Z" fill="black"/>
<path d="M173.585 121.738L173.549 121.795C173.542 121.786 173.537 121.778 173.53 121.768C173.433 121.65 173.28 121.577 173.211 121.644C173.142 121.711 173.192 121.882 173.297 121.99C173.346 122.041 173.396 122.068 173.443 122.08C173.251 122.132 173.05 122.283 172.85 122.479C172.678 122.679 172.516 122.93 172.431 123.17C172.354 123.415 172.343 123.611 172.379 123.763C172.392 123.825 172.38 123.894 172.343 123.944C172.242 124.08 172.178 124.261 172.183 124.462C172.182 124.735 172.367 124.97 172.596 125.062C173.037 125.232 173.464 124.943 173.563 124.544C173.585 124.441 173.581 124.339 173.555 124.241C173.538 124.183 173.559 124.124 173.606 124.087C173.717 123.996 173.808 123.861 173.869 123.662C173.937 123.47 173.988 123.257 173.999 123.035C174.032 122.831 174.022 122.61 173.988 122.436C174.017 122.47 174.063 122.504 174.129 122.531C174.271 122.59 174.434 122.609 174.459 122.551C174.484 122.493 174.368 122.37 174.235 122.301C174.224 122.297 174.216 122.294 174.206 122.29C174.218 122.277 174.231 122.265 174.242 122.25C174.389 122.059 174.411 121.798 174.25 121.625C174.1 121.461 173.776 121.493 173.585 121.738Z" fill="black"/>
<path d="M171.196 122.021L171.148 122.07C171.144 122.06 171.141 122.051 171.136 122.04C171.065 121.905 170.93 121.803 170.849 121.855C170.768 121.906 170.782 122.084 170.862 122.211C170.899 122.27 170.943 122.307 170.986 122.328C170.787 122.34 170.559 122.448 170.323 122.599C170.113 122.761 169.902 122.974 169.769 123.192C169.643 123.416 169.592 123.606 169.596 123.762C169.595 123.825 169.569 123.89 169.523 123.932C169.395 124.045 169.296 124.209 169.258 124.406C169.201 124.673 169.333 124.94 169.538 125.077C169.935 125.332 170.413 125.135 170.592 124.764C170.635 124.668 170.652 124.567 170.648 124.466C170.643 124.405 170.675 124.352 170.729 124.326C170.857 124.259 170.974 124.146 171.075 123.962C171.181 123.788 171.275 123.589 171.332 123.374C171.407 123.182 171.443 122.963 171.446 122.785C171.467 122.825 171.505 122.867 171.564 122.907C171.69 122.993 171.847 123.045 171.883 122.994C171.919 122.942 171.832 122.798 171.715 122.703C171.705 122.697 171.698 122.693 171.689 122.687C171.704 122.677 171.719 122.667 171.733 122.654C171.916 122.498 171.992 122.247 171.87 122.045C171.757 121.854 171.434 121.82 171.196 122.021Z" fill="black"/>
<path d="M183.557 116.514L183.497 116.514C183.501 116.504 183.505 116.496 183.51 116.484C183.555 116.341 183.542 116.174 183.471 116.153C183.397 116.134 183.306 116.256 183.253 116.398C183.23 116.464 183.224 116.52 183.231 116.566C183.012 116.29 182.582 115.989 182.13 115.856C181.908 115.79 181.705 115.785 181.559 115.824C181.499 115.839 181.425 115.83 181.374 115.79C181.235 115.683 181.046 115.616 180.827 115.631C180.536 115.637 180.282 115.839 180.218 116.068C180.107 116.518 180.401 116.91 180.776 116.987C180.874 117.004 180.977 117.007 181.073 116.982C181.131 116.97 181.189 116.985 181.23 117.031C181.331 117.141 181.468 117.224 181.698 117.293C182.137 117.424 182.796 117.423 183.135 117.202C183.113 117.243 183.101 117.298 183.106 117.369C183.115 117.518 183.212 117.68 183.295 117.67C183.381 117.664 183.432 117.503 183.415 117.354C183.413 117.343 183.411 117.335 183.408 117.324L183.472 117.335C183.761 117.367 184.006 117.193 184.017 116.964C184.026 116.738 183.821 116.544 183.557 116.514Z" fill="black"/>
<path d="M187.613 115.706L187.566 115.742C187.563 115.73 187.561 115.722 187.558 115.71C187.504 115.568 187.393 115.447 187.325 115.468C187.257 115.488 187.253 115.651 187.3 115.793C187.322 115.86 187.352 115.908 187.386 115.94C187.027 115.856 186.508 115.898 186.124 116.004C185.93 116.07 185.789 116.133 185.693 116.239C185.654 116.282 185.595 116.297 185.541 116.278C185.394 116.226 185.24 116.236 185.075 116.289C184.856 116.373 184.673 116.572 184.619 116.812C184.511 117.262 184.895 117.664 185.41 117.61C185.536 117.592 185.651 117.549 185.749 117.489C185.806 117.455 185.878 117.448 185.942 117.465C186.096 117.506 186.305 117.524 186.559 117.441C187.072 117.298 187.582 116.869 187.702 116.503C187.711 116.548 187.735 116.6 187.782 116.653C187.882 116.766 188.047 116.836 188.116 116.781C188.186 116.726 188.124 116.565 188.02 116.458C188.01 116.45 188.004 116.445 187.996 116.438L188.053 116.408C188.305 116.254 188.39 115.969 188.252 115.782C188.118 115.6 187.834 115.571 187.613 115.706Z" fill="black"/>
<path d="M188.097 112.322L188.066 112.371C188.06 112.362 188.055 112.355 188.048 112.345C187.947 112.23 187.8 112.154 187.744 112.196C187.687 112.239 187.741 112.393 187.834 112.511C187.879 112.566 187.924 112.6 187.967 112.618C187.601 112.662 187.129 112.878 186.805 113.109C186.647 113.236 186.536 113.344 186.483 113.476C186.462 113.529 186.412 113.563 186.354 113.564C186.199 113.565 186.057 113.626 185.921 113.732C185.745 113.886 185.644 114.135 185.677 114.378C185.733 114.837 186.236 115.084 186.699 114.858C186.811 114.799 186.904 114.719 186.975 114.63C187.016 114.578 187.082 114.547 187.148 114.541C187.307 114.528 187.508 114.473 187.718 114.308C188.149 114 188.478 113.424 188.462 113.039C188.485 113.079 188.526 113.119 188.589 113.153C188.723 113.225 188.902 113.235 188.948 113.16C188.993 113.084 188.879 112.954 188.743 112.889C188.732 112.885 188.724 112.882 188.714 112.879L188.757 112.831C188.94 112.6 188.919 112.304 188.724 112.176C188.535 112.051 188.257 112.12 188.097 112.322Z" fill="black"/>
<path d="M190.714 112.785L190.684 112.835C190.677 112.827 190.672 112.82 190.664 112.81C190.557 112.705 190.401 112.637 190.348 112.685C190.294 112.733 190.36 112.885 190.463 112.995C190.511 113.047 190.559 113.077 190.604 113.092C190.243 113.166 189.776 113.433 189.479 113.735C189.317 113.892 189.231 114.044 189.195 114.185C189.18 114.242 189.137 114.289 189.08 114.306C188.926 114.352 188.788 114.452 188.684 114.598C188.547 114.802 188.525 115.074 188.631 115.295C188.829 115.715 189.377 115.797 189.74 115.477C189.827 115.397 189.892 115.302 189.934 115.203C189.958 115.144 190.012 115.101 190.075 115.087C190.226 115.052 190.387 114.959 190.561 114.789C190.913 114.434 191.179 113.854 191.132 113.472C191.158 113.51 191.203 113.546 191.268 113.575C191.407 113.635 191.585 113.633 191.622 113.555C191.661 113.478 191.542 113.359 191.399 113.302C191.388 113.299 191.379 113.297 191.368 113.294L191.411 113.245C191.567 112.999 191.531 112.707 191.33 112.595C191.129 112.482 190.853 112.567 190.714 112.785Z" fill="black"/>
<path d="M174.506 117.651L174.489 117.707C174.48 117.7 174.473 117.695 174.463 117.687C174.334 117.609 174.166 117.579 174.125 117.639C174.085 117.698 174.185 117.83 174.312 117.913C174.371 117.952 174.425 117.971 174.472 117.975C174.139 118.13 173.749 118.499 173.534 118.861C173.414 119.052 173.366 119.219 173.366 119.365C173.365 119.423 173.335 119.479 173.283 119.509C173.144 119.589 173.034 119.719 172.969 119.885C172.884 120.115 172.928 120.384 173.085 120.574C173.378 120.937 173.93 120.888 174.205 120.493C174.271 120.395 174.311 120.288 174.328 120.181C174.338 120.119 174.38 120.064 174.437 120.036C174.576 119.966 174.71 119.839 174.838 119.633C175.095 119.206 175.214 118.581 175.076 118.22C175.111 118.251 175.163 118.276 175.233 118.289C175.383 118.315 175.555 118.272 175.573 118.188C175.591 118.103 175.447 118.015 175.295 117.994C175.283 117.993 175.274 117.993 175.263 117.993L175.292 117.935C175.386 117.66 175.28 117.385 175.058 117.322C174.835 117.259 174.588 117.407 174.506 117.651Z" fill="black"/>
<path d="M192.033 108.837L192.036 108.896C192.025 108.892 192.017 108.888 192.005 108.884C191.857 108.846 191.69 108.866 191.67 108.936C191.648 109.004 191.783 109.102 191.928 109.145C191.996 109.165 192.054 109.167 192.099 109.158C191.829 109.403 191.569 109.874 191.469 110.276C191.414 110.481 191.42 110.645 191.455 110.78C191.47 110.834 191.456 110.894 191.415 110.934C191.31 111.043 191.221 111.179 191.204 111.354C191.176 111.589 191.269 111.837 191.466 111.997C191.818 112.294 192.367 112.143 192.544 111.676C192.591 111.562 192.609 111.445 192.596 111.333C192.59 111.267 192.616 111.202 192.665 111.158C192.787 111.053 192.881 110.883 192.946 110.637C193.069 110.15 192.99 109.522 192.75 109.218C192.793 109.237 192.85 109.246 192.921 109.238C193.073 109.22 193.225 109.13 193.218 109.044C193.209 108.959 193.042 108.916 192.892 108.939C192.881 108.942 192.872 108.944 192.862 108.947L192.87 108.884C192.887 108.595 192.7 108.363 192.466 108.365C192.237 108.366 192.048 108.578 192.033 108.837Z" fill="black"/>
<path d="M194.823 96.0784L194.773 96.1114C194.771 96.1003 194.77 96.0914 194.768 96.0795C194.723 95.9355 194.619 95.8056 194.548 95.8252C194.477 95.8425 194.462 96.0061 194.501 96.151C194.519 96.2186 194.547 96.2681 194.579 96.3012C194.226 96.2017 193.682 96.2289 193.281 96.3546C193.075 96.4156 192.936 96.5063 192.837 96.605C192.798 96.6469 192.739 96.6665 192.683 96.6527C192.533 96.6204 192.369 96.6173 192.209 96.6938C191.991 96.7933 191.823 97.0011 191.788 97.2496C191.714 97.7006 192.131 98.0825 192.629 97.988C192.752 97.968 192.862 97.9215 192.953 97.8523C193.006 97.8132 193.077 97.8013 193.14 97.8193C193.295 97.8669 193.491 97.8577 193.738 97.7844C194.225 97.6326 194.728 97.2396 194.867 96.8797C194.873 96.9254 194.894 96.9776 194.938 97.033C195.033 97.1513 195.191 97.232 195.261 97.1816C195.331 97.1294 195.281 96.9669 195.182 96.8532C195.174 96.8451 195.168 96.8394 195.159 96.8317L195.219 96.8055C195.477 96.6696 195.582 96.3914 195.458 96.1959C195.337 96.0046 195.056 95.9562 194.823 96.0784Z" fill="black"/>
<path d="M191.643 104.44V104.507C191.632 104.503 191.624 104.5 191.613 104.495C191.466 104.454 191.296 104.48 191.275 104.57C191.261 104.659 191.405 104.769 191.554 104.8C191.624 104.815 191.682 104.81 191.726 104.795C191.456 105.085 191.35 105.739 191.446 106.208C191.49 106.444 191.573 106.608 191.673 106.711C191.714 106.754 191.731 106.816 191.715 106.872C191.669 107.026 191.673 107.17 191.736 107.339C191.825 107.562 192.04 107.735 192.284 107.778C192.745 107.863 193.135 107.474 193.069 106.982C193.049 106.861 193.008 106.742 192.944 106.656C192.907 106.604 192.898 106.537 192.92 106.477C192.973 106.33 192.984 106.156 192.943 105.935C192.857 105.505 192.627 105.051 192.38 104.79C192.424 104.804 192.482 104.806 192.551 104.793C192.7 104.763 192.842 104.684 192.826 104.618C192.816 104.553 192.652 104.516 192.5 104.536C192.489 104.539 192.48 104.541 192.47 104.544C192.473 104.525 192.478 104.508 192.48 104.488C192.491 104.242 192.344 104.013 192.118 103.972C191.888 103.931 191.658 104.138 191.643 104.44Z" fill="black"/>
<path d="M190.041 102.617L190.02 102.681C190.011 102.674 190.004 102.668 189.995 102.66C189.868 102.577 189.698 102.551 189.65 102.63C189.609 102.711 189.712 102.858 189.844 102.933C189.906 102.969 189.962 102.981 190.009 102.98C189.662 103.175 189.358 103.766 189.303 104.241C189.272 104.479 189.301 104.66 189.363 104.789C189.388 104.842 189.386 104.905 189.353 104.955C189.262 105.088 189.221 105.226 189.228 105.405C189.244 105.644 189.394 105.874 189.613 105.988C190.026 106.208 190.519 105.955 190.608 105.467C190.627 105.345 190.625 105.22 190.59 105.119C190.571 105.058 190.584 104.991 190.623 104.941C190.72 104.817 190.784 104.655 190.813 104.431C190.866 103.997 190.787 103.495 190.633 103.173C190.671 103.198 190.725 103.218 190.796 103.226C190.947 103.243 191.107 103.21 191.112 103.143C191.122 103.078 190.978 102.994 190.827 102.967C190.815 102.966 190.807 102.966 190.796 102.965C190.805 102.949 190.815 102.933 190.822 102.915C190.909 102.684 190.841 102.422 190.638 102.315C190.433 102.206 190.149 102.335 190.041 102.617Z" fill="black"/>
<path d="M193.709 100.301L193.67 100.352C193.664 100.342 193.66 100.334 193.654 100.323C193.565 100.2 193.42 100.113 193.353 100.165C193.286 100.217 193.324 100.386 193.416 100.506C193.458 100.562 193.504 100.597 193.548 100.614C193.161 100.651 192.639 101.012 192.361 101.44C192.223 101.658 192.153 101.837 192.163 102.003C192.164 102.069 192.136 102.135 192.084 102.177C191.945 102.288 191.83 102.454 191.802 102.667C191.748 102.95 191.873 103.221 192.097 103.346C192.503 103.563 192.978 103.366 193.131 103.018C193.173 102.928 193.197 102.834 193.195 102.737C193.195 102.681 193.227 102.63 193.277 102.603C193.393 102.536 193.527 102.433 193.638 102.256C193.861 101.912 194.045 101.401 194.04 101.038C194.065 101.077 194.105 101.116 194.167 101.151C194.3 101.225 194.466 101.253 194.504 101.189C194.541 101.126 194.438 100.992 194.309 100.914C194.298 100.909 194.29 100.906 194.28 100.901L194.324 100.861C194.497 100.662 194.534 100.39 194.367 100.226C194.208 100.067 193.899 100.085 193.709 100.301Z" fill="black"/>
<path d="M196.678 96.8698L196.633 96.9166C196.629 96.9063 196.626 96.8982 196.621 96.8867C196.545 96.7557 196.409 96.6546 196.337 96.7C196.265 96.7453 196.287 96.917 196.365 97.0453C196.402 97.1052 196.444 97.144 196.486 97.1659C196.097 97.1648 195.541 97.4725 195.221 97.8709C195.062 98.0737 194.974 98.2454 194.967 98.4117C194.962 98.4774 194.927 98.54 194.871 98.5769C194.722 98.6737 194.59 98.8274 194.541 99.0367C194.459 99.3129 194.555 99.5949 194.765 99.7413C195.147 99.9967 195.64 99.8481 195.827 99.5165C195.878 99.4309 195.912 99.3402 195.92 99.2438C195.925 99.1873 195.962 99.1393 196.015 99.1178C196.136 99.0625 196.28 98.9734 196.409 98.8082C196.666 98.4882 196.901 97.998 196.933 97.6354C196.953 97.6769 196.99 97.7203 197.048 97.761C197.172 97.8482 197.335 97.8916 197.378 97.8321C197.422 97.7725 197.334 97.6292 197.213 97.5393C197.202 97.5332 197.195 97.529 197.186 97.5236L197.233 97.4875C197.426 97.3065 197.49 97.0399 197.341 96.8594C197.198 96.6865 196.889 96.6731 196.678 96.8698Z" fill="black"/>
<path d="M181.448 118.243L181.381 118.242C181.385 118.232 181.389 118.223 181.394 118.212C181.442 118.069 181.421 117.902 181.329 117.88C181.244 117.861 181.134 117.997 181.099 118.142C181.082 118.211 181.084 118.267 181.098 118.311C180.827 118.048 180.25 117.885 179.78 117.926C179.543 117.944 179.369 118.014 179.25 118.105C179.201 118.144 179.136 118.159 179.075 118.141C178.915 118.092 178.726 118.102 178.542 118.187C178.291 118.303 178.13 118.563 178.159 118.806C178.232 119.258 178.623 119.535 178.993 119.471C179.09 119.454 179.177 119.412 179.256 119.357C179.302 119.324 179.362 119.32 179.413 119.345C179.538 119.41 179.696 119.435 179.906 119.42C180.32 119.384 180.818 119.198 181.079 118.955C181.064 118.998 181.059 119.055 181.07 119.124C181.094 119.272 181.166 119.416 181.231 119.404C181.288 119.394 181.328 119.232 181.317 119.084C181.315 119.072 181.314 119.064 181.312 119.054C181.329 119.057 181.345 119.062 181.362 119.063C181.427 119.067 181.451 119.064 181.502 119.049C181.565 119.041 181.624 119.022 181.675 118.994C181.779 118.939 181.853 118.849 181.877 118.737C181.9 118.626 181.869 118.514 181.803 118.425C181.769 118.38 181.727 118.34 181.678 118.309C181.615 118.277 181.516 118.246 181.448 118.243Z" fill="black"/>
<path d="M176.901 119.475L176.859 119.527C176.854 119.517 176.85 119.509 176.844 119.499C176.757 119.374 176.609 119.289 176.536 119.348C176.469 119.403 176.513 119.572 176.609 119.688C176.654 119.742 176.701 119.774 176.745 119.791C176.368 119.843 175.887 120.197 175.635 120.59C175.506 120.787 175.457 120.964 175.459 121.113C175.461 121.175 175.433 121.235 175.382 121.272C175.245 121.367 175.139 121.522 175.096 121.718C175.037 121.984 175.151 122.267 175.365 122.392C175.774 122.608 176.235 122.471 176.407 122.141C176.452 122.055 176.471 121.962 176.474 121.866C176.475 121.811 176.509 121.762 176.56 121.737C176.688 121.678 176.804 121.57 176.919 121.395C177.14 121.05 177.291 120.547 177.253 120.195C177.279 120.233 177.322 120.271 177.384 120.304C177.519 120.376 177.679 120.406 177.709 120.348C177.735 120.297 177.629 120.168 177.502 120.087C177.491 120.081 177.484 120.077 177.474 120.072C177.487 120.062 177.501 120.052 177.512 120.039C177.555 119.991 177.567 119.97 177.586 119.921C177.617 119.867 177.637 119.809 177.646 119.752C177.665 119.637 177.636 119.525 177.561 119.439C177.485 119.353 177.376 119.309 177.263 119.307C177.206 119.306 177.149 119.315 177.094 119.335C177.03 119.365 176.945 119.424 176.901 119.475Z" fill="black"/>
<path d="M185.595 118.467C185.576 118.47 185.558 118.476 185.54 118.481C185.542 118.47 185.543 118.461 185.545 118.449C185.552 118.299 185.5 118.141 185.43 118.137C185.36 118.132 185.293 118.277 185.281 118.427C185.276 118.496 185.285 118.552 185.303 118.594C185.017 118.375 184.512 118.233 184.103 118.228C183.894 118.222 183.738 118.264 183.618 118.339C183.568 118.371 183.508 118.367 183.46 118.338C183.331 118.256 183.177 118.22 183.005 118.251C182.774 118.284 182.563 118.449 182.469 118.68C182.292 119.101 182.576 119.564 183.043 119.605C183.159 119.616 183.27 119.6 183.37 119.564C183.428 119.541 183.494 119.554 183.546 119.587C183.672 119.669 183.849 119.72 184.09 119.727C184.567 119.733 185.136 119.519 185.376 119.234C185.367 119.279 185.37 119.335 185.392 119.402C185.438 119.545 185.554 119.677 185.632 119.652C185.71 119.624 185.718 119.456 185.667 119.316C185.662 119.305 185.658 119.298 185.653 119.288L185.715 119.283C185.989 119.24 186.174 119.022 186.128 118.799C186.083 118.576 185.844 118.427 185.595 118.467Z" fill="black"/>
<path d="M171.68 118.32C171.672 118.337 171.668 118.355 171.662 118.373C171.653 118.366 171.647 118.36 171.637 118.352C171.513 118.265 171.35 118.223 171.309 118.279C171.266 118.334 171.354 118.468 171.475 118.558C171.532 118.6 171.585 118.622 171.631 118.63C171.289 118.75 170.895 119.091 170.67 119.428C170.552 119.597 170.504 119.749 170.502 119.889C170.503 119.947 170.468 119.995 170.417 120.019C170.277 120.082 170.163 120.19 170.097 120.349C170 120.559 170.028 120.823 170.174 121.024C170.438 121.399 170.988 121.414 171.275 121.049C171.346 120.959 171.393 120.858 171.416 120.756C171.428 120.695 171.475 120.648 171.531 120.622C171.669 120.562 171.809 120.443 171.944 120.247C172.207 119.855 172.331 119.269 172.217 118.915C172.25 118.947 172.3 118.975 172.369 118.993C172.516 119.032 172.692 119.008 172.712 118.929C172.732 118.849 172.592 118.752 172.444 118.718C172.433 118.717 172.424 118.716 172.413 118.715L172.442 118.662C172.553 118.411 172.468 118.14 172.252 118.058C172.036 117.975 171.78 118.092 171.68 118.32Z" fill="black"/>
<path d="M189.408 117.062C189.391 117.072 189.377 117.085 189.362 117.096C189.359 117.086 189.357 117.077 189.354 117.065C189.298 116.926 189.184 116.803 189.117 116.827C189.051 116.851 189.054 117.016 189.106 117.158C189.131 117.224 189.163 117.27 189.197 117.301C188.839 117.211 188.324 117.296 187.949 117.453C187.763 117.544 187.633 117.63 187.554 117.746C187.522 117.792 187.468 117.818 187.413 117.811C187.265 117.796 187.108 117.819 186.963 117.909C186.769 118.033 186.646 118.275 186.651 118.516C186.657 118.98 187.102 119.281 187.554 119.138C187.667 119.107 187.761 119.043 187.837 118.967C187.881 118.922 187.945 118.903 188.007 118.914C188.157 118.938 188.348 118.928 188.565 118.823C189.006 118.638 189.428 118.203 189.532 117.854C189.543 117.899 189.569 117.95 189.617 118.001C189.719 118.111 189.875 118.18 189.936 118.124C189.996 118.069 189.933 117.914 189.827 117.806C189.819 117.798 189.812 117.793 189.804 117.786L189.858 117.758C190.094 117.614 190.169 117.338 190.033 117.15C189.9 116.967 189.623 116.931 189.408 117.062Z" fill="black"/>
<path d="M192.403 114.304C192.391 114.32 192.383 114.336 192.374 114.353C192.367 114.344 192.362 114.337 192.354 114.327C192.25 114.217 192.099 114.143 192.047 114.189C191.997 114.238 192.054 114.386 192.154 114.499C192.201 114.551 192.248 114.583 192.292 114.6C192.109 114.621 191.904 114.699 191.714 114.81C191.515 114.915 191.326 115.048 191.187 115.199C191.039 115.346 190.955 115.483 190.926 115.62C190.913 115.675 190.874 115.72 190.819 115.736C190.676 115.78 190.537 115.86 190.439 116.001C190.306 116.191 190.293 116.466 190.396 116.685C190.593 117.107 191.117 117.202 191.473 116.904C191.563 116.832 191.625 116.74 191.663 116.641C191.686 116.583 191.737 116.541 191.798 116.529C191.944 116.496 192.109 116.413 192.277 116.245C192.437 116.074 192.584 115.856 192.683 115.635C192.775 115.405 192.823 115.177 192.808 114.995C192.834 115.033 192.877 115.07 192.941 115.102C193.077 115.168 193.255 115.181 193.288 115.106C193.323 115.032 193.207 114.909 193.069 114.847C193.057 114.843 193.05 114.841 193.039 114.837L193.079 114.791C193.24 114.569 193.212 114.287 193.019 114.163C192.825 114.039 192.549 114.102 192.403 114.304Z" fill="black"/>
<path d="M194.077 110.648C194.072 110.667 194.071 110.685 194.069 110.704C194.059 110.698 194.051 110.694 194.04 110.688C193.901 110.63 193.731 110.622 193.7 110.685C193.669 110.748 193.789 110.861 193.927 110.924C193.992 110.953 194.048 110.964 194.094 110.962C193.79 111.151 193.479 111.568 193.328 111.94C193.259 112.133 193.238 112.288 193.262 112.423C193.272 112.478 193.253 112.534 193.208 112.567C193.092 112.66 193.002 112.787 192.962 112.951C192.913 113.174 193.003 113.432 193.18 113.598C193.52 113.919 194.049 113.819 194.266 113.404C194.323 113.304 194.339 113.191 194.34 113.086C194.339 113.023 194.371 112.965 194.423 112.929C194.55 112.844 194.668 112.701 194.75 112.476C194.927 112.038 194.921 111.437 194.729 111.116C194.769 111.14 194.824 111.158 194.895 111.16C195.047 111.167 195.209 111.105 195.213 111.024C195.217 110.944 195.061 110.878 194.908 110.876C194.896 110.877 194.888 110.878 194.877 110.879L194.896 110.821C194.953 110.554 194.801 110.306 194.574 110.271C194.344 110.235 194.128 110.405 194.077 110.648Z" fill="black"/>
<path d="M194.143 106.615C194.146 106.634 194.152 106.652 194.157 106.67C194.146 106.668 194.137 106.667 194.124 106.666C193.973 106.662 193.812 106.717 193.808 106.787C193.803 106.858 193.957 106.921 194.109 106.928C194.18 106.932 194.237 106.921 194.279 106.901C194.067 107.191 193.94 107.7 193.953 108.105C193.967 108.311 194.005 108.463 194.085 108.579C194.117 108.626 194.123 108.685 194.096 108.734C194.028 108.865 193.988 109.018 194.026 109.185C194.08 109.411 194.253 109.609 194.49 109.69C194.928 109.847 195.382 109.545 195.403 109.082C195.41 108.968 195.391 108.86 195.344 108.763C195.318 108.707 195.323 108.641 195.355 108.589C195.433 108.462 195.49 108.285 195.474 108.049C195.459 107.583 195.224 107.038 194.926 106.811C194.972 106.819 195.029 106.815 195.097 106.791C195.24 106.741 195.367 106.626 195.34 106.55C195.314 106.475 195.144 106.471 195.002 106.525C194.991 106.53 194.983 106.534 194.974 106.539L194.97 106.479C194.931 106.244 194.734 106.069 194.502 106.078C194.272 106.086 194.097 106.334 194.143 106.615Z" fill="black"/>
<path d="M194.589 102.242L194.573 102.303C194.564 102.296 194.557 102.291 194.547 102.283C194.418 102.201 194.251 102.173 194.208 102.249C194.164 102.324 194.265 102.466 194.397 102.54C194.459 102.575 194.515 102.588 194.562 102.588C194.232 102.771 193.914 103.305 193.849 103.772C193.814 104.008 193.841 104.188 193.908 104.323C193.935 104.378 193.933 104.444 193.902 104.496C193.822 104.638 193.782 104.814 193.823 105.001C193.873 105.255 194.077 105.457 194.319 105.51C194.775 105.606 195.174 105.283 195.197 104.887C195.204 104.786 195.185 104.689 195.146 104.6C195.123 104.548 195.135 104.49 195.172 104.446C195.261 104.339 195.325 104.193 195.355 103.992C195.411 103.593 195.353 103.099 195.185 102.783C195.223 102.809 195.277 102.829 195.347 102.838C195.499 102.857 195.661 102.829 195.667 102.766C195.674 102.703 195.527 102.619 195.379 102.591C195.367 102.59 195.358 102.589 195.348 102.589C195.356 102.573 195.365 102.557 195.371 102.54C195.459 102.325 195.377 102.072 195.18 101.962C194.974 101.849 194.699 101.974 194.589 102.242Z" fill="black"/>
<path d="M184.876 120.886L184.815 120.89C184.819 120.879 184.822 120.871 184.826 120.859C184.861 120.713 184.836 120.548 184.765 120.532C184.692 120.518 184.594 120.652 184.553 120.793C184.534 120.86 184.533 120.917 184.544 120.962C184.426 120.832 184.254 120.713 184.064 120.62C183.97 120.569 183.872 120.516 183.772 120.475C183.719 120.456 183.67 120.437 183.622 120.419L183.547 120.396C183.487 120.383 183.429 120.37 183.372 120.357C183.315 120.355 183.261 120.354 183.207 120.352C182.977 120.346 182.801 120.384 182.669 120.455C182.615 120.484 182.549 120.485 182.496 120.455C182.352 120.377 182.182 120.34 181.997 120.367C181.746 120.405 181.529 120.571 181.43 120.799C181.238 121.222 181.565 121.685 182.065 121.726C182.188 121.736 182.306 121.72 182.412 121.681C182.474 121.659 182.544 121.668 182.599 121.703C182.733 121.788 182.917 121.844 183.172 121.85C183.22 121.851 183.222 121.851 183.226 121.848L183.227 121.846C183.237 121.847 183.184 121.836 183.22 121.841L183.315 121.85C183.377 121.852 183.441 121.855 183.508 121.857C183.638 121.857 183.765 121.853 183.887 121.834C184.133 121.785 184.35 121.706 184.496 121.604C184.477 121.646 184.469 121.702 184.479 121.772C184.501 121.924 184.6 122.073 184.69 122.057C184.78 122.045 184.82 121.881 184.792 121.733C184.788 121.722 184.786 121.714 184.782 121.704L184.849 121.71C185.153 121.721 185.39 121.533 185.38 121.301C185.37 121.078 185.144 120.896 184.876 120.886Z" fill="black"/>
<path d="M189.143 119.927L189.09 119.959C189.089 119.948 189.087 119.939 189.086 119.927C189.049 119.781 188.949 119.646 188.875 119.666C188.8 119.682 188.774 119.845 188.807 119.992C188.822 120.06 188.849 120.11 188.88 120.145C188.519 120.03 187.955 120.064 187.533 120.187C187.317 120.246 187.17 120.338 187.069 120.444C187.027 120.485 186.965 120.503 186.907 120.488C186.751 120.447 186.583 120.465 186.415 120.538C186.189 120.63 186.018 120.852 185.984 121.099C185.913 121.555 186.341 121.916 186.848 121.827C186.972 121.802 187.084 121.753 187.178 121.688C187.233 121.65 187.304 121.639 187.37 121.659C187.525 121.7 187.724 121.69 187.976 121.621C188.471 121.476 188.985 121.084 189.146 120.733C189.149 120.779 189.169 120.832 189.212 120.889C189.302 121.01 189.458 121.098 189.531 121.05C189.602 120.999 189.561 120.835 189.467 120.717C189.458 120.709 189.453 120.703 189.445 120.695L189.506 120.671C189.772 120.539 189.898 120.27 189.787 120.07C189.677 119.87 189.388 119.805 189.143 119.927Z" fill="black"/>
<path d="M195.99 117.278L195.965 117.334C195.957 117.325 195.951 117.319 195.942 117.31C195.828 117.21 195.667 117.156 195.619 117.214C195.566 117.269 195.64 117.418 195.75 117.52C195.803 117.567 195.853 117.594 195.899 117.605C195.536 117.713 195.092 118.056 194.816 118.394C194.673 118.563 194.605 118.721 194.583 118.865C194.572 118.922 194.532 118.972 194.476 118.993C194.323 119.046 194.196 119.155 194.101 119.308C193.967 119.511 193.956 119.789 194.07 120.011C194.275 120.427 194.836 120.483 195.202 120.126C195.289 120.036 195.353 119.933 195.392 119.827C195.415 119.765 195.468 119.716 195.533 119.695C195.685 119.642 195.843 119.523 196.009 119.325C196.333 118.928 196.529 118.318 196.458 117.939C196.488 117.975 196.534 118.008 196.602 118.03C196.747 118.079 196.926 118.064 196.958 117.983C196.987 117.902 196.858 117.79 196.713 117.746C196.701 117.744 196.693 117.742 196.682 117.74L196.718 117.686C196.861 117.429 196.808 117.137 196.602 117.034C196.395 116.932 196.121 117.04 195.99 117.278Z" fill="black"/>
<path d="M192.792 117.383L192.75 117.43C192.746 117.42 192.742 117.412 192.736 117.401C192.655 117.273 192.517 117.176 192.452 117.218C192.387 117.261 192.415 117.427 192.492 117.555C192.528 117.615 192.57 117.654 192.611 117.677C192.227 117.678 191.697 117.905 191.338 118.178C191.158 118.321 191.044 118.45 190.989 118.589C190.965 118.645 190.916 118.687 190.856 118.698C190.698 118.729 190.537 118.798 190.41 118.935C190.239 119.122 190.173 119.394 190.245 119.627C190.378 120.072 190.915 120.227 191.329 119.952C191.434 119.887 191.516 119.802 191.572 119.704C191.606 119.647 191.666 119.61 191.731 119.603C191.888 119.584 192.076 119.518 192.273 119.361C192.672 119.058 193.012 118.529 193.053 118.151C193.072 118.193 193.108 118.237 193.167 118.278C193.293 118.365 193.466 118.4 193.515 118.33C193.566 118.261 193.475 118.119 193.349 118.035C193.338 118.03 193.33 118.026 193.32 118.021L193.371 117.98C193.581 117.778 193.618 117.486 193.453 117.327C193.287 117.167 192.991 117.193 192.792 117.383Z" fill="black"/>
<path d="M195.467 113.896L195.446 113.953C195.438 113.945 195.431 113.939 195.422 113.931C195.3 113.841 195.135 113.799 195.091 113.859C195.049 113.919 195.135 114.061 195.252 114.154C195.307 114.198 195.36 114.22 195.406 114.228C195.049 114.358 194.638 114.727 194.378 115.081C194.249 115.264 194.191 115.426 194.173 115.57C194.167 115.629 194.131 115.682 194.076 115.709C193.932 115.78 193.807 115.897 193.72 116.061C193.606 116.286 193.624 116.568 193.76 116.772C194.019 117.16 194.572 117.155 194.895 116.781C194.976 116.689 195.026 116.579 195.055 116.472C195.072 116.408 195.12 116.355 195.181 116.33C195.332 116.271 195.482 116.144 195.63 115.934C195.93 115.524 196.084 114.892 195.989 114.521C196.021 114.554 196.07 114.583 196.14 114.601C196.289 114.64 196.466 114.61 196.488 114.524C196.512 114.438 196.375 114.338 196.226 114.305C196.214 114.304 196.205 114.303 196.194 114.302L196.227 114.245C196.358 113.978 196.269 113.686 196.053 113.603C195.838 113.521 195.586 113.656 195.467 113.896Z" fill="black"/>
<path d="M196.465 109.632L196.466 109.694C196.456 109.69 196.448 109.686 196.436 109.682C196.289 109.64 196.121 109.658 196.098 109.734C196.076 109.809 196.21 109.915 196.355 109.959C196.424 109.979 196.481 109.981 196.527 109.97C196.246 110.227 196.013 110.753 195.934 111.19C195.899 111.414 195.91 111.585 195.961 111.722C195.981 111.779 195.973 111.842 195.936 111.89C195.841 112.017 195.769 112.17 195.769 112.354C195.773 112.604 195.892 112.843 196.109 112.976C196.501 113.226 197.021 112.994 197.142 112.508C197.175 112.389 197.178 112.271 197.154 112.16C197.141 112.096 197.16 112.028 197.203 111.979C197.311 111.86 197.397 111.685 197.435 111.437C197.524 110.946 197.408 110.335 197.178 110.029C197.221 110.048 197.278 110.057 197.349 110.048C197.5 110.03 197.652 109.942 197.645 109.859C197.638 109.775 197.473 109.73 197.322 109.75C197.31 109.753 197.302 109.755 197.291 109.758C197.296 109.737 197.299 109.716 197.301 109.695C197.32 109.409 197.148 109.167 196.917 109.155C196.686 109.142 196.484 109.356 196.465 109.632Z" fill="black"/>
<path d="M196.1 105.208C196.103 105.23 196.109 105.251 196.114 105.271C196.103 105.269 196.094 105.268 196.082 105.265C195.929 105.256 195.769 105.312 195.767 105.395C195.764 105.478 195.921 105.555 196.073 105.563C196.145 105.567 196.201 105.555 196.242 105.533C196.034 105.854 195.956 106.451 196.031 106.908C196.069 107.141 196.142 107.304 196.238 107.418C196.278 107.466 196.292 107.529 196.273 107.586C196.222 107.738 196.22 107.912 196.277 108.068C196.319 108.188 196.383 108.238 196.47 108.339C196.554 108.431 196.662 108.501 196.783 108.536C197.008 108.6 197.225 108.546 197.39 108.416C197.473 108.358 197.538 108.257 197.58 108.127C197.619 108.012 197.637 107.881 197.623 107.759C197.61 107.633 197.57 107.521 197.511 107.427C197.476 107.371 197.472 107.301 197.495 107.242C197.554 107.097 197.573 106.91 197.534 106.671C197.457 106.198 197.186 105.67 196.888 105.432C196.934 105.44 196.992 105.435 197.058 105.41C197.201 105.356 197.327 105.241 197.301 105.166C197.274 105.092 197.104 105.084 196.961 105.137C196.95 105.142 196.942 105.145 196.933 105.15L196.929 105.089C196.888 104.817 196.677 104.621 196.446 104.643C196.217 104.666 196.057 104.924 196.1 105.208Z" fill="black"/>
<path d="M176.752 113.938C176.747 113.955 176.745 113.972 176.741 113.99C176.732 113.983 176.725 113.978 176.715 113.971C176.58 113.898 176.42 113.868 176.383 113.916C176.344 113.963 176.444 114.085 176.569 114.17C176.628 114.209 176.681 114.23 176.727 114.236C176.409 114.365 175.999 114.643 175.756 114.952C175.622 115.106 175.55 115.248 175.532 115.387C175.524 115.443 175.488 115.491 175.435 115.509C175.285 115.554 175.152 115.647 175.061 115.797C174.942 116.003 174.923 116.268 175.042 116.486C175.256 116.892 175.8 116.976 176.142 116.641C176.227 116.56 176.29 116.466 176.329 116.367C176.35 116.307 176.4 116.258 176.461 116.239C176.609 116.192 176.772 116.089 176.936 115.899C177.253 115.507 177.458 114.879 177.324 114.5C177.358 114.532 177.408 114.559 177.478 114.573C177.628 114.604 177.806 114.558 177.83 114.468C177.852 114.376 177.7 114.285 177.55 114.269H177.519L177.545 114.207C177.648 113.916 177.503 113.641 177.271 113.606C177.046 113.573 176.829 113.724 176.752 113.938Z" fill="black"/>
<path d="M176.461 109.841L176.47 109.901C176.458 109.899 176.45 109.896 176.438 109.893C176.287 109.872 176.122 109.913 176.112 109.994C176.101 110.074 176.252 110.158 176.403 110.177C176.474 110.186 176.531 110.178 176.574 110.161C176.331 110.432 176.229 111.073 176.33 111.525C176.378 111.757 176.457 111.904 176.56 112.008C176.602 112.051 176.619 112.11 176.601 112.164C176.557 112.31 176.562 112.467 176.625 112.614C176.717 112.816 176.911 112.97 177.162 113.029C177.389 113.079 177.607 113.026 177.756 112.877C177.913 112.728 177.992 112.493 177.956 112.251C177.938 112.13 177.89 112.028 177.829 111.938C177.792 111.886 177.784 111.819 177.805 111.763C177.856 111.624 177.866 111.441 177.822 111.23C177.731 110.809 177.5 110.374 177.226 110.111C177.272 110.121 177.329 110.12 177.398 110.101C177.544 110.061 177.678 109.962 177.66 109.892C177.641 109.821 177.472 109.802 177.325 109.839C177.314 109.843 177.306 109.847 177.296 109.85L177.297 109.792C177.28 109.534 177.09 109.329 176.858 109.334C176.627 109.339 176.442 109.567 176.461 109.841Z" fill="black"/>
<path d="M177.104 105.426L177.084 105.486C177.075 105.479 177.069 105.473 177.059 105.465C176.934 105.379 176.767 105.345 176.721 105.417C176.674 105.489 176.768 105.635 176.896 105.715C176.956 105.753 177.011 105.769 177.058 105.771C176.724 105.942 176.358 106.466 176.276 106.949C176.222 107.192 176.254 107.38 176.309 107.522C176.333 107.579 176.328 107.646 176.298 107.701C176.214 107.844 176.166 108.027 176.204 108.219C176.252 108.482 176.444 108.69 176.69 108.75C177.143 108.858 177.549 108.532 177.581 108.132C177.591 108.03 177.575 107.932 177.538 107.84C177.515 107.787 177.528 107.728 177.568 107.685C177.667 107.582 177.725 107.434 177.771 107.235C177.838 106.835 177.824 106.331 177.67 105.997C177.707 106.025 177.76 106.048 177.83 106.059C177.98 106.085 178.146 106.06 178.157 105.993C178.17 105.926 178.027 105.836 177.878 105.804C177.867 105.803 177.859 105.802 177.848 105.801C177.857 105.784 177.867 105.769 177.874 105.751C177.967 105.521 177.907 105.261 177.698 105.152C177.498 105.047 177.213 105.161 177.104 105.426Z" fill="black"/>
<path d="M180.032 104.861L180 104.917C179.993 104.907 179.987 104.901 179.98 104.891C179.875 104.781 179.719 104.713 179.658 104.775C179.598 104.837 179.659 104.998 179.767 105.102C179.819 105.152 179.869 105.179 179.915 105.19C179.552 105.289 179.085 105.728 178.904 106.185C178.8 106.411 178.792 106.602 178.817 106.751C178.828 106.812 178.809 106.878 178.768 106.924C178.656 107.048 178.571 107.217 178.568 107.413C178.561 107.68 178.705 107.923 178.933 108.031C179.354 108.228 179.819 107.991 179.934 107.606C179.965 107.508 179.97 107.409 179.953 107.312C179.941 107.255 179.967 107.2 180.015 107.166C180.133 107.086 180.22 106.952 180.307 106.766C180.456 106.389 180.547 105.892 180.467 105.535C180.497 105.569 180.544 105.602 180.61 105.628C180.752 105.683 180.919 105.693 180.945 105.629C180.97 105.566 180.85 105.449 180.711 105.388C180.7 105.384 180.692 105.382 180.681 105.378C180.694 105.364 180.707 105.351 180.718 105.335C180.857 105.129 180.852 104.862 180.67 104.713C180.497 104.57 180.194 104.624 180.032 104.861Z" fill="black"/>
<path d="M180.023 101.994C180.006 102.007 179.991 102.022 179.976 102.036C179.972 102.025 179.97 102.017 179.966 102.005C179.902 101.868 179.778 101.754 179.703 101.792C179.628 101.83 179.635 102.002 179.702 102.137C179.733 102.2 179.772 102.242 179.811 102.268C179.428 102.23 178.866 102.482 178.517 102.815C178.343 102.994 178.25 103.162 178.216 103.311C178.2 103.37 178.163 103.429 178.105 103.456C177.953 103.534 177.806 103.661 177.729 103.848C177.626 104.105 177.667 104.382 177.85 104.561C178.183 104.879 178.697 104.816 178.934 104.511C178.998 104.434 179.038 104.345 179.057 104.251C179.069 104.196 179.108 104.151 179.166 104.139C179.306 104.108 179.444 104.03 179.588 103.881C179.89 103.594 180.154 103.13 180.212 102.776C180.228 102.819 180.261 102.865 180.315 102.911C180.429 103.01 180.585 103.07 180.631 103.016C180.678 102.962 180.603 102.811 180.492 102.71C180.482 102.703 180.476 102.698 180.467 102.692L180.516 102.661C180.728 102.518 180.798 102.246 180.674 102.054C180.549 101.862 180.257 101.835 180.023 101.994Z" fill="black"/>
<path d="M184.232 100.311L184.169 100.326C184.172 100.315 184.173 100.306 184.176 100.294C184.188 100.144 184.135 99.9849 184.049 99.9829C183.963 99.9806 183.883 100.135 183.876 100.285C183.873 100.355 183.886 100.41 183.908 100.451C183.59 100.24 182.955 100.199 182.485 100.36C182.245 100.436 182.089 100.547 181.994 100.671C181.955 100.721 181.893 100.751 181.829 100.749C181.656 100.743 181.477 100.806 181.321 100.928C181.111 101.102 181.026 101.377 181.097 101.611C181.237 102.052 181.721 102.226 182.086 102.061C182.179 102.019 182.254 101.951 182.318 101.879C182.355 101.836 182.413 101.818 182.47 101.83C182.607 101.857 182.768 101.845 182.967 101.782C183.353 101.649 183.794 101.372 184.014 101.086C184.008 101.131 184.014 101.187 184.039 101.253C184.092 101.394 184.197 101.52 184.263 101.496C184.328 101.471 184.336 101.303 184.289 101.161C184.284 101.151 184.281 101.143 184.277 101.134L184.334 101.13C184.586 101.108 184.782 100.903 184.771 100.678C184.761 100.448 184.519 100.285 184.232 100.311Z" fill="black"/>
<path d="M179.949 120.318L179.895 120.353C179.893 120.342 179.892 120.333 179.89 120.321C179.848 120.176 179.742 120.045 179.66 120.073C179.579 120.101 179.559 120.273 179.606 120.415C179.628 120.482 179.66 120.529 179.695 120.56C179.322 120.473 178.713 120.653 178.33 120.966C178.133 121.12 178.025 121.278 177.981 121.426C177.962 121.487 177.915 121.536 177.853 121.556C177.69 121.61 177.545 121.731 177.441 121.899C177.307 122.135 177.326 122.421 177.475 122.617C177.763 122.981 178.279 122.977 178.561 122.696C178.634 122.625 178.68 122.535 178.714 122.446C178.734 122.393 178.782 122.356 178.839 122.348C178.977 122.326 179.123 122.258 179.287 122.132C179.602 121.874 179.917 121.463 180.021 121.118C180.031 121.163 180.057 121.213 180.103 121.266C180.203 121.38 180.346 121.462 180.399 121.416C180.452 121.37 180.399 121.211 180.305 121.094C180.297 121.086 180.291 121.08 180.283 121.073L180.335 121.05C180.564 120.942 180.674 120.682 180.585 120.475C180.492 120.263 180.208 120.194 179.949 120.318Z" fill="black"/>
<path d="M188.619 100.605L188.564 100.613C188.566 100.602 188.569 100.594 188.572 100.582C188.595 100.434 188.562 100.272 188.497 100.255C188.431 100.24 188.35 100.379 188.318 100.526C188.303 100.595 188.305 100.651 188.317 100.695C188.062 100.441 187.613 100.218 187.179 100.136C186.959 100.096 186.776 100.111 186.633 100.165C186.576 100.187 186.509 100.181 186.454 100.147C186.31 100.053 186.122 100.007 185.92 100.038C185.645 100.07 185.426 100.273 185.365 100.508C185.258 100.957 185.58 101.349 185.97 101.394C186.071 101.401 186.168 101.395 186.261 101.362C186.314 101.342 186.375 101.356 186.419 101.397C186.524 101.494 186.678 101.568 186.91 101.611C187.366 101.699 188.012 101.593 188.302 101.339C188.286 101.382 188.28 101.439 188.294 101.507C188.322 101.654 188.428 101.796 188.516 101.782C188.604 101.769 188.633 101.602 188.596 101.457C188.591 101.445 188.588 101.437 188.585 101.427C188.606 101.429 188.627 101.43 188.65 101.429C188.947 101.414 189.158 101.204 189.123 100.974C189.089 100.754 188.864 100.592 188.619 100.605Z" fill="black"/>
<path d="M192.38 99.0769L192.335 99.1145C192.332 99.1038 192.329 99.0957 192.325 99.0842C192.261 98.9486 192.138 98.8326 192.071 98.8614C192.004 98.8902 192.013 99.0554 192.075 99.1929C192.103 99.257 192.139 99.302 192.175 99.3296C191.813 99.2789 191.285 99.4038 190.92 99.5897C190.735 99.6861 190.619 99.8014 190.545 99.912C190.515 99.9589 190.462 99.9873 190.406 99.9827C190.256 99.9742 190.106 100.009 189.967 100.098C189.781 100.232 189.66 100.461 189.663 100.707C189.658 101.169 190.125 101.479 190.603 101.307C190.721 101.269 190.813 101.194 190.891 101.115C190.935 101.068 191.002 101.044 191.067 101.051C191.228 101.073 191.412 101.029 191.634 100.914C192.074 100.688 192.473 100.227 192.548 99.859C192.561 99.9032 192.591 99.9516 192.643 99.9996C192.753 100.103 192.916 100.162 192.973 100.104C193.031 100.045 192.959 99.8939 192.846 99.7925C192.836 99.7856 192.829 99.781 192.82 99.7745L192.874 99.7434C193.107 99.5874 193.158 99.2931 193.018 99.1176C192.872 98.9347 192.596 98.9328 192.38 99.0769Z" fill="black"/>
<path d="M174.383 112.013L174.401 112.07C174.39 112.07 174.381 112.069 174.369 112.068C174.217 112.071 174.061 112.138 174.063 112.218C174.06 112.246 174.085 112.225 174.141 112.231C174.196 112.231 174.268 112.26 174.343 112.263C174.413 112.269 174.471 112.264 174.515 112.25C174.275 112.475 174.054 112.934 173.985 113.334C173.951 113.536 173.967 113.693 174.019 113.821C174.04 113.873 174.033 113.932 173.995 113.972C173.896 114.084 173.833 114.222 173.832 114.385C173.828 114.603 173.951 114.822 174.154 114.971C174.52 115.263 175.06 115.065 175.194 114.594C175.229 114.479 175.228 114.366 175.208 114.26C175.197 114.199 175.216 114.134 175.259 114.089C175.365 113.979 175.447 113.813 175.487 113.578C175.567 113.114 175.446 112.513 175.167 112.212C175.212 112.225 175.27 112.227 175.339 112.206C175.411 112.18 175.486 112.149 175.53 112.079C175.574 112.015 175.59 111.913 175.573 111.868C175.544 111.803 175.374 111.811 175.235 111.871C175.224 111.877 175.217 111.881 175.208 111.887L175.201 111.83C175.147 111.583 174.919 111.416 174.692 111.458C174.464 111.5 174.326 111.749 174.383 112.013Z" fill="black"/>
<path d="M174.091 107.678L174.089 107.739C174.079 107.734 174.071 107.731 174.059 107.726C173.914 107.681 173.744 107.695 173.721 107.772C173.698 107.85 173.831 107.958 173.976 108C174.045 108.019 174.102 108.019 174.148 108.009C173.873 108.256 173.667 108.818 173.684 109.284C173.682 109.52 173.752 109.691 173.836 109.813C173.872 109.863 173.882 109.928 173.859 109.985C173.795 110.138 173.795 110.316 173.863 110.493C173.953 110.735 174.178 110.903 174.432 110.921C174.895 110.95 175.243 110.567 175.2 110.166C175.186 110.065 175.154 109.971 175.104 109.889C175.074 109.84 175.074 109.78 175.103 109.73C175.178 109.609 175.204 109.452 175.206 109.244C175.191 108.835 175.038 108.336 174.8 108.059C174.843 108.076 174.9 108.083 174.971 108.076C175.122 108.059 175.273 107.987 175.266 107.918C175.258 107.848 175.095 107.802 174.944 107.815C174.932 107.817 174.924 107.819 174.913 107.821L174.924 107.766C174.945 107.516 174.795 107.288 174.567 107.252C174.338 107.216 174.114 107.406 174.091 107.678Z" fill="black"/>
<path d="M175.471 103.525L175.444 103.58C175.436 103.572 175.431 103.565 175.422 103.556C175.309 103.455 175.15 103.398 175.096 103.461C175.042 103.523 175.117 103.677 175.233 103.774C175.287 103.819 175.339 103.843 175.385 103.852C175.199 103.906 175.011 104.046 174.84 104.226C174.662 104.403 174.516 104.627 174.434 104.849C174.344 105.072 174.323 105.254 174.363 105.403C174.378 105.463 174.363 105.528 174.321 105.573C174.212 105.696 174.123 105.86 174.129 106.055C174.131 106.319 174.28 106.556 174.506 106.658C174.931 106.843 175.398 106.609 175.496 106.228C175.526 106.133 175.53 106.035 175.513 105.941C175.502 105.885 175.524 105.83 175.569 105.795C175.674 105.709 175.776 105.584 175.852 105.394C175.922 105.204 175.969 104.983 175.996 104.768C176.016 104.55 176 104.331 175.958 104.162C175.99 104.195 176.039 104.225 176.106 104.247C176.251 104.293 176.418 104.29 176.439 104.225C176.46 104.158 176.331 104.05 176.188 103.999C176.177 103.997 176.169 103.995 176.158 103.992C176.169 103.977 176.181 103.963 176.191 103.946C176.31 103.727 176.282 103.465 176.088 103.335C175.899 103.209 175.604 103.282 175.471 103.525Z" fill="black"/>
<path d="M196.664 100.126L196.657 100.187C196.647 100.182 196.639 100.177 196.628 100.171C196.488 100.112 196.319 100.109 196.288 100.185C196.258 100.262 196.38 100.383 196.521 100.438C196.587 100.464 196.644 100.47 196.691 100.463C196.532 100.574 196.401 100.766 196.298 100.991C196.188 101.215 196.124 101.474 196.119 101.71C196.108 101.949 196.147 102.128 196.234 102.256C196.268 102.309 196.276 102.374 196.251 102.431C196.188 102.582 196.157 102.766 196.228 102.948C196.316 103.197 196.535 103.374 196.783 103.398C197.246 103.438 197.61 103.067 197.578 102.676C197.575 102.576 197.546 102.483 197.499 102.399C197.471 102.35 197.473 102.29 197.504 102.243C197.575 102.128 197.63 101.978 197.64 101.774C197.644 101.571 197.615 101.347 197.57 101.135C197.517 100.923 197.43 100.72 197.334 100.575C197.376 100.595 197.432 100.608 197.503 100.607C197.655 100.605 197.812 100.549 197.811 100.479C197.809 100.41 197.651 100.349 197.499 100.346C197.487 100.348 197.479 100.348 197.468 100.35C197.474 100.331 197.48 100.315 197.484 100.296C197.524 100.051 197.412 99.8109 197.185 99.7502C196.966 99.6915 196.71 99.8544 196.664 100.126Z" fill="black"/>
<path d="M178.481 100.322L178.435 100.362C178.431 100.352 178.428 100.344 178.424 100.332C178.36 100.196 178.235 100.082 178.161 100.117C178.088 100.152 178.096 100.321 178.163 100.455C178.195 100.517 178.233 100.56 178.271 100.586C177.903 100.555 177.341 100.779 177.003 101.106C176.824 101.263 176.74 101.432 176.706 101.578C176.693 101.639 176.651 101.69 176.593 101.713C176.438 101.775 176.291 101.888 176.211 102.067C176.097 102.306 176.128 102.584 176.289 102.771C176.591 103.116 177.119 103.104 177.368 102.798C177.438 102.725 177.485 102.639 177.51 102.547C177.526 102.493 177.57 102.452 177.626 102.44C177.765 102.411 177.896 102.328 178.056 102.189C178.352 101.901 178.628 101.457 178.673 101.094C178.689 101.136 178.722 101.183 178.776 101.229C178.89 101.328 179.047 101.39 179.094 101.338C179.142 101.285 179.066 101.136 178.954 101.034C178.945 101.027 178.938 101.022 178.929 101.016L178.978 100.987C179.182 100.836 179.247 100.567 179.122 100.38C178.991 100.187 178.703 100.159 178.481 100.322Z" fill="black"/>
<path d="M182.467 98.4283L182.409 98.4502C182.41 98.4386 182.41 98.4298 182.411 98.4175C182.402 98.2673 182.328 98.1171 182.246 98.1248C182.164 98.1325 182.11 98.2946 182.123 98.4436C182.129 98.5136 182.149 98.5666 182.175 98.6046C181.84 98.4325 181.232 98.449 180.796 98.638C180.573 98.7275 180.429 98.8424 180.348 98.9718C180.314 99.0237 180.257 99.0575 180.194 99.0583C180.028 99.0613 179.851 99.117 179.711 99.2523C179.518 99.4309 179.444 99.699 179.523 99.9318C179.672 100.363 180.17 100.544 180.52 100.347C180.612 100.303 180.688 100.238 180.746 100.16C180.78 100.115 180.837 100.092 180.894 100.1C181.032 100.117 181.193 100.097 181.388 100.019C181.766 99.8546 182.182 99.5319 182.361 99.2219C182.361 99.2672 182.374 99.3226 182.406 99.3848C182.477 99.5177 182.598 99.6295 182.661 99.5965C182.724 99.563 182.708 99.3963 182.643 99.2623C182.636 99.2523 182.632 99.2453 182.626 99.2361L182.682 99.2258C182.927 99.1608 183.091 98.943 183.043 98.7175C182.996 98.497 182.735 98.3576 182.467 98.4283Z" fill="black"/>
<path d="M186.896 98.1773L186.834 98.1739C186.839 98.1639 186.843 98.1562 186.849 98.1451C186.901 98.0041 186.895 97.837 186.816 97.8112C186.737 97.7855 186.621 97.9119 186.573 98.0536C186.55 98.1197 186.547 98.1766 186.556 98.2219C186.317 97.9353 185.746 97.7187 185.266 97.7217C185.024 97.7194 184.846 97.7824 184.719 97.8631C184.667 97.8973 184.601 97.9057 184.543 97.8823C184.387 97.8228 184.203 97.822 184.02 97.8858C183.769 97.9684 183.601 98.2088 183.585 98.4509C183.562 98.9137 183.95 99.2368 184.35 99.2049C184.452 99.1957 184.545 99.1569 184.628 99.1081C184.677 99.0797 184.738 99.0816 184.788 99.1116C184.908 99.1869 185.064 99.218 185.273 99.2203C185.682 99.2184 186.189 99.0782 186.478 98.8611C186.459 98.9026 186.45 98.9583 186.454 99.0282C186.465 99.178 186.53 99.329 186.601 99.3236C186.671 99.3183 186.724 99.1596 186.719 99.0106C186.717 98.999 186.715 98.9906 186.714 98.9802C186.732 98.9848 186.75 98.9902 186.769 98.9929C187.019 99.0232 187.263 98.8888 187.307 98.6633C187.352 98.442 187.174 98.2123 186.896 98.1773Z" fill="black"/>
<path d="M190.84 97.8307L190.787 97.8565C190.786 97.8453 190.785 97.8369 190.784 97.8246C190.758 97.6771 190.67 97.5342 190.594 97.5472C190.519 97.5599 190.485 97.7235 190.512 97.8707C190.524 97.9398 190.548 97.9913 190.576 98.0274C190.238 97.8841 189.67 97.9125 189.284 98.0366C189.188 98.067 189.109 98.1027 189.062 98.1357C189.026 98.1572 189.038 98.1642 189.032 98.183C189.03 98.201 188.987 98.2202 188.97 98.2418C188.932 98.2775 188.88 98.2836 188.837 98.2594C188.72 98.1918 188.593 98.1642 188.437 98.1926C188.228 98.2306 188.006 98.3881 187.906 98.6144C187.72 99.03 187.966 99.5056 188.496 99.549C188.626 99.5586 188.754 99.5348 188.862 99.4883C188.927 99.4591 189.002 99.4622 189.065 99.4883C189.109 99.5033 189.134 99.5221 189.204 99.5271C189.269 99.5329 189.361 99.5302 189.407 99.5275C189.526 99.521 189.635 99.4998 189.754 99.4622C190.213 99.3139 190.651 98.9582 190.811 98.6282C190.814 98.6739 190.831 98.7281 190.869 98.7872C190.95 98.914 191.088 99.0124 191.153 98.972C191.218 98.9313 191.186 98.7669 191.105 98.6405C191.097 98.6313 191.092 98.6247 191.085 98.6163L191.143 98.6002C191.391 98.5057 191.523 98.2575 191.44 98.0447C191.358 97.8319 191.088 97.7362 190.84 97.8307Z" fill="black"/>
<path d="M171.702 108.927L171.715 108.992C171.704 108.989 171.696 108.987 171.683 108.985C171.531 108.968 171.369 109.02 171.365 109.109C171.362 109.197 171.516 109.283 171.668 109.294C171.739 109.299 171.796 109.287 171.838 109.265C171.618 109.59 171.589 110.255 171.683 110.677C171.732 110.905 171.812 111.064 171.913 111.175C171.955 111.221 171.972 111.284 171.955 111.343C171.912 111.5 171.918 111.674 171.989 111.844C172.087 112.075 172.302 112.243 172.55 112.283C173.013 112.37 173.394 111.939 173.312 111.452C173.293 111.331 173.248 111.222 173.185 111.13C173.148 111.076 173.14 111.007 173.161 110.946C173.214 110.798 173.225 110.608 173.173 110.366C173.062 109.865 172.773 109.411 172.485 109.172C172.53 109.18 172.588 109.174 172.655 109.151C172.799 109.099 172.929 108.992 172.905 108.921C172.881 108.851 172.711 108.839 172.566 108.885C172.555 108.89 172.547 108.893 172.537 108.897L172.535 108.837C172.498 108.572 172.315 108.362 172.078 108.372C171.852 108.381 171.661 108.631 171.702 108.927Z" fill="black"/>
<path d="M172.4 104.254L172.381 104.317C172.372 104.309 172.366 104.304 172.356 104.296C172.23 104.21 172.063 104.179 172.017 104.255C171.972 104.33 172.067 104.478 172.195 104.56C172.255 104.598 172.31 104.614 172.357 104.614C172.006 104.794 171.646 105.336 171.537 105.839C171.47 106.09 171.498 106.293 171.55 106.443C171.572 106.504 171.566 106.576 171.53 106.632C171.43 106.782 171.399 106.978 171.424 107.184C171.454 107.465 171.665 107.691 171.904 107.754C172.362 107.865 172.753 107.526 172.803 107.109C172.814 107.002 172.793 106.897 172.767 106.802C172.749 106.745 172.764 106.683 172.804 106.638C172.906 106.53 172.965 106.375 173.024 106.162C173.115 105.74 173.104 105.185 172.97 104.839C173.006 104.868 173.059 104.891 173.13 104.901C173.281 104.924 173.447 104.89 173.46 104.816C173.473 104.742 173.329 104.651 173.18 104.624C173.168 104.623 173.16 104.623 173.149 104.622L173.175 104.568C173.279 104.318 173.211 104.043 173 103.943C172.794 103.846 172.514 103.98 172.4 104.254Z" fill="black"/>
<path d="M175.035 100.343L174.993 100.393C174.988 100.383 174.984 100.376 174.978 100.364C174.891 100.241 174.746 100.152 174.676 100.203C174.604 100.252 174.644 100.427 174.733 100.549C174.775 100.606 174.82 100.641 174.863 100.659C174.475 100.701 173.942 101.052 173.636 101.453C173.486 101.659 173.416 101.841 173.401 101.998C173.395 102.062 173.359 102.122 173.302 102.157C173.156 102.252 173.034 102.406 172.967 102.599C172.87 102.86 172.954 103.152 173.137 103.317C173.491 103.624 173.999 103.496 174.238 103.134C174.297 103.041 174.33 102.938 174.343 102.836C174.353 102.776 174.394 102.725 174.451 102.701C174.59 102.643 174.724 102.531 174.858 102.347C175.13 101.992 175.347 101.465 175.349 101.089C175.373 101.129 175.413 101.17 175.474 101.205C175.607 101.281 175.771 101.303 175.815 101.24C175.858 101.175 175.758 101.04 175.627 100.962C175.617 100.957 175.609 100.953 175.599 100.948L175.646 100.908C175.839 100.71 175.864 100.419 175.701 100.256C175.538 100.094 175.24 100.133 175.035 100.343Z" fill="black"/>
<path d="M172.039 113.811L172.049 113.875C172.038 113.872 172.03 113.87 172.017 113.867C171.866 113.848 171.702 113.897 171.694 113.982C171.684 114.067 171.843 114.154 171.994 114.169C172.066 114.177 172.122 114.167 172.164 114.147C171.938 114.461 171.851 115.085 171.952 115.577C172.008 115.824 172.1 115.997 172.209 116.112C172.253 116.159 172.275 116.226 172.263 116.291C172.239 116.462 172.274 116.654 172.376 116.832C172.51 117.076 172.788 117.209 173.034 117.183C173.502 117.127 173.743 116.669 173.627 116.252C173.596 116.147 173.54 116.055 173.47 115.977C173.432 115.93 173.421 115.866 173.44 115.808C173.488 115.667 173.493 115.494 173.443 115.274C173.353 114.837 173.098 114.327 172.814 114.076C172.86 114.085 172.918 114.082 172.985 114.061C173.131 114.014 173.257 113.908 173.238 113.833C173.218 113.759 173.049 113.743 172.902 113.786C172.891 113.791 172.884 113.795 172.873 113.799L172.874 113.737C172.852 113.464 172.647 113.252 172.416 113.264C172.185 113.275 172.016 113.52 172.039 113.811Z" fill="black"/>
<path d="M178.729 97.3967L178.673 97.4321C178.671 97.4209 178.669 97.4125 178.667 97.4002C178.624 97.2561 178.513 97.1282 178.428 97.1562C178.344 97.1862 178.326 97.3633 178.374 97.5062C178.396 97.573 178.429 97.6199 178.465 97.6495C178.08 97.5784 177.451 97.767 177.053 98.0782C176.846 98.2299 176.728 98.3851 176.674 98.5338C176.651 98.5941 176.6 98.6429 176.537 98.6609C176.366 98.7074 176.207 98.8157 176.091 98.9817C175.931 99.206 175.911 99.493 176.037 99.71C176.27 100.109 176.811 100.15 177.148 99.856C177.231 99.7792 177.298 99.6951 177.342 99.6002C177.368 99.5449 177.422 99.5061 177.483 99.4976C177.631 99.4749 177.793 99.4035 177.977 99.269C178.332 98.9913 178.686 98.5614 178.798 98.203C178.808 98.248 178.835 98.2983 178.883 98.3502C178.986 98.4612 179.135 98.5338 179.192 98.485C179.251 98.4381 179.198 98.2799 179.098 98.165C179.09 98.1569 179.084 98.1512 179.075 98.1439L179.132 98.1201C179.372 97.9933 179.489 97.7259 179.393 97.5235C179.293 97.3133 178.995 97.2561 178.729 97.3967Z" fill="black"/>
<path d="M183.345 96.162L183.279 96.172C183.283 96.1608 183.285 96.1524 183.288 96.1405C183.311 95.9914 183.266 95.8297 183.18 95.8216C183.093 95.8132 183 95.9611 182.981 96.1097C182.972 96.1793 182.981 96.2354 183 96.278C182.687 96.0464 182.05 95.9465 181.543 96.0456C181.287 96.0905 181.109 96.1912 180.99 96.2961C180.942 96.3402 180.873 96.3621 180.807 96.351C180.631 96.3306 180.433 96.3664 180.251 96.4693C180.004 96.6172 179.871 96.8846 179.905 97.127C179.978 97.5864 180.449 97.8119 180.86 97.6932C180.965 97.6613 181.056 97.6071 181.133 97.5372C181.18 97.4992 181.244 97.4884 181.302 97.508C181.445 97.5576 181.614 97.5545 181.838 97.5161C182.274 97.4308 182.795 97.1907 183.057 96.9191C183.046 96.9637 183.047 97.0206 183.068 97.0878C183.112 97.2318 183.217 97.3651 183.293 97.3448C183.368 97.3244 183.389 97.1577 183.348 97.0133C183.343 97.0025 183.34 96.9948 183.336 96.9848L183.398 96.9852C183.676 96.9625 183.898 96.7808 183.891 96.5504C183.885 96.3256 183.641 96.1382 183.345 96.162Z" fill="black"/>
<path d="M179.832 94.5113L179.77 94.5359C179.771 94.5244 179.771 94.5155 179.771 94.5032C179.759 94.353 179.677 94.2059 179.591 94.2174C179.505 94.2286 179.45 94.3938 179.465 94.5428C179.473 94.6127 179.494 94.6653 179.523 94.7022C179.164 94.5478 178.521 94.5943 178.051 94.8052C177.812 94.9066 177.662 95.0453 177.571 95.174C177.534 95.2277 177.473 95.2646 177.405 95.2692C177.229 95.2888 177.045 95.3683 176.892 95.5097C176.686 95.7095 176.619 95.9999 176.708 96.2281C176.886 96.6587 177.398 96.7716 177.77 96.563C177.865 96.5085 177.941 96.4351 178 96.3494C178.036 96.3022 178.097 96.2772 178.157 96.283C178.308 96.2991 178.472 96.2576 178.681 96.1697C179.085 95.9883 179.536 95.6369 179.728 95.3134C179.727 95.3595 179.742 95.414 179.778 95.4751C179.854 95.6054 179.988 95.711 180.056 95.6741C180.125 95.6372 180.107 95.4705 180.033 95.3391C180.026 95.3295 180.021 95.323 180.015 95.3142L180.076 95.3003C180.34 95.2158 180.514 94.9888 180.454 94.7656C180.395 94.5486 180.114 94.4214 179.832 94.5113Z" fill="black"/>
<path d="M188.03 96.332L187.966 96.3336C187.97 96.3228 187.973 96.3147 187.978 96.3032C188.018 96.1584 187.996 95.9924 187.917 95.9729C187.839 95.9536 187.733 96.0877 187.691 96.2322C187.672 96.2994 187.671 96.3562 187.683 96.4008C187.415 96.1307 186.854 95.9125 186.373 95.8757C186.129 95.8572 185.943 95.8899 185.802 95.9579C185.746 95.9855 185.676 95.9867 185.619 95.9567C185.466 95.8768 185.278 95.8422 185.063 95.8814C184.791 95.9414 184.576 96.1377 184.517 96.3777C184.403 96.828 184.782 97.2194 185.213 97.234C185.325 97.2398 185.434 97.2206 185.534 97.1829C185.593 97.1602 185.66 97.1691 185.713 97.2052C185.838 97.292 186.013 97.3516 186.255 97.37C186.733 97.4065 187.333 97.277 187.64 97.0431C187.622 97.0857 187.614 97.1418 187.624 97.2113C187.646 97.3604 187.738 97.5071 187.822 97.4971C187.906 97.4875 187.949 97.325 187.925 97.1768C187.922 97.1652 187.92 97.1572 187.917 97.1464L187.981 97.1556C188.273 97.1722 188.519 96.9951 188.525 96.7677C188.531 96.5395 188.311 96.3482 188.03 96.332Z" fill="black"/>
<path d="M160.4 115.048C160.376 115.134 160.296 115.189 160.206 115.2C158.951 115.345 158.219 115.51 157.66 115.804C157.112 116.069 156.79 116.411 156.794 116.517C156.8 116.623 157.165 116.951 157.887 117.005C158.066 117.025 158.262 116.998 158.477 116.966C158.693 116.938 158.921 116.87 159.153 116.757C159.388 116.656 159.627 116.518 159.852 116.32C160.084 116.141 160.296 115.9 160.482 115.62C160.535 115.541 160.629 115.498 160.723 115.499C161.061 115.496 161.425 115.45 161.565 115.342C161.699 115.224 161.603 115.079 161.111 114.851C160.926 114.332 160.773 114.241 160.676 114.342C160.569 114.435 160.486 114.725 160.4 115.048Z" fill="black"/>
<path d="M163.147 110.89C163.186 110.971 163.175 111.068 163.119 111.137C162.276 112.085 161.899 112.739 161.684 113.312C161.479 113.869 161.491 114.345 161.567 114.418C161.644 114.494 162.133 114.476 162.695 114.021C163.252 113.587 163.812 112.591 163.609 111.266C163.592 111.173 163.622 111.077 163.693 111.016C164.232 110.571 164.614 109.985 163.555 110.281C162.595 109.742 162.876 110.306 163.147 110.89Z" fill="black"/>
<path d="M162.899 105.847C162.973 105.895 163.011 105.985 162.999 106.073C162.817 107.312 162.855 108.093 163.048 108.698C163.21 109.286 163.526 109.651 163.635 109.661C163.742 109.672 164.102 109.36 164.288 108.684C164.452 108.03 164.386 106.934 163.482 105.921C163.419 105.851 163.397 105.752 163.427 105.662C163.612 105.008 163.636 104.283 162.9 105.12C161.822 105.187 162.328 105.512 162.899 105.847Z" fill="black"/>
<path d="M159.638 102.089C159.726 102.072 159.823 102.098 159.87 102.178C160.581 103.212 161.062 103.767 161.581 104.121C161.814 104.309 162.052 104.426 162.243 104.495C162.422 104.572 162.561 104.593 162.61 104.566C162.656 104.54 162.712 104.413 162.731 104.202C162.737 104 162.696 103.717 162.568 103.381C162.411 103.068 162.174 102.689 161.759 102.381C161.361 102.063 160.79 101.818 160.12 101.743C160.028 101.726 159.937 101.683 159.895 101.598C159.58 100.973 159.061 100.476 159.133 101.56C158.397 102.369 159.001 102.21 159.638 102.089Z" fill="black"/>
<path d="M154.616 101.513C154.672 101.444 154.764 101.407 154.852 101.431C156.075 101.767 156.855 101.825 157.475 101.753C158.082 101.671 158.498 101.471 158.534 101.354C158.563 101.269 158.33 100.821 157.665 100.547C157.027 100.258 155.891 100.184 154.755 100.94C154.676 100.993 154.576 101.012 154.489 100.976C153.84 100.696 153.117 100.648 153.883 101.43C153.851 102.516 154.208 102.009 154.616 101.513Z" fill="black"/>
<path d="M150.526 104.357C150.519 104.27 150.566 104.185 150.644 104.14C151.744 103.525 152.346 103.093 152.756 102.632C153.149 102.177 153.342 101.768 153.291 101.654C153.269 101.606 153.148 101.543 152.94 101.513C152.732 101.48 152.432 101.478 152.093 101.599C151.42 101.8 150.482 102.52 150.226 103.856C150.209 103.949 150.144 104.027 150.054 104.06C149.408 104.316 148.825 104.756 149.945 104.803C150.67 105.597 150.604 105 150.526 104.357Z" fill="black"/>
<path d="M149.313 109.235C149.254 109.168 149.241 109.071 149.276 108.989C149.804 107.837 149.973 107.073 149.955 106.45C149.953 105.845 149.78 105.413 149.68 105.37C149.582 105.328 149.123 105.512 148.76 106.123C148.415 106.718 148.19 107.79 148.769 108.999C148.811 109.083 148.806 109.184 148.753 109.261C148.552 109.541 148.398 109.854 148.42 110.022C148.436 110.194 148.611 110.202 149.088 109.931C149.62 110.077 149.784 110.008 149.761 109.866C149.73 109.723 149.521 109.486 149.313 109.235Z" fill="black"/>
<path d="M151.055 113.932C150.966 113.914 150.896 113.846 150.875 113.761C150.612 112.547 150.357 111.833 150.012 111.31C149.669 110.804 149.301 110.526 149.179 110.549C149.089 110.564 148.787 110.967 148.826 111.67C148.843 112.35 149.256 113.42 150.474 114.068C150.561 114.111 150.619 114.194 150.625 114.287C150.639 114.634 150.728 114.975 150.854 115.098C150.98 115.226 151.117 115.12 151.314 114.611C151.816 114.394 151.897 114.235 151.793 114.143C151.683 114.052 151.371 114.006 151.055 113.932Z" fill="black"/>
<path d="M155.495 116.22C155.419 116.265 155.321 116.26 155.245 116.21C154.189 115.515 153.519 115.187 152.911 115.049C152.324 114.908 151.863 114.935 151.787 115.025C151.725 115.097 151.763 115.6 152.285 116.103C152.781 116.593 153.852 117.077 155.176 116.705C155.267 116.68 155.367 116.704 155.437 116.769C155.957 117.21 156.608 117.552 156.161 116.533C156.567 115.55 156.049 115.853 155.495 116.22Z" fill="black"/>
<path d="M160.402 119.883C160.356 119.957 160.27 119.997 160.184 119.986C159.576 119.91 159.072 119.85 158.662 119.913C158.239 119.926 157.898 120.018 157.618 120.143C157.058 120.357 156.744 120.69 156.747 120.805C156.75 120.903 157.09 121.237 157.745 121.357C158.07 121.4 158.473 121.39 158.927 121.283C159.369 121.124 159.875 120.909 160.339 120.461C160.405 120.398 160.499 120.376 160.584 120.405C160.897 120.51 161.233 120.592 161.384 120.537C161.535 120.475 161.496 120.305 161.117 119.928C161.105 119.382 160.997 119.243 160.872 119.307C160.742 119.365 160.571 119.61 160.402 119.883Z" fill="black"/>
<path d="M164.575 117.335C164.565 117.419 164.503 117.489 164.419 117.513C164.119 117.601 163.866 117.7 163.638 117.801C163.399 117.886 163.194 117.982 163.015 118.086C162.669 118.309 162.378 118.495 162.178 118.722C161.979 118.948 161.84 119.161 161.75 119.324C161.665 119.494 161.638 119.628 161.662 119.677C161.685 119.724 161.806 119.789 162.006 119.827C162.209 119.872 162.485 119.873 162.802 119.777C163.117 119.682 163.507 119.542 163.848 119.213C164.024 119.057 164.199 118.872 164.365 118.659C164.517 118.43 164.653 118.164 164.771 117.873C164.804 117.791 164.882 117.733 164.974 117.724C165.631 117.631 166.263 117.383 165.218 117.047C164.699 116.104 164.624 116.7 164.575 117.335Z" fill="black"/>
<path d="M167.152 113.212C167.184 113.294 167.163 113.385 167.103 113.445C166.635 113.856 166.331 114.233 166.093 114.571C165.842 114.901 165.732 115.237 165.632 115.512C165.446 116.065 165.526 116.531 165.613 116.6C165.694 116.664 166.151 116.607 166.671 116.18C166.933 115.971 167.15 115.635 167.349 115.217C167.532 114.792 167.618 114.241 167.579 113.619C167.568 113.529 167.607 113.443 167.682 113.394C168.234 113.034 168.732 112.563 167.623 112.685C166.767 112.048 166.92 112.616 167.152 113.212Z" fill="black"/>
<path d="M167.876 108.388C167.935 108.454 167.948 108.547 167.913 108.625C167.642 109.177 167.467 109.643 167.408 110.053C167.307 110.459 167.305 110.81 167.353 111.109C167.417 111.697 167.659 112.083 167.772 112.111C167.869 112.135 168.288 111.901 168.577 111.31C168.705 111.014 168.803 110.631 168.819 110.174C168.793 109.716 168.7 109.184 168.42 108.618C168.378 108.539 168.383 108.444 168.436 108.373C168.824 107.846 169.123 107.242 168.128 107.73C167.098 107.422 167.445 107.91 167.876 108.388Z" fill="black"/>
<path d="M166.856 103.623C166.935 103.662 166.981 103.744 166.977 103.828C166.931 104.436 166.933 104.928 167.013 105.331C167.061 105.744 167.183 106.073 167.333 106.337C167.582 106.873 167.959 107.152 168.07 107.141C168.174 107.13 168.47 106.772 168.554 106.118C168.569 105.796 168.526 105.402 168.38 104.967C168.202 104.541 167.92 104.068 167.448 103.641C167.379 103.582 167.349 103.491 167.371 103.405C167.455 103.091 167.507 102.758 167.446 102.611C167.377 102.466 167.209 102.516 166.847 102.918C166.301 102.966 166.168 103.082 166.237 103.202C166.3 103.329 166.566 103.477 166.856 103.623Z" fill="black"/>
<path d="M163.978 99.7034C164.064 99.7072 164.139 99.7633 164.17 99.8436C164.627 100.96 165.07 101.586 165.551 101.96C166.031 102.321 166.445 102.461 166.555 102.4C166.635 102.358 166.81 101.888 166.577 101.274C166.452 100.976 166.292 100.595 165.934 100.285C165.762 100.125 165.562 99.9669 165.333 99.8202C165.101 99.6761 164.812 99.5705 164.511 99.4733C164.424 99.4464 164.36 99.3753 164.344 99.2854C164.214 98.6374 163.909 98.045 163.644 99.0895C162.719 99.6688 163.339 99.6896 163.978 99.7034Z" fill="black"/>
<path d="M159.622 97.4632C159.703 97.4256 159.797 97.4382 159.862 97.4928C160.761 98.3387 161.465 98.6548 162.058 98.792C162.632 98.9349 163.105 98.8158 163.162 98.7344C163.228 98.6406 163.132 98.2046 162.663 97.7256C162.2 97.2627 161.274 96.8344 160.003 97.013C159.913 97.0307 159.821 96.9996 159.766 96.93C159.36 96.4187 158.843 95.9677 159.051 97.0445C158.471 97.9357 159.035 97.7398 159.622 97.4632Z" fill="black"/>
<path d="M154.687 97.1416C154.747 97.0775 154.84 97.0552 154.922 97.0825C155.504 97.3084 155.986 97.4213 156.405 97.4628C156.823 97.5265 157.178 97.4977 157.478 97.4255C158.066 97.3287 158.441 97.0487 158.46 96.9388C158.477 96.8385 158.207 96.459 157.586 96.2089C157.275 96.1087 156.879 96.0449 156.415 96.0683C155.952 96.1148 155.417 96.2712 154.869 96.5854C154.792 96.6346 154.696 96.6388 154.618 96.5938C154.047 96.2662 153.398 96.0341 153.998 96.9592C153.796 97.9971 154.246 97.6111 154.687 97.1416Z" fill="black"/>
<path d="M150.038 98.7292C150.066 98.6477 150.142 98.5924 150.229 98.5851C150.831 98.5137 151.339 98.4791 151.725 98.3331C152.125 98.2209 152.445 98.0792 152.69 97.8983C153.189 97.5752 153.435 97.1945 153.409 97.0812C153.389 96.9867 152.989 96.7166 152.319 96.7331C151.992 96.76 151.59 96.8346 151.172 97.0501C150.771 97.2967 150.315 97.6048 149.969 98.1556C149.919 98.2302 149.832 98.2717 149.741 98.2613C149.057 98.1691 148.411 98.3066 149.338 98.8533C149.635 99.905 149.819 99.3027 150.038 98.7292Z" fill="black"/>
<path d="M146.586 102.163C146.572 102.077 146.606 101.988 146.687 101.948C147.242 101.651 147.601 101.338 147.924 101.073C148.077 100.934 148.202 100.793 148.305 100.651C148.413 100.515 148.513 100.391 148.586 100.262C148.737 100.009 148.813 99.7594 148.852 99.5704C148.898 99.3887 148.893 99.2534 148.858 99.2108C148.825 99.1701 148.691 99.1332 148.485 99.1393C148.286 99.1532 148.026 99.2254 147.729 99.3791C147.583 99.4582 147.421 99.5515 147.271 99.6825C147.128 99.8189 146.984 99.9806 146.846 100.17C146.554 100.533 146.367 101.067 146.26 101.679C146.242 101.763 146.191 101.843 146.107 101.875C145.498 102.118 144.915 102.484 146.022 102.586C146.732 103.384 146.694 102.798 146.586 102.163Z" fill="black"/>
<path d="M144.954 106.748C144.907 106.674 144.91 106.58 144.959 106.51C145.315 106.011 145.576 105.588 145.711 105.198C145.885 104.821 145.951 104.478 145.96 104.176C146.025 103.596 145.852 103.163 145.751 103.115C145.658 103.07 145.215 103.223 144.799 103.745C144.618 104.014 144.448 104.375 144.346 104.824C144.285 105.28 144.274 105.825 144.458 106.43C144.485 106.515 144.463 106.608 144.399 106.67C143.924 107.125 143.523 107.673 144.59 107.354C145.55 107.826 145.294 107.291 144.954 106.748Z" fill="black"/>
<path d="M145.093 111.63C145.023 111.576 144.993 111.487 145.014 111.405C145.195 110.814 145.267 110.33 145.273 109.915C145.301 109.497 145.24 109.15 145.141 108.862C144.981 108.29 144.666 107.952 144.552 107.945C144.449 107.939 144.088 108.242 143.9 108.87C143.826 109.183 143.797 109.575 143.861 110.027C143.948 110.476 144.152 110.986 144.515 111.497C144.571 111.568 144.583 111.662 144.544 111.742C144.259 112.329 144.076 112.982 144.965 112.321C146.032 112.438 145.604 112.025 145.093 111.63Z" fill="black"/>
<path d="M147.042 116.086C146.957 116.063 146.896 115.993 146.883 115.909C146.825 115.603 146.775 115.337 146.73 115.098C146.676 114.854 146.607 114.642 146.524 114.455C146.388 114.065 146.214 113.764 146.014 113.536C145.654 113.066 145.244 112.856 145.133 112.889C145.037 112.917 144.8 113.329 144.861 113.985C144.911 114.304 145.021 114.69 145.262 115.086C145.396 115.278 145.559 115.473 145.753 115.664C145.939 115.86 146.177 116.038 146.464 116.191C146.543 116.236 146.591 116.318 146.587 116.408C146.54 117.083 146.713 117.714 147.211 116.767C148.256 116.411 147.641 116.262 147.042 116.086Z" fill="black"/>
<path d="M150.741 119.261C150.652 119.284 150.565 119.247 150.519 119.172C150.177 118.652 149.843 118.313 149.552 118.015C149.401 117.874 149.248 117.762 149.099 117.67C148.961 117.565 148.823 117.482 148.688 117.416C148.142 117.168 147.689 117.141 147.606 117.214C147.528 117.283 147.481 117.762 147.847 118.314C147.936 118.453 148.046 118.6 148.181 118.747C148.329 118.879 148.503 119.009 148.704 119.131C149.093 119.393 149.643 119.551 150.273 119.609C150.361 119.62 150.441 119.673 150.481 119.75C150.769 120.33 151.183 120.876 151.209 119.783C151.969 119.029 151.378 119.109 150.741 119.261Z" fill="black"/>
<path d="M155.502 120.513C155.43 120.565 155.336 120.57 155.26 120.529C154.726 120.219 154.278 120.001 153.874 119.896C153.479 119.755 153.129 119.717 152.822 119.732C152.232 119.706 151.804 119.912 151.763 120.014C151.724 120.11 151.911 120.529 152.472 120.903C152.758 121.061 153.138 121.199 153.601 121.264C154.069 121.292 154.624 121.255 155.221 121.027C155.306 120.992 155.401 121.006 155.469 121.064C155.97 121.491 156.562 121.838 156.146 120.819C156.539 119.836 156.022 120.133 155.502 120.513Z" fill="black"/>
<path d="M159.008 118.171C158.956 118.243 158.866 118.279 158.78 118.265C158.157 118.125 157.668 118.088 157.24 118.063C156.816 118.068 156.461 118.102 156.162 118.179C155.569 118.356 155.2 118.599 155.186 118.724C155.18 118.776 155.251 118.894 155.406 119.028C155.56 119.169 155.801 119.318 156.133 119.4C156.463 119.494 156.883 119.55 157.366 119.451C157.848 119.384 158.389 119.142 158.906 118.748C158.978 118.688 159.076 118.669 159.162 118.701C159.809 118.957 160.503 119.001 159.734 118.234C159.735 117.148 159.386 117.662 159.008 118.171Z" fill="black"/>
<path d="M163.226 115.52C163.222 115.607 163.16 115.68 163.077 115.712C161.919 116.178 161.264 116.581 160.848 117.038C160.429 117.464 160.268 117.909 160.308 118.001C160.354 118.104 160.799 118.267 161.479 118.09C161.815 118.002 162.187 117.794 162.558 117.478C162.732 117.305 162.904 117.103 163.066 116.872C163.225 116.641 163.343 116.349 163.452 116.048C163.482 115.962 163.56 115.899 163.651 115.88C164.299 115.719 164.948 115.419 163.857 115.171C163.28 114.274 163.225 114.863 163.226 115.52Z" fill="black"/>
<path d="M165.439 111.049C165.479 111.129 165.472 111.225 165.415 111.293C164.986 111.769 164.733 112.192 164.517 112.56C164.332 112.94 164.203 113.268 164.145 113.567C164.039 114.167 164.104 114.601 164.21 114.67C164.284 114.72 164.792 114.643 165.244 114.132C165.717 113.647 166.132 112.691 165.908 111.413C165.89 111.324 165.916 111.23 165.986 111.171C166.493 110.737 166.935 110.197 165.847 110.453C164.924 109.903 165.14 110.466 165.439 111.049Z" fill="black"/>
<path d="M165.5 106.056C165.57 106.111 165.611 106.2 165.581 106.286C165.49 106.591 165.43 106.863 165.395 107.112C165.355 107.362 165.311 107.592 165.306 107.803C165.304 108.223 165.309 108.579 165.395 108.876C165.55 109.468 165.811 109.834 165.933 109.848C166.026 109.861 166.438 109.575 166.635 108.93C166.837 108.302 166.85 107.258 166.079 106.189C166.032 106.113 166.009 106.018 166.047 105.935C166.315 105.323 166.459 104.636 165.604 105.346C164.528 105.264 164.977 105.661 165.5 106.056Z" fill="black"/>
<path d="M163.109 101.721C163.197 101.731 163.27 101.794 163.297 101.877C163.66 103.058 164.057 103.707 164.464 104.168C164.891 104.601 165.288 104.81 165.402 104.769C165.492 104.738 165.731 104.295 165.577 103.628C165.466 102.965 164.899 102.037 163.666 101.533C163.579 101.499 163.517 101.422 163.505 101.33C163.412 100.655 163.114 100.033 162.806 101.073C161.844 101.597 162.47 101.65 163.109 101.721Z" fill="black"/>
<path d="M158.707 99.3444C158.788 99.3033 158.886 99.3145 158.952 99.3778C159.908 100.185 160.593 100.556 161.205 100.69C161.787 100.846 162.254 100.779 162.325 100.687C162.385 100.61 162.319 100.136 161.835 99.6383C161.353 99.1727 160.399 98.6722 159.082 98.895C158.992 98.9042 158.898 98.875 158.838 98.8081C158.401 98.3072 157.848 97.8689 158.105 98.9411C157.544 99.8484 158.112 99.6368 158.707 99.3444Z" fill="black"/>
<path d="M153.67 99.4C153.722 99.3274 153.812 99.2912 153.898 99.3051C154.521 99.4445 155.009 99.4845 155.437 99.5091C155.86 99.501 156.215 99.4772 156.513 99.3942C157.105 99.2286 157.477 98.9766 157.492 98.8545C157.504 98.7657 157.213 98.3532 156.548 98.1734C155.903 97.9717 154.819 98.012 153.771 98.8214C153.7 98.8825 153.602 98.9017 153.515 98.8698C152.868 98.6167 152.173 98.571 152.944 99.3377C152.945 100.423 153.293 99.9109 153.67 99.4Z" fill="black"/>
<path d="M149.46 102.061C149.463 101.974 149.525 101.901 149.608 101.869C150.765 101.401 151.418 100.995 151.834 100.537C152.046 100.327 152.187 100.107 152.273 99.9259C152.361 99.7519 152.396 99.6247 152.371 99.5733C152.325 99.4699 151.878 99.3055 151.2 99.4872C150.863 99.5744 150.493 99.7853 150.122 100.102C149.949 100.275 149.777 100.478 149.617 100.708C149.457 100.94 149.341 101.232 149.232 101.533C149.203 101.62 149.125 101.683 149.034 101.702C148.386 101.865 147.738 102.164 148.829 102.411C149.408 103.307 149.461 102.718 149.46 102.061Z" fill="black"/>
<path d="M147.249 106.535C147.209 106.455 147.217 106.359 147.274 106.291C147.703 105.816 147.956 105.393 148.172 105.024C148.357 104.643 148.485 104.316 148.543 104.016C148.648 103.417 148.582 102.982 148.477 102.913C148.403 102.863 147.894 102.941 147.443 103.452C146.972 103.938 146.556 104.894 146.781 106.171C146.798 106.261 146.772 106.355 146.702 106.413C146.196 106.847 145.754 107.388 146.841 107.132C147.765 107.682 147.549 107.118 147.249 106.535Z" fill="black"/>
<path d="M147.187 111.528C147.117 111.473 147.077 111.384 147.107 111.298C147.198 110.993 147.258 110.721 147.293 110.472C147.334 110.222 147.378 109.992 147.383 109.782C147.384 109.361 147.38 109.005 147.294 108.708C147.139 108.116 146.878 107.75 146.755 107.736C146.663 107.723 146.25 108.009 146.054 108.654C145.851 109.282 145.838 110.325 146.609 111.395C146.655 111.47 146.678 111.566 146.64 111.649C146.371 112.26 146.226 112.947 147.082 112.238C148.158 112.322 147.71 111.924 147.187 111.528Z" fill="black"/>
<path d="M149.568 115.87C149.481 115.859 149.408 115.797 149.381 115.713C149.021 114.532 148.627 113.88 148.219 113.419C147.794 112.984 147.397 112.775 147.283 112.815C147.193 112.847 146.954 113.289 147.105 113.956C147.215 114.619 147.779 115.549 149.011 116.056C149.098 116.09 149.16 116.168 149.171 116.26C149.264 116.933 149.558 117.559 149.87 116.519C150.831 115.998 150.209 115.941 149.568 115.87Z" fill="black"/>
<path d="M153.969 118.24C153.888 118.278 153.789 118.274 153.723 118.213C152.767 117.399 152.078 117.043 151.47 116.902C150.886 116.749 150.422 116.811 150.351 116.904C150.291 116.98 150.354 117.459 150.84 117.954C151.319 118.427 152.281 118.913 153.594 118.696C153.685 118.684 153.781 118.707 153.84 118.777C154.28 119.279 154.837 119.718 154.572 118.644C155.124 117.736 154.561 117.948 153.969 118.24Z" fill="black"/>
<path d="M125.172 98.3752C125.421 97.061 124.128 95.6481 122.695 96.2877C122.649 96.3008 122.591 96.3553 122.647 96.3987C123.745 97.0568 124.23 98.5842 123.745 99.8614C123.737 99.8968 123.749 99.9133 123.767 99.921C123.775 99.9402 123.79 99.9533 123.819 99.944C124.969 99.4051 126.344 99.9421 126.937 101.163C126.979 101.227 127.023 101.159 127.037 101.11C127.607 99.5199 126.353 98.099 125.172 98.3752Z" fill="black"/>
<path d="M130.739 90.9069C130.988 89.5928 129.696 88.1799 128.263 88.8195C128.217 88.8321 128.159 88.8871 128.215 88.9305C129.313 89.5885 129.798 91.1159 129.313 92.3932C129.304 92.4285 129.316 92.445 129.335 92.4527C129.343 92.4719 129.358 92.485 129.387 92.4758C130.537 91.9368 131.912 92.4739 132.504 93.6947C132.547 93.7588 132.591 93.6904 132.605 93.6413C133.175 92.0517 131.92 90.6307 130.739 90.9069Z" fill="black"/>
<path d="M141.638 89.2463C141.887 87.9321 140.595 86.5192 139.162 87.1588C139.116 87.1715 139.058 87.2264 139.114 87.2698C140.212 87.9279 140.697 89.4552 140.212 90.7325C140.203 90.7679 140.216 90.7844 140.234 90.7921C140.242 90.8113 140.257 90.8243 140.286 90.8151C141.436 90.2762 142.811 90.8132 143.403 92.034C143.446 92.0982 143.49 92.0298 143.504 91.9806C144.074 90.391 142.82 88.9701 141.638 89.2463Z" fill="black"/>
<path d="M120.027 104.293C120.276 102.979 118.984 101.566 117.551 102.206C117.505 102.219 117.446 102.273 117.503 102.317C118.601 102.975 119.086 104.502 118.601 105.779C118.592 105.815 118.604 105.831 118.623 105.839C118.631 105.859 118.646 105.871 118.675 105.862C119.825 105.323 121.2 105.86 121.792 107.081C121.835 107.145 121.878 107.077 121.892 107.028C122.463 105.438 121.208 104.017 120.027 104.293Z" fill="black"/>
<path d="M114.548 113.999C114.797 112.685 113.504 111.272 112.071 111.911C112.025 111.924 111.967 111.979 112.023 112.022C113.121 112.68 113.606 114.208 113.121 115.485C113.113 115.52 113.125 115.537 113.143 115.545C113.151 115.564 113.166 115.577 113.195 115.568C114.345 115.029 115.72 115.566 116.313 116.786C116.355 116.851 116.399 116.782 116.413 116.733C116.983 115.143 115.729 113.723 114.548 113.999Z" fill="black"/>
<path d="M132.193 125.983C132.442 124.668 131.15 123.256 129.717 123.895C129.671 123.908 129.612 123.963 129.669 124.006C130.767 124.664 131.252 126.192 130.767 127.469C130.758 127.504 130.77 127.521 130.789 127.528C130.797 127.548 130.812 127.561 130.841 127.551C131.991 127.012 133.366 127.55 133.958 128.77C134.001 128.835 134.044 128.766 134.058 128.717C134.629 127.127 133.374 125.706 132.193 125.983Z" fill="black"/>
<path d="M129.726 98.3752C129.975 97.061 128.683 95.6481 127.25 96.2877C127.204 96.3008 127.146 96.3553 127.202 96.3987C128.3 97.0568 128.785 98.5842 128.3 99.8614C128.292 99.8968 128.304 99.9133 128.322 99.921C128.33 99.9402 128.345 99.9533 128.374 99.944C129.524 99.4051 130.899 99.9421 131.492 101.163C131.534 101.227 131.578 101.159 131.592 101.11C132.162 99.5199 130.908 98.099 129.726 98.3752Z" fill="black"/>
<path d="M134.282 98.3752C134.531 97.061 133.238 95.6481 131.805 96.2877C131.759 96.3008 131.701 96.3553 131.757 96.3987C132.855 97.0568 133.34 98.5842 132.855 99.8614C132.847 99.8968 132.859 99.9133 132.878 99.921C132.885 99.9402 132.9 99.9533 132.929 99.944C134.079 99.4051 135.454 99.9421 136.047 101.163C136.089 101.227 136.133 101.159 136.147 101.11C136.718 99.5199 135.463 98.099 134.282 98.3752Z" fill="black"/>
<path d="M138.837 98.3752C139.086 97.061 137.793 95.6481 136.36 96.2877C136.314 96.3008 136.256 96.3553 136.312 96.3987C137.41 97.0568 137.895 98.5842 137.41 99.8614C137.402 99.8968 137.414 99.9133 137.432 99.921C137.44 99.9402 137.455 99.9533 137.484 99.944C138.634 99.4051 140.009 99.9421 140.602 101.163C140.644 101.227 140.688 101.159 140.702 101.11C141.272 99.5199 140.018 98.099 138.837 98.3752Z" fill="black"/>
<path d="M125.081 118.987C125.34 117.673 123.996 116.26 122.507 116.9C122.459 116.913 122.399 116.968 122.457 117.011C123.598 117.669 124.102 119.196 123.598 120.474C123.589 120.509 123.602 120.526 123.622 120.533C123.63 120.553 123.645 120.566 123.675 120.556C124.87 120.017 126.299 120.554 126.915 121.775C126.959 121.839 127.004 121.771 127.019 121.722C127.612 120.132 126.309 118.711 125.081 118.987Z" fill="black"/>
<path d="M129.815 118.987C130.073 117.673 128.73 116.26 127.241 116.9C127.193 116.913 127.132 116.968 127.191 117.011C128.332 117.669 128.836 119.196 128.332 120.474C128.323 120.509 128.336 120.526 128.355 120.533C128.364 120.553 128.379 120.566 128.409 120.556C129.604 120.017 131.033 120.554 131.649 121.775C131.693 121.839 131.739 121.771 131.753 121.722C132.346 120.132 131.042 118.711 129.815 118.987Z" fill="black"/>
<path d="M134.548 118.987C134.808 117.673 133.464 116.26 131.975 116.9C131.927 116.913 131.867 116.968 131.924 117.011C133.066 117.669 133.57 119.196 133.066 120.474C133.057 120.509 133.07 120.526 133.089 120.533C133.098 120.553 133.113 120.566 133.143 120.556C134.338 120.017 135.767 120.554 136.383 121.775C136.427 121.839 136.472 121.771 136.487 121.722C137.08 120.132 135.777 118.711 134.548 118.987Z" fill="black"/>
<path d="M139.282 118.987C139.541 117.673 138.198 116.26 136.708 116.9C136.661 116.913 136.6 116.968 136.658 117.011C137.8 117.669 138.304 119.196 137.8 120.474C137.791 120.509 137.804 120.526 137.823 120.533C137.831 120.553 137.847 120.566 137.877 120.556C139.072 120.017 140.501 120.554 141.117 121.775C141.161 121.839 141.206 121.771 141.221 121.722C141.814 120.132 140.51 118.711 139.282 118.987Z" fill="black"/>
<path d="M126.657 114.019C126.979 112.785 125.677 111.502 124.136 112.139C124.087 112.152 124.023 112.205 124.08 112.244C125.21 112.828 125.654 114.239 125.085 115.445C125.075 115.478 125.087 115.494 125.106 115.5C125.114 115.518 125.129 115.53 125.16 115.52C126.398 114.985 127.825 115.448 128.396 116.571C128.439 116.63 128.488 116.565 128.504 116.519C129.178 115.019 127.917 113.728 126.657 114.019Z" fill="black"/>
<path d="M129.431 111.401C129.753 110.168 128.451 108.885 126.91 109.522C126.861 109.535 126.797 109.588 126.854 109.627C127.984 110.211 128.428 111.622 127.859 112.828C127.849 112.861 127.861 112.876 127.881 112.883C127.888 112.901 127.903 112.913 127.934 112.903C129.171 112.368 130.599 112.831 131.17 113.954C131.212 114.013 131.262 113.948 131.279 113.901C131.952 112.402 130.691 111.111 129.431 111.401Z" fill="black"/>
<path d="M132.205 108.785C132.527 107.552 131.225 106.268 129.684 106.905C129.635 106.918 129.571 106.971 129.628 107.01C130.758 107.594 131.203 109.006 130.633 110.211C130.623 110.244 130.635 110.26 130.655 110.266C130.662 110.284 130.677 110.296 130.708 110.286C131.946 109.752 133.373 110.215 133.944 111.337C133.987 111.396 134.036 111.331 134.052 111.285C134.726 109.785 133.465 108.494 132.205 108.785Z" fill="black"/>
<path d="M134.98 106.167C135.301 104.934 133.999 103.651 132.458 104.288C132.409 104.301 132.345 104.354 132.402 104.393C133.533 104.977 133.976 106.388 133.407 107.594C133.397 107.627 133.409 107.643 133.429 107.649C133.436 107.667 133.451 107.679 133.482 107.669C134.719 107.134 136.148 107.597 136.719 108.72C136.76 108.779 136.81 108.714 136.827 108.667C137.5 107.168 136.239 105.877 134.98 106.167Z" fill="black"/>
<path d="M137.754 103.55C138.075 102.317 136.774 101.034 135.232 101.67C135.183 101.684 135.119 101.737 135.177 101.776C136.306 102.36 136.751 103.771 136.182 104.977C136.171 105.01 136.183 105.025 136.203 105.032C136.21 105.049 136.225 105.061 136.256 105.052C137.494 104.517 138.922 104.98 139.493 106.103C139.535 106.162 139.584 106.097 139.601 106.05C140.274 104.551 139.013 103.26 137.754 103.55Z" fill="black"/>
<path d="M114.583 125.669H123.744C127.908 125.669 130.753 128.436 130.753 131.92C130.753 134.175 129.539 136.087 127.769 136.976V137.18C129.851 138.239 131.205 140.528 131.205 142.953C131.205 146.711 127.978 149.58 123.675 149.58H114.583V125.669ZM123.466 135.848C125.653 135.848 127.249 134.345 127.249 132.261C127.249 130.178 125.653 128.709 123.466 128.709H118.018V135.848H123.466ZM123.779 146.54C125.896 146.54 127.7 144.798 127.7 142.714C127.7 140.63 125.896 138.854 123.779 138.854H118.018V146.54H123.779Z" fill="black"/>
<path d="M136.303 125.669H145.464C149.629 125.669 152.648 128.641 152.648 132.603C152.648 135.78 150.739 138.171 147.616 139.093L153.516 149.58H149.664L144.146 139.708H139.739V149.58H136.303V125.669ZM145.118 136.668C147.373 136.668 149.143 134.892 149.143 132.672C149.143 130.485 147.373 128.709 145.118 128.709H139.739V136.668H145.118Z" fill="black"/>
<path d="M158.406 125.669H161.91L174.125 143.705H174.333V125.669H177.665V149.58H174.16L161.91 131.544H161.702V149.58H158.406V125.669Z" fill="black"/>
<path d="M183.179 137.625C183.179 130.451 188.384 125.293 195.567 125.293C202.75 125.293 207.956 130.451 207.956 137.625C207.956 144.798 202.75 149.956 195.567 149.956C188.384 149.956 183.179 144.798 183.179 137.625ZM195.567 146.847C200.772 146.847 204.451 143.056 204.451 137.625C204.451 132.193 200.772 128.402 195.567 128.402C190.327 128.402 186.684 132.193 186.684 137.625C186.684 143.056 190.327 146.847 195.567 146.847Z" fill="black"/>
<path d="M160.889 107.041C160.964 107.094 161.008 107.185 160.984 107.276C160.719 108.526 160.625 109.299 160.691 109.925C160.72 110.232 160.779 110.488 160.837 110.678C160.904 110.869 160.977 110.991 161.027 111.01C161.079 111.029 161.214 110.987 161.38 110.852C161.555 110.721 161.755 110.493 161.91 110.152C162.066 109.814 162.164 109.363 162.129 108.839C162.074 108.319 161.912 107.71 161.476 107.155C161.423 107.075 161.396 106.974 161.426 106.882C161.545 106.548 161.59 106.18 161.517 106.008C161.446 105.831 161.281 105.881 160.907 106.294C160.36 106.304 160.227 106.429 160.286 106.553C160.35 106.681 160.621 106.843 160.889 107.041Z" fill="black"/>
<path d="M152.54 105.539C152.532 105.446 152.591 105.365 152.674 105.326C153.261 105.05 153.708 104.864 154.089 104.702C154.464 104.535 154.766 104.375 155.024 104.213C155.281 104.053 155.488 103.891 155.636 103.755C155.781 103.611 155.862 103.498 155.858 103.444C155.853 103.392 155.756 103.285 155.56 103.198C155.364 103.102 155.066 103.021 154.679 103.04C154.296 103.059 153.82 103.186 153.362 103.506C152.901 103.812 152.479 104.341 152.28 105.012C152.251 105.105 152.173 105.18 152.086 105.215C151.92 105.277 151.75 105.351 151.61 105.432C151.48 105.517 151.376 105.608 151.329 105.688C151.232 105.854 151.374 105.95 151.933 105.983C152.282 106.401 152.464 106.426 152.525 106.304C152.557 106.24 152.563 106.132 152.555 105.995C152.557 105.864 152.549 105.706 152.54 105.539Z" fill="black"/>
<path d="M155.491 113.816C155.411 113.857 155.307 113.86 155.235 113.798C154.713 113.417 154.348 113.089 154.023 112.84C153.693 112.597 153.423 112.394 153.152 112.252C152.64 111.948 152.185 111.806 152.081 111.868C152.001 111.911 151.866 112.412 152.248 113.088C152.449 113.408 152.772 113.78 153.277 114.026C153.77 114.277 154.429 114.425 155.129 114.287C155.226 114.276 155.331 114.292 155.402 114.36C155.658 114.613 155.977 114.807 156.164 114.819C156.356 114.833 156.382 114.665 156.166 114.154C156.394 113.665 156.337 113.493 156.197 113.491C156.051 113.49 155.786 113.665 155.491 113.816Z" fill="black"/>
<path d="M160.653 122.286C160.601 122.364 160.505 122.389 160.415 122.373C159.14 122.155 158.297 122.243 157.691 122.493C157.09 122.689 156.758 123.038 156.761 123.147C156.763 123.251 157.118 123.569 157.803 123.709C158.472 123.801 159.51 123.696 160.551 122.855C160.623 122.796 160.726 122.788 160.812 122.815C161.452 123.023 162.152 123.123 161.391 122.325C161.436 121.25 161.031 121.729 160.653 122.286Z" fill="black"/>
<path d="M170.045 110.962C170.091 111.04 170.087 111.138 170.038 111.214C169.71 111.756 169.438 112.211 169.3 112.63C169.174 113.051 169.083 113.408 169.071 113.723C169.057 114.038 169.103 114.305 169.164 114.499C169.21 114.688 169.28 114.807 169.332 114.828C169.381 114.847 169.518 114.811 169.698 114.7C169.863 114.583 170.063 114.389 170.25 114.102C170.436 113.815 170.627 113.44 170.677 112.958C170.737 112.481 170.755 111.918 170.541 111.284C170.513 111.195 170.536 111.097 170.601 111.031C170.839 110.79 171.065 110.522 171.085 110.359C171.098 110.194 170.928 110.147 170.412 110.316C169.914 110.066 169.74 110.096 169.74 110.247C169.733 110.398 169.875 110.677 170.045 110.962Z" fill="black"/>
<path d="M164.587 97.1909C164.677 97.1886 164.762 97.2397 164.805 97.3192C164.953 97.6061 165.122 97.8293 165.259 98.0575C165.398 98.2842 165.541 98.4755 165.687 98.6387C165.992 98.9518 166.251 99.2138 166.521 99.3817C167.067 99.7105 167.52 99.7988 167.611 99.7328C167.695 99.6728 167.783 99.1831 167.456 98.5792C167.297 98.2765 167.07 97.9161 166.665 97.6307C166.47 97.4821 166.246 97.338 165.994 97.207C165.743 97.0745 165.43 96.9953 165.108 96.9185C165.016 96.8985 164.94 96.8309 164.913 96.7418C164.862 96.5789 164.804 96.4153 164.74 96.2816C164.669 96.1568 164.596 96.0588 164.525 96.0135C164.381 95.922 164.261 96.0496 164.174 96.5812C163.721 96.8966 163.668 97.0641 163.8 97.1348C163.867 97.1709 163.982 97.184 164.125 97.1847C164.261 97.1943 164.421 97.1955 164.587 97.1909Z" fill="black"/>
<path d="M154.595 94.7851C154.661 94.7229 154.758 94.6918 154.844 94.7294C155.458 94.9783 155.969 95.0698 156.415 95.1193C156.86 95.1842 157.238 95.1566 157.555 95.0851C158.182 94.963 158.565 94.7067 158.582 94.5896C158.597 94.4958 158.305 94.0909 157.651 93.8678C157.325 93.7671 156.91 93.7026 156.425 93.7252C155.94 93.7633 155.382 93.9404 154.799 94.2319C154.716 94.2703 154.616 94.2834 154.536 94.2365C153.945 93.9112 153.278 93.6807 153.875 94.6072C153.627 95.6525 154.119 95.2595 154.595 94.7851Z" fill="black"/>
<path d="M143.18 104.088C143.149 104.005 143.171 103.909 143.233 103.843C143.457 103.609 143.637 103.385 143.788 103.172C143.961 102.967 144.098 102.769 144.208 102.579C144.317 102.388 144.399 102.204 144.46 102.028C144.537 101.86 144.592 101.699 144.63 101.547C144.774 100.938 144.663 100.468 144.58 100.414C144.483 100.351 144.021 100.462 143.541 100.961C143.42 101.085 143.298 101.232 143.182 101.403C143.082 101.582 142.991 101.786 142.912 102.015C142.834 102.244 142.77 102.498 142.728 102.774C142.708 103.058 142.715 103.366 142.75 103.691C142.76 103.783 142.72 103.875 142.643 103.93C142.065 104.327 141.656 104.857 142.726 104.669C143.636 105.31 143.395 104.691 143.18 104.088Z" fill="black"/>
<path d="M146.132 118.693C146.044 118.677 145.972 118.609 145.947 118.523C145.861 118.212 145.748 117.956 145.657 117.707C145.569 117.457 145.469 117.24 145.361 117.05C145.129 116.68 144.923 116.375 144.696 116.153C144.232 115.719 143.794 115.551 143.696 115.595C143.597 115.64 143.424 116.097 143.616 116.754C143.705 117.084 143.86 117.477 144.193 117.839C144.353 118.024 144.541 118.21 144.759 118.389C144.98 118.567 145.266 118.712 145.565 118.852C145.651 118.891 145.711 118.972 145.719 119.065C145.74 119.412 145.822 119.742 145.945 119.856C146.066 119.976 146.21 119.875 146.408 119.373C146.918 119.157 147.005 119.004 146.891 118.908C146.772 118.814 146.45 118.76 146.132 118.693Z" fill="black"/>
<path d="M168.335 117.437C168.337 117.526 168.286 117.608 168.206 117.649C167.66 117.956 167.191 118.206 166.87 118.501C166.705 118.643 166.573 118.795 166.454 118.935C166.327 119.068 166.225 119.202 166.141 119.333C165.809 119.856 165.773 120.335 165.843 120.42C165.908 120.501 166.376 120.536 166.984 120.229C167.136 120.152 167.296 120.055 167.458 119.933C167.613 119.804 167.759 119.639 167.905 119.453C168.187 119.071 168.485 118.606 168.607 117.955C168.627 117.866 168.694 117.793 168.783 117.768C169.434 117.584 170.066 117.288 168.969 117.063C168.374 116.177 168.317 116.786 168.335 117.437Z" fill="black"/>
<path d="M167.977 97.3207C168.065 97.3426 168.125 97.419 168.139 97.5074C168.23 98.1447 168.424 98.6026 168.586 99.0067C168.751 99.4077 168.963 99.7062 169.184 99.9329C169.593 100.397 170.014 100.588 170.123 100.545C170.215 100.509 170.422 100.066 170.302 99.4031C170.226 99.0804 170.075 98.7013 169.811 98.3068C169.551 97.9115 169.096 97.5481 168.55 97.2131C168.471 97.1674 168.425 97.079 168.425 96.9884C168.404 96.3349 168.263 95.6673 167.762 96.6376C166.723 96.9749 167.319 97.1747 167.977 97.3207Z" fill="black"/>
<path d="M147.352 94.952C147.382 94.8698 147.46 94.8126 147.551 94.8033C148.191 94.7369 148.675 94.5917 149.101 94.4668C149.517 94.3297 149.824 94.1165 150.077 93.9336C150.582 93.5787 150.792 93.1523 150.758 93.0478C150.726 92.9495 150.299 92.7439 149.613 92.8008C149.273 92.8342 148.89 92.9817 148.474 93.2168C148.051 93.4373 147.646 93.8449 147.281 94.38C147.229 94.4553 147.139 94.4983 147.046 94.4895C146.355 94.4242 145.7 94.5617 146.636 95.103C146.918 96.164 147.131 95.5486 147.352 94.952Z" fill="black"/>
<path d="M141.26 112.848C141.19 112.791 141.159 112.7 141.179 112.614C141.298 112.006 141.405 111.487 141.382 111.052C141.363 110.618 141.273 110.258 141.186 109.96C140.988 109.371 140.635 109.047 140.524 109.048C140.418 109.05 140.094 109.39 139.949 110.043C139.863 110.369 139.865 110.77 139.976 111.226C140.091 111.682 140.26 112.202 140.682 112.715C140.738 112.788 140.751 112.886 140.713 112.968C140.432 113.574 140.251 114.237 141.138 113.565C142.21 113.698 141.774 113.258 141.26 112.848Z" fill="black"/>
<path d="M155.447 125.087C155.374 125.139 155.275 125.144 155.196 125.102C154.63 124.826 154.149 124.611 153.721 124.505C153.293 124.4 152.917 124.403 152.606 124.4C151.981 124.425 151.564 124.668 151.534 124.774C151.506 124.873 151.745 125.273 152.347 125.594C152.644 125.769 153.042 125.862 153.52 125.885C153.996 125.91 154.554 125.863 155.167 125.601C155.253 125.567 155.352 125.58 155.422 125.638C155.944 126.066 156.546 126.413 156.119 125.394C156.529 124.412 155.983 124.708 155.447 125.087Z" fill="black"/>
</g>
</svg>
