<svg width="350" height="494" viewBox="0 0 350 494" fill="none" xmlns="http://www.w3.org/2000/svg">
<rect width="350" height="494" fill="#ffffff"/>
<g opacity="0.25">
<path d="M195.289 243.702L195.218 243.729C195.219 243.716 195.22 243.707 195.221 243.693C195.215 243.527 195.131 243.364 195.026 243.377C194.921 243.391 194.849 243.573 194.869 243.735C194.877 243.811 194.902 243.868 194.935 243.909C194.733 243.83 194.456 243.83 194.151 243.87C193.866 243.934 193.556 244.046 193.321 244.201C193.09 244.365 192.95 244.529 192.879 244.685C192.848 244.748 192.791 244.8 192.725 244.82C192.545 244.873 192.369 244.989 192.239 245.167C192.054 245.405 192.058 245.73 192.195 245.96C192.466 246.396 193.032 246.422 193.386 246.138C193.474 246.062 193.539 245.97 193.583 245.868C193.607 245.806 193.664 245.768 193.73 245.767C193.889 245.76 194.058 245.702 194.245 245.567C194.433 245.443 194.62 245.291 194.779 245.104C194.945 244.948 195.085 244.748 195.172 244.574C195.174 244.623 195.192 244.682 195.231 244.749C195.314 244.893 195.444 245.016 195.505 244.982C195.565 244.947 195.547 244.764 195.476 244.618C195.47 244.607 195.465 244.599 195.459 244.589C195.479 244.586 195.498 244.583 195.518 244.577C195.773 244.506 195.969 244.293 195.944 244.038C195.923 243.796 195.62 243.613 195.289 243.702Z" fill="black"/>
<path d="M189.359 250.046L189.319 250.109C189.312 250.099 189.307 250.09 189.299 250.079C189.193 249.95 189.025 249.87 188.95 249.943C188.875 250.017 188.929 250.205 189.044 250.322C189.097 250.378 189.152 250.408 189.203 250.421C188.994 250.478 188.773 250.643 188.555 250.858C188.367 251.078 188.189 251.352 188.097 251.615C188.013 251.883 188.001 252.098 188.04 252.265C188.054 252.332 188.041 252.408 188.001 252.463C187.889 252.612 187.82 252.81 187.825 253.029C187.824 253.329 188.026 253.586 188.277 253.687C188.76 253.873 189.227 253.557 189.335 253.12C189.359 253.007 189.354 252.895 189.326 252.788C189.308 252.724 189.33 252.66 189.382 252.62C189.503 252.52 189.603 252.372 189.67 252.153C189.744 251.943 189.8 251.71 189.812 251.467C189.848 251.244 189.837 251.001 189.8 250.81C189.831 250.848 189.882 250.885 189.954 250.915C190.109 250.98 190.288 251.001 190.315 250.937C190.342 250.874 190.216 250.739 190.069 250.664C190.057 250.659 190.049 250.656 190.038 250.651C190.051 250.637 190.065 250.623 190.078 250.607C190.238 250.399 190.263 250.112 190.086 249.923C189.922 249.744 189.568 249.778 189.359 250.046Z" fill="black"/>
<path d="M186.746 250.357L186.693 250.411C186.688 250.399 186.685 250.39 186.68 250.377C186.603 250.23 186.455 250.117 186.366 250.174C186.277 250.231 186.292 250.426 186.38 250.564C186.42 250.629 186.469 250.67 186.516 250.693C186.298 250.706 186.049 250.824 185.79 250.99C185.561 251.167 185.33 251.4 185.185 251.639C185.047 251.884 184.991 252.092 184.995 252.263C184.995 252.333 184.966 252.403 184.916 252.45C184.775 252.573 184.667 252.753 184.626 252.969C184.563 253.262 184.708 253.554 184.932 253.704C185.367 253.983 185.889 253.767 186.085 253.361C186.132 253.256 186.151 253.145 186.146 253.034C186.141 252.968 186.176 252.91 186.235 252.881C186.375 252.807 186.503 252.683 186.614 252.482C186.729 252.292 186.832 252.074 186.895 251.839C186.977 251.628 187.016 251.388 187.019 251.194C187.042 251.237 187.084 251.283 187.148 251.327C187.286 251.421 187.457 251.478 187.497 251.422C187.537 251.365 187.441 251.207 187.313 251.104C187.302 251.097 187.295 251.092 187.284 251.086C187.301 251.075 187.318 251.064 187.333 251.05C187.533 250.878 187.616 250.604 187.483 250.383C187.359 250.174 187.006 250.136 186.746 250.357Z" fill="black"/>
<path d="M200.266 244.325L200.2 244.325C200.204 244.314 200.208 244.305 200.214 244.292C200.263 244.135 200.249 243.953 200.172 243.929C200.091 243.908 199.991 244.043 199.933 244.198C199.908 244.27 199.902 244.332 199.91 244.381C199.67 244.08 199.199 243.75 198.705 243.604C198.462 243.531 198.24 243.526 198.08 243.569C198.014 243.585 197.934 243.575 197.877 243.531C197.726 243.415 197.519 243.342 197.28 243.358C196.961 243.365 196.684 243.586 196.613 243.837C196.492 244.329 196.814 244.759 197.224 244.843C197.331 244.862 197.444 244.865 197.549 244.838C197.612 244.824 197.675 244.841 197.72 244.891C197.831 245.012 197.98 245.103 198.233 245.178C198.712 245.321 199.433 245.32 199.805 245.079C199.78 245.123 199.767 245.184 199.772 245.261C199.782 245.424 199.888 245.602 199.979 245.591C200.073 245.584 200.128 245.408 200.111 245.245C200.108 245.232 200.106 245.224 200.103 245.212L200.172 245.224C200.488 245.259 200.757 245.069 200.768 244.818C200.779 244.57 200.554 244.358 200.266 244.325Z" fill="black"/>
<path d="M204.701 243.44L204.65 243.479C204.647 243.467 204.645 243.458 204.641 243.445C204.583 243.29 204.461 243.157 204.386 243.179C204.312 243.201 204.308 243.38 204.359 243.536C204.383 243.609 204.416 243.662 204.453 243.696C204.061 243.605 203.494 243.651 203.073 243.767C202.861 243.839 202.706 243.908 202.601 244.025C202.559 244.072 202.495 244.088 202.435 244.067C202.275 244.01 202.107 244.02 201.926 244.078C201.686 244.171 201.487 244.389 201.427 244.651C201.309 245.144 201.729 245.585 202.292 245.526C202.43 245.506 202.556 245.459 202.662 245.394C202.725 245.356 202.804 245.348 202.874 245.367C203.043 245.412 203.271 245.431 203.549 245.34C204.11 245.184 204.668 244.714 204.8 244.313C204.809 244.363 204.835 244.419 204.887 244.477C204.996 244.601 205.176 244.678 205.252 244.618C205.328 244.557 205.261 244.381 205.147 244.264C205.136 244.256 205.129 244.25 205.12 244.242L205.183 244.209C205.459 244.04 205.551 243.728 205.401 243.523C205.254 243.324 204.943 243.292 204.701 243.44Z" fill="black"/>
<path d="M205.231 239.733L205.197 239.788C205.19 239.777 205.184 239.77 205.177 239.758C205.067 239.632 204.906 239.55 204.844 239.596C204.782 239.642 204.841 239.811 204.944 239.94C204.992 240.001 205.042 240.038 205.088 240.058C204.688 240.106 204.172 240.343 203.818 240.595C203.644 240.735 203.523 240.853 203.466 240.997C203.442 241.056 203.388 241.093 203.324 241.094C203.154 241.094 203 241.162 202.851 241.278C202.658 241.446 202.548 241.719 202.584 241.986C202.645 242.488 203.195 242.759 203.701 242.511C203.824 242.446 203.926 242.359 204.003 242.261C204.048 242.205 204.12 242.17 204.192 242.164C204.366 242.149 204.587 242.089 204.816 241.909C205.288 241.572 205.647 240.94 205.629 240.519C205.655 240.563 205.7 240.607 205.769 240.643C205.915 240.722 206.111 240.733 206.161 240.651C206.211 240.568 206.086 240.425 205.938 240.354C205.925 240.35 205.917 240.347 205.905 240.343L205.953 240.29C206.152 240.038 206.13 239.714 205.917 239.574C205.709 239.436 205.406 239.512 205.231 239.733Z" fill="black"/>
<path d="M208.094 240.241L208.061 240.296C208.053 240.287 208.047 240.279 208.039 240.269C207.922 240.153 207.752 240.079 207.693 240.132C207.634 240.184 207.706 240.35 207.819 240.471C207.872 240.528 207.924 240.561 207.973 240.577C207.578 240.658 207.067 240.951 206.743 241.282C206.565 241.454 206.471 241.619 206.432 241.775C206.416 241.837 206.369 241.888 206.306 241.907C206.138 241.957 205.987 242.067 205.873 242.227C205.723 242.45 205.699 242.748 205.815 242.99C206.031 243.45 206.631 243.54 207.028 243.19C207.123 243.102 207.194 242.998 207.24 242.889C207.267 242.825 207.326 242.778 207.394 242.762C207.56 242.723 207.736 242.622 207.926 242.436C208.312 242.047 208.602 241.412 208.55 240.993C208.58 241.035 208.628 241.075 208.699 241.106C208.852 241.172 209.046 241.17 209.087 241.085C209.129 241 208.999 240.869 208.843 240.807C208.83 240.804 208.821 240.801 208.809 240.799L208.855 240.745C209.027 240.475 208.987 240.156 208.767 240.032C208.547 239.909 208.245 240.003 208.094 240.241Z" fill="black"/>
<path d="M190.366 245.57L190.347 245.631C190.337 245.624 190.329 245.618 190.319 245.61C190.178 245.524 189.994 245.492 189.95 245.557C189.905 245.622 190.015 245.766 190.154 245.858C190.218 245.9 190.278 245.921 190.329 245.925C189.964 246.095 189.538 246.499 189.302 246.896C189.171 247.105 189.119 247.287 189.119 247.447C189.118 247.512 189.085 247.573 189.028 247.606C188.876 247.693 188.756 247.835 188.684 248.017C188.592 248.269 188.64 248.564 188.812 248.772C189.132 249.169 189.736 249.116 190.037 248.683C190.109 248.576 190.153 248.459 190.171 248.342C190.182 248.273 190.228 248.213 190.291 248.183C190.442 248.106 190.589 247.966 190.729 247.742C191.01 247.274 191.14 246.589 190.989 246.194C191.028 246.227 191.084 246.255 191.161 246.269C191.325 246.298 191.513 246.251 191.533 246.158C191.553 246.065 191.396 245.969 191.229 245.946C191.216 245.945 191.207 245.945 191.194 245.945L191.226 245.882C191.329 245.58 191.213 245.279 190.97 245.21C190.726 245.142 190.455 245.303 190.366 245.57Z" fill="black"/>
<path d="M209.536 235.917L209.539 235.981C209.527 235.977 209.518 235.973 209.505 235.968C209.343 235.927 209.161 235.948 209.139 236.025C209.115 236.1 209.262 236.207 209.421 236.254C209.496 236.276 209.559 236.278 209.609 236.268C209.312 236.537 209.028 237.053 208.919 237.493C208.859 237.717 208.866 237.897 208.903 238.044C208.92 238.104 208.905 238.17 208.86 238.214C208.745 238.333 208.648 238.482 208.629 238.673C208.599 238.93 208.7 239.203 208.916 239.377C209.301 239.703 209.901 239.537 210.095 239.026C210.146 238.901 210.166 238.773 210.152 238.65C210.145 238.578 210.174 238.507 210.227 238.459C210.361 238.343 210.464 238.158 210.535 237.888C210.669 237.355 210.583 236.667 210.321 236.333C210.368 236.354 210.429 236.365 210.507 236.355C210.673 236.336 210.84 236.237 210.832 236.143C210.822 236.05 210.639 236.003 210.475 236.028C210.463 236.031 210.454 236.034 210.442 236.037L210.451 235.968C210.47 235.652 210.265 235.397 210.009 235.399C209.759 235.401 209.553 235.633 209.536 235.917Z" fill="black"/>
<path d="M212.588 221.943L212.534 221.979C212.531 221.967 212.529 221.957 212.527 221.944C212.479 221.786 212.365 221.644 212.287 221.666C212.21 221.685 212.193 221.864 212.236 222.023C212.256 222.097 212.286 222.151 212.321 222.187C211.934 222.078 211.339 222.108 210.901 222.245C210.676 222.312 210.524 222.412 210.416 222.52C210.373 222.566 210.308 222.587 210.247 222.572C210.084 222.537 209.904 222.533 209.728 222.617C209.49 222.726 209.307 222.954 209.269 223.226C209.187 223.72 209.644 224.138 210.188 224.034C210.322 224.013 210.443 223.962 210.542 223.886C210.6 223.843 210.678 223.83 210.747 223.85C210.917 223.902 211.131 223.892 211.401 223.811C211.933 223.645 212.484 223.215 212.636 222.821C212.642 222.871 212.666 222.928 212.714 222.989C212.817 223.118 212.99 223.206 213.067 223.151C213.143 223.094 213.088 222.916 212.981 222.792C212.971 222.783 212.965 222.776 212.956 222.768L213.021 222.739C213.304 222.59 213.418 222.286 213.282 222.072C213.15 221.862 212.842 221.809 212.588 221.943Z" fill="black"/>
<path d="M209.109 231.102V231.174C209.098 231.17 209.089 231.166 209.076 231.161C208.916 231.116 208.73 231.145 208.707 231.243C208.692 231.341 208.849 231.461 209.012 231.495C209.089 231.512 209.152 231.507 209.2 231.49C208.905 231.808 208.789 232.524 208.893 233.038C208.942 233.297 209.033 233.475 209.142 233.589C209.187 233.636 209.206 233.703 209.188 233.765C209.138 233.934 209.142 234.092 209.211 234.276C209.309 234.52 209.543 234.71 209.81 234.757C210.315 234.85 210.741 234.424 210.669 233.886C210.648 233.753 210.602 233.623 210.532 233.528C210.492 233.471 210.482 233.398 210.506 233.332C210.565 233.171 210.576 232.981 210.531 232.738C210.438 232.268 210.186 231.77 209.915 231.485C209.964 231.5 210.027 231.502 210.103 231.487C210.266 231.455 210.421 231.368 210.404 231.296C210.393 231.225 210.213 231.185 210.047 231.207C210.034 231.21 210.025 231.212 210.014 231.215C210.018 231.195 210.023 231.175 210.025 231.154C210.037 230.885 209.876 230.634 209.629 230.589C209.378 230.543 209.126 230.771 209.109 231.102Z" fill="black"/>
<path d="M207.357 229.105L207.334 229.174C207.325 229.166 207.317 229.16 207.307 229.151C207.168 229.06 206.982 229.031 206.93 229.118C206.884 229.207 206.997 229.368 207.142 229.45C207.21 229.489 207.271 229.503 207.322 229.501C206.943 229.715 206.61 230.363 206.55 230.883C206.516 231.143 206.548 231.342 206.615 231.483C206.644 231.541 206.641 231.61 206.605 231.664C206.505 231.81 206.46 231.961 206.469 232.158C206.486 232.419 206.65 232.671 206.889 232.796C207.341 233.037 207.88 232.759 207.978 232.226C207.999 232.092 207.996 231.955 207.958 231.844C207.937 231.777 207.951 231.704 207.994 231.65C208.099 231.514 208.17 231.336 208.202 231.091C208.26 230.615 208.174 230.066 208.005 229.713C208.047 229.741 208.106 229.762 208.183 229.771C208.348 229.79 208.523 229.753 208.528 229.68C208.54 229.609 208.382 229.516 208.217 229.487C208.204 229.487 208.195 229.486 208.183 229.485C208.193 229.467 208.204 229.45 208.212 229.431C208.307 229.178 208.232 228.89 208.011 228.773C207.786 228.654 207.475 228.795 207.357 229.105Z" fill="black"/>
<path d="M211.369 226.568L211.326 226.623C211.32 226.613 211.315 226.604 211.309 226.592C211.212 226.457 211.053 226.362 210.979 226.419C210.906 226.476 210.948 226.661 211.048 226.793C211.095 226.854 211.145 226.891 211.193 226.911C210.77 226.951 210.199 227.347 209.895 227.815C209.744 228.054 209.667 228.25 209.678 228.432C209.68 228.504 209.649 228.577 209.592 228.622C209.44 228.744 209.314 228.926 209.284 229.159C209.225 229.469 209.361 229.766 209.606 229.903C210.05 230.14 210.57 229.925 210.737 229.543C210.783 229.444 210.81 229.342 210.807 229.236C210.807 229.174 210.842 229.118 210.897 229.089C211.023 229.015 211.17 228.903 211.292 228.709C211.536 228.333 211.737 227.773 211.732 227.374C211.758 227.417 211.803 227.461 211.87 227.499C212.015 227.58 212.198 227.611 212.238 227.541C212.279 227.471 212.167 227.324 212.025 227.239C212.013 227.234 212.005 227.23 211.994 227.225L212.041 227.181C212.231 226.963 212.271 226.666 212.089 226.485C211.915 226.312 211.577 226.331 211.369 226.568Z" fill="black"/>
<path d="M214.616 222.809L214.568 222.861C214.563 222.849 214.559 222.84 214.554 222.828C214.471 222.684 214.323 222.574 214.244 222.623C214.165 222.673 214.188 222.861 214.275 223.002C214.315 223.067 214.361 223.11 214.406 223.134C213.981 223.132 213.373 223.469 213.023 223.906C212.849 224.128 212.753 224.316 212.745 224.498C212.739 224.57 212.701 224.639 212.64 224.679C212.477 224.785 212.333 224.953 212.279 225.183C212.189 225.485 212.294 225.794 212.524 225.954C212.942 226.234 213.481 226.071 213.686 225.708C213.741 225.614 213.779 225.515 213.787 225.409C213.793 225.348 213.833 225.295 213.891 225.271C214.024 225.211 214.182 225.113 214.323 224.932C214.603 224.582 214.861 224.045 214.896 223.648C214.917 223.693 214.957 223.741 215.021 223.785C215.157 223.881 215.335 223.928 215.383 223.863C215.43 223.798 215.334 223.641 215.201 223.543C215.19 223.536 215.182 223.531 215.172 223.525L215.223 223.486C215.434 223.288 215.505 222.996 215.341 222.798C215.185 222.609 214.847 222.594 214.616 222.809Z" fill="black"/>
<path d="M197.959 246.218L197.885 246.218C197.89 246.206 197.894 246.197 197.9 246.185C197.952 246.028 197.929 245.845 197.829 245.821C197.736 245.8 197.616 245.95 197.577 246.109C197.559 246.183 197.561 246.245 197.576 246.294C197.28 246.005 196.648 245.827 196.135 245.872C195.875 245.891 195.685 245.968 195.555 246.068C195.501 246.11 195.43 246.127 195.364 246.107C195.189 246.053 194.982 246.064 194.78 246.158C194.505 246.284 194.33 246.569 194.362 246.836C194.441 247.33 194.869 247.634 195.274 247.563C195.38 247.544 195.475 247.499 195.561 247.439C195.612 247.403 195.677 247.398 195.733 247.426C195.87 247.497 196.042 247.525 196.272 247.507C196.725 247.468 197.27 247.264 197.555 246.998C197.539 247.046 197.534 247.108 197.546 247.183C197.571 247.345 197.651 247.503 197.722 247.49C197.784 247.479 197.827 247.302 197.816 247.14C197.814 247.127 197.812 247.118 197.81 247.107C197.828 247.111 197.846 247.115 197.865 247.117C197.936 247.121 197.962 247.118 198.018 247.102C198.087 247.093 198.151 247.072 198.207 247.042C198.321 246.981 198.402 246.882 198.428 246.76C198.453 246.638 198.419 246.516 198.347 246.418C198.31 246.369 198.264 246.325 198.21 246.291C198.142 246.256 198.033 246.222 197.959 246.218Z" fill="black"/>
<path d="M192.986 247.568L192.94 247.625C192.934 247.614 192.929 247.606 192.923 247.594C192.828 247.458 192.666 247.365 192.586 247.429C192.513 247.49 192.561 247.674 192.666 247.801C192.715 247.861 192.766 247.896 192.815 247.914C192.402 247.972 191.876 248.359 191.601 248.789C191.459 249.005 191.406 249.199 191.408 249.362C191.41 249.43 191.38 249.496 191.324 249.536C191.174 249.641 191.058 249.81 191.012 250.024C190.947 250.316 191.071 250.627 191.305 250.763C191.753 251 192.257 250.849 192.445 250.489C192.494 250.394 192.515 250.292 192.519 250.187C192.52 250.126 192.556 250.072 192.612 250.046C192.752 249.981 192.879 249.862 193.005 249.671C193.247 249.293 193.413 248.742 193.371 248.357C193.399 248.398 193.446 248.44 193.514 248.476C193.661 248.554 193.836 248.588 193.869 248.524C193.898 248.468 193.781 248.327 193.643 248.238C193.631 248.232 193.623 248.228 193.613 248.222C193.627 248.211 193.641 248.2 193.654 248.186C193.701 248.133 193.714 248.111 193.734 248.057C193.768 247.997 193.791 247.934 193.8 247.872C193.821 247.746 193.79 247.623 193.707 247.528C193.624 247.434 193.505 247.386 193.381 247.384C193.319 247.383 193.257 247.393 193.196 247.415C193.127 247.447 193.033 247.512 192.986 247.568Z" fill="black"/>
<path d="M202.495 246.464C202.474 246.468 202.454 246.474 202.434 246.48C202.436 246.468 202.438 246.458 202.44 246.445C202.448 246.28 202.391 246.107 202.314 246.103C202.238 246.097 202.164 246.256 202.151 246.42C202.145 246.496 202.156 246.557 202.176 246.603C201.862 246.364 201.31 246.208 200.863 246.203C200.634 246.196 200.464 246.242 200.332 246.324C200.278 246.359 200.212 246.355 200.16 246.323C200.018 246.234 199.849 246.193 199.662 246.227C199.409 246.264 199.178 246.445 199.076 246.697C198.882 247.159 199.192 247.666 199.703 247.711C199.83 247.722 199.952 247.705 200.061 247.665C200.125 247.641 200.197 247.655 200.254 247.691C200.392 247.78 200.585 247.837 200.849 247.844C201.371 247.851 201.992 247.616 202.255 247.304C202.245 247.353 202.248 247.415 202.272 247.488C202.323 247.644 202.449 247.789 202.535 247.762C202.621 247.732 202.629 247.548 202.573 247.394C202.568 247.382 202.564 247.374 202.559 247.363L202.626 247.358C202.926 247.311 203.128 247.073 203.078 246.828C203.028 246.584 202.767 246.42 202.495 246.464Z" fill="black"/>
<path d="M187.275 246.302C187.266 246.322 187.261 246.341 187.255 246.361C187.246 246.353 187.238 246.346 187.228 246.338C187.092 246.243 186.914 246.196 186.869 246.257C186.822 246.317 186.919 246.465 187.051 246.564C187.113 246.609 187.171 246.634 187.221 246.642C186.847 246.773 186.416 247.147 186.17 247.516C186.041 247.701 185.988 247.868 185.987 248.021C185.987 248.084 185.949 248.137 185.893 248.164C185.741 248.232 185.615 248.351 185.543 248.525C185.437 248.754 185.468 249.044 185.628 249.265C185.917 249.675 186.518 249.691 186.832 249.292C186.91 249.193 186.961 249.082 186.986 248.971C187 248.904 187.051 248.852 187.112 248.824C187.263 248.758 187.416 248.628 187.564 248.413C187.851 247.984 187.987 247.341 187.862 246.954C187.899 246.989 187.953 247.02 188.029 247.04C188.19 247.082 188.381 247.056 188.404 246.97C188.425 246.882 188.273 246.776 188.111 246.739C188.098 246.738 188.089 246.736 188.077 246.735L188.109 246.677C188.23 246.402 188.136 246.105 187.9 246.015C187.665 245.925 187.384 246.053 187.275 246.302Z" fill="black"/>
<path d="M206.665 244.925C206.647 244.936 206.631 244.95 206.615 244.963C206.612 244.951 206.609 244.942 206.606 244.929C206.544 244.776 206.42 244.641 206.347 244.667C206.275 244.694 206.278 244.875 206.335 245.03C206.362 245.102 206.397 245.153 206.435 245.187C206.043 245.088 205.48 245.181 205.07 245.353C204.866 245.452 204.724 245.547 204.638 245.674C204.602 245.724 204.544 245.753 204.483 245.745C204.321 245.729 204.15 245.754 203.991 245.852C203.778 245.989 203.644 246.254 203.649 246.518C203.656 247.026 204.143 247.356 204.637 247.199C204.761 247.165 204.864 247.095 204.947 247.011C204.995 246.962 205.065 246.941 205.133 246.953C205.297 246.98 205.505 246.969 205.743 246.854C206.226 246.651 206.687 246.174 206.801 245.792C206.812 245.842 206.841 245.897 206.893 245.953C207.005 246.074 207.176 246.149 207.242 246.089C207.308 246.028 207.24 245.858 207.124 245.739C207.114 245.731 207.107 245.725 207.098 245.718L207.157 245.687C207.415 245.529 207.498 245.227 207.348 245.021C207.204 244.821 206.9 244.781 206.665 244.925Z" fill="black"/>
<path d="M209.94 241.905C209.928 241.922 209.919 241.94 209.909 241.958C209.902 241.948 209.896 241.94 209.888 241.93C209.774 241.809 209.608 241.728 209.552 241.779C209.497 241.832 209.559 241.994 209.669 242.118C209.72 242.175 209.772 242.21 209.819 242.228C209.619 242.252 209.395 242.337 209.188 242.459C208.97 242.574 208.763 242.72 208.61 242.884C208.449 243.046 208.357 243.195 208.325 243.346C208.312 243.406 208.268 243.456 208.208 243.473C208.052 243.521 207.9 243.609 207.793 243.763C207.647 243.971 207.633 244.272 207.746 244.513C207.961 244.975 208.534 245.079 208.923 244.752C209.022 244.674 209.09 244.572 209.132 244.464C209.157 244.401 209.212 244.355 209.279 244.341C209.439 244.305 209.619 244.214 209.803 244.03C209.978 243.843 210.139 243.604 210.247 243.362C210.347 243.111 210.4 242.861 210.384 242.661C210.412 242.703 210.459 242.744 210.529 242.778C210.678 242.851 210.873 242.865 210.909 242.783C210.947 242.702 210.82 242.568 210.669 242.499C210.657 242.495 210.648 242.492 210.637 242.488L210.68 242.438C210.856 242.195 210.826 241.886 210.614 241.75C210.402 241.614 210.1 241.683 209.94 241.905Z" fill="black"/>
<path d="M211.771 237.9C211.766 237.921 211.765 237.941 211.762 237.961C211.752 237.955 211.743 237.951 211.731 237.944C211.579 237.881 211.393 237.872 211.36 237.941C211.326 238.009 211.456 238.134 211.608 238.202C211.678 238.234 211.74 238.246 211.791 238.244C211.457 238.451 211.117 238.908 210.952 239.315C210.877 239.527 210.854 239.696 210.88 239.844C210.891 239.904 210.87 239.965 210.821 240.002C210.694 240.103 210.596 240.243 210.552 240.422C210.499 240.667 210.597 240.949 210.791 241.131C211.163 241.483 211.741 241.373 211.978 240.919C212.041 240.809 212.058 240.685 212.059 240.57C212.059 240.501 212.093 240.438 212.15 240.399C212.289 240.305 212.419 240.148 212.507 239.902C212.701 239.422 212.694 238.765 212.485 238.413C212.529 238.439 212.588 238.458 212.666 238.461C212.833 238.468 213.01 238.401 213.014 238.312C213.019 238.224 212.848 238.152 212.681 238.15C212.668 238.151 212.658 238.152 212.646 238.153L212.668 238.09C212.73 237.797 212.564 237.526 212.316 237.487C212.064 237.448 211.828 237.634 211.771 237.9Z" fill="black"/>
<path d="M211.844 233.483C211.847 233.504 211.853 233.523 211.859 233.543C211.847 233.542 211.837 233.54 211.824 233.539C211.658 233.534 211.482 233.595 211.477 233.672C211.472 233.749 211.641 233.818 211.807 233.826C211.885 233.83 211.946 233.818 211.992 233.796C211.761 234.114 211.622 234.671 211.636 235.115C211.652 235.341 211.693 235.508 211.781 235.634C211.816 235.685 211.822 235.75 211.792 235.804C211.719 235.947 211.674 236.115 211.716 236.298C211.775 236.545 211.964 236.762 212.223 236.851C212.703 237.023 213.199 236.692 213.221 236.185C213.23 236.06 213.209 235.941 213.157 235.836C213.129 235.774 213.134 235.702 213.17 235.645C213.255 235.505 213.317 235.312 213.3 235.054C213.284 234.543 213.026 233.946 212.7 233.698C212.751 233.706 212.813 233.702 212.887 233.676C213.043 233.621 213.183 233.495 213.154 233.412C213.125 233.329 212.939 233.325 212.783 233.384C212.771 233.39 212.763 233.394 212.752 233.4L212.748 233.334C212.706 233.077 212.491 232.886 212.236 232.895C211.984 232.904 211.794 233.175 211.844 233.483Z" fill="black"/>
<path d="M212.332 228.694L212.314 228.761C212.304 228.753 212.297 228.747 212.286 228.739C212.145 228.649 211.962 228.618 211.915 228.701C211.867 228.784 211.977 228.94 212.122 229.021C212.19 229.058 212.251 229.073 212.302 229.073C211.942 229.273 211.593 229.859 211.522 230.369C211.484 230.628 211.514 230.826 211.587 230.973C211.616 231.033 211.614 231.105 211.581 231.163C211.493 231.318 211.449 231.511 211.494 231.716C211.548 231.994 211.772 232.215 212.036 232.274C212.536 232.378 212.972 232.025 212.996 231.591C213.004 231.481 212.984 231.375 212.941 231.277C212.916 231.22 212.929 231.156 212.969 231.108C213.067 230.991 213.136 230.831 213.17 230.61C213.231 230.173 213.167 229.633 212.983 229.287C213.025 229.315 213.084 229.337 213.161 229.347C213.327 229.367 213.504 229.337 213.511 229.268C213.519 229.199 213.358 229.106 213.196 229.077C213.183 229.075 213.173 229.074 213.162 229.074C213.17 229.056 213.18 229.04 213.187 229.021C213.284 228.785 213.194 228.508 212.978 228.388C212.753 228.263 212.453 228.4 212.332 228.694Z" fill="black"/>
<path d="M201.708 249.113L201.641 249.117C201.646 249.106 201.649 249.097 201.653 249.084C201.692 248.924 201.665 248.743 201.586 248.725C201.507 248.71 201.4 248.856 201.355 249.012C201.334 249.085 201.333 249.147 201.346 249.196C201.216 249.054 201.028 248.924 200.82 248.822C200.717 248.766 200.61 248.708 200.501 248.663C200.443 248.642 200.389 248.621 200.337 248.602L200.254 248.576C200.189 248.562 200.126 248.548 200.063 248.534C200.001 248.532 199.942 248.53 199.883 248.528C199.631 248.522 199.439 248.563 199.295 248.641C199.235 248.673 199.163 248.674 199.105 248.641C198.948 248.555 198.761 248.515 198.559 248.545C198.285 248.587 198.047 248.768 197.939 249.018C197.729 249.481 198.087 249.988 198.634 250.033C198.768 250.044 198.898 250.027 199.013 249.984C199.081 249.96 199.158 249.97 199.218 250.008C199.364 250.101 199.565 250.162 199.844 250.169C199.896 250.17 199.899 250.17 199.903 250.167L199.905 250.164C199.915 250.165 199.857 250.154 199.897 250.159L200.001 250.169C200.068 250.171 200.138 250.174 200.212 250.177C200.354 250.177 200.493 250.173 200.627 250.151C200.896 250.098 201.133 250.012 201.293 249.899C201.272 249.945 201.263 250.007 201.274 250.084C201.298 250.25 201.406 250.413 201.505 250.396C201.603 250.382 201.647 250.203 201.617 250.041C201.612 250.029 201.61 250.02 201.606 250.009L201.679 250.016C202.011 250.028 202.27 249.822 202.259 249.568C202.249 249.324 202.002 249.124 201.708 249.113Z" fill="black"/>
<path d="M206.375 248.063L206.317 248.098C206.316 248.085 206.314 248.076 206.313 248.063C206.272 247.902 206.163 247.755 206.082 247.777C206 247.795 205.972 247.974 206.007 248.134C206.024 248.209 206.053 248.264 206.087 248.302C205.693 248.176 205.076 248.213 204.614 248.347C204.378 248.412 204.218 248.513 204.106 248.629C204.061 248.674 203.993 248.694 203.929 248.678C203.758 248.632 203.575 248.652 203.392 248.732C203.144 248.833 202.958 249.075 202.92 249.346C202.842 249.846 203.31 250.241 203.865 250.144C204 250.116 204.123 250.063 204.225 249.992C204.286 249.95 204.364 249.938 204.435 249.959C204.606 250.005 204.823 249.994 205.098 249.918C205.64 249.759 206.202 249.33 206.378 248.946C206.382 248.996 206.404 249.054 206.45 249.116C206.55 249.249 206.72 249.345 206.8 249.293C206.878 249.237 206.832 249.057 206.73 248.928C206.72 248.919 206.714 248.913 206.705 248.904L206.772 248.877C207.063 248.733 207.2 248.438 207.08 248.219C206.959 248 206.643 247.93 206.375 248.063Z" fill="black"/>
<path d="M213.864 245.162L213.836 245.223C213.828 245.214 213.821 245.207 213.812 245.196C213.687 245.088 213.511 245.028 213.458 245.091C213.4 245.152 213.481 245.315 213.602 245.427C213.659 245.479 213.715 245.508 213.765 245.52C213.368 245.638 212.882 246.014 212.58 246.384C212.423 246.569 212.35 246.743 212.325 246.9C212.314 246.963 212.27 247.017 212.208 247.04C212.041 247.099 211.902 247.217 211.797 247.386C211.651 247.608 211.639 247.912 211.764 248.156C211.989 248.611 212.602 248.673 213.002 248.281C213.097 248.182 213.167 248.07 213.21 247.954C213.235 247.886 213.294 247.832 213.364 247.809C213.53 247.751 213.703 247.621 213.885 247.403C214.239 246.969 214.454 246.301 214.376 245.886C214.408 245.925 214.46 245.961 214.534 245.986C214.692 246.04 214.888 246.022 214.923 245.934C214.955 245.845 214.814 245.723 214.655 245.674C214.642 245.672 214.633 245.67 214.621 245.668L214.66 245.608C214.816 245.327 214.759 245.007 214.533 244.895C214.307 244.782 214.007 244.902 213.864 245.162Z" fill="black"/>
<path d="M210.366 245.277L210.321 245.328C210.315 245.317 210.311 245.308 210.305 245.296C210.217 245.156 210.066 245.05 209.994 245.096C209.924 245.143 209.954 245.325 210.038 245.465C210.078 245.53 210.123 245.574 210.168 245.598C209.749 245.6 209.169 245.848 208.776 246.147C208.58 246.304 208.454 246.445 208.394 246.597C208.368 246.658 208.314 246.705 208.248 246.716C208.076 246.751 207.9 246.826 207.761 246.977C207.574 247.182 207.502 247.479 207.58 247.735C207.726 248.222 208.313 248.391 208.767 248.091C208.881 248.019 208.971 247.926 209.032 247.819C209.069 247.756 209.135 247.716 209.206 247.708C209.377 247.687 209.583 247.615 209.799 247.443C210.235 247.111 210.607 246.532 210.652 246.117C210.673 246.164 210.712 246.212 210.776 246.257C210.914 246.352 211.103 246.39 211.157 246.314C211.213 246.238 211.113 246.083 210.975 245.991C210.963 245.985 210.955 245.981 210.944 245.975L210.999 245.93C211.23 245.709 211.27 245.389 211.089 245.215C210.908 245.04 210.584 245.068 210.366 245.277Z" fill="black"/>
<path d="M213.292 241.458L213.269 241.52C213.26 241.512 213.253 241.505 213.243 241.496C213.109 241.398 212.929 241.351 212.881 241.417C212.834 241.483 212.929 241.639 213.057 241.74C213.117 241.788 213.175 241.813 213.226 241.821C212.834 241.964 212.385 242.367 212.101 242.755C211.96 242.955 211.896 243.133 211.876 243.29C211.87 243.355 211.83 243.414 211.771 243.443C211.613 243.521 211.476 243.649 211.381 243.829C211.256 244.075 211.276 244.384 211.425 244.607C211.708 245.033 212.313 245.027 212.667 244.617C212.754 244.516 212.809 244.396 212.841 244.278C212.86 244.208 212.912 244.15 212.979 244.123C213.145 244.059 213.308 243.92 213.47 243.69C213.798 243.24 213.966 242.549 213.863 242.142C213.898 242.178 213.952 242.21 214.028 242.23C214.191 242.272 214.385 242.239 214.408 242.145C214.434 242.051 214.285 241.941 214.122 241.905C214.108 241.904 214.099 241.903 214.087 241.902L214.123 241.839C214.266 241.547 214.169 241.228 213.933 241.136C213.698 241.046 213.422 241.195 213.292 241.458Z" fill="black"/>
<path d="M214.384 236.788L214.385 236.856C214.373 236.851 214.364 236.848 214.352 236.842C214.192 236.796 214.007 236.817 213.982 236.899C213.958 236.982 214.104 237.097 214.264 237.146C214.338 237.168 214.402 237.17 214.451 237.158C214.144 237.439 213.889 238.015 213.802 238.494C213.765 238.74 213.777 238.927 213.832 239.077C213.854 239.139 213.846 239.209 213.805 239.26C213.701 239.4 213.622 239.568 213.623 239.77C213.627 240.043 213.757 240.305 213.994 240.45C214.422 240.724 214.992 240.47 215.124 239.938C215.16 239.808 215.164 239.678 215.137 239.557C215.122 239.486 215.143 239.412 215.191 239.358C215.309 239.228 215.403 239.036 215.445 238.764C215.542 238.227 215.415 237.558 215.163 237.222C215.21 237.243 215.272 237.253 215.35 237.243C215.516 237.224 215.682 237.127 215.674 237.036C215.666 236.944 215.486 236.895 215.321 236.917C215.308 236.92 215.299 236.922 215.287 236.926C215.292 236.903 215.296 236.88 215.298 236.857C215.319 236.544 215.131 236.279 214.878 236.265C214.625 236.251 214.404 236.485 214.384 236.788Z" fill="black"/>
<path d="M213.984 231.943C213.987 231.967 213.994 231.989 214 232.011C213.987 232.009 213.978 232.007 213.964 232.005C213.797 231.994 213.622 232.056 213.62 232.147C213.617 232.238 213.789 232.322 213.955 232.331C214.033 232.335 214.094 232.322 214.14 232.298C213.912 232.649 213.827 233.303 213.909 233.804C213.95 234.059 214.03 234.238 214.135 234.363C214.179 234.415 214.194 234.484 214.173 234.547C214.117 234.714 214.116 234.903 214.178 235.075C214.224 235.205 214.294 235.261 214.389 235.371C214.481 235.473 214.599 235.549 214.731 235.587C214.977 235.657 215.215 235.598 215.395 235.455C215.486 235.392 215.557 235.281 215.604 235.139C215.646 235.014 215.666 234.869 215.65 234.736C215.636 234.598 215.592 234.475 215.527 234.372C215.49 234.311 215.484 234.234 215.511 234.17C215.575 234.011 215.596 233.806 215.553 233.544C215.468 233.027 215.172 232.448 214.846 232.188C214.897 232.196 214.959 232.19 215.032 232.163C215.188 232.104 215.327 231.978 215.298 231.896C215.268 231.815 215.082 231.807 214.926 231.864C214.914 231.87 214.906 231.874 214.895 231.879L214.891 231.812C214.846 231.513 214.616 231.299 214.363 231.324C214.112 231.348 213.937 231.631 213.984 231.943Z" fill="black"/>
<path d="M192.822 241.504C192.817 241.522 192.814 241.541 192.811 241.56C192.801 241.553 192.793 241.547 192.782 241.54C192.634 241.459 192.46 241.427 192.419 241.479C192.376 241.531 192.486 241.664 192.623 241.757C192.687 241.8 192.745 241.823 192.795 241.83C192.447 241.971 191.999 242.276 191.733 242.614C191.587 242.782 191.508 242.938 191.488 243.09C191.479 243.151 191.44 243.204 191.382 243.224C191.217 243.274 191.072 243.375 190.972 243.54C190.843 243.765 190.822 244.055 190.952 244.294C191.186 244.739 191.781 244.831 192.155 244.464C192.248 244.376 192.317 244.272 192.36 244.164C192.383 244.097 192.437 244.044 192.504 244.024C192.666 243.972 192.844 243.86 193.024 243.651C193.37 243.221 193.595 242.534 193.448 242.119C193.485 242.154 193.54 242.183 193.617 242.199C193.781 242.233 193.975 242.182 194.001 242.083C194.025 241.983 193.859 241.883 193.696 241.865H193.662L193.689 241.798C193.802 241.479 193.644 241.178 193.39 241.139C193.144 241.103 192.907 241.269 192.822 241.504Z" fill="black"/>
<path d="M192.504 237.016L192.514 237.082C192.502 237.079 192.492 237.077 192.479 237.074C192.314 237.05 192.134 237.095 192.122 237.183C192.11 237.271 192.276 237.364 192.441 237.385C192.519 237.394 192.581 237.386 192.628 237.366C192.362 237.664 192.251 238.366 192.361 238.861C192.414 239.115 192.5 239.276 192.612 239.39C192.659 239.437 192.677 239.501 192.658 239.56C192.609 239.72 192.615 239.892 192.683 240.053C192.784 240.275 192.996 240.443 193.272 240.508C193.519 240.563 193.758 240.504 193.921 240.342C194.092 240.179 194.179 239.921 194.139 239.656C194.12 239.524 194.068 239.411 194 239.313C193.96 239.256 193.951 239.182 193.974 239.121C194.03 238.969 194.042 238.769 193.993 238.537C193.893 238.077 193.641 237.6 193.342 237.312C193.391 237.323 193.454 237.322 193.529 237.301C193.689 237.257 193.835 237.149 193.815 237.072C193.795 236.995 193.61 236.973 193.449 237.014C193.437 237.019 193.428 237.022 193.417 237.026L193.419 236.963C193.4 236.68 193.192 236.456 192.939 236.461C192.686 236.466 192.484 236.716 192.504 237.016Z" fill="black"/>
<path d="M193.207 232.181L193.185 232.247C193.176 232.239 193.169 232.233 193.159 232.223C193.022 232.129 192.839 232.092 192.788 232.171C192.737 232.25 192.84 232.41 192.98 232.498C193.046 232.539 193.106 232.557 193.157 232.559C192.792 232.746 192.392 233.319 192.302 233.849C192.243 234.115 192.278 234.321 192.338 234.476C192.364 234.539 192.359 234.613 192.325 234.672C192.234 234.829 192.182 235.029 192.223 235.24C192.276 235.527 192.485 235.756 192.755 235.821C193.25 235.939 193.694 235.583 193.729 235.144C193.74 235.033 193.722 234.925 193.682 234.825C193.657 234.766 193.672 234.702 193.715 234.655C193.824 234.542 193.886 234.38 193.937 234.162C194.01 233.725 193.995 233.172 193.827 232.806C193.867 232.837 193.925 232.862 194.001 232.875C194.166 232.902 194.347 232.876 194.36 232.802C194.373 232.729 194.217 232.629 194.054 232.595C194.042 232.594 194.033 232.592 194.021 232.591C194.031 232.573 194.042 232.556 194.05 232.537C194.152 232.285 194.085 232 193.857 231.881C193.639 231.766 193.326 231.891 193.207 232.181Z" fill="black"/>
<path d="M196.41 231.562L196.375 231.623C196.367 231.613 196.361 231.605 196.353 231.594C196.239 231.474 196.068 231.4 196.001 231.468C195.935 231.535 196.002 231.712 196.121 231.826C196.177 231.88 196.232 231.91 196.282 231.922C195.885 232.03 195.374 232.511 195.176 233.012C195.062 233.259 195.054 233.468 195.081 233.632C195.093 233.699 195.073 233.771 195.027 233.821C194.905 233.957 194.812 234.142 194.809 234.357C194.801 234.649 194.958 234.915 195.208 235.034C195.669 235.249 196.177 234.989 196.303 234.568C196.337 234.461 196.342 234.352 196.323 234.246C196.311 234.183 196.339 234.123 196.391 234.087C196.52 233.998 196.616 233.852 196.711 233.649C196.873 233.235 196.974 232.691 196.885 232.3C196.918 232.338 196.97 232.374 197.042 232.401C197.197 232.462 197.38 232.473 197.408 232.403C197.436 232.334 197.304 232.205 197.153 232.139C197.14 232.135 197.132 232.132 197.12 232.128C197.134 232.113 197.148 232.099 197.16 232.081C197.312 231.855 197.307 231.563 197.108 231.4C196.918 231.243 196.587 231.303 196.41 231.562Z" fill="black"/>
<path d="M196.4 228.422C196.381 228.436 196.366 228.452 196.349 228.468C196.345 228.456 196.342 228.447 196.337 228.434C196.268 228.284 196.132 228.16 196.05 228.201C195.969 228.243 195.976 228.431 196.049 228.578C196.084 228.647 196.125 228.694 196.168 228.722C195.749 228.68 195.135 228.956 194.754 229.321C194.563 229.517 194.461 229.701 194.424 229.864C194.407 229.929 194.366 229.994 194.302 230.024C194.136 230.108 193.975 230.248 193.891 230.453C193.778 230.735 193.823 231.037 194.023 231.233C194.388 231.582 194.949 231.513 195.209 231.179C195.279 231.095 195.322 230.997 195.344 230.894C195.357 230.834 195.399 230.784 195.463 230.772C195.616 230.737 195.767 230.652 195.924 230.489C196.255 230.174 196.544 229.666 196.607 229.279C196.625 229.325 196.661 229.376 196.719 229.427C196.845 229.535 197.014 229.6 197.066 229.541C197.117 229.482 197.035 229.317 196.913 229.206C196.903 229.198 196.895 229.193 196.886 229.186L196.939 229.153C197.172 228.996 197.248 228.698 197.112 228.487C196.975 228.277 196.656 228.248 196.4 228.422Z" fill="black"/>
<path d="M201.004 226.579L200.935 226.595C200.938 226.583 200.939 226.573 200.942 226.56C200.956 226.395 200.898 226.221 200.803 226.219C200.709 226.217 200.622 226.386 200.615 226.55C200.611 226.627 200.626 226.687 200.65 226.732C200.301 226.501 199.607 226.456 199.093 226.632C198.831 226.716 198.66 226.837 198.556 226.973C198.513 227.027 198.446 227.061 198.375 227.058C198.186 227.051 197.991 227.121 197.819 227.254C197.59 227.445 197.498 227.746 197.574 228.002C197.728 228.486 198.258 228.676 198.656 228.495C198.759 228.45 198.841 228.374 198.91 228.296C198.951 228.249 199.014 228.229 199.076 228.242C199.227 228.272 199.402 228.258 199.62 228.19C200.043 228.044 200.525 227.741 200.766 227.427C200.759 227.477 200.766 227.538 200.793 227.61C200.851 227.765 200.966 227.903 201.037 227.876C201.109 227.849 201.117 227.665 201.066 227.51C201.061 227.498 201.057 227.49 201.053 227.48L201.115 227.476C201.391 227.452 201.605 227.226 201.594 226.981C201.582 226.728 201.318 226.55 201.004 226.579Z" fill="black"/>
<path d="M196.319 248.491L196.26 248.53C196.259 248.517 196.257 248.508 196.254 248.494C196.209 248.335 196.093 248.193 196.003 248.223C195.915 248.253 195.893 248.442 195.944 248.598C195.968 248.671 196.003 248.723 196.041 248.756C195.633 248.66 194.967 248.858 194.548 249.201C194.333 249.369 194.215 249.542 194.166 249.705C194.146 249.771 194.095 249.825 194.027 249.847C193.849 249.906 193.689 250.039 193.576 250.223C193.43 250.481 193.45 250.795 193.613 251.009C193.928 251.408 194.493 251.403 194.801 251.096C194.881 251.018 194.931 250.919 194.969 250.822C194.99 250.764 195.043 250.723 195.105 250.714C195.256 250.69 195.416 250.616 195.595 250.478C195.94 250.195 196.284 249.745 196.398 249.368C196.409 249.416 196.437 249.472 196.488 249.53C196.597 249.654 196.754 249.744 196.811 249.694C196.869 249.644 196.812 249.469 196.708 249.341C196.699 249.332 196.693 249.326 196.685 249.318L196.742 249.292C196.992 249.175 197.112 248.89 197.014 248.663C196.913 248.431 196.603 248.356 196.319 248.491Z" fill="black"/>
<path d="M205.802 226.9L205.742 226.909C205.745 226.897 205.747 226.888 205.751 226.876C205.776 226.713 205.739 226.536 205.668 226.517C205.597 226.5 205.508 226.654 205.473 226.814C205.457 226.889 205.459 226.951 205.472 226.999C205.193 226.721 204.702 226.477 204.227 226.386C203.986 226.343 203.787 226.359 203.63 226.419C203.568 226.442 203.494 226.437 203.434 226.399C203.276 226.296 203.07 226.245 202.85 226.28C202.549 226.314 202.309 226.537 202.243 226.794C202.125 227.286 202.478 227.716 202.904 227.764C203.015 227.773 203.122 227.766 203.223 227.729C203.281 227.708 203.347 227.724 203.396 227.769C203.511 227.875 203.679 227.956 203.933 228.002C204.432 228.099 205.138 227.982 205.455 227.704C205.438 227.752 205.431 227.814 205.446 227.889C205.477 228.05 205.593 228.205 205.689 228.19C205.786 228.176 205.817 227.992 205.777 227.833C205.772 227.821 205.768 227.812 205.765 227.801C205.788 227.803 205.811 227.804 205.835 227.803C206.16 227.787 206.391 227.557 206.353 227.305C206.316 227.064 206.07 226.887 205.802 226.9Z" fill="black"/>
<path d="M209.916 225.227L209.867 225.268C209.863 225.256 209.86 225.247 209.855 225.235C209.785 225.086 209.651 224.959 209.577 224.991C209.504 225.022 209.515 225.203 209.582 225.354C209.613 225.424 209.652 225.473 209.692 225.504C209.295 225.448 208.718 225.585 208.319 225.788C208.116 225.894 207.99 226.02 207.908 226.141C207.875 226.193 207.818 226.224 207.757 226.219C207.593 226.21 207.428 226.248 207.276 226.345C207.073 226.492 206.941 226.743 206.943 227.012C206.938 227.518 207.45 227.858 207.972 227.669C208.101 227.627 208.202 227.545 208.287 227.459C208.335 227.407 208.408 227.382 208.479 227.389C208.655 227.413 208.857 227.364 209.099 227.239C209.58 226.992 210.017 226.486 210.099 226.083C210.114 226.132 210.146 226.185 210.203 226.237C210.323 226.35 210.501 226.415 210.565 226.351C210.628 226.287 210.549 226.122 210.425 226.011C210.415 226.003 210.407 225.998 210.397 225.991L210.456 225.957C210.711 225.786 210.766 225.464 210.613 225.271C210.454 225.071 210.152 225.069 209.916 225.227Z" fill="black"/>
<path d="M190.232 239.395L190.252 239.458C190.239 239.457 190.229 239.456 190.216 239.455C190.05 239.459 189.879 239.532 189.881 239.62C189.878 239.65 189.906 239.628 189.967 239.634C190.027 239.634 190.106 239.666 190.188 239.669C190.265 239.676 190.328 239.67 190.375 239.655C190.113 239.901 189.871 240.404 189.797 240.842C189.759 241.063 189.776 241.236 189.833 241.375C189.857 241.432 189.849 241.496 189.807 241.541C189.698 241.663 189.63 241.815 189.628 241.993C189.625 242.231 189.759 242.472 189.981 242.635C190.381 242.955 190.973 242.738 191.118 242.221C191.157 242.096 191.156 241.972 191.134 241.857C191.122 241.789 191.143 241.719 191.189 241.669C191.306 241.548 191.396 241.367 191.44 241.109C191.526 240.601 191.394 239.943 191.09 239.613C191.139 239.628 191.202 239.63 191.277 239.607C191.356 239.578 191.438 239.544 191.486 239.468C191.535 239.397 191.552 239.285 191.533 239.236C191.501 239.165 191.316 239.174 191.163 239.24C191.152 239.246 191.144 239.251 191.133 239.257L191.126 239.195C191.067 238.924 190.818 238.741 190.569 238.787C190.32 238.833 190.169 239.105 190.232 239.395Z" fill="black"/>
<path d="M189.912 234.648L189.91 234.715C189.899 234.71 189.89 234.706 189.877 234.7C189.719 234.651 189.533 234.666 189.508 234.751C189.482 234.836 189.627 234.955 189.786 235C189.861 235.021 189.924 235.022 189.974 235.01C189.674 235.28 189.448 235.896 189.466 236.406C189.465 236.665 189.541 236.852 189.633 236.987C189.672 237.041 189.683 237.111 189.658 237.174C189.588 237.342 189.588 237.537 189.662 237.731C189.761 237.996 190.008 238.18 190.285 238.199C190.792 238.231 191.172 237.812 191.125 237.373C191.11 237.262 191.074 237.159 191.02 237.069C190.987 237.016 190.987 236.95 191.019 236.895C191.101 236.763 191.129 236.591 191.131 236.363C191.115 235.915 190.948 235.368 190.687 235.065C190.734 235.083 190.796 235.092 190.874 235.083C191.04 235.065 191.205 234.986 191.197 234.91C191.189 234.834 191.01 234.784 190.845 234.798C190.832 234.8 190.823 234.802 190.811 234.804L190.823 234.744C190.846 234.471 190.682 234.22 190.433 234.181C190.182 234.142 189.937 234.349 189.912 234.648Z" fill="black"/>
<path d="M191.421 230.098L191.392 230.159C191.384 230.15 191.377 230.143 191.368 230.132C191.245 230.022 191.07 229.96 191.011 230.028C190.952 230.097 191.035 230.265 191.161 230.371C191.22 230.421 191.277 230.447 191.327 230.457C191.124 230.516 190.918 230.669 190.731 230.866C190.536 231.06 190.377 231.305 190.287 231.549C190.189 231.793 190.166 231.992 190.21 232.155C190.226 232.221 190.21 232.292 190.164 232.342C190.045 232.477 189.947 232.656 189.954 232.87C189.956 233.158 190.119 233.418 190.367 233.53C190.831 233.733 191.342 233.476 191.449 233.059C191.482 232.955 191.486 232.848 191.467 232.745C191.455 232.684 191.48 232.623 191.529 232.585C191.644 232.491 191.755 232.354 191.838 232.146C191.915 231.938 191.966 231.696 191.995 231.46C192.018 231.221 192 230.981 191.954 230.797C191.989 230.832 192.042 230.865 192.116 230.889C192.275 230.94 192.457 230.937 192.481 230.865C192.504 230.792 192.362 230.674 192.206 230.618C192.194 230.615 192.185 230.613 192.173 230.61C192.185 230.594 192.199 230.578 192.209 230.56C192.339 230.32 192.309 230.033 192.096 229.891C191.89 229.753 191.567 229.833 191.421 230.098Z" fill="black"/>
<path d="M214.601 226.377L214.594 226.444C214.583 226.437 214.574 226.433 214.562 226.426C214.409 226.361 214.224 226.358 214.19 226.441C214.157 226.525 214.29 226.658 214.445 226.718C214.517 226.746 214.58 226.753 214.63 226.746C214.457 226.867 214.313 227.077 214.2 227.323C214.081 227.569 214.011 227.852 214.005 228.111C213.993 228.373 214.036 228.569 214.131 228.71C214.168 228.767 214.177 228.839 214.149 228.901C214.081 229.066 214.047 229.268 214.125 229.467C214.221 229.74 214.46 229.934 214.731 229.96C215.238 230.004 215.636 229.597 215.6 229.169C215.597 229.059 215.566 228.957 215.514 228.866C215.484 228.812 215.487 228.747 215.52 228.695C215.598 228.569 215.658 228.404 215.669 228.181C215.673 227.959 215.642 227.714 215.592 227.482C215.535 227.249 215.44 227.027 215.335 226.868C215.38 226.89 215.441 226.904 215.519 226.903C215.685 226.9 215.857 226.839 215.855 226.763C215.854 226.688 215.681 226.621 215.515 226.618C215.502 226.619 215.493 226.62 215.481 226.621C215.487 226.601 215.494 226.583 215.498 226.562C215.542 226.294 215.42 226.031 215.172 225.965C214.931 225.9 214.652 226.079 214.601 226.377Z" fill="black"/>
<path d="M194.714 226.591L194.663 226.635C194.659 226.623 194.656 226.614 194.652 226.602C194.582 226.453 194.445 226.328 194.364 226.366C194.283 226.405 194.292 226.589 194.366 226.736C194.4 226.804 194.442 226.851 194.484 226.88C194.082 226.846 193.467 227.091 193.097 227.449C192.902 227.621 192.809 227.807 192.772 227.967C192.758 228.033 192.713 228.089 192.649 228.114C192.48 228.182 192.318 228.306 192.231 228.502C192.106 228.764 192.14 229.068 192.316 229.273C192.646 229.651 193.224 229.638 193.496 229.303C193.573 229.223 193.624 229.129 193.652 229.027C193.669 228.968 193.717 228.924 193.779 228.91C193.93 228.879 194.074 228.787 194.249 228.635C194.572 228.32 194.874 227.834 194.924 227.436C194.941 227.483 194.977 227.533 195.036 227.584C195.161 227.693 195.332 227.76 195.384 227.703C195.436 227.646 195.353 227.482 195.231 227.371C195.221 227.363 195.213 227.358 195.204 227.351L195.257 227.319C195.48 227.154 195.552 226.859 195.414 226.654C195.272 226.443 194.956 226.412 194.714 226.591Z" fill="black"/>
<path d="M199.074 224.517L199.01 224.541C199.011 224.528 199.011 224.518 199.012 224.505C199.002 224.34 198.921 224.176 198.832 224.184C198.742 224.193 198.683 224.37 198.697 224.534C198.704 224.61 198.725 224.668 198.754 224.71C198.388 224.521 197.723 224.539 197.246 224.746C197.001 224.845 196.844 224.97 196.755 225.112C196.718 225.169 196.656 225.206 196.587 225.207C196.405 225.21 196.212 225.271 196.059 225.419C195.848 225.615 195.767 225.909 195.853 226.164C196.017 226.636 196.561 226.834 196.944 226.619C197.045 226.57 197.128 226.499 197.191 226.414C197.228 226.364 197.29 226.339 197.353 226.348C197.503 226.366 197.68 226.344 197.893 226.259C198.306 226.079 198.761 225.726 198.958 225.386C198.957 225.436 198.972 225.496 199.007 225.564C199.084 225.71 199.217 225.832 199.285 225.796C199.354 225.76 199.337 225.577 199.265 225.43C199.258 225.419 199.254 225.412 199.247 225.402L199.308 225.39C199.577 225.319 199.756 225.081 199.703 224.834C199.652 224.592 199.367 224.439 199.074 224.517Z" fill="black"/>
<path d="M203.918 224.242L203.85 224.238C203.855 224.227 203.86 224.219 203.866 224.206C203.923 224.052 203.916 223.869 203.83 223.841C203.743 223.813 203.616 223.951 203.564 224.106C203.539 224.179 203.536 224.241 203.545 224.291C203.284 223.977 202.66 223.739 202.135 223.743C201.87 223.74 201.675 223.809 201.536 223.898C201.48 223.935 201.407 223.944 201.343 223.919C201.173 223.853 200.972 223.853 200.771 223.922C200.497 224.013 200.313 224.276 200.296 224.541C200.271 225.048 200.695 225.402 201.133 225.367C201.244 225.357 201.346 225.315 201.437 225.261C201.491 225.23 201.557 225.232 201.611 225.265C201.743 225.347 201.914 225.381 202.142 225.384C202.59 225.382 203.144 225.228 203.46 224.991C203.44 225.036 203.429 225.097 203.434 225.174C203.446 225.338 203.518 225.503 203.594 225.497C203.671 225.491 203.73 225.318 203.723 225.154C203.721 225.142 203.72 225.132 203.718 225.121C203.738 225.126 203.758 225.132 203.779 225.135C204.052 225.168 204.318 225.021 204.367 224.774C204.416 224.532 204.221 224.28 203.918 224.242Z" fill="black"/>
<path d="M208.231 223.862L208.173 223.89C208.172 223.878 208.171 223.869 208.17 223.855C208.142 223.694 208.045 223.537 207.963 223.552C207.88 223.566 207.843 223.745 207.872 223.906C207.885 223.982 207.911 224.038 207.943 224.078C207.572 223.921 206.952 223.952 206.529 224.088C206.425 224.121 206.338 224.16 206.286 224.196C206.247 224.22 206.261 224.227 206.254 224.248C206.251 224.268 206.205 224.289 206.186 224.312C206.144 224.352 206.087 224.358 206.04 224.332C205.912 224.258 205.773 224.227 205.603 224.259C205.374 224.3 205.132 224.473 205.022 224.72C204.818 225.176 205.087 225.697 205.667 225.744C205.81 225.755 205.949 225.729 206.068 225.678C206.139 225.646 206.221 225.649 206.29 225.678C206.338 225.694 206.365 225.715 206.442 225.72C206.513 225.726 206.614 225.724 206.664 225.721C206.794 225.713 206.913 225.69 207.043 225.649C207.545 225.487 208.024 225.097 208.199 224.736C208.202 224.786 208.221 224.845 208.263 224.91C208.352 225.049 208.502 225.156 208.573 225.112C208.645 225.068 208.61 224.888 208.521 224.749C208.513 224.739 208.507 224.732 208.499 224.723L208.562 224.705C208.834 224.601 208.978 224.33 208.888 224.097C208.797 223.863 208.502 223.759 208.231 223.862Z" fill="black"/>
<path d="M187.299 236.015L187.314 236.086C187.301 236.084 187.292 236.082 187.278 236.079C187.111 236.061 186.934 236.118 186.93 236.215C186.927 236.311 187.096 236.406 187.262 236.417C187.34 236.423 187.402 236.41 187.447 236.386C187.207 236.741 187.176 237.47 187.279 237.932C187.332 238.182 187.419 238.356 187.53 238.478C187.575 238.528 187.595 238.597 187.576 238.662C187.528 238.833 187.535 239.024 187.613 239.21C187.72 239.463 187.955 239.647 188.227 239.691C188.733 239.787 189.149 239.314 189.06 238.781C189.039 238.648 188.99 238.529 188.921 238.428C188.881 238.369 188.872 238.293 188.895 238.227C188.953 238.065 188.964 237.857 188.908 237.592C188.786 237.043 188.47 236.546 188.155 236.284C188.205 236.292 188.268 236.286 188.341 236.26C188.499 236.204 188.641 236.086 188.615 236.009C188.588 235.932 188.402 235.919 188.244 235.969C188.232 235.975 188.224 235.979 188.213 235.983L188.21 235.918C188.169 235.627 187.969 235.397 187.711 235.408C187.464 235.417 187.254 235.692 187.299 236.015Z" fill="black"/>
<path d="M188.063 230.897L188.042 230.966C188.032 230.958 188.025 230.951 188.015 230.943C187.876 230.848 187.694 230.815 187.644 230.898C187.594 230.98 187.698 231.142 187.838 231.232C187.904 231.273 187.964 231.291 188.016 231.292C187.632 231.489 187.238 232.082 187.118 232.633C187.046 232.908 187.076 233.13 187.133 233.294C187.157 233.362 187.151 233.44 187.111 233.501C187.001 233.666 186.967 233.88 186.994 234.106C187.028 234.414 187.258 234.661 187.52 234.73C188.021 234.852 188.449 234.48 188.503 234.024C188.515 233.906 188.493 233.792 188.464 233.687C188.444 233.625 188.461 233.557 188.505 233.508C188.616 233.39 188.681 233.22 188.744 232.987C188.844 232.525 188.833 231.917 188.686 231.538C188.726 231.569 188.783 231.594 188.86 231.606C189.026 231.631 189.207 231.594 189.222 231.513C189.236 231.432 189.079 231.332 188.915 231.302C188.902 231.301 188.893 231.301 188.881 231.3L188.91 231.24C189.024 230.967 188.949 230.666 188.718 230.557C188.493 230.45 188.187 230.597 188.063 230.897Z" fill="black"/>
<path d="M190.945 226.614L190.899 226.669C190.893 226.658 190.888 226.65 190.882 226.638C190.788 226.503 190.629 226.405 190.552 226.461C190.473 226.515 190.517 226.706 190.614 226.84C190.66 226.902 190.71 226.941 190.756 226.96C190.332 227.007 189.75 227.39 189.415 227.83C189.251 228.055 189.174 228.255 189.158 228.427C189.151 228.496 189.111 228.563 189.049 228.601C188.889 228.705 188.756 228.873 188.682 229.085C188.577 229.371 188.668 229.691 188.868 229.871C189.256 230.208 189.811 230.067 190.073 229.671C190.138 229.569 190.173 229.457 190.187 229.344C190.198 229.279 190.243 229.223 190.306 229.197C190.458 229.133 190.605 229.011 190.751 228.809C191.048 228.42 191.286 227.843 191.288 227.432C191.314 227.475 191.358 227.519 191.425 227.558C191.57 227.641 191.75 227.665 191.798 227.596C191.844 227.525 191.735 227.378 191.593 227.292C191.581 227.286 191.572 227.283 191.561 227.277L191.613 227.233C191.824 227.017 191.851 226.697 191.673 226.519C191.495 226.342 191.169 226.384 190.945 226.614Z" fill="black"/>
<path d="M187.668 241.364L187.679 241.435C187.667 241.432 187.657 241.43 187.644 241.426C187.479 241.406 187.299 241.459 187.29 241.552C187.279 241.645 187.453 241.74 187.619 241.757C187.697 241.766 187.759 241.754 187.805 241.732C187.557 242.077 187.461 242.76 187.572 243.298C187.633 243.57 187.735 243.759 187.853 243.885C187.902 243.937 187.926 244.01 187.913 244.081C187.886 244.268 187.925 244.478 188.036 244.673C188.183 244.94 188.486 245.087 188.756 245.058C189.268 244.996 189.531 244.495 189.405 244.038C189.37 243.923 189.309 243.822 189.233 243.737C189.191 243.685 189.179 243.615 189.2 243.552C189.253 243.397 189.258 243.208 189.203 242.966C189.105 242.488 188.826 241.93 188.516 241.655C188.566 241.665 188.629 241.662 188.703 241.638C188.861 241.587 189 241.471 188.979 241.389C188.957 241.307 188.772 241.29 188.612 241.338C188.6 241.343 188.591 241.347 188.58 241.351L188.581 241.284C188.557 240.984 188.333 240.752 188.08 240.765C187.828 240.778 187.642 241.046 187.668 241.364Z" fill="black"/>
<path d="M194.985 223.387L194.923 223.425C194.921 223.413 194.919 223.404 194.917 223.391C194.87 223.233 194.749 223.093 194.655 223.123C194.563 223.156 194.544 223.35 194.596 223.507C194.62 223.58 194.656 223.631 194.696 223.664C194.275 223.586 193.587 223.792 193.151 224.133C192.925 224.299 192.797 224.469 192.737 224.632C192.712 224.698 192.656 224.752 192.587 224.771C192.4 224.822 192.226 224.941 192.1 225.123C191.924 225.368 191.902 225.683 192.04 225.92C192.295 226.357 192.887 226.402 193.255 226.08C193.347 225.996 193.42 225.904 193.468 225.8C193.496 225.74 193.555 225.697 193.622 225.688C193.784 225.663 193.961 225.585 194.162 225.437C194.55 225.133 194.938 224.662 195.06 224.27C195.072 224.319 195.101 224.374 195.153 224.431C195.265 224.553 195.429 224.632 195.492 224.579C195.555 224.527 195.497 224.354 195.389 224.228C195.379 224.219 195.372 224.213 195.364 224.205L195.425 224.179C195.688 224.04 195.816 223.747 195.711 223.526C195.601 223.295 195.276 223.233 194.985 223.387Z" fill="black"/>
<path d="M200.034 222.035L199.962 222.046C199.965 222.034 199.968 222.024 199.971 222.011C199.996 221.848 199.947 221.671 199.853 221.662C199.758 221.653 199.657 221.815 199.635 221.978C199.625 222.054 199.635 222.115 199.656 222.162C199.314 221.908 198.617 221.799 198.063 221.907C197.782 221.957 197.588 222.067 197.458 222.182C197.405 222.23 197.33 222.254 197.257 222.242C197.065 222.219 196.849 222.259 196.649 222.371C196.379 222.533 196.233 222.826 196.271 223.092C196.35 223.595 196.866 223.842 197.315 223.712C197.43 223.677 197.53 223.618 197.614 223.541C197.665 223.499 197.736 223.488 197.8 223.509C197.955 223.563 198.141 223.56 198.386 223.518C198.862 223.424 199.432 223.161 199.718 222.864C199.706 222.913 199.708 222.975 199.73 223.049C199.779 223.207 199.894 223.352 199.976 223.33C200.059 223.308 200.081 223.125 200.037 222.967C200.032 222.955 200.028 222.947 200.024 222.936L200.092 222.936C200.395 222.912 200.638 222.713 200.631 222.46C200.624 222.214 200.357 222.009 200.034 222.035Z" fill="black"/>
<path d="M196.191 220.226L196.124 220.253C196.124 220.241 196.124 220.231 196.125 220.218C196.112 220.053 196.022 219.892 195.928 219.905C195.834 219.917 195.773 220.098 195.79 220.261C195.798 220.337 195.822 220.395 195.853 220.435C195.461 220.266 194.757 220.317 194.243 220.548C193.982 220.659 193.818 220.811 193.718 220.952C193.678 221.011 193.611 221.051 193.537 221.056C193.345 221.078 193.143 221.165 192.976 221.32C192.751 221.539 192.677 221.857 192.775 222.107C192.97 222.578 193.529 222.702 193.936 222.473C194.04 222.414 194.123 222.333 194.187 222.24C194.227 222.188 194.293 222.16 194.36 222.167C194.524 222.184 194.704 222.139 194.932 222.043C195.375 221.844 195.867 221.459 196.077 221.105C196.077 221.155 196.093 221.215 196.132 221.282C196.216 221.425 196.362 221.54 196.437 221.5C196.512 221.46 196.492 221.277 196.412 221.133C196.404 221.123 196.398 221.115 196.392 221.106L196.458 221.091C196.747 220.998 196.938 220.749 196.871 220.505C196.807 220.267 196.5 220.128 196.191 220.226Z" fill="black"/>
<path d="M205.157 222.221L205.088 222.223C205.092 222.211 205.096 222.202 205.101 222.19C205.145 222.031 205.12 221.849 205.034 221.828C204.949 221.807 204.833 221.954 204.787 222.112C204.766 222.185 204.765 222.248 204.779 222.297C204.485 222.001 203.871 221.762 203.345 221.721C203.079 221.701 202.875 221.737 202.721 221.811C202.659 221.842 202.583 221.843 202.52 221.81C202.353 221.723 202.148 221.685 201.913 221.728C201.615 221.793 201.38 222.008 201.315 222.271C201.19 222.764 201.606 223.193 202.076 223.209C202.199 223.215 202.318 223.194 202.428 223.153C202.492 223.128 202.566 223.138 202.623 223.178C202.761 223.273 202.952 223.338 203.217 223.358C203.739 223.398 204.395 223.256 204.731 223C204.711 223.047 204.703 223.108 204.714 223.184C204.738 223.348 204.838 223.508 204.93 223.497C205.022 223.487 205.069 223.309 205.043 223.146C205.04 223.134 205.037 223.125 205.034 223.113L205.104 223.123C205.424 223.141 205.693 222.947 205.699 222.698C205.705 222.448 205.465 222.239 205.157 222.221Z" fill="black"/>
<path d="M174.938 242.719C174.911 242.813 174.823 242.874 174.725 242.886C173.353 243.045 172.552 243.225 171.94 243.548C171.341 243.837 170.989 244.213 170.994 244.329C171 244.445 171.399 244.803 172.188 244.863C172.385 244.885 172.599 244.855 172.835 244.82C173.071 244.789 173.32 244.715 173.573 244.591C173.83 244.481 174.092 244.329 174.338 244.112C174.592 243.916 174.824 243.652 175.027 243.345C175.085 243.26 175.188 243.212 175.291 243.214C175.66 243.209 176.058 243.159 176.211 243.042C176.358 242.912 176.253 242.753 175.715 242.504C175.513 241.936 175.345 241.836 175.24 241.946C175.123 242.048 175.032 242.365 174.938 242.719Z" fill="black"/>
<path d="M177.942 238.165C177.985 238.254 177.973 238.36 177.912 238.435C176.99 239.474 176.577 240.19 176.342 240.818C176.118 241.428 176.131 241.949 176.214 242.029C176.298 242.112 176.833 242.093 177.448 241.594C178.057 241.119 178.67 240.028 178.448 238.576C178.428 238.475 178.462 238.369 178.539 238.303C179.128 237.815 179.547 237.173 178.388 237.498C177.339 236.908 177.646 237.525 177.942 238.165Z" fill="black"/>
<path d="M177.67 232.642C177.751 232.695 177.793 232.793 177.78 232.89C177.581 234.247 177.623 235.102 177.833 235.765C178.01 236.409 178.357 236.808 178.476 236.82C178.592 236.831 178.987 236.49 179.19 235.749C179.369 235.033 179.297 233.832 178.308 232.723C178.24 232.646 178.215 232.538 178.248 232.44C178.45 231.723 178.477 230.929 177.671 231.846C176.492 231.92 177.046 232.275 177.67 232.642Z" fill="black"/>
<path d="M174.104 228.525C174.2 228.507 174.306 228.536 174.358 228.623C175.136 229.755 175.662 230.363 176.23 230.752C176.484 230.957 176.744 231.086 176.954 231.161C177.149 231.245 177.302 231.268 177.355 231.238C177.405 231.21 177.466 231.071 177.487 230.84C177.494 230.619 177.449 230.309 177.309 229.941C177.137 229.597 176.878 229.183 176.424 228.846C175.989 228.497 175.364 228.229 174.631 228.147C174.531 228.129 174.431 228.081 174.385 227.988C174.04 227.303 173.473 226.759 173.552 227.946C172.747 228.833 173.408 228.658 174.104 228.525Z" fill="black"/>
<path d="M168.611 227.895C168.673 227.82 168.774 227.778 168.87 227.805C170.207 228.173 171.06 228.236 171.739 228.158C172.402 228.068 172.857 227.849 172.897 227.721C172.929 227.627 172.673 227.137 171.947 226.837C171.248 226.52 170.006 226.44 168.763 227.268C168.677 227.325 168.568 227.347 168.473 227.307C167.762 227.001 166.972 226.948 167.809 227.805C167.775 228.993 168.165 228.438 168.611 227.895Z" fill="black"/>
<path d="M164.138 231.01C164.13 230.914 164.182 230.821 164.267 230.772C165.47 230.099 166.129 229.625 166.577 229.12C167.006 228.622 167.218 228.175 167.162 228.049C167.138 227.997 167.006 227.928 166.778 227.895C166.55 227.859 166.223 227.857 165.852 227.99C165.115 228.209 164.09 228.998 163.81 230.462C163.791 230.563 163.719 230.649 163.621 230.685C162.915 230.965 162.277 231.447 163.502 231.499C164.296 232.368 164.223 231.715 164.138 231.01Z" fill="black"/>
<path d="M162.812 236.353C162.747 236.279 162.733 236.173 162.771 236.083C163.348 234.821 163.533 233.985 163.513 233.302C163.511 232.64 163.322 232.166 163.213 232.12C163.105 232.074 162.603 232.275 162.206 232.945C161.829 233.596 161.582 234.77 162.216 236.095C162.262 236.187 162.257 236.297 162.199 236.381C161.979 236.688 161.81 237.03 161.834 237.215C161.852 237.403 162.043 237.411 162.565 237.115C163.147 237.275 163.327 237.199 163.301 237.044C163.267 236.887 163.039 236.627 162.812 236.353Z" fill="black"/>
<path d="M164.716 241.496C164.619 241.477 164.542 241.402 164.519 241.31C164.232 239.979 163.953 239.197 163.575 238.624C163.2 238.071 162.798 237.766 162.664 237.791C162.565 237.807 162.235 238.249 162.279 239.019C162.296 239.763 162.748 240.936 164.081 241.646C164.176 241.692 164.239 241.783 164.246 241.885C164.262 242.265 164.358 242.639 164.496 242.773C164.634 242.913 164.784 242.798 164.999 242.24C165.549 242.003 165.637 241.828 165.523 241.728C165.403 241.628 165.062 241.577 164.716 241.496Z" fill="black"/>
<path d="M169.572 244.003C169.49 244.052 169.382 244.046 169.3 243.992C168.144 243.231 167.412 242.872 166.747 242.72C166.104 242.566 165.6 242.595 165.518 242.693C165.449 242.773 165.491 243.323 166.061 243.874C166.605 244.411 167.776 244.941 169.223 244.534C169.323 244.506 169.432 244.532 169.509 244.604C170.078 245.087 170.79 245.461 170.301 244.346C170.745 243.268 170.178 243.6 169.572 244.003Z" fill="black"/>
<path d="M174.939 248.015C174.889 248.096 174.795 248.139 174.702 248.127C174.037 248.044 173.485 247.978 173.036 248.048C172.574 248.062 172.2 248.162 171.895 248.299C171.282 248.534 170.939 248.899 170.942 249.024C170.945 249.132 171.317 249.498 172.034 249.63C172.389 249.676 172.83 249.666 173.326 249.548C173.81 249.374 174.364 249.139 174.871 248.648C174.943 248.579 175.045 248.555 175.139 248.587C175.481 248.701 175.849 248.791 176.014 248.731C176.179 248.663 176.136 248.477 175.721 248.064C175.708 247.466 175.591 247.314 175.454 247.385C175.312 247.448 175.124 247.716 174.939 248.015Z" fill="black"/>
<path d="M179.504 245.224C179.493 245.316 179.425 245.393 179.333 245.419C179.005 245.515 178.728 245.624 178.479 245.735C178.217 245.828 177.993 245.933 177.798 246.047C177.42 246.291 177.1 246.494 176.883 246.743C176.665 246.991 176.512 247.224 176.414 247.402C176.321 247.588 176.292 247.735 176.318 247.789C176.343 247.841 176.475 247.912 176.694 247.954C176.916 248.002 177.218 248.004 177.564 247.899C177.91 247.795 178.336 247.641 178.709 247.281C178.901 247.11 179.092 246.908 179.274 246.675C179.44 246.424 179.589 246.132 179.719 245.813C179.755 245.723 179.839 245.66 179.94 245.65C180.658 245.549 181.35 245.277 180.207 244.909C179.64 243.875 179.557 244.529 179.504 245.224Z" fill="black"/>
<path d="M182.323 240.708C182.358 240.798 182.335 240.898 182.269 240.964C181.757 241.414 181.425 241.827 181.164 242.197C180.889 242.558 180.769 242.926 180.66 243.227C180.456 243.833 180.543 244.344 180.639 244.418C180.728 244.49 181.228 244.426 181.796 243.959C182.083 243.73 182.321 243.362 182.538 242.904C182.738 242.439 182.832 241.835 182.789 241.154C182.777 241.056 182.82 240.961 182.902 240.907C183.506 240.514 184.051 239.998 182.838 240.131C181.902 239.434 182.069 240.055 182.323 240.708Z" fill="black"/>
<path d="M183.114 235.425C183.179 235.497 183.193 235.599 183.155 235.684C182.859 236.289 182.668 236.799 182.602 237.249C182.492 237.693 182.49 238.077 182.542 238.405C182.613 239.049 182.877 239.472 183 239.502C183.106 239.529 183.565 239.273 183.881 238.625C184.021 238.301 184.128 237.881 184.146 237.381C184.117 236.88 184.015 236.296 183.71 235.677C183.664 235.59 183.669 235.487 183.727 235.408C184.151 234.832 184.478 234.169 183.39 234.704C182.263 234.367 182.643 234.901 183.114 235.425Z" fill="black"/>
<path d="M181.999 230.206C182.085 230.25 182.136 230.339 182.131 230.431C182.08 231.097 182.083 231.635 182.17 232.078C182.223 232.53 182.356 232.889 182.521 233.179C182.793 233.766 183.205 234.072 183.326 234.059C183.44 234.048 183.764 233.655 183.855 232.939C183.872 232.587 183.825 232.155 183.665 231.678C183.47 231.212 183.163 230.694 182.646 230.226C182.571 230.161 182.537 230.062 182.562 229.968C182.653 229.624 182.71 229.26 182.644 229.098C182.568 228.939 182.385 228.994 181.989 229.435C181.392 229.487 181.246 229.614 181.322 229.746C181.39 229.884 181.682 230.046 181.999 230.206Z" fill="black"/>
<path d="M178.85 225.913C178.945 225.917 179.027 225.979 179.061 226.067C179.561 227.289 180.045 227.975 180.571 228.385C181.096 228.78 181.55 228.934 181.67 228.867C181.757 228.821 181.948 228.306 181.694 227.633C181.557 227.307 181.382 226.89 180.99 226.551C180.802 226.375 180.583 226.202 180.333 226.041C180.08 225.883 179.763 225.768 179.433 225.661C179.339 225.632 179.269 225.554 179.251 225.455C179.109 224.746 178.775 224.097 178.485 225.241C177.474 225.875 178.152 225.898 178.85 225.913Z" fill="black"/>
<path d="M174.087 223.459C174.175 223.418 174.278 223.432 174.349 223.492C175.332 224.418 176.103 224.765 176.751 224.915C177.379 225.071 177.896 224.941 177.959 224.852C178.031 224.749 177.926 224.271 177.413 223.747C176.907 223.24 175.893 222.771 174.503 222.966C174.405 222.986 174.305 222.952 174.245 222.875C173.8 222.315 173.235 221.822 173.463 223.001C172.828 223.977 173.444 223.762 174.087 223.459Z" fill="black"/>
<path d="M168.689 223.107C168.755 223.037 168.856 223.012 168.945 223.042C169.583 223.29 170.11 223.413 170.568 223.459C171.025 223.529 171.414 223.497 171.741 223.418C172.385 223.312 172.794 223.005 172.815 222.885C172.835 222.775 172.539 222.359 171.859 222.086C171.52 221.976 171.087 221.906 170.579 221.932C170.072 221.982 169.487 222.154 168.888 222.498C168.804 222.552 168.698 222.556 168.614 222.507C167.988 222.148 167.279 221.894 167.935 222.907C167.714 224.044 168.207 223.621 168.689 223.107Z" fill="black"/>
<path d="M163.604 224.846C163.635 224.757 163.718 224.696 163.813 224.688C164.472 224.61 165.028 224.572 165.45 224.412C165.887 224.289 166.237 224.134 166.504 223.936C167.051 223.582 167.32 223.165 167.291 223.041C167.269 222.938 166.832 222.642 166.099 222.66C165.741 222.689 165.301 222.771 164.845 223.007C164.406 223.277 163.907 223.615 163.529 224.218C163.474 224.3 163.378 224.345 163.279 224.334C162.531 224.233 161.825 224.383 162.839 224.982C163.164 226.134 163.365 225.474 163.604 224.846Z" fill="black"/>
<path d="M159.828 228.607C159.813 228.513 159.851 228.416 159.939 228.372C160.546 228.046 160.939 227.704 161.292 227.414C161.46 227.261 161.596 227.106 161.709 226.951C161.827 226.803 161.936 226.666 162.016 226.525C162.181 226.248 162.265 225.975 162.307 225.768C162.357 225.569 162.352 225.421 162.314 225.374C162.278 225.329 162.131 225.289 161.906 225.296C161.688 225.311 161.403 225.39 161.079 225.558C160.919 225.645 160.742 225.747 160.578 225.891C160.421 226.04 160.263 226.217 160.113 226.424C159.793 226.822 159.589 227.407 159.472 228.077C159.452 228.169 159.396 228.257 159.305 228.292C158.638 228.558 158.001 228.959 159.212 229.071C159.988 229.944 159.946 229.302 159.828 228.607Z" fill="black"/>
<path d="M158.043 233.629C157.992 233.548 157.996 233.445 158.049 233.368C158.438 232.821 158.723 232.358 158.871 231.931C159.062 231.518 159.134 231.143 159.144 230.812C159.215 230.176 159.026 229.702 158.915 229.65C158.813 229.601 158.329 229.768 157.874 230.34C157.676 230.634 157.49 231.03 157.379 231.521C157.312 232.022 157.3 232.618 157.501 233.281C157.531 233.374 157.507 233.476 157.436 233.543C156.917 234.042 156.478 234.642 157.645 234.293C158.696 234.809 158.416 234.224 158.043 233.629Z" fill="black"/>
<path d="M158.195 238.976C158.119 238.916 158.086 238.819 158.109 238.729C158.307 238.082 158.386 237.552 158.392 237.097C158.422 236.639 158.356 236.259 158.247 235.944C158.073 235.317 157.728 234.948 157.603 234.94C157.492 234.933 157.096 235.265 156.891 235.953C156.81 236.295 156.777 236.725 156.848 237.22C156.943 237.711 157.166 238.27 157.563 238.83C157.625 238.908 157.638 239.011 157.595 239.098C157.283 239.741 157.083 240.456 158.055 239.732C159.223 239.86 158.755 239.408 158.195 238.976Z" fill="black"/>
<path d="M160.327 243.856C160.234 243.831 160.167 243.754 160.153 243.662C160.09 243.327 160.036 243.036 159.987 242.774C159.927 242.507 159.851 242.275 159.761 242.069C159.612 241.643 159.422 241.313 159.203 241.063C158.809 240.549 158.361 240.318 158.239 240.355C158.134 240.386 157.875 240.836 157.942 241.555C157.996 241.905 158.117 242.327 158.381 242.761C158.527 242.971 158.705 243.185 158.917 243.394C159.12 243.608 159.381 243.804 159.695 243.971C159.782 244.02 159.834 244.111 159.829 244.209C159.779 244.948 159.967 245.639 160.512 244.602C161.655 244.212 160.983 244.048 160.327 243.856Z" fill="black"/>
<path d="M164.373 247.333C164.276 247.358 164.181 247.318 164.13 247.236C163.756 246.666 163.39 246.295 163.072 245.968C162.907 245.814 162.74 245.692 162.577 245.591C162.426 245.475 162.275 245.384 162.128 245.313C161.53 245.041 161.035 245.012 160.944 245.092C160.859 245.167 160.807 245.692 161.208 246.296C161.305 246.449 161.425 246.609 161.573 246.77C161.735 246.915 161.926 247.058 162.145 247.191C162.571 247.478 163.172 247.65 163.862 247.715C163.957 247.726 164.045 247.785 164.089 247.868C164.404 248.504 164.857 249.102 164.885 247.905C165.716 247.08 165.07 247.167 164.373 247.333Z" fill="black"/>
<path d="M169.58 248.705C169.502 248.762 169.398 248.767 169.316 248.722C168.732 248.382 168.241 248.144 167.8 248.029C167.368 247.875 166.985 247.833 166.65 247.849C166.004 247.821 165.535 248.046 165.491 248.158C165.448 248.263 165.653 248.722 166.266 249.132C166.579 249.305 166.994 249.457 167.501 249.528C168.013 249.558 168.62 249.518 169.273 249.267C169.365 249.23 169.47 249.245 169.544 249.308C170.092 249.776 170.74 250.156 170.284 249.04C170.715 247.964 170.149 248.288 169.58 248.705Z" fill="black"/>
<path d="M173.415 246.14C173.359 246.219 173.26 246.258 173.166 246.242C172.485 246.09 171.95 246.049 171.481 246.021C171.018 246.027 170.629 246.064 170.302 246.149C169.654 246.342 169.25 246.609 169.235 246.746C169.229 246.802 169.305 246.931 169.475 247.079C169.644 247.232 169.907 247.396 170.27 247.486C170.632 247.589 171.091 247.65 171.62 247.541C172.147 247.469 172.738 247.203 173.304 246.772C173.382 246.706 173.489 246.685 173.584 246.721C174.291 247 175.05 247.049 174.209 246.208C174.211 245.019 173.829 245.583 173.415 246.14Z" fill="black"/>
<path d="M178.028 243.236C178.024 243.332 177.956 243.412 177.866 243.447C176.599 243.957 175.883 244.398 175.428 244.899C174.969 245.365 174.792 245.853 174.836 245.954C174.887 246.067 175.374 246.245 176.117 246.051C176.485 245.955 176.892 245.727 177.298 245.381C177.488 245.191 177.676 244.97 177.853 244.717C178.027 244.464 178.156 244.144 178.276 243.815C178.308 243.72 178.393 243.651 178.493 243.63C179.202 243.454 179.912 243.126 178.719 242.854C178.087 241.872 178.027 242.517 178.028 243.236Z" fill="black"/>
<path d="M180.449 238.339C180.493 238.427 180.485 238.532 180.423 238.606C179.953 239.127 179.677 239.59 179.44 239.994C179.238 240.411 179.097 240.769 179.033 241.097C178.918 241.753 178.989 242.23 179.104 242.305C179.186 242.36 179.742 242.276 180.236 241.716C180.752 241.184 181.207 240.137 180.962 238.738C180.942 238.64 180.971 238.537 181.047 238.473C181.602 237.998 182.085 237.406 180.895 237.686C179.885 237.084 180.122 237.701 180.449 238.339Z" fill="black"/>
<path d="M180.516 232.871C180.592 232.931 180.637 233.028 180.604 233.123C180.505 233.457 180.439 233.755 180.401 234.028C180.357 234.301 180.308 234.553 180.303 234.784C180.302 235.243 180.307 235.634 180.401 235.959C180.57 236.607 180.856 237.008 180.99 237.024C181.091 237.037 181.542 236.724 181.757 236.018C181.978 235.331 181.992 234.187 181.148 233.016C181.097 232.933 181.072 232.829 181.114 232.738C181.407 232.068 181.565 231.315 180.629 232.093C179.453 232.003 179.944 232.438 180.516 232.871Z" fill="black"/>
<path d="M177.901 228.123C177.996 228.134 178.076 228.203 178.106 228.293C178.503 229.587 178.937 230.299 179.383 230.803C179.849 231.278 180.284 231.506 180.408 231.462C180.506 231.427 180.768 230.942 180.6 230.212C180.479 229.486 179.858 228.469 178.509 227.917C178.414 227.88 178.346 227.795 178.333 227.695C178.232 226.956 177.906 226.274 177.569 227.413C176.517 227.987 177.201 228.045 177.901 228.123Z" fill="black"/>
<path d="M173.085 225.52C173.175 225.475 173.281 225.487 173.353 225.557C174.4 226.441 175.149 226.847 175.818 226.994C176.455 227.165 176.966 227.092 177.043 226.991C177.109 226.906 177.036 226.387 176.507 225.842C175.98 225.332 174.936 224.784 173.496 225.028C173.398 225.038 173.294 225.006 173.229 224.933C172.751 224.384 172.146 223.904 172.427 225.078C171.814 226.072 172.435 225.84 173.085 225.52Z" fill="black"/>
<path d="M167.577 225.581C167.633 225.501 167.731 225.462 167.826 225.477C168.507 225.629 169.041 225.673 169.509 225.7C169.971 225.691 170.36 225.665 170.686 225.574C171.334 225.393 171.74 225.117 171.756 224.983C171.77 224.886 171.451 224.434 170.724 224.237C170.019 224.016 168.834 224.061 167.687 224.947C167.609 225.014 167.502 225.035 167.407 225C166.7 224.723 165.939 224.673 166.782 225.513C166.783 226.702 167.165 226.14 167.577 225.581Z" fill="black"/>
<path d="M162.972 228.496C162.975 228.4 163.042 228.32 163.134 228.285C164.399 227.772 165.114 227.328 165.568 226.826C165.8 226.596 165.954 226.355 166.048 226.157C166.145 225.967 166.183 225.827 166.156 225.771C166.105 225.658 165.617 225.478 164.875 225.677C164.507 225.772 164.102 226.003 163.696 226.35C163.506 226.54 163.319 226.761 163.143 227.014C162.969 227.268 162.842 227.588 162.722 227.917C162.69 228.012 162.606 228.082 162.506 228.103C161.797 228.281 161.088 228.609 162.281 228.879C162.914 229.86 162.973 229.215 162.972 228.496Z" fill="black"/>
<path d="M160.554 233.396C160.51 233.308 160.518 233.202 160.581 233.128C161.05 232.608 161.326 232.144 161.563 231.74C161.765 231.323 161.906 230.965 161.969 230.637C162.084 229.98 162.012 229.504 161.897 229.429C161.816 229.374 161.259 229.459 160.766 230.019C160.25 230.551 159.796 231.598 160.042 232.997C160.061 233.095 160.032 233.198 159.956 233.262C159.401 233.737 158.918 234.329 160.108 234.049C161.118 234.651 160.882 234.034 160.554 233.396Z" fill="black"/>
<path d="M160.486 238.864C160.409 238.804 160.365 238.707 160.398 238.612C160.497 238.279 160.564 237.98 160.602 237.708C160.646 237.434 160.695 237.182 160.7 236.952C160.702 236.491 160.697 236.101 160.602 235.776C160.433 235.128 160.147 234.727 160.014 234.711C159.913 234.697 159.461 235.01 159.247 235.716C159.025 236.404 159.011 237.547 159.853 238.719C159.905 238.801 159.93 238.906 159.887 238.997C159.593 239.666 159.435 240.419 160.371 239.642C161.548 239.734 161.057 239.298 160.486 238.864Z" fill="black"/>
<path d="M163.09 243.62C162.994 243.608 162.915 243.539 162.885 243.448C162.492 242.154 162.061 241.44 161.615 240.935C161.15 240.459 160.716 240.23 160.591 240.274C160.493 240.308 160.231 240.793 160.396 241.523C160.517 242.249 161.133 243.268 162.481 243.823C162.576 243.861 162.644 243.946 162.656 244.047C162.757 244.784 163.079 245.469 163.421 244.33C164.472 243.759 163.791 243.697 163.09 243.62Z" fill="black"/>
<path d="M167.903 246.216C167.815 246.258 167.707 246.253 167.634 246.186C166.589 245.294 165.835 244.905 165.17 244.75C164.532 244.583 164.024 244.651 163.946 244.753C163.88 244.836 163.949 245.36 164.481 245.902C165.005 246.42 166.058 246.953 167.494 246.715C167.593 246.702 167.698 246.727 167.762 246.804C168.244 247.354 168.853 247.835 168.563 246.659C169.167 245.664 168.551 245.896 167.903 246.216Z" fill="black"/>
<path d="M136.406 224.458C136.679 223.019 135.265 221.471 133.698 222.172C133.648 222.186 133.584 222.246 133.645 222.294C134.846 223.014 135.377 224.687 134.846 226.086C134.837 226.125 134.85 226.143 134.871 226.151C134.879 226.172 134.895 226.187 134.927 226.177C136.185 225.586 137.689 226.174 138.337 227.512C138.383 227.582 138.431 227.507 138.446 227.453C139.071 225.712 137.698 224.156 136.406 224.458Z" fill="black"/>
<path d="M142.496 216.279C142.768 214.84 141.355 213.292 139.787 213.993C139.737 214.007 139.673 214.067 139.735 214.114C140.936 214.835 141.466 216.508 140.936 217.907C140.926 217.946 140.94 217.964 140.96 217.972C140.969 217.993 140.985 218.007 141.017 217.997C142.274 217.407 143.778 217.995 144.426 219.332C144.473 219.403 144.521 219.328 144.536 219.274C145.16 217.533 143.788 215.977 142.496 216.279Z" fill="black"/>
<path d="M154.417 214.46C154.689 213.021 153.276 211.473 151.708 212.174C151.658 212.188 151.594 212.248 151.656 212.296C152.857 213.016 153.387 214.689 152.857 216.088C152.848 216.127 152.861 216.145 152.881 216.153C152.89 216.174 152.906 216.189 152.938 216.178C154.195 215.588 155.7 216.176 156.348 217.513C156.394 217.584 156.442 217.509 156.457 217.455C157.081 215.714 155.709 214.158 154.417 214.46Z" fill="black"/>
<path d="M130.78 230.94C131.052 229.501 129.638 227.953 128.071 228.654C128.021 228.668 127.957 228.728 128.018 228.776C129.219 229.496 129.75 231.169 129.219 232.568C129.21 232.607 129.223 232.625 129.244 232.633C129.252 232.655 129.269 232.669 129.301 232.658C130.558 232.068 132.062 232.656 132.71 233.993C132.757 234.064 132.804 233.989 132.82 233.935C133.444 232.194 132.072 230.638 130.78 230.94Z" fill="black"/>
<path d="M124.786 241.57C125.059 240.13 123.645 238.583 122.078 239.283C122.028 239.297 121.964 239.357 122.025 239.405C123.226 240.126 123.757 241.798 123.226 243.197C123.217 243.236 123.23 243.254 123.251 243.263C123.259 243.284 123.275 243.298 123.307 243.288C124.565 242.698 126.069 243.286 126.717 244.623C126.763 244.693 126.811 244.618 126.827 244.564C127.451 242.823 126.078 241.267 124.786 241.57Z" fill="black"/>
<path d="M144.086 254.695C144.358 253.256 142.945 251.708 141.378 252.409C141.328 252.423 141.264 252.483 141.325 252.53C142.526 253.251 143.057 254.924 142.526 256.323C142.517 256.362 142.53 256.38 142.55 256.388C142.559 256.41 142.575 256.423 142.607 256.413C143.865 255.823 145.369 256.411 146.017 257.748C146.063 257.819 146.111 257.744 146.126 257.69C146.75 255.949 145.378 254.393 144.086 254.695Z" fill="black"/>
<path d="M141.388 224.458C141.661 223.019 140.247 221.471 138.68 222.172C138.63 222.186 138.566 222.246 138.627 222.294C139.828 223.014 140.359 224.687 139.828 226.086C139.819 226.125 139.832 226.143 139.853 226.151C139.861 226.172 139.877 226.187 139.909 226.177C141.167 225.586 142.671 226.174 143.319 227.512C143.366 227.582 143.413 227.507 143.429 227.453C144.053 225.712 142.68 224.156 141.388 224.458Z" fill="black"/>
<path d="M146.371 224.458C146.643 223.019 145.229 221.471 143.662 222.172C143.612 222.186 143.548 222.246 143.609 222.294C144.811 223.014 145.341 224.687 144.81 226.086C144.801 226.125 144.814 226.143 144.835 226.151C144.843 226.172 144.86 226.187 144.891 226.177C146.149 225.586 147.653 226.174 148.301 227.512C148.348 227.582 148.395 227.507 148.411 227.453C149.035 225.712 147.663 224.156 146.371 224.458Z" fill="black"/>
<path d="M151.353 224.458C151.625 223.019 150.211 221.471 148.643 222.172C148.594 222.186 148.53 222.246 148.591 222.294C149.792 223.014 150.323 224.687 149.792 226.086C149.783 226.125 149.796 226.143 149.817 226.151C149.825 226.172 149.842 226.187 149.873 226.177C151.131 225.586 152.635 226.174 153.283 227.512C153.33 227.582 153.377 227.507 153.393 227.453C154.017 225.712 152.645 224.156 151.353 224.458Z" fill="black"/>
<path d="M136.307 247.034C136.59 245.595 135.121 244.047 133.492 244.748C133.44 244.762 133.374 244.822 133.437 244.869C134.685 245.59 135.237 247.263 134.685 248.662C134.676 248.7 134.69 248.719 134.711 248.727C134.72 248.748 134.737 248.762 134.769 248.752C136.077 248.162 137.64 248.75 138.313 250.087C138.362 250.157 138.411 250.083 138.427 250.029C139.076 248.288 137.65 246.731 136.307 247.034Z" fill="black"/>
<path d="M141.485 247.034C141.768 245.595 140.299 244.047 138.669 244.748C138.617 244.762 138.551 244.822 138.615 244.869C139.863 245.59 140.415 247.263 139.863 248.662C139.853 248.7 139.867 248.719 139.889 248.727C139.898 248.748 139.914 248.762 139.947 248.752C141.254 248.162 142.817 248.75 143.491 250.087C143.539 250.157 143.589 250.083 143.605 250.029C144.254 248.288 142.828 246.731 141.485 247.034Z" fill="black"/>
<path d="M146.662 247.034C146.946 245.595 145.476 244.047 143.847 244.748C143.795 244.762 143.729 244.822 143.792 244.869C145.041 245.59 145.592 247.263 145.041 248.662C145.031 248.7 145.045 248.719 145.067 248.727C145.075 248.748 145.093 248.762 145.125 248.752C146.432 248.162 147.995 248.75 148.669 250.087C148.717 250.157 148.767 250.083 148.782 250.029C149.431 248.288 148.006 246.731 146.662 247.034Z" fill="black"/>
<path d="M151.84 247.034C152.123 245.595 150.654 244.047 149.025 244.748C148.973 244.762 148.907 244.822 148.97 244.869C150.219 245.59 150.77 247.263 150.219 248.662C150.209 248.7 150.223 248.719 150.244 248.727C150.253 248.748 150.27 248.762 150.303 248.752C151.61 248.162 153.173 248.75 153.846 250.087C153.895 250.157 153.944 250.083 153.96 250.029C154.609 248.288 153.183 246.731 151.84 247.034Z" fill="black"/>
<path d="M138.032 241.592C138.383 240.241 136.959 238.836 135.273 239.533C135.22 239.548 135.15 239.605 135.213 239.648C136.448 240.287 136.934 241.833 136.312 243.154C136.3 243.19 136.314 243.207 136.335 243.214C136.343 243.234 136.36 243.247 136.393 243.236C137.747 242.651 139.309 243.157 139.933 244.387C139.98 244.452 140.033 244.381 140.052 244.33C140.788 242.688 139.409 241.273 138.032 241.592Z" fill="black"/>
<path d="M141.065 238.725C141.417 237.374 139.993 235.97 138.307 236.667C138.254 236.681 138.184 236.739 138.247 236.782C139.483 237.421 139.969 238.967 139.346 240.288C139.335 240.324 139.348 240.341 139.369 240.348C139.377 240.367 139.394 240.381 139.427 240.37C140.781 239.784 142.343 240.291 142.967 241.521C143.014 241.585 143.067 241.514 143.086 241.463C143.822 239.821 142.443 238.407 141.065 238.725Z" fill="black"/>
<path d="M144.1 235.859C144.451 234.509 143.028 233.103 141.342 233.8C141.289 233.815 141.218 233.873 141.281 233.916C142.517 234.555 143.003 236.101 142.38 237.422C142.369 237.458 142.382 237.475 142.404 237.481C142.411 237.501 142.428 237.514 142.462 237.504C143.816 236.918 145.377 237.425 146.002 238.655C146.048 238.719 146.102 238.648 146.12 238.597C146.857 236.955 145.478 235.541 144.1 235.859Z" fill="black"/>
<path d="M147.134 232.993C147.485 231.642 146.062 230.237 144.376 230.934C144.323 230.949 144.252 231.007 144.315 231.05C145.551 231.689 146.037 233.235 145.414 234.556C145.403 234.592 145.416 234.609 145.438 234.616C145.445 234.635 145.462 234.648 145.496 234.638C146.849 234.052 148.411 234.559 149.036 235.789C149.082 235.853 149.136 235.782 149.154 235.731C149.891 234.089 148.511 232.675 147.134 232.993Z" fill="black"/>
<path d="M150.168 230.127C150.52 228.776 149.096 227.371 147.41 228.068C147.357 228.083 147.287 228.14 147.349 228.183C148.585 228.823 149.071 230.368 148.449 231.689C148.437 231.725 148.45 231.742 148.472 231.749C148.48 231.769 148.496 231.782 148.53 231.771C149.884 231.186 151.446 231.693 152.07 232.922C152.116 232.987 152.17 232.916 152.188 232.865C152.925 231.223 151.546 229.808 150.168 230.127Z" fill="black"/>
<path d="M124.825 254.352H134.845C139.399 254.352 142.511 257.382 142.511 261.198C142.511 263.667 141.183 265.762 139.247 266.735V266.959C141.524 268.119 143.005 270.626 143.005 273.282C143.005 277.397 139.475 280.54 134.769 280.54H124.825V254.352ZM134.541 265.501C136.932 265.501 138.678 263.854 138.678 261.572C138.678 259.29 136.932 257.681 134.541 257.681H128.582V265.501H134.541ZM134.883 277.21C137.198 277.21 139.172 275.302 139.172 273.02C139.172 270.738 137.198 268.793 134.883 268.793H128.582V277.21H134.883Z" fill="black"/>
<path d="M148.582 254.352H158.602C163.156 254.352 166.459 257.606 166.459 261.946C166.459 265.426 164.371 268.044 160.955 269.054L167.408 280.54H163.195L157.159 269.728H152.339V280.54H148.582V254.352ZM158.222 266.398C160.689 266.398 162.625 264.452 162.625 262.021C162.625 259.627 160.689 257.681 158.222 257.681H152.339V266.398H158.222Z" fill="black"/>
<path d="M172.756 254.352H176.589L189.949 274.105H190.177V254.352H193.821V280.54H189.987L176.589 260.786H176.362V280.54H172.756V254.352Z" fill="black"/>
<path d="M199.852 267.446C199.852 259.59 205.545 253.94 213.402 253.94C221.258 253.94 226.951 259.59 226.951 267.446C226.951 275.302 221.258 280.951 213.402 280.951C205.545 280.951 199.852 275.302 199.852 267.446ZM213.402 277.547C219.095 277.547 223.118 273.394 223.118 267.446C223.118 261.497 219.095 257.345 213.402 257.345C207.67 257.345 203.686 261.497 203.686 267.446C203.686 273.394 207.67 277.547 213.402 277.547Z" fill="black"/>
<path d="M175.473 233.95C175.554 234.007 175.602 234.108 175.576 234.208C175.286 235.576 175.184 236.423 175.256 237.109C175.287 237.444 175.352 237.725 175.416 237.933C175.489 238.143 175.569 238.277 175.624 238.297C175.68 238.318 175.828 238.271 176.01 238.124C176.201 237.98 176.42 237.73 176.589 237.358C176.759 236.987 176.867 236.493 176.829 235.919C176.769 235.35 176.591 234.683 176.115 234.075C176.056 233.988 176.027 233.876 176.06 233.776C176.19 233.41 176.239 233.007 176.159 232.819C176.082 232.625 175.901 232.68 175.492 233.131C174.894 233.143 174.748 233.28 174.813 233.416C174.883 233.556 175.179 233.733 175.473 233.95Z" fill="black"/>
<path d="M166.34 232.305C166.331 232.202 166.396 232.114 166.487 232.071C167.129 231.769 167.617 231.565 168.035 231.388C168.445 231.205 168.775 231.03 169.057 230.853C169.338 230.677 169.565 230.5 169.726 230.351C169.886 230.192 169.974 230.07 169.969 230.01C169.964 229.953 169.858 229.836 169.644 229.741C169.429 229.635 169.103 229.547 168.68 229.568C168.261 229.589 167.74 229.728 167.24 230.078C166.736 230.413 166.274 230.992 166.056 231.727C166.024 231.829 165.939 231.911 165.844 231.95C165.662 232.017 165.477 232.098 165.323 232.187C165.181 232.281 165.067 232.38 165.016 232.468C164.91 232.65 165.065 232.755 165.677 232.791C166.058 233.249 166.257 233.276 166.324 233.142C166.359 233.072 166.365 232.954 166.357 232.803C166.359 232.661 166.351 232.488 166.34 232.305Z" fill="black"/>
<path d="M169.568 241.37C169.48 241.415 169.367 241.418 169.289 241.35C168.717 240.933 168.319 240.574 167.962 240.301C167.602 240.035 167.307 239.813 167.01 239.657C166.45 239.324 165.953 239.169 165.838 239.236C165.751 239.284 165.604 239.832 166.021 240.573C166.242 240.923 166.595 241.331 167.147 241.6C167.686 241.875 168.407 242.037 169.172 241.885C169.278 241.874 169.393 241.891 169.471 241.966C169.751 242.243 170.099 242.456 170.304 242.469C170.514 242.484 170.543 242.3 170.307 241.741C170.556 241.204 170.494 241.016 170.341 241.014C170.181 241.013 169.891 241.205 169.568 241.37Z" fill="black"/>
<path d="M175.214 250.647C175.157 250.732 175.052 250.76 174.954 250.742C173.559 250.503 172.637 250.6 171.974 250.873C171.317 251.088 170.954 251.47 170.957 251.59C170.96 251.703 171.348 252.051 172.097 252.205C172.829 252.306 173.964 252.191 175.102 251.27C175.182 251.206 175.294 251.197 175.388 251.226C176.088 251.454 176.854 251.563 176.021 250.689C176.07 249.512 175.627 250.036 175.214 250.647Z" fill="black"/>
<path d="M185.487 238.244C185.537 238.329 185.533 238.436 185.479 238.52C185.121 239.113 184.823 239.612 184.672 240.07C184.534 240.531 184.435 240.922 184.422 241.268C184.406 241.612 184.457 241.905 184.523 242.118C184.574 242.325 184.651 242.455 184.707 242.478C184.76 242.499 184.911 242.459 185.107 242.338C185.288 242.21 185.506 241.997 185.712 241.683C185.914 241.369 186.124 240.958 186.178 240.43C186.244 239.907 186.263 239.291 186.029 238.597C185.999 238.499 186.024 238.392 186.095 238.32C186.355 238.055 186.603 237.762 186.625 237.583C186.639 237.403 186.452 237.351 185.888 237.537C185.344 237.262 185.154 237.296 185.153 237.461C185.145 237.626 185.301 237.932 185.487 238.244Z" fill="black"/>
<path d="M179.517 223.162C179.616 223.159 179.708 223.215 179.755 223.302C179.918 223.616 180.102 223.861 180.252 224.111C180.404 224.359 180.561 224.568 180.72 224.747C181.054 225.09 181.337 225.377 181.633 225.561C182.23 225.921 182.725 226.018 182.825 225.946C182.917 225.88 183.013 225.343 182.655 224.682C182.481 224.351 182.232 223.956 181.79 223.643C181.577 223.48 181.332 223.323 181.056 223.179C180.782 223.034 180.439 222.947 180.087 222.863C179.986 222.841 179.904 222.767 179.873 222.67C179.818 222.491 179.755 222.312 179.684 222.166C179.607 222.029 179.526 221.922 179.449 221.872C179.292 221.772 179.161 221.912 179.065 222.494C178.569 222.839 178.512 223.023 178.656 223.1C178.729 223.14 178.856 223.154 179.012 223.155C179.161 223.165 179.336 223.167 179.517 223.162Z" fill="black"/>
<path d="M168.589 220.527C168.66 220.458 168.766 220.424 168.861 220.466C169.532 220.738 170.091 220.838 170.579 220.893C171.065 220.964 171.479 220.933 171.825 220.855C172.511 220.721 172.93 220.441 172.949 220.312C172.966 220.21 172.646 219.766 171.93 219.522C171.574 219.412 171.12 219.341 170.59 219.366C170.059 219.407 169.449 219.601 168.811 219.921C168.721 219.963 168.611 219.977 168.523 219.926C167.877 219.569 167.148 219.317 167.801 220.332C167.529 221.477 168.067 221.046 168.589 220.527Z" fill="black"/>
<path d="M156.103 230.715C156.069 230.624 156.093 230.519 156.161 230.447C156.406 230.19 156.603 229.946 156.768 229.712C156.957 229.487 157.107 229.271 157.227 229.062C157.347 228.854 157.436 228.652 157.503 228.459C157.588 228.275 157.648 228.099 157.689 227.932C157.846 227.265 157.726 226.751 157.634 226.691C157.528 226.623 157.023 226.744 156.498 227.291C156.366 227.426 156.233 227.587 156.105 227.774C155.996 227.971 155.896 228.194 155.81 228.445C155.725 228.696 155.655 228.974 155.609 229.276C155.587 229.587 155.594 229.924 155.633 230.281C155.644 230.381 155.6 230.482 155.516 230.542C154.883 230.977 154.436 231.558 155.607 231.352C156.602 232.053 156.338 231.376 156.103 230.715Z" fill="black"/>
<path d="M159.332 246.711C159.235 246.694 159.157 246.619 159.129 246.525C159.036 246.184 158.911 245.904 158.813 245.632C158.716 245.357 158.607 245.12 158.488 244.912C158.235 244.506 158.01 244.172 157.761 243.93C157.253 243.454 156.774 243.27 156.668 243.318C156.559 243.368 156.37 243.868 156.58 244.588C156.678 244.949 156.846 245.379 157.211 245.776C157.385 245.978 157.591 246.182 157.83 246.379C158.072 246.574 158.385 246.732 158.712 246.886C158.806 246.928 158.871 247.017 158.88 247.119C158.903 247.499 158.993 247.86 159.128 247.986C159.26 248.116 159.418 248.006 159.634 247.456C160.192 247.22 160.286 247.052 160.162 246.947C160.032 246.844 159.679 246.785 159.332 246.711Z" fill="black"/>
<path d="M183.616 245.336C183.619 245.433 183.563 245.524 183.476 245.568C182.878 245.904 182.365 246.179 182.014 246.501C181.833 246.657 181.689 246.823 181.559 246.977C181.42 247.123 181.308 247.27 181.217 247.413C180.853 247.985 180.814 248.51 180.891 248.603C180.962 248.692 181.473 248.731 182.139 248.394C182.305 248.31 182.48 248.203 182.657 248.07C182.826 247.928 182.986 247.748 183.146 247.544C183.454 247.126 183.781 246.616 183.914 245.904C183.936 245.806 184.009 245.726 184.106 245.699C184.819 245.498 185.509 245.172 184.31 244.927C183.659 243.956 183.597 244.623 183.616 245.336Z" fill="black"/>
<path d="M183.225 223.303C183.321 223.327 183.386 223.411 183.402 223.508C183.501 224.206 183.714 224.707 183.891 225.15C184.071 225.589 184.303 225.916 184.545 226.164C184.993 226.673 185.452 226.882 185.572 226.835C185.673 226.796 185.899 226.31 185.767 225.584C185.685 225.231 185.519 224.815 185.231 224.383C184.946 223.95 184.449 223.552 183.851 223.185C183.765 223.135 183.715 223.039 183.715 222.939C183.692 222.224 183.537 221.492 182.99 222.555C181.853 222.925 182.505 223.143 183.225 223.303Z" fill="black"/>
<path d="M160.666 220.71C160.699 220.62 160.785 220.557 160.884 220.547C161.584 220.474 162.113 220.315 162.579 220.178C163.035 220.028 163.37 219.794 163.646 219.594C164.2 219.205 164.429 218.738 164.392 218.624C164.356 218.516 163.889 218.291 163.139 218.353C162.768 218.39 162.348 218.552 161.893 218.809C161.431 219.051 160.988 219.497 160.589 220.083C160.532 220.166 160.434 220.213 160.331 220.203C159.576 220.131 158.86 220.282 159.883 220.875C160.192 222.037 160.424 221.363 160.666 220.71Z" fill="black"/>
<path d="M154.003 240.309C153.927 240.248 153.893 240.147 153.915 240.053C154.044 239.387 154.161 238.819 154.136 238.343C154.116 237.867 154.018 237.473 153.923 237.147C153.706 236.501 153.32 236.146 153.198 236.148C153.083 236.15 152.729 236.522 152.569 237.237C152.476 237.594 152.478 238.033 152.599 238.534C152.725 239.032 152.909 239.602 153.371 240.164C153.433 240.244 153.447 240.351 153.405 240.441C153.098 241.105 152.9 241.831 153.869 241.095C155.042 241.241 154.566 240.758 154.003 240.309Z" fill="black"/>
<path d="M169.52 253.715C169.44 253.771 169.333 253.776 169.246 253.731C168.627 253.429 168.101 253.193 167.633 253.077C167.165 252.962 166.753 252.965 166.413 252.962C165.73 252.989 165.274 253.256 165.241 253.371C165.209 253.48 165.471 253.919 166.13 254.27C166.455 254.461 166.89 254.563 167.412 254.588C167.934 254.615 168.544 254.565 169.214 254.277C169.308 254.24 169.416 254.254 169.493 254.318C170.064 254.787 170.722 255.167 170.255 254.05C170.703 252.975 170.106 253.299 169.52 253.715Z" fill="black"/>
</g>
</svg>
