<svg width="359" height="267" viewBox="0 0 359 267" fill="none" xmlns="http://www.w3.org/2000/svg">
<rect width="359" height="267" fill="#ffffff"/>
<g opacity="0.25">
<path d="M200.383 130.622L200.31 130.649C200.311 130.636 200.312 130.626 200.313 130.612C200.307 130.441 200.22 130.273 200.112 130.287C200.005 130.301 199.931 130.489 199.951 130.655C199.959 130.734 199.985 130.792 200.019 130.834C199.811 130.752 199.527 130.753 199.212 130.794C198.919 130.86 198.601 130.975 198.359 131.135C198.122 131.303 197.977 131.472 197.904 131.633C197.872 131.697 197.814 131.751 197.746 131.772C197.561 131.826 197.38 131.945 197.246 132.129C197.056 132.373 197.06 132.708 197.201 132.945C197.479 133.393 198.062 133.42 198.426 133.127C198.516 133.05 198.584 132.955 198.628 132.85C198.653 132.786 198.712 132.747 198.779 132.746C198.943 132.739 199.117 132.679 199.31 132.54C199.502 132.413 199.695 132.256 199.859 132.064C200.029 131.903 200.173 131.698 200.262 131.518C200.265 131.569 200.283 131.63 200.323 131.699C200.409 131.846 200.543 131.974 200.605 131.938C200.667 131.903 200.649 131.714 200.576 131.563C200.569 131.552 200.564 131.544 200.558 131.534C200.578 131.53 200.598 131.528 200.619 131.522C200.881 131.449 201.082 131.229 201.057 130.967C201.035 130.718 200.723 130.53 200.383 130.622Z" fill="black"/>
<path d="M194.283 137.149L194.242 137.213C194.235 137.203 194.229 137.194 194.222 137.182C194.112 137.05 193.94 136.968 193.862 137.043C193.785 137.118 193.841 137.312 193.959 137.433C194.014 137.49 194.071 137.521 194.123 137.534C193.908 137.593 193.681 137.763 193.456 137.984C193.263 138.21 193.08 138.492 192.985 138.763C192.899 139.039 192.887 139.26 192.927 139.431C192.941 139.501 192.927 139.579 192.887 139.636C192.772 139.789 192.701 139.992 192.706 140.218C192.705 140.526 192.913 140.791 193.171 140.895C193.667 141.087 194.147 140.761 194.258 140.311C194.283 140.195 194.278 140.08 194.25 139.97C194.231 139.904 194.254 139.838 194.307 139.797C194.432 139.694 194.535 139.542 194.603 139.317C194.679 139.101 194.737 138.861 194.749 138.611C194.787 138.381 194.775 138.131 194.737 137.935C194.769 137.974 194.821 138.012 194.895 138.043C195.054 138.109 195.239 138.131 195.266 138.065C195.295 138 195.165 137.861 195.014 137.784C195.002 137.779 194.993 137.776 194.982 137.772C194.996 137.756 195.01 137.742 195.023 137.726C195.187 137.511 195.213 137.217 195.032 137.022C194.862 136.837 194.499 136.873 194.283 137.149Z" fill="black"/>
<path d="M191.595 137.468L191.541 137.524C191.537 137.512 191.533 137.502 191.528 137.489C191.448 137.338 191.296 137.222 191.205 137.281C191.114 137.339 191.129 137.539 191.219 137.682C191.261 137.749 191.311 137.791 191.359 137.814C191.135 137.828 190.879 137.949 190.613 138.12C190.377 138.302 190.139 138.542 189.99 138.788C189.849 139.04 189.791 139.254 189.795 139.43C189.795 139.502 189.765 139.574 189.713 139.622C189.569 139.749 189.457 139.934 189.416 140.156C189.351 140.457 189.5 140.758 189.73 140.912C190.177 141.2 190.715 140.977 190.916 140.56C190.965 140.451 190.984 140.337 190.979 140.224C190.974 140.155 191.009 140.095 191.07 140.066C191.214 139.99 191.346 139.863 191.46 139.656C191.579 139.46 191.685 139.236 191.749 138.993C191.833 138.776 191.873 138.53 191.876 138.33C191.9 138.375 191.943 138.422 192.009 138.467C192.151 138.564 192.327 138.622 192.368 138.564C192.409 138.506 192.311 138.343 192.179 138.237C192.168 138.23 192.16 138.225 192.15 138.219C192.167 138.207 192.184 138.196 192.2 138.182C192.405 138.005 192.491 137.723 192.354 137.495C192.226 137.28 191.863 137.242 191.595 137.468Z" fill="black"/>
<path d="M205.502 131.262L205.434 131.262C205.439 131.25 205.443 131.241 205.449 131.228C205.5 131.066 205.485 130.879 205.406 130.855C205.322 130.833 205.219 130.971 205.16 131.131C205.134 131.205 205.128 131.269 205.136 131.32C204.889 131.009 204.405 130.67 203.896 130.52C203.647 130.445 203.419 130.44 203.254 130.484C203.186 130.501 203.104 130.49 203.045 130.445C202.89 130.325 202.677 130.25 202.431 130.266C202.103 130.274 201.818 130.501 201.745 130.76C201.621 131.266 201.951 131.708 202.373 131.795C202.484 131.814 202.6 131.818 202.708 131.789C202.772 131.775 202.837 131.793 202.883 131.844C202.998 131.969 203.151 132.062 203.411 132.14C203.904 132.287 204.646 132.286 205.028 132.038C205.003 132.083 204.988 132.145 204.994 132.225C205.004 132.393 205.114 132.576 205.207 132.565C205.304 132.557 205.361 132.376 205.342 132.209C205.339 132.196 205.338 132.186 205.334 132.174L205.406 132.187C205.731 132.223 206.007 132.027 206.019 131.769C206.03 131.514 205.799 131.295 205.502 131.262Z" fill="black"/>
<path d="M210.064 130.351L210.012 130.391C210.009 130.379 210.006 130.369 210.002 130.356C209.942 130.196 209.817 130.059 209.74 130.083C209.664 130.105 209.66 130.289 209.712 130.45C209.737 130.525 209.771 130.579 209.809 130.615C209.406 130.52 208.822 130.568 208.389 130.687C208.172 130.762 208.012 130.833 207.904 130.952C207.86 131.001 207.795 131.018 207.733 130.996C207.569 130.937 207.396 130.948 207.21 131.008C206.963 131.103 206.758 131.328 206.697 131.598C206.575 132.104 207.007 132.558 207.586 132.497C207.728 132.477 207.858 132.429 207.967 132.361C208.032 132.323 208.113 132.314 208.185 132.334C208.358 132.38 208.593 132.4 208.879 132.306C209.456 132.146 210.03 131.662 210.165 131.249C210.175 131.301 210.202 131.359 210.255 131.418C210.368 131.546 210.553 131.625 210.631 131.563C210.709 131.501 210.64 131.319 210.522 131.198C210.512 131.19 210.504 131.184 210.495 131.176L210.56 131.142C210.844 130.968 210.938 130.647 210.784 130.437C210.633 130.232 210.313 130.199 210.064 130.351Z" fill="black"/>
<path d="M210.609 126.537L210.574 126.593C210.567 126.582 210.561 126.575 210.553 126.563C210.44 126.433 210.275 126.348 210.211 126.396C210.147 126.443 210.208 126.617 210.313 126.75C210.363 126.812 210.414 126.851 210.462 126.872C210.051 126.921 209.52 127.164 209.156 127.424C208.977 127.568 208.853 127.689 208.793 127.838C208.769 127.898 208.713 127.937 208.648 127.937C208.473 127.938 208.314 128.007 208.161 128.127C207.962 128.3 207.849 128.581 207.886 128.855C207.95 129.372 208.515 129.651 209.036 129.396C209.162 129.328 209.267 129.239 209.346 129.138C209.393 129.08 209.467 129.045 209.541 129.038C209.72 129.023 209.946 128.962 210.183 128.776C210.668 128.429 211.037 127.779 211.019 127.346C211.046 127.391 211.091 127.436 211.162 127.474C211.313 127.555 211.514 127.566 211.566 127.482C211.617 127.396 211.489 127.25 211.336 127.176C211.323 127.172 211.314 127.169 211.303 127.165L211.351 127.111C211.557 126.851 211.533 126.517 211.314 126.373C211.101 126.232 210.789 126.31 210.609 126.537Z" fill="black"/>
<path d="M213.554 127.06L213.52 127.116C213.512 127.106 213.506 127.099 213.497 127.088C213.377 126.969 213.202 126.892 213.141 126.947C213.081 127.001 213.155 127.171 213.271 127.296C213.325 127.354 213.379 127.389 213.429 127.405C213.023 127.488 212.498 127.79 212.164 128.13C211.982 128.307 211.885 128.478 211.845 128.637C211.828 128.701 211.78 128.754 211.715 128.774C211.542 128.825 211.386 128.938 211.269 129.102C211.115 129.333 211.09 129.639 211.21 129.888C211.432 130.362 212.049 130.454 212.457 130.093C212.555 130.003 212.628 129.896 212.676 129.784C212.703 129.718 212.763 129.669 212.834 129.653C213.004 129.614 213.185 129.509 213.381 129.318C213.778 128.917 214.076 128.264 214.023 127.833C214.053 127.876 214.103 127.917 214.176 127.949C214.333 128.017 214.533 128.015 214.575 127.927C214.618 127.84 214.484 127.706 214.324 127.642C214.311 127.639 214.301 127.636 214.289 127.633L214.337 127.577C214.513 127.3 214.472 126.972 214.246 126.845C214.02 126.718 213.71 126.814 213.554 127.06Z" fill="black"/>
<path d="M195.319 132.543L195.3 132.606C195.29 132.598 195.282 132.592 195.271 132.584C195.126 132.496 194.937 132.463 194.891 132.529C194.845 132.596 194.958 132.745 195.101 132.839C195.168 132.882 195.229 132.904 195.281 132.908C194.906 133.083 194.468 133.499 194.225 133.907C194.091 134.122 194.037 134.31 194.037 134.474C194.036 134.541 194.002 134.603 193.944 134.638C193.787 134.728 193.664 134.874 193.59 135.061C193.495 135.32 193.545 135.623 193.721 135.838C194.05 136.246 194.671 136.192 194.981 135.746C195.055 135.636 195.1 135.515 195.119 135.395C195.13 135.324 195.177 135.263 195.242 135.231C195.398 135.153 195.549 135.009 195.693 134.777C195.982 134.296 196.116 133.592 195.961 133.185C196 133.219 196.058 133.248 196.137 133.262C196.306 133.292 196.499 133.243 196.52 133.148C196.54 133.053 196.378 132.953 196.207 132.929C196.194 132.929 196.184 132.928 196.171 132.928L196.204 132.863C196.31 132.553 196.191 132.243 195.94 132.172C195.69 132.102 195.411 132.268 195.319 132.543Z" fill="black"/>
<path d="M215.037 122.61L215.04 122.676C215.028 122.672 215.019 122.668 215.006 122.663C214.839 122.621 214.651 122.643 214.629 122.721C214.604 122.799 214.755 122.909 214.919 122.958C214.996 122.98 215.06 122.983 215.112 122.972C214.807 123.248 214.515 123.78 214.402 124.232C214.341 124.463 214.348 124.648 214.387 124.8C214.404 124.861 214.388 124.929 214.342 124.974C214.223 125.097 214.124 125.25 214.104 125.447C214.073 125.711 214.178 125.992 214.4 126.171C214.796 126.507 215.413 126.336 215.612 125.81C215.665 125.681 215.685 125.549 215.67 125.423C215.663 125.349 215.693 125.276 215.748 125.226C215.885 125.107 215.992 124.916 216.065 124.639C216.202 124.09 216.114 123.383 215.844 123.039C215.892 123.061 215.956 123.071 216.036 123.062C216.207 123.042 216.378 122.94 216.37 122.844C216.36 122.747 216.172 122.699 216.003 122.725C215.991 122.728 215.982 122.731 215.969 122.734L215.978 122.663C215.997 122.338 215.787 122.076 215.524 122.078C215.267 122.08 215.054 122.318 215.037 122.61Z" fill="black"/>
<path d="M218.176 108.231L218.12 108.269C218.118 108.256 218.116 108.246 218.114 108.233C218.064 108.07 217.946 107.924 217.867 107.946C217.787 107.966 217.77 108.15 217.814 108.313C217.834 108.389 217.866 108.445 217.902 108.482C217.504 108.37 216.892 108.401 216.441 108.543C216.21 108.611 216.053 108.714 215.942 108.825C215.898 108.872 215.831 108.894 215.768 108.879C215.6 108.842 215.415 108.839 215.235 108.925C214.99 109.037 214.801 109.271 214.762 109.551C214.678 110.06 215.148 110.49 215.707 110.383C215.846 110.361 215.97 110.309 216.072 110.231C216.132 110.186 216.211 110.173 216.283 110.193C216.457 110.247 216.678 110.237 216.956 110.154C217.503 109.983 218.069 109.54 218.226 109.134C218.232 109.186 218.256 109.245 218.306 109.307C218.412 109.441 218.59 109.531 218.669 109.475C218.747 109.416 218.691 109.233 218.58 109.105C218.571 109.095 218.564 109.089 218.554 109.08L218.621 109.051C218.912 108.898 219.03 108.584 218.89 108.364C218.755 108.148 218.438 108.094 218.176 108.231Z" fill="black"/>
<path d="M214.598 117.655V117.73C214.586 117.725 214.577 117.722 214.564 117.716C214.399 117.67 214.208 117.699 214.185 117.801C214.168 117.902 214.33 118.025 214.498 118.06C214.577 118.077 214.642 118.072 214.691 118.054C214.388 118.382 214.269 119.119 214.376 119.648C214.426 119.914 214.52 120.098 214.632 120.215C214.678 120.263 214.697 120.332 214.679 120.396C214.628 120.57 214.632 120.732 214.703 120.922C214.803 121.173 215.044 121.368 215.319 121.417C215.838 121.513 216.277 121.074 216.202 120.52C216.181 120.383 216.134 120.249 216.062 120.152C216.02 120.094 216.01 120.018 216.035 119.951C216.095 119.785 216.106 119.589 216.06 119.339C215.965 118.855 215.705 118.343 215.427 118.05C215.477 118.065 215.542 118.067 215.62 118.052C215.788 118.018 215.947 117.929 215.929 117.855C215.918 117.782 215.733 117.741 215.563 117.763C215.55 117.767 215.54 117.769 215.529 117.772C215.533 117.751 215.538 117.731 215.54 117.709C215.552 117.432 215.386 117.174 215.133 117.128C214.874 117.081 214.615 117.315 214.598 117.655Z" fill="black"/>
<path d="M212.796 115.601L212.772 115.672C212.763 115.664 212.755 115.658 212.744 115.649C212.601 115.555 212.41 115.525 212.356 115.615C212.31 115.706 212.425 115.872 212.575 115.957C212.644 115.996 212.707 116.011 212.76 116.009C212.37 116.229 212.028 116.895 211.966 117.431C211.931 117.699 211.963 117.903 212.033 118.048C212.062 118.108 212.059 118.179 212.022 118.235C211.919 118.384 211.873 118.54 211.882 118.742C211.899 119.011 212.068 119.27 212.315 119.399C212.779 119.647 213.333 119.362 213.434 118.812C213.456 118.675 213.453 118.534 213.414 118.42C213.393 118.351 213.407 118.276 213.451 118.22C213.559 118.08 213.632 117.897 213.665 117.645C213.724 117.155 213.636 116.59 213.462 116.226C213.505 116.255 213.566 116.277 213.645 116.287C213.815 116.306 213.995 116.268 214.001 116.193C214.012 116.12 213.85 116.025 213.681 115.995C213.667 115.994 213.657 115.993 213.645 115.992C213.655 115.974 213.667 115.956 213.675 115.936C213.773 115.676 213.696 115.38 213.468 115.26C213.237 115.137 212.917 115.282 212.796 115.601Z" fill="black"/>
<path d="M216.922 112.99L216.878 113.047C216.872 113.036 216.867 113.027 216.86 113.015C216.761 112.876 216.597 112.778 216.522 112.837C216.446 112.896 216.49 113.086 216.592 113.221C216.641 113.285 216.692 113.323 216.741 113.343C216.306 113.385 215.719 113.792 215.406 114.274C215.251 114.519 215.172 114.721 215.183 114.908C215.185 114.983 215.153 115.057 215.095 115.104C214.939 115.229 214.809 115.416 214.777 115.657C214.717 115.975 214.857 116.281 215.108 116.422C215.566 116.666 216.1 116.444 216.272 116.052C216.319 115.95 216.347 115.844 216.345 115.736C216.344 115.672 216.38 115.614 216.437 115.584C216.566 115.509 216.718 115.393 216.843 115.193C217.094 114.806 217.301 114.23 217.295 113.82C217.322 113.864 217.369 113.909 217.438 113.948C217.587 114.032 217.775 114.063 217.816 113.991C217.859 113.919 217.743 113.769 217.597 113.681C217.585 113.676 217.577 113.672 217.565 113.666L217.614 113.621C217.809 113.397 217.851 113.091 217.663 112.905C217.484 112.727 217.136 112.746 216.922 112.99Z" fill="black"/>
<path d="M220.262 109.123L220.213 109.176C220.207 109.164 220.204 109.155 220.198 109.142C220.113 108.994 219.961 108.88 219.879 108.931C219.798 108.982 219.822 109.176 219.911 109.321C219.952 109.388 220 109.432 220.046 109.456C219.609 109.455 218.984 109.802 218.624 110.251C218.444 110.479 218.346 110.673 218.338 110.86C218.332 110.935 218.293 111.005 218.23 111.047C218.062 111.156 217.914 111.329 217.858 111.565C217.766 111.876 217.874 112.194 218.11 112.359C218.54 112.647 219.095 112.479 219.305 112.106C219.363 112.009 219.401 111.907 219.41 111.798C219.416 111.735 219.457 111.68 219.516 111.656C219.653 111.594 219.815 111.493 219.961 111.307C220.249 110.947 220.514 110.394 220.55 109.986C220.572 110.032 220.614 110.081 220.679 110.127C220.819 110.225 221.002 110.274 221.051 110.207C221.1 110.14 221 109.979 220.864 109.877C220.853 109.87 220.844 109.866 220.834 109.86L220.887 109.819C221.104 109.615 221.176 109.314 221.008 109.111C220.848 108.916 220.5 108.901 220.262 109.123Z" fill="black"/>
<path d="M203.129 133.21L203.053 133.209C203.058 133.197 203.063 133.188 203.069 133.176C203.123 133.014 203.099 132.825 202.995 132.801C202.9 132.78 202.776 132.933 202.736 133.097C202.717 133.174 202.72 133.238 202.735 133.287C202.431 132.991 201.781 132.807 201.253 132.853C200.985 132.873 200.79 132.952 200.657 133.055C200.601 133.099 200.528 133.116 200.46 133.095C200.28 133.04 200.067 133.051 199.86 133.148C199.577 133.277 199.397 133.571 199.429 133.845C199.511 134.354 199.951 134.667 200.367 134.594C200.476 134.574 200.574 134.527 200.663 134.466C200.715 134.429 200.782 134.424 200.839 134.452C200.98 134.525 201.158 134.554 201.395 134.536C201.86 134.496 202.42 134.286 202.713 134.013C202.697 134.061 202.692 134.125 202.704 134.203C202.731 134.37 202.812 134.532 202.885 134.519C202.95 134.507 202.994 134.325 202.982 134.158C202.98 134.145 202.978 134.136 202.976 134.124C202.995 134.128 203.013 134.133 203.033 134.135C203.105 134.139 203.132 134.136 203.19 134.119C203.26 134.11 203.327 134.088 203.385 134.057C203.501 133.995 203.585 133.893 203.611 133.768C203.638 133.642 203.603 133.516 203.528 133.415C203.49 133.364 203.443 133.32 203.387 133.285C203.317 133.249 203.205 133.214 203.129 133.21Z" fill="black"/>
<path d="M198.014 134.599L197.967 134.658C197.961 134.646 197.956 134.637 197.949 134.625C197.852 134.486 197.685 134.389 197.602 134.456C197.528 134.518 197.576 134.708 197.684 134.838C197.735 134.9 197.788 134.936 197.838 134.955C197.414 135.014 196.872 135.412 196.59 135.855C196.444 136.077 196.389 136.277 196.391 136.445C196.393 136.515 196.362 136.583 196.305 136.624C196.151 136.732 196.031 136.906 195.983 137.126C195.917 137.427 196.044 137.746 196.285 137.887C196.745 138.13 197.264 137.975 197.458 137.604C197.508 137.507 197.53 137.401 197.533 137.294C197.535 137.231 197.572 137.176 197.63 137.148C197.774 137.081 197.904 136.96 198.034 136.763C198.283 136.374 198.453 135.807 198.41 135.411C198.439 135.453 198.487 135.496 198.557 135.533C198.708 135.614 198.889 135.648 198.922 135.583C198.952 135.525 198.832 135.38 198.689 135.288C198.678 135.282 198.669 135.278 198.659 135.272C198.673 135.26 198.688 135.249 198.701 135.235C198.749 135.18 198.763 135.157 198.784 135.102C198.819 135.04 198.842 134.976 198.852 134.911C198.872 134.782 198.841 134.655 198.756 134.558C198.67 134.461 198.548 134.412 198.421 134.41C198.357 134.408 198.293 134.419 198.23 134.441C198.159 134.475 198.063 134.541 198.014 134.599Z" fill="black"/>
<path d="M207.795 133.463C207.773 133.466 207.753 133.473 207.733 133.479C207.735 133.466 207.736 133.456 207.738 133.443C207.746 133.274 207.688 133.095 207.609 133.091C207.53 133.085 207.455 133.249 207.442 133.417C207.435 133.495 207.446 133.559 207.467 133.606C207.144 133.359 206.577 133.199 206.116 133.194C205.881 133.187 205.706 133.234 205.57 133.318C205.515 133.354 205.447 133.351 205.393 133.317C205.248 133.226 205.074 133.184 204.881 133.219C204.621 133.257 204.384 133.443 204.278 133.703C204.079 134.178 204.398 134.699 204.924 134.746C205.054 134.757 205.179 134.74 205.291 134.699C205.357 134.674 205.431 134.689 205.49 134.725C205.631 134.817 205.831 134.876 206.102 134.883C206.639 134.889 207.278 134.648 207.549 134.327C207.538 134.378 207.541 134.441 207.566 134.517C207.618 134.677 207.748 134.826 207.836 134.798C207.924 134.767 207.933 134.578 207.876 134.419C207.87 134.408 207.866 134.399 207.86 134.388L207.929 134.383C208.238 134.334 208.446 134.089 208.395 133.837C208.343 133.586 208.075 133.418 207.795 133.463Z" fill="black"/>
<path d="M192.14 133.297C192.131 133.317 192.126 133.337 192.12 133.357C192.11 133.349 192.102 133.342 192.092 133.333C191.952 133.235 191.768 133.187 191.722 133.25C191.674 133.312 191.774 133.464 191.91 133.566C191.974 133.613 192.033 133.638 192.085 133.647C191.7 133.781 191.257 134.166 191.003 134.545C190.871 134.736 190.816 134.908 190.815 135.066C190.816 135.131 190.777 135.185 190.719 135.212C190.562 135.283 190.433 135.405 190.359 135.584C190.25 135.82 190.281 136.118 190.445 136.345C190.743 136.768 191.361 136.784 191.684 136.373C191.764 136.271 191.817 136.158 191.842 136.042C191.857 135.974 191.91 135.921 191.972 135.892C192.127 135.824 192.285 135.69 192.437 135.469C192.733 135.027 192.872 134.366 192.744 133.968C192.782 134.004 192.838 134.036 192.915 134.056C193.081 134.099 193.278 134.072 193.301 133.983C193.323 133.894 193.166 133.784 193 133.746C192.987 133.745 192.977 133.744 192.965 133.742L192.998 133.682C193.122 133.399 193.026 133.094 192.783 133.002C192.541 132.908 192.252 133.04 192.14 133.297Z" fill="black"/>
<path d="M212.084 131.879C212.065 131.891 212.049 131.905 212.033 131.918C212.029 131.906 212.026 131.897 212.023 131.883C211.96 131.726 211.832 131.587 211.757 131.614C211.683 131.642 211.686 131.828 211.745 131.987C211.772 132.061 211.808 132.114 211.847 132.149C211.444 132.047 210.865 132.143 210.443 132.32C210.233 132.422 210.087 132.52 209.999 132.65C209.962 132.702 209.902 132.732 209.839 132.723C209.673 132.707 209.497 132.732 209.334 132.833C209.115 132.974 208.977 133.246 208.982 133.518C208.989 134.041 209.49 134.381 209.998 134.219C210.125 134.185 210.231 134.112 210.316 134.026C210.367 133.975 210.439 133.954 210.508 133.966C210.676 133.994 210.891 133.982 211.136 133.864C211.632 133.656 212.107 133.165 212.224 132.772C212.235 132.823 212.265 132.88 212.319 132.937C212.433 133.062 212.61 133.139 212.678 133.077C212.746 133.014 212.675 132.839 212.556 132.717C212.546 132.709 212.538 132.703 212.529 132.695L212.59 132.663C212.855 132.501 212.941 132.19 212.787 131.978C212.638 131.773 212.325 131.732 212.084 131.879Z" fill="black"/>
<path d="M215.453 128.771C215.44 128.789 215.431 128.808 215.421 128.826C215.413 128.816 215.407 128.808 215.399 128.797C215.282 128.674 215.111 128.59 215.053 128.642C214.997 128.696 215.061 128.864 215.174 128.991C215.226 129.049 215.28 129.086 215.328 129.105C215.123 129.129 214.892 129.217 214.679 129.342C214.455 129.46 214.242 129.61 214.085 129.78C213.919 129.946 213.824 130.1 213.792 130.254C213.778 130.316 213.733 130.368 213.671 130.385C213.51 130.435 213.354 130.525 213.244 130.684C213.094 130.898 213.079 131.207 213.196 131.455C213.417 131.93 214.006 132.038 214.407 131.701C214.508 131.621 214.578 131.517 214.621 131.405C214.647 131.34 214.704 131.293 214.773 131.278C214.938 131.242 215.123 131.148 215.311 130.959C215.492 130.766 215.657 130.52 215.769 130.271C215.871 130.013 215.926 129.755 215.909 129.55C215.938 129.593 215.986 129.635 216.058 129.671C216.212 129.745 216.412 129.76 216.449 129.675C216.489 129.592 216.358 129.454 216.202 129.384C216.19 129.379 216.181 129.376 216.169 129.372L216.214 129.32C216.395 129.07 216.364 128.753 216.146 128.612C215.928 128.472 215.618 128.543 215.453 128.771Z" fill="black"/>
<path d="M217.336 124.651C217.331 124.672 217.33 124.693 217.327 124.714C217.316 124.708 217.307 124.703 217.295 124.696C217.139 124.631 216.947 124.622 216.913 124.693C216.878 124.763 217.012 124.892 217.168 124.962C217.241 124.995 217.304 125.007 217.356 125.005C217.013 125.218 216.663 125.688 216.494 126.107C216.416 126.325 216.393 126.499 216.42 126.651C216.431 126.713 216.409 126.776 216.359 126.814C216.228 126.918 216.127 127.062 216.082 127.246C216.027 127.498 216.128 127.788 216.328 127.976C216.71 128.338 217.305 128.224 217.549 127.757C217.613 127.645 217.631 127.517 217.632 127.398C217.632 127.328 217.667 127.262 217.726 127.222C217.869 127.126 218.002 126.964 218.093 126.711C218.292 126.217 218.285 125.541 218.07 125.179C218.115 125.206 218.177 125.225 218.256 125.228C218.428 125.236 218.61 125.166 218.614 125.075C218.619 124.984 218.444 124.91 218.272 124.908C218.258 124.909 218.249 124.91 218.236 124.911L218.258 124.847C218.322 124.545 218.151 124.266 217.896 124.226C217.637 124.185 217.394 124.377 217.336 124.651Z" fill="black"/>
<path d="M217.411 120.106C217.414 120.127 217.421 120.147 217.427 120.167C217.414 120.166 217.404 120.164 217.39 120.163C217.22 120.158 217.039 120.221 217.034 120.3C217.029 120.38 217.202 120.45 217.373 120.459C217.453 120.462 217.517 120.45 217.564 120.428C217.326 120.755 217.182 121.328 217.197 121.784C217.213 122.017 217.256 122.189 217.346 122.319C217.382 122.372 217.388 122.438 217.358 122.494C217.282 122.641 217.236 122.814 217.279 123.002C217.34 123.256 217.535 123.48 217.801 123.572C218.294 123.748 218.805 123.407 218.828 122.886C218.836 122.758 218.815 122.635 218.762 122.526C218.733 122.463 218.738 122.389 218.775 122.33C218.863 122.187 218.926 121.987 218.909 121.722C218.892 121.197 218.627 120.582 218.292 120.326C218.344 120.335 218.408 120.331 218.484 120.304C218.645 120.248 218.788 120.118 218.758 120.033C218.728 119.948 218.537 119.943 218.377 120.004C218.365 120.01 218.356 120.014 218.345 120.02L218.341 119.952C218.298 119.688 218.076 119.491 217.815 119.5C217.556 119.509 217.359 119.789 217.411 120.106Z" fill="black"/>
<path d="M217.913 115.178L217.894 115.247C217.884 115.239 217.877 115.233 217.865 115.224C217.721 115.132 217.532 115.1 217.484 115.185C217.435 115.271 217.548 115.431 217.697 115.514C217.766 115.553 217.829 115.568 217.882 115.568C217.511 115.774 217.153 116.376 217.08 116.902C217.04 117.168 217.071 117.371 217.146 117.523C217.177 117.585 217.174 117.659 217.14 117.718C217.049 117.878 217.004 118.077 217.051 118.287C217.107 118.573 217.337 118.801 217.609 118.861C218.122 118.969 218.571 118.605 218.596 118.159C218.604 118.045 218.583 117.936 218.539 117.836C218.513 117.777 218.527 117.711 218.568 117.662C218.669 117.541 218.74 117.377 218.775 117.15C218.838 116.7 218.772 116.144 218.583 115.788C218.626 115.817 218.687 115.839 218.766 115.849C218.936 115.871 219.118 115.84 219.126 115.768C219.134 115.697 218.968 115.602 218.801 115.572C218.788 115.57 218.778 115.569 218.766 115.568C218.775 115.551 218.785 115.533 218.792 115.514C218.892 115.272 218.799 114.986 218.577 114.863C218.345 114.735 218.037 114.875 217.913 115.178Z" fill="black"/>
<path d="M206.985 136.189L206.917 136.193C206.921 136.181 206.925 136.172 206.929 136.159C206.969 135.994 206.941 135.808 206.86 135.79C206.779 135.774 206.669 135.925 206.623 136.084C206.601 136.16 206.6 136.224 206.613 136.274C206.48 136.128 206.286 135.994 206.072 135.89C205.966 135.831 205.856 135.772 205.744 135.726C205.684 135.704 205.629 135.683 205.575 135.663L205.49 135.636C205.423 135.622 205.358 135.607 205.294 135.593C205.23 135.59 205.169 135.589 205.108 135.587C204.849 135.58 204.651 135.623 204.503 135.703C204.442 135.735 204.368 135.737 204.308 135.703C204.146 135.615 203.954 135.573 203.746 135.604C203.465 135.647 203.22 135.834 203.109 136.09C202.892 136.567 203.261 137.089 203.823 137.135C203.962 137.147 204.095 137.129 204.213 137.085C204.283 137.06 204.363 137.07 204.424 137.11C204.574 137.206 204.781 137.268 205.069 137.275C205.122 137.276 205.124 137.276 205.129 137.273L205.131 137.27C205.141 137.271 205.082 137.259 205.123 137.265L205.23 137.275C205.299 137.278 205.371 137.281 205.447 137.284C205.592 137.284 205.736 137.279 205.873 137.257C206.15 137.202 206.394 137.113 206.558 136.998C206.537 137.045 206.527 137.108 206.539 137.187C206.564 137.358 206.675 137.526 206.776 137.509C206.877 137.495 206.923 137.31 206.891 137.144C206.887 137.131 206.884 137.122 206.88 137.11L206.955 137.118C207.297 137.13 207.564 136.918 207.553 136.656C207.542 136.405 207.287 136.2 206.985 136.189Z" fill="black"/>
<path d="M211.786 135.108L211.726 135.144C211.725 135.132 211.723 135.122 211.722 135.108C211.68 134.943 211.567 134.792 211.484 134.814C211.4 134.832 211.371 135.016 211.408 135.182C211.425 135.258 211.455 135.315 211.49 135.354C211.084 135.225 210.449 135.262 209.975 135.401C209.732 135.468 209.567 135.571 209.452 135.691C209.405 135.737 209.336 135.758 209.27 135.741C209.094 135.694 208.906 135.715 208.717 135.797C208.462 135.9 208.271 136.15 208.232 136.429C208.152 136.943 208.633 137.35 209.204 137.25C209.343 137.221 209.47 137.166 209.575 137.093C209.637 137.05 209.717 137.038 209.791 137.06C209.966 137.107 210.189 137.096 210.473 137.017C211.03 136.854 211.608 136.413 211.789 136.017C211.793 136.068 211.816 136.129 211.863 136.192C211.965 136.329 212.14 136.428 212.223 136.374C212.303 136.316 212.256 136.132 212.15 135.999C212.141 135.989 212.134 135.983 212.125 135.974L212.194 135.946C212.493 135.798 212.635 135.495 212.51 135.269C212.386 135.044 212.062 134.971 211.786 135.108Z" fill="black"/>
<path d="M219.488 132.123L219.46 132.186C219.452 132.176 219.445 132.169 219.435 132.159C219.306 132.046 219.126 131.985 219.071 132.05C219.012 132.113 219.095 132.28 219.219 132.395C219.278 132.449 219.335 132.479 219.387 132.491C218.978 132.613 218.478 133 218.168 133.38C218.007 133.571 217.931 133.75 217.906 133.912C217.894 133.976 217.849 134.032 217.785 134.055C217.614 134.116 217.47 134.238 217.363 134.411C217.213 134.64 217.2 134.953 217.329 135.203C217.56 135.672 218.191 135.735 218.602 135.333C218.7 135.231 218.772 135.115 218.816 134.996C218.842 134.926 218.902 134.87 218.974 134.847C219.146 134.787 219.323 134.653 219.51 134.429C219.875 133.982 220.095 133.295 220.015 132.868C220.049 132.908 220.101 132.945 220.178 132.971C220.341 133.026 220.542 133.008 220.578 132.918C220.611 132.826 220.466 132.7 220.302 132.65C220.289 132.648 220.28 132.646 220.267 132.643L220.308 132.582C220.468 132.293 220.41 131.964 220.177 131.848C219.945 131.733 219.636 131.855 219.488 132.123Z" fill="black"/>
<path d="M215.891 132.242L215.844 132.294C215.839 132.283 215.834 132.274 215.828 132.261C215.737 132.117 215.582 132.008 215.508 132.055C215.436 132.104 215.467 132.291 215.554 132.435C215.594 132.502 215.641 132.547 215.687 132.572C215.256 132.574 214.66 132.829 214.255 133.137C214.053 133.298 213.924 133.443 213.862 133.6C213.836 133.663 213.78 133.711 213.713 133.723C213.535 133.759 213.354 133.836 213.211 133.991C213.019 134.202 212.945 134.508 213.025 134.77C213.176 135.272 213.779 135.446 214.246 135.137C214.363 135.063 214.456 134.967 214.519 134.857C214.557 134.793 214.625 134.751 214.698 134.743C214.874 134.721 215.085 134.647 215.308 134.47C215.756 134.128 216.139 133.533 216.185 133.106C216.206 133.154 216.247 133.204 216.313 133.25C216.454 133.348 216.649 133.387 216.705 133.308C216.762 133.231 216.659 133.071 216.517 132.976C216.505 132.97 216.497 132.966 216.486 132.96L216.542 132.914C216.779 132.686 216.821 132.357 216.634 132.178C216.448 131.998 216.115 132.027 215.891 132.242Z" fill="black"/>
<path d="M218.9 128.312L218.877 128.376C218.867 128.367 218.86 128.36 218.85 128.351C218.712 128.25 218.527 128.202 218.478 128.27C218.43 128.337 218.527 128.498 218.658 128.602C218.721 128.651 218.78 128.677 218.832 128.685C218.43 128.832 217.968 129.248 217.675 129.647C217.531 129.853 217.465 130.036 217.444 130.197C217.437 130.264 217.397 130.325 217.336 130.354C217.174 130.434 217.033 130.567 216.935 130.751C216.807 131.004 216.827 131.323 216.98 131.552C217.271 131.99 217.894 131.984 218.257 131.562C218.348 131.458 218.404 131.335 218.437 131.214C218.456 131.142 218.51 131.082 218.578 131.054C218.749 130.988 218.917 130.845 219.083 130.608C219.421 130.146 219.594 129.434 219.487 129.015C219.524 129.053 219.579 129.086 219.657 129.106C219.825 129.15 220.024 129.115 220.049 129.018C220.076 128.922 219.921 128.809 219.754 128.772C219.74 128.771 219.73 128.77 219.718 128.769L219.755 128.704C219.903 128.403 219.803 128.075 219.559 127.981C219.318 127.888 219.034 128.041 218.9 128.312Z" fill="black"/>
<path d="M220.023 123.506L220.024 123.576C220.012 123.571 220.003 123.568 219.991 123.562C219.825 123.515 219.636 123.536 219.61 123.621C219.586 123.706 219.736 123.825 219.9 123.874C219.976 123.897 220.041 123.899 220.092 123.887C219.777 124.176 219.515 124.769 219.425 125.262C219.386 125.514 219.399 125.708 219.455 125.862C219.479 125.925 219.47 125.997 219.428 126.05C219.321 126.194 219.239 126.367 219.24 126.574C219.245 126.856 219.379 127.125 219.622 127.275C220.063 127.557 220.649 127.295 220.784 126.748C220.822 126.614 220.826 126.48 220.798 126.356C220.783 126.283 220.804 126.206 220.854 126.151C220.974 126.017 221.071 125.82 221.114 125.54C221.215 124.987 221.084 124.299 220.825 123.953C220.873 123.975 220.937 123.985 221.017 123.975C221.187 123.955 221.358 123.855 221.35 123.761C221.342 123.667 221.157 123.616 220.987 123.639C220.974 123.642 220.965 123.645 220.952 123.648C220.957 123.624 220.962 123.601 220.963 123.577C220.985 123.255 220.791 122.982 220.531 122.968C220.272 122.954 220.044 123.195 220.023 123.506Z" fill="black"/>
<path d="M219.612 118.521C219.615 118.545 219.622 118.568 219.629 118.591C219.615 118.589 219.606 118.587 219.592 118.585C219.42 118.574 219.24 118.637 219.237 118.731C219.235 118.824 219.411 118.911 219.582 118.92C219.663 118.925 219.726 118.911 219.773 118.886C219.538 119.248 219.45 119.921 219.535 120.436C219.578 120.698 219.659 120.882 219.768 121.011C219.813 121.065 219.828 121.136 219.807 121.2C219.749 121.372 219.748 121.567 219.812 121.743C219.859 121.878 219.931 121.935 220.028 122.049C220.123 122.153 220.245 122.232 220.381 122.27C220.634 122.343 220.878 122.282 221.063 122.135C221.157 122.07 221.231 121.956 221.278 121.81C221.321 121.681 221.342 121.532 221.325 121.395C221.311 121.253 221.266 121.126 221.199 121.021C221.161 120.958 221.155 120.878 221.182 120.813C221.249 120.649 221.27 120.438 221.226 120.168C221.139 119.636 220.834 119.041 220.499 118.773C220.551 118.782 220.615 118.776 220.691 118.748C220.851 118.687 220.993 118.557 220.963 118.473C220.933 118.389 220.741 118.381 220.581 118.44C220.569 118.446 220.56 118.45 220.549 118.455L220.545 118.386C220.499 118.079 220.262 117.858 220.002 117.884C219.744 117.909 219.564 118.2 219.612 118.521Z" fill="black"/>
<path d="M197.846 128.359C197.84 128.378 197.838 128.398 197.834 128.417C197.823 128.41 197.816 128.404 197.804 128.396C197.652 128.313 197.473 128.28 197.431 128.334C197.387 128.387 197.5 128.524 197.64 128.62C197.706 128.664 197.766 128.688 197.818 128.695C197.46 128.84 196.999 129.153 196.725 129.502C196.575 129.675 196.494 129.835 196.473 129.991C196.464 130.054 196.424 130.109 196.364 130.13C196.195 130.18 196.046 130.285 195.943 130.454C195.81 130.686 195.789 130.985 195.922 131.231C196.163 131.688 196.775 131.783 197.159 131.405C197.255 131.314 197.326 131.208 197.37 131.096C197.394 131.028 197.449 130.973 197.518 130.952C197.685 130.899 197.868 130.783 198.053 130.569C198.409 130.127 198.64 129.42 198.489 128.992C198.527 129.028 198.584 129.059 198.663 129.074C198.831 129.109 199.031 129.057 199.058 128.956C199.083 128.853 198.912 128.75 198.744 128.731H198.709L198.738 128.662C198.853 128.333 198.691 128.024 198.43 127.984C198.176 127.947 197.933 128.117 197.846 128.359Z" fill="black"/>
<path d="M197.518 123.741L197.528 123.809C197.516 123.806 197.506 123.804 197.492 123.8C197.323 123.776 197.137 123.823 197.126 123.913C197.113 124.004 197.284 124.099 197.454 124.12C197.533 124.13 197.597 124.122 197.646 124.102C197.373 124.408 197.258 125.13 197.371 125.639C197.425 125.901 197.514 126.066 197.629 126.184C197.677 126.232 197.696 126.298 197.676 126.359C197.627 126.523 197.633 126.701 197.703 126.866C197.806 127.094 198.025 127.268 198.308 127.334C198.563 127.391 198.808 127.33 198.976 127.163C199.152 126.995 199.241 126.73 199.2 126.457C199.18 126.321 199.127 126.206 199.057 126.105C199.016 126.046 199.007 125.97 199.03 125.907C199.088 125.751 199.1 125.545 199.05 125.307C198.947 124.832 198.688 124.342 198.38 124.045C198.431 124.057 198.495 124.056 198.572 124.035C198.737 123.989 198.888 123.878 198.867 123.799C198.846 123.719 198.656 123.697 198.49 123.739C198.478 123.744 198.469 123.748 198.457 123.752L198.46 123.686C198.439 123.395 198.226 123.165 197.965 123.17C197.705 123.175 197.497 123.432 197.518 123.741Z" fill="black"/>
<path d="M198.242 118.766L198.219 118.833C198.21 118.825 198.202 118.819 198.192 118.809C198.051 118.712 197.863 118.674 197.81 118.756C197.758 118.837 197.864 119.001 198.008 119.092C198.076 119.134 198.137 119.153 198.19 119.154C197.814 119.347 197.403 119.937 197.311 120.482C197.249 120.755 197.286 120.968 197.348 121.127C197.374 121.192 197.369 121.268 197.335 121.329C197.241 121.491 197.187 121.696 197.229 121.913C197.284 122.209 197.499 122.444 197.776 122.512C198.286 122.633 198.742 122.266 198.778 121.815C198.789 121.7 198.771 121.59 198.73 121.486C198.704 121.426 198.719 121.36 198.764 121.312C198.876 121.196 198.94 121.029 198.992 120.804C199.067 120.354 199.052 119.785 198.879 119.409C198.92 119.44 198.98 119.466 199.058 119.479C199.228 119.508 199.414 119.48 199.427 119.405C199.441 119.329 199.28 119.227 199.113 119.192C199.1 119.19 199.091 119.189 199.078 119.188C199.088 119.169 199.1 119.152 199.108 119.132C199.213 118.872 199.145 118.58 198.91 118.457C198.685 118.338 198.364 118.467 198.242 118.766Z" fill="black"/>
<path d="M201.536 118.129L201.5 118.192C201.492 118.181 201.486 118.174 201.477 118.162C201.36 118.038 201.184 117.963 201.116 118.032C201.048 118.102 201.117 118.284 201.238 118.401C201.296 118.457 201.352 118.487 201.404 118.5C200.996 118.611 200.471 119.106 200.267 119.621C200.15 119.875 200.141 120.091 200.169 120.259C200.181 120.328 200.161 120.402 200.114 120.454C199.988 120.594 199.893 120.785 199.889 121.005C199.881 121.306 200.043 121.579 200.3 121.701C200.773 121.923 201.296 121.656 201.426 121.222C201.46 121.112 201.466 121 201.447 120.891C201.434 120.827 201.463 120.765 201.517 120.727C201.65 120.636 201.748 120.486 201.846 120.276C202.013 119.851 202.116 119.291 202.025 118.888C202.059 118.927 202.112 118.965 202.186 118.993C202.346 119.055 202.534 119.066 202.563 118.995C202.592 118.924 202.456 118.791 202.3 118.723C202.287 118.719 202.278 118.716 202.267 118.712C202.281 118.696 202.295 118.681 202.307 118.664C202.464 118.431 202.458 118.13 202.254 117.963C202.059 117.801 201.718 117.862 201.536 118.129Z" fill="black"/>
<path d="M201.526 114.898C201.507 114.912 201.49 114.929 201.473 114.945C201.469 114.933 201.466 114.924 201.461 114.91C201.39 114.756 201.25 114.628 201.166 114.67C201.082 114.713 201.09 114.907 201.165 115.059C201.2 115.13 201.243 115.178 201.287 115.206C200.856 115.163 200.225 115.447 199.832 115.823C199.636 116.025 199.531 116.214 199.493 116.382C199.475 116.449 199.434 116.515 199.368 116.546C199.197 116.633 199.032 116.777 198.945 116.988C198.829 117.277 198.876 117.589 199.081 117.79C199.456 118.15 200.034 118.079 200.301 117.735C200.373 117.648 200.417 117.548 200.439 117.442C200.453 117.38 200.496 117.329 200.562 117.316C200.719 117.28 200.875 117.192 201.036 117.025C201.376 116.701 201.673 116.178 201.738 115.78C201.757 115.828 201.794 115.88 201.854 115.932C201.983 116.043 202.158 116.11 202.21 116.05C202.263 115.989 202.178 115.819 202.054 115.705C202.043 115.697 202.035 115.692 202.026 115.684L202.08 115.65C202.319 115.488 202.398 115.182 202.258 114.965C202.117 114.749 201.789 114.719 201.526 114.898Z" fill="black"/>
<path d="M206.261 113.002L206.191 113.018C206.193 113.005 206.195 112.995 206.198 112.982C206.212 112.812 206.152 112.634 206.055 112.631C205.958 112.629 205.868 112.803 205.861 112.972C205.857 113.05 205.872 113.112 205.897 113.159C205.539 112.921 204.825 112.875 204.296 113.057C204.026 113.142 203.85 113.267 203.744 113.407C203.699 113.463 203.63 113.497 203.557 113.495C203.363 113.488 203.162 113.559 202.986 113.696C202.75 113.892 202.655 114.202 202.734 114.466C202.891 114.964 203.437 115.16 203.847 114.973C203.952 114.926 204.036 114.849 204.108 114.769C204.15 114.72 204.215 114.699 204.279 114.713C204.433 114.744 204.614 114.729 204.838 114.659C205.273 114.509 205.769 114.197 206.016 113.874C206.009 113.925 206.016 113.989 206.044 114.063C206.104 114.222 206.222 114.364 206.296 114.336C206.369 114.308 206.378 114.119 206.325 113.96C206.32 113.947 206.316 113.939 206.311 113.928L206.376 113.924C206.659 113.899 206.88 113.668 206.868 113.415C206.856 113.155 206.584 112.972 206.261 113.002Z" fill="black"/>
<path d="M201.442 135.549L201.382 135.588C201.38 135.575 201.378 135.566 201.376 135.552C201.329 135.388 201.209 135.242 201.117 135.273C201.026 135.304 201.004 135.498 201.056 135.659C201.081 135.734 201.117 135.787 201.157 135.822C200.737 135.723 200.052 135.926 199.621 136.279C199.399 136.452 199.278 136.63 199.228 136.798C199.207 136.866 199.154 136.922 199.085 136.944C198.901 137.005 198.738 137.142 198.621 137.331C198.47 137.596 198.491 137.919 198.659 138.139C198.983 138.55 199.564 138.545 199.881 138.229C199.963 138.149 200.015 138.047 200.053 137.947C200.075 137.888 200.129 137.846 200.194 137.837C200.349 137.812 200.513 137.736 200.698 137.593C201.052 137.302 201.406 136.839 201.523 136.451C201.535 136.501 201.564 136.558 201.616 136.617C201.728 136.746 201.889 136.838 201.949 136.787C202.008 136.735 201.949 136.555 201.843 136.423C201.834 136.414 201.827 136.408 201.818 136.399L201.877 136.373C202.134 136.252 202.258 135.959 202.158 135.726C202.053 135.487 201.734 135.41 201.442 135.549Z" fill="black"/>
<path d="M211.196 113.332L211.134 113.341C211.137 113.329 211.14 113.32 211.143 113.307C211.169 113.14 211.132 112.957 211.059 112.938C210.985 112.921 210.894 113.078 210.858 113.244C210.841 113.321 210.843 113.384 210.857 113.434C210.57 113.148 210.065 112.896 209.576 112.803C209.329 112.758 209.123 112.775 208.962 112.837C208.898 112.861 208.823 112.855 208.76 112.817C208.598 112.711 208.387 112.658 208.16 112.693C207.851 112.729 207.604 112.958 207.535 113.223C207.415 113.729 207.777 114.171 208.216 114.221C208.33 114.23 208.439 114.223 208.543 114.185C208.604 114.163 208.672 114.179 208.722 114.226C208.84 114.335 209.012 114.418 209.274 114.466C209.787 114.566 210.514 114.446 210.84 114.159C210.822 114.208 210.815 114.272 210.83 114.349C210.862 114.515 210.981 114.675 211.08 114.659C211.18 114.645 211.212 114.456 211.17 114.292C211.165 114.28 211.162 114.271 211.158 114.259C211.182 114.262 211.206 114.262 211.231 114.261C211.565 114.245 211.802 114.008 211.763 113.748C211.725 113.5 211.472 113.318 211.196 113.332Z" fill="black"/>
<path d="M215.428 111.61L215.377 111.653C215.373 111.64 215.37 111.631 215.365 111.618C215.293 111.466 215.156 111.335 215.08 111.367C215.004 111.4 215.015 111.586 215.084 111.741C215.116 111.813 215.156 111.864 215.197 111.895C214.789 111.838 214.195 111.979 213.785 112.188C213.576 112.297 213.446 112.427 213.363 112.551C213.329 112.604 213.27 112.636 213.207 112.631C213.038 112.621 212.869 112.661 212.712 112.761C212.504 112.912 212.368 113.17 212.37 113.447C212.365 113.968 212.891 114.317 213.428 114.124C213.561 114.08 213.665 113.996 213.752 113.907C213.802 113.854 213.877 113.828 213.95 113.835C214.131 113.86 214.339 113.81 214.588 113.68C215.083 113.426 215.532 112.906 215.617 112.492C215.631 112.541 215.665 112.596 215.723 112.65C215.847 112.767 216.03 112.833 216.095 112.767C216.16 112.702 216.079 112.531 215.952 112.417C215.941 112.409 215.933 112.404 215.923 112.396L215.984 112.361C216.245 112.186 216.302 111.854 216.145 111.656C215.981 111.45 215.671 111.448 215.428 111.61Z" fill="black"/>
<path d="M195.181 126.189L195.202 126.254C195.189 126.253 195.179 126.252 195.165 126.251C194.994 126.255 194.818 126.331 194.821 126.42C194.817 126.452 194.846 126.428 194.909 126.435C194.97 126.435 195.051 126.468 195.136 126.471C195.215 126.478 195.28 126.473 195.329 126.457C195.059 126.71 194.81 127.228 194.734 127.678C194.695 127.906 194.713 128.083 194.771 128.227C194.796 128.286 194.787 128.352 194.744 128.397C194.633 128.523 194.562 128.679 194.561 128.863C194.557 129.108 194.695 129.355 194.923 129.523C195.335 129.852 195.943 129.629 196.093 129.097C196.132 128.968 196.132 128.841 196.11 128.722C196.097 128.652 196.118 128.58 196.166 128.529C196.286 128.405 196.378 128.218 196.423 127.953C196.513 127.43 196.376 126.753 196.063 126.413C196.114 126.428 196.179 126.431 196.256 126.407C196.337 126.378 196.422 126.343 196.471 126.264C196.521 126.191 196.539 126.076 196.52 126.025C196.487 125.952 196.296 125.961 196.139 126.03C196.128 126.036 196.119 126.041 196.109 126.047L196.101 125.983C196.041 125.704 195.784 125.517 195.528 125.564C195.272 125.611 195.117 125.891 195.181 126.189Z" fill="black"/>
<path d="M194.852 121.304L194.851 121.373C194.839 121.368 194.83 121.364 194.817 121.358C194.654 121.307 194.463 121.323 194.437 121.41C194.41 121.498 194.56 121.62 194.723 121.666C194.8 121.688 194.865 121.689 194.917 121.677C194.608 121.955 194.375 122.588 194.394 123.114C194.393 123.38 194.471 123.572 194.566 123.711C194.606 123.766 194.617 123.839 194.592 123.904C194.519 124.076 194.52 124.277 194.596 124.477C194.698 124.75 194.951 124.939 195.236 124.958C195.757 124.992 196.148 124.56 196.101 124.108C196.085 123.994 196.048 123.889 195.992 123.795C195.958 123.741 195.958 123.673 195.991 123.617C196.075 123.481 196.104 123.304 196.106 123.069C196.09 122.607 195.918 122.046 195.65 121.733C195.698 121.752 195.762 121.761 195.842 121.752C196.012 121.733 196.183 121.652 196.174 121.574C196.166 121.496 195.982 121.444 195.812 121.458C195.799 121.461 195.789 121.463 195.777 121.465L195.789 121.403C195.813 121.122 195.644 120.864 195.389 120.824C195.13 120.783 194.878 120.997 194.852 121.304Z" fill="black"/>
<path d="M196.405 116.623L196.375 116.686C196.366 116.676 196.36 116.669 196.35 116.658C196.223 116.544 196.044 116.48 195.983 116.551C195.922 116.621 196.007 116.794 196.137 116.904C196.198 116.955 196.256 116.982 196.308 116.992C196.099 117.053 195.888 117.21 195.695 117.413C195.495 117.612 195.331 117.865 195.238 118.115C195.137 118.367 195.114 118.571 195.159 118.739C195.176 118.807 195.159 118.88 195.111 118.932C194.989 119.07 194.888 119.255 194.896 119.474C194.897 119.771 195.065 120.039 195.32 120.154C195.798 120.363 196.323 120.098 196.433 119.67C196.467 119.562 196.472 119.452 196.452 119.346C196.44 119.283 196.465 119.221 196.515 119.182C196.634 119.085 196.748 118.944 196.834 118.73C196.912 118.516 196.965 118.267 196.995 118.024C197.018 117.778 197.001 117.532 196.953 117.341C196.989 117.378 197.044 117.412 197.12 117.437C197.283 117.489 197.47 117.486 197.494 117.412C197.518 117.337 197.372 117.215 197.212 117.158C197.199 117.155 197.19 117.153 197.178 117.15C197.191 117.133 197.204 117.117 197.215 117.098C197.349 116.851 197.318 116.556 197.099 116.409C196.887 116.267 196.555 116.35 196.405 116.623Z" fill="black"/>
<path d="M220.247 112.793L220.24 112.862C220.228 112.856 220.219 112.851 220.207 112.844C220.049 112.777 219.858 112.774 219.824 112.86C219.79 112.946 219.927 113.083 220.086 113.144C220.16 113.173 220.225 113.18 220.277 113.173C220.099 113.298 219.951 113.514 219.835 113.767C219.711 114.02 219.639 114.312 219.634 114.578C219.621 114.848 219.666 115.049 219.764 115.194C219.801 115.253 219.81 115.327 219.782 115.391C219.712 115.561 219.677 115.768 219.757 115.973C219.855 116.254 220.102 116.453 220.38 116.481C220.902 116.526 221.312 116.107 221.275 115.667C221.272 115.554 221.24 115.449 221.186 115.354C221.154 115.299 221.158 115.232 221.192 115.179C221.272 115.049 221.334 114.88 221.345 114.65C221.349 114.422 221.317 114.169 221.266 113.93C221.207 113.691 221.109 113.463 221.001 113.299C221.048 113.321 221.111 113.336 221.191 113.335C221.362 113.332 221.539 113.269 221.537 113.191C221.535 113.113 221.357 113.044 221.187 113.041C221.173 113.043 221.164 113.044 221.152 113.045C221.158 113.024 221.165 113.005 221.169 112.984C221.215 112.708 221.089 112.438 220.834 112.369C220.586 112.303 220.299 112.487 220.247 112.793Z" fill="black"/>
<path d="M199.792 113.014L199.739 113.059C199.735 113.047 199.732 113.038 199.728 113.025C199.656 112.872 199.515 112.743 199.432 112.783C199.349 112.823 199.358 113.013 199.433 113.163C199.469 113.234 199.512 113.282 199.555 113.311C199.141 113.277 198.509 113.529 198.128 113.898C197.928 114.074 197.832 114.265 197.795 114.43C197.78 114.498 197.733 114.556 197.668 114.582C197.493 114.652 197.327 114.779 197.238 114.981C197.11 115.25 197.144 115.563 197.325 115.774C197.665 116.163 198.259 116.15 198.539 115.805C198.618 115.722 198.67 115.625 198.699 115.521C198.717 115.46 198.767 115.415 198.83 115.401C198.986 115.368 199.134 115.274 199.313 115.118C199.646 114.794 199.956 114.293 200.007 113.884C200.026 113.932 200.063 113.984 200.123 114.036C200.252 114.148 200.428 114.217 200.481 114.159C200.535 114.099 200.449 113.931 200.323 113.817C200.313 113.809 200.305 113.803 200.295 113.796L200.351 113.763C200.58 113.593 200.653 113.29 200.512 113.079C200.365 112.862 200.041 112.83 199.792 113.014Z" fill="black"/>
<path d="M204.276 110.879L204.21 110.904C204.211 110.891 204.212 110.881 204.212 110.867C204.202 110.698 204.119 110.529 204.027 110.537C203.935 110.546 203.874 110.729 203.889 110.897C203.895 110.976 203.918 111.035 203.947 111.078C203.57 110.884 202.886 110.903 202.395 111.116C202.144 111.217 201.983 111.346 201.891 111.492C201.853 111.55 201.789 111.589 201.718 111.589C201.531 111.593 201.333 111.656 201.175 111.808C200.958 112.009 200.875 112.312 200.963 112.574C201.132 113.06 201.691 113.264 202.086 113.042C202.189 112.992 202.274 112.919 202.339 112.832C202.378 112.78 202.442 112.755 202.506 112.764C202.661 112.783 202.842 112.76 203.061 112.672C203.486 112.487 203.954 112.123 204.156 111.774C204.156 111.825 204.171 111.887 204.207 111.957C204.286 112.107 204.423 112.233 204.494 112.196C204.564 112.158 204.547 111.97 204.473 111.819C204.466 111.808 204.461 111.8 204.454 111.79L204.517 111.778C204.793 111.705 204.978 111.46 204.923 111.205C204.87 110.957 204.577 110.8 204.276 110.879Z" fill="black"/>
<path d="M209.258 110.597L209.188 110.593C209.194 110.581 209.198 110.573 209.204 110.56C209.264 110.401 209.256 110.213 209.167 110.184C209.079 110.155 208.948 110.297 208.894 110.457C208.869 110.532 208.865 110.596 208.875 110.647C208.606 110.324 207.964 110.08 207.424 110.083C207.151 110.08 206.951 110.151 206.809 110.242C206.751 110.281 206.676 110.29 206.61 110.264C206.435 110.197 206.228 110.196 206.022 110.268C205.74 110.361 205.551 110.632 205.533 110.905C205.507 111.426 205.944 111.791 206.393 111.755C206.508 111.744 206.613 111.7 206.707 111.646C206.762 111.613 206.83 111.616 206.886 111.649C207.021 111.734 207.197 111.769 207.432 111.772C207.893 111.77 208.462 111.612 208.788 111.367C208.767 111.414 208.756 111.477 208.761 111.555C208.773 111.724 208.847 111.894 208.926 111.888C209.005 111.882 209.065 111.704 209.058 111.536C209.056 111.523 209.055 111.513 209.053 111.501C209.074 111.507 209.094 111.513 209.115 111.516C209.397 111.55 209.67 111.398 209.721 111.144C209.77 110.895 209.57 110.636 209.258 110.597Z" fill="black"/>
<path d="M213.695 110.206L213.635 110.235C213.634 110.223 213.634 110.213 213.633 110.199C213.603 110.033 213.504 109.872 213.419 109.887C213.334 109.901 213.296 110.085 213.326 110.251C213.339 110.329 213.366 110.387 213.399 110.428C213.018 110.266 212.379 110.298 211.945 110.438C211.837 110.472 211.747 110.513 211.695 110.55C211.654 110.574 211.668 110.582 211.661 110.603C211.659 110.624 211.611 110.645 211.591 110.669C211.549 110.71 211.49 110.717 211.441 110.689C211.31 110.613 211.167 110.582 210.992 110.614C210.756 110.657 210.507 110.834 210.394 111.089C210.185 111.558 210.462 112.094 211.058 112.143C211.204 112.153 211.348 112.127 211.47 112.074C211.543 112.041 211.627 112.045 211.698 112.074C211.747 112.091 211.776 112.112 211.855 112.118C211.928 112.124 212.032 112.121 212.083 112.118C212.217 112.111 212.339 112.087 212.473 112.045C212.989 111.878 213.482 111.477 213.662 111.105C213.666 111.156 213.685 111.217 213.727 111.284C213.819 111.427 213.974 111.538 214.047 111.492C214.121 111.447 214.085 111.261 213.993 111.119C213.985 111.108 213.979 111.101 213.971 111.092L214.036 111.073C214.315 110.967 214.464 110.687 214.371 110.447C214.278 110.207 213.974 110.1 213.695 110.206Z" fill="black"/>
<path d="M192.165 122.711L192.18 122.784C192.167 122.782 192.158 122.779 192.144 122.776C191.972 122.758 191.79 122.817 191.786 122.916C191.782 123.016 191.956 123.113 192.127 123.125C192.207 123.131 192.27 123.117 192.317 123.093C192.071 123.458 192.038 124.208 192.144 124.684C192.199 124.941 192.288 125.12 192.402 125.245C192.449 125.296 192.469 125.368 192.45 125.434C192.401 125.611 192.408 125.807 192.487 125.999C192.598 126.259 192.84 126.448 193.119 126.493C193.64 126.592 194.068 126.106 193.976 125.557C193.954 125.42 193.904 125.298 193.833 125.194C193.792 125.133 193.783 125.055 193.807 124.987C193.866 124.82 193.878 124.606 193.82 124.334C193.695 123.769 193.37 123.257 193.045 122.987C193.097 122.996 193.161 122.99 193.237 122.963C193.399 122.905 193.545 122.784 193.518 122.705C193.491 122.625 193.299 122.612 193.137 122.664C193.125 122.669 193.116 122.673 193.105 122.678L193.102 122.611C193.06 122.312 192.854 122.075 192.588 122.086C192.334 122.096 192.119 122.378 192.165 122.711Z" fill="black"/>
<path d="M192.95 117.445L192.929 117.516C192.919 117.507 192.911 117.501 192.901 117.492C192.758 117.395 192.57 117.36 192.519 117.446C192.468 117.53 192.575 117.697 192.719 117.789C192.786 117.832 192.849 117.85 192.902 117.851C192.507 118.054 192.102 118.664 191.979 119.231C191.904 119.514 191.936 119.743 191.994 119.912C192.019 119.981 192.012 120.061 191.971 120.125C191.858 120.294 191.824 120.515 191.851 120.747C191.886 121.064 192.123 121.318 192.392 121.389C192.907 121.515 193.347 121.132 193.403 120.662C193.415 120.541 193.392 120.424 193.362 120.316C193.343 120.252 193.359 120.182 193.405 120.132C193.519 120.01 193.586 119.836 193.651 119.595C193.754 119.12 193.742 118.495 193.591 118.104C193.632 118.137 193.691 118.162 193.771 118.175C193.941 118.2 194.128 118.162 194.142 118.078C194.157 117.995 193.995 117.893 193.827 117.862C193.814 117.861 193.805 117.86 193.792 117.859L193.822 117.798C193.938 117.517 193.862 117.207 193.625 117.095C193.393 116.985 193.078 117.136 192.95 117.445Z" fill="black"/>
<path d="M195.915 113.037L195.868 113.094C195.862 113.083 195.857 113.074 195.85 113.062C195.753 112.923 195.59 112.823 195.511 112.88C195.43 112.935 195.475 113.132 195.575 113.269C195.622 113.334 195.673 113.373 195.721 113.393C195.284 113.441 194.685 113.836 194.341 114.288C194.172 114.52 194.094 114.726 194.076 114.902C194.069 114.974 194.029 115.043 193.965 115.082C193.8 115.19 193.663 115.362 193.588 115.58C193.479 115.874 193.573 116.204 193.779 116.389C194.178 116.735 194.749 116.591 195.018 116.183C195.084 116.078 195.121 115.962 195.136 115.847C195.147 115.78 195.193 115.722 195.257 115.695C195.414 115.629 195.565 115.504 195.715 115.296C196.021 114.896 196.266 114.302 196.268 113.879C196.294 113.924 196.34 113.969 196.409 114.009C196.558 114.094 196.743 114.119 196.792 114.048C196.84 113.975 196.728 113.823 196.581 113.735C196.569 113.729 196.56 113.725 196.549 113.72L196.602 113.674C196.819 113.452 196.847 113.123 196.664 112.94C196.481 112.757 196.146 112.801 195.915 113.037Z" fill="black"/>
<path d="M192.544 128.215L192.555 128.287C192.543 128.284 192.533 128.282 192.519 128.279C192.349 128.258 192.165 128.312 192.156 128.408C192.144 128.504 192.323 128.602 192.493 128.62C192.574 128.628 192.637 128.616 192.685 128.594C192.431 128.948 192.332 129.652 192.446 130.205C192.509 130.485 192.613 130.679 192.735 130.809C192.784 130.862 192.809 130.937 192.796 131.011C192.769 131.203 192.808 131.419 192.923 131.62C193.074 131.895 193.386 132.045 193.663 132.016C194.19 131.953 194.461 131.436 194.331 130.967C194.295 130.848 194.232 130.744 194.154 130.656C194.111 130.604 194.098 130.531 194.12 130.466C194.174 130.307 194.18 130.112 194.123 129.864C194.023 129.372 193.735 128.797 193.416 128.514C193.468 128.525 193.533 128.521 193.609 128.497C193.772 128.444 193.914 128.325 193.893 128.241C193.87 128.157 193.68 128.139 193.515 128.188C193.503 128.193 193.494 128.197 193.483 128.202L193.483 128.132C193.459 127.824 193.228 127.585 192.968 127.599C192.709 127.612 192.518 127.888 192.544 128.215Z" fill="black"/>
<path d="M200.07 109.717L200.006 109.757C200.004 109.745 200.003 109.735 200 109.721C199.952 109.559 199.827 109.415 199.731 109.446C199.636 109.48 199.616 109.68 199.67 109.841C199.695 109.916 199.732 109.969 199.772 110.002C199.34 109.922 198.632 110.135 198.184 110.485C197.951 110.656 197.819 110.831 197.758 110.999C197.732 111.067 197.675 111.122 197.604 111.142C197.411 111.194 197.233 111.317 197.102 111.504C196.922 111.756 196.9 112.08 197.041 112.324C197.303 112.774 197.912 112.82 198.291 112.489C198.385 112.402 198.46 112.307 198.509 112.201C198.538 112.138 198.599 112.094 198.668 112.085C198.835 112.059 199.017 111.979 199.224 111.827C199.623 111.514 200.022 111.03 200.148 110.626C200.159 110.677 200.189 110.733 200.243 110.792C200.359 110.917 200.527 110.999 200.591 110.944C200.657 110.891 200.597 110.713 200.485 110.583C200.476 110.574 200.469 110.568 200.46 110.559L200.523 110.532C200.793 110.39 200.924 110.088 200.816 109.86C200.704 109.623 200.37 109.559 200.07 109.717Z" fill="black"/>
<path d="M205.263 108.325L205.19 108.337C205.193 108.324 205.196 108.315 205.199 108.301C205.225 108.133 205.175 107.951 205.077 107.942C204.98 107.932 204.876 108.099 204.854 108.266C204.844 108.345 204.853 108.408 204.875 108.456C204.523 108.195 203.806 108.082 203.236 108.194C202.948 108.245 202.748 108.358 202.614 108.476C202.56 108.526 202.482 108.551 202.408 108.538C202.21 108.515 201.987 108.556 201.782 108.672C201.505 108.838 201.355 109.14 201.393 109.413C201.475 109.931 202.005 110.185 202.468 110.051C202.586 110.015 202.688 109.954 202.775 109.875C202.827 109.832 202.9 109.82 202.965 109.842C203.126 109.898 203.316 109.895 203.568 109.851C204.059 109.755 204.644 109.485 204.939 109.179C204.927 109.229 204.928 109.293 204.951 109.369C205.001 109.531 205.119 109.681 205.204 109.658C205.289 109.635 205.312 109.448 205.267 109.285C205.262 109.273 205.258 109.264 205.254 109.253L205.323 109.253C205.635 109.228 205.885 109.023 205.878 108.763C205.87 108.51 205.596 108.299 205.263 108.325Z" fill="black"/>
<path d="M201.311 106.465L201.242 106.493C201.242 106.48 201.242 106.47 201.243 106.456C201.229 106.287 201.137 106.121 201.04 106.134C200.943 106.147 200.881 106.333 200.898 106.501C200.907 106.579 200.931 106.639 200.963 106.68C200.56 106.506 199.836 106.559 199.307 106.796C199.038 106.911 198.87 107.067 198.767 107.212C198.726 107.273 198.657 107.314 198.581 107.319C198.383 107.341 198.176 107.431 198.003 107.59C197.772 107.816 197.696 108.143 197.797 108.4C197.997 108.885 198.572 109.013 198.991 108.777C199.098 108.716 199.184 108.633 199.25 108.537C199.291 108.484 199.359 108.455 199.427 108.462C199.596 108.48 199.781 108.433 200.016 108.334C200.471 108.13 200.978 107.734 201.194 107.369C201.193 107.421 201.21 107.483 201.25 107.551C201.336 107.698 201.486 107.817 201.563 107.776C201.641 107.734 201.62 107.546 201.538 107.398C201.53 107.387 201.524 107.38 201.517 107.37L201.585 107.354C201.883 107.259 202.079 107.003 202.01 106.752C201.945 106.507 201.628 106.364 201.311 106.465Z" fill="black"/>
<path d="M210.533 108.517L210.462 108.519C210.466 108.507 210.47 108.498 210.475 108.485C210.52 108.322 210.495 108.135 210.407 108.112C210.319 108.091 210.2 108.242 210.152 108.405C210.131 108.48 210.13 108.545 210.144 108.595C209.842 108.29 209.21 108.045 208.67 108.003C208.396 107.982 208.186 108.019 208.028 108.096C207.964 108.127 207.885 108.128 207.821 108.094C207.649 108.004 207.438 107.965 207.196 108.009C206.89 108.077 206.648 108.298 206.581 108.569C206.453 109.076 206.88 109.517 207.364 109.534C207.49 109.54 207.613 109.519 207.726 109.476C207.792 109.451 207.868 109.461 207.927 109.501C208.068 109.599 208.265 109.666 208.537 109.687C209.074 109.728 209.75 109.582 210.095 109.319C210.074 109.367 210.066 109.43 210.078 109.508C210.102 109.676 210.205 109.842 210.3 109.83C210.394 109.82 210.443 109.636 210.416 109.469C210.412 109.456 210.41 109.447 210.407 109.435L210.479 109.445C210.807 109.464 211.084 109.265 211.09 109.008C211.097 108.751 210.85 108.535 210.533 108.517Z" fill="black"/>
<path d="M179.45 129.61C179.422 129.706 179.332 129.768 179.232 129.781C177.82 129.944 176.997 130.13 176.367 130.462C175.751 130.76 175.388 131.146 175.393 131.266C175.4 131.385 175.81 131.754 176.622 131.815C176.825 131.838 177.045 131.807 177.287 131.771C177.53 131.739 177.786 131.663 178.047 131.536C178.311 131.422 178.581 131.266 178.833 131.043C179.095 130.841 179.333 130.569 179.542 130.254C179.601 130.165 179.707 130.117 179.813 130.118C180.193 130.114 180.603 130.062 180.76 129.941C180.911 129.808 180.803 129.644 180.249 129.388C180.041 128.803 179.869 128.7 179.761 128.813C179.64 128.919 179.547 129.245 179.45 129.61Z" fill="black"/>
<path d="M182.541 124.924C182.584 125.015 182.572 125.124 182.509 125.202C181.561 126.27 181.137 127.008 180.895 127.654C180.664 128.281 180.677 128.817 180.763 128.9C180.849 128.985 181.4 128.965 182.032 128.452C182.659 127.963 183.289 126.841 183.061 125.347C183.041 125.242 183.075 125.134 183.154 125.066C183.761 124.564 184.191 123.903 182.999 124.237C181.92 123.63 182.236 124.266 182.541 124.924Z" fill="black"/>
<path d="M182.261 119.241C182.344 119.295 182.387 119.396 182.374 119.495C182.169 120.892 182.212 121.772 182.429 122.454C182.611 123.117 182.967 123.528 183.089 123.539C183.209 123.551 183.615 123.2 183.824 122.438C184.008 121.701 183.934 120.465 182.917 119.324C182.847 119.245 182.822 119.134 182.855 119.032C183.064 118.295 183.091 117.478 182.262 118.421C181.049 118.497 181.619 118.863 182.261 119.241Z" fill="black"/>
<path d="M178.592 115.004C178.691 114.986 178.801 115.015 178.854 115.105C179.654 116.27 180.195 116.895 180.779 117.295C181.04 117.507 181.308 117.639 181.524 117.717C181.725 117.803 181.882 117.826 181.936 117.796C181.988 117.767 182.051 117.624 182.072 117.386C182.079 117.158 182.033 116.839 181.889 116.461C181.712 116.107 181.446 115.681 180.979 115.334C180.531 114.975 179.888 114.7 179.135 114.615C179.032 114.596 178.929 114.547 178.881 114.452C178.527 113.747 177.943 113.187 178.024 114.408C177.197 115.32 177.876 115.141 178.592 115.004Z" fill="black"/>
<path d="M172.943 114.356C173.007 114.279 173.11 114.236 173.209 114.263C174.585 114.642 175.462 114.707 176.16 114.627C176.842 114.534 177.31 114.308 177.351 114.177C177.384 114.081 177.121 113.576 176.374 113.267C175.655 112.942 174.378 112.859 173.099 113.711C173.011 113.769 172.899 113.792 172.801 113.751C172.07 113.436 171.257 113.381 172.118 114.263C172.083 115.486 172.484 114.915 172.943 114.356Z" fill="black"/>
<path d="M168.342 117.561C168.334 117.462 168.387 117.367 168.474 117.316C169.712 116.623 170.39 116.136 170.85 115.616C171.292 115.104 171.51 114.643 171.452 114.514C171.428 114.461 171.291 114.39 171.057 114.355C170.823 114.319 170.486 114.317 170.105 114.453C169.347 114.679 168.293 115.49 168.004 116.997C167.985 117.101 167.911 117.189 167.81 117.226C167.084 117.515 166.428 118.01 167.688 118.064C168.504 118.959 168.429 118.286 168.342 117.561Z" fill="black"/>
<path d="M166.978 123.059C166.911 122.983 166.896 122.874 166.936 122.781C167.529 121.483 167.72 120.622 167.699 119.92C167.697 119.238 167.503 118.751 167.39 118.703C167.28 118.655 166.763 118.862 166.355 119.552C165.967 120.222 165.713 121.43 166.365 122.793C166.413 122.888 166.407 123.001 166.348 123.087C166.121 123.404 165.947 123.756 165.972 123.946C165.991 124.139 166.187 124.148 166.724 123.843C167.322 124.007 167.508 123.929 167.481 123.77C167.446 123.609 167.211 123.341 166.978 123.059Z" fill="black"/>
<path d="M168.936 128.351C168.837 128.331 168.758 128.254 168.734 128.159C168.439 126.79 168.151 125.986 167.763 125.396C167.377 124.827 166.963 124.513 166.826 124.539C166.725 124.555 166.385 125.01 166.43 125.802C166.448 126.568 166.913 127.774 168.284 128.505C168.381 128.553 168.446 128.647 168.453 128.751C168.469 129.143 168.568 129.527 168.711 129.665C168.852 129.809 169.007 129.691 169.228 129.117C169.793 128.873 169.884 128.693 169.767 128.589C169.644 128.486 169.292 128.434 168.936 128.351Z" fill="black"/>
<path d="M173.931 130.93C173.846 130.981 173.736 130.975 173.651 130.919C172.462 130.136 171.709 129.766 171.025 129.61C170.364 129.452 169.845 129.481 169.761 129.583C169.69 129.665 169.733 130.231 170.32 130.798C170.879 131.35 172.084 131.895 173.572 131.477C173.675 131.448 173.787 131.475 173.866 131.549C174.451 132.046 175.184 132.431 174.681 131.283C175.138 130.175 174.554 130.516 173.931 130.93Z" fill="black"/>
<path d="M179.452 135.059C179.4 135.143 179.303 135.187 179.207 135.175C178.523 135.089 177.956 135.021 177.494 135.093C177.019 135.107 176.635 135.211 176.32 135.352C175.69 135.593 175.337 135.969 175.34 136.098C175.343 136.209 175.726 136.585 176.463 136.72C176.828 136.768 177.282 136.758 177.792 136.637C178.29 136.457 178.86 136.215 179.382 135.71C179.455 135.64 179.561 135.615 179.657 135.647C180.009 135.765 180.387 135.858 180.557 135.796C180.727 135.726 180.682 135.535 180.256 135.11C180.243 134.494 180.122 134.338 179.981 134.41C179.835 134.476 179.642 134.751 179.452 135.059Z" fill="black"/>
<path d="M184.147 132.187C184.136 132.282 184.065 132.361 183.971 132.388C183.633 132.487 183.349 132.599 183.093 132.713C182.823 132.809 182.593 132.917 182.392 133.034C182.003 133.285 181.675 133.494 181.451 133.75C181.227 134.005 181.07 134.245 180.969 134.429C180.872 134.62 180.843 134.771 180.87 134.827C180.895 134.88 181.031 134.953 181.256 134.996C181.485 135.046 181.795 135.048 182.152 134.94C182.507 134.833 182.945 134.674 183.329 134.304C183.527 134.128 183.723 133.92 183.91 133.68C184.081 133.422 184.234 133.121 184.367 132.794C184.405 132.701 184.492 132.636 184.595 132.625C185.334 132.521 186.046 132.242 184.87 131.863C184.287 130.8 184.202 131.472 184.147 132.187Z" fill="black"/>
<path d="M187.046 127.541C187.082 127.633 187.059 127.736 186.991 127.803C186.464 128.267 186.123 128.691 185.854 129.072C185.572 129.444 185.448 129.822 185.336 130.132C185.126 130.756 185.216 131.281 185.314 131.358C185.406 131.431 185.92 131.366 186.505 130.886C186.8 130.65 187.044 130.272 187.267 129.8C187.474 129.321 187.57 128.7 187.526 127.999C187.513 127.898 187.557 127.8 187.642 127.745C188.263 127.34 188.824 126.809 187.576 126.946C186.613 126.229 186.785 126.868 187.046 127.541Z" fill="black"/>
<path d="M187.861 122.104C187.927 122.178 187.942 122.282 187.902 122.37C187.598 122.993 187.401 123.518 187.334 123.98C187.221 124.437 187.219 124.833 187.272 125.17C187.345 125.833 187.616 126.268 187.743 126.3C187.852 126.327 188.324 126.063 188.649 125.397C188.793 125.064 188.903 124.632 188.921 124.117C188.892 123.601 188.787 123 188.473 122.363C188.426 122.274 188.431 122.167 188.491 122.087C188.927 121.493 189.263 120.812 188.144 121.363C186.985 121.015 187.376 121.565 187.861 122.104Z" fill="black"/>
<path d="M186.713 116.734C186.802 116.778 186.854 116.87 186.849 116.965C186.797 117.651 186.8 118.205 186.889 118.66C186.943 119.125 187.081 119.495 187.25 119.793C187.529 120.397 187.954 120.712 188.079 120.699C188.195 120.686 188.529 120.283 188.623 119.546C188.64 119.183 188.592 118.739 188.427 118.248C188.227 117.769 187.91 117.236 187.378 116.754C187.301 116.688 187.267 116.586 187.292 116.489C187.386 116.134 187.445 115.76 187.377 115.594C187.298 115.43 187.11 115.486 186.703 115.94C186.089 115.994 185.938 116.124 186.017 116.26C186.087 116.403 186.387 116.569 186.713 116.734Z" fill="black"/>
<path d="M183.475 112.316C183.572 112.321 183.656 112.384 183.692 112.474C184.205 113.733 184.703 114.438 185.245 114.859C185.784 115.267 186.251 115.424 186.375 115.356C186.464 115.308 186.661 114.779 186.399 114.086C186.259 113.75 186.079 113.322 185.675 112.972C185.482 112.791 185.257 112.613 185 112.448C184.739 112.286 184.413 112.167 184.074 112.057C183.977 112.027 183.905 111.947 183.887 111.845C183.74 111.115 183.397 110.448 183.099 111.625C182.059 112.278 182.756 112.301 183.475 112.316Z" fill="black"/>
<path d="M178.575 109.792C178.666 109.749 178.771 109.763 178.845 109.825C179.856 110.778 180.648 111.134 181.315 111.289C181.961 111.45 182.493 111.316 182.558 111.224C182.631 111.118 182.524 110.627 181.996 110.087C181.475 109.566 180.433 109.083 179.003 109.284C178.902 109.304 178.799 109.269 178.737 109.191C178.28 108.614 177.699 108.106 177.933 109.32C177.281 110.324 177.914 110.103 178.575 109.792Z" fill="black"/>
<path d="M173.023 109.429C173.091 109.357 173.194 109.332 173.287 109.363C173.942 109.617 174.485 109.745 174.955 109.791C175.426 109.863 175.826 109.831 176.162 109.749C176.825 109.64 177.246 109.325 177.267 109.201C177.287 109.088 176.983 108.66 176.284 108.378C175.935 108.265 175.489 108.193 174.967 108.22C174.446 108.272 173.844 108.448 173.227 108.803C173.141 108.858 173.032 108.863 172.946 108.812C172.302 108.443 171.572 108.181 172.247 109.224C172.02 110.394 172.527 109.958 173.023 109.429Z" fill="black"/>
<path d="M167.793 111.219C167.825 111.127 167.91 111.064 168.007 111.056C168.685 110.976 169.257 110.937 169.691 110.772C170.141 110.646 170.501 110.486 170.776 110.282C171.338 109.918 171.614 109.489 171.585 109.361C171.562 109.255 171.113 108.95 170.359 108.969C169.991 108.999 169.538 109.083 169.069 109.326C168.618 109.604 168.104 109.951 167.715 110.572C167.659 110.656 167.56 110.703 167.459 110.691C166.689 110.587 165.962 110.742 167.006 111.358C167.34 112.544 167.547 111.865 167.793 111.219Z" fill="black"/>
<path d="M163.909 115.089C163.893 114.991 163.932 114.892 164.023 114.846C164.648 114.511 165.051 114.159 165.415 113.86C165.587 113.704 165.727 113.544 165.843 113.385C165.965 113.232 166.077 113.091 166.159 112.946C166.33 112.661 166.415 112.38 166.459 112.167C166.51 111.962 166.505 111.81 166.466 111.761C166.428 111.716 166.278 111.674 166.046 111.681C165.822 111.697 165.529 111.778 165.195 111.951C165.03 112.04 164.849 112.145 164.68 112.293C164.519 112.447 164.357 112.629 164.202 112.842C163.873 113.252 163.662 113.854 163.542 114.543C163.522 114.638 163.465 114.728 163.371 114.764C162.685 115.038 162.03 115.45 163.275 115.566C164.073 116.464 164.03 115.804 163.909 115.089Z" fill="black"/>
<path d="M162.073 120.256C162.021 120.172 162.024 120.067 162.079 119.987C162.479 119.425 162.773 118.948 162.925 118.509C163.121 118.084 163.195 117.698 163.205 117.358C163.278 116.703 163.084 116.215 162.97 116.161C162.865 116.111 162.367 116.283 161.899 116.872C161.695 117.174 161.504 117.581 161.389 118.087C161.321 118.602 161.309 119.215 161.515 119.898C161.546 119.994 161.521 120.098 161.449 120.167C160.915 120.68 160.463 121.299 161.663 120.939C162.744 121.47 162.456 120.868 162.073 120.256Z" fill="black"/>
<path d="M162.229 125.758C162.151 125.696 162.117 125.597 162.14 125.504C162.344 124.838 162.426 124.293 162.432 123.824C162.463 123.354 162.395 122.962 162.283 122.638C162.103 121.993 161.749 121.613 161.62 121.605C161.505 121.598 161.098 121.94 160.888 122.648C160.804 123 160.771 123.442 160.844 123.951C160.941 124.457 161.171 125.032 161.579 125.608C161.642 125.688 161.656 125.794 161.612 125.884C161.291 126.545 161.085 127.281 162.085 126.536C163.286 126.668 162.805 126.202 162.229 125.758Z" fill="black"/>
<path d="M164.422 130.78C164.327 130.754 164.258 130.675 164.243 130.58C164.179 130.235 164.122 129.936 164.072 129.666C164.011 129.392 163.933 129.152 163.84 128.941C163.686 128.502 163.491 128.163 163.266 127.905C162.861 127.376 162.4 127.139 162.274 127.177C162.166 127.208 161.9 127.672 161.968 128.411C162.025 128.772 162.149 129.206 162.42 129.653C162.571 129.869 162.754 130.089 162.972 130.304C163.181 130.525 163.449 130.726 163.772 130.898C163.861 130.948 163.915 131.041 163.91 131.143C163.858 131.903 164.052 132.614 164.612 131.547C165.788 131.145 165.097 130.977 164.422 130.78Z" fill="black"/>
<path d="M168.584 134.357C168.483 134.383 168.386 134.342 168.333 134.257C167.949 133.671 167.573 133.289 167.245 132.953C167.076 132.794 166.904 132.669 166.736 132.565C166.581 132.446 166.425 132.352 166.274 132.278C165.659 131.999 165.15 131.968 165.057 132.051C164.969 132.129 164.916 132.669 165.328 133.29C165.427 133.447 165.552 133.612 165.704 133.778C165.87 133.927 166.066 134.074 166.292 134.211C166.73 134.507 167.348 134.684 168.058 134.75C168.156 134.762 168.246 134.822 168.292 134.908C168.616 135.562 169.081 136.177 169.11 134.945C169.965 134.096 169.3 134.186 168.584 134.357Z" fill="black"/>
<path d="M173.94 135.769C173.859 135.828 173.753 135.833 173.668 135.786C173.067 135.437 172.562 135.192 172.108 135.074C171.664 134.915 171.27 134.872 170.925 134.889C170.261 134.86 169.779 135.091 169.733 135.206C169.69 135.314 169.9 135.786 170.531 136.209C170.852 136.386 171.28 136.542 171.802 136.616C172.328 136.646 172.952 136.605 173.624 136.348C173.719 136.309 173.826 136.324 173.903 136.39C174.466 136.871 175.132 137.262 174.664 136.113C175.106 135.006 174.525 135.34 173.94 135.769Z" fill="black"/>
<path d="M177.884 133.129C177.826 133.211 177.725 133.251 177.628 133.235C176.927 133.078 176.377 133.036 175.895 133.007C175.418 133.013 175.019 133.051 174.683 133.139C174.015 133.338 173.6 133.612 173.585 133.753C173.578 133.811 173.657 133.943 173.832 134.095C174.005 134.253 174.276 134.422 174.65 134.514C175.021 134.621 175.494 134.683 176.037 134.572C176.58 134.497 177.188 134.223 177.77 133.78C177.85 133.712 177.96 133.691 178.058 133.727C178.785 134.015 179.566 134.065 178.701 133.2C178.702 131.976 178.309 132.556 177.884 133.129Z" fill="black"/>
<path d="M182.629 130.142C182.625 130.24 182.555 130.323 182.462 130.358C181.159 130.884 180.422 131.337 179.954 131.853C179.482 132.333 179.301 132.835 179.346 132.938C179.398 133.054 179.899 133.238 180.664 133.038C181.042 132.939 181.46 132.705 181.878 132.348C182.074 132.153 182.267 131.926 182.449 131.666C182.628 131.405 182.76 131.076 182.884 130.737C182.917 130.64 183.004 130.569 183.107 130.547C183.836 130.366 184.567 130.029 183.339 129.748C182.69 128.738 182.628 129.402 182.629 130.142Z" fill="black"/>
<path d="M185.119 125.103C185.164 125.193 185.156 125.302 185.092 125.378C184.609 125.914 184.325 126.391 184.081 126.806C183.874 127.234 183.728 127.603 183.663 127.941C183.544 128.616 183.618 129.106 183.736 129.183C183.82 129.24 184.392 129.154 184.9 128.578C185.431 128.031 185.898 126.953 185.646 125.514C185.627 125.413 185.656 125.307 185.735 125.241C186.305 124.752 186.802 124.142 185.578 124.431C184.539 123.811 184.783 124.446 185.119 125.103Z" fill="black"/>
<path d="M185.188 119.476C185.266 119.538 185.312 119.638 185.279 119.736C185.177 120.079 185.108 120.386 185.07 120.666C185.024 120.947 184.974 121.207 184.969 121.444C184.967 121.918 184.973 122.319 185.07 122.654C185.244 123.321 185.538 123.733 185.675 123.75C185.779 123.764 186.243 123.442 186.464 122.715C186.692 122.007 186.706 120.831 185.838 119.626C185.786 119.54 185.76 119.433 185.803 119.34C186.105 118.65 186.266 117.875 185.304 118.676C184.094 118.584 184.599 119.031 185.188 119.476Z" fill="black"/>
<path d="M182.498 114.59C182.596 114.602 182.679 114.672 182.709 114.766C183.117 116.097 183.564 116.829 184.023 117.348C184.502 117.837 184.949 118.072 185.077 118.026C185.178 117.99 185.448 117.491 185.275 116.739C185.15 115.993 184.512 114.946 183.124 114.379C183.026 114.34 182.956 114.253 182.943 114.15C182.839 113.389 182.504 112.688 182.156 113.86C181.075 114.451 181.778 114.51 182.498 114.59Z" fill="black"/>
<path d="M177.545 111.912C177.637 111.866 177.746 111.879 177.821 111.95C178.897 112.86 179.668 113.278 180.356 113.429C181.011 113.605 181.536 113.529 181.615 113.425C181.684 113.339 181.609 112.804 181.064 112.243C180.522 111.719 179.448 111.155 177.968 111.406C177.866 111.416 177.76 111.383 177.693 111.308C177.201 110.743 176.579 110.249 176.868 111.458C176.237 112.48 176.876 112.242 177.545 111.912Z" fill="black"/>
<path d="M171.879 111.974C171.937 111.893 172.038 111.852 172.135 111.868C172.836 112.025 173.386 112.07 173.867 112.097C174.342 112.088 174.742 112.061 175.077 111.968C175.744 111.781 176.162 111.497 176.178 111.36C176.192 111.26 175.864 110.795 175.116 110.592C174.391 110.365 173.172 110.41 171.993 111.322C171.912 111.391 171.802 111.413 171.705 111.377C170.977 111.092 170.195 111.04 171.062 111.904C171.063 113.128 171.455 112.55 171.879 111.974Z" fill="black"/>
<path d="M167.142 114.974C167.146 114.876 167.215 114.793 167.309 114.756C168.611 114.229 169.346 113.772 169.813 113.256C170.052 113.019 170.21 112.771 170.307 112.567C170.406 112.371 170.445 112.228 170.418 112.17C170.366 112.053 169.863 111.868 169.1 112.073C168.721 112.171 168.305 112.409 167.887 112.765C167.692 112.961 167.499 113.189 167.319 113.449C167.14 113.71 167.009 114.04 166.886 114.379C166.853 114.476 166.766 114.548 166.664 114.569C165.934 114.752 165.205 115.09 166.432 115.368C167.083 116.378 167.144 115.714 167.142 114.974Z" fill="black"/>
<path d="M164.655 120.016C164.611 119.926 164.619 119.817 164.683 119.741C165.166 119.205 165.45 118.728 165.693 118.313C165.901 117.884 166.046 117.515 166.111 117.177C166.229 116.502 166.155 116.011 166.037 115.934C165.953 115.877 165.381 115.965 164.874 116.541C164.343 117.089 163.876 118.166 164.129 119.605C164.148 119.706 164.119 119.812 164.04 119.878C163.47 120.367 162.973 120.976 164.197 120.688C165.236 121.308 164.993 120.673 164.655 120.016Z" fill="black"/>
<path d="M164.585 125.643C164.507 125.581 164.461 125.481 164.495 125.384C164.597 125.04 164.666 124.733 164.705 124.453C164.751 124.171 164.8 123.912 164.806 123.675C164.808 123.201 164.802 122.8 164.705 122.465C164.531 121.798 164.237 121.386 164.1 121.369C163.996 121.355 163.532 121.677 163.311 122.404C163.083 123.112 163.068 124.287 163.935 125.493C163.988 125.578 164.013 125.686 163.97 125.779C163.667 126.468 163.505 127.242 164.467 126.443C165.678 126.537 165.173 126.089 164.585 125.643Z" fill="black"/>
<path d="M167.264 130.536C167.166 130.524 167.084 130.453 167.053 130.359C166.649 129.028 166.205 128.293 165.747 127.774C165.269 127.283 164.822 127.048 164.694 127.093C164.593 127.128 164.323 127.627 164.493 128.379C164.617 129.126 165.251 130.174 166.638 130.746C166.735 130.784 166.805 130.872 166.818 130.975C166.922 131.734 167.253 132.439 167.604 131.267C168.685 130.68 167.985 130.616 167.264 130.536Z" fill="black"/>
<path d="M172.215 133.208C172.124 133.251 172.013 133.245 171.938 133.177C170.863 132.259 170.088 131.858 169.404 131.699C168.747 131.528 168.225 131.597 168.144 131.702C168.077 131.787 168.148 132.327 168.695 132.885C169.234 133.418 170.317 133.966 171.794 133.722C171.895 133.708 172.004 133.734 172.07 133.813C172.565 134.379 173.191 134.873 172.893 133.663C173.515 132.64 172.881 132.878 172.215 133.208Z" fill="black"/>
<path d="M139.818 110.82C140.098 109.339 138.644 107.746 137.032 108.467C136.98 108.482 136.915 108.543 136.978 108.592C138.213 109.334 138.759 111.055 138.213 112.495C138.204 112.534 138.217 112.553 138.238 112.562C138.247 112.583 138.264 112.598 138.297 112.588C139.59 111.98 141.137 112.586 141.804 113.961C141.851 114.034 141.901 113.957 141.916 113.901C142.558 112.11 141.147 110.508 139.818 110.82Z" fill="black"/>
<path d="M146.082 102.403C146.362 100.922 144.908 99.3297 143.296 100.051C143.244 100.065 143.178 100.127 143.242 100.176C144.477 100.917 145.023 102.639 144.477 104.078C144.467 104.118 144.481 104.137 144.502 104.145C144.511 104.167 144.527 104.182 144.56 104.171C145.854 103.564 147.401 104.169 148.067 105.545C148.115 105.617 148.164 105.54 148.18 105.485C148.822 103.693 147.41 102.092 146.082 102.403Z" fill="black"/>
<path d="M158.343 100.532C158.623 99.0505 157.169 97.4582 155.557 98.179C155.506 98.1933 155.44 98.2552 155.503 98.3041C156.739 99.0457 157.284 100.767 156.739 102.207C156.729 102.246 156.743 102.265 156.764 102.274C156.772 102.295 156.789 102.31 156.822 102.3C158.115 101.692 159.663 102.297 160.329 103.673C160.377 103.746 160.426 103.669 160.442 103.613C161.084 101.822 159.672 100.22 158.343 100.532Z" fill="black"/>
<path d="M134.031 117.489C134.311 116.008 132.857 114.416 131.244 115.137C131.193 115.151 131.127 115.213 131.19 115.262C132.426 116.003 132.972 117.725 132.426 119.164C132.416 119.204 132.43 119.222 132.451 119.231C132.46 119.253 132.476 119.267 132.509 119.257C133.803 118.65 135.35 119.255 136.016 120.631C136.064 120.703 136.113 120.626 136.129 120.571C136.771 118.779 135.359 117.178 134.031 117.489Z" fill="black"/>
<path d="M127.866 128.427C128.146 126.946 126.692 125.354 125.08 126.074C125.029 126.089 124.963 126.151 125.026 126.2C126.261 126.941 126.807 128.663 126.261 130.102C126.252 130.142 126.265 130.16 126.286 130.169C126.295 130.191 126.312 130.205 126.345 130.195C127.638 129.588 129.185 130.193 129.852 131.569C129.9 131.641 129.949 131.564 129.965 131.509C130.606 129.717 129.195 128.116 127.866 128.427Z" fill="black"/>
<path d="M147.717 141.933C147.997 140.452 146.543 138.86 144.931 139.58C144.88 139.595 144.814 139.657 144.877 139.705C146.112 140.447 146.658 142.168 146.112 143.608C146.103 143.648 146.116 143.666 146.137 143.675C146.146 143.697 146.163 143.711 146.196 143.701C147.489 143.094 149.036 143.699 149.703 145.075C149.751 145.147 149.8 145.07 149.816 145.014C150.457 143.223 149.046 141.622 147.717 141.933Z" fill="black"/>
<path d="M144.942 110.82C145.223 109.339 143.768 107.746 142.156 108.467C142.105 108.482 142.039 108.543 142.102 108.592C143.338 109.334 143.883 111.055 143.338 112.495C143.328 112.534 143.342 112.553 143.363 112.562C143.372 112.583 143.388 112.598 143.421 112.588C144.715 111.98 146.262 112.586 146.928 113.961C146.976 114.034 147.025 113.957 147.041 113.901C147.683 112.11 146.271 110.508 144.942 110.82Z" fill="black"/>
<path d="M150.067 110.82C150.347 109.339 148.893 107.746 147.28 108.467C147.229 108.482 147.163 108.543 147.226 108.592C148.462 109.334 149.008 111.055 148.462 112.495C148.452 112.534 148.466 112.553 148.487 112.562C148.496 112.583 148.513 112.598 148.545 112.588C149.839 111.98 151.386 112.586 152.052 113.961C152.1 114.034 152.149 113.957 152.165 113.901C152.807 112.11 151.396 110.508 150.067 110.82Z" fill="black"/>
<path d="M155.191 110.82C155.471 109.339 154.017 107.746 152.405 108.467C152.353 108.482 152.288 108.543 152.351 108.592C153.587 109.334 154.132 111.055 153.586 112.495C153.577 112.534 153.591 112.553 153.612 112.562C153.62 112.583 153.637 112.598 153.67 112.588C154.963 111.98 156.51 112.586 157.177 113.961C157.225 114.034 157.274 113.957 157.29 113.901C157.932 112.11 156.52 110.508 155.191 110.82Z" fill="black"/>
<path d="M139.716 134.05C140.007 132.569 138.496 130.976 136.82 131.697C136.767 131.712 136.699 131.773 136.764 131.822C138.048 132.564 138.615 134.285 138.048 135.725C138.038 135.764 138.052 135.783 138.075 135.792C138.083 135.814 138.101 135.828 138.134 135.818C139.479 135.21 141.087 135.815 141.78 137.191C141.829 137.264 141.88 137.187 141.897 137.131C142.564 135.34 141.097 133.738 139.716 134.05Z" fill="black"/>
<path d="M145.042 134.05C145.333 132.569 143.822 130.976 142.146 131.697C142.092 131.712 142.024 131.773 142.09 131.822C143.374 132.564 143.941 134.285 143.374 135.725C143.364 135.764 143.378 135.783 143.4 135.792C143.409 135.814 143.426 135.828 143.46 135.818C144.805 135.21 146.412 135.815 147.105 137.191C147.155 137.264 147.206 137.187 147.222 137.131C147.89 135.34 146.423 133.738 145.042 134.05Z" fill="black"/>
<path d="M150.367 134.05C150.659 132.569 149.147 130.976 147.472 131.697C147.418 131.712 147.35 131.773 147.415 131.822C148.699 132.564 149.266 134.285 148.699 135.725C148.689 135.764 148.704 135.783 148.725 135.792C148.735 135.814 148.752 135.828 148.786 135.818C150.13 135.21 151.738 135.815 152.431 137.191C152.48 137.264 152.531 137.187 152.548 137.131C153.215 135.34 151.749 133.738 150.367 134.05Z" fill="black"/>
<path d="M155.693 134.05C155.984 132.569 154.473 130.976 152.797 131.697C152.743 131.712 152.675 131.773 152.741 131.822C154.025 132.564 154.592 134.285 154.025 135.725C154.015 135.764 154.029 135.783 154.051 135.792C154.06 135.814 154.078 135.828 154.111 135.818C155.456 135.21 157.064 135.815 157.756 137.191C157.806 137.264 157.857 137.187 157.873 137.131C158.541 135.34 157.074 133.738 155.693 134.05Z" fill="black"/>
<path d="M141.489 128.45C141.851 127.06 140.387 125.614 138.653 126.331C138.598 126.346 138.526 126.406 138.59 126.45C139.861 127.107 140.361 128.698 139.721 130.057C139.709 130.095 139.722 130.112 139.744 130.119C139.753 130.139 139.77 130.153 139.805 130.142C141.197 129.539 142.803 130.061 143.446 131.326C143.493 131.393 143.549 131.319 143.567 131.267C144.325 129.577 142.906 128.122 141.489 128.45Z" fill="black"/>
<path d="M144.61 125.5C144.972 124.11 143.507 122.664 141.773 123.382C141.719 123.397 141.647 123.456 141.711 123.5C142.982 124.158 143.482 125.749 142.842 127.108C142.83 127.145 142.844 127.162 142.866 127.17C142.874 127.19 142.891 127.203 142.925 127.192C144.318 126.59 145.924 127.111 146.567 128.377C146.614 128.443 146.669 128.37 146.689 128.317C147.446 126.628 146.027 125.173 144.61 125.5Z" fill="black"/>
<path d="M147.731 122.551C148.092 121.161 146.628 119.715 144.894 120.432C144.84 120.447 144.767 120.507 144.832 120.551C146.103 121.209 146.603 122.8 145.962 124.158C145.951 124.196 145.964 124.213 145.986 124.22C145.994 124.24 146.011 124.254 146.046 124.243C147.439 123.64 149.045 124.162 149.687 125.427C149.735 125.494 149.79 125.42 149.809 125.368C150.567 123.678 149.148 122.223 147.731 122.551Z" fill="black"/>
<path d="M150.852 119.601C151.213 118.211 149.749 116.766 148.015 117.483C147.961 117.498 147.888 117.558 147.953 117.602C149.224 118.259 149.723 119.85 149.083 121.209C149.072 121.247 149.085 121.264 149.107 121.271C149.115 121.291 149.132 121.305 149.167 121.294C150.559 120.691 152.166 121.213 152.808 122.478C152.855 122.544 152.911 122.471 152.93 122.419C153.688 120.729 152.269 119.274 150.852 119.601Z" fill="black"/>
<path d="M153.973 116.652C154.334 115.262 152.87 113.817 151.136 114.534C151.081 114.549 151.009 114.608 151.074 114.652C152.345 115.31 152.844 116.901 152.204 118.26C152.192 118.297 152.206 118.314 152.228 118.322C152.236 118.342 152.253 118.355 152.288 118.344C153.68 117.742 155.287 118.264 155.929 119.529C155.977 119.595 156.032 119.522 156.051 119.469C156.808 117.78 155.39 116.325 153.973 116.652Z" fill="black"/>
<path d="M127.906 141.58H138.212C142.896 141.58 146.097 144.698 146.097 148.625C146.097 151.165 144.731 153.321 142.74 154.322V154.553C145.082 155.746 146.605 158.326 146.605 161.059C146.605 165.293 142.975 168.527 138.134 168.527H127.906V141.58ZM137.9 153.052C140.359 153.052 142.155 151.358 142.155 149.009C142.155 146.661 140.359 145.006 137.9 145.006H131.77V153.052H137.9ZM138.251 165.101C140.632 165.101 142.662 163.137 142.662 160.789C142.662 158.441 140.632 156.439 138.251 156.439H131.77V165.101H138.251Z" fill="black"/>
<path d="M152.341 141.58H162.647C167.332 141.58 170.729 144.929 170.729 149.394C170.729 152.975 168.582 155.669 165.068 156.709L171.705 168.527H167.372L161.164 157.402H156.206V168.527H152.341V141.58ZM162.257 153.976C164.795 153.976 166.786 151.973 166.786 149.471C166.786 147.008 164.795 145.006 162.257 145.006H156.206V153.976H162.257Z" fill="black"/>
<path d="M177.207 141.58H181.149L194.891 161.906H195.125V141.58H198.873V168.527H194.93L181.149 148.201H180.915V168.527H177.207V141.58Z" fill="black"/>
<path d="M205.076 155.053C205.076 146.969 210.932 141.156 219.013 141.156C227.094 141.156 232.95 146.969 232.95 155.053C232.95 163.137 227.094 168.95 219.013 168.95C210.932 168.95 205.076 163.137 205.076 155.053ZM219.013 165.447C224.869 165.447 229.007 161.174 229.007 155.053C229.007 148.932 224.869 144.659 219.013 144.659C213.118 144.659 209.02 148.932 209.02 155.053C209.02 161.174 213.118 165.447 219.013 165.447Z" fill="black"/>
<path d="M180 120.586C180.085 120.645 180.134 120.748 180.107 120.851C179.808 122.259 179.704 123.131 179.778 123.836C179.81 124.182 179.877 124.471 179.942 124.684C180.017 124.9 180.1 125.038 180.156 125.059C180.214 125.08 180.366 125.033 180.553 124.881C180.749 124.733 180.975 124.476 181.149 124.092C181.324 123.711 181.434 123.203 181.396 122.612C181.334 122.026 181.151 121.34 180.661 120.714C180.601 120.625 180.571 120.51 180.604 120.407C180.738 120.03 180.788 119.615 180.707 119.422C180.627 119.222 180.441 119.279 180.021 119.744C179.405 119.755 179.255 119.896 179.322 120.036C179.394 120.18 179.698 120.363 180 120.586Z" fill="black"/>
<path d="M170.607 118.893C170.598 118.788 170.664 118.697 170.758 118.653C171.419 118.342 171.921 118.133 172.35 117.95C172.772 117.762 173.112 117.581 173.402 117.399C173.691 117.218 173.924 117.036 174.09 116.883C174.254 116.72 174.345 116.593 174.34 116.532C174.335 116.474 174.225 116.353 174.005 116.255C173.784 116.147 173.449 116.056 173.014 116.077C172.583 116.099 172.047 116.242 171.532 116.602C171.014 116.947 170.539 117.543 170.315 118.299C170.282 118.404 170.195 118.488 170.096 118.529C169.91 118.597 169.719 118.681 169.561 118.772C169.415 118.869 169.298 118.971 169.245 119.061C169.136 119.248 169.296 119.357 169.925 119.394C170.317 119.865 170.522 119.893 170.591 119.755C170.627 119.683 170.633 119.561 170.624 119.407C170.626 119.26 170.618 119.082 170.607 118.893Z" fill="black"/>
<path d="M173.927 128.22C173.837 128.267 173.72 128.271 173.64 128.201C173.052 127.771 172.642 127.401 172.275 127.121C171.905 126.848 171.601 126.618 171.296 126.458C170.72 126.116 170.209 125.956 170.091 126.025C170.001 126.074 169.85 126.638 170.279 127.401C170.506 127.761 170.869 128.181 171.437 128.458C171.991 128.74 172.733 128.907 173.52 128.751C173.629 128.739 173.748 128.757 173.827 128.834C174.115 129.119 174.474 129.338 174.684 129.351C174.9 129.367 174.93 129.178 174.687 128.602C174.943 128.05 174.88 127.856 174.722 127.854C174.558 127.854 174.259 128.051 173.927 128.22Z" fill="black"/>
<path d="M179.734 137.767C179.676 137.855 179.568 137.883 179.467 137.865C178.032 137.619 177.084 137.719 176.402 138C175.726 138.221 175.353 138.614 175.356 138.737C175.359 138.854 175.758 139.212 176.528 139.37C177.281 139.474 178.449 139.356 179.619 138.408C179.701 138.342 179.816 138.333 179.913 138.363C180.633 138.598 181.421 138.71 180.565 137.811C180.615 136.599 180.159 137.139 179.734 137.767Z" fill="black"/>
<path d="M190.301 125.005C190.353 125.092 190.348 125.203 190.293 125.288C189.924 125.899 189.617 126.413 189.463 126.884C189.321 127.359 189.219 127.761 189.205 128.117C189.189 128.471 189.241 128.772 189.31 128.991C189.362 129.204 189.441 129.338 189.499 129.361C189.553 129.383 189.708 129.342 189.91 129.217C190.096 129.086 190.321 128.866 190.532 128.543C190.741 128.22 190.956 127.797 191.011 127.254C191.079 126.716 191.099 126.082 190.859 125.367C190.828 125.267 190.853 125.157 190.927 125.083C191.194 124.811 191.449 124.509 191.471 124.325C191.486 124.139 191.294 124.086 190.714 124.277C190.154 123.995 189.958 124.029 189.958 124.199C189.949 124.369 190.11 124.683 190.301 125.005Z" fill="black"/>
<path d="M184.16 109.485C184.262 109.482 184.357 109.54 184.405 109.63C184.573 109.953 184.762 110.204 184.917 110.462C185.073 110.717 185.234 110.933 185.398 111.117C185.741 111.469 186.032 111.765 186.337 111.954C186.951 112.325 187.461 112.424 187.563 112.35C187.657 112.282 187.756 111.73 187.389 111.05C187.209 110.708 186.954 110.302 186.499 109.981C186.279 109.813 186.027 109.651 185.744 109.503C185.461 109.354 185.109 109.265 184.747 109.178C184.643 109.155 184.558 109.079 184.527 108.979C184.47 108.795 184.405 108.611 184.333 108.46C184.253 108.32 184.17 108.209 184.091 108.158C183.929 108.055 183.794 108.199 183.696 108.798C183.186 109.153 183.127 109.342 183.275 109.422C183.35 109.462 183.48 109.477 183.641 109.478C183.794 109.489 183.974 109.49 184.16 109.485Z" fill="black"/>
<path d="M172.92 106.774C172.993 106.704 173.102 106.669 173.2 106.711C173.89 106.992 174.465 107.095 174.967 107.15C175.467 107.224 175.893 107.192 176.249 107.112C176.954 106.974 177.385 106.685 177.405 106.553C177.422 106.448 177.093 105.991 176.357 105.74C175.99 105.627 175.524 105.554 174.978 105.579C174.432 105.622 173.804 105.822 173.148 106.15C173.056 106.194 172.943 106.208 172.852 106.156C172.188 105.789 171.437 105.529 172.11 106.573C171.83 107.751 172.384 107.308 172.92 106.774Z" fill="black"/>
<path d="M160.077 117.258C160.042 117.164 160.067 117.056 160.137 116.982C160.389 116.718 160.592 116.466 160.762 116.225C160.956 115.994 161.11 115.772 161.234 115.557C161.357 115.342 161.448 115.134 161.517 114.936C161.605 114.747 161.666 114.566 161.708 114.394C161.87 113.707 161.746 113.178 161.652 113.117C161.543 113.046 161.023 113.172 160.483 113.734C160.348 113.873 160.211 114.039 160.079 114.231C159.968 114.434 159.864 114.664 159.777 114.922C159.689 115.18 159.617 115.466 159.569 115.777C159.546 116.097 159.554 116.444 159.594 116.811C159.605 116.914 159.56 117.018 159.473 117.079C158.823 117.527 158.363 118.125 159.567 117.913C160.591 118.635 160.32 117.938 160.077 117.258Z" fill="black"/>
<path d="M163.399 133.718C163.299 133.699 163.219 133.623 163.19 133.526C163.094 133.175 162.966 132.887 162.865 132.607C162.765 132.324 162.653 132.08 162.531 131.866C162.271 131.449 162.038 131.105 161.783 130.855C161.26 130.366 160.768 130.176 160.658 130.226C160.547 130.277 160.352 130.792 160.568 131.533C160.669 131.904 160.842 132.347 161.217 132.755C161.397 132.963 161.608 133.173 161.854 133.375C162.103 133.576 162.425 133.739 162.761 133.897C162.857 133.94 162.924 134.032 162.934 134.137C162.957 134.528 163.05 134.9 163.189 135.029C163.325 135.163 163.487 135.05 163.709 134.484C164.283 134.241 164.38 134.068 164.252 133.96C164.119 133.854 163.756 133.794 163.399 133.718Z" fill="black"/>
<path d="M188.377 132.302C188.379 132.402 188.322 132.495 188.232 132.541C187.618 132.886 187.09 133.169 186.729 133.501C186.543 133.661 186.395 133.832 186.261 133.991C186.118 134.141 186.003 134.292 185.909 134.439C185.535 135.028 185.494 135.568 185.573 135.664C185.647 135.755 186.173 135.795 186.857 135.448C187.028 135.362 187.208 135.252 187.391 135.115C187.564 134.969 187.729 134.784 187.893 134.574C188.21 134.144 188.546 133.619 188.684 132.886C188.705 132.785 188.781 132.703 188.881 132.675C189.614 132.468 190.324 132.134 189.09 131.881C188.421 130.882 188.357 131.569 188.377 132.302Z" fill="black"/>
<path d="M187.975 109.631C188.073 109.656 188.14 109.742 188.157 109.841C188.258 110.56 188.477 111.076 188.66 111.531C188.844 111.983 189.084 112.319 189.332 112.575C189.793 113.098 190.265 113.313 190.389 113.265C190.492 113.225 190.725 112.725 190.589 111.978C190.505 111.614 190.334 111.187 190.038 110.742C189.745 110.297 189.233 109.887 188.618 109.51C188.53 109.458 188.478 109.359 188.478 109.257C188.455 108.52 188.296 107.768 187.732 108.861C186.563 109.241 187.234 109.466 187.975 109.631Z" fill="black"/>
<path d="M164.771 106.962C164.804 106.869 164.893 106.805 164.995 106.794C165.715 106.719 166.259 106.556 166.738 106.415C167.207 106.26 167.552 106.02 167.836 105.814C168.405 105.414 168.641 104.934 168.603 104.816C168.566 104.705 168.086 104.473 167.314 104.537C166.932 104.575 166.501 104.741 166.033 105.006C165.558 105.255 165.102 105.714 164.691 106.317C164.633 106.402 164.532 106.45 164.426 106.441C163.65 106.367 162.913 106.522 163.965 107.132C164.283 108.328 164.522 107.634 164.771 106.962Z" fill="black"/>
<path d="M157.918 127.13C157.839 127.067 157.804 126.963 157.826 126.866C157.96 126.181 158.08 125.597 158.054 125.107C158.033 124.617 157.933 124.211 157.835 123.876C157.612 123.211 157.214 122.846 157.089 122.848C156.971 122.85 156.606 123.233 156.443 123.969C156.346 124.336 156.348 124.788 156.473 125.303C156.603 125.816 156.792 126.402 157.267 126.981C157.331 127.063 157.345 127.173 157.302 127.266C156.986 127.949 156.783 128.696 157.78 127.939C158.986 128.089 158.496 127.592 157.918 127.13Z" fill="black"/>
<path d="M173.878 140.923C173.795 140.982 173.685 140.987 173.596 140.94C172.959 140.629 172.418 140.387 171.937 140.267C171.455 140.149 171.031 140.152 170.682 140.149C169.979 140.177 169.51 140.451 169.476 140.57C169.444 140.682 169.713 141.133 170.39 141.495C170.725 141.692 171.172 141.796 171.71 141.822C172.246 141.85 172.874 141.798 173.563 141.502C173.66 141.464 173.771 141.479 173.85 141.545C174.437 142.027 175.114 142.418 174.634 141.269C175.095 140.163 174.481 140.496 173.878 140.923Z" fill="black"/>
</g>
</svg>
