<svg width="388" height="580" viewBox="0 0 388 580" fill="none" xmlns="http://www.w3.org/2000/svg">
<rect width="388" height="580" fill="#ffffff"/>
<g opacity="0.25">
<path d="M217.229 179.919L217.15 179.948C217.151 179.934 217.152 179.924 217.153 179.908C217.147 179.726 217.053 179.546 216.937 179.561C216.821 179.576 216.741 179.777 216.763 179.955C216.772 180.039 216.8 180.102 216.836 180.146C216.612 180.059 216.306 180.06 215.967 180.104C215.651 180.174 215.308 180.298 215.048 180.469C214.792 180.649 214.636 180.83 214.557 181.002C214.523 181.07 214.46 181.128 214.387 181.15C214.188 181.208 213.992 181.336 213.848 181.532C213.644 181.794 213.648 182.153 213.8 182.406C214.1 182.886 214.728 182.914 215.12 182.601C215.217 182.518 215.29 182.417 215.338 182.304C215.365 182.236 215.428 182.195 215.501 182.193C215.677 182.185 215.864 182.121 216.072 181.973C216.28 181.837 216.487 181.669 216.664 181.463C216.847 181.291 217.002 181.071 217.099 180.879C217.101 180.933 217.121 180.998 217.164 181.072C217.257 181.23 217.401 181.366 217.468 181.328C217.535 181.29 217.515 181.089 217.436 180.927C217.429 180.915 217.424 180.907 217.417 180.896C217.439 180.892 217.46 180.889 217.483 180.883C217.766 180.805 217.982 180.57 217.954 180.288C217.931 180.022 217.595 179.821 217.229 179.919Z" fill="black"/>
<path d="M210.656 186.906L210.612 186.975C210.604 186.964 210.598 186.954 210.589 186.942C210.472 186.8 210.286 186.712 210.202 186.793C210.119 186.873 210.18 187.08 210.307 187.21C210.366 187.271 210.427 187.305 210.483 187.319C210.251 187.382 210.007 187.563 209.765 187.8C209.557 188.042 209.359 188.344 209.257 188.634C209.164 188.929 209.151 189.166 209.194 189.349C209.21 189.424 209.195 189.507 209.151 189.568C209.027 189.732 208.951 189.95 208.956 190.192C208.955 190.521 209.179 190.805 209.457 190.916C209.992 191.121 210.509 190.772 210.629 190.291C210.656 190.167 210.65 190.044 210.62 189.926C210.599 189.855 210.624 189.785 210.681 189.74C210.816 189.63 210.927 189.468 211 189.227C211.082 188.995 211.144 188.739 211.158 188.471C211.198 188.225 211.186 187.958 211.144 187.748C211.179 187.789 211.236 187.83 211.316 187.863C211.487 187.934 211.685 187.957 211.715 187.887C211.746 187.817 211.606 187.669 211.443 187.586C211.43 187.581 211.421 187.577 211.408 187.573C211.423 187.556 211.439 187.542 211.453 187.523C211.63 187.294 211.658 186.979 211.462 186.77C211.28 186.573 210.888 186.611 210.656 186.906Z" fill="black"/>
<path d="M207.76 187.248L207.702 187.307C207.696 187.294 207.693 187.284 207.687 187.27C207.601 187.108 207.438 186.984 207.339 187.047C207.241 187.109 207.257 187.324 207.354 187.476C207.399 187.548 207.453 187.593 207.505 187.618C207.264 187.633 206.987 187.762 206.701 187.945C206.447 188.14 206.191 188.397 206.03 188.66C205.877 188.931 205.816 189.16 205.82 189.348C205.819 189.424 205.788 189.502 205.732 189.553C205.576 189.689 205.456 189.888 205.411 190.125C205.341 190.447 205.501 190.769 205.75 190.934C206.231 191.242 206.811 191.004 207.028 190.557C207.08 190.441 207.101 190.319 207.095 190.197C207.09 190.124 207.128 190.06 207.194 190.028C207.349 189.947 207.491 189.811 207.614 189.589C207.742 189.379 207.856 189.14 207.925 188.88C208.016 188.648 208.059 188.384 208.063 188.17C208.088 188.218 208.134 188.268 208.205 188.317C208.359 188.42 208.548 188.483 208.592 188.421C208.636 188.358 208.53 188.184 208.389 188.071C208.377 188.064 208.368 188.058 208.357 188.051C208.375 188.039 208.394 188.027 208.411 188.012C208.633 187.823 208.725 187.52 208.577 187.277C208.44 187.046 208.048 187.005 207.76 187.248Z" fill="black"/>
<path d="M222.744 180.604L222.671 180.604C222.677 180.591 222.681 180.582 222.687 180.568C222.742 180.395 222.726 180.194 222.641 180.168C222.551 180.145 222.44 180.293 222.376 180.464C222.348 180.543 222.341 180.611 222.35 180.666C222.084 180.334 221.562 179.97 221.014 179.81C220.746 179.73 220.5 179.724 220.322 179.771C220.249 179.789 220.16 179.778 220.097 179.73C219.93 179.602 219.701 179.521 219.435 179.539C219.082 179.546 218.775 179.79 218.696 180.066C218.562 180.609 218.919 181.082 219.373 181.175C219.492 181.195 219.617 181.199 219.734 181.169C219.803 181.154 219.873 181.173 219.923 181.228C220.046 181.361 220.211 181.461 220.491 181.544C221.023 181.701 221.822 181.7 222.233 181.434C222.206 181.483 222.191 181.55 222.197 181.635C222.208 181.815 222.326 182.01 222.427 181.999C222.531 181.991 222.592 181.797 222.573 181.617C222.569 181.604 222.567 181.594 222.564 181.581L222.641 181.594C222.991 181.633 223.289 181.423 223.302 181.147C223.313 180.874 223.065 180.64 222.744 180.604Z" fill="black"/>
<path d="M227.661 179.629L227.604 179.673C227.601 179.659 227.598 179.649 227.594 179.635C227.529 179.464 227.394 179.317 227.312 179.342C227.229 179.366 227.225 179.563 227.281 179.735C227.308 179.816 227.345 179.874 227.386 179.912C226.951 179.811 226.322 179.862 225.856 179.99C225.621 180.069 225.45 180.145 225.333 180.273C225.286 180.325 225.215 180.343 225.149 180.319C224.971 180.257 224.785 180.269 224.585 180.332C224.319 180.434 224.097 180.675 224.032 180.964C223.901 181.506 224.367 181.992 224.99 181.927C225.143 181.905 225.283 181.853 225.401 181.781C225.47 181.74 225.558 181.731 225.635 181.752C225.822 181.801 226.075 181.823 226.383 181.722C227.005 181.55 227.624 181.033 227.769 180.591C227.779 180.646 227.809 180.708 227.866 180.772C227.988 180.908 228.187 180.993 228.271 180.927C228.355 180.86 228.281 180.666 228.154 180.536C228.143 180.528 228.135 180.521 228.125 180.513L228.194 180.476C228.5 180.29 228.603 179.946 228.436 179.721C228.273 179.502 227.928 179.467 227.661 179.629Z" fill="black"/>
<path d="M228.248 175.547L228.21 175.607C228.202 175.595 228.196 175.587 228.188 175.574C228.066 175.436 227.888 175.345 227.819 175.396C227.751 175.447 227.816 175.632 227.929 175.775C227.983 175.841 228.038 175.883 228.09 175.905C227.646 175.958 227.074 176.218 226.682 176.496C226.489 176.65 226.355 176.78 226.292 176.939C226.265 177.004 226.205 177.045 226.135 177.045C225.946 177.046 225.775 177.12 225.61 177.248C225.396 177.434 225.274 177.734 225.314 178.028C225.382 178.581 225.991 178.88 226.553 178.607C226.689 178.535 226.802 178.439 226.887 178.331C226.937 178.269 227.017 178.231 227.097 178.224C227.29 178.208 227.534 178.142 227.788 177.943C228.311 177.572 228.709 176.876 228.69 176.412C228.718 176.461 228.768 176.509 228.844 176.549C229.007 176.636 229.223 176.649 229.279 176.558C229.334 176.467 229.196 176.309 229.031 176.231C229.017 176.226 229.008 176.223 228.995 176.219L229.048 176.161C229.269 175.883 229.244 175.526 229.008 175.371C228.778 175.22 228.442 175.304 228.248 175.547Z" fill="black"/>
<path d="M231.421 176.106L231.384 176.166C231.376 176.156 231.369 176.148 231.36 176.136C231.231 176.009 231.041 175.927 230.976 175.985C230.911 176.043 230.991 176.226 231.116 176.359C231.174 176.421 231.233 176.458 231.286 176.476C230.849 176.565 230.283 176.887 229.923 177.252C229.727 177.441 229.622 177.624 229.579 177.795C229.561 177.863 229.509 177.92 229.44 177.941C229.253 177.995 229.085 178.116 228.959 178.293C228.793 178.539 228.766 178.867 228.895 179.134C229.135 179.641 229.799 179.739 230.239 179.353C230.345 179.256 230.424 179.142 230.475 179.022C230.504 178.951 230.569 178.9 230.645 178.882C230.828 178.84 231.024 178.728 231.235 178.523C231.662 178.095 231.984 177.395 231.926 176.934C231.959 176.98 232.013 177.024 232.092 177.058C232.26 177.131 232.476 177.129 232.522 177.035C232.568 176.941 232.424 176.798 232.251 176.729C232.237 176.726 232.226 176.723 232.214 176.72L232.265 176.66C232.455 176.364 232.41 176.012 232.167 175.876C231.923 175.74 231.589 175.843 231.421 176.106Z" fill="black"/>
<path d="M211.772 181.976L211.751 182.043C211.74 182.034 211.732 182.028 211.72 182.019C211.564 181.925 211.36 181.889 211.311 181.961C211.262 182.033 211.383 182.192 211.537 182.292C211.609 182.339 211.675 182.362 211.731 182.366C211.327 182.554 210.855 182.998 210.594 183.436C210.448 183.666 210.391 183.867 210.391 184.043C210.39 184.114 210.353 184.181 210.29 184.218C210.122 184.314 209.988 184.47 209.909 184.67C209.806 184.948 209.86 185.273 210.05 185.502C210.404 185.94 211.074 185.881 211.408 185.404C211.487 185.286 211.536 185.157 211.557 185.028C211.569 184.953 211.619 184.887 211.689 184.853C211.857 184.769 212.019 184.615 212.175 184.367C212.486 183.852 212.631 183.098 212.463 182.662C212.506 182.699 212.569 182.73 212.654 182.745C212.836 182.777 213.044 182.725 213.066 182.623C213.088 182.521 212.914 182.415 212.729 182.389C212.714 182.389 212.704 182.388 212.69 182.388L212.726 182.319C212.839 181.986 212.711 181.655 212.441 181.579C212.172 181.503 211.871 181.681 211.772 181.976Z" fill="black"/>
<path d="M233.019 171.343L233.022 171.414C233.009 171.409 232.999 171.405 232.985 171.4C232.805 171.355 232.603 171.378 232.579 171.462C232.553 171.545 232.715 171.663 232.892 171.715C232.975 171.739 233.044 171.742 233.1 171.73C232.771 172.026 232.456 172.595 232.335 173.079C232.269 173.326 232.276 173.524 232.318 173.686C232.337 173.753 232.32 173.825 232.27 173.873C232.142 174.004 232.035 174.168 232.014 174.379C231.98 174.662 232.093 174.963 232.332 175.155C232.759 175.514 233.424 175.331 233.639 174.768C233.696 174.63 233.717 174.489 233.701 174.354C233.694 174.275 233.726 174.196 233.785 174.143C233.933 174.016 234.048 173.812 234.126 173.515C234.275 172.927 234.18 172.17 233.889 171.802C233.941 171.825 234.009 171.837 234.095 171.826C234.279 171.805 234.464 171.696 234.455 171.593C234.445 171.49 234.242 171.438 234.06 171.466C234.047 171.47 234.037 171.472 234.023 171.476L234.033 171.4C234.054 171.052 233.828 170.771 233.544 170.773C233.267 170.775 233.038 171.031 233.019 171.343Z" fill="black"/>
<path d="M236.401 155.952L236.341 155.992C236.339 155.978 236.337 155.968 236.334 155.953C236.28 155.779 236.154 155.623 236.068 155.646C235.982 155.667 235.964 155.865 236.011 156.039C236.033 156.121 236.068 156.181 236.106 156.221C235.677 156.101 235.018 156.133 234.532 156.285C234.283 156.359 234.114 156.468 233.995 156.587C233.947 156.638 233.875 156.661 233.807 156.645C233.626 156.606 233.427 156.602 233.232 156.694C232.968 156.814 232.765 157.065 232.723 157.365C232.633 157.909 233.138 158.369 233.741 158.255C233.89 158.231 234.024 158.175 234.134 158.092C234.199 158.045 234.285 158.03 234.361 158.052C234.549 158.109 234.787 158.098 235.086 158.01C235.676 157.827 236.287 157.353 236.455 156.918C236.462 156.974 236.488 157.037 236.542 157.103C236.656 157.246 236.847 157.343 236.933 157.283C237.017 157.22 236.956 157.024 236.837 156.887C236.827 156.877 236.819 156.87 236.809 156.861L236.881 156.829C237.195 156.665 237.321 156.329 237.171 156.094C237.025 155.863 236.683 155.804 236.401 155.952Z" fill="black"/>
<path d="M232.546 166.04V166.12C232.533 166.115 232.524 166.111 232.509 166.105C232.332 166.056 232.126 166.087 232.101 166.196C232.083 166.304 232.257 166.436 232.438 166.473C232.523 166.491 232.593 166.486 232.647 166.467C232.32 166.818 232.191 167.606 232.307 168.172C232.36 168.457 232.462 168.654 232.582 168.779C232.632 168.831 232.653 168.905 232.633 168.973C232.578 169.159 232.583 169.333 232.659 169.536C232.767 169.805 233.027 170.014 233.323 170.066C233.882 170.169 234.355 169.699 234.275 169.106C234.251 168.959 234.201 168.816 234.123 168.712C234.078 168.649 234.068 168.568 234.094 168.497C234.159 168.319 234.171 168.109 234.122 167.842C234.018 167.324 233.739 166.776 233.439 166.462C233.493 166.478 233.563 166.481 233.647 166.464C233.828 166.428 234 166.333 233.981 166.254C233.968 166.175 233.769 166.131 233.586 166.155C233.571 166.159 233.561 166.161 233.549 166.164C233.553 166.142 233.559 166.121 233.56 166.097C233.574 165.8 233.395 165.524 233.122 165.475C232.844 165.425 232.565 165.675 232.546 166.04Z" fill="black"/>
<path d="M230.604 163.84L230.579 163.917C230.568 163.908 230.56 163.901 230.548 163.892C230.395 163.792 230.189 163.76 230.131 163.856C230.08 163.953 230.205 164.131 230.366 164.221C230.441 164.264 230.509 164.279 230.565 164.277C230.145 164.513 229.776 165.226 229.71 165.799C229.672 166.086 229.707 166.304 229.782 166.459C229.813 166.524 229.81 166.6 229.771 166.66C229.66 166.82 229.61 166.987 229.619 167.203C229.638 167.491 229.82 167.768 230.086 167.906C230.586 168.172 231.183 167.866 231.292 167.278C231.315 167.131 231.312 166.98 231.27 166.858C231.247 166.784 231.263 166.704 231.31 166.643C231.427 166.494 231.505 166.298 231.54 166.028C231.604 165.504 231.509 164.899 231.322 164.51C231.368 164.541 231.434 164.565 231.519 164.575C231.702 164.595 231.896 164.555 231.902 164.474C231.915 164.396 231.74 164.294 231.557 164.262C231.543 164.261 231.532 164.26 231.519 164.259C231.53 164.24 231.542 164.221 231.551 164.199C231.657 163.921 231.574 163.604 231.328 163.475C231.079 163.344 230.735 163.499 230.604 163.84Z" fill="black"/>
<path d="M235.05 161.045L235.003 161.107C234.996 161.095 234.991 161.085 234.984 161.072C234.876 160.924 234.7 160.819 234.619 160.881C234.538 160.945 234.584 161.148 234.695 161.293C234.747 161.361 234.803 161.402 234.856 161.423C234.387 161.468 233.754 161.903 233.417 162.42C233.249 162.682 233.165 162.898 233.177 163.099C233.179 163.178 233.144 163.258 233.082 163.308C232.913 163.442 232.774 163.643 232.739 163.9C232.674 164.241 232.825 164.568 233.096 164.719C233.589 164.98 234.165 164.743 234.35 164.323C234.401 164.214 234.431 164.101 234.428 163.985C234.428 163.916 234.466 163.854 234.527 163.822C234.667 163.741 234.83 163.617 234.965 163.403C235.235 162.989 235.459 162.373 235.453 161.934C235.482 161.981 235.532 162.029 235.606 162.071C235.767 162.161 235.969 162.194 236.014 162.117C236.059 162.04 235.935 161.879 235.778 161.785C235.765 161.779 235.756 161.775 235.743 161.769L235.796 161.721C236.007 161.481 236.051 161.153 235.849 160.954C235.655 160.763 235.281 160.784 235.05 161.045Z" fill="black"/>
<path d="M238.65 156.906L238.596 156.963C238.59 156.95 238.587 156.94 238.58 156.926C238.489 156.768 238.325 156.647 238.237 156.701C238.149 156.756 238.176 156.963 238.271 157.118C238.316 157.19 238.367 157.237 238.417 157.263C237.946 157.262 237.272 157.633 236.884 158.114C236.691 158.358 236.585 158.566 236.576 158.766C236.569 158.845 236.527 158.921 236.46 158.966C236.279 159.082 236.119 159.268 236.059 159.52C235.96 159.853 236.076 160.194 236.331 160.37C236.794 160.678 237.392 160.499 237.618 160.099C237.68 159.996 237.721 159.886 237.731 159.77C237.737 159.702 237.782 159.644 237.846 159.618C237.993 159.551 238.168 159.444 238.325 159.244C238.635 158.858 238.921 158.267 238.959 157.83C238.983 157.88 239.028 157.932 239.098 157.981C239.249 158.086 239.446 158.139 239.499 158.067C239.552 157.995 239.445 157.822 239.298 157.714C239.286 157.706 239.277 157.701 239.265 157.695L239.323 157.651C239.556 157.433 239.634 157.111 239.453 156.894C239.28 156.685 238.905 156.669 238.65 156.906Z" fill="black"/>
<path d="M220.188 182.69L220.106 182.689C220.112 182.676 220.116 182.666 220.123 182.653C220.181 182.48 220.155 182.278 220.044 182.252C219.941 182.229 219.808 182.393 219.764 182.569C219.744 182.651 219.747 182.719 219.763 182.772C219.435 182.455 218.735 182.259 218.166 182.308C217.878 182.329 217.668 182.413 217.524 182.524C217.464 182.57 217.384 182.589 217.312 182.567C217.118 182.507 216.888 182.52 216.665 182.623C216.36 182.762 216.166 183.076 216.201 183.369C216.289 183.914 216.763 184.249 217.212 184.171C217.329 184.15 217.435 184.1 217.531 184.034C217.586 183.994 217.659 183.989 217.72 184.02C217.872 184.097 218.063 184.128 218.319 184.109C218.82 184.066 219.424 183.842 219.74 183.549C219.722 183.601 219.717 183.669 219.73 183.752C219.758 183.931 219.846 184.105 219.925 184.09C219.994 184.078 220.042 183.883 220.029 183.704C220.027 183.691 220.025 183.681 220.023 183.668C220.043 183.672 220.063 183.678 220.084 183.679C220.162 183.684 220.191 183.681 220.253 183.663C220.329 183.653 220.401 183.63 220.463 183.596C220.589 183.53 220.679 183.421 220.707 183.286C220.736 183.152 220.698 183.017 220.618 182.909C220.577 182.855 220.526 182.807 220.466 182.77C220.39 182.731 220.27 182.694 220.188 182.69Z" fill="black"/>
<path d="M214.676 184.176L214.625 184.24C214.618 184.227 214.613 184.218 214.606 184.205C214.501 184.055 214.321 183.952 214.232 184.023C214.152 184.09 214.205 184.294 214.321 184.433C214.376 184.499 214.433 184.538 214.486 184.558C214.029 184.621 213.446 185.048 213.141 185.521C212.984 185.759 212.925 185.973 212.927 186.153C212.93 186.228 212.896 186.3 212.834 186.344C212.668 186.46 212.539 186.646 212.488 186.882C212.416 187.204 212.554 187.545 212.813 187.696C213.309 187.956 213.868 187.79 214.077 187.393C214.131 187.289 214.154 187.176 214.158 187.062C214.16 186.994 214.2 186.935 214.262 186.905C214.417 186.834 214.558 186.704 214.698 186.493C214.966 186.076 215.149 185.47 215.102 185.046C215.134 185.091 215.186 185.136 215.261 185.177C215.424 185.263 215.619 185.3 215.655 185.23C215.687 185.168 215.558 185.013 215.404 184.915C215.391 184.908 215.382 184.903 215.371 184.897C215.386 184.884 215.402 184.872 215.417 184.857C215.468 184.799 215.483 184.774 215.506 184.715C215.543 184.649 215.568 184.58 215.579 184.511C215.601 184.372 215.567 184.237 215.475 184.133C215.383 184.029 215.251 183.977 215.114 183.974C215.046 183.973 214.976 183.984 214.909 184.008C214.832 184.044 214.729 184.115 214.676 184.176Z" fill="black"/>
<path d="M225.215 182.96C225.192 182.964 225.17 182.971 225.148 182.977C225.151 182.964 225.152 182.953 225.154 182.939C225.163 182.758 225.1 182.567 225.015 182.563C224.93 182.556 224.849 182.731 224.835 182.912C224.828 182.995 224.839 183.063 224.862 183.114C224.514 182.85 223.903 182.678 223.406 182.673C223.153 182.665 222.964 182.716 222.818 182.806C222.758 182.844 222.685 182.84 222.627 182.805C222.471 182.706 222.283 182.662 222.076 182.699C221.795 182.74 221.54 182.939 221.426 183.217C221.211 183.725 221.555 184.284 222.122 184.333C222.262 184.346 222.397 184.327 222.517 184.283C222.588 184.256 222.668 184.272 222.731 184.311C222.884 184.41 223.099 184.472 223.391 184.48C223.969 184.487 224.658 184.229 224.95 183.885C224.939 183.94 224.942 184.008 224.968 184.088C225.025 184.26 225.165 184.42 225.26 184.389C225.355 184.357 225.364 184.154 225.302 183.984C225.296 183.971 225.292 183.963 225.286 183.951L225.36 183.945C225.693 183.893 225.917 183.63 225.862 183.361C225.806 183.092 225.517 182.912 225.215 182.96Z" fill="black"/>
<path d="M208.346 182.783C208.337 182.804 208.332 182.826 208.325 182.847C208.314 182.838 208.306 182.831 208.295 182.821C208.144 182.717 207.946 182.665 207.896 182.733C207.845 182.799 207.952 182.961 208.098 183.07C208.167 183.121 208.231 183.148 208.287 183.157C207.872 183.301 207.395 183.713 207.122 184.119C206.979 184.323 206.92 184.507 206.919 184.676C206.919 184.746 206.877 184.803 206.815 184.833C206.646 184.908 206.507 185.039 206.427 185.231C206.31 185.483 206.343 185.802 206.521 186.045C206.841 186.498 207.507 186.515 207.856 186.075C207.942 185.966 207.999 185.845 208.026 185.722C208.042 185.648 208.098 185.591 208.166 185.56C208.333 185.487 208.503 185.344 208.667 185.108C208.985 184.635 209.135 183.927 208.998 183.501C209.038 183.539 209.098 183.574 209.182 183.595C209.36 183.641 209.573 183.613 209.598 183.518C209.621 183.422 209.452 183.304 209.273 183.264C209.259 183.262 209.249 183.261 209.236 183.259L209.271 183.195C209.405 182.892 209.301 182.566 209.04 182.466C208.779 182.367 208.467 182.508 208.346 182.783Z" fill="black"/>
<path d="M229.837 181.265C229.817 181.278 229.8 181.293 229.782 181.307C229.778 181.294 229.775 181.284 229.771 181.269C229.703 181.102 229.565 180.953 229.485 180.982C229.405 181.011 229.408 181.21 229.471 181.381C229.501 181.46 229.54 181.517 229.582 181.554C229.147 181.445 228.523 181.548 228.069 181.737C227.843 181.846 227.685 181.951 227.59 182.091C227.551 182.146 227.486 182.178 227.418 182.169C227.239 182.151 227.049 182.178 226.874 182.287C226.638 182.437 226.489 182.729 226.494 183.02C226.502 183.58 227.042 183.943 227.589 183.77C227.726 183.733 227.841 183.655 227.932 183.563C227.986 183.509 228.064 183.486 228.139 183.499C228.32 183.529 228.552 183.517 228.815 183.39C229.35 183.167 229.862 182.642 229.987 182.221C230 182.275 230.032 182.336 230.09 182.398C230.214 182.531 230.404 182.614 230.477 182.547C230.55 182.48 230.474 182.293 230.346 182.162C230.335 182.153 230.327 182.147 230.317 182.138L230.382 182.105C230.668 181.931 230.76 181.599 230.594 181.371C230.434 181.151 230.097 181.107 229.837 181.265Z" fill="black"/>
<path d="M233.467 177.938C233.454 177.957 233.444 177.977 233.432 177.997C233.424 177.986 233.418 177.977 233.409 177.966C233.283 177.833 233.099 177.744 233.036 177.8C232.976 177.858 233.044 178.037 233.166 178.173C233.223 178.236 233.28 178.275 233.333 178.295C233.112 178.32 232.863 178.415 232.633 178.549C232.392 178.675 232.163 178.836 231.993 179.017C231.814 179.195 231.712 179.36 231.677 179.525C231.662 179.592 231.614 179.647 231.548 179.665C231.374 179.718 231.206 179.815 231.087 179.985C230.926 180.214 230.909 180.546 231.035 180.811C231.273 181.32 231.909 181.434 232.34 181.074C232.449 180.988 232.524 180.877 232.571 180.757C232.599 180.687 232.66 180.637 232.734 180.622C232.912 180.582 233.112 180.482 233.315 180.279C233.509 180.073 233.687 179.81 233.807 179.543C233.918 179.267 233.977 178.991 233.959 178.772C233.99 178.818 234.042 178.863 234.12 178.901C234.285 178.981 234.5 178.996 234.541 178.906C234.583 178.817 234.442 178.668 234.275 178.593C234.261 178.589 234.252 178.585 234.239 178.581L234.287 178.526C234.482 178.258 234.449 177.918 234.214 177.768C233.979 177.618 233.645 177.694 233.467 177.938Z" fill="black"/>
<path d="M235.497 173.528C235.491 173.551 235.49 173.572 235.487 173.595C235.475 173.588 235.465 173.583 235.452 173.576C235.284 173.506 235.077 173.497 235.04 173.572C235.003 173.648 235.148 173.785 235.315 173.861C235.393 173.896 235.462 173.909 235.518 173.906C235.148 174.134 234.771 174.637 234.589 175.086C234.505 175.319 234.48 175.506 234.509 175.669C234.521 175.735 234.498 175.802 234.444 175.843C234.303 175.954 234.193 176.108 234.146 176.306C234.086 176.575 234.195 176.886 234.41 177.086C234.822 177.474 235.463 177.352 235.726 176.852C235.795 176.732 235.815 176.595 235.815 176.468C235.815 176.393 235.853 176.323 235.916 176.28C236.07 176.177 236.214 176.004 236.312 175.733C236.527 175.204 236.519 174.48 236.288 174.092C236.336 174.121 236.402 174.142 236.488 174.146C236.673 174.153 236.869 174.079 236.874 173.981C236.879 173.884 236.69 173.805 236.505 173.803C236.49 173.804 236.48 173.805 236.466 173.806L236.49 173.737C236.559 173.414 236.375 173.115 236.1 173.073C235.821 173.029 235.559 173.234 235.497 173.528Z" fill="black"/>
<path d="M235.577 168.662C235.581 168.686 235.588 168.707 235.594 168.729C235.58 168.727 235.57 168.725 235.555 168.724C235.371 168.719 235.176 168.786 235.171 168.87C235.165 168.956 235.352 169.031 235.536 169.041C235.622 169.044 235.691 169.031 235.742 169.008C235.485 169.357 235.331 169.971 235.347 170.459C235.364 170.709 235.41 170.892 235.507 171.031C235.546 171.088 235.553 171.159 235.52 171.219C235.438 171.377 235.389 171.561 235.435 171.763C235.501 172.035 235.711 172.274 235.997 172.372C236.529 172.562 237.079 172.197 237.104 171.639C237.113 171.501 237.09 171.37 237.033 171.254C237.001 171.186 237.007 171.107 237.047 171.043C237.141 170.89 237.21 170.677 237.191 170.393C237.173 169.83 236.888 169.173 236.526 168.899C236.582 168.908 236.652 168.903 236.733 168.875C236.907 168.815 237.061 168.676 237.029 168.585C236.997 168.493 236.791 168.489 236.618 168.553C236.605 168.56 236.596 168.565 236.584 168.571L236.579 168.498C236.533 168.215 236.294 168.004 236.012 168.015C235.733 168.024 235.522 168.324 235.577 168.662Z" fill="black"/>
<path d="M236.118 163.388L236.098 163.461C236.087 163.453 236.079 163.446 236.066 163.437C235.911 163.338 235.708 163.304 235.655 163.395C235.603 163.487 235.725 163.658 235.885 163.747C235.96 163.789 236.028 163.805 236.085 163.805C235.685 164.026 235.299 164.67 235.221 165.233C235.178 165.517 235.211 165.735 235.292 165.898C235.325 165.964 235.322 166.043 235.285 166.107C235.188 166.277 235.139 166.491 235.189 166.716C235.249 167.022 235.497 167.265 235.79 167.33C236.344 167.445 236.827 167.056 236.854 166.578C236.863 166.457 236.84 166.34 236.793 166.232C236.765 166.169 236.779 166.099 236.824 166.046C236.932 165.917 237.009 165.741 237.047 165.498C237.114 165.017 237.043 164.421 236.84 164.041C236.886 164.072 236.952 164.095 237.037 164.106C237.22 164.129 237.417 164.096 237.425 164.02C237.433 163.943 237.255 163.842 237.075 163.809C237.061 163.807 237.05 163.807 237.038 163.806C237.047 163.787 237.058 163.768 237.065 163.747C237.173 163.488 237.073 163.182 236.834 163.05C236.584 162.913 236.251 163.064 236.118 163.388Z" fill="black"/>
<path d="M224.343 185.878L224.269 185.883C224.274 185.87 224.278 185.86 224.282 185.846C224.325 185.67 224.295 185.47 224.208 185.451C224.12 185.435 224.002 185.595 223.952 185.766C223.929 185.847 223.927 185.916 223.941 185.97C223.798 185.813 223.589 185.67 223.359 185.558C223.244 185.495 223.126 185.432 223.005 185.383C222.941 185.359 222.881 185.336 222.823 185.315L222.732 185.287C222.66 185.271 222.589 185.255 222.52 185.24C222.451 185.238 222.385 185.236 222.32 185.234C222.041 185.227 221.828 185.272 221.668 185.358C221.602 185.393 221.522 185.395 221.458 185.359C221.283 185.264 221.077 185.219 220.852 185.253C220.549 185.298 220.285 185.498 220.166 185.773C219.932 186.283 220.329 186.842 220.936 186.891C221.085 186.904 221.228 186.884 221.356 186.838C221.431 186.811 221.517 186.822 221.583 186.864C221.745 186.967 221.968 187.033 222.277 187.041C222.335 187.042 222.337 187.042 222.343 187.039L222.345 187.036C222.356 187.037 222.292 187.024 222.336 187.03L222.451 187.041C222.526 187.044 222.603 187.047 222.685 187.05C222.842 187.05 222.996 187.045 223.145 187.021C223.443 186.963 223.706 186.868 223.882 186.744C223.86 186.795 223.849 186.862 223.862 186.947C223.889 187.13 224.008 187.31 224.118 187.291C224.226 187.276 224.276 187.078 224.242 186.9C224.237 186.887 224.234 186.877 224.23 186.865L224.311 186.873C224.679 186.886 224.966 186.659 224.954 186.379C224.942 186.11 224.668 185.89 224.343 185.878Z" fill="black"/>
<path d="M229.516 184.721L229.452 184.76C229.45 184.746 229.448 184.736 229.446 184.721C229.401 184.545 229.28 184.383 229.191 184.407C229.1 184.426 229.069 184.623 229.108 184.8C229.127 184.882 229.159 184.943 229.197 184.985C228.76 184.846 228.075 184.886 227.564 185.035C227.302 185.106 227.125 185.217 227.001 185.345C226.951 185.394 226.876 185.416 226.805 185.399C226.616 185.349 226.412 185.371 226.209 185.458C225.934 185.569 225.728 185.837 225.686 186.135C225.6 186.686 226.119 187.121 226.734 187.014C226.884 186.983 227.02 186.924 227.133 186.846C227.2 186.8 227.287 186.787 227.366 186.81C227.555 186.86 227.795 186.849 228.101 186.765C228.701 186.59 229.324 186.118 229.519 185.694C229.524 185.749 229.548 185.814 229.599 185.882C229.709 186.028 229.898 186.134 229.987 186.076C230.073 186.014 230.022 185.817 229.909 185.675C229.898 185.664 229.891 185.657 229.882 185.648L229.956 185.619C230.278 185.46 230.43 185.135 230.297 184.894C230.163 184.652 229.813 184.575 229.516 184.721Z" fill="black"/>
<path d="M237.816 181.526L237.785 181.594C237.776 181.583 237.769 181.576 237.758 181.564C237.619 181.444 237.425 181.379 237.366 181.449C237.302 181.515 237.391 181.695 237.526 181.818C237.589 181.875 237.65 181.907 237.706 181.92C237.266 182.051 236.727 182.465 236.393 182.872C236.219 183.077 236.138 183.267 236.111 183.441C236.097 183.51 236.049 183.57 235.981 183.595C235.796 183.659 235.641 183.79 235.525 183.976C235.364 184.22 235.35 184.555 235.489 184.824C235.737 185.325 236.417 185.393 236.86 184.962C236.966 184.853 237.044 184.729 237.091 184.602C237.119 184.527 237.184 184.467 237.262 184.442C237.446 184.378 237.637 184.235 237.839 183.995C238.232 183.516 238.469 182.781 238.383 182.324C238.419 182.367 238.476 182.406 238.558 182.434C238.734 182.493 238.95 182.474 238.99 182.377C239.025 182.279 238.869 182.144 238.692 182.09C238.678 182.088 238.668 182.086 238.655 182.083L238.698 182.018C238.871 181.708 238.808 181.356 238.558 181.232C238.307 181.108 237.975 181.24 237.816 181.526Z" fill="black"/>
<path d="M233.939 181.653L233.889 181.709C233.883 181.697 233.878 181.687 233.872 181.674C233.774 181.52 233.606 181.403 233.527 181.453C233.449 181.506 233.482 181.706 233.576 181.86C233.62 181.932 233.67 181.98 233.72 182.007C233.255 182.009 232.612 182.282 232.177 182.611C231.959 182.784 231.82 182.939 231.753 183.107C231.725 183.174 231.665 183.226 231.592 183.238C231.401 183.277 231.205 183.359 231.052 183.525C230.845 183.751 230.765 184.079 230.851 184.36C231.013 184.897 231.664 185.083 232.166 184.752C232.293 184.673 232.392 184.57 232.461 184.453C232.502 184.384 232.575 184.339 232.654 184.33C232.843 184.307 233.071 184.228 233.311 184.038C233.794 183.673 234.206 183.035 234.256 182.578C234.279 182.629 234.323 182.683 234.393 182.732C234.546 182.838 234.756 182.879 234.816 182.795C234.877 182.712 234.767 182.54 234.614 182.439C234.601 182.433 234.592 182.428 234.58 182.422L234.641 182.372C234.896 182.129 234.941 181.776 234.74 181.584C234.54 181.392 234.181 181.423 233.939 181.653Z" fill="black"/>
<path d="M237.182 177.446L237.157 177.515C237.146 177.505 237.138 177.498 237.127 177.488C236.979 177.38 236.78 177.329 236.726 177.401C236.675 177.473 236.779 177.645 236.921 177.758C236.988 177.81 237.052 177.837 237.108 177.846C236.675 178.004 236.177 178.448 235.861 178.875C235.706 179.096 235.635 179.292 235.613 179.465C235.606 179.536 235.562 179.601 235.496 179.632C235.321 179.718 235.169 179.86 235.064 180.058C234.926 180.329 234.948 180.669 235.113 180.915C235.426 181.384 236.097 181.377 236.489 180.926C236.586 180.815 236.647 180.682 236.682 180.553C236.703 180.476 236.761 180.412 236.835 180.382C237.019 180.311 237.2 180.158 237.379 179.905C237.743 179.41 237.929 178.648 237.814 178.2C237.854 178.239 237.913 178.275 237.997 178.296C238.179 178.343 238.393 178.307 238.419 178.203C238.448 178.1 238.282 177.979 238.101 177.939C238.087 177.938 238.076 177.937 238.063 177.935L238.103 177.866C238.262 177.544 238.154 177.193 237.892 177.092C237.632 176.993 237.326 177.156 237.182 177.446Z" fill="black"/>
<path d="M238.392 172.302L238.393 172.377C238.38 172.372 238.371 172.368 238.357 172.363C238.179 172.312 237.975 172.334 237.947 172.425C237.921 172.516 238.082 172.643 238.259 172.697C238.342 172.721 238.412 172.723 238.467 172.711C238.126 173.02 237.844 173.655 237.748 174.181C237.706 174.452 237.719 174.659 237.78 174.824C237.805 174.892 237.796 174.969 237.751 175.026C237.635 175.179 237.547 175.365 237.548 175.587C237.553 175.888 237.697 176.176 237.96 176.336C238.435 176.638 239.066 176.358 239.212 175.772C239.253 175.629 239.257 175.485 239.227 175.352C239.211 175.275 239.234 175.193 239.287 175.134C239.417 174.991 239.522 174.779 239.568 174.479C239.676 173.887 239.535 173.151 239.256 172.781C239.308 172.804 239.377 172.815 239.463 172.804C239.646 172.782 239.83 172.676 239.822 172.576C239.813 172.475 239.614 172.42 239.431 172.445C239.416 172.448 239.407 172.451 239.393 172.454C239.399 172.429 239.403 172.404 239.405 172.378C239.428 172.034 239.22 171.742 238.94 171.727C238.66 171.711 238.415 171.969 238.392 172.302Z" fill="black"/>
<path d="M237.949 166.966C237.953 166.992 237.96 167.017 237.967 167.041C237.953 167.039 237.942 167.037 237.927 167.034C237.742 167.023 237.548 167.09 237.545 167.191C237.542 167.29 237.733 167.383 237.917 167.393C238.004 167.398 238.071 167.383 238.122 167.357C237.869 167.744 237.775 168.464 237.866 169.016C237.912 169.297 238 169.493 238.117 169.632C238.165 169.689 238.182 169.765 238.159 169.834C238.097 170.018 238.095 170.227 238.164 170.415C238.215 170.559 238.293 170.621 238.398 170.742C238.5 170.854 238.631 170.938 238.777 170.979C239.05 171.057 239.314 170.992 239.513 170.835C239.613 170.765 239.693 170.643 239.744 170.487C239.791 170.348 239.813 170.189 239.795 170.042C239.78 169.89 239.731 169.755 239.659 169.642C239.618 169.575 239.612 169.489 239.641 169.419C239.712 169.244 239.736 169.018 239.688 168.729C239.594 168.16 239.265 167.522 238.905 167.236C238.961 167.245 239.03 167.239 239.111 167.208C239.284 167.144 239.437 167.004 239.405 166.915C239.372 166.825 239.166 166.816 238.993 166.879C238.98 166.885 238.971 166.89 238.959 166.896L238.954 166.821C238.904 166.493 238.649 166.257 238.369 166.284C238.091 166.311 237.897 166.622 237.949 166.966Z" fill="black"/>
<path d="M214.495 177.497C214.489 177.517 214.486 177.538 214.482 177.559C214.471 177.551 214.462 177.545 214.45 177.536C214.286 177.448 214.093 177.412 214.048 177.47C214 177.527 214.122 177.673 214.273 177.776C214.344 177.823 214.409 177.848 214.464 177.856C214.078 178.012 213.582 178.347 213.287 178.72C213.125 178.905 213.038 179.076 213.016 179.244C213.006 179.311 212.963 179.37 212.898 179.392C212.716 179.446 212.555 179.558 212.444 179.739C212.301 179.987 212.278 180.307 212.421 180.57C212.681 181.06 213.341 181.161 213.755 180.757C213.858 180.66 213.935 180.546 213.982 180.427C214.008 180.354 214.068 180.295 214.142 180.272C214.321 180.215 214.519 180.092 214.718 179.862C215.102 179.389 215.35 178.632 215.188 178.174C215.229 178.213 215.29 178.246 215.375 178.262C215.557 178.3 215.772 178.244 215.801 178.135C215.828 178.025 215.644 177.915 215.463 177.895H215.425L215.456 177.821C215.58 177.469 215.405 177.137 215.124 177.095C214.851 177.055 214.588 177.238 214.495 177.497Z" fill="black"/>
<path d="M214.142 172.554L214.153 172.627C214.139 172.624 214.129 172.621 214.114 172.617C213.931 172.591 213.731 172.641 213.719 172.738C213.705 172.835 213.889 172.937 214.072 172.96C214.158 172.97 214.227 172.961 214.28 172.94C213.985 173.267 213.861 174.04 213.983 174.586C214.042 174.866 214.137 175.043 214.262 175.168C214.313 175.22 214.334 175.291 214.312 175.356C214.259 175.532 214.265 175.722 214.341 175.899C214.452 176.143 214.687 176.329 214.992 176.4C215.267 176.46 215.532 176.396 215.712 176.217C215.902 176.037 215.998 175.754 215.954 175.461C215.932 175.316 215.875 175.192 215.8 175.084C215.756 175.02 215.746 174.94 215.771 174.872C215.834 174.705 215.846 174.485 215.792 174.229C215.681 173.722 215.402 173.197 215.07 172.879C215.125 172.892 215.194 172.891 215.278 172.868C215.455 172.819 215.617 172.7 215.595 172.615C215.572 172.53 215.368 172.506 215.189 172.552C215.176 172.557 215.166 172.561 215.154 172.565L215.156 172.495C215.134 172.183 214.904 171.937 214.623 171.942C214.343 171.948 214.119 172.223 214.142 172.554Z" fill="black"/>
<path d="M214.921 167.228L214.897 167.301C214.887 167.292 214.879 167.285 214.867 167.275C214.716 167.171 214.514 167.13 214.457 167.217C214.4 167.304 214.514 167.48 214.669 167.577C214.742 167.623 214.809 167.642 214.865 167.644C214.461 167.85 214.018 168.482 213.918 169.065C213.852 169.358 213.891 169.585 213.958 169.756C213.987 169.825 213.981 169.906 213.944 169.972C213.843 170.145 213.785 170.365 213.83 170.597C213.889 170.914 214.121 171.165 214.42 171.238C214.969 171.368 215.461 170.975 215.5 170.492C215.512 170.369 215.492 170.251 215.447 170.14C215.42 170.076 215.436 170.005 215.484 169.953C215.604 169.829 215.674 169.651 215.73 169.41C215.811 168.928 215.794 168.32 215.608 167.916C215.652 167.95 215.717 167.978 215.801 167.992C215.984 168.023 216.184 167.993 216.199 167.912C216.213 167.831 216.04 167.722 215.86 167.684C215.846 167.682 215.836 167.681 215.823 167.68C215.834 167.66 215.846 167.641 215.855 167.62C215.968 167.342 215.894 167.029 215.642 166.897C215.4 166.77 215.053 166.909 214.921 167.228Z" fill="black"/>
<path d="M218.471 166.547L218.432 166.614C218.423 166.602 218.417 166.594 218.408 166.582C218.281 166.449 218.092 166.368 218.018 166.443C217.945 166.517 218.019 166.712 218.15 166.837C218.213 166.897 218.273 166.93 218.329 166.943C217.89 167.063 217.323 167.592 217.104 168.143C216.978 168.416 216.968 168.647 216.998 168.827C217.011 168.9 216.989 168.979 216.939 169.035C216.804 169.185 216.7 169.389 216.697 169.625C216.688 169.947 216.862 170.24 217.139 170.37C217.649 170.608 218.213 170.322 218.352 169.857C218.39 169.74 218.395 169.62 218.375 169.503C218.361 169.434 218.392 169.368 218.45 169.327C218.594 169.23 218.7 169.069 218.805 168.845C218.985 168.39 219.096 167.791 218.998 167.359C219.035 167.401 219.092 167.441 219.171 167.471C219.344 167.538 219.546 167.55 219.578 167.473C219.609 167.397 219.462 167.255 219.294 167.182C219.281 167.177 219.271 167.175 219.258 167.171C219.273 167.153 219.289 167.138 219.302 167.119C219.471 166.869 219.465 166.548 219.245 166.368C219.035 166.196 218.667 166.261 218.471 166.547Z" fill="black"/>
<path d="M218.46 163.088C218.439 163.103 218.422 163.121 218.403 163.139C218.399 163.126 218.395 163.115 218.391 163.101C218.314 162.936 218.163 162.799 218.072 162.844C217.982 162.89 217.99 163.098 218.071 163.26C218.109 163.336 218.155 163.387 218.203 163.418C217.739 163.372 217.058 163.676 216.635 164.078C216.424 164.294 216.31 164.497 216.269 164.676C216.25 164.748 216.205 164.819 216.135 164.852C215.951 164.945 215.773 165.099 215.679 165.325C215.554 165.635 215.604 165.968 215.826 166.184C216.23 166.569 216.852 166.493 217.14 166.124C217.217 166.032 217.266 165.925 217.289 165.811C217.304 165.744 217.351 165.69 217.422 165.676C217.591 165.638 217.759 165.544 217.933 165.364C218.299 165.018 218.619 164.458 218.689 164.032C218.709 164.083 218.749 164.139 218.813 164.195C218.953 164.314 219.141 164.386 219.198 164.321C219.254 164.255 219.163 164.074 219.029 163.952C219.017 163.943 219.009 163.937 218.998 163.93L219.058 163.893C219.315 163.72 219.4 163.392 219.249 163.16C219.097 162.929 218.744 162.896 218.46 163.088Z" fill="black"/>
<path d="M223.562 161.058L223.486 161.076C223.489 161.063 223.491 161.052 223.494 161.037C223.509 160.856 223.445 160.664 223.34 160.662C223.236 160.659 223.139 160.846 223.131 161.026C223.127 161.111 223.143 161.177 223.17 161.227C222.784 160.973 222.015 160.923 221.445 161.117C221.154 161.209 220.964 161.343 220.849 161.492C220.802 161.552 220.727 161.589 220.649 161.586C220.44 161.579 220.223 161.655 220.033 161.802C219.779 162.012 219.676 162.344 219.761 162.626C219.931 163.159 220.519 163.368 220.961 163.169C221.074 163.119 221.165 163.036 221.242 162.95C221.287 162.898 221.357 162.876 221.426 162.89C221.593 162.923 221.787 162.908 222.028 162.832C222.497 162.672 223.032 162.338 223.298 161.993C223.291 162.047 223.298 162.115 223.328 162.194C223.393 162.364 223.52 162.517 223.599 162.487C223.679 162.457 223.688 162.254 223.632 162.084C223.626 162.071 223.622 162.062 223.616 162.051L223.685 162.046C223.991 162.019 224.229 161.772 224.216 161.501C224.203 161.223 223.91 161.027 223.562 161.058Z" fill="black"/>
<path d="M218.37 185.193L218.305 185.236C218.303 185.222 218.301 185.212 218.298 185.197C218.248 185.022 218.119 184.865 218.02 184.898C217.922 184.931 217.898 185.139 217.954 185.311C217.981 185.392 218.02 185.449 218.062 185.486C217.61 185.38 216.872 185.597 216.407 185.975C216.169 186.161 216.038 186.351 215.984 186.531C215.961 186.603 215.905 186.663 215.83 186.687C215.632 186.752 215.456 186.899 215.33 187.101C215.168 187.385 215.19 187.731 215.371 187.966C215.72 188.407 216.346 188.401 216.688 188.063C216.776 187.977 216.832 187.868 216.873 187.761C216.897 187.697 216.955 187.652 217.025 187.642C217.192 187.616 217.369 187.534 217.568 187.382C217.95 187.071 218.331 186.574 218.457 186.159C218.47 186.212 218.501 186.273 218.557 186.337C218.678 186.475 218.852 186.574 218.916 186.519C218.98 186.463 218.916 186.27 218.802 186.13C218.792 186.12 218.785 186.113 218.775 186.104L218.839 186.076C219.116 185.946 219.249 185.633 219.141 185.383C219.029 185.127 218.685 185.045 218.37 185.193Z" fill="black"/>
<path d="M228.881 161.411L228.813 161.421C228.817 161.408 228.82 161.398 228.823 161.385C228.851 161.206 228.811 161.01 228.732 160.99C228.653 160.971 228.554 161.14 228.515 161.317C228.498 161.399 228.5 161.468 228.514 161.52C228.206 161.214 227.661 160.945 227.135 160.846C226.868 160.797 226.647 160.815 226.473 160.881C226.404 160.907 226.323 160.901 226.256 160.86C226.081 160.746 225.853 160.69 225.608 160.728C225.275 160.766 225.01 161.011 224.936 161.295C224.806 161.837 225.196 162.31 225.669 162.363C225.792 162.373 225.91 162.365 226.022 162.325C226.087 162.301 226.16 162.318 226.214 162.368C226.341 162.485 226.527 162.574 226.809 162.625C227.362 162.732 228.145 162.603 228.496 162.297C228.477 162.349 228.47 162.418 228.486 162.5C228.521 162.678 228.648 162.849 228.755 162.832C228.863 162.817 228.897 162.614 228.852 162.439C228.847 162.426 228.843 162.416 228.839 162.404C228.865 162.406 228.891 162.407 228.918 162.406C229.278 162.388 229.533 162.135 229.491 161.857C229.45 161.592 229.177 161.397 228.881 161.411Z" fill="black"/>
<path d="M233.44 159.569L233.386 159.614C233.381 159.601 233.378 159.591 233.373 159.577C233.295 159.414 233.147 159.274 233.065 159.309C232.983 159.343 232.995 159.543 233.07 159.708C233.104 159.786 233.147 159.84 233.192 159.873C232.752 159.812 232.112 159.963 231.67 160.187C231.445 160.304 231.305 160.443 231.215 160.576C231.178 160.633 231.114 160.667 231.047 160.661C230.865 160.651 230.683 160.693 230.514 160.801C230.289 160.962 230.143 161.239 230.146 161.535C230.139 162.093 230.707 162.466 231.285 162.259C231.429 162.213 231.541 162.122 231.634 162.027C231.688 161.97 231.769 161.942 231.848 161.95C232.043 161.977 232.267 161.923 232.535 161.785C233.068 161.513 233.552 160.956 233.643 160.512C233.66 160.565 233.695 160.624 233.758 160.682C233.891 160.806 234.089 160.877 234.159 160.807C234.229 160.737 234.142 160.554 234.004 160.432C233.993 160.424 233.985 160.418 233.974 160.41L234.039 160.373C234.321 160.184 234.382 159.829 234.213 159.618C234.036 159.397 233.702 159.395 233.44 159.569Z" fill="black"/>
<path d="M211.624 175.174L211.646 175.244C211.632 175.243 211.621 175.242 211.606 175.24C211.422 175.244 211.233 175.326 211.235 175.421C211.231 175.455 211.262 175.43 211.33 175.437C211.396 175.437 211.484 175.472 211.575 175.476C211.66 175.484 211.73 175.478 211.783 175.46C211.492 175.732 211.224 176.286 211.141 176.768C211.099 177.012 211.119 177.201 211.182 177.355C211.208 177.418 211.199 177.489 211.153 177.538C211.033 177.673 210.956 177.839 210.955 178.036C210.951 178.298 211.1 178.563 211.345 178.743C211.789 179.095 212.445 178.856 212.606 178.287C212.649 178.149 212.648 178.012 212.624 177.885C212.61 177.811 212.633 177.733 212.685 177.679C212.814 177.546 212.913 177.346 212.962 177.062C213.058 176.503 212.912 175.777 212.574 175.414C212.629 175.43 212.699 175.433 212.782 175.408C212.869 175.376 212.961 175.339 213.014 175.254C213.068 175.176 213.087 175.053 213.066 174.999C213.03 174.921 212.825 174.93 212.656 175.003C212.643 175.01 212.634 175.016 212.623 175.022L212.614 174.954C212.55 174.655 212.273 174.454 211.998 174.505C211.722 174.555 211.554 174.855 211.624 175.174Z" fill="black"/>
<path d="M211.269 169.945L211.267 170.019C211.255 170.013 211.245 170.009 211.231 170.003C211.055 169.948 210.849 169.965 210.821 170.059C210.793 170.153 210.954 170.283 211.13 170.333C211.213 170.356 211.282 170.357 211.338 170.344C211.005 170.642 210.755 171.32 210.775 171.882C210.774 172.167 210.858 172.373 210.96 172.521C211.003 172.581 211.016 172.659 210.988 172.728C210.91 172.912 210.911 173.127 210.992 173.341C211.102 173.633 211.375 173.836 211.682 173.857C212.244 173.892 212.665 173.43 212.614 172.947C212.597 172.825 212.557 172.712 212.497 172.612C212.46 172.554 212.461 172.481 212.496 172.421C212.587 172.275 212.618 172.086 212.62 171.834C212.602 171.34 212.417 170.739 212.128 170.405C212.18 170.425 212.249 170.434 212.336 170.425C212.519 170.405 212.703 170.318 212.693 170.234C212.684 170.15 212.486 170.095 212.303 170.11C212.289 170.113 212.279 170.115 212.265 170.117L212.279 170.051C212.304 169.75 212.122 169.474 211.847 169.431C211.568 169.388 211.297 169.616 211.269 169.945Z" fill="black"/>
<path d="M212.942 164.934L212.91 165.001C212.9 164.991 212.893 164.983 212.883 164.972C212.746 164.85 212.552 164.782 212.487 164.857C212.422 164.932 212.513 165.118 212.653 165.235C212.719 165.29 212.782 165.318 212.838 165.329C212.612 165.394 212.385 165.563 212.177 165.78C211.961 165.994 211.785 166.264 211.685 166.532C211.576 166.801 211.55 167.02 211.599 167.2C211.617 167.273 211.599 167.35 211.548 167.406C211.416 167.554 211.308 167.752 211.316 167.987C211.317 168.305 211.498 168.591 211.773 168.714C212.288 168.938 212.854 168.654 212.973 168.196C213.009 168.08 213.014 167.963 212.992 167.849C212.98 167.782 213.007 167.715 213.061 167.673C213.188 167.57 213.311 167.419 213.404 167.19C213.489 166.961 213.546 166.694 213.578 166.434C213.603 166.171 213.584 165.907 213.532 165.703C213.571 165.743 213.63 165.779 213.712 165.805C213.888 165.861 214.09 165.858 214.116 165.778C214.141 165.699 213.984 165.568 213.812 165.507C213.798 165.504 213.788 165.501 213.775 165.498C213.789 165.48 213.803 165.463 213.815 165.443C213.959 165.179 213.926 164.862 213.69 164.706C213.461 164.554 213.103 164.642 212.942 164.934Z" fill="black"/>
<path d="M238.633 160.835L238.625 160.909C238.613 160.902 238.603 160.897 238.59 160.89C238.42 160.818 238.214 160.815 238.178 160.907C238.141 160.999 238.288 161.145 238.46 161.211C238.539 161.242 238.609 161.25 238.665 161.242C238.473 161.375 238.314 161.606 238.189 161.878C238.056 162.149 237.978 162.46 237.972 162.745C237.959 163.035 238.007 163.25 238.112 163.405C238.153 163.468 238.162 163.547 238.132 163.616C238.056 163.798 238.019 164.019 238.105 164.239C238.211 164.539 238.477 164.753 238.777 164.782C239.338 164.831 239.78 164.383 239.741 163.911C239.737 163.79 239.703 163.678 239.645 163.577C239.611 163.518 239.614 163.446 239.652 163.389C239.738 163.25 239.804 163.068 239.816 162.822C239.821 162.579 239.786 162.308 239.731 162.052C239.668 161.796 239.562 161.552 239.446 161.376C239.496 161.401 239.564 161.416 239.65 161.415C239.835 161.412 240.025 161.345 240.023 161.261C240.021 161.178 239.83 161.104 239.646 161.101C239.631 161.102 239.621 161.103 239.608 161.105C239.615 161.083 239.623 161.062 239.627 161.04C239.676 160.744 239.54 160.455 239.265 160.382C238.999 160.311 238.689 160.507 238.633 160.835Z" fill="black"/>
<path d="M216.591 161.072L216.535 161.12C216.53 161.107 216.527 161.097 216.522 161.083C216.445 160.919 216.293 160.782 216.203 160.824C216.114 160.866 216.124 161.07 216.205 161.231C216.244 161.307 216.29 161.358 216.337 161.39C215.891 161.353 215.209 161.622 214.799 162.017C214.583 162.206 214.48 162.411 214.439 162.587C214.423 162.659 214.373 162.721 214.303 162.749C214.115 162.824 213.936 162.96 213.84 163.177C213.701 163.465 213.739 163.799 213.933 164.026C214.299 164.442 214.94 164.428 215.242 164.058C215.326 163.97 215.383 163.867 215.414 163.755C215.433 163.69 215.487 163.641 215.555 163.626C215.723 163.591 215.882 163.491 216.076 163.323C216.434 162.976 216.769 162.44 216.824 162.002C216.844 162.054 216.883 162.109 216.948 162.165C217.087 162.285 217.277 162.36 217.334 162.297C217.392 162.233 217.3 162.053 217.164 161.93C217.153 161.922 217.145 161.916 217.134 161.908L217.194 161.873C217.441 161.691 217.52 161.366 217.368 161.141C217.21 160.909 216.86 160.874 216.591 161.072Z" fill="black"/>
<path d="M221.423 158.786L221.353 158.813C221.354 158.799 221.354 158.788 221.355 158.773C221.344 158.592 221.254 158.411 221.155 158.42C221.056 158.43 220.99 158.625 221.006 158.805C221.013 158.889 221.037 158.953 221.069 158.999C220.663 158.791 219.926 158.811 219.397 159.039C219.127 159.147 218.952 159.286 218.854 159.442C218.812 159.505 218.743 159.545 218.668 159.546C218.466 159.55 218.252 159.617 218.083 159.78C217.848 159.996 217.758 160.319 217.854 160.6C218.035 161.12 218.638 161.338 219.063 161.102C219.175 161.047 219.267 160.97 219.337 160.876C219.378 160.821 219.447 160.794 219.516 160.804C219.683 160.824 219.878 160.799 220.115 160.705C220.573 160.507 221.077 160.118 221.295 159.744C221.294 159.798 221.31 159.865 221.35 159.94C221.435 160.101 221.582 160.235 221.658 160.196C221.734 160.155 221.716 159.954 221.636 159.792C221.628 159.78 221.623 159.772 221.616 159.761L221.684 159.748C221.981 159.67 222.18 159.407 222.121 159.135C222.064 158.869 221.748 158.701 221.423 158.786Z" fill="black"/>
<path d="M226.792 158.484L226.717 158.48C226.723 158.468 226.728 158.458 226.734 158.445C226.798 158.275 226.79 158.073 226.695 158.042C226.599 158.011 226.458 158.164 226.4 158.335C226.372 158.414 226.369 158.483 226.379 158.538C226.089 158.192 225.398 157.93 224.816 157.934C224.522 157.931 224.306 158.007 224.153 158.105C224.09 158.146 224.01 158.156 223.939 158.128C223.75 158.056 223.527 158.055 223.305 158.132C223.001 158.232 222.797 158.522 222.778 158.814C222.751 159.372 223.221 159.762 223.705 159.723C223.829 159.712 223.942 159.665 224.043 159.607C224.102 159.572 224.176 159.575 224.236 159.611C224.382 159.702 224.571 159.739 224.824 159.742C225.321 159.74 225.934 159.57 226.285 159.309C226.263 159.359 226.251 159.426 226.256 159.51C226.269 159.691 226.349 159.873 226.434 159.867C226.519 159.86 226.584 159.669 226.577 159.489C226.574 159.475 226.573 159.465 226.571 159.452C226.593 159.458 226.615 159.464 226.638 159.468C226.941 159.504 227.236 159.342 227.291 159.07C227.344 158.803 227.128 158.526 226.792 158.484Z" fill="black"/>
<path d="M231.573 158.066L231.508 158.097C231.507 158.083 231.507 158.073 231.506 158.058C231.474 157.88 231.367 157.708 231.275 157.724C231.184 157.739 231.143 157.936 231.175 158.114C231.19 158.197 231.218 158.259 231.253 158.303C230.843 158.13 230.155 158.164 229.687 158.314C229.571 158.351 229.474 158.394 229.417 158.434C229.373 158.46 229.389 158.468 229.382 158.491C229.379 158.512 229.327 158.536 229.306 158.562C229.26 158.605 229.197 158.612 229.144 158.583C229.003 158.501 228.849 158.468 228.661 158.502C228.406 158.548 228.138 158.738 228.016 159.011C227.791 159.512 228.089 160.086 228.732 160.139C228.889 160.15 229.044 160.121 229.176 160.065C229.254 160.03 229.345 160.034 229.421 160.065C229.474 160.083 229.505 160.106 229.59 160.112C229.669 160.119 229.78 160.116 229.836 160.113C229.98 160.105 230.112 160.079 230.256 160.034C230.813 159.855 231.344 159.426 231.538 159.028C231.541 159.083 231.562 159.148 231.608 159.22C231.707 159.372 231.873 159.491 231.952 159.442C232.032 159.393 231.993 159.195 231.894 159.043C231.885 159.031 231.879 159.024 231.87 159.013L231.94 158.994C232.241 158.88 232.401 158.581 232.301 158.324C232.201 158.067 231.874 157.952 231.573 158.066Z" fill="black"/>
<path d="M208.373 171.451L208.389 171.53C208.376 171.527 208.365 171.525 208.35 171.521C208.165 171.501 207.969 171.564 207.965 171.671C207.96 171.778 208.148 171.881 208.332 171.894C208.418 171.901 208.487 171.886 208.538 171.86C208.272 172.251 208.237 173.053 208.351 173.563C208.41 173.838 208.506 174.03 208.629 174.164C208.679 174.219 208.701 174.295 208.68 174.366C208.627 174.555 208.635 174.765 208.721 174.97C208.84 175.249 209.101 175.451 209.401 175.5C209.962 175.605 210.424 175.085 210.324 174.497C210.302 174.351 210.247 174.22 210.171 174.109C210.127 174.044 210.117 173.961 210.142 173.887C210.206 173.709 210.219 173.48 210.156 173.188C210.022 172.584 209.672 172.036 209.322 171.747C209.377 171.757 209.447 171.75 209.528 171.721C209.703 171.659 209.86 171.53 209.831 171.445C209.802 171.36 209.596 171.345 209.42 171.401C209.408 171.407 209.398 171.411 209.386 171.416L209.383 171.344C209.338 171.024 209.116 170.771 208.829 170.782C208.556 170.793 208.324 171.095 208.373 171.451Z" fill="black"/>
<path d="M209.219 165.814L209.196 165.891C209.185 165.881 209.177 165.874 209.166 165.865C209.013 165.761 208.81 165.724 208.755 165.815C208.7 165.906 208.815 166.085 208.971 166.183C209.043 166.229 209.11 166.248 209.167 166.249C208.742 166.466 208.305 167.12 208.173 167.727C208.092 168.03 208.126 168.274 208.189 168.455C208.216 168.529 208.209 168.615 208.165 168.683C208.043 168.864 208.006 169.1 208.035 169.349C208.073 169.688 208.328 169.96 208.618 170.036C209.173 170.171 209.647 169.761 209.708 169.258C209.72 169.129 209.696 169.003 209.664 168.888C209.642 168.819 209.66 168.744 209.709 168.691C209.833 168.56 209.904 168.374 209.975 168.116C210.086 167.608 210.073 166.938 209.91 166.52C209.954 166.555 210.018 166.582 210.104 166.595C210.287 166.623 210.488 166.582 210.504 166.493C210.519 166.404 210.345 166.294 210.164 166.261C210.15 166.26 210.14 166.259 210.127 166.258L210.159 166.193C210.284 165.892 210.202 165.56 209.946 165.44C209.696 165.322 209.358 165.484 209.219 165.814Z" fill="black"/>
<path d="M212.414 161.096L212.363 161.157C212.357 161.145 212.351 161.136 212.344 161.122C212.24 160.973 212.064 160.866 211.979 160.928C211.892 160.987 211.94 161.198 212.048 161.345C212.098 161.414 212.153 161.456 212.205 161.477C211.734 161.529 211.089 161.951 210.718 162.435C210.536 162.683 210.452 162.904 210.433 163.093C210.425 163.17 210.382 163.243 210.313 163.284C210.136 163.4 209.988 163.585 209.907 163.818C209.79 164.132 209.89 164.486 210.112 164.683C210.542 165.054 211.158 164.9 211.448 164.463C211.519 164.351 211.558 164.227 211.575 164.103C211.586 164.031 211.637 163.97 211.706 163.941C211.874 163.871 212.037 163.736 212.199 163.514C212.529 163.085 212.792 162.45 212.795 161.997C212.823 162.045 212.872 162.093 212.946 162.136C213.107 162.227 213.306 162.254 213.359 162.178C213.411 162.1 213.29 161.937 213.132 161.843C213.119 161.837 213.109 161.833 213.097 161.827L213.154 161.778C213.388 161.54 213.418 161.187 213.221 160.992C213.024 160.796 212.663 160.843 212.414 161.096Z" fill="black"/>
<path d="M208.782 177.343L208.794 177.42C208.781 177.417 208.77 177.415 208.755 177.411C208.572 177.389 208.373 177.447 208.363 177.55C208.351 177.653 208.544 177.757 208.727 177.776C208.814 177.785 208.882 177.773 208.933 177.749C208.659 178.128 208.553 178.881 208.676 179.473C208.744 179.772 208.856 179.981 208.987 180.12C209.041 180.176 209.068 180.257 209.054 180.335C209.024 180.542 209.066 180.773 209.19 180.987C209.353 181.282 209.689 181.443 209.987 181.412C210.556 181.344 210.847 180.791 210.707 180.289C210.669 180.161 210.6 180.05 210.517 179.956C210.47 179.9 210.457 179.822 210.48 179.752C210.539 179.582 210.544 179.374 210.483 179.108C210.375 178.581 210.065 177.966 209.722 177.663C209.777 177.674 209.847 177.671 209.929 177.645C210.105 177.588 210.258 177.46 210.235 177.37C210.21 177.281 210.005 177.261 209.828 177.314C209.815 177.319 209.805 177.324 209.793 177.329L209.793 177.255C209.767 176.925 209.519 176.669 209.239 176.683C208.959 176.697 208.754 176.993 208.782 177.343Z" fill="black"/>
<path d="M216.892 157.542L216.823 157.585C216.821 157.572 216.819 157.561 216.817 157.547C216.765 157.373 216.63 157.218 216.527 157.252C216.424 157.288 216.403 157.502 216.461 157.674C216.488 157.755 216.528 157.812 216.571 157.847C216.105 157.762 215.342 157.989 214.859 158.364C214.608 158.547 214.466 158.735 214.4 158.914C214.372 158.987 214.311 159.046 214.234 159.067C214.027 159.124 213.834 159.254 213.694 159.454C213.499 159.725 213.475 160.071 213.628 160.333C213.911 160.814 214.566 160.864 214.975 160.509C215.076 160.416 215.157 160.315 215.21 160.2C215.241 160.134 215.307 160.087 215.381 160.077C215.561 160.049 215.757 159.963 215.98 159.801C216.41 159.466 216.84 158.947 216.976 158.515C216.988 158.569 217.02 158.63 217.078 158.693C217.203 158.826 217.384 158.914 217.453 158.855C217.524 158.799 217.459 158.608 217.339 158.469C217.329 158.459 217.321 158.452 217.311 158.444L217.38 158.415C217.671 158.262 217.812 157.939 217.696 157.695C217.575 157.442 217.214 157.373 216.892 157.542Z" fill="black"/>
<path d="M222.487 156.053L222.408 156.065C222.412 156.051 222.414 156.041 222.418 156.027C222.446 155.847 222.392 155.652 222.287 155.642C222.182 155.632 222.069 155.81 222.046 155.99C222.035 156.073 222.045 156.141 222.069 156.193C221.69 155.913 220.917 155.793 220.303 155.912C219.992 155.966 219.777 156.088 219.633 156.214C219.574 156.268 219.491 156.294 219.41 156.281C219.197 156.256 218.957 156.299 218.736 156.423C218.437 156.602 218.275 156.924 218.317 157.217C218.405 157.771 218.977 158.043 219.475 157.9C219.602 157.861 219.713 157.796 219.806 157.712C219.862 157.666 219.941 157.653 220.011 157.676C220.184 157.736 220.389 157.732 220.661 157.686C221.189 157.583 221.82 157.294 222.138 156.966C222.124 157.02 222.126 157.088 222.151 157.169C222.205 157.343 222.332 157.504 222.424 157.479C222.515 157.455 222.54 157.254 222.491 157.08C222.485 157.067 222.482 157.057 222.477 157.045L222.552 157.046C222.888 157.018 223.158 156.799 223.15 156.521C223.141 156.25 222.846 156.024 222.487 156.053Z" fill="black"/>
<path d="M218.228 154.061L218.154 154.091C218.154 154.077 218.154 154.066 218.155 154.052C218.14 153.87 218.041 153.693 217.937 153.707C217.832 153.72 217.765 153.92 217.784 154.099C217.793 154.184 217.819 154.247 217.854 154.292C217.419 154.105 216.639 154.161 216.07 154.416C215.78 154.538 215.598 154.705 215.488 154.861C215.443 154.926 215.369 154.97 215.287 154.976C215.074 154.999 214.851 155.095 214.665 155.266C214.415 155.507 214.334 155.857 214.442 156.132C214.658 156.652 215.278 156.788 215.729 156.536C215.844 156.471 215.937 156.382 216.008 156.279C216.052 156.222 216.125 156.192 216.199 156.199C216.381 156.218 216.58 156.168 216.833 156.062C217.324 155.843 217.87 155.419 218.102 155.029C218.102 155.085 218.12 155.15 218.163 155.224C218.256 155.381 218.418 155.509 218.501 155.464C218.585 155.42 218.562 155.218 218.473 155.06C218.464 155.048 218.458 155.041 218.451 155.03L218.524 155.013C218.845 154.911 219.056 154.637 218.982 154.368C218.911 154.106 218.57 153.953 218.228 154.061Z" fill="black"/>
<path d="M228.166 156.258L228.089 156.26C228.094 156.247 228.098 156.237 228.104 156.223C228.152 156.048 228.125 155.848 228.03 155.825C227.935 155.801 227.806 155.963 227.755 156.137C227.732 156.219 227.732 156.287 227.746 156.341C227.421 156.015 226.741 155.752 226.158 155.707C225.863 155.685 225.637 155.725 225.466 155.807C225.398 155.84 225.313 155.841 225.243 155.805C225.058 155.709 224.83 155.667 224.57 155.714C224.24 155.787 223.98 156.023 223.907 156.313C223.769 156.856 224.23 157.328 224.751 157.346C224.887 157.353 225.019 157.33 225.141 157.284C225.213 157.257 225.294 157.268 225.357 157.311C225.51 157.416 225.722 157.488 226.015 157.51C226.594 157.554 227.322 157.398 227.694 157.116C227.672 157.167 227.663 157.235 227.675 157.319C227.701 157.499 227.812 157.676 227.914 157.663C228.016 157.652 228.068 157.456 228.04 157.277C228.036 157.263 228.033 157.253 228.03 157.24L228.107 157.252C228.461 157.271 228.76 157.058 228.766 156.783C228.773 156.508 228.508 156.277 228.166 156.258Z" fill="black"/>
<path d="M194.673 178.836C194.643 178.939 194.546 179.006 194.437 179.02C192.916 179.194 192.029 179.393 191.351 179.748C190.686 180.067 190.296 180.481 190.301 180.609C190.308 180.736 190.751 181.131 191.625 181.197C191.844 181.221 192.081 181.188 192.342 181.15C192.603 181.116 192.88 181.034 193.161 180.898C193.445 180.776 193.736 180.609 194.008 180.37C194.29 180.154 194.547 179.863 194.772 179.526C194.836 179.431 194.95 179.379 195.064 179.381C195.473 179.376 195.915 179.321 196.084 179.191C196.247 179.048 196.13 178.873 195.534 178.599C195.31 177.973 195.124 177.863 195.007 177.984C194.878 178.097 194.777 178.446 194.673 178.836Z" fill="black"/>
<path d="M198.003 173.82C198.05 173.917 198.036 174.035 197.969 174.118C196.947 175.261 196.49 176.051 196.23 176.742C195.981 177.414 195.995 177.988 196.088 178.076C196.18 178.167 196.773 178.146 197.454 177.597C198.13 177.073 198.809 175.872 198.563 174.273C198.541 174.161 198.578 174.045 198.664 173.972C199.317 173.435 199.781 172.727 198.497 173.085C197.334 172.435 197.674 173.115 198.003 173.82Z" fill="black"/>
<path d="M197.701 167.737C197.791 167.795 197.838 167.903 197.823 168.009C197.602 169.504 197.649 170.446 197.882 171.176C198.078 171.886 198.463 172.325 198.594 172.338C198.723 172.351 199.161 171.975 199.385 171.159C199.584 170.37 199.504 169.047 198.409 167.825C198.332 167.741 198.305 167.622 198.341 167.513C198.566 166.725 198.595 165.849 197.703 166.86C196.396 166.941 197.009 167.333 197.701 167.737Z" fill="black"/>
<path d="M193.748 163.202C193.855 163.182 193.973 163.213 194.03 163.309C194.892 164.556 195.475 165.226 196.104 165.654C196.386 165.88 196.675 166.022 196.907 166.105C197.124 166.198 197.293 166.222 197.351 166.19C197.407 166.159 197.475 166.006 197.498 165.752C197.506 165.507 197.456 165.166 197.3 164.761C197.11 164.383 196.823 163.926 196.32 163.555C195.838 163.17 195.145 162.876 194.333 162.785C194.222 162.765 194.111 162.712 194.06 162.61C193.678 161.856 193.049 161.256 193.136 162.564C192.245 163.54 192.977 163.348 193.748 163.202Z" fill="black"/>
<path d="M187.661 162.508C187.729 162.425 187.841 162.379 187.947 162.408C189.43 162.814 190.375 162.883 191.127 162.798C191.862 162.698 192.367 162.457 192.411 162.316C192.446 162.213 192.163 161.673 191.358 161.342C190.583 160.994 189.207 160.905 187.829 161.817C187.734 161.88 187.613 161.904 187.507 161.86C186.72 161.522 185.844 161.464 186.772 162.408C186.734 163.717 187.166 163.106 187.661 162.508Z" fill="black"/>
<path d="M182.703 165.938C182.694 165.833 182.752 165.731 182.846 165.677C184.18 164.935 184.91 164.413 185.406 163.857C185.882 163.308 186.117 162.815 186.055 162.677C186.029 162.62 185.881 162.544 185.629 162.507C185.377 162.468 185.014 162.466 184.603 162.612C183.786 162.853 182.65 163.722 182.339 165.335C182.318 165.447 182.239 165.541 182.13 165.581C181.348 165.889 180.64 166.419 181.998 166.477C182.878 167.435 182.797 166.715 182.703 165.938Z" fill="black"/>
<path d="M181.233 171.824C181.161 171.742 181.145 171.625 181.188 171.526C181.827 170.137 182.032 169.215 182.01 168.463C182.008 167.733 181.799 167.212 181.677 167.161C181.558 167.11 181.001 167.332 180.561 168.069C180.144 168.787 179.87 170.08 180.573 171.539C180.624 171.64 180.618 171.761 180.554 171.854C180.31 172.193 180.122 172.57 180.149 172.773C180.169 172.98 180.381 172.989 180.96 172.663C181.604 172.839 181.804 172.755 181.775 172.585C181.737 172.412 181.484 172.126 181.233 171.824Z" fill="black"/>
<path d="M183.343 177.489C183.237 177.468 183.151 177.385 183.125 177.283C182.807 175.818 182.498 174.957 182.079 174.326C181.664 173.716 181.217 173.38 181.07 173.408C180.96 173.426 180.594 173.912 180.642 174.76C180.662 175.58 181.163 176.871 182.64 177.654C182.745 177.705 182.815 177.805 182.823 177.917C182.84 178.336 182.947 178.748 183.1 178.896C183.253 179.05 183.419 178.923 183.658 178.308C184.267 178.047 184.365 177.855 184.238 177.744C184.106 177.634 183.727 177.578 183.343 177.489Z" fill="black"/>
<path d="M188.726 180.25C188.634 180.303 188.515 180.297 188.424 180.238C187.143 179.399 186.331 179.003 185.594 178.836C184.882 178.667 184.323 178.699 184.232 178.807C184.156 178.895 184.202 179.501 184.835 180.108C185.437 180.699 186.735 181.283 188.339 180.834C188.45 180.804 188.571 180.833 188.656 180.912C189.286 181.444 190.075 181.856 189.534 180.627C190.026 179.44 189.397 179.806 188.726 180.25Z" fill="black"/>
<path d="M194.674 184.669C194.619 184.759 194.515 184.806 194.411 184.792C193.674 184.701 193.063 184.628 192.565 184.705C192.053 184.72 191.639 184.831 191.3 184.982C190.621 185.24 190.24 185.643 190.244 185.78C190.247 185.9 190.66 186.302 191.454 186.447C191.847 186.498 192.337 186.487 192.886 186.357C193.422 186.166 194.036 185.907 194.599 185.366C194.678 185.291 194.792 185.264 194.896 185.299C195.275 185.425 195.682 185.524 195.866 185.458C196.048 185.383 196 185.178 195.541 184.723C195.526 184.064 195.396 183.897 195.245 183.975C195.087 184.045 194.879 184.339 194.674 184.669Z" fill="black"/>
<path d="M199.734 181.595C199.721 181.696 199.646 181.78 199.544 181.81C199.18 181.916 198.873 182.036 198.598 182.157C198.307 182.26 198.059 182.375 197.842 182.501C197.423 182.77 197.069 182.994 196.828 183.267C196.587 183.54 196.418 183.797 196.309 183.994C196.205 184.199 196.173 184.361 196.202 184.42C196.23 184.477 196.376 184.555 196.619 184.601C196.865 184.655 197.2 184.657 197.584 184.541C197.966 184.426 198.439 184.257 198.852 183.861C199.065 183.672 199.277 183.45 199.478 183.192C199.663 182.916 199.827 182.595 199.971 182.244C200.011 182.145 200.105 182.075 200.217 182.064C201.013 181.952 201.78 181.653 200.513 181.247C199.884 180.109 199.792 180.829 199.734 181.595Z" fill="black"/>
<path d="M202.858 176.621C202.896 176.72 202.871 176.829 202.798 176.902C202.231 177.398 201.863 177.853 201.573 178.26C201.269 178.658 201.136 179.063 201.015 179.395C200.789 180.062 200.886 180.625 200.991 180.707C201.09 180.786 201.644 180.716 202.274 180.202C202.592 179.949 202.855 179.544 203.096 179.039C203.318 178.527 203.422 177.862 203.374 177.112C203.361 177.004 203.409 176.899 203.499 176.84C204.169 176.406 204.773 175.838 203.429 175.985C202.391 175.217 202.576 175.901 202.858 176.621Z" fill="black"/>
<path d="M203.735 170.802C203.807 170.881 203.823 170.992 203.78 171.087C203.452 171.753 203.24 172.315 203.167 172.81C203.045 173.299 203.044 173.722 203.101 174.083C203.179 174.793 203.472 175.259 203.609 175.292C203.726 175.322 204.234 175.039 204.584 174.326C204.739 173.969 204.859 173.507 204.878 172.956C204.847 172.404 204.734 171.761 204.395 171.079C204.344 170.983 204.35 170.869 204.414 170.783C204.884 170.148 205.247 169.418 204.04 170.008C202.792 169.636 203.212 170.224 203.735 170.802Z" fill="black"/>
<path d="M202.499 165.053C202.594 165.101 202.65 165.199 202.645 165.301C202.589 166.035 202.592 166.627 202.689 167.114C202.747 167.612 202.895 168.008 203.077 168.327C203.378 168.974 203.835 169.311 203.97 169.297C204.096 169.284 204.456 168.852 204.556 168.063C204.575 167.675 204.523 167.2 204.346 166.674C204.13 166.161 203.789 165.59 203.216 165.075C203.132 165.003 203.096 164.895 203.123 164.791C203.224 164.411 203.287 164.01 203.214 163.832C203.13 163.657 202.927 163.717 202.488 164.203C201.826 164.261 201.664 164.401 201.748 164.546C201.824 164.698 202.148 164.877 202.499 165.053Z" fill="black"/>
<path d="M199.009 160.325C199.114 160.33 199.205 160.397 199.243 160.494C199.796 161.841 200.333 162.596 200.917 163.047C201.498 163.483 202.001 163.652 202.134 163.579C202.23 163.528 202.443 162.96 202.161 162.219C202.009 161.86 201.816 161.401 201.381 161.027C201.173 160.833 200.93 160.643 200.653 160.466C200.372 160.292 200.021 160.165 199.655 160.047C199.551 160.015 199.473 159.929 199.453 159.821C199.295 159.039 198.926 158.324 198.605 159.584C197.484 160.283 198.235 160.308 199.009 160.325Z" fill="black"/>
<path d="M193.729 157.622C193.827 157.577 193.941 157.592 194.02 157.658C195.11 158.678 195.964 159.06 196.682 159.225C197.378 159.398 197.951 159.254 198.021 159.156C198.1 159.043 197.985 158.517 197.415 157.939C196.855 157.38 195.732 156.864 194.191 157.079C194.082 157.1 193.971 157.063 193.904 156.979C193.411 156.362 192.786 155.818 193.038 157.117C192.335 158.192 193.017 157.956 193.729 157.622Z" fill="black"/>
<path d="M187.747 157.234C187.82 157.157 187.932 157.13 188.031 157.163C188.737 157.435 189.322 157.572 189.829 157.622C190.336 157.699 190.767 157.664 191.13 157.577C191.844 157.46 192.297 157.122 192.32 156.99C192.342 156.869 192.014 156.411 191.261 156.109C190.885 155.988 190.405 155.911 189.842 155.939C189.28 155.996 188.631 156.184 187.967 156.563C187.874 156.623 187.757 156.628 187.664 156.573C186.971 156.178 186.184 155.898 186.911 157.014C186.667 158.266 187.213 157.801 187.747 157.234Z" fill="black"/>
<path d="M182.111 159.15C182.146 159.051 182.237 158.985 182.342 158.976C183.073 158.89 183.689 158.848 184.157 158.672C184.642 158.536 185.029 158.365 185.326 158.147C185.931 157.757 186.229 157.298 186.198 157.161C186.173 157.047 185.688 156.722 184.876 156.742C184.48 156.774 183.992 156.864 183.486 157.124C183 157.421 182.447 157.793 182.028 158.458C181.967 158.548 181.861 158.598 181.751 158.585C180.922 158.474 180.139 158.64 181.263 159.299C181.623 160.568 181.846 159.841 182.111 159.15Z" fill="black"/>
<path d="M177.926 163.292C177.909 163.188 177.951 163.081 178.049 163.033C178.722 162.674 179.157 162.296 179.549 161.977C179.734 161.809 179.885 161.639 180.01 161.468C180.142 161.304 180.262 161.154 180.351 160.998C180.534 160.693 180.627 160.392 180.674 160.164C180.729 159.945 180.723 159.782 180.681 159.731C180.641 159.681 180.479 159.637 180.229 159.644C179.988 159.661 179.672 159.748 179.312 159.934C179.135 160.029 178.939 160.142 178.757 160.3C178.583 160.464 178.408 160.659 178.241 160.887C177.887 161.326 177.661 161.97 177.531 162.708C177.51 162.809 177.448 162.906 177.346 162.945C176.607 163.238 175.901 163.679 177.243 163.803C178.103 164.765 178.057 164.057 177.926 163.292Z" fill="black"/>
<path d="M175.948 168.823C175.892 168.733 175.895 168.621 175.954 168.536C176.386 167.934 176.702 167.423 176.866 166.953C177.077 166.498 177.157 166.085 177.168 165.721C177.247 165.02 177.037 164.498 176.914 164.44C176.801 164.387 176.264 164.57 175.761 165.201C175.54 165.525 175.335 165.96 175.211 166.502C175.137 167.053 175.124 167.709 175.347 168.44C175.38 168.542 175.354 168.654 175.275 168.728C174.7 169.277 174.214 169.939 175.506 169.555C176.671 170.123 176.361 169.478 175.948 168.823Z" fill="black"/>
<path d="M176.117 174.713C176.032 174.647 175.995 174.54 176.021 174.441C176.241 173.728 176.328 173.145 176.335 172.643C176.368 172.139 176.295 171.721 176.174 171.373C175.981 170.683 175.599 170.276 175.46 170.268C175.336 170.26 174.898 170.626 174.671 171.384C174.581 171.76 174.545 172.234 174.624 172.779C174.729 173.32 174.976 173.936 175.416 174.552C175.484 174.638 175.499 174.752 175.451 174.848C175.105 175.556 174.883 176.344 175.961 175.546C177.255 175.687 176.736 175.189 176.117 174.713Z" fill="black"/>
<path d="M178.479 180.088C178.376 180.06 178.302 179.976 178.286 179.874C178.217 179.505 178.156 179.185 178.102 178.896C178.036 178.602 177.952 178.346 177.852 178.12C177.686 177.65 177.476 177.287 177.233 177.011C176.796 176.445 176.3 176.191 176.165 176.231C176.048 176.265 175.761 176.761 175.835 177.553C175.896 177.938 176.03 178.404 176.322 178.882C176.484 179.113 176.681 179.349 176.917 179.579C177.142 179.815 177.431 180.03 177.778 180.215C177.874 180.268 177.933 180.368 177.927 180.477C177.871 181.29 178.08 182.052 178.684 180.909C179.951 180.479 179.206 180.3 178.479 180.088Z" fill="black"/>
<path d="M182.963 183.918C182.856 183.945 182.751 183.901 182.694 183.811C182.279 183.184 181.874 182.775 181.521 182.415C181.339 182.245 181.154 182.11 180.973 181.999C180.805 181.872 180.638 181.772 180.475 181.693C179.812 181.393 179.264 181.361 179.163 181.449C179.068 181.532 179.011 182.11 179.455 182.775C179.563 182.944 179.696 183.121 179.861 183.298C180.039 183.457 180.251 183.615 180.494 183.762C180.966 184.078 181.632 184.268 182.397 184.338C182.503 184.351 182.6 184.416 182.649 184.508C182.998 185.208 183.499 185.866 183.531 184.547C184.452 183.639 183.735 183.735 182.963 183.918Z" fill="black"/>
<path d="M188.735 185.429C188.648 185.492 188.533 185.498 188.442 185.448C187.794 185.074 187.251 184.811 186.762 184.685C186.283 184.514 185.858 184.469 185.487 184.486C184.771 184.455 184.252 184.703 184.202 184.826C184.155 184.942 184.382 185.448 185.061 185.899C185.408 186.089 185.869 186.257 186.431 186.335C186.998 186.368 187.67 186.324 188.395 186.048C188.497 186.007 188.613 186.023 188.695 186.094C189.302 186.608 190.02 187.027 189.515 185.797C189.992 184.612 189.365 184.97 188.735 185.429Z" fill="black"/>
<path d="M192.985 182.603C192.922 182.69 192.813 182.733 192.708 182.716C191.954 182.548 191.361 182.503 190.841 182.473C190.328 182.479 189.897 182.52 189.535 182.613C188.816 182.827 188.369 183.12 188.352 183.271C188.345 183.333 188.43 183.475 188.618 183.638C188.805 183.807 189.097 183.987 189.5 184.086C189.9 184.2 190.409 184.266 190.995 184.147C191.579 184.067 192.235 183.774 192.862 183.3C192.948 183.227 193.067 183.204 193.172 183.243C193.956 183.551 194.797 183.605 193.865 182.679C193.867 181.369 193.443 181.99 192.985 182.603Z" fill="black"/>
<path d="M198.098 179.405C198.093 179.51 198.019 179.598 197.918 179.637C196.514 180.199 195.72 180.685 195.216 181.237C194.707 181.75 194.512 182.288 194.56 182.398C194.616 182.523 195.156 182.719 195.98 182.505C196.387 182.399 196.839 182.149 197.289 181.767C197.5 181.558 197.708 181.314 197.904 181.036C198.097 180.757 198.24 180.405 198.372 180.042C198.408 179.938 198.503 179.862 198.613 179.839C199.399 179.645 200.186 179.284 198.863 178.984C198.163 177.902 198.097 178.613 198.098 179.405Z" fill="black"/>
<path d="M200.781 174.011C200.83 174.108 200.821 174.224 200.752 174.306C200.231 174.879 199.925 175.39 199.663 175.834C199.439 176.293 199.282 176.688 199.212 177.049C199.084 177.772 199.163 178.297 199.291 178.379C199.381 178.44 199.997 178.347 200.545 177.731C201.117 177.145 201.621 175.992 201.349 174.451C201.328 174.343 201.359 174.23 201.444 174.159C202.059 173.635 202.594 172.983 201.276 173.292C200.156 172.629 200.418 173.308 200.781 174.011Z" fill="black"/>
<path d="M200.855 167.989C200.94 168.055 200.989 168.162 200.953 168.266C200.843 168.634 200.769 168.962 200.728 169.263C200.679 169.563 200.625 169.842 200.619 170.095C200.617 170.602 200.623 171.032 200.728 171.39C200.916 172.104 201.232 172.546 201.38 172.563C201.492 172.578 201.992 172.233 202.23 171.455C202.476 170.698 202.491 169.439 201.556 168.149C201.499 168.057 201.471 167.942 201.518 167.842C201.843 167.105 202.017 166.275 200.981 167.132C199.677 167.033 200.221 167.512 200.855 167.989Z" fill="black"/>
<path d="M197.956 162.759C198.062 162.772 198.151 162.847 198.184 162.947C198.624 164.372 199.105 165.155 199.599 165.711C200.116 166.234 200.598 166.485 200.736 166.436C200.844 166.398 201.135 165.864 200.949 165.059C200.814 164.26 200.126 163.14 198.631 162.532C198.526 162.491 198.45 162.398 198.436 162.287C198.324 161.474 197.963 160.723 197.588 161.977C196.423 162.609 197.181 162.673 197.956 162.759Z" fill="black"/>
<path d="M192.619 159.892C192.719 159.842 192.837 159.856 192.916 159.932C194.076 160.906 194.907 161.353 195.648 161.516C196.354 161.703 196.92 161.623 197.006 161.511C197.079 161.419 196.999 160.846 196.412 160.246C195.827 159.685 194.671 159.081 193.075 159.35C192.966 159.361 192.851 159.326 192.779 159.245C192.249 158.641 191.579 158.112 191.89 159.405C191.21 160.5 191.898 160.244 192.619 159.892Z" fill="black"/>
<path d="M186.515 159.958C186.577 159.871 186.686 159.827 186.79 159.844C187.545 160.012 188.138 160.06 188.656 160.09C189.168 160.08 189.599 160.051 189.96 159.951C190.678 159.752 191.129 159.448 191.147 159.3C191.161 159.193 190.809 158.696 190.002 158.479C189.221 158.235 187.907 158.284 186.637 159.26C186.55 159.334 186.431 159.357 186.326 159.319C185.542 159.013 184.699 158.958 185.634 159.883C185.635 161.193 186.058 160.575 186.515 159.958Z" fill="black"/>
<path d="M181.41 163.169C181.415 163.064 181.489 162.976 181.59 162.937C182.993 162.372 183.785 161.883 184.288 161.331C184.545 161.077 184.716 160.812 184.82 160.593C184.928 160.383 184.969 160.23 184.94 160.168C184.884 160.043 184.342 159.845 183.52 160.064C183.111 160.169 182.663 160.424 182.213 160.806C182.003 161.015 181.795 161.259 181.6 161.537C181.407 161.817 181.266 162.169 181.134 162.532C181.099 162.637 181.005 162.713 180.895 162.736C180.108 162.932 179.323 163.294 180.645 163.592C181.347 164.672 181.412 163.961 181.41 163.169Z" fill="black"/>
<path d="M178.731 168.566C178.682 168.47 178.691 168.353 178.76 168.272C179.28 167.698 179.587 167.188 179.849 166.743C180.073 166.284 180.229 165.889 180.299 165.527C180.427 164.804 180.347 164.279 180.219 164.197C180.129 164.136 179.513 164.23 178.966 164.847C178.394 165.433 177.891 166.586 178.163 168.127C178.184 168.235 178.153 168.348 178.068 168.419C177.453 168.942 176.918 169.594 178.236 169.286C179.356 169.949 179.094 169.269 178.731 168.566Z" fill="black"/>
<path d="M178.655 174.589C178.57 174.523 178.521 174.416 178.558 174.312C178.668 173.944 178.742 173.616 178.784 173.316C178.833 173.014 178.886 172.736 178.893 172.483C178.894 171.976 178.889 171.546 178.784 171.188C178.596 170.474 178.28 170.032 178.132 170.015C178.02 170 177.52 170.344 177.282 171.122C177.036 171.88 177.02 173.138 177.954 174.429C178.011 174.52 178.039 174.635 177.992 174.735C177.665 175.473 177.49 176.301 178.528 175.446C179.833 175.547 179.288 175.067 178.655 174.589Z" fill="black"/>
<path d="M181.542 179.828C181.436 179.815 181.347 179.739 181.314 179.639C180.878 178.213 180.4 177.427 179.907 176.871C179.391 176.346 178.91 176.094 178.772 176.143C178.663 176.18 178.372 176.714 178.556 177.519C178.689 178.318 179.372 179.44 180.867 180.052C180.971 180.093 181.047 180.187 181.06 180.298C181.173 181.11 181.53 181.865 181.908 180.61C183.073 179.982 182.318 179.913 181.542 179.828Z" fill="black"/>
<path d="M186.876 182.687C186.778 182.733 186.659 182.727 186.578 182.654C185.419 181.672 184.584 181.243 183.847 181.072C183.14 180.888 182.577 180.963 182.49 181.075C182.418 181.167 182.494 181.744 183.083 182.341C183.664 182.912 184.831 183.499 186.422 183.237C186.532 183.223 186.649 183.25 186.72 183.335C187.253 183.941 187.928 184.47 187.607 183.174C188.277 182.079 187.594 182.334 186.876 182.687Z" fill="black"/>
<path d="M151.967 158.722C152.269 157.137 150.702 155.433 148.965 156.204C148.909 156.22 148.838 156.286 148.907 156.338C150.238 157.132 150.826 158.975 150.238 160.515C150.227 160.558 150.242 160.578 150.265 160.587C150.274 160.61 150.292 160.626 150.328 160.615C151.721 159.965 153.388 160.613 154.107 162.085C154.158 162.163 154.211 162.08 154.228 162.021C154.92 160.103 153.399 158.389 151.967 158.722Z" fill="black"/>
<path d="M158.716 149.713C159.018 148.128 157.451 146.423 155.714 147.195C155.659 147.21 155.588 147.277 155.656 147.329C156.987 148.123 157.575 149.965 156.987 151.506C156.977 151.549 156.992 151.569 157.014 151.578C157.024 151.601 157.042 151.617 157.077 151.606C158.471 150.956 160.138 151.603 160.856 153.076C160.908 153.154 160.961 153.071 160.978 153.012C161.669 151.094 160.148 149.38 158.716 149.713Z" fill="black"/>
<path d="M171.929 147.71C172.231 146.124 170.664 144.42 168.927 145.192C168.871 145.207 168.8 145.273 168.869 145.326C170.2 146.119 170.788 147.962 170.2 149.503C170.189 149.545 170.204 149.565 170.227 149.575C170.236 149.598 170.254 149.613 170.29 149.602C171.683 148.952 173.35 149.6 174.069 151.073C174.12 151.15 174.173 151.068 174.19 151.008C174.882 149.091 173.361 147.377 171.929 147.71Z" fill="black"/>
<path d="M145.731 165.862C146.033 164.276 144.466 162.572 142.729 163.343C142.673 163.359 142.602 163.425 142.671 163.477C144.002 164.271 144.59 166.114 144.002 167.655C143.991 167.697 144.006 167.717 144.029 167.726C144.038 167.75 144.056 167.765 144.092 167.754C145.485 167.104 147.152 167.752 147.871 169.225C147.922 169.302 147.975 169.22 147.992 169.16C148.684 167.243 147.163 165.528 145.731 165.862Z" fill="black"/>
<path d="M139.088 177.57C139.39 175.984 137.823 174.28 136.086 175.051C136.031 175.067 135.96 175.133 136.028 175.185C137.359 175.979 137.947 177.822 137.359 179.363C137.349 179.405 137.363 179.425 137.386 179.434C137.396 179.458 137.414 179.473 137.449 179.462C138.843 178.812 140.51 179.46 141.228 180.933C141.279 181.01 141.332 180.928 141.35 180.868C142.041 178.951 140.52 177.236 139.088 177.57Z" fill="black"/>
<path d="M160.479 192.027C160.781 190.441 159.214 188.737 157.477 189.508C157.421 189.524 157.35 189.59 157.419 189.642C158.75 190.436 159.338 192.279 158.75 193.82C158.739 193.862 158.754 193.882 158.777 193.891C158.786 193.915 158.804 193.93 158.84 193.919C160.233 193.269 161.9 193.917 162.619 195.39C162.67 195.467 162.723 195.385 162.74 195.325C163.432 193.408 161.911 191.693 160.479 192.027Z" fill="black"/>
<path d="M157.489 158.722C157.791 157.137 156.224 155.433 154.487 156.204C154.431 156.22 154.36 156.286 154.429 156.338C155.76 157.132 156.348 158.975 155.76 160.515C155.749 160.558 155.764 160.578 155.787 160.587C155.796 160.61 155.814 160.626 155.85 160.615C157.243 159.965 158.91 160.613 159.629 162.085C159.68 162.163 159.733 162.08 159.75 162.021C160.442 160.103 158.921 158.389 157.489 158.722Z" fill="black"/>
<path d="M163.011 158.722C163.312 157.137 161.746 155.433 160.008 156.204C159.953 156.22 159.882 156.286 159.95 156.338C161.282 157.132 161.87 158.975 161.281 160.515C161.271 160.558 161.286 160.578 161.309 160.587C161.318 160.61 161.336 160.626 161.371 160.615C162.765 159.965 164.432 160.613 165.15 162.085C165.202 162.163 165.255 162.08 165.272 162.021C165.964 160.103 164.443 158.389 163.011 158.722Z" fill="black"/>
<path d="M168.532 158.722C168.834 157.137 167.267 155.433 165.53 156.204C165.474 156.22 165.404 156.286 165.472 156.338C166.803 157.132 167.391 158.975 166.803 160.515C166.793 160.558 166.808 160.578 166.83 160.587C166.84 160.61 166.858 160.626 166.893 160.615C168.287 159.965 169.954 160.613 170.672 162.085C170.724 162.163 170.777 162.08 170.794 162.021C171.485 160.103 169.964 158.389 168.532 158.722Z" fill="black"/>
<path d="M151.857 183.588C152.171 182.003 150.542 180.298 148.737 181.07C148.679 181.086 148.606 181.152 148.676 181.204C150.06 181.998 150.671 183.84 150.06 185.381C150.049 185.424 150.064 185.444 150.089 185.453C150.098 185.477 150.117 185.492 150.153 185.481C151.602 184.831 153.334 185.478 154.081 186.951C154.134 187.029 154.189 186.946 154.207 186.887C154.926 184.969 153.346 183.255 151.857 183.588Z" fill="black"/>
<path d="M157.596 183.588C157.909 182.003 156.281 180.298 154.475 181.07C154.418 181.086 154.344 181.152 154.415 181.204C155.798 181.998 156.41 183.84 155.798 185.381C155.788 185.424 155.803 185.444 155.827 185.453C155.837 185.477 155.855 185.492 155.892 185.481C157.34 184.831 159.073 185.478 159.819 186.951C159.873 187.029 159.928 186.946 159.945 186.887C160.664 184.969 159.084 183.255 157.596 183.588Z" fill="black"/>
<path d="M163.334 183.588C163.648 182.003 162.019 180.298 160.214 181.07C160.156 181.086 160.083 181.152 160.153 181.204C161.537 181.998 162.148 183.84 161.537 185.381C161.526 185.424 161.542 185.444 161.565 185.453C161.575 185.477 161.594 185.492 161.63 185.481C163.079 184.831 164.811 185.478 165.558 186.951C165.611 187.029 165.666 186.946 165.684 186.887C166.403 184.969 164.823 183.255 163.334 183.588Z" fill="black"/>
<path d="M169.073 183.588C169.387 182.003 167.758 180.298 165.953 181.07C165.895 181.086 165.821 181.152 165.892 181.204C167.276 181.998 167.887 183.84 167.276 185.381C167.265 185.424 167.28 185.444 167.304 185.453C167.314 185.477 167.333 185.492 167.369 185.481C168.817 184.831 170.55 185.478 171.296 186.951C171.35 187.029 171.405 186.946 171.423 186.887C172.142 184.969 170.561 183.255 169.073 183.588Z" fill="black"/>
<path d="M153.768 177.594C154.158 176.106 152.58 174.558 150.711 175.326C150.652 175.342 150.575 175.406 150.644 175.453C152.014 176.157 152.552 177.86 151.862 179.315C151.85 179.354 151.864 179.373 151.888 179.381C151.897 179.402 151.915 179.417 151.953 179.405C153.453 178.76 155.184 179.318 155.876 180.673C155.927 180.744 155.987 180.665 156.007 180.609C156.823 178.801 155.295 177.243 153.768 177.594Z" fill="black"/>
<path d="M157.131 174.437C157.52 172.949 155.942 171.401 154.074 172.169C154.015 172.186 153.938 172.249 154.007 172.296C155.377 173 155.915 174.703 155.225 176.158C155.213 176.198 155.227 176.216 155.251 176.224C155.259 176.246 155.278 176.26 155.315 176.248C156.816 175.603 158.547 176.162 159.239 177.516C159.29 177.587 159.349 177.509 159.37 177.453C160.186 175.644 158.658 174.086 157.131 174.437Z" fill="black"/>
<path d="M160.494 171.28C160.883 169.792 159.305 168.244 157.437 169.012C157.378 169.028 157.3 169.092 157.37 169.139C158.74 169.843 159.278 171.546 158.588 173.001C158.576 173.041 158.59 173.059 158.614 173.066C158.622 173.088 158.641 173.103 158.678 173.091C160.179 172.446 161.91 173.005 162.602 174.359C162.653 174.43 162.712 174.352 162.733 174.295C163.549 172.487 162.021 170.929 160.494 171.28Z" fill="black"/>
<path d="M163.857 168.122C164.246 166.634 162.668 165.087 160.8 165.855C160.741 165.871 160.663 165.935 160.733 165.982C162.103 166.686 162.641 168.389 161.951 169.843C161.939 169.883 161.953 169.902 161.977 169.91C161.985 169.931 162.004 169.945 162.041 169.934C163.541 169.289 165.273 169.847 165.965 171.202C166.015 171.273 166.076 171.194 166.096 171.138C166.912 169.33 165.383 167.772 163.857 168.122Z" fill="black"/>
<path d="M167.22 164.965C167.609 163.478 166.031 161.931 164.163 162.698C164.104 162.714 164.026 162.778 164.096 162.825C165.465 163.529 166.003 165.232 165.314 166.687C165.301 166.726 165.316 166.745 165.34 166.753C165.348 166.774 165.367 166.788 165.404 166.777C166.904 166.132 168.636 166.691 169.328 168.045C169.379 168.116 169.438 168.037 169.459 167.981C170.275 166.173 168.746 164.615 167.22 164.965Z" fill="black"/>
<path d="M139.131 191.648H150.237C155.284 191.648 158.733 194.986 158.733 199.19C158.733 201.909 157.261 204.217 155.116 205.288V205.535C157.64 206.813 159.281 209.574 159.281 212.499C159.281 217.032 155.368 220.494 150.152 220.494H139.131V191.648ZM149.9 203.928C152.55 203.928 154.485 202.115 154.485 199.601C154.485 197.088 152.55 195.316 149.9 195.316H143.295V203.928H149.9ZM150.278 216.826C152.845 216.826 155.032 214.724 155.032 212.211C155.032 209.697 152.845 207.555 150.278 207.555H143.295V216.826H150.278Z" fill="black"/>
<path d="M165.461 191.648H176.567C181.615 191.648 185.275 195.233 185.275 200.014C185.275 203.846 182.961 206.73 179.175 207.843L186.327 220.494H181.657L174.968 208.585H169.626V220.494H165.461V191.648ZM176.146 204.917C178.881 204.917 181.026 202.774 181.026 200.096C181.026 197.459 178.881 195.316 176.146 195.316H169.626V204.917H176.146Z" fill="black"/>
<path d="M192.255 191.648H196.503L211.311 213.406H211.563V191.648H215.601V220.494H211.352L196.503 198.736H196.251V220.494H192.255V191.648Z" fill="black"/>
<path d="M222.286 206.071C222.286 197.418 228.596 191.195 237.304 191.195C246.011 191.195 252.321 197.418 252.321 206.071C252.321 214.724 246.011 220.947 237.304 220.947C228.596 220.947 222.286 214.724 222.286 206.071ZM237.304 217.197C243.614 217.197 248.073 212.623 248.073 206.071C248.073 199.519 243.614 194.945 237.304 194.945C230.951 194.945 226.535 199.519 226.535 206.071C226.535 212.623 230.951 217.197 237.304 217.197Z" fill="black"/>
<path d="M195.265 169.176C195.356 169.24 195.409 169.35 195.38 169.46C195.059 170.968 194.945 171.901 195.025 172.656C195.06 173.025 195.132 173.335 195.202 173.563C195.284 173.795 195.372 173.942 195.433 173.965C195.495 173.987 195.659 173.936 195.861 173.774C196.072 173.615 196.315 173.341 196.503 172.93C196.692 172.522 196.81 171.978 196.769 171.346C196.702 170.719 196.505 169.984 195.977 169.314C195.912 169.218 195.88 169.095 195.916 168.985C196.06 168.581 196.114 168.138 196.026 167.931C195.94 167.717 195.74 167.777 195.287 168.275C194.624 168.287 194.462 168.438 194.534 168.588C194.612 168.742 194.94 168.938 195.265 169.176Z" fill="black"/>
<path d="M185.144 167.365C185.134 167.252 185.205 167.155 185.307 167.108C186.018 166.775 186.559 166.55 187.022 166.355C187.476 166.153 187.842 165.961 188.155 165.765C188.466 165.572 188.718 165.377 188.897 165.213C189.073 165.038 189.172 164.903 189.166 164.838C189.16 164.775 189.043 164.645 188.805 164.541C188.567 164.425 188.206 164.327 187.737 164.351C187.272 164.373 186.696 164.526 186.141 164.912C185.582 165.281 185.071 165.919 184.829 166.728C184.793 166.841 184.699 166.931 184.593 166.974C184.392 167.048 184.187 167.138 184.017 167.235C183.859 167.339 183.733 167.448 183.676 167.544C183.558 167.745 183.731 167.861 184.409 167.901C184.831 168.405 185.052 168.435 185.126 168.287C185.165 168.21 185.171 168.08 185.162 167.914C185.164 167.757 185.155 167.566 185.144 167.365Z" fill="black"/>
<path d="M188.721 177.349C188.624 177.399 188.498 177.403 188.412 177.328C187.778 176.868 187.336 176.472 186.941 176.172C186.542 175.879 186.215 175.634 185.886 175.463C185.265 175.096 184.714 174.925 184.587 174.999C184.491 175.052 184.328 175.655 184.79 176.472C185.035 176.857 185.426 177.306 186.038 177.603C186.635 177.905 187.434 178.084 188.283 177.917C188.4 177.904 188.528 177.924 188.613 178.006C188.924 178.311 189.31 178.545 189.537 178.559C189.77 178.576 189.802 178.373 189.54 177.758C189.816 177.167 189.748 176.959 189.577 176.957C189.401 176.956 189.079 177.167 188.721 177.349Z" fill="black"/>
<path d="M194.978 187.568C194.916 187.662 194.8 187.692 194.69 187.673C193.144 187.409 192.123 187.516 191.388 187.817C190.66 188.054 190.258 188.474 190.261 188.607C190.264 188.732 190.694 189.115 191.524 189.284C192.335 189.395 193.594 189.269 194.855 188.254C194.943 188.183 195.067 188.174 195.172 188.206C195.948 188.457 196.796 188.577 195.873 187.614C195.928 186.318 195.437 186.896 194.978 187.568Z" fill="black"/>
<path d="M206.365 173.907C206.421 174 206.416 174.118 206.356 174.21C205.959 174.864 205.628 175.414 205.462 175.918C205.309 176.426 205.199 176.857 205.184 177.238C205.167 177.617 205.223 177.939 205.297 178.174C205.353 178.402 205.438 178.545 205.5 178.57C205.559 178.594 205.726 178.55 205.944 178.416C206.144 178.275 206.386 178.04 206.614 177.694C206.838 177.348 207.071 176.896 207.13 176.315C207.204 175.738 207.225 175.06 206.966 174.295C206.932 174.187 206.96 174.07 207.039 173.99C207.327 173.699 207.601 173.376 207.625 173.179C207.642 172.98 207.434 172.923 206.809 173.128C206.206 172.825 205.995 172.862 205.995 173.044C205.986 173.226 206.159 173.563 206.365 173.907Z" fill="black"/>
<path d="M199.748 157.294C199.857 157.291 199.96 157.353 200.012 157.449C200.192 157.795 200.396 158.064 200.563 158.339C200.732 158.613 200.905 158.844 201.082 159.041C201.451 159.418 201.765 159.734 202.093 159.937C202.755 160.333 203.304 160.44 203.414 160.36C203.516 160.288 203.623 159.697 203.226 158.969C203.033 158.604 202.758 158.169 202.268 157.825C202.031 157.645 201.76 157.471 201.454 157.313C201.15 157.154 200.77 157.058 200.38 156.965C200.268 156.941 200.177 156.86 200.143 156.752C200.082 156.556 200.012 156.358 199.933 156.197C199.848 156.046 199.758 155.928 199.673 155.874C199.499 155.763 199.353 155.917 199.248 156.558C198.698 156.939 198.634 157.141 198.794 157.226C198.875 157.27 199.015 157.286 199.188 157.287C199.353 157.298 199.547 157.299 199.748 157.294Z" fill="black"/>
<path d="M187.636 154.392C187.715 154.317 187.832 154.279 187.937 154.325C188.682 154.625 189.301 154.735 189.842 154.795C190.381 154.873 190.839 154.84 191.223 154.754C191.983 154.607 192.448 154.297 192.469 154.156C192.487 154.043 192.132 153.555 191.339 153.285C190.944 153.164 190.442 153.086 189.853 153.113C189.265 153.159 188.589 153.373 187.882 153.725C187.782 153.771 187.661 153.787 187.563 153.73C186.847 153.338 186.039 153.06 186.763 154.177C186.461 155.438 187.058 154.964 187.636 154.392Z" fill="black"/>
<path d="M173.797 165.614C173.759 165.514 173.786 165.398 173.862 165.319C174.133 165.036 174.352 164.766 174.535 164.509C174.744 164.262 174.91 164.023 175.043 163.794C175.176 163.564 175.275 163.341 175.349 163.129C175.443 162.926 175.509 162.732 175.555 162.548C175.729 161.814 175.596 161.248 175.495 161.182C175.377 161.106 174.817 161.24 174.235 161.842C174.089 161.991 173.941 162.168 173.8 162.375C173.679 162.591 173.568 162.838 173.473 163.114C173.379 163.39 173.301 163.696 173.249 164.029C173.225 164.371 173.233 164.743 173.276 165.136C173.289 165.246 173.239 165.358 173.146 165.423C172.446 165.903 171.95 166.542 173.248 166.315C174.351 167.088 174.058 166.342 173.797 165.614Z" fill="black"/>
<path d="M177.377 183.233C177.269 183.214 177.182 183.132 177.151 183.028C177.048 182.652 176.91 182.344 176.801 182.044C176.693 181.742 176.573 181.48 176.441 181.251C176.161 180.804 175.91 180.436 175.635 180.169C175.072 179.646 174.541 179.442 174.423 179.496C174.303 179.551 174.093 180.102 174.326 180.894C174.435 181.292 174.621 181.766 175.026 182.202C175.219 182.426 175.447 182.65 175.712 182.867C175.98 183.081 176.327 183.256 176.689 183.425C176.793 183.472 176.865 183.57 176.875 183.682C176.901 184.1 177 184.499 177.15 184.637C177.297 184.78 177.471 184.659 177.711 184.053C178.329 183.793 178.434 183.608 178.296 183.492C178.152 183.379 177.761 183.315 177.377 183.233Z" fill="black"/>
<path d="M204.291 181.717C204.294 181.825 204.232 181.925 204.136 181.974C203.473 182.344 202.905 182.646 202.516 183.001C202.315 183.173 202.156 183.356 202.011 183.526C201.858 183.686 201.733 183.848 201.632 184.005C201.229 184.636 201.186 185.214 201.271 185.317C201.35 185.414 201.916 185.457 202.654 185.086C202.838 184.994 203.032 184.876 203.229 184.729C203.416 184.573 203.593 184.375 203.77 184.149C204.112 183.689 204.474 183.128 204.622 182.343C204.646 182.235 204.727 182.147 204.834 182.117C205.624 181.896 206.39 181.538 205.06 181.267C204.339 180.198 204.27 180.933 204.291 181.717Z" fill="black"/>
<path d="M203.858 157.45C203.964 157.476 204.036 157.569 204.054 157.675C204.164 158.444 204.4 158.996 204.596 159.484C204.795 159.968 205.053 160.328 205.321 160.601C205.817 161.162 206.326 161.392 206.459 161.339C206.571 161.297 206.822 160.762 206.676 159.962C206.584 159.573 206.401 159.116 206.081 158.64C205.765 158.163 205.214 157.724 204.552 157.32C204.456 157.265 204.401 157.159 204.401 157.049C204.376 156.261 204.204 155.456 203.597 156.626C202.337 157.033 203.059 157.274 203.858 157.45Z" fill="black"/>
<path d="M178.855 154.593C178.891 154.494 178.986 154.425 179.096 154.414C179.872 154.334 180.459 154.159 180.975 154.008C181.48 153.843 181.852 153.585 182.158 153.365C182.771 152.937 183.026 152.422 182.984 152.296C182.945 152.177 182.427 151.93 181.596 151.998C181.184 152.038 180.719 152.216 180.215 152.5C179.703 152.766 179.211 153.258 178.769 153.903C178.707 153.994 178.597 154.046 178.484 154.035C177.647 153.957 176.853 154.122 177.987 154.775C178.329 156.055 178.587 155.313 178.855 154.593Z" fill="black"/>
<path d="M171.47 176.181C171.385 176.113 171.348 176.002 171.372 175.899C171.516 175.165 171.646 174.54 171.618 174.015C171.595 173.491 171.487 173.057 171.381 172.698C171.141 171.986 170.713 171.596 170.578 171.598C170.45 171.6 170.057 172.01 169.881 172.797C169.777 173.19 169.779 173.674 169.914 174.225C170.054 174.774 170.258 175.402 170.77 176.021C170.838 176.109 170.854 176.227 170.807 176.326C170.467 177.058 170.248 177.857 171.322 177.046C172.621 177.207 172.094 176.676 171.47 176.181Z" fill="black"/>
<path d="M188.668 190.946C188.579 191.009 188.46 191.014 188.364 190.964C187.678 190.631 187.095 190.372 186.576 190.244C186.057 190.118 185.601 190.12 185.224 190.117C184.467 190.147 183.962 190.441 183.925 190.568C183.89 190.688 184.18 191.171 184.91 191.558C185.271 191.769 185.753 191.88 186.332 191.908C186.91 191.938 187.586 191.883 188.329 191.566C188.433 191.525 188.553 191.541 188.639 191.611C189.271 192.127 190 192.546 189.482 191.316C189.98 190.132 189.318 190.488 188.668 190.946Z" fill="black"/>
</g>
</svg>
