<svg width="427" height="318" viewBox="0 0 427 318" fill="none" xmlns="http://www.w3.org/2000/svg">
<rect width="427" height="318" fill="#ffffff"/>
<g opacity="0.25">
<path d="M238.343 155.595L238.257 155.627C238.258 155.612 238.259 155.6 238.26 155.583C238.253 155.381 238.15 155.182 238.022 155.199C237.894 155.215 237.807 155.437 237.83 155.635C237.84 155.727 237.872 155.796 237.912 155.846C237.665 155.749 237.328 155.75 236.955 155.799C236.608 155.876 236.231 156.013 235.944 156.202C235.663 156.401 235.491 156.601 235.405 156.791C235.367 156.867 235.298 156.93 235.218 156.956C234.998 157.019 234.783 157.161 234.625 157.378C234.4 157.667 234.404 158.063 234.572 158.343C234.901 158.874 235.592 158.905 236.023 158.559C236.13 158.468 236.21 158.355 236.263 158.231C236.293 158.156 236.362 158.11 236.442 158.108C236.636 158.099 236.842 158.029 237.071 157.865C237.299 157.714 237.528 157.528 237.722 157.301C237.924 157.111 238.094 156.868 238.2 156.655C238.202 156.715 238.224 156.788 238.272 156.869C238.374 157.044 238.532 157.194 238.606 157.152C238.68 157.11 238.658 156.887 238.571 156.709C238.563 156.695 238.557 156.686 238.55 156.674C238.574 156.67 238.598 156.667 238.622 156.659C238.933 156.573 239.171 156.314 239.141 156.003C239.116 155.709 238.746 155.486 238.343 155.595Z" fill="black"/>
<path d="M231.114 163.317L231.065 163.394C231.056 163.381 231.05 163.371 231.04 163.357C230.911 163.2 230.707 163.103 230.615 163.192C230.523 163.281 230.59 163.51 230.73 163.653C230.795 163.721 230.862 163.758 230.924 163.773C230.668 163.843 230.4 164.044 230.133 164.305C229.905 164.573 229.688 164.906 229.575 165.227C229.473 165.553 229.458 165.815 229.506 166.018C229.523 166.1 229.506 166.192 229.458 166.259C229.322 166.441 229.238 166.681 229.244 166.949C229.243 167.313 229.489 167.626 229.795 167.749C230.383 167.976 230.952 167.59 231.084 167.059C231.114 166.922 231.108 166.785 231.074 166.655C231.051 166.577 231.078 166.499 231.141 166.45C231.29 166.328 231.411 166.149 231.493 165.882C231.583 165.626 231.651 165.342 231.666 165.046C231.71 164.775 231.697 164.479 231.651 164.247C231.689 164.293 231.751 164.338 231.839 164.375C232.027 164.453 232.246 164.479 232.279 164.402C232.312 164.324 232.158 164.16 231.98 164.069C231.965 164.063 231.955 164.059 231.941 164.054C231.958 164.036 231.975 164.019 231.99 163.999C232.185 163.746 232.215 163.398 232 163.167C231.8 162.948 231.369 162.99 231.114 163.317Z" fill="black"/>
<path d="M227.928 163.695L227.864 163.761C227.858 163.746 227.854 163.735 227.848 163.72C227.754 163.54 227.574 163.404 227.465 163.473C227.357 163.542 227.375 163.779 227.482 163.948C227.531 164.027 227.59 164.076 227.648 164.104C227.383 164.121 227.078 164.264 226.763 164.466C226.484 164.682 226.202 164.965 226.025 165.256C225.858 165.555 225.789 165.808 225.794 166.016C225.794 166.1 225.759 166.186 225.697 166.243C225.526 166.393 225.394 166.613 225.345 166.875C225.268 167.231 225.444 167.587 225.718 167.77C226.247 168.11 226.884 167.847 227.123 167.352C227.18 167.224 227.203 167.089 227.197 166.955C227.191 166.874 227.233 166.803 227.305 166.768C227.476 166.678 227.632 166.528 227.767 166.283C227.908 166.051 228.034 165.786 228.11 165.499C228.209 165.243 228.257 164.951 228.261 164.714C228.289 164.767 228.34 164.823 228.418 164.877C228.587 164.991 228.795 165.06 228.844 164.992C228.892 164.922 228.776 164.73 228.619 164.605C228.606 164.597 228.597 164.59 228.585 164.583C228.605 164.569 228.625 164.556 228.644 164.539C228.888 164.33 228.989 163.996 228.827 163.727C228.676 163.472 228.245 163.427 227.928 163.695Z" fill="black"/>
<path d="M244.409 156.352L244.329 156.352C244.335 156.338 244.34 156.327 244.346 156.312C244.407 156.121 244.39 155.899 244.295 155.87C244.197 155.845 244.074 156.008 244.005 156.197C243.974 156.284 243.966 156.36 243.975 156.42C243.683 156.053 243.109 155.651 242.506 155.474C242.211 155.386 241.94 155.379 241.745 155.431C241.665 155.451 241.567 155.439 241.498 155.386C241.314 155.244 241.062 155.155 240.77 155.174C240.381 155.183 240.043 155.452 239.957 155.757C239.81 156.357 240.201 156.88 240.701 156.983C240.833 157.005 240.97 157.009 241.098 156.976C241.174 156.959 241.251 156.98 241.306 157.041C241.442 157.188 241.624 157.299 241.931 157.39C242.516 157.564 243.395 157.563 243.847 157.269C243.818 157.323 243.801 157.397 243.808 157.491C243.82 157.69 243.949 157.906 244.06 157.893C244.175 157.885 244.242 157.67 244.22 157.472C244.217 157.456 244.215 157.446 244.211 157.431L244.296 157.446C244.681 157.489 245.009 157.257 245.022 156.951C245.035 156.65 244.762 156.392 244.409 156.352Z" fill="black"/>
<path d="M249.817 155.275L249.754 155.322C249.751 155.308 249.748 155.296 249.743 155.28C249.672 155.091 249.524 154.93 249.433 154.957C249.342 154.984 249.338 155.202 249.4 155.392C249.429 155.481 249.469 155.545 249.515 155.587C249.036 155.475 248.344 155.531 247.832 155.673C247.574 155.76 247.385 155.845 247.257 155.986C247.205 156.044 247.127 156.064 247.054 156.037C246.859 155.968 246.654 155.981 246.434 156.052C246.141 156.164 245.898 156.43 245.825 156.749C245.681 157.349 246.194 157.886 246.88 157.814C247.048 157.79 247.202 157.733 247.331 157.653C247.408 157.607 247.504 157.598 247.589 157.621C247.795 157.675 248.073 157.699 248.412 157.588C249.096 157.398 249.776 156.826 249.937 156.338C249.947 156.398 249.98 156.467 250.043 156.537C250.176 156.688 250.395 156.782 250.488 156.708C250.581 156.635 250.499 156.42 250.36 156.277C250.347 156.267 250.338 156.26 250.327 156.251L250.404 156.211C250.74 156.005 250.853 155.625 250.67 155.376C250.491 155.134 250.111 155.095 249.817 155.275Z" fill="black"/>
<path d="M250.463 150.763L250.421 150.829C250.412 150.816 250.406 150.807 250.396 150.793C250.263 150.64 250.067 150.539 249.991 150.595C249.916 150.651 249.987 150.857 250.112 151.015C250.171 151.088 250.232 151.134 250.289 151.158C249.801 151.216 249.172 151.504 248.74 151.812C248.528 151.982 248.381 152.125 248.311 152.301C248.282 152.372 248.216 152.418 248.138 152.418C247.931 152.419 247.743 152.501 247.561 152.643C247.326 152.848 247.192 153.18 247.236 153.504C247.311 154.116 247.98 154.446 248.598 154.145C248.747 154.065 248.872 153.959 248.966 153.84C249.021 153.771 249.109 153.729 249.196 153.721C249.409 153.704 249.677 153.631 249.957 153.411C250.532 153 250.97 152.232 250.948 151.719C250.98 151.773 251.034 151.826 251.118 151.87C251.297 151.966 251.535 151.98 251.597 151.88C251.657 151.779 251.505 151.605 251.324 151.519C251.309 151.513 251.299 151.51 251.285 151.505L251.342 151.441C251.586 151.133 251.558 150.739 251.299 150.568C251.046 150.401 250.676 150.494 250.463 150.763Z" fill="black"/>
<path d="M253.953 151.381L253.913 151.447C253.903 151.436 253.896 151.427 253.885 151.414C253.743 151.273 253.535 151.183 253.464 151.247C253.392 151.311 253.48 151.513 253.617 151.66C253.682 151.729 253.746 151.77 253.805 151.79C253.324 151.888 252.701 152.244 252.305 152.647C252.089 152.856 251.974 153.058 251.927 153.247C251.907 153.323 251.85 153.386 251.773 153.409C251.568 153.469 251.384 153.603 251.245 153.797C251.062 154.07 251.033 154.432 251.175 154.727C251.438 155.287 252.169 155.396 252.653 154.97C252.769 154.863 252.856 154.737 252.912 154.604C252.945 154.526 253.016 154.468 253.1 154.449C253.301 154.402 253.516 154.278 253.748 154.052C254.218 153.579 254.572 152.806 254.509 152.296C254.545 152.346 254.604 152.395 254.69 152.433C254.876 152.514 255.113 152.511 255.163 152.407C255.214 152.304 255.056 152.145 254.866 152.07C254.85 152.066 254.839 152.063 254.825 152.059L254.881 151.993C255.09 151.666 255.041 151.277 254.773 151.126C254.505 150.976 254.137 151.09 253.953 151.381Z" fill="black"/>
<path d="M232.341 157.868L232.318 157.942C232.306 157.933 232.297 157.926 232.284 157.916C232.112 157.812 231.888 157.773 231.834 157.851C231.78 157.931 231.913 158.107 232.082 158.218C232.162 158.269 232.234 158.294 232.296 158.3C231.852 158.507 231.333 158.998 231.045 159.482C230.885 159.736 230.822 159.958 230.822 160.153C230.821 160.231 230.78 160.305 230.711 160.346C230.526 160.452 230.379 160.625 230.291 160.846C230.179 161.154 230.238 161.512 230.447 161.766C230.837 162.249 231.573 162.185 231.94 161.658C232.028 161.527 232.082 161.384 232.104 161.242C232.117 161.158 232.173 161.085 232.25 161.048C232.434 160.955 232.613 160.785 232.784 160.511C233.127 159.942 233.285 159.108 233.101 158.627C233.149 158.668 233.217 158.702 233.311 158.718C233.511 158.754 233.74 158.696 233.764 158.583C233.789 158.471 233.597 158.353 233.394 158.325C233.378 158.324 233.366 158.324 233.351 158.324L233.39 158.247C233.515 157.88 233.374 157.513 233.077 157.429C232.781 157.346 232.45 157.542 232.341 157.868Z" fill="black"/>
<path d="M255.711 146.116L255.714 146.194C255.7 146.189 255.689 146.184 255.673 146.179C255.476 146.129 255.253 146.155 255.227 146.247C255.198 146.339 255.377 146.47 255.571 146.527C255.662 146.554 255.738 146.556 255.799 146.544C255.438 146.871 255.092 147.499 254.958 148.035C254.885 148.308 254.894 148.527 254.94 148.706C254.96 148.779 254.942 148.859 254.887 148.912C254.746 149.057 254.628 149.239 254.605 149.472C254.568 149.785 254.692 150.117 254.955 150.329C255.425 150.726 256.156 150.524 256.392 149.901C256.455 149.749 256.478 149.593 256.461 149.444C256.453 149.356 256.488 149.269 256.553 149.211C256.716 149.07 256.842 148.844 256.928 148.516C257.092 147.867 256.987 147.03 256.667 146.623C256.724 146.649 256.8 146.661 256.894 146.65C257.097 146.626 257.3 146.506 257.29 146.392C257.278 146.278 257.056 146.221 256.856 146.252C256.841 146.256 256.83 146.259 256.815 146.263L256.826 146.178C256.849 145.794 256.6 145.484 256.288 145.486C255.983 145.488 255.731 145.771 255.711 146.116Z" fill="black"/>
<path d="M259.431 129.105L259.365 129.149C259.362 129.134 259.36 129.122 259.357 129.106C259.298 128.914 259.159 128.741 259.065 128.767C258.97 128.79 258.95 129.009 259.002 129.202C259.026 129.292 259.064 129.358 259.106 129.402C258.634 129.269 257.909 129.306 257.375 129.473C257.101 129.555 256.915 129.675 256.783 129.807C256.731 129.863 256.652 129.889 256.577 129.871C256.378 129.828 256.159 129.823 255.945 129.925C255.655 130.058 255.431 130.335 255.385 130.666C255.285 131.268 255.842 131.777 256.505 131.651C256.669 131.624 256.816 131.562 256.937 131.47C257.008 131.418 257.102 131.402 257.187 131.426C257.394 131.49 257.656 131.477 257.984 131.379C258.633 131.177 259.304 130.653 259.49 130.173C259.497 130.234 259.526 130.304 259.585 130.378C259.711 130.535 259.921 130.643 260.015 130.576C260.108 130.506 260.041 130.29 259.91 130.138C259.899 130.127 259.89 130.119 259.879 130.109L259.958 130.074C260.303 129.893 260.442 129.522 260.277 129.262C260.117 129.006 259.741 128.942 259.431 129.105Z" fill="black"/>
<path d="M255.19 140.254V140.343C255.176 140.337 255.165 140.333 255.15 140.326C254.955 140.272 254.728 140.306 254.7 140.427C254.681 140.546 254.873 140.692 255.072 140.733C255.165 140.753 255.242 140.747 255.301 140.726C254.941 141.114 254.8 141.986 254.927 142.611C254.986 142.926 255.097 143.144 255.23 143.282C255.285 143.339 255.308 143.421 255.286 143.497C255.225 143.702 255.231 143.894 255.314 144.118C255.433 144.416 255.719 144.647 256.045 144.704C256.66 144.818 257.18 144.298 257.092 143.643C257.066 143.481 257.01 143.323 256.925 143.208C256.875 143.139 256.864 143.049 256.893 142.97C256.964 142.773 256.978 142.541 256.923 142.246C256.81 141.673 256.502 141.068 256.173 140.721C256.232 140.738 256.309 140.742 256.401 140.724C256.6 140.684 256.789 140.578 256.768 140.491C256.755 140.404 256.536 140.355 256.334 140.382C256.318 140.386 256.307 140.388 256.293 140.392C256.298 140.367 256.304 140.344 256.306 140.318C256.321 139.99 256.124 139.684 255.824 139.63C255.518 139.574 255.211 139.851 255.19 140.254Z" fill="black"/>
<path d="M253.054 137.823L253.026 137.907C253.015 137.898 253.006 137.891 252.993 137.88C252.824 137.769 252.598 137.734 252.534 137.84C252.478 137.947 252.615 138.144 252.792 138.244C252.875 138.291 252.949 138.308 253.012 138.306C252.55 138.567 252.144 139.354 252.071 139.988C252.029 140.305 252.067 140.546 252.15 140.718C252.185 140.789 252.181 140.874 252.138 140.939C252.015 141.116 251.961 141.301 251.971 141.54C251.992 141.858 252.192 142.164 252.484 142.317C253.035 142.61 253.691 142.272 253.811 141.622C253.837 141.46 253.833 141.293 253.787 141.158C253.762 141.077 253.779 140.988 253.831 140.921C253.959 140.756 254.045 140.539 254.084 140.242C254.155 139.662 254.05 138.993 253.844 138.563C253.895 138.597 253.967 138.624 254.061 138.635C254.262 138.657 254.476 138.613 254.482 138.523C254.496 138.437 254.303 138.324 254.103 138.289C254.087 138.288 254.075 138.287 254.061 138.286C254.073 138.264 254.086 138.243 254.096 138.22C254.212 137.912 254.121 137.562 253.851 137.419C253.577 137.274 253.198 137.446 253.054 137.823Z" fill="black"/>
<path d="M257.945 134.734L257.893 134.802C257.885 134.789 257.88 134.779 257.871 134.764C257.753 134.6 257.56 134.484 257.47 134.553C257.381 134.623 257.432 134.848 257.554 135.008C257.611 135.083 257.672 135.128 257.73 135.152C257.215 135.201 256.519 135.683 256.148 136.253C255.964 136.543 255.871 136.782 255.884 137.004C255.886 137.092 255.848 137.18 255.779 137.236C255.594 137.384 255.44 137.605 255.403 137.889C255.331 138.266 255.497 138.628 255.795 138.794C256.337 139.083 256.971 138.821 257.174 138.357C257.23 138.236 257.263 138.111 257.26 137.983C257.26 137.907 257.302 137.839 257.369 137.803C257.523 137.714 257.702 137.577 257.851 137.341C258.148 136.883 258.394 136.201 258.387 135.716C258.419 135.769 258.474 135.821 258.556 135.868C258.733 135.967 258.955 136.004 259.005 135.919C259.055 135.834 258.918 135.655 258.745 135.552C258.73 135.545 258.72 135.541 258.707 135.535L258.765 135.481C258.996 135.215 259.045 134.853 258.823 134.634C258.61 134.423 258.198 134.446 257.945 134.734Z" fill="black"/>
<path d="M261.903 130.16L261.844 130.222C261.838 130.208 261.834 130.197 261.827 130.182C261.726 130.007 261.546 129.873 261.45 129.933C261.353 129.994 261.382 130.223 261.487 130.394C261.536 130.473 261.592 130.525 261.647 130.554C261.13 130.553 260.388 130.963 259.961 131.494C259.749 131.765 259.632 131.994 259.622 132.215C259.615 132.303 259.569 132.387 259.495 132.436C259.295 132.565 259.12 132.77 259.054 133.049C258.945 133.417 259.073 133.793 259.353 133.988C259.863 134.329 260.52 134.131 260.769 133.689C260.837 133.574 260.882 133.453 260.893 133.325C260.9 133.25 260.949 133.186 261.019 133.157C261.182 133.083 261.374 132.964 261.546 132.744C261.888 132.317 262.201 131.664 262.244 131.18C262.27 131.236 262.32 131.294 262.397 131.348C262.563 131.464 262.78 131.522 262.838 131.443C262.896 131.363 262.778 131.172 262.617 131.052C262.603 131.044 262.593 131.038 262.581 131.031L262.644 130.983C262.901 130.742 262.987 130.386 262.787 130.146C262.597 129.915 262.185 129.897 261.903 130.16Z" fill="black"/>
<path d="M241.598 158.657L241.508 158.656C241.514 158.642 241.519 158.631 241.526 158.616C241.59 158.425 241.562 158.202 241.439 158.173C241.326 158.148 241.179 158.329 241.132 158.523C241.109 158.614 241.113 158.69 241.13 158.748C240.77 158.398 240 158.18 239.374 158.235C239.057 158.258 238.826 158.351 238.667 158.473C238.601 158.525 238.514 158.545 238.434 158.521C238.221 158.455 237.968 158.469 237.723 158.583C237.388 158.737 237.174 159.083 237.212 159.408C237.31 160.01 237.83 160.38 238.324 160.294C238.453 160.271 238.569 160.215 238.675 160.143C238.736 160.099 238.816 160.093 238.884 160.127C239.051 160.213 239.261 160.247 239.542 160.226C240.093 160.178 240.757 159.93 241.105 159.606C241.086 159.664 241.079 159.74 241.094 159.831C241.125 160.029 241.222 160.221 241.308 160.205C241.385 160.191 241.437 159.976 241.423 159.778C241.421 159.763 241.419 159.752 241.416 159.738C241.438 159.743 241.46 159.749 241.483 159.751C241.569 159.756 241.601 159.752 241.669 159.732C241.753 159.721 241.832 159.696 241.9 159.659C242.039 159.585 242.138 159.465 242.169 159.316C242.2 159.167 242.159 159.019 242.071 158.9C242.026 158.84 241.97 158.787 241.903 158.745C241.82 158.703 241.688 158.661 241.598 158.657Z" fill="black"/>
<path d="M235.535 160.3L235.479 160.37C235.472 160.356 235.466 160.346 235.458 160.332C235.343 160.166 235.145 160.053 235.047 160.131C234.959 160.205 235.017 160.43 235.145 160.584C235.205 160.657 235.267 160.7 235.326 160.722C234.824 160.792 234.182 161.263 233.847 161.786C233.674 162.049 233.61 162.286 233.612 162.485C233.614 162.568 233.577 162.647 233.509 162.696C233.327 162.824 233.185 163.03 233.128 163.291C233.05 163.646 233.201 164.024 233.486 164.19C234.032 164.478 234.646 164.295 234.876 163.856C234.935 163.741 234.961 163.616 234.966 163.489C234.967 163.415 235.011 163.349 235.08 163.316C235.25 163.238 235.405 163.094 235.559 162.861C235.854 162.4 236.055 161.73 236.004 161.261C236.039 161.311 236.096 161.361 236.179 161.406C236.358 161.501 236.572 161.542 236.611 161.464C236.647 161.396 236.505 161.225 236.336 161.116C236.322 161.109 236.312 161.104 236.299 161.097C236.316 161.083 236.334 161.069 236.35 161.053C236.406 160.988 236.423 160.961 236.447 160.895C236.489 160.823 236.516 160.746 236.528 160.67C236.553 160.517 236.515 160.367 236.414 160.252C236.313 160.137 236.168 160.079 236.017 160.077C235.942 160.075 235.865 160.088 235.791 160.114C235.707 160.154 235.593 160.232 235.535 160.3Z" fill="black"/>
<path d="M247.127 158.956C247.102 158.96 247.078 158.968 247.053 158.975C247.056 158.96 247.058 158.949 247.06 158.933C247.069 158.732 247 158.521 246.907 158.517C246.813 158.509 246.724 158.703 246.708 158.903C246.701 158.995 246.714 159.069 246.738 159.126C246.356 158.834 245.683 158.644 245.138 158.638C244.859 158.63 244.651 158.686 244.49 158.785C244.425 158.828 244.345 158.824 244.281 158.784C244.108 158.676 243.902 158.626 243.674 158.668C243.365 158.712 243.084 158.933 242.959 159.24C242.723 159.802 243.101 160.419 243.724 160.474C243.878 160.488 244.027 160.467 244.16 160.419C244.238 160.389 244.326 160.406 244.395 160.449C244.563 160.558 244.799 160.628 245.12 160.636C245.757 160.644 246.514 160.359 246.835 159.979C246.823 160.039 246.826 160.114 246.856 160.203C246.918 160.393 247.072 160.569 247.176 160.536C247.281 160.5 247.291 160.275 247.223 160.088C247.216 160.074 247.211 160.064 247.205 160.051L247.286 160.045C247.652 159.987 247.899 159.697 247.838 159.399C247.777 159.102 247.459 158.903 247.127 158.956Z" fill="black"/>
<path d="M228.573 158.76C228.562 158.783 228.557 158.807 228.549 158.831C228.538 158.821 228.529 158.813 228.516 158.803C228.35 158.687 228.133 158.63 228.078 158.705C228.021 158.778 228.139 158.957 228.3 159.078C228.376 159.134 228.446 159.163 228.508 159.173C228.052 159.333 227.527 159.788 227.226 160.237C227.069 160.463 227.005 160.665 227.003 160.852C227.004 160.929 226.957 160.993 226.889 161.026C226.703 161.109 226.55 161.254 226.462 161.466C226.333 161.745 226.37 162.097 226.565 162.366C226.918 162.866 227.65 162.885 228.033 162.399C228.128 162.278 228.19 162.144 228.221 162.008C228.238 161.927 228.3 161.864 228.375 161.83C228.558 161.749 228.745 161.591 228.926 161.33C229.276 160.807 229.441 160.025 229.289 159.554C229.334 159.596 229.4 159.634 229.492 159.657C229.688 159.709 229.922 159.677 229.95 159.572C229.975 159.466 229.789 159.336 229.592 159.291C229.577 159.29 229.566 159.288 229.551 159.287L229.59 159.215C229.737 158.881 229.623 158.52 229.336 158.41C229.048 158.3 228.706 158.456 228.573 158.76Z" fill="black"/>
<path d="M252.21 157.083C252.188 157.096 252.17 157.113 252.15 157.129C252.146 157.114 252.143 157.103 252.138 157.087C252.063 156.902 251.912 156.737 251.823 156.769C251.735 156.801 251.739 157.022 251.809 157.21C251.841 157.298 251.884 157.361 251.93 157.401C251.452 157.281 250.766 157.395 250.266 157.604C250.018 157.725 249.844 157.84 249.739 157.995C249.696 158.056 249.625 158.091 249.55 158.081C249.353 158.062 249.144 158.092 248.951 158.212C248.692 158.378 248.528 158.7 248.534 159.022C248.543 159.641 249.137 160.042 249.739 159.851C249.889 159.81 250.015 159.724 250.116 159.623C250.175 159.563 250.261 159.537 250.343 159.552C250.543 159.584 250.797 159.571 251.087 159.431C251.675 159.184 252.238 158.604 252.376 158.139C252.39 158.199 252.425 158.266 252.489 158.334C252.625 158.481 252.834 158.573 252.914 158.499C252.995 158.426 252.911 158.218 252.77 158.074C252.758 158.064 252.749 158.057 252.738 158.048L252.811 158.01C253.125 157.819 253.226 157.451 253.044 157.2C252.867 156.957 252.497 156.908 252.21 157.083Z" fill="black"/>
<path d="M256.203 153.405C256.188 153.426 256.177 153.448 256.165 153.47C256.156 153.458 256.149 153.449 256.139 153.436C256.001 153.29 255.799 153.191 255.729 153.253C255.663 153.317 255.738 153.515 255.873 153.665C255.935 153.734 255.998 153.778 256.056 153.8C255.812 153.828 255.538 153.932 255.286 154.081C255.02 154.22 254.768 154.398 254.582 154.598C254.385 154.795 254.273 154.977 254.235 155.16C254.218 155.233 254.165 155.294 254.092 155.314C253.901 155.373 253.716 155.48 253.586 155.668C253.408 155.921 253.39 156.288 253.528 156.581C253.79 157.143 254.489 157.27 254.964 156.872C255.084 156.777 255.166 156.653 255.217 156.522C255.248 156.444 255.316 156.388 255.397 156.372C255.593 156.328 255.812 156.217 256.035 155.993C256.249 155.765 256.445 155.475 256.578 155.18C256.699 154.874 256.764 154.57 256.744 154.327C256.778 154.378 256.836 154.427 256.921 154.469C257.103 154.558 257.34 154.575 257.384 154.475C257.431 154.377 257.276 154.213 257.092 154.13C257.077 154.125 257.066 154.121 257.052 154.116L257.105 154.055C257.32 153.759 257.283 153.383 257.025 153.217C256.766 153.052 256.399 153.136 256.203 153.405Z" fill="black"/>
<path d="M258.436 148.531C258.429 148.556 258.428 148.58 258.425 148.605C258.412 148.597 258.401 148.592 258.387 148.584C258.202 148.507 257.975 148.497 257.934 148.58C257.892 148.664 258.052 148.815 258.236 148.899C258.322 148.938 258.398 148.952 258.459 148.949C258.053 149.201 257.638 149.757 257.437 150.253C257.345 150.511 257.318 150.717 257.349 150.897C257.363 150.97 257.337 151.045 257.277 151.09C257.122 151.213 257.002 151.383 256.95 151.601C256.884 151.899 257.004 152.242 257.241 152.464C257.694 152.892 258.399 152.758 258.688 152.205C258.764 152.072 258.785 151.921 258.786 151.781C258.786 151.697 258.828 151.62 258.897 151.572C259.067 151.459 259.225 151.268 259.333 150.968C259.569 150.384 259.561 149.583 259.306 149.155C259.359 149.187 259.432 149.21 259.526 149.214C259.729 149.222 259.945 149.14 259.95 149.032C259.956 148.925 259.748 148.837 259.545 148.835C259.528 148.836 259.517 148.837 259.502 148.839L259.528 148.762C259.604 148.405 259.401 148.075 259.099 148.028C258.792 147.98 258.504 148.207 258.436 148.531Z" fill="black"/>
<path d="M258.524 143.153C258.528 143.179 258.536 143.202 258.542 143.226C258.527 143.224 258.516 143.223 258.499 143.221C258.297 143.215 258.083 143.289 258.077 143.383C258.071 143.477 258.277 143.561 258.479 143.571C258.574 143.575 258.649 143.561 258.705 143.535C258.423 143.921 258.253 144.599 258.27 145.139C258.29 145.415 258.34 145.618 258.447 145.771C258.49 145.834 258.497 145.913 258.461 145.978C258.371 146.153 258.317 146.357 258.368 146.58C258.44 146.881 258.671 147.145 258.986 147.254C259.571 147.463 260.176 147.059 260.203 146.443C260.213 146.291 260.188 146.146 260.125 146.017C260.09 145.942 260.097 145.855 260.14 145.785C260.244 145.615 260.32 145.379 260.299 145.066C260.279 144.444 259.966 143.717 259.568 143.414C259.629 143.425 259.706 143.419 259.795 143.388C259.986 143.321 260.156 143.168 260.121 143.067C260.085 142.966 259.859 142.961 259.669 143.033C259.654 143.04 259.645 143.045 259.631 143.052L259.626 142.971C259.575 142.659 259.313 142.426 259.002 142.437C258.695 142.448 258.463 142.779 258.524 143.153Z" fill="black"/>
<path d="M259.119 137.323L259.097 137.404C259.085 137.395 259.076 137.388 259.062 137.377C258.891 137.268 258.668 137.231 258.61 137.332C258.552 137.433 258.687 137.622 258.863 137.72C258.945 137.767 259.02 137.784 259.083 137.784C258.643 138.028 258.218 138.741 258.132 139.363C258.085 139.677 258.122 139.918 258.211 140.098C258.247 140.171 258.243 140.258 258.203 140.329C258.096 140.517 258.042 140.753 258.097 141.002C258.164 141.34 258.436 141.609 258.759 141.681C259.367 141.808 259.899 141.378 259.929 140.849C259.939 140.715 259.914 140.586 259.861 140.467C259.83 140.398 259.847 140.32 259.895 140.261C260.015 140.119 260.099 139.924 260.14 139.656C260.215 139.124 260.137 138.466 259.913 138.045C259.964 138.079 260.036 138.105 260.13 138.117C260.331 138.142 260.547 138.106 260.556 138.022C260.566 137.937 260.369 137.825 260.172 137.789C260.156 137.787 260.145 137.786 260.131 137.785C260.141 137.764 260.153 137.743 260.161 137.72C260.279 137.434 260.17 137.096 259.906 136.95C259.632 136.798 259.266 136.965 259.119 137.323Z" fill="black"/>
<path d="M246.168 162.181L246.087 162.186C246.092 162.172 246.096 162.161 246.101 162.146C246.148 161.95 246.115 161.73 246.019 161.709C245.923 161.691 245.793 161.868 245.738 162.057C245.712 162.147 245.711 162.222 245.726 162.282C245.568 162.109 245.339 161.951 245.085 161.827C244.959 161.758 244.829 161.688 244.696 161.633C244.626 161.607 244.56 161.582 244.496 161.559L244.395 161.527C244.316 161.51 244.239 161.493 244.163 161.476C244.087 161.473 244.015 161.471 243.943 161.468C243.636 161.461 243.402 161.511 243.226 161.606C243.153 161.645 243.065 161.647 242.994 161.607C242.803 161.502 242.575 161.453 242.329 161.489C241.995 161.54 241.705 161.761 241.574 162.065C241.317 162.629 241.753 163.246 242.42 163.301C242.584 163.314 242.742 163.293 242.882 163.242C242.965 163.212 243.059 163.224 243.132 163.27C243.31 163.384 243.556 163.458 243.896 163.466C243.959 163.468 243.962 163.467 243.968 163.464L243.97 163.46C243.982 163.462 243.912 163.448 243.96 163.454L244.087 163.466C244.169 163.469 244.254 163.473 244.344 163.476C244.517 163.476 244.687 163.471 244.85 163.444C245.177 163.38 245.467 163.275 245.661 163.138C245.636 163.194 245.625 163.269 245.639 163.363C245.668 163.565 245.8 163.763 245.92 163.743C246.04 163.726 246.094 163.507 246.056 163.311C246.051 163.296 246.048 163.285 246.043 163.271L246.132 163.28C246.537 163.294 246.853 163.044 246.84 162.734C246.827 162.437 246.526 162.194 246.168 162.181Z" fill="black"/>
<path d="M251.858 160.903L251.787 160.945C251.785 160.93 251.783 160.919 251.781 160.903C251.732 160.708 251.599 160.528 251.5 160.555C251.4 160.576 251.366 160.794 251.409 160.99C251.429 161.08 251.465 161.147 251.506 161.194C251.026 161.04 250.273 161.085 249.711 161.249C249.423 161.328 249.227 161.451 249.092 161.592C249.036 161.646 248.954 161.671 248.876 161.651C248.668 161.596 248.444 161.62 248.221 161.717C247.918 161.84 247.691 162.136 247.646 162.465C247.55 163.074 248.121 163.555 248.798 163.436C248.963 163.403 249.112 163.338 249.237 163.251C249.31 163.2 249.406 163.186 249.493 163.212C249.7 163.267 249.965 163.254 250.301 163.161C250.962 162.968 251.647 162.446 251.861 161.978C251.866 162.039 251.893 162.11 251.949 162.185C252.07 162.347 252.278 162.464 252.375 162.4C252.47 162.332 252.414 162.113 252.29 161.956C252.278 161.945 252.27 161.937 252.26 161.927L252.342 161.894C252.696 161.719 252.863 161.36 252.716 161.093C252.569 160.826 252.184 160.741 251.858 160.903Z" fill="black"/>
<path d="M260.986 157.37L260.953 157.445C260.943 157.434 260.935 157.425 260.923 157.413C260.77 157.28 260.556 157.207 260.491 157.285C260.421 157.359 260.52 157.557 260.667 157.693C260.737 157.757 260.805 157.792 260.866 157.806C260.382 157.95 259.789 158.408 259.421 158.858C259.23 159.084 259.141 159.295 259.111 159.487C259.096 159.563 259.043 159.629 258.968 159.657C258.764 159.729 258.594 159.873 258.467 160.078C258.289 160.348 258.274 160.719 258.427 161.015C258.7 161.569 259.448 161.645 259.936 161.168C260.052 161.048 260.137 160.911 260.19 160.77C260.22 160.687 260.291 160.621 260.377 160.594C260.58 160.523 260.79 160.364 261.012 160.099C261.444 159.57 261.705 158.757 261.611 158.252C261.65 158.299 261.713 158.344 261.803 158.374C261.996 158.439 262.234 158.418 262.278 158.311C262.316 158.202 262.144 158.054 261.95 157.994C261.935 157.992 261.924 157.99 261.909 157.987L261.957 157.914C262.148 157.572 262.078 157.182 261.803 157.046C261.527 156.909 261.161 157.054 260.986 157.37Z" fill="black"/>
<path d="M256.722 157.511L256.667 157.573C256.661 157.56 256.656 157.549 256.648 157.534C256.541 157.364 256.356 157.235 256.269 157.29C256.183 157.348 256.22 157.57 256.323 157.74C256.371 157.82 256.427 157.872 256.481 157.902C255.97 157.905 255.263 158.206 254.784 158.57C254.545 158.762 254.392 158.933 254.318 159.119C254.287 159.193 254.221 159.25 254.141 159.263C253.931 159.306 253.716 159.397 253.547 159.581C253.319 159.83 253.231 160.192 253.326 160.503C253.504 161.097 254.22 161.302 254.773 160.936C254.912 160.849 255.021 160.736 255.096 160.605C255.141 160.53 255.222 160.48 255.308 160.47C255.517 160.445 255.767 160.357 256.031 160.148C256.563 159.743 257.016 159.039 257.071 158.534C257.096 158.59 257.144 158.649 257.222 158.704C257.39 158.82 257.621 158.866 257.687 158.773C257.754 158.682 257.633 158.492 257.465 158.38C257.451 158.373 257.44 158.368 257.427 158.361L257.494 158.306C257.775 158.037 257.824 157.647 257.604 157.435C257.383 157.223 256.988 157.257 256.722 157.511Z" fill="black"/>
<path d="M260.289 152.862L260.262 152.938C260.25 152.927 260.241 152.919 260.229 152.909C260.066 152.789 259.847 152.732 259.788 152.812C259.731 152.892 259.846 153.082 260.002 153.206C260.076 153.264 260.147 153.294 260.209 153.304C259.731 153.478 259.184 153.969 258.837 154.442C258.666 154.685 258.588 154.902 258.563 155.093C258.555 155.172 258.508 155.244 258.435 155.278C258.243 155.373 258.076 155.53 257.96 155.749C257.808 156.048 257.832 156.424 258.013 156.696C258.358 157.214 259.096 157.207 259.527 156.708C259.634 156.585 259.701 156.439 259.74 156.296C259.763 156.211 259.826 156.14 259.908 156.107C260.11 156.029 260.309 155.859 260.506 155.579C260.907 155.032 261.111 154.19 260.985 153.695C261.028 153.739 261.094 153.778 261.186 153.802C261.385 153.854 261.621 153.813 261.65 153.698C261.682 153.585 261.499 153.45 261.301 153.407C261.285 153.405 261.273 153.404 261.259 153.403L261.302 153.326C261.477 152.971 261.359 152.582 261.07 152.471C260.784 152.361 260.447 152.542 260.289 152.862Z" fill="black"/>
<path d="M261.621 147.176L261.622 147.259C261.608 147.253 261.597 147.249 261.582 147.243C261.386 147.186 261.161 147.211 261.131 147.312C261.102 147.412 261.28 147.553 261.474 147.612C261.565 147.639 261.642 147.641 261.702 147.627C261.328 147.969 261.018 148.671 260.911 149.253C260.866 149.552 260.88 149.78 260.947 149.963C260.975 150.038 260.965 150.123 260.915 150.186C260.788 150.356 260.691 150.561 260.692 150.806C260.698 151.139 260.856 151.458 261.145 151.635C261.667 151.968 262.362 151.658 262.522 151.011C262.567 150.852 262.571 150.694 262.539 150.547C262.521 150.461 262.546 150.37 262.605 150.305C262.748 150.147 262.863 149.913 262.914 149.582C263.032 148.928 262.878 148.114 262.571 147.705C262.628 147.731 262.703 147.742 262.798 147.731C263 147.707 263.202 147.589 263.193 147.478C263.184 147.366 262.964 147.306 262.763 147.333C262.747 147.337 262.736 147.34 262.722 147.344C262.727 147.316 262.733 147.289 262.735 147.26C262.76 146.879 262.531 146.556 262.223 146.54C261.915 146.523 261.645 146.808 261.621 147.176Z" fill="black"/>
<path d="M261.133 141.278C261.137 141.307 261.145 141.334 261.152 141.361C261.137 141.359 261.125 141.357 261.109 141.354C260.905 141.341 260.692 141.416 260.689 141.527C260.686 141.637 260.895 141.739 261.098 141.751C261.193 141.756 261.267 141.739 261.323 141.71C261.045 142.138 260.941 142.934 261.042 143.544C261.092 143.854 261.189 144.072 261.317 144.224C261.371 144.287 261.389 144.371 261.364 144.448C261.295 144.651 261.294 144.882 261.37 145.091C261.426 145.25 261.511 145.317 261.626 145.452C261.739 145.575 261.883 145.668 262.044 145.714C262.344 145.799 262.634 145.728 262.853 145.554C262.964 145.477 263.051 145.342 263.107 145.169C263.159 145.016 263.183 144.841 263.163 144.678C263.146 144.51 263.093 144.361 263.014 144.236C262.968 144.161 262.962 144.067 262.994 143.989C263.072 143.796 263.098 143.546 263.046 143.227C262.942 142.598 262.581 141.893 262.184 141.576C262.246 141.587 262.322 141.579 262.411 141.546C262.601 141.474 262.77 141.321 262.734 141.221C262.698 141.122 262.471 141.112 262.281 141.182C262.267 141.189 262.256 141.194 262.243 141.2L262.238 141.118C262.184 140.755 261.903 140.494 261.595 140.524C261.289 140.554 261.075 140.898 261.133 141.278Z" fill="black"/>
<path d="M235.336 152.917C235.329 152.94 235.326 152.963 235.322 152.986C235.309 152.977 235.3 152.971 235.286 152.961C235.106 152.863 234.893 152.824 234.844 152.888C234.791 152.951 234.926 153.113 235.092 153.226C235.17 153.278 235.242 153.306 235.302 153.314C234.878 153.487 234.332 153.857 234.008 154.269C233.829 154.474 233.734 154.663 233.709 154.848C233.698 154.923 233.651 154.988 233.58 155.012C233.379 155.072 233.202 155.196 233.081 155.396C232.922 155.67 232.898 156.024 233.055 156.315C233.341 156.856 234.067 156.968 234.522 156.521C234.636 156.414 234.72 156.288 234.772 156.156C234.8 156.075 234.866 156.011 234.948 155.985C235.145 155.922 235.362 155.786 235.581 155.532C236.003 155.009 236.277 154.172 236.098 153.666C236.143 153.709 236.211 153.745 236.304 153.764C236.504 153.805 236.741 153.743 236.773 153.623C236.802 153.501 236.6 153.379 236.4 153.358H236.359L236.393 153.275C236.53 152.887 236.337 152.52 236.028 152.474C235.728 152.43 235.439 152.632 235.336 152.917Z" fill="black"/>
<path d="M234.948 147.454L234.96 147.535C234.945 147.531 234.933 147.528 234.917 147.524C234.716 147.495 234.496 147.551 234.482 147.658C234.467 147.765 234.67 147.878 234.871 147.903C234.965 147.914 235.041 147.904 235.099 147.881C234.775 148.243 234.639 149.097 234.773 149.7C234.837 150.009 234.942 150.205 235.079 150.344C235.136 150.401 235.158 150.48 235.135 150.551C235.076 150.746 235.083 150.955 235.166 151.152C235.289 151.421 235.548 151.626 235.883 151.705C236.186 151.772 236.476 151.701 236.675 151.503C236.883 151.304 236.989 150.991 236.941 150.668C236.917 150.507 236.854 150.37 236.771 150.251C236.723 150.18 236.712 150.091 236.74 150.017C236.808 149.832 236.822 149.588 236.763 149.306C236.641 148.745 236.333 148.165 235.969 147.814C236.029 147.828 236.105 147.826 236.197 147.801C236.392 147.747 236.571 147.616 236.546 147.522C236.521 147.428 236.296 147.402 236.1 147.452C236.085 147.458 236.074 147.462 236.061 147.467L236.063 147.389C236.039 147.045 235.786 146.772 235.477 146.778C235.169 146.785 234.923 147.089 234.948 147.454Z" fill="black"/>
<path d="M235.805 141.568L235.778 141.648C235.767 141.639 235.758 141.631 235.745 141.62C235.578 141.505 235.356 141.459 235.294 141.556C235.232 141.652 235.357 141.846 235.527 141.954C235.608 142.004 235.681 142.026 235.743 142.028C235.299 142.255 234.811 142.954 234.702 143.599C234.629 143.922 234.672 144.173 234.745 144.362C234.777 144.439 234.771 144.528 234.73 144.601C234.618 144.792 234.555 145.035 234.605 145.292C234.669 145.642 234.925 145.92 235.253 146C235.857 146.143 236.398 145.709 236.441 145.175C236.454 145.04 236.433 144.909 236.383 144.787C236.353 144.715 236.371 144.637 236.424 144.58C236.556 144.443 236.633 144.246 236.695 143.979C236.784 143.447 236.765 142.775 236.56 142.329C236.609 142.366 236.68 142.397 236.773 142.412C236.973 142.446 237.194 142.413 237.21 142.324C237.226 142.235 237.035 142.114 236.838 142.072C236.822 142.07 236.811 142.069 236.797 142.067C236.808 142.046 236.822 142.025 236.832 142.001C236.956 141.694 236.875 141.348 236.597 141.203C236.331 141.062 235.95 141.215 235.805 141.568Z" fill="black"/>
<path d="M239.709 140.815L239.666 140.889C239.657 140.876 239.65 140.867 239.64 140.854C239.501 140.707 239.293 140.618 239.211 140.7C239.131 140.782 239.213 140.997 239.357 141.136C239.425 141.202 239.492 141.238 239.553 141.253C239.07 141.385 238.447 141.97 238.206 142.579C238.067 142.881 238.056 143.136 238.089 143.335C238.104 143.416 238.079 143.503 238.024 143.565C237.875 143.73 237.762 143.956 237.758 144.217C237.748 144.573 237.94 144.897 238.245 145.041C238.806 145.303 239.425 144.987 239.579 144.474C239.62 144.344 239.626 144.211 239.604 144.083C239.589 144.006 239.623 143.933 239.687 143.888C239.844 143.78 239.961 143.603 240.076 143.355C240.275 142.852 240.397 142.19 240.289 141.713C240.329 141.759 240.392 141.803 240.48 141.837C240.669 141.91 240.892 141.923 240.926 141.839C240.961 141.755 240.8 141.598 240.615 141.517C240.6 141.512 240.589 141.509 240.575 141.504C240.592 141.485 240.609 141.468 240.624 141.447C240.809 141.171 240.803 140.816 240.561 140.618C240.329 140.427 239.925 140.499 239.709 140.815Z" fill="black"/>
<path d="M239.697 136.992C239.674 137.009 239.655 137.029 239.635 137.048C239.63 137.034 239.626 137.022 239.621 137.006C239.536 136.824 239.37 136.672 239.271 136.723C239.171 136.773 239.181 137.003 239.27 137.182C239.311 137.266 239.362 137.323 239.414 137.357C238.904 137.306 238.155 137.642 237.69 138.086C237.458 138.325 237.333 138.549 237.288 138.747C237.267 138.827 237.217 138.905 237.14 138.942C236.937 139.045 236.741 139.214 236.639 139.464C236.501 139.807 236.556 140.175 236.8 140.414C237.244 140.839 237.929 140.755 238.245 140.348C238.33 140.246 238.383 140.127 238.409 140.001C238.426 139.928 238.477 139.868 238.555 139.852C238.741 139.811 238.926 139.706 239.117 139.508C239.52 139.125 239.872 138.506 239.949 138.035C239.971 138.092 240.015 138.154 240.086 138.215C240.239 138.347 240.446 138.426 240.508 138.354C240.571 138.282 240.47 138.081 240.323 137.947C240.31 137.937 240.301 137.931 240.289 137.922L240.354 137.882C240.637 137.69 240.731 137.328 240.565 137.071C240.398 136.816 240.009 136.78 239.697 136.992Z" fill="black"/>
<path d="M245.309 134.749L245.226 134.768C245.229 134.753 245.231 134.741 245.234 134.725C245.251 134.525 245.18 134.313 245.065 134.311C244.95 134.308 244.844 134.513 244.835 134.713C244.83 134.806 244.848 134.88 244.877 134.934C244.453 134.654 243.607 134.599 242.98 134.814C242.66 134.915 242.452 135.063 242.325 135.228C242.273 135.295 242.191 135.335 242.105 135.332C241.875 135.324 241.636 135.408 241.427 135.571C241.148 135.803 241.035 136.169 241.129 136.481C241.315 137.07 241.962 137.302 242.448 137.081C242.572 137.026 242.672 136.934 242.757 136.839C242.807 136.782 242.884 136.757 242.96 136.773C243.143 136.81 243.357 136.793 243.622 136.709C244.138 136.532 244.726 136.163 245.019 135.781C245.011 135.842 245.019 135.916 245.052 136.004C245.123 136.192 245.263 136.36 245.35 136.328C245.437 136.294 245.448 136.07 245.385 135.882C245.379 135.868 245.374 135.858 245.369 135.845L245.445 135.84C245.781 135.811 246.042 135.537 246.028 135.238C246.014 134.93 245.692 134.714 245.309 134.749Z" fill="black"/>
<path d="M239.598 161.424L239.527 161.471C239.524 161.456 239.522 161.445 239.519 161.428C239.464 161.235 239.322 161.061 239.213 161.098C239.105 161.135 239.079 161.364 239.141 161.554C239.17 161.643 239.213 161.706 239.26 161.747C238.762 161.63 237.951 161.871 237.44 162.288C237.177 162.493 237.034 162.704 236.974 162.902C236.949 162.983 236.886 163.049 236.804 163.075C236.587 163.147 236.393 163.309 236.255 163.533C236.076 163.847 236.101 164.229 236.3 164.489C236.684 164.976 237.372 164.969 237.748 164.596C237.845 164.501 237.906 164.38 237.952 164.262C237.978 164.191 238.042 164.142 238.119 164.131C238.303 164.102 238.497 164.012 238.716 163.843C239.136 163.499 239.555 162.95 239.694 162.491C239.708 162.55 239.743 162.618 239.804 162.689C239.937 162.84 240.128 162.95 240.198 162.889C240.269 162.827 240.199 162.614 240.073 162.459C240.062 162.448 240.054 162.441 240.044 162.43L240.113 162.4C240.418 162.256 240.565 161.91 240.446 161.634C240.323 161.351 239.944 161.26 239.598 161.424Z" fill="black"/>
<path d="M251.159 135.139L251.085 135.15C251.089 135.135 251.092 135.125 251.096 135.109C251.127 134.911 251.082 134.695 250.995 134.673C250.909 134.652 250.8 134.839 250.757 135.034C250.738 135.126 250.74 135.201 250.756 135.259C250.416 134.921 249.817 134.624 249.239 134.514C248.945 134.46 248.702 134.48 248.511 134.553C248.435 134.582 248.345 134.574 248.272 134.529C248.08 134.404 247.829 134.342 247.56 134.383C247.193 134.426 246.901 134.696 246.82 135.01C246.677 135.609 247.106 136.132 247.626 136.191C247.761 136.201 247.891 136.193 248.015 136.148C248.086 136.122 248.166 136.141 248.226 136.196C248.366 136.325 248.57 136.424 248.88 136.48C249.489 136.599 250.35 136.456 250.736 136.118C250.714 136.176 250.707 136.251 250.725 136.343C250.763 136.539 250.903 136.728 251.021 136.709C251.139 136.692 251.177 136.469 251.128 136.275C251.122 136.26 251.118 136.249 251.113 136.236C251.142 136.239 251.17 136.24 251.199 136.238C251.595 136.219 251.877 135.938 251.831 135.632C251.785 135.338 251.485 135.123 251.159 135.139Z" fill="black"/>
<path d="M256.174 133.102L256.114 133.153C256.109 133.138 256.105 133.127 256.1 133.112C256.014 132.931 255.851 132.777 255.761 132.815C255.672 132.853 255.685 133.074 255.766 133.257C255.804 133.343 255.852 133.402 255.9 133.439C255.417 133.372 254.713 133.538 254.227 133.786C253.979 133.915 253.825 134.068 253.726 134.216C253.686 134.278 253.616 134.316 253.541 134.31C253.342 134.299 253.141 134.345 252.955 134.464C252.708 134.643 252.547 134.948 252.55 135.276C252.543 135.892 253.167 136.305 253.804 136.076C253.961 136.025 254.085 135.925 254.188 135.82C254.247 135.757 254.335 135.726 254.422 135.735C254.637 135.764 254.883 135.705 255.178 135.552C255.765 135.251 256.297 134.635 256.397 134.145C256.415 134.204 256.455 134.269 256.523 134.333C256.67 134.47 256.888 134.549 256.965 134.471C257.042 134.394 256.945 134.192 256.794 134.057C256.782 134.047 256.773 134.041 256.761 134.032L256.832 133.991C257.142 133.783 257.21 133.391 257.023 133.157C256.829 132.913 256.462 132.91 256.174 133.102Z" fill="black"/>
<path d="M232.178 150.35L232.202 150.427C232.187 150.426 232.175 150.425 232.159 150.424C231.956 150.428 231.748 150.518 231.75 150.624C231.746 150.661 231.78 150.634 231.855 150.641C231.928 150.641 232.024 150.68 232.124 150.684C232.218 150.692 232.295 150.686 232.353 150.667C232.033 150.966 231.738 151.579 231.647 152.112C231.601 152.382 231.622 152.591 231.691 152.761C231.721 152.831 231.711 152.909 231.66 152.963C231.528 153.112 231.444 153.296 231.442 153.514C231.438 153.803 231.601 154.096 231.872 154.295C232.36 154.684 233.081 154.42 233.258 153.791C233.305 153.638 233.304 153.487 233.278 153.347C233.263 153.265 233.288 153.179 233.345 153.119C233.487 152.972 233.596 152.751 233.65 152.437C233.756 151.819 233.594 151.017 233.223 150.616C233.283 150.634 233.36 150.636 233.452 150.608C233.548 150.574 233.648 150.532 233.707 150.439C233.766 150.353 233.787 150.217 233.764 150.157C233.725 150.07 233.499 150.081 233.313 150.162C233.299 150.169 233.289 150.175 233.277 150.182L233.268 150.107C233.196 149.777 232.892 149.555 232.589 149.611C232.286 149.666 232.101 149.998 232.178 150.35Z" fill="black"/>
<path d="M231.787 144.571L231.786 144.652C231.772 144.646 231.761 144.642 231.746 144.635C231.552 144.575 231.326 144.593 231.295 144.697C231.264 144.8 231.441 144.945 231.635 145C231.726 145.025 231.802 145.026 231.864 145.012C231.498 145.341 231.222 146.091 231.245 146.712C231.243 147.027 231.336 147.255 231.448 147.418C231.495 147.484 231.509 147.57 231.479 147.647C231.393 147.851 231.393 148.088 231.484 148.325C231.604 148.648 231.904 148.871 232.242 148.894C232.86 148.934 233.323 148.423 233.267 147.889C233.248 147.754 233.205 147.629 233.138 147.519C233.098 147.454 233.099 147.374 233.138 147.307C233.237 147.146 233.271 146.937 233.274 146.659C233.254 146.113 233.051 145.448 232.733 145.079C232.79 145.101 232.866 145.111 232.961 145.101C233.163 145.079 233.364 144.983 233.354 144.891C233.344 144.798 233.126 144.737 232.925 144.754C232.909 144.757 232.898 144.759 232.884 144.762L232.898 144.688C232.926 144.355 232.726 144.051 232.423 144.003C232.117 143.955 231.819 144.208 231.787 144.571Z" fill="black"/>
<path d="M233.628 139.033L233.592 139.107C233.582 139.096 233.574 139.087 233.563 139.074C233.412 138.94 233.199 138.864 233.128 138.948C233.056 139.031 233.156 139.236 233.31 139.365C233.382 139.426 233.452 139.457 233.513 139.469C233.265 139.541 233.015 139.727 232.786 139.968C232.549 140.204 232.355 140.502 232.245 140.798C232.126 141.096 232.097 141.338 232.151 141.537C232.171 141.617 232.151 141.703 232.095 141.764C231.95 141.928 231.83 142.147 231.839 142.407C231.841 142.758 232.04 143.075 232.342 143.211C232.908 143.458 233.531 143.145 233.662 142.638C233.702 142.51 233.707 142.381 233.683 142.255C233.669 142.18 233.699 142.106 233.759 142.06C233.899 141.946 234.034 141.779 234.136 141.526C234.229 141.273 234.292 140.978 234.328 140.691C234.355 140.4 234.334 140.108 234.277 139.883C234.32 139.927 234.385 139.967 234.475 139.996C234.668 140.058 234.891 140.054 234.919 139.966C234.947 139.878 234.774 139.733 234.585 139.666C234.569 139.662 234.559 139.66 234.545 139.656C234.559 139.636 234.575 139.617 234.588 139.595C234.746 139.303 234.71 138.953 234.45 138.78C234.199 138.612 233.805 138.71 233.628 139.033Z" fill="black"/>
<path d="M261.885 134.502L261.877 134.583C261.863 134.576 261.853 134.57 261.838 134.562C261.651 134.482 261.425 134.479 261.384 134.581C261.344 134.683 261.506 134.844 261.694 134.917C261.782 134.951 261.859 134.96 261.921 134.951C261.71 135.098 261.534 135.354 261.397 135.654C261.251 135.953 261.165 136.298 261.159 136.613C261.143 136.933 261.197 137.171 261.313 137.342C261.357 137.412 261.368 137.499 261.334 137.575C261.251 137.776 261.21 138.021 261.304 138.264C261.421 138.596 261.714 138.832 262.044 138.864C262.661 138.918 263.147 138.423 263.103 137.901C263.1 137.768 263.062 137.644 262.998 137.532C262.961 137.466 262.965 137.387 263.006 137.324C263.1 137.171 263.173 136.97 263.187 136.698C263.191 136.429 263.154 136.13 263.093 135.847C263.023 135.564 262.907 135.294 262.779 135.099C262.834 135.127 262.909 135.144 263.004 135.143C263.207 135.139 263.416 135.065 263.414 134.972C263.412 134.88 263.201 134.799 262.999 134.795C262.983 134.797 262.972 134.798 262.958 134.799C262.965 134.775 262.974 134.753 262.979 134.728C263.033 134.401 262.883 134.081 262.581 134C262.288 133.922 261.947 134.139 261.885 134.502Z" fill="black"/>
<path d="M237.642 134.764L237.58 134.817C237.575 134.803 237.571 134.792 237.566 134.776C237.481 134.595 237.314 134.443 237.215 134.49C237.117 134.537 237.128 134.762 237.217 134.94C237.259 135.023 237.31 135.08 237.362 135.115C236.871 135.074 236.121 135.372 235.67 135.808C235.433 136.017 235.32 136.243 235.275 136.438C235.257 136.518 235.202 136.587 235.125 136.618C234.918 136.701 234.721 136.851 234.615 137.09C234.463 137.409 234.504 137.778 234.718 138.028C235.121 138.488 235.825 138.473 236.157 138.065C236.251 137.967 236.313 137.853 236.347 137.729C236.368 137.657 236.427 137.603 236.502 137.587C236.687 137.548 236.862 137.437 237.075 137.252C237.469 136.869 237.837 136.276 237.897 135.792C237.919 135.849 237.963 135.91 238.034 135.972C238.187 136.105 238.396 136.187 238.459 136.117C238.522 136.047 238.421 135.848 238.272 135.713C238.259 135.703 238.251 135.697 238.239 135.688L238.304 135.65C238.576 135.448 238.663 135.089 238.496 134.84C238.322 134.583 237.937 134.545 237.642 134.764Z" fill="black"/>
<path d="M242.957 132.238L242.879 132.267C242.88 132.252 242.881 132.24 242.881 132.224C242.869 132.023 242.771 131.823 242.661 131.833C242.553 131.844 242.48 132.06 242.498 132.259C242.505 132.352 242.532 132.422 242.567 132.473C242.12 132.244 241.31 132.266 240.728 132.518C240.43 132.637 240.239 132.79 240.13 132.963C240.085 133.032 240.009 133.077 239.926 133.078C239.703 133.082 239.468 133.156 239.282 133.337C239.024 133.575 238.926 133.932 239.03 134.243C239.23 134.817 239.893 135.059 240.361 134.797C240.483 134.737 240.584 134.651 240.661 134.548C240.707 134.487 240.783 134.457 240.859 134.468C241.042 134.49 241.257 134.462 241.517 134.359C242.021 134.14 242.576 133.71 242.815 133.296C242.814 133.357 242.832 133.43 242.875 133.513C242.969 133.691 243.131 133.84 243.215 133.796C243.298 133.751 243.278 133.529 243.19 133.35C243.182 133.337 243.176 133.327 243.168 133.315L243.243 133.301C243.57 133.215 243.789 132.924 243.724 132.624C243.661 132.33 243.314 132.144 242.957 132.238Z" fill="black"/>
<path d="M248.861 131.903L248.779 131.898C248.785 131.885 248.791 131.875 248.798 131.86C248.868 131.672 248.859 131.449 248.754 131.415C248.649 131.381 248.494 131.549 248.43 131.738C248.4 131.826 248.396 131.902 248.408 131.962C248.089 131.58 247.328 131.291 246.688 131.295C246.365 131.292 246.127 131.376 245.958 131.484C245.89 131.53 245.801 131.541 245.723 131.51C245.516 131.43 245.27 131.429 245.026 131.514C244.692 131.624 244.468 131.945 244.446 132.268C244.416 132.885 244.933 133.316 245.466 133.273C245.602 133.261 245.726 133.209 245.838 133.144C245.903 133.106 245.984 133.109 246.05 133.149C246.21 133.249 246.419 133.29 246.697 133.294C247.243 133.291 247.918 133.104 248.304 132.815C248.279 132.87 248.266 132.944 248.272 133.037C248.286 133.237 248.374 133.439 248.467 133.431C248.561 133.424 248.632 133.213 248.625 133.014C248.622 132.999 248.62 132.987 248.618 132.973C248.643 132.98 248.667 132.987 248.692 132.99C249.026 133.031 249.35 132.852 249.41 132.551C249.469 132.256 249.231 131.95 248.861 131.903Z" fill="black"/>
<path d="M254.12 131.441L254.049 131.475C254.048 131.461 254.047 131.449 254.046 131.433C254.011 131.236 253.893 131.046 253.793 131.063C253.692 131.08 253.647 131.298 253.682 131.494C253.698 131.587 253.73 131.655 253.769 131.703C253.317 131.512 252.56 131.55 252.045 131.716C251.918 131.756 251.812 131.804 251.749 131.848C251.701 131.876 251.718 131.886 251.71 131.911C251.707 131.935 251.65 131.96 251.626 131.989C251.576 132.037 251.507 132.045 251.449 132.013C251.293 131.923 251.124 131.886 250.917 131.924C250.637 131.974 250.342 132.184 250.208 132.486C249.96 133.04 250.288 133.674 250.995 133.732C251.168 133.745 251.338 133.713 251.483 133.651C251.569 133.612 251.669 133.616 251.753 133.651C251.812 133.671 251.845 133.696 251.939 133.703C252.026 133.711 252.148 133.707 252.209 133.703C252.368 133.695 252.513 133.667 252.672 133.616C253.284 133.419 253.868 132.944 254.081 132.504C254.085 132.565 254.108 132.638 254.158 132.716C254.267 132.886 254.45 133.017 254.537 132.963C254.625 132.909 254.582 132.689 254.473 132.521C254.463 132.509 254.456 132.5 254.447 132.489L254.524 132.467C254.855 132.341 255.031 132.01 254.921 131.726C254.81 131.443 254.451 131.315 254.12 131.441Z" fill="black"/>
<path d="M228.602 146.236L228.621 146.322C228.606 146.319 228.594 146.317 228.577 146.313C228.374 146.291 228.158 146.361 228.153 146.478C228.149 146.596 228.355 146.711 228.558 146.725C228.652 146.732 228.728 146.716 228.784 146.687C228.491 147.12 228.453 148.006 228.578 148.57C228.643 148.873 228.749 149.086 228.884 149.234C228.94 149.294 228.963 149.379 228.941 149.457C228.882 149.666 228.891 149.898 228.985 150.125C229.116 150.434 229.403 150.657 229.734 150.711C230.351 150.827 230.858 150.252 230.749 149.602C230.724 149.441 230.664 149.296 230.58 149.174C230.531 149.101 230.52 149.009 230.548 148.928C230.619 148.731 230.633 148.478 230.564 148.155C230.416 147.487 230.031 146.882 229.646 146.562C229.707 146.573 229.784 146.566 229.873 146.534C230.065 146.466 230.238 146.322 230.207 146.228C230.174 146.134 229.947 146.118 229.754 146.18C229.74 146.186 229.73 146.191 229.716 146.197L229.713 146.117C229.663 145.763 229.42 145.483 229.105 145.496C228.803 145.508 228.548 145.842 228.602 146.236Z" fill="black"/>
<path d="M229.534 140.005L229.508 140.09C229.496 140.079 229.487 140.072 229.475 140.061C229.306 139.946 229.083 139.905 229.023 140.006C228.962 140.106 229.089 140.304 229.26 140.413C229.339 140.463 229.413 140.485 229.476 140.486C229.008 140.726 228.528 141.448 228.382 142.119C228.294 142.454 228.331 142.724 228.4 142.924C228.429 143.006 228.422 143.101 228.373 143.176C228.239 143.376 228.198 143.637 228.231 143.912C228.272 144.287 228.553 144.588 228.872 144.672C229.483 144.821 230.004 144.367 230.071 143.812C230.085 143.669 230.058 143.53 230.022 143.402C229.999 143.327 230.018 143.244 230.072 143.184C230.208 143.04 230.287 142.834 230.365 142.55C230.486 141.987 230.472 141.247 230.293 140.786C230.342 140.824 230.412 140.854 230.506 140.869C230.707 140.899 230.929 140.854 230.946 140.755C230.963 140.657 230.772 140.535 230.573 140.499C230.557 140.498 230.546 140.497 230.532 140.496L230.567 140.423C230.705 140.091 230.614 139.724 230.333 139.591C230.058 139.461 229.685 139.64 229.534 140.005Z" fill="black"/>
<path d="M233.047 134.791L232.991 134.858C232.984 134.845 232.978 134.834 232.97 134.819C232.855 134.655 232.662 134.537 232.568 134.604C232.472 134.67 232.525 134.903 232.644 135.065C232.7 135.142 232.76 135.188 232.817 135.212C232.3 135.269 231.59 135.736 231.182 136.271C230.982 136.545 230.889 136.789 230.868 136.997C230.86 137.082 230.812 137.163 230.736 137.209C230.541 137.337 230.379 137.541 230.289 137.799C230.161 138.147 230.271 138.537 230.515 138.756C230.988 139.165 231.665 138.995 231.984 138.512C232.063 138.388 232.106 138.251 232.124 138.114C232.137 138.035 232.192 137.967 232.268 137.935C232.453 137.857 232.632 137.709 232.811 137.463C233.173 136.989 233.463 136.287 233.466 135.786C233.497 135.839 233.551 135.893 233.632 135.94C233.809 136.041 234.028 136.071 234.087 135.987C234.144 135.9 234.01 135.72 233.837 135.616C233.822 135.609 233.812 135.605 233.798 135.598L233.861 135.544C234.119 135.281 234.152 134.892 233.935 134.676C233.718 134.459 233.321 134.511 233.047 134.791Z" fill="black"/>
<path d="M229.052 152.748L229.065 152.833C229.051 152.83 229.039 152.827 229.023 152.823C228.821 152.798 228.603 152.862 228.592 152.976C228.578 153.09 228.791 153.205 228.992 153.226C229.087 153.236 229.163 153.222 229.219 153.196C228.918 153.615 228.801 154.447 228.935 155.102C229.01 155.433 229.134 155.663 229.278 155.817C229.337 155.879 229.367 155.968 229.351 156.055C229.318 156.283 229.365 156.538 229.501 156.775C229.68 157.101 230.05 157.279 230.378 157.245C231.003 157.169 231.324 156.558 231.17 156.003C231.127 155.862 231.053 155.74 230.96 155.636C230.909 155.573 230.894 155.488 230.92 155.41C230.984 155.223 230.991 154.992 230.924 154.698C230.804 154.116 230.464 153.436 230.086 153.101C230.147 153.114 230.224 153.11 230.314 153.081C230.507 153.019 230.676 152.877 230.651 152.778C230.623 152.678 230.398 152.657 230.203 152.715C230.188 152.721 230.178 152.726 230.164 152.732L230.165 152.65C230.136 152.285 229.863 152.002 229.555 152.018C229.247 152.034 229.021 152.36 229.052 152.748Z" fill="black"/>
<path d="M237.972 130.862L237.897 130.91C237.894 130.895 237.892 130.883 237.889 130.867C237.832 130.675 237.684 130.504 237.57 130.542C237.458 130.582 237.434 130.818 237.498 131.008C237.528 131.098 237.571 131.16 237.619 131.199C237.106 131.105 236.268 131.356 235.737 131.771C235.461 131.973 235.304 132.18 235.232 132.379C235.201 132.459 235.133 132.524 235.049 132.548C234.821 132.61 234.609 132.754 234.455 132.976C234.241 133.275 234.214 133.657 234.382 133.947C234.693 134.479 235.414 134.533 235.864 134.142C235.975 134.039 236.064 133.927 236.122 133.8C236.157 133.727 236.229 133.675 236.31 133.664C236.508 133.633 236.724 133.538 236.969 133.359C237.442 132.989 237.915 132.415 238.064 131.938C238.078 131.997 238.113 132.065 238.177 132.134C238.314 132.282 238.513 132.379 238.59 132.313C238.667 132.251 238.597 132.04 238.464 131.887C238.453 131.876 238.445 131.868 238.434 131.859L238.509 131.827C238.829 131.658 238.985 131.301 238.857 131.031C238.723 130.751 238.327 130.675 237.972 130.862Z" fill="black"/>
<path d="M244.127 129.216L244.039 129.229C244.043 129.214 244.046 129.203 244.051 129.187C244.081 128.989 244.022 128.773 243.906 128.762C243.79 128.751 243.667 128.948 243.641 129.146C243.629 129.239 243.641 129.314 243.667 129.371C243.249 129.062 242.4 128.929 241.724 129.061C241.382 129.121 241.145 129.255 240.987 129.395C240.922 129.454 240.831 129.483 240.742 129.468C240.508 129.441 240.244 129.488 240.001 129.626C239.672 129.823 239.494 130.179 239.539 130.503C239.637 131.115 240.265 131.416 240.813 131.258C240.953 131.215 241.075 131.143 241.177 131.05C241.239 130.999 241.326 130.985 241.403 131.011C241.593 131.077 241.819 131.073 242.118 131.021C242.699 130.908 243.393 130.588 243.742 130.226C243.728 130.285 243.73 130.361 243.757 130.45C243.816 130.642 243.956 130.82 244.057 130.793C244.157 130.766 244.185 130.544 244.131 130.351C244.125 130.337 244.12 130.326 244.115 130.313L244.198 130.314C244.567 130.283 244.864 130.041 244.855 129.734C244.846 129.434 244.521 129.184 244.127 129.216Z" fill="black"/>
<path d="M239.442 127.015L239.361 127.048C239.361 127.032 239.361 127.02 239.362 127.004C239.345 126.804 239.237 126.608 239.122 126.623C239.007 126.638 238.933 126.858 238.954 127.057C238.964 127.15 238.992 127.22 239.031 127.269C238.553 127.063 237.694 127.125 237.068 127.407C236.749 127.542 236.549 127.727 236.428 127.898C236.379 127.97 236.297 128.019 236.207 128.025C235.973 128.051 235.727 128.157 235.523 128.346C235.248 128.612 235.158 129 235.278 129.304C235.515 129.878 236.197 130.029 236.693 129.75C236.82 129.678 236.922 129.58 237 129.466C237.048 129.403 237.129 129.369 237.21 129.377C237.41 129.399 237.629 129.343 237.908 129.226C238.447 128.984 239.048 128.515 239.304 128.084C239.303 128.146 239.323 128.218 239.37 128.3C239.472 128.473 239.65 128.614 239.742 128.565C239.834 128.516 239.809 128.294 239.711 128.119C239.702 128.106 239.695 128.097 239.687 128.085L239.768 128.067C240.12 127.954 240.353 127.651 240.272 127.354C240.194 127.064 239.818 126.895 239.442 127.015Z" fill="black"/>
<path d="M250.373 129.443L250.288 129.445C250.294 129.43 250.298 129.42 250.304 129.404C250.358 129.211 250.327 128.99 250.223 128.964C250.119 128.938 249.977 129.117 249.921 129.31C249.895 129.399 249.895 129.475 249.911 129.534C249.553 129.174 248.805 128.883 248.164 128.834C247.839 128.81 247.591 128.853 247.403 128.944C247.328 128.981 247.235 128.982 247.158 128.942C246.955 128.836 246.704 128.79 246.418 128.842C246.055 128.922 245.768 129.184 245.689 129.504C245.537 130.104 246.043 130.626 246.617 130.645C246.766 130.653 246.911 130.627 247.046 130.577C247.124 130.547 247.214 130.559 247.283 130.607C247.451 130.723 247.684 130.802 248.007 130.827C248.644 130.875 249.444 130.703 249.853 130.391C249.829 130.448 249.819 130.522 249.833 130.615C249.862 130.814 249.983 131.01 250.096 130.996C250.208 130.983 250.265 130.767 250.234 130.569C250.23 130.554 250.226 130.543 250.223 130.529L250.308 130.541C250.697 130.563 251.026 130.327 251.033 130.024C251.041 129.719 250.748 129.464 250.373 129.443Z" fill="black"/>
<path d="M213.534 154.398C213.501 154.512 213.394 154.586 213.275 154.6C211.601 154.793 210.626 155.014 209.88 155.406C209.149 155.758 208.719 156.215 208.726 156.357C208.733 156.498 209.22 156.934 210.182 157.007C210.422 157.034 210.683 156.997 210.97 156.955C211.258 156.917 211.561 156.827 211.87 156.676C212.184 156.542 212.503 156.357 212.802 156.093C213.113 155.854 213.395 155.533 213.643 155.16C213.713 155.055 213.838 154.998 213.964 154.999C214.414 154.994 214.9 154.933 215.086 154.79C215.265 154.632 215.137 154.439 214.481 154.135C214.234 153.443 214.03 153.322 213.902 153.456C213.759 153.581 213.648 153.966 213.534 154.398Z" fill="black"/>
<path d="M217.196 148.853C217.248 148.961 217.233 149.091 217.159 149.183C216.035 150.447 215.532 151.319 215.246 152.083C214.972 152.826 214.988 153.46 215.09 153.558C215.192 153.659 215.844 153.635 216.593 153.028C217.336 152.449 218.083 151.122 217.813 149.354C217.789 149.23 217.829 149.102 217.924 149.022C218.642 148.428 219.152 147.646 217.74 148.041C216.46 147.323 216.835 148.075 217.196 148.853Z" fill="black"/>
<path d="M216.865 142.13C216.964 142.194 217.015 142.313 216.998 142.431C216.756 144.083 216.807 145.124 217.064 145.931C217.279 146.716 217.702 147.202 217.847 147.216C217.989 147.229 218.47 146.814 218.717 145.912C218.936 145.041 218.848 143.578 217.643 142.228C217.559 142.135 217.529 142.003 217.569 141.883C217.816 141.011 217.848 140.044 216.866 141.16C215.429 141.25 216.104 141.683 216.865 142.13Z" fill="black"/>
<path d="M212.517 137.118C212.634 137.096 212.764 137.131 212.827 137.237C213.775 138.615 214.416 139.355 215.108 139.828C215.418 140.078 215.736 140.235 215.991 140.327C216.229 140.429 216.415 140.456 216.48 140.421C216.541 140.386 216.616 140.217 216.641 139.936C216.649 139.666 216.595 139.289 216.424 138.842C216.214 138.423 215.899 137.918 215.345 137.508C214.815 137.083 214.053 136.757 213.16 136.657C213.038 136.635 212.916 136.577 212.859 136.464C212.439 135.63 211.747 134.967 211.844 136.413C210.863 137.492 211.668 137.279 212.517 137.118Z" fill="black"/>
<path d="M205.822 136.351C205.897 136.259 206.019 136.209 206.136 136.241C207.767 136.689 208.806 136.766 209.634 136.671C210.443 136.561 210.997 136.294 211.046 136.138C211.085 136.025 210.773 135.428 209.888 135.062C209.036 134.677 207.522 134.579 206.006 135.587C205.902 135.657 205.769 135.683 205.653 135.634C204.786 135.262 203.823 135.197 204.844 136.24C204.802 137.687 205.277 137.012 205.822 136.351Z" fill="black"/>
<path d="M200.369 140.143C200.359 140.026 200.422 139.913 200.525 139.853C201.993 139.033 202.795 138.457 203.341 137.842C203.865 137.236 204.123 136.691 204.055 136.538C204.026 136.475 203.864 136.391 203.587 136.35C203.309 136.307 202.91 136.305 202.458 136.466C201.56 136.733 200.31 137.693 199.968 139.475C199.945 139.599 199.858 139.703 199.738 139.747C198.878 140.088 198.099 140.674 199.593 140.738C200.561 141.797 200.472 141.001 200.369 140.143Z" fill="black"/>
<path d="M198.751 146.647C198.673 146.557 198.655 146.428 198.702 146.319C199.405 144.783 199.631 143.764 199.607 142.933C199.604 142.126 199.373 141.55 199.24 141.493C199.109 141.438 198.497 141.682 198.013 142.498C197.554 143.291 197.253 144.72 198.025 146.333C198.081 146.445 198.075 146.578 198.004 146.681C197.736 147.055 197.53 147.472 197.56 147.697C197.581 147.925 197.815 147.936 198.451 147.575C199.16 147.769 199.379 147.677 199.347 147.489C199.306 147.298 199.028 146.981 198.751 146.647Z" fill="black"/>
<path d="M201.073 152.909C200.955 152.885 200.861 152.794 200.833 152.681C200.483 151.062 200.142 150.11 199.682 149.412C199.225 148.739 198.734 148.367 198.572 148.398C198.451 148.418 198.049 148.955 198.102 149.892C198.123 150.799 198.675 152.226 200.299 153.09C200.414 153.147 200.492 153.258 200.5 153.382C200.519 153.845 200.637 154.3 200.805 154.463C200.973 154.634 201.156 154.493 201.418 153.814C202.088 153.525 202.196 153.313 202.057 153.19C201.911 153.068 201.495 153.007 201.073 152.909Z" fill="black"/>
<path d="M206.993 155.96C206.892 156.02 206.761 156.013 206.66 155.947C205.252 155.02 204.359 154.583 203.548 154.398C202.765 154.211 202.15 154.246 202.05 154.366C201.967 154.463 202.017 155.132 202.713 155.803C203.375 156.456 204.803 157.102 206.567 156.607C206.689 156.573 206.822 156.605 206.915 156.692C207.609 157.28 208.477 157.735 207.881 156.378C208.423 155.066 207.731 155.47 206.993 155.96Z" fill="black"/>
<path d="M213.536 160.845C213.474 160.944 213.36 160.996 213.246 160.981C212.435 160.88 211.763 160.8 211.216 160.885C210.653 160.901 210.197 161.024 209.824 161.19C209.078 161.476 208.659 161.921 208.663 162.073C208.667 162.205 209.12 162.65 209.993 162.81C210.426 162.866 210.964 162.854 211.569 162.711C212.158 162.499 212.834 162.212 213.452 161.615C213.54 161.532 213.665 161.502 213.779 161.54C214.196 161.68 214.644 161.789 214.846 161.717C215.047 161.634 214.994 161.407 214.489 160.904C214.473 160.176 214.33 159.991 214.163 160.077C213.99 160.154 213.761 160.48 213.536 160.845Z" fill="black"/>
<path d="M219.1 157.447C219.087 157.559 219.004 157.652 218.892 157.685C218.492 157.801 218.154 157.934 217.851 158.068C217.532 158.182 217.258 158.309 217.02 158.448C216.559 158.745 216.17 158.993 215.905 159.295C215.639 159.597 215.453 159.881 215.333 160.098C215.219 160.325 215.185 160.504 215.216 160.57C215.246 160.632 215.408 160.719 215.674 160.769C215.945 160.829 216.313 160.831 216.736 160.703C217.157 160.576 217.676 160.389 218.131 159.951C218.365 159.743 218.598 159.497 218.82 159.212C219.022 158.907 219.204 158.552 219.362 158.164C219.406 158.054 219.509 157.977 219.632 157.965C220.507 157.842 221.351 157.511 219.957 157.063C219.266 155.805 219.165 156.6 219.1 157.447Z" fill="black"/>
<path d="M222.536 151.949C222.579 152.059 222.551 152.18 222.47 152.26C221.846 152.808 221.442 153.311 221.124 153.762C220.789 154.201 220.642 154.649 220.51 155.015C220.261 155.753 220.367 156.375 220.483 156.466C220.592 156.553 221.202 156.476 221.894 155.907C222.244 155.628 222.534 155.18 222.798 154.622C223.043 154.056 223.157 153.321 223.105 152.492C223.09 152.373 223.142 152.257 223.242 152.192C223.978 151.712 224.643 151.084 223.164 151.246C222.023 150.398 222.226 151.154 222.536 151.949Z" fill="black"/>
<path d="M223.502 145.518C223.58 145.605 223.598 145.729 223.551 145.833C223.19 146.569 222.957 147.19 222.877 147.738C222.743 148.278 222.741 148.746 222.804 149.145C222.89 149.93 223.212 150.445 223.363 150.481C223.492 150.514 224.051 150.202 224.436 149.414C224.606 149.019 224.737 148.508 224.759 147.899C224.724 147.288 224.6 146.578 224.227 145.825C224.171 145.719 224.178 145.593 224.249 145.497C224.765 144.795 225.164 143.989 223.837 144.64C222.464 144.23 222.927 144.88 223.502 145.518Z" fill="black"/>
<path d="M222.141 139.164C222.246 139.217 222.308 139.325 222.302 139.438C222.241 140.249 222.244 140.904 222.35 141.442C222.414 141.993 222.577 142.43 222.778 142.783C223.109 143.498 223.612 143.87 223.76 143.855C223.898 143.84 224.294 143.363 224.405 142.491C224.425 142.062 224.368 141.537 224.173 140.956C223.935 140.388 223.56 139.758 222.93 139.188C222.838 139.109 222.798 138.989 222.828 138.874C222.939 138.455 223.009 138.012 222.928 137.815C222.835 137.621 222.612 137.688 222.129 138.225C221.402 138.289 221.223 138.443 221.316 138.603C221.399 138.772 221.755 138.969 222.141 139.164Z" fill="black"/>
<path d="M218.303 133.938C218.418 133.943 218.518 134.018 218.56 134.125C219.169 135.613 219.76 136.448 220.401 136.947C221.041 137.429 221.594 137.615 221.741 137.534C221.846 137.478 222.08 136.851 221.77 136.032C221.603 135.634 221.39 135.127 220.912 134.714C220.683 134.5 220.416 134.289 220.111 134.094C219.802 133.902 219.416 133.761 219.014 133.631C218.899 133.595 218.813 133.501 218.792 133.381C218.618 132.517 218.212 131.727 217.858 133.12C216.626 133.892 217.452 133.92 218.303 133.938Z" fill="black"/>
<path d="M212.496 130.95C212.604 130.9 212.729 130.917 212.816 130.99C214.014 132.118 214.954 132.539 215.744 132.722C216.509 132.913 217.14 132.754 217.216 132.645C217.304 132.52 217.176 131.939 216.55 131.3C215.934 130.683 214.699 130.112 213.004 130.35C212.884 130.374 212.762 130.332 212.689 130.24C212.146 129.558 211.458 128.956 211.735 130.392C210.962 131.58 211.713 131.319 212.496 130.95Z" fill="black"/>
<path d="M205.916 130.522C205.997 130.436 206.119 130.407 206.229 130.443C207.006 130.744 207.649 130.895 208.206 130.95C208.764 131.035 209.238 130.997 209.637 130.901C210.422 130.771 210.921 130.398 210.946 130.252C210.97 130.118 210.609 129.612 209.781 129.278C209.367 129.145 208.839 129.06 208.22 129.091C207.602 129.153 206.889 129.361 206.158 129.78C206.056 129.846 205.927 129.852 205.824 129.792C205.062 129.355 204.197 129.045 204.997 130.279C204.728 131.663 205.329 131.148 205.916 130.522Z" fill="black"/>
<path d="M199.717 132.639C199.755 132.53 199.856 132.457 199.972 132.447C200.775 132.352 201.453 132.305 201.967 132.111C202.5 131.961 202.927 131.772 203.253 131.531C203.919 131.1 204.247 130.593 204.212 130.442C204.185 130.316 203.652 129.956 202.759 129.978C202.323 130.013 201.786 130.113 201.23 130.4C200.695 130.729 200.087 131.14 199.626 131.874C199.559 131.974 199.442 132.029 199.321 132.015C198.41 131.892 197.548 132.075 198.784 132.804C199.18 134.207 199.426 133.404 199.717 132.639Z" fill="black"/>
<path d="M195.114 137.217C195.096 137.102 195.142 136.984 195.249 136.931C195.99 136.535 196.468 136.117 196.899 135.764C197.103 135.579 197.269 135.39 197.406 135.201C197.551 135.021 197.683 134.855 197.781 134.683C197.983 134.345 198.084 134.013 198.137 133.761C198.197 133.518 198.191 133.338 198.144 133.281C198.1 133.227 197.922 133.178 197.647 133.186C197.382 133.204 197.034 133.301 196.638 133.506C196.443 133.611 196.228 133.736 196.028 133.91C195.837 134.092 195.645 134.308 195.461 134.56C195.071 135.044 194.822 135.757 194.679 136.572C194.656 136.684 194.588 136.791 194.476 136.834C193.663 137.158 192.887 137.646 194.363 137.782C195.309 138.845 195.258 138.064 195.114 137.217Z" fill="black"/>
<path d="M192.938 143.331C192.876 143.232 192.88 143.107 192.945 143.013C193.42 142.348 193.768 141.784 193.948 141.264C194.18 140.761 194.268 140.304 194.28 139.902C194.367 139.127 194.137 138.55 194.001 138.486C193.877 138.427 193.286 138.63 192.733 139.327C192.49 139.685 192.264 140.167 192.128 140.765C192.047 141.374 192.032 142.1 192.277 142.907C192.314 143.021 192.285 143.144 192.198 143.226C191.566 143.833 191.031 144.564 192.453 144.139C193.734 144.768 193.392 144.055 192.938 143.331Z" fill="black"/>
<path d="M193.124 149.84C193.031 149.768 192.991 149.65 193.018 149.54C193.26 148.752 193.356 148.107 193.364 147.553C193.401 146.996 193.32 146.533 193.187 146.149C192.974 145.387 192.554 144.937 192.402 144.927C192.266 144.919 191.783 145.323 191.534 146.161C191.435 146.577 191.395 147.101 191.482 147.703C191.597 148.301 191.869 148.981 192.353 149.663C192.428 149.758 192.444 149.883 192.392 149.989C192.011 150.772 191.767 151.643 192.953 150.761C194.376 150.917 193.805 150.366 193.124 149.84Z" fill="black"/>
<path d="M195.722 155.781C195.61 155.751 195.527 155.657 195.51 155.545C195.434 155.137 195.367 154.783 195.307 154.464C195.235 154.139 195.142 153.856 195.032 153.606C194.85 153.087 194.619 152.686 194.352 152.381C193.872 151.755 193.325 151.474 193.177 151.519C193.049 151.556 192.733 152.105 192.814 152.98C192.881 153.406 193.028 153.92 193.35 154.448C193.528 154.704 193.745 154.964 194.004 155.219C194.251 155.48 194.569 155.718 194.952 155.922C195.057 155.981 195.121 156.091 195.116 156.211C195.054 157.11 195.283 157.952 195.948 156.689C197.341 156.214 196.522 156.015 195.722 155.781Z" fill="black"/>
<path d="M200.655 160.014C200.536 160.045 200.42 159.996 200.358 159.896C199.902 159.203 199.457 158.751 199.069 158.353C198.868 158.166 198.664 158.016 198.465 157.894C198.281 157.753 198.097 157.642 197.918 157.555C197.189 157.224 196.585 157.188 196.475 157.286C196.37 157.378 196.307 158.016 196.796 158.751C196.914 158.938 197.061 159.133 197.242 159.329C197.438 159.505 197.671 159.679 197.939 159.842C198.458 160.191 199.19 160.401 200.031 160.479C200.148 160.493 200.255 160.565 200.309 160.666C200.693 161.44 201.244 162.168 201.279 160.71C202.292 159.706 201.504 159.812 200.655 160.014Z" fill="black"/>
<path d="M207.002 161.685C206.907 161.754 206.781 161.761 206.68 161.705C205.968 161.292 205.37 161.002 204.832 160.862C204.306 160.674 203.838 160.624 203.43 160.643C202.643 160.609 202.072 160.883 202.017 161.019C201.966 161.147 202.215 161.705 202.962 162.205C203.344 162.415 203.85 162.6 204.468 162.686C205.092 162.723 205.832 162.674 206.628 162.369C206.741 162.324 206.868 162.342 206.959 162.419C207.627 162.988 208.416 163.451 207.861 162.092C208.386 160.782 207.696 161.177 207.002 161.685Z" fill="black"/>
<path d="M211.677 158.561C211.608 158.658 211.488 158.705 211.373 158.686C210.543 158.5 209.891 158.451 209.319 158.417C208.755 158.424 208.281 158.469 207.883 158.573C207.092 158.808 206.6 159.133 206.582 159.299C206.574 159.368 206.667 159.525 206.874 159.705C207.08 159.892 207.401 160.091 207.844 160.2C208.284 160.326 208.844 160.4 209.489 160.268C210.131 160.179 210.852 159.856 211.542 159.331C211.637 159.251 211.768 159.226 211.883 159.269C212.745 159.609 213.67 159.669 212.645 158.645C212.647 157.197 212.181 157.883 211.677 158.561Z" fill="black"/>
<path d="M217.301 155.027C217.296 155.143 217.214 155.241 217.103 155.283C215.558 155.904 214.685 156.441 214.131 157.051C213.571 157.619 213.356 158.213 213.41 158.335C213.471 158.473 214.065 158.69 214.972 158.453C215.42 158.336 215.916 158.059 216.411 157.637C216.643 157.407 216.872 157.137 217.087 156.83C217.3 156.522 217.457 156.132 217.603 155.731C217.642 155.616 217.746 155.532 217.867 155.506C218.732 155.292 219.597 154.893 218.143 154.561C217.373 153.366 217.3 154.151 217.301 155.027Z" fill="black"/>
<path d="M220.253 149.065C220.306 149.172 220.296 149.3 220.22 149.391C219.648 150.025 219.311 150.589 219.022 151.08C218.776 151.587 218.604 152.023 218.526 152.423C218.386 153.222 218.473 153.802 218.613 153.893C218.712 153.96 219.39 153.857 219.993 153.176C220.622 152.529 221.176 151.255 220.877 149.551C220.854 149.432 220.889 149.307 220.982 149.228C221.658 148.649 222.247 147.929 220.796 148.27C219.565 147.537 219.854 148.288 220.253 149.065Z" fill="black"/>
<path d="M220.333 142.408C220.427 142.482 220.481 142.6 220.441 142.715C220.32 143.121 220.239 143.484 220.194 143.816C220.139 144.149 220.081 144.456 220.074 144.737C220.072 145.297 220.079 145.771 220.194 146.167C220.4 146.957 220.748 147.445 220.911 147.464C221.034 147.481 221.584 147.1 221.846 146.24C222.116 145.403 222.133 144.011 221.105 142.585C221.042 142.484 221.011 142.357 221.062 142.246C221.42 141.431 221.612 140.514 220.472 141.461C219.037 141.352 219.636 141.881 220.333 142.408Z" fill="black"/>
<path d="M217.145 136.627C217.262 136.642 217.36 136.725 217.396 136.835C217.88 138.41 218.409 139.277 218.952 139.89C219.521 140.468 220.051 140.747 220.202 140.692C220.322 140.65 220.641 140.06 220.436 139.171C220.288 138.287 219.532 137.049 217.887 136.378C217.771 136.332 217.689 136.229 217.673 136.107C217.549 135.207 217.152 134.377 216.741 135.763C215.459 136.463 216.293 136.533 217.145 136.627Z" fill="black"/>
<path d="M211.275 133.46C211.385 133.405 211.514 133.42 211.602 133.504C212.878 134.581 213.791 135.075 214.607 135.254C215.383 135.462 216.006 135.373 216.1 135.25C216.18 135.147 216.092 134.515 215.446 133.852C214.804 133.231 213.531 132.563 211.776 132.86C211.656 132.873 211.53 132.834 211.451 132.745C210.868 132.077 210.131 131.492 210.473 132.922C209.725 134.132 210.482 133.849 211.275 133.46Z" fill="black"/>
<path d="M204.561 133.533C204.629 133.436 204.749 133.388 204.864 133.406C205.694 133.592 206.346 133.645 206.916 133.678C207.48 133.667 207.953 133.636 208.351 133.525C209.141 133.304 209.636 132.968 209.656 132.805C209.672 132.687 209.284 132.137 208.397 131.897C207.537 131.628 206.092 131.682 204.695 132.761C204.6 132.843 204.469 132.868 204.354 132.826C203.491 132.488 202.564 132.427 203.592 133.45C203.593 134.897 204.058 134.214 204.561 133.533Z" fill="black"/>
<path d="M198.947 137.082C198.951 136.966 199.033 136.868 199.144 136.825C200.687 136.201 201.558 135.659 202.112 135.049C202.395 134.769 202.583 134.476 202.697 134.235C202.815 134.003 202.861 133.833 202.829 133.764C202.767 133.627 202.171 133.407 201.267 133.65C200.818 133.766 200.324 134.047 199.83 134.469C199.599 134.7 199.37 134.97 199.156 135.278C198.943 135.587 198.788 135.977 198.643 136.378C198.604 136.493 198.501 136.578 198.379 136.603C197.515 136.82 196.65 137.219 198.105 137.548C198.877 138.743 198.949 137.957 198.947 137.082Z" fill="black"/>
<path d="M195.999 143.047C195.946 142.94 195.956 142.812 196.032 142.721C196.604 142.087 196.941 141.523 197.229 141.032C197.476 140.524 197.647 140.088 197.724 139.688C197.864 138.889 197.776 138.309 197.636 138.218C197.537 138.151 196.859 138.254 196.258 138.936C195.629 139.584 195.075 140.858 195.375 142.561C195.398 142.68 195.363 142.806 195.27 142.884C194.594 143.463 194.005 144.183 195.455 143.842C196.687 144.575 196.399 143.824 195.999 143.047Z" fill="black"/>
<path d="M195.916 149.704C195.823 149.631 195.769 149.513 195.809 149.398C195.93 148.991 196.011 148.628 196.058 148.296C196.112 147.963 196.171 147.656 196.177 147.376C196.179 146.816 196.173 146.341 196.058 145.945C195.852 145.156 195.504 144.667 195.341 144.648C195.217 144.632 194.667 145.012 194.406 145.872C194.135 146.71 194.118 148.1 195.145 149.527C195.207 149.628 195.238 149.755 195.187 149.866C194.828 150.681 194.635 151.596 195.776 150.651C197.211 150.763 196.613 150.232 195.916 149.704Z" fill="black"/>
<path d="M199.091 155.494C198.974 155.479 198.877 155.396 198.841 155.285C198.361 153.709 197.836 152.84 197.293 152.226C196.726 151.645 196.196 151.367 196.045 151.421C195.925 151.462 195.605 152.052 195.807 152.941C195.954 153.825 196.705 155.065 198.349 155.741C198.464 155.787 198.547 155.891 198.562 156.013C198.685 156.911 199.078 157.745 199.494 156.358C200.775 155.664 199.945 155.588 199.091 155.494Z" fill="black"/>
<path d="M204.958 158.654C204.851 158.705 204.719 158.698 204.63 158.617C203.356 157.532 202.437 157.057 201.627 156.869C200.848 156.666 200.229 156.748 200.134 156.872C200.054 156.973 200.138 157.612 200.786 158.272C201.425 158.902 202.708 159.551 204.459 159.262C204.58 159.246 204.708 159.276 204.787 159.37C205.373 160.039 206.116 160.624 205.762 159.193C206.499 157.982 205.748 158.264 204.958 158.654Z" fill="black"/>
<path d="M166.562 132.167C166.894 130.415 165.171 128.531 163.26 129.384C163.199 129.401 163.121 129.474 163.196 129.532C164.66 130.409 165.307 132.446 164.66 134.149C164.649 134.196 164.665 134.218 164.69 134.228C164.7 134.254 164.72 134.271 164.759 134.259C166.292 133.54 168.126 134.256 168.915 135.884C168.972 135.969 169.03 135.878 169.049 135.813C169.81 133.693 168.137 131.799 166.562 132.167Z" fill="black"/>
<path d="M173.986 122.209C174.318 120.457 172.594 118.573 170.684 119.426C170.623 119.443 170.545 119.516 170.62 119.574C172.084 120.452 172.731 122.488 172.084 124.191C172.072 124.238 172.088 124.26 172.113 124.27C172.124 124.296 172.144 124.313 172.183 124.301C173.716 123.583 175.549 124.299 176.339 125.926C176.396 126.012 176.454 125.921 176.473 125.855C177.233 123.736 175.561 121.841 173.986 122.209Z" fill="black"/>
<path d="M188.518 119.995C188.85 118.243 187.127 116.359 185.216 117.212C185.155 117.229 185.077 117.302 185.152 117.36C186.616 118.237 187.263 120.274 186.616 121.977C186.605 122.024 186.621 122.046 186.646 122.056C186.656 122.082 186.676 122.099 186.715 122.087C188.248 121.368 190.082 122.084 190.871 123.712C190.928 123.798 190.986 123.706 191.005 123.641C191.766 121.521 190.093 119.627 188.518 119.995Z" fill="black"/>
<path d="M159.703 140.058C160.035 138.305 158.312 136.421 156.401 137.274C156.34 137.292 156.262 137.364 156.337 137.422C157.801 138.3 158.448 140.336 157.801 142.039C157.79 142.086 157.806 142.108 157.831 142.119C157.841 142.145 157.861 142.162 157.9 142.149C159.433 141.431 161.266 142.147 162.056 143.775C162.113 143.86 162.171 143.769 162.19 143.703C162.951 141.584 161.278 139.689 159.703 140.058Z" fill="black"/>
<path d="M152.397 152.998C152.729 151.246 151.005 149.362 149.095 150.215C149.034 150.232 148.956 150.305 149.031 150.363C150.495 151.24 151.142 153.277 150.495 154.98C150.483 155.027 150.5 155.049 150.525 155.059C150.535 155.085 150.555 155.102 150.594 155.09C152.127 154.371 153.96 155.087 154.75 156.715C154.807 156.8 154.865 156.709 154.884 156.644C155.645 154.524 153.972 152.63 152.397 152.998Z" fill="black"/>
<path d="M175.924 168.977C176.256 167.225 174.533 165.341 172.622 166.194C172.561 166.211 172.483 166.284 172.558 166.342C174.022 167.219 174.669 169.256 174.022 170.959C174.011 171.006 174.027 171.028 174.052 171.038C174.062 171.064 174.082 171.081 174.121 171.069C175.654 170.35 177.488 171.066 178.278 172.694C178.334 172.78 178.392 172.688 178.411 172.623C179.172 170.503 177.499 168.609 175.924 168.977Z" fill="black"/>
<path d="M172.635 132.167C172.967 130.415 171.244 128.531 169.334 129.384C169.273 129.401 169.195 129.474 169.27 129.532C170.734 130.409 171.38 132.446 170.734 134.149C170.722 134.196 170.738 134.218 170.763 134.228C170.774 134.254 170.794 134.271 170.833 134.259C172.365 133.54 174.199 134.256 174.989 135.884C175.046 135.969 175.104 135.878 175.123 135.813C175.883 133.693 174.211 131.799 172.635 132.167Z" fill="black"/>
<path d="M178.709 132.167C179.041 130.415 177.317 128.531 175.406 129.384C175.345 129.401 175.268 129.474 175.342 129.532C176.807 130.409 177.454 132.446 176.806 134.149C176.796 134.196 176.812 134.218 176.837 134.228C176.847 134.254 176.867 134.271 176.905 134.259C178.439 133.54 180.272 134.256 181.062 135.884C181.119 135.969 181.177 135.878 181.196 135.813C181.957 133.693 180.284 131.799 178.709 132.167Z" fill="black"/>
<path d="M184.782 132.167C185.114 130.415 183.391 128.531 181.48 129.384C181.419 129.401 181.341 129.474 181.416 129.532C182.88 130.409 183.527 132.446 182.88 134.149C182.869 134.196 182.885 134.218 182.91 134.228C182.921 134.254 182.94 134.271 182.979 134.259C184.512 133.54 186.346 134.256 187.136 135.884C187.192 135.969 187.251 135.878 187.269 135.813C188.03 133.693 186.357 131.799 184.782 132.167Z" fill="black"/>
<path d="M166.441 159.65C166.786 157.898 164.995 156.014 163.009 156.867C162.946 156.884 162.865 156.957 162.943 157.015C164.464 157.892 165.136 159.928 164.464 161.631C164.453 161.679 164.469 161.701 164.496 161.711C164.506 161.737 164.527 161.754 164.567 161.742C166.16 161.023 168.066 161.739 168.887 163.367C168.946 163.452 169.006 163.361 169.026 163.296C169.816 161.176 168.078 159.282 166.441 159.65Z" fill="black"/>
<path d="M172.753 159.65C173.098 157.898 171.307 156.014 169.321 156.867C169.257 156.884 169.177 156.957 169.254 157.015C170.776 157.892 171.448 159.928 170.776 161.631C170.764 161.679 170.781 161.701 170.807 161.711C170.818 161.737 170.839 161.754 170.879 161.742C172.472 161.023 174.377 161.739 175.198 163.367C175.258 163.452 175.318 163.361 175.337 163.296C176.128 161.176 174.39 159.282 172.753 159.65Z" fill="black"/>
<path d="M179.065 159.65C179.41 157.898 177.619 156.014 175.633 156.867C175.57 156.884 175.489 156.957 175.566 157.015C177.088 157.892 177.76 159.928 177.088 161.631C177.076 161.679 177.093 161.701 177.119 161.711C177.13 161.737 177.151 161.754 177.19 161.742C178.784 161.023 180.69 161.739 181.511 163.367C181.569 163.452 181.63 163.361 181.649 163.296C182.44 161.176 180.702 159.282 179.065 159.65Z" fill="black"/>
<path d="M185.377 159.65C185.722 157.898 183.931 156.014 181.945 156.867C181.881 156.884 181.8 156.957 181.878 157.015C183.4 157.892 184.072 159.928 183.4 161.631C183.388 161.679 183.405 161.701 183.431 161.711C183.442 161.737 183.463 161.754 183.502 161.742C185.096 161.023 187.002 161.739 187.822 163.367C187.882 163.452 187.942 163.361 187.961 163.296C188.752 161.176 187.014 159.282 185.377 159.65Z" fill="black"/>
<path d="M168.543 153.025C168.972 151.38 167.236 149.67 165.181 150.518C165.116 150.536 165.031 150.606 165.107 150.659C166.613 151.437 167.206 153.319 166.447 154.927C166.433 154.971 166.449 154.991 166.475 155C166.485 155.024 166.505 155.039 166.546 155.027C168.197 154.314 170.101 154.931 170.862 156.428C170.918 156.506 170.984 156.42 171.006 156.358C171.904 154.359 170.222 152.637 168.543 153.025Z" fill="black"/>
<path d="M172.242 149.535C172.67 147.891 170.935 146.18 168.879 147.029C168.815 147.047 168.73 147.117 168.806 147.169C170.312 147.948 170.904 149.83 170.146 151.438C170.132 151.482 170.148 151.502 170.174 151.511C170.183 151.534 170.204 151.55 170.245 151.537C171.895 150.825 173.799 151.442 174.56 152.939C174.616 153.017 174.682 152.931 174.705 152.869C175.603 150.87 173.921 149.148 172.242 149.535Z" fill="black"/>
<path d="M175.941 146.046C176.369 144.402 174.634 142.691 172.578 143.54C172.514 143.558 172.428 143.628 172.504 143.68C174.011 144.458 174.603 146.341 173.844 147.948C173.831 147.992 173.847 148.013 173.873 148.021C173.882 148.045 173.903 148.061 173.944 148.048C175.594 147.335 177.498 147.953 178.259 149.45C178.315 149.528 178.381 149.441 178.403 149.379C179.301 147.38 177.62 145.659 175.941 146.046Z" fill="black"/>
<path d="M179.639 142.557C180.068 140.912 178.332 139.202 176.277 140.051C176.213 140.069 176.127 140.139 176.203 140.191C177.71 140.969 178.302 142.851 177.543 144.459C177.53 144.503 177.545 144.524 177.572 144.532C177.581 144.556 177.601 144.572 177.642 144.559C179.292 143.846 181.197 144.463 181.958 145.96C182.014 146.039 182.08 145.952 182.102 145.89C183 143.891 181.319 142.17 179.639 142.557Z" fill="black"/>
<path d="M183.338 139.067C183.766 137.423 182.031 135.713 179.976 136.561C179.911 136.579 179.826 136.649 179.902 136.701C181.408 137.48 182 139.362 181.242 140.97C181.228 141.014 181.244 141.034 181.27 141.043C181.28 141.066 181.3 141.082 181.341 141.069C182.991 140.356 184.896 140.974 185.657 142.471C185.713 142.549 185.779 142.463 185.801 142.401C186.699 140.402 185.017 138.68 183.338 139.067Z" fill="black"/>
<path d="M152.444 168.559H164.659C170.211 168.559 174.004 172.248 174.004 176.894C174.004 179.9 172.385 182.45 170.025 183.634V183.907C172.801 185.319 174.606 188.371 174.606 191.604C174.606 196.614 170.303 200.44 164.566 200.44H152.444V168.559ZM164.288 182.131C167.203 182.131 169.332 180.127 169.332 177.348C169.332 174.571 167.203 172.612 164.288 172.612H157.024V182.131H164.288ZM164.705 196.386C167.527 196.386 169.933 194.063 169.933 191.286C169.933 188.507 167.527 186.139 164.705 186.139H157.024V196.386H164.705Z" fill="black"/>
<path d="M181.405 168.559H193.619C199.172 168.559 203.197 172.521 203.197 177.804C203.197 182.04 200.652 185.228 196.488 186.458L204.354 200.44H199.218L191.861 187.278H185.985V200.44H181.405V168.559ZM193.157 183.224C196.164 183.224 198.524 180.855 198.524 177.895C198.524 174.98 196.164 172.612 193.157 172.612H185.985V183.224H193.157Z" fill="black"/>
<path d="M210.875 168.559H215.547L231.834 192.606H232.111V168.559H236.553V200.44H231.88L215.547 176.392H215.27V200.44H210.875V168.559Z" fill="black"/>
<path d="M243.906 184.5C243.906 174.935 250.846 168.058 260.423 168.058C270 168.058 276.941 174.935 276.941 184.5C276.941 194.064 270 200.941 260.423 200.941C250.846 200.941 243.906 194.064 243.906 184.5ZM260.423 196.796C267.363 196.796 272.268 191.741 272.268 184.5C272.268 177.258 267.363 172.202 260.423 172.202C253.436 172.202 248.579 177.258 248.579 184.5C248.579 191.741 253.436 196.796 260.423 196.796Z" fill="black"/>
<path d="M214.186 143.721C214.285 143.791 214.344 143.913 214.312 144.035C213.958 145.701 213.834 146.732 213.922 147.567C213.96 147.975 214.039 148.317 214.116 148.57C214.206 148.826 214.303 148.988 214.37 149.014C214.438 149.039 214.619 148.982 214.841 148.803C215.073 148.627 215.34 148.324 215.547 147.87C215.754 147.419 215.885 146.818 215.839 146.119C215.766 145.426 215.549 144.614 214.969 143.873C214.897 143.767 214.861 143.631 214.902 143.51C215.06 143.063 215.12 142.573 215.023 142.344C214.928 142.108 214.708 142.175 214.21 142.725C213.48 142.739 213.303 142.905 213.381 143.071C213.467 143.241 213.828 143.457 214.186 143.721Z" fill="black"/>
<path d="M203.053 141.719C203.042 141.594 203.121 141.487 203.232 141.435C204.015 141.067 204.61 140.819 205.119 140.603C205.618 140.38 206.021 140.167 206.365 139.951C206.707 139.737 206.984 139.522 207.181 139.341C207.375 139.148 207.483 138.998 207.477 138.926C207.471 138.856 207.341 138.713 207.08 138.598C206.818 138.47 206.421 138.362 205.905 138.388C205.394 138.413 204.76 138.582 204.149 139.008C203.535 139.416 202.972 140.121 202.707 141.016C202.668 141.141 202.564 141.24 202.447 141.288C202.226 141.369 202 141.468 201.813 141.576C201.639 141.69 201.501 141.811 201.438 141.918C201.309 142.139 201.499 142.267 202.245 142.312C202.709 142.868 202.952 142.902 203.033 142.739C203.076 142.653 203.083 142.509 203.073 142.326C203.075 142.153 203.066 141.942 203.053 141.719Z" fill="black"/>
<path d="M206.988 152.754C206.881 152.81 206.743 152.814 206.647 152.731C205.951 152.223 205.465 151.785 205.03 151.454C204.591 151.13 204.231 150.859 203.869 150.67C203.187 150.264 202.581 150.075 202.441 150.157C202.335 150.215 202.155 150.882 202.664 151.785C202.933 152.211 203.363 152.707 204.036 153.035C204.694 153.369 205.572 153.567 206.505 153.382C206.634 153.368 206.775 153.389 206.869 153.481C207.211 153.818 207.636 154.076 207.885 154.092C208.141 154.111 208.176 153.887 207.888 153.206C208.192 152.553 208.117 152.324 207.929 152.321C207.735 152.32 207.381 152.553 206.988 152.754Z" fill="black"/>
<path d="M213.87 164.048C213.801 164.152 213.673 164.186 213.553 164.165C211.853 163.873 210.729 163.991 209.921 164.324C209.12 164.585 208.678 165.05 208.681 165.196C208.684 165.335 209.158 165.758 210.07 165.945C210.962 166.068 212.347 165.929 213.734 164.807C213.831 164.729 213.968 164.718 214.083 164.753C214.936 165.031 215.869 165.164 214.854 164.1C214.914 162.667 214.374 163.305 213.87 164.048Z" fill="black"/>
<path d="M226.394 148.949C226.455 149.053 226.45 149.183 226.384 149.285C225.947 150.007 225.584 150.615 225.4 151.173C225.232 151.734 225.111 152.21 225.095 152.631C225.076 153.05 225.138 153.406 225.219 153.665C225.281 153.917 225.374 154.076 225.443 154.103C225.508 154.13 225.691 154.081 225.931 153.933C226.151 153.778 226.417 153.518 226.667 153.135C226.915 152.753 227.17 152.253 227.236 151.611C227.316 150.974 227.34 150.224 227.054 149.378C227.018 149.26 227.048 149.129 227.135 149.041C227.451 148.72 227.754 148.362 227.78 148.145C227.798 147.925 227.57 147.862 226.883 148.088C226.219 147.754 225.987 147.795 225.987 147.995C225.977 148.197 226.167 148.569 226.394 148.949Z" fill="black"/>
<path d="M219.116 130.588C219.236 130.585 219.349 130.653 219.406 130.759C219.605 131.142 219.829 131.439 220.013 131.744C220.198 132.046 220.388 132.301 220.583 132.518C220.989 132.936 221.334 133.285 221.695 133.509C222.423 133.947 223.027 134.065 223.149 133.977C223.26 133.897 223.378 133.244 222.942 132.439C222.73 132.035 222.426 131.555 221.887 131.174C221.627 130.976 221.328 130.784 220.992 130.61C220.658 130.433 220.24 130.327 219.811 130.225C219.688 130.198 219.587 130.108 219.551 129.989C219.483 129.772 219.406 129.554 219.32 129.376C219.226 129.209 219.128 129.079 219.033 129.018C218.842 128.896 218.682 129.066 218.566 129.775C217.961 130.196 217.891 130.419 218.067 130.513C218.156 130.561 218.31 130.579 218.5 130.58C218.682 130.593 218.895 130.594 219.116 130.588Z" fill="black"/>
<path d="M205.794 127.38C205.881 127.297 206.01 127.256 206.126 127.306C206.944 127.638 207.626 127.76 208.22 127.826C208.813 127.912 209.317 127.875 209.739 127.78C210.575 127.617 211.086 127.276 211.11 127.119C211.13 126.994 210.739 126.455 209.867 126.157C209.433 126.023 208.88 125.937 208.233 125.967C207.586 126.018 206.842 126.254 206.065 126.643C205.955 126.694 205.821 126.711 205.714 126.649C204.926 126.215 204.037 125.908 204.834 127.143C204.502 128.537 205.158 128.013 205.794 127.38Z" fill="black"/>
<path d="M190.573 139.784C190.531 139.673 190.561 139.545 190.644 139.457C190.942 139.145 191.183 138.847 191.384 138.562C191.614 138.289 191.797 138.026 191.943 137.772C192.09 137.518 192.198 137.272 192.28 137.037C192.383 136.813 192.456 136.599 192.506 136.395C192.698 135.584 192.551 134.958 192.44 134.885C192.31 134.801 191.694 134.949 191.054 135.615C190.893 135.78 190.731 135.975 190.575 136.203C190.443 136.442 190.321 136.715 190.216 137.02C190.112 137.326 190.027 137.664 189.97 138.032C189.944 138.41 189.953 138.821 190 139.255C190.014 139.377 189.959 139.5 189.857 139.573C189.086 140.103 188.541 140.809 189.968 140.559C191.182 141.413 190.86 140.588 190.573 139.784Z" fill="black"/>
<path d="M194.51 159.258C194.392 159.236 194.296 159.146 194.262 159.031C194.148 158.616 193.997 158.275 193.877 157.943C193.759 157.609 193.626 157.321 193.481 157.067C193.173 156.573 192.897 156.167 192.595 155.872C191.975 155.293 191.392 155.068 191.261 155.127C191.129 155.188 190.898 155.797 191.155 156.673C191.274 157.112 191.479 157.636 191.924 158.119C192.137 158.365 192.387 158.614 192.679 158.853C192.973 159.09 193.355 159.283 193.754 159.47C193.868 159.521 193.947 159.63 193.958 159.754C193.986 160.216 194.096 160.656 194.261 160.809C194.422 160.968 194.614 160.834 194.878 160.164C195.558 159.877 195.673 159.673 195.521 159.544C195.363 159.419 194.933 159.348 194.51 159.258Z" fill="black"/>
<path d="M224.113 157.582C224.116 157.701 224.048 157.811 223.942 157.866C223.213 158.274 222.588 158.609 222.16 159.001C221.94 159.191 221.764 159.393 221.605 159.581C221.436 159.758 221.3 159.937 221.188 160.111C220.745 160.808 220.697 161.447 220.791 161.561C220.878 161.668 221.501 161.715 222.312 161.306C222.514 161.204 222.728 161.074 222.944 160.911C223.15 160.739 223.345 160.519 223.54 160.27C223.916 159.762 224.314 159.141 224.477 158.274C224.503 158.155 224.592 158.058 224.71 158.024C225.579 157.78 226.421 157.384 224.958 157.085C224.166 155.903 224.09 156.715 224.113 157.582Z" fill="black"/>
<path d="M223.637 130.761C223.754 130.79 223.833 130.892 223.853 131.01C223.973 131.86 224.232 132.47 224.448 133.009C224.667 133.544 224.951 133.942 225.245 134.244C225.791 134.863 226.352 135.118 226.498 135.06C226.62 135.013 226.896 134.421 226.736 133.537C226.635 133.107 226.433 132.602 226.082 132.076C225.735 131.549 225.128 131.064 224.399 130.617C224.294 130.557 224.233 130.439 224.233 130.318C224.206 129.447 224.017 128.556 223.349 129.85C221.964 130.3 222.758 130.566 223.637 130.761Z" fill="black"/>
<path d="M196.135 127.603C196.175 127.493 196.28 127.417 196.401 127.405C197.254 127.316 197.9 127.123 198.468 126.956C199.023 126.773 199.432 126.489 199.769 126.245C200.443 125.772 200.723 125.203 200.677 125.064C200.634 124.933 200.065 124.659 199.15 124.735C198.698 124.779 198.186 124.976 197.632 125.289C197.068 125.583 196.528 126.127 196.041 126.84C195.973 126.941 195.852 126.998 195.727 126.986C194.807 126.899 193.933 127.083 195.181 127.804C195.557 129.219 195.841 128.398 196.135 127.603Z" fill="black"/>
<path d="M188.014 151.464C187.92 151.388 187.879 151.266 187.906 151.151C188.064 150.341 188.206 149.649 188.176 149.07C188.151 148.49 188.031 148.01 187.915 147.613C187.651 146.827 187.18 146.395 187.032 146.397C186.891 146.4 186.46 146.853 186.265 147.723C186.152 148.158 186.154 148.693 186.302 149.302C186.455 149.909 186.68 150.602 187.243 151.287C187.318 151.384 187.335 151.514 187.284 151.624C186.91 152.432 186.669 153.316 187.85 152.42C189.28 152.598 188.7 152.01 188.014 151.464Z" fill="black"/>
<path d="M206.929 167.783C206.831 167.852 206.7 167.858 206.595 167.803C205.84 167.435 205.199 167.148 204.628 167.007C204.058 166.867 203.556 166.87 203.141 166.867C202.308 166.9 201.753 167.224 201.712 167.365C201.674 167.498 201.993 168.031 202.796 168.459C203.192 168.692 203.723 168.816 204.359 168.846C204.995 168.88 205.739 168.818 206.556 168.468C206.671 168.422 206.802 168.44 206.897 168.518C207.592 169.088 208.395 169.551 207.825 168.192C208.372 166.883 207.644 167.277 206.929 167.783Z" fill="black"/>
</g>
</svg>
