<svg width="427" height="320" viewBox="0 0 427 320" fill="none" xmlns="http://www.w3.org/2000/svg">
<rect width="427" height="320" fill="#ffffff"/>
<g opacity="0.25">
<path d="M238.343 156.595L238.257 156.627C238.258 156.612 238.259 156.6 238.26 156.583C238.253 156.381 238.15 156.182 238.022 156.199C237.894 156.215 237.807 156.437 237.83 156.635C237.84 156.727 237.872 156.796 237.912 156.846C237.665 156.749 237.328 156.75 236.955 156.799C236.608 156.876 236.231 157.013 235.944 157.202C235.663 157.401 235.491 157.601 235.405 157.791C235.367 157.867 235.298 157.93 235.218 157.956C234.998 158.019 234.783 158.161 234.625 158.378C234.4 158.667 234.404 159.063 234.572 159.343C234.901 159.874 235.592 159.905 236.023 159.559C236.13 159.468 236.21 159.355 236.263 159.231C236.293 159.156 236.362 159.11 236.442 159.108C236.636 159.099 236.842 159.029 237.071 158.865C237.299 158.714 237.528 158.528 237.722 158.301C237.924 158.111 238.094 157.868 238.2 157.655C238.202 157.715 238.224 157.788 238.272 157.869C238.374 158.044 238.532 158.194 238.606 158.152C238.68 158.11 238.658 157.887 238.571 157.709C238.563 157.695 238.557 157.686 238.55 157.674C238.574 157.67 238.598 157.667 238.622 157.659C238.933 157.573 239.171 157.314 239.141 157.003C239.116 156.709 238.746 156.486 238.343 156.595Z" fill="black"/>
<path d="M231.114 164.317L231.065 164.394C231.056 164.381 231.05 164.371 231.04 164.357C230.911 164.2 230.707 164.103 230.615 164.192C230.523 164.281 230.59 164.51 230.73 164.653C230.795 164.721 230.862 164.758 230.924 164.773C230.668 164.843 230.4 165.044 230.133 165.305C229.905 165.573 229.688 165.906 229.575 166.227C229.473 166.553 229.458 166.815 229.506 167.018C229.523 167.1 229.506 167.192 229.458 167.259C229.322 167.441 229.238 167.681 229.244 167.949C229.243 168.313 229.489 168.626 229.795 168.749C230.383 168.976 230.952 168.59 231.084 168.059C231.114 167.922 231.108 167.785 231.074 167.655C231.051 167.577 231.078 167.499 231.141 167.45C231.29 167.328 231.411 167.149 231.493 166.882C231.583 166.626 231.651 166.342 231.666 166.046C231.71 165.775 231.697 165.479 231.651 165.247C231.689 165.293 231.751 165.338 231.839 165.375C232.027 165.453 232.246 165.479 232.279 165.402C232.312 165.324 232.158 165.16 231.98 165.069C231.965 165.063 231.955 165.059 231.941 165.054C231.958 165.036 231.975 165.019 231.99 164.999C232.185 164.746 232.215 164.398 232 164.167C231.8 163.948 231.369 163.99 231.114 164.317Z" fill="black"/>
<path d="M227.928 164.695L227.864 164.761C227.858 164.746 227.854 164.735 227.848 164.72C227.754 164.54 227.574 164.404 227.465 164.473C227.357 164.542 227.375 164.779 227.482 164.948C227.531 165.027 227.59 165.076 227.648 165.104C227.383 165.121 227.078 165.264 226.763 165.466C226.484 165.682 226.202 165.965 226.025 166.256C225.858 166.555 225.789 166.808 225.794 167.016C225.794 167.1 225.759 167.186 225.697 167.243C225.526 167.393 225.394 167.613 225.345 167.875C225.268 168.231 225.444 168.587 225.718 168.77C226.247 169.11 226.884 168.847 227.123 168.352C227.18 168.224 227.203 168.089 227.197 167.955C227.191 167.874 227.233 167.803 227.305 167.768C227.476 167.678 227.632 167.528 227.767 167.283C227.908 167.051 228.034 166.786 228.11 166.499C228.209 166.243 228.257 165.951 228.261 165.714C228.289 165.767 228.34 165.823 228.418 165.877C228.587 165.991 228.795 166.06 228.844 165.992C228.892 165.922 228.776 165.73 228.619 165.605C228.606 165.597 228.597 165.59 228.585 165.583C228.605 165.569 228.625 165.556 228.644 165.539C228.888 165.33 228.989 164.996 228.827 164.727C228.676 164.472 228.245 164.427 227.928 164.695Z" fill="black"/>
<path d="M244.409 157.352L244.329 157.352C244.335 157.338 244.34 157.327 244.346 157.312C244.407 157.121 244.39 156.899 244.295 156.87C244.197 156.845 244.074 157.008 244.005 157.197C243.974 157.284 243.966 157.36 243.975 157.42C243.683 157.053 243.109 156.651 242.506 156.474C242.211 156.386 241.94 156.379 241.745 156.431C241.665 156.451 241.567 156.439 241.498 156.386C241.314 156.244 241.062 156.155 240.77 156.174C240.381 156.183 240.043 156.452 239.957 156.757C239.81 157.357 240.201 157.88 240.701 157.983C240.833 158.005 240.97 158.009 241.098 157.976C241.174 157.959 241.251 157.98 241.306 158.041C241.442 158.188 241.624 158.299 241.931 158.39C242.516 158.564 243.395 158.563 243.847 158.269C243.818 158.323 243.801 158.397 243.808 158.491C243.82 158.69 243.949 158.906 244.06 158.893C244.175 158.885 244.242 158.67 244.22 158.472C244.217 158.456 244.215 158.446 244.211 158.431L244.296 158.446C244.681 158.489 245.009 158.257 245.022 157.951C245.035 157.65 244.762 157.392 244.409 157.352Z" fill="black"/>
<path d="M249.817 156.275L249.754 156.322C249.751 156.308 249.748 156.296 249.743 156.28C249.672 156.091 249.524 155.93 249.433 155.957C249.342 155.984 249.338 156.202 249.4 156.392C249.429 156.481 249.469 156.545 249.515 156.587C249.036 156.475 248.344 156.531 247.832 156.673C247.574 156.76 247.385 156.845 247.257 156.986C247.205 157.044 247.127 157.064 247.054 157.037C246.859 156.968 246.654 156.981 246.434 157.052C246.141 157.164 245.898 157.43 245.825 157.749C245.681 158.349 246.194 158.886 246.88 158.814C247.048 158.79 247.202 158.733 247.331 158.653C247.408 158.607 247.504 158.598 247.589 158.621C247.795 158.675 248.073 158.699 248.412 158.588C249.096 158.398 249.776 157.826 249.937 157.338C249.947 157.398 249.98 157.467 250.043 157.537C250.176 157.688 250.395 157.782 250.488 157.708C250.581 157.635 250.499 157.42 250.36 157.277C250.347 157.267 250.338 157.26 250.327 157.251L250.404 157.211C250.74 157.005 250.853 156.625 250.67 156.376C250.491 156.134 250.111 156.095 249.817 156.275Z" fill="black"/>
<path d="M250.463 151.763L250.421 151.829C250.412 151.816 250.406 151.807 250.396 151.793C250.263 151.64 250.067 151.539 249.991 151.595C249.916 151.651 249.987 151.857 250.112 152.015C250.171 152.088 250.232 152.134 250.289 152.158C249.801 152.216 249.172 152.504 248.74 152.812C248.528 152.982 248.381 153.125 248.311 153.301C248.282 153.372 248.216 153.418 248.138 153.418C247.931 153.419 247.743 153.501 247.561 153.643C247.326 153.848 247.192 154.18 247.236 154.504C247.311 155.116 247.98 155.446 248.598 155.145C248.747 155.065 248.872 154.959 248.966 154.84C249.021 154.771 249.109 154.729 249.196 154.721C249.409 154.704 249.677 154.631 249.957 154.411C250.532 154 250.97 153.232 250.948 152.719C250.98 152.773 251.034 152.826 251.118 152.87C251.297 152.966 251.535 152.98 251.597 152.88C251.657 152.779 251.505 152.605 251.324 152.519C251.309 152.513 251.299 152.51 251.285 152.505L251.342 152.441C251.586 152.133 251.558 151.739 251.299 151.568C251.046 151.401 250.676 151.494 250.463 151.763Z" fill="black"/>
<path d="M253.953 152.381L253.913 152.447C253.903 152.436 253.896 152.427 253.885 152.414C253.743 152.273 253.535 152.183 253.464 152.247C253.392 152.311 253.48 152.513 253.617 152.66C253.682 152.729 253.746 152.77 253.805 152.79C253.324 152.888 252.701 153.244 252.305 153.647C252.089 153.856 251.974 154.058 251.927 154.247C251.907 154.323 251.85 154.386 251.773 154.409C251.568 154.469 251.384 154.603 251.245 154.797C251.062 155.07 251.033 155.432 251.175 155.727C251.438 156.287 252.169 156.396 252.653 155.97C252.769 155.863 252.856 155.737 252.912 155.604C252.945 155.526 253.016 155.468 253.1 155.449C253.301 155.402 253.516 155.278 253.748 155.052C254.218 154.579 254.572 153.806 254.509 153.296C254.545 153.346 254.604 153.395 254.69 153.433C254.876 153.514 255.113 153.511 255.163 153.407C255.214 153.304 255.056 153.145 254.866 153.07C254.85 153.066 254.839 153.063 254.825 153.059L254.881 152.993C255.09 152.666 255.041 152.277 254.773 152.126C254.505 151.976 254.137 152.09 253.953 152.381Z" fill="black"/>
<path d="M232.341 158.868L232.318 158.942C232.306 158.933 232.297 158.926 232.284 158.916C232.112 158.812 231.888 158.773 231.834 158.851C231.78 158.931 231.913 159.107 232.082 159.218C232.162 159.269 232.234 159.294 232.296 159.3C231.852 159.507 231.333 159.998 231.045 160.482C230.885 160.736 230.822 160.958 230.822 161.153C230.821 161.231 230.78 161.305 230.711 161.346C230.526 161.452 230.379 161.625 230.291 161.846C230.179 162.154 230.238 162.512 230.447 162.766C230.837 163.249 231.573 163.185 231.94 162.658C232.028 162.527 232.082 162.384 232.104 162.242C232.117 162.158 232.173 162.085 232.25 162.048C232.434 161.955 232.613 161.785 232.784 161.511C233.127 160.942 233.285 160.108 233.101 159.627C233.149 159.668 233.217 159.702 233.311 159.718C233.511 159.754 233.74 159.696 233.764 159.583C233.789 159.471 233.597 159.353 233.394 159.325C233.378 159.324 233.366 159.324 233.351 159.324L233.39 159.247C233.515 158.88 233.374 158.513 233.077 158.429C232.781 158.346 232.45 158.542 232.341 158.868Z" fill="black"/>
<path d="M255.711 147.116L255.714 147.194C255.7 147.189 255.689 147.184 255.673 147.179C255.476 147.129 255.253 147.155 255.227 147.247C255.198 147.339 255.377 147.47 255.571 147.527C255.662 147.554 255.738 147.556 255.799 147.544C255.438 147.871 255.092 148.499 254.958 149.035C254.885 149.308 254.894 149.527 254.94 149.706C254.96 149.779 254.942 149.859 254.887 149.912C254.746 150.057 254.628 150.239 254.605 150.472C254.568 150.785 254.692 151.117 254.955 151.329C255.425 151.726 256.156 151.524 256.392 150.901C256.455 150.749 256.478 150.593 256.461 150.444C256.453 150.356 256.488 150.269 256.553 150.211C256.716 150.07 256.842 149.844 256.928 149.516C257.092 148.867 256.987 148.03 256.667 147.623C256.724 147.649 256.8 147.661 256.894 147.65C257.097 147.626 257.3 147.506 257.29 147.392C257.278 147.278 257.056 147.221 256.856 147.252C256.841 147.256 256.83 147.259 256.815 147.263L256.826 147.178C256.849 146.794 256.6 146.484 256.288 146.486C255.983 146.488 255.731 146.771 255.711 147.116Z" fill="black"/>
<path d="M259.431 130.105L259.365 130.149C259.362 130.134 259.36 130.122 259.357 130.106C259.298 129.914 259.159 129.741 259.065 129.767C258.97 129.79 258.95 130.009 259.002 130.202C259.026 130.292 259.064 130.358 259.106 130.402C258.634 130.269 257.909 130.306 257.375 130.473C257.101 130.555 256.915 130.675 256.783 130.807C256.731 130.863 256.652 130.889 256.577 130.871C256.378 130.828 256.159 130.823 255.945 130.925C255.655 131.058 255.431 131.335 255.385 131.666C255.285 132.268 255.842 132.777 256.505 132.651C256.669 132.624 256.816 132.562 256.937 132.47C257.008 132.418 257.102 132.402 257.187 132.426C257.394 132.49 257.656 132.477 257.984 132.379C258.633 132.177 259.304 131.653 259.49 131.173C259.497 131.234 259.526 131.304 259.585 131.378C259.711 131.535 259.921 131.643 260.015 131.576C260.108 131.506 260.041 131.29 259.91 131.138C259.899 131.127 259.89 131.119 259.879 131.109L259.958 131.074C260.303 130.893 260.442 130.522 260.277 130.262C260.117 130.006 259.741 129.942 259.431 130.105Z" fill="black"/>
<path d="M255.19 141.254V141.343C255.176 141.337 255.165 141.333 255.15 141.326C254.955 141.272 254.728 141.306 254.7 141.427C254.681 141.546 254.873 141.692 255.072 141.733C255.165 141.753 255.242 141.747 255.301 141.726C254.941 142.114 254.8 142.986 254.927 143.611C254.986 143.926 255.097 144.144 255.23 144.282C255.285 144.339 255.308 144.421 255.286 144.497C255.225 144.702 255.231 144.894 255.314 145.118C255.433 145.416 255.719 145.647 256.045 145.704C256.66 145.818 257.18 145.298 257.092 144.643C257.066 144.481 257.01 144.323 256.925 144.208C256.875 144.139 256.864 144.049 256.893 143.97C256.964 143.773 256.978 143.541 256.923 143.246C256.81 142.673 256.502 142.068 256.173 141.721C256.232 141.738 256.309 141.742 256.401 141.724C256.6 141.684 256.789 141.578 256.768 141.491C256.755 141.404 256.536 141.355 256.334 141.382C256.318 141.386 256.307 141.388 256.293 141.392C256.298 141.367 256.304 141.344 256.306 141.318C256.321 140.99 256.124 140.684 255.824 140.63C255.518 140.574 255.211 140.851 255.19 141.254Z" fill="black"/>
<path d="M253.054 138.823L253.026 138.907C253.015 138.898 253.006 138.891 252.993 138.88C252.824 138.769 252.598 138.734 252.534 138.84C252.478 138.947 252.615 139.144 252.792 139.244C252.875 139.291 252.949 139.308 253.012 139.306C252.55 139.567 252.144 140.354 252.071 140.988C252.029 141.305 252.067 141.546 252.15 141.718C252.185 141.789 252.181 141.874 252.138 141.939C252.015 142.116 251.961 142.301 251.971 142.54C251.992 142.858 252.192 143.164 252.484 143.317C253.035 143.61 253.691 143.272 253.811 142.622C253.837 142.46 253.833 142.293 253.787 142.158C253.762 142.077 253.779 141.988 253.831 141.921C253.959 141.756 254.045 141.539 254.084 141.242C254.155 140.662 254.05 139.993 253.844 139.563C253.895 139.597 253.967 139.624 254.061 139.635C254.262 139.657 254.476 139.613 254.482 139.523C254.496 139.437 254.303 139.324 254.103 139.289C254.087 139.288 254.075 139.287 254.061 139.286C254.073 139.264 254.086 139.243 254.096 139.22C254.212 138.912 254.121 138.562 253.851 138.419C253.577 138.274 253.198 138.446 253.054 138.823Z" fill="black"/>
<path d="M257.945 135.734L257.893 135.802C257.885 135.789 257.88 135.779 257.871 135.764C257.753 135.6 257.56 135.484 257.47 135.553C257.381 135.623 257.432 135.848 257.554 136.008C257.611 136.083 257.672 136.128 257.73 136.152C257.215 136.201 256.519 136.683 256.148 137.253C255.964 137.543 255.871 137.782 255.884 138.004C255.886 138.092 255.848 138.18 255.779 138.236C255.594 138.384 255.44 138.605 255.403 138.889C255.331 139.266 255.497 139.628 255.795 139.794C256.337 140.083 256.971 139.821 257.174 139.357C257.23 139.236 257.263 139.111 257.26 138.983C257.26 138.907 257.302 138.839 257.369 138.803C257.523 138.714 257.702 138.577 257.851 138.341C258.148 137.883 258.394 137.201 258.387 136.716C258.419 136.769 258.474 136.821 258.556 136.868C258.733 136.967 258.955 137.004 259.005 136.919C259.055 136.834 258.918 136.655 258.745 136.552C258.73 136.545 258.72 136.541 258.707 136.535L258.765 136.481C258.996 136.215 259.045 135.853 258.823 135.634C258.61 135.423 258.198 135.446 257.945 135.734Z" fill="black"/>
<path d="M261.903 131.16L261.844 131.222C261.838 131.208 261.834 131.197 261.827 131.182C261.726 131.007 261.546 130.873 261.45 130.933C261.353 130.994 261.382 131.223 261.487 131.394C261.536 131.473 261.592 131.525 261.647 131.554C261.13 131.553 260.388 131.963 259.961 132.494C259.749 132.765 259.632 132.994 259.622 133.215C259.615 133.303 259.569 133.387 259.495 133.436C259.295 133.565 259.12 133.77 259.054 134.049C258.945 134.417 259.073 134.793 259.353 134.988C259.863 135.329 260.52 135.131 260.769 134.689C260.837 134.574 260.882 134.453 260.893 134.325C260.9 134.25 260.949 134.186 261.019 134.157C261.182 134.083 261.374 133.964 261.546 133.744C261.888 133.317 262.201 132.664 262.244 132.18C262.27 132.236 262.32 132.294 262.397 132.348C262.563 132.464 262.78 132.522 262.838 132.443C262.896 132.363 262.778 132.172 262.617 132.052C262.603 132.044 262.593 132.038 262.581 132.031L262.644 131.983C262.901 131.742 262.987 131.386 262.787 131.146C262.597 130.915 262.185 130.897 261.903 131.16Z" fill="black"/>
<path d="M241.598 159.657L241.508 159.656C241.514 159.642 241.519 159.631 241.526 159.616C241.59 159.425 241.562 159.202 241.439 159.173C241.326 159.148 241.179 159.329 241.132 159.523C241.109 159.614 241.113 159.69 241.13 159.748C240.77 159.398 240 159.18 239.374 159.235C239.057 159.258 238.826 159.351 238.667 159.473C238.601 159.525 238.514 159.545 238.434 159.521C238.221 159.455 237.968 159.469 237.723 159.583C237.388 159.737 237.174 160.083 237.212 160.408C237.31 161.01 237.83 161.38 238.324 161.294C238.453 161.271 238.569 161.215 238.675 161.143C238.736 161.099 238.816 161.093 238.884 161.127C239.051 161.213 239.261 161.247 239.542 161.226C240.093 161.178 240.757 160.93 241.105 160.606C241.086 160.664 241.079 160.74 241.094 160.831C241.125 161.029 241.222 161.221 241.308 161.205C241.385 161.191 241.437 160.976 241.423 160.778C241.421 160.763 241.419 160.752 241.416 160.738C241.438 160.743 241.46 160.749 241.483 160.751C241.569 160.756 241.601 160.752 241.669 160.732C241.753 160.721 241.832 160.696 241.9 160.659C242.039 160.585 242.138 160.465 242.169 160.316C242.2 160.167 242.159 160.019 242.071 159.9C242.026 159.84 241.97 159.787 241.903 159.745C241.82 159.703 241.688 159.661 241.598 159.657Z" fill="black"/>
<path d="M235.535 161.3L235.479 161.37C235.472 161.356 235.466 161.346 235.458 161.332C235.343 161.166 235.145 161.053 235.047 161.131C234.959 161.205 235.017 161.43 235.145 161.584C235.205 161.657 235.267 161.7 235.326 161.722C234.824 161.792 234.182 162.263 233.847 162.786C233.674 163.049 233.61 163.286 233.612 163.485C233.614 163.568 233.577 163.647 233.509 163.696C233.327 163.824 233.185 164.03 233.128 164.291C233.05 164.646 233.201 165.024 233.486 165.19C234.032 165.478 234.646 165.295 234.876 164.856C234.935 164.741 234.961 164.616 234.966 164.489C234.967 164.415 235.011 164.349 235.08 164.316C235.25 164.238 235.405 164.094 235.559 163.861C235.854 163.4 236.055 162.73 236.004 162.261C236.039 162.311 236.096 162.361 236.179 162.406C236.358 162.501 236.572 162.542 236.611 162.464C236.647 162.396 236.505 162.225 236.336 162.116C236.322 162.109 236.312 162.104 236.299 162.097C236.316 162.083 236.334 162.069 236.35 162.053C236.406 161.988 236.423 161.961 236.447 161.895C236.489 161.823 236.516 161.746 236.528 161.67C236.553 161.517 236.515 161.367 236.414 161.252C236.313 161.137 236.168 161.079 236.017 161.077C235.942 161.075 235.865 161.088 235.791 161.114C235.707 161.154 235.593 161.232 235.535 161.3Z" fill="black"/>
<path d="M247.127 159.956C247.102 159.96 247.078 159.968 247.053 159.975C247.056 159.96 247.058 159.949 247.06 159.933C247.069 159.732 247 159.521 246.907 159.517C246.813 159.509 246.724 159.703 246.708 159.903C246.701 159.995 246.714 160.069 246.738 160.126C246.356 159.834 245.683 159.644 245.138 159.638C244.859 159.63 244.651 159.686 244.49 159.785C244.425 159.828 244.345 159.824 244.281 159.784C244.108 159.676 243.902 159.626 243.674 159.668C243.365 159.712 243.084 159.933 242.959 160.24C242.723 160.802 243.101 161.419 243.724 161.474C243.878 161.488 244.027 161.467 244.16 161.419C244.238 161.389 244.326 161.406 244.395 161.449C244.563 161.558 244.799 161.628 245.12 161.636C245.757 161.644 246.514 161.359 246.835 160.979C246.823 161.039 246.826 161.114 246.856 161.203C246.918 161.393 247.072 161.569 247.176 161.536C247.281 161.5 247.291 161.275 247.223 161.088C247.216 161.074 247.211 161.064 247.205 161.051L247.286 161.045C247.652 160.987 247.899 160.697 247.838 160.399C247.777 160.102 247.459 159.903 247.127 159.956Z" fill="black"/>
<path d="M228.573 159.76C228.562 159.783 228.557 159.807 228.549 159.831C228.538 159.821 228.529 159.813 228.516 159.803C228.35 159.687 228.133 159.63 228.078 159.705C228.021 159.778 228.139 159.957 228.3 160.078C228.376 160.134 228.446 160.163 228.508 160.173C228.052 160.333 227.527 160.788 227.226 161.237C227.069 161.463 227.005 161.665 227.003 161.852C227.004 161.929 226.957 161.993 226.889 162.026C226.703 162.109 226.55 162.254 226.462 162.466C226.333 162.745 226.37 163.097 226.565 163.366C226.918 163.866 227.65 163.885 228.033 163.399C228.128 163.278 228.19 163.144 228.221 163.008C228.238 162.927 228.3 162.864 228.375 162.83C228.558 162.749 228.745 162.591 228.926 162.33C229.276 161.807 229.441 161.025 229.289 160.554C229.334 160.596 229.4 160.634 229.492 160.657C229.688 160.709 229.922 160.677 229.95 160.572C229.975 160.466 229.789 160.336 229.592 160.291C229.577 160.29 229.566 160.288 229.551 160.287L229.59 160.215C229.737 159.881 229.623 159.52 229.336 159.41C229.048 159.3 228.706 159.456 228.573 159.76Z" fill="black"/>
<path d="M252.21 158.083C252.188 158.096 252.17 158.113 252.15 158.129C252.146 158.114 252.143 158.103 252.138 158.087C252.063 157.902 251.912 157.737 251.823 157.769C251.735 157.801 251.739 158.022 251.809 158.21C251.841 158.298 251.884 158.361 251.93 158.401C251.452 158.281 250.766 158.395 250.266 158.604C250.018 158.725 249.844 158.84 249.739 158.995C249.696 159.056 249.625 159.091 249.55 159.081C249.353 159.062 249.144 159.092 248.951 159.212C248.692 159.378 248.528 159.7 248.534 160.022C248.543 160.641 249.137 161.042 249.739 160.851C249.889 160.81 250.015 160.724 250.116 160.623C250.175 160.563 250.261 160.537 250.343 160.552C250.543 160.584 250.797 160.571 251.087 160.431C251.675 160.184 252.238 159.604 252.376 159.139C252.39 159.199 252.425 159.266 252.489 159.334C252.625 159.481 252.834 159.573 252.914 159.499C252.995 159.426 252.911 159.218 252.77 159.074C252.758 159.064 252.749 159.057 252.738 159.048L252.811 159.01C253.125 158.819 253.226 158.451 253.044 158.2C252.867 157.957 252.497 157.908 252.21 158.083Z" fill="black"/>
<path d="M256.203 154.405C256.188 154.426 256.177 154.448 256.165 154.47C256.156 154.458 256.149 154.449 256.139 154.436C256.001 154.29 255.799 154.191 255.729 154.253C255.663 154.317 255.738 154.515 255.873 154.665C255.935 154.734 255.998 154.778 256.056 154.8C255.812 154.828 255.538 154.932 255.286 155.081C255.02 155.22 254.768 155.398 254.582 155.598C254.385 155.795 254.273 155.977 254.235 156.16C254.218 156.233 254.165 156.294 254.092 156.314C253.901 156.373 253.716 156.48 253.586 156.668C253.408 156.921 253.39 157.288 253.528 157.581C253.79 158.143 254.489 158.27 254.964 157.872C255.084 157.777 255.166 157.653 255.217 157.522C255.248 157.444 255.316 157.388 255.397 157.372C255.593 157.328 255.812 157.217 256.035 156.993C256.249 156.765 256.445 156.475 256.578 156.18C256.699 155.874 256.764 155.57 256.744 155.327C256.778 155.378 256.836 155.427 256.921 155.469C257.103 155.558 257.34 155.575 257.384 155.475C257.431 155.377 257.276 155.213 257.092 155.13C257.077 155.125 257.066 155.121 257.052 155.116L257.105 155.055C257.32 154.759 257.283 154.383 257.025 154.217C256.766 154.052 256.399 154.136 256.203 154.405Z" fill="black"/>
<path d="M258.436 149.531C258.429 149.556 258.428 149.58 258.425 149.605C258.412 149.597 258.401 149.592 258.387 149.584C258.202 149.507 257.975 149.497 257.934 149.58C257.892 149.664 258.052 149.815 258.236 149.899C258.322 149.938 258.398 149.952 258.459 149.949C258.053 150.201 257.638 150.757 257.437 151.253C257.345 151.511 257.318 151.717 257.349 151.897C257.363 151.97 257.337 152.045 257.277 152.09C257.122 152.213 257.002 152.383 256.95 152.601C256.884 152.899 257.004 153.242 257.241 153.464C257.694 153.892 258.399 153.758 258.688 153.205C258.764 153.072 258.785 152.921 258.786 152.781C258.786 152.697 258.828 152.62 258.897 152.572C259.067 152.459 259.225 152.268 259.333 151.968C259.569 151.384 259.561 150.583 259.306 150.155C259.359 150.187 259.432 150.21 259.526 150.214C259.729 150.222 259.945 150.14 259.95 150.032C259.956 149.925 259.748 149.837 259.545 149.835C259.528 149.836 259.517 149.837 259.502 149.839L259.528 149.762C259.604 149.405 259.401 149.075 259.099 149.028C258.792 148.98 258.504 149.207 258.436 149.531Z" fill="black"/>
<path d="M258.524 144.153C258.528 144.179 258.536 144.202 258.542 144.226C258.527 144.224 258.516 144.223 258.499 144.221C258.297 144.215 258.083 144.289 258.077 144.383C258.071 144.477 258.277 144.561 258.479 144.571C258.574 144.575 258.649 144.561 258.705 144.535C258.423 144.921 258.253 145.599 258.27 146.139C258.29 146.415 258.34 146.618 258.447 146.771C258.49 146.834 258.497 146.913 258.461 146.978C258.371 147.153 258.317 147.357 258.368 147.58C258.44 147.881 258.671 148.145 258.986 148.254C259.571 148.463 260.176 148.059 260.203 147.443C260.213 147.291 260.188 147.146 260.125 147.017C260.09 146.942 260.097 146.855 260.14 146.785C260.244 146.615 260.32 146.379 260.299 146.066C260.279 145.444 259.966 144.717 259.568 144.414C259.629 144.425 259.706 144.419 259.795 144.388C259.986 144.321 260.156 144.168 260.121 144.067C260.085 143.966 259.859 143.961 259.669 144.033C259.654 144.04 259.645 144.045 259.631 144.052L259.626 143.971C259.575 143.659 259.313 143.426 259.002 143.437C258.695 143.448 258.463 143.779 258.524 144.153Z" fill="black"/>
<path d="M259.119 138.323L259.097 138.404C259.085 138.395 259.076 138.388 259.062 138.377C258.891 138.268 258.668 138.231 258.61 138.332C258.552 138.433 258.687 138.622 258.863 138.72C258.945 138.767 259.02 138.784 259.083 138.784C258.643 139.028 258.218 139.741 258.132 140.363C258.085 140.677 258.122 140.918 258.211 141.098C258.247 141.171 258.243 141.258 258.203 141.329C258.096 141.517 258.042 141.753 258.097 142.002C258.164 142.34 258.436 142.609 258.759 142.681C259.367 142.808 259.899 142.378 259.929 141.849C259.939 141.715 259.914 141.586 259.861 141.467C259.83 141.398 259.847 141.32 259.895 141.261C260.015 141.119 260.099 140.924 260.14 140.656C260.215 140.124 260.137 139.466 259.913 139.045C259.964 139.079 260.036 139.105 260.13 139.117C260.331 139.142 260.547 139.106 260.556 139.022C260.566 138.937 260.369 138.825 260.172 138.789C260.156 138.787 260.145 138.786 260.131 138.785C260.141 138.764 260.153 138.743 260.161 138.72C260.279 138.434 260.17 138.096 259.906 137.95C259.632 137.798 259.266 137.965 259.119 138.323Z" fill="black"/>
<path d="M246.168 163.181L246.087 163.186C246.092 163.172 246.096 163.161 246.101 163.146C246.148 162.95 246.115 162.73 246.019 162.709C245.923 162.691 245.793 162.868 245.738 163.057C245.712 163.147 245.711 163.222 245.726 163.282C245.568 163.109 245.339 162.951 245.085 162.827C244.959 162.758 244.829 162.688 244.696 162.633C244.626 162.607 244.56 162.582 244.496 162.559L244.395 162.527C244.316 162.51 244.239 162.493 244.163 162.476C244.087 162.473 244.015 162.471 243.943 162.468C243.636 162.461 243.402 162.511 243.226 162.606C243.153 162.645 243.065 162.647 242.994 162.607C242.803 162.502 242.575 162.453 242.329 162.489C241.995 162.54 241.705 162.761 241.574 163.065C241.317 163.629 241.753 164.246 242.42 164.301C242.584 164.314 242.742 164.293 242.882 164.242C242.965 164.212 243.059 164.224 243.132 164.27C243.31 164.384 243.556 164.458 243.896 164.466C243.959 164.468 243.962 164.467 243.968 164.464L243.97 164.46C243.982 164.462 243.912 164.448 243.96 164.454L244.087 164.466C244.169 164.469 244.254 164.473 244.344 164.476C244.517 164.476 244.687 164.471 244.85 164.444C245.177 164.38 245.467 164.275 245.661 164.138C245.636 164.194 245.625 164.269 245.639 164.363C245.668 164.565 245.8 164.763 245.92 164.743C246.04 164.726 246.094 164.507 246.056 164.311C246.051 164.296 246.048 164.285 246.043 164.271L246.132 164.28C246.537 164.294 246.853 164.044 246.84 163.734C246.827 163.437 246.526 163.194 246.168 163.181Z" fill="black"/>
<path d="M251.858 161.903L251.787 161.945C251.785 161.93 251.783 161.919 251.781 161.903C251.732 161.708 251.599 161.528 251.5 161.555C251.4 161.576 251.366 161.794 251.409 161.99C251.429 162.08 251.465 162.147 251.506 162.194C251.026 162.04 250.273 162.085 249.711 162.249C249.423 162.328 249.227 162.451 249.092 162.592C249.036 162.646 248.954 162.671 248.876 162.651C248.668 162.596 248.444 162.62 248.221 162.717C247.918 162.84 247.691 163.136 247.646 163.465C247.55 164.074 248.121 164.555 248.798 164.436C248.963 164.403 249.112 164.338 249.237 164.251C249.31 164.2 249.406 164.186 249.493 164.212C249.7 164.267 249.965 164.254 250.301 164.161C250.962 163.968 251.647 163.446 251.861 162.978C251.866 163.039 251.893 163.11 251.949 163.185C252.07 163.347 252.278 163.464 252.375 163.4C252.47 163.332 252.414 163.113 252.29 162.956C252.278 162.945 252.27 162.937 252.26 162.927L252.342 162.894C252.696 162.719 252.863 162.36 252.716 162.093C252.569 161.826 252.184 161.741 251.858 161.903Z" fill="black"/>
<path d="M260.986 158.37L260.953 158.445C260.943 158.434 260.935 158.425 260.923 158.413C260.77 158.28 260.556 158.207 260.491 158.285C260.421 158.359 260.52 158.557 260.667 158.693C260.737 158.757 260.805 158.792 260.866 158.806C260.382 158.95 259.789 159.408 259.421 159.858C259.23 160.084 259.141 160.295 259.111 160.487C259.096 160.563 259.043 160.629 258.968 160.657C258.764 160.729 258.594 160.873 258.467 161.078C258.289 161.348 258.274 161.719 258.427 162.015C258.7 162.569 259.448 162.645 259.936 162.168C260.052 162.048 260.137 161.911 260.19 161.77C260.22 161.687 260.291 161.621 260.377 161.594C260.58 161.523 260.79 161.364 261.012 161.099C261.444 160.57 261.705 159.757 261.611 159.252C261.65 159.299 261.713 159.344 261.803 159.374C261.996 159.439 262.234 159.418 262.278 159.311C262.316 159.202 262.144 159.054 261.95 158.994C261.935 158.992 261.924 158.99 261.909 158.987L261.957 158.914C262.148 158.572 262.078 158.182 261.803 158.046C261.527 157.909 261.161 158.054 260.986 158.37Z" fill="black"/>
<path d="M256.722 158.511L256.667 158.573C256.661 158.56 256.656 158.549 256.648 158.534C256.541 158.364 256.356 158.235 256.269 158.29C256.183 158.348 256.22 158.57 256.323 158.74C256.371 158.82 256.427 158.872 256.481 158.902C255.97 158.905 255.263 159.206 254.784 159.57C254.545 159.762 254.392 159.933 254.318 160.119C254.287 160.193 254.221 160.25 254.141 160.263C253.931 160.306 253.716 160.397 253.547 160.581C253.319 160.83 253.231 161.192 253.326 161.503C253.504 162.097 254.22 162.302 254.773 161.936C254.912 161.849 255.021 161.736 255.096 161.605C255.141 161.53 255.222 161.48 255.308 161.47C255.517 161.445 255.767 161.357 256.031 161.148C256.563 160.743 257.016 160.039 257.071 159.534C257.096 159.59 257.144 159.649 257.222 159.704C257.39 159.82 257.621 159.866 257.687 159.773C257.754 159.682 257.633 159.492 257.465 159.38C257.451 159.373 257.44 159.368 257.427 159.361L257.494 159.306C257.775 159.037 257.824 158.647 257.604 158.435C257.383 158.223 256.988 158.257 256.722 158.511Z" fill="black"/>
<path d="M260.289 153.862L260.262 153.938C260.25 153.927 260.241 153.919 260.229 153.909C260.066 153.789 259.847 153.732 259.788 153.812C259.731 153.892 259.846 154.082 260.002 154.206C260.076 154.264 260.147 154.294 260.209 154.304C259.731 154.478 259.184 154.969 258.837 155.442C258.666 155.685 258.588 155.902 258.563 156.093C258.555 156.172 258.508 156.244 258.435 156.278C258.243 156.373 258.076 156.53 257.96 156.749C257.808 157.048 257.832 157.424 258.013 157.696C258.358 158.214 259.096 158.207 259.527 157.708C259.634 157.585 259.701 157.439 259.74 157.296C259.763 157.211 259.826 157.14 259.908 157.107C260.11 157.029 260.309 156.859 260.506 156.579C260.907 156.032 261.111 155.19 260.985 154.695C261.028 154.739 261.094 154.778 261.186 154.802C261.385 154.854 261.621 154.813 261.65 154.698C261.682 154.585 261.499 154.45 261.301 154.407C261.285 154.405 261.273 154.404 261.259 154.403L261.302 154.326C261.477 153.971 261.359 153.582 261.07 153.471C260.784 153.361 260.447 153.542 260.289 153.862Z" fill="black"/>
<path d="M261.621 148.176L261.622 148.259C261.608 148.253 261.597 148.249 261.582 148.243C261.386 148.186 261.161 148.211 261.131 148.312C261.102 148.412 261.28 148.553 261.474 148.612C261.565 148.639 261.642 148.641 261.702 148.627C261.328 148.969 261.018 149.671 260.911 150.253C260.866 150.552 260.88 150.78 260.947 150.963C260.975 151.038 260.965 151.123 260.915 151.186C260.788 151.356 260.691 151.561 260.692 151.806C260.698 152.139 260.856 152.458 261.145 152.635C261.667 152.968 262.362 152.658 262.522 152.011C262.567 151.852 262.571 151.694 262.539 151.547C262.521 151.461 262.546 151.37 262.605 151.305C262.748 151.147 262.863 150.913 262.914 150.582C263.032 149.928 262.878 149.114 262.571 148.705C262.628 148.731 262.703 148.742 262.798 148.731C263 148.707 263.202 148.589 263.193 148.478C263.184 148.366 262.964 148.306 262.763 148.333C262.747 148.337 262.736 148.34 262.722 148.344C262.727 148.316 262.733 148.289 262.735 148.26C262.76 147.879 262.531 147.556 262.223 147.54C261.915 147.523 261.645 147.808 261.621 148.176Z" fill="black"/>
<path d="M261.133 142.278C261.137 142.307 261.145 142.334 261.152 142.361C261.137 142.359 261.125 142.357 261.109 142.354C260.905 142.341 260.692 142.416 260.689 142.527C260.686 142.637 260.895 142.739 261.098 142.751C261.193 142.756 261.267 142.739 261.323 142.71C261.045 143.138 260.941 143.934 261.042 144.544C261.092 144.854 261.189 145.072 261.317 145.224C261.371 145.287 261.389 145.371 261.364 145.448C261.295 145.651 261.294 145.882 261.37 146.091C261.426 146.25 261.511 146.317 261.626 146.452C261.739 146.575 261.883 146.668 262.044 146.714C262.344 146.799 262.634 146.728 262.853 146.554C262.964 146.477 263.051 146.342 263.107 146.169C263.159 146.016 263.183 145.841 263.163 145.678C263.146 145.51 263.093 145.361 263.014 145.236C262.968 145.161 262.962 145.067 262.994 144.989C263.072 144.796 263.098 144.546 263.046 144.227C262.942 143.598 262.581 142.893 262.184 142.576C262.246 142.587 262.322 142.579 262.411 142.546C262.601 142.474 262.77 142.321 262.734 142.221C262.698 142.122 262.471 142.112 262.281 142.182C262.267 142.189 262.256 142.194 262.243 142.2L262.238 142.118C262.184 141.755 261.903 141.494 261.595 141.524C261.289 141.554 261.075 141.898 261.133 142.278Z" fill="black"/>
<path d="M235.336 153.917C235.329 153.94 235.326 153.963 235.322 153.986C235.309 153.977 235.3 153.971 235.286 153.961C235.106 153.863 234.893 153.824 234.844 153.888C234.791 153.951 234.926 154.113 235.092 154.226C235.17 154.278 235.242 154.306 235.302 154.314C234.878 154.487 234.332 154.857 234.008 155.269C233.829 155.474 233.734 155.663 233.709 155.848C233.698 155.923 233.651 155.988 233.58 156.012C233.379 156.072 233.202 156.196 233.081 156.396C232.922 156.67 232.898 157.024 233.055 157.315C233.341 157.856 234.067 157.968 234.522 157.521C234.636 157.414 234.72 157.288 234.772 157.156C234.8 157.075 234.866 157.011 234.948 156.985C235.145 156.922 235.362 156.786 235.581 156.532C236.003 156.009 236.277 155.172 236.098 154.666C236.143 154.709 236.211 154.745 236.304 154.764C236.504 154.805 236.741 154.743 236.773 154.623C236.802 154.501 236.6 154.379 236.4 154.358H236.359L236.393 154.275C236.53 153.887 236.337 153.52 236.028 153.474C235.728 153.43 235.439 153.632 235.336 153.917Z" fill="black"/>
<path d="M234.948 148.454L234.96 148.535C234.945 148.531 234.933 148.528 234.917 148.524C234.716 148.495 234.496 148.551 234.482 148.658C234.467 148.765 234.67 148.878 234.871 148.903C234.965 148.914 235.041 148.904 235.099 148.881C234.775 149.243 234.639 150.097 234.773 150.7C234.837 151.009 234.942 151.205 235.079 151.344C235.136 151.401 235.158 151.48 235.135 151.551C235.076 151.746 235.083 151.955 235.166 152.152C235.289 152.421 235.548 152.626 235.883 152.705C236.186 152.772 236.476 152.701 236.675 152.503C236.883 152.304 236.989 151.991 236.941 151.668C236.917 151.507 236.854 151.37 236.771 151.251C236.723 151.18 236.712 151.091 236.74 151.017C236.808 150.832 236.822 150.588 236.763 150.306C236.641 149.745 236.333 149.165 235.969 148.814C236.029 148.828 236.105 148.826 236.197 148.801C236.392 148.747 236.571 148.616 236.546 148.522C236.521 148.428 236.296 148.402 236.1 148.452C236.085 148.458 236.074 148.462 236.061 148.467L236.063 148.389C236.039 148.045 235.786 147.772 235.477 147.778C235.169 147.785 234.923 148.089 234.948 148.454Z" fill="black"/>
<path d="M235.805 142.568L235.778 142.648C235.767 142.639 235.758 142.631 235.745 142.62C235.578 142.505 235.356 142.459 235.294 142.556C235.232 142.652 235.357 142.846 235.527 142.954C235.608 143.004 235.681 143.026 235.743 143.028C235.299 143.255 234.811 143.954 234.702 144.599C234.629 144.922 234.672 145.173 234.745 145.362C234.777 145.439 234.771 145.528 234.73 145.601C234.618 145.792 234.555 146.035 234.605 146.292C234.669 146.642 234.925 146.92 235.253 147C235.857 147.143 236.398 146.709 236.441 146.175C236.454 146.04 236.433 145.909 236.383 145.787C236.353 145.715 236.371 145.637 236.424 145.58C236.556 145.443 236.633 145.246 236.695 144.979C236.784 144.447 236.765 143.775 236.56 143.329C236.609 143.366 236.68 143.397 236.773 143.412C236.973 143.446 237.194 143.413 237.21 143.324C237.226 143.235 237.035 143.114 236.838 143.072C236.822 143.07 236.811 143.069 236.797 143.067C236.808 143.046 236.822 143.025 236.832 143.001C236.956 142.694 236.875 142.348 236.597 142.203C236.331 142.062 235.95 142.215 235.805 142.568Z" fill="black"/>
<path d="M239.709 141.815L239.666 141.889C239.657 141.876 239.65 141.867 239.64 141.854C239.501 141.707 239.293 141.618 239.211 141.7C239.131 141.782 239.213 141.997 239.357 142.136C239.425 142.202 239.492 142.238 239.553 142.253C239.07 142.385 238.447 142.97 238.206 143.579C238.067 143.881 238.056 144.136 238.089 144.335C238.104 144.416 238.079 144.503 238.024 144.565C237.875 144.73 237.762 144.956 237.758 145.217C237.748 145.573 237.94 145.897 238.245 146.041C238.806 146.303 239.425 145.987 239.579 145.474C239.62 145.344 239.626 145.211 239.604 145.083C239.589 145.006 239.623 144.933 239.687 144.888C239.844 144.78 239.961 144.603 240.076 144.355C240.275 143.852 240.397 143.19 240.289 142.713C240.329 142.759 240.392 142.803 240.48 142.837C240.669 142.91 240.892 142.923 240.926 142.839C240.961 142.755 240.8 142.598 240.615 142.517C240.6 142.512 240.589 142.509 240.575 142.504C240.592 142.485 240.609 142.468 240.624 142.447C240.809 142.171 240.803 141.816 240.561 141.618C240.329 141.427 239.925 141.499 239.709 141.815Z" fill="black"/>
<path d="M239.697 137.992C239.674 138.009 239.655 138.029 239.635 138.048C239.63 138.034 239.626 138.022 239.621 138.006C239.536 137.824 239.37 137.672 239.271 137.723C239.171 137.773 239.181 138.003 239.27 138.182C239.311 138.266 239.362 138.323 239.414 138.357C238.904 138.306 238.155 138.642 237.69 139.086C237.458 139.325 237.333 139.549 237.288 139.747C237.267 139.827 237.217 139.905 237.14 139.942C236.937 140.045 236.741 140.214 236.639 140.464C236.501 140.807 236.556 141.175 236.8 141.414C237.244 141.839 237.929 141.755 238.245 141.348C238.33 141.246 238.383 141.127 238.409 141.001C238.426 140.928 238.477 140.868 238.555 140.852C238.741 140.811 238.926 140.706 239.117 140.508C239.52 140.125 239.872 139.506 239.949 139.035C239.971 139.092 240.015 139.154 240.086 139.215C240.239 139.347 240.446 139.426 240.508 139.354C240.571 139.282 240.47 139.081 240.323 138.947C240.31 138.937 240.301 138.931 240.289 138.922L240.354 138.882C240.637 138.69 240.731 138.328 240.565 138.071C240.398 137.816 240.009 137.78 239.697 137.992Z" fill="black"/>
<path d="M245.309 135.749L245.226 135.768C245.229 135.753 245.231 135.741 245.234 135.725C245.251 135.525 245.18 135.313 245.065 135.311C244.95 135.308 244.844 135.513 244.835 135.713C244.83 135.806 244.848 135.88 244.877 135.934C244.453 135.654 243.607 135.599 242.98 135.814C242.66 135.915 242.452 136.063 242.325 136.228C242.273 136.295 242.191 136.335 242.105 136.332C241.875 136.324 241.636 136.408 241.427 136.571C241.148 136.803 241.035 137.169 241.129 137.481C241.315 138.07 241.962 138.302 242.448 138.081C242.572 138.026 242.672 137.934 242.757 137.839C242.807 137.782 242.884 137.757 242.96 137.773C243.143 137.81 243.357 137.793 243.622 137.709C244.138 137.532 244.726 137.163 245.019 136.781C245.011 136.842 245.019 136.916 245.052 137.004C245.123 137.192 245.263 137.36 245.35 137.328C245.437 137.294 245.448 137.07 245.385 136.882C245.379 136.868 245.374 136.858 245.369 136.845L245.445 136.84C245.781 136.811 246.042 136.537 246.028 136.238C246.014 135.93 245.692 135.714 245.309 135.749Z" fill="black"/>
<path d="M239.598 162.424L239.527 162.471C239.524 162.456 239.522 162.445 239.519 162.428C239.464 162.235 239.322 162.061 239.213 162.098C239.105 162.135 239.079 162.364 239.141 162.554C239.17 162.643 239.213 162.706 239.26 162.747C238.762 162.63 237.951 162.871 237.44 163.288C237.177 163.493 237.034 163.704 236.974 163.902C236.949 163.983 236.886 164.049 236.804 164.075C236.587 164.147 236.393 164.309 236.255 164.533C236.076 164.847 236.101 165.229 236.3 165.489C236.684 165.976 237.372 165.969 237.748 165.596C237.845 165.501 237.906 165.38 237.952 165.262C237.978 165.191 238.042 165.142 238.119 165.131C238.303 165.102 238.497 165.012 238.716 164.843C239.136 164.499 239.555 163.95 239.694 163.491C239.708 163.55 239.743 163.618 239.804 163.689C239.937 163.84 240.128 163.95 240.198 163.889C240.269 163.827 240.199 163.614 240.073 163.459C240.062 163.448 240.054 163.441 240.044 163.43L240.113 163.4C240.418 163.256 240.565 162.91 240.446 162.634C240.323 162.351 239.944 162.26 239.598 162.424Z" fill="black"/>
<path d="M251.159 136.139L251.085 136.15C251.089 136.135 251.092 136.125 251.096 136.109C251.127 135.911 251.082 135.695 250.995 135.673C250.909 135.652 250.8 135.839 250.757 136.034C250.738 136.126 250.74 136.201 250.756 136.259C250.416 135.921 249.817 135.624 249.239 135.514C248.945 135.46 248.702 135.48 248.511 135.553C248.435 135.582 248.345 135.574 248.272 135.529C248.08 135.404 247.829 135.342 247.56 135.383C247.193 135.426 246.901 135.696 246.82 136.01C246.677 136.609 247.106 137.132 247.626 137.191C247.761 137.201 247.891 137.193 248.015 137.148C248.086 137.122 248.166 137.141 248.226 137.196C248.366 137.325 248.57 137.424 248.88 137.48C249.489 137.599 250.35 137.456 250.736 137.118C250.714 137.176 250.707 137.251 250.725 137.343C250.763 137.539 250.903 137.728 251.021 137.709C251.139 137.692 251.177 137.469 251.128 137.275C251.122 137.26 251.118 137.249 251.113 137.236C251.142 137.239 251.17 137.24 251.199 137.238C251.595 137.219 251.877 136.938 251.831 136.632C251.785 136.338 251.485 136.123 251.159 136.139Z" fill="black"/>
<path d="M256.174 134.102L256.114 134.153C256.109 134.138 256.105 134.127 256.1 134.112C256.014 133.931 255.851 133.777 255.761 133.815C255.672 133.853 255.685 134.074 255.766 134.257C255.804 134.343 255.852 134.402 255.9 134.439C255.417 134.372 254.713 134.538 254.227 134.786C253.979 134.915 253.825 135.068 253.726 135.216C253.686 135.278 253.616 135.316 253.541 135.31C253.342 135.299 253.141 135.345 252.955 135.464C252.708 135.643 252.547 135.948 252.55 136.276C252.543 136.892 253.167 137.305 253.804 137.076C253.961 137.025 254.085 136.925 254.188 136.82C254.247 136.757 254.335 136.726 254.422 136.735C254.637 136.764 254.883 136.705 255.178 136.552C255.765 136.251 256.297 135.635 256.397 135.145C256.415 135.204 256.455 135.269 256.523 135.333C256.67 135.47 256.888 135.549 256.965 135.471C257.042 135.394 256.945 135.192 256.794 135.057C256.782 135.047 256.773 135.041 256.761 135.032L256.832 134.991C257.142 134.783 257.21 134.391 257.023 134.157C256.829 133.913 256.462 133.91 256.174 134.102Z" fill="black"/>
<path d="M232.178 151.35L232.202 151.427C232.187 151.426 232.175 151.425 232.159 151.424C231.956 151.428 231.748 151.518 231.75 151.624C231.746 151.661 231.78 151.634 231.855 151.641C231.928 151.641 232.024 151.68 232.124 151.684C232.218 151.692 232.295 151.686 232.353 151.667C232.033 151.966 231.738 152.579 231.647 153.112C231.601 153.382 231.622 153.591 231.691 153.761C231.721 153.831 231.711 153.909 231.66 153.963C231.528 154.112 231.444 154.296 231.442 154.514C231.438 154.803 231.601 155.096 231.872 155.295C232.36 155.684 233.081 155.42 233.258 154.791C233.305 154.638 233.304 154.487 233.278 154.347C233.263 154.265 233.288 154.179 233.345 154.119C233.487 153.972 233.596 153.751 233.65 153.437C233.756 152.819 233.594 152.017 233.223 151.616C233.283 151.634 233.36 151.636 233.452 151.608C233.548 151.574 233.648 151.532 233.707 151.439C233.766 151.353 233.787 151.217 233.764 151.157C233.725 151.07 233.499 151.081 233.313 151.162C233.299 151.169 233.289 151.175 233.277 151.182L233.268 151.107C233.196 150.777 232.892 150.555 232.589 150.611C232.286 150.666 232.101 150.998 232.178 151.35Z" fill="black"/>
<path d="M231.787 145.571L231.786 145.652C231.772 145.646 231.761 145.642 231.746 145.635C231.552 145.575 231.326 145.593 231.295 145.697C231.264 145.8 231.441 145.945 231.635 146C231.726 146.025 231.802 146.026 231.864 146.012C231.498 146.341 231.222 147.091 231.245 147.712C231.243 148.027 231.336 148.255 231.448 148.418C231.495 148.484 231.509 148.57 231.479 148.647C231.393 148.851 231.393 149.088 231.484 149.325C231.604 149.648 231.904 149.871 232.242 149.894C232.86 149.934 233.323 149.423 233.267 148.889C233.248 148.754 233.205 148.629 233.138 148.519C233.098 148.454 233.099 148.374 233.138 148.307C233.237 148.146 233.271 147.937 233.274 147.659C233.254 147.113 233.051 146.448 232.733 146.079C232.79 146.101 232.866 146.111 232.961 146.101C233.163 146.079 233.364 145.983 233.354 145.891C233.344 145.798 233.126 145.737 232.925 145.754C232.909 145.757 232.898 145.759 232.884 145.762L232.898 145.688C232.926 145.355 232.726 145.051 232.423 145.003C232.117 144.955 231.819 145.208 231.787 145.571Z" fill="black"/>
<path d="M233.628 140.033L233.592 140.107C233.582 140.096 233.574 140.087 233.563 140.074C233.412 139.94 233.199 139.864 233.128 139.948C233.056 140.031 233.156 140.236 233.31 140.365C233.382 140.426 233.452 140.457 233.513 140.469C233.265 140.541 233.015 140.727 232.786 140.968C232.549 141.204 232.355 141.502 232.245 141.798C232.126 142.096 232.097 142.338 232.151 142.537C232.171 142.617 232.151 142.703 232.095 142.764C231.95 142.928 231.83 143.147 231.839 143.407C231.841 143.758 232.04 144.075 232.342 144.211C232.908 144.458 233.531 144.145 233.662 143.638C233.702 143.51 233.707 143.381 233.683 143.255C233.669 143.18 233.699 143.106 233.759 143.06C233.899 142.946 234.034 142.779 234.136 142.526C234.229 142.273 234.292 141.978 234.328 141.691C234.355 141.4 234.334 141.108 234.277 140.883C234.32 140.927 234.385 140.967 234.475 140.996C234.668 141.058 234.891 141.054 234.919 140.966C234.947 140.878 234.774 140.733 234.585 140.666C234.569 140.662 234.559 140.66 234.545 140.656C234.559 140.636 234.575 140.617 234.588 140.595C234.746 140.303 234.71 139.953 234.45 139.78C234.199 139.612 233.805 139.71 233.628 140.033Z" fill="black"/>
<path d="M261.885 135.502L261.877 135.583C261.863 135.576 261.853 135.57 261.838 135.562C261.651 135.482 261.425 135.479 261.384 135.581C261.344 135.683 261.506 135.844 261.694 135.917C261.782 135.951 261.859 135.96 261.921 135.951C261.71 136.098 261.534 136.354 261.397 136.654C261.251 136.953 261.165 137.298 261.159 137.613C261.143 137.933 261.197 138.171 261.313 138.342C261.357 138.412 261.368 138.499 261.334 138.575C261.251 138.776 261.21 139.021 261.304 139.264C261.421 139.596 261.714 139.832 262.044 139.864C262.661 139.918 263.147 139.423 263.103 138.901C263.1 138.768 263.062 138.644 262.998 138.532C262.961 138.466 262.965 138.387 263.006 138.324C263.1 138.171 263.173 137.97 263.187 137.698C263.191 137.429 263.154 137.13 263.093 136.847C263.023 136.564 262.907 136.294 262.779 136.099C262.834 136.127 262.909 136.144 263.004 136.143C263.207 136.139 263.416 136.065 263.414 135.972C263.412 135.88 263.201 135.799 262.999 135.795C262.983 135.797 262.972 135.798 262.958 135.799C262.965 135.775 262.974 135.753 262.979 135.728C263.033 135.401 262.883 135.081 262.581 135C262.288 134.922 261.947 135.139 261.885 135.502Z" fill="black"/>
<path d="M237.642 135.764L237.58 135.817C237.575 135.803 237.571 135.792 237.566 135.776C237.481 135.595 237.314 135.443 237.215 135.49C237.117 135.537 237.128 135.762 237.217 135.94C237.259 136.023 237.31 136.08 237.362 136.115C236.871 136.074 236.121 136.372 235.67 136.808C235.433 137.017 235.32 137.243 235.275 137.438C235.257 137.518 235.202 137.587 235.125 137.618C234.918 137.701 234.721 137.851 234.615 138.09C234.463 138.409 234.504 138.778 234.718 139.028C235.121 139.488 235.825 139.473 236.157 139.065C236.251 138.967 236.313 138.853 236.347 138.729C236.368 138.657 236.427 138.603 236.502 138.587C236.687 138.548 236.862 138.437 237.075 138.252C237.469 137.869 237.837 137.276 237.897 136.792C237.919 136.849 237.963 136.91 238.034 136.972C238.187 137.105 238.396 137.187 238.459 137.117C238.522 137.047 238.421 136.848 238.272 136.713C238.259 136.703 238.251 136.697 238.239 136.688L238.304 136.65C238.576 136.448 238.663 136.089 238.496 135.84C238.322 135.583 237.937 135.545 237.642 135.764Z" fill="black"/>
<path d="M242.957 133.238L242.879 133.267C242.88 133.252 242.881 133.24 242.881 133.224C242.869 133.023 242.771 132.823 242.661 132.833C242.553 132.844 242.48 133.06 242.498 133.259C242.505 133.352 242.532 133.422 242.567 133.473C242.12 133.244 241.31 133.266 240.728 133.518C240.43 133.637 240.239 133.79 240.13 133.963C240.085 134.032 240.009 134.077 239.926 134.078C239.703 134.082 239.468 134.156 239.282 134.337C239.024 134.575 238.926 134.932 239.03 135.243C239.23 135.817 239.893 136.059 240.361 135.797C240.483 135.737 240.584 135.651 240.661 135.548C240.707 135.487 240.783 135.457 240.859 135.468C241.042 135.49 241.257 135.462 241.517 135.359C242.021 135.14 242.576 134.71 242.815 134.296C242.814 134.357 242.832 134.43 242.875 134.513C242.969 134.691 243.131 134.84 243.215 134.796C243.298 134.751 243.278 134.529 243.19 134.35C243.182 134.337 243.176 134.327 243.168 134.315L243.243 134.301C243.57 134.215 243.789 133.924 243.724 133.624C243.661 133.33 243.314 133.144 242.957 133.238Z" fill="black"/>
<path d="M248.861 132.903L248.779 132.898C248.785 132.885 248.791 132.875 248.798 132.86C248.868 132.672 248.859 132.449 248.754 132.415C248.649 132.381 248.494 132.549 248.43 132.738C248.4 132.826 248.396 132.902 248.408 132.962C248.089 132.58 247.328 132.291 246.688 132.295C246.365 132.292 246.127 132.376 245.958 132.484C245.89 132.53 245.801 132.541 245.723 132.51C245.516 132.43 245.27 132.429 245.026 132.514C244.692 132.624 244.468 132.945 244.446 133.268C244.416 133.885 244.933 134.316 245.466 134.273C245.602 134.261 245.726 134.209 245.838 134.144C245.903 134.106 245.984 134.109 246.05 134.149C246.21 134.249 246.419 134.29 246.697 134.294C247.243 134.291 247.918 134.104 248.304 133.815C248.279 133.87 248.266 133.944 248.272 134.037C248.286 134.237 248.374 134.439 248.467 134.431C248.561 134.424 248.632 134.213 248.625 134.014C248.622 133.999 248.62 133.987 248.618 133.973C248.643 133.98 248.667 133.987 248.692 133.99C249.026 134.031 249.35 133.852 249.41 133.551C249.469 133.256 249.231 132.95 248.861 132.903Z" fill="black"/>
<path d="M254.12 132.441L254.049 132.475C254.048 132.461 254.047 132.449 254.046 132.433C254.011 132.236 253.893 132.046 253.793 132.063C253.692 132.08 253.647 132.298 253.682 132.494C253.698 132.587 253.73 132.655 253.769 132.703C253.317 132.512 252.56 132.55 252.045 132.716C251.918 132.756 251.812 132.804 251.749 132.848C251.701 132.876 251.718 132.886 251.71 132.911C251.707 132.935 251.65 132.96 251.626 132.989C251.576 133.037 251.507 133.045 251.449 133.013C251.293 132.923 251.124 132.886 250.917 132.924C250.637 132.974 250.342 133.184 250.208 133.486C249.96 134.04 250.288 134.674 250.995 134.732C251.168 134.745 251.338 134.713 251.483 134.651C251.569 134.612 251.669 134.616 251.753 134.651C251.812 134.671 251.845 134.696 251.939 134.703C252.026 134.711 252.148 134.707 252.209 134.703C252.368 134.695 252.513 134.667 252.672 134.616C253.284 134.419 253.868 133.944 254.081 133.504C254.085 133.565 254.108 133.638 254.158 133.716C254.267 133.886 254.45 134.017 254.537 133.963C254.625 133.909 254.582 133.689 254.473 133.521C254.463 133.509 254.456 133.5 254.447 133.489L254.524 133.467C254.855 133.341 255.031 133.01 254.921 132.726C254.81 132.443 254.451 132.315 254.12 132.441Z" fill="black"/>
<path d="M228.602 147.236L228.621 147.322C228.606 147.319 228.594 147.317 228.577 147.313C228.374 147.291 228.158 147.361 228.153 147.478C228.149 147.596 228.355 147.711 228.558 147.725C228.652 147.732 228.728 147.716 228.784 147.687C228.491 148.12 228.453 149.006 228.578 149.57C228.643 149.873 228.749 150.086 228.884 150.234C228.94 150.294 228.963 150.379 228.941 150.457C228.882 150.666 228.891 150.898 228.985 151.125C229.116 151.434 229.403 151.657 229.734 151.711C230.351 151.827 230.858 151.252 230.749 150.602C230.724 150.441 230.664 150.296 230.58 150.174C230.531 150.101 230.52 150.009 230.548 149.928C230.619 149.731 230.633 149.478 230.564 149.155C230.416 148.487 230.031 147.882 229.646 147.562C229.707 147.573 229.784 147.566 229.873 147.534C230.065 147.466 230.238 147.322 230.207 147.228C230.174 147.134 229.947 147.118 229.754 147.18C229.74 147.186 229.73 147.191 229.716 147.197L229.713 147.117C229.663 146.763 229.42 146.483 229.105 146.496C228.803 146.508 228.548 146.842 228.602 147.236Z" fill="black"/>
<path d="M229.534 141.005L229.508 141.09C229.496 141.079 229.487 141.072 229.475 141.061C229.306 140.946 229.083 140.905 229.023 141.006C228.962 141.106 229.089 141.304 229.26 141.413C229.339 141.463 229.413 141.485 229.476 141.486C229.008 141.726 228.528 142.448 228.382 143.119C228.294 143.454 228.331 143.724 228.4 143.924C228.429 144.006 228.422 144.101 228.373 144.176C228.239 144.376 228.198 144.637 228.231 144.912C228.272 145.287 228.553 145.588 228.872 145.672C229.483 145.821 230.004 145.367 230.071 144.812C230.085 144.669 230.058 144.53 230.022 144.402C229.999 144.327 230.018 144.244 230.072 144.184C230.208 144.04 230.287 143.834 230.365 143.55C230.486 142.987 230.472 142.247 230.293 141.786C230.342 141.824 230.412 141.854 230.506 141.869C230.707 141.899 230.929 141.854 230.946 141.755C230.963 141.657 230.772 141.535 230.573 141.499C230.557 141.498 230.546 141.497 230.532 141.496L230.567 141.423C230.705 141.091 230.614 140.724 230.333 140.591C230.058 140.461 229.685 140.64 229.534 141.005Z" fill="black"/>
<path d="M233.047 135.791L232.991 135.858C232.984 135.845 232.978 135.834 232.97 135.819C232.855 135.655 232.662 135.537 232.568 135.604C232.472 135.67 232.525 135.903 232.644 136.065C232.7 136.142 232.76 136.188 232.817 136.212C232.3 136.269 231.59 136.736 231.182 137.271C230.982 137.545 230.889 137.789 230.868 137.997C230.86 138.082 230.812 138.163 230.736 138.209C230.541 138.337 230.379 138.541 230.289 138.799C230.161 139.147 230.271 139.537 230.515 139.756C230.988 140.165 231.665 139.995 231.984 139.512C232.063 139.388 232.106 139.251 232.124 139.114C232.137 139.035 232.192 138.967 232.268 138.935C232.453 138.857 232.632 138.709 232.811 138.463C233.173 137.989 233.463 137.287 233.466 136.786C233.497 136.839 233.551 136.893 233.632 136.94C233.809 137.041 234.028 137.071 234.087 136.987C234.144 136.9 234.01 136.72 233.837 136.616C233.822 136.609 233.812 136.605 233.798 136.598L233.861 136.544C234.119 136.281 234.152 135.892 233.935 135.676C233.718 135.459 233.321 135.511 233.047 135.791Z" fill="black"/>
<path d="M229.052 153.748L229.065 153.833C229.051 153.83 229.039 153.827 229.023 153.823C228.821 153.798 228.603 153.862 228.592 153.976C228.578 154.09 228.791 154.205 228.992 154.226C229.087 154.236 229.163 154.222 229.219 154.196C228.918 154.615 228.801 155.447 228.935 156.102C229.01 156.433 229.134 156.663 229.278 156.817C229.337 156.879 229.367 156.968 229.351 157.055C229.318 157.283 229.365 157.538 229.501 157.775C229.68 158.101 230.05 158.279 230.378 158.245C231.003 158.169 231.324 157.558 231.17 157.003C231.127 156.862 231.053 156.74 230.96 156.636C230.909 156.573 230.894 156.488 230.92 156.41C230.984 156.223 230.991 155.992 230.924 155.698C230.804 155.116 230.464 154.436 230.086 154.101C230.147 154.114 230.224 154.11 230.314 154.081C230.507 154.019 230.676 153.877 230.651 153.778C230.623 153.678 230.398 153.657 230.203 153.715C230.188 153.721 230.178 153.726 230.164 153.732L230.165 153.65C230.136 153.285 229.863 153.002 229.555 153.018C229.247 153.034 229.021 153.36 229.052 153.748Z" fill="black"/>
<path d="M237.972 131.862L237.897 131.91C237.894 131.895 237.892 131.883 237.889 131.867C237.832 131.675 237.684 131.504 237.57 131.542C237.458 131.582 237.434 131.818 237.498 132.008C237.528 132.098 237.571 132.16 237.619 132.199C237.106 132.105 236.268 132.356 235.737 132.771C235.461 132.973 235.304 133.18 235.232 133.379C235.201 133.459 235.133 133.524 235.049 133.548C234.821 133.61 234.609 133.754 234.455 133.976C234.241 134.275 234.214 134.657 234.382 134.947C234.693 135.479 235.414 135.533 235.864 135.142C235.975 135.039 236.064 134.927 236.122 134.8C236.157 134.727 236.229 134.675 236.31 134.664C236.508 134.633 236.724 134.538 236.969 134.359C237.442 133.989 237.915 133.415 238.064 132.938C238.078 132.997 238.113 133.065 238.177 133.134C238.314 133.282 238.513 133.379 238.59 133.313C238.667 133.251 238.597 133.04 238.464 132.887C238.453 132.876 238.445 132.868 238.434 132.859L238.509 132.827C238.829 132.658 238.985 132.301 238.857 132.031C238.723 131.751 238.327 131.675 237.972 131.862Z" fill="black"/>
<path d="M244.127 130.216L244.039 130.229C244.043 130.214 244.046 130.203 244.051 130.187C244.081 129.989 244.022 129.773 243.906 129.762C243.79 129.751 243.667 129.948 243.641 130.146C243.629 130.239 243.641 130.314 243.667 130.371C243.249 130.062 242.4 129.929 241.724 130.061C241.382 130.121 241.145 130.255 240.987 130.395C240.922 130.454 240.831 130.483 240.742 130.468C240.508 130.441 240.244 130.488 240.001 130.626C239.672 130.823 239.494 131.179 239.539 131.503C239.637 132.115 240.265 132.416 240.813 132.258C240.953 132.215 241.075 132.143 241.177 132.05C241.239 131.999 241.326 131.985 241.403 132.011C241.593 132.077 241.819 132.073 242.118 132.021C242.699 131.908 243.393 131.588 243.742 131.226C243.728 131.285 243.73 131.361 243.757 131.45C243.816 131.642 243.956 131.82 244.057 131.793C244.157 131.766 244.185 131.544 244.131 131.351C244.125 131.337 244.12 131.326 244.115 131.313L244.198 131.314C244.567 131.283 244.864 131.041 244.855 130.734C244.846 130.434 244.521 130.184 244.127 130.216Z" fill="black"/>
<path d="M239.442 128.015L239.361 128.048C239.361 128.032 239.361 128.02 239.362 128.004C239.345 127.804 239.237 127.608 239.122 127.623C239.007 127.638 238.933 127.858 238.954 128.057C238.964 128.15 238.992 128.22 239.031 128.269C238.553 128.063 237.694 128.125 237.068 128.407C236.749 128.542 236.549 128.727 236.428 128.898C236.379 128.97 236.297 129.019 236.207 129.025C235.973 129.051 235.727 129.157 235.523 129.346C235.248 129.612 235.158 130 235.278 130.304C235.515 130.878 236.197 131.029 236.693 130.75C236.82 130.678 236.922 130.58 237 130.466C237.048 130.403 237.129 130.369 237.21 130.377C237.41 130.399 237.629 130.343 237.908 130.226C238.447 129.984 239.048 129.515 239.304 129.084C239.303 129.146 239.323 129.218 239.37 129.3C239.472 129.473 239.65 129.614 239.742 129.565C239.834 129.516 239.809 129.294 239.711 129.119C239.702 129.106 239.695 129.097 239.687 129.085L239.768 129.067C240.12 128.954 240.353 128.651 240.272 128.354C240.194 128.064 239.818 127.895 239.442 128.015Z" fill="black"/>
<path d="M250.373 130.443L250.288 130.445C250.294 130.43 250.298 130.42 250.304 130.404C250.358 130.211 250.327 129.99 250.223 129.964C250.119 129.938 249.977 130.117 249.921 130.31C249.895 130.399 249.895 130.475 249.911 130.534C249.553 130.174 248.805 129.883 248.164 129.834C247.839 129.81 247.591 129.853 247.403 129.944C247.328 129.981 247.235 129.982 247.158 129.942C246.955 129.836 246.704 129.79 246.418 129.842C246.055 129.922 245.768 130.184 245.689 130.504C245.537 131.104 246.043 131.626 246.617 131.645C246.766 131.653 246.911 131.627 247.046 131.577C247.124 131.547 247.214 131.559 247.283 131.607C247.451 131.723 247.684 131.802 248.007 131.827C248.644 131.875 249.444 131.703 249.853 131.391C249.829 131.448 249.819 131.522 249.833 131.615C249.862 131.814 249.983 132.01 250.096 131.996C250.208 131.983 250.265 131.767 250.234 131.569C250.23 131.554 250.226 131.543 250.223 131.529L250.308 131.541C250.697 131.563 251.026 131.327 251.033 131.024C251.041 130.719 250.748 130.464 250.373 130.443Z" fill="black"/>
<path d="M213.534 155.398C213.501 155.512 213.394 155.586 213.275 155.6C211.601 155.793 210.626 156.014 209.88 156.406C209.149 156.758 208.719 157.215 208.726 157.357C208.733 157.498 209.22 157.934 210.182 158.007C210.422 158.034 210.683 157.997 210.97 157.955C211.258 157.917 211.561 157.827 211.87 157.676C212.184 157.542 212.503 157.357 212.802 157.093C213.113 156.854 213.395 156.533 213.643 156.16C213.713 156.055 213.838 155.998 213.964 155.999C214.414 155.994 214.9 155.933 215.086 155.79C215.265 155.632 215.137 155.439 214.481 155.135C214.234 154.443 214.03 154.322 213.902 154.456C213.759 154.581 213.648 154.966 213.534 155.398Z" fill="black"/>
<path d="M217.196 149.853C217.248 149.961 217.233 150.091 217.159 150.183C216.035 151.447 215.532 152.319 215.246 153.083C214.972 153.826 214.988 154.46 215.09 154.558C215.192 154.659 215.844 154.635 216.593 154.028C217.336 153.449 218.083 152.122 217.813 150.354C217.789 150.23 217.829 150.102 217.924 150.022C218.642 149.428 219.152 148.646 217.74 149.041C216.46 148.323 216.835 149.075 217.196 149.853Z" fill="black"/>
<path d="M216.865 143.13C216.964 143.194 217.015 143.313 216.998 143.431C216.756 145.083 216.807 146.124 217.064 146.931C217.279 147.716 217.702 148.202 217.847 148.216C217.989 148.229 218.47 147.814 218.717 146.912C218.936 146.041 218.848 144.578 217.643 143.228C217.559 143.135 217.529 143.003 217.569 142.883C217.816 142.011 217.848 141.044 216.866 142.16C215.429 142.25 216.104 142.683 216.865 143.13Z" fill="black"/>
<path d="M212.517 138.118C212.634 138.096 212.764 138.131 212.827 138.237C213.775 139.615 214.416 140.355 215.108 140.828C215.418 141.078 215.736 141.235 215.991 141.327C216.229 141.429 216.415 141.456 216.48 141.421C216.541 141.386 216.616 141.217 216.641 140.936C216.649 140.666 216.595 140.289 216.424 139.842C216.214 139.423 215.899 138.918 215.345 138.508C214.815 138.083 214.053 137.757 213.16 137.657C213.038 137.635 212.916 137.577 212.859 137.464C212.439 136.63 211.747 135.967 211.844 137.413C210.863 138.492 211.668 138.279 212.517 138.118Z" fill="black"/>
<path d="M205.822 137.351C205.897 137.259 206.019 137.209 206.136 137.241C207.767 137.689 208.806 137.766 209.634 137.671C210.443 137.561 210.997 137.294 211.046 137.138C211.085 137.025 210.773 136.428 209.888 136.062C209.036 135.677 207.522 135.579 206.006 136.587C205.902 136.657 205.769 136.683 205.653 136.634C204.786 136.262 203.823 136.197 204.844 137.24C204.802 138.687 205.277 138.012 205.822 137.351Z" fill="black"/>
<path d="M200.369 141.143C200.359 141.026 200.422 140.913 200.525 140.853C201.993 140.033 202.795 139.457 203.341 138.842C203.865 138.236 204.123 137.691 204.055 137.538C204.026 137.475 203.864 137.391 203.587 137.35C203.309 137.307 202.91 137.305 202.458 137.466C201.56 137.733 200.31 138.693 199.968 140.475C199.945 140.599 199.858 140.703 199.738 140.747C198.878 141.088 198.099 141.674 199.593 141.738C200.561 142.797 200.472 142.001 200.369 141.143Z" fill="black"/>
<path d="M198.751 147.647C198.673 147.557 198.655 147.428 198.702 147.319C199.405 145.783 199.631 144.764 199.607 143.933C199.604 143.126 199.373 142.55 199.24 142.493C199.109 142.438 198.497 142.682 198.013 143.498C197.554 144.291 197.253 145.72 198.025 147.333C198.081 147.445 198.075 147.578 198.004 147.681C197.736 148.055 197.53 148.472 197.56 148.697C197.581 148.925 197.815 148.936 198.451 148.575C199.16 148.769 199.379 148.677 199.347 148.489C199.306 148.298 199.028 147.981 198.751 147.647Z" fill="black"/>
<path d="M201.073 153.909C200.955 153.885 200.861 153.794 200.833 153.681C200.483 152.062 200.142 151.11 199.682 150.412C199.225 149.739 198.734 149.367 198.572 149.398C198.451 149.418 198.049 149.955 198.102 150.892C198.123 151.799 198.675 153.226 200.299 154.09C200.414 154.147 200.492 154.258 200.5 154.382C200.519 154.845 200.637 155.3 200.805 155.463C200.973 155.634 201.156 155.493 201.418 154.814C202.088 154.525 202.196 154.313 202.057 154.19C201.911 154.068 201.495 154.007 201.073 153.909Z" fill="black"/>
<path d="M206.993 156.96C206.892 157.02 206.761 157.013 206.66 156.947C205.252 156.02 204.359 155.583 203.548 155.398C202.765 155.211 202.15 155.246 202.05 155.366C201.967 155.463 202.017 156.132 202.713 156.803C203.375 157.456 204.803 158.102 206.567 157.607C206.689 157.573 206.822 157.605 206.915 157.692C207.609 158.28 208.477 158.735 207.881 157.378C208.423 156.066 207.731 156.47 206.993 156.96Z" fill="black"/>
<path d="M213.536 161.845C213.474 161.944 213.36 161.996 213.246 161.981C212.435 161.88 211.763 161.8 211.216 161.885C210.653 161.901 210.197 162.024 209.824 162.19C209.078 162.476 208.659 162.921 208.663 163.073C208.667 163.205 209.12 163.65 209.993 163.81C210.426 163.866 210.964 163.854 211.569 163.711C212.158 163.499 212.834 163.212 213.452 162.615C213.54 162.532 213.665 162.502 213.779 162.54C214.196 162.68 214.644 162.789 214.846 162.717C215.047 162.634 214.994 162.407 214.489 161.904C214.473 161.176 214.33 160.991 214.163 161.077C213.99 161.154 213.761 161.48 213.536 161.845Z" fill="black"/>
<path d="M219.1 158.447C219.087 158.559 219.004 158.652 218.892 158.685C218.492 158.801 218.154 158.934 217.851 159.068C217.532 159.182 217.258 159.309 217.02 159.448C216.559 159.745 216.17 159.993 215.905 160.295C215.639 160.597 215.453 160.881 215.333 161.098C215.219 161.325 215.185 161.504 215.216 161.57C215.246 161.632 215.408 161.719 215.674 161.769C215.945 161.829 216.313 161.831 216.736 161.703C217.157 161.576 217.676 161.389 218.131 160.951C218.365 160.743 218.598 160.497 218.82 160.212C219.022 159.907 219.204 159.552 219.362 159.164C219.406 159.054 219.509 158.977 219.632 158.965C220.507 158.842 221.351 158.511 219.957 158.063C219.266 156.805 219.165 157.6 219.1 158.447Z" fill="black"/>
<path d="M222.536 152.949C222.579 153.059 222.551 153.18 222.47 153.26C221.846 153.808 221.442 154.311 221.124 154.762C220.789 155.201 220.642 155.649 220.51 156.015C220.261 156.753 220.367 157.375 220.483 157.466C220.592 157.553 221.202 157.476 221.894 156.907C222.244 156.628 222.534 156.18 222.798 155.622C223.043 155.056 223.157 154.321 223.105 153.492C223.09 153.373 223.142 153.257 223.242 153.192C223.978 152.712 224.643 152.084 223.164 152.246C222.023 151.398 222.226 152.154 222.536 152.949Z" fill="black"/>
<path d="M223.502 146.518C223.58 146.605 223.598 146.729 223.551 146.833C223.19 147.569 222.957 148.19 222.877 148.738C222.743 149.278 222.741 149.746 222.804 150.145C222.89 150.93 223.212 151.445 223.363 151.481C223.492 151.514 224.051 151.202 224.436 150.414C224.606 150.019 224.737 149.508 224.759 148.899C224.724 148.288 224.6 147.578 224.227 146.825C224.171 146.719 224.178 146.593 224.249 146.497C224.765 145.795 225.164 144.989 223.837 145.64C222.464 145.23 222.927 145.88 223.502 146.518Z" fill="black"/>
<path d="M222.141 140.164C222.246 140.217 222.308 140.325 222.302 140.438C222.241 141.249 222.244 141.904 222.35 142.442C222.414 142.993 222.577 143.43 222.778 143.783C223.109 144.498 223.612 144.87 223.76 144.855C223.898 144.84 224.294 144.363 224.405 143.491C224.425 143.062 224.368 142.537 224.173 141.956C223.935 141.388 223.56 140.758 222.93 140.188C222.838 140.109 222.798 139.989 222.828 139.874C222.939 139.455 223.009 139.012 222.928 138.815C222.835 138.621 222.612 138.688 222.129 139.225C221.402 139.289 221.223 139.443 221.316 139.603C221.399 139.772 221.755 139.969 222.141 140.164Z" fill="black"/>
<path d="M218.303 134.938C218.418 134.943 218.518 135.018 218.56 135.125C219.169 136.613 219.76 137.448 220.401 137.947C221.041 138.429 221.594 138.615 221.741 138.534C221.846 138.478 222.08 137.851 221.77 137.032C221.603 136.634 221.39 136.127 220.912 135.714C220.683 135.5 220.416 135.289 220.111 135.094C219.802 134.902 219.416 134.761 219.014 134.631C218.899 134.595 218.813 134.501 218.792 134.381C218.618 133.517 218.212 132.727 217.858 134.12C216.626 134.892 217.452 134.92 218.303 134.938Z" fill="black"/>
<path d="M212.496 131.95C212.604 131.9 212.729 131.917 212.816 131.99C214.014 133.118 214.954 133.539 215.744 133.722C216.509 133.913 217.14 133.754 217.216 133.645C217.304 133.52 217.176 132.939 216.55 132.3C215.934 131.683 214.699 131.112 213.004 131.35C212.884 131.374 212.762 131.332 212.689 131.24C212.146 130.558 211.458 129.956 211.735 131.392C210.962 132.58 211.713 132.319 212.496 131.95Z" fill="black"/>
<path d="M205.916 131.522C205.997 131.436 206.119 131.407 206.229 131.443C207.006 131.744 207.649 131.895 208.206 131.95C208.764 132.035 209.238 131.997 209.637 131.901C210.422 131.771 210.921 131.398 210.946 131.252C210.97 131.118 210.609 130.612 209.781 130.278C209.367 130.145 208.839 130.06 208.22 130.091C207.602 130.153 206.889 130.361 206.158 130.78C206.056 130.846 205.927 130.852 205.824 130.792C205.062 130.355 204.197 130.045 204.997 131.279C204.728 132.663 205.329 132.148 205.916 131.522Z" fill="black"/>
<path d="M199.717 133.639C199.755 133.53 199.856 133.457 199.972 133.447C200.775 133.352 201.453 133.305 201.967 133.111C202.5 132.961 202.927 132.772 203.253 132.531C203.919 132.1 204.247 131.593 204.212 131.442C204.185 131.316 203.652 130.956 202.759 130.978C202.323 131.013 201.786 131.113 201.23 131.4C200.695 131.729 200.087 132.14 199.626 132.874C199.559 132.974 199.442 133.029 199.321 133.015C198.41 132.892 197.548 133.075 198.784 133.804C199.18 135.207 199.426 134.404 199.717 133.639Z" fill="black"/>
<path d="M195.114 138.217C195.096 138.102 195.142 137.984 195.249 137.931C195.99 137.535 196.468 137.117 196.899 136.764C197.103 136.579 197.269 136.39 197.406 136.201C197.551 136.021 197.683 135.855 197.781 135.683C197.983 135.345 198.084 135.013 198.137 134.761C198.197 134.518 198.191 134.338 198.144 134.281C198.1 134.227 197.922 134.178 197.647 134.186C197.382 134.204 197.034 134.301 196.638 134.506C196.443 134.611 196.228 134.736 196.028 134.91C195.837 135.092 195.645 135.308 195.461 135.56C195.071 136.044 194.822 136.757 194.679 137.572C194.656 137.684 194.588 137.791 194.476 137.834C193.663 138.158 192.887 138.646 194.363 138.782C195.309 139.845 195.258 139.064 195.114 138.217Z" fill="black"/>
<path d="M192.938 144.331C192.876 144.232 192.88 144.107 192.945 144.013C193.42 143.348 193.768 142.784 193.948 142.264C194.18 141.761 194.268 141.304 194.28 140.902C194.367 140.127 194.137 139.55 194.001 139.486C193.877 139.427 193.286 139.63 192.733 140.327C192.49 140.685 192.264 141.167 192.128 141.765C192.047 142.374 192.032 143.1 192.277 143.907C192.314 144.021 192.285 144.144 192.198 144.226C191.566 144.833 191.031 145.564 192.453 145.139C193.734 145.768 193.392 145.055 192.938 144.331Z" fill="black"/>
<path d="M193.124 150.84C193.031 150.768 192.991 150.65 193.018 150.54C193.26 149.752 193.356 149.107 193.364 148.553C193.401 147.996 193.32 147.533 193.187 147.149C192.974 146.387 192.554 145.937 192.402 145.927C192.266 145.919 191.783 146.323 191.534 147.161C191.435 147.577 191.395 148.101 191.482 148.703C191.597 149.301 191.869 149.981 192.353 150.663C192.428 150.758 192.444 150.883 192.392 150.989C192.011 151.772 191.767 152.643 192.953 151.761C194.376 151.917 193.805 151.366 193.124 150.84Z" fill="black"/>
<path d="M195.722 156.781C195.61 156.751 195.527 156.657 195.51 156.545C195.434 156.137 195.367 155.783 195.307 155.464C195.235 155.139 195.142 154.856 195.032 154.606C194.85 154.087 194.619 153.686 194.352 153.381C193.872 152.755 193.325 152.474 193.177 152.519C193.049 152.556 192.733 153.105 192.814 153.98C192.881 154.406 193.028 154.92 193.35 155.448C193.528 155.704 193.745 155.964 194.004 156.219C194.251 156.48 194.569 156.718 194.952 156.922C195.057 156.981 195.121 157.091 195.116 157.211C195.054 158.11 195.283 158.952 195.948 157.689C197.341 157.214 196.522 157.015 195.722 156.781Z" fill="black"/>
<path d="M200.655 161.014C200.536 161.045 200.42 160.996 200.358 160.896C199.902 160.203 199.457 159.751 199.069 159.353C198.868 159.166 198.664 159.016 198.465 158.894C198.281 158.753 198.097 158.642 197.918 158.555C197.189 158.224 196.585 158.188 196.475 158.286C196.37 158.378 196.307 159.016 196.796 159.751C196.914 159.938 197.061 160.133 197.242 160.329C197.438 160.505 197.671 160.679 197.939 160.842C198.458 161.191 199.19 161.401 200.031 161.479C200.148 161.493 200.255 161.565 200.309 161.666C200.693 162.44 201.244 163.168 201.279 161.71C202.292 160.706 201.504 160.812 200.655 161.014Z" fill="black"/>
<path d="M207.002 162.685C206.907 162.754 206.781 162.761 206.68 162.705C205.968 162.292 205.37 162.002 204.832 161.862C204.306 161.674 203.838 161.624 203.43 161.643C202.643 161.609 202.072 161.883 202.017 162.019C201.966 162.147 202.215 162.705 202.962 163.205C203.344 163.415 203.85 163.6 204.468 163.686C205.092 163.723 205.832 163.674 206.628 163.369C206.741 163.324 206.868 163.342 206.959 163.419C207.627 163.988 208.416 164.451 207.861 163.092C208.386 161.782 207.696 162.177 207.002 162.685Z" fill="black"/>
<path d="M211.677 159.561C211.608 159.658 211.488 159.705 211.373 159.686C210.543 159.5 209.891 159.451 209.319 159.417C208.755 159.424 208.281 159.469 207.883 159.573C207.092 159.808 206.6 160.133 206.582 160.299C206.574 160.368 206.667 160.525 206.874 160.705C207.08 160.892 207.401 161.091 207.844 161.2C208.284 161.326 208.844 161.4 209.489 161.268C210.131 161.179 210.852 160.856 211.542 160.331C211.637 160.251 211.768 160.226 211.883 160.269C212.745 160.609 213.67 160.669 212.645 159.645C212.647 158.197 212.181 158.883 211.677 159.561Z" fill="black"/>
<path d="M217.301 156.027C217.296 156.143 217.214 156.241 217.103 156.283C215.558 156.904 214.685 157.441 214.131 158.051C213.571 158.619 213.356 159.213 213.41 159.335C213.471 159.473 214.065 159.69 214.972 159.453C215.42 159.336 215.916 159.059 216.411 158.637C216.643 158.407 216.872 158.137 217.087 157.83C217.3 157.522 217.457 157.132 217.603 156.731C217.642 156.616 217.746 156.532 217.867 156.506C218.732 156.292 219.597 155.893 218.143 155.561C217.373 154.366 217.3 155.151 217.301 156.027Z" fill="black"/>
<path d="M220.253 150.065C220.306 150.172 220.296 150.3 220.22 150.391C219.648 151.025 219.311 151.589 219.022 152.08C218.776 152.587 218.604 153.023 218.526 153.423C218.386 154.222 218.473 154.802 218.613 154.893C218.712 154.96 219.39 154.857 219.993 154.176C220.622 153.529 221.176 152.255 220.877 150.551C220.854 150.432 220.889 150.307 220.982 150.228C221.658 149.649 222.247 148.929 220.796 149.27C219.565 148.537 219.854 149.288 220.253 150.065Z" fill="black"/>
<path d="M220.333 143.408C220.427 143.482 220.481 143.6 220.441 143.715C220.32 144.121 220.239 144.484 220.194 144.816C220.139 145.149 220.081 145.456 220.074 145.737C220.072 146.297 220.079 146.771 220.194 147.167C220.4 147.957 220.748 148.445 220.911 148.464C221.034 148.481 221.584 148.1 221.846 147.24C222.116 146.403 222.133 145.011 221.105 143.585C221.042 143.484 221.011 143.357 221.062 143.246C221.42 142.431 221.612 141.514 220.472 142.461C219.037 142.352 219.636 142.881 220.333 143.408Z" fill="black"/>
<path d="M217.145 137.627C217.262 137.642 217.36 137.725 217.396 137.835C217.88 139.41 218.409 140.277 218.952 140.89C219.521 141.468 220.051 141.747 220.202 141.692C220.322 141.65 220.641 141.06 220.436 140.171C220.288 139.287 219.532 138.049 217.887 137.378C217.771 137.332 217.689 137.229 217.673 137.107C217.549 136.207 217.152 135.377 216.741 136.763C215.459 137.463 216.293 137.533 217.145 137.627Z" fill="black"/>
<path d="M211.275 134.46C211.385 134.405 211.514 134.42 211.602 134.504C212.878 135.581 213.791 136.075 214.607 136.254C215.383 136.462 216.006 136.373 216.1 136.25C216.18 136.147 216.092 135.515 215.446 134.852C214.804 134.231 213.531 133.563 211.776 133.86C211.656 133.873 211.53 133.834 211.451 133.745C210.868 133.077 210.131 132.492 210.473 133.922C209.725 135.132 210.482 134.849 211.275 134.46Z" fill="black"/>
<path d="M204.561 134.533C204.629 134.436 204.749 134.388 204.864 134.406C205.694 134.592 206.346 134.645 206.916 134.678C207.48 134.667 207.953 134.636 208.351 134.525C209.141 134.304 209.636 133.968 209.656 133.805C209.672 133.687 209.284 133.137 208.397 132.897C207.537 132.628 206.092 132.682 204.695 133.761C204.6 133.843 204.469 133.868 204.354 133.826C203.491 133.488 202.564 133.427 203.592 134.45C203.593 135.897 204.058 135.214 204.561 134.533Z" fill="black"/>
<path d="M198.947 138.082C198.951 137.966 199.033 137.868 199.144 137.825C200.687 137.201 201.558 136.659 202.112 136.049C202.395 135.769 202.583 135.476 202.697 135.235C202.815 135.003 202.861 134.833 202.829 134.764C202.767 134.627 202.171 134.407 201.267 134.65C200.818 134.766 200.324 135.047 199.83 135.469C199.599 135.7 199.37 135.97 199.156 136.278C198.943 136.587 198.788 136.977 198.643 137.378C198.604 137.493 198.501 137.578 198.379 137.603C197.515 137.82 196.65 138.219 198.105 138.548C198.877 139.743 198.949 138.957 198.947 138.082Z" fill="black"/>
<path d="M195.999 144.047C195.946 143.94 195.956 143.812 196.032 143.721C196.604 143.087 196.941 142.523 197.229 142.032C197.476 141.524 197.647 141.088 197.724 140.688C197.864 139.889 197.776 139.309 197.636 139.218C197.537 139.151 196.859 139.254 196.258 139.936C195.629 140.584 195.075 141.858 195.375 143.561C195.398 143.68 195.363 143.806 195.27 143.884C194.594 144.463 194.005 145.183 195.455 144.842C196.687 145.575 196.399 144.824 195.999 144.047Z" fill="black"/>
<path d="M195.916 150.704C195.823 150.631 195.769 150.513 195.809 150.398C195.93 149.991 196.011 149.628 196.058 149.296C196.112 148.963 196.171 148.656 196.177 148.376C196.179 147.816 196.173 147.341 196.058 146.945C195.852 146.156 195.504 145.667 195.341 145.648C195.217 145.632 194.667 146.012 194.406 146.872C194.135 147.71 194.118 149.1 195.145 150.527C195.207 150.628 195.238 150.755 195.187 150.866C194.828 151.681 194.635 152.596 195.776 151.651C197.211 151.763 196.613 151.232 195.916 150.704Z" fill="black"/>
<path d="M199.091 156.494C198.974 156.479 198.877 156.396 198.841 156.285C198.361 154.709 197.836 153.84 197.293 153.226C196.726 152.645 196.196 152.367 196.045 152.421C195.925 152.462 195.605 153.052 195.807 153.941C195.954 154.825 196.705 156.065 198.349 156.741C198.464 156.787 198.547 156.891 198.562 157.013C198.685 157.911 199.078 158.745 199.494 157.358C200.775 156.664 199.945 156.588 199.091 156.494Z" fill="black"/>
<path d="M204.958 159.654C204.851 159.705 204.719 159.698 204.63 159.617C203.356 158.532 202.437 158.057 201.627 157.869C200.848 157.666 200.229 157.748 200.134 157.872C200.054 157.973 200.138 158.612 200.786 159.272C201.425 159.902 202.708 160.551 204.459 160.262C204.58 160.246 204.708 160.276 204.787 160.37C205.373 161.039 206.116 161.624 205.762 160.193C206.499 158.982 205.748 159.264 204.958 159.654Z" fill="black"/>
<path d="M166.562 133.167C166.894 131.415 165.171 129.531 163.26 130.384C163.199 130.401 163.121 130.474 163.196 130.532C164.66 131.409 165.307 133.446 164.66 135.149C164.649 135.196 164.665 135.218 164.69 135.228C164.7 135.254 164.72 135.271 164.759 135.259C166.292 134.54 168.126 135.256 168.915 136.884C168.972 136.969 169.03 136.878 169.049 136.813C169.81 134.693 168.137 132.799 166.562 133.167Z" fill="black"/>
<path d="M173.986 123.209C174.318 121.457 172.594 119.573 170.684 120.426C170.623 120.443 170.545 120.516 170.62 120.574C172.084 121.452 172.731 123.488 172.084 125.191C172.072 125.238 172.088 125.26 172.113 125.27C172.124 125.296 172.144 125.313 172.183 125.301C173.716 124.583 175.549 125.299 176.339 126.926C176.396 127.012 176.454 126.921 176.473 126.855C177.233 124.736 175.561 122.841 173.986 123.209Z" fill="black"/>
<path d="M188.518 120.995C188.85 119.243 187.127 117.359 185.216 118.212C185.155 118.229 185.077 118.302 185.152 118.36C186.616 119.237 187.263 121.274 186.616 122.977C186.605 123.024 186.621 123.046 186.646 123.056C186.656 123.082 186.676 123.099 186.715 123.087C188.248 122.368 190.082 123.084 190.871 124.712C190.928 124.798 190.986 124.706 191.005 124.641C191.766 122.521 190.093 120.627 188.518 120.995Z" fill="black"/>
<path d="M159.703 141.058C160.035 139.305 158.312 137.421 156.401 138.274C156.34 138.292 156.262 138.364 156.337 138.422C157.801 139.3 158.448 141.336 157.801 143.039C157.79 143.086 157.806 143.108 157.831 143.119C157.841 143.145 157.861 143.162 157.9 143.149C159.433 142.431 161.266 143.147 162.056 144.775C162.113 144.86 162.171 144.769 162.19 144.703C162.951 142.584 161.278 140.689 159.703 141.058Z" fill="black"/>
<path d="M152.397 153.998C152.729 152.246 151.005 150.362 149.095 151.215C149.034 151.232 148.956 151.305 149.031 151.363C150.495 152.24 151.142 154.277 150.495 155.98C150.483 156.027 150.5 156.049 150.525 156.059C150.535 156.085 150.555 156.102 150.594 156.09C152.127 155.371 153.96 156.087 154.75 157.715C154.807 157.8 154.865 157.709 154.884 157.644C155.645 155.524 153.972 153.63 152.397 153.998Z" fill="black"/>
<path d="M175.924 169.977C176.256 168.225 174.533 166.341 172.622 167.194C172.561 167.211 172.483 167.284 172.558 167.342C174.022 168.219 174.669 170.256 174.022 171.959C174.011 172.006 174.027 172.028 174.052 172.038C174.062 172.064 174.082 172.081 174.121 172.069C175.654 171.35 177.488 172.066 178.278 173.694C178.334 173.78 178.392 173.688 178.411 173.623C179.172 171.503 177.499 169.609 175.924 169.977Z" fill="black"/>
<path d="M172.635 133.167C172.967 131.415 171.244 129.531 169.334 130.384C169.273 130.401 169.195 130.474 169.27 130.532C170.734 131.409 171.38 133.446 170.734 135.149C170.722 135.196 170.738 135.218 170.763 135.228C170.774 135.254 170.794 135.271 170.833 135.259C172.365 134.54 174.199 135.256 174.989 136.884C175.046 136.969 175.104 136.878 175.123 136.813C175.883 134.693 174.211 132.799 172.635 133.167Z" fill="black"/>
<path d="M178.709 133.167C179.041 131.415 177.317 129.531 175.406 130.384C175.345 130.401 175.268 130.474 175.342 130.532C176.807 131.409 177.454 133.446 176.806 135.149C176.796 135.196 176.812 135.218 176.837 135.228C176.847 135.254 176.867 135.271 176.905 135.259C178.439 134.54 180.272 135.256 181.062 136.884C181.119 136.969 181.177 136.878 181.196 136.813C181.957 134.693 180.284 132.799 178.709 133.167Z" fill="black"/>
<path d="M184.782 133.167C185.114 131.415 183.391 129.531 181.48 130.384C181.419 130.401 181.341 130.474 181.416 130.532C182.88 131.409 183.527 133.446 182.88 135.149C182.869 135.196 182.885 135.218 182.91 135.228C182.921 135.254 182.94 135.271 182.979 135.259C184.512 134.54 186.346 135.256 187.136 136.884C187.192 136.969 187.251 136.878 187.269 136.813C188.03 134.693 186.357 132.799 184.782 133.167Z" fill="black"/>
<path d="M166.441 160.65C166.786 158.898 164.995 157.014 163.009 157.867C162.946 157.884 162.865 157.957 162.943 158.015C164.464 158.892 165.136 160.928 164.464 162.631C164.453 162.679 164.469 162.701 164.496 162.711C164.506 162.737 164.527 162.754 164.567 162.742C166.16 162.023 168.066 162.739 168.887 164.367C168.946 164.452 169.006 164.361 169.026 164.296C169.816 162.176 168.078 160.282 166.441 160.65Z" fill="black"/>
<path d="M172.753 160.65C173.098 158.898 171.307 157.014 169.321 157.867C169.257 157.884 169.177 157.957 169.254 158.015C170.776 158.892 171.448 160.928 170.776 162.631C170.764 162.679 170.781 162.701 170.807 162.711C170.818 162.737 170.839 162.754 170.879 162.742C172.472 162.023 174.377 162.739 175.198 164.367C175.258 164.452 175.318 164.361 175.337 164.296C176.128 162.176 174.39 160.282 172.753 160.65Z" fill="black"/>
<path d="M179.065 160.65C179.41 158.898 177.619 157.014 175.633 157.867C175.57 157.884 175.489 157.957 175.566 158.015C177.088 158.892 177.76 160.928 177.088 162.631C177.076 162.679 177.093 162.701 177.119 162.711C177.13 162.737 177.151 162.754 177.19 162.742C178.784 162.023 180.69 162.739 181.511 164.367C181.569 164.452 181.63 164.361 181.649 164.296C182.44 162.176 180.702 160.282 179.065 160.65Z" fill="black"/>
<path d="M185.377 160.65C185.722 158.898 183.931 157.014 181.945 157.867C181.881 157.884 181.8 157.957 181.878 158.015C183.4 158.892 184.072 160.928 183.4 162.631C183.388 162.679 183.405 162.701 183.431 162.711C183.442 162.737 183.463 162.754 183.502 162.742C185.096 162.023 187.002 162.739 187.822 164.367C187.882 164.452 187.942 164.361 187.961 164.296C188.752 162.176 187.014 160.282 185.377 160.65Z" fill="black"/>
<path d="M168.543 154.025C168.972 152.38 167.236 150.67 165.181 151.518C165.116 151.536 165.031 151.606 165.107 151.659C166.613 152.437 167.206 154.319 166.447 155.927C166.433 155.971 166.449 155.991 166.475 156C166.485 156.024 166.505 156.039 166.546 156.027C168.197 155.314 170.101 155.931 170.862 157.428C170.918 157.506 170.984 157.42 171.006 157.358C171.904 155.359 170.222 153.637 168.543 154.025Z" fill="black"/>
<path d="M172.242 150.535C172.67 148.891 170.935 147.18 168.879 148.029C168.815 148.047 168.73 148.117 168.806 148.169C170.312 148.948 170.904 150.83 170.146 152.438C170.132 152.482 170.148 152.502 170.174 152.511C170.183 152.534 170.204 152.55 170.245 152.537C171.895 151.825 173.799 152.442 174.56 153.939C174.616 154.017 174.682 153.931 174.705 153.869C175.603 151.87 173.921 150.148 172.242 150.535Z" fill="black"/>
<path d="M175.941 147.046C176.369 145.402 174.634 143.691 172.578 144.54C172.514 144.558 172.428 144.628 172.504 144.68C174.011 145.458 174.603 147.341 173.844 148.948C173.831 148.992 173.847 149.013 173.873 149.021C173.882 149.045 173.903 149.061 173.944 149.048C175.594 148.335 177.498 148.953 178.259 150.45C178.315 150.528 178.381 150.441 178.403 150.379C179.301 148.38 177.62 146.659 175.941 147.046Z" fill="black"/>
<path d="M179.639 143.557C180.068 141.912 178.332 140.202 176.277 141.051C176.213 141.069 176.127 141.139 176.203 141.191C177.71 141.969 178.302 143.851 177.543 145.459C177.53 145.503 177.545 145.524 177.572 145.532C177.581 145.556 177.601 145.572 177.642 145.559C179.292 144.846 181.197 145.463 181.958 146.96C182.014 147.039 182.08 146.952 182.102 146.89C183 144.891 181.319 143.17 179.639 143.557Z" fill="black"/>
<path d="M183.338 140.067C183.766 138.423 182.031 136.713 179.976 137.561C179.911 137.579 179.826 137.649 179.902 137.701C181.408 138.48 182 140.362 181.242 141.97C181.228 142.014 181.244 142.034 181.27 142.043C181.28 142.066 181.3 142.082 181.341 142.069C182.991 141.356 184.896 141.974 185.657 143.471C185.713 143.549 185.779 143.463 185.801 143.401C186.699 141.402 185.017 139.68 183.338 140.067Z" fill="black"/>
<path d="M152.444 169.559H164.659C170.211 169.559 174.004 173.248 174.004 177.894C174.004 180.9 172.385 183.45 170.025 184.634V184.907C172.801 186.319 174.606 189.371 174.606 192.604C174.606 197.614 170.303 201.44 164.566 201.44H152.444V169.559ZM164.288 183.131C167.203 183.131 169.332 181.127 169.332 178.348C169.332 175.571 167.203 173.612 164.288 173.612H157.024V183.131H164.288ZM164.705 197.386C167.527 197.386 169.933 195.063 169.933 192.286C169.933 189.507 167.527 187.139 164.705 187.139H157.024V197.386H164.705Z" fill="black"/>
<path d="M181.405 169.559H193.619C199.172 169.559 203.197 173.521 203.197 178.804C203.197 183.04 200.652 186.228 196.488 187.458L204.354 201.44H199.218L191.861 188.278H185.985V201.44H181.405V169.559ZM193.157 184.224C196.164 184.224 198.524 181.855 198.524 178.895C198.524 175.98 196.164 173.612 193.157 173.612H185.985V184.224H193.157Z" fill="black"/>
<path d="M210.875 169.559H215.547L231.834 193.606H232.111V169.559H236.553V201.44H231.88L215.547 177.392H215.27V201.44H210.875V169.559Z" fill="black"/>
<path d="M243.906 185.5C243.906 175.935 250.846 169.058 260.423 169.058C270 169.058 276.941 175.935 276.941 185.5C276.941 195.064 270 201.941 260.423 201.941C250.846 201.941 243.906 195.064 243.906 185.5ZM260.423 197.796C267.363 197.796 272.268 192.741 272.268 185.5C272.268 178.258 267.363 173.202 260.423 173.202C253.436 173.202 248.579 178.258 248.579 185.5C248.579 192.741 253.436 197.796 260.423 197.796Z" fill="black"/>
<path d="M214.186 144.721C214.285 144.791 214.344 144.913 214.312 145.035C213.958 146.701 213.834 147.732 213.922 148.567C213.96 148.975 214.039 149.317 214.116 149.57C214.206 149.826 214.303 149.988 214.37 150.014C214.438 150.039 214.619 149.982 214.841 149.803C215.073 149.627 215.34 149.324 215.547 148.87C215.754 148.419 215.885 147.818 215.839 147.119C215.766 146.426 215.549 145.614 214.969 144.873C214.897 144.767 214.861 144.631 214.902 144.51C215.06 144.063 215.12 143.573 215.023 143.344C214.928 143.108 214.708 143.175 214.21 143.725C213.48 143.739 213.303 143.905 213.381 144.071C213.467 144.241 213.828 144.457 214.186 144.721Z" fill="black"/>
<path d="M203.053 142.719C203.042 142.594 203.121 142.487 203.232 142.435C204.015 142.067 204.61 141.819 205.119 141.603C205.618 141.38 206.021 141.167 206.365 140.951C206.707 140.737 206.984 140.522 207.181 140.341C207.375 140.148 207.483 139.998 207.477 139.926C207.471 139.856 207.341 139.713 207.08 139.598C206.818 139.47 206.421 139.362 205.905 139.388C205.394 139.413 204.76 139.582 204.149 140.008C203.535 140.416 202.972 141.121 202.707 142.016C202.668 142.141 202.564 142.24 202.447 142.288C202.226 142.369 202 142.468 201.813 142.576C201.639 142.69 201.501 142.811 201.438 142.918C201.309 143.139 201.499 143.267 202.245 143.312C202.709 143.868 202.952 143.902 203.033 143.739C203.076 143.653 203.083 143.509 203.073 143.326C203.075 143.153 203.066 142.942 203.053 142.719Z" fill="black"/>
<path d="M206.988 153.754C206.881 153.81 206.743 153.814 206.647 153.731C205.951 153.223 205.465 152.785 205.03 152.454C204.591 152.13 204.231 151.859 203.869 151.67C203.187 151.264 202.581 151.075 202.441 151.157C202.335 151.215 202.155 151.882 202.664 152.785C202.933 153.211 203.363 153.707 204.036 154.035C204.694 154.369 205.572 154.567 206.505 154.382C206.634 154.368 206.775 154.389 206.869 154.481C207.211 154.818 207.636 155.076 207.885 155.092C208.141 155.111 208.176 154.887 207.888 154.206C208.192 153.553 208.117 153.324 207.929 153.321C207.735 153.32 207.381 153.553 206.988 153.754Z" fill="black"/>
<path d="M213.87 165.048C213.801 165.152 213.673 165.186 213.553 165.165C211.853 164.873 210.729 164.991 209.921 165.324C209.12 165.585 208.678 166.05 208.681 166.196C208.684 166.335 209.158 166.758 210.07 166.945C210.962 167.068 212.347 166.929 213.734 165.807C213.831 165.729 213.968 165.718 214.083 165.753C214.936 166.031 215.869 166.164 214.854 165.1C214.914 163.667 214.374 164.305 213.87 165.048Z" fill="black"/>
<path d="M226.394 149.949C226.455 150.053 226.45 150.183 226.384 150.285C225.947 151.007 225.584 151.615 225.4 152.173C225.232 152.734 225.111 153.21 225.095 153.631C225.076 154.05 225.138 154.406 225.219 154.665C225.281 154.917 225.374 155.076 225.443 155.103C225.508 155.13 225.691 155.081 225.931 154.933C226.151 154.778 226.417 154.518 226.667 154.135C226.915 153.753 227.17 153.253 227.236 152.611C227.316 151.974 227.34 151.224 227.054 150.378C227.018 150.26 227.048 150.129 227.135 150.041C227.451 149.72 227.754 149.362 227.78 149.145C227.798 148.925 227.57 148.862 226.883 149.088C226.219 148.754 225.987 148.795 225.987 148.995C225.977 149.197 226.167 149.569 226.394 149.949Z" fill="black"/>
<path d="M219.116 131.588C219.236 131.585 219.349 131.653 219.406 131.759C219.605 132.142 219.829 132.439 220.013 132.744C220.198 133.046 220.388 133.301 220.583 133.518C220.989 133.936 221.334 134.285 221.695 134.509C222.423 134.947 223.027 135.065 223.149 134.977C223.26 134.897 223.378 134.244 222.942 133.439C222.73 133.035 222.426 132.555 221.887 132.174C221.627 131.976 221.328 131.784 220.992 131.61C220.658 131.433 220.24 131.327 219.811 131.225C219.688 131.198 219.587 131.108 219.551 130.989C219.483 130.772 219.406 130.554 219.32 130.376C219.226 130.209 219.128 130.079 219.033 130.018C218.842 129.896 218.682 130.066 218.566 130.775C217.961 131.196 217.891 131.419 218.067 131.513C218.156 131.561 218.31 131.579 218.5 131.58C218.682 131.593 218.895 131.594 219.116 131.588Z" fill="black"/>
<path d="M205.794 128.38C205.881 128.297 206.01 128.256 206.126 128.306C206.944 128.638 207.626 128.76 208.22 128.826C208.813 128.912 209.317 128.875 209.739 128.78C210.575 128.617 211.086 128.276 211.11 128.119C211.13 127.994 210.739 127.455 209.867 127.157C209.433 127.023 208.88 126.937 208.233 126.967C207.586 127.018 206.842 127.254 206.065 127.643C205.955 127.694 205.821 127.711 205.714 127.649C204.926 127.215 204.037 126.908 204.834 128.143C204.502 129.537 205.158 129.013 205.794 128.38Z" fill="black"/>
<path d="M190.573 140.784C190.531 140.673 190.561 140.545 190.644 140.457C190.942 140.145 191.183 139.847 191.384 139.562C191.614 139.289 191.797 139.026 191.943 138.772C192.09 138.518 192.198 138.272 192.28 138.037C192.383 137.813 192.456 137.599 192.506 137.395C192.698 136.584 192.551 135.958 192.44 135.885C192.31 135.801 191.694 135.949 191.054 136.615C190.893 136.78 190.731 136.975 190.575 137.203C190.443 137.442 190.321 137.715 190.216 138.02C190.112 138.326 190.027 138.664 189.97 139.032C189.944 139.41 189.953 139.821 190 140.255C190.014 140.377 189.959 140.5 189.857 140.573C189.086 141.103 188.541 141.809 189.968 141.559C191.182 142.413 190.86 141.588 190.573 140.784Z" fill="black"/>
<path d="M194.51 160.258C194.392 160.236 194.296 160.146 194.262 160.031C194.148 159.616 193.997 159.275 193.877 158.943C193.759 158.609 193.626 158.321 193.481 158.067C193.173 157.573 192.897 157.167 192.595 156.872C191.975 156.293 191.392 156.068 191.261 156.127C191.129 156.188 190.898 156.797 191.155 157.673C191.274 158.112 191.479 158.636 191.924 159.119C192.137 159.365 192.387 159.614 192.679 159.853C192.973 160.09 193.355 160.283 193.754 160.47C193.868 160.521 193.947 160.63 193.958 160.754C193.986 161.216 194.096 161.656 194.261 161.809C194.422 161.968 194.614 161.834 194.878 161.164C195.558 160.877 195.673 160.673 195.521 160.544C195.363 160.419 194.933 160.348 194.51 160.258Z" fill="black"/>
<path d="M224.113 158.582C224.116 158.701 224.048 158.811 223.942 158.866C223.213 159.274 222.588 159.609 222.16 160.001C221.94 160.191 221.764 160.393 221.605 160.581C221.436 160.758 221.3 160.937 221.188 161.111C220.745 161.808 220.697 162.447 220.791 162.561C220.878 162.668 221.501 162.715 222.312 162.306C222.514 162.204 222.728 162.074 222.944 161.911C223.15 161.739 223.345 161.519 223.54 161.27C223.916 160.762 224.314 160.141 224.477 159.274C224.503 159.155 224.592 159.058 224.71 159.024C225.579 158.78 226.421 158.384 224.958 158.085C224.166 156.903 224.09 157.715 224.113 158.582Z" fill="black"/>
<path d="M223.637 131.761C223.754 131.79 223.833 131.892 223.853 132.01C223.973 132.86 224.232 133.47 224.448 134.009C224.667 134.544 224.951 134.942 225.245 135.244C225.791 135.863 226.352 136.118 226.498 136.06C226.62 136.013 226.896 135.421 226.736 134.537C226.635 134.107 226.433 133.602 226.082 133.076C225.735 132.549 225.128 132.064 224.399 131.617C224.294 131.557 224.233 131.439 224.233 131.318C224.206 130.447 224.017 129.556 223.349 130.85C221.964 131.3 222.758 131.566 223.637 131.761Z" fill="black"/>
<path d="M196.135 128.603C196.175 128.493 196.28 128.417 196.401 128.405C197.254 128.316 197.9 128.123 198.468 127.956C199.023 127.773 199.432 127.489 199.769 127.245C200.443 126.772 200.723 126.203 200.677 126.064C200.634 125.933 200.065 125.659 199.15 125.735C198.698 125.779 198.186 125.976 197.632 126.289C197.068 126.583 196.528 127.127 196.041 127.84C195.973 127.941 195.852 127.998 195.727 127.986C194.807 127.899 193.933 128.083 195.181 128.804C195.557 130.219 195.841 129.398 196.135 128.603Z" fill="black"/>
<path d="M188.014 152.464C187.92 152.388 187.879 152.266 187.906 152.151C188.064 151.341 188.206 150.649 188.176 150.07C188.151 149.49 188.031 149.01 187.915 148.613C187.651 147.827 187.18 147.395 187.032 147.397C186.891 147.4 186.46 147.853 186.265 148.723C186.152 149.158 186.154 149.693 186.302 150.302C186.455 150.909 186.68 151.602 187.243 152.287C187.318 152.384 187.335 152.514 187.284 152.624C186.91 153.432 186.669 154.316 187.85 153.42C189.28 153.598 188.7 153.01 188.014 152.464Z" fill="black"/>
<path d="M206.929 168.783C206.831 168.852 206.7 168.858 206.595 168.803C205.84 168.435 205.199 168.148 204.628 168.007C204.058 167.867 203.556 167.87 203.141 167.867C202.308 167.9 201.753 168.224 201.712 168.365C201.674 168.498 201.993 169.031 202.796 169.459C203.192 169.692 203.723 169.816 204.359 169.846C204.995 169.88 205.739 169.818 206.556 169.468C206.671 169.422 206.802 169.44 206.897 169.518C207.592 170.088 208.395 170.551 207.825 169.192C208.372 167.883 207.644 168.277 206.929 168.783Z" fill="black"/>
</g>
</svg>
