<svg width="440" height="440" viewBox="0 0 440 440" fill="none" xmlns="http://www.w3.org/2000/svg">
<rect width="440" height="440" fill="#ffffff"/>
<g opacity="0.25">
<path d="M248.605 216.108L248.506 216.145C248.507 216.127 248.508 216.114 248.51 216.094C248.501 215.864 248.383 215.637 248.236 215.655C248.09 215.674 247.989 215.928 248.016 216.154C248.028 216.259 248.063 216.339 248.109 216.395C247.826 216.285 247.439 216.285 247.011 216.341C246.613 216.43 246.179 216.586 245.85 216.802C245.527 217.03 245.33 217.258 245.23 217.475C245.187 217.562 245.108 217.635 245.016 217.663C244.764 217.736 244.517 217.898 244.335 218.146C244.076 218.476 244.081 218.929 244.274 219.249C244.653 219.855 245.445 219.891 245.941 219.496C246.064 219.391 246.155 219.263 246.216 219.121C246.25 219.035 246.33 218.982 246.422 218.98C246.644 218.97 246.881 218.89 247.144 218.702C247.406 218.53 247.668 218.318 247.891 218.058C248.123 217.841 248.319 217.563 248.44 217.32C248.443 217.389 248.469 217.471 248.523 217.564C248.64 217.764 248.822 217.936 248.907 217.888C248.991 217.84 248.966 217.585 248.867 217.381C248.858 217.366 248.851 217.355 248.843 217.341C248.87 217.337 248.898 217.333 248.926 217.325C249.283 217.227 249.556 216.93 249.521 216.574C249.492 216.238 249.068 215.984 248.605 216.108Z" fill="black"/>
<path d="M240.302 224.933L240.246 225.021C240.236 225.006 240.229 224.995 240.218 224.979C240.069 224.8 239.835 224.689 239.729 224.79C239.624 224.892 239.701 225.154 239.861 225.318C239.936 225.395 240.013 225.437 240.084 225.455C239.791 225.534 239.483 225.764 239.177 226.062C238.914 226.369 238.665 226.75 238.535 227.117C238.418 227.489 238.401 227.788 238.456 228.02C238.476 228.114 238.457 228.219 238.401 228.296C238.245 228.503 238.148 228.778 238.155 229.084C238.154 229.5 238.437 229.858 238.788 229.999C239.463 230.258 240.117 229.817 240.268 229.21C240.302 229.053 240.295 228.897 240.256 228.748C240.231 228.659 240.262 228.57 240.334 228.514C240.504 228.375 240.644 228.17 240.737 227.865C240.841 227.573 240.919 227.248 240.936 226.91C240.987 226.6 240.972 226.262 240.919 225.997C240.963 226.049 241.034 226.1 241.135 226.143C241.352 226.232 241.603 226.261 241.64 226.173C241.679 226.085 241.502 225.897 241.297 225.793C241.28 225.786 241.268 225.781 241.253 225.776C241.272 225.755 241.291 225.736 241.309 225.713C241.533 225.424 241.567 225.026 241.321 224.762C241.09 224.512 240.595 224.56 240.302 224.933Z" fill="black"/>
<path d="M236.644 225.366L236.57 225.441C236.564 225.424 236.559 225.411 236.552 225.394C236.444 225.189 236.237 225.033 236.112 225.112C235.988 225.19 236.009 225.462 236.132 225.654C236.188 225.745 236.256 225.801 236.322 225.833C236.017 225.852 235.668 226.016 235.306 226.246C234.985 226.493 234.662 226.817 234.458 227.149C234.266 227.491 234.188 227.78 234.193 228.018C234.193 228.115 234.152 228.213 234.082 228.278C233.885 228.449 233.734 228.7 233.677 229C233.588 229.407 233.791 229.814 234.105 230.022C234.713 230.411 235.445 230.11 235.719 229.545C235.785 229.399 235.811 229.245 235.804 229.091C235.798 228.999 235.846 228.918 235.928 228.877C236.124 228.775 236.304 228.603 236.459 228.323C236.621 228.058 236.765 227.755 236.852 227.427C236.967 227.134 237.022 226.8 237.026 226.53C237.058 226.591 237.117 226.655 237.207 226.716C237.4 226.847 237.64 226.926 237.695 226.847C237.751 226.768 237.617 226.549 237.438 226.405C237.423 226.396 237.412 226.389 237.398 226.38C237.421 226.364 237.444 226.35 237.466 226.33C237.746 226.092 237.863 225.709 237.676 225.402C237.502 225.111 237.008 225.059 236.644 225.366Z" fill="black"/>
<path d="M255.572 216.974L255.48 216.973C255.486 216.958 255.492 216.945 255.499 216.928C255.569 216.709 255.549 216.456 255.441 216.423C255.327 216.394 255.187 216.581 255.107 216.797C255.072 216.897 255.063 216.983 255.073 217.052C254.738 216.632 254.078 216.173 253.386 215.971C253.047 215.869 252.736 215.862 252.512 215.921C252.42 215.944 252.308 215.93 252.228 215.869C252.017 215.707 251.727 215.605 251.392 215.628C250.946 215.638 250.558 215.945 250.458 216.294C250.289 216.979 250.739 217.577 251.313 217.694C251.464 217.72 251.622 217.725 251.769 217.687C251.857 217.668 251.945 217.692 252.008 217.761C252.164 217.929 252.372 218.056 252.726 218.16C253.397 218.359 254.406 218.358 254.926 218.022C254.892 218.084 254.873 218.168 254.881 218.276C254.895 218.503 255.043 218.75 255.171 218.735C255.303 218.725 255.38 218.481 255.355 218.254C255.351 218.236 255.348 218.224 255.344 218.207L255.441 218.224C255.884 218.273 256.26 218.008 256.276 217.659C256.291 217.315 255.976 217.019 255.572 216.974Z" fill="black"/>
<path d="M261.782 215.742L261.71 215.797C261.706 215.78 261.703 215.767 261.698 215.749C261.616 215.533 261.446 215.348 261.341 215.38C261.237 215.41 261.232 215.659 261.303 215.876C261.336 215.978 261.383 216.051 261.435 216.099C260.886 215.971 260.091 216.036 259.502 216.197C259.206 216.297 258.989 216.394 258.842 216.556C258.782 216.621 258.693 216.644 258.609 216.614C258.385 216.535 258.15 216.55 257.897 216.63C257.561 216.759 257.281 217.063 257.198 217.428C257.033 218.113 257.621 218.727 258.409 218.644C258.602 218.617 258.779 218.552 258.928 218.46C259.015 218.408 259.126 218.397 259.224 218.423C259.46 218.486 259.779 218.513 260.169 218.386C260.954 218.169 261.735 217.515 261.92 216.957C261.932 217.026 261.969 217.105 262.041 217.185C262.195 217.357 262.447 217.465 262.553 217.381C262.659 217.297 262.565 217.051 262.405 216.888C262.391 216.877 262.381 216.869 262.368 216.858L262.456 216.812C262.843 216.577 262.972 216.143 262.761 215.858C262.556 215.581 262.12 215.537 261.782 215.742Z" fill="black"/>
<path d="M262.524 210.586L262.476 210.661C262.466 210.647 262.458 210.636 262.447 210.621C262.294 210.445 262.069 210.33 261.982 210.395C261.895 210.459 261.978 210.694 262.121 210.874C262.189 210.958 262.258 211.01 262.324 211.038C261.764 211.105 261.041 211.434 260.545 211.785C260.302 211.979 260.133 212.143 260.052 212.344C260.019 212.426 259.943 212.478 259.854 212.478C259.616 212.48 259.4 212.573 259.191 212.735C258.921 212.969 258.767 213.349 258.818 213.719C258.904 214.418 259.673 214.795 260.382 214.451C260.554 214.36 260.697 214.239 260.805 214.103C260.868 214.024 260.968 213.976 261.069 213.968C261.313 213.947 261.621 213.864 261.943 213.613C262.603 213.143 263.106 212.265 263.081 211.679C263.118 211.74 263.18 211.801 263.276 211.852C263.482 211.962 263.755 211.977 263.826 211.863C263.895 211.747 263.721 211.549 263.513 211.45C263.495 211.444 263.483 211.44 263.467 211.434L263.534 211.361C263.813 211.01 263.782 210.559 263.483 210.364C263.193 210.173 262.769 210.279 262.524 210.586Z" fill="black"/>
<path d="M266.531 211.292L266.485 211.368C266.475 211.356 266.466 211.345 266.454 211.33C266.291 211.169 266.052 211.066 265.97 211.14C265.888 211.213 265.988 211.443 266.146 211.612C266.22 211.69 266.294 211.737 266.362 211.759C265.809 211.872 265.094 212.279 264.639 212.739C264.391 212.979 264.259 213.209 264.205 213.425C264.182 213.512 264.117 213.583 264.029 213.61C263.793 213.679 263.581 213.832 263.422 214.054C263.212 214.366 263.178 214.779 263.342 215.117C263.644 215.757 264.483 215.882 265.039 215.394C265.172 215.272 265.272 215.128 265.336 214.976C265.374 214.886 265.456 214.821 265.552 214.799C265.783 214.745 266.03 214.604 266.296 214.346C266.836 213.804 267.242 212.921 267.17 212.338C267.211 212.396 267.279 212.451 267.379 212.495C267.592 212.587 267.864 212.584 267.922 212.465C267.98 212.347 267.798 212.166 267.58 212.08C267.562 212.075 267.549 212.071 267.533 212.067L267.597 211.992C267.838 211.618 267.781 211.174 267.474 211.001C267.166 210.83 266.743 210.96 266.531 211.292Z" fill="black"/>
<path d="M241.712 218.706L241.686 218.791C241.672 218.78 241.661 218.773 241.646 218.761C241.449 218.642 241.191 218.597 241.129 218.687C241.067 218.778 241.221 218.979 241.415 219.106C241.506 219.165 241.589 219.194 241.66 219.2C241.15 219.437 240.554 219.998 240.223 220.551C240.04 220.841 239.967 221.095 239.967 221.317C239.966 221.407 239.919 221.492 239.84 221.538C239.627 221.66 239.459 221.857 239.358 222.11C239.229 222.461 239.297 222.871 239.536 223.161C239.984 223.713 240.83 223.64 241.252 223.037C241.352 222.888 241.414 222.725 241.44 222.562C241.455 222.467 241.519 222.383 241.607 222.341C241.819 222.235 242.024 222.04 242.221 221.727C242.614 221.076 242.797 220.124 242.585 219.574C242.639 219.62 242.718 219.659 242.826 219.678C243.055 219.719 243.318 219.653 243.346 219.524C243.374 219.395 243.154 219.261 242.921 219.228C242.902 219.228 242.889 219.227 242.872 219.227L242.917 219.139C243.06 218.72 242.898 218.301 242.558 218.205C242.217 218.11 241.837 218.334 241.712 218.706Z" fill="black"/>
<path d="M268.551 205.276L268.555 205.365C268.538 205.359 268.526 205.354 268.508 205.348C268.281 205.29 268.025 205.32 267.995 205.426C267.961 205.531 268.167 205.68 268.39 205.746C268.494 205.776 268.582 205.779 268.652 205.764C268.237 206.138 267.84 206.857 267.687 207.469C267.603 207.78 267.612 208.031 267.665 208.236C267.688 208.319 267.667 208.41 267.604 208.472C267.443 208.637 267.307 208.845 267.281 209.111C267.238 209.469 267.381 209.848 267.683 210.091C268.222 210.544 269.062 210.313 269.333 209.601C269.405 209.428 269.432 209.25 269.412 209.079C269.403 208.979 269.443 208.88 269.518 208.813C269.705 208.652 269.85 208.394 269.949 208.019C270.137 207.276 270.016 206.32 269.649 205.856C269.715 205.885 269.801 205.899 269.91 205.886C270.143 205.859 270.376 205.722 270.365 205.591C270.351 205.461 270.095 205.396 269.866 205.431C269.849 205.435 269.836 205.439 269.819 205.444L269.832 205.347C269.857 204.907 269.572 204.553 269.213 204.556C268.863 204.559 268.574 204.881 268.551 205.276Z" fill="black"/>
<path d="M272.823 185.834L272.747 185.884C272.744 185.867 272.741 185.854 272.738 185.836C272.67 185.616 272.51 185.418 272.402 185.448C272.294 185.475 272.271 185.724 272.33 185.945C272.358 186.048 272.401 186.123 272.45 186.174C271.908 186.022 271.075 186.064 270.461 186.255C270.147 186.348 269.934 186.486 269.783 186.637C269.722 186.7 269.631 186.73 269.546 186.709C269.317 186.66 269.066 186.655 268.82 186.772C268.486 186.923 268.23 187.24 268.176 187.619C268.062 188.306 268.701 188.888 269.463 188.744C269.651 188.713 269.82 188.643 269.959 188.537C270.041 188.478 270.149 188.459 270.246 188.487C270.484 188.56 270.784 188.545 271.162 188.434C271.907 188.202 272.678 187.604 272.891 187.055C272.899 187.125 272.932 187.204 273 187.289C273.144 187.469 273.386 187.592 273.494 187.515C273.6 187.436 273.524 187.188 273.373 187.015C273.36 187.002 273.351 186.994 273.338 186.982L273.429 186.942C273.825 186.735 273.985 186.311 273.795 186.013C273.611 185.722 273.179 185.648 272.823 185.834Z" fill="black"/>
<path d="M267.953 198.576V198.677C267.937 198.671 267.925 198.666 267.907 198.659C267.683 198.597 267.423 198.636 267.39 198.773C267.368 198.91 267.588 199.077 267.817 199.124C267.924 199.147 268.013 199.14 268.08 199.116C267.667 199.559 267.505 200.555 267.651 201.27C267.719 201.63 267.846 201.879 267.999 202.037C268.062 202.102 268.088 202.196 268.063 202.282C267.993 202.517 267.999 202.736 268.096 202.993C268.232 203.332 268.56 203.596 268.935 203.662C269.641 203.792 270.238 203.198 270.137 202.449C270.107 202.264 270.043 202.084 269.945 201.952C269.888 201.873 269.875 201.77 269.909 201.68C269.99 201.455 270.006 201.19 269.943 200.853C269.813 200.198 269.46 199.506 269.082 199.109C269.149 199.13 269.238 199.133 269.344 199.113C269.572 199.067 269.79 198.947 269.765 198.847C269.75 198.748 269.498 198.692 269.266 198.722C269.248 198.727 269.236 198.729 269.22 198.734C269.225 198.705 269.232 198.679 269.235 198.649C269.252 198.274 269.026 197.925 268.681 197.863C268.329 197.799 267.977 198.116 267.953 198.576Z" fill="black"/>
<path d="M265.5 195.798L265.468 195.895C265.455 195.884 265.444 195.875 265.43 195.863C265.235 195.737 264.976 195.696 264.902 195.817C264.838 195.94 264.996 196.165 265.199 196.279C265.293 196.333 265.379 196.352 265.451 196.35C264.921 196.648 264.454 197.548 264.37 198.272C264.322 198.635 264.367 198.91 264.462 199.107C264.501 199.188 264.497 199.285 264.447 199.359C264.307 199.562 264.244 199.773 264.256 200.046C264.28 200.41 264.51 200.76 264.845 200.934C265.477 201.27 266.232 200.883 266.369 200.14C266.398 199.955 266.394 199.764 266.342 199.609C266.312 199.517 266.332 199.415 266.392 199.339C266.539 199.15 266.638 198.902 266.683 198.562C266.763 197.9 266.643 197.135 266.407 196.644C266.465 196.683 266.548 196.713 266.656 196.726C266.887 196.751 267.132 196.701 267.14 196.598C267.156 196.5 266.934 196.371 266.704 196.331C266.686 196.33 266.673 196.328 266.656 196.327C266.67 196.303 266.685 196.279 266.697 196.252C266.83 195.9 266.725 195.5 266.415 195.337C266.1 195.171 265.665 195.367 265.5 195.798Z" fill="black"/>
<path d="M271.116 192.268L271.056 192.346C271.047 192.33 271.041 192.319 271.032 192.302C270.896 192.114 270.674 191.982 270.571 192.061C270.468 192.141 270.528 192.398 270.667 192.581C270.733 192.666 270.803 192.719 270.87 192.745C270.278 192.802 269.479 193.352 269.053 194.004C268.841 194.335 268.734 194.609 268.749 194.862C268.752 194.962 268.709 195.063 268.629 195.127C268.416 195.296 268.24 195.549 268.197 195.874C268.115 196.305 268.305 196.718 268.648 196.908C269.27 197.238 269.998 196.938 270.231 196.408C270.296 196.271 270.333 196.128 270.33 195.981C270.33 195.894 270.378 195.816 270.455 195.775C270.632 195.673 270.838 195.517 271.009 195.247C271.35 194.723 271.632 193.945 271.624 193.391C271.661 193.45 271.724 193.511 271.818 193.564C272.021 193.677 272.277 193.719 272.333 193.622C272.391 193.525 272.234 193.321 272.035 193.203C272.018 193.195 272.007 193.19 271.992 193.183L272.058 193.121C272.324 192.818 272.38 192.404 272.125 192.153C271.88 191.912 271.407 191.938 271.116 192.268Z" fill="black"/>
<path d="M275.663 187.039L275.595 187.111C275.588 187.095 275.583 187.082 275.575 187.065C275.459 186.865 275.252 186.711 275.141 186.78C275.031 186.85 275.064 187.111 275.185 187.307C275.241 187.398 275.305 187.457 275.369 187.49C274.774 187.489 273.922 187.958 273.432 188.565C273.188 188.874 273.054 189.135 273.043 189.389C273.035 189.489 272.982 189.584 272.896 189.641C272.668 189.788 272.466 190.022 272.39 190.341C272.265 190.762 272.412 191.192 272.733 191.415C273.319 191.804 274.074 191.578 274.36 191.072C274.438 190.942 274.49 190.804 274.502 190.657C274.51 190.571 274.567 190.498 274.647 190.465C274.834 190.38 275.054 190.245 275.252 189.993C275.645 189.505 276.005 188.758 276.054 188.206C276.084 188.269 276.141 188.335 276.229 188.397C276.42 188.53 276.669 188.596 276.736 188.506C276.803 188.415 276.667 188.196 276.482 188.059C276.466 188.05 276.455 188.044 276.441 188.035L276.513 187.98C276.808 187.705 276.907 187.298 276.678 187.023C276.459 186.76 275.986 186.739 275.663 187.039Z" fill="black"/>
<path d="M252.343 219.608L252.239 219.607C252.246 219.591 252.252 219.579 252.26 219.562C252.334 219.343 252.301 219.088 252.16 219.055C252.031 219.026 251.862 219.234 251.808 219.455C251.782 219.559 251.786 219.646 251.806 219.713C251.392 219.312 250.508 219.064 249.789 219.126C249.425 219.153 249.159 219.259 248.977 219.399C248.902 219.458 248.801 219.48 248.709 219.453C248.464 219.378 248.175 219.394 247.893 219.524C247.508 219.699 247.262 220.096 247.306 220.467C247.418 221.155 248.016 221.578 248.583 221.479C248.732 221.453 248.865 221.389 248.986 221.306C249.057 221.256 249.148 221.249 249.226 221.288C249.418 221.386 249.659 221.426 249.982 221.402C250.615 221.347 251.378 221.063 251.777 220.693C251.755 220.759 251.747 220.846 251.764 220.95C251.8 221.176 251.911 221.396 252.01 221.378C252.098 221.362 252.159 221.116 252.142 220.89C252.139 220.872 252.137 220.86 252.134 220.844C252.16 220.85 252.184 220.856 252.211 220.858C252.31 220.864 252.347 220.86 252.425 220.837C252.521 220.824 252.612 220.796 252.69 220.754C252.849 220.669 252.963 220.532 252.999 220.362C253.035 220.192 252.987 220.022 252.886 219.886C252.834 219.817 252.77 219.757 252.694 219.709C252.598 219.661 252.446 219.613 252.343 219.608Z" fill="black"/>
<path d="M245.38 221.486L245.316 221.566C245.307 221.55 245.301 221.539 245.292 221.522C245.159 221.333 244.932 221.203 244.82 221.293C244.718 221.377 244.785 221.634 244.932 221.81C245.001 221.893 245.073 221.942 245.14 221.968C244.563 222.048 243.826 222.586 243.441 223.185C243.243 223.485 243.169 223.756 243.171 223.982C243.174 224.077 243.132 224.169 243.053 224.224C242.844 224.37 242.681 224.605 242.616 224.904C242.526 225.31 242.699 225.741 243.027 225.932C243.653 226.261 244.359 226.051 244.623 225.549C244.691 225.418 244.721 225.275 244.726 225.13C244.728 225.045 244.779 224.971 244.857 224.933C245.053 224.843 245.231 224.678 245.407 224.412C245.746 223.886 245.977 223.12 245.919 222.584C245.959 222.641 246.025 222.699 246.12 222.75C246.325 222.859 246.571 222.905 246.616 222.816C246.657 222.739 246.494 222.542 246.299 222.418C246.283 222.41 246.272 222.404 246.258 222.397C246.277 222.38 246.298 222.365 246.316 222.346C246.381 222.272 246.399 222.241 246.428 222.166C246.476 222.083 246.507 221.996 246.52 221.908C246.549 221.733 246.506 221.562 246.39 221.431C246.273 221.3 246.106 221.234 245.934 221.231C245.847 221.229 245.759 221.243 245.674 221.273C245.578 221.318 245.447 221.408 245.38 221.486Z" fill="black"/>
<path d="M258.693 219.95C258.664 219.954 258.636 219.963 258.608 219.971C258.611 219.954 258.613 219.941 258.616 219.923C258.627 219.694 258.547 219.453 258.44 219.448C258.333 219.439 258.23 219.661 258.212 219.888C258.204 219.994 258.218 220.079 258.246 220.144C257.807 219.81 257.035 219.593 256.408 219.586C256.088 219.576 255.849 219.641 255.665 219.754C255.589 219.803 255.497 219.798 255.424 219.753C255.226 219.629 254.989 219.573 254.727 219.62C254.373 219.671 254.05 219.923 253.907 220.274C253.635 220.916 254.069 221.622 254.785 221.684C254.962 221.7 255.133 221.676 255.285 221.621C255.375 221.587 255.476 221.607 255.555 221.656C255.748 221.781 256.02 221.86 256.388 221.87C257.119 221.879 257.989 221.552 258.358 221.118C258.343 221.187 258.348 221.273 258.381 221.375C258.453 221.592 258.629 221.793 258.749 221.755C258.869 221.713 258.881 221.457 258.803 221.243C258.795 221.227 258.789 221.216 258.782 221.201L258.876 221.194C259.296 221.128 259.58 220.796 259.509 220.456C259.439 220.116 259.074 219.889 258.693 219.95Z" fill="black"/>
<path d="M237.385 219.725C237.373 219.752 237.366 219.78 237.358 219.807C237.344 219.795 237.334 219.787 237.319 219.774C237.129 219.642 236.879 219.577 236.816 219.663C236.751 219.746 236.886 219.951 237.071 220.089C237.159 220.153 237.239 220.186 237.31 220.198C236.786 220.38 236.183 220.9 235.838 221.413C235.658 221.672 235.583 221.903 235.582 222.117C235.582 222.205 235.529 222.278 235.45 222.315C235.237 222.41 235.061 222.576 234.96 222.818C234.812 223.137 234.854 223.539 235.079 223.847C235.484 224.418 236.324 224.44 236.765 223.884C236.874 223.747 236.945 223.593 236.98 223.438C237 223.345 237.071 223.273 237.157 223.234C237.368 223.142 237.582 222.961 237.79 222.663C238.192 222.065 238.381 221.171 238.207 220.633C238.258 220.681 238.335 220.724 238.44 220.751C238.666 220.81 238.934 220.774 238.966 220.654C238.995 220.532 238.782 220.384 238.555 220.333C238.537 220.331 238.525 220.329 238.508 220.328L238.552 220.246C238.722 219.864 238.591 219.451 238.261 219.326C237.931 219.2 237.538 219.379 237.385 219.725Z" fill="black"/>
<path d="M264.531 217.809C264.505 217.824 264.484 217.843 264.461 217.861C264.456 217.845 264.453 217.832 264.448 217.814C264.362 217.602 264.188 217.414 264.086 217.45C263.985 217.487 263.989 217.739 264.069 217.954C264.107 218.055 264.156 218.127 264.208 218.173C263.66 218.035 262.872 218.165 262.297 218.404C262.012 218.543 261.813 218.674 261.693 218.851C261.643 218.921 261.561 218.961 261.476 218.95C261.249 218.928 261.01 218.962 260.788 219.099C260.49 219.289 260.302 219.657 260.309 220.025C260.319 220.732 261.001 221.191 261.692 220.973C261.865 220.926 262.009 220.827 262.125 220.712C262.193 220.643 262.291 220.614 262.387 220.631C262.615 220.668 262.908 220.652 263.24 220.493C263.916 220.21 264.562 219.547 264.721 219.016C264.737 219.084 264.777 219.161 264.851 219.239C265.007 219.407 265.247 219.512 265.339 219.428C265.432 219.344 265.335 219.106 265.174 218.942C265.16 218.93 265.15 218.922 265.137 218.912L265.22 218.869C265.581 218.65 265.697 218.23 265.488 217.943C265.285 217.665 264.86 217.609 264.531 217.809Z" fill="black"/>
<path d="M269.117 213.606C269.099 213.63 269.087 213.655 269.072 213.68C269.062 213.666 269.054 213.656 269.042 213.641C268.884 213.474 268.652 213.361 268.572 213.432C268.496 213.505 268.582 213.731 268.737 213.903C268.808 213.982 268.881 214.032 268.947 214.057C268.667 214.089 268.353 214.208 268.062 214.378C267.758 214.537 267.468 214.741 267.255 214.969C267.029 215.194 266.9 215.402 266.855 215.611C266.836 215.695 266.775 215.764 266.692 215.788C266.472 215.855 266.26 215.977 266.11 216.192C265.906 216.481 265.886 216.9 266.044 217.235C266.345 217.877 267.148 218.023 267.693 217.568C267.831 217.459 267.926 217.318 267.984 217.167C268.019 217.079 268.097 217.015 268.19 216.996C268.415 216.946 268.667 216.82 268.924 216.563C269.169 216.303 269.394 215.971 269.546 215.634C269.686 215.284 269.76 214.937 269.737 214.659C269.777 214.717 269.843 214.774 269.941 214.822C270.149 214.923 270.422 214.943 270.472 214.828C270.526 214.716 270.348 214.529 270.137 214.434C270.119 214.428 270.107 214.424 270.091 214.419L270.152 214.348C270.398 214.01 270.356 213.581 270.06 213.391C269.763 213.202 269.341 213.298 269.117 213.606Z" fill="black"/>
<path d="M271.68 208.035C271.673 208.064 271.671 208.092 271.667 208.12C271.652 208.111 271.64 208.106 271.624 208.096C271.411 208.008 271.15 207.996 271.103 208.092C271.056 208.187 271.239 208.36 271.45 208.456C271.55 208.5 271.636 208.516 271.707 208.513C271.24 208.802 270.764 209.437 270.533 210.004C270.427 210.298 270.396 210.534 270.432 210.74C270.448 210.823 270.418 210.908 270.35 210.96C270.172 211.1 270.034 211.295 269.973 211.544C269.898 211.885 270.036 212.277 270.307 212.53C270.828 213.02 271.637 212.866 271.969 212.235C272.057 212.083 272.081 211.91 272.083 211.749C272.082 211.654 272.13 211.566 272.21 211.511C272.405 211.381 272.586 211.163 272.71 210.82C272.981 210.153 272.972 209.238 272.679 208.748C272.74 208.785 272.824 208.812 272.932 208.816C273.165 208.826 273.413 208.732 273.419 208.608C273.426 208.485 273.188 208.385 272.953 208.383C272.935 208.384 272.922 208.385 272.905 208.387L272.935 208.299C273.021 207.892 272.789 207.514 272.442 207.46C272.089 207.405 271.759 207.665 271.68 208.035Z" fill="black"/>
<path d="M271.782 201.889C271.786 201.918 271.795 201.945 271.803 201.973C271.785 201.97 271.772 201.969 271.753 201.966C271.521 201.961 271.275 202.045 271.268 202.152C271.261 202.26 271.497 202.355 271.73 202.367C271.839 202.371 271.925 202.355 271.989 202.325C271.665 202.767 271.47 203.542 271.49 204.159C271.512 204.474 271.57 204.706 271.693 204.881C271.742 204.953 271.751 205.043 271.709 205.118C271.606 205.318 271.544 205.551 271.603 205.805C271.686 206.149 271.95 206.451 272.312 206.576C272.984 206.814 273.678 206.354 273.71 205.649C273.721 205.475 273.692 205.309 273.62 205.162C273.58 205.076 273.588 204.977 273.638 204.897C273.757 204.703 273.844 204.434 273.82 204.075C273.797 203.364 273.437 202.534 272.98 202.188C273.051 202.2 273.139 202.193 273.242 202.158C273.461 202.082 273.656 201.906 273.615 201.791C273.574 201.675 273.315 201.67 273.096 201.752C273.08 201.76 273.068 201.766 273.053 201.773L273.047 201.681C272.989 201.324 272.687 201.058 272.331 201.071C271.978 201.083 271.711 201.461 271.782 201.889Z" fill="black"/>
<path d="M272.465 195.227L272.439 195.32C272.426 195.309 272.415 195.3 272.4 195.289C272.203 195.164 271.947 195.121 271.881 195.236C271.814 195.352 271.968 195.568 272.17 195.681C272.265 195.733 272.351 195.754 272.423 195.753C271.918 196.033 271.431 196.847 271.331 197.557C271.277 197.917 271.319 198.192 271.422 198.397C271.463 198.481 271.459 198.581 271.413 198.661C271.29 198.877 271.228 199.146 271.291 199.431C271.368 199.818 271.68 200.125 272.051 200.207C272.75 200.352 273.361 199.86 273.395 199.257C273.406 199.103 273.377 198.956 273.317 198.82C273.282 198.74 273.3 198.652 273.357 198.585C273.493 198.422 273.591 198.2 273.638 197.892C273.723 197.285 273.634 196.532 273.377 196.051C273.435 196.091 273.518 196.12 273.625 196.134C273.857 196.163 274.105 196.122 274.115 196.025C274.126 195.928 273.901 195.8 273.674 195.759C273.656 195.757 273.643 195.756 273.627 195.755C273.639 195.731 273.652 195.707 273.661 195.681C273.797 195.354 273.671 194.967 273.369 194.8C273.054 194.627 272.633 194.817 272.465 195.227Z" fill="black"/>
<path d="M257.591 223.635L257.498 223.641C257.504 223.625 257.508 223.612 257.514 223.595C257.569 223.372 257.531 223.12 257.421 223.096C257.31 223.075 257.16 223.278 257.097 223.494C257.068 223.596 257.066 223.683 257.084 223.751C256.903 223.553 256.639 223.372 256.348 223.231C256.203 223.152 256.054 223.072 255.901 223.01C255.82 222.98 255.744 222.951 255.671 222.924L255.556 222.888C255.465 222.868 255.376 222.849 255.289 222.83C255.201 222.826 255.118 222.824 255.036 222.821C254.683 222.813 254.414 222.87 254.212 222.978C254.129 223.022 254.028 223.025 253.946 222.979C253.726 222.859 253.465 222.803 253.182 222.845C252.799 222.903 252.466 223.155 252.315 223.502C252.02 224.147 252.521 224.852 253.287 224.915C253.476 224.931 253.657 224.906 253.818 224.848C253.913 224.814 254.021 224.827 254.105 224.88C254.309 225.01 254.591 225.095 254.982 225.104C255.055 225.106 255.058 225.105 255.064 225.102L255.067 225.098C255.081 225.099 255 225.083 255.055 225.091L255.201 225.104C255.296 225.108 255.394 225.112 255.497 225.116C255.695 225.116 255.89 225.109 256.077 225.079C256.454 225.006 256.786 224.886 257.009 224.729C256.981 224.793 256.968 224.879 256.984 224.986C257.017 225.217 257.168 225.444 257.306 225.42C257.444 225.401 257.506 225.151 257.463 224.927C257.457 224.91 257.453 224.897 257.448 224.882L257.55 224.892C258.015 224.908 258.378 224.622 258.363 224.268C258.348 223.928 258.002 223.65 257.591 223.635Z" fill="black"/>
<path d="M264.126 222.174L264.044 222.223C264.042 222.206 264.04 222.193 264.038 222.174C263.981 221.951 263.828 221.747 263.715 221.777C263.6 221.802 263.561 222.05 263.61 222.274C263.634 222.378 263.674 222.454 263.722 222.507C263.17 222.332 262.306 222.383 261.66 222.57C261.33 222.66 261.105 222.801 260.949 222.962C260.885 223.024 260.791 223.052 260.701 223.03C260.462 222.967 260.205 222.995 259.949 223.105C259.601 223.246 259.341 223.583 259.288 223.96C259.179 224.656 259.835 225.205 260.611 225.07C260.801 225.032 260.973 224.957 261.116 224.858C261.2 224.8 261.31 224.784 261.41 224.813C261.648 224.876 261.952 224.862 262.338 224.755C263.097 224.535 263.884 223.938 264.13 223.403C264.135 223.473 264.166 223.554 264.231 223.64C264.369 223.825 264.608 223.959 264.72 223.886C264.829 223.808 264.765 223.558 264.622 223.379C264.608 223.366 264.599 223.357 264.588 223.345L264.681 223.308C265.088 223.107 265.281 222.697 265.112 222.392C264.942 222.087 264.501 221.989 264.126 222.174Z" fill="black"/>
<path d="M274.609 218.138L274.571 218.223C274.559 218.211 274.55 218.201 274.537 218.187C274.361 218.035 274.116 217.952 274.041 218.04C273.96 218.125 274.073 218.351 274.243 218.507C274.323 218.579 274.401 218.62 274.471 218.636C273.915 218.801 273.234 219.324 272.812 219.838C272.592 220.097 272.49 220.338 272.456 220.557C272.439 220.644 272.377 220.719 272.291 220.751C272.058 220.833 271.862 220.998 271.716 221.232C271.512 221.541 271.495 221.965 271.67 222.303C271.984 222.937 272.843 223.023 273.403 222.478C273.536 222.341 273.634 222.184 273.694 222.023C273.73 221.928 273.811 221.853 273.909 221.822C274.143 221.741 274.384 221.559 274.639 221.257C275.135 220.652 275.435 219.723 275.326 219.146C275.372 219.2 275.443 219.25 275.547 219.285C275.769 219.36 276.043 219.336 276.092 219.213C276.137 219.089 275.939 218.919 275.716 218.851C275.699 218.848 275.686 218.846 275.669 218.842L275.724 218.76C275.943 218.368 275.863 217.923 275.547 217.767C275.23 217.611 274.81 217.776 274.609 218.138Z" fill="black"/>
<path d="M269.712 218.298L269.649 218.369C269.642 218.354 269.636 218.341 269.627 218.324C269.504 218.13 269.292 217.982 269.192 218.046C269.093 218.112 269.135 218.365 269.253 218.559C269.309 218.65 269.373 218.711 269.435 218.745C268.848 218.748 268.037 219.092 267.486 219.509C267.211 219.727 267.036 219.923 266.951 220.135C266.916 220.22 266.84 220.285 266.748 220.301C266.506 220.349 266.259 220.453 266.065 220.663C265.803 220.948 265.703 221.362 265.812 221.717C266.017 222.396 266.838 222.63 267.473 222.212C267.633 222.113 267.759 221.983 267.845 221.834C267.897 221.748 267.989 221.691 268.089 221.68C268.328 221.651 268.616 221.55 268.919 221.311C269.529 220.849 270.05 220.044 270.113 219.467C270.142 219.531 270.197 219.599 270.286 219.661C270.479 219.794 270.744 219.846 270.82 219.74C270.898 219.636 270.758 219.419 270.565 219.291C270.549 219.283 270.537 219.277 270.522 219.269L270.599 219.207C270.922 218.899 270.978 218.454 270.724 218.211C270.471 217.969 270.017 218.008 269.712 218.298Z" fill="black"/>
<path d="M273.809 212.985L273.777 213.072C273.764 213.06 273.754 213.05 273.74 213.038C273.552 212.901 273.301 212.837 273.233 212.928C273.168 213.019 273.3 213.237 273.479 213.378C273.564 213.444 273.645 213.479 273.716 213.49C273.168 213.689 272.539 214.25 272.141 214.79C271.944 215.069 271.855 215.316 271.827 215.535C271.818 215.625 271.763 215.707 271.679 215.747C271.458 215.855 271.267 216.034 271.133 216.284C270.959 216.626 270.987 217.056 271.195 217.366C271.591 217.959 272.438 217.951 272.933 217.38C273.056 217.24 273.133 217.073 273.178 216.909C273.204 216.812 273.277 216.731 273.371 216.693C273.603 216.604 273.831 216.41 274.058 216.09C274.518 215.465 274.753 214.503 274.608 213.937C274.657 213.987 274.733 214.032 274.839 214.059C275.068 214.118 275.338 214.072 275.372 213.941C275.408 213.811 275.199 213.657 274.97 213.608C274.952 213.606 274.939 213.605 274.922 213.603L274.972 213.516C275.173 213.109 275.037 212.665 274.706 212.538C274.377 212.412 273.99 212.619 273.809 212.985Z" fill="black"/>
<path d="M275.338 206.487L275.339 206.582C275.323 206.576 275.31 206.57 275.293 206.563C275.068 206.499 274.81 206.528 274.775 206.642C274.742 206.757 274.946 206.918 275.169 206.985C275.274 207.016 275.362 207.019 275.431 207.003C275.002 207.393 274.645 208.195 274.523 208.861C274.47 209.203 274.487 209.464 274.564 209.673C274.596 209.758 274.584 209.855 274.527 209.927C274.381 210.121 274.27 210.355 274.271 210.636C274.277 211.016 274.46 211.381 274.791 211.583C275.391 211.964 276.188 211.61 276.373 210.87C276.425 210.689 276.429 210.508 276.392 210.34C276.371 210.242 276.401 210.138 276.468 210.064C276.632 209.883 276.764 209.615 276.822 209.237C276.959 208.489 276.781 207.559 276.429 207.092C276.494 207.121 276.581 207.135 276.69 207.121C276.922 207.094 277.154 206.96 277.143 206.832C277.133 206.705 276.88 206.636 276.649 206.667C276.631 206.672 276.619 206.674 276.602 206.679C276.609 206.647 276.615 206.616 276.617 206.583C276.646 206.148 276.383 205.779 276.029 205.76C275.675 205.741 275.366 206.066 275.338 206.487Z" fill="black"/>
<path d="M274.777 199.746C274.782 199.779 274.792 199.811 274.8 199.842C274.782 199.839 274.769 199.836 274.75 199.833C274.516 199.818 274.271 199.904 274.268 200.031C274.264 200.156 274.504 200.274 274.737 200.286C274.847 200.292 274.932 200.274 274.996 200.24C274.676 200.73 274.557 201.639 274.673 202.336C274.731 202.691 274.842 202.939 274.989 203.114C275.051 203.186 275.072 203.282 275.043 203.37C274.964 203.601 274.963 203.865 275.05 204.104C275.114 204.286 275.212 204.363 275.344 204.516C275.473 204.657 275.639 204.764 275.824 204.816C276.168 204.914 276.501 204.832 276.753 204.633C276.88 204.545 276.981 204.391 277.045 204.194C277.104 204.019 277.132 203.818 277.11 203.632C277.09 203.44 277.028 203.269 276.938 203.127C276.886 203.042 276.878 202.934 276.915 202.845C277.005 202.624 277.034 202.339 276.975 201.974C276.856 201.255 276.44 200.449 275.985 200.087C276.056 200.099 276.143 200.091 276.246 200.053C276.464 199.971 276.657 199.795 276.617 199.682C276.575 199.568 276.315 199.557 276.096 199.637C276.08 199.645 276.068 199.65 276.053 199.658L276.047 199.564C275.984 199.149 275.662 198.851 275.309 198.885C274.957 198.919 274.712 199.312 274.777 199.746Z" fill="black"/>
<path d="M245.151 213.048C245.143 213.074 245.14 213.101 245.135 213.127C245.121 213.117 245.11 213.109 245.094 213.099C244.888 212.986 244.643 212.941 244.587 213.015C244.526 213.087 244.68 213.272 244.872 213.401C244.961 213.461 245.043 213.493 245.113 213.502C244.625 213.699 243.999 214.123 243.626 214.593C243.421 214.827 243.311 215.044 243.283 215.255C243.271 215.341 243.216 215.415 243.134 215.443C242.904 215.511 242.701 215.653 242.561 215.881C242.38 216.195 242.351 216.599 242.532 216.931C242.86 217.55 243.694 217.678 244.217 217.167C244.348 217.044 244.444 216.9 244.504 216.75C244.536 216.657 244.612 216.584 244.705 216.555C244.932 216.482 245.182 216.327 245.433 216.036C245.918 215.439 246.232 214.483 246.027 213.904C246.079 213.953 246.156 213.994 246.263 214.016C246.493 214.063 246.765 213.992 246.802 213.855C246.835 213.716 246.603 213.576 246.374 213.552H246.326L246.365 213.458C246.523 213.014 246.302 212.595 245.947 212.542C245.601 212.491 245.27 212.722 245.151 213.048Z" fill="black"/>
<path d="M244.706 206.804L244.719 206.897C244.702 206.893 244.689 206.889 244.67 206.885C244.44 206.852 244.187 206.915 244.171 207.037C244.154 207.16 244.386 207.289 244.618 207.317C244.726 207.331 244.813 207.319 244.879 207.292C244.507 207.706 244.351 208.682 244.505 209.371C244.579 209.725 244.7 209.948 244.857 210.107C244.922 210.173 244.948 210.262 244.921 210.344C244.853 210.567 244.861 210.806 244.957 211.03C245.098 211.338 245.395 211.573 245.78 211.662C246.127 211.739 246.461 211.658 246.689 211.432C246.928 211.205 247.05 210.846 246.995 210.477C246.967 210.293 246.894 210.137 246.8 210.001C246.744 209.92 246.731 209.818 246.764 209.733C246.842 209.522 246.858 209.244 246.79 208.921C246.65 208.28 246.297 207.617 245.878 207.216C245.947 207.232 246.035 207.23 246.14 207.201C246.364 207.14 246.569 206.989 246.541 206.882C246.513 206.775 246.254 206.745 246.029 206.802C246.012 206.809 245.999 206.813 245.984 206.819L245.987 206.731C245.959 206.337 245.669 206.025 245.314 206.032C244.96 206.039 244.677 206.387 244.706 206.804Z" fill="black"/>
<path d="M245.69 200.078L245.66 200.17C245.646 200.158 245.636 200.15 245.622 200.137C245.43 200.006 245.175 199.954 245.103 200.064C245.032 200.174 245.176 200.396 245.372 200.518C245.464 200.576 245.548 200.601 245.62 200.603C245.109 200.863 244.549 201.662 244.423 202.399C244.34 202.768 244.389 203.055 244.473 203.271C244.509 203.359 244.503 203.461 244.455 203.544C244.328 203.762 244.255 204.041 244.312 204.334C244.386 204.734 244.68 205.051 245.057 205.143C245.75 205.307 246.371 204.81 246.421 204.2C246.436 204.045 246.411 203.896 246.355 203.757C246.32 203.675 246.34 203.585 246.401 203.52C246.553 203.363 246.641 203.138 246.712 202.834C246.814 202.225 246.793 201.457 246.558 200.947C246.613 200.99 246.695 201.025 246.802 201.043C247.032 201.082 247.286 201.044 247.303 200.942C247.322 200.84 247.103 200.702 246.876 200.654C246.858 200.652 246.846 200.65 246.829 200.648C246.843 200.624 246.858 200.6 246.87 200.573C247.012 200.222 246.919 199.826 246.6 199.66C246.294 199.5 245.857 199.674 245.69 200.078Z" fill="black"/>
<path d="M250.173 199.217L250.124 199.301C250.114 199.287 250.106 199.277 250.094 199.261C249.934 199.094 249.695 198.992 249.602 199.086C249.51 199.179 249.603 199.425 249.769 199.584C249.848 199.659 249.924 199.7 249.995 199.717C249.44 199.868 248.724 200.537 248.447 201.233C248.287 201.578 248.276 201.869 248.313 202.097C248.33 202.19 248.302 202.289 248.238 202.36C248.068 202.549 247.937 202.807 247.933 203.105C247.921 203.512 248.142 203.882 248.492 204.047C249.136 204.346 249.848 203.985 250.024 203.399C250.071 203.25 250.078 203.098 250.053 202.952C250.035 202.864 250.074 202.78 250.148 202.729C250.329 202.606 250.463 202.403 250.595 202.12C250.823 201.545 250.963 200.788 250.84 200.243C250.886 200.296 250.958 200.346 251.058 200.385C251.276 200.469 251.532 200.484 251.572 200.387C251.611 200.291 251.426 200.112 251.214 200.019C251.196 200.014 251.184 200.01 251.168 200.005C251.187 199.983 251.207 199.963 251.224 199.939C251.437 199.624 251.429 199.218 251.152 198.992C250.886 198.773 250.421 198.856 250.173 199.217Z" fill="black"/>
<path d="M250.16 194.848C250.134 194.868 250.112 194.89 250.089 194.912C250.083 194.896 250.078 194.883 250.072 194.865C249.976 194.656 249.785 194.483 249.67 194.54C249.556 194.598 249.567 194.861 249.669 195.066C249.717 195.162 249.775 195.226 249.835 195.265C249.249 195.207 248.389 195.591 247.855 196.099C247.588 196.371 247.445 196.628 247.393 196.854C247.369 196.945 247.312 197.035 247.223 197.077C246.991 197.194 246.766 197.388 246.648 197.674C246.489 198.066 246.553 198.486 246.832 198.759C247.343 199.245 248.129 199.149 248.492 198.684C248.59 198.567 248.651 198.431 248.681 198.287C248.7 198.204 248.759 198.135 248.849 198.117C249.062 198.07 249.274 197.95 249.494 197.724C249.957 197.286 250.361 196.579 250.45 196.04C250.475 196.105 250.525 196.176 250.607 196.246C250.782 196.397 251.02 196.487 251.092 196.405C251.164 196.323 251.048 196.093 250.879 195.939C250.864 195.928 250.853 195.921 250.84 195.911L250.915 195.865C251.24 195.646 251.348 195.232 251.156 194.939C250.965 194.647 250.519 194.606 250.16 194.848Z" fill="black"/>
<path d="M256.605 192.284L256.509 192.306C256.513 192.289 256.515 192.276 256.519 192.257C256.539 192.028 256.457 191.786 256.325 191.783C256.193 191.78 256.071 192.015 256.061 192.243C256.055 192.35 256.076 192.434 256.11 192.496C255.622 192.175 254.65 192.113 253.93 192.358C253.563 192.474 253.324 192.643 253.179 192.832C253.118 192.908 253.024 192.954 252.925 192.95C252.661 192.941 252.387 193.038 252.147 193.223C251.826 193.488 251.697 193.908 251.804 194.264C252.019 194.937 252.761 195.202 253.319 194.949C253.462 194.886 253.577 194.781 253.675 194.673C253.731 194.608 253.82 194.58 253.907 194.598C254.117 194.639 254.364 194.62 254.668 194.525C255.26 194.323 255.935 193.901 256.272 193.464C256.263 193.533 256.272 193.618 256.31 193.718C256.391 193.933 256.552 194.126 256.652 194.088C256.753 194.05 256.765 193.795 256.693 193.579C256.686 193.563 256.68 193.552 256.674 193.537L256.761 193.531C257.147 193.498 257.447 193.185 257.431 192.843C257.415 192.492 257.045 192.244 256.605 192.284Z" fill="black"/>
<path d="M250.046 222.77L249.964 222.824C249.962 222.806 249.959 222.794 249.956 222.775C249.892 222.554 249.729 222.355 249.604 222.397C249.48 222.439 249.45 222.702 249.521 222.919C249.555 223.021 249.604 223.093 249.658 223.14C249.086 223.006 248.154 223.281 247.567 223.758C247.266 223.992 247.101 224.233 247.033 224.46C247.004 224.551 246.932 224.627 246.838 224.657C246.588 224.739 246.365 224.924 246.207 225.18C246.001 225.539 246.03 225.976 246.258 226.273C246.699 226.829 247.49 226.822 247.922 226.395C248.033 226.286 248.103 226.149 248.156 226.014C248.186 225.933 248.259 225.876 248.347 225.864C248.559 225.83 248.782 225.727 249.033 225.534C249.515 225.141 249.997 224.515 250.157 223.99C250.172 224.057 250.212 224.135 250.283 224.215C250.435 224.389 250.655 224.514 250.736 224.444C250.816 224.374 250.736 224.131 250.592 223.953C250.579 223.941 250.57 223.932 250.558 223.92L250.638 223.885C250.988 223.721 251.157 223.325 251.02 223.01C250.878 222.687 250.444 222.582 250.046 222.77Z" fill="black"/>
<path d="M263.323 192.731L263.238 192.743C263.242 192.727 263.246 192.714 263.251 192.697C263.286 192.471 263.235 192.224 263.136 192.198C263.036 192.175 262.911 192.388 262.862 192.611C262.84 192.715 262.842 192.801 262.861 192.868C262.47 192.482 261.783 192.142 261.118 192.016C260.781 191.955 260.501 191.978 260.282 192.061C260.195 192.094 260.092 192.086 260.007 192.034C259.787 191.891 259.499 191.82 259.19 191.867C258.769 191.916 258.433 192.225 258.34 192.583C258.176 193.268 258.669 193.865 259.266 193.933C259.421 193.945 259.57 193.935 259.712 193.884C259.794 193.855 259.887 193.876 259.955 193.939C260.115 194.086 260.35 194.199 260.706 194.264C261.405 194.399 262.394 194.236 262.837 193.849C262.813 193.915 262.804 194.001 262.825 194.106C262.868 194.33 263.03 194.546 263.165 194.525C263.3 194.505 263.344 194.25 263.287 194.029C263.281 194.012 263.276 194 263.271 193.984C263.303 193.987 263.336 193.989 263.37 193.987C263.825 193.965 264.148 193.644 264.095 193.294C264.043 192.958 263.698 192.712 263.323 192.731Z" fill="black"/>
<path d="M269.082 190.403L269.013 190.46C269.008 190.444 269.003 190.431 268.997 190.414C268.899 190.207 268.712 190.03 268.608 190.074C268.505 190.118 268.52 190.37 268.614 190.579C268.658 190.677 268.712 190.746 268.768 190.788C268.213 190.71 267.405 190.901 266.847 191.184C266.562 191.331 266.385 191.507 266.271 191.675C266.225 191.747 266.145 191.79 266.059 191.783C265.83 191.77 265.6 191.823 265.386 191.959C265.102 192.163 264.917 192.512 264.921 192.886C264.913 193.591 265.629 194.063 266.36 193.801C266.541 193.743 266.683 193.628 266.801 193.508C266.869 193.436 266.971 193.401 267.071 193.411C267.318 193.445 267.6 193.377 267.939 193.202C268.612 192.858 269.224 192.155 269.339 191.594C269.359 191.662 269.405 191.735 269.484 191.809C269.652 191.966 269.902 192.056 269.99 191.967C270.079 191.878 269.968 191.648 269.795 191.493C269.781 191.483 269.77 191.475 269.756 191.466L269.839 191.418C270.195 191.18 270.272 190.732 270.058 190.465C269.835 190.186 269.413 190.183 269.082 190.403Z" fill="black"/>
<path d="M241.525 210.115L241.552 210.203C241.535 210.201 241.521 210.2 241.503 210.199C241.27 210.204 241.031 210.306 241.034 210.427C241.029 210.47 241.068 210.439 241.154 210.447C241.237 210.447 241.348 210.492 241.463 210.496C241.571 210.506 241.659 210.498 241.726 210.477C241.358 210.819 241.02 211.519 240.915 212.128C240.862 212.436 240.887 212.676 240.966 212.87C240.999 212.95 240.988 213.039 240.93 213.101C240.778 213.271 240.682 213.481 240.68 213.73C240.674 214.061 240.863 214.396 241.173 214.623C241.734 215.068 242.562 214.766 242.765 214.047C242.819 213.872 242.818 213.7 242.788 213.54C242.771 213.446 242.8 213.348 242.865 213.279C243.028 213.111 243.154 212.858 243.215 212.5C243.337 211.793 243.151 210.877 242.725 210.418C242.794 210.439 242.882 210.441 242.988 210.41C243.098 210.37 243.213 210.323 243.28 210.216C243.349 210.118 243.372 209.962 243.346 209.894C243.301 209.795 243.042 209.807 242.829 209.899C242.812 209.908 242.801 209.915 242.787 209.923L242.776 209.837C242.694 209.459 242.345 209.206 241.997 209.27C241.648 209.333 241.437 209.712 241.525 210.115Z" fill="black"/>
<path d="M241.076 203.509L241.074 203.602C241.058 203.595 241.046 203.59 241.028 203.583C240.806 203.513 240.546 203.535 240.511 203.653C240.475 203.772 240.678 203.937 240.901 203.999C241.006 204.029 241.093 204.03 241.164 204.013C240.743 204.39 240.427 205.246 240.453 205.956C240.451 206.316 240.557 206.577 240.687 206.763C240.741 206.839 240.756 206.937 240.722 207.025C240.623 207.257 240.624 207.529 240.727 207.8C240.866 208.168 241.211 208.424 241.598 208.45C242.308 208.496 242.84 207.912 242.776 207.301C242.754 207.147 242.704 207.004 242.627 206.878C242.581 206.804 242.582 206.713 242.627 206.636C242.741 206.453 242.78 206.213 242.783 205.896C242.761 205.272 242.527 204.512 242.162 204.09C242.228 204.115 242.315 204.127 242.424 204.115C242.655 204.09 242.887 203.981 242.875 203.875C242.864 203.769 242.614 203.699 242.382 203.718C242.364 203.722 242.352 203.724 242.335 203.727L242.352 203.643C242.384 203.263 242.154 202.915 241.806 202.86C241.454 202.805 241.112 203.094 241.076 203.509Z" fill="black"/>
<path d="M243.19 197.18L243.149 197.265C243.137 197.252 243.128 197.242 243.116 197.227C242.942 197.074 242.698 196.987 242.616 197.083C242.533 197.178 242.648 197.412 242.825 197.56C242.908 197.629 242.988 197.665 243.058 197.679C242.773 197.761 242.486 197.974 242.224 198.248C241.951 198.518 241.728 198.859 241.602 199.198C241.465 199.538 241.432 199.815 241.494 200.042C241.517 200.134 241.494 200.232 241.429 200.302C241.263 200.489 241.126 200.739 241.136 201.036C241.138 201.437 241.367 201.799 241.713 201.955C242.363 202.237 243.079 201.879 243.229 201.3C243.275 201.154 243.281 201.006 243.254 200.862C243.238 200.777 243.272 200.693 243.34 200.64C243.501 200.509 243.657 200.318 243.774 200.029C243.881 199.74 243.953 199.403 243.994 199.075C244.025 198.742 244.001 198.409 243.936 198.152C243.985 198.202 244.059 198.247 244.163 198.281C244.385 198.351 244.64 198.347 244.673 198.247C244.705 198.146 244.507 197.981 244.289 197.904C244.271 197.899 244.259 197.897 244.243 197.892C244.259 197.87 244.278 197.848 244.292 197.823C244.475 197.489 244.433 197.089 244.135 196.891C243.846 196.699 243.394 196.811 243.19 197.18Z" fill="black"/>
<path d="M275.642 192.002L275.632 192.096C275.616 192.087 275.604 192.08 275.587 192.071C275.373 191.98 275.113 191.977 275.066 192.093C275.02 192.209 275.206 192.394 275.423 192.477C275.524 192.516 275.611 192.526 275.683 192.516C275.44 192.684 275.239 192.976 275.081 193.32C274.913 193.661 274.815 194.055 274.807 194.415C274.79 194.781 274.851 195.053 274.984 195.248C275.035 195.328 275.047 195.428 275.009 195.515C274.913 195.745 274.866 196.024 274.974 196.302C275.109 196.681 275.445 196.951 275.824 196.988C276.533 197.049 277.091 196.483 277.041 195.888C277.037 195.735 276.993 195.593 276.92 195.465C276.877 195.391 276.881 195.3 276.928 195.228C277.037 195.053 277.121 194.823 277.136 194.512C277.142 194.205 277.099 193.863 277.029 193.54C276.949 193.216 276.815 192.907 276.668 192.686C276.732 192.717 276.817 192.736 276.927 192.735C277.16 192.731 277.4 192.646 277.398 192.54C277.395 192.435 277.153 192.342 276.921 192.338C276.903 192.34 276.89 192.341 276.873 192.343C276.882 192.315 276.892 192.289 276.897 192.261C276.959 191.887 276.787 191.522 276.44 191.429C276.104 191.34 275.713 191.588 275.642 192.002Z" fill="black"/>
<path d="M247.8 192.301L247.729 192.362C247.723 192.345 247.718 192.333 247.712 192.316C247.614 192.108 247.423 191.935 247.31 191.988C247.197 192.042 247.209 192.299 247.312 192.502C247.361 192.598 247.419 192.663 247.478 192.703C246.915 192.656 246.054 192.996 245.536 193.495C245.262 193.734 245.133 193.992 245.081 194.215C245.061 194.306 244.998 194.385 244.909 194.42C244.671 194.515 244.446 194.686 244.324 194.96C244.149 195.324 244.196 195.746 244.442 196.032C244.905 196.558 245.714 196.54 246.095 196.074C246.202 195.962 246.274 195.831 246.313 195.69C246.336 195.608 246.404 195.546 246.49 195.528C246.703 195.484 246.904 195.357 247.148 195.145C247.601 194.707 248.024 194.03 248.093 193.476C248.118 193.541 248.168 193.612 248.25 193.682C248.426 193.833 248.666 193.928 248.738 193.848C248.811 193.768 248.695 193.54 248.523 193.386C248.509 193.375 248.499 193.368 248.485 193.358L248.56 193.314C248.872 193.084 248.973 192.673 248.78 192.388C248.581 192.095 248.139 192.052 247.8 192.301Z" fill="black"/>
<path d="M253.903 189.415L253.814 189.448C253.815 189.43 253.816 189.417 253.816 189.398C253.803 189.169 253.69 188.94 253.564 188.952C253.439 188.964 253.356 189.211 253.376 189.438C253.385 189.544 253.415 189.625 253.456 189.683C252.943 189.421 252.012 189.446 251.344 189.734C251.002 189.871 250.782 190.046 250.657 190.243C250.605 190.322 250.518 190.373 250.422 190.375C250.167 190.379 249.897 190.464 249.683 190.67C249.387 190.942 249.274 191.351 249.394 191.706C249.623 192.362 250.385 192.638 250.922 192.339C251.063 192.271 251.179 192.173 251.267 192.054C251.32 191.984 251.406 191.95 251.494 191.963C251.705 191.988 251.951 191.957 252.25 191.839C252.829 191.588 253.466 191.096 253.741 190.624C253.74 190.693 253.76 190.777 253.81 190.872C253.917 191.075 254.103 191.245 254.199 191.195C254.296 191.144 254.272 190.89 254.171 190.685C254.162 190.67 254.155 190.66 254.146 190.646L254.232 190.63C254.608 190.531 254.859 190.199 254.784 189.855C254.712 189.519 254.314 189.307 253.903 189.415Z" fill="black"/>
<path d="M260.685 189.032L260.59 189.027C260.597 189.012 260.603 189 260.612 188.983C260.692 188.768 260.682 188.514 260.561 188.474C260.441 188.435 260.263 188.628 260.189 188.844C260.155 188.944 260.15 189.031 260.163 189.1C259.797 188.663 258.924 188.333 258.189 188.338C257.817 188.334 257.545 188.43 257.351 188.553C257.272 188.605 257.17 188.618 257.081 188.583C256.842 188.492 256.56 188.491 256.28 188.588C255.896 188.714 255.639 189.08 255.614 189.449C255.58 190.154 256.174 190.647 256.785 190.598C256.941 190.584 257.084 190.525 257.212 190.451C257.287 190.407 257.38 190.41 257.456 190.456C257.64 190.571 257.88 190.618 258.199 190.621C258.826 190.619 259.601 190.405 260.045 190.074C260.016 190.137 260.001 190.222 260.008 190.329C260.024 190.557 260.125 190.787 260.232 190.779C260.34 190.771 260.422 190.529 260.413 190.302C260.41 190.284 260.408 190.271 260.405 190.256C260.434 190.263 260.461 190.271 260.49 190.275C260.873 190.321 261.246 190.116 261.314 189.773C261.382 189.436 261.109 189.085 260.685 189.032Z" fill="black"/>
<path d="M266.724 188.504L266.642 188.543C266.641 188.526 266.64 188.513 266.639 188.495C266.599 188.27 266.463 188.052 266.348 188.072C266.232 188.091 266.181 188.341 266.221 188.565C266.239 188.67 266.276 188.749 266.32 188.804C265.801 188.585 264.933 188.629 264.341 188.818C264.195 188.864 264.073 188.919 264.001 188.969C263.945 189.002 263.965 189.012 263.956 189.041C263.952 189.068 263.887 189.098 263.86 189.13C263.802 189.185 263.722 189.194 263.656 189.157C263.477 189.054 263.283 189.012 263.045 189.055C262.723 189.113 262.385 189.353 262.231 189.698C261.946 190.332 262.322 191.056 263.134 191.122C263.333 191.137 263.529 191.101 263.696 191.03C263.794 190.985 263.909 190.99 264.006 191.03C264.073 191.053 264.112 191.081 264.218 191.089C264.319 191.098 264.459 191.094 264.529 191.09C264.712 191.08 264.878 191.047 265.06 190.99C265.763 190.764 266.434 190.222 266.679 189.719C266.683 189.789 266.71 189.871 266.768 189.962C266.893 190.155 267.103 190.305 267.203 190.243C267.303 190.181 267.254 189.931 267.129 189.738C267.118 189.724 267.11 189.714 267.099 189.701L267.187 189.677C267.567 189.533 267.77 189.154 267.643 188.83C267.516 188.506 267.103 188.36 266.724 188.504Z" fill="black"/>
<path d="M237.418 205.412L237.439 205.511C237.422 205.508 237.409 205.505 237.39 205.501C237.156 205.475 236.908 205.555 236.903 205.69C236.897 205.824 237.135 205.955 237.367 205.972C237.476 205.98 237.562 205.961 237.626 205.928C237.29 206.422 237.246 207.436 237.39 208.08C237.465 208.427 237.587 208.67 237.742 208.839C237.806 208.908 237.832 209.005 237.807 209.094C237.74 209.333 237.749 209.598 237.858 209.857C238.008 210.21 238.337 210.465 238.717 210.526C239.426 210.659 240.009 210.003 239.883 209.26C239.855 209.075 239.786 208.91 239.69 208.77C239.634 208.687 239.621 208.582 239.653 208.489C239.734 208.264 239.75 207.975 239.671 207.606C239.501 206.843 239.059 206.15 238.617 205.786C238.687 205.798 238.775 205.79 238.878 205.753C239.098 205.675 239.297 205.511 239.261 205.404C239.224 205.296 238.963 205.278 238.741 205.348C238.725 205.356 238.713 205.361 238.698 205.368L238.694 205.276C238.637 204.872 238.357 204.552 237.995 204.567C237.649 204.58 237.356 204.962 237.418 205.412Z" fill="black"/>
<path d="M238.488 198.291L238.459 198.388C238.445 198.376 238.435 198.367 238.42 198.355C238.227 198.224 237.971 198.177 237.901 198.293C237.832 198.407 237.978 198.633 238.174 198.757C238.265 198.815 238.35 198.84 238.422 198.841C237.884 199.115 237.333 199.94 237.166 200.707C237.064 201.09 237.107 201.398 237.186 201.627C237.22 201.721 237.211 201.829 237.155 201.915C237.002 202.144 236.955 202.442 236.992 202.757C237.039 203.185 237.362 203.529 237.728 203.625C238.429 203.795 239.028 203.277 239.105 202.642C239.121 202.478 239.09 202.32 239.049 202.174C239.022 202.087 239.045 201.993 239.106 201.925C239.262 201.76 239.353 201.524 239.442 201.199C239.582 200.557 239.566 199.711 239.36 199.183C239.416 199.227 239.497 199.262 239.605 199.278C239.836 199.313 240.091 199.261 240.11 199.148C240.13 199.036 239.91 198.897 239.681 198.856C239.663 198.854 239.651 198.853 239.634 198.852L239.675 198.77C239.833 198.39 239.729 197.97 239.406 197.818C239.09 197.67 238.662 197.874 238.488 198.291Z" fill="black"/>
<path d="M242.523 192.332L242.459 192.409C242.45 192.394 242.444 192.382 242.435 192.365C242.303 192.177 242.08 192.042 241.973 192.119C241.863 192.194 241.924 192.46 242.06 192.646C242.124 192.733 242.193 192.786 242.259 192.813C241.664 192.878 240.849 193.412 240.381 194.023C240.151 194.337 240.044 194.616 240.021 194.854C240.011 194.951 239.956 195.044 239.869 195.096C239.645 195.242 239.458 195.476 239.355 195.77C239.208 196.168 239.335 196.614 239.615 196.864C240.159 197.332 240.936 197.137 241.302 196.585C241.393 196.443 241.442 196.287 241.462 196.131C241.477 196.04 241.541 195.963 241.628 195.926C241.841 195.837 242.046 195.667 242.251 195.387C242.668 194.845 243.001 194.042 243.004 193.47C243.039 193.53 243.101 193.592 243.195 193.646C243.398 193.761 243.65 193.795 243.717 193.699C243.782 193.6 243.629 193.395 243.43 193.275C243.413 193.268 243.401 193.262 243.385 193.255L243.458 193.193C243.754 192.892 243.791 192.448 243.543 192.2C243.293 191.953 242.837 192.013 242.523 192.332Z" fill="black"/>
<path d="M237.935 212.854L237.95 212.952C237.934 212.948 237.92 212.945 237.901 212.94C237.67 212.912 237.419 212.985 237.406 213.115C237.391 213.245 237.635 213.378 237.866 213.401C237.975 213.413 238.062 213.397 238.127 213.367C237.781 213.845 237.646 214.797 237.801 215.545C237.887 215.923 238.029 216.186 238.195 216.362C238.262 216.433 238.296 216.535 238.278 216.634C238.241 216.895 238.294 217.187 238.451 217.458C238.656 217.829 239.081 218.033 239.458 217.994C240.176 217.908 240.544 217.209 240.367 216.575C240.318 216.414 240.232 216.274 240.127 216.155C240.067 216.084 240.051 215.986 240.081 215.898C240.154 215.683 240.161 215.419 240.084 215.083C239.947 214.418 239.556 213.641 239.122 213.258C239.192 213.273 239.28 213.268 239.384 213.235C239.606 213.164 239.8 213.002 239.771 212.889C239.739 212.775 239.481 212.751 239.257 212.817C239.24 212.824 239.228 212.83 239.212 212.836L239.213 212.743C239.18 212.326 238.866 212.003 238.513 212.021C238.159 212.038 237.899 212.412 237.935 212.854Z" fill="black"/>
<path d="M248.179 187.843L248.092 187.896C248.089 187.879 248.087 187.867 248.084 187.848C248.018 187.628 247.848 187.433 247.718 187.476C247.589 187.522 247.561 187.792 247.635 188.009C247.669 188.111 247.719 188.183 247.774 188.228C247.185 188.119 246.222 188.407 245.612 188.881C245.295 189.112 245.115 189.349 245.032 189.575C244.996 189.667 244.919 189.742 244.822 189.769C244.56 189.84 244.317 190.005 244.139 190.258C243.894 190.6 243.863 191.037 244.056 191.368C244.413 191.975 245.241 192.038 245.758 191.59C245.885 191.473 245.988 191.345 246.055 191.2C246.094 191.116 246.177 191.057 246.27 191.044C246.497 191.009 246.745 190.901 247.027 190.696C247.57 190.272 248.113 189.617 248.285 189.071C248.3 189.14 248.341 189.216 248.414 189.295C248.572 189.465 248.8 189.575 248.888 189.501C248.977 189.43 248.896 189.188 248.744 189.013C248.731 189.001 248.722 188.992 248.709 188.981L248.796 188.945C249.163 188.752 249.342 188.344 249.195 188.036C249.042 187.716 248.586 187.628 248.179 187.843Z" fill="black"/>
<path d="M255.247 185.961L255.147 185.976C255.151 185.959 255.155 185.946 255.16 185.928C255.195 185.701 255.126 185.455 254.994 185.442C254.861 185.43 254.719 185.655 254.69 185.881C254.676 185.987 254.689 186.073 254.719 186.138C254.24 185.785 253.264 185.633 252.488 185.784C252.096 185.852 251.823 186.006 251.641 186.165C251.567 186.233 251.462 186.266 251.361 186.249C251.091 186.218 250.788 186.272 250.509 186.429C250.131 186.655 249.927 187.062 249.979 187.431C250.091 188.132 250.813 188.475 251.442 188.294C251.603 188.246 251.742 188.163 251.86 188.057C251.931 187.999 252.03 187.982 252.119 188.012C252.338 188.088 252.597 188.083 252.94 188.024C253.607 187.895 254.404 187.529 254.805 187.115C254.789 187.183 254.791 187.269 254.822 187.372C254.89 187.591 255.051 187.794 255.167 187.763C255.282 187.732 255.314 187.478 255.252 187.258C255.245 187.242 255.24 187.23 255.234 187.215L255.329 187.215C255.753 187.181 256.094 186.904 256.084 186.553C256.073 186.21 255.7 185.925 255.247 185.961Z" fill="black"/>
<path d="M249.867 183.446L249.773 183.483C249.774 183.466 249.774 183.452 249.775 183.434C249.756 183.205 249.631 182.98 249.499 182.998C249.367 183.015 249.282 183.267 249.306 183.494C249.317 183.6 249.35 183.681 249.394 183.737C248.845 183.501 247.86 183.572 247.14 183.894C246.774 184.048 246.545 184.26 246.405 184.456C246.349 184.538 246.255 184.594 246.152 184.601C245.883 184.631 245.601 184.752 245.366 184.967C245.051 185.272 244.947 185.714 245.084 186.062C245.357 186.718 246.14 186.89 246.71 186.572C246.855 186.489 246.973 186.377 247.062 186.247C247.118 186.175 247.21 186.137 247.304 186.146C247.534 186.17 247.785 186.107 248.105 185.973C248.725 185.697 249.414 185.161 249.708 184.668C249.708 184.738 249.73 184.821 249.785 184.915C249.902 185.113 250.106 185.274 250.211 185.218C250.317 185.162 250.288 184.908 250.176 184.707C250.165 184.693 250.158 184.683 250.148 184.669L250.241 184.648C250.646 184.519 250.913 184.173 250.82 183.833C250.73 183.503 250.299 183.309 249.867 183.446Z" fill="black"/>
<path d="M262.42 186.221L262.323 186.223C262.329 186.207 262.334 186.194 262.341 186.177C262.403 185.956 262.368 185.703 262.248 185.673C262.128 185.644 261.966 185.848 261.901 186.068C261.872 186.171 261.872 186.257 261.89 186.325C261.479 185.914 260.62 185.581 259.883 185.525C259.511 185.497 259.226 185.547 259.01 185.65C258.923 185.693 258.816 185.694 258.728 185.649C258.495 185.527 258.207 185.474 257.878 185.534C257.462 185.625 257.132 185.924 257.041 186.29C256.866 186.976 257.448 187.573 258.107 187.595C258.278 187.604 258.445 187.575 258.599 187.517C258.69 187.483 258.792 187.496 258.872 187.551C259.065 187.683 259.333 187.774 259.704 187.802C260.434 187.858 261.353 187.661 261.824 187.304C261.796 187.369 261.784 187.455 261.8 187.56C261.833 187.788 261.973 188.011 262.102 187.996C262.231 187.981 262.297 187.734 262.261 187.508C262.256 187.49 262.252 187.478 262.248 187.462L262.346 187.476C262.793 187.501 263.17 187.231 263.178 186.884C263.187 186.537 262.852 186.245 262.42 186.221Z" fill="black"/>
<path d="M220.113 214.74C220.075 214.871 219.952 214.955 219.816 214.972C217.894 215.193 216.773 215.444 215.917 215.893C215.078 216.295 214.584 216.818 214.591 216.979C214.6 217.141 215.159 217.639 216.264 217.723C216.539 217.753 216.839 217.711 217.168 217.663C217.499 217.62 217.848 217.517 218.203 217.344C218.563 217.19 218.929 216.98 219.273 216.678C219.629 216.405 219.954 216.038 220.238 215.611C220.319 215.492 220.463 215.426 220.607 215.428C221.124 215.422 221.682 215.352 221.896 215.189C222.101 215.008 221.954 214.787 221.201 214.44C220.918 213.65 220.683 213.511 220.536 213.664C220.372 213.806 220.245 214.247 220.113 214.74Z" fill="black"/>
<path d="M224.319 208.404C224.379 208.527 224.361 208.675 224.277 208.78C222.986 210.225 222.408 211.222 222.079 212.095C221.765 212.944 221.783 213.668 221.9 213.78C222.017 213.896 222.766 213.869 223.626 213.174C224.48 212.514 225.337 210.996 225.027 208.976C225 208.835 225.046 208.688 225.154 208.596C225.98 207.917 226.565 207.024 224.943 207.476C223.474 206.655 223.904 207.514 224.319 208.404Z" fill="black"/>
<path d="M223.939 200.72C224.052 200.793 224.111 200.929 224.092 201.064C223.813 202.952 223.872 204.142 224.167 205.064C224.415 205.961 224.9 206.516 225.066 206.532C225.229 206.548 225.782 206.073 226.066 205.042C226.317 204.046 226.216 202.375 224.832 200.832C224.736 200.725 224.702 200.575 224.747 200.438C225.031 199.441 225.068 198.336 223.94 199.612C222.289 199.714 223.064 200.209 223.939 200.72Z" fill="black"/>
<path d="M218.945 194.992C219.08 194.967 219.229 195.007 219.302 195.128C220.39 196.703 221.127 197.549 221.921 198.089C222.277 198.375 222.642 198.554 222.935 198.659C223.209 198.776 223.422 198.807 223.496 198.766C223.567 198.727 223.652 198.533 223.682 198.213C223.691 197.904 223.629 197.473 223.432 196.962C223.192 196.483 222.83 195.906 222.194 195.438C221.584 194.952 220.709 194.58 219.683 194.465C219.544 194.44 219.403 194.373 219.339 194.244C218.856 193.291 218.062 192.534 218.172 194.186C217.046 195.419 217.971 195.176 218.945 194.992Z" fill="black"/>
<path d="M211.256 194.116C211.342 194.01 211.483 193.953 211.617 193.99C213.49 194.502 214.684 194.59 215.634 194.481C216.563 194.356 217.2 194.051 217.255 193.873C217.3 193.743 216.942 193.061 215.925 192.643C214.947 192.203 213.209 192.09 211.468 193.242C211.348 193.322 211.195 193.352 211.062 193.297C210.067 192.871 208.961 192.797 210.133 193.989C210.085 195.643 210.63 194.871 211.256 194.116Z" fill="black"/>
<path d="M204.994 198.448C204.982 198.315 205.054 198.186 205.173 198.118C206.859 197.18 207.781 196.522 208.407 195.819C209.009 195.126 209.306 194.504 209.227 194.329C209.194 194.257 209.008 194.161 208.689 194.114C208.37 194.065 207.912 194.062 207.393 194.247C206.361 194.552 204.926 195.649 204.533 197.686C204.507 197.827 204.407 197.946 204.27 197.996C203.282 198.386 202.388 199.056 204.103 199.129C205.214 200.338 205.112 199.429 204.994 198.448Z" fill="black"/>
<path d="M203.136 205.882C203.046 205.779 203.026 205.632 203.08 205.507C203.887 203.752 204.146 202.588 204.119 201.638C204.116 200.716 203.851 200.058 203.698 199.993C203.547 199.929 202.844 200.209 202.288 201.14C201.761 202.047 201.415 203.68 202.303 205.523C202.367 205.651 202.359 205.804 202.279 205.921C201.97 206.349 201.734 206.825 201.768 207.082C201.793 207.343 202.061 207.355 202.792 206.943C203.605 207.165 203.858 207.06 203.821 206.844C203.774 206.626 203.454 206.264 203.136 205.882Z" fill="black"/>
<path d="M205.802 213.039C205.667 213.012 205.56 212.907 205.527 212.779C205.125 210.928 204.734 209.84 204.206 209.043C203.68 208.273 203.117 207.849 202.93 207.883C202.792 207.906 202.33 208.52 202.39 209.591C202.415 210.627 203.048 212.258 204.914 213.246C205.046 213.311 205.135 213.438 205.145 213.579C205.166 214.109 205.301 214.628 205.495 214.815C205.688 215.01 205.898 214.85 206.199 214.074C206.969 213.743 207.092 213.5 206.933 213.361C206.765 213.221 206.287 213.151 205.802 213.039Z" fill="black"/>
<path d="M212.601 216.526C212.485 216.594 212.335 216.586 212.219 216.511C210.602 215.451 209.576 214.952 208.645 214.74C207.745 214.526 207.04 214.567 206.924 214.704C206.829 214.814 206.887 215.58 207.686 216.347C208.446 217.093 210.086 217.831 212.112 217.265C212.252 217.226 212.405 217.262 212.512 217.362C213.309 218.034 214.306 218.555 213.621 217.003C214.243 215.504 213.449 215.966 212.601 216.526Z" fill="black"/>
<path d="M220.115 222.108C220.044 222.221 219.913 222.281 219.782 222.264C218.851 222.148 218.079 222.057 217.45 222.154C216.804 222.172 216.28 222.313 215.853 222.503C214.995 222.829 214.514 223.338 214.519 223.512C214.523 223.662 215.043 224.171 216.047 224.354C216.544 224.419 217.162 224.404 217.856 224.241C218.533 223.998 219.309 223.671 220.019 222.988C220.12 222.893 220.263 222.859 220.395 222.903C220.873 223.063 221.388 223.187 221.62 223.104C221.85 223.01 221.79 222.751 221.21 222.176C221.191 221.344 221.027 221.133 220.836 221.231C220.637 221.319 220.374 221.691 220.115 222.108Z" fill="black"/>
<path d="M226.506 218.225C226.49 218.353 226.395 218.459 226.266 218.497C225.807 218.63 225.419 218.782 225.071 218.935C224.704 219.065 224.39 219.211 224.117 219.37C223.587 219.709 223.14 219.992 222.836 220.338C222.531 220.682 222.317 221.007 222.18 221.256C222.049 221.514 222.009 221.719 222.045 221.794C222.08 221.866 222.265 221.964 222.571 222.022C222.882 222.09 223.305 222.093 223.79 221.946C224.273 221.802 224.87 221.587 225.393 221.087C225.662 220.849 225.929 220.568 226.183 220.243C226.416 219.894 226.624 219.488 226.806 219.045C226.857 218.919 226.975 218.831 227.116 218.817C228.122 218.676 229.09 218.298 227.49 217.786C226.696 216.348 226.58 217.258 226.506 218.225Z" fill="black"/>
<path d="M230.452 211.942C230.5 212.067 230.469 212.206 230.376 212.297C229.66 212.924 229.195 213.498 228.83 214.013C228.445 214.515 228.277 215.027 228.125 215.446C227.838 216.289 227.961 217 228.094 217.104C228.22 217.203 228.919 217.115 229.715 216.465C230.116 216.146 230.449 215.635 230.753 214.997C231.033 214.35 231.165 213.51 231.105 212.562C231.088 212.426 231.148 212.293 231.262 212.219C232.108 211.671 232.871 210.953 231.173 211.138C229.862 210.168 230.096 211.033 230.452 211.942Z" fill="black"/>
<path d="M231.56 204.591C231.651 204.692 231.671 204.833 231.617 204.951C231.202 205.793 230.935 206.503 230.843 207.128C230.689 207.746 230.687 208.281 230.76 208.737C230.858 209.634 231.227 210.222 231.401 210.264C231.549 210.301 232.191 209.945 232.633 209.044C232.829 208.593 232.98 208.009 233.004 207.313C232.965 206.615 232.822 205.803 232.394 204.942C232.329 204.821 232.337 204.677 232.418 204.568C233.012 203.766 233.47 202.844 231.946 203.589C230.369 203.119 230.9 203.862 231.56 204.591Z" fill="black"/>
<path d="M229.998 197.33C230.119 197.391 230.19 197.515 230.183 197.644C230.112 198.57 230.117 199.319 230.238 199.934C230.312 200.563 230.499 201.063 230.729 201.466C231.11 202.283 231.687 202.709 231.857 202.691C232.016 202.675 232.47 202.129 232.598 201.132C232.622 200.642 232.556 200.042 232.332 199.378C232.059 198.729 231.628 198.009 230.904 197.358C230.799 197.268 230.752 197.13 230.787 196.999C230.915 196.52 230.994 196.013 230.902 195.789C230.795 195.567 230.539 195.643 229.984 196.257C229.149 196.33 228.944 196.506 229.051 196.689C229.146 196.883 229.555 197.108 229.998 197.33Z" fill="black"/>
<path d="M225.591 191.358C225.723 191.364 225.837 191.449 225.886 191.571C226.585 193.272 227.263 194.226 228 194.796C228.734 195.347 229.37 195.56 229.538 195.468C229.659 195.403 229.928 194.687 229.572 193.751C229.38 193.296 229.135 192.717 228.586 192.244C228.323 192 228.017 191.759 227.667 191.536C227.312 191.316 226.868 191.155 226.407 191.007C226.275 190.966 226.176 190.858 226.152 190.721C225.952 189.733 225.485 188.831 225.08 190.422C223.664 191.305 224.613 191.337 225.591 191.358Z" fill="black"/>
<path d="M218.921 187.943C219.045 187.886 219.189 187.905 219.289 187.988C220.665 189.277 221.743 189.759 222.651 189.968C223.53 190.186 224.254 190.004 224.342 189.88C224.443 189.738 224.296 189.073 223.577 188.343C222.869 187.638 221.451 186.985 219.504 187.257C219.366 187.284 219.226 187.237 219.142 187.131C218.52 186.352 217.729 185.665 218.047 187.305C217.159 188.663 218.022 188.365 218.921 187.943Z" fill="black"/>
<path d="M211.364 187.453C211.457 187.356 211.598 187.322 211.724 187.363C212.616 187.708 213.354 187.88 213.995 187.943C214.635 188.04 215.179 187.996 215.638 187.886C216.539 187.739 217.112 187.312 217.142 187.144C217.169 186.992 216.754 186.413 215.803 186.032C215.328 185.879 214.722 185.782 214.01 185.818C213.301 185.889 212.482 186.127 211.643 186.606C211.525 186.681 211.378 186.687 211.259 186.619C210.384 186.119 209.39 185.766 210.309 187.175C210 188.757 210.69 188.169 211.364 187.453Z" fill="black"/>
<path d="M204.246 189.873C204.289 189.749 204.405 189.664 204.538 189.653C205.46 189.544 206.238 189.492 206.829 189.269C207.442 189.098 207.931 188.882 208.306 188.607C209.071 188.114 209.447 187.534 209.408 187.362C209.376 187.218 208.764 186.806 207.738 186.831C207.238 186.872 206.622 186.986 205.983 187.314C205.368 187.69 204.67 188.159 204.14 188.999C204.063 189.112 203.93 189.176 203.791 189.16C202.744 189.019 201.754 189.229 203.174 190.062C203.629 191.665 203.911 190.747 204.246 189.873Z" fill="black"/>
<path d="M198.959 195.106C198.938 194.974 198.991 194.839 199.114 194.778C199.965 194.325 200.514 193.848 201.009 193.445C201.244 193.233 201.434 193.018 201.592 192.802C201.758 192.595 201.91 192.405 202.022 192.209C202.254 191.823 202.371 191.443 202.43 191.155C202.5 190.878 202.492 190.672 202.439 190.607C202.388 190.545 202.184 190.489 201.868 190.498C201.563 190.519 201.165 190.629 200.71 190.863C200.486 190.984 200.238 191.126 200.009 191.326C199.789 191.534 199.569 191.78 199.358 192.068C198.91 192.622 198.624 193.436 198.46 194.367C198.433 194.496 198.355 194.618 198.226 194.667C197.293 195.037 196.402 195.595 198.096 195.751C199.183 196.966 199.125 196.073 198.959 195.106Z" fill="black"/>
<path d="M196.46 202.092C196.389 201.979 196.394 201.837 196.468 201.729C197.014 200.969 197.413 200.324 197.62 199.73C197.887 199.155 197.988 198.633 198.001 198.173C198.101 197.288 197.836 196.629 197.681 196.555C197.538 196.488 196.86 196.72 196.224 197.517C195.946 197.926 195.686 198.476 195.53 199.16C195.437 199.856 195.42 200.685 195.701 201.608C195.743 201.738 195.71 201.879 195.611 201.972C194.884 202.666 194.27 203.502 195.903 203.016C197.374 203.734 196.982 202.92 196.46 202.092Z" fill="black"/>
<path d="M196.673 209.531C196.566 209.448 196.52 209.314 196.552 209.188C196.83 208.288 196.941 207.551 196.949 206.917C196.991 206.281 196.899 205.752 196.746 205.313C196.502 204.442 196.019 203.927 195.845 203.917C195.688 203.907 195.134 204.369 194.847 205.326C194.734 205.802 194.688 206.4 194.788 207.089C194.92 207.772 195.233 208.55 195.788 209.329C195.875 209.437 195.893 209.581 195.833 209.702C195.396 210.596 195.116 211.591 196.477 210.584C198.112 210.762 197.456 210.133 196.673 209.531Z" fill="black"/>
<path d="M199.658 216.321C199.528 216.287 199.434 216.18 199.414 216.051C199.326 215.586 199.25 215.181 199.181 214.816C199.098 214.445 198.991 214.121 198.865 213.835C198.656 213.242 198.39 212.784 198.084 212.435C197.532 211.72 196.905 211.399 196.735 211.45C196.588 211.493 196.224 212.12 196.318 213.12C196.394 213.607 196.564 214.194 196.933 214.798C197.138 215.09 197.387 215.388 197.684 215.679C197.968 215.977 198.334 216.249 198.773 216.482C198.894 216.55 198.968 216.676 198.961 216.813C198.89 217.84 199.153 218.802 199.917 217.359C201.517 216.816 200.576 216.589 199.658 216.321Z" fill="black"/>
<path d="M205.322 221.159C205.186 221.194 205.053 221.139 204.982 221.024C204.458 220.232 203.947 219.716 203.501 219.261C203.27 219.047 203.037 218.876 202.808 218.736C202.596 218.575 202.385 218.448 202.179 218.349C201.342 217.971 200.649 217.93 200.522 218.041C200.402 218.146 200.33 218.876 200.891 219.716C201.026 219.929 201.196 220.152 201.403 220.376C201.629 220.577 201.896 220.776 202.204 220.962C202.799 221.362 203.641 221.601 204.606 221.691C204.74 221.706 204.863 221.788 204.925 221.904C205.366 222.789 205.999 223.621 206.039 221.955C207.202 220.807 206.297 220.928 205.322 221.159Z" fill="black"/>
<path d="M212.612 223.068C212.503 223.147 212.358 223.155 212.242 223.092C211.424 222.619 210.738 222.287 210.12 222.128C209.515 221.913 208.978 221.855 208.509 221.878C207.605 221.838 206.95 222.151 206.887 222.307C206.828 222.453 207.114 223.092 207.972 223.662C208.41 223.902 208.992 224.114 209.702 224.213C210.418 224.254 211.268 224.198 212.182 223.85C212.312 223.798 212.458 223.819 212.562 223.908C213.329 224.558 214.236 225.086 213.598 223.534C214.2 222.037 213.409 222.488 212.612 223.068Z" fill="black"/>
<path d="M217.981 219.499C217.902 219.609 217.764 219.663 217.632 219.642C216.679 219.429 215.929 219.372 215.273 219.334C214.625 219.342 214.081 219.393 213.623 219.512C212.715 219.781 212.15 220.151 212.129 220.342C212.12 220.421 212.228 220.6 212.465 220.805C212.701 221.019 213.07 221.247 213.579 221.372C214.084 221.515 214.728 221.6 215.468 221.449C216.205 221.348 217.034 220.978 217.825 220.378C217.935 220.287 218.085 220.258 218.217 220.307C219.208 220.696 220.27 220.764 219.093 219.594C219.095 217.939 218.56 218.724 217.981 219.499Z" fill="black"/>
<path d="M224.439 215.459C224.434 215.592 224.339 215.704 224.212 215.752C222.438 216.462 221.436 217.076 220.799 217.773C220.156 218.421 219.909 219.1 219.971 219.24C220.042 219.397 220.723 219.645 221.764 219.375C222.279 219.241 222.849 218.925 223.417 218.442C223.684 218.179 223.947 217.871 224.194 217.52C224.438 217.168 224.618 216.723 224.786 216.264C224.832 216.133 224.951 216.037 225.09 216.007C226.083 215.762 227.077 215.306 225.406 214.927C224.522 213.561 224.438 214.458 224.439 215.459Z" fill="black"/>
<path d="M227.829 208.646C227.89 208.768 227.879 208.915 227.791 209.018C227.134 209.742 226.748 210.387 226.416 210.948C226.133 211.528 225.935 212.027 225.846 212.483C225.685 213.396 225.785 214.059 225.946 214.163C226.06 214.24 226.838 214.123 227.53 213.344C228.253 212.604 228.889 211.148 228.546 209.201C228.519 209.065 228.559 208.922 228.666 208.832C229.443 208.171 230.119 207.347 228.454 207.737C227.039 206.899 227.371 207.758 227.829 208.646Z" fill="black"/>
<path d="M227.922 201.038C228.029 201.122 228.091 201.257 228.046 201.389C227.907 201.853 227.814 202.268 227.761 202.647C227.699 203.027 227.632 203.378 227.624 203.699C227.622 204.339 227.629 204.882 227.761 205.334C227.999 206.236 228.398 206.794 228.586 206.816C228.727 206.835 229.359 206.399 229.659 205.417C229.969 204.46 229.989 202.87 228.808 201.24C228.736 201.125 228.701 200.98 228.759 200.853C229.171 199.921 229.39 198.873 228.081 199.956C226.434 199.831 227.121 200.436 227.922 201.038Z" fill="black"/>
<path d="M224.261 194.432C224.395 194.448 224.507 194.543 224.549 194.669C225.104 196.469 225.712 197.459 226.336 198.16C226.989 198.821 227.598 199.139 227.771 199.077C227.909 199.029 228.276 198.354 228.04 197.338C227.87 196.328 227.002 194.913 225.113 194.146C224.98 194.094 224.885 193.976 224.867 193.836C224.724 192.808 224.269 191.86 223.796 193.444C222.324 194.243 223.281 194.324 224.261 194.432Z" fill="black"/>
<path d="M217.519 190.811C217.645 190.748 217.794 190.765 217.895 190.862C219.36 192.092 220.408 192.657 221.345 192.862C222.237 193.099 222.952 192.997 223.06 192.857C223.152 192.74 223.051 192.017 222.309 191.259C221.571 190.549 220.11 189.787 218.095 190.126C217.957 190.14 217.812 190.096 217.721 189.994C217.051 189.231 216.205 188.563 216.598 190.196C215.739 191.579 216.609 191.256 217.519 190.811Z" fill="black"/>
<path d="M209.808 190.895C209.886 190.784 210.024 190.729 210.156 190.75C211.11 190.963 211.858 191.024 212.513 191.061C213.16 191.049 213.704 191.012 214.161 190.886C215.068 190.634 215.637 190.25 215.659 190.064C215.678 189.928 215.232 189.3 214.214 189.026C213.227 188.718 211.567 188.78 209.962 190.013C209.853 190.106 209.703 190.136 209.57 190.087C208.58 189.701 207.515 189.632 208.695 190.8C208.697 192.454 209.231 191.673 209.808 190.895Z" fill="black"/>
<path d="M203.36 194.951C203.366 194.818 203.46 194.706 203.587 194.657C205.359 193.944 206.359 193.325 206.995 192.628C207.32 192.307 207.536 191.973 207.668 191.697C207.803 191.432 207.856 191.238 207.819 191.16C207.748 191.002 207.063 190.752 206.025 191.028C205.509 191.161 204.943 191.483 204.374 191.965C204.109 192.229 203.846 192.538 203.601 192.889C203.357 193.242 203.179 193.688 203.011 194.146C202.967 194.278 202.848 194.375 202.709 194.404C201.716 194.651 200.723 195.108 202.394 195.484C203.28 196.849 203.363 195.951 203.36 194.951Z" fill="black"/>
<path d="M199.976 201.768C199.915 201.646 199.926 201.499 200.013 201.396C200.67 200.671 201.057 200.027 201.388 199.465C201.671 198.885 201.869 198.386 201.956 197.93C202.118 197.016 202.017 196.353 201.855 196.249C201.742 196.172 200.963 196.291 200.272 197.07C199.551 197.81 198.915 199.267 199.259 201.213C199.285 201.349 199.245 201.493 199.138 201.582C198.362 202.243 197.686 203.067 199.351 202.677C200.765 203.515 200.434 202.656 199.976 201.768Z" fill="black"/>
<path d="M199.88 209.376C199.773 209.293 199.711 209.158 199.757 209.026C199.896 208.562 199.99 208.147 200.043 207.767C200.105 207.387 200.172 207.036 200.18 206.715C200.183 206.075 200.175 205.532 200.043 205.08C199.806 204.178 199.406 203.62 199.219 203.598C199.078 203.579 198.446 204.014 198.145 204.997C197.835 205.954 197.815 207.543 198.995 209.174C199.066 209.289 199.102 209.434 199.042 209.561C198.63 210.492 198.409 211.539 199.719 210.459C201.368 210.586 200.68 209.98 199.88 209.376Z" fill="black"/>
<path d="M203.526 215.993C203.392 215.976 203.281 215.881 203.239 215.754C202.688 213.953 202.085 212.961 201.461 212.258C200.81 211.595 200.202 211.277 200.028 211.338C199.89 211.385 199.523 212.06 199.755 213.076C199.923 214.086 200.786 215.504 202.674 216.276C202.806 216.328 202.901 216.447 202.918 216.587C203.06 217.613 203.511 218.566 203.989 216.981C205.46 216.187 204.507 216.101 203.526 215.993Z" fill="black"/>
<path d="M210.265 219.605C210.141 219.663 209.99 219.655 209.888 219.563C208.424 218.322 207.37 217.78 206.439 217.565C205.545 217.333 204.834 217.427 204.724 217.569C204.633 217.684 204.729 218.414 205.474 219.168C206.207 219.888 207.681 220.63 209.691 220.299C209.83 220.281 209.977 220.316 210.068 220.423C210.741 221.188 211.594 221.856 211.188 220.22C212.034 218.837 211.171 219.159 210.265 219.605Z" fill="black"/>
<path d="M166.169 189.334C166.55 187.331 164.571 185.178 162.377 186.153C162.307 186.173 162.217 186.256 162.303 186.322C163.985 187.325 164.727 189.652 163.985 191.598C163.972 191.652 163.99 191.677 164.019 191.689C164.031 191.718 164.053 191.738 164.098 191.724C165.859 190.903 167.964 191.721 168.872 193.582C168.937 193.679 169.004 193.575 169.025 193.5C169.899 191.078 167.978 188.913 166.169 189.334Z" fill="black"/>
<path d="M174.694 177.954C175.076 175.951 173.097 173.798 170.902 174.773C170.832 174.792 170.743 174.876 170.829 174.942C172.51 175.945 173.253 178.272 172.51 180.218C172.497 180.272 172.516 180.297 172.544 180.309C172.556 180.338 172.579 180.358 172.624 180.344C174.384 179.523 176.49 180.341 177.397 182.202C177.462 182.299 177.529 182.195 177.551 182.12C178.424 179.698 176.503 177.533 174.694 177.954Z" fill="black"/>
<path d="M191.384 175.423C191.765 173.42 189.786 171.267 187.592 172.242C187.522 172.261 187.432 172.345 187.518 172.411C189.2 173.414 189.943 175.741 189.2 177.688C189.187 177.742 189.205 177.767 189.234 177.778C189.246 177.808 189.268 177.828 189.313 177.814C191.074 176.992 193.18 177.811 194.087 179.671C194.152 179.769 194.219 179.664 194.24 179.59C195.114 177.167 193.193 175.002 191.384 175.423Z" fill="black"/>
<path d="M158.292 198.352C158.673 196.349 156.694 194.196 154.499 195.171C154.43 195.191 154.34 195.274 154.426 195.34C156.107 196.343 156.85 198.67 156.107 200.616C156.094 200.67 156.113 200.695 156.142 200.707C156.153 200.737 156.176 200.756 156.221 200.742C157.981 199.921 160.087 200.739 160.994 202.6C161.059 202.697 161.126 202.593 161.148 202.518C162.022 200.096 160.1 197.931 158.292 198.352Z" fill="black"/>
<path d="M149.901 213.141C150.282 211.138 148.303 208.985 146.109 209.96C146.039 209.979 145.949 210.063 146.035 210.129C147.717 211.132 148.46 213.459 147.717 215.405C147.704 215.459 147.722 215.484 147.751 215.496C147.763 215.526 147.786 215.545 147.83 215.531C149.591 214.71 151.697 215.528 152.604 217.389C152.669 217.486 152.736 217.382 152.757 217.307C153.631 214.885 151.71 212.72 149.901 213.141Z" fill="black"/>
<path d="M176.92 231.402C177.302 229.399 175.323 227.246 173.128 228.221C173.058 228.241 172.969 228.324 173.055 228.39C174.736 229.393 175.479 231.72 174.736 233.667C174.723 233.721 174.742 233.746 174.77 233.757C174.782 233.787 174.805 233.807 174.85 233.793C176.61 232.971 178.716 233.79 179.623 235.65C179.688 235.748 179.755 235.643 179.777 235.569C180.65 233.146 178.729 230.981 176.92 231.402Z" fill="black"/>
<path d="M173.144 189.334C173.525 187.331 171.546 185.178 169.352 186.153C169.282 186.173 169.192 186.256 169.278 186.322C170.96 187.325 171.703 189.652 170.96 191.598C170.947 191.652 170.965 191.677 170.994 191.689C171.006 191.718 171.028 191.738 171.073 191.724C172.834 190.903 174.94 191.721 175.847 193.582C175.912 193.679 175.979 193.575 176 193.5C176.874 191.078 174.953 188.913 173.144 189.334Z" fill="black"/>
<path d="M180.119 189.334C180.5 187.331 178.521 185.178 176.326 186.153C176.256 186.173 176.167 186.256 176.253 186.322C177.935 187.325 178.677 189.652 177.934 191.598C177.922 191.652 177.94 191.677 177.969 191.689C177.981 191.718 178.003 191.738 178.048 191.724C179.809 190.903 181.914 191.721 182.822 193.582C182.887 193.679 182.954 193.575 182.975 193.5C183.849 191.078 181.928 188.913 180.119 189.334Z" fill="black"/>
<path d="M187.094 189.334C187.475 187.331 185.496 185.178 183.301 186.153C183.231 186.173 183.142 186.256 183.227 186.322C184.91 187.325 185.652 189.652 184.909 191.598C184.896 191.652 184.915 191.677 184.944 191.689C184.956 191.718 184.978 191.738 185.022 191.724C186.784 190.903 188.889 191.721 189.796 193.582C189.862 193.679 189.928 193.575 189.95 193.5C190.824 191.078 188.902 188.913 187.094 189.334Z" fill="black"/>
<path d="M166.03 220.743C166.426 218.74 164.369 216.587 162.089 217.562C162.016 217.582 161.923 217.665 162.012 217.731C163.759 218.734 164.531 221.061 163.759 223.007C163.746 223.061 163.765 223.087 163.796 223.098C163.808 223.128 163.832 223.147 163.877 223.133C165.707 222.312 167.896 223.13 168.839 224.991C168.906 225.088 168.976 224.984 168.998 224.909C169.906 222.487 167.91 220.322 166.03 220.743Z" fill="black"/>
<path d="M173.279 220.743C173.675 218.74 171.618 216.587 169.337 217.562C169.264 217.582 169.172 217.665 169.261 217.731C171.009 218.734 171.781 221.061 171.009 223.007C170.995 223.061 171.015 223.087 171.044 223.098C171.057 223.128 171.08 223.147 171.126 223.133C172.956 222.312 175.144 223.13 176.087 224.991C176.155 225.088 176.225 224.984 176.247 224.909C177.155 222.487 175.159 220.322 173.279 220.743Z" fill="black"/>
<path d="M180.527 220.743C180.924 218.74 178.867 216.587 176.586 217.562C176.513 217.582 176.421 217.665 176.509 217.731C178.257 218.734 179.029 221.061 178.257 223.007C178.243 223.061 178.263 223.087 178.293 223.098C178.306 223.128 178.329 223.147 178.375 223.133C180.205 222.312 182.393 223.13 183.336 224.991C183.404 225.088 183.473 224.984 183.495 224.909C184.404 222.487 182.408 220.322 180.527 220.743Z" fill="black"/>
<path d="M187.776 220.743C188.172 218.74 186.116 216.587 183.835 217.562C183.762 217.582 183.669 217.665 183.758 217.731C185.506 218.734 186.278 221.061 185.506 223.007C185.492 223.061 185.512 223.087 185.542 223.098C185.554 223.128 185.578 223.147 185.624 223.133C187.454 222.312 189.642 223.13 190.585 224.991C190.653 225.088 190.722 224.984 190.744 224.909C191.653 222.487 189.656 220.322 187.776 220.743Z" fill="black"/>
<path d="M168.444 213.171C168.936 211.292 166.943 209.337 164.583 210.307C164.508 210.327 164.41 210.408 164.498 210.467C166.228 211.356 166.908 213.508 166.037 215.345C166.02 215.395 166.039 215.419 166.069 215.429C166.08 215.456 166.103 215.474 166.151 215.459C168.046 214.644 170.233 215.35 171.107 217.061C171.171 217.15 171.247 217.051 171.272 216.981C172.303 214.696 170.372 212.728 168.444 213.171Z" fill="black"/>
<path d="M172.692 209.183C173.184 207.304 171.191 205.349 168.83 206.319C168.756 206.34 168.658 206.42 168.745 206.479C170.476 207.369 171.156 209.52 170.285 211.357C170.269 211.408 170.287 211.431 170.317 211.441C170.328 211.468 170.351 211.486 170.398 211.471C172.294 210.657 174.48 211.362 175.355 213.073C175.419 213.163 175.494 213.064 175.521 212.993C176.551 210.708 174.621 208.741 172.692 209.183Z" fill="black"/>
<path d="M176.94 205.195C177.431 203.316 175.439 201.361 173.078 202.331C173.004 202.352 172.905 202.432 172.993 202.492C174.724 203.381 175.404 205.532 174.532 207.369C174.516 207.42 174.535 207.443 174.565 207.453C174.576 207.48 174.599 207.498 174.646 207.484C176.542 206.669 178.728 207.375 179.602 209.085C179.667 209.175 179.742 209.076 179.768 209.005C180.799 206.72 178.869 204.753 176.94 205.195Z" fill="black"/>
<path d="M181.187 201.208C181.679 199.328 179.686 197.374 177.326 198.343C177.252 198.364 177.153 198.444 177.241 198.504C178.972 199.393 179.651 201.544 178.78 203.382C178.764 203.432 178.782 203.455 178.813 203.465C178.823 203.492 178.847 203.511 178.894 203.496C180.789 202.681 182.976 203.386 183.85 205.097C183.914 205.187 183.99 205.088 184.016 205.017C185.047 202.733 183.116 200.765 181.187 201.208Z" fill="black"/>
<path d="M185.436 197.22C185.927 195.341 183.934 193.386 181.574 194.355C181.499 194.376 181.401 194.456 181.489 194.516C183.219 195.406 183.899 197.556 183.028 199.394C183.012 199.444 183.03 199.467 183.061 199.477C183.072 199.504 183.095 199.522 183.142 199.508C185.037 198.693 187.224 199.399 188.098 201.109C188.163 201.199 188.238 201.1 188.264 201.029C189.295 198.745 187.364 196.777 185.436 197.22Z" fill="black"/>
<path d="M149.955 230.924H163.983C170.359 230.924 174.716 235.141 174.716 240.45C174.716 243.885 172.856 246.8 170.146 248.153V248.465C173.334 250.079 175.407 253.567 175.407 257.262C175.407 262.988 170.465 267.36 163.877 267.36H149.955V230.924ZM163.558 246.436C166.905 246.436 169.35 244.145 169.35 240.97C169.35 237.795 166.905 235.557 163.558 235.557H155.215V246.436H163.558ZM164.036 262.727C167.277 262.727 170.041 260.073 170.041 256.898C170.041 253.723 167.277 251.016 164.036 251.016H155.215V262.727H164.036Z" fill="black"/>
<path d="M183.215 230.924H197.242C203.619 230.924 208.242 235.453 208.242 241.491C208.242 246.332 205.32 249.975 200.537 251.381L209.571 267.36H203.673L195.223 252.318H188.475V267.36H183.215V230.924ZM196.711 247.685C200.165 247.685 202.875 244.978 202.875 241.595C202.875 238.264 200.165 235.557 196.711 235.557H188.475V247.685H196.711Z" fill="black"/>
<path d="M217.059 230.924H222.425L241.129 258.407H241.448V230.924H246.549V267.36H241.182L222.425 239.877H222.106V267.36H217.059V230.924Z" fill="black"/>
<path d="M254.993 249.142C254.993 238.212 262.963 230.352 273.962 230.352C284.961 230.352 292.932 238.212 292.932 249.142C292.932 260.073 284.961 267.933 273.962 267.933C262.963 267.933 254.993 260.073 254.993 249.142ZM273.962 263.196C281.933 263.196 287.565 257.418 287.565 249.142C287.565 240.866 281.933 235.088 273.962 235.088C265.938 235.088 260.36 240.866 260.36 249.142C260.36 257.418 265.938 263.196 273.962 263.196Z" fill="black"/>
<path d="M220.861 202.539C220.976 202.619 221.043 202.758 221.007 202.898C220.6 204.802 220.458 205.98 220.559 206.934C220.602 207.401 220.693 207.792 220.782 208.08C220.885 208.372 220.997 208.559 221.073 208.587C221.152 208.616 221.359 208.552 221.614 208.347C221.881 208.146 222.187 207.799 222.425 207.28C222.663 206.765 222.813 206.078 222.761 205.279C222.676 204.487 222.427 203.559 221.761 202.713C221.679 202.591 221.638 202.436 221.684 202.297C221.865 201.787 221.934 201.227 221.823 200.965C221.714 200.695 221.461 200.771 220.889 201.4C220.051 201.416 219.847 201.606 219.938 201.796C220.036 201.99 220.45 202.237 220.861 202.539Z" fill="black"/>
<path d="M208.076 200.25C208.064 200.108 208.154 199.985 208.282 199.926C209.181 199.505 209.864 199.222 210.449 198.975C211.022 198.72 211.485 198.476 211.88 198.23C212.273 197.985 212.591 197.739 212.817 197.532C213.04 197.312 213.164 197.141 213.157 197.058C213.15 196.978 213.001 196.815 212.701 196.683C212.4 196.536 211.944 196.414 211.352 196.443C210.765 196.472 210.036 196.665 209.336 197.152C208.63 197.618 207.984 198.424 207.679 199.446C207.634 199.589 207.515 199.703 207.381 199.757C207.127 199.85 206.868 199.963 206.652 200.087C206.453 200.217 206.294 200.355 206.222 200.477C206.073 200.73 206.292 200.877 207.148 200.927C207.681 201.564 207.96 201.602 208.054 201.416C208.103 201.318 208.111 201.153 208.099 200.944C208.102 200.746 208.091 200.505 208.076 200.25Z" fill="black"/>
<path d="M212.595 212.862C212.473 212.925 212.314 212.93 212.204 212.835C211.404 212.254 210.846 211.754 210.347 211.376C209.843 211.006 209.429 210.695 209.014 210.479C208.23 210.016 207.534 209.8 207.374 209.894C207.252 209.96 207.046 210.722 207.63 211.754C207.938 212.241 208.432 212.808 209.206 213.183C209.96 213.565 210.969 213.79 212.041 213.58C212.189 213.563 212.351 213.588 212.459 213.692C212.851 214.077 213.339 214.373 213.626 214.391C213.92 214.412 213.96 214.156 213.629 213.378C213.978 212.632 213.892 212.37 213.677 212.367C213.454 212.366 213.047 212.632 212.595 212.862Z" fill="black"/>
<path d="M220.499 225.769C220.42 225.888 220.273 225.927 220.135 225.903C218.182 225.569 216.892 225.704 215.964 226.084C215.044 226.383 214.536 226.915 214.54 227.082C214.544 227.24 215.088 227.724 216.135 227.938C217.16 228.077 218.75 227.919 220.343 226.636C220.454 226.547 220.612 226.535 220.744 226.575C221.724 226.893 222.796 227.045 221.63 225.828C221.698 224.191 221.078 224.921 220.499 225.769Z" fill="black"/>
<path d="M234.882 208.513C234.952 208.632 234.946 208.781 234.871 208.897C234.369 209.723 233.951 210.417 233.741 211.054C233.548 211.696 233.409 212.24 233.39 212.721C233.369 213.2 233.439 213.607 233.533 213.903C233.604 214.191 233.711 214.373 233.79 214.404C233.864 214.434 234.075 214.378 234.35 214.209C234.603 214.032 234.909 213.735 235.196 213.297C235.48 212.861 235.773 212.289 235.849 211.555C235.941 210.827 235.968 209.97 235.641 209.004C235.599 208.868 235.634 208.719 235.733 208.619C236.097 208.251 236.444 207.842 236.474 207.594C236.495 207.343 236.233 207.271 235.444 207.529C234.682 207.148 234.415 207.194 234.415 207.423C234.403 207.653 234.621 208.079 234.882 208.513Z" fill="black"/>
<path d="M226.524 187.529C226.662 187.526 226.791 187.604 226.857 187.725C227.085 188.162 227.342 188.502 227.553 188.85C227.766 189.195 227.985 189.487 228.208 189.736C228.675 190.213 229.071 190.612 229.486 190.868C230.322 191.369 231.016 191.503 231.155 191.403C231.283 191.311 231.418 190.565 230.918 189.645C230.674 189.184 230.325 188.635 229.706 188.2C229.408 187.973 229.065 187.754 228.679 187.554C228.294 187.352 227.815 187.231 227.322 187.114C227.181 187.084 227.065 186.981 227.023 186.845C226.945 186.597 226.857 186.347 226.758 186.144C226.65 185.954 226.537 185.804 226.429 185.735C226.209 185.596 226.025 185.79 225.892 186.6C225.197 187.081 225.117 187.336 225.319 187.444C225.421 187.499 225.598 187.519 225.816 187.52C226.025 187.535 226.27 187.536 226.524 187.529Z" fill="black"/>
<path d="M211.224 183.863C211.324 183.768 211.472 183.721 211.605 183.778C212.545 184.158 213.328 184.297 214.01 184.372C214.692 184.471 215.271 184.429 215.755 184.32C216.715 184.134 217.302 183.744 217.329 183.565C217.352 183.422 216.904 182.805 215.902 182.465C215.403 182.312 214.769 182.214 214.025 182.248C213.282 182.306 212.428 182.576 211.535 183.02C211.409 183.079 211.256 183.099 211.132 183.027C210.228 182.531 209.207 182.18 210.121 183.592C209.741 185.185 210.494 184.586 211.224 183.863Z" fill="black"/>
<path d="M193.744 198.039C193.696 197.912 193.73 197.766 193.826 197.666C194.168 197.309 194.444 196.968 194.675 196.643C194.94 196.331 195.15 196.03 195.318 195.739C195.486 195.449 195.61 195.168 195.704 194.899C195.823 194.644 195.906 194.399 195.964 194.166C196.184 193.239 196.016 192.523 195.888 192.44C195.739 192.345 195.032 192.514 194.297 193.274C194.112 193.463 193.926 193.686 193.747 193.947C193.594 194.22 193.454 194.532 193.335 194.881C193.215 195.229 193.117 195.616 193.052 196.037C193.021 196.469 193.032 196.938 193.086 197.435C193.101 197.574 193.039 197.715 192.922 197.797C192.037 198.403 191.41 199.211 193.05 198.925C194.443 199.901 194.074 198.958 193.744 198.039Z" fill="black"/>
<path d="M198.265 220.294C198.13 220.27 198.02 220.167 197.981 220.035C197.85 219.561 197.676 219.172 197.538 218.792C197.402 218.411 197.25 218.081 197.084 217.791C196.73 217.226 196.413 216.762 196.066 216.425C195.355 215.763 194.684 215.506 194.535 215.573C194.383 215.643 194.118 216.339 194.412 217.34C194.549 217.842 194.785 218.441 195.296 218.993C195.54 219.275 195.828 219.559 196.162 219.832C196.501 220.103 196.939 220.323 197.397 220.537C197.528 220.596 197.619 220.72 197.632 220.862C197.664 221.39 197.79 221.893 197.979 222.067C198.164 222.249 198.385 222.096 198.688 221.33C199.469 221.002 199.601 220.769 199.427 220.622C199.245 220.479 198.751 220.397 198.265 220.294Z" fill="black"/>
<path d="M232.262 218.38C232.266 218.515 232.188 218.641 232.066 218.703C231.229 219.17 230.512 219.553 230.02 220.001C229.766 220.218 229.565 220.449 229.383 220.664C229.189 220.866 229.031 221.071 228.904 221.27C228.394 222.066 228.339 222.796 228.447 222.926C228.547 223.049 229.263 223.103 230.194 222.635C230.427 222.518 230.672 222.369 230.92 222.184C231.157 221.987 231.38 221.736 231.604 221.452C232.036 220.87 232.493 220.161 232.68 219.17C232.71 219.033 232.813 218.923 232.948 218.885C233.946 218.605 234.913 218.152 233.233 217.811C232.323 216.46 232.236 217.389 232.262 218.38Z" fill="black"/>
<path d="M231.715 187.727C231.85 187.76 231.941 187.877 231.963 188.011C232.101 188.982 232.4 189.68 232.648 190.296C232.899 190.907 233.225 191.362 233.563 191.707C234.19 192.415 234.834 192.706 235.001 192.64C235.142 192.586 235.459 191.91 235.275 190.9C235.159 190.408 234.927 189.83 234.523 189.229C234.125 188.627 233.429 188.073 232.591 187.563C232.471 187.493 232.401 187.358 232.401 187.22C232.369 186.225 232.152 185.207 231.386 186.686C229.794 187.2 230.707 187.504 231.715 187.727Z" fill="black"/>
<path d="M200.132 184.118C200.178 183.992 200.298 183.905 200.437 183.891C201.417 183.79 202.159 183.569 202.811 183.378C203.449 183.169 203.918 182.844 204.305 182.566C205.079 182.025 205.401 181.375 205.348 181.216C205.299 181.066 204.645 180.753 203.595 180.84C203.075 180.891 202.487 181.115 201.851 181.474C201.204 181.81 200.583 182.431 200.024 183.246C199.945 183.361 199.807 183.426 199.664 183.413C198.607 183.313 197.603 183.523 199.036 184.348C199.468 185.964 199.794 185.027 200.132 184.118Z" fill="black"/>
<path d="M190.805 211.387C190.697 211.301 190.65 211.161 190.68 211.03C190.862 210.104 191.026 209.314 190.991 208.651C190.962 207.989 190.825 207.44 190.692 206.987C190.388 206.088 189.847 205.595 189.677 205.597C189.516 205.6 189.02 206.118 188.797 207.112C188.666 207.609 188.669 208.22 188.839 208.916C189.015 209.61 189.273 210.402 189.92 211.185C190.006 211.296 190.026 211.444 189.967 211.57C189.537 212.494 189.26 213.504 190.617 212.48C192.259 212.683 191.592 212.012 190.805 211.387Z" fill="black"/>
<path d="M212.528 230.037C212.416 230.116 212.265 230.124 212.144 230.06C211.277 229.639 210.542 229.312 209.886 229.15C209.23 228.991 208.654 228.994 208.178 228.99C207.221 229.028 206.583 229.399 206.537 229.56C206.493 229.711 206.859 230.321 207.781 230.81C208.237 231.076 208.846 231.218 209.577 231.253C210.307 231.291 211.161 231.22 212.099 230.82C212.231 230.768 212.383 230.788 212.491 230.877C213.289 231.529 214.211 232.058 213.557 230.505C214.185 229.009 213.349 229.459 212.528 230.037Z" fill="black"/>
</g>
</svg>
