<svg viewBox="0 0 88 80" fill="none" xmlns="http://www.w3.org/2000/svg">
<path d="M63.9087 33.5192C63.1525 33.7994 62.2273 34.7599 61.9307 35.4999C62.4643 34.7303 64.2167 33.5901 66.0072 33.5508C65.6223 33.5181 64.68 33.2323 63.9087 33.5192Z" fill="white"/>
<path d="M64.4414 35.11C63.7259 35.4832 62.9252 36.5534 62.7222 37.3241C63.1571 36.4931 64.7571 35.1416 66.5278 34.8774C66.1426 34.8936 65.1728 34.7285 64.4414 35.11Z" fill="white"/>
<path d="M65.1043 36.795C64.4397 37.2562 63.7776 38.4184 63.6704 39.2095C63.9999 38.3301 65.4205 36.787 67.1449 36.3008C66.7647 36.3654 65.7822 36.3241 65.1043 36.795Z" fill="white"/>
<path d="M37.8325 6.96387C40.6822 6.28204 45.8963 6.44489 47.2437 6.57812C47.3219 6.63201 47.2883 6.84444 47.2437 6.88965C47.0895 7.04365 46.7228 7.17307 46.5288 7.35156C45.8741 7.95681 44.7335 8.92232 44.8687 8.88184C44.8933 8.87387 45.0039 8.8527 45.0288 8.84473C46.9148 8.26597 50.6691 6.95724 50.8403 6.98926C55.8782 7.9504 61.9763 10.3305 67.0962 14.5381C68.4338 15.6372 69.4831 16.5678 70.6108 17.7656C74.6509 22.0574 77.7564 27.6626 79.1108 33.9932C79.4663 35.6529 79.6425 37.8378 79.3267 40.6621C78.9833 43.7274 77.0884 48.8721 77.0884 48.8721C77.1129 48.8887 78.3281 49.7311 77.3042 52.915C75.2348 59.3508 68.5114 63.4129 68.4956 63.3457C68.4931 63.3038 68.6409 60.0215 70.6831 58.0723C73.3134 55.5617 74.8101 53.2334 74.8101 53.2334C72.6558 55.9044 72.7687 55.3791 69.9116 57.6162C67.6333 59.4002 67.6021 63.2881 67.6021 63.2881C63.3385 52.7184 73.9492 51.8955 76.2007 47.3623C78.05 43.6388 78.5791 39.6191 77.7847 33.917C77.0098 28.3535 72.525 21.8706 69.5806 18.7637C67.8438 16.9305 65.3512 14.7792 63.2202 13.4072C61.4795 12.2858 60.804 11.8848 58.8579 11.0742C58.6299 10.9789 58.2481 11.1473 57.9849 11.1689C55.3304 11.553 53.1925 12.529 51.9116 13.8643C51.6452 14.1424 50.9612 14.5894 51.1099 14.9512C51.5225 15.9564 53.3531 16.6526 54.2397 17.1084C55.778 17.8996 57.3644 18.6348 58.7271 19.7246C59.3999 20.263 59.9837 20.8893 60.5103 21.5742C60.8043 21.9579 61.0819 22.356 61.3442 22.7627C61.823 23.5029 62.0584 23.9819 62.8599 24.4092C63.6788 24.8461 64.562 25.1604 65.3501 25.6592C67.1607 26.8048 68.8404 28.1504 70.645 29.3105C71.3856 29.7876 72.2413 30.4561 72.3257 31.4121C72.4156 32.4447 71.6437 33.2895 71.3071 34.1982C71.1063 34.7402 70.6042 35.017 70.4956 35.6074C70.3832 36.2137 70.7518 36.8155 70.6919 37.4277C70.6356 37.9933 70.353 38.4902 70.0298 38.9414C69.9319 39.0775 69.1415 39.8586 69.1567 39.917C69.6565 41.7689 70.2577 44.1886 69.0171 45.9004C67.8148 47.559 65.0679 46.713 63.5112 46.1621C62.6546 45.8595 61.8266 45.48 60.9604 45.2041C60.1321 44.9402 59.2263 44.7905 58.3696 44.6709C58.3187 45.7436 58.7133 46.9164 58.8833 47.9766C58.9777 48.9201 59.2329 50.314 59.2612 50.8711C59.3526 52.6552 59.2184 54.3136 59.6646 56.0703C60.1281 57.8961 60.8873 59.6257 61.4956 61.4033C61.5706 61.6232 61.7572 62.0846 61.6421 62.0684C59.7356 60.9062 58.8011 58.6743 57.0659 57.3066C54.8617 55.5692 52.2978 54.0852 49.7271 52.9814C47.4591 52.0084 45.1666 50.9032 43.1362 49.4766C41.9519 48.6456 40.9196 47.5883 39.6216 46.9268C36.417 45.2958 32.4392 46.9085 29.1294 45.3066C27.4736 44.5044 25.9191 43.3401 24.021 43.248C22.0022 43.1495 19.9232 43.7463 18.23 44.8574C17.4234 45.387 16.8378 46.2878 15.9653 46.4609C15.6614 46.5201 12.6222 46.352 12.6001 46.4619C12.6991 45.7298 13.7839 44.5987 14.1187 44.1465C14.217 44.0139 12.7482 44.5652 12.4438 44.6787C12.1769 44.7778 12.0258 45.0711 11.8442 45.2148C11.1789 45.7421 10.8999 46.4424 10.8999 46.4424C10.5401 46.4424 7.62424 46.455 7.60303 46.4551C7.4059 43.6841 7.50453 41.4874 7.70166 39.7285C7.70716 39.682 7.82542 39.6304 7.84912 39.5791C8.19806 38.8077 10.3494 37.465 10.3501 36.8721C10.3501 36.8171 10.1884 36.8593 9.84521 36.9834C9.70239 37.0349 9.45117 36.962 9.29053 37.0215C8.66277 37.2546 8.03703 37.5859 8.05908 37.4453C8.60086 33.9523 9.75854 30.1849 9.93115 30.1338C10.4968 29.9698 10.9416 29.8597 11.8042 29.3105C12.5273 28.8505 13.3012 28.5727 13.6763 28.3623C13.8664 28.2559 13.9907 28.0773 13.8491 28.0381C13.15 27.8482 12.0339 27.1947 11.5327 26.8906C11.3488 26.7778 11.5381 26.4509 11.5571 26.416C13.799 22.299 16.1157 19.416 16.1157 19.416C16.2307 19.3386 16.3506 19.4544 16.5591 19.3916C17.3511 19.1495 20.491 18.621 20.4946 18.4609C20.4946 18.3488 18.4271 18.2732 18.1479 18.2559C17.6678 18.2262 17.1595 18.1433 17.2485 18.0557C23.2351 12.1666 29.0246 9.04772 35.4546 7.42578C35.5089 7.4124 35.5763 7.41584 35.6274 7.60059C35.6405 7.64756 35.5186 7.84573 35.5288 7.90039C35.6233 8.39008 35.7673 9.32041 35.9468 9.68457C36.1108 10.0171 36.1294 10.5058 36.2915 10.208C36.6858 9.48484 37.3367 8.25688 37.6274 7.5791C37.7981 7.18042 37.8316 6.96952 37.8325 6.96387ZM39.8882 14.4297C39.8517 14.4274 39.8758 14.4692 39.8394 14.4678C39.9747 14.7177 40.5175 15.0498 40.5913 15.2246C40.6525 15.3619 40.2925 15.6294 40.1851 15.5986C39.3473 15.3618 38.3064 15.0545 37.1177 14.8379C35.1101 14.4707 33.3736 14.6383 33.0659 16.6465C32.6627 19.2769 35.7138 21.2632 38.4233 22.4355C39.0831 22.7213 39.8892 22.7852 40.5298 22.8604C40.9603 22.9226 40.5868 23.1034 40.5425 23.1348C40.2591 23.3842 39.9257 23.5963 39.2729 23.9209C35.1616 26.5512 33.1305 32.2389 34.7271 36.8887C34.9796 37.624 35.314 38.3262 35.6978 39C35.8522 39.2702 37.0313 40.7304 36.9575 40.9521C37.2579 40.0503 37.0318 38.5066 37.6353 37.6084C37.7585 37.3842 37.8564 37.3217 37.8687 37.458C38.3461 40.8505 41.1871 42.8034 43.5073 44.9395C45.5138 46.786 46.8775 49.5162 49.3481 50.7959C50.5557 51.4208 51.7666 51.9633 53.0933 52.2725C54.1108 52.509 55.1643 52.6819 56.1304 53.0967C56.8947 53.4252 57.2676 54.0271 57.9224 54.4648C57.9523 54.4853 58.0661 54.4884 58.0952 54.5029C58.1376 54.3967 58.0707 53.6912 57.9966 52.8428C57.5707 50.2592 57.2443 47.5806 56.188 45.165C55.2533 43.0258 53.8035 41.1966 52.2808 39.46C51.3993 38.4548 50.5722 37.354 50.2798 36.0146C49.9364 34.448 50.2678 32.8579 50.2896 31.2793C50.3101 29.8714 49.9595 28.5524 49.6577 27.1895C49.5226 26.5789 50.1383 27.0148 50.2368 27.3018C50.6681 28.3001 50.7294 28.4872 51.0249 29.4727C51.0518 29.5786 51.21 29.972 51.3452 30.3965C51.7533 31.9395 51.9416 32.8974 52.4292 34.377C52.5856 34.8536 54.504 34.4331 54.8374 34.375C55.4381 34.2697 55.4521 34.174 55.1626 33.6006C55.1369 33.5505 55.0606 33.3976 55.0405 33.3535C54.4537 32.1132 53.6581 31.0068 52.7944 29.9512C52.09 29.0889 51.0424 28.0711 51.3608 26.834C51.7797 25.2166 53.7873 24.8082 55.1392 24.4199C56.5582 24.0117 58.3662 24.1206 59.7212 24.0332C59.8793 24.0232 59.8454 23.821 59.8208 23.7461C59.5889 22.1618 56.3568 20.1706 53.895 19.7666C53.3532 19.6776 52.6367 19.6834 52.2935 19.7412C51.998 19.7929 51.604 22.0254 51.604 23.2227C51.5675 23.3341 51.6029 23.4307 51.5552 23.4219C51.5384 23.4188 51.4742 23.4259 51.4565 23.4219C50.6359 23.2209 50.0537 22.473 49.3931 22.0029C48.8572 22.798 49.0913 23.9007 48.7397 24.7695C48.4156 25.5724 47.7789 26.2143 47.1372 26.7666C46.4958 27.318 45.6515 27.6435 45.1431 28.333C44.7486 28.8676 44.5362 29.5189 44.4663 30.1787C44.4479 30.3535 44.5844 31.4598 44.2495 31.4199C44.0399 31.3945 43.6827 30.8824 43.6089 30.708C42.959 29.1714 43.4599 27.6845 44.0894 26.2412C44.6821 24.8816 45.4817 23.372 44.688 21.9287C43.6357 20.0131 41.3966 18.7363 39.4712 17.9189C39.0297 17.7322 36.3862 16.3355 36.2202 17.3066C36.1075 17.9694 36.8861 18.681 37.2651 19.1416C37.2945 19.1772 37.501 19.0475 37.7095 19.0674C37.9676 19.0921 38.116 19.0918 38.2515 19.0918C38.6945 19.0918 39.2966 19.0917 39.3599 19.1416C39.4292 19.1971 38.3055 20.1581 38.2261 20.291C38.1593 20.4103 40.9279 21.0391 41.1733 21.0918C40.8609 21.0252 40.3206 21.2418 39.9937 21.2783C39.6478 21.317 39.2995 21.3389 38.9517 21.3145C36.7346 21.1564 33.9073 19.3389 33.8872 16.8467C33.881 16.0825 34.2789 15.624 35.0015 15.5C36.4586 15.2509 37.9438 15.8378 39.2847 16.3369C41.1444 17.0287 42.8976 18.0501 44.6196 19.0303C44.6936 19.067 44.7115 19.0093 44.7056 18.9795C44.3854 17.6825 43.6589 16.4864 42.5874 15.4609C42.0455 14.9992 41.0607 14.5137 39.8882 14.4297ZM67.3833 42.1006C67.3685 42.1075 66.8463 42.3499 66.312 42.4619C65.5976 42.6117 64.8552 42.4467 64.8091 42.4746C64.7678 42.5012 64.7929 43.0832 64.4517 43.6221C64.3442 43.792 63.8715 44.1216 63.6509 44.209C63.5239 44.2591 63.6135 44.3589 63.6509 44.3838C64.4776 44.9515 66.1994 45.145 67.0532 44.6123C67.4826 44.3442 67.6205 43.8941 67.6353 43.4092C67.6437 43.1282 67.682 42.252 67.3833 42.1006ZM57.48 37.9951C56.889 37.7956 55.4771 37.484 55.4839 37.7334C55.4966 38.1445 56.1044 38.4811 56.3833 39.1055C56.4249 39.1999 56.4683 39.3009 56.5112 39.4082C56.6569 39.7632 56.7966 40.3419 56.938 40.7646C57.1538 41.4146 57.3743 41.939 57.6401 42.6123C57.6911 42.7394 58.0828 42.6962 58.5151 42.6621C58.7136 42.6466 58.9286 42.702 59.1304 42.6738C59.1923 42.716 59.165 42.6005 59.0562 42.5117C58.502 42.0658 57.8941 41.2111 58.6499 40.8398C58.9067 40.7134 59.3611 40.6846 59.7339 40.6279C59.948 40.5952 60.2757 40.5466 60.4731 40.54C60.7887 40.5312 60.9394 40.6114 61.2241 40.4902C61.2626 40.474 61.2614 40.3291 61.2241 40.2539C60.1525 39.2931 59.0213 38.5155 57.48 37.9951ZM66.7427 29.7734C66.6691 29.7447 66.4598 29.861 66.4233 29.9355C66.3863 31.1205 66.4472 31.8693 66.3979 31.8818C65.5018 32.1086 64.275 32.2197 63.1733 32.5518C61.6476 33.011 60.2897 33.7264 60.1157 35.125C60.0357 35.7655 60.3362 36.3919 60.6411 37.0137C60.8538 37.4464 61.0232 37.9001 61.2622 38.2568C61.969 39.319 63.2077 40.1661 63.8364 40.1914C64.0128 40.1982 64.7112 40.0335 65.5972 39.7676C66.3537 39.5401 66.377 39.6111 67.2729 39.0557C67.8764 38.6812 68.5416 37.3963 68.7056 37.0303C68.8486 36.7103 68.7525 36.1384 68.6646 35.6875C68.4923 34.8013 68.517 34.215 68.1226 33.2793C68.055 33.12 67.8798 32.9889 67.8149 32.8799C67.6303 32.5679 67.6333 32.4221 67.7974 31.5566C67.8521 31.271 67.7407 31.148 67.7407 30.8828C67.7407 30.721 67.7538 30.5966 67.8765 30.4971C68.0737 30.497 68.2297 30.4673 68.0737 30.3467C67.8528 30.1761 67.1986 29.948 66.7427 29.7734ZM55.7554 25.5303C55.5458 25.4558 55.2523 25.5118 55.4106 25.6299C55.6447 25.8049 55.9065 26.162 56.1245 26.4287C56.4166 26.7885 56.4572 27.1028 56.9253 27.3271C57.1063 27.4145 57.5695 27.8141 58.0952 28.3135C58.5932 28.7868 58.7902 28.9659 59.1792 29.3105C59.4749 29.5726 60.4601 28.987 60.3628 28.7871C60.1346 28.327 59.949 28.0498 59.6597 27.7021C59.3272 27.3031 59.2165 26.9533 59.0688 26.8408C58.5391 26.4395 57.8576 26.6809 57.4917 26.5283C56.5927 26.1546 56.2861 25.7204 55.7554 25.5303ZM59.9683 24.957C59.8348 24.8565 59.6894 24.9443 59.4878 24.9443C59.3525 24.9446 59.4263 25.3437 59.4263 25.543C59.5049 25.7423 59.6527 25.7292 59.7593 25.8926C60.034 26.3164 60.6254 26.8155 61.0767 27.1396C61.2428 27.2594 61.3473 27.5024 61.5444 27.5146C61.7407 27.5272 61.7619 27.512 61.7661 27.3145C61.7788 26.8157 61.7177 26.6906 61.6685 26.6533C61.5095 26.5332 61.3473 26.3541 61.1626 26.2285C60.6926 25.9114 60.4979 25.3564 59.9683 24.957Z" fill="white"/>
<path d="M21.8388 67.4196C21.3286 67.4196 20.9149 67.8393 20.9149 68.3563C20.9149 68.8736 21.3284 69.2921 21.8388 69.2921C22.3488 69.2921 22.7625 68.8736 22.7625 68.3563C22.7625 67.8393 22.3488 67.4196 21.8388 67.4196ZM50.7405 76.2131C50.7405 76.2131 50.6494 76.1194 50.728 76.0508C50.9868 75.8264 51.361 75.24 51.5581 74.6287C51.695 74.2042 51.9968 73.5429 52.1942 73.5429C53.0811 73.5429 54.8083 73.107 56.1404 72.7318C57.0912 72.4636 58.4069 72.0505 59.3105 71.8005C63.415 70.6672 67.1282 68.789 70.4131 66.161C70.4131 66.161 62.8197 75.6627 50.7405 76.2131ZM43.9701 76.8744C43.4446 77.0569 41.4244 77.2237 40.5211 77.3063C39.8912 77.3063 38.7639 77.2898 37.1213 77.1566C36.4584 77.0771 35.6461 76.914 34.9699 76.7577C34.3485 75.5893 33.4336 74.3503 32.4361 73.4683C31.2183 72.3901 29.4922 71.5466 28.7781 70.7853C28.7054 70.7076 28.5193 69.5127 28.5931 69.4506C28.6373 69.4657 28.7266 69.5563 28.7617 69.5876C30.404 71.0515 32.3105 71.905 34.5592 72.7648C36.9081 73.663 39.1579 73.9958 41.5231 74.1957C42.0944 74.2441 43.4217 74.3136 44.2164 74.3796C45.0213 74.4459 45.5143 74.4289 45.5143 74.4289C45.6285 74.711 45.7117 74.8562 45.7117 75.0774C45.7117 75.2104 44.5411 76.6754 43.9701 76.8744ZM31.373 75.2104C31.1153 75.0962 30.9394 75.0993 30.7977 75.0276C29.6602 74.4516 28.7289 73.7128 28.3839 73.3476C28.286 73.2437 28.2871 72.9689 28.4823 72.998C29.3692 73.1312 30.9937 73.8748 31.192 73.9796C31.5 74.1419 33.1301 75.427 33.5408 76.0921C33.0973 75.9756 32.0116 75.4956 31.373 75.2104ZM26.5116 71.5836C25.3288 71.9081 24.1959 71.8583 23.2595 71.7837C23.1093 71.7712 23.0405 71.3983 23.0131 71.2596C23.0131 71.2596 24.8116 71.1099 25.2058 70.1114C25.4029 69.3128 25.5557 68.6128 25.1563 67.9657C25.0333 67.7658 25.6739 67.9158 25.994 68.2148C26.3213 68.5205 26.5161 68.7597 26.61 69.1386C26.6592 69.3379 26.8812 70.1866 26.9058 71.1346C26.9087 71.2533 26.6292 71.5511 26.5116 71.5836ZM20.0848 68.3651C20.0848 67.3746 20.8775 66.5712 21.8553 66.5712C22.8327 66.5712 23.6251 67.3746 23.6251 68.3651C23.6251 69.3553 22.8327 70.1578 21.8553 70.1578C20.8775 70.1578 20.0848 69.3544 20.0848 68.3651ZM80.3707 38.9316C80.3707 38.9316 79.8644 43.3029 79.2459 45.4541C78.6274 47.6055 78.0954 48.7426 78.0954 48.7426C79.4359 50.4112 77.2413 54.4146 76.9666 55.0139C76.2126 56.6575 75.1294 58.3045 74.3551 59.2568C72.7784 61.0529 71.2016 62.2509 69.2307 63.4487C66.5739 64.795 63.9286 65.5748 61.2116 66.1066C59.0905 66.5211 56.9252 66.8229 54.679 66.8761C53.4389 66.9052 52.4781 66.8801 50.7167 66.8178C51.0827 64.8434 54.0218 63.4486 54.7113 63.0495C51.6101 63.1839 48.1091 66.1994 48.0766 66.1769C49.1768 64.0351 52.0604 62.7295 54.6459 62.2182C57.1489 61.7237 59.528 62.0388 59.9344 62.0849C57.4792 60.4622 53.2423 60.9578 50.885 61.5904C48.9067 62.1217 45.5683 63.7857 43.6417 65.6448C39.7 65.4449 33.3196 64.672 18.8251 64.4969C18.4888 64.4929 18.2745 64.4269 17.9382 64.4719C17.8955 64.4719 17.6455 64.4531 17.6673 64.5467C17.678 64.5928 17.6427 64.6287 17.6673 64.6965C18.0612 65.2955 18.3568 66.0693 18.0612 66.3933C17.6178 65.9443 16.657 64.7716 16.2877 64.6213C16.2345 64.6575 16.1033 64.8525 15.9672 64.9453C15.7246 65.1121 15.3512 65.4444 15.2036 65.6437C21.7071 73.8299 32.1035 79.794 44.1262 79.7812C56.9611 79.7681 71.6329 71.9457 77.3117 58.059C78.2096 55.862 78.9266 53.6067 79.4555 51.3131C79.4555 51.3131 80.632 44.7819 80.3707 38.9316Z" fill="white"/>
<path d="M5.19998 41.1917C5.22289 41.3673 5.26673 41.582 5.2506 42.2334C5.23335 42.9451 5.02944 43.4932 4.10518 43.4704L2.20746 43.4231C1.28293 43.4004 1.10616 42.8426 1.1237 42.1312C1.13954 41.4798 1.19356 41.2677 1.22523 41.0932C1.23796 41.0112 1.26596 40.9847 1.34204 40.9864L1.6899 40.9952C1.74986 40.9967 1.79766 41.047 1.79596 41.1074L1.76881 42.224C1.76117 42.5414 1.86695 42.659 2.22585 42.6678L2.81326 42.6823L2.84947 41.1991C2.85088 41.139 2.90094 41.0909 2.9609 41.0923L3.35232 41.102C3.41228 41.1034 3.45979 41.1541 3.45838 41.2142L3.42218 42.6974L4.12357 42.7148C4.48247 42.7236 4.5939 42.6115 4.60182 42.294L4.62897 41.1774C4.63066 41.1171 4.68072 41.0693 4.7404 41.0707L5.08855 41.0792C5.16463 41.0812 5.19121 41.1094 5.19998 41.1917Z" fill="white"/>
<path d="M5.48289 38.8972C5.38503 39.7735 4.93705 40.3511 3.78541 40.2204L1.3574 39.9457C1.29801 39.9389 1.26011 39.8851 1.2669 39.825L1.32714 39.2863C1.33392 39.2263 1.38257 39.1821 1.44196 39.189L3.86997 39.464C4.48652 39.5337 4.79536 39.4145 4.86097 38.8266C4.92687 38.2389 4.65197 38.0533 4.03542 37.9836L1.60741 37.7085C1.54802 37.7017 1.5104 37.6479 1.51691 37.5878L1.57715 37.0489C1.58394 36.9891 1.63258 36.9453 1.69226 36.9518L4.11998 37.2268C5.27162 37.3572 5.58103 38.0206 5.48289 38.8972Z" fill="white"/>
<path d="M3.36964 33.9651C2.9703 33.8806 2.74376 34.1126 2.63205 34.6487C2.60858 34.7614 2.56332 35.0316 2.55399 35.1304L3.75202 35.3835C3.77521 35.2989 3.84874 35.0008 3.86769 34.9097C3.9828 34.3577 3.88636 34.0741 3.41744 33.9751L3.36964 33.9651ZM6.33303 33.7516L6.19671 34.4055C6.18427 34.4648 6.12657 34.4747 6.06774 34.4904L4.48509 34.9618L4.46953 35.037C4.4404 35.1762 4.37959 35.3875 4.34848 35.5096L5.79171 35.8145C5.85026 35.8267 5.88928 35.8797 5.87712 35.9386L5.76541 36.475C5.75297 36.5339 5.69499 36.5721 5.63644 36.5596L1.97251 35.7855C1.86617 35.763 1.84214 35.6907 1.84864 35.5802C1.8642 35.2924 1.9168 34.906 1.99853 34.5149C2.17049 33.6895 2.61338 33.0327 3.52378 33.2252L3.57186 33.2354C4.13637 33.3547 4.42852 33.7132 4.50715 34.1886L6.23772 33.6756C6.25582 33.6682 6.27194 33.6716 6.28269 33.6739C6.31974 33.6818 6.34208 33.7086 6.33303 33.7516Z" fill="white"/>
<path d="M4.89462 30.2014C4.20878 29.9868 3.82641 30.1368 3.66803 30.6493C3.50994 31.162 3.74072 31.5036 4.42656 31.718L5.12795 31.9375C5.81379 32.1519 6.19616 32.0019 6.35454 31.4894C6.51263 30.9769 6.28185 30.635 5.59602 30.4206L4.89462 30.2014ZM6.98325 31.6858C6.71683 32.549 6.04513 33.0271 4.90198 32.6698L4.20058 32.4503C3.05743 32.093 2.77319 31.3157 3.03933 30.4528C3.30574 29.5899 3.97744 29.1116 5.1206 29.4692L5.82199 29.6884C6.96515 30.046 7.24938 30.8229 6.98325 31.6858Z" fill="white"/>
<path d="M5.84312 26.4792C5.42115 26.3027 5.15587 26.4883 4.94687 26.994C4.90331 27.1002 4.80885 27.3572 4.78142 27.4523L5.97689 27.9528C6.01507 27.874 6.14234 27.595 6.1777 27.509C6.40339 26.9629 6.28997 26.6666 5.88837 26.4983L5.84312 26.4792ZM6.75041 27.7487C6.69611 27.8802 6.5974 28.0761 6.54423 28.1905L7.85538 28.7389C7.91053 28.7622 7.93938 28.8214 7.91619 28.8772L7.70747 29.3829C7.68456 29.4384 7.62036 29.4651 7.56521 29.4418L4.10915 27.9955C4.00875 27.9534 3.99857 27.8779 4.02544 27.7706C4.0936 27.4908 4.21691 27.1212 4.36935 26.752C4.6912 25.9733 5.24213 25.4093 6.13131 25.7814L6.17657 25.8005C7.06575 26.1726 7.07197 26.97 6.75041 27.7487Z" fill="white"/>
<path d="M10.0527 24.2369C9.99671 24.4049 9.94241 24.6173 9.64403 25.1958C9.31794 25.8278 8.89569 26.2304 8.07495 25.8014L6.38963 24.9205C5.5686 24.4912 5.65288 23.9121 5.97869 23.2801C6.27706 22.7016 6.41848 22.5347 6.52284 22.3918C6.57007 22.3241 6.60655 22.3121 6.67414 22.3477L6.98327 22.5091C7.03644 22.537 7.05737 22.6033 7.02965 22.6569L6.51831 23.6485C6.37266 23.9306 6.41678 24.0829 6.73552 24.2495L7.25704 24.5222L7.93637 23.2049C7.96409 23.1514 8.02998 23.1303 8.08315 23.1579L8.43102 23.3399C8.48391 23.3675 8.50512 23.4341 8.4774 23.4873L7.79779 24.8049L8.42084 25.1303C8.73958 25.2969 8.88862 25.2453 9.03427 24.9635L9.54561 23.9719C9.57333 23.9184 9.63923 23.8973 9.6924 23.9252L10.0015 24.0866C10.0691 24.1219 10.0807 24.1589 10.0527 24.2369Z" fill="white"/>
<path d="M8.49231 20.3695C8.42868 20.3482 8.40153 20.3501 8.37211 20.3963C8.34298 20.4424 8.35231 20.4683 8.3987 20.5173L9.55062 21.7247L10.0656 20.9119L8.49231 20.3695ZM12.1175 20.9432L11.8072 21.4326C11.7809 21.4741 11.7207 21.4875 11.6737 21.4701L10.6675 21.1231L9.99465 22.185L10.7317 22.9571C10.767 22.9927 10.7803 23.0534 10.754 23.0949L10.4438 23.5843C10.4146 23.6304 10.3589 23.6469 10.3131 23.6176C10.3086 23.6145 10.3024 23.604 10.293 23.598L7.89669 20.9941C7.54034 20.6092 7.70975 20.2502 7.83532 20.0518C7.96117 19.8531 8.21317 19.5473 8.71008 19.7101L12.0663 20.7997C12.0754 20.8057 12.0875 20.8068 12.092 20.8096C12.1381 20.8393 12.1466 20.8968 12.1175 20.9432Z" fill="white"/>
<path d="M14.2859 18.1017L13.9468 18.5372C13.8662 18.6406 13.7958 18.7308 13.5879 18.6782L10.7574 17.9889C10.7218 17.9818 10.7031 17.9878 10.693 18.0009C10.6831 18.0137 10.6848 18.0291 10.7105 18.0493L12.8639 19.7495C12.9111 19.7865 12.9227 19.8514 12.8857 19.8989L12.6003 20.2651C12.5635 20.3126 12.4945 20.3209 12.4476 20.2836L9.5235 17.9755C9.42932 17.9009 9.41264 17.7626 9.48674 17.6678L9.84931 17.2023C9.91973 17.112 9.98252 17.0847 10.1338 17.1209L13.1167 17.854C13.145 17.8625 13.1679 17.8597 13.1778 17.8466C13.1846 17.838 13.1818 17.815 13.156 17.7945L10.9042 16.0168C10.857 15.9798 10.8499 15.918 10.8867 15.8708L11.1755 15.5004C11.2125 15.4528 11.2736 15.4454 11.3205 15.4824L14.2489 17.7942C14.343 17.8688 14.3597 18.0068 14.2859 18.1017Z" fill="white"/>
<path d="M14.5532 12.868C14.4958 12.8327 14.4687 12.8284 14.4299 12.8669C14.3912 12.9053 14.3949 12.9324 14.4291 12.9907L15.2826 14.427L15.9654 13.7512L14.5532 12.868ZM17.9581 14.2445L17.5469 14.6517C17.5121 14.6861 17.4504 14.6855 17.4083 14.6582L16.5053 14.0928L15.6127 14.9762L16.1591 15.8949C16.1857 15.9376 16.1851 15.9997 16.1503 16.0341L15.7391 16.441C15.7004 16.4794 15.6424 16.4828 15.6045 16.4438C15.6005 16.4401 15.5968 16.4284 15.5892 16.4205L13.8335 13.342C13.5719 12.8868 13.8168 12.5751 13.9836 12.4099C14.1505 12.2448 14.4641 12.0034 14.9121 12.2744L17.9403 14.0934C17.9479 14.1013 17.9595 14.105 17.9632 14.109C18.0014 14.148 17.9971 14.2061 17.9581 14.2445Z" fill="white"/>
<path d="M19.313 13.1589C18.9985 13.4203 18.7477 13.5789 18.5084 13.6996C18.4595 13.7258 18.3975 13.7277 18.3594 13.6813L18.1102 13.3773C18.0723 13.3309 18.0822 13.2657 18.1241 13.231C18.1283 13.2273 18.1283 13.2273 18.1325 13.2238C18.3175 13.1057 18.7545 12.7783 18.9097 12.6493C19.2828 12.3393 19.2856 12.1101 19.0848 11.8653C18.9496 11.7007 18.8008 11.6825 18.3891 11.7477L17.5618 11.8738C16.9815 11.9658 16.6757 11.8077 16.4336 11.5122C16.0527 11.0479 16.0445 10.487 16.8245 9.83907C17.1014 9.60903 17.5219 9.33088 17.6922 9.24604C17.7411 9.21956 17.7988 9.22127 17.8336 9.26369L18.0896 9.57601C18.1243 9.61843 18.1226 9.6765 18.0805 9.71124C18.0765 9.71465 18.0765 9.71465 18.0723 9.71835C17.7745 9.92277 17.484 10.136 17.2114 10.3623C16.9009 10.6203 16.8607 10.8381 17.0165 11.028C17.1308 11.1675 17.2714 11.1925 17.6684 11.1182L18.4038 10.983C19.0763 10.8571 19.4194 11.0265 19.6929 11.3602C20.0421 11.7864 20.1519 12.462 19.313 13.1589Z" fill="white"/>
<path d="M21.7741 11.2634C21.4398 11.4988 21.1773 11.6372 20.929 11.7382C20.8784 11.7607 20.8159 11.7576 20.7817 11.7084L20.5574 11.3852C20.5226 11.336 20.5379 11.2716 20.5829 11.2403C20.5871 11.2372 20.5871 11.2372 20.5916 11.234C20.7854 11.1307 21.2469 10.8392 21.4118 10.723C21.8086 10.4434 21.8292 10.2148 21.6482 9.95462C21.5266 9.77981 21.3793 9.74964 20.9635 9.78181L20.1284 9.84216C19.5424 9.88743 19.2499 9.70551 19.0316 9.39149C18.6882 8.89782 18.7242 8.33782 19.5531 7.75362C19.8475 7.54636 20.2887 7.30209 20.4655 7.2312C20.5161 7.209 20.5732 7.21526 20.6049 7.25996L20.8354 7.5922C20.8668 7.63718 20.8609 7.69498 20.8159 7.72629C20.8117 7.72942 20.8117 7.72942 20.8071 7.73256C20.4941 7.91277 20.1875 8.10238 19.8979 8.30651C19.5678 8.53882 19.511 8.75291 19.6512 8.95505C19.7542 9.10309 19.8925 9.13925 20.2947 9.09683L21.0385 9.02053C21.7192 8.94878 22.0481 9.14494 22.2945 9.49939C22.6098 9.95263 22.6658 10.635 21.7741 11.2634Z" fill="white"/>
<path d="M24.2631 6.80949C23.9053 6.18258 23.5238 6.03084 23.0614 6.29817C22.5992 6.5655 22.5376 6.97404 22.8951 7.60066L23.261 8.2418C23.6188 8.86842 24.0003 9.02045 24.4624 8.75312C24.9249 8.4855 24.9865 8.07724 24.629 7.45034L24.2631 6.80949ZM24.7905 9.32764C24.0122 9.77774 23.1968 9.66813 22.6006 8.62358L22.2347 7.98273C21.6388 6.93817 21.9552 6.17376 22.7336 5.72365C23.5119 5.27354 24.3273 5.38315 24.9234 6.42771L25.2894 7.06856C25.8856 8.11312 25.5688 8.87724 24.7905 9.32764Z" fill="white"/>
<path d="M28.8477 7.17183C28.7829 7.22621 28.4845 7.43774 28.1041 7.61511C27.5119 7.89126 26.5721 7.97326 26.0073 6.74593L25.671 6.01539C25.0969 4.76813 25.7757 4.11931 26.3682 3.84315C26.7483 3.66578 27.1015 3.57326 27.185 3.55874C27.2582 3.54877 27.3139 3.55276 27.3462 3.62251L27.4995 3.95532C27.5266 4.01511 27.5226 4.07119 27.4485 4.10564C27.4485 4.10564 27.4437 4.1082 27.4386 4.11048C27.2591 4.17596 26.912 4.30778 26.6504 4.42991C26.2355 4.62322 26.0373 4.98735 26.3622 5.69311L26.6985 6.42365C27.0164 7.11432 27.4273 7.21255 27.842 7.01895C28.1036 6.8971 28.428 6.71546 28.5937 6.62009C28.5988 6.61781 28.6036 6.61553 28.6036 6.61553C28.6777 6.58109 28.7229 6.61411 28.7504 6.6739L28.9037 7.00671C28.9356 7.07646 28.9028 7.12201 28.8477 7.17183Z" fill="white"/>
<path d="M30.1366 6.70866L29.6355 6.90738C29.5798 6.9293 29.5161 6.90169 29.4943 6.84532L28.0907 3.25813C28.0689 3.20204 28.0983 3.14311 28.1541 3.12119L28.6552 2.92247C28.7109 2.90026 28.7726 2.92304 28.7944 2.97912L30.198 6.5666C30.2201 6.62268 30.1923 6.68645 30.1366 6.70866Z" fill="white"/>
<path d="M31.3717 2.68792C31.3364 2.63013 31.3143 2.61418 31.2623 2.63098C31.2105 2.64749 31.2018 2.6734 31.206 2.74088L31.3236 4.41034L32.2357 4.11739L31.3717 2.68792ZM33.7927 5.46287L33.2431 5.6391C33.1965 5.65418 33.1419 5.62571 33.1167 5.58216L32.5641 4.66742L31.3723 5.05006L31.4478 6.11796C31.4523 6.16806 31.424 6.2233 31.3774 6.23838L30.8281 6.41461C30.7761 6.43112 30.7232 6.40806 30.7068 6.35596C30.7051 6.35055 30.7068 6.3386 30.7034 6.32806L30.5173 2.78386C30.4879 2.25888 30.8462 2.09205 31.0691 2.02059C31.292 1.94885 31.68 1.87596 31.958 2.32152L33.8444 5.31967C33.8475 5.3302 33.8563 5.33903 33.858 5.34415C33.8744 5.39625 33.8444 5.44607 33.7927 5.46287Z" fill="white"/>
<path d="M35.8193 1.46184L34.8919 1.67935L35.6411 4.9175C35.6547 4.97615 35.6182 5.03536 35.5599 5.04903L35.0353 5.17173C34.977 5.18568 34.9182 5.14867 34.9046 5.09003L34.1554 1.85188L33.2281 2.06939C33.1695 2.08305 33.1132 2.05686 33.0997 1.99821L33.0024 1.57686C32.9885 1.51821 33.0264 1.4644 33.0847 1.45045L35.6762 0.842909C35.7344 0.829528 35.7921 0.860845 35.8057 0.919493L35.9033 1.34084C35.9166 1.39978 35.8778 1.44818 35.8193 1.46184Z" fill="white"/>
<path d="M37.8859 4.59596L37.3547 4.68592C37.2956 4.69617 37.2393 4.65574 37.2292 4.59624L36.5914 0.794961C36.5812 0.735459 36.6222 0.684214 36.6813 0.67425L37.2125 0.583716C37.2713 0.573751 37.327 0.608769 37.3369 0.668271L37.975 4.46955C37.9848 4.52905 37.9447 4.58571 37.8859 4.59596Z" fill="white"/>
<path d="M40.7482 1.8186C40.6758 1.09974 40.389 0.804225 39.8587 0.858318C39.3284 0.91241 39.1064 1.25946 39.1788 1.97889L39.2526 2.71426C39.3251 3.43312 39.6118 3.72864 40.1421 3.67455C40.6724 3.62045 40.8944 3.27341 40.822 2.55398L40.7482 1.8186ZM40.2083 4.33362C39.3154 4.42501 38.6157 3.98971 38.4953 2.79141L38.4212 2.05604C38.3007 0.857463 38.8994 0.290061 39.7923 0.199243C40.6854 0.107855 41.3851 0.543157 41.5059 1.74145L41.5797 2.47682C41.7005 3.6754 41.1012 4.2428 40.2083 4.33362Z" fill="white"/>
<path d="M45.305 4.0689L44.7557 4.07773C44.6251 4.08001 44.5111 4.08143 44.4209 3.88584L43.1717 1.23958C43.155 1.20712 43.1386 1.1963 43.1222 1.19659C43.1058 1.19687 43.095 1.20798 43.0956 1.24072L43.1389 3.99403C43.14 4.05438 43.0973 4.10421 43.0373 4.10506L42.5752 4.11246C42.5152 4.1136 42.4658 4.06492 42.4649 4.00485L42.4058 0.266483C42.4038 0.146055 42.5003 0.0458419 42.6199 0.043849L43.207 0.0347387C43.3213 0.0327458 43.3815 0.0646319 43.4491 0.205842L44.7603 2.99901C44.7716 3.02634 44.7883 3.04228 44.8047 3.04228C44.8154 3.042 44.8315 3.0252 44.831 2.99246L44.7857 0.113315C44.7846 0.0532441 44.8276 0.00854652 44.8873 0.00769243L45.3548 5.58972e-06C45.4147 -0.000563805 45.4591 0.0424255 45.46 0.102497L45.5191 3.84655C45.5208 3.96698 45.4246 4.06719 45.305 4.0689Z" fill="white"/>
<path d="M50.2566 2.12561C50.3479 1.40902 50.135 1.056 49.6064 0.987671C49.0778 0.919628 48.7834 1.20746 48.6923 1.92404L48.5992 2.65742C48.5079 3.37401 48.7209 3.72703 49.2494 3.79536C49.778 3.8634 50.0724 3.57557 50.1635 2.8587L50.2566 2.12561ZM49.166 4.45215C48.276 4.33742 47.692 3.75436 47.8438 2.56006L47.9372 1.82696C48.089 0.632084 48.8 0.215856 49.6901 0.330874C50.5801 0.445322 51.1638 1.02838 51.012 2.22297L50.9186 2.95607C50.7668 4.15066 50.056 4.56689 49.166 4.45215Z" fill="white"/>
<path d="M54.4003 1.86394L53.3165 1.62479C53.0085 1.55646 52.8736 1.63874 52.7967 1.99177L52.6708 2.56942L54.1104 2.88714C54.1689 2.89995 54.2062 2.95888 54.1935 3.01753L54.1098 3.40273C54.0968 3.46166 54.0385 3.49895 53.9803 3.48614L52.5404 3.16814L52.1838 4.80458C52.1711 4.86351 52.1128 4.90109 52.0543 4.88799L51.5339 4.77326C51.4753 4.76045 51.438 4.70152 51.4507 4.64287L52.0636 1.83006C52.2616 0.920734 52.8391 0.852122 53.5297 1.00472C54.1618 1.14422 54.3584 1.23817 54.5227 1.30251C54.5999 1.3307 54.6209 1.36344 54.6045 1.43803L54.5298 1.78024C54.5171 1.83917 54.4588 1.87675 54.4003 1.86394Z" fill="white"/>
<path d="M58.1041 6.64657L55.8562 5.8665C55.7069 5.81469 55.6116 5.72359 55.6594 5.5838L55.757 5.2991C55.7782 5.23704 55.8132 5.18522 55.8913 5.12544L58.3643 3.23191C58.3801 3.21996 58.3906 3.20601 58.3957 3.19063C58.4047 3.16472 58.3945 3.14394 58.3586 3.13141L56.9284 2.6349C56.8718 2.61526 56.843 2.56458 56.8625 2.50764L57.0113 2.07291C57.0314 2.01597 57.0865 1.98864 57.1428 2.00828L59.2161 2.728C59.3655 2.77953 59.4676 2.88458 59.4215 3.01924L59.3185 3.3196C59.2936 3.3922 59.2362 3.4591 59.1737 3.50693L56.7406 5.368C56.718 5.38337 56.7058 5.40245 56.7002 5.41782C56.6931 5.4386 56.7002 5.45255 56.7358 5.46508L58.3205 6.01483C58.377 6.03476 58.4109 6.08686 58.3914 6.14408L58.2424 6.57882C58.2229 6.63576 58.1607 6.6665 58.1041 6.64657Z" fill="white"/>
<path d="M61.7874 5.63092C62.0806 4.97127 61.9785 4.57156 61.4924 4.35234C61.0059 4.13284 60.6414 4.32273 60.3481 4.98181L60.048 5.65654C59.7547 6.3159 59.8568 6.7159 60.3433 6.93512C60.8294 7.15433 61.194 6.96473 61.4873 6.30537L61.7874 5.63092ZM60.0743 7.53953C59.2553 7.17028 58.8644 6.44231 59.3534 5.34309L59.6535 4.66893C60.1422 3.56971 60.9423 3.37868 61.761 3.74765C62.5801 4.1169 62.9712 4.84487 62.4822 5.94409L62.1819 6.61825C61.6932 7.71747 60.8931 7.90878 60.0743 7.53953Z" fill="white"/>
<path d="M65.309 7.51569C65.6645 6.88794 65.6011 6.47968 65.1379 6.21434C64.6749 5.94843 64.2939 6.10189 63.9384 6.72964L63.575 7.37192C63.2195 7.99968 63.2826 8.40794 63.7458 8.67356C64.2088 8.93918 64.5898 8.78602 64.9453 8.15797L65.309 7.51569ZM63.4198 9.24893C62.6403 8.80167 62.321 8.03897 62.9132 6.99242L63.2769 6.35014C63.8694 5.30359 64.6842 5.19142 65.464 5.63868C66.2434 6.08566 66.5627 6.84893 65.9705 7.8952L65.6068 8.53747C65.0146 9.58402 64.1995 9.69648 63.4198 9.24893Z" fill="white"/>
<path d="M66.2326 11.025C65.8972 10.7913 65.6774 10.5914 65.497 10.3918C65.4582 10.352 65.4398 10.2922 65.4741 10.2427L65.6969 9.91868C65.7312 9.86914 65.7962 9.86117 65.8409 9.89249C65.8454 9.89562 65.8454 9.89562 65.8499 9.89875C66.0131 10.0459 66.4447 10.3802 66.6102 10.4958C67.0081 10.7733 67.2278 10.7136 67.4077 10.4525C67.5285 10.2771 67.5056 10.1279 67.3314 9.74644L66.986 8.97889C66.7405 8.44138 66.8084 8.10231 67.0253 7.78743C67.3661 7.29234 67.9001 7.13206 68.7319 7.71199C69.0269 7.91811 69.4072 8.25007 69.5345 8.39185C69.573 8.43227 69.5871 8.48864 69.556 8.53362L69.3266 8.86672C69.2958 8.9117 69.2398 8.92594 69.1948 8.89462C69.1906 8.89149 69.1906 8.89149 69.1861 8.88836C68.9095 8.65547 68.6269 8.4317 68.3362 8.229C68.0053 7.99811 67.7861 8.01832 67.6467 8.22103C67.5446 8.36964 67.5587 8.51256 67.7378 8.87725L68.0667 9.55313C68.3693 10.1709 68.3006 10.5493 68.0559 10.9049C67.7431 11.3592 67.1266 11.6488 66.2326 11.025Z" fill="white"/>
<path d="M72.3111 11.4795C72.3422 11.4194 72.3445 11.3921 72.3037 11.3556C72.263 11.3195 72.2364 11.3249 72.1807 11.3633L70.8164 12.3185L71.5328 12.9576L72.3111 11.4795ZM71.1801 14.9918L70.7491 14.6066C70.7123 14.5738 70.7086 14.5121 70.733 14.4679L71.2313 13.5225L70.2952 12.6874L69.4227 13.2987C69.3819 13.3283 69.3206 13.332 69.2838 13.2993L68.8525 12.9143C68.8118 12.8779 68.8047 12.8204 68.8406 12.7794C68.8443 12.7751 68.8556 12.7706 68.8627 12.7626L71.7921 10.7896C72.2254 10.4958 72.5509 10.7205 72.7257 10.8765C72.9008 11.0325 73.1613 11.3309 72.9234 11.7992L71.3289 14.9633C71.3215 14.9713 71.3184 14.9832 71.3147 14.9875C71.2788 15.0285 71.2208 15.0279 71.1801 14.9918Z" fill="white"/>
<path d="M73.625 17.5901L73.2511 17.1852C73.1623 17.0887 73.0842 17.0047 73.1685 16.8063L74.2862 14.1011C74.2992 14.0667 74.2961 14.047 74.2848 14.0351C74.2737 14.0231 74.2585 14.0225 74.2344 14.045L72.2309 15.9195C72.1871 15.9607 72.1218 15.9622 72.0808 15.918L71.7663 15.5773C71.7255 15.5331 71.7281 15.4634 71.7719 15.4224L74.4924 12.8769C74.58 12.7946 74.7183 12.7997 74.7998 12.888L75.1997 13.3213C75.2775 13.4053 75.2942 13.4719 75.235 13.6168L74.0503 16.4669C74.0379 16.4934 74.037 16.5168 74.0483 16.5287C74.0557 16.5367 74.0786 16.5375 74.1026 16.5153L76.1978 14.5549C76.2416 14.5136 76.303 14.5159 76.3437 14.56L76.6621 14.9051C76.7029 14.9489 76.7006 15.011 76.6568 15.052L73.9324 17.6015C73.8447 17.6835 73.7064 17.6783 73.625 17.5901Z" fill="white"/>
<path d="M77.5555 18.6649C78.2043 18.1664 78.122 17.706 77.7916 17.2707C77.6698 17.1096 77.575 17.0031 77.5015 16.9151L75.2573 18.6398C75.3223 18.7343 75.3996 18.8542 75.5215 19.0153C75.8518 19.4506 76.2712 19.6519 76.92 19.1534L77.5555 18.6649ZM75.0158 19.4042C74.7813 19.095 74.4945 18.6541 74.4173 18.5066C74.3741 18.4226 74.3789 18.3571 74.4654 18.2905L77.3756 16.0539C77.4619 15.9876 77.5264 16.0001 77.5954 16.0642C77.7161 16.178 78.0632 16.5726 78.2976 16.8818C78.958 17.7524 78.8675 18.6074 78.0111 19.2653L77.3756 19.7538C76.5192 20.4121 75.6759 20.2745 75.0158 19.4042Z" fill="white"/>
<path d="M80.8594 22.0343C80.9077 21.9873 80.9185 21.962 80.8911 21.9147C80.8636 21.8672 80.8367 21.864 80.772 21.8828L79.1783 22.3589L79.6591 23.1922L80.8594 22.0343ZM78.6901 25.0122L78.4005 24.5103C78.3759 24.4679 78.3915 24.4078 78.4285 24.3737L79.1967 23.6334L78.5683 22.5442L77.549 22.8491C77.5012 22.8642 77.4418 22.8482 77.4172 22.8058L77.1276 22.3039C77.1001 22.2566 77.1112 22.1994 77.1584 22.1718C77.1629 22.1692 77.1751 22.1684 77.1844 22.163L80.5819 21.2152C81.0848 21.0732 81.324 21.3895 81.4414 21.593C81.5588 21.7966 81.7132 22.1624 81.3413 22.5317L78.8398 25.0324C78.8304 25.0379 78.8239 25.0481 78.8191 25.051C78.7722 25.0783 78.7173 25.0598 78.6901 25.0122Z" fill="white"/>
<path d="M82.0766 26.6042C82.7282 26.3008 82.912 25.9318 82.6883 25.4447C82.4646 24.9578 82.0661 24.8596 81.4142 25.1631L80.7479 25.4731C80.0963 25.7766 79.9122 26.1456 80.1359 26.6327C80.3596 27.1198 80.7583 27.2178 81.41 26.9146L82.0766 26.6042ZM79.7139 27.2274L79.6104 27.2756C79.482 27.3353 79.482 27.4136 79.5207 27.4982L79.7422 27.9802C79.7741 28.0499 79.7673 28.1134 79.7181 28.1365L79.4118 28.2788C79.3626 28.3019 79.3097 28.2783 79.258 28.2176C79.1876 28.1299 79.051 27.9101 78.9777 27.751C78.7608 27.279 78.8004 26.8562 79.299 26.6242L79.4127 26.5715C79.2294 25.8723 79.4953 25.2118 80.4283 24.7776L81.0949 24.4673C82.1809 23.9617 82.9092 24.3466 83.2859 25.1665C83.6623 25.9867 83.4822 26.7944 82.3962 27.3L81.7296 27.6101C80.7965 28.0445 80.1243 27.8205 79.7139 27.2274Z" fill="white"/>
<path d="M80.9545 30.4444C80.6669 29.6113 80.823 28.8956 81.9178 28.5124L84.2253 27.705C84.2819 27.6854 84.3393 27.7175 84.3588 27.7745L84.5358 28.2866C84.5554 28.3436 84.5305 28.4045 84.4736 28.4242L82.1661 29.2316C81.5801 29.4368 81.3527 29.6788 81.5456 30.2374C81.7385 30.7962 82.066 30.8438 82.652 30.6388L84.9598 29.8314C85.0164 29.8115 85.0735 29.8439 85.093 29.9006L85.27 30.413C85.2896 30.4697 85.2647 30.5309 85.2081 30.5506L82.9003 31.3582C81.8055 31.7412 81.2421 31.2771 80.9545 30.4444Z" fill="white"/>
<path d="M85.3081 33.1963C85.3675 33.1647 85.3847 33.1436 85.3717 33.0904C85.3587 33.0372 85.3335 33.0263 85.2665 33.0261L83.6041 33.0315L83.8326 33.9676L85.3081 33.1963ZM82.3942 35.44L82.2565 34.8763C82.2449 34.8285 82.2768 34.7755 82.3218 34.753L83.2656 34.2599L82.9669 33.0372L81.9035 33.0411C81.8534 33.0423 81.8008 33.0101 81.789 32.9623L81.6512 32.3986C81.6382 32.3453 81.6648 32.2938 81.7177 32.2807C81.723 32.2793 81.7349 32.2821 81.7454 32.2793L85.2705 32.3314C85.7928 32.3377 85.934 32.7086 85.9897 32.9372C86.0454 33.1658 86.0915 33.5604 85.6316 33.8098L82.5328 35.5018C82.522 35.5043 82.5127 35.512 82.5076 35.5135C82.4547 35.5266 82.4072 35.4932 82.3942 35.44Z" fill="white"/>
<path d="M85.6525 37.7666C86.056 37.706 86.1881 37.4093 86.1078 36.8675C86.0908 36.7539 86.0399 36.4846 86.0148 36.3887L84.804 36.5706C84.8114 36.658 84.8456 36.9629 84.8594 37.0551C84.942 37.6129 85.1304 37.8449 85.6038 37.774L85.6525 37.7666ZM82.9476 39.0033L82.8497 38.3425C82.8407 38.2827 82.8913 38.2531 82.9411 38.2178L84.2624 37.2223L84.2511 37.1462C84.2304 37.0053 84.2143 36.7864 84.2013 36.6608L82.7428 36.88C82.6837 36.8889 82.6288 36.8527 82.6201 36.7932L82.5397 36.2514C82.531 36.1919 82.5723 36.1358 82.6314 36.127L86.3338 35.571C86.4412 35.5548 86.4888 35.6143 86.521 35.7202C86.6056 35.9955 86.6896 36.3761 86.7481 36.7713C86.8717 37.6057 86.6833 38.3758 85.763 38.5142L85.7147 38.5213C85.1442 38.607 84.7466 38.3733 84.5085 37.9548L83.0633 39.0415C83.0485 39.0546 83.0324 39.0571 83.0217 39.0585C82.9841 39.0642 82.9538 39.0466 82.9476 39.0033Z" fill="white"/>
<path d="M83.0389 40.3145L82.9945 39.7744C82.9894 39.7146 83.0341 39.6614 83.0938 39.6563L86.9099 39.3382C86.9693 39.3334 87.0168 39.3787 87.0219 39.4387L87.066 39.9791C87.0711 40.0392 87.0318 40.0918 86.9721 40.0967L83.1563 40.4147C83.0966 40.4198 83.0438 40.3745 83.0389 40.3145Z" fill="white"/>
<path d="M86.5067 42.6571C86.5718 42.6395 86.5933 42.6227 86.5924 42.568C86.5913 42.5134 86.5692 42.4971 86.5039 42.482L84.8819 42.1162L84.8986 43.0796L86.5067 42.6571ZM83.172 44.1939L83.1621 43.614C83.1612 43.5645 83.2039 43.52 83.2526 43.5084L84.2815 43.2382L84.2594 41.9795L83.222 41.7458C83.1728 41.7358 83.1287 41.6926 83.1279 41.6433L83.1177 41.0631C83.1168 41.0084 83.1542 40.964 83.2085 40.9629C83.2138 40.9629 83.2249 40.9683 83.2356 40.968L86.6606 41.8059C87.1685 41.9283 87.2242 42.3215 87.2285 42.5569C87.2324 42.7924 87.1903 43.1872 86.6869 43.3273L83.2933 44.285C83.2823 44.2853 83.2715 44.291 83.2662 44.291C83.2119 44.2919 83.1731 44.2489 83.172 44.1939Z" fill="white"/>
<path d="M6.99866 61.2126C6.41152 61.2906 5.45361 61.3994 3.95523 61.3994C1.97747 61.3994 0 60.9327 0 57.9158V53.0324C0 50.0308 1.97747 49.5488 3.95523 49.5488C5.45361 49.5488 6.41152 49.6576 6.99866 49.7353C7.19946 49.7663 7.30778 49.8597 7.30778 50.0465V51.9437C7.30778 52.1148 7.16863 52.2546 6.99866 52.2546H3.87774C3.32172 52.2546 3.13619 52.4257 3.13619 53.0324V54.1678H6.93672C7.10669 54.1678 7.24584 54.3075 7.24584 54.4786V56.3138C7.24584 56.4849 7.10669 56.6247 6.93672 56.6247H3.13619V57.9158C3.13619 58.5222 3.32172 58.6933 3.87774 58.6933H6.99866C7.16863 58.6933 7.30778 58.8331 7.30778 59.0042V60.9017C7.30778 61.0882 7.19946 61.1816 6.99866 61.2126Z" fill="white"/>
<path d="M14.4144 52.3639C14.3835 52.2241 14.3835 52.1461 14.2444 52.1461C14.1055 52.1461 14.1055 52.2241 14.0744 52.3639L13.3176 56.3141H15.1715L14.4144 52.3639ZM19.0492 61.2595H16.361C16.2066 61.2595 16.083 61.1198 16.0522 60.964L15.6195 58.8023H12.8696L12.4369 60.964C12.4061 61.1198 12.2825 61.2595 12.1281 61.2595H9.45484C9.3007 61.2595 9.19238 61.1508 9.19238 61.0107C9.19238 60.9797 9.20766 60.964 9.20766 60.933L11.2782 51.4153C11.6178 49.8753 12.7768 49.5645 14.2444 49.5645C15.7122 49.5645 16.8709 49.8753 17.2109 51.4153L19.2811 60.933C19.2811 60.964 19.2964 60.9953 19.2964 61.0107C19.2964 61.1664 19.2039 61.2595 19.0492 61.2595Z" fill="white"/>
<path d="M28.9682 61.2601H21.6915C21.4288 61.2601 21.2124 61.1203 21.2124 60.8558V59.2228C21.2124 58.9896 21.2899 58.7875 21.4907 58.4609L25.1829 52.7223C25.2293 52.6443 25.2448 52.5979 25.2448 52.5355C25.2448 52.4735 25.1985 52.4265 25.0749 52.4265H21.6915C21.5215 52.4265 21.3824 52.2867 21.3824 52.1156V50.0006C21.3824 49.8295 21.5215 49.7051 21.6915 49.7051H28.7363C28.9373 49.7051 29.1381 49.7518 29.1381 49.9539V51.9135C29.1381 52.0846 29.0762 52.3798 28.6438 53.0488L25.2757 58.2432C25.2293 58.3052 25.214 58.3676 25.214 58.4143C25.214 58.492 25.2757 58.5387 25.3993 58.5387H28.9682C29.1381 58.5387 29.277 58.6631 29.277 58.8339V60.9492C29.277 61.1203 29.1381 61.2601 28.9682 61.2601Z" fill="white"/>
<path d="M36.4149 52.3639C36.384 52.2241 36.384 52.1461 36.2449 52.1461C36.1057 52.1461 36.1057 52.2241 36.0749 52.3639L35.3178 56.3141H37.1717L36.4149 52.3639ZM41.0497 61.2595H38.3615C38.2071 61.2595 38.0835 61.1198 38.0524 60.964L37.62 58.8023H34.8698L34.4371 60.964C34.4066 61.1198 34.283 61.2595 34.1283 61.2595H31.4556C31.3012 61.2595 31.1929 61.1508 31.1929 61.0107C31.1929 60.9797 31.2084 60.964 31.2084 60.933L33.2787 51.4153C33.6183 49.8753 34.7773 49.5645 36.2449 49.5645C37.7124 49.5645 38.8714 49.8753 39.2111 51.4153L41.2813 60.933C41.2813 60.964 41.2969 60.9953 41.2969 61.0107C41.2969 61.1664 41.2041 61.2595 41.0497 61.2595Z" fill="white"/>
</svg>
