<svg width="73" height="54" viewBox="0 0 73 54" fill="none" xmlns="http://www.w3.org/2000/svg">
<g clip-path="url(#clip0_5562_60787)">
<path d="M18.3066 40.2808L27.8918 40.2824L27.8934 42.9368L20.8445 42.9353L20.841 45.5105L25.5327 45.5124L25.5302 48.2787L20.8497 48.2769L20.841 50.9913L27.935 50.9819L27.9307 53.9495L18.3117 53.9478L18.3066 40.2808Z" fill="#1F2023"/>
<path d="M29.2696 30.6663C31.0251 30.8443 32.9889 31.1013 34.9597 31.0665C35.0247 33.1481 35.1991 35.2247 35.3121 37.202L33.511 37.1881C33.4887 35.8526 33.5962 34.4329 33.4188 32.3806L31.6258 32.327L30.0556 32.1793C29.5746 33.7486 29.7765 35.74 29.8169 37.2053L28.3718 37.1915C28.1847 35.1812 28.0659 32.7688 29.2696 30.6663Z" fill="#1F2023"/>
<path d="M43.5446 24.9055C43.9981 24.905 44.6549 25.3304 44.4271 25.6216C43.9092 26.2842 42.8433 26.3379 42.5022 25.739C42.3609 25.4908 42.8175 24.9064 43.5446 24.9055Z" fill="#1F2023"/>
<path fill-rule="evenodd" clip-rule="evenodd" d="M29.4709 0.541393C31.1139 0.254676 32.8336 -0.182947 34.717 0.0824089C38.5369 0.620705 41.9091 1.7482 45.4055 2.93788C47.3451 3.59795 49.3745 4.19822 51.4162 4.04432C55.4925 3.73704 59.7738 3.42368 63.5735 5.05018C65.6312 5.93136 66.8993 7.8076 68.799 9.07753C69.9147 9.82318 71.0406 10.3053 71.9065 11.3539C73.0037 12.6831 73.164 14.367 72.6525 15.9252C72.2305 17.2101 71.1578 18.3851 69.8029 18.9535C69.7103 18.9924 69.2672 19.1191 69.2199 19.2055C68.4628 20.5871 65.9594 22.9811 65.508 25.14C65.3573 25.8612 65.4936 26.8007 65.7453 27.4984C65.8831 27.8801 66.4044 27.9581 66.5119 28.226C66.7691 28.8672 66.6837 29.5989 66.6018 30.3207C66.3461 32.572 65.266 34.8921 65.0422 37.2094H59.6389C59.5892 36.2715 59.73 32.4698 58.7512 31.0414C58.1451 30.1571 57.5186 34.4265 57.5988 37.225L51.7307 37.2152C51.5862 34.0615 52.1637 30.4456 50.3137 27.6928C47.5668 30.0554 43.7966 30.5249 40.2961 30.3637C39.1465 32.5728 39.5361 34.9803 39.2902 37.1976L37.4553 37.2045C37.2093 35.1182 37.462 33.0952 37.9524 30.9486C37.9981 30.7481 38.0802 30.5089 38.1477 30.4086C38.7004 29.5843 39.7296 28.8196 40.5705 28.3353C40.5859 28.3411 41.5881 28.7113 43.0959 28.6898C45.2675 28.6588 46.1048 28.2406 47.0354 27.3031C47.097 27.241 47.2561 27.2164 47.3108 27.2084C47.5992 27.1662 47.8032 24.682 47.3332 24.6058C47.2574 24.5936 47.105 24.5793 47.0276 24.557C46.0555 24.2783 43.5709 23.9177 44.0422 23.2553C44.5323 22.5665 46.0892 21.2643 44.7375 20.6078C44.0813 20.2894 42.3742 22.4753 42.3244 22.9203C42.233 23.2253 42.1195 23.0911 42.011 22.9271C41.3388 21.5552 40.6014 20.1593 39.6897 18.9164C38.8922 20.0331 38.5988 21.0169 39.4748 22.8764C39.7869 23.5386 39.7195 23.3377 39.6652 23.6527C39.6069 23.8351 39.3997 23.7574 39.2619 23.7621C38.5645 23.7858 37.4999 23.0467 34.8654 23.3168C34.6307 23.3409 33.8239 23.5414 33.6096 23.5648C30.9944 23.8503 29.3987 23.5238 27.8088 23.8969C25.9753 24.3273 23.9099 26.7937 23.926 28.6801C23.931 29.267 24.0288 30.0613 24.0188 30.6615C24.0046 31.5028 23.6941 32.4683 24.0451 32.6742C24.389 32.6519 24.7227 32.1571 24.7287 32.0639C24.7656 31.4962 24.6106 31.3448 24.5686 30.6439C24.5251 29.9202 24.5979 29.0001 24.9934 28.2611C25.0237 28.2044 25.196 27.8286 25.2756 28.0482C24.6831 29.6066 25.7153 31.1078 26.2131 32.5219C26.3769 32.9874 26.2233 33.458 25.8215 34.2221C25.7926 34.2768 25.7478 34.5325 25.7932 34.7601C25.8238 34.9129 25.9651 34.9913 26.0354 35.2445C26.1289 35.5822 26.2857 36.562 26.2082 37.2006H23.7317C23.4397 34.0913 23.1944 30.7989 22.6789 27.6967C22.6138 27.3059 22.4039 26.8473 21.9533 26.6644C19.8226 25.8001 18.608 25.8823 15.9904 23.5521C14.0408 26.8305 8.44692 25.2635 5.55685 25.3549C4.90571 25.3755 4.97924 25.9193 4.36349 25.9652C3.73266 26.0122 2.90315 24.8464 2.66818 24.0453C2.22655 22.539 2.27713 21.1008 2.83322 19.6146C0.618521 16.5743 -0.495125 12.6858 0.211146 8.95253C0.232885 8.83763 0.351995 8.87645 0.340052 8.93788C1.21605 10.627 1.87809 12.3597 3.01388 13.9711C3.53735 14.7138 4.08864 15.3576 4.89767 15.85C5.58232 16.2665 6.44495 16.7052 7.00216 16.0648C7.06751 15.9896 7.19116 15.8876 7.23947 15.806C7.63152 15.1422 6.817 12.2769 7.77658 11.8568C8.2913 11.6324 10.5531 13.4186 11.4289 12.9808C11.7911 12.7997 11.837 12.7392 12.1047 12.5316C12.4324 12.2776 12.5093 11.332 12.5041 10.891C12.5016 10.6725 12.4533 10.5209 12.4533 10.5209C10.7126 9.11789 10.4505 5.45437 12.6789 4.49549C13.0594 4.3319 13.7612 4.53681 13.9113 4.87049C14.1679 5.44179 13.6646 6.24361 13.3879 6.88807C13.1122 7.53139 13.6528 8.76808 14.5969 8.48964C15.607 8.19156 16.6523 7.24383 17.4192 6.61366C18.1725 5.99479 18.8619 5.94661 19.925 5.16444C21.0705 4.32167 22.0753 3.66991 23.2795 2.97401C25.2414 1.84024 27.2619 0.926851 29.4709 0.541393ZM12.6008 17.9789C12.5911 17.5168 11.8894 17.4407 11.4953 17.5824C11.4059 17.6147 11.2633 17.9403 11.2873 18.0082C11.4142 18.3671 12.6075 18.3332 12.6008 17.9789ZM70.6613 14.0726C70.487 13.9684 70.25 13.6794 70.3186 14.2142C70.3808 14.7006 70.2708 15.9423 70.1867 16.4476C70.169 16.5541 70.5009 16.4442 70.6477 16.3373C71.3658 15.8143 71.4981 14.5745 70.6613 14.0726Z" fill="#1F2023"/>
<path d="M31.6992 40.2827L41.2842 40.2844L41.2858 42.9389L34.237 42.9373L34.2336 45.5126L38.9251 45.5145L38.9226 48.2807L34.2423 48.2788L34.2336 50.9934L41.3276 50.9839L41.3231 53.9515L31.7043 53.9498L31.6992 40.2827Z" fill="#1F2023"/>
<path d="M45.2964 40.2959L51.3963 40.2764C54.1499 40.2764 55.4019 40.2976 55.4007 44.3487C55.3992 48.4921 54.584 48.5816 51.9932 48.5796L48.2114 48.5691L48.2042 53.9327L45.2949 53.9514L45.2964 40.2959ZM48.2094 45.7046L50.6686 45.7098C52.2743 45.7045 52.3897 45.7158 52.394 44.5108C52.3989 43.141 52.3197 43.141 50.7349 43.1357L48.2079 43.1239L48.2094 45.7046Z" fill="#1F2023"/>
</g>
<defs>
<clipPath id="clip0_5562_60787">
<rect width="73" height="54" fill="white"/>
</clipPath>
</defs>
</svg>
