<svg viewBox="0 0 166 80" fill="none" xmlns="http://www.w3.org/2000/svg">
<path d="M69.8639 45.4331C69.8639 45.4331 65.9506 41.4951 59.5371 41.4831C59.5371 41.4831 65.2438 45.9965 64.2825 54.1765C63.8134 58.1658 61.2639 63.5025 54.2715 65.9098C72.7965 64.2091 77.2101 46.9831 76.7064 38.7031C76.7064 38.7031 72.3655 40.6038 69.8639 45.4331Z" fill="white"/>
<path d="M12.9989 49.6154C12.7737 50.8294 11.6059 51.6301 10.394 51.4047C9.18023 51.1787 8.37945 50.0107 8.60463 48.7974C8.83247 47.5834 9.99765 46.7821 11.2115 47.0087C12.4233 47.2341 13.2254 48.4014 12.9989 49.6154ZM45.1523 64.6747C42.3943 62.8694 39.8834 60.4087 38.1479 58.1674C46.7565 55.5227 51.8823 49.3381 51.8823 49.3381C32.8769 44.3494 20.6742 57.3054 20.6742 57.3054C20.6742 57.3054 23.4442 52.0614 29.7371 49.0741C17.2819 36.6481 0 38.8901 0 38.8901C0.026648 49.7894 4.49352 59.8121 12.5992 67.3154C11.1895 74.9627 15.2753 79.5174 15.2753 79.5174C17.6629 77.1921 19.1352 74.8341 19.9826 72.5634C23.4162 74.4487 27.2416 75.8467 31.4233 76.6287C48.9477 79.9061 62.4129 70.5581 68.3201 62.9634C59.7681 68.8361 51.254 68.6681 45.1523 64.6747Z" fill="white"/>
<path d="M67.9245 29.3951C67.7153 30.5184 66.6348 31.2604 65.5122 31.0524C64.387 30.8431 63.6455 29.7611 63.8554 28.6371C64.0659 27.5124 65.1451 26.7697 66.2684 26.9797C67.3916 27.1891 68.1344 28.2704 67.9245 29.3951ZM86.1011 17.2424C86.1011 17.2424 80.2405 25.1264 72.4493 25.2624C72.4493 25.2624 75.4099 22.2724 76.7477 19.8164C76.7477 19.8164 73.9849 20.9231 71.0077 20.4124C71.0077 20.4124 70.4041 18.5304 69.2583 16.0504C73.9943 16.2624 73.2408 10.9951 73.2408 10.9951C69.5167 10.3611 68.1983 11.8384 67.734 13.0671C65.9466 9.96242 58.691 -1.63158 50.9784 0.193755C45.5023 1.52509 38.9136 8.53041 37.7044 22.4417C37.2994 16.9631 38.0568 7.87308 43.7248 1.55242C27.2477 -1.88425 16.388 6.05041 10.4535 13.6077C8.76871 15.7531 7.5449 17.6511 5.20121 19.3238C5.20121 19.3238 7.31173 19.8404 10.4815 18.4231C10.4815 18.4231 3.33919 23.3171 0.0488281 36.7244C0.0488281 36.7244 1.22334 36.5931 3.30987 36.5924C3.30987 36.5924 6.55959 30.2291 13.6606 26.0844C13.6606 26.0844 10.2703 30.5397 8.85865 36.9217C8.85865 36.9217 10.1924 37.0751 11.6454 37.3497C11.6454 37.3497 14.4654 31.5391 20.8962 29.5377C17.7704 25.7244 18.1668 20.4144 18.1668 20.4144C19.6431 27.0171 25.0719 33.9264 38.24 36.5664C38.24 36.5664 36.8597 31.2064 40.2466 28.1177C38.1834 30.9304 38.8236 35.9731 43.5496 38.3877C48.1144 40.7204 51.9124 41.8031 50.1417 46.9737C51.4314 47.2297 53.1642 47.7064 53.1642 47.7064C59.5211 39.0764 54.1962 25.5744 43.98 26.1211C43.5123 26.1457 43.0766 26.2324 42.6696 26.3631C45.4203 24.9431 51.2536 25.0197 53.943 28.1611C54.3241 23.9657 57.6111 22.5577 57.6111 22.5577C57.6111 22.5577 52.6146 28.8611 58.4132 34.7364C60.1526 36.4991 63.1406 37.2898 68.1184 38.3351C68.7007 38.4584 66.7027 36.4284 67.327 36.4624C67.9512 36.4964 71.2049 38.5711 71.8551 38.5218C71.8551 38.5218 75.0282 37.3351 73.889 32.8378C73.889 32.8378 82.4497 27.8731 86.1011 17.2424Z" fill="white"/>
<path d="M93.9149 12.0098H88.8691V47.6211H93.9149V12.0098Z" fill="white"/>
<path d="M93.9149 2.7207H88.8691V7.36538H93.9149V2.7207Z" fill="white"/>
<path d="M127.938 42.978V47.6227H95.7808L120.158 7.36538H98.5695V2.7207H128.542L104.276 42.978H127.938Z" fill="white"/>
<path d="M159.984 21.8887C158.853 12.876 153.05 7.37937 144.568 7.37937C136.8 7.37937 129.624 12.6454 128.511 21.8887H159.984ZM128.519 26.5474C128.929 35.7647 134.985 42.796 144.71 43.032C150.37 43.1687 155.864 40.5747 159.853 33.098L164.061 35.4794C159.327 43.8247 154.023 47.6374 144.64 47.6374C131.442 47.6374 123.4 38.3647 123.4 24.9727C123.4 11.8894 132.42 2.7207 144.568 2.7207C156.716 2.7207 164.847 11.6827 164.847 25.0754V26.5474H128.519Z" fill="white"/>
<path d="M91.9197 71.7412L90.7825 74.4045H93.0262L91.9197 71.7412ZM90.4734 75.0932L89.6766 76.9779H88.8691L91.9297 70.0059L94.9196 76.9779H94.1028L93.316 75.0932H90.4734Z" fill="white"/>
<path d="M100.152 71.6322C99.8131 71.0935 99.5233 70.9135 99.005 70.9135C98.3875 70.9135 97.9098 71.3528 97.9098 71.9408C97.9098 72.2308 98.0497 72.4688 98.3282 72.6595C98.4867 72.7595 98.6566 72.8575 98.8472 72.9382L99.0557 73.0388L99.2655 73.1275L99.4747 73.2182C100.541 73.6868 100.98 74.2148 100.98 75.0428C100.98 76.1902 100.063 77.0975 98.8858 77.0975C97.8199 77.0975 97.0817 76.4795 96.8232 75.3822L97.5414 75.1822C97.7206 75.9815 98.179 76.4002 98.8765 76.4002C99.6446 76.4002 100.232 75.8315 100.232 75.0935C100.232 74.6842 100.052 74.3748 99.6846 74.1455C99.5147 74.0362 99.3255 73.9362 99.1056 73.8462L98.9058 73.7462L98.7073 73.6568L98.5074 73.5675C97.5507 73.1382 97.1623 72.6688 97.1623 71.9215C97.1623 70.9535 97.9691 70.2148 99.0257 70.2148C99.7732 70.2148 100.342 70.5648 100.74 71.2528L100.152 71.6322Z" fill="white"/>
<path d="M106.651 71.6322C106.311 71.0935 106.022 70.9135 105.504 70.9135C104.886 70.9135 104.408 71.3528 104.408 71.9408C104.408 72.2308 104.547 72.4688 104.826 72.6595C104.987 72.7595 105.156 72.8575 105.345 72.9382L105.554 73.0388L105.764 73.1275L105.973 73.2182C107.039 73.6868 107.478 74.2148 107.478 75.0428C107.478 76.1902 106.56 77.0975 105.384 77.0975C104.318 77.0975 103.581 76.4795 103.321 75.3822L104.039 75.1822C104.219 75.9815 104.677 76.4002 105.375 76.4002C106.142 76.4002 106.73 75.8315 106.73 75.0935C106.73 74.6842 106.55 74.3748 106.183 74.1455C106.013 74.0362 105.823 73.9362 105.604 73.8462L105.404 73.7462L105.205 73.6568L105.005 73.5675C104.049 73.1382 103.66 72.6688 103.66 71.9215C103.66 70.9535 104.468 70.2148 105.524 70.2148C106.271 70.2148 106.84 70.5648 107.239 71.2528L106.651 71.6322Z" fill="white"/>
<path d="M110.568 73.6668C110.568 75.1735 111.784 76.4002 113.279 76.4002C114.774 76.4002 115.989 75.1735 115.989 73.6668C115.989 72.1408 114.784 70.9135 113.279 70.9135C111.774 70.9135 110.568 72.1302 110.568 73.6668ZM116.737 73.6568C116.737 75.5408 115.173 77.0975 113.289 77.0975C111.375 77.0975 109.82 75.5622 109.82 73.6668C109.82 71.7715 111.385 70.2148 113.289 70.2148C115.173 70.2148 116.737 71.7715 116.737 73.6568Z" fill="white"/>
<path d="M124.521 71.7908C123.873 71.1735 123.266 70.9135 122.499 70.9135C121.053 70.9135 119.827 72.1708 119.827 73.6568C119.827 75.1735 121.033 76.4002 122.517 76.4002C123.256 76.4002 123.884 76.1302 124.521 75.5322V76.4502C123.873 76.8888 123.245 77.0975 122.538 77.0975C120.635 77.0975 119.079 75.5522 119.079 73.6768C119.079 71.7815 120.645 70.2148 122.547 70.2148C123.296 70.2148 123.843 70.3948 124.521 70.8735V71.7908Z" fill="white"/>
<path d="M127.98 70.3242H127.231V76.9776H127.98V70.3242Z" fill="white"/>
<path d="M133.302 71.7412L132.166 74.4045H134.409L133.302 71.7412ZM131.857 75.0932L131.059 76.9779H130.252L133.312 70.0059L136.302 76.9779H135.486L134.697 75.0932H131.857Z" fill="white"/>
<path d="M139.781 76.9776H139.033V71.0129H137.428V70.3242H141.395V71.0129H139.781V76.9776Z" fill="white"/>
<path d="M144.494 70.3242H143.747V76.9776H144.494V70.3242Z" fill="white"/>
<path d="M147.943 73.6668C147.943 75.1735 149.159 76.4002 150.654 76.4002C152.15 76.4002 153.366 75.1735 153.366 73.6668C153.366 72.1408 152.159 70.9135 150.654 70.9135C149.15 70.9135 147.943 72.1302 147.943 73.6668ZM154.113 73.6568C154.113 75.5408 152.548 77.0975 150.664 77.0975C148.75 77.0975 147.195 75.5622 147.195 73.6668C147.195 71.7715 148.76 70.2148 150.664 70.2148C152.548 70.2148 154.113 71.7715 154.113 73.6568Z" fill="white"/>
<path d="M156.823 70.0449L161.997 75.4823V70.3243H162.744V77.2769L157.57 71.8509V76.9776H156.823V70.0449Z" fill="white"/>
<path d="M89.4441 50.6621H88.8691V55.7854H89.4441V50.6621Z" fill="white"/>
<path d="M90.9141 50.4473L94.8906 54.6319V50.6619H95.4649V56.0153L91.4877 51.8379V55.7853H90.9141V50.4473Z" fill="white"/>
<path d="M98.1477 55.7854H97.5735V51.1921H96.3403V50.6621H99.3889V51.1921H98.1477V55.7854Z" fill="white"/>
<path d="M100.941 51.1921V52.7208H102.957V53.2501H100.941V55.2548H103.01V55.7854H100.366V50.6621H103.01V51.1921H100.941Z" fill="white"/>
<path d="M105.247 53.0354C105.982 53.0354 106.373 52.7054 106.373 52.0748C106.373 51.4994 105.975 51.1921 105.223 51.1921H104.887V53.0354H105.247ZM107.269 55.7854H106.572L105.032 53.5414H104.887V55.7854H104.312V50.6621H105.139C105.721 50.6621 106.074 50.7388 106.365 50.9388C106.71 51.1768 106.932 51.6141 106.932 52.0748C106.932 52.8734 106.434 53.4201 105.644 53.4968L107.269 55.7854Z" fill="white"/>
<path d="M108.265 50.4473L112.242 54.6319V50.6619H112.817V56.0153L108.84 51.8379V55.7853H108.265V50.4473Z" fill="white"/>
<path d="M116.148 51.7546L115.274 53.8046H116.998L116.148 51.7546ZM115.037 54.334L114.424 55.7866H113.803L116.156 50.418L118.454 55.7866H117.826L117.222 54.334H115.037Z" fill="white"/>
<path d="M120.178 55.7854H119.604V51.1921H118.37V50.6621H121.42V51.1921H120.178V55.7854Z" fill="white"/>
<path d="M123.021 50.6621H122.446V55.7854H123.021V50.6621Z" fill="white"/>
<path d="M124.815 53.2355C124.815 54.3955 125.75 55.3395 126.899 55.3395C128.049 55.3395 128.983 54.3955 128.983 53.2355C128.983 52.0601 128.056 51.1155 126.899 51.1155C125.742 51.1155 124.815 52.0521 124.815 53.2355ZM129.557 53.2281C129.557 54.6788 128.355 55.8768 126.907 55.8768C125.436 55.8768 124.241 54.6941 124.241 53.2355C124.241 51.7761 125.444 50.5781 126.907 50.5781C128.355 50.5781 129.557 51.7761 129.557 53.2281Z" fill="white"/>
<path d="M130.725 50.4473L134.702 54.6319V50.6619H135.275V56.0153L131.3 51.8379V55.7853H130.725V50.4473Z" fill="white"/>
<path d="M138.608 51.7546L137.735 53.8046H139.458L138.608 51.7546ZM137.497 54.334L136.885 55.7866H136.263L138.616 50.418L140.915 55.7866H140.286L139.681 54.334H137.497Z" fill="white"/>
<path d="M142.454 55.2548H143.856V55.7854H141.879V50.6621H142.454V55.2548Z" fill="white"/>
<path d="M151.261 55.2333V55.7633H147.599L150.387 51.1713H147.959V50.6406H151.329L148.549 55.2333H151.261Z" fill="white"/>
<path d="M152.303 53.2113C152.303 54.372 153.237 55.3167 154.387 55.3167C155.536 55.3167 156.471 54.372 156.471 53.2113C156.471 52.0373 155.543 51.0934 154.387 51.0934C153.229 51.0934 152.303 52.0293 152.303 53.2113ZM157.045 53.2047C157.045 54.6554 155.843 55.854 154.395 55.854C152.923 55.854 151.728 54.6707 151.728 53.2113C151.728 51.7533 152.931 50.5547 154.395 50.5547C155.843 50.5547 157.045 51.7534 157.045 53.2047Z" fill="white"/>
<path d="M158.316 53.2113C158.316 54.372 159.251 55.3167 160.4 55.3167C161.551 55.3167 162.484 54.372 162.484 53.2113C162.484 52.0373 161.558 51.0934 160.4 51.0934C159.243 51.0934 158.316 52.0293 158.316 53.2113ZM163.059 53.2047C163.059 54.6554 161.856 55.854 160.407 55.854C158.937 55.854 157.741 54.6707 157.741 53.2113C157.741 51.7533 158.945 50.5547 160.407 50.5547C161.856 50.5547 163.059 51.7534 163.059 53.2047Z" fill="white"/>
<path d="M89.991 59.1956V62.1069H93.9276V63.1169H89.991V66.9362H94.0328V67.9456H88.8691V58.1855H94.0328V59.1956H89.991Z" fill="white"/>
<path d="M97.9684 66.9362C100.513 66.9362 102.189 65.4002 102.189 63.0722C102.189 60.7162 100.527 59.1956 97.9684 59.1956H96.9951V66.9362H97.9684ZM95.8726 58.1855H97.9231C99.5393 58.1855 100.632 58.5209 101.591 59.3129C102.713 60.2196 103.312 61.5362 103.312 63.0875C103.312 64.5949 102.698 65.8969 101.56 66.8182C100.573 67.6236 99.524 67.9456 97.9085 67.9456H95.8726V58.1855Z" fill="white"/>
<path d="M106.089 64.1702C106.089 65.1802 106.164 65.6196 106.419 66.0436C106.808 66.6582 107.661 67.0969 108.528 67.0969C109.381 67.0969 110.234 66.6582 110.624 66.0436C110.877 65.6196 110.953 65.1802 110.953 64.1702V58.1855H112.076V64.4636C112.076 65.5162 111.896 66.1755 111.417 66.7742C110.759 67.6095 109.667 68.1216 108.528 68.1216C107.376 68.1216 106.269 67.6095 105.624 66.7742C105.146 66.1755 104.967 65.5316 104.967 64.4636V58.1855H106.089V64.1702Z" fill="white"/>
<path d="M122.088 60.3374C121.116 59.4301 120.202 59.0494 119.05 59.0494C116.879 59.0494 115.038 60.8934 115.038 63.0734C115.038 65.2981 116.849 67.0981 119.08 67.0981C120.187 67.0981 121.13 66.7034 122.088 65.8247V67.1714C121.116 67.8161 120.173 68.1227 119.109 68.1227C116.251 68.1227 113.917 65.8541 113.917 63.1034C113.917 60.3227 116.266 58.0254 119.124 58.0254C120.247 58.0254 121.07 58.2894 122.088 58.9907V60.3374Z" fill="white"/>
<path d="M127.505 60.2635L125.798 64.1701H129.166L127.505 60.2635ZM125.335 65.1801L124.137 67.9455H122.924L127.52 57.7168L132.01 67.9455H130.782L129.6 65.1801H125.335Z" fill="white"/>
<path d="M135.087 67.9456H133.963V59.1956H131.554V58.1855H137.51V59.1956H135.087V67.9456Z" fill="white"/>
<path d="M138.974 63.0887C138.974 65.2981 140.8 67.0981 143.046 67.0981C145.291 67.0981 147.116 65.2981 147.116 63.0887C147.116 60.8487 145.306 59.0494 143.046 59.0494C140.785 59.0494 138.974 60.8354 138.974 63.0887ZM148.238 63.0734C148.238 65.8401 145.889 68.1227 143.06 68.1227C140.186 68.1227 137.852 65.8694 137.852 63.0887C137.852 60.3081 140.202 58.0254 143.06 58.0254C145.889 58.0254 148.238 60.3081 148.238 63.0734Z" fill="white"/>
<path d="M151.904 62.7069C153.342 62.7069 154.104 62.0776 154.104 60.8769C154.104 59.7802 153.326 59.1956 151.86 59.1956H151.201V62.7069H151.904ZM155.855 67.9456H154.494L151.486 63.6729H151.201V67.9456H150.079V58.1855H151.695C152.833 58.1855 153.521 58.3309 154.09 58.7115C154.763 59.1655 155.198 59.9996 155.198 60.8769C155.198 62.4002 154.225 63.4389 152.683 63.5849L155.855 67.9456Z" fill="white"/>
<path d="M161.827 60.1027C161.318 59.3141 160.883 59.0494 160.106 59.0494C159.178 59.0494 158.459 59.6934 158.459 60.5567C158.459 60.9821 158.669 61.3321 159.088 61.6101C159.328 61.7574 159.582 61.9034 159.867 62.0201L160.18 62.1667L160.495 62.2981L160.809 62.4294C162.41 63.1181 163.07 63.8941 163.07 65.1081C163.07 66.7907 161.692 68.1227 159.926 68.1227C158.325 68.1227 157.218 67.2154 156.828 65.6047L157.905 65.3134C158.175 66.4841 158.863 67.0981 159.911 67.0981C161.064 67.0981 161.948 66.2634 161.948 65.1814C161.948 64.5814 161.677 64.1281 161.124 63.7901C160.869 63.6294 160.585 63.4841 160.256 63.3521L159.956 63.2061L159.656 63.0734L159.358 62.9427C157.92 62.3127 157.337 61.6254 157.337 60.5274C157.337 59.1087 158.549 58.0254 160.136 58.0254C161.258 58.0254 162.111 58.5381 162.711 59.5474L161.827 60.1027Z" fill="white"/>
</svg>
