<svg width="64" height="61" viewBox="0 0 64 61" fill="none" xmlns="http://www.w3.org/2000/svg">
<g clip-path="url(#clip0_4964_82572)">
<path d="M13.7525 33.4048C21.3485 33.4048 27.5059 39.5812 27.5059 47.2008C27.5059 54.8238 21.3485 61.0002 13.7525 61.0002C6.15647 61.0002 -0.000860214 54.8238 -0.000860214 47.2008C-0.000860214 39.5812 6.15647 33.4048 13.7525 33.4048Z" fill="#D1120D"/>
<path d="M27.503 17.2717C27.503 24.8549 21.3754 31.0049 13.8124 31.0049C6.25264 31.0049 0.125 24.8549 0.125 17.2717C0.125 9.68854 6.25264 3.53857 13.8124 3.53857H27.503V17.2717Z" fill="#D1120D"/>
<path d="M38.6105 13.8315C43.3324 13.8315 47.1602 17.6711 47.1602 22.4077C47.1602 27.141 43.3324 30.9806 38.6105 30.9806C33.8886 30.9806 30.0609 27.141 30.0609 22.4077C30.0609 17.6711 33.8886 13.8315 38.6105 13.8315Z" fill="#D1120D"/>
<path d="M45.2981 3.88044C47.4318 1.73765 50.4602 1.30059 52.0594 2.90293C53.6562 4.50294 53.2216 7.54352 51.0903 9.68397C48.9542 11.8244 45.9258 12.2662 44.3313 10.6638C42.7298 9.06382 43.1644 6.02324 45.2981 3.88044Z" fill="#D1120D"/>
<path d="M34.9465 5.4781C37.0802 3.33999 40.1086 2.89825 41.7078 4.50059C43.3047 6.10059 42.8701 9.14118 40.7387 11.2816C38.6026 13.4221 35.5743 13.8638 33.9797 12.2615C32.3782 10.6615 32.8105 7.62324 34.9465 5.4781Z" fill="#D1120D"/>
<path d="M51.5676 10.1998C53.7013 8.06167 56.7297 7.61993 58.3289 9.22227C59.9258 10.8223 59.4912 13.8629 57.3598 16.0033C55.2237 18.1438 52.1954 18.5855 50.6008 16.9832C48.9993 15.3832 49.4316 12.3449 51.5676 10.1998Z" fill="#D1120D"/>
<path d="M49.8918 20.4903C52.0256 18.3522 55.0539 17.9105 56.6531 19.5128C58.25 21.1175 57.8154 24.1534 55.684 26.2938C53.5479 28.4343 50.5196 28.876 48.9251 27.2737C47.3235 25.6737 47.7558 22.6354 49.8918 20.4903Z" fill="#D1120D"/>
<path d="M15.2746 50.115C14.2616 51.9455 12.3147 53.1867 10.0808 53.1867C6.80083 53.1867 4.14453 50.5222 4.14453 47.232C4.14453 43.9452 6.80083 41.2773 10.0808 41.2773C12.318 41.2773 14.2649 42.5186 15.2779 44.3523H13.3673C12.5688 43.4355 11.3908 42.8529 10.0808 42.8529C7.66866 42.8529 5.71521 44.8157 5.71521 47.232C5.71521 49.6516 7.66866 51.6111 10.0808 51.6111C11.3908 51.6111 12.5655 51.0319 13.364 50.115H15.2746Z" fill="white"/>
<path d="M30.6191 35.4531H36.1693C38.0898 35.4531 39.9805 36.3237 39.9805 38.5281C39.9805 39.7065 39.4196 40.8219 38.2746 41.2655V41.2953C39.4328 41.57 39.7693 42.8708 39.8617 43.9135C39.8914 44.3702 39.9376 45.9756 40.3171 46.3761H37.5123C37.2681 46.0087 37.2219 44.9363 37.1922 44.6317C37.1163 43.5295 36.9316 42.3975 35.6051 42.3975H33.4569V46.3761H30.6191V35.4531ZM33.4569 40.1963H35.8327C36.6874 40.1963 37.146 39.7363 37.146 38.9088C37.146 38.0978 36.5059 37.7337 35.7107 37.7337H33.4569V40.1963Z" fill="black"/>
<path d="M41.3594 35.4531H50.0377V37.7337H44.1972V39.6436H49.5329V41.848H44.1972V43.9267H50.1895V46.3761H41.3594V35.4531Z" fill="black"/>
<path d="M51.4102 35.4531H56.0925C59.4318 35.4531 61.4282 37.4888 61.4282 40.8683C61.4282 44.4464 59.3989 46.3761 56.0925 46.3761H51.4102V35.4531ZM54.2446 43.9267H55.5876C57.7391 43.8837 58.5904 43.0396 58.5904 40.8517C58.5904 38.8657 57.5246 37.9025 55.5876 37.9025H54.2446V43.9267Z" fill="black"/>
<path d="M30.6191 47.4937H33.4569V55.9672H38.5319V58.4166H30.6191V47.4937Z" fill="black"/>
<path d="M42.1894 47.4956H39.3516V58.4153H42.1894V47.4956Z" fill="black"/>
<path d="M45.7694 54.7443C45.8321 56.0285 46.6241 56.4423 47.8285 56.4423C48.6831 56.4423 49.5674 56.1345 49.5674 55.3268C49.5674 54.3636 48.01 54.1782 46.4393 53.7347C44.8851 53.2912 43.2517 52.5861 43.2517 50.5836C43.2517 48.1971 45.6473 47.2637 47.6899 47.2637C49.8545 47.2637 52.0357 48.3196 52.0522 50.7822H49.2144C49.2606 49.7892 48.33 49.4681 47.4622 49.4681C46.8517 49.4681 46.0895 49.68 46.0895 50.3982C46.0895 51.2423 47.6602 51.3945 49.2441 51.8381C50.818 52.2816 52.4019 53.0164 52.4019 54.9892C52.4019 57.7564 50.0525 58.6467 47.6602 58.6467C45.159 58.6467 42.9481 57.5445 42.9316 54.7443H45.7694Z" fill="black"/>
<path d="M61.2965 49.9406H58.0496V58.4142H55.2118V49.9406H51.9648V47.4912H61.2965V49.9406Z" fill="black"/>
<path d="M62.5688 34.9902C62.8097 34.9902 63.044 35.0531 63.275 35.1756C63.5026 35.2981 63.6808 35.4768 63.8095 35.7085C63.9382 35.9369 64.0009 36.1785 64.0009 36.4301C64.0009 36.675 63.9382 36.9133 63.8128 37.1417C63.6841 37.3701 63.5092 37.5489 63.2816 37.6746C63.0539 37.8004 62.8163 37.8633 62.5688 37.8633C62.3213 37.8633 62.0837 37.8004 61.8561 37.6746C61.6284 37.5489 61.4535 37.3701 61.3248 37.1417C61.1994 36.9133 61.1367 36.675 61.1367 36.4301C61.1367 36.1785 61.1994 35.9369 61.3281 35.7085C61.4568 35.4768 61.635 35.2981 61.866 35.1756C62.0936 35.0531 62.3279 34.9902 62.5688 34.9902ZM62.5688 35.2286C62.3675 35.2286 62.1728 35.2815 61.9815 35.3841C61.7901 35.4867 61.6416 35.6357 61.5327 35.8277C61.4271 36.0196 61.371 36.2182 61.371 36.4301C61.371 36.6353 61.4271 36.8339 61.5327 37.0226C61.6383 37.2145 61.7835 37.3602 61.9749 37.4661C62.1629 37.572 62.3642 37.625 62.5688 37.625C62.7767 37.625 62.9747 37.572 63.1628 37.4661C63.3542 37.3602 63.4993 37.2145 63.6049 37.0226C63.7105 36.8339 63.7633 36.6353 63.7633 36.4301C63.7633 36.2182 63.7105 36.0196 63.6016 35.8277C63.496 35.6357 63.3476 35.4867 63.1562 35.3841C62.9648 35.2815 62.7701 35.2286 62.5688 35.2286ZM63.0275 36.6618L63.2618 36.728C63.2222 36.8869 63.143 37.016 63.0209 37.1086C62.8955 37.2046 62.747 37.251 62.5721 37.251C62.3477 37.251 62.1662 37.1781 62.0277 37.0358C61.8891 36.8902 61.8198 36.6883 61.8198 36.4334C61.8198 36.2646 61.8495 36.1189 61.9155 35.9965C61.9782 35.8707 62.0672 35.778 62.186 35.7151C62.3015 35.6522 62.4368 35.6224 62.5853 35.6224C62.7536 35.6224 62.8955 35.6622 63.0044 35.7416C63.1166 35.821 63.1925 35.9303 63.2354 36.0693L63.0077 36.1256C62.9681 36.0329 62.912 35.9601 62.8394 35.9104C62.7668 35.8608 62.6777 35.8343 62.5787 35.8343C62.4335 35.8343 62.3114 35.8872 62.219 35.9899C62.1233 36.0958 62.0771 36.2447 62.0771 36.4367C62.0771 36.632 62.1233 36.7776 62.2091 36.8802C62.3015 36.9795 62.4137 37.0259 62.5589 37.0259C62.6711 37.0259 62.7701 36.9961 62.8592 36.9299C62.945 36.8637 63.0011 36.7743 63.0275 36.6618Z" fill="black"/>
<path d="M8.14029 45.96H7.58594V48.7536H8.14029V45.96Z" fill="white"/>
<path d="M8.66211 45.96H9.24617V47.4726C9.24617 47.7143 9.25606 47.8698 9.26926 47.9393C9.29566 48.0552 9.35506 48.1446 9.44745 48.2174C9.54314 48.2836 9.67183 48.32 9.83352 48.32C10.0018 48.32 10.1272 48.2869 10.2097 48.2207C10.2922 48.1545 10.345 48.075 10.3615 47.9791C10.378 47.8831 10.3879 47.7242 10.3879 47.5057V45.96H10.9719V47.4263C10.9719 47.7606 10.9554 47.9989 10.9257 48.1379C10.8927 48.277 10.8366 48.3928 10.7509 48.4888C10.6651 48.5848 10.5529 48.6609 10.411 48.7172C10.2691 48.7735 10.081 48.7999 9.85332 48.7999C9.57614 48.7999 9.36496 48.7701 9.22307 48.7073C9.07788 48.6477 8.96569 48.5649 8.88319 48.4689C8.8007 48.3696 8.7446 48.267 8.7215 48.1578C8.68191 47.9989 8.66211 47.7606 8.66211 47.4495V45.96Z" fill="white"/>
<path d="M11.3242 47.3747C11.3242 47.0901 11.3671 46.8518 11.4496 46.6598C11.5123 46.5175 11.5981 46.3884 11.7037 46.2758C11.8126 46.1633 11.9314 46.0805 12.0601 46.0243C12.2317 45.9514 12.4296 45.915 12.6507 45.915C13.0533 45.915 13.38 46.0408 13.6208 46.2957C13.7792 46.4612 13.8848 46.6697 13.9409 46.918L13.3602 46.9246C13.3272 46.8054 13.2744 46.7094 13.2051 46.6333C13.0698 46.4744 12.885 46.395 12.6573 46.395C12.4296 46.395 12.2448 46.4744 12.103 46.6366C11.9644 46.7955 11.8951 47.0338 11.8951 47.3549M11.8951 47.3549C11.8951 47.6726 11.9677 47.911 12.1096 48.0765C12.2547 48.2387 12.4362 48.3181 12.6573 48.3181C12.8784 48.3181 13.0599 48.2387 13.2018 48.0765C13.2777 47.9871 13.3371 47.8746 13.3701 47.7355L13.9508 47.7488C13.9013 48.0202 13.7924 48.2453 13.6241 48.4207C13.3833 48.6756 13.0632 48.8014 12.6606 48.8014C12.2514 48.8014 11.9248 48.6756 11.6872 48.4207C11.4463 48.1691 11.3242 47.8183 11.3242 47.3747" fill="white"/>
<path d="M16.0603 45.96V47.893L14.7899 45.96H14.2949V48.7536H14.8394L14.7866 46.7941L16.0933 48.7536H16.5783V45.96H16.0603Z" fill="white"/>
</g>
<defs>
<clipPath id="clip0_4964_82572">
<rect width="64" height="61" fill="white"/>
</clipPath>
</defs>
</svg>
