<svg viewBox="0 0 148 80" fill="none" xmlns="http://www.w3.org/2000/svg">
<path d="M1.05097 14.6059H3.08955C3.70192 14.6059 4.31428 14.6652 4.63429 15.4237C5.53901 17.6401 7.75143 17.9285 10.8725 17.9285C13.7012 17.9285 15.3922 17.6361 15.3922 15.7437C15.3922 14.3136 13.1758 13.6459 9.32778 12.4804C6.17904 11.5204 0.640094 10.0902 0.640094 5.80763C0.640094 1.49341 4.08119 0.00793457 9.84927 0.00793457C14.9773 0.00793457 19.6432 1.99121 19.6432 6.30542C19.6432 6.71235 19.5286 6.94544 19.1493 6.94544H17.1384C16.526 6.94544 15.886 6.91778 15.5937 6.15924C14.7759 3.91522 12.8834 3.65447 9.85322 3.65447C6.7914 3.65447 4.83973 4.0614 4.83973 5.72466C4.83973 7.29706 7.92921 8.0556 10.8725 8.98797C14.602 10.1534 19.5879 11.8167 19.5879 15.6924C19.5879 20.5004 16.0914 21.579 10.3787 21.579C4.63825 21.579 0.557129 19.2164 0.557129 15.2538C0.557129 14.839 0.6717 14.6059 1.05097 14.6059Z" fill="#1D2939"/>
<path d="M43.6635 8.07532C43.6635 13.3219 39.9932 15.3921 34.5096 15.3921C32.9372 15.3921 31.2147 15.3644 29.4092 15.3052V20.2594C29.4092 20.6663 29.0892 20.9864 28.6822 20.9864H26.5251C26.0866 20.9864 25.7666 20.6663 25.7666 20.2594V1.31165C25.7666 0.904726 26.0866 0.584717 26.4935 0.584717H28.6546C30.871 0.584717 32.9372 0.612372 34.8059 0.699289C39.9932 0.932382 43.6635 2.3349 43.6635 8.07532ZM40.0525 8.07532C40.0525 5.36511 38.1561 4.2273 34.8336 4.2273H29.4131V11.7179C31.2502 11.7772 32.9411 11.8048 34.4543 11.8048C37.9823 11.8048 40.0525 10.8448 40.0525 8.07532Z" fill="#1D2939"/>
<path d="M52.7031 4.2273V9.03535H62.6432C63.0501 9.03535 63.3701 9.35537 63.3701 9.76229V11.9194C63.3701 12.3579 63.0501 12.6779 62.6432 12.6779H52.7031V17.3398H64.3341C64.741 17.3398 65.0611 17.6598 65.0611 18.0668V20.2239C65.0611 20.6624 64.741 20.9824 64.3341 20.9824H49.8191C49.3806 20.9824 49.0605 20.6624 49.0605 20.2555V1.31165C49.0605 0.904726 49.3806 0.584717 49.7875 0.584717H64.3302C64.7371 0.584717 65.0571 0.904726 65.0571 1.31165V3.46876C65.0571 3.90729 64.7371 4.2273 64.3302 4.2273H52.7031Z" fill="#1D2939"/>
<path d="M81.6184 0C84.6486 0 87.0704 1.0509 88.9035 2.85639C89.1959 3.14874 89.2828 3.35023 89.2828 3.52801C89.2828 3.76111 89.109 3.90728 89.0221 3.9942L87.3904 5.19128C87.1573 5.36511 86.9242 5.42437 86.6911 5.42437C86.3118 5.42437 85.9918 5.25054 85.8457 5.16362C84.7078 4.40508 83.8347 3.79272 81.6184 3.79272C77.2449 3.79272 74.507 6.73602 74.507 10.671C74.507 14.8983 77.2449 17.7823 81.6184 17.7823C83.6609 17.7823 84.6209 17.2884 85.8733 16.4114C86.0195 16.2968 86.3395 16.1506 86.7188 16.1506C86.9519 16.1506 87.185 16.2099 87.4181 16.3837L89.0221 17.5492C89.109 17.6085 89.2828 17.7823 89.2828 18.0154C89.2828 18.1892 89.1959 18.3947 88.9035 18.687C87.0388 20.5241 84.6486 21.5434 81.6184 21.5434C75.147 21.5434 70.7183 17.1423 70.7183 10.6433C70.7143 4.57891 75.1747 0 81.6184 0Z" fill="#1D2939"/>
<path d="M96.3075 0.584717H98.4646C98.9031 0.584717 99.2232 0.904726 99.2232 1.31165V20.2555C99.2232 20.6624 98.9031 20.9824 98.4962 20.9824H96.3391C95.9006 20.9824 95.5806 20.6624 95.5806 20.2555V1.31165C95.5806 0.904726 95.9006 0.584717 96.3075 0.584717Z" fill="#1D2939"/>
<path d="M109.862 4.2273V9.03535H119.802C120.209 9.03535 120.529 9.35537 120.529 9.76229V11.9194C120.529 12.3579 120.209 12.6779 119.802 12.6779H109.862V17.3398H121.493C121.9 17.3398 122.22 17.6598 122.22 18.0668V20.2239C122.22 20.6624 121.9 20.9824 121.493 20.9824H106.978C106.54 20.9824 106.22 20.6624 106.22 20.2555V1.31165C106.22 0.904726 106.54 0.584717 106.947 0.584717H121.489C121.896 0.584717 122.216 0.904726 122.216 1.31165V3.46876C122.216 3.90729 121.896 4.2273 121.489 4.2273H109.862Z" fill="#1D2939"/>
<path d="M128.545 14.6059H130.584C131.196 14.6059 131.808 14.6652 132.128 15.4237C133.033 17.6401 135.246 17.9285 138.367 17.9285C141.195 17.9285 142.886 17.6361 142.886 15.7437C142.886 14.3136 140.67 13.6459 136.822 12.4804C133.673 11.5204 128.134 10.0902 128.134 5.80763C128.134 1.49341 131.575 0.00793457 137.343 0.00793457C142.471 0.00793457 147.137 1.99121 147.137 6.30542C147.137 6.71235 147.023 6.94544 146.643 6.94544H144.633C144.02 6.94544 143.38 6.91778 143.088 6.15924C142.27 3.91522 140.378 3.65447 137.347 3.65447C134.286 3.65447 132.334 4.0614 132.334 5.72466C132.334 7.29706 135.423 8.0556 138.367 8.98797C142.096 10.1534 147.082 11.8167 147.082 15.6924C147.082 20.5004 143.586 21.579 137.873 21.579C132.132 21.579 128.051 19.2164 128.051 15.2538C128.051 14.839 128.166 14.6059 128.545 14.6059Z" fill="#1D2939"/>
<path d="M38.7884 64.9818C38.7884 75.9807 32.9215 79.5798 20.3937 79.5798C10.1297 79.5798 0 77.3793 0 66.8505C0 65.9182 0.26865 65.3848 1.13386 65.3848H5.73253C7.13109 65.3848 8.52965 65.452 9.26449 67.1824C11.2636 71.8482 14.3965 71.2477 21.5948 71.2477C27.5248 71.2477 29.192 69.9795 29.192 66.1829C29.192 62.7852 29.192 58.8503 20.0619 58.5184H18.13H14.7995C13.8671 58.5184 13.5313 57.9179 13.5313 56.8512V52.1854C13.5313 51.5849 14.199 50.7197 14.7995 50.7197H18.13C18.7976 50.7197 19.4653 50.7197 20.0619 50.7197C29.192 50.3878 29.192 47.1205 29.192 43.7229C29.192 39.9223 27.5248 38.658 21.5948 38.658C19.9275 38.658 18.3947 38.5909 16.9961 38.5909C13.4641 38.5909 10.7974 39.1242 9.26449 42.7234C8.52965 44.4577 7.13109 44.5209 5.73253 44.5209H1.13386C0.26865 44.5209 0 43.9876 0 43.0552C0 32.5265 10.1297 30.3259 20.3937 30.3259C32.9255 30.3259 38.7884 33.9251 38.7884 44.9239C38.7884 49.0564 37.3227 52.5212 34.5216 54.5874C37.3227 56.7169 38.7884 60.8494 38.7884 64.9818Z" fill="#1D2939"/>
<path d="M88.6387 63.9151C88.6387 72.3776 84.1743 79.5758 69.7107 79.5758C55.3142 79.5758 50.8498 72.4448 50.7827 64.0455C50.7155 63.5793 50.9842 48.6494 51.0474 44.916C51.1817 37.1172 57.0446 30.318 69.3749 30.318C78.3075 30.318 88.4372 32.5186 88.4372 43.0473C88.4372 43.9797 88.1725 44.513 87.3033 44.513H82.7047C81.3061 44.513 79.9036 44.4458 79.1727 42.7154C77.6398 39.1163 74.9731 38.5829 71.9073 38.5829H68.1738C62.2438 38.5829 60.5766 41.8502 60.4422 45.6469L60.3079 49.645C62.8403 48.7798 65.9061 48.3136 69.7067 48.3136C84.3087 48.3215 88.6387 55.3183 88.6387 63.9151ZM80.109 63.8519C80.109 60.6518 79.2438 56.9855 69.7107 56.9855C60.2447 56.9855 59.3795 60.5175 59.3795 63.8519C59.3795 67.3839 60.2447 70.9158 69.7107 70.9158C79.1767 70.9158 80.109 67.3839 80.109 63.8519Z" fill="#1D2939"/>
<path d="M143.59 41.3721C142.942 40.3844 142.223 39.452 141.437 38.5789C140.504 37.5399 139.477 36.5838 138.375 35.7304C136.854 34.5492 135.187 33.5417 133.377 32.7397C132.962 32.5501 132.54 32.3802 132.117 32.2182C131.714 32.0642 131.307 31.9219 130.904 31.7876C130.643 31.7046 130.387 31.6217 130.122 31.5506C128.972 31.2148 127.779 30.9579 126.546 30.7802H126.542C125.531 30.634 124.504 30.5471 123.453 30.5155C123.295 30.5115 123.137 30.5076 122.979 30.5036C119.016 30.4523 115.31 31.274 112.031 32.7911C111.858 32.8741 111.68 32.9491 111.506 33.036C110.712 33.4272 109.949 33.8538 109.214 34.3279C108.235 34.9561 107.302 35.6435 106.429 36.41H106.425C103.474 38.974 101.163 42.265 99.7248 46.0616C99.0137 47.9185 98.5159 49.9018 98.2591 51.9759C98.1287 52.9912 98.0536 54.0224 98.0418 55.0733C98.0378 55.3222 98.0418 55.5711 98.0418 55.816V55.8871C98.0576 56.938 98.1366 57.9692 98.2749 58.9766C98.342 59.5139 98.4329 60.0394 98.5356 60.5569C98.9505 62.6232 99.6181 64.5906 100.499 66.4159C101.854 69.213 103.719 71.6822 105.999 73.7247C109.297 76.6759 113.442 78.7382 118.143 79.5758C119.629 79.8405 121.162 79.9867 122.746 79.9985C123.864 80.0104 124.962 79.9472 126.033 79.8247C126.444 79.7773 126.851 79.7259 127.25 79.6587C127.593 79.6034 127.941 79.5363 128.281 79.4652C128.68 79.3822 129.075 79.2874 129.466 79.1886C130.074 79.0424 130.667 78.8607 131.252 78.6632L131.256 78.6671C132.03 78.3985 132.781 78.1022 133.508 77.7663C133.891 77.5965 134.27 77.4068 134.641 77.2132C138.474 75.226 141.658 72.2472 143.906 68.5769C144.712 67.2732 145.391 65.8865 145.941 64.4168C146.316 63.437 146.628 62.4138 146.873 61.3747C146.881 61.355 146.885 61.3273 146.893 61.3076C147.343 59.423 147.58 57.4398 147.596 55.3854C147.604 54.9548 147.596 54.536 147.58 54.1133C147.489 51.7784 147.102 49.5501 146.45 47.4523C145.783 45.2715 144.811 43.2211 143.59 41.3721Z" fill="#1D2939"/>
<path d="M122.865 71.4364C131.936 71.3581 139.225 63.9152 139.146 54.8122C139.068 45.7092 131.651 38.3931 122.581 38.4714C113.511 38.5496 106.221 45.9925 106.3 55.0955C106.378 64.1986 113.795 71.5146 122.865 71.4364Z" fill="#1D2939"/>
<path d="M108.985 55.7727C108.957 55.7371 108.93 55.6897 108.902 55.6542C108.882 55.6305 108.87 55.6028 108.854 55.5791C108.854 55.5752 108.858 55.5752 108.858 55.5673L108.985 55.7727Z" fill="white"/>
<path d="M109.827 62.2954C109.017 61.9201 108.282 61.4934 107.638 61.0193C106.883 59.2612 106.457 57.3293 106.441 55.2986C106.433 54.3149 106.524 53.347 106.702 52.4106C107.563 52.9558 108.539 53.4339 109.601 53.8408C109.076 56.9817 109.246 59.842 109.827 62.2954Z" fill="#53B1FD"/>
<path d="M110.253 64.0179C110.55 65.0214 110.913 65.9419 111.32 66.7755C110.194 65.7167 109.226 64.492 108.472 63.1329C109.029 63.4569 109.625 63.7532 110.253 64.0179Z" fill="#53B1FD"/>
<path d="M109.906 52.134C108.847 51.7113 107.883 51.2175 107.042 50.6565C107.717 47.9463 109.135 45.5245 111.071 43.6241C111.581 43.9797 112.158 44.2918 112.79 44.5644C112.008 45.8405 111.328 47.2865 110.787 48.8707C110.404 49.9848 110.119 51.0752 109.906 52.134Z" fill="white"/>
<path d="M113.69 43.2528C113.118 43.0158 112.592 42.7432 112.13 42.439C113.631 41.1155 115.393 40.0883 117.337 39.4482C115.99 40.3727 114.757 41.6646 113.69 43.2528Z" fill="white"/>
<path d="M110.897 54.307C112.478 54.8483 114.22 55.2354 116.065 55.4567C116.045 56.3298 116.061 57.2108 116.108 58.0918C116.223 60.2687 116.547 62.331 117.064 64.2392C114.955 64.0061 112.987 63.5359 111.285 62.8683C110.621 60.4267 110.384 57.519 110.897 54.307Z" fill="#53B1FD"/>
<path d="M113.975 44.999C115.026 45.3704 116.207 45.6272 117.463 45.7655C116.717 48.2347 116.274 50.9212 116.152 53.7104C114.342 53.4892 112.632 53.098 111.095 52.5607C111.304 51.494 111.589 50.3997 111.976 49.2737C112.517 47.6974 113.193 46.2593 113.975 44.999Z" fill="white"/>
<path d="M117.483 65.8747C118.052 67.7118 118.811 69.3909 119.747 70.8882C117.483 70.5287 115.386 69.6595 113.58 68.4032C112.873 67.3642 112.241 66.0999 111.755 64.6421C113.47 65.2545 115.409 65.6732 117.483 65.8747Z" fill="#53B1FD"/>
<path d="M120.494 38.9385C119.486 40.5188 118.657 42.3006 118.013 44.2285C116.831 44.11 115.713 43.8809 114.718 43.5529C116.338 41.1904 118.341 39.5627 120.494 38.9385Z" fill="white"/>
<path d="M117.641 53.8605C117.756 51.0555 118.21 48.3571 118.973 45.8958C119.447 45.9274 119.929 45.9432 120.418 45.9393C120.837 45.9353 121.272 45.9156 121.699 45.8879C122.461 45.8366 123.204 45.7378 123.923 45.6074C124.59 48.1636 125.14 50.8382 125.574 53.5603C124.29 53.7776 122.955 53.9198 121.584 53.9711C120.245 54.0225 118.921 53.983 117.641 53.8605Z" fill="white"/>
<path d="M124.856 43.877C124.413 42.2453 123.777 40.3569 123.248 38.8358C125.069 39.6299 126.898 41.1391 128.368 42.6641C127.333 43.1737 126.143 43.5886 124.856 43.877Z" fill="#2ED0B5"/>
<path d="M118.696 64.3735C118.147 62.4415 117.799 60.3397 117.685 58.1115C117.637 57.2661 117.621 56.4285 117.641 55.5988C118.664 55.6937 119.707 55.7411 120.766 55.7332C121.055 55.7292 121.347 55.7253 121.643 55.7134C123.042 55.6621 124.409 55.5159 125.724 55.2867C125.843 56.1164 125.961 56.95 126.056 57.7836C126.305 59.8617 126.479 61.9279 126.574 63.9744C125.475 64.1759 124.342 64.3221 123.184 64.4011C121.655 64.5078 120.146 64.492 118.696 64.3735Z" fill="#53B1FD"/>
<path d="M126.689 65.5665C126.752 67.2614 126.764 68.9365 126.72 70.5879C125.504 70.9198 124.224 71.1094 122.9 71.1213C122.414 71.1252 121.932 71.1055 121.462 71.062C120.451 69.5805 119.633 67.8698 119.028 65.9932C119.791 66.0446 120.573 66.0722 121.367 66.0683C122.015 66.0643 122.667 66.0367 123.327 65.9932C124.468 65.9063 125.594 65.7601 126.689 65.5665Z" fill="#53B1FD"/>
<path d="M124.749 38.7134C127.036 38.9465 129.173 39.7011 131.042 40.8507C130.564 41.3288 129.971 41.7752 129.284 42.1742C127.937 40.7401 126.408 39.5628 124.749 38.7134Z" fill="#2ED0B5"/>
<path d="M133.346 51.1424C131.564 52.0946 129.423 52.8413 127.064 53.3075C126.633 50.5775 126.084 47.9028 125.413 45.3388C126.835 45.0188 128.143 44.5566 129.272 43.9679C131.015 45.9472 132.417 48.3967 133.346 51.1424Z" fill="#2ED0B5"/>
<path d="M128.265 65.2545C130.611 64.7685 132.784 64.0218 134.625 63.0697C134.463 64.3893 134.179 65.6693 133.784 66.898C132.235 68.3597 130.37 69.4936 128.308 70.1889C128.344 68.5652 128.328 66.9177 128.265 65.2545Z" fill="white"/>
<path d="M134.353 55.2117C134.744 57.274 134.858 59.3323 134.7 61.3274C132.863 62.3428 130.651 63.1448 128.213 63.6623C128.118 61.6356 127.949 59.5891 127.7 57.5347C127.597 56.6814 127.482 55.8359 127.36 54.9905C129.742 54.5164 131.927 53.7736 133.756 52.8136C133.997 53.5879 134.195 54.3899 134.353 55.2117Z" fill="white"/>
<path d="M130.414 43.3357C131.145 42.8932 131.781 42.3954 132.295 41.8502C134.523 43.3989 136.316 45.5363 137.435 48.041C136.684 48.9497 135.684 49.7794 134.483 50.5024C133.543 47.7763 132.141 45.3348 130.414 43.3357Z" fill="#2ED0B5"/>
<path d="M135.997 62.2638C136.779 61.8094 137.49 61.3116 138.114 60.7822C137.51 62.4573 136.609 63.9942 135.479 65.3335C135.72 64.3339 135.894 63.3107 135.997 62.2638Z" fill="white"/>
<path d="M139.031 54.8245C139.043 56.0888 138.892 57.3214 138.604 58.4987C137.921 59.2375 137.079 59.921 136.099 60.5412C136.198 58.6449 136.072 56.7011 135.7 54.7574C135.53 53.8566 135.305 52.9716 135.044 52.1143C136.253 51.4111 137.288 50.6051 138.09 49.7241C138.679 51.3123 139.015 53.0348 139.031 54.8245Z" fill="white"/>
<path d="M119.289 44.4025C119.992 42.352 120.916 40.4833 122.042 38.8635H122.121C122.125 38.8635 123.295 42.3086 123.792 44.1259C123.121 44.2484 122.422 44.3353 121.718 44.3867C120.893 44.4459 120.079 44.4499 119.289 44.4025Z" fill="white"/>
</svg>
