<svg viewBox="0 0 165 80" fill="none" xmlns="http://www.w3.org/2000/svg">
<path d="M51.418 36.462L52.6843 37.538L53.063 31.6522C53.063 31.6522 52.6843 33.7391 52.1771 34.942C51.6716 36.1431 51.418 36.462 51.418 36.462ZM5.90896 34.942C5.40171 33.7391 5.02309 31.6522 5.02309 31.6522L5.40172 37.538L6.66802 36.462C6.66802 36.462 6.4144 36.1431 5.90896 34.942ZM33.1264 60.1178C33.0847 60.1069 33.043 60.0942 32.9995 60.0779C32.1354 59.8297 31.1572 59.6304 30.1879 59.6105C29.8057 59.6015 29.4216 59.6268 29.043 59.6739C28.6644 59.6268 28.2822 59.6015 27.9017 59.6105C26.9307 59.6304 25.9524 59.8297 25.0883 60.0779C25.0448 60.0942 25.0032 60.1069 24.9615 60.1178C23.4017 60.5833 22.2477 61.1975 22.2477 61.1975C22.2477 61.1975 22.6354 60.4384 23.5648 59.7536C23.63 59.7065 23.697 59.6594 23.7677 59.6123C23.7695 59.6123 23.7713 59.6105 23.7731 59.6105C23.8093 59.587 23.8474 59.5616 23.8836 59.5381C23.976 59.4783 24.0684 59.4203 24.159 59.3678C25.0756 58.8188 25.8365 58.5616 25.8365 58.5616C25.8365 58.5616 25.0883 58.5525 24.1898 58.6848C24.0901 58.6993 23.9887 58.7138 23.8872 58.7319C23.5539 58.7917 23.2115 58.8678 22.8836 58.9765C21.5466 59.4076 20.3745 59.8007 20.3745 59.8007C20.3745 59.8007 21.264 58.625 22.5666 58.0236C23.8673 57.4185 25.4869 57.2301 25.4869 57.2301C25.4869 57.2301 23.0738 57.2391 21.6771 57.2917C20.2803 57.3424 18.9144 57.1975 18.9144 57.1975C18.9144 57.1975 20.6282 56.9094 22.3745 56.5C24.1227 56.087 25.4235 55.6721 25.4235 55.6721C25.4235 55.6721 22.7568 56.183 18.9144 55.6721C23.7405 55.0054 23.043 53.7301 28.3129 53.7989C28.5702 53.8025 28.8129 53.808 29.043 53.817C29.2749 53.808 29.5177 53.8025 29.7749 53.7989C35.0448 53.7301 34.3456 55.0054 39.1735 55.6721C35.3311 56.183 32.6644 55.6721 32.6644 55.6721C32.6644 55.6721 33.9651 56.087 35.7115 56.5C37.4579 56.9094 39.1735 57.1975 39.1735 57.1975C39.1735 57.1975 37.8075 57.3424 36.4108 57.2917C35.014 57.2391 32.5992 57.2301 32.5992 57.2301C32.5992 57.2301 34.2187 57.4185 35.5213 58.0236C36.8238 58.625 37.7133 59.8007 37.7133 59.8007C37.7133 59.8007 36.5394 59.4076 35.2043 58.9765C34.8764 58.8678 34.534 58.7917 34.2006 58.7319C34.0974 58.7138 33.9959 58.6993 33.8963 58.6848C32.9995 58.5525 32.2514 58.5616 32.2514 58.5616C32.2514 58.5616 33.0104 58.8188 33.9289 59.3678C34.0195 59.4203 34.1101 59.4783 34.2043 59.5381C34.2405 59.5616 34.2785 59.587 34.3148 59.6105C34.3166 59.6105 34.3166 59.6123 34.3184 59.6123C34.389 59.6594 34.4579 59.7065 34.5213 59.7536C35.4506 60.4384 35.8383 61.1975 35.8383 61.1975C35.8383 61.1975 34.6843 60.5833 33.1264 60.1178ZM18.2767 50.8587C19.226 51.067 19.6155 51.288 21.0376 51.038C22.4579 50.788 23.9651 49.5743 25.139 49.288C24.2133 49.3859 23.8202 49.4638 22.6988 49.7681C21.8039 50.0073 20.6517 50.4493 20.0412 50.3714C19.4144 50.3388 18.9579 50.1594 18.6807 49.8315C18.2187 49.2808 18.2894 48.4185 18.2894 48.4185C18.2894 48.4185 19.0412 49.2482 20.5032 49.2573C21.9669 49.2681 23.3166 48.2645 24.5937 48.0073C22.0195 47.9873 21.5485 48.529 20.072 48.3062C18.3184 48.0399 19.1952 46.0471 19.1952 46.0471C19.1952 46.0471 19.2296 46.8315 19.9796 47.1938C20.7024 47.5435 22.11 47.4964 23.7495 46.5906C22.0195 46.7518 20.7985 46.8859 20.1028 45.9257C19.0213 44.4312 23.139 40.8352 23.3166 40.5435C22.9253 41.1866 22.5847 42.8931 22.7387 43.5924C22.9905 44.7301 24.1879 45.817 25.0811 46.5163C25.7369 47.0236 26.61 47.3025 27.0593 48.0507C27.5829 48.9221 27.5811 49.9547 27.4579 50.9112C26.6209 50.8225 25.7985 50.9819 24.9687 51.1431C23.6825 51.3877 23.4851 51.9185 21.8329 52.3533C20.1807 52.7935 18.8057 52.3696 18.2767 50.8587ZM12.8709 46.6033C13.1082 46.337 15.697 43.7409 16.9524 42.5453C18.2948 41.2681 19.7079 39.625 19.7079 39.4004C17.6119 39.337 17.1318 39.4438 16.0249 39.0181C14.3745 38.3841 12.9669 36.7663 13.4633 35.8859C13.6372 35.5743 15.4651 35.4094 15.572 35.7011C16.3836 37.9366 18.168 38.5399 20.0666 38.3188C20.6354 38.2844 21.5937 37.8533 22.1427 37.8333C21.8184 39.8406 17.5267 44.4873 17.5267 44.4873L12.8709 46.6033ZM17.2622 35.6051C17.5774 35.404 17.63 35.3949 18.034 35.3098C18.0593 35.7681 18.2459 36.6033 19.2169 36.6431C19.6517 36.6576 19.9053 36.5562 20.0847 36.3569C19.8673 36.1866 19.755 35.8986 19.8238 35.6123C19.918 35.2192 20.3129 34.9801 20.7043 35.0725C21.0593 35.1576 21.264 35.2899 21.3383 35.6993C21.4144 36.1087 21.235 36.6449 20.8039 37.0127C20.255 37.4837 19.6463 37.663 18.9198 37.5109C18.1952 37.3587 17.8419 37.0109 17.5992 36.846C17.0956 36.5018 16.8256 35.8859 17.2622 35.6051ZM31.0267 48.0507C31.4778 47.3025 32.351 47.0236 33.0068 46.5163C33.8999 45.817 35.0956 44.7301 35.3474 43.5924C35.5014 42.8931 35.1626 41.1866 34.7695 40.5435C34.9488 40.8352 39.0666 44.4312 37.9851 45.9257C37.2894 46.8859 36.0684 46.7518 34.3383 46.5906C35.9778 47.4964 37.3854 47.5435 38.1082 47.1938C38.8582 46.8315 38.8909 46.0471 38.8909 46.0471C38.8909 46.0471 39.7695 48.0399 38.0159 48.3062C36.5394 48.529 36.0684 47.9873 33.4923 48.0073C34.7713 48.2645 36.1209 49.2681 37.5829 49.2573C39.0466 49.2482 39.7985 48.4185 39.7985 48.4185C39.7985 48.4185 39.8691 49.2808 39.4072 49.8315C39.1282 50.1594 38.6716 50.3388 38.0466 50.3714C37.4343 50.4493 36.284 50.0073 35.389 49.7681C34.2658 49.4638 33.8745 49.3859 32.947 49.288C34.1227 49.5743 35.6282 50.788 37.0503 51.038C38.4706 51.288 38.8619 51.067 39.8111 50.8587C39.2822 52.3696 37.9072 52.7935 36.255 52.3533C34.6028 51.9185 34.4053 51.3877 33.1173 51.1431C32.2894 50.9819 31.4651 50.8225 30.63 50.9112C30.505 49.9547 30.505 48.9221 31.0267 48.0507ZM38.0195 38.3188C39.9198 38.5399 41.7024 37.9366 42.514 35.7011C42.6227 35.4094 44.4506 35.5743 44.6245 35.8859C45.1209 36.7663 43.7151 38.3841 42.063 39.0181C40.9561 39.4438 40.4742 39.337 38.3782 39.4004C38.3782 39.625 39.793 41.2681 41.1354 42.5453C42.3908 43.7409 44.9778 46.337 45.2169 46.6033L40.5593 44.4873C40.5593 44.4873 36.2695 39.8406 35.9452 37.8333C36.4941 37.8533 37.4524 38.2844 38.0195 38.3188ZM37.2532 36.0652C37.5122 35.7953 37.5611 35.7736 37.9343 35.5996C38.0666 36.038 38.4416 36.8044 39.3945 36.6159C39.822 36.529 40.043 36.3696 40.1735 36.1341C39.9198 36.0217 39.7441 35.7681 39.7441 35.4728C39.7441 35.067 40.072 34.7428 40.4742 34.7428C40.8401 34.7428 41.0684 34.8207 41.2369 35.2029C41.4072 35.5833 41.3582 36.1431 41.0249 36.6033C40.6028 37.1902 40.0521 37.5091 39.3093 37.5326C38.5702 37.5525 38.1445 37.2953 37.8709 37.1902C37.3003 36.9765 36.8945 36.4384 37.2532 36.0652ZM53.2604 38.7645C53.2604 38.7645 55.9706 44.5199 55.8021 51.3786C55.6245 58.5779 51.3981 64.1667 51.3981 64.1667C51.3981 64.1667 53.6155 61.0054 54.1082 53.2446C54.5249 46.6703 50.9434 40.4312 50.1264 39.1884C50.1264 39.1884 52.6336 47.5797 51.9053 52.4837C51.101 57.904 48.8999 61.0779 48.8999 61.0779C50.0865 53.7102 47.6716 49.6902 47.6716 49.6902C48.139 51.7627 49.1698 56.6033 46.6572 61.9656C45.3854 64.6739 44.4543 66.0308 41.3637 69.337C41.3075 69.3207 41.2532 69.3044 41.197 69.2844C40.6119 68.5344 39.7369 67.8388 38.9506 67.3243C40.4434 65.2953 42.0195 62.8315 42.4597 62.1359C42.4289 62.0996 42.505 62.3243 39.5539 65.3279C39.1191 65.7681 38.601 66.2174 37.8927 66.7518C37.764 66.7518 36.6644 66.0743 36.6644 66.0743C36.6644 66.0743 42.2532 61.712 43.2695 56.0399C44.2858 50.366 41.38 46.3659 41.8727 46.6377L46.9524 48.4185C47.0358 48.1449 45.3383 45.3424 44.2858 43.8044C43.2332 42.2627 41.601 40.4602 41.601 40.4602C41.601 40.4602 44.9724 42.6504 46.4869 44.1467C48.0014 45.6413 50.1264 49.1431 50.1264 49.1431C50.1698 47.2373 50.0992 45.8116 49.7459 42.9565C49.4072 40.2029 48.3927 37.538 48.3927 37.538C48.3927 37.538 48.3927 40.4167 46.9108 41.6431C48.0956 38.596 47.5485 36.9801 47.101 35.7518C46.7206 34.7083 46.255 34.0598 45.9524 33.6196C45.9162 33.6015 44.1082 33.8388 43.2477 33.6667C42.4198 33.5 41.668 33.0688 40.8184 32.9257C39.4488 32.6975 37.9814 32.8551 36.7948 33.6196C36.0267 34.1159 35.4597 34.8732 35.014 35.6576C34.7459 36.125 32.9814 38.5743 32.9814 38.5743C32.9814 38.5743 31.2658 36.0344 32.6753 34.2953C33.5937 33.163 33.8311 33.3569 34.5267 32.413C35.2604 31.4185 35.3945 31.1431 35.7658 30.0127C36.1372 28.8877 36.1553 27.1413 35.9017 25.8696C36.7894 27.0833 37.0448 28.221 37.0448 29.5562C37.0448 30.8895 36.1553 32.413 36.1553 32.413C36.1553 32.413 38.5702 31.0797 39.014 27.587C39.1064 27.8623 38.8872 30.6993 38.188 31.4601C40.2206 30.7627 41.8329 31.971 43.1843 32.1957C44.5376 32.4221 45.4923 32.4493 45.4923 32.4493C45.4923 32.4493 44.1572 30.6721 43.7151 30.0145C43.2695 29.3587 42.5702 28.221 40.5376 26.2518C38.5068 24.2844 35.1825 23.7355 34.293 23.4819C33.4035 23.2246 30.9488 22.5072 30.9488 22.5072C30.9488 22.5072 32.5702 24.3732 33.4253 25.3804C34.2822 26.3841 34.7169 28.0326 34.2097 29.3659C33.7006 30.6993 32.5376 31.0797 31.7332 32.413C31.7332 32.413 31.5648 31.0525 31.139 29.6196C30.8202 28.5453 30.2296 27.4565 30.1499 26.7029C30.1499 25.5344 29.9742 21.6594 29.9742 21.6594C29.9905 21.8551 31.6898 21.9946 33.976 22.308C36.0829 22.6033 39.3745 22.7101 42.1481 21.9293C40.1789 23.0707 38.1463 23.1993 38.1463 23.1993C38.1463 23.1993 39.0992 23.4076 39.8401 23.3877C40.6445 23.3678 41.8293 23.0308 41.8293 23.0308C41.8293 23.0308 41.0684 23.8569 39.4162 23.9402C40.5177 24.596 41.6553 25.4873 42.0412 25.8533C44.7314 28.3877 47.0267 32.279 47.8727 33.2355C49.4289 34.9873 51.101 36.0525 51.101 36.0525C51.101 36.0525 51.6698 34.8406 52.3293 31.1431C52.7894 28.5652 52.9633 20.3025 52.9633 20.3025C52.9633 20.3025 51.4543 24.462 50.1698 26.6268C48.8148 28.9167 48.8564 32.0743 48.8564 32.0743C48.8564 32.0743 47.9687 29.7482 48.9887 27.163C49.3365 26.0996 50.1264 24.9348 50.889 22.5236C51.6517 20.1087 51.6735 18.587 51.1861 17.3551C50.6988 16.125 49.8727 16.087 49.197 16.3406C49.3075 16.3569 50.043 16.3841 50.4669 17.2301C50.889 18.0779 50.2985 20.1938 50.2985 20.1938C50.2985 20.1938 50.4235 18.4583 49.7894 17.5272C49.1535 16.5924 47.5448 16.9746 47.5448 16.9746C47.5448 16.9746 48.88 17.2228 49.3238 18.0779C49.8039 19 49.3238 22.4366 49.3238 22.4366C49.3238 22.4366 49.409 20.2772 48.688 18.8388C47.9687 17.4004 45.3854 17.7373 45.3854 17.7373C45.3854 17.7373 47.6716 18.0779 48.2659 19.683C48.8582 21.2953 48.3075 24.3442 48.3075 24.3442C48.3075 24.3442 48.2061 21.1993 47.1644 19.8551C45.4289 17.6123 43.1789 18.7554 41.6608 19.3877C40.1427 20.0254 38.1843 20.5725 37.8927 20.5725C41.534 18.7953 42.9253 17.346 44.0485 16.2609C45.0557 15.288 46.0593 14.308 47.1553 13.4348C48.1245 12.6612 49.2822 11.7391 50.5684 11.6612C53.0503 11.5109 52.8528 14.7935 52.9216 16.2808C52.9561 17.0145 53.0684 19.4058 53.0684 19.4058C53.0684 19.4058 53.8383 16.096 53.938 14.0942C54.1064 10.7083 53.3148 10.1558 53.409 8.0779C53.4615 6.93116 54.7459 6.44565 55.5231 5.76812C56.3166 5.07609 57.0829 4.28986 57.6427 3.38949C57.409 3.49638 57.1771 3.60145 56.9434 3.70834C57.0593 3.37138 57.1698 3.05435 57.1771 2.69746C57.1898 2.01812 56.9144 0.78261 56.043 0.746378C55.3818 0.721016 54.688 1.74094 54.2767 2.18479C54.1916 1.45834 54.1046 0.728261 54.0195 0C53.9271 0.324275 53.7441 0.632247 53.5919 0.929349C52.38 3.32428 50.9416 5.62319 49.2024 7.67391C48.4923 8.51087 47.7622 9.33152 47.0249 10.1486C44.6064 12.8261 42.3256 15.8931 39.4361 18.0851C37.1916 19.7862 34.4669 19.9819 31.7459 20.0543C30.8546 20.0797 29.9506 20.0996 29.043 20.0996C28.1354 20.0996 27.2314 20.0797 26.3401 20.0543C23.6191 19.9819 20.8945 19.7862 18.6517 18.0851C15.7622 15.8931 13.4796 12.8261 11.0611 10.1486C10.3238 9.33152 9.59374 8.51087 8.8836 7.67391C7.14628 5.62319 5.70787 3.32428 4.49411 0.929349C4.34193 0.632247 4.15896 0.324275 4.06838 0C3.98143 0.728261 3.89628 1.45834 3.80932 2.18479C3.39809 1.74094 2.70606 0.721016 2.04302 0.746378C1.17164 0.78261 0.896279 2.01812 0.90896 2.69746C0.916206 3.05435 1.02671 3.37138 1.14265 3.70834C0.908959 3.60145 0.677076 3.49638 0.44338 3.38949C1.00316 4.28986 1.77128 5.07609 2.56476 5.76812C3.34012 6.44565 4.62635 6.93116 4.67708 8.0779C4.77128 10.1558 3.97961 10.7083 4.14809 14.0942C4.24954 16.096 5.01765 19.4058 5.01765 19.4058C5.01765 19.4058 5.13179 17.0145 5.16621 16.2808C5.23505 14.7935 5.03577 11.5109 7.51766 11.6612C8.80389 11.7391 9.96331 12.6612 10.9325 13.4348C12.0285 14.308 13.0321 15.288 14.0376 16.2609C15.1626 17.346 16.5539 18.7953 20.1952 20.5725C19.9017 20.5725 17.9452 20.0254 16.4253 19.3877C14.909 18.7554 12.659 17.6123 10.9216 19.8551C9.87998 21.1993 9.77853 24.3442 9.77853 24.3442C9.77853 24.3442 9.2278 21.2953 9.822 19.683C10.4144 18.0779 12.7006 17.7373 12.7006 17.7373C12.7006 17.7373 10.1173 17.4004 9.39809 18.8388C8.67889 20.2772 8.76403 22.4366 8.76403 22.4366C8.76403 22.4366 8.28215 19 8.76403 18.0779C9.20606 17.2228 10.5412 16.9746 10.5412 16.9746C10.5412 16.9746 8.93251 16.5924 8.29664 17.5272C7.66259 18.4583 7.7894 20.1938 7.7894 20.1938C7.7894 20.1938 7.197 18.0779 7.62092 17.2301C8.04302 16.3841 8.77853 16.3569 8.89084 16.3406C8.21331 16.087 7.38722 16.125 6.8999 17.3551C6.4144 18.587 6.43432 20.1087 7.197 22.5236C7.95969 24.9348 8.74954 26.0996 9.09737 27.163C10.1173 29.7482 9.22961 32.0743 9.22961 32.0743C9.22961 32.0743 9.27128 28.9167 7.91621 26.6268C6.63179 24.462 5.12273 20.3025 5.12273 20.3025C5.12273 20.3025 5.29845 28.5652 5.75679 31.1431C6.41621 34.8406 6.98505 36.0525 6.98505 36.0525C6.98505 36.0525 8.65715 34.9873 10.2133 33.2355C11.0611 32.279 13.3564 28.3877 16.0448 25.8533C16.4325 25.4873 17.5702 24.596 18.6716 23.9402C17.0195 23.8569 16.2568 23.0308 16.2568 23.0308C16.2568 23.0308 17.4434 23.3678 18.2477 23.3877C18.9887 23.4076 19.9416 23.1993 19.9416 23.1993C19.9416 23.1993 17.909 23.0707 15.9398 21.9293C18.7133 22.7101 22.005 22.6033 24.1119 22.308C26.3981 21.9946 28.0974 21.8551 28.1119 21.6594C28.1119 21.6594 27.9361 25.5344 27.9361 26.7029C27.8582 27.4565 27.2677 28.5453 26.947 29.6196C26.5231 31.0525 26.3564 32.413 26.3564 32.413C25.5503 31.0797 24.3854 30.6993 23.8782 29.3659C23.3709 28.0326 23.8057 26.3841 24.6608 25.3804C25.5177 24.3732 27.139 22.5072 27.139 22.5072C27.139 22.5072 24.6825 23.2246 23.793 23.4819C22.9035 23.7355 19.5811 24.2844 17.5485 26.2518C15.5158 28.221 14.8184 29.3587 14.3727 30.0145C13.9289 30.6721 12.5956 32.4493 12.5956 32.4493C12.5956 32.4493 13.5503 32.4221 14.9017 32.1957C16.255 31.971 17.8673 30.7627 19.8981 31.4601C19.1988 30.6993 18.9814 27.8623 19.0738 27.587C19.5177 31.0797 21.9307 32.413 21.9307 32.413C21.9307 32.413 21.0412 30.8895 21.0412 29.5562C21.0412 28.221 21.2985 27.0833 22.1843 25.8696C21.9307 27.1413 21.9506 28.8877 22.322 30.0127C22.6934 31.1431 22.8274 31.4185 23.5593 32.413C24.255 33.3569 24.4941 33.163 25.4126 34.2953C26.8202 36.0344 25.1064 38.5743 25.1064 38.5743C25.1064 38.5743 23.3401 36.125 23.0738 35.6576C22.6264 34.8732 22.0611 34.1159 21.2912 33.6196C20.1046 32.8551 18.639 32.6975 17.2677 32.9257C16.4198 33.0688 15.668 33.5 14.8383 33.6667C13.9796 33.8388 12.1716 33.6015 12.1336 33.6196C11.8329 34.0598 11.3673 34.7083 10.9869 35.7518C10.5376 36.9801 9.99048 38.596 11.1771 41.6431C9.69519 40.4167 9.69519 37.538 9.69519 37.538C9.69519 37.538 8.67889 40.2029 8.34012 42.9565C7.98867 45.8116 7.91621 47.2373 7.95969 49.1431C7.95969 49.1431 10.0847 45.6413 11.601 44.1467C13.1155 42.6504 16.4869 40.4602 16.4869 40.4602C16.4869 40.4602 14.8546 42.2627 13.8021 43.8044C12.7495 45.3424 11.0503 48.1449 11.1336 48.4185L16.2151 46.6377C16.7097 46.3659 13.8021 50.366 14.8184 56.0399C15.8347 61.712 21.4235 66.0743 21.4235 66.0743C21.4235 66.0743 20.3238 66.7518 20.1952 66.7518C19.5774 66.1268 19.0249 65.7319 18.5648 65.2609C15.7224 62.3732 15.659 62.0996 15.6264 62.1359C16.0666 62.8315 17.6445 65.2953 19.1372 67.2953C18.3492 67.808 17.4742 68.5344 16.889 69.2844C16.8347 69.3044 16.7803 69.3207 16.7242 69.337C13.6318 66.0308 12.7006 64.6739 11.4307 61.9656C8.91621 56.6033 9.94882 51.7627 10.4144 49.6902C10.4144 49.6902 8.00135 53.7102 9.18795 61.0779C9.18795 61.0779 6.98505 57.904 6.1807 52.4837C5.45425 47.5797 7.95969 39.1884 7.95969 39.1884C7.14266 40.4312 3.56294 46.6703 3.97961 53.2446C4.47055 61.0054 6.68976 64.1667 6.68976 64.1667C6.68976 64.1667 2.46331 58.5779 2.28577 51.3786C2.11548 44.5199 4.82563 38.7645 4.82563 38.7645C4.82563 38.7645 2.32744 41.8333 0.847365 46.8315C-1.02039 53.125 0.782149 59.7862 0.782149 59.7862C0.782149 59.7862 0.528527 56.1033 0.704251 53.3152C0.787585 51.9855 0.883599 51.2428 1.21512 49.2772C1.35642 48.1703 1.51585 47.5326 1.51585 47.5326C1.39809 48.212 1.30027 48.7844 1.21512 49.2772C0.84012 52.2446 0.597367 58.616 3.89447 65.4366C6.60461 71.0417 9.50497 73.8768 10.4144 74.683C11.3673 72.8623 13.2514 70.7029 13.2514 70.7029C13.2514 70.7029 11.7912 73.6033 11.2187 75.558C11.6427 75.9765 11.8963 76.1884 12.4814 76.6576C13.4162 73.4076 15.6644 70.5181 15.6644 70.5181C15.6644 70.5181 13.8727 74.3841 13.3999 77.3098C13.8655 77.7754 14.2677 78.1558 14.8818 78.6848C15.1934 77.8442 15.4959 75.7681 17.1046 72.721C18.7133 69.6703 21.572 67.8388 25.4488 66.5761C26.6789 66.2862 27.8764 66.1286 29.043 66.1033C30.2115 66.1286 31.409 66.2862 32.6372 66.5761C36.5159 67.8388 39.3745 69.6703 40.9832 72.721C42.5919 75.7681 42.8945 77.8442 43.2061 78.6848C43.8202 78.1558 44.2224 77.7754 44.688 77.3098C44.2151 74.3841 42.4235 70.5181 42.4235 70.5181C42.4235 70.5181 44.6716 73.4076 45.6064 76.6576C46.1916 76.1884 46.4452 75.9765 46.8673 75.558C46.2966 73.6033 44.8347 70.7029 44.8347 70.7029C44.8347 70.7029 46.7206 72.8623 47.6716 74.683C48.5811 73.8768 51.4814 71.0417 54.1916 65.4366C57.4905 58.616 57.2477 52.2446 56.8709 49.2772C56.7876 48.7844 56.688 48.212 56.572 47.5326C56.572 47.5326 56.7314 48.1703 56.8709 49.2772C57.2043 51.2428 57.3003 51.9855 57.3836 53.3152C57.5575 56.1033 57.3039 59.7862 57.3039 59.7862C57.3039 59.7862 59.1082 53.125 57.2405 46.8315C55.7586 41.8333 53.2604 38.7645 53.2604 38.7645ZM38.0539 79.3116C37.0122 79.3116 36.226 78.4837 36.226 77.442C36.226 76.4149 37.0122 75.5743 38.0249 75.5743H38.0394C39.0684 75.5743 39.8383 76.4149 39.8383 77.4583C39.8383 78.4837 39.0684 79.3279 38.0539 79.3116ZM38.0539 75.0996H38.0394C36.697 75.0996 35.6264 76.1286 35.6264 77.442C35.6264 78.7554 36.697 79.7989 38.0394 79.7989C39.3818 79.7989 40.438 78.7554 40.438 77.442C40.438 76.1286 39.3818 75.0996 38.0539 75.0996ZM37.9398 77.3424H37.6825V76.6703C37.7387 76.6576 37.8401 76.6431 37.9814 76.6431C38.3238 76.6431 38.4832 76.7862 38.4832 77.0018C38.4832 77.2428 38.2405 77.3424 37.9398 77.3424ZM38.5811 77.5109V77.4873C38.8528 77.4004 39.0684 77.212 39.0684 76.9294C39.0684 76.7011 38.9687 76.529 38.8256 76.4294C38.668 76.3134 38.4687 76.2446 38.0249 76.2446C37.639 76.2446 37.3401 76.2844 37.1264 76.3134V78.6594H37.668V77.7283H37.9253C38.226 77.7283 38.3673 77.8442 38.4108 78.0852C38.4832 78.3714 38.5249 78.5688 38.5974 78.6594H39.168C39.1245 78.5688 39.0684 78.442 38.9959 78.0852C38.9253 77.7736 38.8111 77.5833 38.5811 77.5109ZM140.483 75.4638C140.3 75.4638 140.11 75.4638 139.987 75.442V71.9203C140.117 71.8931 140.315 71.8696 140.599 71.8696C141.722 71.8696 142.349 72.4982 142.342 73.5761C142.342 74.8225 141.648 75.471 140.483 75.4638ZM140.519 71.1703C139.987 71.1703 139.49 71.2138 139.09 71.279V76.1069C139.389 76.1413 139.782 76.1721 140.3 76.1721C141.255 76.1721 142.036 75.9457 142.523 75.5018C142.99 75.0761 143.289 74.4294 143.289 73.5471C143.289 72.7156 142.998 72.1268 142.516 71.7391C142.065 71.3605 141.438 71.1703 140.519 71.1703ZM135.583 74.0489L135.962 72.8388C136.05 72.5489 136.123 72.2047 136.195 71.9203H136.21C136.282 72.2047 136.364 72.5417 136.458 72.8388L136.844 74.0489H135.583ZM135.663 71.2065L134.088 76.1214H135.014L135.438 74.7265H136.998L137.442 76.1214H138.405L136.808 71.2065H135.663ZM131.675 73.4438H131.143V71.8931C131.231 71.8696 131.413 71.8478 131.697 71.8478C132.28 71.8478 132.654 72.1033 132.654 72.6359C132.654 73.1232 132.28 73.4438 131.675 73.4438ZM132.654 73.8007V73.7808C133.119 73.6196 133.548 73.1884 133.548 72.5562C133.548 72.1323 133.396 71.7917 133.126 71.5652C132.791 71.2881 132.317 71.1703 131.61 71.1703C131.092 71.1703 130.597 71.2138 130.253 71.279V76.1214H131.143V74.0996H131.596C132.106 74.1141 132.331 74.3188 132.478 74.962C132.608 75.5743 132.733 75.9765 132.806 76.1214H133.724C133.63 75.9294 133.498 75.3641 133.338 74.7518C133.221 74.2736 133.01 73.933 132.654 73.8007ZM128.329 73.1757H126.251V71.2065H125.355V76.1214H126.251V73.9547H128.329V76.1214H129.226V71.2065H128.329V73.1757ZM121.847 74.0489L122.226 72.8388C122.315 72.5489 122.387 72.2047 122.46 71.9203H122.474C122.548 72.2047 122.628 72.5417 122.722 72.8388L123.108 74.0489H121.847ZM121.929 71.2065L120.353 76.1214H121.279L121.702 74.7265H123.262L123.706 76.1214H124.67L123.072 71.2065H121.929ZM117.423 75.3551L119.902 71.7319V71.2065H116.445V71.9511H118.742V71.9728L116.228 75.6232V76.1214H119.938V75.375H117.423V75.3551ZM112.474 73.1757H110.396V71.2065H109.5V76.1214H110.396V73.9547H112.474V76.1214H113.371V71.2065H112.474V73.1757ZM107.619 71.8696C108.019 71.8696 108.349 71.9583 108.581 72.058L108.771 71.346C108.588 71.2482 108.173 71.1341 107.583 71.1341C106.081 71.1341 104.951 72.1033 104.951 73.7192C104.951 75.2174 105.898 76.1938 107.458 76.1938C108.058 76.1938 108.523 76.0761 108.735 75.9765L108.588 75.2681C108.349 75.3696 107.969 75.442 107.612 75.442C106.525 75.442 105.898 74.7573 105.898 73.6794C105.898 72.4982 106.621 71.8696 107.619 71.8696ZM103.958 71.2065L103.367 72.4692C103.201 72.8243 103.061 73.1304 102.945 73.4438H102.931C102.793 73.1087 102.668 72.8315 102.501 72.4692L101.918 71.2065H100.889L102.442 74.0725V76.1214H103.338V74.0489L104.972 71.2065H103.958ZM102.501 70.9674H103.222L104.134 70.0906H103.143L102.501 70.9674ZM100.824 71.2065H99.7224L98.4325 72.9348C98.3166 73.1015 98.1916 73.2754 98.0756 73.4674H98.0539V71.2065H97.1644V76.1214H98.0539V74.3931L98.4977 73.866L99.8836 76.1214H100.933L99.1318 73.3007L100.824 71.2065ZM95.2822 71.8696C95.6843 71.8696 96.0122 71.9583 96.2459 72.058L96.4343 71.346C96.2532 71.2482 95.8365 71.1341 95.2459 71.1341C93.7441 71.1341 92.6137 72.1033 92.6137 73.7192C92.6137 75.2174 93.563 76.1938 95.1227 76.1938C95.7206 76.1938 96.1861 76.0761 96.3981 75.9765L96.2532 75.2681C96.0122 75.3696 95.6318 75.442 95.2749 75.442C94.1898 75.442 93.563 74.7573 93.563 73.6794C93.563 72.4982 94.284 71.8696 95.2822 71.8696ZM90.9524 76.1214H91.8492V71.2065H90.9524V76.1214ZM88.2985 74.1141H89.1662V75.3478C89.0503 75.3968 88.8166 75.442 88.4887 75.442C87.4669 75.442 86.7822 74.7844 86.7822 73.6612C86.7822 72.5181 87.5195 71.9004 88.5684 71.9004C89.0865 71.9004 89.4144 71.9855 89.6843 72.1105L89.88 71.3877C89.6553 71.279 89.1807 71.154 88.5756 71.154C86.9506 71.154 85.8492 72.1449 85.8419 73.7083C85.8419 74.4511 86.0901 75.0978 86.5267 75.5163C86.9941 75.9602 87.6282 76.1721 88.4597 76.1721C89.1082 76.1721 89.7206 76.0091 90.034 75.8949V73.4094H88.2985V74.1141ZM83.0195 75.4783H83.014C82.1535 75.4783 81.6572 74.6558 81.6572 73.6794C81.6572 72.7011 82.1227 71.8478 83.0195 71.8478C83.9162 71.8478 84.3764 72.7228 84.3764 73.6486C84.3764 74.6775 83.8872 75.4783 83.0195 75.4783ZM83.0503 71.1268C81.6644 71.1268 80.7097 72.1993 80.7097 73.7011C80.7097 75.1377 81.5847 76.2011 82.976 76.2011H82.9832C84.3256 76.2011 85.3238 75.2609 85.3238 73.6123C85.3238 72.2102 84.4778 71.1268 83.0503 71.1268ZM78.5503 71.2065H77.6553V76.1214H80.5702V75.3696H78.5503V71.2065ZM74.5774 75.4783H74.5702C73.7097 75.4783 73.2151 74.6558 73.2151 73.6794C73.2151 72.7011 73.6807 71.8478 74.5774 71.8478C75.4742 71.8478 75.9343 72.7228 75.9343 73.6486C75.9343 74.6775 75.4452 75.4783 74.5774 75.4783ZM74.6064 71.1268C73.2206 71.1268 72.2659 72.1993 72.2659 73.7011C72.2659 75.1377 73.1409 76.2011 74.534 76.2011H74.5412C75.8836 76.2011 76.8818 75.2609 76.8818 73.6123C76.8818 72.2102 76.0358 71.1268 74.6064 71.1268ZM69.4452 75.4783H69.438C68.5774 75.4783 68.0811 74.6558 68.0811 73.6794C68.0811 72.7011 68.5485 71.8478 69.4452 71.8478C70.3419 71.8478 70.8003 72.7228 70.8003 73.6486C70.8003 74.6775 70.313 75.4783 69.4452 75.4783ZM69.4742 71.1268C68.0883 71.1268 67.1336 72.1993 67.1336 73.7011C67.1336 75.1377 68.0086 76.2011 69.4017 76.2011H69.409C70.7495 76.2011 71.7495 75.2609 71.7495 73.6123C71.7495 72.2102 70.9035 71.1268 69.4742 71.1268ZM64.2912 75.3551L66.7695 71.7319V71.2065H63.313V71.9511H65.6101V71.9728L63.0956 75.6232V76.1214H66.8057V75.375H64.2912V75.3551ZM163.436 61.5525V63.5218H161.358V61.5525H160.462V66.4674H161.358V64.3007H163.436V66.4674H164.333V61.5525H163.436ZM158.581 62.2174C158.981 62.2174 159.309 62.3062 159.543 62.4058L159.733 61.692C159.552 61.5978 159.135 61.4819 158.545 61.4819C157.043 61.4819 155.913 62.4493 155.913 64.067C155.913 65.5616 156.86 66.5399 158.42 66.5399C159.018 66.5399 159.485 66.4221 159.695 66.3207L159.552 65.6141C159.309 65.7156 158.931 65.7881 158.574 65.7881C157.489 65.7881 156.86 65.1051 156.86 64.0254C156.86 62.8442 157.583 62.2174 158.581 62.2174ZM155.096 60.4366H154.105L153.463 61.3134H154.186L155.096 60.4366ZM154.922 61.5525L154.329 62.8152C154.163 63.1703 154.025 63.4765 153.909 63.7917H153.893C153.755 63.4547 153.632 63.1775 153.463 62.8152L152.88 61.5525H151.853L153.405 64.4185V66.4674H154.302V64.3967L155.934 61.5525H154.922ZM151.786 61.5525H150.684L149.394 63.2808C149.279 63.4475 149.155 63.6214 149.038 63.8152H149.016V61.5525H148.126V66.4674H149.016V64.7373L149.46 64.2138L150.846 66.4674H151.896L150.096 63.6468L151.786 61.5525ZM146.056 63.6087C145.4 63.3623 145.115 63.1866 145.115 62.808C145.115 62.5163 145.356 62.2174 145.923 62.2174C146.384 62.2174 146.726 62.3569 146.909 62.4493L147.121 61.7192C146.865 61.5978 146.478 61.4819 145.947 61.4819C144.875 61.4819 144.204 62.087 144.204 62.8949C144.204 63.596 144.721 64.0326 145.538 64.317C146.157 64.5435 146.405 64.7609 146.405 65.1304C146.405 65.5344 146.085 65.8025 145.516 65.8025C145.058 65.8025 144.612 65.6576 144.327 65.4891L144.123 66.2337C144.394 66.3931 144.933 66.5399 145.458 66.5399C146.719 66.5399 147.317 65.8623 147.317 65.0652C147.317 64.3678 146.909 63.9384 146.056 63.6087ZM142.476 63.2681C142.476 64.0181 142.49 64.6522 142.556 65.3007L142.541 65.308C142.315 64.7772 142.023 64.2065 141.702 63.6612L140.434 61.5525H139.407V66.4674H140.237V64.712C140.237 63.9004 140.222 63.2518 140.186 62.6178L140.215 62.6105C140.456 63.1631 140.777 63.7609 141.09 64.3007L142.375 66.4674H143.308V61.5525H142.476V63.2681ZM136.556 64.2862H138.407V63.5562H136.556V62.2899H138.518V61.5525H135.659V66.4674H138.626V65.7301H136.556V64.2862ZM133.427 66.4674L135.126 61.5525H134.172L133.458 63.7989C133.268 64.3968 133.085 64.9946 132.954 65.5761H132.94C132.815 64.9873 132.648 64.4112 132.458 63.7917L131.788 61.5525H130.811L132.4 66.4674H133.427ZM128.201 65.8261H128.193C127.333 65.8261 126.838 65.0018 126.838 64.0254C126.838 63.0489 127.304 62.1938 128.201 62.1938C129.097 62.1938 129.558 63.0707 129.558 63.9946C129.558 65.0236 129.068 65.8261 128.201 65.8261ZM128.23 61.4746C126.846 61.4746 125.889 62.5435 125.889 64.0471C125.889 65.4837 126.764 66.5471 128.157 66.5471H128.164C129.507 66.5471 130.505 65.6069 130.505 63.9583C130.505 62.558 129.659 61.4746 128.23 61.4746ZM122.835 61.5525V66.4674H125.751V65.7156H123.731V61.5525H122.835ZM122.025 65.0652C122.025 64.3678 121.617 63.9384 120.764 63.6087C120.108 63.3623 119.824 63.1866 119.824 62.808C119.824 62.5163 120.065 62.2174 120.634 62.2174C121.092 62.2174 121.434 62.3569 121.617 62.4493L121.829 61.7192C121.574 61.5978 121.188 61.4819 120.655 61.4819C119.583 61.4819 118.913 62.087 118.913 62.8949C118.913 63.596 119.431 64.0326 120.246 64.317C120.865 64.5435 121.114 64.7609 121.114 65.1304C121.114 65.5344 120.793 65.8025 120.224 65.8025C119.766 65.8025 119.32 65.6576 119.036 65.4891L118.833 66.2337C119.103 66.3931 119.641 66.5399 120.166 66.5399C121.427 66.5399 122.025 65.8623 122.025 65.0652ZM113.389 64.3967L113.768 63.1866C113.855 62.8949 113.929 62.5507 114.001 62.2663H114.016C114.088 62.5507 114.168 62.8877 114.264 63.1866L114.65 64.3967H113.389ZM113.469 61.5525L111.894 66.4674H112.82L113.242 65.0743H114.802L115.248 66.4674H116.21L114.614 61.5525H113.469ZM108.179 63.5218H106.099V61.5525H105.204V66.4674H106.099V64.3007H108.179V66.4674H109.074V61.5525H108.179V63.5218ZM103.163 66.5399C103.76 66.5399 104.226 66.4221 104.438 66.3207L104.293 65.6141C104.052 65.7156 103.672 65.7881 103.315 65.7881C102.23 65.7881 101.601 65.1051 101.601 64.0254C101.601 62.8442 102.324 62.2174 103.322 62.2174C103.724 62.2174 104.052 62.3062 104.284 62.4058L104.474 61.692C104.293 61.5978 103.876 61.4819 103.286 61.4819C101.784 61.4819 100.654 62.4493 100.654 64.067C100.654 65.5616 101.601 66.5399 103.163 66.5399ZM99.8383 60.4366H98.8456L98.2043 61.3134H98.9271L99.8383 60.4366ZM99.072 62.8152C98.9035 63.1703 98.7659 63.4765 98.6499 63.7917H98.6354C98.4959 63.4547 98.3727 63.1775 98.2043 62.8152L97.6209 61.5525H96.5938L98.1463 64.4185V66.4674H99.043V64.3967L100.675 61.5525H99.6626L99.072 62.8152ZM96.5267 61.5525H95.4271L94.1372 63.2808C94.0195 63.4475 93.8963 63.6214 93.7785 63.8152H93.7568V61.5525H92.8673V66.4674H93.7568V64.7373L94.2025 64.2138L95.5865 66.4674H96.6372L94.8365 63.6468L96.5267 61.5525ZM90.7967 63.6087C90.1409 63.3623 89.8564 63.1866 89.8564 62.808C89.8564 62.5163 90.0974 62.2174 90.6662 62.2174C91.1245 62.2174 91.4688 62.3569 91.6499 62.4493L91.8619 61.7192C91.6064 61.5978 91.2206 61.4819 90.688 61.4819C89.6155 61.4819 88.9452 62.087 88.9452 62.8949C88.9452 63.596 89.4633 64.0326 90.2803 64.317C90.8999 64.5435 91.1463 64.7609 91.1463 65.1304C91.1463 65.5344 90.8256 65.8025 90.2568 65.8025C89.7985 65.8025 89.3528 65.6576 89.0684 65.4891L88.8655 66.2337C89.1354 66.3931 89.6735 66.5399 90.1988 66.5399C91.4597 66.5399 92.0575 65.8623 92.0575 65.0652C92.0575 64.3678 91.6499 63.9384 90.7967 63.6087ZM88.2966 65.7301H86.226V64.2862H88.0774V63.5562H86.226V62.2899H88.188V61.5525H85.3293V66.4674H88.2966V65.7301ZM83.447 62.2174C83.8492 62.2174 84.1771 62.3062 84.4108 62.4058L84.5992 61.692C84.418 61.5978 84.0014 61.4819 83.4126 61.4819C81.909 61.4819 80.7803 62.4493 80.7803 64.067C80.7803 65.5616 81.7278 66.5399 83.2876 66.5399C83.8854 66.5399 84.3528 66.4221 84.563 66.3207L84.418 65.6141C84.1771 65.7156 83.7985 65.7881 83.4416 65.7881C82.3546 65.7881 81.7278 65.1051 81.7278 64.0254C81.7278 62.8442 82.4488 62.2174 83.447 62.2174ZM84.2061 60.4094H83.543L83.1409 60.8895H83.1264L82.7115 60.4094H82.0412L82.7912 61.2736H83.4706L84.2061 60.4094ZM77.9905 62.2899V61.5525H75.1318V66.4674H78.0992V65.7301H76.0285V64.2862H77.88V63.5562H76.0285V62.2899H77.9905ZM74.1028 61.5525H73.2061V66.4674H74.1028V61.5525ZM71.3401 63.2681C71.3401 64.0181 71.3546 64.6522 71.4198 65.3007L71.4053 65.308C71.1807 64.7772 70.889 64.2065 70.5684 63.6612L69.2985 61.5525H68.2713V66.4674H69.1028V64.712C69.1028 63.9004 69.0883 63.2518 69.0503 62.6178L69.0793 62.6105C69.3202 63.1631 69.6427 63.7609 69.9543 64.3007L71.2387 66.4674H72.1716V61.5525H71.3401V63.2681ZM65.2894 66.5471C66.4706 66.5471 67.2514 65.8768 67.2514 64.3587V61.5525H66.3546V64.4185C66.3546 65.3823 65.9669 65.8261 65.3184 65.8261C64.7133 65.8261 64.313 65.3823 64.313 64.4185V61.5525H63.4162V64.3678C63.4162 65.9131 64.1517 66.5471 65.2894 66.5471ZM138.969 49.9112H138.923C136.969 49.9112 135.753 48.0217 135.777 45.3007C135.777 42.6703 136.969 40.692 138.923 40.692C140.904 40.692 142.072 42.6703 142.072 45.2772C142.072 48.0217 140.925 49.9112 138.969 49.9112ZM146.365 45.1431C146.365 41.0978 143.893 37.4765 139.014 37.4765C134.36 37.4765 131.481 40.9819 131.481 45.3913C131.481 49.596 134.067 53.1232 138.766 53.1232H138.789C143.443 53.1232 146.365 50.0217 146.365 45.1431ZM122.51 40.692C124.489 40.692 125.659 42.6703 125.659 45.2772C125.659 48.0217 124.512 49.9112 122.556 49.9112H122.51C120.554 49.9112 119.34 48.0217 119.362 45.3007C119.362 42.6703 120.554 40.692 122.51 40.692ZM122.353 53.1232H122.376C127.03 53.1232 129.952 50.0217 129.952 45.1431C129.952 41.0978 127.48 37.4765 122.601 37.4765C117.945 37.4765 115.068 40.9819 115.068 45.3913C115.068 49.596 117.654 53.1232 122.353 53.1232ZM114.125 49.5272H107.514V49.4366L114.01 40.0399V37.7228H102.679V41.0743H108.75V41.1649L102.05 50.7192V52.8786H114.125V49.5272ZM95.4398 51.4837C94.0901 51.4837 92.8311 51.058 91.9543 50.4928L91.438 52.1341C92.2459 52.6739 93.8438 53.1232 95.3039 53.1232C98.88 53.1232 100.588 51.0779 100.588 48.7391C100.588 46.5145 99.3075 45.2772 96.7441 44.288C94.6517 43.4801 93.7296 42.7808 93.7296 41.3659C93.7296 40.3315 94.5177 39.0942 96.5865 39.0942C97.9579 39.0942 98.9688 39.5217 99.4416 39.8152L99.9814 38.2192C99.3293 37.837 98.1825 37.4765 96.6535 37.4765C93.7079 37.4765 91.7514 39.2283 91.7514 41.5924C91.7514 43.7047 93.2803 45.0091 95.7532 45.9094C97.8003 46.6721 98.6101 47.5054 98.6101 48.8967C98.6101 50.4275 97.4398 51.4837 95.4398 51.4837ZM85.726 53.1232C87.5702 53.1232 89.0322 52.7663 89.7278 52.4058L89.3456 50.8315C88.5593 51.2138 87.3456 51.4602 86.1318 51.4602C82.4669 51.4602 80.3311 49.1015 80.3311 45.3696C80.3311 41.3895 82.6916 39.1178 86.2441 39.1178C87.5032 39.1178 88.5593 39.3859 89.2785 39.7464L89.7731 38.1522C89.2568 37.8804 88.043 37.4765 86.1771 37.4765C81.4778 37.4765 78.2622 40.6667 78.2622 45.4348C78.2622 50.4275 81.4543 53.1232 85.726 53.1232ZM70.0322 53.1232C73.3148 53.1232 75.7659 51.2355 75.7659 46.5833V37.7228H73.7876V46.7156C73.7876 50.0453 72.3256 51.5272 70.101 51.5272C68.0774 51.5272 66.5702 50.0888 66.5702 46.7156V37.7228H64.5919V46.6486C64.5919 51.3714 66.9307 53.1232 70.0322 53.1232Z" fill="white"/>
</svg>
