<svg viewBox="0 0 208 80" fill="none" xmlns="http://www.w3.org/2000/svg">
<path d="M15.5087 71.4488C20.9857 75.4687 28.1305 72.3063 27.2006 65.9167C26.468 60.8797 19.3339 59.1565 16.5468 63.6795C5.38478 50.0103 16.5225 38.9353 16.5225 38.9353C20.0368 49.2069 27.8575 48.3818 32.2288 47.3755C36.6055 46.3637 40.9173 42.1978 44.4721 26.3752C46.9835 15.1948 51.0142 7.37681 54.1473 2.58325C49.8517 0.954741 45.2047 0.0458035 40.3442 -0.000184353C18.2715 -0.205777 0.207921 17.5374 -0.000234658 39.6306C-0.138104 54.4874 8.04485 65.9708 15.506 71.4461M13.1406 31.2202C13.0271 31.231 12.9162 31.2364 12.8108 31.2337C10.8833 31.2148 9.25865 29.7242 9.09915 27.7711C9.09374 27.6575 9.09104 27.5439 9.09104 27.4329C9.10726 25.5042 10.5968 23.8756 12.554 23.7242C12.6675 23.7133 12.7784 23.7106 12.8865 23.7106C14.8167 23.7296 16.4441 25.2201 16.5982 27.1868C16.609 27.2977 16.609 27.4032 16.609 27.5141C16.5901 29.4483 15.1005 31.0687 13.1433 31.2229" fill="white"/>
<path d="M79.9482 40.3721C80.059 28.5451 75.0308 17.8732 66.9425 10.4746C63.5579 12.2303 57.6322 15.6388 52.1039 24.3197C47.3353 31.8076 40.485 47.365 51.3632 54.6068C58.5351 58.486 55.1073 64.4238 55.1073 64.4238C50.4576 60.2308 46.6838 59.6546 41.9286 61.8566C36.2706 64.4671 37.1924 67.8458 35.611 72.9857C34.6026 76.2589 31.9993 77.5412 28.9473 78.4555C32.3372 79.424 35.911 79.965 39.6038 79.9948C61.6845 80.2004 79.7427 62.4599 79.9482 40.3694M66.0963 25.6046C65.9936 25.6127 65.8909 25.6154 65.7854 25.6154C63.9445 25.5992 62.4009 24.179 62.2576 22.3178C62.2468 22.2123 62.2441 22.1041 62.2441 22.0013C62.2603 20.1618 63.6769 18.6172 65.5394 18.4738C65.6476 18.4603 65.753 18.4576 65.8557 18.4576C67.6886 18.4792 69.2349 19.894 69.3836 21.766C69.389 21.8715 69.3944 21.9743 69.3944 22.0798C69.3755 23.9112 67.9562 25.4613 66.0963 25.6073" fill="white"/>
<path d="M206.026 60.2924C206.166 60.2924 206.323 60.3087 206.496 60.3384C206.669 60.3682 206.802 60.4115 206.899 60.4629L207.004 61.4421H207.388L207.823 60.0409C207.577 59.9164 207.307 59.8217 207.018 59.7568C206.726 59.6919 206.445 59.6567 206.172 59.6567C205.669 59.6567 205.228 59.7487 204.85 59.9354C204.471 60.1193 204.179 60.3736 203.977 60.6955C203.774 61.0174 203.674 61.3826 203.674 61.7857C203.674 62.1401 203.76 62.4322 203.931 62.6649C204.104 62.8975 204.32 63.0788 204.585 63.2005L205.59 63.6631C206.101 63.893 206.358 64.2014 206.358 64.5882C206.358 65.013 206.226 65.3241 205.961 65.5215C205.696 65.719 205.326 65.8191 204.85 65.8191C204.479 65.8191 204.128 65.7515 203.793 65.6216L203.701 64.4827H203.303L202.893 66.0707C203.13 66.2032 203.409 66.3006 203.725 66.3628C204.041 66.4251 204.36 66.4548 204.677 66.4548C205.515 66.4548 206.169 66.26 206.639 65.8651C207.11 65.4728 207.348 64.9372 207.348 64.2582C207.348 63.8795 207.258 63.5765 207.083 63.352C206.907 63.1275 206.656 62.9354 206.328 62.7758L205.377 62.3132C205.096 62.1806 204.896 62.0454 204.774 61.9101C204.655 61.7722 204.596 61.5936 204.596 61.3745C204.596 61.058 204.723 60.7983 204.979 60.5954C205.236 60.3925 205.582 60.2924 206.023 60.2924M193.309 66.4575L194.566 66.2465L195.266 61.9588C195.539 61.6071 195.891 61.2798 196.323 60.9796C196.756 60.6793 197.107 60.5305 197.38 60.5305C197.505 60.5305 197.583 60.563 197.618 60.6225C197.653 60.6847 197.672 60.7983 197.672 60.966C197.672 61.0634 197.505 61.902 197.17 63.4791L196.548 66.4548L197.791 66.2438L198.573 61.8777C198.854 61.5341 199.202 61.223 199.616 60.9444C200.03 60.6657 200.37 60.5278 200.633 60.5278C200.757 60.5278 200.835 60.5602 200.87 60.6198C200.906 60.682 200.925 60.7956 200.925 60.9633C200.925 61.0796 200.87 61.388 200.76 61.8966C200.649 62.4052 200.533 62.93 200.408 63.4764C200.373 63.6252 200.284 64.0148 200.143 64.6396C200.003 65.2672 199.932 65.6406 199.932 65.765C199.932 65.9949 200.008 66.1654 200.157 66.2817C200.305 66.3953 200.508 66.4548 200.765 66.4548C201.108 66.4548 201.562 66.3304 202.127 66.0842V65.6865H201.003L201.241 64.5882C201.787 62.1103 202.06 60.7388 202.06 60.4737C202.06 60.1815 202.011 59.9732 201.914 59.8461C201.817 59.7189 201.654 59.654 201.425 59.654C201.054 59.654 200.6 59.8055 200.062 60.1112C199.524 60.4169 199.075 60.7658 198.713 61.1635C198.783 60.8551 198.819 60.6252 198.819 60.4764C198.819 60.1842 198.767 59.9759 198.667 59.8488C198.565 59.7216 198.4 59.6567 198.173 59.6567C197.783 59.6567 197.307 59.819 196.745 60.1464C196.18 60.4737 195.726 60.8443 195.383 61.2582C195.515 60.563 195.58 60.1382 195.58 59.9895C195.58 59.8921 195.561 59.8163 195.521 59.7568C195.48 59.7 195.431 59.6702 195.369 59.6702C195.185 59.6702 194.907 59.7162 194.537 59.8082C194.166 59.9002 193.796 60.0138 193.425 60.1464L193.48 60.4629L194.485 60.5684L193.309 66.4548V66.4575ZM187.516 66.444C187.957 66.444 188.43 66.3223 188.938 66.0788C189.443 65.838 189.879 65.508 190.241 65.0941C190.233 65.1726 190.217 65.2997 190.195 65.4701C190.173 65.6433 190.157 65.7866 190.149 65.9003C190.149 66.0761 190.195 66.2114 190.287 66.3033C190.379 66.3953 190.536 66.4413 190.757 66.4413C190.917 66.4413 191.098 66.4142 191.306 66.3628C191.514 66.3087 191.82 66.2141 192.225 66.0707V65.673H191.182C191.19 65.646 191.211 65.4431 191.241 65.0589C191.271 64.6748 191.344 64.2095 191.46 63.6631L192.293 59.654L191.168 59.865L190.4 64.1257C190.092 64.6207 189.725 64.9886 189.298 65.2294C188.87 65.4728 188.484 65.5919 188.141 65.5919C187.981 65.5919 187.857 65.5486 187.765 65.4593C187.673 65.37 187.627 65.2402 187.627 65.0617C187.627 64.8669 187.835 63.8497 188.249 62.0048C188.541 60.7442 188.684 60.0544 188.684 59.9408C188.684 59.8515 188.657 59.7812 188.605 59.7298C188.551 59.6757 188.481 59.6513 188.395 59.6513C188.208 59.6513 187.93 59.6973 187.554 59.7893C187.178 59.8813 186.802 59.9949 186.424 60.1274L186.478 60.4439L187.484 60.5494C187.448 60.7956 187.316 61.4286 187.086 62.4403C186.902 63.2871 186.767 63.9255 186.683 64.3583C186.6 64.7911 186.559 65.1212 186.559 65.3511C186.559 65.765 186.648 66.049 186.829 66.2032C187.011 66.3574 187.24 66.4359 187.524 66.4359M185.251 59.9408C185.251 59.746 185.167 59.6486 184.999 59.6486C184.805 59.6486 184.521 59.6919 184.145 59.7812C183.769 59.8704 183.399 59.9786 183.029 60.1112L183.083 60.4412L184.088 60.5332C183.983 61.0796 183.88 61.5774 183.785 62.0292C183.688 62.4782 183.61 62.8569 183.548 63.168C183.193 64.8804 183.018 65.7866 183.018 65.8948C183.018 66.2655 183.22 66.4494 183.626 66.4494C183.953 66.4494 184.48 66.325 185.213 66.0788V65.6811H184.088C184.229 64.967 184.461 63.82 184.788 62.2402C185.097 60.7496 185.251 59.9813 185.251 59.9381M185.026 57.1057C184.815 57.1057 184.632 57.1815 184.477 57.3303C184.323 57.4818 184.245 57.6603 184.245 57.874C184.245 58.0877 184.321 58.2527 184.477 58.4042C184.632 58.553 184.815 58.6288 185.026 58.6288C185.237 58.6288 185.407 58.553 185.562 58.4042C185.716 58.2554 185.794 58.0769 185.794 57.874C185.794 57.6711 185.716 57.4818 185.562 57.3303C185.407 57.1815 185.229 57.1057 185.026 57.1057ZM177.681 66.4467L178.938 66.2357L179.401 63.3114C179.798 62.4376 180.179 61.7776 180.55 61.3339C180.92 60.8876 181.258 60.6306 181.569 60.5602L181.728 61.5125H182.218L182.615 59.5404C181.917 59.5404 181.35 59.7325 180.909 60.1166C180.468 60.5007 180.049 61.1202 179.652 61.9751C179.722 61.5774 179.787 61.2203 179.849 60.9038C179.955 60.4006 180.009 60.0787 180.009 59.9381C180.009 59.8488 179.99 59.7785 179.949 59.7271C179.909 59.6757 179.849 59.6486 179.771 59.6486C179.568 59.6486 179.279 59.6919 178.906 59.7812C178.53 59.8704 178.163 59.9786 177.803 60.1112L177.857 60.4412L178.863 60.5467L177.687 66.4467H177.681ZM172.918 65.627C172.645 65.627 172.434 65.5351 172.283 65.3484C172.134 65.1617 172.058 64.8534 172.058 64.4232C172.058 63.7091 172.153 63.0436 172.342 62.4268C172.532 61.81 172.813 61.3096 173.188 60.9254C173.564 60.5413 174.024 60.3492 174.57 60.3492C174.71 60.3492 174.864 60.379 175.032 60.4358C175.2 60.4926 175.34 60.5657 175.457 60.6549C174.989 63.0815 174.751 64.2934 174.743 64.2934C174.548 64.5937 174.256 64.8912 173.864 65.1861C173.472 65.481 173.156 65.6297 172.918 65.6297M175.892 63.6577L176.697 59.5025L176.286 59.397L175.994 59.9137C175.994 59.9137 175.84 59.8704 175.532 59.8082C175.224 59.746 174.951 59.7162 174.713 59.7162C173.945 59.7162 173.28 59.9029 172.718 60.2789C172.153 60.6549 171.718 61.1987 171.41 61.9128C171.101 62.627 170.947 63.4737 170.947 64.453C170.947 65.7758 171.458 66.4386 172.48 66.4386C172.807 66.4386 173.183 66.3114 173.61 66.0544C174.037 65.7975 174.391 65.4755 174.675 65.0887C174.667 65.1672 174.651 65.2943 174.629 65.4647C174.608 65.6379 174.591 65.7812 174.583 65.8948C174.583 66.2573 174.786 66.4359 175.192 66.4359C175.359 66.4359 175.546 66.4088 175.754 66.3574C175.962 66.3033 176.262 66.2086 176.659 66.0653V65.6676H175.616C175.624 65.6324 175.648 65.416 175.689 65.0184C175.73 64.6207 175.797 64.1662 175.894 63.655M165.314 66.4332C165.754 66.4332 166.227 66.3114 166.736 66.068C167.241 65.8272 167.676 65.4972 168.039 65.0833C168.03 65.1617 168.014 65.2889 167.993 65.4593C167.971 65.6324 167.955 65.7758 167.947 65.8894C167.947 66.0653 167.993 66.2005 168.085 66.2925C168.176 66.3845 168.333 66.4305 168.555 66.4305C168.714 66.4305 168.896 66.4034 169.104 66.352C169.312 66.2979 169.617 66.2032 170.023 66.0599V65.6622H168.979C168.987 65.6351 169.009 65.4323 169.039 65.0481C169.069 64.664 169.142 64.1987 169.258 63.6523L170.09 59.6432L168.966 59.8542L168.198 64.1148C167.89 64.6099 167.522 64.9778 167.095 65.2186C166.668 65.462 166.281 65.581 165.938 65.581C165.779 65.581 165.654 65.5378 165.562 65.4485C165.47 65.3592 165.424 65.2294 165.424 65.0508C165.424 64.8561 165.633 63.8389 166.046 61.994C166.338 60.7334 166.484 60.0436 166.484 59.9299C166.484 59.8407 166.457 59.7703 166.406 59.7189C166.352 59.6648 166.281 59.6405 166.195 59.6405C166.008 59.6405 165.73 59.6865 165.354 59.7785C164.978 59.8704 164.603 59.984 164.224 60.1166L164.278 60.4331L165.284 60.5386C165.249 60.7848 165.116 61.4178 164.887 62.4295C164.703 63.2762 164.568 63.9147 164.484 64.3475C164.4 64.7803 164.359 65.1103 164.359 65.3403C164.359 65.7542 164.449 66.0382 164.63 66.1924C164.811 66.3466 165.041 66.4251 165.324 66.4251M161.456 64.334C161.261 64.6424 160.964 64.9345 160.564 65.2077C160.164 65.481 159.804 65.6189 159.485 65.6189C159.204 65.6189 158.991 65.5351 158.85 65.3673C158.709 65.1996 158.639 64.8993 158.639 64.4665C158.639 63.8308 158.72 63.1897 158.882 62.5404C159.045 61.8912 159.315 61.3448 159.688 60.9011C160.061 60.4547 160.54 60.2329 161.123 60.2329C161.334 60.2329 161.545 60.2735 161.759 60.352C161.97 60.4304 162.11 60.5251 162.183 60.6306C162.043 61.388 161.902 62.1293 161.759 62.8542C161.618 63.5765 161.515 64.0716 161.456 64.3367M163.44 59.5215L163.019 59.416L162.713 59.8542C162.289 59.7135 161.805 59.6432 161.259 59.6432C160.491 59.6432 159.823 59.8353 159.255 60.2194C158.688 60.6035 158.25 61.1689 157.939 61.9209C157.631 62.6703 157.477 63.5846 157.477 64.6586C157.477 65.3186 157.601 65.7812 157.847 66.0409C158.093 66.3006 158.442 66.4305 158.891 66.4305C159.261 66.4305 159.68 66.3141 160.148 66.0788C160.615 65.8462 161.007 65.5351 161.324 65.1455L160.637 68.6785L161.84 68.4675L161.986 67.1446C162.135 66.352 162.375 65.0833 162.705 63.3412C163.035 61.599 163.281 60.3276 163.438 59.5242M154.181 59.8542L154.565 62.8055H152.713L154.181 59.8542ZM154.949 65.6893L154.13 65.8489L154.062 66.325H156.76L156.839 65.8624L156.02 65.6379L154.976 58.0444L154.276 58.1905L150.535 65.692L149.583 65.8651L149.518 66.3277H152.03L152.148 65.838L151.289 65.7055L152.438 63.3763H154.646L154.949 65.692V65.6893ZM143.171 65.6243C142.89 65.6243 142.676 65.5324 142.53 65.3457C142.384 65.159 142.311 64.8506 142.311 64.4205C142.311 63.7578 142.4 63.1085 142.581 62.4701C142.763 61.8317 143.038 61.3015 143.409 60.8822C143.779 60.4629 144.233 60.2546 144.771 60.2546C144.99 60.2546 145.196 60.287 145.385 60.3465C145.574 60.4088 145.717 60.4926 145.815 60.5981C145.717 61.0823 145.647 61.4638 145.604 61.737L145.101 64.2907C144.914 64.5828 144.609 64.8777 144.182 65.178C143.755 65.4782 143.541 65.627 143.541 65.627H143.171V65.6243ZM142.562 66.4305C142.781 66.4305 143.052 66.3737 143.368 66.2573C143.684 66.1437 143.998 65.9814 144.306 65.7731C144.614 65.5648 144.86 65.3376 145.047 65.0914C145.039 65.1699 145.025 65.297 145.006 65.4674C144.987 65.6406 144.977 65.7785 144.966 65.884C144.966 66.0599 145.012 66.1951 145.104 66.2871C145.196 66.3791 145.35 66.4251 145.56 66.4251C145.72 66.4251 145.904 66.3953 146.115 66.3385C146.326 66.2817 146.631 66.187 147.026 66.0544V65.6703H145.969C145.996 65.2835 146.066 64.7668 146.18 64.123C146.215 63.9985 146.247 63.8443 146.271 63.6604L146.574 62.0075C147.182 58.691 147.485 57.003 147.485 56.9407C147.485 56.8704 147.464 56.8136 147.42 56.7676C147.377 56.7243 147.318 56.7 147.247 56.7C147.061 56.7 146.785 56.7433 146.415 56.8325C146.044 56.9218 145.666 57.03 145.277 57.1626L145.344 57.4655L146.35 57.5846L145.915 59.7541C145.579 59.6757 145.241 59.6351 144.895 59.6351C144.209 59.6351 143.579 59.8299 143.011 60.2167C142.444 60.6062 141.992 61.1716 141.662 61.9182C141.332 62.6649 141.168 63.5576 141.168 64.5964C141.168 65.2591 141.292 65.7271 141.538 66.0058C141.784 66.2844 142.125 66.4224 142.554 66.4224M136.448 61.223C136.491 61.0282 136.539 60.7902 136.594 60.5088C136.648 60.2275 136.672 60.0409 136.672 59.9543C136.672 59.7433 136.588 59.6378 136.421 59.6378C136.226 59.6378 135.945 59.6811 135.574 59.7703C135.204 59.8596 134.828 59.9678 134.45 60.1004L134.504 60.4304L135.496 60.5359L134.334 66.4359L135.591 66.2384L136.304 61.9372C136.621 61.5314 137.004 61.1906 137.453 60.9119C137.902 60.6333 138.278 60.4953 138.578 60.4953C138.878 60.4953 139.013 60.636 139.013 60.92C139.013 61.1419 138.837 61.9994 138.483 63.5008C138.175 64.8588 138.021 65.6081 138.021 65.7488C138.021 65.9868 138.097 66.16 138.245 66.2709C138.397 66.3818 138.597 66.4359 138.854 66.4359C139.205 66.4359 139.659 66.3114 140.216 66.0653V65.6811H139.078C139.8 62.4972 140.162 60.7523 140.162 60.4412C140.162 59.8948 139.894 59.6216 139.356 59.6216C138.959 59.6216 138.478 59.7758 137.91 60.0841C137.342 60.3925 136.853 60.7713 136.45 61.223M129.584 65.6162C129.311 65.6162 129.1 65.5242 128.949 65.3376C128.8 65.1509 128.724 64.8425 128.724 64.4124C128.724 63.6982 128.819 63.0328 129.008 62.416C129.197 61.7992 129.478 61.2988 129.854 60.9146C130.23 60.5305 130.689 60.3384 131.236 60.3384C131.376 60.3384 131.53 60.3682 131.698 60.425C131.865 60.4818 132.006 60.5548 132.122 60.6441C131.655 63.0706 131.417 64.2826 131.409 64.2826C131.214 64.5828 130.922 64.8804 130.53 65.1753C130.138 65.4701 129.822 65.6189 129.584 65.6189M132.557 63.6468L133.363 59.4917L132.952 59.3862L132.66 59.9029C132.66 59.9029 132.506 59.8596 132.198 59.7974C131.89 59.7352 131.617 59.7054 131.379 59.7054C130.611 59.7054 129.946 59.8921 129.384 60.2681C128.819 60.6441 128.384 61.1878 128.075 61.902C127.767 62.6162 127.613 63.4629 127.613 64.4422C127.613 65.765 128.124 66.4278 129.146 66.4278C129.47 66.4278 129.849 66.3006 130.276 66.0436C130.703 65.7866 131.057 65.4647 131.341 65.0779C131.333 65.1563 131.317 65.2835 131.295 65.4539C131.273 65.627 131.257 65.7704 131.249 65.884C131.249 66.2465 131.452 66.4251 131.857 66.4251C132.025 66.4251 132.211 66.398 132.42 66.3466C132.628 66.2925 132.928 66.1978 133.325 66.0544V65.6568H132.282C132.29 65.6216 132.314 65.4052 132.355 65.0075C132.395 64.6099 132.463 64.1554 132.56 63.6441M122.763 60.2708C122.904 60.2708 123.061 60.287 123.234 60.3168C123.407 60.3465 123.539 60.3898 123.637 60.4412L123.742 61.4205H124.126L124.561 60.0192C124.315 59.8948 124.045 59.8001 123.755 59.7352C123.464 59.6703 123.182 59.6351 122.909 59.6351C122.407 59.6351 121.966 59.7271 121.587 59.9137C121.209 60.0977 120.917 60.3519 120.714 60.6739C120.511 60.9958 120.411 61.361 120.411 61.7641C120.411 62.1184 120.498 62.4106 120.668 62.6432C120.841 62.8759 121.058 63.0571 121.322 63.1789L122.328 63.6414C122.839 63.8714 123.096 64.1798 123.096 64.5666C123.096 64.9913 122.963 65.3024 122.698 65.4999C122.434 65.6974 122.063 65.7975 121.587 65.7975C121.217 65.7975 120.866 65.7298 120.53 65.6L120.438 64.4611H120.041L119.63 66.049C119.868 66.1816 120.147 66.279 120.463 66.3412C120.779 66.4034 121.098 66.4332 121.414 66.4332C122.252 66.4332 122.907 66.2384 123.377 65.8434C123.847 65.4512 124.085 64.9156 124.085 64.2366C124.085 63.8579 123.996 63.5549 123.82 63.3303C123.645 63.1058 123.393 62.9137 123.066 62.7541L122.115 62.2916C121.833 62.159 121.633 62.0237 121.514 61.8885C121.395 61.7505 121.336 61.572 121.336 61.3529C121.336 61.0364 121.463 60.7767 121.72 60.5738C121.977 60.3709 122.323 60.2708 122.763 60.2708ZM115.77 65.7866C115.372 65.7866 115.091 65.673 114.924 65.4485C114.756 65.224 114.672 64.9048 114.672 64.4882C114.672 63.8443 114.753 63.2005 114.916 62.5567C115.078 61.9128 115.335 61.3745 115.683 60.9417C116.032 60.5089 116.475 60.2924 117.013 60.2924C117.411 60.2924 117.689 60.4034 117.854 60.6225C118.016 60.8443 118.097 61.1635 118.097 61.5882C118.097 62.232 118.019 62.8732 117.86 63.5143C117.7 64.1527 117.446 64.691 117.092 65.1293C116.74 65.5648 116.3 65.7839 115.77 65.7839M117.238 59.6324C116.524 59.6324 115.886 59.8217 115.326 60.2005C114.767 60.5792 114.329 61.131 114.01 61.8533C113.694 62.5756 113.534 63.4331 113.534 64.4205C113.534 65.0914 113.696 65.5946 114.024 65.93C114.351 66.2655 114.848 66.4332 115.518 66.4332C116.24 66.4332 116.884 66.2411 117.449 65.857C118.014 65.4728 118.452 64.9183 118.765 64.1906C119.079 63.4629 119.236 62.6054 119.236 61.618C119.236 60.2951 118.57 59.6324 117.24 59.6324M109.282 65.7839C108.884 65.7839 108.603 65.6703 108.436 65.4458C108.268 65.2213 108.184 64.902 108.184 64.4855C108.184 63.8416 108.265 63.1978 108.43 62.554C108.593 61.9101 108.849 61.3718 109.198 60.939C109.547 60.5061 109.99 60.2897 110.528 60.2897C110.925 60.2897 111.204 60.4006 111.369 60.6198C111.531 60.8416 111.615 61.1608 111.615 61.5855C111.615 62.2293 111.536 62.8705 111.377 63.5116C111.217 64.15 110.963 64.6883 110.609 65.1266C110.258 65.5621 109.817 65.7812 109.287 65.7812M110.755 59.6297C110.042 59.6297 109.404 59.819 108.844 60.1978C108.284 60.5765 107.846 61.1283 107.527 61.8506C107.211 62.5729 107.052 63.4304 107.052 64.4178C107.052 65.0887 107.214 65.5919 107.541 65.9273C107.868 66.2628 108.365 66.4305 109.036 66.4305C109.758 66.4305 110.401 66.2384 110.966 65.8543C111.531 65.4701 111.969 64.9156 112.283 64.1879C112.596 63.4602 112.753 62.6027 112.753 61.6153C112.753 60.2924 112.088 59.6297 110.758 59.6297M105.649 64.3664L104.948 65.5973H101.775L107.103 58.6504L107.13 58.2257H102.002L101.777 59.9732H102.253L102.729 58.929H105.678L100.35 65.8759L100.496 66.3114H105.627L106.13 64.3664H105.654H105.649ZM93.4972 68.5216C94.1324 68.5216 94.6218 68.343 94.9651 67.9859C95.3084 67.6289 95.5409 67.1013 95.6652 66.4061L96.7222 60.4926H98.2685V59.792H96.8412L96.9601 59.0913C97.0304 58.6666 97.1277 58.3447 97.2521 58.1202C97.3764 57.8957 97.5359 57.7361 97.7333 57.6441C97.9306 57.5521 98.1982 57.5061 98.5335 57.5061C98.8687 57.5061 99.2201 57.5683 99.5634 57.6901L99.7229 57.0814C99.485 56.9759 99.2363 56.8866 98.9768 56.8109C98.7173 56.7351 98.4929 56.6973 98.3091 56.6973C97.7792 56.6973 97.3575 56.7947 97.0385 56.9894C96.7222 57.1842 96.4843 57.4439 96.3303 57.7712C96.1762 58.0985 96.0545 58.507 95.968 59.0021L95.795 59.8623L94.4596 60.2059L94.5244 60.498H95.649L94.6434 66.3196C94.538 66.9201 94.3622 67.3178 94.1135 67.5179C93.8675 67.7154 93.5188 67.8155 93.07 67.8155C92.7429 67.8155 92.4104 67.7614 92.0644 67.6559L91.9725 68.132C92.0158 68.151 92.1131 68.1915 92.2645 68.2565C92.4131 68.3241 92.6024 68.3836 92.8267 68.4404C93.0511 68.4972 93.2755 68.527 93.4945 68.527M90.1505 65.7893C89.7531 65.7893 89.4719 65.6757 89.3043 65.4512C89.1367 65.2267 89.0529 64.9075 89.0529 64.4909C89.0529 63.847 89.134 63.2032 89.2962 62.5594C89.4584 61.9155 89.7152 61.3772 90.064 60.9444C90.4127 60.5116 90.856 60.2951 91.3913 60.2951C91.7887 60.2951 92.0671 60.4061 92.232 60.6252C92.3942 60.847 92.4753 61.1662 92.4753 61.5909C92.4753 62.2347 92.3969 62.8759 92.2374 63.517C92.0779 64.1554 91.8238 64.6938 91.4697 65.132C91.1155 65.5675 90.6776 65.7866 90.1478 65.7866M91.6157 59.6351C90.902 59.6351 90.264 59.8244 89.7044 60.2032C89.1448 60.5819 88.7069 61.1337 88.3879 61.856C88.0716 62.5783 87.9121 63.4358 87.9121 64.4232C87.9121 65.0941 88.0743 65.5973 88.4014 65.9327C88.7285 66.2682 89.2259 66.4359 89.8963 66.4359C90.6181 66.4359 91.2615 66.2438 91.8265 65.8597C92.3915 65.4755 92.8294 64.921 93.143 64.1933C93.4566 63.4656 93.6134 62.6081 93.6134 61.6207C93.6134 60.2978 92.9484 59.6351 91.6184 59.6351" fill="white"/>
<path d="M175.857 48.3848C175.9 48.1901 175.949 47.952 176.003 47.6707C176.057 47.3893 176.081 47.2027 176.081 47.1161C176.081 46.9051 175.997 46.7996 175.83 46.7996C175.635 46.7996 175.354 46.8429 174.984 46.9322C174.613 47.0214 174.237 47.1296 173.859 47.2622L173.913 47.5922L174.905 47.6977L173.743 53.5977L175 53.4002L175.713 49.099C176.03 48.6932 176.414 48.3524 176.862 48.0737C177.311 47.7951 177.687 47.6571 177.987 47.6571C178.287 47.6571 178.422 47.7978 178.422 48.0819C178.422 48.301 178.246 49.1612 177.892 50.6626C177.584 52.0206 177.43 52.7699 177.43 52.9106C177.43 53.1486 177.506 53.3218 177.654 53.4327C177.803 53.5436 178.006 53.5977 178.263 53.5977C178.614 53.5977 179.068 53.4733 179.625 53.2271V52.843H178.487C179.209 49.659 179.571 47.9141 179.571 47.603C179.571 47.0566 179.301 46.7834 178.766 46.7834C178.368 46.7834 177.887 46.9376 177.319 47.246C176.752 47.5543 176.262 47.9331 175.857 48.3821M169.407 52.9458C169.009 52.9458 168.728 52.8321 168.56 52.6076C168.393 52.3831 168.309 52.0639 168.309 51.6473C168.309 51.0034 168.39 50.3596 168.555 49.7158C168.717 49.0719 168.974 48.5336 169.323 48.1008C169.672 47.668 170.115 47.4516 170.653 47.4516C171.05 47.4516 171.329 47.5625 171.494 47.7816C171.656 48.0034 171.74 48.3226 171.74 48.7473C171.74 49.3912 171.661 50.0323 171.502 50.6734C171.342 51.3118 171.088 51.8502 170.734 52.2884C170.38 52.7239 169.942 52.943 169.412 52.943M170.88 46.7915C170.166 46.7915 169.528 46.9809 168.969 47.3596C168.409 47.7383 167.971 48.2902 167.652 49.0124C167.336 49.7347 167.176 50.5923 167.176 51.5796C167.176 52.2505 167.339 52.7537 167.666 53.0891C167.993 53.4246 168.49 53.5923 169.161 53.5923C169.882 53.5923 170.526 53.4002 171.091 53.0161C171.656 52.6319 172.094 52.0774 172.407 51.3497C172.721 50.622 172.878 49.7645 172.878 48.7771C172.878 47.4543 172.213 46.7915 170.883 46.7915M166.287 47.0836C166.287 46.8889 166.203 46.7915 166.036 46.7915C165.841 46.7915 165.557 46.8348 165.184 46.924C164.808 47.0133 164.438 47.1215 164.068 47.2541L164.122 47.5841L165.127 47.6761C165.022 48.2225 164.919 48.7203 164.824 49.172C164.727 49.6211 164.649 50.0025 164.587 50.3109C164.235 52.0233 164.057 52.9295 164.057 53.0377C164.057 53.4083 164.259 53.5923 164.665 53.5923C164.989 53.5923 165.519 53.4678 166.252 53.2217V52.824H165.127C165.268 52.1099 165.503 50.9629 165.827 49.383C166.136 47.8925 166.29 47.1242 166.29 47.0809M166.065 44.2486C165.854 44.2486 165.671 44.3244 165.517 44.4732C165.362 44.6219 165.284 44.8032 165.284 45.0169C165.284 45.2306 165.362 45.3956 165.517 45.5471C165.671 45.6959 165.854 45.7716 166.065 45.7716C166.276 45.7716 166.446 45.6959 166.601 45.5471C166.755 45.3983 166.833 45.2198 166.833 45.0169C166.833 44.814 166.755 44.6246 166.601 44.4732C166.446 44.3244 166.268 44.2486 166.065 44.2486ZM161.889 47.6626H163.435V46.9484H162.021L162.273 45.5336H161.862L160.924 46.989L159.575 47.3596L159.629 47.6626H160.791L160.475 49.2234C160.007 51.5796 159.775 52.843 159.775 53.0215C159.775 53.2054 159.821 53.3488 159.913 53.4435C160.004 53.5409 160.161 53.5896 160.383 53.5896C160.578 53.5896 160.842 53.5571 161.183 53.4895C161.524 53.4246 161.878 53.3326 162.248 53.219V52.8078H160.859L161.891 47.6626H161.889ZM154.83 52.7699C154.557 52.7699 154.346 52.6779 154.195 52.4913C154.046 52.3046 153.971 51.9962 153.971 51.5661C153.971 50.8519 154.065 50.1865 154.254 49.5697C154.444 48.9529 154.725 48.4525 155.101 48.0683C155.476 47.6842 155.936 47.4921 156.482 47.4921C156.623 47.4921 156.777 47.5219 156.944 47.5787C157.112 47.6355 157.252 47.7085 157.369 47.7978C156.901 50.2243 156.663 51.4363 156.655 51.4363C156.46 51.7365 156.168 52.0341 155.776 52.329C155.384 52.6238 155.068 52.7726 154.83 52.7726M157.804 50.8005L158.61 46.6454L158.199 46.5399L157.907 47.0566C157.907 47.0566 157.753 47.0133 157.444 46.9511C157.136 46.8889 156.863 46.8591 156.625 46.8591C155.858 46.8591 155.193 47.0458 154.63 47.4218C154.065 47.7978 153.63 48.3415 153.322 49.0557C153.014 49.7699 152.86 50.6166 152.86 51.5959C152.86 52.9187 153.37 53.5815 154.392 53.5815C154.719 53.5815 155.095 53.4543 155.522 53.1973C155.949 52.9403 156.304 52.6184 156.587 52.2316C156.579 52.31 156.563 52.4372 156.541 52.6076C156.52 52.7807 156.504 52.9241 156.496 53.0377C156.496 53.4002 156.698 53.5788 157.104 53.5788C157.271 53.5788 157.458 53.5517 157.666 53.5003C157.874 53.4462 158.174 53.3515 158.572 53.2082V52.8105H157.528C157.536 52.7753 157.561 52.5589 157.601 52.1613C157.642 51.7636 157.709 51.3091 157.807 50.7978M151.959 47.0809C151.959 46.8862 151.876 46.7888 151.708 46.7888C151.513 46.7888 151.229 46.8321 150.856 46.9213C150.481 47.0106 150.11 47.1188 149.74 47.2514L149.794 47.5814L150.8 47.6734C150.694 48.2198 150.591 48.7176 150.497 49.1693C150.4 49.6184 150.321 49.9998 150.259 50.3082C149.908 52.0206 149.729 52.9268 149.729 53.035C149.729 53.4056 149.932 53.5896 150.337 53.5896C150.664 53.5896 151.192 53.4651 151.924 53.219V52.8213H150.8C150.94 52.1071 151.175 50.9602 151.5 49.3803C151.808 47.8898 151.962 47.1215 151.962 47.0782M151.738 44.2459C151.527 44.2459 151.343 44.3217 151.189 44.4705C151.035 44.6192 150.959 44.8005 150.959 45.0142C150.959 45.2279 151.035 45.3929 151.189 45.5444C151.343 45.6959 151.527 45.7689 151.738 45.7689C151.949 45.7689 152.119 45.6932 152.273 45.5444C152.427 45.3956 152.505 45.2171 152.505 45.0142C152.505 44.8113 152.427 44.6219 152.273 44.4705C152.119 44.3217 151.94 44.2459 151.738 44.2459ZM148.242 47.4732L148.375 48.5985H148.81L149.126 47.0891C148.729 46.8862 148.248 46.7861 147.685 46.7861C146.928 46.7861 146.285 47.0079 145.761 47.4461C145.236 47.8871 144.844 48.4687 144.585 49.1856C144.325 49.9051 144.195 50.6788 144.195 51.5066C144.195 52.2045 144.366 52.7239 144.704 53.0675C145.042 53.411 145.504 53.5842 146.085 53.5842C146.385 53.5842 146.699 53.5463 147.031 53.4706C147.361 53.3948 147.666 53.2866 147.95 53.1459L147.804 52.6833C147.329 52.8511 146.915 52.9349 146.561 52.9349C146.112 52.9349 145.798 52.8105 145.623 52.5589C145.447 52.3073 145.358 51.8826 145.358 51.2821C145.358 50.6815 145.447 50.0702 145.628 49.4696C145.809 48.8691 146.074 48.374 146.428 47.9818C146.78 47.5895 147.204 47.392 147.696 47.392C147.907 47.392 148.088 47.4191 148.24 47.4705M139.938 52.9349C139.54 52.9349 139.259 52.8213 139.092 52.5968C138.924 52.3723 138.84 52.053 138.84 51.6364C138.84 50.9926 138.921 50.3488 139.083 49.705C139.246 49.0611 139.502 48.5228 139.851 48.09C140.2 47.6571 140.643 47.4407 141.181 47.4407C141.579 47.4407 141.857 47.5516 142.022 47.7708C142.184 47.9926 142.268 48.3118 142.268 48.7365C142.268 49.3803 142.19 50.0215 142.03 50.6626C141.871 51.301 141.616 51.8393 141.262 52.2776C140.911 52.7131 140.47 52.9322 139.94 52.9322M141.408 46.7807C140.695 46.7807 140.057 46.97 139.497 47.3488C138.937 47.7275 138.5 48.2793 138.181 49.0016C137.864 49.7239 137.705 50.5814 137.705 51.5688C137.705 52.2397 137.867 52.7429 138.194 53.0783C138.521 53.4137 139.019 53.5815 139.689 53.5815C140.411 53.5815 141.054 53.3894 141.619 53.0053C142.184 52.6211 142.622 52.0666 142.936 51.3389C143.249 50.6112 143.406 49.7537 143.406 48.7663C143.406 47.4434 142.741 46.7807 141.411 46.7807M135.361 47.4164C135.502 47.4164 135.658 47.4326 135.831 47.4624C136.004 47.4921 136.137 47.5354 136.234 47.5868L136.34 48.5661H136.723L137.159 47.1648C136.913 47.0404 136.642 46.9457 136.353 46.8808C136.061 46.8158 135.78 46.7807 135.507 46.7807C135.004 46.7807 134.563 46.8726 134.185 47.0593C133.807 47.2433 133.515 47.4975 133.312 47.8195C133.109 48.1414 133.009 48.5066 133.009 48.9096C133.009 49.264 133.096 49.5562 133.266 49.7888C133.439 50.0215 133.655 50.2 133.92 50.3244L134.926 50.787C135.437 51.017 135.693 51.3254 135.693 51.7122C135.693 52.1369 135.561 52.448 135.296 52.6455C135.031 52.843 134.661 52.943 134.185 52.943C133.815 52.943 133.463 52.8754 133.128 52.7456L133.036 51.6067H132.639L132.228 53.1946C132.466 53.3272 132.744 53.4246 133.06 53.4868C133.377 53.549 133.696 53.5788 134.012 53.5788C134.85 53.5788 135.504 53.384 135.975 52.989C136.445 52.5968 136.683 52.0612 136.683 51.3822C136.683 51.0034 136.594 50.7005 136.418 50.4759C136.242 50.2514 135.991 50.0593 135.664 49.8997L134.712 49.4371C134.431 49.3046 134.231 49.1693 134.109 49.0341C133.99 48.8988 133.931 48.7176 133.931 48.4984C133.931 48.1819 134.058 47.9222 134.315 47.7167C134.572 47.5138 134.918 47.4137 135.358 47.4137M130.206 47.4137C130.346 47.4137 130.503 47.4299 130.676 47.4597C130.849 47.4894 130.982 47.5327 131.079 47.5841L131.184 48.5634H131.568L132.006 47.1621C131.76 47.0377 131.49 46.943 131.201 46.8781C130.909 46.8131 130.627 46.778 130.354 46.778C129.852 46.778 129.411 46.8699 129.032 47.0566C128.654 47.2405 128.362 47.4948 128.159 47.8167C127.957 48.1387 127.854 48.5039 127.854 48.9069C127.854 49.2613 127.94 49.5535 128.111 49.7861C128.284 50.0188 128.5 50.1973 128.765 50.3217L129.77 50.7843C130.281 51.0143 130.538 51.3226 130.538 51.7095C130.538 52.1342 130.406 52.4453 130.141 52.6428C129.876 52.8403 129.506 52.9403 129.03 52.9403C128.659 52.9403 128.308 52.8727 127.973 52.7429L127.881 51.604H127.483L127.073 53.1919C127.31 53.3245 127.589 53.4219 127.905 53.4841C128.221 53.5463 128.54 53.5761 128.857 53.5761C129.695 53.5761 130.349 53.3813 130.819 52.9863C131.29 52.5941 131.528 52.0585 131.528 51.3795C131.528 51.0007 131.438 50.6978 131.263 50.4732C131.087 50.2487 130.836 50.0566 130.508 49.897L129.557 49.4344C129.276 49.3019 129.073 49.1666 128.954 49.0314C128.835 48.8961 128.776 48.7149 128.776 48.4957C128.776 48.1792 128.903 47.9195 129.16 47.714C129.416 47.5111 129.762 47.411 130.203 47.411M123.866 46.9863L124.25 49.9376H122.399L123.866 46.9863ZM124.634 52.8213L123.815 52.9809L123.75 53.457H126.448L126.526 52.9944L125.707 52.7699L124.664 45.1765L123.964 45.3226L120.222 52.824L119.271 52.9971L119.206 53.4597H121.717L121.836 52.9701L120.977 52.8375L122.125 50.5084H124.334L124.637 52.824L124.634 52.8213ZM112.853 52.7564C112.572 52.7564 112.358 52.6644 112.212 52.4778C112.066 52.2911 111.993 51.9827 111.993 51.5526C111.993 50.8898 112.083 50.2406 112.264 49.6022C112.445 48.9637 112.721 48.4335 113.091 48.0142C113.461 47.5949 113.915 47.3866 114.453 47.3866C114.672 47.3866 114.878 47.4164 115.067 47.4786C115.256 47.5408 115.4 47.6247 115.497 47.7302C115.4 48.2144 115.329 48.5958 115.286 48.8691L114.783 51.4227C114.597 51.7149 114.291 52.0098 113.864 52.31C113.437 52.6103 113.223 52.7591 113.223 52.7591H112.853V52.7564ZM112.245 53.5625C112.464 53.5625 112.734 53.5057 113.05 53.3894C113.367 53.2758 113.68 53.1135 113.988 52.9052C114.297 52.6969 114.543 52.4723 114.729 52.2235C114.721 52.3019 114.708 52.4291 114.689 52.5995C114.67 52.7726 114.659 52.9106 114.648 53.0161C114.648 53.1919 114.694 53.3272 114.786 53.4192C114.878 53.5111 115.032 53.5571 115.243 53.5571C115.402 53.5571 115.586 53.5274 115.797 53.4706C116.008 53.4137 116.313 53.3191 116.708 53.1865V52.8024H115.651C115.678 52.4155 115.748 51.8988 115.862 51.255C115.897 51.1306 115.927 50.9764 115.954 50.7924L116.257 49.1396C116.865 45.823 117.168 44.135 117.168 44.0728C117.168 44.0025 117.146 43.9456 117.1 43.8997C117.057 43.8564 117 43.8347 116.93 43.8347C116.743 43.8347 116.467 43.878 116.097 43.9673C115.727 44.0566 115.348 44.1648 114.959 44.2973L115.024 44.6003L116.029 44.7193L115.594 46.8889C115.259 46.8104 114.918 46.7698 114.575 46.7698C113.888 46.7698 113.259 46.9646 112.691 47.3515C112.123 47.741 111.674 48.3064 111.342 49.053C111.012 49.7996 110.847 50.6923 110.847 51.7311C110.847 52.3939 110.972 52.8619 111.218 53.1405C111.464 53.4192 111.804 53.5571 112.237 53.5571M108.306 53.5706C108.641 53.5706 109.193 53.4381 109.958 53.173V52.7753H108.782L110.369 44.3352C110.377 44.2919 110.382 44.2216 110.382 44.1242C110.382 43.9294 110.298 43.832 110.131 43.832C109.92 43.832 109.614 43.878 109.22 43.97C108.822 44.062 108.444 44.1837 108.082 44.3325L108.149 44.6246L109.166 44.7572L108.333 49.2694C107.892 51.6148 107.671 52.8538 107.671 52.9863C107.671 53.1811 107.719 53.3272 107.817 53.4219C107.914 53.5192 108.076 53.5679 108.306 53.5679M102.84 53.5679L104.097 53.3569L104.559 50.4326C104.957 49.5589 105.341 48.9015 105.708 48.4552C106.079 48.0088 106.416 47.7518 106.727 47.6815L106.887 48.6337H107.376L107.774 46.6616C107.076 46.6616 106.508 46.8537 106.068 47.2378C105.627 47.622 105.208 48.2415 104.811 49.0963C104.881 48.6986 104.946 48.3415 105.008 48.025C105.113 47.5219 105.168 47.2 105.168 47.0593C105.168 46.97 105.149 46.8997 105.108 46.8483C105.068 46.7942 105.008 46.7698 104.93 46.7698C104.727 46.7698 104.438 46.8131 104.065 46.9024C103.689 46.9917 103.321 47.0999 102.962 47.2324L103.016 47.5625L104.021 47.668L102.845 53.5679H102.84ZM98.493 52.9187C98.0956 52.9187 97.8145 52.8051 97.6469 52.5806C97.4793 52.356 97.3955 52.0368 97.3955 51.6202C97.3955 50.9764 97.4766 50.3326 97.6415 49.6887C97.8037 49.0449 98.0605 48.5066 98.4092 48.0737C98.758 47.6409 99.2013 47.4245 99.7366 47.4245C100.134 47.4245 100.412 47.5354 100.577 47.7545C100.739 47.9764 100.821 48.2956 100.821 48.7203C100.821 49.3641 100.742 50.0052 100.583 50.6464C100.423 51.2848 100.169 51.8231 99.815 52.2613C99.4635 52.6969 99.0229 52.916 98.493 52.916M99.9609 46.7644C99.2472 46.7644 98.6093 46.9538 98.0497 47.3325C97.4901 47.7112 97.0521 48.2631 96.7332 48.9854C96.4169 49.7077 96.2574 50.5652 96.2574 51.5526C96.2574 52.2235 96.4196 52.7266 96.7467 53.0621C97.0738 53.3975 97.5712 53.5652 98.2416 53.5652C98.9634 53.5652 99.6068 53.3732 100.172 52.989C100.737 52.6049 101.175 52.0503 101.488 51.3226C101.802 50.595 101.959 49.7374 101.959 48.75C101.959 47.4272 101.294 46.7644 99.9636 46.7644M95.5599 46.0638L93.0999 51.7392L92.5322 45.9042L91.805 46.0503L89.2936 51.6987L88.6989 46.0638L89.4666 45.7987L89.545 45.3632H86.8606L86.7822 45.7987L87.6284 46.0638L88.5394 53.5652L89.226 53.4192L91.7239 47.9168L92.3727 53.5652L93.035 53.4192L96.3412 46.0638L97.2927 45.7987L97.3711 45.3632H94.8057L94.7273 45.7987L95.5599 46.0638Z" fill="white"/>
<path d="M151.597 24.6447H147.496L149.453 18.8503L151.597 24.6447ZM146.985 26.092H152.132L152.911 28.4536L151.167 28.9892V30.1957H158.62V28.9892L156.717 28.3454L151.221 13.375L149.132 13.724L144.066 28.3454L142.162 29.0163V30.1957H148.061V28.9892L146.239 28.3725L146.991 26.092H146.985ZM137.345 25.8512L136.326 28.3454H130.99L139.059 14.6086L138.924 13.724H127.235L127.502 17.6411H129.057L129.7 15.5473H134.955L126.751 29.3112L127.235 30.1957H138.629L138.843 25.8485H137.342L137.345 25.8512ZM116.416 24.6447H112.315L114.272 18.8503L116.416 24.6447ZM111.804 26.092H116.951L117.73 28.4536L115.986 28.9892V30.1957H123.439V28.9892L121.536 28.3454L116.04 13.375L113.948 13.724L108.882 28.3454L106.979 29.0163V30.1957H112.877V28.9892L111.055 28.3725L111.807 26.092H111.804ZM100.899 14.9305L102.775 15.5473L100.899 24.8557L98.1388 15.0901L94.7867 15.7069L92.5889 24.7205L90.5776 15.4661L92.3212 14.9305V13.724H84.8682V14.9305L86.7713 15.5743L90.9533 30.4636L93.0187 30.1146L95.941 19.4643L99.4526 30.4636L101.518 30.1146L104.897 15.5473L106.8 14.9034V13.724H100.902V14.9305H100.899Z" fill="white"/>
<path d="M171.666 36.7207H87.082V37.4565H171.666V36.7207Z" fill="white"/>
</svg>
