<svg viewBox="0 0 200 51" fill="none" xmlns="http://www.w3.org/2000/svg">
<g clip-path="url(#clip0_4356_12307)">
<path d="M72.0942 31.8353L72.0244 31.8616C72.0257 31.8493 72.0265 31.8396 72.0273 31.8256C72.0215 31.6593 71.9382 31.4951 71.8351 31.5086C71.7321 31.5226 71.6618 31.7054 71.6803 31.8683C71.6888 31.9445 71.714 32.0021 71.746 32.0423C71.547 31.9632 71.2753 31.9632 70.9746 32.0038C70.6944 32.0681 70.3899 32.1807 70.1586 32.3364C69.9314 32.5011 69.7926 32.6653 69.7232 32.8223C69.6934 32.885 69.6374 32.937 69.5727 32.9582C69.3952 33.0102 69.2219 33.1275 69.0936 33.3061C68.9123 33.5448 68.9157 33.8715 69.0511 34.1026C69.3174 34.5402 69.8747 34.5661 70.2221 34.2808C70.3092 34.205 70.3731 34.1123 70.416 34.0099C70.44 33.9481 70.4959 33.91 70.5607 33.9088C70.7167 33.9012 70.8833 33.8432 71.0675 33.7077C71.2522 33.5837 71.4364 33.4305 71.5929 33.243C71.7561 33.0864 71.8932 32.8854 71.979 32.7106C71.9807 32.7597 71.9987 32.8194 72.0366 32.8867C72.119 33.0306 72.2469 33.1546 72.3062 33.1199C72.3659 33.0852 72.3483 32.9015 72.2789 32.7542C72.2721 32.7432 72.2675 32.7356 72.2612 32.7254C72.281 32.722 72.3003 32.7199 72.3197 32.714C72.5708 32.6429 72.7626 32.4287 72.7386 32.1718C72.7176 31.9297 72.4194 31.746 72.0942 31.8353Z" fill="white"/>
<path d="M66.2609 38.2062L66.2214 38.2697C66.2146 38.2587 66.2092 38.2506 66.202 38.2392C66.0973 38.1101 65.9324 38.0297 65.8584 38.1034C65.7844 38.1766 65.8382 38.3653 65.9509 38.4838C66.0035 38.5397 66.0577 38.5702 66.1078 38.5829C65.9017 38.6404 65.6851 38.8059 65.4697 39.0209C65.2851 39.2423 65.1097 39.5174 65.0193 39.7819C64.9364 40.0511 64.925 40.2665 64.9637 40.4337C64.9772 40.5023 64.9642 40.5776 64.925 40.6335C64.8153 40.7833 64.7475 40.9818 64.7522 41.2019C64.7509 41.5024 64.9499 41.761 65.1963 41.8625C65.6712 42.0496 66.1309 41.7313 66.2369 41.2929C66.2605 41.1799 66.2559 41.0673 66.2285 40.9594C66.2104 40.8954 66.2323 40.8311 66.2832 40.7905C66.4031 40.6898 66.5011 40.5425 66.5667 40.3224C66.6395 40.1116 66.6941 39.8771 66.7063 39.6329C66.7421 39.409 66.7311 39.1653 66.6941 38.9735C66.7253 39.012 66.7753 39.0484 66.846 39.0793C66.9982 39.1437 67.1745 39.1648 67.201 39.1009C67.2279 39.0374 67.1034 38.9016 66.9595 38.8262C66.9478 38.8216 66.9393 38.8186 66.9284 38.814C66.9419 38.7996 66.9558 38.7856 66.9679 38.7691C67.1253 38.56 67.1497 38.2731 66.9764 38.083C66.8144 37.9023 66.4666 37.937 66.2609 38.2062Z" fill="white"/>
<path d="M63.69 38.517L63.6383 38.5707C63.6341 38.5589 63.6303 38.55 63.6257 38.5369C63.5491 38.3892 63.404 38.2766 63.3169 38.3333C63.2295 38.3904 63.2442 38.586 63.3304 38.7252C63.3704 38.7904 63.4175 38.8315 63.4637 38.8543C63.2501 38.8683 63.0044 38.9855 62.7504 39.1523C62.5245 39.3309 62.2974 39.5641 62.1548 39.8045C62.0194 40.0512 61.9643 40.2595 61.9681 40.4313C61.9681 40.5011 61.9395 40.5722 61.8898 40.6188C61.7519 40.7428 61.6454 40.9231 61.6055 41.1398C61.5432 41.4335 61.6858 41.7277 61.9066 41.8779C62.3331 42.1585 62.8475 41.9414 63.0406 41.5338C63.0865 41.428 63.105 41.3167 63.0999 41.2058C63.0953 41.1389 63.1294 41.0805 63.1878 41.0518C63.3254 40.9777 63.4515 40.8533 63.5601 40.6514C63.674 40.4597 63.7754 40.2417 63.8368 40.0051C63.9172 39.7931 63.9559 39.5527 63.9588 39.3575C63.9815 39.4011 64.0227 39.4473 64.0858 39.4917C64.2217 39.5861 64.3899 39.6432 64.429 39.5861C64.4682 39.529 64.3739 39.3707 64.2482 39.2674C64.2372 39.2606 64.2301 39.2555 64.22 39.2492C64.2364 39.2378 64.2528 39.2272 64.2679 39.2132C64.4644 39.041 64.5464 38.765 64.4156 38.5432C64.2936 38.3333 63.9458 38.2956 63.69 38.517Z" fill="white"/>
<path d="M76.9897 32.4603L76.9249 32.4599C76.9299 32.4484 76.9337 32.4395 76.9392 32.4268C76.9876 32.2694 76.9737 32.0861 76.8975 32.0629C76.8176 32.0417 76.7196 32.1763 76.6633 32.332C76.6384 32.4044 76.6321 32.4666 76.6397 32.5166C76.4037 32.2135 75.9407 31.8826 75.454 31.7361C75.2159 31.6629 74.9976 31.6574 74.8399 31.7006C74.7751 31.7175 74.6961 31.7069 74.6406 31.6633C74.4917 31.5457 74.2885 31.4725 74.053 31.4885C73.7392 31.4957 73.4662 31.7179 73.3968 31.9698C73.2782 32.4641 73.5945 32.8958 73.9974 32.9804C74.1034 32.9991 74.2141 33.0025 74.3179 32.9749C74.3794 32.961 74.4416 32.9783 74.4858 33.0283C74.5951 33.1497 74.7419 33.2407 74.9897 33.3169C75.462 33.4604 76.1712 33.4591 76.5362 33.2166C76.5123 33.2615 76.4988 33.3224 76.5043 33.3999C76.5139 33.5637 76.6183 33.7423 76.7078 33.7317C76.8008 33.7245 76.8551 33.548 76.8374 33.3838C76.8345 33.3711 76.8323 33.3622 76.8298 33.3504L76.898 33.3626C77.2088 33.3978 77.4734 33.2069 77.4843 32.9546C77.4948 32.7062 77.274 32.4929 76.9897 32.4603Z" fill="white"/>
<path d="M81.3532 31.5711L81.3027 31.6105C81.2997 31.5982 81.2976 31.5889 81.2943 31.5758C81.2362 31.42 81.1168 31.2867 81.0432 31.3091C80.97 31.3315 80.9662 31.5106 81.0163 31.6676C81.0402 31.7408 81.0726 31.7937 81.1092 31.8284C80.7231 31.7366 80.1649 31.7827 79.7515 31.8995C79.5433 31.9715 79.3906 32.0413 79.2875 32.1577C79.2455 32.2051 79.1824 32.2216 79.1235 32.2005C78.9662 32.1433 78.8005 32.1535 78.6234 32.2119C78.387 32.305 78.191 32.5242 78.1326 32.7875C78.016 33.2822 78.4295 33.7254 78.983 33.6653C79.1185 33.6454 79.243 33.5984 79.3473 33.5328C79.4091 33.4951 79.4869 33.4875 79.5555 33.5061C79.7216 33.5514 79.9458 33.5709 80.2196 33.479C80.7715 33.3225 81.3204 32.8505 81.4499 32.4476C81.4583 32.498 81.4844 32.5543 81.5353 32.6123C81.6434 32.7367 81.82 32.8146 81.8949 32.7536C81.9694 32.6927 81.9037 32.5158 81.791 32.3981C81.7809 32.3896 81.7742 32.3841 81.7649 32.3765L81.8268 32.3431C82.0985 32.1738 82.1893 31.8602 82.0413 31.6549C81.897 31.4547 81.5908 31.423 81.3532 31.5711Z" fill="white"/>
<path d="M81.8747 27.8505L81.8411 27.9051C81.8339 27.8945 81.8285 27.8869 81.8209 27.8755C81.7132 27.7493 81.5551 27.6659 81.4941 27.7125C81.4331 27.7586 81.4911 27.9284 81.5916 28.0583C81.6392 28.1188 81.688 28.1569 81.7342 28.1768C81.3405 28.225 80.8324 28.4625 80.4846 28.716C80.3138 28.8557 80.1948 28.9746 80.138 29.1198C80.1149 29.1786 80.061 29.2158 79.9988 29.2167C79.8318 29.2175 79.6796 29.2848 79.5332 29.4016C79.3435 29.5705 79.235 29.8448 79.2703 30.1123C79.3313 30.6168 79.8714 30.8889 80.3702 30.64C80.4905 30.5744 80.591 30.4868 80.6667 30.3891C80.7113 30.3323 80.782 30.2976 80.8526 30.2913C81.0238 30.2765 81.2409 30.2164 81.4667 30.0352C81.9307 29.6962 82.2836 29.0622 82.2667 28.6394C82.292 28.6834 82.3357 28.7274 82.4034 28.7642C82.5477 28.8434 82.7399 28.8548 82.7895 28.7719C82.8383 28.6885 82.7159 28.5454 82.5696 28.4743C82.5574 28.4697 82.549 28.4667 82.5376 28.4629L82.5847 28.41C82.7811 28.1565 82.7588 27.831 82.5494 27.6897C82.345 27.5525 82.0467 27.6287 81.8747 27.8505Z" fill="white"/>
<path d="M84.6906 28.3603L84.6582 28.4153C84.6507 28.406 84.6448 28.3984 84.6364 28.3878C84.5219 28.2719 84.3541 28.197 84.2961 28.2499C84.2385 28.3028 84.3087 28.4695 84.4197 28.591C84.4719 28.6477 84.524 28.6816 84.5712 28.6976C84.1834 28.7785 83.6807 29.0726 83.3611 29.4049C83.1869 29.5776 83.094 29.7439 83.0561 29.9001C83.0401 29.9623 82.9939 30.0143 82.932 30.033C82.7663 30.0829 82.6174 30.1934 82.506 30.3538C82.3579 30.5785 82.3348 30.8769 82.4496 31.1207C82.6616 31.5829 83.2513 31.6726 83.6416 31.3209C83.7354 31.2324 83.8056 31.1287 83.8507 31.0191C83.8772 30.9543 83.9348 30.9069 84.0025 30.8917C84.1648 30.8528 84.3386 30.7503 84.5257 30.5641C84.9047 30.1735 85.1903 29.5357 85.1394 29.115C85.1684 29.1569 85.216 29.1971 85.2862 29.228C85.4359 29.2953 85.6269 29.2927 85.6677 29.2072C85.7089 29.1213 85.5806 28.9905 85.4275 28.9287C85.4149 28.9253 85.4061 28.9228 85.3943 28.9194L85.4397 28.8657C85.6084 28.5952 85.5688 28.2744 85.3527 28.1504C85.1365 28.0264 84.8395 28.1204 84.6906 28.3603Z" fill="white"/>
<path d="M67.2516 33.7113L67.2331 33.7727C67.2234 33.7651 67.2158 33.7592 67.2053 33.7511C67.0669 33.6656 66.8861 33.6326 66.8423 33.6978C66.7986 33.763 66.9063 33.9081 67.043 34C67.1069 34.0423 67.1649 34.0631 67.215 34.0673C66.857 34.2383 66.4377 34.6442 66.2055 35.0424C66.0768 35.2519 66.0255 35.4356 66.0255 35.596C66.0247 35.6608 65.9918 35.7221 65.9363 35.7552C65.7866 35.8432 65.6684 35.9858 65.5973 36.1682C65.5069 36.4218 65.5544 36.7172 65.7231 36.9267C66.0377 37.3254 66.6316 37.2725 66.9285 36.8374C66.9988 36.7294 67.0425 36.6118 67.0606 36.4945C67.0711 36.4256 67.1161 36.3655 67.178 36.3346C67.3269 36.258 67.4711 36.1174 67.6095 35.8919C67.8859 35.4221 68.0137 34.7343 67.8652 34.3377C67.9031 34.3712 67.9586 34.3991 68.0343 34.4126C68.1954 34.4423 68.3805 34.3944 68.3998 34.3013C68.4196 34.2086 68.2648 34.1117 68.1008 34.088C68.0882 34.088 68.0789 34.0876 68.0667 34.0872L68.0978 34.0237C68.1988 33.7211 68.0848 33.4189 67.8455 33.3499C67.6061 33.2809 67.3399 33.4426 67.2516 33.7113Z" fill="white"/>
<path d="M86.109 24.0174L86.1119 24.0821C86.1002 24.0775 86.0913 24.0741 86.0787 24.0694C85.9193 24.0279 85.7401 24.0495 85.7187 24.1257C85.6951 24.2019 85.8394 24.3094 85.9963 24.3568C86.0695 24.3784 86.1313 24.3809 86.1801 24.3703C85.8886 24.6399 85.6093 25.1584 85.5016 25.6007C85.4432 25.8254 85.4495 26.0062 85.4865 26.1539C85.5033 26.2144 85.4882 26.28 85.444 26.324C85.3305 26.4438 85.2354 26.5936 85.2165 26.7858C85.187 27.0439 85.2871 27.3178 85.4991 27.4926C85.8781 27.8201 86.4682 27.6534 86.6592 27.1396C86.7092 27.0147 86.7281 26.8861 86.7147 26.7625C86.708 26.6905 86.7361 26.619 86.7887 26.5703C86.9204 26.4544 87.0217 26.2677 87.0915 25.9977C87.2232 25.4614 87.1387 24.7712 86.8808 24.4364C86.9267 24.4571 86.9881 24.4673 87.0642 24.458C87.2274 24.4385 87.391 24.339 87.3835 24.2451C87.3742 24.1511 87.1946 24.1041 87.0331 24.1295C87.0209 24.1329 87.0121 24.1354 87.0007 24.1384L87.0091 24.069C87.0272 23.752 86.8266 23.4964 86.5746 23.4981C86.3286 23.4997 86.1254 23.7325 86.109 24.0174Z" fill="white"/>
<path d="M89.1114 9.98574L89.058 10.0217C89.0558 10.0094 89.0537 10.0001 89.0516 9.98701C89.0037 9.8283 88.8914 9.68567 88.8157 9.70725C88.7391 9.7263 88.7231 9.90617 88.7648 10.0657C88.7846 10.1402 88.8148 10.1944 88.8493 10.2308C88.4687 10.1212 87.8832 10.1516 87.4521 10.2896C87.2308 10.3565 87.0811 10.4564 86.9751 10.5652C86.9322 10.6109 86.8687 10.6324 86.8085 10.6172C86.6479 10.5821 86.4712 10.5787 86.2983 10.6629C86.0641 10.7717 85.884 11.0002 85.8462 11.2741C85.7663 11.7701 86.215 12.19 86.7505 12.0858C86.8826 12.0638 87.0016 12.013 87.0988 11.9369C87.1564 11.8937 87.2321 11.8806 87.3006 11.9005C87.4676 11.9529 87.6788 11.9428 87.9442 11.8619C88.4678 11.6952 89.0092 11.2626 89.1585 10.8669C89.1648 10.9173 89.1879 10.9748 89.2359 11.0354C89.3372 11.1657 89.5067 11.2542 89.5825 11.1992C89.6573 11.1416 89.6035 10.963 89.4979 10.8377C89.4887 10.8288 89.4819 10.8225 89.4735 10.8144L89.537 10.7857C89.8155 10.6358 89.9274 10.3303 89.7944 10.1148C89.6649 9.90448 89.3612 9.85115 89.1114 9.98574Z" fill="white"/>
<path d="M85.6895 19.181V19.2542C85.6781 19.2495 85.6693 19.2457 85.6571 19.2406C85.4994 19.1958 85.3164 19.2241 85.2941 19.3232C85.2781 19.4218 85.4329 19.5424 85.5936 19.5767C85.6689 19.5928 85.7307 19.5877 85.7782 19.5708C85.4884 19.8903 85.3744 20.6094 85.4771 21.1253C85.5242 21.3852 85.6146 21.5646 85.721 21.6789C85.7652 21.7263 85.7841 21.7936 85.7669 21.8558C85.7172 22.0251 85.7219 22.1838 85.7896 22.3688C85.8855 22.6138 86.116 22.8043 86.3789 22.8517C86.8752 22.9452 87.2949 22.5173 87.2239 21.9769C87.2024 21.8431 87.1578 21.7123 87.0889 21.618C87.0489 21.5604 87.0401 21.4863 87.0632 21.4207C87.1208 21.2595 87.1318 21.0677 87.0876 20.8244C86.9959 20.3516 86.7477 19.8522 86.4819 19.5657C86.5299 19.5805 86.5917 19.583 86.6666 19.5682C86.8268 19.5356 86.9795 19.448 86.9622 19.3761C86.9517 19.305 86.7751 19.2648 86.6119 19.2868C86.5997 19.2897 86.5908 19.2918 86.5791 19.2948C86.5829 19.2745 86.5879 19.2546 86.5896 19.2339C86.6018 18.963 86.4432 18.7112 86.2005 18.6659C85.9536 18.6206 85.7059 18.8487 85.6895 19.181Z" fill="white"/>
<path d="M83.9654 17.176L83.9431 17.2458C83.9339 17.2378 83.9267 17.2315 83.9162 17.223C83.7799 17.1316 83.597 17.1024 83.5457 17.19C83.5007 17.2784 83.6113 17.441 83.7543 17.5231C83.8207 17.562 83.8809 17.576 83.9318 17.5743C83.5583 17.7893 83.2315 18.4389 83.1722 18.9616C83.1381 19.2236 83.1692 19.4225 83.2365 19.5639C83.2639 19.6227 83.2613 19.6926 83.226 19.7467C83.1276 19.8923 83.0834 20.0447 83.0918 20.2419C83.1087 20.5048 83.2702 20.757 83.5057 20.8831C83.9499 21.1248 84.4798 20.8463 84.5762 20.3101C84.5968 20.1763 84.5938 20.0384 84.5572 19.927C84.5366 19.8598 84.5505 19.7865 84.5926 19.7315C84.6965 19.5952 84.765 19.4162 84.797 19.1711C84.8533 18.6929 84.7688 18.141 84.6031 17.7863C84.6443 17.8151 84.7023 17.8363 84.7781 17.8456C84.9404 17.8638 85.1124 17.8274 85.1179 17.7533C85.1293 17.6826 84.9736 17.5899 84.8117 17.5603C84.7987 17.5595 84.7898 17.559 84.7781 17.5582C84.7877 17.54 84.7982 17.5226 84.8062 17.5036C84.9005 17.2492 84.826 16.9606 84.6085 16.8429C84.3873 16.7236 84.0819 16.8649 83.9654 17.176Z" fill="white"/>
<path d="M87.9118 14.6278L87.8697 14.6837C87.8638 14.6727 87.8592 14.6642 87.8525 14.6523C87.7574 14.5169 87.6014 14.4213 87.5286 14.4788C87.4563 14.5364 87.4983 14.7218 87.5968 14.8538C87.6426 14.9156 87.6918 14.9533 87.7385 14.9727C87.3225 15.0134 86.761 15.4104 86.462 15.8806C86.3135 16.1201 86.2382 16.3174 86.2483 16.5002C86.25 16.5726 86.2201 16.6449 86.1646 16.6911C86.0144 16.8134 85.8912 16.9958 85.8605 17.2303C85.8029 17.5414 85.9366 17.8397 86.1772 17.9769C86.6146 18.2151 87.1261 17.9989 87.2901 17.6163C87.3351 17.5168 87.3616 17.414 87.3595 17.3077C87.3591 17.2451 87.3932 17.1888 87.4474 17.1596C87.5715 17.0859 87.7162 16.9725 87.8361 16.7778C88.0758 16.3999 88.2744 15.8382 88.2689 15.4379C88.2946 15.481 88.3387 15.5246 88.4052 15.5631C88.5478 15.6448 88.7269 15.6749 88.7673 15.605C88.8077 15.5352 88.6971 15.3879 88.5574 15.3024C88.5457 15.2969 88.5377 15.2931 88.5267 15.288L88.5738 15.2436C88.7602 15.0248 88.8001 14.7264 88.6205 14.5448C88.4489 14.3713 88.1162 14.3899 87.9118 14.6278Z" fill="white"/>
<path d="M91.1064 10.8551L91.0589 10.9067C91.0543 10.8948 91.0505 10.8864 91.045 10.8737C90.9638 10.7294 90.8179 10.6185 90.7401 10.6684C90.6622 10.7184 90.6858 10.9071 90.7703 11.0481C90.8099 11.1141 90.8553 11.1568 90.8999 11.1805C90.4818 11.1793 89.8837 11.5178 89.5396 11.9559C89.3676 12.1794 89.2734 12.3677 89.2654 12.551C89.2599 12.6233 89.2229 12.6923 89.1628 12.7325C89.0017 12.8392 88.8608 13.0081 88.8074 13.2383C88.719 13.5422 88.8221 13.8524 89.0479 14.0132C89.4597 14.2943 89.9897 14.1305 90.1912 13.7661C90.2458 13.6717 90.2824 13.5718 90.2908 13.466C90.2967 13.4038 90.3363 13.3513 90.3931 13.3276C90.5243 13.2667 90.6791 13.1685 90.8179 12.9869C91.0938 12.6348 91.347 12.0956 91.3811 11.6973C91.4025 11.7426 91.4425 11.7904 91.5047 11.8353C91.6381 11.9309 91.8135 11.9787 91.8606 11.9136C91.9077 11.8475 91.8122 11.6901 91.6818 11.5915C91.6709 11.5847 91.6633 11.5801 91.6528 11.5741L91.7041 11.5344C91.9115 11.3354 91.9804 11.0421 91.8198 10.8436C91.6662 10.6536 91.3335 10.6388 91.1064 10.8551Z" fill="white"/>
<path d="M74.7209 34.362L74.6482 34.3611C74.6532 34.3497 74.6574 34.3408 74.6629 34.3285C74.7146 34.1711 74.6919 33.9866 74.5931 33.9629C74.5014 33.9421 74.3832 34.092 74.3453 34.2519C74.3272 34.3268 74.3293 34.3891 74.3441 34.4377C74.0526 34.1482 73.4318 33.9692 72.9266 34.0137C72.6709 34.0335 72.4845 34.1102 72.3558 34.2109C72.3033 34.2536 72.233 34.2697 72.1682 34.2502C71.9958 34.1961 71.7922 34.2075 71.5941 34.301C71.3237 34.4276 71.1512 34.7137 71.1823 34.982C71.261 35.4781 71.6808 35.7832 72.0795 35.7125C72.1838 35.6935 72.2772 35.6478 72.3626 35.5872C72.4118 35.5513 72.4761 35.547 72.5308 35.5746C72.6658 35.6457 72.8353 35.6736 73.062 35.6567C73.507 35.6173 74.0429 35.4125 74.3234 35.1454C74.3079 35.1928 74.3028 35.255 74.3142 35.3308C74.3398 35.4937 74.4177 35.6524 74.4875 35.6389C74.5493 35.6279 74.5918 35.4505 74.58 35.2872C74.5779 35.2745 74.5762 35.2656 74.5745 35.2537C74.5922 35.258 74.6099 35.2626 74.6284 35.2643C74.6982 35.269 74.7239 35.2656 74.779 35.2491C74.8463 35.2398 74.9098 35.219 74.9653 35.1886C75.0768 35.1276 75.1567 35.0286 75.1819 34.9058C75.2071 34.7831 75.1739 34.6608 75.1024 34.5622C75.0667 34.5127 75.0212 34.4695 74.9678 34.4352C74.9005 34.4001 74.7937 34.3658 74.7209 34.362Z" fill="white"/>
<path d="M69.8286 35.7178L69.784 35.7753C69.7781 35.7643 69.7735 35.7559 69.7671 35.744C69.6738 35.6073 69.5144 35.5138 69.4353 35.5785C69.3638 35.6391 69.4105 35.8244 69.5139 35.9518C69.5623 36.0119 69.6128 36.0475 69.6603 36.0657C69.2548 36.1232 68.7371 36.5122 68.4666 36.9439C68.327 37.1606 68.2748 37.3561 68.2769 37.5199C68.2786 37.5881 68.2487 37.6545 68.1941 37.6943C68.0469 37.7993 67.9324 37.9694 67.887 38.1844C67.8231 38.4777 67.9451 38.7892 68.1756 38.9268C68.6155 39.1642 69.1118 39.0127 69.2973 38.6508C69.3449 38.556 69.3655 38.4532 69.3693 38.3486C69.3705 38.2868 69.4063 38.2327 69.4609 38.2056C69.5989 38.1408 69.7242 38.0219 69.8479 37.8302C70.086 37.4501 70.2483 36.8969 70.2075 36.5105C70.2353 36.5516 70.2816 36.5935 70.3484 36.6303C70.4927 36.7086 70.6656 36.742 70.6971 36.6781C70.7257 36.6218 70.6109 36.4805 70.475 36.3907C70.4637 36.3848 70.4557 36.3806 70.4452 36.3755C70.4591 36.3632 70.4738 36.3522 70.4864 36.3382C70.5318 36.2853 70.5449 36.2625 70.565 36.2087C70.5987 36.1491 70.6206 36.0856 70.6302 36.0225C70.6496 35.8968 70.6197 35.7724 70.5381 35.678C70.4561 35.5836 70.3392 35.5358 70.218 35.5333C70.1571 35.5324 70.0952 35.5426 70.0359 35.5646C69.9674 35.5972 69.8757 35.6619 69.8286 35.7178Z" fill="white"/>
<path d="M79.1826 34.609C79.162 34.6124 79.1427 34.6187 79.1233 34.6246C79.125 34.6124 79.1263 34.6026 79.1284 34.5895C79.1359 34.4245 79.08 34.2505 79.0051 34.2463C78.9298 34.2399 78.8571 34.4003 78.8445 34.5645C78.839 34.6407 78.8491 34.7025 78.8689 34.7487C78.5601 34.5078 78.0175 34.3517 77.5767 34.3466C77.3526 34.3394 77.1843 34.3859 77.0548 34.4681C77.0022 34.5028 76.9374 34.4998 76.8853 34.4672C76.7465 34.3775 76.5803 34.3368 76.3957 34.3711C76.1471 34.408 75.92 34.5895 75.8199 34.843C75.6285 35.3065 75.9338 35.8156 76.4369 35.8609C76.561 35.8719 76.6808 35.855 76.7881 35.8152C76.8512 35.7907 76.9223 35.8055 76.9782 35.8406C77.1132 35.9303 77.3042 35.9875 77.5633 35.9947C78.0764 36.001 78.688 35.7657 78.9471 35.4525C78.937 35.5016 78.9399 35.5638 78.9635 35.6375C79.014 35.7941 79.1376 35.9392 79.2222 35.9117C79.3063 35.8817 79.3151 35.6971 79.26 35.5426C79.2541 35.5308 79.2503 35.5228 79.2453 35.5122L79.3113 35.5071C79.6062 35.4588 79.8056 35.2201 79.7563 34.9747C79.7071 34.7292 79.4501 34.565 79.1826 34.609Z" fill="white"/>
<path d="M64.2109 34.4463C64.2025 34.4658 64.1978 34.4852 64.1915 34.5051C64.1823 34.4971 64.1751 34.4907 64.165 34.4818C64.0313 34.3862 63.8555 34.3396 63.8117 34.401C63.7659 34.4615 63.8605 34.6092 63.9909 34.7087C64.0519 34.7548 64.1087 34.7794 64.1583 34.7874C63.7898 34.919 63.3663 35.294 63.1244 35.6648C62.9974 35.851 62.9453 36.0182 62.944 36.1722C62.9444 36.2357 62.907 36.2891 62.8519 36.3153C62.7017 36.3843 62.5781 36.5036 62.507 36.678C62.4035 36.9087 62.4329 37.199 62.5907 37.4208C62.875 37.8335 63.466 37.8495 63.7751 37.4479C63.8517 37.3488 63.9021 37.238 63.927 37.1258C63.9404 37.0589 63.9909 37.0069 64.0506 36.9785C64.1991 36.9125 64.3497 36.7817 64.4956 36.5663C64.7783 36.135 64.9112 35.49 64.7892 35.101C64.825 35.1362 64.8784 35.1675 64.9528 35.187C65.111 35.2293 65.2994 35.2026 65.3221 35.1163C65.3423 35.0287 65.1926 34.9216 65.0332 34.8848C65.0205 34.8835 65.0117 34.8822 64.9999 34.881L65.0315 34.8225C65.1505 34.5462 65.0584 34.2486 64.8266 34.1581C64.5945 34.0671 64.3185 34.1962 64.2109 34.4463Z" fill="white"/>
<path d="M83.2846 33.0626C83.2669 33.0741 83.2518 33.0876 83.2358 33.1007C83.2324 33.0889 83.2299 33.0796 83.2265 33.0665C83.166 32.9137 83.0436 32.7778 82.9725 32.804C82.9014 32.8307 82.9043 33.0127 82.9603 33.168C82.9868 33.2408 83.0213 33.292 83.0583 33.3255C82.673 33.226 82.1191 33.32 81.7153 33.4922C81.5151 33.5925 81.3754 33.6878 81.2909 33.8152C81.256 33.8655 81.1979 33.8943 81.1382 33.8867C80.9792 33.8702 80.8105 33.8947 80.6549 33.9938C80.4455 34.1309 80.313 34.3971 80.318 34.6625C80.3256 35.1725 80.8042 35.5039 81.2905 35.3464C81.4116 35.3126 81.513 35.241 81.5946 35.1577C81.6425 35.1086 81.7115 35.0874 81.7784 35.0993C81.939 35.1259 82.1439 35.1149 82.3782 34.9998C82.853 34.7962 83.3064 34.3175 83.4183 33.9337C83.4297 33.9832 83.4583 34.0391 83.5096 34.0953C83.6194 34.2164 83.788 34.2921 83.8528 34.2312C83.9176 34.1707 83.8503 33.9993 83.7363 33.8803C83.7266 33.8723 83.7195 33.8664 83.7106 33.8588L83.7691 33.8279C84.0223 33.6696 84.1039 33.3665 83.9571 33.1591C83.815 32.9585 83.5159 32.9187 83.2846 33.0626Z" fill="white"/>
<path d="M86.507 30.0301C86.4948 30.0474 86.4859 30.0656 86.4763 30.0838C86.4687 30.0737 86.4628 30.0661 86.4548 30.0555C86.3429 29.9349 86.1801 29.8527 86.1242 29.9044C86.0708 29.9569 86.1318 30.1202 86.2399 30.2438C86.2899 30.3014 86.3408 30.3374 86.3879 30.3551C86.1911 30.3784 85.9703 30.4647 85.7663 30.5871C85.5522 30.7022 85.3486 30.849 85.1984 31.0141C85.0399 31.1762 84.9494 31.3265 84.9179 31.4771C84.9049 31.5381 84.862 31.588 84.8031 31.6045C84.6491 31.6532 84.4998 31.7416 84.3942 31.8966C84.2508 32.1052 84.2369 32.4074 84.3484 32.6491C84.5595 33.1129 85.1236 33.2179 85.5063 32.8895C85.6035 32.8107 85.6704 32.7092 85.7112 32.6004C85.736 32.5369 85.7907 32.4908 85.8563 32.4768C86.014 32.4408 86.1911 32.3494 86.3715 32.1649C86.544 31.9765 86.7021 31.737 86.809 31.4932C86.9074 31.2414 86.9591 30.9904 86.9431 30.7902C86.9709 30.8317 87.0172 30.8732 87.0861 30.9075C87.2325 30.9807 87.4239 30.9951 87.4596 30.9125C87.4971 30.8313 87.3722 30.6963 87.2237 30.6273C87.2115 30.623 87.2031 30.6205 87.1917 30.6167L87.2346 30.5659C87.4075 30.3213 87.3785 30.0119 87.1698 29.8748C86.9612 29.738 86.6643 29.8075 86.507 30.0301Z" fill="white"/>
<path d="M88.308 26.0083C88.303 26.029 88.3017 26.0489 88.2992 26.0693C88.2887 26.0633 88.2803 26.0587 88.2685 26.0523C88.1187 25.9884 87.9358 25.98 87.903 26.0489C87.8697 26.1179 87.998 26.2428 88.1469 26.3118C88.2163 26.3439 88.2773 26.3554 88.3269 26.3528C87.9989 26.5615 87.6641 27.0198 87.5021 27.4291C87.4281 27.6412 87.4058 27.8121 87.431 27.9603C87.442 28.0208 87.421 28.0822 87.373 28.1194C87.2481 28.2206 87.1509 28.3607 87.1084 28.541C87.0559 28.7864 87.1526 29.0696 87.3436 29.2524C87.7095 29.6058 88.2782 29.4954 88.5112 29.0395C88.573 28.9295 88.5902 28.8046 88.5911 28.6891C88.5902 28.6205 88.6243 28.5562 88.6803 28.5173C88.817 28.4233 88.9444 28.2659 89.0319 28.0187C89.2224 27.5366 89.2157 26.8764 89.01 26.523C89.0525 26.5496 89.1118 26.5687 89.1879 26.5716C89.3516 26.5784 89.5257 26.5111 89.5303 26.4222C89.5349 26.3329 89.3671 26.261 89.2027 26.2593C89.1896 26.2606 89.1808 26.2614 89.1686 26.2622L89.1896 26.1992C89.2506 25.905 89.087 25.6321 88.843 25.5931C88.5953 25.5538 88.3635 25.7412 88.308 26.0083Z" fill="white"/>
<path d="M88.3795 21.5732C88.3825 21.5943 88.3888 21.6138 88.3943 21.6337C88.3821 21.632 88.3728 21.6307 88.3593 21.629C88.1966 21.6248 88.0237 21.6857 88.0186 21.7632C88.014 21.8406 88.1793 21.9096 88.3429 21.9177C88.4195 21.9215 88.4801 21.9092 88.5255 21.888C88.2975 22.2063 88.1608 22.7663 88.1747 23.2119C88.1903 23.4388 88.2311 23.6064 88.3177 23.7329C88.3518 23.7846 88.3577 23.8498 88.3286 23.9035C88.2563 24.0478 88.2121 24.2163 88.2538 24.3995C88.3118 24.6484 88.4977 24.8664 88.7526 24.9557C89.2241 25.1279 89.7124 24.7957 89.7343 24.287C89.7427 24.1617 89.7217 24.0419 89.6716 23.9361C89.643 23.8739 89.6485 23.8015 89.6838 23.7439C89.7675 23.6043 89.8285 23.41 89.8117 23.151C89.7957 22.6376 89.5425 22.0387 89.222 21.789C89.2716 21.7975 89.3331 21.7928 89.4054 21.767C89.5593 21.712 89.6965 21.5854 89.6679 21.5021C89.6393 21.4191 89.4567 21.4149 89.3032 21.4737C89.2918 21.4796 89.2834 21.4839 89.2729 21.4894L89.2687 21.4233C89.2275 21.1656 89.0155 20.9734 88.7652 20.9827C88.5175 20.9916 88.3299 21.2642 88.3795 21.5732Z" fill="white"/>
<path d="M88.8594 16.764L88.8413 16.8313C88.8321 16.8232 88.8245 16.8173 88.814 16.8089C88.6756 16.7187 88.4952 16.6878 88.4489 16.7712C88.4022 16.8541 88.5107 17.0107 88.6525 17.0916C88.7189 17.1301 88.7791 17.1449 88.83 17.1441C88.4754 17.3459 88.1326 17.9334 88.0632 18.4464C88.0245 18.7058 88.0544 18.9043 88.1263 19.0524C88.1553 19.113 88.1528 19.1849 88.12 19.2433C88.0338 19.3986 87.9904 19.5933 88.0346 19.7982C88.0884 20.0779 88.308 20.2993 88.5684 20.3585C89.0601 20.4635 89.4891 20.1084 89.5131 19.6729C89.5206 19.562 89.5004 19.4558 89.4584 19.358C89.4331 19.3004 89.4462 19.2357 89.4861 19.1879C89.582 19.0706 89.6506 18.9102 89.6834 18.688C89.744 18.2495 89.6809 17.7065 89.5 17.3595C89.5408 17.3874 89.5993 17.409 89.675 17.4192C89.8378 17.4399 90.0119 17.4098 90.019 17.3404C90.0266 17.2706 89.8685 17.1779 89.7086 17.1479C89.696 17.147 89.6872 17.1462 89.6754 17.1453C89.6842 17.1275 89.6935 17.1106 89.7002 17.092C89.7953 16.8554 89.7074 16.5769 89.4945 16.4563C89.2729 16.3314 88.978 16.4686 88.8594 16.764Z" fill="white"/>
<path d="M78.4084 37.2681L78.3428 37.2723C78.347 37.2605 78.3503 37.2516 78.355 37.2389C78.3928 37.0781 78.3663 36.8965 78.2885 36.8787C78.2111 36.8639 78.106 37.0104 78.0614 37.1661C78.0408 37.2398 78.0399 37.3024 78.0517 37.3519C77.9247 37.2093 77.7396 37.0785 77.5352 36.9761C77.4334 36.9194 77.3283 36.8614 77.221 36.8165C77.1646 36.7949 77.1108 36.7742 77.0591 36.7547L76.9783 36.7289C76.9144 36.7145 76.8521 36.7006 76.7907 36.6866C76.7293 36.6845 76.6708 36.6824 76.6132 36.6802C76.3655 36.6743 76.1762 36.7162 76.0345 36.7937C75.9764 36.8258 75.9049 36.8275 75.8473 36.7945C75.6929 36.7082 75.5095 36.6671 75.3106 36.698C75.0414 36.7395 74.8071 36.9215 74.7015 37.1725C74.4938 37.6376 74.8462 38.1463 75.3846 38.1916C75.5167 38.203 75.6441 38.1853 75.7573 38.1429C75.8242 38.1188 75.8999 38.1281 75.9588 38.1666C76.1026 38.2606 76.3007 38.3216 76.5749 38.3283C76.6267 38.3296 76.6288 38.3287 76.6334 38.3262L76.6347 38.3237C76.6452 38.3249 76.588 38.3127 76.6267 38.3186L76.7293 38.3279C76.7953 38.3309 76.8647 38.3334 76.9371 38.3364C77.0759 38.3368 77.2134 38.3317 77.3451 38.3105C77.6092 38.2572 77.8427 38.1709 78 38.0579C77.9798 38.104 77.9705 38.1658 77.9819 38.2428C78.0054 38.4096 78.1114 38.573 78.2082 38.5564C78.3053 38.5425 78.3487 38.3626 78.3184 38.2001C78.3146 38.1878 78.3121 38.1789 78.3083 38.1675L78.3798 38.1747C78.7062 38.1865 78.9619 37.98 78.951 37.7244C78.9405 37.4793 78.6973 37.2787 78.4084 37.2681Z" fill="white"/>
<path d="M82.9998 36.213L82.943 36.2481C82.9414 36.2358 82.9401 36.2261 82.938 36.2125C82.8985 36.0521 82.7908 35.904 82.7117 35.926C82.6305 35.9438 82.6032 36.1237 82.6377 36.2845C82.6541 36.3594 82.6827 36.4153 82.7168 36.4525C82.3281 36.3268 81.7212 36.3632 81.2673 36.4986C81.0352 36.5638 80.8774 36.6654 80.7676 36.7818C80.7226 36.8267 80.6566 36.8465 80.5935 36.8305C80.4257 36.7852 80.2452 36.8046 80.0652 36.8846C79.8213 36.9862 79.6379 37.23 79.6013 37.5017C79.5239 38.0041 79.9849 38.4007 80.5304 38.3033C80.6638 38.2754 80.7845 38.2212 80.885 38.1497C80.9443 38.1078 81.0217 38.0964 81.0915 38.1175C81.2589 38.1628 81.4726 38.1527 81.7435 38.076C82.2768 37.9165 82.8299 37.4856 83.0028 37.0996C83.0066 37.15 83.028 37.2084 83.0734 37.2711C83.171 37.4044 83.3388 37.5004 83.4175 37.448C83.494 37.3917 83.449 37.2118 83.3485 37.0819C83.3393 37.0726 83.3329 37.0662 83.3245 37.0577L83.3901 37.0307C83.6762 36.8863 83.8116 36.5901 83.693 36.37C83.574 36.1499 83.2635 36.0792 82.9998 36.213Z" fill="white"/>
<path d="M90.366 33.3007L90.3391 33.3625C90.3307 33.3532 90.3244 33.346 90.3151 33.3358C90.1915 33.2262 90.0194 33.1665 89.9668 33.23C89.9101 33.291 89.9891 33.4543 90.1086 33.5669C90.165 33.6194 90.2196 33.6486 90.2688 33.66C89.8781 33.779 89.3999 34.1565 89.1029 34.5281C88.949 34.7143 88.8766 34.8883 88.8527 35.047C88.8409 35.1096 88.798 35.1642 88.737 35.1866C88.5729 35.2459 88.4358 35.3652 88.3332 35.5341C88.1898 35.7572 88.1776 36.0627 88.3008 36.3069C88.5216 36.7645 89.1248 36.8263 89.5181 36.4335C89.6123 36.3345 89.6808 36.221 89.7229 36.1046C89.7477 36.0361 89.8049 35.9823 89.8743 35.9599C90.0379 35.9011 90.2079 35.7703 90.387 35.5519C90.7353 35.1155 90.946 34.4447 90.8699 34.0282C90.9019 34.0672 90.9523 34.1032 91.0251 34.1285C91.1807 34.1823 91.3734 34.1649 91.4083 34.0769C91.439 33.9868 91.3006 33.8644 91.1441 33.8154C91.1315 33.8132 91.1227 33.8115 91.1109 33.809L91.1496 33.7493C91.3031 33.467 91.2468 33.1458 91.0247 33.0328C90.8022 32.9198 90.5073 33.0396 90.366 33.3007Z" fill="white"/>
<path d="M86.9255 33.4157L86.8813 33.4669C86.8758 33.4555 86.8716 33.447 86.8657 33.4347C86.7791 33.2942 86.6306 33.1871 86.56 33.2337C86.4901 33.2815 86.5204 33.4639 86.6029 33.604C86.6424 33.6701 86.687 33.7136 86.7311 33.7382C86.3181 33.7403 85.7482 33.9892 85.3616 34.2897C85.1686 34.4471 85.0449 34.5885 84.9856 34.7413C84.9608 34.8026 84.907 34.8496 84.8426 34.861C84.6727 34.8962 84.4994 34.9715 84.3631 35.1226C84.1789 35.3287 84.1082 35.6271 84.1848 35.8836C84.329 36.3733 84.9061 36.5426 85.3524 36.2412C85.4647 36.1693 85.553 36.0753 85.6136 35.9678C85.6498 35.9056 85.7145 35.8645 85.7848 35.8565C85.953 35.8358 86.1549 35.7634 86.3677 35.5903C86.7968 35.2568 87.1627 34.6757 87.2073 34.2596C87.227 34.3058 87.2657 34.3544 87.3288 34.3993C87.4647 34.4958 87.6506 34.5335 87.704 34.4569C87.7587 34.3811 87.6603 34.2245 87.5244 34.1322C87.5131 34.1263 87.5051 34.1221 87.4946 34.1166L87.5484 34.0717C87.7755 33.8499 87.8146 33.5278 87.6367 33.3531C87.4588 33.1778 87.14 33.2058 86.9255 33.4157Z" fill="white"/>
<path d="M89.8036 29.5815L89.7813 29.6442C89.7721 29.6357 89.7654 29.6289 89.7553 29.6196C89.6236 29.5214 89.447 29.4749 89.3994 29.5405C89.3536 29.6069 89.4461 29.7631 89.5723 29.8655C89.632 29.9129 89.6888 29.9383 89.7384 29.9464C89.3536 30.0898 88.9119 30.4949 88.6318 30.8847C88.4939 31.0857 88.4308 31.2643 88.411 31.4218C88.4043 31.4869 88.366 31.5462 88.3071 31.575C88.1523 31.6533 88.0177 31.7824 87.9239 31.9626C87.8011 32.2094 87.8209 32.5201 87.9673 32.7439C88.2457 33.1714 88.8409 33.1659 89.1883 32.7541C89.2753 32.6529 89.3288 32.5319 89.3607 32.4138C89.3784 32.3436 89.4297 32.2856 89.4957 32.2581C89.6585 32.1937 89.8196 32.0541 89.979 31.823C90.3021 31.3718 90.4669 30.6769 90.3651 30.2684C90.3996 30.3048 90.4526 30.3374 90.5275 30.3569C90.6882 30.3996 90.8783 30.3662 90.9018 30.2714C90.9275 30.1779 90.7803 30.067 90.6196 30.031C90.607 30.0297 90.5977 30.0289 90.586 30.0276L90.6209 29.9646C90.7622 29.6708 90.6667 29.3504 90.4341 29.259C90.2028 29.1684 89.9311 29.3174 89.8036 29.5815Z" fill="white"/>
<path d="M90.878 24.8906L90.8789 24.9592C90.8675 24.9545 90.8587 24.9507 90.8465 24.9457C90.6887 24.8991 90.5075 24.9203 90.4831 25.0028C90.4591 25.0853 90.6029 25.2017 90.7598 25.25C90.833 25.2724 90.8948 25.2745 90.9441 25.2627C90.6425 25.5445 90.3914 26.1235 90.3056 26.6039C90.2686 26.8506 90.2808 27.039 90.3346 27.1901C90.3569 27.2515 90.3485 27.3217 90.3085 27.3738C90.2059 27.5134 90.1281 27.6827 90.1289 27.8846C90.1331 28.1597 90.261 28.4225 90.4944 28.5686C90.9159 28.8437 91.4761 28.588 91.6057 28.0543C91.6414 27.9236 91.6452 27.7928 91.6187 27.6717C91.6044 27.6006 91.625 27.5257 91.6721 27.472C91.7874 27.3416 91.8799 27.1486 91.9211 26.8756C92.017 26.3356 91.8925 25.6643 91.6448 25.327C91.6906 25.3482 91.752 25.3579 91.8282 25.3486C91.9914 25.3283 92.1546 25.2318 92.1466 25.1399C92.1394 25.0481 91.9624 24.9981 91.7996 25.0206C91.787 25.024 91.7781 25.0261 91.7663 25.029C91.771 25.0062 91.7752 24.9838 91.7769 24.9596C91.7975 24.6456 91.6124 24.3798 91.3638 24.3658C91.1152 24.3519 90.8978 24.5868 90.878 24.8906Z" fill="white"/>
<path d="M90.4844 20.026C90.4877 20.0501 90.494 20.0721 90.4999 20.095C90.4877 20.0929 90.4785 20.0907 90.465 20.0886C90.301 20.0776 90.1285 20.1398 90.126 20.2313C90.1239 20.3222 90.2921 20.4069 90.4562 20.4158C90.5327 20.42 90.5933 20.4065 90.6379 20.3828C90.4133 20.7353 90.33 21.3926 90.4107 21.8954C90.4515 22.1511 90.5298 22.3305 90.6337 22.4566C90.6766 22.5087 90.6913 22.5781 90.6707 22.6412C90.616 22.8088 90.6147 22.9992 90.6762 23.1706C90.7207 23.3027 90.7897 23.3581 90.8827 23.469C90.9735 23.5706 91.0896 23.6476 91.2196 23.6853C91.4619 23.756 91.6957 23.6967 91.8724 23.5532C91.962 23.4898 92.0322 23.3784 92.078 23.2358C92.1193 23.1097 92.1386 22.9645 92.1231 22.8308C92.1092 22.6924 92.0663 22.5692 92.0028 22.4659C91.9657 22.4046 91.9607 22.3271 91.9864 22.2624C92.0494 22.1037 92.0701 21.8975 92.0284 21.6339C91.9447 21.1145 91.6528 20.5334 91.3327 20.2723C91.3824 20.2808 91.4442 20.2748 91.5157 20.2473C91.6692 20.1885 91.8055 20.0615 91.7765 19.9794C91.7479 19.8973 91.5645 19.8897 91.411 19.9468C91.3996 19.9528 91.3912 19.957 91.3807 19.9621L91.3765 19.8944C91.3323 19.5951 91.106 19.3797 90.8579 19.4042C90.6105 19.4292 90.4381 19.7128 90.4844 20.026Z" fill="white"/>
<path d="M69.6678 29.6266C69.6624 29.6453 69.6598 29.6643 69.6569 29.6833C69.6464 29.6762 69.6388 29.6707 69.6279 29.663C69.4828 29.5818 69.3107 29.5492 69.2708 29.6021C69.2287 29.6541 69.3372 29.7875 69.4714 29.881C69.5341 29.9242 69.5917 29.9474 69.6413 29.9542C69.2981 30.0964 68.8577 30.402 68.5965 30.7414C68.4527 30.9107 68.3753 31.0669 68.3551 31.2197C68.3463 31.2811 68.3084 31.3344 68.2508 31.3547C68.0889 31.4038 67.9463 31.5067 67.8483 31.6709C67.7208 31.8973 67.7002 32.1893 67.8272 32.4293C68.0582 32.8758 68.6436 32.9677 69.0113 32.5994C69.1034 32.5106 69.1707 32.4065 69.2123 32.2977C69.2354 32.2312 69.2884 32.1779 69.3545 32.1572C69.5139 32.1051 69.6893 31.9925 69.8659 31.783C70.2062 31.3517 70.4275 30.6619 70.2828 30.2446C70.3194 30.2797 70.374 30.3093 70.4493 30.325C70.61 30.3588 70.8018 30.3076 70.8275 30.209C70.851 30.1083 70.6878 30.0075 70.5271 29.9902H70.4935L70.5204 29.9216C70.6315 29.6021 70.4762 29.299 70.2264 29.261C69.9837 29.2241 69.7511 29.3909 69.6678 29.6266Z" fill="white"/>
<path d="M69.3548 25.12L69.3644 25.1869C69.3522 25.1835 69.343 25.1814 69.3299 25.178C69.168 25.1543 68.9905 25.1996 68.9792 25.288C68.967 25.3765 69.1306 25.4696 69.2934 25.4903C69.3691 25.5001 69.4305 25.4912 69.4767 25.4717C69.2155 25.7709 69.1053 26.4752 69.2139 26.9729C69.2656 27.2281 69.3506 27.3894 69.4612 27.5041C69.5066 27.5511 69.5251 27.6154 69.5062 27.6746C69.4587 27.835 69.4637 28.0082 69.531 28.1698C69.6303 28.392 69.8389 28.5617 70.1098 28.6261C70.3537 28.6815 70.5884 28.6227 70.7487 28.4597C70.9169 28.296 71.0023 28.0374 70.9632 27.7707C70.9442 27.6382 70.8929 27.5252 70.8265 27.427C70.7874 27.3686 70.7785 27.2954 70.8008 27.2336C70.8563 27.0808 70.8669 26.8802 70.8197 26.6474C70.7213 26.1848 70.4727 25.7062 70.1783 25.4171C70.2271 25.4285 70.2894 25.4273 70.363 25.4065C70.5207 25.3621 70.6641 25.2537 70.6448 25.1763C70.6242 25.0984 70.4429 25.0768 70.2843 25.1183C70.2725 25.1229 70.2641 25.1263 70.2528 25.1306L70.2549 25.0667C70.2355 24.7827 70.0315 24.5575 69.7821 24.5626C69.5335 24.5677 69.3346 24.8186 69.3548 25.12Z" fill="white"/>
<path d="M70.0467 20.2658L70.0252 20.3323C70.016 20.3238 70.0088 20.3179 69.9987 20.3086C69.8641 20.2138 69.6849 20.1761 69.6345 20.2561C69.5844 20.3357 69.6854 20.4956 69.8229 20.5841C69.8877 20.6256 69.9466 20.6434 69.9974 20.645C69.6382 20.8325 69.2446 21.409 69.1562 21.941C69.0978 22.2076 69.1323 22.415 69.1916 22.5704C69.2172 22.6338 69.2122 22.7079 69.1794 22.7672C69.0894 22.925 69.038 23.1265 69.0784 23.3377C69.1306 23.6263 69.3367 23.8557 69.6017 23.9217C70.0891 24.0398 70.5253 23.6818 70.5598 23.2412C70.5707 23.1294 70.5531 23.0215 70.5135 22.9212C70.4891 22.862 70.5034 22.7972 70.5463 22.7502C70.6532 22.6372 70.715 22.4747 70.7646 22.255C70.8361 21.8157 70.8214 21.2609 70.6561 20.8939C70.6952 20.9244 70.7529 20.9494 70.8273 20.9625C70.9897 20.9904 71.1676 20.9633 71.1806 20.8897C71.1932 20.8156 71.0397 20.7162 70.8803 20.6814C70.8677 20.6802 70.8584 20.6793 70.8467 20.6781C70.8568 20.6599 70.8673 20.6429 70.8753 20.6235C70.9758 20.3699 70.9106 20.0843 70.686 19.9645C70.4711 19.8489 70.1636 19.9746 70.0467 20.2658Z" fill="white"/>
<path d="M73.1966 19.6439L73.1621 19.7044C73.155 19.6947 73.1491 19.6866 73.1411 19.6761C73.0288 19.555 72.861 19.4814 72.7953 19.5491C72.7302 19.6168 72.7962 19.7941 72.9127 19.9088C72.9678 19.9634 73.0221 19.9926 73.0708 20.0049C72.6809 20.1141 72.1783 20.597 71.9836 21.0994C71.8717 21.3478 71.8633 21.5582 71.8894 21.7224C71.9016 21.7901 71.8818 21.8616 71.8372 21.9129C71.7169 22.0487 71.6256 22.2349 71.6218 22.4504C71.6143 22.7437 71.7691 23.0107 72.0151 23.1297C72.4677 23.3464 72.9678 23.0856 73.0919 22.662C73.1251 22.5549 73.1302 22.4457 73.1116 22.3391C73.0999 22.276 73.1272 22.2159 73.1785 22.1787C73.306 22.0902 73.3998 21.9438 73.4931 21.7389C73.653 21.3241 73.7518 20.7782 73.6647 20.3841C73.6971 20.4226 73.748 20.4586 73.8187 20.487C73.9718 20.5479 74.1514 20.5581 74.1792 20.4887C74.2069 20.4193 74.0765 20.2902 73.9276 20.2229C73.9154 20.2191 73.907 20.2161 73.8957 20.2127C73.9091 20.1971 73.923 20.1822 73.9348 20.1649C74.0849 19.938 74.0791 19.6447 73.8839 19.4809C73.6971 19.3235 73.3707 19.3832 73.1966 19.6439Z" fill="white"/>
<path d="M73.1874 16.492C73.1689 16.506 73.1533 16.5225 73.1369 16.5381C73.1331 16.5263 73.1298 16.517 73.1256 16.5038C73.0579 16.3527 72.9237 16.2283 72.8433 16.2698C72.7626 16.3117 72.7702 16.5009 72.8425 16.649C72.8762 16.7184 72.9169 16.765 72.959 16.7929C72.5472 16.751 71.9432 17.0282 71.5676 17.3948C71.38 17.5911 71.2795 17.7761 71.2429 17.9399C71.2265 18.0055 71.1861 18.0702 71.1235 18.1003C70.9603 18.1854 70.8021 18.3255 70.7193 18.5316C70.6082 18.8143 70.6528 19.1178 70.8492 19.3146C71.2076 19.6654 71.7603 19.596 72.0156 19.2604C72.0846 19.1757 72.1275 19.0784 72.1481 18.9743C72.1615 18.9138 72.2028 18.8638 72.2658 18.8511C72.416 18.8168 72.5649 18.7305 72.7188 18.5671C73.0444 18.251 73.3287 17.741 73.391 17.352C73.4082 17.399 73.4436 17.4502 73.5012 17.501C73.6244 17.6093 73.7918 17.6754 73.8419 17.6157C73.8923 17.5564 73.8116 17.3905 73.6921 17.2792C73.6816 17.2716 73.6745 17.2665 73.6652 17.2593L73.7178 17.2259C73.9462 17.068 74.0219 16.7688 73.8873 16.5576C73.7531 16.3468 73.4393 16.3172 73.1874 16.492Z" fill="white"/>
<path d="M77.7158 14.6408L77.6485 14.6568C77.6511 14.6441 77.6527 14.6348 77.6553 14.6213C77.6692 14.4562 77.6115 14.2819 77.519 14.2793C77.4265 14.2772 77.3407 14.4469 77.3335 14.6116C77.3297 14.6882 77.344 14.7491 77.3676 14.794C77.0252 14.5625 76.3425 14.5172 75.8366 14.6945C75.5787 14.7779 75.4101 14.9002 75.3083 15.0365C75.2662 15.0911 75.1998 15.1245 75.1303 15.122C74.9449 15.1152 74.7522 15.185 74.5836 15.3188C74.3581 15.5105 74.2668 15.8127 74.3425 16.07C74.4931 16.5555 75.0151 16.7468 75.4067 16.5648C75.5076 16.5191 75.5884 16.4433 75.657 16.365C75.6965 16.318 75.7592 16.2977 75.8201 16.3109C75.9682 16.3409 76.1407 16.3269 76.3547 16.2584C76.7703 16.1124 77.2452 15.8076 77.482 15.4927C77.4752 15.5423 77.4824 15.604 77.5085 15.6764C77.5653 15.8313 77.6784 15.9706 77.7491 15.9431C77.8197 15.916 77.8281 15.7314 77.7777 15.5757C77.7726 15.5643 77.7688 15.5558 77.7638 15.5452L77.8252 15.5414C78.0969 15.5173 78.3076 15.2913 78.2963 15.0441C78.2849 14.7906 78.025 14.612 77.7158 14.6408Z" fill="white"/>
<path d="M73.1076 36.6444L73.0499 36.6829C73.0478 36.6706 73.0466 36.6613 73.044 36.6478C72.9995 36.4878 72.8851 36.3447 72.7976 36.3752C72.7097 36.4057 72.6886 36.5953 72.7391 36.7519C72.7627 36.8251 72.7971 36.8768 72.8346 36.9106C72.4333 36.8145 71.778 37.013 71.3658 37.3576C71.1538 37.5264 71.0386 37.7004 70.9902 37.8637C70.9696 37.9298 70.9195 37.9848 70.8535 38.0068C70.6773 38.0661 70.5212 38.1989 70.4098 38.3839C70.2655 38.6429 70.2853 38.9578 70.4455 39.1724C70.7559 39.574 71.3111 39.569 71.6148 39.2604C71.6935 39.1821 71.7427 39.0827 71.7797 38.9853C71.8003 38.9273 71.852 38.8863 71.9139 38.877C72.0628 38.8528 72.2192 38.7792 72.3959 38.6391C72.7345 38.356 73.0731 37.9035 73.1854 37.5247C73.1959 37.5734 73.2241 37.6288 73.2737 37.6877C73.381 37.8125 73.5353 37.9031 73.5921 37.8527C73.6485 37.802 73.5921 37.6263 73.4907 37.4985C73.4819 37.4892 73.4756 37.4828 73.4676 37.4744L73.5235 37.4494C73.7696 37.3309 73.8882 37.0448 73.7919 36.8175C73.6926 36.5843 73.3868 36.5085 73.1076 36.6444Z" fill="white"/>
<path d="M82.4361 14.9619L82.3764 14.9708C82.3793 14.959 82.3818 14.9501 82.3852 14.9374C82.41 14.7744 82.3747 14.5958 82.304 14.5776C82.2342 14.5603 82.1463 14.7143 82.1122 14.8756C82.0967 14.9509 82.0979 15.0131 82.1114 15.0614C81.8367 14.7825 81.3539 14.537 80.887 14.446C80.6502 14.402 80.4538 14.4189 80.2994 14.4786C80.2384 14.5023 80.1656 14.4964 80.1063 14.4591C79.9511 14.3559 79.7492 14.3046 79.5318 14.3385C79.2365 14.3736 79.0006 14.5967 78.9345 14.8557C78.8193 15.3496 79.1654 15.7809 79.5856 15.83C79.6941 15.838 79.7993 15.8313 79.8986 15.7944C79.9562 15.7729 80.0214 15.7889 80.0693 15.8338C80.1825 15.9405 80.3473 16.0221 80.5972 16.0687C81.088 16.166 81.7833 16.0488 82.095 15.769C82.0773 15.8169 82.0714 15.8791 82.0861 15.9548C82.1164 16.1165 82.23 16.2727 82.3251 16.257C82.4201 16.2426 82.4508 16.059 82.4109 15.899C82.4062 15.8867 82.4033 15.8782 82.3991 15.8668C82.4222 15.8694 82.4454 15.8698 82.4689 15.8685C82.7886 15.8524 83.0157 15.6218 82.9783 15.3687C82.9417 15.1262 82.6994 14.9484 82.4361 14.9619Z" fill="white"/>
<path d="M86.4828 13.2829L86.4344 13.3244C86.4306 13.3125 86.4277 13.3036 86.4231 13.291C86.3545 13.142 86.2224 13.0142 86.1501 13.0459C86.0773 13.0776 86.0883 13.2592 86.1539 13.4107C86.1846 13.481 86.2229 13.5301 86.2624 13.561C85.8725 13.5051 85.3038 13.6422 84.9122 13.8467C84.7124 13.9529 84.5879 14.0799 84.5076 14.2013C84.4756 14.2534 84.4189 14.2843 84.3583 14.2792C84.1976 14.2699 84.0357 14.308 83.8859 14.4062C83.6866 14.5539 83.5562 14.8057 83.5591 15.0757C83.5532 15.584 84.0567 15.9248 84.5703 15.736C84.6973 15.6937 84.7974 15.6116 84.8803 15.5248C84.9282 15.4723 84.9993 15.4469 85.0691 15.455C85.2428 15.4782 85.4414 15.4296 85.6794 15.303C86.1526 15.0554 86.5821 14.5475 86.6632 14.1429C86.6775 14.1916 86.7095 14.2449 86.765 14.2978C86.8832 14.4117 87.0586 14.4764 87.1209 14.4121C87.1831 14.3482 87.1057 14.1814 86.9837 14.0701C86.9732 14.0625 86.9661 14.057 86.9564 14.0502L87.0144 14.016C87.2643 13.8441 87.3194 13.5212 87.1684 13.3278C87.0119 13.1267 86.7154 13.1246 86.4828 13.2829Z" fill="white"/>
<path d="M67.1198 27.5096L67.1392 27.5731C67.127 27.5718 67.1173 27.5714 67.1043 27.5701C66.9407 27.5739 66.7724 27.6476 66.7749 27.7356C66.7712 27.7661 66.7989 27.7432 66.8591 27.7496C66.918 27.7496 66.9953 27.7817 67.0765 27.7847C67.1522 27.7919 67.2136 27.7864 67.2607 27.7707C67.0029 28.0179 66.7648 28.5228 66.6912 28.9626C66.6542 29.1852 66.6711 29.3583 66.7274 29.4984C66.751 29.5555 66.743 29.6198 66.7018 29.6651C66.5949 29.7874 66.5276 29.9394 66.5259 30.1188C66.5226 30.358 66.6546 30.5996 66.8725 30.763C67.2666 31.0842 67.8483 30.8663 67.9918 30.3478C68.0292 30.2217 68.0288 30.0973 68.0073 29.9817C67.9951 29.9136 68.0157 29.8433 68.0616 29.7934C68.176 29.6723 68.2643 29.4899 68.3076 29.2309C68.393 28.7209 68.2626 28.0594 67.9632 27.7288C68.0115 27.7432 68.0738 27.7453 68.1478 27.7225C68.2256 27.6941 68.3064 27.6598 68.3535 27.5828C68.4014 27.5117 68.4178 27.3991 68.3993 27.35C68.3678 27.2785 68.1861 27.2878 68.0359 27.3538C68.0246 27.3606 68.017 27.3648 68.0065 27.3708L67.9989 27.309C67.9413 27.0364 67.6961 26.8536 67.4513 26.8997C67.2069 26.9458 67.058 27.2188 67.1198 27.5096Z" fill="white"/>
<path d="M66.8046 22.7429L66.8033 22.8098C66.792 22.8051 66.7832 22.8009 66.771 22.7958C66.6149 22.7459 66.4324 22.7611 66.4076 22.8466C66.3823 22.9321 66.5249 23.051 66.6818 23.0963C66.755 23.1179 66.8168 23.1188 66.866 23.1069C66.5707 23.3786 66.3487 23.9965 66.3668 24.5091C66.3655 24.7689 66.4404 24.9569 66.5308 25.0915C66.5691 25.1461 66.58 25.2172 66.5556 25.2798C66.4862 25.4482 66.4866 25.6442 66.5594 25.8393C66.657 26.1055 66.8992 26.2901 67.1718 26.3091C67.6702 26.3417 68.0437 25.9202 67.9987 25.48C67.9836 25.3683 67.9482 25.2654 67.8944 25.1744C67.8624 25.1211 67.8629 25.0546 67.8944 25C67.9743 24.8671 68.0021 24.6945 68.0042 24.4655C67.9882 24.0152 67.8242 23.4662 67.5676 23.1619C67.6139 23.1805 67.6748 23.1886 67.7514 23.1801C67.9146 23.1619 68.0774 23.0828 68.069 23.0066C68.061 22.93 67.8852 22.88 67.7224 22.8936C67.7098 22.8961 67.7009 22.8978 67.6892 22.8999L67.7009 22.8394C67.7236 22.5652 67.5621 22.3138 67.3178 22.2744C67.0704 22.2346 66.8298 22.4433 66.8046 22.7429Z" fill="white"/>
<path d="M68.2897 18.1735L68.2611 18.2344C68.2531 18.2251 68.2468 18.2179 68.2375 18.2078C68.116 18.0969 67.9439 18.0347 67.8859 18.1032C67.8283 18.1718 67.909 18.3411 68.0335 18.4473C68.0916 18.4973 68.1475 18.5239 68.1971 18.5337C67.9969 18.5929 67.795 18.7461 67.6108 18.9446C67.4194 19.1393 67.263 19.3856 67.1742 19.6299C67.0775 19.8753 67.0548 20.0751 67.0981 20.2393C67.1137 20.3053 67.0981 20.3764 67.0527 20.4268C66.9357 20.5618 66.8394 20.7425 66.8466 20.9563C66.8482 21.2462 67.0085 21.5073 67.252 21.6195C67.7088 21.8235 68.2119 21.5653 68.3166 21.1467C68.3494 21.0418 68.3536 20.9347 68.3347 20.831C68.3233 20.7696 68.3469 20.7091 68.3953 20.671C68.5084 20.5762 68.6173 20.4387 68.6998 20.2296C68.7751 20.0209 68.826 19.7776 68.8546 19.541C68.8764 19.3014 68.8596 19.0602 68.8138 18.8748C68.8482 18.9108 68.9008 18.9438 68.9736 18.9679C69.1296 19.0187 69.3088 19.0157 69.3315 18.9434C69.3547 18.8706 69.215 18.7516 69.0619 18.6958C69.0493 18.6928 69.0409 18.6903 69.0295 18.6877C69.0413 18.6712 69.0539 18.6556 69.0644 18.6374C69.1923 18.3965 69.1629 18.1079 68.9534 17.9653C68.7507 17.8269 68.4331 17.9069 68.2897 18.1735Z" fill="white"/>
<path d="M91.0919 14.4365L91.0848 14.5038C91.0738 14.4974 91.0654 14.4928 91.0536 14.486C90.9031 14.4204 90.7201 14.4179 90.6877 14.5017C90.6549 14.5855 90.7857 14.7192 90.9375 14.7793C91.0086 14.8077 91.0705 14.8144 91.1205 14.8072C90.9502 14.9287 90.8084 15.1395 90.6978 15.3875C90.5796 15.6338 90.5106 15.9178 90.5056 16.1781C90.493 16.4413 90.5359 16.6381 90.6297 16.7791C90.6658 16.8366 90.6742 16.909 90.6473 16.9712C90.58 17.1376 90.5468 17.3395 90.6229 17.5396C90.7176 17.8135 90.9535 18.0082 91.2198 18.0353C91.7178 18.0788 92.1102 17.6708 92.0749 17.2404C92.0719 17.1304 92.0416 17.028 91.9899 16.9361C91.9596 16.8819 91.9626 16.8163 91.9962 16.7647C92.0723 16.6381 92.1312 16.4727 92.1422 16.2479C92.146 16.0261 92.1157 15.7794 92.0669 15.5462C92.0101 15.3121 91.9167 15.0895 91.8133 14.9295C91.8578 14.952 91.918 14.9659 91.9945 14.9651C92.1586 14.9626 92.3272 14.9008 92.3256 14.825C92.3239 14.7488 92.1535 14.6815 91.9907 14.6786C91.9777 14.6798 91.9689 14.6807 91.9571 14.682C91.9634 14.6625 91.9706 14.6434 91.9743 14.6227C92.0177 14.3531 91.897 14.0898 91.653 14.023C91.4166 13.9582 91.1415 14.1372 91.0919 14.4365Z" fill="white"/>
<path d="M71.5286 14.6527L71.4785 14.6967C71.4747 14.6848 71.4714 14.676 71.4672 14.6633C71.3982 14.5134 71.264 14.3882 71.1845 14.4271C71.105 14.4656 71.1139 14.651 71.1862 14.7983C71.2199 14.8668 71.2611 14.9138 71.3027 14.9422C70.9069 14.9087 70.3017 15.1546 69.9378 15.5148C69.746 15.6871 69.6548 15.8733 69.6186 16.0337C69.6043 16.1002 69.5597 16.1569 69.497 16.1823C69.3305 16.2508 69.1719 16.3744 69.0861 16.5716C68.9633 16.8345 68.9969 17.1392 69.1694 17.3453C69.4945 17.725 70.0628 17.7123 70.3307 17.3758C70.406 17.2954 70.456 17.2006 70.4838 17.099C70.5002 17.0393 70.5481 16.9949 70.6087 16.9813C70.7576 16.95 70.8994 16.8577 71.071 16.7054C71.3894 16.3892 71.6863 15.9 71.7351 15.5013C71.7524 15.5478 71.7877 15.5986 71.8453 15.6498C71.969 15.759 72.1368 15.8267 72.1881 15.7692C72.239 15.7116 72.1574 15.5474 72.0371 15.4357C72.027 15.4281 72.0199 15.4226 72.0102 15.4154L72.0632 15.3836C72.2823 15.2177 72.353 14.9214 72.2175 14.7157C72.0775 14.5037 71.7671 14.4728 71.5286 14.6527Z" fill="white"/>
<path d="M75.8172 12.5686L75.755 12.5927C75.7554 12.58 75.7558 12.5703 75.7567 12.5568C75.747 12.3917 75.6675 12.2262 75.5792 12.2347C75.4913 12.2436 75.4328 12.4218 75.4467 12.5855C75.4534 12.6622 75.4749 12.721 75.503 12.7625C75.1426 12.5733 74.4881 12.5915 74.0191 12.7993C73.7785 12.8979 73.6242 13.024 73.5363 13.1667C73.5001 13.2234 73.4387 13.2606 73.3714 13.2615C73.1922 13.2648 73.0025 13.3262 72.8524 13.4748C72.6442 13.6716 72.5647 13.9661 72.6488 14.2222C72.8103 14.6962 73.3449 14.8956 73.7226 14.6793C73.8214 14.6298 73.903 14.5595 73.9653 14.4736C74.0023 14.4237 74.0629 14.3987 74.1243 14.4076C74.2723 14.4258 74.446 14.4034 74.6564 14.3179C75.0622 14.1371 75.5102 13.7825 75.7028 13.4413C75.7024 13.4917 75.7171 13.5522 75.752 13.6204C75.8273 13.7668 75.9581 13.89 76.0254 13.8536C76.0932 13.8167 76.0768 13.6335 76.0057 13.4858C75.9989 13.4748 75.9943 13.4672 75.988 13.4574L76.0486 13.4456C76.3123 13.3745 76.4885 13.1345 76.4364 12.8869C76.3859 12.6444 76.1058 12.4907 75.8172 12.5686Z" fill="white"/>
<path d="M80.5821 12.2941L80.5153 12.2903C80.5207 12.2793 80.5249 12.2709 80.5308 12.2586C80.5876 12.1033 80.5805 11.9196 80.4955 11.8912C80.411 11.8633 80.2856 12.0021 80.2343 12.1579C80.2099 12.2311 80.2065 12.2933 80.2162 12.3432C79.9584 12.0279 79.3447 11.7897 78.8282 11.793C78.5674 11.7905 78.376 11.8599 78.2398 11.9488C78.1842 11.986 78.1127 11.9953 78.0501 11.9695C77.8822 11.9039 77.6841 11.9035 77.4873 11.9733C77.2177 12.0643 77.0368 12.3284 77.0196 12.5951C76.9952 13.1038 77.4124 13.4593 77.8423 13.4242C77.9521 13.414 78.0526 13.3713 78.1422 13.318C78.1948 13.2866 78.2604 13.2888 78.3134 13.3218C78.4429 13.4047 78.6112 13.4386 78.8358 13.4411C79.2766 13.439 79.8208 13.2849 80.1325 13.0458C80.1123 13.0915 80.1018 13.1529 80.1069 13.2299C80.1182 13.3946 80.1889 13.5605 80.2642 13.555C80.3399 13.549 80.3975 13.3742 80.3912 13.2105C80.3891 13.1978 80.3878 13.1889 80.3861 13.177C80.4059 13.1821 80.4253 13.188 80.4459 13.191C80.7146 13.2244 80.9763 13.0767 81.0246 12.8287C81.0722 12.5853 80.8808 12.3327 80.5821 12.2941Z" fill="white"/>
<path d="M84.826 11.9124L84.7684 11.9408C84.7676 11.9285 84.7672 11.9192 84.7663 11.9056C84.7377 11.7435 84.6427 11.5865 84.5615 11.6005C84.4807 11.6144 84.4446 11.7943 84.4727 11.9564C84.4858 12.0322 84.511 12.0889 84.5426 12.1287C84.1779 11.9708 83.5672 12.0026 83.1516 12.1388C83.0486 12.1723 82.9632 12.2116 82.9127 12.248C82.8736 12.2713 82.8875 12.2789 82.8807 12.3001C82.8782 12.32 82.8324 12.3407 82.8134 12.3644C82.7731 12.4038 82.7171 12.4106 82.6704 12.3839C82.5447 12.3098 82.408 12.2789 82.2406 12.3102C82.0151 12.3521 81.7766 12.5252 81.669 12.7741C81.4687 13.2312 81.7329 13.7543 82.3041 13.8022C82.4437 13.8123 82.5808 13.7865 82.6982 13.7353C82.7672 13.7035 82.8479 13.7069 82.9161 13.7353C82.9632 13.7518 82.9901 13.7725 83.0654 13.778C83.136 13.7844 83.2345 13.7814 83.2841 13.7789C83.4124 13.7713 83.5289 13.748 83.6572 13.7065C84.151 13.544 84.6221 13.1521 84.7945 12.7893C84.7974 12.8397 84.816 12.8994 84.8568 12.9641C84.9442 13.1038 85.0923 13.2122 85.1625 13.1673C85.2328 13.1229 85.1983 12.9421 85.1108 12.8029C85.1028 12.7927 85.0973 12.786 85.0898 12.7762L85.1512 12.7585C85.4183 12.6543 85.5609 12.3813 85.4717 12.1477C85.3825 11.9137 85.0923 11.8087 84.826 11.9124Z" fill="white"/>
<path d="M64.2347 24.1161L64.2494 24.1876C64.2372 24.1847 64.2275 24.1825 64.2145 24.1796C64.0505 24.1618 63.8763 24.2189 63.8721 24.3163C63.8683 24.4136 64.0353 24.508 64.1985 24.5199C64.2751 24.5258 64.3356 24.5122 64.3811 24.4885C64.1447 24.8453 64.1136 25.5763 64.2149 26.0414C64.2671 26.292 64.3529 26.4676 64.4618 26.5895C64.5068 26.639 64.5258 26.7088 64.5077 26.7736C64.4601 26.9459 64.4673 27.1376 64.5434 27.3246C64.649 27.579 64.8803 27.7631 65.1474 27.8076C65.6454 27.9032 66.0547 27.4296 65.9668 26.8929C65.9462 26.7601 65.8982 26.6403 65.8305 26.5395C65.7914 26.4799 65.7821 26.4037 65.8053 26.3372C65.8616 26.1747 65.873 25.9656 65.8175 25.6994C65.698 25.1488 65.3872 24.6489 65.0772 24.3857C65.126 24.3942 65.1878 24.3887 65.2601 24.3624C65.4149 24.3057 65.555 24.1872 65.5289 24.1102C65.5028 24.0327 65.3199 24.0196 65.1647 24.07C65.1529 24.0755 65.1445 24.0793 65.134 24.0843L65.131 24.0179C65.0911 23.7267 64.8942 23.4956 64.6397 23.5062C64.3966 23.5155 64.191 23.791 64.2347 24.1161Z" fill="white"/>
<path d="M64.9858 18.976L64.9652 19.0458C64.956 19.0373 64.9484 19.031 64.9383 19.0221C64.8024 18.9273 64.6224 18.8939 64.5736 18.9768C64.5244 19.0593 64.627 19.2227 64.765 19.312C64.8294 19.3543 64.8887 19.3717 64.9396 19.373C64.5618 19.5702 64.174 20.1661 64.0567 20.7197C63.9852 20.9961 64.0155 21.2187 64.071 21.3838C64.095 21.4511 64.0887 21.5298 64.0495 21.5916C63.9419 21.7566 63.9086 21.9721 63.9347 22.1985C63.9679 22.5079 64.1942 22.7559 64.4516 22.8253C64.9446 22.9485 65.3652 22.5743 65.4195 22.116C65.4304 21.9983 65.4085 21.8836 65.3799 21.7782C65.361 21.716 65.377 21.6474 65.4203 21.5983C65.5301 21.4794 65.594 21.3097 65.6563 21.0748C65.7547 20.6109 65.7433 20.0002 65.5991 19.6197C65.6382 19.6515 65.6945 19.6764 65.7703 19.6883C65.933 19.7132 66.1118 19.676 66.1257 19.5947C66.1396 19.5131 65.9848 19.4132 65.8245 19.3831C65.8119 19.3823 65.8026 19.3814 65.7909 19.3806L65.8199 19.3209C65.9309 19.0471 65.8577 18.744 65.6306 18.6344C65.409 18.5273 65.1086 18.6746 64.9858 18.976Z" fill="white"/>
<path d="M67.8207 14.6759L67.7757 14.7313C67.7698 14.7203 67.7652 14.7119 67.7593 14.6996C67.6663 14.5637 67.5099 14.4664 67.4341 14.5223C67.3572 14.576 67.4001 14.7686 67.4956 14.9019C67.5406 14.965 67.5894 15.0035 67.6356 15.023C67.2175 15.0699 66.6451 15.4555 66.3162 15.8965C66.1542 16.1229 66.0789 16.3244 66.0625 16.4958C66.0562 16.5661 66.0171 16.6329 65.9561 16.671C65.7988 16.7764 65.6676 16.9444 65.5952 17.1573C65.4918 17.4439 65.5809 17.7659 65.7782 17.9462C66.1597 18.2844 66.7061 18.1435 66.9635 17.7456C67.0266 17.6432 67.0615 17.5302 67.0758 17.4172C67.0863 17.352 67.1313 17.2962 67.1923 17.2695C67.3416 17.2052 67.4863 17.0828 67.6302 16.8805C67.9225 16.4895 68.1563 15.9101 68.1589 15.4966C68.1837 15.541 68.2274 15.585 68.293 15.6239C68.4356 15.7073 68.6127 15.7319 68.6602 15.662C68.7061 15.5909 68.5984 15.4424 68.4579 15.3565C68.4461 15.351 68.4381 15.3471 68.4272 15.3421L68.4777 15.2972C68.6855 15.0801 68.7124 14.7593 68.5374 14.5811C68.3624 14.4025 68.0415 14.4452 67.8207 14.6759Z" fill="white"/>
<path d="M64.5971 29.4871L64.608 29.5578C64.5963 29.5548 64.587 29.5523 64.574 29.5493C64.4112 29.5286 64.235 29.5815 64.2261 29.6754C64.2148 29.769 64.3864 29.8646 64.5491 29.882C64.6257 29.89 64.6867 29.879 64.7321 29.857C64.489 30.2024 64.3944 30.8889 64.5029 31.4293C64.5634 31.7019 64.6631 31.8919 64.7796 32.0185C64.8276 32.0701 64.8511 32.1438 64.8385 32.2149C64.812 32.4032 64.8499 32.614 64.9601 32.8095C65.1039 33.0783 65.4021 33.2251 65.6671 33.1968C66.1719 33.1346 66.4305 32.6305 66.306 32.1721C66.272 32.0566 66.2114 31.9554 66.137 31.8695C66.0957 31.8183 66.084 31.7472 66.105 31.6837C66.1563 31.5288 66.1618 31.3388 66.1071 31.0962C66.0112 30.6163 65.7365 30.0551 65.4312 29.7787C65.4808 29.7893 65.5426 29.7859 65.615 29.7622C65.7719 29.7106 65.9073 29.5938 65.8875 29.5117C65.8652 29.43 65.6831 29.4122 65.5258 29.4604C65.514 29.4655 65.5056 29.4693 65.4947 29.474L65.4951 29.4063C65.472 29.1058 65.2516 28.8726 65.003 28.8853C64.7544 28.8984 64.5727 29.1676 64.5971 29.4871Z" fill="white"/>
<path d="M71.7951 11.4348L71.7342 11.4738C71.7321 11.4615 71.7304 11.4522 71.7283 11.4386C71.6824 11.2803 71.5625 11.1394 71.4709 11.1703C71.3804 11.2033 71.3611 11.3984 71.4124 11.5554C71.4364 11.6291 71.4717 11.6803 71.5104 11.7129C71.0965 11.635 70.4197 11.842 69.9916 12.1844C69.7686 12.3516 69.6425 12.5221 69.5836 12.6855C69.5588 12.7515 69.5041 12.8057 69.4364 12.8252C69.2526 12.8764 69.0814 12.9957 68.9569 13.1781C68.7844 13.4249 68.7625 13.7406 68.8984 13.9789C69.1491 14.4174 69.7308 14.4631 70.0938 14.1397C70.1838 14.0551 70.2553 13.9628 70.3024 13.8583C70.3302 13.7973 70.3882 13.755 70.4542 13.7453C70.6132 13.7203 70.7878 13.642 70.9859 13.4943C71.3674 13.1887 71.7489 12.7155 71.8696 12.3215C71.8801 12.371 71.9087 12.4265 71.96 12.4836C72.0706 12.6055 72.2317 12.6855 72.2936 12.6317C72.3562 12.5801 72.299 12.4062 72.1922 12.28C72.1829 12.2711 72.1762 12.2648 72.1674 12.2563L72.2284 12.2305C72.4866 12.0908 72.612 11.7971 72.5089 11.5745C72.4012 11.343 72.0816 11.2803 71.7951 11.4348Z" fill="white"/>
<path d="M76.7615 10.0761L76.6908 10.0871C76.6942 10.0748 76.6967 10.0655 76.7005 10.0524C76.7249 9.88859 76.677 9.71083 76.5836 9.70152C76.4902 9.69263 76.391 9.85516 76.3699 10.0189C76.3598 10.0951 76.3695 10.1569 76.3901 10.2035C76.0536 9.94911 75.368 9.83907 74.8229 9.94827C74.547 9.99736 74.3556 10.1083 74.2282 10.2234C74.176 10.272 74.102 10.2962 74.0305 10.2843C73.8412 10.2615 73.6284 10.3008 73.4324 10.4143C73.167 10.5768 73.0236 10.8709 73.0597 11.1371C73.1384 11.6429 73.6456 11.8909 74.0877 11.7601C74.2004 11.7254 74.2993 11.6653 74.3817 11.5887C74.4318 11.5468 74.5012 11.535 74.5638 11.5561C74.7173 11.6112 74.8995 11.6078 75.1401 11.565C75.609 11.4715 76.1693 11.2074 76.4511 10.909C76.4393 10.9581 76.441 11.0203 76.4633 11.094C76.5108 11.2527 76.624 11.3991 76.7051 11.3767C76.7863 11.3543 76.8086 11.171 76.7649 11.0123C76.7598 11.0004 76.7565 10.992 76.7523 10.981L76.8191 10.9814C77.1169 10.9564 77.3567 10.7571 77.3491 10.5031C77.342 10.256 77.0795 10.0498 76.7615 10.0761Z" fill="white"/>
<path d="M72.9814 8.26155L72.9154 8.28864C72.9158 8.27594 72.9162 8.26621 72.9166 8.25266C72.9032 8.0876 72.8157 7.9255 72.7227 7.9382C72.6298 7.9509 72.5701 8.13204 72.5873 8.29626C72.5949 8.37286 72.6184 8.43085 72.6491 8.47148C72.2634 8.30134 71.5711 8.35255 71.0651 8.58491C70.8081 8.69664 70.647 8.84858 70.549 8.99037C70.5095 9.04962 70.4435 9.09025 70.3707 9.09491C70.1814 9.11649 69.9833 9.2041 69.8184 9.35985C69.5972 9.57909 69.5244 9.89863 69.6207 10.1496C69.8125 10.6236 70.3627 10.7476 70.7631 10.5182C70.8653 10.4582 70.9473 10.3773 71.0104 10.2834C71.0496 10.2313 71.1143 10.2038 71.1799 10.2101C71.3419 10.2279 71.5185 10.1822 71.7431 10.0853C72.1785 9.88593 72.663 9.49952 72.8695 9.14358C72.8691 9.19437 72.8851 9.25447 72.9234 9.32134C73.0058 9.46439 73.1497 9.5812 73.2233 9.54057C73.2973 9.49994 73.2771 9.31626 73.1984 9.17236C73.1909 9.16178 73.1854 9.15416 73.1787 9.14442L73.2439 9.12961C73.5282 9.0365 73.7158 8.78679 73.6506 8.54131C73.5875 8.30261 73.2851 8.16252 72.9814 8.26155Z" fill="white"/>
<path d="M81.8016 10.2634L81.733 10.2651C81.7376 10.2533 81.741 10.2444 81.746 10.2317C81.7894 10.0726 81.765 9.88973 81.6808 9.86857C81.5967 9.84741 81.4823 9.99469 81.4373 10.1534C81.4167 10.2275 81.4163 10.2901 81.4293 10.3392C81.1404 10.0421 80.5364 9.80212 80.0194 9.76149C79.757 9.74117 79.5568 9.77715 79.4053 9.85206C79.3444 9.88253 79.2691 9.88338 79.2077 9.85079C79.0436 9.76276 78.8409 9.72467 78.61 9.76784C78.3176 9.83386 78.0863 10.0497 78.022 10.3134C77.8996 10.809 78.308 11.2394 78.7706 11.2555C78.8914 11.2619 79.0083 11.2407 79.1168 11.1992C79.1803 11.1743 79.2527 11.184 79.3086 11.2238C79.444 11.319 79.6321 11.3846 79.8928 11.4049C80.4064 11.4455 81.052 11.3025 81.3822 11.0456C81.3629 11.0921 81.3549 11.1539 81.3658 11.2305C81.3894 11.3943 81.4878 11.556 81.5782 11.545C81.6686 11.5344 81.7149 11.3558 81.6897 11.1925C81.6863 11.1798 81.6838 11.1709 81.6804 11.1594L81.7498 11.1692C82.0636 11.1874 82.3286 10.9927 82.3345 10.7426C82.3404 10.4916 82.1048 10.2812 81.8016 10.2634Z" fill="white"/>
<path d="M52.0751 30.8477C52.0482 30.9417 51.9619 31.0031 51.866 31.0154C50.5155 31.1745 49.7285 31.3561 49.1262 31.6798C48.5369 31.9702 48.1899 32.3473 48.1954 32.4637C48.2008 32.5805 48.5941 32.9402 49.3706 33.0003C49.564 33.0223 49.7748 32.9919 50.0061 32.9572C50.2383 32.9258 50.4835 32.8518 50.7325 32.7273C50.9857 32.6165 51.2435 32.4641 51.4845 32.2465C51.7352 32.0493 51.9632 31.7844 52.163 31.4763C52.2194 31.3899 52.3207 31.3429 52.4221 31.3442C52.7855 31.3395 53.1775 31.2896 53.3277 31.1715C53.4723 31.0412 53.3685 30.8816 52.8393 30.6315C52.6404 30.0605 52.4755 29.9606 52.372 30.0707C52.2572 30.174 52.1676 30.4918 52.0751 30.8477Z" fill="white"/>
<path d="M55.0305 26.2755C55.0725 26.3643 55.0603 26.4714 55.0006 26.5472C54.0938 27.59 53.6875 28.3095 53.457 28.9397C53.2357 29.5526 53.2484 30.0757 53.3308 30.1561C53.4128 30.2395 53.939 30.22 54.5438 29.7189C55.1436 29.2415 55.7459 28.147 55.5281 26.6885C55.5087 26.5865 55.5415 26.4807 55.6177 26.4147C56.1977 25.9246 56.609 25.28 55.4696 25.6059C54.437 25.0134 54.739 25.6334 55.0305 26.2755Z" fill="white"/>
<path d="M54.7627 20.7284C54.8422 20.7813 54.8838 20.8799 54.8708 20.9768C54.6748 22.3401 54.716 23.198 54.9229 23.8646C55.0975 24.5109 55.4382 24.9121 55.5551 24.9231C55.6695 24.9349 56.0578 24.5921 56.2575 23.8481C56.4338 23.1294 56.3627 21.9232 55.3902 20.8088C55.3225 20.7322 55.299 20.6234 55.3309 20.5248C55.5303 19.8057 55.5564 19.0075 54.7635 19.9289C53.6039 20.0025 54.1486 20.3598 54.7627 20.7284Z" fill="white"/>
<path d="M51.2543 16.5946C51.3485 16.5764 51.4533 16.6052 51.5046 16.6928C52.2692 17.8292 52.7866 18.44 53.3452 18.8302C53.5954 19.0367 53.8516 19.1658 54.0577 19.2416C54.2499 19.3262 54.4001 19.3486 54.4522 19.319C54.5014 19.2907 54.5616 19.1506 54.5822 18.9191C54.5889 18.6969 54.5456 18.3854 54.4068 18.0163C54.2381 17.6714 53.9837 17.2545 53.537 16.9167C53.1084 16.5659 52.4939 16.2971 51.7725 16.2142C51.6749 16.1964 51.5757 16.1477 51.5307 16.055C51.1916 15.3673 50.6335 14.8209 50.7109 16.0131C49.9193 16.9028 50.5696 16.7275 51.2543 16.5946Z" fill="white"/>
<path d="M45.8517 15.9617C45.9119 15.8855 46.0111 15.8445 46.1058 15.8707C47.4214 16.2406 48.2601 16.3041 48.9285 16.2258C49.5804 16.1348 50.0284 15.9152 50.0671 15.7865C50.0986 15.6925 49.8471 15.2007 49.1329 14.8985C48.4452 14.5811 47.2237 14.5003 46.001 15.3315C45.9165 15.3886 45.8088 15.4111 45.715 15.3704C45.0164 15.0632 44.2387 15.0098 45.0627 15.8703C45.0286 17.0638 45.4118 16.5068 45.8517 15.9617Z" fill="white"/>
<path d="M41.4514 19.0905C41.4434 18.9949 41.4943 18.9014 41.5776 18.8518C42.7621 18.1751 43.4098 17.7002 43.8502 17.1932C44.2729 16.6929 44.4811 16.2434 44.426 16.1173C44.4029 16.0652 44.2725 15.9958 44.0483 15.962C43.8241 15.9264 43.5023 15.9247 43.1372 16.0576C42.4125 16.2777 41.4043 17.07 41.128 18.5399C41.1099 18.6419 41.0397 18.7283 40.9429 18.7642C40.2485 19.0461 39.6205 19.529 40.8256 19.5815C41.6066 20.4546 41.5347 19.7982 41.4514 19.0905Z" fill="white"/>
<path d="M40.1462 24.4545C40.0831 24.38 40.0684 24.2734 40.1062 24.1836C40.6736 22.9169 40.8558 22.0768 40.8364 21.3911C40.8343 20.7258 40.6484 20.2505 40.5411 20.2035C40.4352 20.1574 39.9409 20.3597 39.5506 21.0318C39.1801 21.6861 38.9369 22.8648 39.5603 24.1951C39.6061 24.2878 39.6002 24.3978 39.5439 24.4824C39.3268 24.791 39.1607 25.1347 39.1847 25.32C39.2023 25.5088 39.3908 25.5177 39.9039 25.2197C40.4755 25.3801 40.653 25.3039 40.6274 25.1486C40.5941 24.9912 40.3695 24.73 40.1462 24.4545Z" fill="white"/>
<path d="M42.0194 29.6209C41.9247 29.6014 41.849 29.5261 41.8259 29.433C41.5437 28.0973 41.2686 27.3121 40.8972 26.737C40.5283 26.1817 40.1321 25.8753 40.0017 25.8998C39.9041 25.9163 39.5798 26.3594 39.6219 27.1327C39.6396 27.8806 40.0846 29.058 41.3948 29.7707C41.4882 29.8177 41.5508 29.9091 41.5576 30.0115C41.5727 30.3933 41.6678 30.7683 41.8036 30.9033C41.939 31.0438 42.0867 30.9283 42.2982 30.3679C42.8392 30.1296 42.9258 29.954 42.8139 29.8533C42.6957 29.7525 42.3597 29.7017 42.0194 29.6209Z" fill="white"/>
<path d="M46.7972 32.1373C46.7156 32.1864 46.61 32.1805 46.5288 32.1263C45.3919 31.3615 44.6718 31.0013 44.0173 30.849C43.3852 30.6941 42.8893 30.7228 42.8085 30.8223C42.7412 30.9023 42.782 31.4546 43.3435 32.0078C43.8777 32.5466 45.0297 33.0794 46.4535 32.6706C46.5519 32.6426 46.6596 32.6689 46.7345 32.7408C47.2939 33.2263 47.9946 33.6017 47.5139 32.4814C47.9509 31.3996 47.3927 31.7327 46.7972 32.1373Z" fill="white"/>
<path d="M52.0764 36.1667C52.0268 36.248 51.9347 36.2912 51.8421 36.2793C51.1885 36.1959 50.6459 36.1295 50.2043 36.1997C49.75 36.2129 49.3824 36.3144 49.0817 36.452C48.4789 36.6873 48.1408 37.0543 48.1446 37.1795C48.1471 37.2883 48.5126 37.6553 49.218 37.7877C49.5675 37.8343 50.0016 37.8241 50.489 37.706C50.9652 37.5308 51.5103 37.2947 52.0091 36.8024C52.0798 36.7334 52.1807 36.7089 52.2728 36.7406C52.6089 36.8558 52.9706 36.9459 53.1334 36.8858C53.2958 36.8173 53.2533 36.631 52.8457 36.2158C52.8327 35.6153 52.717 35.4629 52.5828 35.5336C52.4432 35.5975 52.2585 35.8658 52.0764 36.1667Z" fill="white"/>
<path d="M56.5668 33.3625C56.5558 33.4551 56.489 33.5313 56.3981 33.5588C56.0755 33.6545 55.8029 33.7645 55.559 33.875C55.3007 33.9685 55.0803 34.0739 54.8881 34.1882C54.5163 34.4337 54.2021 34.6381 53.988 34.8874C53.7735 35.1362 53.6233 35.3703 53.527 35.5497C53.4349 35.7364 53.4067 35.8841 53.4324 35.9387C53.4568 35.9903 53.5867 36.0614 53.8021 36.1033C54.0208 36.152 54.3173 36.1537 54.6585 36.0483C54.9979 35.9438 55.4177 35.7893 55.7848 35.4279C55.9733 35.256 56.1617 35.0533 56.3401 34.8188C56.5041 34.567 56.65 34.2737 56.7775 33.9541C56.8132 33.8636 56.8961 33.7997 56.9954 33.7895C57.702 33.6884 58.383 33.4154 57.2582 33.0459C56.7001 32.0081 56.6189 32.6641 56.5668 33.3625Z" fill="white"/>
<path d="M59.3394 28.8294C59.3735 28.9196 59.3512 29.0194 59.286 29.0859C58.783 29.5379 58.4557 29.9527 58.1996 30.3243C57.9291 30.6866 57.8109 31.0556 57.7041 31.3587C57.5031 31.9669 57.5889 32.4798 57.6827 32.5552C57.771 32.6263 58.2623 32.5628 58.8213 32.0938C59.1035 31.864 59.3373 31.4945 59.5506 31.0336C59.7479 30.5668 59.8404 29.9607 59.7979 29.2768C59.7861 29.1786 59.8282 29.0829 59.9089 29.0296C60.5028 28.6339 61.0391 28.1158 59.8463 28.2492C58.9251 27.5491 59.0892 28.1734 59.3394 28.8294Z" fill="white"/>
<path d="M60.1182 23.5232C60.1818 23.5955 60.1961 23.6971 60.1582 23.7826C59.8667 24.3904 59.6787 24.9029 59.6143 25.3545C59.5058 25.8002 59.5046 26.1857 59.5555 26.515C59.6249 27.1626 59.8844 27.5871 60.0059 27.6176C60.1102 27.6442 60.5611 27.3869 60.872 26.7368C61.0099 26.4113 61.1155 25.9898 61.1327 25.487C61.105 24.9838 61.0045 24.3976 60.7041 23.7763C60.6587 23.6891 60.6642 23.585 60.7214 23.5062C61.1378 22.9268 61.4596 22.2623 60.3891 22.7994C59.2808 22.4604 59.6539 22.9967 60.1182 23.5232Z" fill="white"/>
<path d="M59.0205 18.2825C59.1054 18.3261 59.1555 18.4154 59.1509 18.5085C59.1008 19.1772 59.1033 19.7177 59.1891 20.1617C59.2409 20.6158 59.3725 20.9768 59.534 21.2676C59.8015 21.8572 60.207 22.1644 60.3269 22.1513C60.4383 22.1399 60.7576 21.7459 60.8468 21.0268C60.864 20.673 60.8177 20.2396 60.66 19.7605C60.4682 19.2924 60.1654 18.7722 59.6569 18.3024C59.5828 18.2372 59.5504 18.1378 59.5748 18.0434C59.6644 17.6976 59.7204 17.3319 59.6556 17.1698C59.5807 17.0098 59.4003 17.0649 59.0108 17.5076C58.4236 17.5605 58.2798 17.6879 58.3546 17.8199C58.4219 17.9592 58.7092 18.1217 59.0205 18.2825Z" fill="white"/>
<path d="M55.9235 13.9708C56.0164 13.975 56.0972 14.0364 56.1308 14.1252C56.6221 15.3531 57.0987 16.0408 57.6164 16.4522C58.1325 16.8505 58.5788 17.0041 58.697 16.9368C58.7824 16.8907 58.9712 16.3739 58.7205 15.698C58.5864 15.37 58.4143 14.9518 58.0282 14.6107C57.8436 14.4342 57.6282 14.2607 57.3822 14.099C57.1327 13.9407 56.8215 13.8247 56.4968 13.7177C56.4042 13.6885 56.3348 13.6097 56.3176 13.5111C56.1775 12.7984 55.8495 12.147 55.5647 13.2957C54.57 13.9327 55.2362 13.9559 55.9235 13.9708Z" fill="white"/>
<path d="M51.2379 11.5079C51.3245 11.4664 51.4259 11.4808 51.4961 11.5405C52.4631 12.4708 53.2206 12.8187 53.8587 12.9693C54.4765 13.1268 54.9851 12.9956 55.0469 12.9063C55.1176 12.803 55.0145 12.323 54.5094 11.7965C54.0118 11.2874 53.0149 10.8167 51.6475 11.0127C51.5504 11.0322 51.4524 10.9983 51.3935 10.9217C50.9556 10.3588 50.4 9.86319 50.6238 11.0474C50 12.0276 50.6057 11.8122 51.2379 11.5079Z" fill="white"/>
<path d="M45.9277 11.1545C45.9929 11.0838 46.0922 11.0597 46.1801 11.0893C46.8068 11.3382 47.3258 11.4618 47.7763 11.5075C48.2263 11.5782 48.6082 11.546 48.9304 11.4664C49.5639 11.3602 49.9668 11.0521 49.987 10.9315C50.0059 10.821 49.7149 10.4037 49.0465 10.129C48.713 10.0185 48.2865 9.94828 47.7868 9.9741C47.2888 10.0249 46.713 10.1967 46.1233 10.5429C46.0408 10.5967 45.937 10.6013 45.8537 10.5522C45.2387 10.1916 44.5405 9.93643 45.1866 10.9539C44.9691 12.0949 45.4537 11.6709 45.9277 11.1545Z" fill="white"/>
<path d="M40.9259 12.8993C40.9566 12.81 41.0378 12.7486 41.1311 12.741C41.7797 12.6622 42.3261 12.6246 42.7412 12.4637C43.1719 12.3402 43.5156 12.1844 43.7789 11.9855C44.316 11.6304 44.581 11.2114 44.5532 11.087C44.5309 10.9828 44.1006 10.6857 43.3801 10.7039C43.0281 10.7336 42.5953 10.8157 42.1465 11.0522C41.7145 11.324 41.2241 11.663 40.8519 12.2686C40.798 12.3503 40.7038 12.396 40.6062 12.3846C39.8706 12.283 39.1757 12.4341 40.173 13.036C40.4927 14.1922 40.6908 13.5303 40.9259 12.8993Z" fill="white"/>
<path d="M37.2112 16.6777C37.1965 16.5824 37.2335 16.4855 37.3205 16.4415C37.9178 16.1143 38.3039 15.7703 38.6518 15.4786C38.8167 15.3259 38.9504 15.1705 39.061 15.0148C39.178 14.8654 39.2844 14.7287 39.3634 14.5869C39.5262 14.3084 39.6082 14.0341 39.6503 13.8259C39.6991 13.6261 39.694 13.4776 39.6562 13.4306C39.6209 13.3862 39.4766 13.3455 39.2553 13.3523C39.0408 13.3671 38.7611 13.4467 38.4415 13.616C38.2842 13.7032 38.11 13.8056 37.9489 13.9495C37.7946 14.0997 37.6394 14.2775 37.4913 14.4853C37.1767 14.8848 36.9756 15.4727 36.8608 16.1448C36.8415 16.2379 36.7864 16.326 36.6964 16.3615C36.0406 16.6282 35.4143 17.0311 36.6051 17.1432C37.3685 18.0206 37.3277 17.3756 37.2112 16.6777Z" fill="white"/>
<path d="M35.4557 21.7191C35.4057 21.637 35.409 21.5346 35.4612 21.4567C35.8444 20.9082 36.1249 20.4426 36.27 20.0139C36.458 19.5991 36.5287 19.2229 36.5384 18.8902C36.609 18.2516 36.4227 17.7758 36.3138 17.7229C36.2133 17.6738 35.7367 17.8414 35.2896 18.4166C35.094 18.7116 34.9119 19.109 34.8021 19.6025C34.7365 20.1049 34.7251 20.7038 34.9224 21.3691C34.9518 21.4635 34.9283 21.5651 34.8589 21.6328C34.3483 22.1331 33.9167 22.7366 35.0641 22.3857C36.098 22.9042 35.8225 22.3163 35.4557 21.7191Z" fill="white"/>
<path d="M35.6052 27.0897C35.5299 27.03 35.4979 26.9327 35.5198 26.8421C35.7154 26.192 35.7928 25.66 35.7987 25.2029C35.8285 24.7437 35.7633 24.362 35.6565 24.0454C35.4849 23.416 35.1455 23.0448 35.0227 23.0372C34.9129 23.03 34.5238 23.364 34.3219 24.0547C34.2424 24.3984 34.2105 24.8296 34.2799 25.3265C34.3732 25.82 34.5932 26.3812 34.9835 26.9433C35.0437 27.022 35.0567 27.1253 35.0147 27.2129C34.7072 27.8583 34.5108 28.5765 35.4668 27.8494C36.6159 27.9781 36.1554 27.524 35.6052 27.0897Z" fill="white"/>
<path d="M37.7021 31.9903C37.6112 31.9653 37.5448 31.8883 37.5305 31.7952C37.4691 31.4592 37.4152 31.1667 37.3673 30.9034C37.3088 30.6355 37.2339 30.4023 37.1456 30.1958C36.9984 29.7679 36.8116 29.4365 36.5963 29.1855C36.2085 28.6692 35.7677 28.4377 35.6482 28.4745C35.5448 28.5054 35.2895 28.9578 35.3555 29.6794C35.4089 30.0307 35.5279 30.4548 35.7875 30.8907C35.9317 31.1015 36.1067 31.3161 36.3153 31.5264C36.5151 31.7414 36.7717 31.9378 37.0804 32.1063C37.1654 32.155 37.2171 32.2459 37.2125 32.3446C37.1628 33.0869 37.3479 33.781 37.8838 32.7394C39.0081 32.3471 38.3469 32.1833 37.7021 31.9903Z" fill="white"/>
<path d="M41.6825 35.4811C41.587 35.5065 41.4936 35.4663 41.4431 35.3833C41.0755 34.8115 40.7159 34.4391 40.403 34.1106C40.2406 33.9562 40.0766 33.8334 39.9155 33.7318C39.767 33.6159 39.6185 33.5245 39.4738 33.4525C38.8854 33.1795 38.3988 33.1503 38.3096 33.2303C38.225 33.3065 38.1746 33.833 38.5687 34.4395C38.6637 34.5936 38.7828 34.7544 38.9287 34.9156C39.0873 35.0612 39.2749 35.2047 39.4911 35.3393C39.9096 35.6275 40.501 35.8002 41.1794 35.8645C41.2736 35.8764 41.3598 35.9352 41.4032 36.019C41.7132 36.6573 42.1582 37.2574 42.1863 36.0554C43.0032 35.2267 42.3676 35.3147 41.6825 35.4811Z" fill="white"/>
<path d="M46.8044 36.8586C46.7275 36.9158 46.6257 36.9209 46.5445 36.8756C45.9699 36.5349 45.4871 36.2949 45.053 36.1802C44.6286 36.0244 44.2513 35.983 43.9216 35.9995C43.2864 35.9711 42.8259 36.1971 42.7817 36.3093C42.7397 36.4147 42.9411 36.8756 43.5443 37.2874C43.8522 37.4609 44.261 37.6133 44.7598 37.6848C45.2633 37.7148 45.8597 37.6746 46.5024 37.4232C46.5933 37.3856 46.6959 37.4004 46.7691 37.4647C47.3083 37.9341 47.9451 38.3154 47.4976 37.1947C47.9207 36.1142 47.3643 36.4401 46.8044 36.8586Z" fill="white"/>
<path d="M50.5766 34.2825C50.5211 34.3621 50.4243 34.4014 50.3314 34.3858C49.6618 34.2326 49.1352 34.1915 48.6742 34.1632C48.2187 34.1695 47.8363 34.2063 47.515 34.2918C46.8769 34.4861 46.4799 34.7536 46.4647 34.8911C46.4584 34.9478 46.5341 35.0769 46.7011 35.2259C46.8672 35.3795 47.1263 35.5442 47.4834 35.6343C47.8389 35.7384 48.2906 35.799 48.8105 35.6902C49.3291 35.6174 49.9112 35.3503 50.4672 34.9178C50.5442 34.8513 50.6498 34.8306 50.7427 34.8657C51.4389 35.1472 52.185 35.1958 51.3581 34.3515C51.3594 33.1567 50.9838 33.723 50.5766 34.2825Z" fill="white"/>
<path d="M55.1146 31.3666C55.1108 31.4631 55.0448 31.5435 54.9548 31.5782C53.7089 32.0904 53.0044 32.5335 52.5569 33.0367C52.1056 33.5048 51.9319 33.9949 51.9752 34.0952C52.0248 34.2095 52.5039 34.3885 53.2353 34.193C53.5966 34.0965 53.997 33.8684 54.3966 33.52C54.5838 33.3296 54.7693 33.1078 54.9422 32.8543C55.1142 32.5999 55.2404 32.2787 55.3586 31.9481C55.3901 31.8529 55.4738 31.7835 55.5718 31.7628C56.2696 31.5854 56.9678 31.2566 55.7943 30.9832C55.1731 29.997 55.1142 30.6446 55.1146 31.3666Z" fill="white"/>
<path d="M57.4967 26.4494C57.5396 26.5375 57.5316 26.6433 57.4702 26.7178C57.0084 27.2409 56.7367 27.706 56.5037 28.1111C56.3051 28.5296 56.1659 28.8894 56.1037 29.2187C55.9901 29.8776 56.0603 30.3563 56.1735 30.4312C56.2534 30.4871 56.8006 30.4025 57.2868 29.8404C57.7945 29.3063 58.2416 28.255 58.0002 26.8502C57.9817 26.7516 58.0099 26.6483 58.0847 26.5836C58.6307 26.1062 59.106 25.512 57.9354 25.7934C56.9415 25.1886 57.1745 25.8086 57.4967 26.4494Z" fill="white"/>
<path d="M57.562 20.9588C57.6373 21.0193 57.6806 21.1167 57.6491 21.2119C57.5515 21.5471 57.4859 21.8463 57.4489 22.1202C57.4055 22.3944 57.358 22.6479 57.3526 22.8794C57.3509 23.3412 57.3559 23.7327 57.4489 24.0594C57.6159 24.7104 57.8968 25.1133 58.0281 25.1294C58.1273 25.1429 58.5715 24.8285 58.7822 24.1191C59.0005 23.4288 59.0144 22.281 58.1845 21.1044C58.134 21.0214 58.1088 20.9165 58.1504 20.8251C58.439 20.1525 58.5938 19.3962 57.6735 20.1775C56.516 20.0878 56.9992 20.5241 57.562 20.9588Z" fill="white"/>
<path d="M54.9893 16.1908C55.0835 16.2026 55.1622 16.2712 55.1916 16.3626C55.5819 17.6615 56.0089 18.376 56.4475 18.8821C56.9064 19.3591 57.3338 19.5885 57.4562 19.5437C57.5525 19.5094 57.8103 19.0218 57.645 18.2883C57.5256 17.5595 56.9153 16.5387 55.5878 15.9847C55.4949 15.947 55.4276 15.8619 55.4149 15.7608C55.3153 15.0193 54.9948 14.3345 54.6625 15.4781C53.6282 16.0545 54.3012 16.1129 54.9893 16.1908Z" fill="white"/>
<path d="M50.2523 13.5778C50.3406 13.5329 50.4449 13.5447 50.516 13.6142C51.5453 14.5025 52.2826 14.9105 52.9408 15.0582C53.5671 15.2297 54.0693 15.1556 54.1455 15.0544C54.2107 14.9698 54.1387 14.4479 53.618 13.9011C53.0994 13.389 52.0727 12.8384 50.6565 13.0834C50.5598 13.0936 50.458 13.0614 50.3941 12.9878C49.9234 12.4367 49.3282 11.9551 49.605 13.1342C49.0014 14.1318 49.6126 13.899 50.2523 13.5778Z" fill="white"/>
<path d="M44.8342 13.637C44.8893 13.557 44.9861 13.5172 45.079 13.5328C45.749 13.6861 46.2748 13.7297 46.735 13.7567C47.1896 13.7479 47.572 13.722 47.8925 13.6306C48.5301 13.4486 48.9297 13.1714 48.9453 13.0368C48.9587 12.9395 48.6454 12.4858 47.9299 12.2881C47.2363 12.0663 46.0708 12.1103 44.9427 13.0008C44.8658 13.0677 44.7602 13.0889 44.6672 13.0537C43.9711 12.7757 43.2233 12.7253 44.0527 13.5688C44.0536 14.7623 44.4288 14.199 44.8342 13.637Z" fill="white"/>
<path d="M40.3037 16.5651C40.3075 16.4691 40.3731 16.3882 40.4632 16.3531C41.7082 15.8384 42.411 15.3915 42.8577 14.8887C43.0861 14.6572 43.2379 14.4155 43.33 14.2166C43.4255 14.0253 43.4625 13.8856 43.4364 13.8285C43.3864 13.7151 42.9056 13.5343 42.1759 13.7341C41.8133 13.8298 41.4154 14.0617 41.0163 14.41C40.8299 14.6005 40.6449 14.8231 40.4724 15.077C40.3008 15.3318 40.1759 15.6531 40.0585 15.9845C40.027 16.0793 39.9441 16.1491 39.8457 16.1703C39.1479 16.3484 38.451 16.6786 39.6249 16.9499C40.2474 17.9352 40.3058 17.2872 40.3037 16.5651Z" fill="white"/>
<path d="M37.9257 21.4858C37.8828 21.3978 37.8908 21.2919 37.9518 21.2175C38.4136 20.6943 38.6857 20.2292 38.9183 19.8237C39.1169 19.4052 39.2557 19.045 39.3179 18.7153C39.4311 18.0563 39.36 17.5776 39.2468 17.5027C39.1669 17.4473 38.6197 17.5328 38.1343 18.0948C37.6271 18.6294 37.1808 19.6803 37.4218 21.085C37.4407 21.1836 37.4126 21.2873 37.3377 21.3516C36.7917 21.829 36.3169 22.4233 37.487 22.1418C38.4805 22.7466 38.2479 22.1266 37.9257 21.4858Z" fill="white"/>
<path d="M37.8583 26.9761C37.7834 26.9156 37.7396 26.8182 37.7716 26.723C37.8696 26.3878 37.9348 26.0886 37.9722 25.8147C38.016 25.5401 38.0635 25.2865 38.069 25.0555C38.0707 24.5933 38.0656 24.2018 37.9727 23.875C37.8061 23.2237 37.5251 22.8212 37.3943 22.8051C37.2942 22.7916 36.8505 23.1056 36.6393 23.8154C36.421 24.5057 36.4076 25.6526 37.2362 26.8297C37.2866 26.913 37.311 27.0176 37.2698 27.109C36.98 27.7811 36.8248 28.537 37.7455 27.7574C38.903 27.8488 38.4202 27.4116 37.8583 26.9761Z" fill="white"/>
<path d="M40.4202 31.7518C40.326 31.7399 40.2478 31.6709 40.2188 31.5791C39.8318 30.2798 39.4074 29.5632 38.9691 29.0562C38.5119 28.5775 38.0842 28.3477 37.9622 28.3921C37.8655 28.4264 37.6072 28.9127 37.7708 29.6466C37.889 30.3754 38.4951 31.3984 39.8213 31.9562C39.9142 31.9939 39.9811 32.0794 39.9933 32.1805C40.093 32.9208 40.4097 33.6094 40.7454 32.4649C41.7796 31.8919 41.1096 31.8297 40.4202 31.7518Z" fill="white"/>
<path d="M45.155 34.3588C45.068 34.4003 44.962 34.3956 44.8901 34.3287C43.8621 33.4332 43.121 33.0421 42.4665 32.8868C41.8385 32.7192 41.3389 32.7869 41.2619 32.8897C41.1975 32.9727 41.2652 33.4996 41.7885 34.0435C42.3037 34.5636 43.3393 35.099 44.7521 34.8603C44.8493 34.8472 44.9532 34.8722 45.0167 34.9496C45.4899 35.5015 46.0888 35.984 45.8036 34.8032C46.3984 33.8043 45.7919 34.0371 45.155 34.3588Z" fill="white"/>
<path d="M14.1716 12.5116C14.4396 11.0662 13.0486 9.51252 11.5071 10.2155C11.4579 10.2299 11.3952 10.29 11.4553 10.3383C12.6372 11.0616 13.1588 12.7414 12.6368 14.1461C12.6276 14.185 12.641 14.2032 12.6612 14.2117C12.6692 14.2329 12.6856 14.2473 12.7167 14.2371C13.9538 13.6442 15.4335 14.235 16.0707 15.5775C16.1165 15.6482 16.1632 15.5728 16.1784 15.5187C16.7924 13.7707 15.4427 12.2077 14.1716 12.5116Z" fill="white"/>
<path d="M20.1619 4.29673C20.4298 2.85138 19.0388 1.29767 17.4973 2.00067C17.4481 2.01506 17.3854 2.07516 17.4456 2.12341C18.6275 2.84672 19.149 4.52655 18.6271 5.93169C18.6182 5.97021 18.6313 5.9884 18.6515 5.99687C18.6594 6.01803 18.6758 6.03242 18.707 6.02226C19.944 5.42931 21.4237 6.02015 22.0609 7.36265C22.1068 7.43333 22.1539 7.358 22.1686 7.30382C22.7827 5.55586 21.4329 3.99284 20.1619 4.29673Z" fill="white"/>
<path d="M31.8889 2.47056C32.1568 1.0252 30.7659 -0.528497 29.2244 0.174498C29.1751 0.188888 29.1125 0.248988 29.1726 0.297237C30.3545 1.02055 30.8761 2.70037 30.3541 4.10552C30.3449 4.14403 30.3583 4.16223 30.3785 4.1707C30.3865 4.19186 30.4025 4.20625 30.434 4.19609C31.671 3.60314 33.1507 4.19398 33.788 5.53648C33.8338 5.60716 33.8805 5.53183 33.8956 5.47765C34.5097 3.72969 33.16 2.16667 31.8889 2.47056Z" fill="white"/>
<path d="M8.63647 19.0194C8.9044 17.574 7.51344 16.0203 5.97191 16.7233C5.9227 16.7377 5.86003 16.7978 5.92017 16.8456C7.10209 17.5694 7.62364 19.2492 7.10167 20.6539C7.09241 20.6929 7.10587 20.7111 7.12606 20.7195C7.13405 20.7407 7.15046 20.7551 7.18158 20.7449C8.41818 20.152 9.8983 20.7428 10.5355 22.0853C10.5814 22.156 10.6281 22.0807 10.6432 22.0265C11.2573 20.2781 9.90756 18.7155 8.63647 19.0194Z" fill="white"/>
<path d="M2.74096 29.6932C3.00889 28.2479 1.61794 26.6942 0.0764011 27.3972C0.0271897 27.4115 -0.0354812 27.4716 0.024666 27.5195C1.20658 28.2432 1.72814 29.923 1.20616 31.3278C1.19691 31.3667 1.21037 31.3849 1.23055 31.3934C1.23855 31.4145 1.25495 31.4289 1.28607 31.4187C2.52309 30.8258 4.00279 31.4166 4.64002 32.7591C4.68586 32.8298 4.73297 32.7545 4.74769 32.7003C5.36178 30.9523 4.01205 29.3893 2.74096 29.6932Z" fill="white"/>
<path d="M20.1619 47.8397C20.4298 46.3943 19.0388 44.8406 17.4973 45.5436C17.4481 45.558 17.3854 45.6181 17.4456 45.6664C18.6275 46.3897 19.149 48.0695 18.6271 49.4742C18.6182 49.5132 18.6313 49.5314 18.6515 49.5398C18.6594 49.561 18.6758 49.5754 18.707 49.5652C19.944 48.9723 21.4237 49.5631 22.0609 50.9056C22.1068 50.9763 22.1539 50.901 22.1686 50.8468C22.7827 49.0988 21.4329 47.5358 20.1619 47.8397Z" fill="white"/>
<path d="M35.0837 43.6034C35.3517 42.158 33.9607 40.6043 32.4192 41.3073C32.37 41.3217 32.3073 41.3818 32.3674 41.43C33.5494 42.1534 34.0709 43.8332 33.5489 45.2379C33.5397 45.2768 33.5531 45.295 33.5733 45.3035C33.5813 45.3247 33.5973 45.3391 33.6288 45.3289C34.8659 44.7359 36.3456 45.3268 36.9828 46.6693C37.0286 46.74 37.0753 46.6646 37.0905 46.6105C37.7046 44.8625 36.3548 43.2995 35.0837 43.6034Z" fill="white"/>
<path d="M19.0725 12.5116C19.3404 11.0662 17.9495 9.51252 16.4079 10.2155C16.3587 10.2299 16.2961 10.29 16.3562 10.3383C17.5377 11.0616 18.0597 12.7414 17.5377 14.1461C17.5284 14.185 17.5419 14.2032 17.5621 14.2117C17.5701 14.2329 17.5861 14.2473 17.6176 14.2371C18.8546 13.6442 20.3343 14.235 20.9716 15.5775C21.0174 15.6482 21.0641 15.5728 21.0792 15.5187C21.6933 13.7707 20.3436 12.2077 19.0725 12.5116Z" fill="white"/>
<path d="M23.973 12.5116C24.2409 11.0662 22.8504 9.51252 21.308 10.2155C21.2588 10.2299 21.1965 10.29 21.2567 10.3383C22.4382 11.0616 22.9602 12.7414 22.4378 14.1461C22.4289 14.185 22.4424 14.2032 22.4626 14.2117C22.4706 14.2329 22.487 14.2473 22.5177 14.2371C23.7551 13.6442 25.2348 14.235 25.872 15.5775C25.9179 15.6482 25.965 15.5728 25.9797 15.5187C26.5938 13.7707 25.2441 12.2077 23.973 12.5116Z" fill="white"/>
<path d="M28.8742 12.5116C29.1421 11.0662 27.7512 9.51252 26.2092 10.2155C26.16 10.2299 26.0973 10.29 26.1575 10.3383C27.3394 11.0616 27.8614 12.7414 27.339 14.1461C27.3301 14.185 27.3436 14.2032 27.3634 14.2117C27.3718 14.2329 27.3878 14.2473 27.4189 14.2371C28.6559 13.6442 30.1356 14.235 30.7733 15.5775C30.8191 15.6482 30.8658 15.5728 30.8809 15.5187C31.495 13.7707 30.1453 12.2077 28.8742 12.5116Z" fill="white"/>
<path d="M14.0741 35.1815C14.3526 33.7361 12.9069 32.1824 11.3044 32.8854C11.2535 32.8998 11.1883 32.9599 11.2506 33.0078C12.4787 33.7315 13.0213 35.4113 12.4787 36.816C12.4695 36.855 12.4829 36.8732 12.504 36.8816C12.5124 36.9028 12.5292 36.9172 12.5616 36.907C13.8474 36.3141 15.3852 36.9049 16.0476 38.2474C16.0947 38.3181 16.1439 38.2428 16.1595 38.1886C16.7976 36.4406 15.3948 34.8776 14.0741 35.1815Z" fill="white"/>
<path d="M19.1672 35.1815C19.4457 33.7361 18 32.1824 16.3979 32.8854C16.3466 32.8998 16.2814 32.9599 16.3441 33.0078C17.5723 33.7315 18.1148 35.4113 17.5718 36.816C17.5626 36.855 17.5765 36.8732 17.5971 36.8816C17.6059 36.9028 17.6227 36.9172 17.6547 36.907C18.9405 36.3141 20.4783 36.9049 21.1407 38.2474C21.1882 38.3181 21.237 38.2428 21.253 38.1886C21.8907 36.4406 20.4879 34.8776 19.1672 35.1815Z" fill="white"/>
<path d="M24.2602 35.1815C24.5387 33.7361 23.093 32.1824 21.4909 32.8854C21.44 32.8998 21.3748 32.9599 21.4371 33.0078C22.6653 33.7315 23.2074 35.4113 22.6648 36.816C22.6556 36.855 22.6695 36.8732 22.6905 36.8816C22.6989 36.9028 22.7157 36.9172 22.7477 36.907C24.0335 36.3141 25.5717 36.9049 26.2341 38.2474C26.2812 38.3181 26.33 38.2428 26.346 38.1886C26.9841 36.4406 25.5814 34.8776 24.2602 35.1815Z" fill="white"/>
<path d="M29.3537 35.1815C29.6318 33.7361 28.1866 32.1824 26.584 32.8854C26.5331 32.8998 26.4679 32.9599 26.5306 33.0078C27.7588 33.7315 28.301 35.4113 27.7584 36.816C27.7491 36.855 27.763 36.8732 27.7836 36.8816C27.7924 36.9028 27.8093 36.9172 27.8412 36.907C29.127 36.3141 30.6648 36.9049 31.3273 38.2474C31.3748 38.3181 31.4236 38.2428 31.4391 38.1886C32.0772 36.4406 30.6745 34.8776 29.3537 35.1815Z" fill="white"/>
<path d="M15.7704 29.7155C16.1162 28.359 14.7155 26.9484 13.0575 27.6484C13.0045 27.6632 12.9359 27.7208 12.9974 27.764C14.2133 28.406 14.6912 29.9584 14.0787 31.2844C14.0674 31.3208 14.0804 31.3378 14.1015 31.345C14.1094 31.3649 14.1254 31.3776 14.1587 31.367C15.4907 30.7787 17.0268 31.2883 17.6413 32.5228C17.6863 32.5876 17.7393 32.5161 17.7578 32.4649C18.4821 30.8163 17.1252 29.396 15.7704 29.7155Z" fill="white"/>
<path d="M18.7549 26.8366C19.1006 25.4801 17.7 24.0695 16.042 24.7695C15.9894 24.7839 15.9208 24.8423 15.9822 24.8851C17.1982 25.5271 17.6756 27.0795 17.0636 28.4055C17.0523 28.4419 17.0653 28.4589 17.0859 28.4661C17.0939 28.4855 17.1103 28.4982 17.1435 28.4881C18.4752 27.8998 20.0117 28.4094 20.6258 29.6439C20.6712 29.7087 20.7242 29.6372 20.7427 29.5864C21.4666 27.937 20.1101 26.5171 18.7549 26.8366Z" fill="white"/>
<path d="M21.7396 23.9597C22.0853 22.6032 20.6847 21.1925 19.0267 21.8926C18.9741 21.907 18.9051 21.9654 18.9665 22.0081C20.1829 22.6502 20.6603 24.2026 20.0479 25.5286C20.037 25.565 20.05 25.5819 20.0706 25.5891C20.0786 25.609 20.095 25.6217 20.1282 25.6111C21.4599 25.0228 22.9964 25.5324 23.6105 26.767C23.6555 26.8317 23.7085 26.7602 23.727 26.7094C24.4513 25.0605 23.0948 23.6401 21.7396 23.9597Z" fill="white"/>
<path d="M24.7245 21.0807C25.0702 19.7243 23.6696 18.3136 22.0115 19.0137C21.959 19.028 21.89 19.086 21.9514 19.1292C23.1678 19.7712 23.6452 21.3237 23.0328 22.6497C23.0218 22.6861 23.0345 22.703 23.0559 22.7102C23.0635 22.7297 23.0799 22.7424 23.1131 22.7322C24.4448 22.1439 25.9812 22.6535 26.5953 23.8881C26.6408 23.9528 26.6938 23.8813 26.7118 23.8301C27.4366 22.1812 26.0792 20.7612 24.7245 21.0807Z" fill="white"/>
<path d="M27.7089 18.2018C28.0547 16.8454 26.654 15.4347 24.996 16.1348C24.943 16.1491 24.8744 16.2075 24.9358 16.2503C26.1518 16.8923 26.6296 18.4448 26.0172 19.7708C26.0059 19.8072 26.0193 19.8241 26.0404 19.8313C26.0479 19.8512 26.0643 19.8639 26.0976 19.8533C27.4292 19.265 28.9657 19.7746 29.5798 21.0092C29.6252 21.0739 29.6782 21.0024 29.6963 20.9512C30.4206 19.3027 29.0637 17.8823 27.7089 18.2018Z" fill="white"/>
<path d="M99.4185 10.9023H109.275C113.755 10.9023 116.816 13.9454 116.816 17.7774C116.816 20.2571 115.51 22.3606 113.606 23.3375V23.563C115.846 24.7274 117.302 27.2448 117.302 29.912C117.302 34.0445 113.83 37.2001 109.201 37.2001H99.4185V10.9023ZM108.976 22.0978C111.328 22.0978 113.046 20.4446 113.046 18.1528C113.046 15.8614 111.328 14.2459 108.976 14.2459H103.114V22.0978H108.976ZM109.312 33.8566C111.59 33.8566 113.531 31.9406 113.531 29.6492C113.531 27.3574 111.59 25.4037 109.312 25.4037H103.114V33.8566H109.312Z" fill="white"/>
<path d="M122.788 10.9023H132.645C137.125 10.9023 140.373 14.171 140.373 18.5286C140.373 22.0229 138.32 24.652 134.96 25.6665L141.307 37.2001H137.163L131.226 26.3433H126.484V37.2001H122.788V10.9023ZM132.272 22.9993C134.698 22.9993 136.603 21.0456 136.603 18.604C136.603 16.1996 134.698 14.2459 132.272 14.2459H126.484V22.9993H132.272Z" fill="white"/>
<path d="M146.568 10.9023H150.339L163.481 30.7382H163.705V10.9023H167.289V37.2001H163.519L150.339 17.3639H150.115V37.2001H146.568V10.9023Z" fill="white"/>
<path d="M173.223 24.0524C173.223 16.1633 178.823 10.4902 186.552 10.4902C194.28 10.4902 199.88 16.1633 199.88 24.0524C199.88 31.9416 194.28 37.6146 186.552 37.6146C178.823 37.6146 173.223 31.9416 173.223 24.0524ZM186.552 34.1957C192.152 34.1957 196.109 30.0256 196.109 24.0524C196.109 18.0789 192.152 13.9087 186.552 13.9087C180.914 13.9087 176.994 18.0789 176.994 24.0524C176.994 30.0256 180.914 34.1957 186.552 34.1957Z" fill="white"/>
<path d="M52.6009 22.0409C52.6812 22.0989 52.7283 22.1996 52.7031 22.3C52.4171 23.6742 52.317 24.5249 52.388 25.2131C52.4187 25.55 52.4823 25.8327 52.5449 26.0409C52.6173 26.2517 52.6959 26.3859 52.7498 26.4066C52.8053 26.4274 52.9508 26.3808 53.1296 26.2327C53.3172 26.0879 53.5325 25.8374 53.6995 25.4632C53.8669 25.0916 53.9721 24.5956 53.935 24.0187C53.8762 23.4469 53.7012 22.7774 53.2326 22.1662C53.1754 22.079 53.146 21.9673 53.1788 21.8666C53.3062 21.4988 53.3546 21.0942 53.2764 20.9054C53.1998 20.7103 53.0223 20.7653 52.6202 21.2194C52.0314 21.2309 51.8884 21.3676 51.9519 21.5047C52.0213 21.6448 52.3119 21.8234 52.6009 22.0409Z" fill="white"/>
<path d="M43.6175 20.3899C43.6086 20.287 43.6721 20.1982 43.7621 20.1558C44.3935 19.852 44.8738 19.6475 45.2843 19.4693C45.6873 19.2852 46.0124 19.1096 46.29 18.9318C46.5659 18.7553 46.7897 18.5772 46.9483 18.4282C47.1047 18.269 47.1922 18.1455 47.1872 18.0862C47.1821 18.0287 47.0774 17.9106 46.8671 17.8153C46.6555 17.7095 46.335 17.6207 45.9186 17.6418C45.5064 17.6626 44.9945 17.8022 44.5024 18.1535C44.0065 18.4904 43.5523 19.0719 43.3382 19.8101C43.3062 19.9129 43.2229 19.9946 43.1287 20.0344C42.9504 20.1012 42.7678 20.1829 42.6168 20.2718C42.4768 20.3666 42.3653 20.4656 42.3144 20.5537C42.2101 20.7365 42.3636 20.8423 42.9651 20.8787C43.3399 21.3379 43.5354 21.3654 43.6015 21.2309C43.636 21.1606 43.6419 21.0417 43.6339 20.891C43.6355 20.7475 43.6276 20.574 43.6175 20.3899Z" fill="white"/>
<path d="M46.7924 29.4919C46.7066 29.5376 46.5947 29.541 46.5177 29.4724C45.9554 29.0534 45.5634 28.6924 45.2126 28.4194C44.8584 28.1524 44.5682 27.9285 44.2763 27.7723C43.7253 27.4384 43.2361 27.2818 43.1238 27.3495C43.038 27.3973 42.8929 27.9475 43.3039 28.692C43.5205 29.0437 43.8675 29.453 44.4109 29.7234C44.9413 29.9994 45.6496 30.1619 46.4033 30.0099C46.5072 29.9981 46.6208 30.0159 46.6965 30.0912C46.9724 30.3693 47.3152 30.5822 47.5167 30.5957C47.7232 30.6109 47.7514 30.426 47.5192 29.8644C47.764 29.3256 47.7039 29.1364 47.5524 29.1347C47.3956 29.1343 47.11 29.3264 46.7924 29.4919Z" fill="white"/>
<path d="M52.3464 38.808C52.2908 38.8939 52.1878 38.9215 52.0906 38.9045C50.7186 38.6637 49.8118 38.7611 49.1602 39.0353C48.5133 39.2512 48.1567 39.6346 48.1592 39.7552C48.1617 39.8691 48.5441 40.2187 49.2801 40.3732C50.0002 40.4739 51.1178 40.3596 52.2366 39.4336C52.3148 39.3692 52.4254 39.3608 52.5184 39.3896C53.2069 39.619 53.9598 39.7286 53.1405 38.8508C53.1893 37.6687 52.7531 38.1952 52.3464 38.808Z" fill="white"/>
<path d="M62.4524 26.3539C62.502 26.439 62.4978 26.5473 62.4448 26.6307C62.0919 27.2266 61.7987 27.7277 61.6511 28.1878C61.5152 28.6512 61.4172 29.0436 61.4046 29.3906C61.3895 29.7364 61.4387 30.0301 61.5043 30.2443C61.5543 30.4521 61.6292 30.5829 61.6852 30.6057C61.7377 30.6269 61.8854 30.5867 62.0788 30.4648C62.2559 30.3365 62.4717 30.1224 62.6732 29.8071C62.873 29.4918 63.0791 29.0791 63.1316 28.5492C63.1968 28.024 63.2153 27.4056 62.9857 26.7077C62.9562 26.6099 62.9806 26.5029 63.0509 26.4301C63.3062 26.1647 63.5501 25.8697 63.5712 25.6903C63.5855 25.5091 63.4021 25.4571 62.8473 25.6437C62.3119 25.3682 62.1247 25.4012 62.1239 25.5671C62.1163 25.7334 62.2694 26.0407 62.4524 26.3539Z" fill="white"/>
<path d="M56.5796 11.2074C56.6763 11.2049 56.7676 11.2612 56.8139 11.3483C56.9741 11.6641 57.155 11.9096 57.303 12.1605C57.4524 12.4098 57.6063 12.6202 57.7632 12.8C58.0913 13.1441 58.3697 13.4319 58.6608 13.6169C59.2484 13.9788 59.7359 14.0757 59.8339 14.0033C59.9239 13.9369 60.0189 13.3985 59.6669 12.7344C59.4957 12.4014 59.2509 12.0052 58.816 11.6912C58.6057 11.5278 58.3651 11.3695 58.0938 11.2252C57.8238 11.0796 57.4869 10.9924 57.1403 10.9082C57.0414 10.8857 56.9602 10.8117 56.9304 10.7135C56.8757 10.5345 56.8135 10.3542 56.7441 10.2073C56.6683 10.0702 56.5889 9.96224 56.5127 9.91272C56.3584 9.81199 56.2292 9.95251 56.1354 10.5366C55.6471 10.8841 55.5912 11.0682 55.7329 11.1456C55.8048 11.1854 55.9289 11.1998 56.0824 11.2006C56.2288 11.2112 56.4017 11.2125 56.5796 11.2074Z" fill="white"/>
<path d="M45.8291 8.56346C45.8998 8.4949 46.0037 8.46104 46.097 8.5021C46.7574 8.77593 47.3076 8.87666 47.7871 8.93083C48.2657 9.00278 48.6724 8.97189 49.0127 8.89359C49.6878 8.759 50.1 8.47712 50.1185 8.34846C50.1349 8.24519 49.8199 7.79995 49.1162 7.55489C48.7654 7.44358 48.32 7.3729 47.7972 7.39745C47.2756 7.43977 46.675 7.63446 46.0478 7.95485C45.9595 7.9976 45.8514 8.01156 45.7648 7.95993C45.1292 7.60229 44.4117 7.34878 45.0544 8.36793C44.7873 9.51744 45.3164 9.08532 45.8291 8.56346Z" fill="white"/>
<path d="M33.5469 18.7949C33.5137 18.7034 33.5373 18.5981 33.6046 18.5257C33.8452 18.2679 34.0386 18.022 34.2014 17.7871C34.3869 17.5615 34.535 17.3444 34.6531 17.1349C34.7709 16.9254 34.8584 16.7227 34.924 16.5289C35.0077 16.3443 35.0662 16.167 35.1066 15.9998C35.2618 15.3302 35.1432 14.8135 35.0531 14.7538C34.9488 14.6848 34.4517 14.8071 33.9352 15.3561C33.8056 15.4919 33.6744 15.6532 33.549 15.8415C33.4422 16.0383 33.3434 16.2631 33.2592 16.5153C33.1751 16.7671 33.1066 17.046 33.0607 17.3495C33.0393 17.6614 33.0464 18.0004 33.0847 18.3585C33.0956 18.4592 33.0519 18.5608 32.9694 18.6205C32.3474 19.0577 31.9074 19.6405 33.059 19.4344C34.0382 20.1386 33.7787 19.4585 33.5469 18.7949Z" fill="white"/>
<path d="M36.7236 34.8564C36.6285 34.8386 36.5511 34.7641 36.5238 34.6689C36.4321 34.3269 36.3097 34.0463 36.2126 33.7725C36.1175 33.497 36.0102 33.2583 35.8933 33.0496C35.6447 32.6424 35.4226 32.3068 35.1779 32.0635C34.6786 31.586 34.2071 31.4002 34.1028 31.4489C33.9959 31.4993 33.8092 32.0017 34.0161 32.7241C34.1124 33.0868 34.2782 33.519 34.6374 33.9168C34.8086 34.1204 35.0109 34.3257 35.246 34.5229C35.4841 34.718 35.7919 34.8767 36.1137 35.0316C36.2054 35.0744 36.2698 35.1637 36.2786 35.2661C36.3013 35.6474 36.3901 36.0101 36.5225 36.1358C36.6525 36.267 36.8073 36.157 37.0201 35.6043C37.569 35.3672 37.662 35.1988 37.54 35.093C37.4126 34.9893 37.0651 34.9309 36.7236 34.8564Z" fill="white"/>
<path d="M60.6115 33.4747C60.6136 33.5724 60.5589 33.6634 60.4735 33.7083C59.8855 34.0456 59.3812 34.3212 59.0355 34.6449C58.8576 34.802 58.7162 34.9683 58.5879 35.1232C58.4517 35.2692 58.341 35.4169 58.2515 35.5608C57.8935 36.1351 57.8552 36.6621 57.9305 36.756C58.0012 36.8449 58.5034 36.8834 59.1583 36.5457C59.3219 36.4615 59.4939 36.3544 59.6689 36.2206C59.8346 36.078 59.9915 35.8973 60.1488 35.6916C60.4525 35.2722 60.7734 34.7605 60.9047 34.0452C60.9261 33.9466 60.998 33.8666 61.0935 33.8395C61.7947 33.6372 62.474 33.3109 61.2937 33.0637C60.654 32.0894 60.5926 32.7594 60.6115 33.4747Z" fill="white"/>
<path d="M60.2271 11.3506C60.3214 11.3747 60.3853 11.4585 60.4013 11.5558C60.4984 12.2567 60.7079 12.7604 60.882 13.2048C61.0591 13.6462 61.2879 13.9746 61.5251 14.2235C61.9659 14.7343 62.4181 14.9443 62.5363 14.8964C62.6347 14.8579 62.8576 14.3695 62.7277 13.6411C62.6469 13.286 62.4837 12.8691 62.2002 12.4353C61.9205 12.0006 61.4309 11.6007 60.8429 11.2325C60.7575 11.1821 60.7087 11.0848 60.7087 10.9849C60.6865 10.2666 60.5338 9.53233 59.9954 10.5993C58.8774 10.9701 59.5184 11.1901 60.2271 11.3506Z" fill="white"/>
<path d="M38.0357 8.74582C38.0681 8.65524 38.1526 8.59218 38.2498 8.58202C38.9383 8.50923 39.4595 8.34924 39.9175 8.21212C40.3659 8.06102 40.6961 7.82655 40.9674 7.62551C41.512 7.23529 41.7379 6.76634 41.7009 6.65164C41.6656 6.54329 41.2063 6.31729 40.4685 6.37993C40.1034 6.41675 39.6904 6.57885 39.2433 6.83744C38.7886 7.07996 38.3524 7.52817 37.9596 8.11689C37.9041 8.19942 37.8073 8.24682 37.7068 8.23709C36.964 8.16514 36.2586 8.31623 37.2656 8.91173C37.5693 10.079 37.7981 9.40183 38.0357 8.74582Z" fill="white"/>
<path d="M31.4816 28.429C31.4059 28.3673 31.3731 28.2661 31.3942 28.1713C31.522 27.503 31.6368 26.9325 31.612 26.4546C31.5923 25.9764 31.4959 25.5802 31.4026 25.2531C31.1889 24.6047 30.8091 24.2483 30.6892 24.25C30.5761 24.2517 30.2274 24.6258 30.0709 25.3436C29.9788 25.7021 29.9809 26.1431 30.1004 26.6459C30.224 27.1462 30.4049 27.7184 30.8596 28.2834C30.9205 28.3634 30.9344 28.4705 30.8928 28.5611C30.5908 29.2281 30.3965 29.9569 31.35 29.218C32.5033 29.3644 32.0352 28.8798 31.4816 28.429Z" fill="white"/>
<path d="M46.7456 41.8887C46.6665 41.9454 46.5609 41.9509 46.4756 41.9048C45.8665 41.6013 45.3496 41.3652 44.889 41.2484C44.4284 41.1332 44.023 41.1358 43.689 41.1328C43.0169 41.1603 42.5685 41.4278 42.5357 41.5438C42.5046 41.6534 42.7624 42.094 43.4101 42.4461C43.7302 42.6387 44.1576 42.7403 44.672 42.7657C45.1847 42.7932 45.7853 42.7428 46.4444 42.4533C46.537 42.4161 46.643 42.4309 46.7191 42.4952C47.2802 42.9654 47.9279 43.3472 47.4682 42.226C47.9098 41.1464 47.3222 41.4714 46.7456 41.8887Z" fill="white"/>
</g>
<defs>
<clipPath id="clip0_4356_12307">
<rect width="200" height="51" fill="white"/>
</clipPath>
</defs>
</svg>
