<svg width="951" height="241" viewBox="0 0 951 241" fill="none" xmlns="http://www.w3.org/2000/svg">
<g clip-path="url(#clip0_3801_1045)">
<path d="M342.809 150.438L342.477 150.562C342.483 150.504 342.487 150.458 342.491 150.392C342.463 149.606 342.067 148.83 341.577 148.894C341.087 148.96 340.753 149.824 340.841 150.594C340.881 150.954 341.001 151.226 341.153 151.416C340.207 151.042 338.915 151.042 337.485 151.234C336.153 151.538 334.705 152.07 333.605 152.806C332.525 153.584 331.865 154.36 331.535 155.102C331.393 155.398 331.127 155.644 330.819 155.744C329.975 155.99 329.151 156.544 328.541 157.388C327.679 158.516 327.695 160.06 328.339 161.152C329.605 163.22 332.255 163.342 333.907 161.994C334.321 161.636 334.625 161.198 334.829 160.714C334.943 160.422 335.209 160.242 335.517 160.236C336.259 160.2 337.051 159.926 337.927 159.286C338.805 158.7 339.681 157.976 340.425 157.09C341.201 156.35 341.853 155.4 342.261 154.574C342.269 154.806 342.355 155.088 342.535 155.406C342.927 156.086 343.535 156.672 343.817 156.508C344.101 156.344 344.017 155.476 343.687 154.78C343.655 154.728 343.633 154.692 343.603 154.644C343.697 154.628 343.789 154.618 343.881 154.59C345.075 154.254 345.987 153.242 345.873 152.028C345.773 150.884 344.355 150.016 342.809 150.438Z" fill="#245745"/>
<path d="M315.071 180.539L314.883 180.839C314.851 180.787 314.825 180.749 314.791 180.695C314.293 180.085 313.509 179.705 313.157 180.053C312.805 180.399 313.061 181.291 313.597 181.851C313.847 182.115 314.105 182.259 314.343 182.319C313.363 182.591 312.333 183.373 311.309 184.389C310.431 185.435 309.597 186.735 309.167 187.985C308.773 189.257 308.719 190.275 308.903 191.065C308.967 191.389 308.905 191.745 308.719 192.009C308.197 192.717 307.875 193.655 307.897 194.695C307.891 196.115 308.837 197.337 310.009 197.817C312.267 198.701 314.453 197.197 314.957 195.125C315.069 194.591 315.047 194.059 314.917 193.549C314.831 193.247 314.935 192.943 315.177 192.751C315.747 192.275 316.213 191.579 316.525 190.539C316.871 189.543 317.131 188.435 317.189 187.281C317.359 186.223 317.307 185.071 317.131 184.165C317.279 184.347 317.517 184.519 317.853 184.665C318.577 184.969 319.415 185.069 319.541 184.767C319.669 184.467 319.077 183.825 318.393 183.469C318.337 183.447 318.297 183.433 318.245 183.411C318.309 183.343 318.375 183.277 318.433 183.199C319.181 182.211 319.297 180.855 318.473 179.957C317.703 179.103 316.049 179.267 315.071 180.539Z" fill="#245745"/>
<path d="M302.847 182.014L302.601 182.268C302.581 182.212 302.563 182.17 302.541 182.108C302.177 181.41 301.487 180.878 301.073 181.146C300.657 181.416 300.727 182.34 301.137 182.998C301.327 183.306 301.551 183.5 301.771 183.608C300.755 183.674 299.587 184.228 298.379 185.016C297.305 185.86 296.225 186.962 295.547 188.098C294.903 189.264 294.641 190.248 294.659 191.06C294.659 191.39 294.523 191.726 294.287 191.946C293.631 192.532 293.125 193.384 292.935 194.408C292.639 195.796 293.317 197.186 294.367 197.896C296.395 199.222 298.841 198.196 299.759 196.27C299.977 195.77 300.065 195.244 300.041 194.72C300.019 194.404 300.181 194.128 300.459 193.992C301.113 193.642 301.713 193.054 302.229 192.1C302.771 191.194 303.253 190.164 303.545 189.046C303.927 188.044 304.111 186.908 304.125 185.986C304.233 186.192 304.429 186.41 304.729 186.62C305.375 187.066 306.175 187.336 306.361 187.066C306.547 186.796 306.099 186.048 305.501 185.56C305.449 185.528 305.415 185.504 305.367 185.474C305.445 185.42 305.523 185.37 305.595 185.304C306.529 184.49 306.919 183.186 306.297 182.138C305.717 181.146 304.063 180.968 302.847 182.014Z" fill="#245745"/>
<path d="M366.086 153.392L365.778 153.39C365.802 153.336 365.82 153.294 365.846 153.234C366.076 152.49 366.01 151.624 365.648 151.514C365.268 151.414 364.802 152.05 364.534 152.786C364.416 153.128 364.386 153.422 364.422 153.658C363.3 152.226 361.098 150.662 358.784 149.97C357.652 149.624 356.614 149.598 355.864 149.802C355.556 149.882 355.18 149.832 354.916 149.626C354.208 149.07 353.242 148.724 352.122 148.8C350.63 148.834 349.332 149.884 349.002 151.074C348.438 153.41 349.942 155.45 351.858 155.85C352.362 155.938 352.888 155.954 353.382 155.824C353.674 155.758 353.97 155.84 354.18 156.076C354.7 156.65 355.398 157.08 356.576 157.44C358.822 158.118 362.194 158.112 363.93 156.966C363.816 157.178 363.752 157.466 363.778 157.832C363.824 158.606 364.32 159.45 364.746 159.4C365.188 159.366 365.446 158.532 365.362 157.756C365.348 157.696 365.338 157.654 365.326 157.598L365.65 157.656C367.128 157.822 368.386 156.92 368.438 155.728C368.488 154.554 367.438 153.546 366.086 153.392Z" fill="#245745"/>
<path d="M386.835 149.192L386.595 149.378C386.581 149.32 386.571 149.276 386.555 149.214C386.279 148.478 385.711 147.848 385.361 147.954C385.013 148.06 384.995 148.906 385.233 149.648C385.347 149.994 385.501 150.244 385.675 150.408C383.839 149.974 381.185 150.192 379.219 150.744C378.229 151.084 377.503 151.414 377.013 151.964C376.813 152.188 376.513 152.266 376.233 152.166C375.485 151.896 374.697 151.944 373.855 152.22C372.731 152.66 371.799 153.696 371.521 154.94C370.967 157.278 372.933 159.372 375.565 159.088C376.209 158.994 376.801 158.772 377.297 158.462C377.591 158.284 377.961 158.248 378.287 158.336C379.077 158.55 380.143 158.642 381.445 158.208C384.069 157.468 386.679 155.238 387.295 153.334C387.335 153.572 387.459 153.838 387.701 154.112C388.215 154.7 389.055 155.068 389.411 154.78C389.765 154.492 389.453 153.656 388.917 153.1C388.869 153.06 388.837 153.034 388.793 152.998L389.087 152.84C390.379 152.04 390.811 150.558 390.107 149.588C389.421 148.642 387.965 148.492 386.835 149.192Z" fill="#245745"/>
<path d="M389.313 131.604L389.153 131.862C389.119 131.812 389.093 131.776 389.057 131.722C388.545 131.126 387.793 130.732 387.503 130.952C387.213 131.17 387.489 131.972 387.967 132.586C388.193 132.872 388.425 133.052 388.645 133.146C386.773 133.374 384.357 134.496 382.703 135.694C381.891 136.354 381.325 136.916 381.055 137.602C380.945 137.88 380.689 138.056 380.393 138.06C379.599 138.064 378.875 138.382 378.179 138.934C377.277 139.732 376.761 141.028 376.929 142.292C377.219 144.676 379.787 145.962 382.159 144.786C382.731 144.476 383.209 144.062 383.569 143.6C383.781 143.332 384.117 143.168 384.453 143.138C385.267 143.068 386.299 142.784 387.373 141.928C389.579 140.326 391.257 137.33 391.177 135.332C391.297 135.54 391.505 135.748 391.827 135.922C392.513 136.296 393.427 136.35 393.663 135.958C393.895 135.564 393.313 134.888 392.617 134.552C392.559 134.53 392.519 134.516 392.465 134.498L392.689 134.248C393.623 133.05 393.517 131.512 392.521 130.844C391.549 130.196 390.131 130.556 389.313 131.604Z" fill="#245745"/>
<path d="M402.703 134.013L402.549 134.273C402.513 134.229 402.485 134.193 402.445 134.143C401.901 133.595 401.103 133.241 400.827 133.491C400.553 133.741 400.887 134.529 401.415 135.103C401.663 135.371 401.911 135.531 402.135 135.607C400.291 135.989 397.901 137.379 396.381 138.949C395.553 139.765 395.111 140.551 394.931 141.289C394.855 141.583 394.635 141.829 394.341 141.917C393.553 142.153 392.845 142.675 392.315 143.433C391.611 144.495 391.501 145.905 392.047 147.057C393.055 149.241 395.859 149.665 397.715 148.003C398.161 147.585 398.495 147.095 398.709 146.577C398.835 146.271 399.109 146.047 399.431 145.975C400.203 145.791 401.029 145.307 401.919 144.427C403.721 142.581 405.079 139.567 404.837 137.579C404.975 137.777 405.201 137.967 405.535 138.113C406.247 138.431 407.155 138.419 407.349 138.015C407.545 137.609 406.935 136.991 406.207 136.699C406.147 136.683 406.105 136.671 406.049 136.655L406.265 136.401C407.067 135.123 406.879 133.607 405.851 133.021C404.823 132.435 403.411 132.879 402.703 134.013Z" fill="#245745"/>
<path d="M319.78 159.3L319.692 159.59C319.646 159.554 319.61 159.526 319.56 159.488C318.902 159.084 318.042 158.928 317.834 159.236C317.626 159.544 318.138 160.23 318.788 160.664C319.092 160.864 319.368 160.962 319.606 160.982C317.904 161.79 315.91 163.708 314.806 165.59C314.194 166.58 313.95 167.448 313.95 168.206C313.946 168.512 313.79 168.802 313.526 168.958C312.814 169.374 312.252 170.048 311.914 170.91C311.484 172.108 311.71 173.504 312.512 174.494C314.008 176.378 316.832 176.128 318.244 174.072C318.578 173.562 318.786 173.006 318.872 172.452C318.922 172.126 319.136 171.842 319.43 171.696C320.138 171.334 320.824 170.67 321.482 169.604C322.796 167.384 323.404 164.134 322.698 162.26C322.878 162.418 323.142 162.55 323.502 162.614C324.268 162.754 325.148 162.528 325.24 162.088C325.334 161.65 324.598 161.192 323.818 161.08C323.758 161.08 323.714 161.078 323.656 161.076L323.804 160.776C324.284 159.346 323.742 157.918 322.604 157.592C321.466 157.266 320.2 158.03 319.78 159.3Z" fill="#245745"/>
<path d="M409.449 113.492L409.463 113.798C409.407 113.776 409.365 113.76 409.305 113.738C408.547 113.542 407.695 113.644 407.593 114.004C407.481 114.364 408.167 114.872 408.913 115.096C409.261 115.198 409.555 115.21 409.787 115.16C408.401 116.434 407.073 118.884 406.561 120.974C406.283 122.036 406.313 122.89 406.489 123.588C406.569 123.874 406.497 124.184 406.287 124.392C405.747 124.958 405.295 125.666 405.205 126.574C405.065 127.794 405.541 129.088 406.549 129.914C408.351 131.462 411.157 130.674 412.065 128.246C412.303 127.656 412.393 127.048 412.329 126.464C412.297 126.124 412.431 125.786 412.681 125.556C413.307 125.008 413.789 124.126 414.121 122.85C414.747 120.316 414.345 117.054 413.119 115.472C413.337 115.57 413.629 115.618 413.991 115.574C414.767 115.482 415.545 115.012 415.509 114.568C415.465 114.124 414.611 113.902 413.843 114.022C413.785 114.038 413.743 114.05 413.689 114.064L413.729 113.736C413.815 112.238 412.861 111.03 411.663 111.038C410.493 111.046 409.527 112.146 409.449 113.492Z" fill="#245745"/>
<path d="M423.724 47.1837L423.47 47.3537C423.46 47.2957 423.45 47.2517 423.44 47.1897C423.212 46.4397 422.678 45.7657 422.318 45.8677C421.954 45.9577 421.878 46.8077 422.076 47.5617C422.17 47.9137 422.314 48.1697 422.478 48.3417C420.668 47.8237 417.884 47.9677 415.834 48.6197C414.782 48.9357 414.07 49.4077 413.566 49.9217C413.362 50.1377 413.06 50.2397 412.774 50.1677C412.01 50.0017 411.17 49.9857 410.348 50.3837C409.234 50.8977 408.378 51.9777 408.198 53.2717C407.818 55.6157 409.952 57.5997 412.498 57.1077C413.126 57.0037 413.692 56.7637 414.154 56.4037C414.428 56.1997 414.788 56.1377 415.114 56.2317C415.908 56.4797 416.912 56.4317 418.174 56.0497C420.664 55.2617 423.238 53.2177 423.948 51.3477C423.978 51.5857 424.088 51.8577 424.316 52.1437C424.798 52.7597 425.604 53.1777 425.964 52.9177C426.32 52.6457 426.064 51.8017 425.562 51.2097C425.518 51.1677 425.486 51.1377 425.446 51.0997L425.748 50.9637C427.072 50.2557 427.604 48.8117 426.972 47.7937C426.356 46.7997 424.912 46.5477 423.724 47.1837Z" fill="#245745"/>
<path d="M407.454 90.6429V90.9889C407.4 90.9669 407.358 90.9489 407.3 90.9249C406.55 90.7129 405.68 90.8469 405.574 91.3149C405.498 91.7809 406.234 92.3509 406.998 92.5129C407.356 92.5889 407.65 92.5649 407.876 92.4849C406.498 93.9949 405.956 97.3929 406.444 99.8309C406.668 101.059 407.098 101.907 407.604 102.447C407.814 102.671 407.904 102.989 407.822 103.283C407.586 104.083 407.608 104.833 407.93 105.707C408.386 106.865 409.482 107.765 410.732 107.989C413.092 108.431 415.088 106.409 414.75 103.855C414.648 103.223 414.436 102.605 414.108 102.159C413.918 101.887 413.876 101.537 413.986 101.227C414.26 100.465 414.312 99.5589 414.102 98.4089C413.666 96.1749 412.486 93.8149 411.222 92.4609C411.45 92.5309 411.744 92.5429 412.1 92.4729C412.862 92.3189 413.588 91.9049 413.506 91.5649C413.456 91.2289 412.616 91.0389 411.84 91.1429C411.782 91.1569 411.74 91.1669 411.684 91.1809C411.702 91.0849 411.726 90.9909 411.734 90.8929C411.792 89.6129 411.038 88.4229 409.884 88.2089C408.71 87.9949 407.532 89.0729 407.454 90.6429Z" fill="#245745"/>
<path d="M399.256 81.1674L399.15 81.4974C399.106 81.4594 399.072 81.4294 399.022 81.3894C398.374 80.9574 397.504 80.8194 397.26 81.2334C397.046 81.6514 397.572 82.4194 398.252 82.8074C398.568 82.9914 398.854 83.0574 399.096 83.0494C397.32 84.0654 395.766 87.1354 395.484 89.6054C395.322 90.8434 395.47 91.7834 395.79 92.4514C395.92 92.7294 395.908 93.0594 395.74 93.3154C395.272 94.0034 395.062 94.7234 395.102 95.6554C395.182 96.8974 395.95 98.0894 397.07 98.6854C399.182 99.8274 401.702 98.5114 402.16 95.9774C402.258 95.3454 402.244 94.6934 402.07 94.1674C401.972 93.8494 402.038 93.5034 402.238 93.2434C402.732 92.5994 403.058 91.7534 403.21 90.5954C403.478 88.3354 403.076 85.7274 402.288 84.0514C402.484 84.1874 402.76 84.2874 403.12 84.3314C403.892 84.4174 404.71 84.2454 404.736 83.8954C404.79 83.5614 404.05 83.1234 403.28 82.9834C403.218 82.9794 403.176 82.9774 403.12 82.9734C403.166 82.8874 403.216 82.8054 403.254 82.7154C403.702 81.5134 403.348 80.1494 402.314 79.5934C401.262 79.0294 399.81 79.6974 399.256 81.1674Z" fill="#245745"/>
<path d="M418.022 69.1268L417.822 69.3908C417.794 69.3388 417.772 69.2988 417.74 69.2428C417.288 68.6028 416.546 68.1508 416.2 68.4228C415.856 68.6948 416.056 69.5708 416.524 70.1948C416.742 70.4868 416.976 70.6648 417.198 70.7568C415.22 70.9488 412.55 72.8248 411.128 75.0468C410.422 76.1788 410.064 77.1108 410.112 77.9748C410.12 78.3168 409.978 78.6588 409.714 78.8768C409 79.4548 408.414 80.3168 408.268 81.4248C407.994 82.8948 408.63 84.3048 409.774 84.9528C411.854 86.0788 414.286 85.0568 415.066 83.2488C415.28 82.7788 415.406 82.2928 415.396 81.7908C415.394 81.4948 415.556 81.2288 415.814 81.0908C416.404 80.7428 417.092 80.2068 417.662 79.2868C418.802 77.5008 419.746 74.8468 419.72 72.9548C419.842 73.1588 420.052 73.3648 420.368 73.5468C421.046 73.9328 421.898 74.0748 422.09 73.7448C422.282 73.4148 421.756 72.7188 421.092 72.3148C421.036 72.2888 420.998 72.2708 420.946 72.2468L421.17 72.0368C422.056 71.0028 422.246 69.5928 421.392 68.7348C420.576 67.9148 418.994 68.0028 418.022 69.1268Z" fill="#245745"/>
<path d="M433.211 51.2944L432.985 51.5384C432.963 51.4824 432.945 51.4424 432.919 51.3824C432.533 50.7004 431.839 50.1764 431.469 50.4124C431.099 50.6484 431.211 51.5404 431.613 52.2064C431.801 52.5184 432.017 52.7204 432.229 52.8324C430.241 52.8264 427.397 54.4264 425.761 56.4964C424.943 57.5524 424.495 58.4424 424.457 59.3084C424.431 59.6504 424.255 59.9764 423.969 60.1664C423.203 60.6704 422.533 61.4684 422.279 62.5564C421.859 63.9924 422.349 65.4584 423.423 66.2184C425.381 67.5464 427.901 66.7724 428.859 65.0504C429.119 64.6044 429.293 64.1324 429.333 63.6324C429.361 63.3384 429.549 63.0904 429.819 62.9784C430.443 62.6904 431.179 62.2264 431.839 61.3684C433.151 59.7044 434.355 57.1564 434.517 55.2744C434.619 55.4884 434.809 55.7144 435.105 55.9264C435.739 56.3784 436.573 56.6044 436.797 56.2964C437.021 55.9844 436.567 55.2404 435.947 54.7744C435.895 54.7424 435.859 54.7204 435.809 54.6924L436.053 54.5044C437.039 53.5644 437.367 52.1784 436.603 51.2404C435.873 50.3424 434.291 50.2724 433.211 51.2944Z" fill="#245745"/>
<path d="M355.298 162.376L354.952 162.372C354.976 162.318 354.996 162.276 355.022 162.218C355.268 161.474 355.16 160.602 354.69 160.49C354.254 160.392 353.692 161.1 353.512 161.856C353.426 162.21 353.436 162.504 353.506 162.734C352.12 161.366 349.168 160.52 346.766 160.73C345.55 160.824 344.664 161.186 344.052 161.662C343.802 161.864 343.468 161.94 343.16 161.848C342.34 161.592 341.372 161.646 340.43 162.088C339.144 162.686 338.324 164.038 338.472 165.306C338.846 167.65 340.842 169.092 342.738 168.758C343.234 168.668 343.678 168.452 344.084 168.166C344.318 167.996 344.624 167.976 344.884 168.106C345.526 168.442 346.332 168.574 347.41 168.494C349.526 168.308 352.074 167.34 353.408 166.078C353.334 166.302 353.31 166.596 353.364 166.954C353.486 167.724 353.856 168.474 354.188 168.41C354.482 168.358 354.684 167.52 354.628 166.748C354.618 166.688 354.61 166.646 354.602 166.59C354.686 166.61 354.77 166.632 354.858 166.64C355.19 166.662 355.312 166.646 355.574 166.568C355.894 166.524 356.196 166.426 356.46 166.282C356.99 165.994 357.37 165.526 357.49 164.946C357.61 164.366 357.452 163.788 357.112 163.322C356.942 163.088 356.726 162.884 356.472 162.722C356.152 162.556 355.644 162.394 355.298 162.376Z" fill="#245745"/>
<path d="M332.034 168.779L331.822 169.051C331.794 168.999 331.772 168.959 331.742 168.903C331.298 168.257 330.54 167.815 330.164 168.121C329.824 168.407 330.046 169.283 330.538 169.885C330.768 170.169 331.008 170.337 331.234 170.423C329.306 170.695 326.844 172.533 325.558 174.573C324.894 175.597 324.646 176.521 324.656 177.295C324.664 177.617 324.522 177.931 324.262 178.119C323.562 178.615 323.018 179.419 322.802 180.435C322.498 181.821 323.078 183.293 324.174 183.943C326.266 185.065 328.626 184.349 329.508 182.639C329.734 182.191 329.832 181.705 329.85 181.211C329.856 180.919 330.026 180.663 330.286 180.535C330.942 180.229 331.538 179.667 332.126 178.761C333.258 176.965 334.03 174.351 333.836 172.525C333.968 172.719 334.188 172.917 334.506 173.091C335.192 173.461 336.014 173.619 336.164 173.317C336.3 173.051 335.754 172.383 335.108 171.959C335.054 171.931 335.016 171.911 334.966 171.887C335.032 171.829 335.102 171.777 335.162 171.711C335.378 171.461 335.44 171.353 335.536 171.099C335.696 170.817 335.8 170.517 335.846 170.219C335.938 169.625 335.796 169.037 335.408 168.591C335.018 168.145 334.462 167.919 333.886 167.907C333.596 167.903 333.302 167.951 333.02 168.055C332.694 168.209 332.258 168.515 332.034 168.779Z" fill="#245745"/>
<path d="M376.514 163.542C376.416 163.558 376.324 163.588 376.232 163.616C376.24 163.558 376.246 163.512 376.256 163.45C376.292 162.67 376.026 161.848 375.67 161.828C375.312 161.798 374.966 162.556 374.906 163.332C374.88 163.692 374.928 163.984 375.022 164.202C373.554 163.064 370.974 162.326 368.878 162.302C367.812 162.268 367.012 162.488 366.396 162.876C366.146 163.04 365.838 163.026 365.59 162.872C364.93 162.448 364.14 162.256 363.262 162.418C362.08 162.592 361 163.45 360.524 164.648C359.614 166.838 361.066 169.244 363.458 169.458C364.048 169.51 364.618 169.43 365.128 169.242C365.428 169.126 365.766 169.196 366.032 169.362C366.674 169.786 367.582 170.056 368.814 170.09C371.254 170.12 374.162 169.008 375.394 167.528C375.346 167.76 375.36 168.054 375.472 168.402C375.712 169.142 376.3 169.828 376.702 169.698C377.102 169.556 377.144 168.684 376.882 167.954C376.854 167.898 376.836 167.86 376.812 167.81L377.126 167.786C378.528 167.558 379.476 166.43 379.242 165.27C379.008 164.11 377.786 163.334 376.514 163.542Z" fill="#245745"/>
<path d="M305.322 162.775C305.282 162.867 305.26 162.959 305.23 163.053C305.186 163.015 305.152 162.985 305.104 162.943C304.468 162.491 303.632 162.271 303.424 162.561C303.206 162.847 303.656 163.545 304.276 164.015C304.566 164.233 304.836 164.349 305.072 164.387C303.32 165.009 301.306 166.781 300.156 168.533C299.552 169.413 299.304 170.203 299.298 170.931C299.3 171.231 299.122 171.483 298.86 171.607C298.146 171.933 297.558 172.497 297.22 173.321C296.728 174.411 296.868 175.783 297.618 176.831C298.97 178.781 301.78 178.857 303.25 176.959C303.614 176.491 303.854 175.967 303.972 175.437C304.036 175.121 304.276 174.875 304.56 174.741C305.266 174.429 305.982 173.811 306.676 172.793C308.02 170.755 308.652 167.707 308.072 165.869C308.242 166.035 308.496 166.183 308.85 166.275C309.602 166.475 310.498 166.349 310.606 165.941C310.702 165.527 309.99 165.021 309.232 164.847C309.172 164.841 309.13 164.835 309.074 164.829L309.224 164.553C309.79 163.247 309.352 161.841 308.25 161.413C307.146 160.983 305.834 161.593 305.322 162.775Z" fill="#245745"/>
<path d="M396.018 156.239C395.934 156.293 395.862 156.357 395.786 156.419C395.77 156.363 395.758 156.319 395.742 156.257C395.454 155.535 394.872 154.893 394.534 155.017C394.196 155.143 394.21 156.003 394.476 156.737C394.602 157.081 394.766 157.323 394.942 157.481C393.11 157.011 390.476 157.455 388.556 158.269C387.604 158.743 386.94 159.193 386.538 159.795C386.372 160.033 386.096 160.169 385.812 160.133C385.056 160.055 384.254 160.171 383.514 160.639C382.518 161.287 381.888 162.545 381.912 163.799C381.948 166.209 384.224 167.775 386.536 167.031C387.112 166.871 387.594 166.533 387.982 166.139C388.21 165.907 388.538 165.807 388.856 165.863C389.62 165.989 390.594 165.937 391.708 165.393C393.966 164.431 396.122 162.169 396.654 160.355C396.708 160.589 396.844 160.853 397.088 161.119C397.61 161.691 398.412 162.049 398.72 161.761C399.028 161.475 398.708 160.665 398.166 160.103C398.12 160.065 398.086 160.037 398.044 160.001L398.322 159.855C399.526 159.107 399.914 157.675 399.216 156.695C398.54 155.747 397.118 155.559 396.018 156.239Z" fill="#245745"/>
<path d="M411.34 141.905C411.282 141.987 411.24 142.073 411.194 142.159C411.158 142.111 411.13 142.075 411.092 142.025C410.56 141.455 409.786 141.067 409.52 141.311C409.266 141.559 409.556 142.331 410.07 142.915C410.308 143.187 410.55 143.357 410.774 143.441C409.838 143.551 408.788 143.959 407.818 144.537C406.8 145.081 405.832 145.775 405.118 146.555C404.364 147.321 403.934 148.031 403.784 148.743C403.722 149.031 403.518 149.267 403.238 149.345C402.506 149.575 401.796 149.993 401.294 150.725C400.612 151.711 400.546 153.139 401.076 154.281C402.08 156.473 404.762 156.969 406.582 155.417C407.044 155.045 407.362 154.565 407.556 154.051C407.674 153.751 407.934 153.533 408.246 153.467C408.996 153.297 409.838 152.865 410.696 151.993C411.516 151.103 412.268 149.971 412.776 148.819C413.244 147.629 413.49 146.443 413.414 145.497C413.546 145.693 413.766 145.889 414.094 146.051C414.79 146.397 415.7 146.465 415.87 146.075C416.048 145.691 415.454 145.053 414.748 144.727C414.69 144.707 414.65 144.695 414.596 144.677L414.8 144.437C415.622 143.281 415.484 141.819 414.492 141.171C413.5 140.525 412.088 140.853 411.34 141.905Z" fill="#245745"/>
<path d="M419.906 122.905C419.882 123.003 419.876 123.097 419.864 123.193C419.814 123.165 419.774 123.143 419.718 123.113C419.006 122.811 418.136 122.771 417.98 123.097C417.822 123.423 418.432 124.013 419.14 124.339C419.47 124.491 419.76 124.545 419.996 124.533C418.436 125.519 416.844 127.685 416.074 129.619C415.722 130.621 415.616 131.429 415.736 132.129C415.788 132.415 415.688 132.705 415.46 132.881C414.866 133.359 414.404 134.021 414.202 134.873C413.952 136.033 414.412 137.371 415.32 138.235C417.06 139.905 419.764 139.383 420.872 137.229C421.166 136.709 421.248 136.119 421.252 135.573C421.248 135.249 421.41 134.945 421.676 134.761C422.326 134.317 422.932 133.573 423.348 132.405C424.254 130.127 424.222 127.007 423.244 125.337C423.446 125.463 423.728 125.553 424.09 125.567C424.868 125.599 425.696 125.281 425.718 124.861C425.74 124.439 424.942 124.099 424.16 124.091C424.098 124.097 424.056 124.101 423.998 124.105L424.098 123.807C424.388 122.417 423.61 121.127 422.45 120.943C421.272 120.757 420.17 121.643 419.906 122.905Z" fill="#245745"/>
<path d="M420.245 101.943C420.259 102.043 420.289 102.135 420.315 102.229C420.257 102.221 420.213 102.215 420.149 102.207C419.375 102.187 418.553 102.475 418.529 102.841C418.507 103.207 419.293 103.533 420.071 103.571C420.435 103.589 420.723 103.531 420.939 103.431C419.855 104.935 419.205 107.581 419.271 109.687C419.345 110.759 419.539 111.551 419.951 112.149C420.113 112.393 420.141 112.701 420.003 112.955C419.659 113.637 419.449 114.433 419.647 115.299C419.923 116.475 420.807 117.505 422.019 117.927C424.261 118.741 426.583 117.171 426.687 114.767C426.727 114.175 426.627 113.609 426.389 113.109C426.253 112.815 426.279 112.473 426.447 112.201C426.845 111.541 427.135 110.623 427.055 109.399C426.979 106.973 425.775 104.143 424.251 102.963C424.487 103.003 424.779 102.981 425.123 102.859C425.855 102.599 426.507 102.001 426.371 101.607C426.235 101.215 425.367 101.195 424.637 101.473C424.583 101.501 424.543 101.521 424.493 101.547L424.473 101.235C424.277 100.017 423.269 99.1089 422.079 99.1529C420.901 99.1949 420.009 100.483 420.245 101.943Z" fill="#245745"/>
<path d="M422.528 79.2179L422.442 79.5359C422.398 79.4979 422.362 79.4699 422.312 79.4299C421.654 79.0039 420.796 78.8579 420.576 79.2519C420.354 79.6439 420.87 80.3839 421.544 80.7659C421.86 80.9479 422.146 81.0179 422.388 81.0139C420.702 81.9679 419.072 84.7439 418.742 87.1679C418.558 88.3939 418.7 89.3319 419.042 90.0319C419.18 90.3179 419.168 90.6579 419.012 90.9339C418.602 91.6679 418.396 92.5879 418.606 93.5559C418.862 94.8779 419.906 95.9239 421.144 96.2039C423.482 96.6999 425.522 95.0219 425.636 92.9639C425.672 92.4399 425.576 91.9379 425.376 91.4759C425.256 91.2039 425.318 90.8979 425.508 90.6719C425.964 90.1179 426.29 89.3599 426.446 88.3099C426.734 86.2379 426.434 83.6719 425.574 82.0319C425.768 82.1639 426.046 82.2659 426.406 82.3139C427.18 82.4119 428.008 82.2699 428.042 81.9419C428.078 81.6119 427.326 81.1739 426.566 81.0319C426.506 81.0279 426.464 81.0239 426.408 81.0199C426.45 80.9359 426.494 80.8559 426.526 80.7679C426.978 79.6499 426.56 78.3339 425.548 77.7639C424.494 77.1739 423.092 77.8219 422.528 79.2179Z" fill="#245745"/>
<path d="M372.833 176.112L372.521 176.132C372.541 176.076 372.557 176.034 372.579 175.974C372.759 175.214 372.633 174.356 372.263 174.272C371.895 174.202 371.395 174.894 371.183 175.63C371.085 175.978 371.081 176.274 371.137 176.508C370.533 175.834 369.653 175.216 368.681 174.732C368.197 174.464 367.697 174.19 367.187 173.978C366.919 173.876 366.663 173.778 366.417 173.686L366.033 173.564C365.729 173.496 365.433 173.43 365.141 173.364C364.849 173.354 364.571 173.344 364.297 173.334C363.119 173.306 362.219 173.504 361.545 173.87C361.269 174.022 360.929 174.03 360.655 173.874C359.921 173.466 359.049 173.272 358.103 173.418C356.823 173.614 355.709 174.474 355.207 175.66C354.219 177.858 355.895 180.262 358.455 180.476C359.083 180.53 359.689 180.446 360.227 180.246C360.545 180.132 360.905 180.176 361.185 180.358C361.869 180.802 362.811 181.09 364.115 181.122C364.361 181.128 364.371 181.124 364.393 181.112L364.399 181.1C364.449 181.106 364.177 181.048 364.361 181.076L364.849 181.12C365.163 181.134 365.493 181.146 365.837 181.16C366.497 181.162 367.151 181.138 367.777 181.038C369.033 180.786 370.143 180.378 370.891 179.844C370.795 180.062 370.751 180.354 370.805 180.718C370.917 181.506 371.421 182.278 371.881 182.2C372.343 182.134 372.549 181.284 372.405 180.516C372.387 180.458 372.375 180.416 372.357 180.362L372.697 180.396C374.249 180.452 375.465 179.476 375.413 178.268C375.363 177.11 374.207 176.162 372.833 176.112Z" fill="#245745"/>
<path d="M394.665 171.129L394.395 171.295C394.387 171.237 394.381 171.191 394.371 171.127C394.183 170.369 393.671 169.669 393.295 169.773C392.909 169.857 392.779 170.707 392.943 171.467C393.021 171.821 393.157 172.085 393.319 172.261C391.471 171.667 388.585 171.839 386.427 172.479C385.323 172.787 384.573 173.267 384.051 173.817C383.837 174.029 383.523 174.123 383.223 174.047C382.425 173.833 381.567 173.925 380.711 174.303C379.551 174.783 378.679 175.935 378.505 177.219C378.137 179.593 380.329 181.467 382.923 181.007C383.557 180.875 384.131 180.619 384.609 180.281C384.891 180.083 385.259 180.029 385.591 180.129C386.387 180.343 387.403 180.295 388.691 179.933C391.227 179.179 393.857 177.143 394.679 175.319C394.697 175.557 394.799 175.833 395.015 176.129C395.479 176.759 396.277 177.213 396.651 176.965C397.015 176.699 396.801 175.849 396.323 175.235C396.279 175.191 396.249 175.161 396.209 175.121L396.521 174.993C397.881 174.311 398.525 172.911 397.961 171.871C397.395 170.831 395.919 170.497 394.665 171.129Z" fill="#245745"/>
<path d="M429.692 157.361L429.564 157.653C429.524 157.609 429.494 157.575 429.45 157.527C428.862 157.009 428.044 156.727 427.794 157.027C427.524 157.315 427.9 158.087 428.468 158.619C428.736 158.867 428.996 159.005 429.23 159.059C427.372 159.621 425.098 161.405 423.686 163.161C422.954 164.041 422.61 164.863 422.496 165.613C422.44 165.909 422.236 166.167 421.946 166.273C421.166 166.553 420.514 167.117 420.026 167.915C419.344 168.969 419.286 170.413 419.872 171.567C420.922 173.729 423.79 174.021 425.66 172.165C426.108 171.697 426.434 171.161 426.634 170.611C426.752 170.287 427.024 170.033 427.354 169.927C428.132 169.649 428.94 169.031 429.792 167.999C431.448 165.937 432.45 162.767 432.088 160.799C432.24 160.983 432.48 161.153 432.826 161.273C433.566 161.527 434.482 161.445 434.648 161.029C434.794 160.603 434.136 160.025 433.392 159.793C433.332 159.783 433.29 159.775 433.234 159.763L433.418 159.481C434.148 158.147 433.88 156.629 432.824 156.095C431.766 155.561 430.364 156.127 429.692 157.361Z" fill="#245745"/>
<path d="M413.33 157.908L413.12 158.15C413.094 158.096 413.074 158.056 413.046 157.998C412.634 157.334 411.928 156.828 411.592 157.048C411.26 157.274 411.404 158.136 411.796 158.798C411.984 159.11 412.196 159.316 412.406 159.432C410.442 159.442 407.732 160.618 405.894 162.038C404.976 162.782 404.388 163.45 404.106 164.172C403.988 164.462 403.732 164.684 403.426 164.738C402.618 164.904 401.794 165.26 401.146 165.974C400.27 166.948 399.934 168.358 400.298 169.57C400.984 171.884 403.728 172.684 405.85 171.26C406.384 170.92 406.804 170.476 407.092 169.968C407.264 169.674 407.572 169.48 407.906 169.442C408.706 169.344 409.666 169.002 410.678 168.184C412.718 166.608 414.458 163.862 414.67 161.896C414.764 162.114 414.948 162.344 415.248 162.556C415.894 163.012 416.778 163.19 417.032 162.828C417.292 162.47 416.824 161.73 416.178 161.294C416.124 161.266 416.086 161.246 416.036 161.22L416.292 161.008C417.372 159.96 417.558 158.438 416.712 157.612C415.866 156.784 414.35 156.916 413.33 157.908Z" fill="#245745"/>
<path d="M427.017 139.786L426.911 140.082C426.867 140.042 426.835 140.01 426.787 139.966C426.161 139.502 425.321 139.282 425.095 139.592C424.877 139.906 425.317 140.644 425.917 141.128C426.201 141.352 426.471 141.472 426.707 141.51C424.877 142.188 422.777 144.102 421.445 145.944C420.789 146.894 420.489 147.738 420.395 148.482C420.363 148.79 420.181 149.07 419.901 149.206C419.165 149.576 418.525 150.186 418.079 151.038C417.495 152.204 417.589 153.672 418.285 154.73C419.609 156.75 422.439 156.724 424.091 154.778C424.505 154.3 424.759 153.728 424.911 153.17C424.995 152.838 425.239 152.564 425.553 152.434C426.327 152.13 427.093 151.47 427.851 150.378C429.387 148.246 430.171 144.962 429.687 143.032C429.851 143.204 430.103 143.358 430.459 143.45C431.223 143.652 432.127 143.494 432.239 143.046C432.361 142.604 431.661 142.08 430.897 141.91C430.837 141.904 430.793 141.9 430.737 141.894L430.903 141.596C431.575 140.208 431.121 138.694 430.015 138.262C428.915 137.834 427.623 138.538 427.017 139.786Z" fill="#245745"/>
<path d="M432.126 117.624L432.13 117.948C432.076 117.926 432.034 117.908 431.976 117.884C431.226 117.664 430.364 117.764 430.248 118.154C430.134 118.544 430.818 119.094 431.564 119.322C431.912 119.428 432.206 119.438 432.44 119.382C431.006 120.714 429.812 123.45 429.404 125.72C429.228 126.886 429.286 127.776 429.542 128.49C429.648 128.78 429.608 129.112 429.418 129.358C428.93 130.018 428.56 130.818 428.564 131.772C428.584 133.072 429.192 134.314 430.302 135.004C432.306 136.304 434.97 135.096 435.586 132.574C435.756 131.956 435.774 131.338 435.648 130.766C435.58 130.43 435.678 130.076 435.902 129.822C436.45 129.206 436.89 128.294 437.086 127.004C437.542 124.452 436.95 121.28 435.772 119.686C435.99 119.786 436.282 119.832 436.644 119.788C437.42 119.692 438.196 119.236 438.158 118.802C438.124 118.368 437.282 118.132 436.508 118.238C436.448 118.254 436.406 118.264 436.35 118.278C436.372 118.17 436.392 118.064 436.4 117.95C436.498 116.466 435.618 115.21 434.436 115.144C433.254 115.078 432.22 116.188 432.126 117.624Z" fill="#245745"/>
<path d="M430.254 94.6335C430.27 94.7475 430.3 94.8515 430.328 94.9595C430.27 94.9495 430.226 94.9395 430.162 94.9295C429.382 94.8775 428.562 95.1715 428.55 95.6035C428.54 96.0335 429.34 96.4335 430.12 96.4755C430.484 96.4955 430.772 96.4315 430.984 96.3195C429.916 97.9855 429.52 101.092 429.904 103.468C430.098 104.676 430.47 105.524 430.964 106.12C431.168 106.366 431.238 106.694 431.14 106.992C430.88 107.784 430.874 108.684 431.166 109.494C431.378 110.118 431.706 110.38 432.148 110.904C432.58 111.384 433.132 111.748 433.75 111.926C434.902 112.26 436.014 111.98 436.854 111.302C437.28 111.002 437.614 110.476 437.832 109.802C438.028 109.206 438.12 108.52 438.046 107.888C437.98 107.234 437.776 106.652 437.474 106.164C437.298 105.874 437.274 105.508 437.396 105.202C437.696 104.452 437.794 103.478 437.596 102.232C437.198 99.7775 435.81 97.0315 434.288 95.7975C434.524 95.8375 434.818 95.8095 435.158 95.6795C435.888 95.4015 436.536 94.8015 436.398 94.4135C436.262 94.0255 435.39 93.9895 434.66 94.2595C434.606 94.2875 434.566 94.3075 434.516 94.3315L434.496 94.0115C434.286 92.5975 433.21 91.5795 432.03 91.6955C430.854 91.8135 430.034 93.1535 430.254 94.6335Z" fill="#245745"/>
<path d="M331.271 140.004C331.245 140.092 331.233 140.182 331.219 140.272C331.169 140.238 331.133 140.212 331.081 140.176C330.391 139.792 329.573 139.638 329.383 139.888C329.183 140.134 329.699 140.764 330.337 141.206C330.635 141.41 330.909 141.52 331.145 141.552C329.513 142.224 327.419 143.668 326.177 145.272C325.493 146.072 325.125 146.81 325.029 147.532C324.987 147.822 324.807 148.074 324.533 148.17C323.763 148.402 323.085 148.888 322.619 149.664C322.013 150.734 321.915 152.114 322.519 153.248C323.617 155.358 326.401 155.792 328.149 154.052C328.587 153.632 328.907 153.14 329.105 152.626C329.215 152.312 329.467 152.06 329.781 151.962C330.539 151.716 331.373 151.184 332.213 150.194C333.831 148.156 334.883 144.896 334.195 142.924C334.369 143.09 334.629 143.23 334.987 143.304C335.751 143.464 336.663 143.222 336.785 142.756C336.897 142.28 336.121 141.804 335.357 141.722H335.197L335.325 141.398C335.853 139.888 335.115 138.456 333.927 138.276C332.773 138.102 331.667 138.89 331.271 140.004Z" fill="#245745"/>
<path d="M329.782 118.708L329.828 119.024C329.77 119.008 329.726 118.998 329.664 118.982C328.894 118.87 328.05 119.084 327.996 119.502C327.938 119.92 328.716 120.36 329.49 120.458C329.85 120.504 330.142 120.462 330.362 120.37C329.12 121.784 328.596 125.112 329.112 127.464C329.358 128.67 329.762 129.432 330.288 129.974C330.504 130.196 330.592 130.5 330.502 130.78C330.276 131.538 330.3 132.356 330.62 133.12C331.092 134.17 332.084 134.972 333.372 135.276C334.532 135.538 335.648 135.26 336.41 134.49C337.21 133.716 337.616 132.494 337.43 131.234C337.34 130.608 337.096 130.074 336.78 129.61C336.594 129.334 336.552 128.988 336.658 128.696C336.922 127.974 336.972 127.026 336.748 125.926C336.28 123.74 335.098 121.478 333.698 120.112C333.93 120.166 334.226 120.16 334.576 120.062C335.326 119.852 336.008 119.34 335.916 118.974C335.818 118.606 334.956 118.504 334.202 118.7C334.146 118.722 334.106 118.738 334.052 118.758L334.062 118.456C333.97 117.114 333 116.05 331.814 116.074C330.632 116.098 329.686 117.284 329.782 118.708Z" fill="#245745"/>
<path d="M333.071 95.7635L332.969 96.0775C332.925 96.0375 332.891 96.0095 332.843 95.9655C332.203 95.5175 331.351 95.3395 331.111 95.7175C330.873 96.0935 331.353 96.8495 332.007 97.2675C332.315 97.4635 332.595 97.5475 332.837 97.5555C331.129 98.4415 329.257 101.166 328.837 103.68C328.559 104.94 328.723 105.92 329.005 106.654C329.127 106.954 329.103 107.304 328.947 107.584C328.519 108.33 328.275 109.282 328.467 110.28C328.715 111.644 329.695 112.728 330.955 113.04C333.273 113.598 335.347 111.906 335.511 109.824C335.563 109.296 335.479 108.786 335.291 108.312C335.175 108.032 335.243 107.726 335.447 107.504C335.955 106.97 336.249 106.202 336.485 105.164C336.825 103.088 336.755 100.466 335.969 98.7315C336.155 98.8755 336.429 98.9935 336.783 99.0555C337.555 99.1875 338.401 99.0595 338.463 98.7115C338.523 98.3615 337.793 97.8915 337.035 97.7275C336.975 97.7215 336.931 97.7175 336.875 97.7115C336.923 97.6255 336.973 97.5455 337.011 97.4535C337.489 96.2555 337.179 94.9055 336.111 94.3395C335.089 93.7935 333.627 94.3875 333.071 95.7635Z" fill="#245745"/>
<path d="M348.05 92.829L347.886 93.115C347.852 93.069 347.824 93.031 347.786 92.981C347.252 92.409 346.454 92.061 346.142 92.381C345.832 92.701 346.146 93.539 346.7 94.081C346.962 94.339 347.22 94.477 347.452 94.535C345.598 95.051 343.208 97.333 342.282 99.707C341.75 100.881 341.71 101.875 341.834 102.651C341.892 102.971 341.798 103.309 341.586 103.551C341.014 104.193 340.58 105.073 340.562 106.091C340.526 107.477 341.262 108.739 342.432 109.301C344.584 110.325 346.962 109.093 347.552 107.091C347.71 106.585 347.734 106.069 347.646 105.565C347.59 105.267 347.72 104.983 347.964 104.807C348.57 104.389 349.016 103.697 349.46 102.729C350.22 100.769 350.69 98.189 350.276 96.327C350.43 96.509 350.672 96.679 351.008 96.813C351.736 97.101 352.59 97.149 352.722 96.821C352.854 96.493 352.234 95.883 351.526 95.565C351.468 95.547 351.428 95.533 351.374 95.517C351.438 95.443 351.504 95.373 351.56 95.291C352.274 94.219 352.246 92.833 351.318 92.059C350.43 91.315 348.878 91.597 348.05 92.829Z" fill="#245745"/>
<path d="M348.006 77.9282C347.918 77.9942 347.844 78.0722 347.766 78.1462C347.748 78.0902 347.732 78.0462 347.712 77.9842C347.39 77.2702 346.752 76.6822 346.37 76.8782C345.986 77.0762 346.022 77.9702 346.366 78.6702C346.526 78.9982 346.72 79.2182 346.92 79.3502C344.962 79.1522 342.09 80.4622 340.304 82.1942C339.412 83.1222 338.934 83.9962 338.76 84.7702C338.682 85.0802 338.49 85.3862 338.192 85.5282C337.416 85.9302 336.664 86.5922 336.27 87.5662C335.742 88.9022 335.954 90.3362 336.888 91.2662C338.592 92.9242 341.22 92.5962 342.434 91.0102C342.762 90.6102 342.966 90.1502 343.064 89.6582C343.128 89.3722 343.324 89.1362 343.624 89.0762C344.338 88.9142 345.046 88.5062 345.778 87.7342C347.326 86.2402 348.678 83.8302 348.974 81.9922C349.056 82.2142 349.224 82.4562 349.498 82.6962C350.084 83.2082 350.88 83.5202 351.118 83.2382C351.358 82.9582 350.974 82.1742 350.406 81.6482C350.356 81.6122 350.322 81.5882 350.278 81.5542L350.528 81.3962C351.614 80.6502 351.974 79.2362 351.334 78.2382C350.696 77.2422 349.204 77.1022 348.006 77.9282Z" fill="#245745"/>
<path d="M369.538 69.1825L369.218 69.2585C369.23 69.1985 369.238 69.1545 369.25 69.0905C369.316 68.3105 369.042 67.4865 368.602 67.4745C368.162 67.4645 367.754 68.2665 367.72 69.0445C367.702 69.4065 367.77 69.6945 367.882 69.9065C366.254 68.8125 363.008 68.5985 360.602 69.4365C359.376 69.8305 358.574 70.4085 358.09 71.0525C357.89 71.3105 357.574 71.4685 357.244 71.4565C356.362 71.4245 355.446 71.7545 354.644 72.3865C353.572 73.2925 353.138 74.7205 353.498 75.9365C354.214 78.2305 356.696 79.1345 358.558 78.2745C359.038 78.0585 359.422 77.7005 359.748 77.3305C359.936 77.1085 360.234 77.0125 360.524 77.0745C361.228 77.2165 362.048 77.1505 363.066 76.8265C365.042 76.1365 367.3 74.6965 368.426 73.2085C368.394 73.4425 368.428 73.7345 368.552 74.0765C368.822 74.8085 369.36 75.4665 369.696 75.3365C370.032 75.2085 370.072 74.3365 369.832 73.6005C369.808 73.5465 369.79 73.5065 369.766 73.4565L370.058 73.4385C371.35 73.3245 372.352 72.2565 372.298 71.0885C372.244 69.8905 371.008 69.0465 369.538 69.1825Z" fill="#245745"/>
<path d="M347.625 173.161L347.351 173.343C347.341 173.285 347.335 173.241 347.323 173.177C347.111 172.421 346.567 171.745 346.151 171.889C345.733 172.033 345.633 172.929 345.873 173.669C345.985 174.015 346.149 174.259 346.327 174.419C344.419 173.965 341.303 174.903 339.343 176.531C338.335 177.329 337.787 178.151 337.557 178.923C337.459 179.235 337.221 179.495 336.907 179.599C336.069 179.879 335.327 180.507 334.797 181.381C334.111 182.605 334.205 184.093 334.967 185.107C336.443 187.005 339.083 186.981 340.527 185.523C340.901 185.153 341.135 184.683 341.311 184.223C341.409 183.949 341.655 183.755 341.949 183.711C342.657 183.597 343.401 183.249 344.241 182.587C345.851 181.249 347.461 179.111 347.995 177.321C348.045 177.551 348.179 177.813 348.415 178.091C348.925 178.681 349.659 179.109 349.929 178.871C350.197 178.631 349.929 177.801 349.447 177.197C349.405 177.153 349.375 177.123 349.337 177.083L349.603 176.965C350.773 176.405 351.337 175.053 350.879 173.979C350.407 172.877 348.953 172.519 347.625 173.161Z" fill="#245745"/>
<path d="M391.984 70.705L391.7 70.747C391.714 70.691 391.726 70.649 391.742 70.589C391.86 69.819 391.692 68.975 391.356 68.889C391.024 68.807 390.606 69.535 390.444 70.297C390.37 70.653 390.376 70.947 390.44 71.175C389.134 69.857 386.838 68.697 384.618 68.267C383.492 68.059 382.558 68.139 381.824 68.421C381.534 68.533 381.188 68.505 380.906 68.329C380.168 67.841 379.208 67.599 378.174 67.759C376.77 67.925 375.648 68.979 375.334 70.203C374.786 72.537 376.432 74.575 378.43 74.807C378.946 74.845 379.446 74.813 379.918 74.639C380.192 74.537 380.502 74.613 380.73 74.825C381.268 75.329 382.052 75.715 383.24 75.935C385.574 76.395 388.88 75.841 390.362 74.519C390.278 74.745 390.25 75.039 390.32 75.397C390.464 76.161 391.004 76.899 391.456 76.825C391.908 76.757 392.054 75.889 391.864 75.133C391.842 75.075 391.828 75.035 391.808 74.981C391.918 74.993 392.028 74.995 392.14 74.989C393.66 74.913 394.74 73.823 394.562 72.627C394.388 71.481 393.236 70.641 391.984 70.705Z" fill="#245745"/>
<path d="M411.226 62.7651L410.996 62.9611C410.978 62.9051 410.964 62.8631 410.942 62.8031C410.616 62.0991 409.988 61.4951 409.644 61.6451C409.298 61.7951 409.35 62.6531 409.662 63.3691C409.808 63.7011 409.99 63.9331 410.178 64.0791C408.324 63.8151 405.62 64.4631 403.758 65.4291C402.808 65.9311 402.216 66.5311 401.834 67.1051C401.682 67.3511 401.412 67.4971 401.124 67.4731C400.36 67.4291 399.59 67.6091 398.878 68.0731C397.93 68.7711 397.31 69.9611 397.324 71.2371C397.296 73.6391 399.69 75.2491 402.132 74.3571C402.736 74.1571 403.212 73.7691 403.606 73.3591C403.834 73.1111 404.172 72.9911 404.504 73.0291C405.33 73.1391 406.274 72.9091 407.406 72.3111C409.656 71.1411 411.698 68.7411 412.084 66.8291C412.152 67.0591 412.304 67.3111 412.568 67.5611C413.13 68.0991 413.964 68.4051 414.26 68.1011C414.556 67.7991 414.188 67.0111 413.608 66.4851C413.558 66.4491 413.524 66.4231 413.478 66.3911L413.754 66.2291C414.942 65.4171 415.204 63.8911 414.486 62.9771C413.742 62.0271 412.332 62.0171 411.226 62.7651Z" fill="#245745"/>
<path d="M319.154 129.997L319.246 130.297C319.188 130.291 319.142 130.289 319.08 130.283C318.302 130.301 317.502 130.649 317.514 131.065C317.496 131.209 317.628 131.101 317.914 131.131C318.194 131.131 318.562 131.283 318.948 131.297C319.308 131.331 319.6 131.305 319.824 131.231C318.598 132.399 317.466 134.785 317.116 136.863C316.94 137.915 317.02 138.733 317.288 139.395C317.4 139.665 317.362 139.969 317.166 140.183C316.658 140.761 316.338 141.479 316.33 142.327C316.314 143.457 316.942 144.599 317.978 145.371C319.852 146.889 322.618 145.859 323.3 143.409C323.478 142.813 323.476 142.225 323.374 141.679C323.316 141.357 323.414 141.025 323.632 140.789C324.176 140.217 324.596 139.355 324.802 138.131C325.208 135.721 324.588 132.595 323.164 131.033C323.394 131.101 323.69 131.111 324.042 131.003C324.412 130.869 324.796 130.707 325.02 130.343C325.248 130.007 325.326 129.475 325.238 129.243C325.088 128.905 324.224 128.949 323.51 129.261C323.456 129.293 323.42 129.313 323.37 129.341L323.334 129.049C323.06 127.761 321.894 126.897 320.73 127.115C319.568 127.333 318.86 128.623 319.154 129.997Z" fill="#245745"/>
<path d="M317.656 107.469L317.65 107.785C317.596 107.763 317.554 107.743 317.496 107.719C316.754 107.483 315.886 107.555 315.768 107.959C315.648 108.363 316.326 108.925 317.072 109.139C317.42 109.241 317.714 109.245 317.948 109.189C316.544 110.473 315.488 113.393 315.574 115.815C315.568 117.043 315.924 117.931 316.354 118.567C316.536 118.825 316.588 119.161 316.472 119.457C316.142 120.253 316.144 121.179 316.49 122.101C316.954 123.359 318.106 124.231 319.402 124.321C321.772 124.475 323.548 122.483 323.334 120.403C323.262 119.875 323.094 119.389 322.838 118.959C322.686 118.707 322.688 118.393 322.838 118.135C323.218 117.507 323.35 116.691 323.36 115.609C323.284 113.481 322.504 110.887 321.284 109.449C321.504 109.537 321.794 109.575 322.158 109.535C322.934 109.449 323.708 109.075 323.668 108.715C323.63 108.353 322.794 108.117 322.02 108.181C321.96 108.193 321.918 108.201 321.862 108.211L321.918 107.925C322.026 106.629 321.258 105.441 320.096 105.255C318.92 105.067 317.776 106.053 317.656 107.469Z" fill="#245745"/>
<path d="M324.717 85.8823L324.581 86.1703C324.543 86.1263 324.513 86.0923 324.469 86.0443C323.891 85.5203 323.073 85.2263 322.797 85.5503C322.523 85.8743 322.907 86.6743 323.499 87.1763C323.775 87.4123 324.041 87.5383 324.277 87.5843C323.325 87.8643 322.365 88.5883 321.489 89.5263C320.579 90.4463 319.835 91.6103 319.413 92.7643C318.953 93.9243 318.845 94.8683 319.051 95.6443C319.125 95.9563 319.051 96.2923 318.835 96.5303C318.279 97.1683 317.821 98.0223 317.855 99.0323C317.863 100.402 318.625 101.636 319.783 102.166C321.955 103.13 324.347 101.91 324.845 99.9323C325.001 99.4363 325.021 98.9303 324.931 98.4403C324.877 98.1503 324.989 97.8643 325.219 97.6843C325.757 97.2363 326.275 96.5863 326.667 95.5983C327.025 94.6123 327.267 93.4623 327.403 92.3443C327.507 91.2123 327.427 90.0723 327.209 89.1963C327.373 89.3663 327.623 89.5223 327.969 89.6363C328.711 89.8763 329.563 89.8623 329.671 89.5203C329.781 89.1763 329.117 88.6143 328.389 88.3503C328.329 88.3363 328.289 88.3243 328.235 88.3123C328.291 88.2343 328.351 88.1603 328.401 88.0743C329.009 86.9363 328.869 85.5723 327.873 84.8983C326.909 84.2443 325.399 84.6223 324.717 85.8823Z" fill="#245745"/>
<path d="M433.142 68.2212L433.108 68.5392C433.056 68.5092 433.016 68.4872 432.96 68.4552C432.244 68.1452 431.374 68.1332 431.22 68.5292C431.064 68.9252 431.686 69.5572 432.408 69.8412C432.746 69.9752 433.04 70.0072 433.278 69.9732C432.468 70.5472 431.794 71.5432 431.268 72.7152C430.706 73.8792 430.378 75.2212 430.354 76.4512C430.294 77.6952 430.498 78.6252 430.944 79.2912C431.116 79.5632 431.156 79.9052 431.028 80.1992C430.708 80.9852 430.55 81.9392 430.912 82.8852C431.362 84.1792 432.484 85.0992 433.75 85.2272C436.118 85.4332 437.984 83.5052 437.816 81.4712C437.802 80.9512 437.658 80.4672 437.412 80.0332C437.268 79.7772 437.282 79.4672 437.442 79.2232C437.804 78.6252 438.084 77.8432 438.136 76.7812C438.154 75.7332 438.01 74.5672 437.778 73.4652C437.508 72.3592 437.064 71.3072 436.572 70.5512C436.784 70.6572 437.07 70.7232 437.434 70.7192C438.214 70.7072 439.016 70.4152 439.008 70.0572C439 69.6972 438.19 69.3792 437.416 69.3652C437.354 69.3712 437.312 69.3752 437.256 69.3812C437.286 69.2892 437.32 69.1992 437.338 69.1012C437.544 67.8272 436.97 66.5832 435.81 66.2672C434.686 65.9612 433.378 66.8072 433.142 68.2212Z" fill="#245745"/>
<path d="M340.119 69.2405L339.881 69.4485C339.863 69.3925 339.847 69.3505 339.827 69.2905C339.499 68.5825 338.861 67.9905 338.483 68.1745C338.105 68.3565 338.147 69.2325 338.491 69.9285C338.651 70.2525 338.847 70.4745 339.045 70.6085C337.163 70.4505 334.285 71.6125 332.555 73.3145C331.643 74.1285 331.209 75.0085 331.037 75.7665C330.969 76.0805 330.757 76.3485 330.459 76.4685C329.667 76.7925 328.913 77.3765 328.505 78.3085C327.921 79.5505 328.081 80.9905 328.901 81.9645C330.447 83.7585 333.149 83.6985 334.423 82.1085C334.781 81.7285 335.019 81.2805 335.151 80.8005C335.229 80.5185 335.457 80.3085 335.745 80.2445C336.453 80.0965 337.127 79.6605 337.943 78.9405C339.457 77.4465 340.869 75.1345 341.101 73.2505C341.183 73.4705 341.351 73.7105 341.625 73.9525C342.213 74.4685 343.011 74.7885 343.255 74.5165C343.497 74.2445 343.109 73.4685 342.537 72.9405C342.489 72.9045 342.455 72.8785 342.409 72.8445L342.661 72.6945C343.703 71.9105 344.039 70.5105 343.395 69.5385C342.729 68.5365 341.253 68.3905 340.119 69.2405Z" fill="#245745"/>
<path d="M360.511 59.3959L360.215 59.5099C360.217 59.4499 360.219 59.4039 360.223 59.3399C360.177 58.5599 359.799 57.7779 359.379 57.8179C358.961 57.8599 358.683 58.7019 358.749 59.4759C358.781 59.8379 358.883 60.1159 359.017 60.3119C357.303 59.4179 354.191 59.5039 351.961 60.4859C350.817 60.9519 350.083 61.5479 349.665 62.2219C349.493 62.4899 349.201 62.6659 348.881 62.6699C348.029 62.6859 347.127 62.9759 346.413 63.6779C345.423 64.6079 345.045 65.9999 345.445 67.2099C346.213 69.4499 348.755 70.3919 350.551 69.3699C351.021 69.1359 351.409 68.8039 351.705 68.3979C351.881 68.1619 352.169 68.0439 352.461 68.0859C353.165 68.1719 353.991 68.0659 354.991 67.6619C356.921 66.8079 359.051 65.1319 359.967 63.5199C359.965 63.7579 360.035 64.0439 360.201 64.3659C360.559 65.0579 361.181 65.6399 361.501 65.4679C361.823 65.2939 361.745 64.4279 361.407 63.7299C361.375 63.6779 361.353 63.6419 361.323 63.5959L361.611 63.5399C362.865 63.2039 363.703 62.0699 363.455 60.8999C363.215 59.7539 361.883 59.0279 360.511 59.3959Z" fill="#245745"/>
<path d="M383.168 58.0915L382.85 58.0735C382.876 58.0215 382.896 57.9815 382.924 57.9235C383.194 57.1895 383.16 56.3215 382.756 56.1875C382.354 56.0555 381.758 56.7115 381.514 57.4475C381.398 57.7935 381.382 58.0875 381.428 58.3235C380.202 56.8335 377.284 55.7075 374.828 55.7235C373.588 55.7115 372.678 56.0395 372.03 56.4595C371.766 56.6355 371.426 56.6795 371.128 56.5575C370.33 56.2475 369.388 56.2455 368.452 56.5755C367.17 57.0055 366.31 58.2535 366.228 59.5135C366.112 61.9175 368.096 63.5975 370.14 63.4315C370.662 63.3835 371.14 63.1815 371.566 62.9295C371.816 62.7815 372.128 62.7915 372.38 62.9475C372.996 63.3395 373.796 63.4995 374.864 63.5115C376.96 63.5015 379.548 62.7735 381.03 61.6435C380.934 61.8595 380.884 62.1495 380.908 62.5135C380.962 63.2915 381.298 64.0755 381.656 64.0495C382.016 64.0215 382.29 63.1955 382.26 62.4215C382.25 62.3615 382.244 62.3195 382.236 62.2635C382.33 62.2875 382.422 62.3155 382.52 62.3295C383.798 62.4875 385.042 61.7895 385.272 60.6175C385.498 59.4675 384.588 58.2735 383.168 58.0915Z" fill="#245745"/>
<path d="M403.347 56.2911L403.073 56.4251C403.069 56.3671 403.067 56.3231 403.063 56.2591C402.927 55.4931 402.475 54.7511 402.089 54.8171C401.705 54.8831 401.533 55.7331 401.667 56.4991C401.729 56.8571 401.849 57.1251 401.999 57.3131C400.265 56.5671 397.361 56.7171 395.385 57.3611C394.895 57.5191 394.489 57.7051 394.249 57.8771C394.063 57.9871 394.129 58.0231 394.097 58.1231C394.085 58.2171 393.867 58.3151 393.777 58.4271C393.585 58.6131 393.319 58.6451 393.097 58.5191C392.499 58.1691 391.849 58.0231 391.053 58.1711C389.981 58.3691 388.847 59.1871 388.335 60.3631C387.383 62.5231 388.639 64.9951 391.355 65.2211C392.019 65.2691 392.671 65.1471 393.229 64.9051C393.557 64.7551 393.941 64.7711 394.265 64.9051C394.489 64.9831 394.617 65.0811 394.975 65.1071C395.311 65.1371 395.779 65.1231 396.015 65.1111C396.625 65.0751 397.179 64.9651 397.789 64.7691C400.137 64.0011 402.377 62.1491 403.197 60.4351C403.211 60.6731 403.299 60.9551 403.493 61.2611C403.909 61.9211 404.613 62.4331 404.947 62.2211C405.281 62.0111 405.117 61.1571 404.701 60.4991C404.663 60.4511 404.637 60.4191 404.601 60.3731L404.893 60.2891C406.163 59.7971 406.841 58.5071 406.417 57.4031C405.993 56.2971 404.613 55.8011 403.347 56.2911Z" fill="#245745"/>
<path d="M305.435 113.958L305.505 114.296C305.447 114.282 305.401 114.272 305.339 114.258C304.559 114.174 303.731 114.444 303.711 114.904C303.693 115.364 304.487 115.81 305.263 115.866C305.627 115.894 305.915 115.83 306.131 115.718C305.007 117.404 304.859 120.858 305.341 123.056C305.589 124.24 305.997 125.07 306.515 125.646C306.729 125.88 306.819 126.21 306.733 126.516C306.507 127.33 306.541 128.236 306.903 129.12C307.405 130.322 308.505 131.192 309.775 131.402C312.143 131.854 314.089 129.616 313.671 127.08C313.573 126.452 313.345 125.886 313.023 125.41C312.837 125.128 312.793 124.768 312.903 124.454C313.171 123.686 313.225 122.698 312.961 121.44C312.393 118.838 310.915 116.476 309.441 115.232C309.673 115.272 309.967 115.246 310.311 115.122C311.047 114.854 311.713 114.294 311.589 113.93C311.465 113.564 310.595 113.502 309.857 113.74C309.801 113.766 309.761 113.784 309.711 113.808L309.697 113.494C309.507 112.118 308.571 111.026 307.361 111.076C306.205 111.12 305.227 112.422 305.435 113.958Z" fill="#245745"/>
<path d="M309.008 89.6711L308.91 90.0011C308.866 89.9611 308.83 89.9311 308.782 89.8891C308.136 89.4411 307.28 89.2831 307.048 89.6751C306.814 90.0651 307.302 90.8371 307.958 91.2591C308.264 91.4591 308.546 91.5411 308.788 91.5471C306.992 92.4791 305.148 95.2951 304.59 97.9111C304.25 99.2171 304.394 100.269 304.658 101.049C304.772 101.367 304.742 101.739 304.556 102.031C304.044 102.811 303.886 103.829 304.01 104.899C304.168 106.361 305.244 107.533 306.468 107.861C308.812 108.443 310.812 106.675 311.07 104.509C311.122 103.953 311.018 103.411 310.882 102.913C310.792 102.619 310.868 102.295 311.074 102.063C311.596 101.501 311.9 100.699 312.196 99.5891C312.664 97.3971 312.61 94.5111 311.924 92.7131C312.11 92.8631 312.378 92.9811 312.738 93.0371C313.512 93.1551 314.362 92.9791 314.428 92.5951C314.494 92.2091 313.758 91.7371 312.996 91.5951C312.936 91.5911 312.892 91.5871 312.836 91.5831L312.974 91.3011C313.502 90.0071 313.154 88.5751 312.074 88.0571C311.02 87.5511 309.592 88.2471 309.008 89.6711Z" fill="#245745"/>
<path d="M322.488 69.3471L322.274 69.6091C322.246 69.5571 322.224 69.5171 322.196 69.4591C321.754 68.8171 321.01 68.3571 320.65 68.6211C320.284 68.8751 320.488 69.7851 320.942 70.4151C321.156 70.7131 321.388 70.8951 321.608 70.9871C319.62 71.2091 316.898 73.0311 315.334 75.1151C314.564 76.1851 314.206 77.1371 314.128 77.9471C314.098 78.2791 313.912 78.5951 313.622 78.7751C312.874 79.2731 312.25 80.0671 311.906 81.0731C311.414 82.4271 311.838 83.9491 312.776 84.8011C314.59 86.3991 317.188 85.7331 318.412 83.8531C318.712 83.3691 318.878 82.8351 318.946 82.3011C318.996 81.9931 319.21 81.7291 319.5 81.6031C320.21 81.2991 320.898 80.7211 321.582 79.7651C322.972 77.9171 324.084 75.1791 324.096 73.2251C324.214 73.4351 324.422 73.6431 324.734 73.8271C325.412 74.2211 326.254 74.3371 326.48 74.0071C326.698 73.6711 326.186 72.9691 325.518 72.5631C325.462 72.5371 325.424 72.5191 325.372 72.4951L325.612 72.2831C326.6 71.2571 326.728 69.7411 325.896 68.8991C325.064 68.0551 323.538 68.2571 322.488 69.3471Z" fill="#245745"/>
<path d="M307.159 139.341L307.211 139.675C307.155 139.661 307.111 139.649 307.049 139.635C306.275 139.537 305.437 139.787 305.395 140.231C305.341 140.673 306.157 141.125 306.931 141.207C307.295 141.245 307.585 141.193 307.801 141.089C306.645 142.721 306.195 145.965 306.711 148.519C306.999 149.807 307.473 150.705 308.027 151.303C308.255 151.547 308.367 151.895 308.307 152.231C308.181 153.121 308.361 154.117 308.885 155.041C309.569 156.311 310.987 157.005 312.247 156.871C314.647 156.577 315.877 154.195 315.285 152.029C315.123 151.483 314.835 151.005 314.481 150.599C314.285 150.357 314.229 150.021 314.329 149.721C314.573 148.989 314.599 148.091 314.339 146.945C313.883 144.677 312.577 142.025 311.125 140.719C311.361 140.769 311.655 140.753 311.999 140.641C312.745 140.397 313.389 139.845 313.295 139.457C313.189 139.071 312.323 138.987 311.575 139.215C311.519 139.239 311.479 139.257 311.427 139.279L311.429 138.959C311.319 137.539 310.271 136.437 309.089 136.497C307.907 136.559 307.043 137.831 307.159 139.341Z" fill="#245745"/>
<path d="M341.387 54.0349L341.097 54.2189C341.087 54.1609 341.079 54.1169 341.069 54.0529C340.851 53.3049 340.281 52.6389 339.845 52.7849C339.415 52.9409 339.323 53.8629 339.567 54.6049C339.681 54.9529 339.849 55.1949 340.033 55.3489C338.065 54.9809 334.847 55.9589 332.811 57.5769C331.751 58.3669 331.151 59.1729 330.871 59.9449C330.753 60.2569 330.493 60.5129 330.171 60.6049C329.297 60.8469 328.483 61.4109 327.891 62.2729C327.071 63.4389 326.967 64.9309 327.613 66.0569C328.805 68.1289 331.571 68.3449 333.297 66.8169C333.725 66.4169 334.065 65.9809 334.289 65.4869C334.421 65.1989 334.697 64.9989 335.011 64.9529C335.767 64.8349 336.597 64.4649 337.539 63.7669C339.353 62.3229 341.167 60.0869 341.741 58.2249C341.791 58.4589 341.927 58.7209 342.171 58.9909C342.697 59.5669 343.463 59.9449 343.757 59.6909C344.055 59.4469 343.783 58.6249 343.275 58.0289C343.231 57.9869 343.199 57.9569 343.157 57.9169L343.447 57.7949C344.675 57.1349 345.271 55.7469 344.781 54.6949C344.269 53.6009 342.749 53.3049 341.387 54.0349Z" fill="#245745"/>
<path d="M365.002 47.6174L364.666 47.6694C364.682 47.6114 364.694 47.5674 364.712 47.5054C364.828 46.7314 364.6 45.8914 364.156 45.8474C363.712 45.8054 363.24 46.5734 363.14 47.3474C363.092 47.7074 363.138 47.9994 363.236 48.2194C361.636 47.0174 358.376 46.4974 355.784 47.0134C354.472 47.2454 353.562 47.7694 352.956 48.3134C352.708 48.5434 352.356 48.6574 352.016 48.6014C351.116 48.4934 350.104 48.6794 349.172 49.2154C347.91 49.9834 347.228 51.3734 347.4 52.6314C347.774 55.0214 350.186 56.1934 352.288 55.5754C352.824 55.4114 353.294 55.1274 353.686 54.7654C353.924 54.5674 354.254 54.5114 354.552 54.6114C355.282 54.8714 356.148 54.8554 357.292 54.6534C359.522 54.2114 362.186 52.9634 363.526 51.5534C363.47 51.7854 363.478 52.0794 363.584 52.4274C363.81 53.1774 364.348 53.8694 364.734 53.7634C365.12 53.6574 365.226 52.7914 365.018 52.0414C364.994 51.9854 364.978 51.9454 364.958 51.8934L365.276 51.8954C366.692 51.7774 367.832 50.8354 367.796 49.6354C367.762 48.4674 366.514 47.4934 365.002 47.6174Z" fill="#245745"/>
<path d="M347.028 39.0379L346.714 39.1659C346.716 39.1059 346.718 39.0599 346.72 38.9959C346.656 38.2159 346.24 37.4499 345.798 37.5099C345.356 37.5699 345.072 38.4259 345.154 39.2019C345.19 39.5639 345.302 39.8379 345.448 40.0299C343.614 39.2259 340.322 39.4679 337.916 40.5659C336.694 41.0939 335.928 41.8119 335.462 42.4819C335.274 42.7619 334.96 42.9539 334.614 42.9759C333.714 43.0779 332.772 43.4919 331.988 44.2279C330.936 45.2639 330.59 46.7739 331.048 47.9599C331.96 50.1999 334.576 50.7859 336.48 49.7019C336.966 49.4179 337.356 49.0359 337.656 48.5919C337.842 48.3459 338.15 48.2159 338.462 48.2459C339.232 48.3299 340.072 48.1139 341.14 47.6559C343.21 46.7139 345.514 44.8879 346.496 43.2059C346.494 43.4459 346.57 43.7299 346.752 44.0459C347.144 44.7219 347.828 45.2739 348.178 45.0819C348.53 44.8899 348.434 44.0219 348.06 43.3419C348.024 43.2919 347.998 43.2559 347.966 43.2099L348.276 43.1399C349.628 42.6999 350.52 41.5199 350.21 40.3599C349.91 39.2319 348.472 38.5699 347.028 39.0379Z" fill="#245745"/>
<path d="M388.968 48.502L388.642 48.51C388.664 48.454 388.68 48.412 388.704 48.352C388.91 47.6 388.794 46.736 388.394 46.636C387.994 46.536 387.45 47.232 387.236 47.982C387.138 48.332 387.136 48.628 387.198 48.86C385.824 47.456 382.952 46.322 380.494 46.13C379.246 46.034 378.294 46.204 377.574 46.558C377.284 46.702 376.926 46.706 376.634 46.552C375.854 46.136 374.89 45.956 373.792 46.16C372.402 46.472 371.302 47.492 370.996 48.738C370.414 51.08 372.356 53.114 374.556 53.19C375.13 53.22 375.686 53.12 376.202 52.924C376.504 52.806 376.848 52.852 377.114 53.04C377.758 53.49 378.652 53.8 379.892 53.896C382.334 54.088 385.404 53.412 386.974 52.198C386.882 52.418 386.844 52.71 386.896 53.072C387.008 53.846 387.476 54.61 387.906 54.558C388.336 54.508 388.556 53.664 388.436 52.892C388.42 52.832 388.408 52.79 388.392 52.736L388.722 52.782C390.214 52.868 391.474 51.948 391.502 50.766C391.53 49.58 390.41 48.586 388.968 48.502Z" fill="#245745"/>
<path d="M247.617 145.772C247.489 146.216 247.079 146.506 246.623 146.564C240.201 147.316 236.459 148.174 233.595 149.704C230.793 151.076 229.143 152.858 229.169 153.408C229.195 153.96 231.065 155.66 234.757 155.944C235.677 156.048 236.679 155.904 237.779 155.74C238.883 155.592 240.049 155.242 241.233 154.654C242.437 154.13 243.663 153.41 244.809 152.382C246.001 151.45 247.085 150.198 248.035 148.742C248.303 148.334 248.785 148.112 249.267 148.118C250.995 148.096 252.859 147.86 253.573 147.302C254.261 146.686 253.767 145.932 251.251 144.75C250.305 142.052 249.521 141.58 249.029 142.1C248.483 142.588 248.057 144.09 247.617 145.772Z" fill="#245745"/>
<path d="M261.669 124.161C261.869 124.581 261.811 125.087 261.527 125.445C257.215 130.373 255.283 133.773 254.187 136.751C253.135 139.647 253.195 142.119 253.587 142.499C253.977 142.893 256.479 142.801 259.355 140.433C262.207 138.177 265.071 133.005 264.035 126.113C263.943 125.631 264.099 125.131 264.461 124.819C267.219 122.503 269.175 119.457 263.757 120.997C258.847 118.197 260.283 121.127 261.669 124.161Z" fill="#245745"/>
<path d="M260.397 97.9545C260.775 98.2045 260.973 98.6705 260.911 99.1285C259.979 105.57 260.175 109.624 261.159 112.774C261.989 115.828 263.609 117.724 264.165 117.776C264.709 117.832 266.555 116.212 267.505 112.696C268.343 109.3 268.005 103.6 263.381 98.3345C263.059 97.9725 262.947 97.4585 263.099 96.9925C264.047 93.5945 264.171 89.8225 260.401 94.1765C254.887 94.5245 257.477 96.2125 260.397 97.9545Z" fill="#245745"/>
<path d="M243.715 78.4191C244.163 78.3331 244.661 78.4691 244.905 78.8831C248.541 84.2531 251.001 87.1391 253.657 88.9831C254.847 89.9591 256.065 90.5691 257.045 90.9271C257.959 91.3271 258.673 91.4331 258.921 91.2931C259.155 91.1591 259.441 90.4971 259.539 89.4031C259.571 88.3531 259.365 86.8811 258.705 85.1371C257.903 83.5071 256.693 81.5371 254.569 79.9411C252.531 78.2831 249.609 77.0131 246.179 76.6211C245.715 76.5371 245.243 76.3071 245.029 75.8691C243.417 72.6191 240.763 70.0371 241.131 75.6711C237.367 79.8751 240.459 79.0471 243.715 78.4191Z" fill="#245745"/>
<path d="M218.025 75.4294C218.311 75.0694 218.783 74.8754 219.233 74.9994C225.489 76.7474 229.477 77.0474 232.655 76.6774C235.755 76.2474 237.885 75.2094 238.069 74.6014C238.219 74.1574 237.023 71.8334 233.627 70.4054C230.357 68.9054 224.549 68.5234 218.735 72.4514C218.333 72.7214 217.821 72.8274 217.375 72.6354C214.053 71.1834 210.355 70.9314 214.273 74.9974C214.111 80.6374 215.933 78.0054 218.025 75.4294Z" fill="#245745"/>
<path d="M197.101 90.2079C197.063 89.7559 197.305 89.3139 197.701 89.0799C203.333 85.8819 206.413 83.6379 208.507 81.2419C210.517 78.8779 211.507 76.7539 211.245 76.1579C211.135 75.9119 210.515 75.5839 209.449 75.4239C208.383 75.2559 206.853 75.2479 205.117 75.8759C201.671 76.9159 196.877 80.6599 195.563 87.6059C195.477 88.0879 195.143 88.4959 194.683 88.6659C191.381 89.9979 188.395 92.2799 194.125 92.5279C197.839 96.6539 197.497 93.5519 197.101 90.2079Z" fill="#245745"/>
<path d="M190.896 115.562C190.596 115.21 190.526 114.706 190.706 114.282C193.404 108.296 194.27 104.326 194.178 101.086C194.168 97.9419 193.284 95.6959 192.774 95.4739C192.27 95.2559 189.92 96.2119 188.064 99.3879C186.302 102.48 185.146 108.05 188.11 114.336C188.328 114.774 188.3 115.294 188.032 115.694C187 117.152 186.21 118.776 186.324 119.652C186.408 120.544 187.304 120.586 189.744 119.178C192.462 119.936 193.306 119.576 193.184 118.842C193.026 118.098 191.958 116.864 190.896 115.562Z" fill="#245745"/>
<path d="M199.803 139.97C199.353 139.878 198.993 139.522 198.883 139.082C197.541 132.77 196.233 129.06 194.467 126.342C192.713 123.718 190.829 122.27 190.209 122.386C189.745 122.464 188.203 124.558 188.403 128.212C188.487 131.746 190.603 137.31 196.833 140.678C197.277 140.9 197.575 141.332 197.607 141.816C197.679 143.62 198.131 145.392 198.777 146.03C199.421 146.694 200.123 146.148 201.129 143.5C203.701 142.374 204.113 141.544 203.581 141.068C203.019 140.592 201.421 140.352 199.803 139.97Z" fill="#245745"/>
<path d="M222.519 151.864C222.131 152.096 221.629 152.068 221.243 151.812C215.837 148.198 212.413 146.496 209.301 145.776C206.295 145.044 203.937 145.18 203.553 145.65C203.233 146.028 203.427 148.638 206.097 151.252C208.637 153.798 214.115 156.316 220.885 154.384C221.353 154.252 221.865 154.376 222.221 154.716C224.881 157.01 228.213 158.784 225.927 153.49C228.005 148.378 225.351 149.952 222.519 151.864Z" fill="#245745"/>
<path d="M247.623 170.903C247.387 171.287 246.949 171.491 246.509 171.435C243.401 171.041 240.821 170.727 238.721 171.059C236.561 171.121 234.813 171.601 233.383 172.251C230.517 173.363 228.909 175.097 228.927 175.689C228.939 176.203 230.677 177.937 234.031 178.563C235.693 178.783 237.757 178.735 240.075 178.177C242.339 177.349 244.931 176.233 247.303 173.907C247.639 173.581 248.119 173.465 248.557 173.615C250.155 174.159 251.875 174.585 252.649 174.301C253.421 173.977 253.219 173.097 251.281 171.135C251.219 168.297 250.669 167.577 250.031 167.911C249.367 168.213 248.489 169.481 247.623 170.903Z" fill="#245745"/>
<path d="M268.975 157.659C268.923 158.097 268.605 158.457 268.173 158.587C266.639 159.039 265.343 159.559 264.183 160.081C262.955 160.523 261.907 161.021 260.993 161.561C259.225 162.721 257.731 163.687 256.713 164.865C255.693 166.041 254.979 167.147 254.521 167.995C254.083 168.877 253.949 169.575 254.071 169.833C254.187 170.077 254.805 170.413 255.829 170.611C256.869 170.841 258.279 170.849 259.901 170.351C261.515 169.857 263.511 169.127 265.257 167.419C266.153 166.607 267.049 165.649 267.897 164.541C268.677 163.351 269.371 161.965 269.977 160.455C270.147 160.027 270.541 159.725 271.013 159.677C274.373 159.199 277.611 157.909 272.263 156.163C269.609 151.259 269.223 154.359 268.975 157.659Z" fill="#245745"/>
<path d="M282.16 136.23C282.322 136.656 282.216 137.128 281.906 137.442C279.514 139.578 277.958 141.538 276.74 143.294C275.454 145.006 274.892 146.75 274.384 148.182C273.428 151.056 273.836 153.48 274.282 153.836C274.702 154.172 277.038 153.872 279.696 151.656C281.038 150.57 282.15 148.824 283.164 146.646C284.102 144.44 284.542 141.576 284.34 138.344C284.284 137.88 284.484 137.428 284.868 137.176C287.692 135.306 290.242 132.858 284.57 133.488C280.19 130.18 280.97 133.13 282.16 136.23Z" fill="#245745"/>
<path d="M285.862 111.159C286.164 111.501 286.232 111.981 286.052 112.385C284.666 115.257 283.772 117.679 283.466 119.813C282.95 121.919 282.944 123.741 283.186 125.297C283.516 128.357 284.75 130.363 285.328 130.507C285.824 130.633 287.968 129.417 289.446 126.345C290.102 124.807 290.604 122.815 290.686 120.439C290.554 118.061 290.076 115.291 288.648 112.355C288.432 111.943 288.458 111.451 288.73 111.079C290.71 108.341 292.24 105.201 287.15 107.739C281.88 106.137 283.654 108.671 285.862 111.159Z" fill="#245745"/>
<path d="M280.643 86.394C281.047 86.6 281.285 87.022 281.263 87.462C281.025 90.622 281.037 93.176 281.445 95.274C281.691 97.42 282.317 99.126 283.085 100.5C284.357 103.286 286.285 104.738 286.855 104.676C287.385 104.622 288.903 102.76 289.327 99.362C289.409 97.69 289.189 95.642 288.439 93.378C287.527 91.166 286.087 88.708 283.669 86.488C283.317 86.18 283.163 85.71 283.279 85.264C283.705 83.63 283.971 81.902 283.663 81.136C283.307 80.38 282.449 80.64 280.597 82.732C277.805 82.982 277.121 83.584 277.477 84.208C277.797 84.866 279.163 85.634 280.643 86.394Z" fill="#245745"/>
<path d="M265.917 66.0228C266.359 66.0428 266.743 66.3328 266.903 66.7528C269.239 72.5548 271.505 75.8048 273.967 77.7488C276.421 79.6308 278.543 80.3568 279.105 80.0388C279.511 79.8208 280.409 77.3788 279.217 74.1848C278.579 72.6348 277.761 70.6588 275.925 69.0468C275.047 68.2128 274.023 67.3928 272.853 66.6288C271.667 65.8808 270.187 65.3328 268.643 64.8268C268.203 64.6888 267.873 64.3168 267.791 63.8508C267.125 60.4828 265.565 57.4048 264.211 62.8328C259.481 65.8428 262.649 65.9528 265.917 66.0228Z" fill="#245745"/>
<path d="M243.635 54.3785C244.047 54.1825 244.529 54.2505 244.863 54.5325C249.461 58.9285 253.063 60.5725 256.097 61.2845C259.035 62.0285 261.453 61.4085 261.747 60.9865C262.083 60.4985 261.593 58.2305 259.191 55.7425C256.825 53.3365 252.085 51.1125 245.583 52.0385C245.121 52.1305 244.655 51.9705 244.375 51.6085C242.293 48.9485 239.651 46.6065 240.715 52.2025C237.749 56.8345 240.629 55.8165 243.635 54.3785Z" fill="#245745"/>
<path d="M218.386 52.7078C218.696 52.3738 219.168 52.2598 219.586 52.3998C222.566 53.5758 225.034 54.1598 227.176 54.3758C229.316 54.7098 231.132 54.5578 232.664 54.1818C235.676 53.6798 237.592 52.2238 237.688 51.6538C237.778 51.1318 236.394 49.1598 233.216 47.8618C231.63 47.3398 229.602 47.0078 227.226 47.1298C224.858 47.3698 222.12 48.1818 219.316 49.8178C218.924 50.0718 218.43 50.0938 218.034 49.8618C215.11 48.1578 211.79 46.9518 214.862 51.7598C213.828 57.1518 216.132 55.1478 218.386 52.7078Z" fill="#245745"/>
<path d="M194.603 60.9583C194.749 60.5363 195.135 60.2463 195.579 60.2103C198.663 59.8383 201.261 59.6603 203.235 58.9003C205.283 58.3163 206.917 57.5803 208.169 56.6403C210.723 54.9623 211.983 52.9823 211.851 52.3943C211.745 51.9023 209.699 50.4983 206.273 50.5843C204.599 50.7243 202.541 51.1123 200.407 52.2303C198.353 53.5143 196.021 55.1163 194.251 57.9783C193.995 58.3643 193.547 58.5803 193.083 58.5263C189.585 58.0463 186.281 58.7603 191.023 61.6043C192.543 67.0683 193.485 63.9403 194.603 60.9583Z" fill="#245745"/>
<path d="M176.939 78.8059C176.869 78.3559 177.045 77.8979 177.459 77.6899C180.299 76.1439 182.135 74.5179 183.789 73.1399C184.573 72.4179 185.209 71.6839 185.735 70.9479C186.291 70.2419 186.797 69.5959 187.173 68.9259C187.947 67.6099 188.337 66.3139 188.537 65.3299C188.769 64.3859 188.745 63.6839 188.565 63.4619C188.397 63.2519 187.711 63.0599 186.659 63.0919C185.639 63.1619 184.309 63.5379 182.789 64.3379C182.041 64.7499 181.213 65.2339 180.447 65.9139C179.713 66.6239 178.975 67.4639 178.271 68.4459C176.775 70.3339 175.819 73.1119 175.273 76.2879C175.181 76.7279 174.919 77.1439 174.491 77.3119C171.373 78.5719 168.395 80.4759 174.057 81.0059C177.687 85.1519 177.493 82.1039 176.939 78.8059Z" fill="#245745"/>
<path d="M168.591 102.636C168.353 102.248 168.369 101.764 168.617 101.396C170.439 98.8043 171.773 96.6043 172.463 94.5783C173.357 92.6183 173.693 90.8403 173.739 89.2683C174.075 86.2503 173.189 84.0023 172.671 83.7523C172.193 83.5203 169.927 84.3123 167.801 87.0303C166.871 88.4243 166.005 90.3023 165.483 92.6343C165.171 95.0083 165.117 97.8383 166.055 100.982C166.195 101.428 166.083 101.908 165.753 102.228C163.325 104.592 161.273 107.444 166.729 105.786C171.645 108.236 170.335 105.458 168.591 102.636Z" fill="#245745"/>
<path d="M169.304 128.008C168.946 127.726 168.794 127.266 168.898 126.838C169.828 123.766 170.196 121.252 170.224 119.092C170.366 116.922 170.056 115.118 169.548 113.622C168.732 110.648 167.118 108.894 166.534 108.858C166.012 108.824 164.162 110.402 163.202 113.666C162.824 115.29 162.672 117.328 163.002 119.676C163.446 122.008 164.492 124.66 166.348 127.316C166.634 127.688 166.696 128.176 166.496 128.59C165.034 131.64 164.1 135.034 168.646 131.598C174.11 132.206 171.92 130.06 169.304 128.008Z" fill="#245745"/>
<path d="M179.274 151.167C178.842 151.049 178.526 150.685 178.458 150.245C178.166 148.657 177.91 147.275 177.682 146.031C177.404 144.765 177.048 143.663 176.628 142.687C175.928 140.665 175.04 139.099 174.016 137.913C172.172 135.473 170.076 134.379 169.508 134.553C169.016 134.699 167.802 136.837 168.116 140.247C168.37 141.907 168.936 143.911 170.17 145.971C170.856 146.967 171.688 147.981 172.68 148.975C173.63 149.991 174.85 150.919 176.318 151.715C176.722 151.945 176.968 152.375 176.946 152.841C176.71 156.349 177.59 159.629 180.138 154.707C185.484 152.853 182.34 152.079 179.274 151.167Z" fill="#245745"/>
<path d="M198.199 167.665C197.745 167.785 197.301 167.595 197.061 167.203C195.313 164.501 193.603 162.741 192.115 161.189C191.343 160.459 190.563 159.879 189.797 159.399C189.091 158.851 188.385 158.419 187.697 158.079C184.899 156.789 182.585 156.651 182.161 157.029C181.759 157.389 181.519 159.877 183.393 162.743C183.845 163.471 184.411 164.231 185.105 164.993C185.859 165.681 186.751 166.359 187.779 166.995C189.769 168.357 192.581 169.173 195.807 169.477C196.255 169.533 196.665 169.811 196.871 170.207C198.345 173.223 200.461 176.059 200.595 170.379C204.479 166.463 201.457 166.879 198.199 167.665Z" fill="#245745"/>
<path d="M222.555 174.178C222.189 174.448 221.705 174.472 221.319 174.258C218.587 172.648 216.291 171.514 214.227 170.972C212.209 170.236 210.415 170.04 208.847 170.118C205.827 169.984 203.637 171.052 203.427 171.582C203.227 172.08 204.185 174.258 207.053 176.204C208.517 177.024 210.461 177.744 212.833 178.082C215.227 178.224 218.063 178.034 221.119 176.846C221.551 176.668 222.039 176.738 222.387 177.042C224.951 179.26 227.979 181.062 225.851 175.766C227.863 170.66 225.217 172.2 222.555 174.178Z" fill="#245745"/>
<path d="M240.492 162.003C240.228 162.379 239.768 162.565 239.326 162.491C236.142 161.767 233.638 161.573 231.446 161.439C229.28 161.469 227.462 161.643 225.934 162.047C222.9 162.965 221.012 164.229 220.94 164.879C220.91 165.147 221.27 165.757 222.064 166.461C222.854 167.187 224.086 167.965 225.784 168.391C227.474 168.883 229.622 169.169 232.094 168.655C234.56 168.311 237.328 167.049 239.972 165.005C240.338 164.691 240.84 164.593 241.282 164.759C244.592 166.089 248.14 166.319 244.208 162.329C244.214 156.683 242.428 159.359 240.492 162.003Z" fill="#245745"/>
<path d="M262.07 148.224C262.052 148.68 261.738 149.06 261.31 149.224C255.386 151.644 252.036 153.738 249.908 156.116C247.762 158.328 246.936 160.644 247.142 161.118C247.378 161.658 249.656 162.504 253.134 161.58C254.852 161.124 256.756 160.046 258.656 158.4C259.546 157.5 260.428 156.452 261.25 155.254C262.068 154.052 262.668 152.534 263.23 150.972C263.38 150.522 263.778 150.194 264.244 150.096C267.562 149.258 270.882 147.704 265.302 146.412C262.348 141.752 262.068 144.812 262.07 148.224Z" fill="#245745"/>
<path d="M273.397 124.988C273.601 125.404 273.563 125.904 273.271 126.256C271.075 128.728 269.783 130.926 268.675 132.84C267.731 134.818 267.069 136.518 266.773 138.074C266.233 141.188 266.567 143.45 267.105 143.804C267.485 144.068 270.087 143.668 272.399 141.012C274.813 138.488 276.939 133.52 275.791 126.882C275.703 126.416 275.837 125.928 276.193 125.622C278.789 123.366 281.049 120.558 275.483 121.888C270.757 119.03 271.865 121.96 273.397 124.988Z" fill="#245745"/>
<path d="M273.707 99.0404C274.065 99.3264 274.271 99.7864 274.121 100.236C273.657 101.82 273.345 103.234 273.169 104.528C272.963 105.824 272.737 107.022 272.711 108.116C272.703 110.298 272.727 112.148 273.169 113.692C273.963 116.768 275.299 118.672 275.923 118.748C276.395 118.812 278.507 117.326 279.509 113.974C280.547 110.712 280.613 105.288 276.667 99.7284C276.427 99.3364 276.307 98.8404 276.505 98.4084C277.877 95.2304 278.613 91.6564 274.237 95.3484C268.733 94.9244 271.031 96.9864 273.707 99.0404Z" fill="#245745"/>
<path d="M261.474 76.5071C261.922 76.5631 262.296 76.8871 262.436 77.3191C264.292 83.4571 266.322 86.8331 268.408 89.2251C270.59 91.4791 272.622 92.5631 273.204 92.3511C273.662 92.1891 274.888 89.8851 274.102 86.4191C273.534 82.9751 270.632 78.1511 264.32 75.5331C263.878 75.3551 263.558 74.9531 263.498 74.4751C263.024 70.9711 261.5 67.7351 259.92 73.1391C255.002 75.8631 258.202 76.1391 261.474 76.5071Z" fill="#245745"/>
<path d="M238.95 64.158C239.37 63.946 239.866 64.002 240.204 64.33C245.098 68.528 248.604 70.456 251.734 71.154C254.712 71.964 257.1 71.614 257.462 71.136C257.772 70.736 257.43 68.27 254.954 65.686C252.488 63.266 247.606 60.664 240.872 61.822C240.412 61.87 239.928 61.718 239.624 61.37C237.386 58.766 234.556 56.49 235.872 62.062C233.002 66.776 235.908 65.676 238.95 64.158Z" fill="#245745"/>
<path d="M213.186 64.4444C213.448 64.0664 213.908 63.8784 214.35 63.9524C217.536 64.6764 220.036 64.8824 222.224 65.0104C224.386 64.9684 226.204 64.8464 227.728 64.4144C230.76 63.5544 232.66 62.2444 232.734 61.6084C232.798 61.1484 231.308 59.0044 227.906 58.0704C224.608 57.0224 219.066 57.2304 213.702 61.4384C213.336 61.7544 212.834 61.8544 212.392 61.6884C209.082 60.3744 205.526 60.1364 209.47 64.1224C209.474 69.7624 211.258 67.1004 213.186 64.4444Z" fill="#245745"/>
<path d="M191.645 78.2779C191.663 77.8239 191.975 77.4419 192.403 77.2759C198.323 74.8439 201.665 72.7319 203.789 70.3559C204.875 69.2619 205.597 68.1199 206.035 67.1799C206.489 66.2759 206.665 65.6159 206.541 65.3459C206.303 64.8099 204.017 63.9559 200.547 64.8999C198.823 65.3519 196.931 66.4479 195.033 68.0939C194.147 68.9939 193.267 70.0459 192.447 71.2459C191.631 72.4499 191.037 73.9679 190.479 75.5339C190.329 75.9819 189.935 76.3119 189.467 76.4119C186.149 77.2539 182.835 78.8139 188.417 80.0959C191.377 84.7519 191.655 81.6899 191.645 78.2779Z" fill="#245745"/>
<path d="M180.336 101.528C180.132 101.112 180.17 100.612 180.46 100.26C182.656 97.7879 183.95 95.5899 185.056 93.6739C186 91.6959 186.66 89.9939 186.956 88.4359C187.494 85.3219 187.156 83.0599 186.618 82.7059C186.238 82.4439 183.636 82.8479 181.328 85.5039C178.916 88.0299 176.794 92.9959 177.94 99.6339C178.03 100.1 177.896 100.59 177.54 100.894C174.944 103.15 172.686 105.958 178.25 104.628C182.974 107.486 181.868 104.556 180.336 101.528Z" fill="#245745"/>
<path d="M180.017 127.479C179.661 127.193 179.453 126.733 179.605 126.283C180.071 124.699 180.381 123.285 180.559 121.991C180.767 120.693 180.993 119.495 181.019 118.403C181.027 116.219 181.003 114.369 180.561 112.825C179.769 109.747 178.433 107.845 177.811 107.769C177.335 107.705 175.225 109.189 174.221 112.543C173.183 115.805 173.119 121.225 177.059 126.787C177.299 127.181 177.415 127.675 177.219 128.107C175.841 131.283 175.103 134.855 179.481 131.171C184.985 131.603 182.689 129.537 180.017 127.479Z" fill="#245745"/>
<path d="M192.198 150.045C191.75 149.989 191.378 149.663 191.24 149.229C189.4 143.089 187.382 139.703 185.298 137.307C183.124 135.045 181.09 133.959 180.51 134.169C180.05 134.331 178.822 136.629 179.6 140.097C180.162 143.541 183.044 148.375 189.35 151.011C189.792 151.189 190.11 151.593 190.168 152.071C190.642 155.569 192.148 158.823 193.744 153.415C198.662 150.707 195.476 150.413 192.198 150.045Z" fill="#245745"/>
<path d="M214.713 162.364C214.299 162.56 213.795 162.538 213.453 162.222C208.565 157.99 205.041 156.142 201.929 155.408C198.943 154.616 196.567 154.936 196.201 155.422C195.895 155.814 196.217 158.304 198.705 160.874C201.155 163.332 206.079 165.862 212.797 164.734C213.259 164.672 213.753 164.79 214.055 165.156C216.305 167.764 219.153 170.044 217.797 164.464C220.625 159.744 217.741 160.844 214.713 162.364Z" fill="#245745"/>
<path d="M67.3853 59.1189C68.6593 52.2889 62.0453 44.9469 54.7153 48.2689C54.4813 48.3369 54.1833 48.6209 54.4693 48.8489C60.0893 52.2669 62.5693 60.2049 60.0873 66.8429C60.0433 67.0269 60.1073 67.1129 60.2033 67.1529C60.2413 67.2529 60.3193 67.3209 60.4673 67.2729C66.3493 64.4709 73.3853 67.2629 76.4153 73.6069C76.6333 73.9409 76.8553 73.5849 76.9273 73.3289C79.8473 65.0689 73.4293 57.6829 67.3853 59.1189Z" fill="#245745"/>
<path d="M95.8692 20.3062C97.1432 13.4762 90.5292 6.13418 83.1992 9.45618C82.9652 9.52418 82.6672 9.80818 82.9532 10.0362C88.5732 13.4542 91.0532 21.3922 88.5712 28.0322C88.5292 28.2142 88.5912 28.3002 88.6872 28.3402C88.7252 28.4402 88.8032 28.5082 88.9512 28.4602C94.8332 25.6582 101.869 28.4502 104.899 34.7942C105.117 35.1282 105.341 34.7722 105.411 34.5162C108.331 26.2562 101.913 18.8702 95.8692 20.3062Z" fill="#245745"/>
<path d="M151.631 11.6746C152.905 4.84459 146.291 -2.49741 138.961 0.824591C138.727 0.892591 138.429 1.17659 138.715 1.40459C144.335 4.82259 146.815 12.7606 144.333 19.4006C144.289 19.5826 144.353 19.6686 144.449 19.7086C144.487 19.8086 144.563 19.8766 144.713 19.8286C150.595 17.0266 157.631 19.8186 160.661 26.1626C160.879 26.4966 161.101 26.1406 161.173 25.8846C164.093 17.6246 157.675 10.2386 151.631 11.6746Z" fill="#245745"/>
<path d="M41.0665 89.877C42.3405 83.047 35.7265 75.705 28.3965 79.027C28.1625 79.095 27.8645 79.379 28.1505 79.605C33.7705 83.025 36.2505 90.963 33.7685 97.601C33.7245 97.785 33.7885 97.871 33.8845 97.911C33.9225 98.011 34.0005 98.079 34.1485 98.031C40.0285 95.229 47.0665 98.021 50.0965 104.365C50.3145 104.699 50.5365 104.343 50.6085 104.087C53.5285 95.825 47.1105 88.441 41.0665 89.877Z" fill="#245745"/>
<path d="M13.0333 140.318C14.3073 133.488 7.69329 126.146 0.363287 129.468C0.129287 129.536 -0.168713 129.82 0.117287 130.046C5.73729 133.466 8.21729 141.404 5.73529 148.042C5.69129 148.226 5.75529 148.312 5.85129 148.352C5.88929 148.452 5.96729 148.52 6.11529 148.472C11.9973 145.67 19.0333 148.462 22.0633 154.806C22.2813 155.14 22.5053 154.784 22.5753 154.528C25.4953 146.268 19.0773 138.882 13.0333 140.318Z" fill="#245745"/>
<path d="M95.8692 226.063C97.1432 219.233 90.5292 211.891 83.1992 215.213C82.9652 215.281 82.6672 215.565 82.9532 215.793C88.5732 219.211 91.0532 227.149 88.5712 233.787C88.5292 233.971 88.5912 234.057 88.6872 234.097C88.7252 234.197 88.8032 234.265 88.9512 234.217C94.8332 231.415 101.869 234.207 104.899 240.551C105.117 240.885 105.341 240.529 105.411 240.273C108.331 232.013 101.913 224.627 95.8692 226.063Z" fill="#245745"/>
<path d="M166.822 206.05C168.096 199.22 161.482 191.878 154.152 195.2C153.918 195.268 153.62 195.552 153.906 195.78C159.526 199.198 162.006 207.136 159.524 213.774C159.48 213.958 159.544 214.044 159.64 214.084C159.678 214.184 159.754 214.252 159.904 214.204C165.786 211.402 172.822 214.194 175.852 220.538C176.07 220.872 176.292 220.516 176.364 220.26C179.284 212 172.866 204.614 166.822 206.05Z" fill="#245745"/>
<path d="M90.6893 59.1189C91.9633 52.2889 85.3493 44.9469 78.0193 48.2689C77.7853 48.3369 77.4873 48.6209 77.7733 48.8489C83.3913 52.2669 85.8733 60.2049 83.3913 66.8429C83.3473 67.0269 83.4113 67.1129 83.5073 67.1529C83.5453 67.2529 83.6213 67.3209 83.7713 67.2729C89.6533 64.4709 96.6893 67.2629 99.7193 73.6069C99.9373 73.9409 100.159 73.5849 100.231 73.3289C103.151 65.0689 96.7333 57.6829 90.6893 59.1189Z" fill="#245745"/>
<path d="M113.992 59.1189C115.266 52.2889 108.654 44.9469 101.32 48.2689C101.086 48.3369 100.79 48.6209 101.076 48.8489C106.694 52.2669 109.176 60.2049 106.692 66.8429C106.65 67.0269 106.714 67.1129 106.81 67.1529C106.848 67.2529 106.926 67.3209 107.072 67.2729C112.956 64.4709 119.992 67.2629 123.022 73.6069C123.24 73.9409 123.464 73.5849 123.534 73.3289C126.454 65.0689 120.036 57.6829 113.992 59.1189Z" fill="#245745"/>
<path d="M137.297 59.1189C138.571 52.2889 131.957 44.9469 124.625 48.2689C124.391 48.3369 124.093 48.6209 124.379 48.8489C129.999 52.2669 132.481 60.2049 129.997 66.8429C129.955 67.0269 130.019 67.1129 130.113 67.1529C130.153 67.2529 130.229 67.3209 130.377 67.2729C136.259 64.4709 143.295 67.2629 146.327 73.6069C146.545 73.9409 146.767 73.5849 146.839 73.3289C149.759 65.0689 143.341 57.6829 137.297 59.1189Z" fill="#245745"/>
<path d="M66.9223 166.246C68.2463 159.416 61.3723 152.074 53.7523 155.396C53.5103 155.464 53.2003 155.748 53.4963 155.974C59.3363 159.394 61.9163 167.332 59.3363 173.97C59.2923 174.154 59.3563 174.24 59.4563 174.28C59.4963 174.38 59.5763 174.448 59.7303 174.4C65.8443 171.598 73.1563 174.39 76.3063 180.734C76.5303 181.068 76.7643 180.712 76.8383 180.456C79.8723 172.196 73.2023 164.81 66.9223 166.246Z" fill="#245745"/>
<path d="M91.1398 166.246C92.4638 159.416 85.5898 152.074 77.9718 155.396C77.7278 155.464 77.4178 155.748 77.7158 155.974C83.5558 159.394 86.1358 167.332 83.5538 173.97C83.5098 174.154 83.5758 174.24 83.6738 174.28C83.7158 174.38 83.7958 174.448 83.9478 174.4C90.0618 171.598 97.3738 174.39 100.524 180.734C100.75 181.068 100.982 180.712 101.058 180.456C104.09 172.196 97.4198 164.81 91.1398 166.246Z" fill="#245745"/>
<path d="M115.358 166.246C116.682 159.416 109.808 152.074 102.19 155.396C101.948 155.464 101.638 155.748 101.934 155.974C107.774 159.394 110.352 167.332 107.772 173.97C107.728 174.154 107.794 174.24 107.894 174.28C107.934 174.38 108.014 174.448 108.166 174.4C114.28 171.598 121.594 174.39 124.744 180.734C124.968 181.068 125.2 180.712 125.276 180.456C128.31 172.196 121.64 164.81 115.358 166.246Z" fill="#245745"/>
<path d="M139.577 166.246C140.899 159.416 134.027 152.074 126.407 155.396C126.165 155.464 125.855 155.748 126.153 155.974C131.993 159.394 134.571 167.332 131.991 173.97C131.947 174.154 132.013 174.24 132.111 174.28C132.153 174.38 132.233 174.448 132.385 174.4C138.499 171.598 145.811 174.39 148.961 180.734C149.187 181.068 149.419 180.712 149.493 180.456C152.527 172.196 145.857 164.81 139.577 166.246Z" fill="#245745"/>
<path d="M74.9875 140.421C76.6315 134.011 69.9715 127.345 62.0875 130.653C61.8355 130.723 61.5095 130.995 61.8015 131.199C67.5835 134.233 69.8555 141.569 66.9435 147.835C66.8895 148.007 66.9515 148.087 67.0515 148.121C67.0895 148.215 67.1655 148.275 67.3235 148.225C73.6575 145.445 80.9615 147.853 83.8835 153.687C84.0975 153.993 84.3495 153.655 84.4375 153.413C87.8815 145.623 81.4295 138.911 74.9875 140.421Z" fill="#245745"/>
<path d="M89.1787 126.82C90.8227 120.41 84.1627 113.744 76.2787 117.052C76.0287 117.12 75.7027 117.396 75.9947 117.598C81.7767 120.632 84.0467 127.968 81.1367 134.234C81.0827 134.406 81.1447 134.486 81.2427 134.52C81.2807 134.612 81.3587 134.672 81.5167 134.624C87.8487 131.844 95.1547 134.252 98.0747 140.086C98.2907 140.392 98.5427 140.054 98.6307 139.814C102.073 132.02 95.6227 125.31 89.1787 126.82Z" fill="#245745"/>
<path d="M103.371 113.218C105.015 106.808 98.3553 100.142 90.4713 103.45C90.2213 103.518 89.8933 103.794 90.1853 103.996C95.9693 107.03 98.2393 114.366 95.3273 120.632C95.2753 120.804 95.3373 120.884 95.4353 120.918C95.4733 121.012 95.5513 121.072 95.7093 121.022C102.041 118.242 109.347 120.65 112.267 126.484C112.481 126.79 112.733 126.452 112.821 126.212C116.265 118.42 109.815 111.708 103.371 113.218Z" fill="#245745"/>
<path d="M117.564 99.6176C119.208 93.2076 112.548 86.5416 104.664 89.8496C104.414 89.9176 104.086 90.1916 104.378 90.3956C110.162 93.4296 112.432 100.766 109.52 107.032C109.468 107.204 109.528 107.284 109.63 107.318C109.666 107.41 109.744 107.47 109.902 107.422C116.234 104.642 123.54 107.05 126.46 112.884C126.676 113.19 126.928 112.852 127.014 112.61C130.46 104.818 124.006 98.1076 117.564 99.6176Z" fill="#245745"/>
<path d="M131.756 86.0163C133.4 79.6063 126.74 72.9403 118.856 76.2483C118.604 76.3163 118.278 76.5923 118.57 76.7943C124.352 79.8283 126.624 87.1643 123.712 93.4303C123.658 93.6023 123.722 93.6823 123.822 93.7163C123.858 93.8103 123.936 93.8703 124.094 93.8203C130.426 91.0403 137.732 93.4483 140.652 99.2823C140.868 99.5883 141.12 99.2503 141.206 99.0083C144.65 91.2183 138.198 84.5063 131.756 86.0163Z" fill="#245745"/>
<path d="M472.735 51.52H519.601C540.905 51.52 555.461 65.9 555.461 84.008C555.461 95.726 549.249 105.666 540.195 110.282V111.348C550.847 116.85 557.773 128.746 557.773 141.35C557.773 160.878 541.261 175.79 519.249 175.79H472.735V51.52ZM518.181 104.424C529.365 104.424 537.533 96.612 537.533 85.782C537.533 74.954 529.365 67.32 518.181 67.32H490.309V104.424H518.181ZM519.779 159.99C530.609 159.99 539.841 150.936 539.841 140.108C539.841 129.278 530.609 120.046 519.779 120.046H490.309V159.99H519.779Z" fill="#1F824A"/>
<path d="M583.856 51.52H630.724C652.028 51.52 667.474 66.966 667.474 87.558C667.474 104.07 657.71 116.494 641.732 121.288L671.912 175.79H652.208L623.978 124.486H601.43V175.79H583.856V51.52ZM628.95 108.684C640.488 108.684 649.544 99.452 649.544 87.914C649.544 76.552 640.488 67.32 628.95 67.32H601.43V108.684H628.95Z" fill="#1F824A"/>
<path d="M696.933 51.52H714.861L777.353 145.254H778.417V51.52H795.461V175.79H777.531L714.861 82.054H713.797V175.79H696.933V51.52Z" fill="#1F824A"/>
<path d="M823.673 113.655C823.673 76.3751 850.303 49.5671 887.053 49.5671C923.799 49.5671 950.431 76.3751 950.431 113.655C950.431 150.935 923.799 177.743 887.053 177.743C850.303 177.743 823.673 150.935 823.673 113.655ZM887.053 161.587C913.681 161.587 932.499 141.881 932.499 113.655C932.499 85.4271 913.681 65.7211 887.053 65.7211C860.243 65.7211 841.605 85.4271 841.605 113.655C841.605 141.881 860.243 161.587 887.053 161.587Z" fill="#1F824A"/>
<path d="M250.117 104.157C250.499 104.431 250.723 104.907 250.603 105.381C249.243 111.875 248.767 115.895 249.105 119.147C249.251 120.739 249.553 122.075 249.851 123.059C250.195 124.055 250.569 124.689 250.825 124.787C251.089 124.885 251.781 124.665 252.631 123.965C253.523 123.281 254.547 122.097 255.341 120.329C256.137 118.573 256.637 116.229 256.461 113.503C256.181 110.801 255.349 107.637 253.121 104.749C252.849 104.337 252.709 103.809 252.865 103.333C253.471 101.595 253.701 99.6834 253.329 98.7914C252.965 97.8694 252.121 98.1294 250.209 100.275C247.409 100.329 246.729 100.975 247.031 101.623C247.361 102.285 248.743 103.129 250.117 104.157Z" fill="#245745"/>
<path d="M207.402 96.3522C207.36 95.8662 207.662 95.4462 208.09 95.2462C211.092 93.8102 213.376 92.8442 215.328 92.0022C217.244 91.1322 218.79 90.3022 220.11 89.4622C221.422 88.6282 222.486 87.7862 223.24 87.0822C223.984 86.3302 224.4 85.7462 224.376 85.4662C224.352 85.1942 223.854 84.6362 222.854 84.1862C221.848 83.6862 220.324 83.2662 218.344 83.3662C216.384 83.4642 213.95 84.1242 211.61 85.7842C209.252 87.3762 207.092 90.1242 206.074 93.6122C205.922 94.0982 205.526 94.4842 205.078 94.6722C204.23 94.9882 203.362 95.3742 202.644 95.7942C201.978 96.2422 201.448 96.7102 201.206 97.1262C200.71 97.9902 201.44 98.4902 204.3 98.6622C206.082 100.832 207.012 100.962 207.326 100.326C207.49 99.9942 207.518 99.4322 207.48 98.7202C207.488 98.0422 207.45 97.2222 207.402 96.3522Z" fill="#245745"/>
<path d="M222.499 139.366C222.091 139.582 221.559 139.598 221.193 139.274C218.519 137.294 216.655 135.588 214.987 134.298C213.303 133.036 211.923 131.978 210.535 131.24C207.915 129.662 205.589 128.922 205.055 129.242C204.647 129.468 203.957 132.068 205.911 135.586C206.941 137.248 208.591 139.182 211.175 140.46C213.697 141.764 217.065 142.532 220.649 141.814C221.143 141.758 221.683 141.842 222.043 142.198C223.355 143.512 224.985 144.518 225.943 144.582C226.925 144.654 227.059 143.78 225.955 141.126C227.119 138.58 226.833 137.686 226.113 137.678C225.367 137.676 224.009 138.584 222.499 139.366Z" fill="#245745"/>
<path d="M248.906 183.39C248.642 183.796 248.152 183.926 247.69 183.846C241.166 182.708 236.854 183.168 233.756 184.464C230.68 185.484 228.984 187.296 228.996 187.866C229.008 188.404 230.826 190.056 234.326 190.786C237.75 191.262 243.064 190.722 248.384 186.346C248.756 186.042 249.282 186.002 249.724 186.138C252.998 187.222 256.578 187.74 252.682 183.592C252.914 178.006 250.84 180.494 248.906 183.39Z" fill="#245745"/>
<path d="M296.96 124.536C297.196 124.938 297.176 125.45 296.924 125.844C295.246 128.66 293.852 131.028 293.15 133.202C292.504 135.392 292.038 137.246 291.978 138.886C291.906 140.52 292.14 141.908 292.452 142.92C292.69 143.902 293.046 144.52 293.312 144.628C293.562 144.728 294.264 144.538 295.184 143.962C296.026 143.356 297.052 142.344 298.01 140.854C298.96 139.364 299.94 137.414 300.19 134.91C300.5 132.428 300.588 129.506 299.496 126.208C299.356 125.746 299.472 125.24 299.806 124.896C301.02 123.642 302.18 122.248 302.28 121.4C302.348 120.544 301.476 120.298 298.838 121.18C296.292 119.878 295.402 120.034 295.398 120.818C295.362 121.604 296.09 123.056 296.96 124.536Z" fill="#245745"/>
<path d="M269.035 52.9649C269.495 52.9529 269.929 53.2189 270.149 53.6309C270.911 55.1229 271.771 56.2829 272.475 57.4689C273.185 58.6469 273.917 59.6409 274.663 60.4909C276.223 62.1169 277.547 63.4769 278.931 64.3509C281.725 66.0609 284.043 66.5189 284.509 66.1769C284.937 65.8629 285.389 63.3189 283.715 60.1809C282.901 58.6069 281.737 56.7349 279.669 55.2509C278.669 54.4789 277.525 53.7309 276.235 53.0489C274.951 52.3609 273.349 51.9489 271.701 51.5509C271.231 51.4449 270.845 51.0949 270.703 50.6309C270.443 49.7849 270.147 48.9329 269.817 48.2389C269.457 47.5909 269.079 47.0809 268.717 46.8469C267.983 46.3709 267.369 47.0349 266.923 49.7949C264.601 51.4369 264.335 52.3069 265.009 52.6729C265.351 52.8609 265.941 52.9289 266.671 52.9329C267.367 52.9829 268.189 52.9889 269.035 52.9649Z" fill="#245745"/>
<path d="M217.918 40.462C218.254 40.138 218.748 39.978 219.192 40.172C222.332 41.466 224.948 41.942 227.228 42.198C229.504 42.538 231.438 42.392 233.056 42.022C236.266 41.386 238.226 40.054 238.314 39.446C238.392 38.958 236.894 36.854 233.548 35.696C231.88 35.17 229.762 34.836 227.276 34.952C224.796 35.152 221.94 36.072 218.958 37.586C218.538 37.788 218.024 37.854 217.612 37.61C214.59 35.92 211.178 34.722 214.234 39.538C212.964 44.97 215.48 42.928 217.918 40.462Z" fill="#245745"/>
<path d="M159.515 88.8109C159.357 88.3789 159.469 87.8809 159.789 87.5389C160.933 86.3209 161.853 85.1589 162.627 84.0489C163.509 82.9829 164.213 81.9569 164.775 80.9669C165.335 79.9769 165.751 79.0189 166.063 78.1029C166.461 77.2309 166.739 76.3929 166.931 75.6029C167.669 72.4389 167.105 69.9969 166.677 69.7149C166.181 69.3889 163.817 69.9669 161.361 72.5609C160.745 73.2029 160.121 73.9649 159.525 74.8549C159.017 75.7849 158.547 76.8469 158.147 78.0389C157.747 79.2289 157.421 80.5469 157.203 81.9809C157.101 83.4549 157.135 85.0569 157.317 86.7489C157.369 87.2249 157.161 87.7049 156.769 87.9869C153.811 90.0529 151.719 92.8069 157.195 91.8329C161.851 95.1609 160.617 91.9469 159.515 88.8109Z" fill="#245745"/>
<path d="M174.621 164.716C174.169 164.632 173.801 164.28 173.671 163.83C173.235 162.214 172.653 160.888 172.191 159.594C171.739 158.292 171.229 157.164 170.673 156.178C169.491 154.254 168.435 152.668 167.271 151.518C164.897 149.262 162.655 148.384 162.159 148.614C161.651 148.852 160.763 151.226 161.747 154.64C162.205 156.354 162.993 158.396 164.701 160.276C165.515 161.238 166.477 162.208 167.595 163.14C168.727 164.062 170.191 164.812 171.721 165.544C172.157 165.746 172.463 166.168 172.505 166.652C172.613 168.454 173.035 170.168 173.665 170.762C174.283 171.382 175.019 170.862 176.031 168.25C178.641 167.13 179.083 166.334 178.503 165.834C177.897 165.344 176.245 165.068 174.621 164.716Z" fill="#245745"/>
<path d="M288.209 158.187C288.219 158.649 287.959 159.079 287.553 159.291C284.757 160.885 282.359 162.187 280.715 163.717C279.869 164.459 279.197 165.245 278.587 165.977C277.939 166.667 277.413 167.365 276.987 168.045C275.285 170.759 275.103 173.249 275.461 173.693C275.797 174.113 278.185 174.295 281.299 172.699C282.077 172.301 282.895 171.795 283.727 171.163C284.515 170.489 285.261 169.635 286.009 168.663C287.453 166.681 288.979 164.263 289.603 160.883C289.705 160.417 290.047 160.039 290.501 159.911C293.835 158.955 297.065 157.413 291.453 156.245C288.411 151.641 288.119 154.807 288.209 158.187Z" fill="#245745"/>
<path d="M286.381 53.6384C286.829 53.7524 287.133 54.1484 287.209 54.6084C287.671 57.9204 288.667 60.3004 289.495 62.4004C290.337 64.4864 291.425 66.0384 292.553 67.2144C294.649 69.6284 296.799 70.6204 297.361 70.3944C297.829 70.2124 298.889 67.9044 298.271 64.4624C297.887 62.7844 297.111 60.8144 295.763 58.7644C294.433 56.7104 292.105 54.8204 289.309 53.0804C288.903 52.8424 288.671 52.3824 288.671 51.9104C288.565 48.5164 287.839 45.0464 285.279 50.0884C279.963 51.8404 283.011 52.8804 286.381 53.6384Z" fill="#245745"/>
<path d="M180.859 41.3294C181.013 40.9014 181.415 40.6034 181.877 40.5554C185.151 40.2114 187.629 39.4554 189.807 38.8074C191.939 38.0934 193.509 36.9854 194.799 36.0354C197.389 34.1914 198.463 31.9754 198.287 31.4334C198.119 30.9214 195.935 29.8534 192.427 30.1494C190.691 30.3234 188.727 31.0894 186.601 32.3114C184.439 33.4574 182.365 35.5754 180.497 38.3574C180.233 38.7474 179.773 38.9714 179.295 38.9254C175.763 38.5854 172.409 39.2994 177.197 42.1134C178.641 47.6294 179.729 44.4294 180.859 41.3294Z" fill="#245745"/>
<path d="M149.695 134.337C149.335 134.045 149.179 133.567 149.279 133.119C149.887 129.961 150.433 127.265 150.315 125.007C150.221 122.747 149.763 120.875 149.319 119.329C148.303 116.265 146.497 114.581 145.927 114.589C145.389 114.597 143.731 116.365 142.987 119.757C142.549 121.451 142.559 123.535 143.127 125.911C143.715 128.275 144.575 130.979 146.737 133.649C147.027 134.027 147.093 134.533 146.895 134.961C145.459 138.113 144.535 141.557 149.069 138.065C154.553 138.757 152.327 136.467 149.695 134.337Z" fill="#245745"/>
<path d="M222.275 197.947C221.899 198.215 221.397 198.241 220.991 198.023C218.095 196.589 215.637 195.473 213.447 194.921C211.257 194.377 209.329 194.389 207.741 194.375C204.545 194.505 202.413 195.769 202.257 196.317C202.109 196.835 203.335 198.917 206.415 200.581C207.937 201.491 209.969 201.971 212.415 202.091C214.853 202.221 217.709 201.983 220.843 200.615C221.283 200.439 221.787 200.509 222.149 200.813C224.817 203.035 227.897 204.839 225.711 199.541C227.811 194.439 225.017 195.975 222.275 197.947Z" fill="#245745"/>
</g>
<defs>
<clipPath id="clip0_3801_1045">
<rect width="951" height="241" fill="white"/>
</clipPath>
</defs>
</svg>
