<svg viewBox="0 0 51 19" fill="none" xmlns="http://www.w3.org/2000/svg">
<path d="M38.3635 13.8633L38.3195 13.8798C38.3203 13.8721 38.3208 13.866 38.3213 13.8572C38.3176 13.7531 38.2651 13.6502 38.2002 13.6587C38.1352 13.6674 38.091 13.782 38.1029 13.884C38.1079 13.9317 38.1238 13.9678 38.144 13.993C38.0189 13.9434 37.8473 13.9434 37.6578 13.9688C37.4813 14.0089 37.2893 14.0797 37.1435 14.1772C37.0004 14.2801 36.9129 14.3832 36.8692 14.4815C36.8503 14.5208 36.8151 14.5534 36.7743 14.5664C36.6624 14.5992 36.5532 14.6727 36.4723 14.7845C36.3581 14.9338 36.3602 15.1387 36.4455 15.2834C36.6133 15.5575 36.9646 15.5734 37.1836 15.395C37.2384 15.3476 37.2787 15.2895 37.3058 15.2254C37.3209 15.1864 37.3561 15.1626 37.397 15.162C37.4953 15.1573 37.6003 15.1209 37.7164 15.0361C37.8328 14.9584 37.9489 14.8625 38.0475 14.745C38.1503 14.647 38.2368 14.521 38.2908 14.4116C38.2919 14.4423 38.3033 14.4797 38.3272 14.5218C38.3791 14.612 38.4597 14.6896 38.4971 14.6679C38.5347 14.6462 38.5236 14.5311 38.4798 14.4389C38.4756 14.432 38.4727 14.4272 38.4687 14.4208C38.4812 14.4187 38.4934 14.4171 38.5056 14.4134C38.6638 14.3691 38.7847 14.235 38.7696 14.0741C38.7563 13.9225 38.5687 13.8074 38.3635 13.8633Z" fill="#1F2023"/>
<path d="M41.4483 14.2545L41.4074 14.254C41.4106 14.2471 41.413 14.2415 41.4165 14.2336C41.4469 14.1349 41.4382 14.0202 41.3902 14.0056C41.3398 13.9923 41.2781 14.0766 41.2426 14.1742C41.2269 14.2195 41.2229 14.2585 41.2277 14.2898C41.079 14.1 40.7871 13.8927 40.4804 13.8009C40.3304 13.7551 40.1928 13.7516 40.0934 13.7787C40.0526 13.789 40.0027 13.7826 39.9677 13.7553C39.8739 13.6816 39.7459 13.636 39.5974 13.6459C39.3997 13.6504 39.2276 13.7893 39.1839 13.9473C39.1091 14.2566 39.3085 14.5273 39.5627 14.5803C39.6292 14.592 39.6989 14.5941 39.7641 14.5769C39.8031 14.5681 39.8424 14.579 39.8702 14.6103C39.9391 14.6863 40.0316 14.7433 40.1878 14.791C40.4855 14.8809 40.9321 14.8801 41.1625 14.7282C41.1474 14.7563 41.1389 14.7945 41.1424 14.843C41.1485 14.9456 41.2142 15.0572 41.2707 15.0508C41.3292 15.0463 41.3634 14.9358 41.3523 14.8329C41.3505 14.825 41.3491 14.8194 41.3475 14.812L41.3905 14.8199C41.5864 14.8417 41.7531 14.7221 41.76 14.5639C41.7666 14.4085 41.6275 14.2749 41.4483 14.2545Z" fill="#1F2023"/>
<path d="M44.199 13.6988L44.1672 13.7235C44.1653 13.7158 44.164 13.7102 44.1619 13.7018C44.1253 13.6042 44.05 13.5207 44.0036 13.5348C43.9575 13.5488 43.9551 13.6609 43.9867 13.7593C44.0018 13.8051 44.0222 13.8383 44.0452 13.86C43.8019 13.8025 43.4501 13.8314 43.1895 13.9046C43.0583 13.9496 42.9623 13.9934 42.8971 14.0663C42.8706 14.0959 42.8309 14.1063 42.7937 14.093C42.6949 14.0572 42.5902 14.0636 42.4786 14.1002C42.3296 14.1582 42.206 14.2958 42.1692 14.4607C42.0958 14.7703 42.3563 15.0479 42.7052 15.0105C42.7906 14.9981 42.869 14.9686 42.9348 14.9275C42.9737 14.9039 43.0228 14.8989 43.066 14.9108C43.1707 14.9392 43.312 14.9514 43.4846 14.8939C43.8324 14.7958 44.1783 14.5002 44.26 14.2478C44.2653 14.2794 44.2817 14.3146 44.3138 14.351C44.3819 14.4289 44.4932 14.4777 44.5404 14.4395C44.5873 14.4013 44.546 14.2905 44.4749 14.2168C44.4686 14.2115 44.4643 14.2081 44.4585 14.203L44.4975 14.1824C44.6687 14.0761 44.726 13.8799 44.6327 13.7513C44.5418 13.6259 44.3488 13.6061 44.199 13.6988Z" fill="#1F2023"/>
<path d="M46.3014 11.6853L46.281 11.7197C46.2763 11.7139 46.2726 11.7091 46.2673 11.7025C46.1951 11.6299 46.0894 11.583 46.0528 11.6161C46.0165 11.6492 46.0607 11.7537 46.1307 11.8298C46.1636 11.8653 46.1965 11.8865 46.2262 11.8966C45.9818 11.9472 45.665 12.1314 45.4635 12.3393C45.3538 12.4477 45.2952 12.5519 45.2713 12.6494C45.2612 12.6886 45.2321 12.7212 45.1931 12.7329C45.0887 12.7642 44.9951 12.8334 44.9246 12.9339C44.8313 13.0746 44.8167 13.2615 44.889 13.4142C45.0227 13.7037 45.3943 13.7599 45.6403 13.5396C45.6997 13.4842 45.7437 13.4192 45.7721 13.3506C45.789 13.31 45.8251 13.2803 45.8678 13.2705C45.9701 13.2464 46.0796 13.1822 46.1975 13.0656C46.4364 12.8209 46.6164 12.4214 46.5843 12.1579C46.6026 12.1839 46.6325 12.2091 46.6768 12.2287C46.7712 12.2709 46.8915 12.2693 46.9173 12.2157C46.9432 12.1619 46.8624 12.08 46.7659 12.0413C46.7579 12.0392 46.7524 12.0376 46.7449 12.0355L46.7736 12.0018C46.8799 11.8324 46.855 11.6315 46.7187 11.5538C46.5824 11.4761 46.3953 11.535 46.3014 11.6853Z" fill="#1F2023"/>
<path d="M47.1961 8.9659L47.1979 9.00646C47.1905 9.00354 47.1849 9.00142 47.177 8.9985C47.0765 8.97252 46.9636 8.98604 46.9501 9.03376C46.9352 9.08148 47.0261 9.14881 47.125 9.1785C47.1712 9.19202 47.2101 9.19361 47.2411 9.18672C47.0572 9.35584 46.8811 9.68058 46.8133 9.9576C46.7764 10.0984 46.7804 10.2116 46.8037 10.3041C46.8143 10.342 46.8048 10.3831 46.777 10.4106C46.7054 10.4857 46.6455 10.5795 46.6336 10.6999C46.615 10.8616 46.6781 11.0331 46.8117 11.1426C47.0505 11.3477 47.4225 11.2433 47.5428 10.9215C47.5744 10.8433 47.5866 10.7627 47.5778 10.6853C47.5736 10.6402 47.5913 10.5954 47.6245 10.5649C47.7074 10.4923 47.7713 10.3754 47.8153 10.2063C47.8983 9.87038 47.845 9.43802 47.6825 9.22834C47.7114 9.24133 47.7501 9.24769 47.7981 9.24186C47.9009 9.22966 48.0041 9.16736 47.9993 9.10851C47.9935 9.04966 47.8803 9.02024 47.7785 9.03615C47.7708 9.03827 47.7652 9.03986 47.7581 9.04171L47.7634 8.99824C47.7748 8.79968 47.6483 8.63957 47.4895 8.64063C47.3344 8.64169 47.2064 8.78749 47.1961 8.9659Z" fill="#1F2023"/>
<path d="M46.9315 5.93733V5.98319C46.9244 5.98027 46.9188 5.97789 46.9111 5.9747C46.8117 5.9466 46.6964 5.96437 46.6824 6.02666C46.6723 6.08816 46.7698 6.16371 46.8711 6.18519C46.9186 6.19526 46.9575 6.19234 46.9875 6.18147C46.8048 6.38162 46.733 6.83201 46.7977 7.15515C46.8274 7.31792 46.8844 7.43032 46.9514 7.50189C46.9793 7.53158 46.9912 7.57373 46.9803 7.6127C46.949 7.71873 46.952 7.81814 46.9946 7.93399C47.0551 8.08747 47.2003 8.20677 47.366 8.23646C47.6788 8.29504 47.9434 8.02703 47.8986 7.68851C47.8851 7.60475 47.857 7.5231 47.8135 7.46372C47.7883 7.42766 47.7827 7.38127 47.7973 7.34045C47.8336 7.23919 47.8405 7.1191 47.8127 6.96694C47.7549 6.67057 47.5985 6.35776 47.431 6.17829C47.4612 6.18757 47.5002 6.18916 47.5473 6.17988C47.6483 6.15947 47.7446 6.1046 47.7337 6.05953C47.7271 6.015 47.6157 5.98981 47.5129 6.0036C47.5052 6.00545 47.4996 6.00678 47.4922 6.00864C47.4946 5.99591 47.4978 5.98345 47.4988 5.97046C47.5065 5.80081 47.4066 5.64308 47.2536 5.61498C47.098 5.58635 46.9419 5.72923 46.9315 5.93733Z" fill="#1F2023"/>
<path d="M48.3328 3.0851L48.3063 3.1201C48.3026 3.1132 48.2997 3.1079 48.2954 3.10048C48.2355 3.01565 48.1372 2.95574 48.0913 2.99179C48.0457 3.02784 48.0722 3.14395 48.1343 3.22666C48.1632 3.26537 48.1942 3.28896 48.2236 3.30089C47.9614 3.32634 47.6075 3.57526 47.4191 3.86977C47.3255 4.01981 47.278 4.14308 47.2844 4.25786C47.2857 4.30319 47.2666 4.34853 47.2316 4.37742C47.1373 4.45403 47.0593 4.56828 47.0402 4.71515C47.0037 4.90999 47.088 5.09688 47.2396 5.18276C47.5153 5.33201 47.8376 5.19655 47.941 4.95691C47.9694 4.89461 47.9861 4.83019 47.9848 4.76339C47.9845 4.72442 48.006 4.68917 48.0402 4.67087C48.1184 4.62448 48.2096 4.5537 48.2851 4.43176C48.4362 4.19504 48.5613 3.84326 48.5579 3.59249C48.5741 3.61953 48.6019 3.64683 48.6438 3.67095C48.7336 3.72212 48.8466 3.74094 48.872 3.6972C48.8975 3.65346 48.8277 3.56121 48.7397 3.50766C48.7326 3.50421 48.7273 3.50183 48.7206 3.49865L48.7501 3.47081C48.8675 3.33376 48.8927 3.14687 48.7795 3.03315C48.6713 2.92446 48.4617 2.93586 48.3328 3.0851Z" fill="#1F2023"/>
<path d="M40.0181 15.4445L39.9723 15.444C39.9755 15.4369 39.9781 15.4313 39.9815 15.4236C40.0142 15.325 39.9998 15.2094 39.9375 15.1946C39.8798 15.1816 39.8053 15.2754 39.7814 15.3756C39.77 15.4225 39.7713 15.4615 39.7806 15.492C39.5969 15.3107 39.2056 15.1985 38.8873 15.2264C38.7261 15.2388 38.6084 15.2868 38.5275 15.3499C38.4944 15.3767 38.4501 15.3868 38.4093 15.3746C38.3006 15.3404 38.1723 15.3478 38.0474 15.4064C37.877 15.4856 37.7683 15.6648 37.7879 15.8329C37.8375 16.1436 38.1021 16.3347 38.3534 16.2905C38.4191 16.2785 38.478 16.2499 38.5318 16.212C38.5628 16.1895 38.6033 16.1865 38.6378 16.204C38.7229 16.2486 38.8297 16.2661 38.9726 16.2555C39.2531 16.2308 39.5905 16.1025 39.7676 15.9352C39.7578 15.9649 39.7546 16.0039 39.7618 16.0513C39.7777 16.1534 39.827 16.2528 39.871 16.2443C39.91 16.2374 39.9367 16.1264 39.9293 16.024C39.928 16.0161 39.9269 16.0105 39.9256 16.0034C39.937 16.0057 39.9481 16.0087 39.9598 16.0097C40.0038 16.0126 40.02 16.0105 40.0544 16.0002C40.0971 15.9943 40.1372 15.9814 40.1721 15.9623C40.2424 15.9241 40.2928 15.8621 40.3087 15.7852C40.3246 15.7083 40.3036 15.6317 40.2586 15.5699C40.236 15.5389 40.2071 15.5119 40.1735 15.4904C40.1313 15.4684 40.064 15.4469 40.0181 15.4445Z" fill="#1F2023"/>
<path d="M42.8302 15.6003C42.8172 15.6025 42.805 15.6067 42.7928 15.6101C42.7939 15.6025 42.7947 15.5964 42.796 15.5881C42.8008 15.4847 42.7655 15.3758 42.7183 15.3731C42.6709 15.3694 42.625 15.4696 42.617 15.5725C42.6136 15.6202 42.62 15.6589 42.6324 15.6878C42.4378 15.537 42.0959 15.4392 41.8181 15.436C41.6768 15.4315 41.5707 15.4606 41.4891 15.5121C41.456 15.5338 41.4151 15.5319 41.3823 15.5115C41.2948 15.4553 41.1901 15.4299 41.074 15.4513C40.917 15.4744 40.7739 15.5884 40.7105 15.7469C40.5902 16.0375 40.7826 16.3561 41.0997 16.3845C41.1779 16.3914 41.2534 16.3808 41.321 16.3558C41.3608 16.3405 41.4056 16.3497 41.4408 16.3717C41.5259 16.4282 41.6463 16.4637 41.8096 16.4682C42.133 16.4722 42.5184 16.3248 42.6817 16.1287C42.6754 16.1594 42.6772 16.1984 42.6921 16.2445C42.7239 16.3426 42.8018 16.4335 42.8551 16.4163C42.9081 16.3975 42.9137 16.2819 42.879 16.1851C42.8752 16.1777 42.8729 16.1727 42.8697 16.166L42.9113 16.1629C43.0971 16.1326 43.2228 15.9831 43.1918 15.8294C43.1605 15.6756 42.9988 15.5728 42.8302 15.6003Z" fill="#1F2023"/>
<path d="M45.4157 14.6328C45.4045 14.6399 45.395 14.6484 45.3849 14.6566C45.3828 14.6492 45.3812 14.6434 45.3791 14.6352C45.3409 14.5395 45.2638 14.4544 45.219 14.4708C45.1742 14.4875 45.176 14.6015 45.2113 14.6988C45.2282 14.7441 45.2497 14.7764 45.2731 14.7974C45.0302 14.7351 44.6811 14.7939 44.4266 14.9018C44.3004 14.9647 44.2124 15.0243 44.1591 15.1041C44.1371 15.1356 44.1006 15.1537 44.0629 15.1489C43.9627 15.1386 43.8564 15.1539 43.7583 15.216C43.6263 15.3019 43.5428 15.4683 43.546 15.6345C43.5508 15.9542 43.8524 16.1618 44.1589 16.0632C44.2352 16.042 44.2991 15.9972 44.3505 15.945C44.3808 15.9142 44.4242 15.901 44.4664 15.9084C44.5676 15.9251 44.6967 15.9182 44.8444 15.8461C45.1437 15.7186 45.4295 15.4188 45.5 15.1783C45.5071 15.2093 45.5252 15.2443 45.5575 15.2796C45.6267 15.3554 45.733 15.4029 45.7738 15.3647C45.8146 15.3265 45.7722 15.2194 45.7004 15.1449C45.6943 15.1399 45.6898 15.1362 45.6842 15.1314L45.7211 15.1121C45.8809 15.0129 45.9321 14.8231 45.8395 14.6932C45.7499 14.5676 45.5615 14.5426 45.4157 14.6328Z" fill="#1F2023"/>
<path d="M47.4466 12.733C47.4389 12.7438 47.4334 12.7552 47.427 12.7666C47.4225 12.7603 47.4188 12.7555 47.4137 12.7489C47.3432 12.6733 47.2406 12.6219 47.2054 12.6542C47.1717 12.6871 47.2102 12.7894 47.2783 12.8671C47.3101 12.9029 47.3419 12.9254 47.3716 12.9366C47.2475 12.9511 47.1086 13.0052 46.9798 13.0818C46.8449 13.1539 46.7166 13.2459 46.6219 13.3493C46.522 13.4508 46.465 13.5449 46.4451 13.6393C46.4369 13.6775 46.4098 13.7088 46.3727 13.7191C46.2757 13.7496 46.1816 13.805 46.1151 13.902C46.0247 14.0327 46.0159 14.222 46.0862 14.3733C46.2192 14.6639 46.5747 14.7296 46.816 14.5239C46.8772 14.4746 46.9191 14.411 46.9451 14.3429C46.9607 14.3031 46.9952 14.2742 47.0365 14.2655C47.1359 14.2429 47.2475 14.1857 47.3613 14.0701C47.4699 13.9521 47.5696 13.8023 47.637 13.6497C47.699 13.4917 47.7316 13.3345 47.7215 13.2091C47.739 13.2351 47.7682 13.261 47.8116 13.2825C47.9039 13.3284 48.0245 13.3374 48.047 13.2857C48.0706 13.2348 47.9919 13.1502 47.8983 13.107C47.8906 13.1046 47.8853 13.1028 47.8782 13.1004L47.9052 13.0686C48.0142 12.9154 47.9959 12.7216 47.8644 12.6357C47.7329 12.5501 47.5458 12.5935 47.4466 12.733Z" fill="#1F2023"/>
<path d="M48.5822 10.2146C48.579 10.2275 48.5782 10.24 48.5767 10.2527C48.57 10.249 48.5647 10.2461 48.5576 10.2421C48.4629 10.2021 48.3476 10.1968 48.3269 10.24C48.306 10.2832 48.3869 10.3614 48.4807 10.4046C48.5244 10.4248 48.5629 10.4322 48.5942 10.4303C48.3874 10.561 48.1766 10.8481 48.0743 11.1045C48.0277 11.2373 48.0136 11.3444 48.0295 11.4372C48.0364 11.4751 48.0232 11.5135 47.9929 11.5368C47.9145 11.6002 47.853 11.6879 47.8265 11.8009C47.7931 11.9546 47.854 12.132 47.9744 12.2465C48.205 12.4678 48.5634 12.3986 48.7103 12.1129C48.7492 12.0442 48.7601 11.966 48.7606 11.8936C48.7601 11.8507 48.7816 11.8104 48.8168 11.786C48.903 11.7272 48.9833 11.6285 49.0384 11.4737C49.1585 11.1718 49.1543 10.7583 49.0247 10.5369C49.0514 10.5536 49.0888 10.5655 49.1368 10.5674C49.2399 10.5716 49.3497 10.5295 49.3526 10.4738C49.3555 10.4179 49.2497 10.3728 49.1461 10.3715C49.1379 10.3723 49.1323 10.3731 49.1246 10.3736L49.1379 10.3341C49.1763 10.1499 49.0732 9.97889 48.9194 9.9545C48.7633 9.92958 48.6172 10.0473 48.5822 10.2146Z" fill="#1F2023"/>
<path d="M48.6269 7.43446C48.6288 7.44771 48.6328 7.45991 48.6362 7.47237C48.6285 7.4713 48.6227 7.47051 48.6142 7.46945C48.5116 7.4668 48.4027 7.50497 48.3995 7.55348C48.3966 7.60199 48.501 7.6452 48.6039 7.65024C48.6521 7.65263 48.6903 7.64494 48.7189 7.63168C48.5752 7.83103 48.4891 8.18175 48.4978 8.46089C48.5076 8.60298 48.5333 8.70795 48.588 8.78721C48.6094 8.81955 48.6131 8.86038 48.5948 8.89404C48.5492 8.98444 48.5214 9.08995 48.5477 9.20473C48.5842 9.3606 48.7014 9.49713 48.8621 9.55306C49.1592 9.66095 49.467 9.45286 49.4808 9.13422C49.4861 9.05575 49.4731 8.98073 49.4413 8.91446C49.4233 8.87549 49.4267 8.83016 49.449 8.79411C49.5017 8.70663 49.5402 8.58495 49.5296 8.42271C49.5195 8.10116 49.3599 7.72606 49.1579 7.56965C49.1892 7.57496 49.2281 7.57204 49.2735 7.55587C49.3708 7.52141 49.4569 7.44214 49.4389 7.38992C49.4209 7.33796 49.3058 7.33531 49.2091 7.37216C49.2019 7.37587 49.1966 7.37852 49.19 7.38197L49.1873 7.34062C49.1613 7.17918 49.0277 7.05882 48.87 7.06466C48.7139 7.07022 48.5956 7.24121 48.6269 7.43446Z" fill="#1F2023"/>
<path d="M48.9298 4.42279L48.9187 4.46494C48.9123 4.4599 48.9078 4.45619 48.9012 4.45089C48.814 4.39443 48.7002 4.37508 48.6711 4.4273C48.6417 4.47952 48.71 4.57734 48.7994 4.62824C48.8413 4.6521 48.8792 4.66137 48.9113 4.66084C48.6878 4.78729 48.4717 5.15524 48.428 5.47653C48.4039 5.63903 48.4224 5.76335 48.4678 5.8564C48.486 5.89431 48.4845 5.93937 48.4638 5.97569C48.4094 6.07298 48.3821 6.19492 48.41 6.32349C48.4439 6.49845 48.5823 6.63709 48.7464 6.6742C49.056 6.73995 49.3266 6.51754 49.3418 6.24476C49.3465 6.1753 49.3338 6.10877 49.3073 6.04753C49.2914 6.01148 49.2996 5.97118 49.3248 5.94096C49.3852 5.86753 49.4284 5.76707 49.4491 5.62789C49.4873 5.35326 49.4475 5.01315 49.3335 4.79577C49.3593 4.81327 49.3961 4.82705 49.4438 4.83315C49.5464 4.84614 49.6562 4.82732 49.6609 4.78385C49.6654 4.74011 49.5658 4.68205 49.465 4.66323C49.4571 4.6627 49.4515 4.66217 49.4441 4.66164C49.4497 4.6505 49.4555 4.6399 49.4597 4.62824C49.5196 4.48005 49.464 4.30562 49.3301 4.23007C49.1904 4.15187 49.0046 4.23776 48.9298 4.42279Z" fill="#1F2023"/>
<path d="M42.3012 17.2646L42.2598 17.2672C42.2625 17.2598 42.2646 17.2543 42.2675 17.2463C42.2924 17.1456 42.2763 17.0318 42.2275 17.0207C42.1784 17.0114 42.1116 17.0971 42.0827 17.1973C42.0692 17.2434 42.0682 17.2824 42.0756 17.3134C41.9998 17.2283 41.8908 17.1511 41.7699 17.0875C41.7103 17.0504 41.6472 17.017 41.5833 16.9881C41.5496 16.9743 41.5173 16.9613 41.4866 16.9486C41.4508 16.9361 41.4219 16.9263 41.4264 16.9242C41.4227 16.9208 41.4346 16.9242 41.4182 16.9165L41.359 16.8903C41.1947 16.8232 41.0611 16.8081 40.9527 16.8267C40.9089 16.8338 40.8609 16.8222 40.8273 16.7917C40.7377 16.7106 40.6118 16.6554 40.4654 16.6491C40.2661 16.6392 40.0803 16.7474 40.0153 16.9046C39.905 17.201 40.0768 17.4963 40.3469 17.5785C40.4169 17.5994 40.4888 17.6031 40.5582 17.5944C40.5993 17.5891 40.6401 17.6055 40.6656 17.6386C40.7276 17.7174 40.8238 17.7868 40.9651 17.8446C41.015 17.8642 41.0656 17.8841 41.1191 17.9053C41.1968 17.917 41.2416 17.9212 41.2801 17.9225C41.3201 17.9236 41.3617 17.9244 41.4052 17.9252C41.4884 17.9244 41.5709 17.9186 41.6488 17.9077C41.8057 17.8751 41.9444 17.8223 42.0393 17.7555C42.0263 17.7842 42.0202 17.8229 42.0268 17.8711C42.0411 17.9729 42.1071 18.0816 42.1684 18.0713C42.2296 18.0625 42.2582 17.9499 42.2397 17.8483C42.2373 17.8404 42.2357 17.8351 42.2336 17.8279L42.2789 17.8324C42.4849 17.8367 42.6477 17.7145 42.6418 17.5535C42.6365 17.4009 42.4838 17.268 42.3012 17.2646Z" fill="#1F2023"/>
<path d="M45.2066 16.6202L45.1706 16.6422C45.1695 16.6345 45.1687 16.6284 45.1677 16.6199C45.1427 16.5184 45.0765 16.428 45.025 16.4383C44.9739 16.4492 44.9559 16.5624 44.9773 16.6631C44.9874 16.7103 45.0052 16.7453 45.0264 16.7689C44.782 16.6891 44.3984 16.7111 44.111 16.7935C43.9641 16.833 43.865 16.9009 43.7945 16.9685C43.7659 16.9969 43.724 17.0093 43.6845 16.9992C43.5782 16.9695 43.465 16.986 43.3502 17.0305C43.1957 17.0941 43.0793 17.2471 43.0546 17.4176C43.004 17.7335 43.2924 17.9782 43.6386 17.9228C43.7226 17.9053 43.799 17.8717 43.8629 17.8269C43.9003 17.8003 43.9493 17.7932 43.9933 17.8064C44.1004 17.8401 44.234 17.83 44.4055 17.7828C44.7438 17.6858 45.0945 17.4165 45.2048 17.1747C45.2072 17.2065 45.2204 17.2431 45.249 17.2824C45.3103 17.3661 45.4155 17.4263 45.4656 17.3937C45.516 17.3616 45.4868 17.2463 45.424 17.1655C45.4182 17.1596 45.4142 17.1556 45.4089 17.1503L45.4505 17.1334C45.6313 17.0427 45.7175 16.8569 45.6432 16.7188C45.5687 16.5804 45.3734 16.5361 45.2066 16.6202Z" fill="#1F2023"/>
<path d="M47.6912 14.871L47.6631 14.9033C47.6599 14.8962 47.6572 14.8906 47.6535 14.8829C47.5992 14.7949 47.5056 14.7276 47.4611 14.757C47.4173 14.787 47.4343 14.8996 47.4868 14.9884C47.5114 15.0298 47.5395 15.0571 47.5674 15.0727C47.3078 15.0748 46.946 15.2291 46.7021 15.4179C46.5786 15.5144 46.5014 15.605 46.4633 15.7005C46.4476 15.7389 46.4137 15.7683 46.3731 15.7757C46.2652 15.7967 46.1552 15.8431 46.0693 15.9385C45.9532 16.0687 45.906 16.2529 45.9543 16.4149C46.0431 16.7208 46.4087 16.8303 46.6904 16.6405C46.7607 16.5943 46.8188 16.5381 46.8569 16.4703C46.8797 16.4313 46.9208 16.4053 46.9651 16.4006C47.0716 16.3878 47.1976 16.3407 47.3341 16.2344C47.605 16.0247 47.8388 15.662 47.8667 15.3999C47.8791 15.429 47.9035 15.4595 47.943 15.4873C48.0278 15.5472 48.1469 15.5727 48.1805 15.5244C48.2147 15.477 48.1532 15.3789 48.0676 15.3209C48.0604 15.3171 48.0554 15.3142 48.0488 15.3108L48.083 15.2827C48.2264 15.1435 48.2516 14.9415 48.1397 14.8315C48.0276 14.7217 47.8266 14.7392 47.6912 14.871Z" fill="#1F2023"/>
<path d="M49.517 12.4665L49.5027 12.5057C49.4971 12.5004 49.4926 12.4962 49.4865 12.4906C49.4038 12.4286 49.2925 12.3992 49.2623 12.4403C49.2336 12.4822 49.2898 12.5794 49.3699 12.6441C49.4075 12.6743 49.4431 12.6903 49.4746 12.6953C49.2318 12.7849 48.9526 13.0388 48.7745 13.283C48.6881 13.41 48.6459 13.5208 48.6335 13.6199C48.6292 13.6607 48.6051 13.6981 48.568 13.7162C48.4707 13.7655 48.3838 13.8455 48.3246 13.959C48.248 14.1146 48.2581 14.3084 48.3501 14.4491C48.5248 14.7171 48.9015 14.7153 49.1207 14.4563C49.1766 14.394 49.21 14.3171 49.2302 14.2434C49.2419 14.1994 49.2742 14.1628 49.3158 14.1456C49.4184 14.105 49.5218 14.0191 49.6217 13.8731C49.8269 13.5908 49.9324 13.1547 49.8691 12.8981C49.8908 12.9211 49.9239 12.9413 49.9711 12.9538C50.0713 12.9803 50.1935 12.9606 50.2081 12.901C50.2243 12.8421 50.1315 12.7724 50.0305 12.7496C50.0225 12.7488 50.0167 12.7483 50.0093 12.7475L50.0313 12.708C50.1204 12.5235 50.0628 12.3228 49.9152 12.2648C49.7707 12.2081 49.5973 12.3006 49.517 12.4665Z" fill="#1F2023"/>
<path d="M50.2004 9.52324L50.2007 9.56618C50.1935 9.56327 50.188 9.56088 50.1803 9.55743C50.0811 9.52854 49.9663 9.54153 49.9512 9.59349C49.9361 9.64518 50.0268 9.71834 50.1257 9.74883C50.1718 9.76288 50.2108 9.7642 50.2418 9.75678C50.0514 9.93386 49.8929 10.2973 49.8383 10.5984C49.815 10.7538 49.8213 10.8715 49.8558 10.9667C49.8698 11.0054 49.8645 11.0494 49.8394 11.0817C49.7747 11.1697 49.7243 11.2755 49.7251 11.4025C49.7278 11.575 49.807 11.7402 49.9541 11.8322C50.2187 12.005 50.5737 11.8454 50.6556 11.5104C50.6776 11.4279 50.6816 11.346 50.6646 11.2699C50.6556 11.2254 50.6686 11.1782 50.6983 11.1445C50.7706 11.0629 50.8305 10.9415 50.8562 10.7702C50.9175 10.4312 50.8393 10.0091 50.6831 9.7976C50.7123 9.81059 50.7507 9.81669 50.7987 9.81086C50.9016 9.7984 51.0044 9.73769 50.9997 9.68017C50.9949 9.62238 50.8838 9.59083 50.781 9.60488C50.773 9.607 50.7674 9.6086 50.76 9.61045C50.7629 9.59587 50.7661 9.58182 50.7669 9.56671C50.7799 9.36948 50.6635 9.20248 50.5069 9.19373C50.3502 9.18498 50.2129 9.33264 50.2004 9.52324Z" fill="#1F2023"/>
<path d="M49.9536 6.46762C49.9558 6.48273 49.96 6.49678 49.9637 6.51083C49.9558 6.5095 49.9499 6.50844 49.9414 6.50685C49.8381 6.49996 49.7294 6.53892 49.728 6.59645C49.7265 6.65371 49.8328 6.70673 49.9359 6.71229C49.9844 6.71494 50.0223 6.70646 50.0504 6.69162C49.9091 6.91297 49.8569 7.32571 49.9078 7.64144C49.9335 7.80182 49.9828 7.91448 50.0483 7.99374C50.0753 8.02661 50.0846 8.06982 50.0716 8.10959C50.0371 8.21456 50.0363 8.33438 50.0745 8.44148C50.1286 8.56634 50.2516 8.71558 50.4165 8.76568C50.5689 8.80995 50.7166 8.77311 50.8276 8.68298C50.8841 8.64242 50.9292 8.57641 50.9578 8.48575C50.9848 8.4041 50.9965 8.3153 50.987 8.22994C50.9782 8.14299 50.9512 8.06505 50.9111 8.00037C50.8878 7.96193 50.8849 7.91289 50.9008 7.87259C50.9406 7.77266 50.9538 7.64329 50.927 7.47761C50.8746 7.15128 50.6903 6.78652 50.4886 6.62216C50.5199 6.62773 50.5588 6.62402 50.6039 6.60679C50.7004 6.56968 50.7863 6.49015 50.7683 6.43872C50.75 6.38703 50.6344 6.38199 50.5376 6.41804C50.5305 6.42175 50.5252 6.42441 50.5185 6.42759L50.5159 6.38517C50.4881 6.19696 50.3454 6.06176 50.1888 6.0774C50.0332 6.09278 49.9245 6.27092 49.9536 6.46762Z" fill="#1F2023"/>
<path d="M36.8346 12.4803C36.8308 12.4919 36.8295 12.5039 36.8277 12.5158C36.8213 12.5113 36.8163 12.5078 36.8094 12.5031C36.7179 12.4522 36.6095 12.4318 36.5843 12.4649C36.5578 12.4978 36.6262 12.581 36.7108 12.6399C36.7503 12.6666 36.7866 12.6812 36.8176 12.6855C36.6015 12.7745 36.324 12.9659 36.1591 13.1785C36.0687 13.2846 36.0197 13.3824 36.0072 13.4781C36.0016 13.5168 35.9778 13.5499 35.9415 13.5626C35.8394 13.5934 35.7495 13.6578 35.6878 13.7607C35.6075 13.9025 35.5945 14.0854 35.6745 14.2357C35.8198 14.5154 36.1891 14.5732 36.4208 14.3423C36.4788 14.2866 36.5212 14.2214 36.5475 14.1533C36.562 14.1116 36.5954 14.0782 36.6371 14.0653C36.7375 14.0326 36.8481 13.9621 36.9594 13.8309C37.1739 13.5608 37.3133 13.1287 37.2221 12.8673C37.2452 12.8893 37.2796 12.9079 37.3271 12.9177C37.4286 12.9389 37.5492 12.9068 37.5654 12.845C37.5803 12.782 37.4774 12.7189 37.3761 12.708H37.3547L37.3719 12.665C37.4416 12.4649 37.3441 12.2751 37.1866 12.2512C37.0336 12.2282 36.8868 12.3326 36.8346 12.4803Z" fill="#1F2023"/>
<path d="M36.6361 9.65777L36.6422 9.69965C36.6345 9.6978 36.6286 9.69621 36.6204 9.69409C36.5184 9.67924 36.4065 9.70761 36.3993 9.76301C36.3916 9.81842 36.4948 9.87674 36.5971 9.88972C36.6453 9.89582 36.6838 9.89025 36.7129 9.87806C36.5483 10.0655 36.4789 10.5066 36.5473 10.8183C36.5799 10.9779 36.6334 11.0792 36.7031 11.1508C36.7318 11.1804 36.7434 11.2207 36.7315 11.2579C36.7015 11.3583 36.7047 11.4665 36.7471 11.568C36.8097 11.7072 36.9412 11.8135 37.1119 11.8538C37.2656 11.8885 37.4136 11.8517 37.5146 11.7496C37.6203 11.647 37.6744 11.4848 37.6498 11.318C37.6378 11.2351 37.6055 11.1643 37.5636 11.1028C37.539 11.0662 37.5331 11.0203 37.5474 10.9816C37.5824 10.8859 37.5891 10.7603 37.5594 10.6145C37.4973 10.3247 37.3407 10.0249 37.1551 9.84386C37.1859 9.85102 37.2248 9.85023 37.2712 9.83724C37.3706 9.8094 37.4613 9.74154 37.4491 9.69303C37.4361 9.64425 37.3218 9.63073 37.2219 9.65671C37.2145 9.65963 37.2092 9.66175 37.202 9.6644L37.2033 9.62437C37.1912 9.44623 37.0626 9.30547 36.9054 9.30865C36.7487 9.31183 36.6233 9.46903 36.6361 9.65777Z" fill="#1F2023"/>
<path d="M37.0722 6.61582L37.0589 6.65744C37.0528 6.65214 37.0483 6.64816 37.0419 6.6426C36.9571 6.58322 36.8442 6.55962 36.8124 6.60973C36.7808 6.65956 36.8445 6.75977 36.9311 6.81491C36.972 6.84115 37.0091 6.85228 37.0411 6.85334C36.8148 6.97078 36.5666 7.33183 36.511 7.66479C36.4741 7.83206 36.4961 7.96195 36.5332 8.05924C36.5494 8.099 36.5462 8.14539 36.5255 8.18251C36.4688 8.28139 36.4365 8.4073 36.4619 8.53985C36.4948 8.72064 36.6247 8.86432 36.7917 8.90567C37.0989 8.97963 37.3738 8.7551 37.3956 8.47941C37.4025 8.40942 37.3913 8.34183 37.3664 8.279C37.351 8.24189 37.3601 8.20133 37.3871 8.1719C37.4544 8.10112 37.4934 7.99933 37.5247 7.86175C37.5697 7.58658 37.5605 7.23905 37.4563 7.00922C37.4809 7.0283 37.5173 7.04394 37.5642 7.05216C37.6665 7.06966 37.7786 7.05243 37.7868 7.00657C37.7948 6.96017 37.698 6.89788 37.5976 6.87614C37.5896 6.87535 37.5838 6.87482 37.5764 6.87402C37.5827 6.86262 37.5894 6.85202 37.5944 6.83982C37.658 6.68103 37.6167 6.5021 37.4751 6.42708C37.3396 6.35471 37.1459 6.43344 37.0722 6.61582Z" fill="#1F2023"/>
<path d="M39.0516 4.25165C39.0399 4.2604 39.0301 4.27074 39.0198 4.28055C39.0174 4.27312 39.0153 4.26729 39.0126 4.25907C38.97 4.16444 38.8854 4.0865 38.8348 4.11248C38.7839 4.13872 38.7886 4.25722 38.8342 4.35C38.8552 4.39347 38.8812 4.42263 38.9077 4.44013C38.6481 4.41389 38.2675 4.58752 38.0307 4.81709C37.9125 4.94009 37.8492 5.05593 37.8261 5.15852C37.8158 5.19961 37.7903 5.24017 37.7508 5.25899C37.648 5.31228 37.5483 5.40002 37.4961 5.52886C37.4261 5.7062 37.4542 5.89627 37.578 6.01954C37.8038 6.2393 38.1522 6.19582 38.3131 5.98561C38.3565 5.93259 38.3836 5.87162 38.3966 5.80641C38.4051 5.7685 38.431 5.73722 38.4708 5.72926C38.5654 5.70779 38.6593 5.65371 38.7563 5.55139C38.9615 5.35337 39.1407 5.03393 39.1799 4.79031C39.1908 4.81974 39.213 4.85182 39.2494 4.88363C39.327 4.95149 39.4325 4.99284 39.4641 4.95547C39.4959 4.91835 39.445 4.81444 39.3697 4.74472C39.3631 4.73995 39.3586 4.7365 39.3527 4.73226L39.3859 4.71132C39.5298 4.61244 39.5775 4.42502 39.4927 4.29274C39.4082 4.16072 39.2104 4.1419 39.0516 4.25165Z" fill="#1F2023"/>
<path d="M41.9057 3.09359L41.8633 3.10366C41.8649 3.09571 41.8659 3.08988 41.8675 3.08139C41.8763 2.97774 41.8399 2.86879 41.7816 2.8672C41.7233 2.86587 41.6692 2.97218 41.6647 3.0753C41.6623 3.12328 41.6713 3.16145 41.6862 3.18955C41.4704 3.04455 41.0402 3.01618 40.7213 3.12725C40.5588 3.17948 40.4525 3.25609 40.3883 3.34145C40.3618 3.37564 40.3199 3.39659 40.2762 3.39499C40.1593 3.39075 40.0379 3.43449 39.9316 3.51826C39.7895 3.63835 39.7319 3.82762 39.7797 3.9888C39.8746 4.29286 40.2035 4.41268 40.4503 4.29869C40.514 4.27006 40.5649 4.22261 40.6081 4.17357C40.633 4.14414 40.6725 4.13142 40.7109 4.13963C40.8042 4.15846 40.9129 4.14971 41.0479 4.10676C41.3098 4.01531 41.609 3.82444 41.7583 3.62721C41.7541 3.65823 41.7583 3.69693 41.775 3.74226C41.8108 3.83929 41.8821 3.9265 41.9266 3.90927C41.9712 3.89204 41.9765 3.77672 41.9447 3.67917C41.9415 3.67201 41.9391 3.66671 41.9359 3.66009L41.9746 3.6577C42.1459 3.64259 42.2787 3.50103 42.2715 3.34622C42.2644 3.18743 42.1005 3.07556 41.9057 3.09359Z" fill="#1F2023"/>
<path d="M44.8807 3.29542L44.843 3.30099C44.8449 3.29383 44.8465 3.288 44.8486 3.28004C44.8642 3.17798 44.8417 3.06612 44.7974 3.05472C44.7534 3.04385 44.698 3.14034 44.6765 3.24134C44.6667 3.28853 44.6675 3.3275 44.676 3.35772C44.5029 3.18302 44.1986 3.02927 43.9043 2.97227C43.7551 2.9447 43.6313 2.95531 43.534 2.99269C43.4956 3.00753 43.4497 3.00382 43.4123 2.98049C43.3145 2.91581 43.1873 2.88373 43.0502 2.90494C42.8641 2.92694 42.7154 3.06665 42.6738 3.22888C42.6011 3.53824 42.8196 3.80837 43.0841 3.83912C43.1525 3.84416 43.2188 3.84018 43.2814 3.81685C43.3177 3.8036 43.3588 3.81341 43.389 3.84151C43.4603 3.90831 43.5642 3.95947 43.7219 3.98863C44.031 4.0496 44.4692 3.97617 44.6657 3.80095C44.6545 3.8309 44.6508 3.86987 44.6601 3.91732C44.6792 4.01885 44.7508 4.1164 44.8107 4.1066C44.8706 4.09758 44.8899 3.98253 44.8648 3.88233C44.8618 3.87464 44.86 3.86934 44.8573 3.86218C44.8719 3.86377 44.8862 3.86404 44.9013 3.86324C45.1028 3.85317 45.246 3.7087 45.2224 3.55017C45.1993 3.39827 45.0466 3.28694 44.8807 3.29542Z" fill="#1F2023"/>
<path d="M47.4313 2.24331L47.4008 2.26928C47.3984 2.26186 47.3963 2.25629 47.3937 2.24834C47.3505 2.15503 47.2672 2.07497 47.2214 2.09485C47.1758 2.11474 47.1827 2.22846 47.224 2.32336C47.2434 2.36737 47.2675 2.39812 47.2924 2.41747C47.0467 2.38248 46.6883 2.46837 46.4415 2.59641C46.3155 2.66294 46.2371 2.74247 46.1865 2.81855C46.1663 2.85089 46.1305 2.87051 46.0923 2.86733C45.9911 2.8615 45.889 2.88535 45.7946 2.94686C45.669 3.03937 45.5868 3.1971 45.5884 3.36623C45.585 3.6846 45.9023 3.898 46.2259 3.77977C46.306 3.75326 46.3688 3.70183 46.4213 3.64749C46.4515 3.61462 46.4963 3.59871 46.5403 3.60375C46.6498 3.61859 46.775 3.58784 46.925 3.50885C47.2232 3.3535 47.4939 3.0354 47.545 2.78197C47.5541 2.81245 47.5742 2.84586 47.6092 2.87899C47.6837 2.9503 47.7942 2.99086 47.8335 2.95057C47.8727 2.91054 47.8239 2.80609 47.747 2.73637C47.7404 2.7316 47.7359 2.72816 47.7298 2.72391L47.7661 2.70244C47.9239 2.59482 47.9586 2.39255 47.8634 2.2714C47.7648 2.14549 47.5779 2.14416 47.4313 2.24331Z" fill="#1F2023"/>
<path d="M35.2279 11.154L35.2401 11.1938C35.2324 11.193 35.2263 11.1927 35.2181 11.1919C35.1149 11.1943 35.0089 11.2405 35.0105 11.2956C35.0081 11.3147 35.0256 11.3004 35.0635 11.3043C35.1006 11.3043 35.1497 11.3245 35.2006 11.3263C35.2483 11.3308 35.287 11.3274 35.3167 11.3176C35.1542 11.4724 35.0041 11.7887 34.9577 12.0641C34.9344 12.2035 34.945 12.3119 34.9805 12.3997C34.9954 12.4355 34.9903 12.4758 34.9644 12.5039C34.897 12.5807 34.8546 12.6759 34.8536 12.7883C34.8514 12.9381 34.9347 13.0895 35.072 13.1918C35.3204 13.393 35.687 13.2565 35.7774 12.9317C35.801 12.8527 35.8007 12.7748 35.7872 12.7024C35.7795 12.6597 35.7925 12.6157 35.8214 12.5845C35.8935 12.5084 35.9492 12.3944 35.9765 12.2322C36.0303 11.9127 35.9481 11.4984 35.7594 11.2911C35.7899 11.3004 35.8291 11.3017 35.8757 11.2874C35.9248 11.2696 35.9757 11.2481 36.0054 11.1999C36.0356 11.1554 36.0459 11.0848 36.0343 11.0541C36.0144 11.0093 35.8999 11.0149 35.8052 11.0565C35.7981 11.0607 35.7933 11.0634 35.7867 11.0671L35.7822 11.0284C35.7458 10.8577 35.591 10.7431 35.4368 10.772C35.2827 10.8009 35.1889 10.9719 35.2279 11.154Z" fill="#1F2023"/>
<path d="M35.0291 8.16759L35.0283 8.20948C35.0211 8.20656 35.0158 8.20391 35.0078 8.20073C34.9095 8.16945 34.7944 8.17899 34.7788 8.23254C34.7629 8.28609 34.8528 8.36058 34.9516 8.38894C34.9978 8.40246 35.0367 8.40299 35.0678 8.39557C34.8817 8.56576 34.7417 8.95279 34.7531 9.27382C34.752 9.43658 34.7995 9.55428 34.8565 9.63858C34.8806 9.67278 34.8875 9.71731 34.8721 9.75655C34.8284 9.86205 34.8286 9.98479 34.8745 10.107C34.936 10.2737 35.0887 10.3893 35.2605 10.4012C35.5746 10.4217 35.8103 10.1576 35.7816 9.88193C35.7721 9.81195 35.7498 9.74753 35.7159 9.69054C35.6958 9.65714 35.696 9.61552 35.7159 9.58132C35.7663 9.49808 35.7838 9.38993 35.7851 9.24651C35.775 8.96446 35.6716 8.62063 35.5099 8.43003C35.5391 8.4417 35.5775 8.44673 35.6258 8.44143C35.7286 8.43003 35.8312 8.38046 35.8259 8.33275C35.8209 8.28476 35.7101 8.25348 35.6075 8.26197C35.5995 8.26356 35.594 8.26462 35.5865 8.26594L35.594 8.22803C35.6083 8.05599 35.5065 7.89879 35.3525 7.87414C35.1966 7.84922 35.045 7.97991 35.0291 8.16759Z" fill="#1F2023"/>
<path d="M35.9649 5.30705L35.9469 5.34548C35.9419 5.33939 35.9379 5.33515 35.9321 5.32852C35.8555 5.25906 35.747 5.2201 35.7104 5.26304C35.6741 5.30625 35.725 5.41202 35.8035 5.47856C35.8401 5.51011 35.8753 5.52654 35.9066 5.53264C35.7804 5.56975 35.6532 5.66571 35.5371 5.79004C35.4165 5.91198 35.3176 6.06626 35.2619 6.21922C35.2009 6.37297 35.1866 6.4981 35.2139 6.60095C35.2237 6.64231 35.2139 6.68684 35.1853 6.71839C35.1116 6.80295 35.0509 6.91614 35.0554 7.05002C35.0565 7.2316 35.1575 7.39543 35.311 7.46568C35.5988 7.59319 35.9159 7.43148 35.9819 7.16931C36.0026 7.10356 36.0052 7.0365 35.9933 6.97155C35.9861 6.93311 36.0013 6.8952 36.0315 6.87134C36.1028 6.81196 36.1714 6.72581 36.2234 6.59485C36.2706 6.46417 36.3029 6.31174 36.321 6.16355C36.3347 6.01351 36.3241 5.86241 36.2952 5.74657C36.317 5.76883 36.3501 5.78951 36.3957 5.80462C36.4943 5.8367 36.6073 5.83458 36.6216 5.78925C36.6361 5.74365 36.5481 5.66916 36.4516 5.63417C36.444 5.63231 36.4384 5.63099 36.4312 5.62913C36.4387 5.61879 36.4466 5.60898 36.4532 5.59758C36.5338 5.44675 36.5153 5.26596 36.3832 5.17662C36.2555 5.08994 36.0553 5.14004 35.9649 5.30705Z" fill="#1F2023"/>
<path d="M38.0065 3.10087L37.975 3.12844C37.9726 3.12101 37.9708 3.11545 37.9678 3.10749C37.9244 3.01365 37.8398 2.93518 37.7897 2.95957C37.7396 2.9837 37.7452 3.09981 37.7908 3.19179C37.812 3.235 37.8379 3.26416 37.8642 3.28219C37.6147 3.26125 37.2333 3.41526 37.004 3.64086C36.8831 3.74875 36.8256 3.86539 36.8028 3.96586C36.7938 4.00748 36.7657 4.043 36.7262 4.0589C36.6214 4.10185 36.5212 4.17925 36.4672 4.30279C36.3898 4.46714 36.411 4.65827 36.5197 4.78737C36.7246 5.02516 37.0827 5.0172 37.2516 4.80646C37.299 4.75609 37.3306 4.69671 37.3481 4.63309C37.3584 4.59571 37.3886 4.56788 37.4268 4.55939C37.5206 4.53978 37.61 4.48199 37.7181 4.38655C37.9188 4.18853 38.106 3.88209 38.1367 3.63237C38.1476 3.66153 38.1698 3.69334 38.2062 3.72542C38.2841 3.79381 38.3899 3.83623 38.4222 3.80017C38.4543 3.76412 38.4029 3.66127 38.327 3.59128C38.3207 3.58651 38.3162 3.58307 38.3101 3.57856L38.3435 3.55868C38.4816 3.45476 38.5261 3.26893 38.4408 3.14036C38.3525 3.00755 38.1569 2.9882 38.0065 3.10087Z" fill="#1F2023"/>
<path d="M40.7097 1.79529L40.6704 1.81013C40.6707 1.80245 40.671 1.79635 40.6715 1.78787C40.6651 1.68448 40.6153 1.58083 40.5596 1.58613C40.5042 1.5917 40.4671 1.70304 40.4761 1.80589C40.4804 1.85387 40.4936 1.89072 40.5116 1.9167C40.2844 1.7982 39.872 1.8096 39.5764 1.93976C39.4248 2.00126 39.3275 2.08053 39.2721 2.16986C39.2493 2.20538 39.2106 2.22871 39.1682 2.22924C39.0552 2.23136 38.9357 2.2698 38.841 2.36285C38.7098 2.48611 38.6597 2.67062 38.7127 2.831C38.8145 3.1279 39.1515 3.25276 39.3895 3.11729C39.4518 3.08628 39.5032 3.04227 39.5425 2.98846C39.5655 2.95718 39.604 2.94154 39.6427 2.94711C39.736 2.95851 39.8455 2.94446 39.9777 2.89091C40.2338 2.77771 40.5161 2.5553 40.6375 2.34191C40.6373 2.37345 40.6466 2.41136 40.6686 2.45404C40.716 2.54576 40.7985 2.6229 40.8409 2.6001C40.8836 2.57704 40.8732 2.46226 40.8284 2.36974C40.8242 2.36285 40.8213 2.35808 40.8173 2.35198L40.8555 2.34456C41.0217 2.30002 41.1327 2.14971 41.0999 1.99464C41.0681 1.84248 40.8915 1.74651 40.7097 1.79529Z" fill="#1F2023"/>
<path d="M43.7123 1.6225L43.6701 1.62012C43.6736 1.61322 43.6762 1.60792 43.6799 1.60024C43.7157 1.50295 43.7112 1.3879 43.6577 1.3704C43.6044 1.35264 43.5254 1.43959 43.4928 1.53714C43.4777 1.583 43.4756 1.62197 43.4817 1.65325C43.3192 1.45576 42.9324 1.30652 42.6069 1.30864C42.4425 1.30705 42.3219 1.35052 42.236 1.40619C42.201 1.42952 42.1559 1.43535 42.1164 1.41918C42.0107 1.37809 41.8858 1.37782 41.7615 1.42156C41.5918 1.47856 41.4776 1.64398 41.467 1.81098C41.4513 2.12962 41.7146 2.3523 41.9855 2.33029C42.0547 2.32393 42.118 2.29716 42.1745 2.26376C42.2076 2.24414 42.2487 2.24547 42.2824 2.26614C42.364 2.3181 42.4701 2.33931 42.6114 2.3409C42.8892 2.33957 43.2327 2.24308 43.4289 2.09357C43.4162 2.12193 43.4096 2.16037 43.4127 2.20862C43.4199 2.31174 43.4642 2.41592 43.5119 2.41221C43.5596 2.4085 43.5956 2.29901 43.5917 2.19642C43.5906 2.18847 43.5898 2.1829 43.5888 2.17548C43.6012 2.17866 43.6131 2.18237 43.6261 2.18423C43.7958 2.20517 43.9607 2.11266 43.9912 1.95731C44.0211 1.80489 43.9005 1.64663 43.7123 1.6225Z" fill="#1F2023"/>
<path d="M46.3876 1.38537L46.3513 1.40313C46.3507 1.39544 46.3505 1.38935 46.3499 1.38113C46.3319 1.27933 46.272 1.18125 46.2208 1.19C46.1699 1.19875 46.1471 1.31141 46.1649 1.41294C46.1731 1.46039 46.189 1.49591 46.2089 1.52083C45.9791 1.42195 45.5942 1.44157 45.3323 1.52719C45.2673 1.54813 45.2135 1.57279 45.1817 1.59559C45.157 1.61017 45.1658 1.61494 45.1615 1.62819C45.1599 1.64039 45.1311 1.65364 45.1191 1.66849C45.0937 1.69314 45.0584 1.69738 45.029 1.68068C44.9497 1.63429 44.8636 1.61494 44.7581 1.63455C44.616 1.6608 44.4657 1.76922 44.3978 1.92509C44.2716 2.21139 44.4381 2.53904 44.7981 2.569C44.8861 2.57536 44.9725 2.55919 45.0465 2.52711C45.09 2.50723 45.1409 2.50909 45.1838 2.52711C45.2135 2.53745 45.2307 2.55044 45.2779 2.55389C45.3224 2.55786 45.3845 2.55601 45.4158 2.55442C45.4966 2.54965 45.57 2.53507 45.6509 2.50909C45.9621 2.40729 46.259 2.16182 46.3677 1.93464C46.3696 1.96618 46.3812 2.00329 46.4069 2.04412C46.4621 2.1316 46.5554 2.19946 46.5997 2.17136C46.6439 2.14353 46.6222 2.03033 46.567 1.94312C46.562 1.93676 46.5586 1.93252 46.5538 1.92642L46.5925 1.91528C46.7608 1.85007 46.8507 1.67935 46.7945 1.53276C46.7383 1.38616 46.5554 1.32042 46.3876 1.38537Z" fill="#1F2023"/>
<path d="M33.4092 9.0287L33.4185 9.0735C33.4108 9.07191 33.4047 9.07032 33.3965 9.06846C33.2931 9.05733 33.1834 9.09312 33.1807 9.15409C33.1783 9.21506 33.2836 9.27417 33.3867 9.28159C33.4347 9.28531 33.4728 9.27682 33.5015 9.26198C33.3525 9.48545 33.3329 9.94353 33.3968 10.2346C33.4296 10.3915 33.4837 10.5015 33.5524 10.5779C33.5805 10.6089 33.5927 10.6529 33.5813 10.6932C33.5513 10.8011 33.5558 10.9212 33.6038 11.0383C33.6703 11.1977 33.8161 11.313 33.9845 11.3408C34.2983 11.4007 34.5563 11.1041 34.5009 10.768C34.4879 10.6847 34.4576 10.6097 34.415 10.5466C34.3903 10.5092 34.3845 10.4615 34.3991 10.4199C34.4346 10.3181 34.4417 10.1871 34.4067 10.0204C34.3315 9.67552 34.1356 9.36245 33.9402 9.19756C33.9709 9.20286 34.0099 9.19942 34.0555 9.18298C34.1531 9.14772 34.2413 9.07323 34.2249 9.02499C34.2085 8.97648 34.0931 8.96826 33.9953 8.9998C33.9879 9.00325 33.9826 9.00564 33.976 9.00882L33.9741 8.9672C33.9489 8.78482 33.8249 8.64008 33.6645 8.6467C33.5113 8.65254 33.3816 8.82511 33.4092 9.0287Z" fill="#1F2023"/>
<path d="M33.8831 5.80799L33.8701 5.85173C33.864 5.84643 33.8595 5.84246 33.8532 5.83689C33.7675 5.77751 33.6541 5.75657 33.6233 5.80852C33.5923 5.86048 33.657 5.96254 33.744 6.01848C33.7845 6.04499 33.8219 6.05585 33.854 6.05665C33.6159 6.18018 33.3715 6.55369 33.2975 6.90017C33.2525 7.07327 33.2716 7.21271 33.3066 7.31609C33.3217 7.35824 33.3177 7.40755 33.293 7.44625C33.2249 7.54964 33.204 7.68457 33.2209 7.82639C33.2416 8.02017 33.3842 8.17552 33.5465 8.21899C33.8571 8.29613 34.1222 8.06179 34.1564 7.7747C34.1633 7.701 34.1495 7.62917 34.1315 7.56316C34.1196 7.52419 34.1297 7.48124 34.157 7.45049C34.2261 7.376 34.2664 7.2697 34.3057 7.12258C34.3677 6.83204 34.3606 6.44951 34.2696 6.2112C34.2943 6.23108 34.3298 6.24672 34.3775 6.25414C34.4801 6.26978 34.5928 6.24645 34.6015 6.19556C34.6103 6.14439 34.5127 6.08183 34.4117 6.06301C34.4038 6.06248 34.3979 6.06195 34.3905 6.06142L34.4088 6.02404C34.479 5.85253 34.4327 5.66272 34.2895 5.59407C34.1498 5.527 33.9605 5.61925 33.8831 5.80799Z" fill="#1F2023"/>
<path d="M35.6697 3.11485L35.6414 3.14958C35.6377 3.14242 35.635 3.13738 35.631 3.12969C35.5725 3.0446 35.4738 2.98363 35.4261 3.01862C35.3776 3.05229 35.4047 3.1729 35.4648 3.25641C35.4932 3.29591 35.5239 3.32003 35.5531 3.33222C35.2899 3.36165 34.9288 3.60315 34.7215 3.87937C34.6195 4.02119 34.572 4.14711 34.5617 4.25474C34.5577 4.29874 34.533 4.34063 34.4946 4.36449C34.3955 4.43049 34.3127 4.53573 34.2672 4.66907C34.2019 4.84854 34.2581 5.05027 34.3825 5.1632C34.6229 5.37501 34.9673 5.28673 35.1295 5.03755C35.1693 4.9734 35.1913 4.90262 35.2003 4.83184C35.2069 4.79102 35.2353 4.75602 35.2737 4.73932C35.3678 4.69903 35.459 4.62242 35.5497 4.4957C35.7339 4.25076 35.8813 3.88785 35.8829 3.62886C35.8985 3.65669 35.9261 3.68426 35.9677 3.70865C36.0573 3.76087 36.1689 3.77625 36.1989 3.73251C36.2278 3.68797 36.1599 3.59493 36.0714 3.54111C36.0639 3.53767 36.0589 3.53528 36.052 3.53184L36.0838 3.504C36.2148 3.36801 36.2317 3.16707 36.1215 3.05547C36.0112 2.9436 35.8089 2.97037 35.6697 3.11485Z" fill="#1F2023"/>
<path d="M38.1743 1.08438L38.1359 1.10877C38.1346 1.10108 38.1335 1.09525 38.1322 1.08677C38.1033 0.987624 38.0277 0.899349 37.9699 0.9187C37.9129 0.939112 37.9008 1.06158 37.9331 1.15967C37.9482 1.20606 37.9705 1.23813 37.9949 1.25855C37.734 1.20977 37.3075 1.3394 37.0376 1.55386C36.8971 1.65857 36.8176 1.7654 36.7805 1.86772C36.7648 1.90934 36.7304 1.94301 36.6877 1.9552C36.5719 1.98728 36.464 2.06203 36.3855 2.17629C36.2768 2.33084 36.263 2.52859 36.3486 2.67784C36.5066 2.95247 36.8735 2.9811 37.102 2.77857C37.1588 2.72556 37.2038 2.66777 37.2335 2.60229C37.251 2.56412 37.2876 2.53761 37.3292 2.53151C37.4294 2.51587 37.5394 2.46683 37.6643 2.37431C37.9047 2.18292 38.1452 1.88655 38.2212 1.63975C38.2279 1.67076 38.2459 1.70549 38.2782 1.74128C38.348 1.81762 38.4495 1.86772 38.4882 1.83406C38.528 1.80172 38.4919 1.69276 38.4246 1.61377C38.4187 1.6082 38.4145 1.60422 38.4089 1.59892L38.4474 1.58275C38.6101 1.49527 38.6891 1.3113 38.6242 1.17186C38.5563 1.02686 38.3549 0.987359 38.1743 1.08438Z" fill="#1F2023"/>
<path d="M41.3053 0.234844L41.2608 0.241736C41.2629 0.234048 41.2645 0.228216 41.2669 0.219998C41.2822 0.117408 41.252 0.00607058 41.1932 0.000238596C41.1343 -0.00559339 41.0717 0.0964663 41.0585 0.199056C41.0521 0.246773 41.0582 0.285476 41.0712 0.314636C40.8591 0.155316 40.427 0.0863929 40.0835 0.154786C39.9096 0.185537 39.789 0.25499 39.7087 0.327095C39.6758 0.35758 39.6291 0.372691 39.5841 0.365268C39.4648 0.350953 39.3306 0.375607 39.2071 0.446651C39.0398 0.548445 38.9494 0.732683 38.9722 0.899425C39.0218 1.21621 39.3415 1.37155 39.6201 1.28964C39.6912 1.2679 39.7532 1.23026 39.8054 1.18228C39.837 1.15603 39.8807 1.14861 39.9202 1.16186C40.0167 1.19633 40.1317 1.19394 40.2834 1.16743C40.5789 1.10885 40.932 0.94343 41.1097 0.756541C41.1022 0.787292 41.1033 0.82626 41.1173 0.872386C41.1473 0.971795 41.2186 1.06352 41.2698 1.04947C41.3209 1.03542 41.335 0.920632 41.3074 0.821224C41.3042 0.813801 41.3021 0.808499 41.2995 0.801607L41.3416 0.801872C41.5293 0.786232 41.6804 0.661374 41.6756 0.50232C41.6711 0.347507 41.5057 0.218408 41.3053 0.234844Z" fill="#1F2023"/>
<path d="M44.4814 0.352843L44.4382 0.353639C44.4411 0.346481 44.4432 0.340914 44.4464 0.332962C44.4737 0.233288 44.4583 0.118769 44.4053 0.105514C44.3523 0.0922596 44.2802 0.184511 44.2518 0.28392C44.2388 0.330311 44.2386 0.369544 44.2468 0.400295C44.0647 0.214201 43.684 0.0638949 43.3579 0.0384462C43.1928 0.0254568 43.0666 0.0482546 42.9714 0.0951756C42.9327 0.114262 42.8853 0.114792 42.8466 0.0943803C42.7432 0.0392415 42.6154 0.0153834 42.4699 0.0424226C42.2856 0.0837767 42.1398 0.218973 42.0993 0.384124C42.0221 0.694545 42.2796 0.964142 42.5712 0.974215C42.6472 0.978192 42.7209 0.964937 42.7893 0.938958C42.8293 0.923318 42.8749 0.929415 42.9102 0.954068C42.9956 1.01398 43.1141 1.05507 43.2784 1.06779C43.6021 1.09298 44.009 1.00364 44.2171 0.84273C44.2049 0.87189 44.1999 0.910594 44.2068 0.958575C44.2216 1.06116 44.2836 1.16216 44.3406 1.15554C44.3976 1.14891 44.4268 1.03704 44.4109 0.934717C44.4088 0.926764 44.4072 0.921197 44.405 0.91404L44.4488 0.920137C44.6465 0.931536 44.8136 0.809594 44.8173 0.652661C44.821 0.495727 44.6725 0.363977 44.4814 0.352843Z" fill="#1F2023"/>
<path d="M25.7455 13.2438C25.7286 13.3027 25.6742 13.3411 25.6138 13.3488C24.7628 13.4485 24.2666 13.5622 23.887 13.765C23.5156 13.9471 23.2969 14.183 23.3003 14.2559C23.3038 14.3291 23.5516 14.5544 24.041 14.5921C24.1629 14.6059 24.2957 14.5868 24.4415 14.565C24.5879 14.5454 24.7424 14.499 24.8994 14.4211C25.0589 14.3516 25.2214 14.2562 25.3733 14.12C25.5313 13.9964 25.675 13.8305 25.8009 13.6375C25.8365 13.5834 25.9003 13.554 25.9642 13.5548C26.1933 13.5521 26.4403 13.5206 26.535 13.4466C26.6262 13.365 26.5607 13.265 26.2272 13.1084C26.1018 12.7508 25.9979 12.6882 25.9327 12.7571C25.8603 12.8218 25.8038 13.0209 25.7455 13.2438Z" fill="#1F2023"/>
<path d="M27.6083 10.3794C27.6348 10.4351 27.6271 10.5022 27.5895 10.5496C27.0179 11.2028 26.7618 11.6535 26.6166 12.0482C26.4771 12.432 26.4851 12.7597 26.5371 12.81C26.5887 12.8623 26.9204 12.8501 27.3016 12.5362C27.6796 12.2372 28.0592 11.5517 27.9219 10.6382C27.9097 10.5743 27.9304 10.508 27.9783 10.4666C28.3439 10.1594 28.6032 9.75567 27.885 9.96006C27.2342 9.58893 27.4246 9.97729 27.6083 10.3794Z" fill="#1F2023"/>
<path d="M27.4401 6.90731C27.4902 6.94045 27.5164 7.00221 27.5082 7.06292C27.3847 7.91678 27.4107 8.45411 27.5411 8.87163C27.6511 9.27643 27.8658 9.52773 27.9395 9.53462C28.0116 9.54205 28.2563 9.32732 28.3822 8.86156C28.4933 8.41117 28.4488 7.65566 27.8359 6.95768C27.7929 6.9097 27.7781 6.84157 27.7982 6.7798C27.9239 6.32942 27.9403 5.82945 27.4406 6.40656C26.7098 6.45268 27.0531 6.67642 27.4401 6.90731Z" fill="#1F2023"/>
<path d="M25.2287 4.31673C25.288 4.30533 25.354 4.32336 25.3864 4.37823C25.8683 5.09 26.1944 5.47253 26.5464 5.71694C26.7041 5.8463 26.8656 5.92716 26.9955 5.97461C27.1166 6.02763 27.2113 6.04167 27.2441 6.02285C27.2751 6.00536 27.3131 5.91761 27.326 5.77261C27.3303 5.63344 27.303 5.43833 27.2155 5.20717C27.1092 4.99112 26.9488 4.73001 26.6673 4.51847C26.3972 4.29871 26.0099 4.13037 25.5555 4.07842C25.4937 4.06728 25.4312 4.0368 25.4028 3.97874C25.1892 3.54797 24.8374 3.20574 24.8862 3.9525C24.3873 4.50972 24.7971 4.39997 25.2287 4.31673Z" fill="#1F2023"/>
<path d="M21.8234 3.92184C21.8613 3.87412 21.9238 3.84841 21.9832 3.86484C22.8127 4.09653 23.3413 4.13629 23.7622 4.08725C24.1734 4.03026 24.4557 3.89268 24.4801 3.81209C24.5 3.75324 24.3415 3.4452 23.8913 3.25619C23.4579 3.05711 22.6881 3.00648 21.9175 3.52712C21.8642 3.5629 21.7963 3.57695 21.7372 3.5515C21.2969 3.35905 20.8067 3.32565 21.3261 3.86458C21.3046 4.6124 21.5461 4.26327 21.8234 3.92184Z" fill="#1F2023"/>
<path d="M19.0508 5.88055C19.0457 5.82064 19.0778 5.76205 19.1303 5.7313C19.8768 5.30742 20.285 5.00973 20.5626 4.69215C20.829 4.37881 20.9602 4.09729 20.9255 4.01829C20.9109 3.98568 20.8287 3.94221 20.6875 3.92127C20.5462 3.89873 20.3434 3.89767 20.1133 3.98118C19.6565 4.11876 19.0211 4.61501 18.8469 5.53593C18.8355 5.59982 18.7913 5.65363 18.7303 5.67617C18.2926 5.85272 17.8968 6.15518 18.6563 6.18806C19.1486 6.7352 19.1033 6.32378 19.0508 5.88055Z" fill="#1F2023"/>
<path d="M18.2271 9.24071C18.1873 9.19406 18.178 9.12725 18.2019 9.07105C18.5595 8.27764 18.6743 7.75143 18.6621 7.32199C18.6608 6.90527 18.5436 6.60757 18.4757 6.57814C18.4092 6.54925 18.0977 6.6757 17.8517 7.09693C17.6182 7.50676 17.4649 8.24503 17.8578 9.07821C17.8864 9.13627 17.883 9.20519 17.8475 9.25821C17.7107 9.45146 17.606 9.66671 17.6211 9.78282C17.6322 9.90105 17.751 9.90635 18.0744 9.72C18.4346 9.82046 18.5465 9.77275 18.5303 9.67546C18.5094 9.57685 18.3678 9.41329 18.2271 9.24071Z" fill="#1F2023"/>
<path d="M19.4079 12.4761C19.3483 12.4639 19.3005 12.4167 19.2857 12.3584C19.1081 11.5217 18.9347 11.0303 18.7006 10.6697C18.4682 10.3219 18.2184 10.13 18.1363 10.1454C18.0745 10.1557 17.8704 10.4333 17.8969 10.9176C17.908 11.3863 18.1882 12.1235 19.0142 12.5699C19.0731 12.5993 19.1126 12.6566 19.1168 12.7207C19.1264 12.9599 19.1863 13.1947 19.2719 13.2793C19.3573 13.3673 19.4503 13.2949 19.5834 12.9439C19.9246 12.7947 19.9792 12.685 19.9087 12.6216C19.8342 12.5585 19.6224 12.5267 19.4079 12.4761Z" fill="#1F2023"/>
<path d="M22.4193 14.0528C22.3679 14.0833 22.3011 14.0798 22.2502 14.0459C21.5337 13.5669 21.0798 13.341 20.6673 13.2458C20.2689 13.1488 19.9564 13.1668 19.9055 13.2291C19.8631 13.2792 19.8888 13.6252 20.2427 13.9716C20.5793 14.3091 21.3054 14.6426 22.2027 14.3868C22.2648 14.3693 22.3326 14.3857 22.3798 14.4308C22.7324 14.7348 23.174 14.97 22.871 14.2683C23.1465 13.5907 22.7947 13.7993 22.4193 14.0528Z" fill="#1F2023"/>
<path d="M25.7471 16.5765C25.7158 16.6277 25.6578 16.6545 25.5995 16.647C25.1875 16.5951 24.8456 16.5532 24.5672 16.5972C24.2809 16.6057 24.0492 16.669 23.8597 16.7552C23.4798 16.9026 23.2667 17.1324 23.2691 17.2109C23.2707 17.279 23.501 17.5088 23.9456 17.5918C24.1659 17.621 24.4394 17.6146 24.7467 17.5406C25.0465 17.4309 25.3903 17.283 25.7047 16.9747C25.7492 16.9315 25.8129 16.9161 25.8709 16.936C26.0827 17.0081 26.3107 17.0645 26.4136 17.0269C26.5156 16.984 26.4889 16.8673 26.232 16.6073C26.2238 16.2311 26.1509 16.1357 26.0663 16.1799C25.9783 16.22 25.8619 16.3883 25.7471 16.5765Z" fill="#1F2023"/>
<path d="M28.5769 14.8197C28.57 14.8778 28.5278 14.9255 28.4706 14.9425C28.2672 15.0026 28.0954 15.0716 27.9417 15.1408C27.7792 15.1993 27.64 15.2653 27.5189 15.3369C27.2845 15.4907 27.0865 15.6187 26.9513 15.7748C26.8164 15.9307 26.7218 16.0773 26.661 16.1897C26.603 16.3066 26.5852 16.3991 26.6014 16.4333C26.6168 16.4657 26.6987 16.5102 26.8344 16.5365C26.9723 16.5669 27.1591 16.568 27.3741 16.502C27.5881 16.4365 27.8526 16.3398 28.0841 16.1134C28.2028 16.0057 28.3216 15.8788 28.434 15.7319C28.5374 15.5742 28.6293 15.3905 28.7097 15.1903C28.7322 15.1336 28.7844 15.0936 28.847 15.0872C29.2923 15.0238 29.7212 14.8529 29.0127 14.6214C28.6609 13.9714 28.6097 14.3823 28.5769 14.8197Z" fill="#1F2023"/>
<path d="M30.3242 11.9799C30.3457 12.0364 30.3317 12.0992 30.2906 12.1405C29.9735 12.4237 29.7673 12.6835 29.6058 12.9162C29.4354 13.1431 29.3609 13.3745 29.2936 13.5641C29.1668 13.945 29.2209 14.2663 29.28 14.3135C29.3357 14.358 29.6453 14.3183 29.9976 14.0245C30.1755 13.8806 30.3229 13.6492 30.4573 13.3608C30.5816 13.0684 30.64 12.6885 30.6132 12.2601C30.6058 12.1986 30.6323 12.1387 30.6832 12.1053C31.0575 11.8574 31.3955 11.533 30.6437 11.6165C30.0631 11.1783 30.1665 11.569 30.3242 11.9799Z" fill="#1F2023"/>
<path d="M30.8151 8.65743C30.8549 8.70276 30.8642 8.76638 30.8403 8.82019C30.6566 9.2006 30.5381 9.52162 30.4975 9.80447C30.4292 10.0836 30.4284 10.3251 30.4604 10.5314C30.5042 10.9367 30.6677 11.2028 30.7443 11.2219C30.8101 11.2386 31.0943 11.0774 31.2902 10.6703C31.3769 10.4664 31.4437 10.2024 31.4545 9.88745C31.4368 9.57225 31.3737 9.2051 31.1844 8.81595C31.1558 8.76108 31.1592 8.69586 31.195 8.64682C31.458 8.28391 31.6605 7.86746 30.9858 8.20412C30.2873 7.99178 30.5227 8.32765 30.8151 8.65743Z" fill="#1F2023"/>
<path d="M30.1235 5.3752C30.1771 5.4025 30.2086 5.45843 30.2057 5.51675C30.1741 5.9356 30.1757 6.27412 30.2298 6.5522C30.2624 6.83664 30.3454 7.06276 30.4472 7.24488C30.6158 7.61415 30.8713 7.80661 30.9469 7.79839C31.0171 7.79123 31.2183 7.54443 31.2745 7.09404C31.2854 6.87243 31.2562 6.60097 31.1568 6.30089C31.0359 6.0077 30.8451 5.68191 30.5246 5.38766C30.4779 5.34683 30.4575 5.28454 30.4729 5.22542C30.5294 5.00884 30.5646 4.7798 30.5238 4.67827C30.4763 4.57807 30.3629 4.61253 30.1174 4.88982C29.7473 4.92269 29.6567 5.00274 29.7039 5.08545C29.7463 5.17267 29.9273 5.27446 30.1235 5.3752Z" fill="#1F2023"/>
<path d="M28.1714 2.67413C28.23 2.67678 28.2809 2.71522 28.3021 2.77089C28.6118 3.53991 28.9121 3.97068 29.2384 4.22835C29.5637 4.4778 29.845 4.57403 29.9194 4.53215C29.9733 4.50299 30.0923 4.17931 29.9343 3.75596C29.8497 3.55052 29.7413 3.28861 29.4979 3.07494C29.3816 2.9644 29.2458 2.85571 29.0908 2.75445C28.9336 2.65531 28.7374 2.58267 28.5328 2.5156C28.4744 2.49731 28.4307 2.44801 28.4198 2.3865C28.3316 1.93983 28.1248 1.53185 27.9453 2.25131C27.3184 2.65027 27.7383 2.66458 28.1714 2.67413Z" fill="#1F2023"/>
<path d="M25.2183 1.13128C25.2729 1.1053 25.3368 1.11431 25.381 1.15169C25.9905 1.73436 26.4679 1.95226 26.87 2.04637C27.2595 2.14525 27.5799 2.06307 27.6189 2.00713C27.6635 1.94219 27.5985 1.64184 27.2801 1.31207C26.9665 0.993163 26.3383 0.698117 25.4765 0.821119C25.4152 0.833314 25.3535 0.812106 25.3163 0.764125C25.0404 0.411555 24.6902 0.101134 24.8312 0.842857C24.4378 1.45681 24.8198 1.32188 25.2183 1.13128Z" fill="#1F2023"/>
<path d="M21.8721 0.908534C21.9132 0.864529 21.9757 0.849154 22.0311 0.86771C22.4261 1.02358 22.7532 1.10099 23.0371 1.12962C23.3208 1.17389 23.5615 1.15374 23.7645 1.10391C24.1638 1.03763 24.4177 0.844382 24.4304 0.768831C24.4424 0.699643 24.2589 0.438264 23.8377 0.26622C23.6275 0.197031 23.3587 0.153026 23.0438 0.169462C22.7296 0.201008 22.367 0.3089 21.9953 0.525478C21.9434 0.559145 21.8779 0.562061 21.8254 0.53131C21.4376 0.305453 20.9975 0.145604 21.4047 0.782881C21.2679 1.49783 21.5733 1.23194 21.8721 0.908534Z" fill="#1F2023"/>
<path d="M18.7194 2.00248C18.7387 1.94654 18.7899 1.90811 18.8488 1.90333C19.2575 1.85403 19.6019 1.83043 19.8635 1.7297C20.135 1.65229 20.3516 1.55474 20.5175 1.43015C20.8563 1.20774 21.023 0.945298 21.0055 0.867361C20.9915 0.802149 20.7203 0.616056 20.2662 0.627454C20.0443 0.646011 19.7715 0.697438 19.4887 0.845624C19.2164 1.01581 18.9073 1.22815 18.673 1.60749C18.6388 1.65866 18.5794 1.68729 18.5179 1.68013C18.0543 1.61651 17.6164 1.71114 18.2449 2.08784C18.4463 2.81233 18.5712 2.39773 18.7194 2.00248Z" fill="#1F2023"/>
<path d="M16.3776 4.36844C16.3683 4.30879 16.3914 4.24809 16.4465 4.22052C16.8229 4.0156 17.066 3.80008 17.2855 3.6177C17.3894 3.522 17.4737 3.42445 17.5435 3.3269C17.6171 3.23332 17.6842 3.1477 17.7341 3.05889C17.8366 2.88446 17.8881 2.71268 17.9148 2.58226C17.9456 2.4574 17.9424 2.36409 17.9186 2.33466C17.8963 2.30683 17.8054 2.28138 17.6659 2.28562C17.5307 2.29516 17.3542 2.34474 17.153 2.45077C17.0538 2.50538 16.9441 2.56953 16.8426 2.65966C16.7453 2.75377 16.6474 2.86511 16.5541 2.99527C16.3558 3.24578 16.2291 3.61372 16.1568 4.03469C16.1446 4.09301 16.1098 4.14815 16.0531 4.17041C15.6398 4.33742 15.2449 4.58979 15.9956 4.66004C16.4767 5.20957 16.4507 4.80557 16.3776 4.36844Z" fill="#1F2023"/>
<path d="M15.2715 7.52758C15.24 7.47615 15.2421 7.412 15.275 7.36322C15.5168 7.01966 15.6933 6.72807 15.7848 6.45953C15.903 6.19948 15.9478 5.96381 15.9539 5.75571C15.9984 5.35569 15.881 5.05773 15.8121 5.02459C15.749 4.99384 15.4484 5.09882 15.1668 5.45908C15.0436 5.64385 14.9288 5.8925 14.8596 6.20186C14.8182 6.51652 14.8111 6.89163 14.9354 7.30835C14.954 7.36746 14.9391 7.43108 14.8954 7.4735C14.5736 7.78684 14.3016 8.16486 15.0247 7.9451C15.6763 8.26983 15.5027 7.90162 15.2715 7.52758Z" fill="#1F2023"/>
<path d="M15.3657 10.8901C15.3182 10.8528 15.2981 10.7918 15.3119 10.7351C15.4352 10.3279 15.4839 9.99466 15.4876 9.70837C15.5065 9.42074 15.4654 9.18163 15.398 8.98334C15.2899 8.58915 15.076 8.35667 14.9985 8.35163C14.9294 8.34713 14.6841 8.55655 14.5569 8.98918C14.5068 9.20416 14.4867 9.47456 14.5304 9.78577C14.5892 10.0949 14.7279 10.4464 14.9739 10.7984C15.0118 10.8477 15.02 10.9124 14.9935 10.9673C14.7997 11.3715 14.6759 11.8214 15.2785 11.366C16.0027 11.4466 15.7124 11.1621 15.3657 10.8901Z" fill="#1F2023"/>
<path d="M16.6874 13.9603C16.6301 13.9447 16.5882 13.8964 16.5792 13.8381C16.5405 13.6276 16.5066 13.4445 16.4764 13.2796C16.4395 13.1118 16.3923 12.9657 16.3367 12.8364C16.2439 12.5683 16.1262 12.3608 15.9904 12.2036C15.746 11.8802 15.4682 11.7352 15.3927 11.7582C15.328 11.7776 15.1668 12.061 15.2084 12.5129C15.2421 12.733 15.3171 12.9986 15.4807 13.2716C15.5716 13.4036 15.6819 13.538 15.8134 13.6698C15.9393 13.8045 16.101 13.9275 16.2956 14.033C16.3491 14.0635 16.3817 14.1205 16.3788 14.1822C16.3475 14.6472 16.4642 15.0819 16.8019 14.4295C17.5105 14.1838 17.0938 14.0815 16.6874 13.9603Z" fill="#1F2023"/>
<path d="M19.1962 16.147C19.1358 16.1629 19.0772 16.1377 19.0454 16.0858C18.8137 15.7276 18.587 15.4944 18.3898 15.2886C18.2875 15.1919 18.1841 15.1147 18.0826 15.0514C17.989 14.9788 17.8954 14.9215 17.8042 14.8764C17.4334 14.7054 17.1266 14.6872 17.0704 14.7373C17.0172 14.785 16.9854 15.1147 17.2337 15.4946C17.2937 15.5911 17.3687 15.6918 17.4607 15.7928C17.5606 15.884 17.6788 15.9739 17.8151 16.0582C18.0789 16.2387 18.4516 16.3466 18.8792 16.3872C18.9385 16.3946 18.9929 16.4315 19.0202 16.4839C19.2156 16.8837 19.496 17.2596 19.5138 16.5067C20.0286 15.9877 19.628 16.0428 19.1962 16.147Z" fill="#1F2023"/>
<path d="M22.4239 17.0089C22.3754 17.0447 22.3112 17.0482 22.2601 17.0195C21.898 16.8061 21.5936 16.6558 21.3201 16.584C21.0526 16.4864 20.8148 16.4607 20.607 16.4708C20.2067 16.453 19.9164 16.5946 19.8886 16.6648C19.8623 16.7308 19.989 17.0195 20.3692 17.2775C20.5632 17.3861 20.8209 17.4816 21.1353 17.5264C21.4526 17.5452 21.8285 17.52 22.2336 17.3625C22.2908 17.339 22.3558 17.3482 22.4016 17.3885C22.7415 17.6825 23.1428 17.9214 22.8608 17.2194C23.1274 16.5426 22.7767 16.7467 22.4239 17.0089Z" fill="#1F2023"/>
<path d="M24.8017 15.3964C24.7667 15.4462 24.7058 15.4709 24.6472 15.4608C24.2251 15.3651 23.8932 15.3392 23.6027 15.3217C23.3156 15.3254 23.0746 15.3487 22.8721 15.4022C22.47 15.5239 22.2197 15.6915 22.2102 15.7776C22.2062 15.8131 22.2539 15.894 22.3592 15.9873C22.4639 16.0835 22.6272 16.1866 22.8522 16.2431C23.0762 16.3081 23.3609 16.3462 23.6886 16.2784C24.0155 16.2325 24.3823 16.0652 24.7328 15.7943C24.7813 15.7527 24.8478 15.7394 24.9064 15.7617C25.3451 15.938 25.8154 15.9685 25.2943 15.4396C25.295 14.6913 25.0583 15.046 24.8017 15.3964Z" fill="#1F2023"/>
<path d="M27.6619 13.5707C27.6595 13.6308 27.6179 13.6812 27.5612 13.7032C26.776 14.024 26.3319 14.3015 26.0499 14.6167C25.7654 14.9099 25.6559 15.2169 25.6832 15.2797C25.7145 15.3513 26.0165 15.4634 26.4775 15.3409C26.7052 15.2805 26.9575 15.1376 27.2094 14.9194C27.3273 14.8004 27.4442 14.6612 27.5532 14.5025C27.6616 14.3431 27.7411 14.1419 27.8156 13.9349C27.8355 13.8752 27.8883 13.8318 27.95 13.8188C28.3898 13.7077 28.8299 13.5017 28.0903 13.3305C27.6987 12.7128 27.6616 13.1184 27.6619 13.5707Z" fill="#1F2023"/>
<path d="M29.1629 10.4891C29.19 10.544 29.1849 10.6105 29.1462 10.6572C28.8551 10.9849 28.6839 11.2762 28.537 11.5299C28.4119 11.7921 28.3242 12.0174 28.2849 12.2236C28.2134 12.6364 28.2576 12.9362 28.3289 12.9831C28.3793 13.0181 28.7242 12.9651 29.0306 12.613C29.3506 12.2785 29.6324 11.62 29.4802 10.7402C29.4686 10.6784 29.4863 10.6137 29.5335 10.5732C29.8776 10.2741 30.1772 9.90196 29.4394 10.0782C28.8133 9.69943 28.9599 10.0878 29.1629 10.4891Z" fill="#1F2023"/>
<path d="M29.2041 7.05069C29.2516 7.0886 29.2789 7.14957 29.259 7.20922C29.1975 7.41917 29.1562 7.60659 29.1328 7.7781C29.1055 7.94988 29.0756 8.10867 29.0721 8.25367C29.0711 8.54289 29.0742 8.7881 29.1328 8.99275C29.2381 9.40045 29.4152 9.65282 29.4979 9.66289C29.5607 9.67138 29.8404 9.47442 29.9732 9.03012C30.1108 8.59776 30.1195 7.87884 29.5965 7.14188C29.5647 7.08993 29.5488 7.02418 29.575 6.96693C29.7569 6.5457 29.8544 6.07198 29.2747 6.56134C28.5449 6.50514 28.8495 6.77845 29.2041 7.05069Z" fill="#1F2023"/>
<path d="M27.5827 4.0642C27.642 4.07162 27.6916 4.11457 27.7102 4.17182C27.9562 4.98539 28.2252 5.43286 28.5017 5.74991C28.7909 6.04866 29.0603 6.19234 29.1374 6.16424C29.1981 6.14277 29.3606 5.83765 29.2564 5.37799C29.1812 4.9215 28.7965 4.2821 27.9599 3.9351C27.9013 3.91151 27.8589 3.85822 27.8509 3.79487C27.7881 3.33016 27.5861 2.90151 27.3767 3.61779C26.7248 3.97884 27.149 4.01542 27.5827 4.0642Z" fill="#1F2023"/>
<path d="M24.5971 2.42713C24.6528 2.39903 24.7185 2.40645 24.7633 2.44992C25.412 3.00635 25.8767 3.2619 26.2915 3.35441C26.6863 3.46151 27.0028 3.41538 27.0508 3.35203C27.0919 3.29901 27.0465 2.97215 26.7183 2.62965C26.3915 2.30863 25.7444 1.96401 24.8518 2.1175C24.7909 2.12386 24.7267 2.10372 24.6864 2.05759C24.3898 1.71244 24.0147 1.41077 24.1891 2.14931C23.809 2.77413 24.1939 2.62833 24.5971 2.42713Z" fill="#1F2023"/>
<path d="M21.1822 2.46598C21.2169 2.41588 21.2779 2.39096 21.3365 2.40077C21.7588 2.49673 22.0901 2.52403 22.3801 2.541C22.6667 2.53543 22.9077 2.51926 23.1099 2.462C23.5115 2.34801 23.7634 2.17438 23.7732 2.09008C23.7817 2.02885 23.5842 1.74493 23.1333 1.62114C22.6961 1.48223 21.9616 1.5098 21.2506 2.06755C21.2021 2.10943 21.1355 2.12269 21.077 2.10068C20.6382 1.92652 20.1669 1.89471 20.6897 2.4233C20.6902 3.17085 20.9266 2.81802 21.1822 2.46598Z" fill="#1F2023"/>
<path d="M18.3273 4.2981C18.3297 4.23793 18.3711 4.18729 18.4278 4.16529C19.2125 3.84294 19.6554 3.56301 19.937 3.24808C20.0809 3.10307 20.1766 2.95144 20.2347 2.82712C20.2946 2.70729 20.3182 2.61982 20.3017 2.58403C20.2702 2.51272 19.9672 2.39979 19.5073 2.52491C19.2787 2.58482 19.028 2.73009 18.7764 2.948C18.659 3.06755 18.5423 3.20726 18.4339 3.36604C18.3255 3.52563 18.247 3.72683 18.1728 3.9344C18.1529 3.99378 18.1007 4.03752 18.0387 4.05077C17.5989 4.16238 17.1596 4.36915 17.8995 4.53907C18.2918 5.1562 18.3284 4.75035 18.3273 4.2981Z" fill="#1F2023"/>
<path d="M16.8285 7.38075C16.8015 7.32588 16.8065 7.25934 16.8449 7.21269C17.136 6.88504 17.3075 6.5937 17.4541 6.33974C17.5792 6.07757 17.6667 5.85198 17.7059 5.64547C17.7773 5.23273 17.7324 4.93291 17.6611 4.88599C17.6108 4.85126 17.2659 4.90481 16.96 5.25685C16.6403 5.59166 16.359 6.24988 16.5109 7.12971C16.5228 7.19148 16.5051 7.25616 16.4579 7.29672C16.1138 7.59574 15.8143 7.96793 16.552 7.79164C17.1781 8.17046 17.0316 7.7821 16.8285 7.38075Z" fill="#1F2023"/>
<path d="M16.7861 10.8198C16.7389 10.7819 16.7113 10.7209 16.7315 10.6612C16.7932 10.4513 16.8343 10.2639 16.8579 10.0924C16.8855 9.92057 16.9155 9.76152 16.9189 9.61678C16.92 9.32757 16.9168 9.08209 16.8582 8.87744C16.7532 8.46947 16.5761 8.21737 16.4934 8.20729C16.4306 8.19881 16.1509 8.39551 16.0179 8.84006C15.8803 9.27243 15.8715 9.99082 16.394 10.7283C16.4258 10.7803 16.4412 10.846 16.4152 10.903C16.2326 11.3242 16.1348 11.7974 16.715 11.3091C17.4446 11.3664 17.1403 11.0925 16.7861 10.8198Z" fill="#1F2023"/>
<path d="M18.4005 13.8108C18.3414 13.8034 18.2918 13.7602 18.2735 13.7026C18.0296 12.8888 17.7622 12.44 17.4862 12.1224C17.1978 11.8226 16.9282 11.6787 16.8513 11.7065C16.7903 11.728 16.6276 12.0326 16.7307 12.4922C16.8052 12.9487 17.1872 13.5895 18.023 13.9388C18.0816 13.9624 18.1237 14.016 18.1314 14.0793C18.1943 14.543 18.3939 14.9743 18.6054 14.2575C19.2573 13.8985 18.835 13.8596 18.4005 13.8108Z" fill="#1F2023"/>
<path d="M21.3844 15.4445C21.3295 15.4708 21.2627 15.4676 21.2174 15.4257C20.5695 14.8648 20.1024 14.6198 19.6899 14.5225C19.2941 14.4176 18.9792 14.4602 18.9307 14.5244C18.8901 14.5764 18.9328 14.9064 19.2626 15.247C19.5873 15.5731 20.24 15.9082 21.1304 15.7587C21.1916 15.7504 21.2571 15.7661 21.2972 15.8146C21.5954 16.1603 21.9729 16.4625 21.7931 15.7229C22.168 15.0973 21.7857 15.2431 21.3844 15.4445Z" fill="#1F2023"/>
<path d="M1.85738 1.75835C2.02625 0.853065 1.14959 -0.120082 0.178035 0.320233C0.147019 0.329246 0.107521 0.366889 0.145429 0.397109C0.890333 0.850149 1.21904 1.90229 0.890068 2.78239C0.884236 2.80652 0.892718 2.81791 0.905443 2.82322C0.91048 2.83647 0.920553 2.84548 0.940435 2.83912C1.7198 2.46773 2.65265 2.8378 3.05427 3.67866C3.08316 3.72293 3.11259 3.67601 3.12213 3.64182C3.50916 2.54699 2.65849 1.56801 1.85738 1.75835Z" fill="#1F2023"/>
<path d="M4.94625 1.75835C5.11511 0.853065 4.23846 -0.120082 3.2669 0.320233C3.23589 0.329246 3.19639 0.366889 3.2343 0.397109C3.97893 0.850149 4.30791 1.90229 3.97893 2.78239C3.9731 2.80652 3.98159 2.81791 3.99431 2.82322C3.99935 2.83647 4.00942 2.84548 4.0293 2.83912C4.80893 2.46773 5.74152 2.8378 6.14313 3.67866C6.17203 3.72293 6.20145 3.67601 6.211 3.64182C6.59803 2.54699 5.74735 1.56801 4.94625 1.75835Z" fill="#1F2023"/>
<path d="M8.03429 1.75835C8.20315 0.853065 7.3265 -0.120082 6.35468 0.320233C6.32366 0.329246 6.28443 0.366889 6.32207 0.397109C7.06697 0.850149 7.39595 1.90229 7.06671 2.78239C7.06141 2.80652 7.06962 2.81791 7.08235 2.82322C7.08739 2.83647 7.09772 2.84548 7.11708 2.83912C7.89697 2.46773 8.82956 2.8378 9.23117 3.67866C9.26007 3.72293 9.28949 3.67601 9.29903 3.64182C9.68607 2.54699 8.83539 1.56801 8.03429 1.75835Z" fill="#1F2023"/>
<path d="M11.1233 1.75835C11.2921 0.853065 10.4155 -0.120082 9.44366 0.320233C9.41264 0.329246 9.37315 0.366889 9.41105 0.397109C10.156 0.850149 10.4849 1.90229 10.1557 2.78239C10.1501 2.80652 10.1586 2.81791 10.1711 2.82322C10.1764 2.83647 10.1864 2.84548 10.2061 2.83912C10.986 2.46773 11.9183 2.8378 12.3202 3.67866C12.3491 3.72293 12.3785 3.67601 12.388 3.64182C12.7751 2.54699 11.9244 1.56801 11.1233 1.75835Z" fill="#1F2023"/>
<path d="M1.7956 15.9576C1.97109 15.0523 1.05997 14.0791 0.0499784 14.5195C0.0179024 14.5285 -0.0231865 14.5661 0.0160469 14.5961C0.790111 15.0494 1.13208 16.1015 0.790111 16.9813C0.784279 17.0057 0.792762 17.0171 0.806016 17.0224C0.811318 17.0357 0.821922 17.0447 0.842333 17.0383C1.65271 16.6669 2.62189 17.037 3.0394 17.8779C3.06909 17.9222 3.10011 17.875 3.10992 17.841C3.51206 16.7462 2.62798 15.7672 1.7956 15.9576Z" fill="#1F2023"/>
<path d="M5.00547 15.9576C5.18096 15.0523 4.26984 14.0791 3.25985 14.5195C3.22777 14.5285 3.18668 14.5661 3.22618 14.5961C4.00024 15.0494 4.34194 16.1015 3.99998 16.9813C3.99415 17.0057 4.00289 17.0171 4.01588 17.0224C4.02145 17.0357 4.03205 17.0447 4.0522 17.0383C4.86232 16.6669 5.83175 17.037 6.24927 17.8779C6.27922 17.9222 6.30998 17.875 6.32005 17.841C6.72193 16.7462 5.83785 15.7672 5.00547 15.9576Z" fill="#1F2023"/>
<path d="M8.21574 15.9576C8.39123 15.0523 7.48012 14.0791 6.47039 14.5195C6.43831 14.5285 6.39722 14.5661 6.43646 14.5961C7.21052 15.0494 7.55222 16.1015 7.21026 16.9813C7.20442 17.0057 7.21317 17.0171 7.22643 17.0224C7.23173 17.0357 7.24233 17.0447 7.26248 17.0383C8.07286 16.6669 9.0423 17.037 9.45981 17.8779C9.4895 17.9222 9.52025 17.875 9.53033 17.841C9.93247 16.7462 9.04839 15.7672 8.21574 15.9576Z" fill="#1F2023"/>
<path d="M11.4259 15.9576C11.6014 15.0523 10.6902 14.0791 9.68026 14.5195C9.64818 14.5285 9.60709 14.5661 9.64659 14.5961C10.4207 15.0494 10.7624 16.1015 10.4204 16.9813C10.4146 17.0057 10.4233 17.0171 10.4363 17.0224C10.4419 17.0357 10.4525 17.0447 10.4726 17.0383C11.2827 16.6669 12.2522 17.037 12.6697 17.8779C12.6996 17.9222 12.7304 17.875 12.7402 17.841C13.1423 16.7462 12.2583 15.7672 11.4259 15.9576Z" fill="#1F2023"/>
<path d="M2.86505 12.5359C3.08295 11.6863 2.2002 10.8027 1.15522 11.2412C1.12182 11.2505 1.07861 11.2868 1.11731 11.3136C1.88369 11.7157 2.18483 12.6881 1.79886 13.5186C1.7917 13.5414 1.79992 13.552 1.81317 13.5565C1.81794 13.569 1.82828 13.5769 1.84922 13.5703C2.68876 13.2018 3.65688 13.521 4.04417 14.2943C4.07254 14.3348 4.10594 14.29 4.1176 14.2582C4.57409 13.2254 3.71891 12.3358 2.86505 12.5359Z" fill="#1F2023"/>
<path d="M4.74565 10.7332C4.96355 9.88356 4.0808 9.00001 3.03582 9.43847C3.00268 9.44748 2.95947 9.4838 2.99817 9.51084C3.76455 9.91298 4.06543 10.8853 3.67972 11.7159C3.67256 11.7387 3.68078 11.7493 3.69404 11.7538C3.69881 11.766 3.70915 11.7739 3.73009 11.7676C4.56937 11.3991 5.53774 11.7182 5.92477 12.4915C5.9534 12.5321 5.9868 12.4873 5.99847 12.4552C6.45495 11.4224 5.59977 10.533 4.74565 10.7332Z" fill="#1F2023"/>
<path d="M6.62672 8.93044C6.84463 8.08082 5.96188 7.19728 4.91689 7.63574C4.88375 7.64475 4.84028 7.68107 4.87898 7.70811C5.64562 8.11025 5.9465 9.0826 5.56053 9.91313C5.55364 9.93593 5.56186 9.94653 5.57511 9.95104C5.57988 9.9635 5.59022 9.97145 5.61116 9.96482C6.45044 9.59635 7.41881 9.91551 7.80585 10.6888C7.83448 10.7293 7.86761 10.6845 7.87928 10.6525C8.33576 9.61994 7.48085 8.7303 6.62672 8.93044Z" fill="#1F2023"/>
<path d="M8.50807 7.1277C8.72598 6.27809 7.84322 5.39454 6.79824 5.833C6.7651 5.84202 6.72163 5.8786 6.76033 5.90537C7.52697 6.30751 7.82785 7.27987 7.44188 8.11039C7.43499 8.13319 7.4432 8.1438 7.45646 8.1483C7.46123 8.1605 7.47157 8.16871 7.49251 8.16209C8.33179 7.79361 9.30016 8.11278 9.68719 8.88605C9.71582 8.92661 9.74896 8.88181 9.76062 8.85C10.2174 7.81694 9.36193 6.92756 8.50807 7.1277Z" fill="#1F2023"/>
<path d="M10.3894 5.32497C10.6073 4.47536 9.72457 3.59181 8.67959 4.03027C8.64645 4.03928 8.60298 4.0756 8.64168 4.10264C9.40805 4.50478 9.7092 5.47713 9.32323 6.30766C9.31607 6.33046 9.32455 6.34106 9.33781 6.34557C9.34258 6.35803 9.35292 6.36598 9.37386 6.35935C10.2131 5.99088 11.1815 6.31005 11.5688 7.08331C11.5972 7.12387 11.6303 7.07907 11.642 7.047C12.0985 6.01447 11.2433 5.12483 10.3894 5.32497Z" fill="#1F2023"/>
</svg>
