<svg width="52" height="48" viewBox="0 0 52 48" fill="none" xmlns="http://www.w3.org/2000/svg">
<path d="M17.9575 18.4725C17.7917 18.3068 17.5767 18.2127 17.3527 18.2127C17.2586 18.2127 17.1556 18.2396 17.0481 18.2754L15.4263 18.8713C15.3725 18.8892 15.3233 18.8937 15.2785 18.8937C15.1575 18.8937 15.0455 18.8533 14.9604 18.7593L13.482 17.142C13.3252 16.9762 13.249 16.7612 13.249 16.5551C13.249 16.3311 13.3341 16.1116 13.5089 15.9413L16.3761 13.0697V10.6415C16.3761 10.3817 16.5911 10.2114 16.8061 10.2114C16.9226 10.2114 17.0257 10.2473 17.1108 10.3324L19.3597 12.5276L22.7108 15.8876L19.0461 19.5522L17.9575 18.4725ZM33.6599 32.9474C33.185 32.9474 32.7953 32.5577 32.7953 32.0828V27.7641L30.3178 24.6594L22.4241 26.5276V32.0828C22.4241 32.5577 22.0388 32.9474 21.5594 32.9474H20.6993C20.2199 32.9474 19.8346 32.5577 19.8346 32.0828V21.2053L24.1444 16.9001L33.6241 18.2485L36.8765 16.4745C37.0065 16.4073 37.1498 16.3714 37.2887 16.3714C37.5933 16.3714 37.8845 16.5372 38.0503 16.8239L38.4669 17.581C38.5341 17.7109 38.57 17.8588 38.57 17.9977C38.57 18.2978 38.4042 18.5935 38.1175 18.7593L34.3857 20.7887L35.2593 23.8396C35.3444 24.1487 35.3892 24.4713 35.3892 24.7893V32.0828C35.3892 32.5577 34.9994 32.9474 34.5245 32.9474H33.6599Z" fill="#599A57"/>
<path d="M26.477 46.3144C27.4671 45.741 50.6735 32.0994 50.6735 13.9151C50.6735 13.7538 50.66 13.6015 50.6331 13.4536C50.3823 6.54546 44.6299 1.14258 37.5023 1.14258C32.5698 1.14258 28.1391 3.82162 25.8946 7.91634C23.6546 3.82162 19.2194 1.14258 14.2869 1.14258C7.03826 1.14258 1.14258 6.8725 1.14258 13.9151C1.14258 32.0994 24.349 45.741 25.3346 46.3144L25.908 46.6459L26.477 46.3144Z" stroke="#599A57" stroke-width="2.2848"/>
</svg>
