<svg width="32" height="32" viewBox="0 0 32 32" fill="none" xmlns="http://www.w3.org/2000/svg">
<path d="M16 4C14.8181 3.99999 13.6478 4.23277 12.5558 4.68506C11.4639 5.13735 10.4717 5.80028 9.63601 6.63601C8.80028 7.47174 8.13735 8.4639 7.68506 9.55583C7.23277 10.6478 6.99999 11.8181 7 13C7 19 13.7583 26.0776 15.1616 27.6313C15.2681 27.7475 15.3977 27.8403 15.542 27.9038C15.6864 27.9672 15.8423 28 16 28C16.1577 28 16.3136 27.9672 16.458 27.9038C16.6023 27.8403 16.7319 27.7475 16.8384 27.6313C18.2417 26.0776 25 19 25 13C25 11.8181 24.7672 10.6478 24.3149 9.55583C23.8627 8.4639 23.1997 7.47174 22.364 6.63601C21.5283 5.80028 20.5361 5.13735 19.4442 4.68506C18.3522 4.23277 17.1819 3.99999 16 4ZM16 18C15.0111 18 14.0444 17.7068 13.2221 17.1573C12.3999 16.6079 11.759 15.827 11.3806 14.9134C11.0022 13.9998 10.9031 12.9945 11.0961 12.0245C11.289 11.0546 11.7652 10.1637 12.4645 9.46447C13.1637 8.7652 14.0546 8.289 15.0245 8.09607C15.9945 7.90315 16.9998 8.00216 17.9134 8.3806C18.827 8.75904 19.6079 9.3999 20.1573 10.2221C20.7068 11.0444 21 12.0111 21 13C21 14.3261 20.4732 15.5978 19.5355 16.5355C18.5978 17.4732 17.3261 18 16 18Z" fill="#1F824A"/>
</svg>
