<svg width="32" height="32" viewBox="0 0 32 32" fill="none" xmlns="http://www.w3.org/2000/svg">
<path d="M2.48889 26.3502C2.624 26.3502 2.76267 26.2862 2.85156 26.1689L4.88533 23.5093C4.94933 23.424 4.97778 23.328 4.97778 23.2356C4.97778 22.9973 4.79644 22.7769 4.51911 22.7769H3.39911V9.10933H4.51911C4.79644 9.10933 4.97778 8.88888 4.97778 8.65422C4.97778 8.56177 4.94933 8.46222 4.88533 8.38044L2.85156 5.72088C2.76267 5.60355 2.624 5.53955 2.48889 5.53955C2.35022 5.53955 2.21511 5.60355 2.12622 5.72088L0.0924443 8.38044C0.0284443 8.46222 0 8.56177 0 8.65422C0 8.88888 0.184889 9.10933 0.458667 9.10933H1.57867V22.7769H0.458667C0.184889 22.7769 0 22.9973 0 23.2356C0 23.328 0.0284443 23.424 0.0924443 23.5093L2.12622 26.1689C2.21511 26.2862 2.35022 26.3502 2.48889 26.3502Z" fill="#1F824A"/>
<path d="M27.7528 26.3502C27.4541 26.3502 27.1946 26.1369 27.1341 25.8418L26.3839 22.1013L24.4746 19.2391C24.1617 18.7662 23.6248 18.4853 23.0666 18.4853C22.9457 18.4853 22.8248 18.4924 22.7075 18.5173L17.8897 19.5556L16.311 25.8667C16.2435 26.1547 15.9875 26.3502 15.6888 26.3502H15.1306C14.7821 26.3502 14.4941 26.0622 14.4941 25.7138V22.8089C14.4941 22.8089 13.9501 19.7511 12.9546 18.5529L10.7964 16.0036C10.423 15.5627 9.87192 15.3067 9.29237 15.3067H7.76348C7.53592 15.3067 7.2977 15.1467 7.24437 14.9404L7.14481 14.5671L6.82126 14.2791C6.70037 14.176 6.63281 14.016 6.63281 13.8631C6.63281 13.7778 6.66126 13.6924 6.69326 13.6249L7.62126 11.8329C7.76348 11.4916 8.0017 11.1964 8.30748 10.9831L8.5457 10.8124V8.97066C8.5457 8.84266 8.64881 8.75733 8.75903 8.75733C8.80881 8.75733 8.86926 8.77511 8.91192 8.81777L10.6008 10.5138C11.2373 10.7378 11.8239 11.0756 12.343 11.5093C12.3679 11.4844 13.6266 12.5618 13.6266 12.5618C14.2559 13.1058 15.0453 13.3796 15.8453 13.3796C16.3608 13.3796 16.8799 13.2693 17.3635 13.0204L19.6319 11.4596C20.3537 11.1004 21.1359 10.9227 21.9181 10.9227C22.8248 10.9227 23.735 11.168 24.5421 11.6551L25.0506 11.9609C25.0861 11.7404 25.111 11.4489 25.111 11.0578C25.111 7.008 28.4141 5.53955 30.6328 5.53955C31.3368 5.53955 31.9093 6.10844 31.9093 6.81244C31.9093 7.51644 31.3368 8.08533 30.6328 8.08533C30.327 8.08533 27.6604 8.17066 27.6604 11.0578C27.6604 12.4693 27.3866 13.4898 26.8426 14.1404L28.7555 19.8756C28.8728 20.224 28.9333 20.5902 28.9333 20.9564V25.7138C28.9333 26.0622 28.6453 26.3502 28.2968 26.3502H27.7528Z" fill="#1F824A"/>
</svg>
