<svg width="32" height="32" viewBox="0 0 32 32" fill="none" xmlns="http://www.w3.org/2000/svg">
<path d="M26.5562 25.6313L24.3062 13.6313C24.2202 13.1729 23.9767 12.7589 23.6177 12.461C23.2588 12.1631 22.807 12 22.3405 12H18.0003V10H14.0003V12H9.66019C9.19371 12 8.74191 12.1631 8.38295 12.461C8.02398 12.7589 7.78043 13.1729 7.69443 13.6313L5.44443 25.6313C5.39026 25.9202 5.40041 26.2174 5.47416 26.5019C5.54791 26.7864 5.68344 27.0511 5.87112 27.2773C6.0588 27.5034 6.29402 27.6854 6.56003 27.8103C6.82603 27.9352 7.11631 28 7.41019 28H24.5905C24.8844 28 25.1746 27.9352 25.4406 27.8103C25.7067 27.6854 25.9419 27.5034 26.1295 27.2773C26.3172 27.0511 26.4528 26.7864 26.5265 26.5019C26.6003 26.2174 26.6104 25.9202 26.5562 25.6313ZM16.0003 26C14.8136 26 13.6536 25.6481 12.6669 24.9888C11.6802 24.3295 10.9112 23.3925 10.4571 22.2961C10.0029 21.1997 9.88411 19.9933 10.1156 18.8295C10.3471 17.6656 10.9186 16.5965 11.7577 15.7574C12.5968 14.9182 13.6659 14.3468 14.8298 14.1153C15.9937 13.8838 17.2001 14.0026 18.2964 14.4567C19.3928 14.9108 20.3299 15.6799 20.9892 16.6666C21.6484 17.6533 22.0003 18.8133 22.0003 20C21.9986 21.5908 21.3659 23.1159 20.2411 24.2407C19.1162 25.3656 17.5911 25.9983 16.0003 26ZM7.00034 6V5H26.0003V6C26.0003 6.53043 25.7896 7.03913 25.4145 7.4142C25.0395 7.78927 24.5308 7.99998 24.0003 8H9.00034C8.46991 7.99998 7.96121 7.78927 7.58614 7.4142C7.21107 7.03913 7.00035 6.53043 7.00034 6ZM16.5501 16.4976L16.9008 20.0049C16.9134 20.1307 16.8995 20.2578 16.86 20.3779C16.8205 20.498 16.7562 20.6085 16.6714 20.7022C16.5865 20.796 16.483 20.8709 16.3674 20.9222C16.2518 20.9735 16.1268 21 16.0003 21C15.8739 21 15.7489 20.9735 15.6333 20.9222C15.5177 20.8709 15.4141 20.796 15.3293 20.7022C15.2445 20.6085 15.1802 20.498 15.1407 20.3779C15.1012 20.2578 15.0873 20.1307 15.0998 20.0049L15.4506 16.4976C15.4642 16.3612 15.528 16.2348 15.6296 16.1429C15.7312 16.0509 15.8633 16 16.0004 16C16.1374 16 16.2695 16.0509 16.3711 16.1429C16.4727 16.2348 16.5364 16.3612 16.5501 16.4976Z" fill="#1F824A"/>
</svg>
