<svg width="32" height="32" viewBox="0 0 32 32" fill="none" xmlns="http://www.w3.org/2000/svg">
<path d="M27.7813 11.9256C27.7813 16.6409 21.9254 20.4285 17.0848 25.6238C16.9457 25.7722 16.7777 25.8906 16.5911 25.9714C16.4045 26.0523 16.2033 26.094 16 26.094C15.7966 26.094 15.5954 26.0523 15.4088 25.9714C15.2222 25.8906 15.0542 25.7722 14.9152 25.6238C13.3551 23.9494 11.7008 22.4271 10.1617 20.9671C10.1089 20.9827 10.0547 20.9936 9.99998 20.9998H6.99998C6.73476 20.9998 6.48041 20.8944 6.29287 20.7069C6.10534 20.5194 5.99998 20.265 5.99998 19.9998C5.99998 19.7346 6.10534 19.4802 6.29287 19.2927C6.48041 19.1052 6.73476 18.9998 6.99998 18.9998H9.99998C10.2099 18.9998 10.4144 18.9338 10.5847 18.8111C10.755 18.6884 10.8823 18.5152 10.9487 18.3161L11.0854 17.9059L12.0713 20.3711C12.1456 20.5567 12.2737 20.7158 12.4393 20.8278C12.6048 20.9399 12.8001 20.9998 13 20.9998L13.0386 20.9991C13.2449 20.991 13.4437 20.9193 13.6077 20.7938C13.7717 20.6683 13.8929 20.4952 13.9545 20.2981L15.5307 15.2542L16.5512 18.316C16.6176 18.5151 16.7449 18.6883 16.9152 18.811C17.0855 18.9338 17.2901 18.9998 17.5 18.9998H19.5381C19.8033 18.9998 20.0576 18.8944 20.2452 18.7069C20.4327 18.5194 20.5381 18.265 20.5381 17.9998C20.5381 17.7346 20.4327 17.4802 20.2452 17.2927C20.0576 17.1052 19.8033 16.9998 19.5381 16.9998H18.2207L16.4487 11.6835C16.3818 11.4829 16.253 11.3086 16.0808 11.1858C15.9086 11.0629 15.7019 10.9978 15.4904 10.9998C15.2789 11.0018 15.0735 11.0708 14.9037 11.1969C14.7339 11.323 14.6084 11.4997 14.5454 11.7016L12.8842 17.0177L11.9287 14.6285C11.8525 14.4383 11.7198 14.276 11.5485 14.1637C11.3772 14.0513 11.1755 13.9943 10.9707 14.0003C10.7659 14.0063 10.5679 14.075 10.4035 14.1972C10.239 14.3194 10.1161 14.4892 10.0512 14.6835L9.27928 16.9998H6.35828C5.08706 15.602 4.33211 13.8116 4.21875 11.9256C4.21875 6.39483 11.7582 2.43707 15.7964 8.10381C15.8196 8.1371 15.8504 8.16439 15.8862 8.1834C15.9221 8.20241 15.9619 8.2126 16.0025 8.21313C16.0431 8.21365 16.0832 8.2045 16.1195 8.18642C16.1558 8.16834 16.1873 8.14187 16.2114 8.10919C20.4769 2.4345 27.7813 6.39312 27.7813 11.9256Z" fill="#1F824A"/>
</svg>
