<svg width="32" height="32" viewBox="0 0 32 32" fill="none" xmlns="http://www.w3.org/2000/svg">
<path d="M15 5V11.3921C15 12.1171 14.803 12.8284 14.43 13.4501L12.57 16.5499C12.197 17.1716 12 17.883 12 18.608V27C12 27.2652 11.8946 27.5196 11.7071 27.7071C11.5196 27.8946 11.2652 28 11 28H9C8.73478 28 8.48043 27.8946 8.29289 27.7071C8.10536 27.5196 8 27.2652 8 27V18.6079C8.00001 17.8829 7.80298 17.1716 7.43 16.5499L5.57 13.4501C5.19702 12.8284 4.99999 12.117 5 11.3921V5C5 4.73478 5.10536 4.48043 5.29289 4.29289C5.48043 4.10536 5.73478 4 6 4C6.26522 4 6.51957 4.10536 6.70711 4.29289C6.89464 4.48043 7 4.73478 7 5V9.5C7 9.76522 7.10536 10.0196 7.29289 10.2071C7.48043 10.3946 7.73478 10.5 8 10.5C8.26522 10.5 8.51957 10.3946 8.70711 10.2071C8.89464 10.0196 9 9.76522 9 9.5V5C9 4.73478 9.10536 4.48043 9.29289 4.29289C9.48043 4.10536 9.73478 4 10 4C10.2652 4 10.5196 4.10536 10.7071 4.29289C10.8946 4.48043 11 4.73478 11 5V9.5C11 9.76522 11.1054 10.0196 11.2929 10.2071C11.4804 10.3946 11.7348 10.5 12 10.5C12.2652 10.5 12.5196 10.3946 12.7071 10.2071C12.8946 10.0196 13 9.76522 13 9.5V5C13 4.73478 13.1054 4.48043 13.2929 4.29289C13.4804 4.10536 13.7348 4 14 4C14.2652 4 14.5196 4.10536 14.7071 4.29289C14.8946 4.48043 15 4.73478 15 5ZM24 4H22C20.9401 4.00307 19.9244 4.42548 19.175 5.17496C18.4255 5.92444 18.0031 6.94008 18 8V17C18.0015 17.53 18.2127 18.0378 18.5875 18.4125C18.9622 18.7873 19.47 18.9985 20 19H21.5C21.5657 19 21.6307 19.0129 21.6914 19.038C21.752 19.0631 21.8072 19.1 21.8536 19.1464C21.9 19.1928 21.9369 19.248 21.962 19.3086C21.9871 19.3693 22 19.4343 22 19.5V27C22 27.2652 22.1054 27.5196 22.2929 27.7071C22.4804 27.8946 22.7348 28 23 28H25C25.2652 28 25.5196 27.8946 25.7071 27.7071C25.8946 27.5196 26 27.2652 26 27V6C25.9985 5.47004 25.7873 4.96223 25.4125 4.58749C25.0378 4.21275 24.53 4.00154 24 4Z" fill="#1F824A"/>
</svg>
