<svg width="32" height="32" viewBox="0 0 32 32" fill="none" xmlns="http://www.w3.org/2000/svg">
<path d="M24.9483 27.2886C24.6332 27.2886 24.3594 27.0635 24.2956 26.7522L23.5041 22.806L21.4898 19.7864C21.1597 19.2875 20.5933 18.9911 20.0043 18.9911C19.8768 18.9911 19.7493 18.9987 19.6255 19.0249L14.5427 20.1202L12.8772 26.7785C12.8059 27.0823 12.5359 27.2886 12.2208 27.2886H11.6318C11.2642 27.2886 10.9604 26.9848 10.9604 26.6172V23.5525C10.9604 23.5525 10.3865 20.3265 9.33617 19.0624L7.05924 16.3729C6.66537 15.9077 6.08395 15.6377 5.47252 15.6377H3.85954C3.61947 15.6377 3.36814 15.4689 3.31188 15.2513L3.20685 14.8574L2.8655 14.5536C2.73796 14.4448 2.66669 14.276 2.66669 14.1147C2.66669 14.0247 2.6967 13.9346 2.73046 13.8634L3.7095 11.9728C3.85954 11.6127 4.11087 11.3014 4.43346 11.0763L4.68479 10.8962V8.95317C4.68479 8.81813 4.79357 8.7281 4.90985 8.7281C4.96237 8.7281 5.02614 8.74686 5.07115 8.79187L6.85293 10.5812C7.52438 10.8175 8.14331 11.1738 8.69097 11.6315C8.71723 11.6052 10.0451 12.7418 10.0451 12.7418C10.7091 13.3157 11.5418 13.6045 12.3858 13.6045C12.9297 13.6045 13.4774 13.4883 13.9875 13.2257L16.3808 11.5789C17.1422 11.2001 17.9675 11.0125 18.7927 11.0125C19.7493 11.0125 20.7095 11.2714 21.561 11.7853L22.0975 12.1079C22.135 11.8753 22.1612 11.5677 22.1612 11.1551C22.1612 6.88255 25.646 5.33334 27.9867 5.33334C28.7294 5.33334 29.3334 5.93352 29.3334 6.67624C29.3334 7.41896 28.7294 8.01914 27.9867 8.01914C27.6641 8.01914 24.8508 8.10917 24.8508 11.1551C24.8508 12.6443 24.5619 13.7208 23.988 14.4073L26.0061 20.4578C26.1299 20.8254 26.1937 21.2118 26.1937 21.5982V26.6172C26.1937 26.9848 25.8898 27.2886 25.5222 27.2886H24.9483Z" fill="#1F824A"/>
</svg>
