<svg width="32" height="32" viewBox="0 0 32 32" fill="none" xmlns="http://www.w3.org/2000/svg">
<path d="M15 18.5V19.5C15 19.6326 14.9473 19.7598 14.8536 19.8536C14.7598 19.9473 14.6326 20 14.5 20H13.5C13.3674 20 13.2402 19.9473 13.1464 19.8536C13.0527 19.7598 13 19.6326 13 19.5V18.5C13 18.3674 13.0527 18.2402 13.1464 18.1464C13.2402 18.0527 13.3674 18 13.5 18H14.5C14.6326 18 14.7598 18.0527 14.8536 18.1464C14.9473 18.2402 15 18.3674 15 18.5ZM14.5 22H13.5C13.3674 22 13.2402 22.0527 13.1464 22.1464C13.0527 22.2402 13 22.3674 13 22.5V23.5C13 23.6326 13.0527 23.7598 13.1464 23.8536C13.2402 23.9473 13.3674 24 13.5 24H14.5C14.6326 24 14.7598 23.9473 14.8536 23.8536C14.9473 23.7598 15 23.6326 15 23.5V22.5C15 22.3674 14.9473 22.2402 14.8536 22.1464C14.7598 22.0527 14.6326 22 14.5 22ZM14.5 14H13.5C13.3674 14 13.2402 14.0527 13.1464 14.1464C13.0527 14.2402 13 14.3674 13 14.5V15.5C13 15.6326 13.0527 15.7598 13.1464 15.8536C13.2402 15.9473 13.3674 16 13.5 16H14.5C14.6326 16 14.7598 15.9473 14.8536 15.8536C14.9473 15.7598 15 15.6326 15 15.5V14.5C15 14.3674 14.9473 14.2402 14.8536 14.1464C14.7598 14.0527 14.6326 14 14.5 14ZM18.5 22H17.5C17.3674 22 17.2402 22.0527 17.1464 22.1464C17.0527 22.2402 17 22.3674 17 22.5V23.5C17 23.6326 17.0527 23.7598 17.1464 23.8536C17.2402 23.9473 17.3674 24 17.5 24H18.5C18.6326 24 18.7598 23.9473 18.8536 23.8536C18.9473 23.7598 19 23.6326 19 23.5V22.5C19 22.3674 18.9473 22.2402 18.8536 22.1464C18.7598 22.0527 18.6326 22 18.5 22ZM10.5 18H9.5C9.36739 18 9.24021 18.0527 9.14645 18.1464C9.05268 18.2402 9 18.3674 9 18.5V19.5C9 19.6326 9.05268 19.7598 9.14645 19.8536C9.24021 19.9473 9.36739 20 9.5 20H10.5C10.6326 20 10.7598 19.9473 10.8536 19.8536C10.9473 19.7598 11 19.6326 11 19.5V18.5C11 18.3674 10.9473 18.2402 10.8536 18.1464C10.7598 18.0527 10.6326 18 10.5 18ZM10.5 22H9.5C9.36739 22 9.24021 22.0527 9.14645 22.1464C9.05268 22.2402 9 22.3674 9 22.5V23.5C9 23.6326 9.05268 23.7598 9.14645 23.8536C9.24021 23.9473 9.36739 24 9.5 24H10.5C10.6326 24 10.7598 23.9473 10.8536 23.8536C10.9473 23.7598 11 23.6326 11 23.5V22.5C11 22.3674 10.9473 22.2402 10.8536 22.1464C10.7598 22.0527 10.6326 22 10.5 22ZM22.5 14H21.5C21.3674 14 21.2402 14.0527 21.1464 14.1464C21.0527 14.2402 21 14.3674 21 14.5V15.5C21 15.6326 21.0527 15.7598 21.1464 15.8536C21.2402 15.9473 21.3674 16 21.5 16H22.5C22.6326 16 22.7598 15.9473 22.8536 15.8536C22.9473 15.7598 23 15.6326 23 15.5V14.5C23 14.3674 22.9473 14.2402 22.8536 14.1464C22.7598 14.0527 22.6326 14 22.5 14ZM22.5 18H21.5C21.3674 18 21.2402 18.0527 21.1464 18.1464C21.0527 18.2402 21 18.3674 21 18.5V19.5C21 19.6326 21.0527 19.7598 21.1464 19.8536C21.2402 19.9473 21.3674 20 21.5 20H22.5C22.6326 20 22.7598 19.9473 22.8536 19.8536C22.9473 19.7598 23 19.6326 23 19.5V18.5C23 18.3674 22.9473 18.2402 22.8536 18.1464C22.7598 18.0527 22.6326 18 22.5 18ZM18.5 18H17.5C17.3674 18 17.2402 18.0527 17.1464 18.1464C17.0527 18.2402 17 18.3674 17 18.5V19.5C17 19.6326 17.0527 19.7598 17.1464 19.8536C17.2402 19.9473 17.3674 20 17.5 20H18.5C18.6326 20 18.7598 19.9473 18.8536 19.8536C18.9473 19.7598 19 19.6326 19 19.5V18.5C19 18.3674 18.9473 18.2402 18.8536 18.1464C18.7598 18.0527 18.6326 18 18.5 18ZM18.5 14H17.5C17.3674 14 17.2402 14.0527 17.1464 14.1464C17.0527 14.2402 17 14.3674 17 14.5V15.5C17 15.6326 17.0527 15.7598 17.1464 15.8536C17.2402 15.9473 17.3674 16 17.5 16H18.5C18.6326 16 18.7598 15.9473 18.8536 15.8536C18.9473 15.7598 19 15.6326 19 15.5V14.5C19 14.3674 18.9473 14.2402 18.8536 14.1464C18.7598 14.0527 18.6326 14 18.5 14ZM27 7V26C27 26.5304 26.7893 27.0391 26.4142 27.4142C26.0391 27.7893 25.5304 28 25 28H7C6.46957 28 5.96087 27.7893 5.5858 27.4142C5.21073 27.0391 5.00002 26.5304 5 26V7C5.00053 6.46973 5.21141 5.96133 5.58637 5.58637C5.96133 5.21141 6.46973 5.00053 7 5V6.5C7 6.63261 7.05268 6.75979 7.14645 6.85355C7.24021 6.94732 7.36739 7 7.5 7H8.5C8.63261 7 8.75979 6.94732 8.85355 6.85355C8.94732 6.75979 9 6.63261 9 6.5V5.5C9 5.36739 9.05268 5.24021 9.14645 5.14645C9.24021 5.05268 9.36739 5 9.5 5H10.5C10.6326 5 10.7598 5.05268 10.8536 5.14645C10.9473 5.24021 11 5.36739 11 5.5V6.5C11 6.63261 11.0527 6.75979 11.1464 6.85355C11.2402 6.94732 11.3674 7 11.5 7H12.5C12.6326 7 12.7598 6.94732 12.8536 6.85355C12.9473 6.75979 13 6.63261 13 6.5V5.5C13 5.36739 13.0527 5.24021 13.1464 5.14645C13.2402 5.05268 13.3674 5 13.5 5H14.5C14.6326 5 14.7598 5.05268 14.8536 5.14645C14.9473 5.24021 15 5.36739 15 5.5V6.5C15 6.63261 15.0527 6.75979 15.1464 6.85355C15.2402 6.94732 15.3674 7 15.5 7H16.5C16.6326 7 16.7598 6.94732 16.8536 6.85355C16.9473 6.75979 17 6.63261 17 6.5V5.5C17 5.36739 17.0527 5.24021 17.1464 5.14645C17.2402 5.05268 17.3674 5 17.5 5H18.5C18.6326 5 18.7598 5.05268 18.8536 5.14645C18.9473 5.24021 19 5.36739 19 5.5V6.5C19 6.63261 19.0527 6.75979 19.1464 6.85355C19.2402 6.94732 19.3674 7 19.5 7H20.5C20.6326 7 20.7598 6.94732 20.8536 6.85355C20.9473 6.75979 21 6.63261 21 6.5V5.5C21 5.36739 21.0527 5.24021 21.1464 5.14645C21.2402 5.05268 21.3674 5 21.5 5H22.5C22.6326 5 22.7598 5.05268 22.8536 5.14645C22.9473 5.24021 23 5.36739 23 5.5V6.5C23 6.63261 23.0527 6.75979 23.1464 6.85355C23.2402 6.94732 23.3674 7 23.5 7H24.5C24.6326 7 24.7598 6.94732 24.8536 6.85355C24.9473 6.75979 25 6.63261 25 6.5V5C25.5303 5.00053 26.0387 5.21141 26.4136 5.58637C26.7886 5.96133 26.9995 6.46973 27 7ZM25.0015 26L25.0004 12H7V26H25.0015Z" fill="#1F824A"/>
</svg>
