<svg width="32" height="32" viewBox="0 0 32 32" fill="none" xmlns="http://www.w3.org/2000/svg">
<path d="M27.104 17H23.9992V27.5C23.9992 27.6326 23.9465 27.7598 23.8528 27.8535C23.759 27.9473 23.6318 28 23.4992 28H19.4992C19.3666 28 19.2394 27.9473 19.1456 27.8535C19.0519 27.7598 18.9992 27.6326 18.9992 27.5V22.5C18.9992 22.3674 18.9465 22.2402 18.8528 22.1464C18.759 22.0527 18.6318 22 18.4992 22H13.4992C13.3666 22 13.2394 22.0527 13.1456 22.1464C13.0519 22.2402 12.9992 22.3674 12.9992 22.5V27.5C12.9992 27.6326 12.9465 27.7598 12.8528 27.8535C12.759 27.9473 12.6318 28 12.4992 28H8.4992C8.36659 28 8.23941 27.9473 8.14564 27.8535C8.05188 27.7598 7.9992 27.6326 7.9992 27.5V17H4.89438C4.73912 17 4.58735 16.9539 4.45825 16.8677C4.32916 16.7814 4.22855 16.6588 4.16913 16.5154C4.10972 16.372 4.09417 16.2141 4.12446 16.0618C4.15475 15.9096 4.22951 15.7697 4.3393 15.6599L15.4689 4.53022C15.6095 4.38956 15.8003 4.31055 15.9992 4.31055C16.1981 4.31055 16.3889 4.38956 16.5295 4.53022L27.6591 15.6599C27.7689 15.7697 27.8436 15.9096 27.8739 16.0618C27.9042 16.2141 27.8887 16.372 27.8293 16.5154C27.7698 16.6588 27.6692 16.7814 27.5401 16.8677C27.411 16.9539 27.2593 17 27.104 17Z" fill="#1F824A"/>
</svg>
