<svg width="32" height="32" viewBox="0 0 32 32" fill="none" xmlns="http://www.w3.org/2000/svg">
<path d="M16 4C13.6266 4 11.3066 4.70379 9.33316 6.02236C7.35977 7.34094 5.8217 9.21509 4.91345 11.4078C4.0052 13.6005 3.76756 16.0133 4.23058 18.3411C4.6936 20.6689 5.83649 22.8071 7.51472 24.4853C9.19295 26.1635 11.3312 27.3064 13.6589 27.7694C15.9867 28.2324 18.3995 27.9948 20.5922 27.0866C22.7849 26.1783 24.6591 24.6402 25.9776 22.6668C27.2962 20.6935 28 18.3734 28 16C27.9965 12.8185 26.731 9.76831 24.4814 7.51865C22.2317 5.26898 19.1815 4.00355 16 4ZM16 25C14.22 25 12.4799 24.4722 10.9999 23.4832C9.51983 22.4943 8.36628 21.0887 7.68509 19.4442C7.0039 17.7996 6.82567 15.99 7.17294 14.2442C7.52021 12.4984 8.37737 10.8947 9.63604 9.63604C10.8947 8.37737 12.4984 7.5202 14.2442 7.17293C15.99 6.82567 17.7996 7.0039 19.4442 7.68508C21.0887 8.36627 22.4943 9.51983 23.4832 10.9999C24.4722 12.4799 25 14.22 25 16C24.9973 18.3861 24.0482 20.6737 22.361 22.361C20.6738 24.0482 18.3861 24.9973 16 25ZM18 16C18.0013 16.4398 17.8573 16.8676 17.5902 17.217C17.3231 17.5664 16.948 17.8177 16.5233 17.9318C16.0986 18.0459 15.6481 18.0164 15.2419 17.8478C14.8357 17.6793 14.4966 17.3812 14.2774 17H12C11.7348 17 11.4804 16.8946 11.2929 16.7071C11.1054 16.5196 11 16.2652 11 16C11 15.7348 11.1054 15.4804 11.2929 15.2929C11.4804 15.1054 11.7348 15 12 15H14.2774C14.4515 14.7005 14.7005 14.4514 15 14.2773V10C15 9.73478 15.1054 9.48043 15.2929 9.29289C15.4804 9.10536 15.7348 9 16 9C16.2652 9 16.5196 9.10536 16.7071 9.29289C16.8946 9.48043 17 9.73478 17 10V14.2773C17.3032 14.4514 17.5553 14.7023 17.7308 15.0047C17.9064 15.3071 17.9992 15.6503 18 16Z" fill="#1F824A"/>
</svg>
