<svg width="24" height="24" viewBox="0 0 24 24" fill="none" xmlns="http://www.w3.org/2000/svg">
<path d="M16.2802 18.9698C16.4188 19.1108 16.496 19.3009 16.4951 19.4986C16.4942 19.6963 16.4153 19.8857 16.2754 20.0255C16.1356 20.1653 15.9463 20.2442 15.7486 20.2451C15.5509 20.246 15.3608 20.1688 15.2197 20.0303L7.71973 12.5303C7.65007 12.4606 7.59481 12.378 7.55711 12.287C7.51941 12.196 7.5 12.0985 7.5 12C7.5 11.9015 7.51941 11.804 7.55711 11.713C7.59481 11.622 7.65007 11.5393 7.71973 11.4697L15.2197 3.96973C15.3607 3.83055 15.5509 3.75279 15.749 3.75342C15.9471 3.75405 16.1369 3.83301 16.2769 3.97308C16.417 4.11314 16.4959 4.30292 16.4966 4.50099C16.4972 4.69906 16.4194 4.88934 16.2802 5.03027L9.31053 12L16.2802 18.9698Z" fill="black"/>
</svg>
