<svg width="24" height="24" viewBox="0 0 24 24" fill="none" xmlns="http://www.w3.org/2000/svg">
<path d="M16.2793 12.5302L8.77927 20.0302C8.63821 20.1688 8.44814 20.246 8.25043 20.2451C8.05272 20.2442 7.86336 20.1653 7.72355 20.0255C7.58375 19.8857 7.50481 19.6963 7.50391 19.4986C7.50302 19.3009 7.58024 19.1108 7.71877 18.9697L14.6885 12L7.71877 5.03025C7.58024 4.88918 7.50302 4.69912 7.50391 4.5014C7.50481 4.30369 7.58375 4.11433 7.72355 3.97453C7.86336 3.83472 8.05272 3.75579 8.25043 3.75489C8.44814 3.754 8.63821 3.83121 8.77927 3.96975L16.2793 11.4697C16.3489 11.5394 16.4042 11.622 16.4419 11.713C16.4796 11.804 16.499 11.9015 16.499 12C16.499 12.0985 16.4796 12.196 16.4419 12.287C16.4042 12.378 16.3489 12.4606 16.2793 12.5302Z" fill="black"/>
</svg>
