<svg width="24" height="24" viewBox="0 0 24 24" fill="none" xmlns="http://www.w3.org/2000/svg">
<path d="M12.0008 3C12.1997 3 12.3905 3.07902 12.5311 3.21967C12.6718 3.36032 12.7508 3.55109 12.7508 3.75V18.4395L16.7206 14.4696C16.8622 14.3338 17.0514 14.2589 17.2476 14.261C17.4439 14.263 17.6314 14.3419 17.7702 14.4806C17.9089 14.6194 17.9878 14.8069 17.9898 15.0032C17.9919 15.1994 17.917 15.3886 17.7812 15.5302L12.5311 20.7802C12.4614 20.8499 12.3787 20.9051 12.2878 20.9428C12.1968 20.9805 12.0993 20.9999 12.0008 20.9999C11.9023 20.9999 11.8048 20.9805 11.7138 20.9428C11.6228 20.9051 11.5401 20.8499 11.4705 20.7802L6.22044 15.5302C6.08462 15.3886 6.00971 15.1994 6.01176 15.0032C6.01381 14.8069 6.09267 14.6194 6.23141 14.4806C6.37016 14.3419 6.55775 14.263 6.75396 14.261C6.95017 14.2589 7.13937 14.3338 7.28099 14.4696L11.2508 18.4395V3.75C11.2508 3.55109 11.3298 3.36032 11.4705 3.21967C11.6111 3.07902 11.8019 3 12.0008 3Z" fill="#ffffff"/>
</svg>
