<svg width="24" height="24" viewBox="0 0 24 24" fill="none" xmlns="http://www.w3.org/2000/svg">
<path d="M20.9999 12.0001C20.9999 12.199 20.9209 12.3898 20.7802 12.5304C20.6396 12.6711 20.4488 12.7501 20.2499 12.7501H5.56045L9.53027 16.7199C9.66609 16.8615 9.741 17.0507 9.73895 17.2469C9.7369 17.4431 9.65804 17.6307 9.5193 17.7695C9.38055 17.9082 9.19296 17.9871 8.99675 17.9891C8.80054 17.9912 8.61134 17.9163 8.46972 17.7805L3.21966 12.5303C3.15002 12.4607 3.09478 12.378 3.05709 12.2871C3.0194 12.1961 3 12.0986 3 12.0001C3 11.9016 3.0194 11.8041 3.05709 11.7131C3.09478 11.6221 3.15002 11.5394 3.21966 11.4698L8.46975 6.21971C8.61136 6.08389 8.80056 6.00898 8.99677 6.01103C9.19298 6.01308 9.38057 6.09193 9.51932 6.23068C9.65807 6.36943 9.73692 6.55702 9.73897 6.75323C9.74102 6.94944 9.66611 7.13864 9.53029 7.28025L5.56045 11.2501H20.2499C20.4488 11.2501 20.6396 11.3291 20.7802 11.4698C20.9209 11.6104 20.9999 11.8012 20.9999 12.0001Z" fill="white"/>
</svg>
