<svg width="24" height="24" viewBox="0 0 24 24" fill="none" xmlns="http://www.w3.org/2000/svg">
<path d="M3 12.0001C3 11.8012 3.07902 11.6104 3.21967 11.4697C3.36032 11.3291 3.55109 11.2501 3.75 11.2501H18.4395L14.4696 7.28025C14.3338 7.13864 14.2589 6.94944 14.261 6.75323C14.263 6.55702 14.3419 6.36943 14.4806 6.23068C14.6194 6.09193 14.8069 6.01308 15.0032 6.01103C15.1994 6.00898 15.3886 6.08389 15.5302 6.21971L20.7802 11.4698C20.8499 11.5395 20.9051 11.6221 20.9428 11.7131C20.9805 11.8041 20.9999 11.9016 20.9999 12.0001C20.9999 12.0986 20.9805 12.1961 20.9428 12.2871C20.9051 12.3781 20.8499 12.4607 20.7802 12.5304L15.5302 17.7805C15.3885 17.9163 15.1993 17.9912 15.0031 17.9891C14.8069 17.9871 14.6193 17.9082 14.4806 17.7695C14.3418 17.6307 14.263 17.4431 14.2609 17.2469C14.2589 17.0507 14.3338 16.8615 14.4696 16.7199L18.4395 12.7501H3.75C3.55109 12.7501 3.36032 12.6711 3.21967 12.5304C3.07902 12.3897 3 12.199 3 12.0001Z" fill="#1F2023"/>
</svg>
