<svg width="24" height="24" viewBox="0 0 24 24" fill="none" xmlns="http://www.w3.org/2000/svg">
<path d="M11.25 13.875V14.625C11.25 14.7245 11.2105 14.8198 11.1402 14.8902C11.0698 14.9605 10.9745 15 10.875 15H10.125C10.0255 15 9.93016 14.9605 9.85983 14.8902C9.78951 14.8198 9.75 14.7245 9.75 14.625V13.875C9.75 13.7755 9.78951 13.6802 9.85983 13.6098C9.93016 13.5395 10.0255 13.5 10.125 13.5H10.875C10.9745 13.5 11.0698 13.5395 11.1402 13.6098C11.2105 13.6802 11.25 13.7755 11.25 13.875ZM10.875 16.5H10.125C10.0255 16.5 9.93016 16.5395 9.85983 16.6098C9.78951 16.6802 9.75 16.7755 9.75 16.875V17.625C9.75 17.7245 9.78951 17.8198 9.85983 17.8902C9.93016 17.9605 10.0255 18 10.125 18H10.875C10.9745 18 11.0698 17.9605 11.1402 17.8902C11.2105 17.8198 11.25 17.7245 11.25 17.625V16.875C11.25 16.7755 11.2105 16.6802 11.1402 16.6098C11.0698 16.5395 10.9745 16.5 10.875 16.5ZM10.875 10.5H10.125C10.0255 10.5 9.93016 10.5395 9.85983 10.6098C9.78951 10.6802 9.75 10.7755 9.75 10.875V11.625C9.75 11.7245 9.78951 11.8198 9.85983 11.8902C9.93016 11.9605 10.0255 12 10.125 12H10.875C10.9745 12 11.0698 11.9605 11.1402 11.8902C11.2105 11.8198 11.25 11.7245 11.25 11.625V10.875C11.25 10.7755 11.2105 10.6802 11.1402 10.6098C11.0698 10.5395 10.9745 10.5 10.875 10.5ZM13.875 16.5H13.125C13.0255 16.5 12.9302 16.5395 12.8598 16.6098C12.7895 16.6802 12.75 16.7755 12.75 16.875V17.625C12.75 17.7245 12.7895 17.8198 12.8598 17.8902C12.9302 17.9605 13.0255 18 13.125 18H13.875C13.9745 18 14.0698 17.9605 14.1402 17.8902C14.2105 17.8198 14.25 17.7245 14.25 17.625V16.875C14.25 16.7755 14.2105 16.6802 14.1402 16.6098C14.0698 16.5395 13.9745 16.5 13.875 16.5ZM7.875 13.5H7.125C7.02554 13.5 6.93016 13.5395 6.85983 13.6098C6.78951 13.6802 6.75 13.7755 6.75 13.875V14.625C6.75 14.7245 6.78951 14.8198 6.85983 14.8902C6.93016 14.9605 7.02554 15 7.125 15H7.875C7.97446 15 8.06984 14.9605 8.14017 14.8902C8.21049 14.8198 8.25 14.7245 8.25 14.625V13.875C8.25 13.7755 8.21049 13.6802 8.14017 13.6098C8.06984 13.5395 7.97446 13.5 7.875 13.5ZM7.875 16.5H7.125C7.02554 16.5 6.93016 16.5395 6.85983 16.6098C6.78951 16.6802 6.75 16.7755 6.75 16.875V17.625C6.75 17.7245 6.78951 17.8198 6.85983 17.8902C6.93016 17.9605 7.02554 18 7.125 18H7.875C7.97446 18 8.06984 17.9605 8.14017 17.8902C8.21049 17.8198 8.25 17.7245 8.25 17.625V16.875C8.25 16.7755 8.21049 16.6802 8.14017 16.6098C8.06984 16.5395 7.97446 16.5 7.875 16.5ZM16.875 10.5H16.125C16.0255 10.5 15.9302 10.5395 15.8598 10.6098C15.7895 10.6802 15.75 10.7755 15.75 10.875V11.625C15.75 11.7245 15.7895 11.8198 15.8598 11.8902C15.9302 11.9605 16.0255 12 16.125 12H16.875C16.9745 12 17.0698 11.9605 17.1402 11.8902C17.2105 11.8198 17.25 11.7245 17.25 11.625V10.875C17.25 10.7755 17.2105 10.6802 17.1402 10.6098C17.0698 10.5395 16.9745 10.5 16.875 10.5ZM16.875 13.5H16.125C16.0255 13.5 15.9302 13.5395 15.8598 13.6098C15.7895 13.6802 15.75 13.7755 15.75 13.875V14.625C15.75 14.7245 15.7895 14.8198 15.8598 14.8902C15.9302 14.9605 16.0255 15 16.125 15H16.875C16.9745 15 17.0698 14.9605 17.1402 14.8902C17.2105 14.8198 17.25 14.7245 17.25 14.625V13.875C17.25 13.7755 17.2105 13.6802 17.1402 13.6098C17.0698 13.5395 16.9745 13.5 16.875 13.5ZM13.875 13.5H13.125C13.0255 13.5 12.9302 13.5395 12.8598 13.6098C12.7895 13.6802 12.75 13.7755 12.75 13.875V14.625C12.75 14.7245 12.7895 14.8198 12.8598 14.8902C12.9302 14.9605 13.0255 15 13.125 15H13.875C13.9745 15 14.0698 14.9605 14.1402 14.8902C14.2105 14.8198 14.25 14.7245 14.25 14.625V13.875C14.25 13.7755 14.2105 13.6802 14.1402 13.6098C14.0698 13.5395 13.9745 13.5 13.875 13.5ZM13.875 10.5H13.125C13.0255 10.5 12.9302 10.5395 12.8598 10.6098C12.7895 10.6802 12.75 10.7755 12.75 10.875V11.625C12.75 11.7245 12.7895 11.8198 12.8598 11.8902C12.9302 11.9605 13.0255 12 13.125 12H13.875C13.9745 12 14.0698 11.9605 14.1402 11.8902C14.2105 11.8198 14.25 11.7245 14.25 11.625V10.875C14.25 10.7755 14.2105 10.6802 14.1402 10.6098C14.0698 10.5395 13.9745 10.5 13.875 10.5ZM20.25 5.25V19.5C20.25 19.8978 20.0919 20.2793 19.8106 20.5606C19.5293 20.8419 19.1478 21 18.75 21H5.25C4.85218 21 4.47065 20.8419 4.18935 20.5606C3.90805 20.2793 3.75001 19.8978 3.75 19.5V5.25C3.7504 4.8523 3.90856 4.471 4.18978 4.18978C4.471 3.90856 4.8523 3.7504 5.25 3.75V4.875C5.25 4.97446 5.28951 5.06984 5.35984 5.14016C5.43016 5.21049 5.52554 5.25 5.625 5.25H6.375C6.47446 5.25 6.56984 5.21049 6.64017 5.14016C6.71049 5.06984 6.75 4.97446 6.75 4.875V4.125C6.75 4.02554 6.78951 3.93016 6.85983 3.85984C6.93016 3.78951 7.02554 3.75 7.125 3.75H7.875C7.97446 3.75 8.06984 3.78951 8.14017 3.85984C8.21049 3.93016 8.25 4.02554 8.25 4.125V4.875C8.25 4.97446 8.28951 5.06984 8.35983 5.14016C8.43016 5.21049 8.52554 5.25 8.625 5.25H9.375C9.47446 5.25 9.56984 5.21049 9.64017 5.14016C9.71049 5.06984 9.75 4.97446 9.75 4.875V4.125C9.75 4.02554 9.78951 3.93016 9.85983 3.85984C9.93016 3.78951 10.0255 3.75 10.125 3.75H10.875C10.9745 3.75 11.0698 3.78951 11.1402 3.85984C11.2105 3.93016 11.25 4.02554 11.25 4.125V4.875C11.25 4.97446 11.2895 5.06984 11.3598 5.14016C11.4302 5.21049 11.5255 5.25 11.625 5.25H12.375C12.4745 5.25 12.5698 5.21049 12.6402 5.14016C12.7105 5.06984 12.75 4.97446 12.75 4.875V4.125C12.75 4.02554 12.7895 3.93016 12.8598 3.85984C12.9302 3.78951 13.0255 3.75 13.125 3.75H13.875C13.9745 3.75 14.0698 3.78951 14.1402 3.85984C14.2105 3.93016 14.25 4.02554 14.25 4.125V4.875C14.25 4.97446 14.2895 5.06984 14.3598 5.14016C14.4302 5.21049 14.5255 5.25 14.625 5.25H15.375C15.4745 5.25 15.5698 5.21049 15.6402 5.14016C15.7105 5.06984 15.75 4.97446 15.75 4.875V4.125C15.75 4.02554 15.7895 3.93016 15.8598 3.85984C15.9302 3.78951 16.0255 3.75 16.125 3.75H16.875C16.9745 3.75 17.0698 3.78951 17.1402 3.85984C17.2105 3.93016 17.25 4.02554 17.25 4.125V4.875C17.25 4.97446 17.2895 5.06984 17.3598 5.14016C17.4302 5.21049 17.5255 5.25 17.625 5.25H18.375C18.4745 5.25 18.5698 5.21049 18.6402 5.14016C18.7105 5.06984 18.75 4.97446 18.75 4.875V3.75C19.1477 3.7504 19.529 3.90856 19.8102 4.18978C20.0914 4.471 20.2496 4.8523 20.25 5.25ZM18.7511 19.5L18.7503 9H5.25V19.5H18.7511Z" fill="#1F824A"/>
</svg>
