<svg width="24" height="24" viewBox="0 0 24 24" fill="none" xmlns="http://www.w3.org/2000/svg">
<path d="M20.3741 10.7876L19.2559 5.94233C19.0902 5.33087 18.7334 4.78837 18.2377 4.39398C17.7419 3.9996 17.1331 3.77396 16.5 3.75H7.5C6.86694 3.77396 6.25811 3.9996 5.76233 4.39398C5.26656 4.78837 4.90979 5.33087 4.74408 5.94233L3.62594 10.7876C3.43302 10.9256 3.27566 11.1075 3.16683 11.3183C3.05801 11.5291 3.00082 11.7628 3 12V20.25C3 20.4489 3.07902 20.6397 3.21967 20.7803C3.36032 20.921 3.55109 21 3.75 21H5.25C5.44891 21 5.63968 20.921 5.78033 20.7803C5.92098 20.6397 6 20.4489 6 20.25V18H18V20.25C18 20.4489 18.079 20.6397 18.2197 20.7803C18.3603 20.921 18.5511 21 18.75 21H20.25C20.4489 21 20.6397 20.921 20.7803 20.7803C20.921 20.6397 21 20.4489 21 20.25V12C20.9992 11.7628 20.942 11.5291 20.8332 11.3183C20.7243 11.1075 20.567 10.9256 20.3741 10.7876ZM6.20545 6.27975C6.29363 5.9984 6.46409 5.74993 6.69483 5.56638C6.92558 5.38284 7.20603 5.27264 7.5 5.25H16.5C16.794 5.27264 17.0744 5.38284 17.3052 5.56638C17.5359 5.74993 17.7064 5.9984 17.7946 6.27975L18.5952 9.75H5.40481L6.20545 6.27975ZM7.5 13.125C7.5 13.2245 7.46049 13.3198 7.39017 13.3902C7.31984 13.4605 7.22446 13.5 7.125 13.5H4.875C4.77554 13.5 4.68016 13.4605 4.60984 13.3902C4.53951 13.3198 4.5 13.2245 4.5 13.125V12.375C4.5 12.2755 4.53951 12.1802 4.60984 12.1098C4.68016 12.0395 4.77554 12 4.875 12H7.125C7.22446 12 7.31984 12.0395 7.39017 12.1098C7.46049 12.1802 7.5 12.2755 7.5 12.375V13.125ZM19.5 13.125C19.5 13.2245 19.4605 13.3198 19.3902 13.3902C19.3198 13.4605 19.2245 13.5 19.125 13.5H16.875C16.7755 13.5 16.6802 13.4605 16.6098 13.3902C16.5395 13.3198 16.5 13.2245 16.5 13.125V12.375C16.5 12.2755 16.5395 12.1802 16.6098 12.1098C16.6802 12.0395 16.7755 12 16.875 12H19.125C19.2245 12 19.3198 12.0395 19.3902 12.1098C19.4605 12.1802 19.5 12.2755 19.5 12.375V13.125Z" fill="white"/>
</svg>
