<svg width="24" height="24" viewBox="0 0 24 24" fill="none" xmlns="http://www.w3.org/2000/svg">
<path d="M19.3793 17.2578C19.4141 17.2926 19.4418 17.3339 19.4606 17.3794C19.4794 17.4249 19.4891 17.4737 19.4891 17.5229C19.4891 17.5722 19.4794 17.621 19.4606 17.6665C19.4418 17.712 19.4141 17.7533 19.3793 17.7881L17.7883 19.3791C17.718 19.4494 17.6226 19.4889 17.5232 19.4889C17.4237 19.4889 17.3284 19.4494 17.258 19.3791L12.0002 14.1212L6.74236 19.3791C6.67202 19.4494 6.57665 19.4889 6.4772 19.4889C6.37775 19.4889 6.28238 19.4494 6.21204 19.3791L4.62108 17.7881C4.58625 17.7533 4.55863 17.712 4.53978 17.6665C4.52093 17.621 4.51123 17.5722 4.51123 17.5229C4.51123 17.4737 4.52093 17.4249 4.53978 17.3794C4.55863 17.3339 4.58625 17.2926 4.62108 17.2578L9.87891 12L4.62108 6.74209C4.58626 6.70728 4.55863 6.66595 4.53978 6.62046C4.52093 6.57497 4.51123 6.52621 4.51123 6.47697C4.51123 6.42773 4.52093 6.37897 4.53978 6.33348C4.55863 6.28799 4.58626 6.24665 4.62108 6.21184L6.21204 4.62081C6.28237 4.55049 6.37775 4.51099 6.4772 4.51099C6.57665 4.51099 6.67203 4.55049 6.74236 4.62081L12.0002 9.87869L17.258 4.62081C17.3283 4.55049 17.4237 4.51099 17.5232 4.51099C17.6226 4.51099 17.718 4.55049 17.7883 4.62081L19.3793 6.21182C19.4141 6.24663 19.4417 6.28796 19.4606 6.33345C19.4794 6.37894 19.4891 6.4277 19.4891 6.47695C19.4891 6.52619 19.4794 6.57495 19.4606 6.62044C19.4417 6.66593 19.4141 6.70726 19.3793 6.74207L14.1215 12L19.3793 17.2578Z" fill="#85858A"/>
</svg>
