<svg width="24" height="24" viewBox="0 0 24 24" fill="none" xmlns="http://www.w3.org/2000/svg">
<path d="M21 17.25V20.25C21 20.4489 20.921 20.6397 20.7803 20.7803C20.6397 20.921 20.4489 21 20.25 21H3.75C3.55109 21 3.36032 20.921 3.21967 20.7803C3.07902 20.6397 3 20.4489 3 20.25V17.25C3 17.0511 3.07902 16.8603 3.21967 16.7197C3.36032 16.579 3.55109 16.5 3.75 16.5H20.25C20.4489 16.5 20.6397 16.579 20.7803 16.7197C20.921 16.8603 21 17.0511 21 17.25ZM11.3897 14.5206C11.4591 14.6177 11.5507 14.6969 11.6568 14.7515C11.763 14.8061 11.8806 14.8346 12 14.8346C12.1194 14.8346 12.237 14.8061 12.3432 14.7515C12.4493 14.6969 12.5409 14.6177 12.6103 14.5206L16.7779 8.68593C16.858 8.5738 16.9057 8.44176 16.9156 8.30432C16.9256 8.16688 16.8975 8.02935 16.8345 7.90682C16.7714 7.78429 16.6758 7.6815 16.5582 7.60973C16.4406 7.53797 16.3054 7.5 16.1676 7.5H14.25V3C14.25 2.80109 14.171 2.61032 14.0303 2.46967C13.8897 2.32902 13.6989 2.25 13.5 2.25H10.5C10.3011 2.25 10.1103 2.32902 9.96967 2.46967C9.82902 2.61032 9.75 2.80109 9.75 3V7.5H7.83239C7.69458 7.5 7.55944 7.53797 7.4418 7.60973C7.32416 7.6815 7.22857 7.78429 7.16552 7.90682C7.10246 8.02935 7.07438 8.16688 7.08436 8.30432C7.09435 8.44176 7.142 8.5738 7.2221 8.68593L11.3897 14.5206Z" fill="#1F824A"/>
</svg>
