<svg width="24" height="24" viewBox="0 0 24 24" fill="none" xmlns="http://www.w3.org/2000/svg">
<path d="M11.0186 13.2803L2.98828 5.25H20.9883L12.958 13.2803C12.8114 13.4118 12.6243 13.4893 12.4277 13.5H11.5489C11.3522 13.4893 11.1652 13.4118 11.0186 13.2803ZM7.62755 12L2.99878 7.37109V16.6289L7.62755 12ZM16.37 12L20.9988 16.6289V7.37109L16.37 12ZM13.799 14.5606C13.5058 14.8236 13.1316 14.9786 12.7383 15H11.2383C10.845 14.9786 10.4708 14.8236 10.1776 14.5605L8.67769 13.0605L2.98828 18.75H20.9883L15.2989 13.0605L13.799 14.5606Z" fill="#1F824A"/>
</svg>
