<svg width="24" height="24" viewBox="0 0 24 24" fill="none" xmlns="http://www.w3.org/2000/svg">
<path d="M10.4499 12.849L2.39844 4.81101L21.5872 4.7998L13.5528 12.8476C13.4414 12.9592 13.309 13.0478 13.1633 13.1083C13.0176 13.1687 12.8614 13.1998 12.7036 13.1998H11.2976C10.9797 13.1998 10.6749 13.0736 10.4499 12.849ZM2.39844 8.20227V15.7946L6.19773 11.9953L2.39844 8.20227ZM14.8997 14.8954C14.6768 15.1187 14.412 15.2958 14.1206 15.4167C13.8292 15.5376 13.5167 15.5998 13.2012 15.5998H10.8012C10.1654 15.5998 9.55559 15.3475 9.10562 14.8983L7.89614 13.6909L2.39844 19.1886L21.5872 19.1998L16.0903 13.7028L14.8997 14.8954ZM17.7859 12.0044L21.5984 15.8169V8.1855L17.7859 12.0044Z" fill="white"/>
</svg>
