<svg width="24" height="24" viewBox="0 0 24 24" fill="none" xmlns="http://www.w3.org/2000/svg">
<path d="M11.25 3.75V8.54407C11.25 9.0878 11.1022 9.62131 10.8225 10.0876L9.4275 12.4125C9.14776 12.8787 9 13.4122 9 13.956V20.25C9 20.4489 8.92098 20.6397 8.78033 20.7803C8.63968 20.921 8.44891 21 8.25 21H6.75C6.55109 21 6.36032 20.921 6.21967 20.7803C6.07902 20.6397 6 20.4489 6 20.25V13.9559C6 13.4122 5.85224 12.8787 5.5725 12.4124L4.1775 10.0876C3.89776 9.6213 3.75 9.08779 3.75 8.54405V3.75C3.75 3.55109 3.82902 3.36032 3.96967 3.21967C4.11032 3.07902 4.30109 3 4.5 3C4.69891 3 4.88968 3.07902 5.03033 3.21967C5.17098 3.36032 5.25 3.55109 5.25 3.75V7.125C5.25 7.32391 5.32902 7.51468 5.46967 7.65533C5.61032 7.79598 5.80109 7.875 6 7.875C6.19891 7.875 6.38968 7.79598 6.53033 7.65533C6.67098 7.51468 6.75 7.32391 6.75 7.125V3.75C6.75 3.55109 6.82902 3.36032 6.96967 3.21967C7.11032 3.07902 7.30109 3 7.5 3C7.69891 3 7.88968 3.07902 8.03033 3.21967C8.17098 3.36032 8.25 3.55109 8.25 3.75V7.125C8.25 7.32391 8.32902 7.51468 8.46967 7.65533C8.61032 7.79598 8.80109 7.875 9 7.875C9.19891 7.875 9.38968 7.79598 9.53033 7.65533C9.67098 7.51468 9.75 7.32391 9.75 7.125V3.75C9.75 3.55109 9.82902 3.36032 9.96967 3.21967C10.1103 3.07902 10.3011 3 10.5 3C10.6989 3 10.8897 3.07902 11.0303 3.21967C11.171 3.36032 11.25 3.55109 11.25 3.75ZM18 3H16.5C15.7051 3.0023 14.9433 3.31911 14.3812 3.88122C13.8191 4.44333 13.5023 5.20506 13.5 6V12.75C13.5012 13.1475 13.6596 13.5283 13.9406 13.8094C14.2217 14.0904 14.6025 14.2488 15 14.25H16.125C16.1742 14.25 16.223 14.2597 16.2685 14.2785C16.314 14.2974 16.3554 14.325 16.3902 14.3598C16.425 14.3946 16.4526 14.436 16.4715 14.4815C16.4903 14.527 16.5 14.5758 16.5 14.625V20.25C16.5 20.4489 16.579 20.6397 16.7197 20.7803C16.8603 20.921 17.0511 21 17.25 21H18.75C18.9489 21 19.1397 20.921 19.2803 20.7803C19.421 20.6397 19.5 20.4489 19.5 20.25V4.5C19.4988 4.10253 19.3404 3.72167 19.0594 3.44061C18.7783 3.15956 18.3975 3.00115 18 3Z" fill="#1F2023"/>
</svg>
