<svg width="24" height="24" viewBox="0 0 24 24" fill="none" xmlns="http://www.w3.org/2000/svg">
<g clip-path="url(#clip0_4876_2431)">
<path d="M6.13389 13.1216C6.40266 12.8266 6.80842 12.6883 7.17483 12.8483C9.76395 13.8831 11.863 14.2031 13.6969 14.5414C14.6106 14.6621 15.4551 14.6789 16.2417 14.6199C17.0227 14.6008 17.7364 14.5788 18.396 14.4574C19.7099 14.2432 20.8031 13.7858 21.5812 13.3744C22.3491 13.0066 22.8135 12.6008 22.8682 12.3589C22.9204 12.1303 22.6813 11.567 22.0878 10.8843C21.4891 10.2467 20.5124 9.56849 19.1456 9.00094C18.4611 8.73108 17.6834 8.44959 16.8063 8.31777C15.9264 8.21992 14.9539 8.19557 13.9053 8.27217C11.8106 8.32289 9.40326 9.22372 6.94545 10.6199C6.59811 10.802 6.17156 10.8585 5.82653 10.6663C3.2817 9.2901 0.374527 8.36324 3.07687 12.4228C2.21935 17.1329 4.18782 15.3155 6.13389 13.1216Z" fill="#3B5C9D"/>
</g>
<defs>
<clipPath id="clip0_4876_2431">
<rect width="24" height="24" fill="white"/>
</clipPath>
</defs>
</svg>
