<svg width="48" height="48" viewBox="0 0 48 48" fill="none" xmlns="http://www.w3.org/2000/svg">
<path d="M27.0002 30.0002V33.0002C27.0002 33.398 26.8421 33.7795 26.5608 34.0608C26.2795 34.3421 25.898 34.5002 25.5002 34.5002H22.5002C22.1023 34.5002 21.7208 34.3421 21.4395 34.0608C21.1582 33.7795 21.0002 33.398 21.0002 33.0002V30.0002C21.0002 29.6024 21.1582 29.2208 21.4395 28.9395C21.7208 28.6582 22.1023 28.5002 22.5002 28.5002H25.5002C25.898 28.5002 26.2795 28.6582 26.5608 28.9395C26.8421 29.2208 27.0002 29.6024 27.0002 30.0002ZM25.5002 13.5002H22.5002C22.1023 13.5002 21.7208 13.6582 21.4395 13.9395C21.1582 14.2208 21.0002 14.6024 21.0002 15.0002L20.9991 19.5002L22.3785 26.3973C22.4125 26.5673 22.5044 26.7203 22.6385 26.8302C22.7725 26.9401 22.9406 27.0002 23.1139 27.0002H24.8842C25.0576 27.0002 25.2256 26.9401 25.3597 26.8302C25.4938 26.7203 25.5856 26.5673 25.6196 26.3973L26.9991 19.5002L27.0002 15.0002C27.0002 14.6024 26.8421 14.2208 26.5608 13.9395C26.2795 13.6582 25.898 13.5002 25.5002 13.5002ZM26.0552 37.3502C23.0277 37.809 19.9342 37.2273 17.2802 35.7002L16.4702 35.2352L11.4152 36.5852L12.5252 32.4302L12.7652 31.5302L12.3002 30.7202C10.8695 28.2215 10.276 25.3306 10.6064 22.4703C10.9367 19.6101 12.1737 16.9306 14.1363 14.8238C16.0988 12.717 18.684 11.2935 21.5137 10.7615C24.3434 10.2295 27.2691 10.617 29.8628 11.8671C32.4565 13.1173 34.5821 15.1646 35.9287 17.7096C37.2753 20.2546 37.7721 23.1637 37.3466 26.0113C36.9212 28.859 35.5956 31.4958 33.5639 33.536C31.5322 35.5762 28.901 36.9128 26.0552 37.3502ZM23.9852 42.0002C24.8987 42.0019 25.8111 41.9367 26.7152 41.8052C30.0065 41.3045 33.0946 39.9011 35.6362 37.7509C38.1778 35.6006 40.0735 32.7878 41.1126 29.6249C42.1516 26.462 42.2933 23.0729 41.522 19.8343C40.7507 16.5957 39.0965 13.6344 36.7432 11.2794C34.39 8.92448 31.4299 7.26812 28.1919 6.49442C24.9538 5.72071 21.5647 5.85996 18.401 6.8967C15.2374 7.93343 12.4231 9.82705 10.271 12.3671C8.11891 14.9072 6.71323 17.9942 6.21017 21.2852C5.6326 24.9932 6.2416 28.7889 7.95017 32.1302L6.12017 38.9552C5.99993 39.3619 5.99078 39.7935 6.09365 40.2049C6.19652 40.6164 6.40767 40.9929 6.70517 41.2952C7.00575 41.5953 7.38216 41.8083 7.79427 41.9113C8.20637 42.0143 8.6387 42.0036 9.04517 41.8802L15.8702 40.0502C18.3827 41.3332 21.164 42.0015 23.9852 42.0002Z" fill="#A8332E"/>
</svg>
