<svg width="48" height="48" viewBox="0 0 48 48" fill="none" xmlns="http://www.w3.org/2000/svg">
<path d="M24 6C20.4399 6 16.9598 7.05568 13.9997 9.03355C11.0397 11.0114 8.73255 13.8226 7.37018 17.1117C6.0078 20.4008 5.65134 24.02 6.34587 27.5116C7.04041 31.0033 8.75474 34.2106 11.2721 36.7279C13.7894 39.2453 16.9967 40.9596 20.4884 41.6541C23.98 42.3487 27.5992 41.9922 30.8883 40.6298C34.1774 39.2675 36.9886 36.9604 38.9665 34.0003C40.9443 31.0402 42 27.5601 42 24C41.9948 19.2277 40.0967 14.6524 36.7222 11.2778C33.3477 7.90331 28.7723 6.00521 24 6ZM27.6379 22.3735L24.9 31.5H26.7894C26.9034 31.5 27.0158 31.526 27.1183 31.576C27.2207 31.626 27.3104 31.6986 27.3806 31.7885C27.4507 31.8783 27.4994 31.983 27.5231 32.0945C27.5467 32.206 27.5446 32.3214 27.517 32.432L27.142 33.932C27.1014 34.0942 27.0077 34.2382 26.8759 34.3412C26.7441 34.4441 26.5817 34.5 26.4144 34.5H21C20.643 34.5291 20.2844 34.4669 19.9581 34.3192C19.6317 34.1716 19.3483 33.9433 19.1345 33.6559C18.9207 33.3685 18.7835 33.0315 18.7358 32.6765C18.6882 32.3214 18.7316 31.9601 18.8621 31.6265L21.6 22.5H20.4606C20.3467 22.5 20.2342 22.474 20.1317 22.424C20.0293 22.374 19.9396 22.3014 19.8695 22.2115C19.7993 22.1217 19.7506 22.017 19.7269 21.9055C19.7033 21.794 19.7054 21.6786 19.7331 21.568L20.1081 20.068C20.1486 19.9058 20.2423 19.7617 20.3741 19.6588C20.5059 19.5559 20.6683 19.5 20.8356 19.5H25.5C25.857 19.4709 26.2156 19.5331 26.5419 19.6808C26.8683 19.8284 27.1517 20.0567 27.3655 20.3441C27.5793 20.6315 27.7165 20.9685 27.7642 21.3236C27.8119 21.6786 27.7684 22.0399 27.6379 22.3735ZM27.8545 17.3734C27.8253 17.5485 27.7349 17.7076 27.5994 17.8223C27.4639 17.9371 27.2922 18 27.1146 18H23.3853C23.2764 18 23.1688 17.9763 23.0699 17.9304C22.9711 17.8846 22.8834 17.8178 22.813 17.7347C22.7426 17.6516 22.6912 17.5541 22.6623 17.4491C22.6334 17.3441 22.6277 17.234 22.6456 17.1266L23.1455 14.1266C23.1748 13.9515 23.2651 13.7924 23.4006 13.6777C23.5361 13.5629 23.7079 13.5 23.8854 13.5H27.6147C27.7236 13.5 27.8312 13.5237 27.9301 13.5696C28.0289 13.6154 28.1166 13.6822 28.187 13.7653C28.2574 13.8484 28.3088 13.9459 28.3377 14.0509C28.3667 14.1559 28.3724 14.266 28.3544 14.3734L27.8545 17.3734Z" fill="#3D5C9C"/>
</svg>
