<svg width="24" height="24" viewBox="0 0 24 24" fill="none" xmlns="http://www.w3.org/2000/svg">
<path d="M12 3C10.22 3 8.47991 3.52784 6.99987 4.51677C5.51983 5.50571 4.36628 6.91131 3.68509 8.55585C3.0039 10.2004 2.82567 12.01 3.17294 13.7558C3.5202 15.5016 4.37737 17.1053 5.63604 18.364C6.89472 19.6226 8.49836 20.4798 10.2442 20.8271C11.99 21.1743 13.7996 20.9961 15.4442 20.3149C17.0887 19.6337 18.4943 18.4802 19.4832 17.0001C20.4722 15.5201 21 13.78 21 12C20.9973 9.61387 20.0483 7.32623 18.361 5.63898C16.6738 3.95173 14.3861 3.00267 12 3ZM12 18.75C10.665 18.75 9.35994 18.3541 8.2499 17.6124C7.13987 16.8707 6.27471 15.8165 5.76382 14.5831C5.25293 13.3497 5.11925 11.9925 5.3797 10.6831C5.64015 9.37377 6.28303 8.17103 7.22703 7.22703C8.17104 6.28302 9.37377 5.64015 10.6831 5.3797C11.9925 5.11925 13.3497 5.25292 14.5831 5.76381C15.8165 6.2747 16.8707 7.13987 17.6124 8.2499C18.3541 9.35993 18.75 10.665 18.75 12C18.748 13.7896 18.0362 15.5053 16.7707 16.7707C15.5053 18.0362 13.7896 18.748 12 18.75ZM13.5 15V16.5C13.5 16.6989 13.421 16.8897 13.2803 17.0303C13.1397 17.171 12.9489 17.25 12.75 17.25H11.25C11.0511 17.25 10.8603 17.171 10.7197 17.0303C10.579 16.8897 10.5 16.6989 10.5 16.5V15C10.5 14.8011 10.579 14.6103 10.7197 14.4697C10.8603 14.329 11.0511 14.25 11.25 14.25H12.75C12.9489 14.25 13.1397 14.329 13.2803 14.4697C13.421 14.6103 13.5 14.8011 13.5 15ZM13.5 7.5L13.4995 9.75L12.8097 13.1986C12.7927 13.2836 12.7468 13.3601 12.6798 13.415C12.6127 13.47 12.5287 13.5 12.442 13.5H11.5569C11.4702 13.5 11.3862 13.47 11.3191 13.415C11.2521 13.3601 11.2062 13.2836 11.1892 13.1986L10.5 9.75V7.5C10.5 7.30109 10.579 7.11032 10.7197 6.96967C10.8603 6.82902 11.0511 6.75 11.25 6.75H12.75C12.9489 6.75 13.1397 6.82902 13.2803 6.96967C13.421 7.11032 13.5 7.30109 13.5 7.5Z" fill="#245745"/>
</svg>
