<svg width="24" height="24" viewBox="0 0 24 24" fill="none" xmlns="http://www.w3.org/2000/svg">
<path d="M20.9998 13.4999V20.2499H19.4998C19.3008 20.2499 19.1101 20.1709 18.9694 20.0302C18.8288 19.8896 18.7498 19.6988 18.7498 19.4999V17.9999H15.7498C15.5207 17.9999 15.2972 17.9299 15.109 17.7994C14.9208 17.669 14.7769 17.4841 14.6965 17.2697L12.9376 12.5792L9.00305 13.6334C8.93579 13.6515 8.86483 13.6504 8.79814 13.6304C8.73145 13.6103 8.67165 13.5721 8.62545 13.52L3.61845 7.87354C3.57604 7.82572 3.54656 7.76785 3.53281 7.70542C3.51906 7.643 3.52149 7.57809 3.53988 7.51687C3.55826 7.45565 3.59199 7.40015 3.63787 7.35563C3.68374 7.31112 3.74023 7.27906 3.80197 7.26252L17.7048 3.53727C17.7999 3.51178 17.8991 3.50528 17.9968 3.51814C18.0944 3.531 18.1886 3.56296 18.2739 3.61221C18.3592 3.66146 18.4339 3.72703 18.4939 3.80517C18.5538 3.88332 18.5978 3.9725 18.6233 4.06764L20.1762 9.86314C20.2017 9.95828 20.2082 10.0575 20.1954 10.1552C20.1825 10.2528 20.1505 10.347 20.1013 10.4323C20.052 10.5176 19.9865 10.5923 19.9083 10.6523C19.8302 10.7123 19.741 10.7562 19.6459 10.7817L15.1208 11.9943L16.5291 15.7499H18.7498V14.2499C18.7498 14.051 18.8288 13.8602 18.9694 13.7196C19.1101 13.5789 19.3008 13.4999 19.4998 13.4999H20.9998ZM1.96151 9.88406C1.86545 9.90981 1.78355 9.97266 1.73383 10.0588C1.6841 10.1449 1.67063 10.2473 1.69637 10.3433L2.47283 13.2411C2.48557 13.2887 2.50756 13.3333 2.53754 13.3724C2.56752 13.4114 2.6049 13.4442 2.64754 13.4689C2.69019 13.4935 2.73727 13.5095 2.7861 13.5159C2.83492 13.5223 2.88454 13.5191 2.9321 13.5063L6.07369 12.6645L3.292 9.52756L1.96151 9.88406Z" fill="white"/>
</svg>
