<svg width="24" height="24" viewBox="0 0 24 24" fill="none" xmlns="http://www.w3.org/2000/svg">
<path d="M20.25 17.25V18.75C20.25 18.9489 20.171 19.1397 20.0303 19.2803C19.8897 19.421 19.6989 19.5 19.5 19.5H4.5C4.30109 19.5 4.11032 19.421 3.96967 19.2803C3.82902 19.1397 3.75 18.9489 3.75 18.75V17.25C3.75 17.0511 3.82902 16.8603 3.96967 16.7197C4.11032 16.579 4.30109 16.5 4.5 16.5H19.5C19.6989 16.5 19.8897 16.579 20.0303 16.7197C20.171 16.8603 20.25 17.0511 20.25 17.25ZM19.5 4.5H4.5C4.30109 4.5 4.11032 4.57902 3.96967 4.71967C3.82902 4.86032 3.75 5.05109 3.75 5.25V6.75C3.75 6.94891 3.82902 7.13968 3.96967 7.28033C4.11032 7.42098 4.30109 7.5 4.5 7.5H19.5C19.6989 7.5 19.8897 7.42098 20.0303 7.28033C20.171 7.13968 20.25 6.94891 20.25 6.75V5.25C20.25 5.05109 20.171 4.86032 20.0303 4.71967C19.8897 4.57902 19.6989 4.5 19.5 4.5ZM19.5 10.5H4.5C4.30109 10.5 4.11032 10.579 3.96967 10.7197C3.82902 10.8603 3.75 11.0511 3.75 11.25V12.75C3.75 12.9489 3.82902 13.1397 3.96967 13.2803C4.11032 13.421 4.30109 13.5 4.5 13.5H19.5C19.6989 13.5 19.8897 13.421 20.0303 13.2803C20.171 13.1397 20.25 12.9489 20.25 12.75V11.25C20.25 11.0511 20.171 10.8603 20.0303 10.7197C19.8897 10.579 19.6989 10.5 19.5 10.5Z" fill="white"/>
</svg>
