<svg width="24" height="24" viewBox="0 0 24 24" fill="none" xmlns="http://www.w3.org/2000/svg">
<path d="M7.78404 19.5H9.95911L9.0945 21.3215C9.03367 21.4497 8.93772 21.558 8.81779 21.6339C8.69787 21.7097 8.55889 21.75 8.417 21.75H6.17276C6.09614 21.75 6.02136 21.7265 5.95848 21.6827C5.8956 21.639 5.84764 21.577 5.82105 21.5051C5.79447 21.4332 5.79054 21.355 5.80979 21.2808C5.82904 21.2066 5.87055 21.1401 5.92873 21.0903L7.78404 19.5ZM15.9021 19.5H13.727L14.5916 21.3215C14.6525 21.4497 14.7484 21.558 14.8684 21.6339C14.9883 21.7097 15.1273 21.75 15.2692 21.75H17.5134C17.59 21.75 17.6648 21.7265 17.7277 21.6827C17.7906 21.639 17.8385 21.577 17.8651 21.5051C17.8917 21.4332 17.8956 21.3549 17.8764 21.2808C17.8571 21.2066 17.8156 21.1401 17.7574 21.0903L15.9021 19.5ZM18.75 6.75V16.5C18.75 16.8978 18.5919 17.2793 18.3106 17.5606C18.0293 17.8419 17.6478 18 17.25 18H6.75C6.35218 18 5.97065 17.8419 5.68935 17.5606C5.40805 17.2793 5.25001 16.8978 5.25 16.5V6.75C5.25291 5.75633 5.64893 4.80419 6.35156 4.10156C7.05419 3.39893 8.00633 3.00291 9 3H15C15.9937 3.00291 16.9458 3.39893 17.6484 4.10156C18.3511 4.80419 18.7471 5.75633 18.75 6.75ZM9.75 13.125C9.75 13.0255 9.71049 12.9302 9.64017 12.8598C9.56984 12.7895 9.47446 12.75 9.375 12.75H7.125C7.02554 12.75 6.93016 12.7895 6.85983 12.8598C6.78951 12.9302 6.75 13.0255 6.75 13.125V13.875C6.75 13.9745 6.78951 14.0698 6.85983 14.1402C6.93016 14.2105 7.02554 14.25 7.125 14.25H9.375C9.47446 14.25 9.56984 14.2105 9.64017 14.1402C9.71049 14.0698 9.75 13.9745 9.75 13.875V13.125ZM17.25 13.125C17.25 13.0255 17.2105 12.9302 17.1402 12.8598C17.0698 12.7895 16.9745 12.75 16.875 12.75H14.625C14.5255 12.75 14.4302 12.7895 14.3598 12.8598C14.2895 12.9302 14.25 13.0255 14.25 13.125V13.875C14.25 13.9745 14.2895 14.0698 14.3598 14.1402C14.4302 14.2105 14.5255 14.25 14.625 14.25H16.875C16.9745 14.25 17.0698 14.2105 17.1402 14.1402C17.2105 14.0698 17.25 13.9745 17.25 13.875V13.125ZM17.25 6.75C17.2483 6.1538 17.0106 5.58251 16.5891 5.16093C16.1675 4.73935 15.5962 4.50174 15 4.5H9C8.4038 4.50174 7.83251 4.73935 7.41093 5.16093C6.98935 5.58251 6.75174 6.1538 6.75 6.75V9C6.75058 9.19874 6.82978 9.38917 6.97031 9.52969C7.11083 9.67022 7.30126 9.74942 7.5 9.75H16.5C16.6987 9.74942 16.8892 9.67022 17.0297 9.52969C17.1702 9.38917 17.2494 9.19874 17.25 9V6.75Z" fill="white"/>
</svg>
