<svg width="24" height="24" viewBox="0 0 24 24" fill="none" xmlns="http://www.w3.org/2000/svg">
<path d="M12 3C10.22 3 8.47991 3.52784 6.99987 4.51677C5.51983 5.50571 4.36628 6.91131 3.68509 8.55585C3.0039 10.2004 2.82567 12.01 3.17294 13.7558C3.5202 15.5016 4.37737 17.1053 5.63604 18.364C6.89472 19.6226 8.49836 20.4798 10.2442 20.8271C11.99 21.1743 13.7996 20.9961 15.4442 20.3149C17.0887 19.6337 18.4943 18.4802 19.4832 17.0001C20.4722 15.5201 21 13.78 21 12C20.9973 9.61387 20.0483 7.32623 18.361 5.63898C16.6738 3.95173 14.3861 3.00267 12 3ZM12 18.75C10.665 18.75 9.35994 18.3541 8.2499 17.6124C7.13987 16.8707 6.27471 15.8165 5.76382 14.5831C5.25293 13.3497 5.11925 11.9925 5.3797 10.6831C5.64015 9.37377 6.28303 8.17103 7.22703 7.22703C8.17104 6.28302 9.37377 5.64015 10.6831 5.3797C11.9925 5.11925 13.3497 5.25292 14.5831 5.76381C15.8165 6.2747 16.8707 7.13987 17.6124 8.2499C18.3541 9.35993 18.75 10.665 18.75 12C18.748 13.7896 18.0362 15.5053 16.7707 16.7707C15.5053 18.0362 13.7896 18.748 12 18.75ZM13.5 12C13.501 12.3298 13.3929 12.6507 13.1926 12.9128C12.9923 13.1748 12.711 13.3633 12.3925 13.4488C12.074 13.5344 11.7361 13.5123 11.4314 13.3859C11.1268 13.2595 10.8725 13.0359 10.7081 12.75H9C8.80109 12.75 8.61033 12.671 8.46967 12.5303C8.32902 12.3897 8.25 12.1989 8.25 12C8.25 11.8011 8.32902 11.6103 8.46967 11.4697C8.61033 11.329 8.80109 11.25 9 11.25H10.7081C10.8386 11.0254 11.0254 10.8386 11.25 10.708V7.5C11.25 7.30109 11.329 7.11032 11.4697 6.96967C11.6103 6.82902 11.8011 6.75 12 6.75C12.1989 6.75 12.3897 6.82902 12.5303 6.96967C12.671 7.11032 12.75 7.30109 12.75 7.5V10.708C12.9774 10.8386 13.1665 11.0267 13.2981 11.2535C13.4298 11.4803 13.4994 11.7378 13.5 12Z" fill="#1F2023"/>
</svg>
