<svg width="40" height="40" viewBox="0 0 40 40" fill="none" xmlns="http://www.w3.org/2000/svg">
<path d="M23.4705 19.4605C23.2258 20.0016 22.8282 20.4593 22.3265 20.7773C21.8249 21.0953 21.2413 21.2596 20.6474 21.25H17.5V15H20.625C21.1515 15.002 21.6691 15.1362 22.1303 15.3902C22.5916 15.6442 22.9816 16.0099 23.2648 16.4538C23.548 16.8977 23.7152 17.4056 23.7512 17.9309C23.7871 18.4562 23.6906 18.9821 23.4705 19.4605ZM33.75 8.75V31.25C33.75 31.913 33.4866 32.5489 33.0177 33.0177C32.5489 33.4866 31.913 33.75 31.25 33.75H8.75C8.08696 33.75 7.45109 33.4866 6.98225 33.0177C6.51342 32.5489 6.25002 31.913 6.25 31.25V8.75C6.25 8.08696 6.51339 7.45107 6.98223 6.98223C7.45107 6.51339 8.08696 6.25 8.75 6.25H31.25C31.913 6.25 32.5489 6.51339 33.0178 6.98223C33.4866 7.45107 33.75 8.08696 33.75 8.75ZM20.625 11.25H14.375C14.2092 11.25 14.0503 11.3158 13.9331 11.4331C13.8158 11.5503 13.75 11.7092 13.75 11.875V28.125C13.75 28.2908 13.8158 28.4497 13.9331 28.5669C14.0503 28.6842 14.2092 28.75 14.375 28.75H16.875C17.0408 28.75 17.1997 28.6842 17.3169 28.5669C17.4342 28.4497 17.5 28.2908 17.5 28.125V25H20.625C21.5399 25.0455 22.4541 24.8988 23.3088 24.5694C24.1635 24.2399 24.9397 23.7351 25.5874 23.0874C26.2351 22.4397 26.7399 21.6635 27.0694 20.8088C27.3988 19.9541 27.5455 19.0399 27.5 18.125C27.5455 17.2101 27.3988 16.2959 27.0694 15.4412C26.7399 14.5865 26.2351 13.8103 25.5874 13.1626C24.9397 12.5149 24.1635 12.0101 23.3088 11.6806C22.4541 11.3512 21.5399 11.2045 20.625 11.25Z" fill="#FF9951"/>
</svg>
