<svg width="24" height="24" viewBox="0 0 24 24" fill="none" xmlns="http://www.w3.org/2000/svg">
<path d="M16.125 3H7.875C7.37788 3.00052 6.90127 3.19823 6.54975 3.54975C6.19823 3.90127 6.00052 4.37788 6 4.875V19.125C6.00052 19.6221 6.19823 20.0987 6.54975 20.4502C6.90127 20.8018 7.37788 20.9995 7.875 21H16.125C16.6221 20.9995 17.0987 20.8018 17.4502 20.4502C17.8018 20.0987 17.9995 19.6221 18 19.125V4.875C17.9995 4.37788 17.8018 3.90127 17.4502 3.54975C17.0987 3.19823 16.6221 3.00052 16.125 3ZM12.75 19.125C12.75 19.2245 12.7105 19.3198 12.6402 19.3902C12.5698 19.4605 12.4745 19.5 12.375 19.5H11.625C11.5255 19.5 11.4302 19.4605 11.3598 19.3902C11.2895 19.3198 11.25 19.2245 11.25 19.125V18.375C11.25 18.2755 11.2895 18.1802 11.3598 18.1098C11.4302 18.0395 11.5255 18 11.625 18H12.375C12.4745 18 12.5698 18.0395 12.6402 18.1098C12.7105 18.1802 12.75 18.2755 12.75 18.375V19.125ZM15.75 16.5H8.25V5.25H15.75V16.5Z" fill="#1F824A"/>
</svg>
