<svg width="24" height="24" viewBox="0 0 24 24" fill="none" xmlns="http://www.w3.org/2000/svg">
<path d="M20.625 3.75H3.375C3.07664 3.75002 2.7905 3.86855 2.57952 4.07952C2.36855 4.2905 2.25002 4.57664 2.25 4.875V19.125C2.25002 19.4234 2.36855 19.7095 2.57952 19.9205C2.7905 20.1315 3.07664 20.25 3.375 20.25H20.625C20.9234 20.25 21.2095 20.1315 21.4205 19.9205C21.6315 19.7095 21.75 19.4234 21.75 19.125V4.875C21.75 4.57664 21.6315 4.2905 21.4205 4.07952C21.2095 3.86855 20.9234 3.75002 20.625 3.75ZM19.5 13.875L15.9043 9.95243C15.8363 9.87721 15.7536 9.81668 15.6613 9.77453C15.5691 9.73238 15.4692 9.70951 15.3678 9.70731C15.2664 9.7051 15.1656 9.72362 15.0716 9.76172C14.9776 9.79982 14.8924 9.85671 14.8211 9.9289L10.8105 13.9395L14.8711 18H12.75L9.15532 14.4053C9.01465 14.2646 8.82389 14.1857 8.625 14.1857C8.42611 14.1857 8.23535 14.2646 8.09468 14.4053L4.5 18V6H19.5V13.875ZM6.075 9.375C6.075 9.01899 6.18057 8.67098 6.37835 8.37497C6.57614 8.07897 6.85726 7.84825 7.18617 7.71202C7.51508 7.57578 7.877 7.54013 8.22616 7.60959C8.57533 7.67904 8.89606 7.85047 9.14779 8.10221C9.39953 8.35394 9.57096 8.67467 9.64041 9.02384C9.70987 9.373 9.67422 9.73492 9.53798 10.0638C9.40175 10.3927 9.17103 10.6739 8.87503 10.8716C8.57902 11.0694 8.23101 11.175 7.875 11.175C7.39761 11.175 6.93978 10.9853 6.60222 10.6478C6.26466 10.3102 6.07501 9.85239 6.075 9.375Z" fill="white"/>
</svg>
