<svg width="48" height="48" viewBox="0 0 48 48" fill="none" xmlns="http://www.w3.org/2000/svg">
<path d="M14.4873 33.6638C17.9638 33.6638 20.8086 30.828 20.8086 27.3426C20.8086 24.9906 19.5139 22.9342 17.6054 21.8501L17.9951 20.7435L25.3334 28.0862L25.3513 28.0997C25.4364 28.1848 25.5439 28.2475 25.647 28.3013L25.7231 28.3192C25.8396 28.364 25.9561 28.3954 26.0815 28.3954H28.2812C28.7785 31.3746 31.3814 33.6638 34.5129 33.6638C37.9894 33.6638 40.8342 30.828 40.8342 27.3426C40.8342 23.8526 37.9894 21.0168 34.5129 21.0168C33.6572 21.0168 32.8463 21.187 32.0982 21.5006L30.4003 18.7813L31.6681 15.4078L31.9727 15.484C32.0444 15.5064 32.1295 15.5154 32.2057 15.5154C32.6358 15.5154 33.0166 15.2107 33.0883 14.7672L33.2809 13.6293C33.2899 13.5755 33.2899 13.5352 33.2899 13.4814C33.2899 12.9976 32.9001 12.5854 32.3939 12.5854H28.0303C27.5331 12.5854 27.1343 12.9842 27.1343 13.4814C27.1343 13.8802 27.3987 14.2386 27.7884 14.3461L29.6342 14.8523L28.5052 17.8539H19.0524L19.6931 16.1067C19.7379 15.9902 19.7558 15.8648 19.7558 15.7483C19.7558 15.5557 19.7065 15.3765 19.6079 15.2197C19.4511 14.9464 19.1779 14.7582 18.8732 14.7045L15.7103 14.1758C15.6476 14.1669 15.5849 14.1669 15.5311 14.1669C15.0249 14.1669 14.5814 14.5342 14.4963 15.0494C14.4873 15.1032 14.4873 15.1659 14.4873 15.2197C14.4873 15.7259 14.8457 16.1694 15.3609 16.2635L17.2783 16.5816L15.6252 21.1243C15.2579 21.0571 14.8771 21.0168 14.4873 21.0168C10.9974 21.0168 8.16602 23.8526 8.16602 27.3426C8.16602 30.828 10.9974 33.6638 14.4873 33.6638ZM20.1993 19.964H27.7123L25.6694 25.4341L20.1993 19.964ZM29.4729 21.2677L30.3151 22.6206C29.2623 23.557 28.5231 24.8338 28.2812 26.2853H27.5958L29.4729 21.2677ZM14.4873 31.5538C12.1577 31.5538 10.2716 29.6677 10.2716 27.3426C10.2716 25.013 12.1577 23.1269 14.4873 23.1269C14.6262 23.1269 14.7516 23.1582 14.8771 23.1672L13.4972 26.9842C13.4569 27.0962 13.4345 27.2261 13.4345 27.3426C13.4345 27.7726 13.6988 28.1714 14.1199 28.3327C14.2454 28.373 14.3619 28.3954 14.4873 28.3954C14.9084 28.3954 15.3206 28.131 15.4774 27.6965L16.8707 23.875C17.9772 24.6322 18.703 25.8955 18.703 27.3426C18.703 29.6677 16.8079 31.5538 14.4873 31.5538ZM34.5129 31.5538C32.5507 31.5538 30.9199 30.2053 30.4451 28.3954H34.5129C34.8892 28.3954 35.2387 28.1848 35.4268 27.8443C35.5119 27.6875 35.5657 27.5173 35.5657 27.3426C35.5657 27.1499 35.5119 26.9483 35.3955 26.7826L33.2451 23.3375C33.6483 23.2075 34.0694 23.1269 34.5129 23.1269C36.8291 23.1269 38.7286 25.013 38.7286 27.3426C38.7286 29.6677 36.8291 31.5538 34.5129 31.5538ZM30.4451 26.2853C30.6243 25.5909 30.9692 24.9592 31.4531 24.444L32.6044 26.2853H30.4451Z" fill="#599A57"/>
<path d="M39.7529 8.20898L8.20758 39.7543" stroke="#599A57" stroke-width="2.2848"/>
<path d="M41.2041 9.66016L9.65876 41.2055" stroke="#ffffff" stroke-width="2.2848"/>
<path d="M23.9816 46.8207C36.5749 46.8207 46.8207 36.5749 46.8207 23.9816C46.8207 11.3883 36.5749 1.14258 23.9816 1.14258C11.3883 1.14258 1.14258 11.3883 1.14258 23.9816C1.14258 36.5749 11.3883 46.8207 23.9816 46.8207Z" stroke="#599A57" stroke-width="2.2848"/>
</svg>
