<svg width="48" height="48" viewBox="0 0 48 48" fill="none" xmlns="http://www.w3.org/2000/svg">
<path d="M34.8088 27.7505C35.3554 27.7505 35.7944 27.307 35.7944 26.7649C35.7944 26.2183 35.3554 25.7793 34.8088 25.7793C34.2623 25.7793 33.8232 26.2183 33.8232 26.7649C33.8232 27.307 34.2623 27.7505 34.8088 27.7505Z" fill="#599A57"/>
<path d="M34.8088 30.1138C35.3554 30.1138 35.7944 29.6703 35.7944 29.1282C35.7944 28.5816 35.3554 28.1426 34.8088 28.1426C34.2623 28.1426 33.8232 28.5816 33.8232 29.1282C33.8232 29.6703 34.2623 30.1138 34.8088 30.1138Z" fill="#599A57"/>
<path d="M34.8088 32.4775C35.3554 32.4775 35.7944 32.034 35.7944 31.4919C35.7944 30.9454 35.3554 30.5063 34.8088 30.5063C34.2623 30.5063 33.8232 30.9454 33.8232 31.4919C33.8232 32.034 34.2623 32.4775 34.8088 32.4775Z" fill="#599A57"/>
<path d="M20.0537 34.0774C20.0537 34.624 20.4972 35.063 21.0393 35.063C21.5859 35.063 22.0249 34.624 22.0249 34.0774C22.0249 33.5308 21.5859 33.0918 21.0393 33.0918C20.4972 33.0918 20.0537 33.5308 20.0537 34.0774Z" fill="#599A57"/>
<path d="M17.6895 34.0774C17.6895 34.624 18.133 35.063 18.6751 35.063C19.2216 35.063 19.6607 34.624 19.6607 34.0774C19.6607 33.5308 19.2216 33.0918 18.6751 33.0918C18.133 33.0918 17.6895 33.5308 17.6895 34.0774Z" fill="#599A57"/>
<path d="M15.3252 34.0774C15.3252 34.624 15.7687 35.063 16.3108 35.063C16.8574 35.063 17.2964 34.624 17.2964 34.0774C17.2964 33.5308 16.8574 33.0918 16.3108 33.0918C15.7687 33.0918 15.3252 33.5308 15.3252 34.0774Z" fill="#599A57"/>
<path d="M16.9446 15.9825C15.6947 15.9825 14.6777 14.9655 14.6777 13.7156C14.6777 12.4657 15.6947 11.4487 16.9446 11.4487C18.1945 11.4487 19.2115 12.4657 19.2115 13.7156C19.2115 14.9655 18.1945 15.9825 16.9446 15.9825ZM21.0214 31.8238H18.3021V28.2174C18.3021 27.8097 18.4857 27.4289 18.8038 27.1691L21.8681 24.6379L19.7088 21.4033C19.655 21.3227 19.5744 21.2868 19.4803 21.2868C19.3459 21.2868 19.2115 21.3854 19.2115 21.5556V22.3262C19.2115 22.5726 19.1085 22.7966 18.9472 22.9713L16.2278 25.6906C16.0486 25.8609 15.8201 25.9505 15.5872 25.9505C15.3318 25.9505 15.0765 25.843 14.8973 25.6369C14.7584 25.4711 14.6867 25.274 14.6867 25.0635C14.6867 24.8126 14.7987 24.5572 14.9869 24.3646L17.3971 21.9543V19.2529C17.3971 18.0388 18.0064 16.9054 19.0099 16.2379L19.8342 15.6823C20.4345 15.2836 21.1334 15.0775 21.8502 15.0775H30.0397C30.4877 15.0775 30.9133 15.3822 30.9849 15.8302C30.9939 15.8839 30.9939 15.9287 30.9939 15.9825C30.9939 16.4798 30.5862 16.8875 30.0889 16.8875H23.6153C23.4541 16.8875 23.3421 17.0174 23.3421 17.1607C23.3421 17.2145 23.351 17.2593 23.3869 17.3131L30.295 26.8599H32.8083V29.5793H29.632C29.2153 29.5793 28.8166 29.3867 28.5657 29.0506L25.8733 25.5921C25.7657 25.4532 25.6 25.3815 25.4387 25.3815C25.3177 25.3815 25.1923 25.4174 25.0937 25.507L21.0214 28.8625V31.8238Z" fill="#599A57"/>
<path d="M39.7539 8.20898L8.20856 39.7543" stroke="#599A57" stroke-width="2.2848"/>
<path d="M41.2041 9.66016L9.65876 41.2055" stroke="#245745" stroke-width="2.2848"/>
<path d="M23.9816 46.8207C36.5749 46.8207 46.8207 36.5749 46.8207 23.9816C46.8207 11.3883 36.5749 1.14258 23.9816 1.14258C11.3883 1.14258 1.14258 11.3883 1.14258 23.9816C1.14258 36.5749 11.3883 46.8207 23.9816 46.8207Z" stroke="#599A57" stroke-width="2.2848"/>
</svg>
