<svg width="48" height="48" viewBox="0 0 48 48" fill="none" xmlns="http://www.w3.org/2000/svg">
<path d="M33.2419 24.4624H10.9834V28.0058H33.2419V24.4624Z" fill="#599A57"/>
<path d="M35.1905 24.4507H34.1677V27.994H35.1905V24.4507Z" fill="#599A57"/>
<path d="M36.8707 28.0179L36.1157 28.0058V24.4624L36.8707 24.4746V28.0179Z" fill="#599A57"/>
<path d="M36.3588 21.9783C36.3588 21.9783 36.2736 21.9783 36.2249 21.9662C35.9205 21.8931 35.7257 21.5887 35.7866 21.2721C35.7866 21.2721 35.9327 20.5659 35.6161 20.091C35.4456 19.8475 35.1777 19.6892 34.7759 19.6283C33.4365 19.4091 32.8764 18.6663 32.645 18.094C32.4259 17.5461 32.3893 16.8886 32.5233 16.0727C32.5842 15.6709 32.4015 15.1838 32.0362 14.782C31.6587 14.3802 30.9038 13.8444 29.4305 13.6009C29.1139 13.5522 28.9069 13.2478 28.9556 12.9312C29.0043 12.6146 29.3209 12.4076 29.6253 12.4563C31.0499 12.6877 32.1823 13.2234 32.8886 14.0027C33.5096 14.6724 33.8018 15.5004 33.6679 16.2676C33.5704 16.8764 33.5826 17.3269 33.7166 17.6679C33.8261 17.9479 34.0819 18.3497 34.9586 18.4837C35.6891 18.6054 36.2249 18.9342 36.578 19.4578C37.1747 20.3467 36.9433 21.4182 36.919 21.54C36.8581 21.8079 36.6146 21.9905 36.3588 21.9905V21.9783Z" fill="#599A57"/>
<path d="M33.9971 22.7084C33.7292 22.7084 33.4857 22.5258 33.437 22.2579C33.4248 22.2092 33.0717 20.9063 30.9286 20.6628C29.9545 20.5532 29.2118 20.1757 28.7247 19.5303C27.9698 18.5562 28.1159 17.3507 28.1281 17.302C28.1646 16.9855 28.469 16.7663 28.7856 16.8028C29.1022 16.8393 29.3214 17.1316 29.2848 17.4482C29.2848 17.4725 29.1996 18.2518 29.6501 18.8241C29.9424 19.2016 30.4172 19.4329 31.0748 19.506C34.0702 19.8591 34.5572 21.9169 34.5816 22.0144C34.6546 22.3309 34.4476 22.6354 34.1432 22.7084C34.1067 22.7084 34.058 22.7206 34.0215 22.7206L33.9971 22.7084Z" fill="#599A57"/>
<path d="M39.7512 8.20898L8.20588 39.7543" stroke="#599A57" stroke-width="2.2848"/>
<path d="M41.2043 9.66016L9.659 41.2055" stroke="#ffffff" stroke-width="2.2848"/>
<path d="M23.9814 46.8207C36.5747 46.8207 46.8204 36.5749 46.8204 23.9816C46.8204 11.3883 36.5747 1.14258 23.9814 1.14258C11.3881 1.14258 1.14233 11.3883 1.14233 23.9816C1.14233 36.5749 11.3881 46.8207 23.9814 46.8207Z" stroke="#599A57" stroke-width="2.2848"/>
</svg>
