<svg width="40" height="40" viewBox="0 0 40 40" fill="none" xmlns="http://www.w3.org/2000/svg">
<path d="M32.5 6.25H25C24.0293 6.25001 23.072 6.47633 22.2041 6.91097C21.3361 7.34562 20.5815 7.97662 20 8.75389C19.4185 7.97662 18.6639 7.34562 17.7959 6.91097C16.928 6.47633 15.9707 6.25001 15 6.25H7.5C6.50578 6.25111 5.5526 6.64655 4.84957 7.34957C4.14655 8.0526 3.75111 9.00578 3.75 10V28.75C3.75 29.7446 4.14509 30.6984 4.84835 31.4017C5.55161 32.1049 6.50544 32.5 7.5 32.5H15C15.309 32.5005 15.611 32.5924 15.8678 32.7642C16.1246 32.9361 16.3248 33.1801 16.4432 33.4656C16.6333 33.9196 16.9532 34.3073 17.3627 34.5803C17.7723 34.8533 18.2533 34.9993 18.7455 35H21.2544C21.7468 34.9992 22.228 34.8531 22.6377 34.5799C23.0475 34.3067 23.3674 33.9186 23.5574 33.4643C23.6755 33.1791 23.8754 32.9354 24.132 32.7638C24.3885 32.5922 24.6901 32.5004 24.9987 32.5H32.5C33.4945 32.5 34.4483 32.1049 35.1516 31.4017C35.8549 30.6984 36.25 29.7446 36.25 28.75V10C36.2488 9.00579 35.8534 8.05261 35.1504 7.34959C34.4474 6.64658 33.4942 6.25112 32.5 6.25ZM18.75 30.0006H18.5205C18.2644 29.2709 17.7882 28.6386 17.1577 28.1907C16.5272 27.7429 15.7734 27.5016 15 27.5H7.5C7.16848 27.5 6.85054 27.3683 6.61612 27.1339C6.3817 26.8995 6.25 26.5815 6.25 26.25V10C6.25 9.66848 6.3817 9.35054 6.61612 9.11612C6.85054 8.8817 7.16848 8.75 7.5 8.75H15C15.9946 8.75 16.9484 9.14509 17.6517 9.84835C18.3549 10.5516 18.75 11.5054 18.75 12.5V30.0006ZM33.75 26.25C33.75 26.5815 33.6183 26.8995 33.3839 27.1339C33.1495 27.3683 32.8315 27.5 32.5 27.5H25C24.2266 27.5016 23.4728 27.7429 22.8423 28.1907C22.2118 28.6386 21.7356 29.2709 21.4795 30.0006H21.25V12.5C21.25 11.5054 21.6451 10.5516 22.3484 9.84835C23.0516 9.14509 24.0054 8.75 25 8.75H32.5C32.8315 8.75 33.1495 8.8817 33.3839 9.11612C33.6183 9.35054 33.75 9.66848 33.75 10V26.25ZM16.25 21.875V23.125C16.25 23.2908 16.1842 23.4497 16.0669 23.5669C15.9497 23.6842 15.7908 23.75 15.625 23.75H9.375C9.20924 23.75 9.05027 23.6842 8.93306 23.5669C8.81585 23.4497 8.75 23.2908 8.75 23.125V21.875C8.75 21.7092 8.81585 21.5503 8.93306 21.4331C9.05027 21.3158 9.20924 21.25 9.375 21.25H15.625C15.7908 21.25 15.9497 21.3158 16.0669 21.4331C16.1842 21.5503 16.25 21.7092 16.25 21.875ZM16.25 16.875V18.125C16.25 18.2908 16.1842 18.4497 16.0669 18.5669C15.9497 18.6842 15.7908 18.75 15.625 18.75H9.375C9.20924 18.75 9.05027 18.6842 8.93306 18.5669C8.81585 18.4497 8.75 18.2908 8.75 18.125V16.875C8.75 16.7092 8.81585 16.5503 8.93306 16.4331C9.05027 16.3158 9.20924 16.25 9.375 16.25H15.625C15.7908 16.25 15.9497 16.3158 16.0669 16.4331C16.1842 16.5503 16.25 16.7092 16.25 16.875ZM16.25 11.875V13.125C16.25 13.2908 16.1842 13.4497 16.0669 13.5669C15.9497 13.6842 15.7908 13.75 15.625 13.75H9.375C9.20924 13.75 9.05027 13.6842 8.93306 13.5669C8.81585 13.4497 8.75 13.2908 8.75 13.125V11.875C8.75 11.7092 8.81585 11.5503 8.93306 11.4331C9.05027 11.3158 9.20924 11.25 9.375 11.25H15.625C15.7908 11.25 15.9497 11.3158 16.0669 11.4331C16.1842 11.5503 16.25 11.7092 16.25 11.875ZM31.25 11.875V13.125C31.25 13.2908 31.1842 13.4497 31.0669 13.5669C30.9497 13.6842 30.7908 13.75 30.625 13.75H24.375C24.2092 13.75 24.0503 13.6842 23.9331 13.5669C23.8158 13.4497 23.75 13.2908 23.75 13.125V11.875C23.75 11.7092 23.8158 11.5503 23.9331 11.4331C24.0503 11.3158 24.2092 11.25 24.375 11.25H30.625C30.7908 11.25 30.9497 11.3158 31.0669 11.4331C31.1842 11.5503 31.25 11.7092 31.25 11.875ZM28.75 21.875V23.125C28.75 23.2908 28.6842 23.4497 28.5669 23.5669C28.4497 23.6842 28.2908 23.75 28.125 23.75H24.375C24.2092 23.75 24.0503 23.6842 23.9331 23.5669C23.8158 23.4497 23.75 23.2908 23.75 23.125V21.875C23.75 21.7092 23.8158 21.5503 23.9331 21.4331C24.0503 21.3158 24.2092 21.25 24.375 21.25H28.125C28.2908 21.25 28.4497 21.3158 28.5669 21.4331C28.6842 21.5503 28.75 21.7092 28.75 21.875ZM31.25 16.875V18.125C31.25 18.2908 31.1842 18.4497 31.0669 18.5669C30.9497 18.6842 30.7908 18.75 30.625 18.75H24.375C24.2092 18.75 24.0503 18.6842 23.9331 18.5669C23.8158 18.4497 23.75 18.2908 23.75 18.125V16.875C23.75 16.7092 23.8158 16.5503 23.9331 16.4331C24.0503 16.3158 24.2092 16.25 24.375 16.25H30.625C30.7908 16.25 30.9497 16.3158 31.0669 16.4331C31.1842 16.5503 31.25 16.7092 31.25 16.875Z" fill="#FF9951"/>
</svg>
