<svg width="24" height="24" viewBox="0 0 24 24" fill="none" xmlns="http://www.w3.org/2000/svg">
<path d="M20.4054 18.2841L15.4581 13.3369C16.3458 11.9275 16.683 10.2404 16.4054 8.59809C16.1277 6.95575 15.2546 5.47331 13.9529 4.43408C12.6512 3.39485 11.0123 2.87172 9.34921 2.96466C7.68616 3.0576 6.11567 3.76009 4.93788 4.93788C3.76009 6.11567 3.0576 7.68616 2.96466 9.34921C2.87172 11.0123 3.39485 12.6512 4.43408 13.9529C5.47331 15.2546 6.95575 16.1277 8.59809 16.4054C10.2404 16.683 11.9275 16.3458 13.3369 15.4581L18.2842 20.4054C18.3538 20.475 18.4365 20.5303 18.5275 20.5679C18.6185 20.6056 18.716 20.625 18.8145 20.625C18.913 20.625 19.0106 20.6056 19.1016 20.5679C19.1926 20.5303 19.2752 20.475 19.3449 20.4054L20.4054 19.3447C20.546 19.2041 20.625 19.0133 20.625 18.8144C20.625 18.6155 20.546 18.4247 20.4054 18.2841ZM9.7501 14.2501C8.86009 14.2501 7.99006 13.9862 7.25004 13.4917C6.51002 12.9973 5.93324 12.2944 5.59265 11.4722C5.25205 10.6499 5.16294 9.74511 5.33657 8.8722C5.5102 7.99928 5.93879 7.19746 6.56812 6.56812C7.19746 5.93879 7.99928 5.5102 8.8722 5.33657C9.74511 5.16294 10.6499 5.25205 11.4722 5.59265C12.2944 5.93324 12.9973 6.51002 13.4917 7.25004C13.9862 7.99006 14.2501 8.86009 14.2501 9.7501C14.2488 10.9432 13.7743 12.087 12.9306 12.9306C12.087 13.7743 10.9432 14.2488 9.7501 14.2501Z" fill="#1F2023"/>
</svg>
