<svg width="40" height="40" viewBox="0 0 40 40" fill="none" xmlns="http://www.w3.org/2000/svg">
<path d="M28.2202 11.25C27.8245 10.3664 27.229 9.58682 26.4808 8.9725C26.8009 8.82678 27.1483 8.75093 27.5 8.75H30C30.6628 8.75086 31.2982 9.01453 31.7668 9.48318C32.2355 9.95184 32.4991 10.5872 32.5 11.25V12.5H30.0004L30 11.25H28.2202ZM12.5 6.25H17.5L17.5004 7.5H20V6.25C19.9991 5.58722 19.7355 4.95184 19.2668 4.48318C18.7982 4.01453 18.1628 3.75086 17.5 3.75H12.5C11.8372 3.75086 11.2018 4.01453 10.7332 4.48318C10.2645 4.95184 10.0009 5.58722 10 6.25V7.5H12.5V6.25ZM35 15H28.75V17.5H30.625C30.7908 17.5 30.9497 17.5658 31.0669 17.6831C31.1842 17.8003 31.25 17.9592 31.25 18.125V19.375C31.25 19.5408 31.1842 19.6997 31.0669 19.8169C30.9497 19.9342 30.7908 20 30.625 20H28.75V28.75C28.7452 30.1067 28.2948 31.4243 27.468 32.5H31.25V33.75C31.25 34.0815 31.3817 34.3995 31.6161 34.6339C31.8505 34.8683 32.1685 35 32.5 35H33.75C34.0815 35 34.3995 34.8683 34.6339 34.6339C34.8683 34.3995 35 34.0815 35 33.75V32.5C35.6624 32.4981 36.2972 32.234 36.7656 31.7656C37.234 31.2972 37.4981 30.6624 37.5 30V17.5C37.4981 16.8376 37.2341 16.2028 36.7656 15.7344C36.2972 15.2659 35.6624 15.0019 35 15ZM26.25 13.75V28.75C26.2462 29.5225 26.004 30.2749 25.5566 30.9047C25.1091 31.5344 24.4782 32.0106 23.75 32.2684V33.75C23.75 34.0815 23.6183 34.3995 23.3839 34.6339C23.1495 34.8683 22.8315 35 22.5 35H21.25C20.9185 35 20.6005 34.8683 20.3661 34.6339C20.1317 34.3995 20 34.0815 20 33.75V32.5H11.25V33.75C11.25 34.0815 11.1183 34.3995 10.8839 34.6339C10.6495 34.8683 10.3315 35 10 35H8.75C8.41848 35 8.10054 34.8683 7.86612 34.6339C7.6317 34.3995 7.5 34.0815 7.5 33.75V32.5C6.50634 32.4971 5.55421 32.101 4.85158 31.3984C4.14895 30.6958 3.75292 29.7437 3.75 28.75V13.75C3.7529 12.7563 4.14892 11.8042 4.85155 11.1016C5.55419 10.3989 6.50633 10.0029 7.5 10H22.5C23.4937 10.0029 24.4458 10.3989 25.1484 11.1016C25.8511 11.8042 26.2471 12.7563 26.25 13.75ZM17.5 14.375C17.5 14.2092 17.4342 14.0503 17.3169 13.9331C17.1997 13.8158 17.0408 13.75 16.875 13.75H13.125C12.9592 13.75 12.8003 13.8158 12.6831 13.9331C12.5658 14.0503 12.5 14.2092 12.5 14.375V15.625C12.5 15.7908 12.5658 15.9497 12.6831 16.0669C12.8003 16.1842 12.9592 16.25 13.125 16.25H16.875C17.0408 16.25 17.1997 16.1842 17.3169 16.0669C17.4342 15.9497 17.5 15.7908 17.5 15.625V14.375Z" fill="#1F824A"/>
</svg>
