<svg width="40" height="40" viewBox="0 0 40 40" fill="none" xmlns="http://www.w3.org/2000/svg">
<path d="M16.2499 8.125C16.2499 7.50694 16.4331 6.90275 16.7765 6.38884C17.1199 5.87494 17.608 5.4744 18.179 5.23788C18.75 5.00135 19.3783 4.93947 19.9845 5.06005C20.5907 5.18063 21.1475 5.47825 21.5846 5.91529C22.0216 6.35233 22.3192 6.90915 22.4398 7.51534C22.5604 8.12154 22.4985 8.74987 22.262 9.32089C22.0255 9.89191 21.6249 10.38 21.111 10.7233C20.5971 11.0667 19.9929 11.25 19.3749 11.25C18.5461 11.25 17.7512 10.9208 17.1652 10.3347C16.5791 9.74866 16.2499 8.9538 16.2499 8.125ZM16.6389 16.7685L17.7496 18.2494C17.9134 18.4678 18.1443 18.6267 18.4069 18.7018L23.6742 20.2069C23.9929 20.2979 24.3347 20.2585 24.6244 20.0975C24.9141 19.9364 25.128 19.6669 25.219 19.3482C25.31 19.0294 25.2706 18.6876 25.1095 18.3979C24.9485 18.1082 24.6789 17.8943 24.3602 17.8034L19.4982 16.4136L15.6896 11.3159C15.4337 10.9607 15.1015 10.6673 14.7175 10.4572C14.3334 10.2471 13.9072 10.1256 13.4701 10.1016C13.033 10.0776 12.5961 10.1517 12.1914 10.3186C11.7866 10.4854 11.4244 10.7407 11.1311 11.0657L6.0985 16.0985C5.65304 16.5448 5.32769 17.0965 5.15271 17.7023C4.97772 18.3081 4.95879 18.9484 5.09768 19.5635C5.1069 19.6114 7.49987 28.3777 7.49987 28.3777V35.625C7.49987 36.1223 7.69741 36.5992 8.04904 36.9508C8.40067 37.3025 8.87759 37.5 9.37487 37.5C9.87215 37.5 10.3491 37.3025 10.7007 36.9508C11.0523 36.5992 11.2499 36.1223 11.2499 35.625V28.1265L11.1827 27.6288L9.88413 22.9022L16.0741 16.7279C16.1122 16.69 16.1579 16.6607 16.2082 16.642C16.2585 16.6233 16.3122 16.6156 16.3658 16.6195C16.4193 16.6233 16.4714 16.6386 16.5185 16.6643C16.5656 16.69 16.6067 16.7256 16.6389 16.7685ZM34.9999 30H17.4999C17.1683 30 16.8504 30.1317 16.616 30.3661C16.3816 30.6005 16.2499 30.9185 16.2499 31.25C16.2499 31.5815 16.3816 31.8995 16.616 32.1339C16.8504 32.3683 17.1683 32.5 17.4999 32.5H34.9999C35.3314 32.5 35.6493 32.3683 35.8838 32.1339C36.1182 31.8995 36.2499 31.5815 36.2499 31.25C36.2499 30.9185 36.1182 30.6005 35.8838 30.3661C35.6493 30.1317 35.3314 30 34.9999 30ZM31.2499 28.75C31.7443 28.75 32.2277 28.6034 32.6388 28.3287C33.0499 28.054 33.3703 27.6635 33.5596 27.2067C33.7488 26.7499 33.7983 26.2472 33.7018 25.7623C33.6054 25.2773 33.3673 24.8319 33.0176 24.4822C32.668 24.1326 32.2225 23.8945 31.7376 23.798C31.2526 23.7016 30.75 23.7511 30.2932 23.9403C29.8363 24.1295 29.4459 24.45 29.1712 24.8611C28.8965 25.2722 28.7499 25.7555 28.7499 26.25C28.7499 26.913 29.0133 27.5489 29.4821 28.0177C29.951 28.4866 30.5868 28.75 31.2499 28.75ZM24.9999 23.75H22.3718L22.4523 23.4686C22.4983 23.3073 22.5114 23.1384 22.4908 22.972C22.4702 22.8055 22.4164 22.6449 22.3324 22.4997C22.2485 22.3545 22.1362 22.2276 22.0022 22.1267C21.8683 22.0258 21.7153 21.9528 21.5526 21.9122L19.0526 21.2872C18.7317 21.2092 18.393 21.2613 18.1105 21.4321C17.8279 21.603 17.6244 21.8787 17.5444 22.1991C17.4644 22.5195 17.5145 22.8585 17.6836 23.1421C17.8528 23.4257 18.1272 23.6309 18.4471 23.7128L19.6935 24.024L19.2528 25.5628C19.1463 25.9349 19.1277 26.3268 19.1985 26.7073C19.2693 27.0879 19.4275 27.4469 19.6606 27.7559C19.8938 28.0649 20.1955 28.3155 20.5421 28.4881C20.8886 28.6606 21.2705 28.7502 21.6576 28.75H24.9999C25.6629 28.75 26.2988 28.4866 26.7676 28.0177C27.2365 27.5489 27.4998 26.913 27.4999 26.25V22.5C27.4999 22.1685 27.3682 21.8505 27.1338 21.6161C26.8993 21.3817 26.5814 21.25 26.2499 21.25C25.9183 21.25 25.6004 21.3817 25.366 21.6161C25.1316 21.8505 24.9999 22.1685 24.9999 22.5V23.75Z" fill="#1F824A"/>
</svg>
