<svg width="40" height="40" viewBox="0 0 40 40" fill="none" xmlns="http://www.w3.org/2000/svg">
<path d="M17.5 13.75V23.75C17.5 24.0317 17.4049 24.3052 17.2301 24.5261C17.0553 24.747 16.811 24.9024 16.5368 24.967C16.4593 24.9796 16.3885 25.0184 16.3363 25.077C16.284 25.1356 16.2536 25.2103 16.25 25.2888V35.625C16.25 36.1223 16.0525 36.5992 15.7008 36.9508C15.3492 37.3025 14.8723 37.5 14.375 37.5C13.8777 37.5 13.4008 37.3025 13.0492 36.9508C12.6975 36.5992 12.5 36.1223 12.5 35.625V26.25C12.5 25.9185 12.3683 25.6005 12.1339 25.3661C11.8995 25.1317 11.5815 25 11.25 25C10.9185 25 10.6005 25.1317 10.3661 25.3661C10.1317 25.6005 10 25.9185 10 26.25V35.625C10 36.1223 9.80246 36.5992 9.45083 36.9508C9.09919 37.3025 8.62228 37.5 8.125 37.5C7.62772 37.5 7.15081 37.3025 6.79917 36.9508C6.44754 36.5992 6.25 36.1223 6.25 35.625V25.2888C6.24643 25.2104 6.21596 25.1356 6.16373 25.077C6.1115 25.0184 6.04069 24.9796 5.96321 24.9671C5.68902 24.9024 5.44471 24.747 5.26988 24.5261C5.09505 24.3052 4.99995 24.0317 5 23.75V13.75C5 12.7554 5.39509 11.8016 6.09835 11.0984C6.80161 10.3951 7.75544 10 8.75 10H13.75C14.7446 10 15.6984 10.3951 16.4016 11.0984C17.1049 11.8016 17.5 12.7554 17.5 13.75ZM11.25 8.75C11.8681 8.75 12.4723 8.56672 12.9862 8.22334C13.5001 7.87996 13.9006 7.39191 14.1371 6.82089C14.3736 6.24987 14.4355 5.62153 14.315 5.01534C14.1944 4.40915 13.8967 3.85233 13.4597 3.41529C13.0227 2.97825 12.4658 2.68063 11.8597 2.56005C11.2535 2.43947 10.6251 2.50135 10.0541 2.73788C9.48309 2.9744 8.99504 3.37494 8.65166 3.88884C8.30828 4.40275 8.125 5.00693 8.125 5.625C8.125 6.4538 8.45424 7.24866 9.04029 7.83471C9.62634 8.42076 10.4212 8.75 11.25 8.75ZM26.1322 36.3809C26.1645 36.6881 26.3094 36.9724 26.539 37.179C26.7685 37.3857 27.0665 37.5 27.3753 37.5H28.8747C29.1835 37.5 29.4815 37.3857 29.711 37.179C29.9406 36.9724 30.0855 36.6881 30.1178 36.3809L30.6579 31.25H25.5921L26.1322 36.3809ZM28.125 8.75C28.7431 8.75 29.3473 8.56672 29.8612 8.22334C30.3751 7.87996 30.7756 7.39191 31.0121 6.82089C31.2486 6.24987 31.3105 5.62153 31.19 5.01534C31.0694 4.40915 30.7717 3.85233 30.3347 3.41529C29.8977 2.97825 29.3408 2.68063 28.7347 2.56005C28.1285 2.43947 27.5001 2.50135 26.9291 2.73788C26.3581 2.9744 25.87 3.37494 25.5267 3.88884C25.1833 4.40275 25 5.00693 25 5.625C25 6.4538 25.3292 7.24866 25.9153 7.83471C26.5013 8.42076 27.2962 8.75 28.125 8.75ZM34.5477 27.8455L32.1442 23.0385C32.1152 22.982 32.1011 22.9189 32.1036 22.8554C32.106 22.7919 32.1247 22.7301 32.158 22.6759C32.1912 22.6218 32.2379 22.5771 32.2934 22.5462C32.349 22.5154 32.4116 22.4994 32.4751 22.4997C32.5867 22.502 32.6979 22.4882 32.8056 22.4588C33.0835 22.3745 33.3262 22.2016 33.4967 21.9665C33.6673 21.7314 33.7562 21.447 33.75 21.1566V15C33.75 14.3434 33.6207 13.6932 33.3694 13.0866C33.1182 12.4799 32.7499 11.9287 32.2856 11.4644C31.8213 11.0001 31.2701 10.6318 30.6634 10.3806C30.0568 10.1293 29.4066 9.99999 28.75 10H27.5C26.8434 9.99999 26.1932 10.1293 25.5866 10.3806C24.9799 10.6318 24.4287 11.0001 23.9644 11.4644C23.5001 11.9287 23.1318 12.4799 22.8806 13.0866C22.6293 13.6932 22.5 14.3434 22.5 15V21.1559C22.4938 21.4463 22.5827 21.7308 22.7532 21.9661C22.9237 22.2013 23.1665 22.3743 23.4444 22.4588C23.5521 22.4881 23.6634 22.5019 23.775 22.4997C23.8386 22.4993 23.9011 22.5154 23.9567 22.5462C24.0122 22.5771 24.0589 22.6218 24.0921 22.6759C24.1254 22.7301 24.1441 22.7919 24.1465 22.8554C24.1489 22.9189 24.1349 22.9819 24.1058 23.0385L21.7023 27.8454C21.6546 27.9407 21.6321 28.0466 21.6369 28.153C21.6417 28.2595 21.6736 28.3629 21.7296 28.4535C21.7856 28.5442 21.8638 28.619 21.9569 28.6709C22.0499 28.7228 22.1547 28.75 22.2612 28.75H33.9887C34.0953 28.75 34.2 28.7228 34.2931 28.6709C34.3861 28.619 34.4644 28.5442 34.5204 28.4536C34.5764 28.3629 34.6083 28.2595 34.6131 28.1531C34.6179 28.0466 34.5954 27.9407 34.5477 27.8455Z" fill="#1F824A"/>
</svg>
