<svg width="40" height="40" viewBox="0 0 40 40" fill="none" xmlns="http://www.w3.org/2000/svg">
<path d="M30.625 5H9.375C8.21511 5.0014 7.10313 5.46279 6.28296 6.28296C5.46279 7.10313 5.0014 8.21511 5 9.375V30.625C5.0014 31.7849 5.46279 32.8969 6.28296 33.717C7.10313 34.5372 8.21511 34.9986 9.375 35H30.625C31.7849 34.9986 32.8969 34.5372 33.717 33.717C34.5372 32.8969 34.9986 31.7849 35 30.625V9.375C34.9986 8.21511 34.5372 7.10313 33.717 6.28296C32.8969 5.46279 31.7849 5.0014 30.625 5ZM23.0316 18.6444L20.75 26.25H22.3245C22.4195 26.25 22.5132 26.2717 22.5986 26.3133C22.6839 26.355 22.7587 26.4155 22.8171 26.4904C22.8756 26.5653 22.9162 26.6525 22.9359 26.7454C22.9556 26.8383 22.9538 26.9345 22.9308 27.0267L22.6183 28.2767C22.5845 28.4119 22.5064 28.5319 22.3966 28.6176C22.2867 28.7034 22.1514 28.75 22.012 28.75H17.5C17.2025 28.7743 16.9037 28.7224 16.6318 28.5994C16.3598 28.4763 16.1236 28.2861 15.9455 28.0467C15.7673 27.8072 15.6529 27.5263 15.6132 27.2305C15.5735 26.9347 15.6097 26.6336 15.7184 26.3556L18 18.75H17.0505C16.9555 18.75 16.8618 18.7283 16.7764 18.6867C16.6911 18.645 16.6163 18.5845 16.5579 18.5096C16.4994 18.4347 16.4588 18.3475 16.4391 18.2546C16.4194 18.1617 16.4212 18.0655 16.4442 17.9733L16.7567 16.7233C16.7905 16.5881 16.8686 16.4681 16.9784 16.3824C17.0883 16.2966 17.2236 16.25 17.363 16.25H21.25C21.5475 16.2257 21.8463 16.2776 22.1182 16.4006C22.3902 16.5237 22.6264 16.7139 22.8045 16.9533C22.9827 17.1928 23.0971 17.4737 23.1368 17.7695C23.1765 18.0653 23.1403 18.3664 23.0316 18.6444ZM23.212 14.4778C23.1877 14.6238 23.1124 14.7563 22.9995 14.8519C22.8866 14.9475 22.7435 15 22.5955 15H19.4878C19.397 15 19.3073 14.9802 19.2249 14.942C19.1426 14.9039 19.0695 14.8482 19.0109 14.7789C18.9522 14.7097 18.9093 14.6284 18.8852 14.5409C18.8611 14.4534 18.8564 14.3617 18.8713 14.2722L19.2879 11.7722C19.3123 11.6262 19.3876 11.4937 19.5005 11.3981C19.6134 11.3025 19.7565 11.25 19.9045 11.25H23.0122C23.103 11.25 23.1927 11.2698 23.2751 11.308C23.3574 11.3461 23.4305 11.4018 23.4891 11.4711C23.5478 11.5403 23.5907 11.6216 23.6148 11.7091C23.6389 11.7966 23.6436 11.8883 23.6287 11.9778L23.212 14.4778Z" fill="#1F824A"/>
</svg>
