<svg width="40" height="40" viewBox="0 0 40 40" fill="none" xmlns="http://www.w3.org/2000/svg">
<path d="M23.75 31.8752V33.7502C23.749 34.0814 23.617 34.3988 23.3828 34.633C23.1486 34.8672 22.8312 34.9992 22.5 35.0002H6.25C5.91879 34.9992 5.60144 34.8672 5.36724 34.633C5.13304 34.3988 5.00102 34.0814 5 33.7502V31.8752C5 31.7095 5.06585 31.5505 5.18306 31.4333C5.30027 31.3161 5.45924 31.2502 5.625 31.2502H23.125C23.2908 31.2502 23.4497 31.3161 23.5669 31.4333C23.6842 31.5505 23.75 31.7095 23.75 31.8752ZM24.375 26.2502H4.375C4.20924 26.2502 4.05027 26.3161 3.93306 26.4333C3.81585 26.5505 3.75 26.7095 3.75 26.8752V28.1252C3.75 28.291 3.81585 28.45 3.93306 28.5672C4.05027 28.6844 4.20924 28.7502 4.375 28.7502H24.375C24.5408 28.7502 24.6997 28.6844 24.8169 28.5672C24.9342 28.45 25 28.291 25 28.1252V26.8752C25 26.7095 24.9342 26.5505 24.8169 26.4333C24.6997 26.3161 24.5408 26.2502 24.375 26.2502ZM5.625 23.7502H23.125C23.2908 23.7502 23.4497 23.6844 23.5669 23.5672C23.6842 23.45 23.75 23.291 23.75 23.1252V21.8752C23.6581 20.6355 23.0822 19.4817 22.1466 18.663C21.2111 17.8444 19.991 17.4267 18.75 17.5002H10C8.75902 17.4267 7.53895 17.8444 6.60338 18.663C5.66782 19.4817 5.09188 20.6355 5 21.8752V23.1252C5 23.291 5.06585 23.45 5.18306 23.5672C5.30027 23.6844 5.45924 23.7502 5.625 23.7502ZM36.25 7.50024H31.3275L31.8677 2.63818L29.3824 2.3623L28.8114 7.50024H20C19.8358 7.5002 19.6733 7.5325 19.5216 7.59531C19.3699 7.65811 19.2321 7.75018 19.116 7.86626C18.9999 7.98235 18.9079 8.12016 18.8451 8.27184C18.7823 8.42351 18.75 8.58608 18.75 8.75024V10.0002C18.75 10.1644 18.7823 10.327 18.8451 10.4786C18.9079 10.6303 18.9999 10.7681 19.116 10.8842C19.2321 11.0003 19.3699 11.0924 19.5216 11.1552C19.6733 11.218 19.8358 11.2503 20 11.2502H36.25C36.4142 11.2503 36.5767 11.218 36.7284 11.1552C36.8801 11.0924 37.0179 11.0003 37.134 10.8842C37.2501 10.7681 37.3421 10.6303 37.4049 10.4786C37.4677 10.327 37.5 10.1644 37.5 10.0002V8.75024C37.5 8.58608 37.4677 8.42351 37.4049 8.27184C37.3421 8.12016 37.2501 7.98235 37.134 7.86626C37.0179 7.75018 36.8801 7.65811 36.7284 7.59531C36.5767 7.5325 36.4142 7.5002 36.25 7.50024ZM20.4286 15.1801C22.0196 15.4593 23.4662 16.2769 24.526 17.4958C25.5859 18.7148 26.1945 20.2609 26.25 21.8752V23.1252C26.2475 23.5902 26.1401 24.0485 25.9357 24.4662C26.4195 24.8106 26.8138 25.2657 27.0859 25.7935C27.358 26.3212 27.5 26.9064 27.5 27.5002C27.5 28.094 27.358 28.6792 27.0859 29.207C26.8138 29.7348 26.4195 30.1899 25.9357 30.5343C26.1401 30.9519 26.2475 31.4103 26.25 31.8752V33.7502C26.2458 34.1771 26.1679 34.5999 26.0197 35.0002H32.5C32.8076 35.0002 33.1045 34.8867 33.3337 34.6816C33.563 34.4764 33.7086 34.1939 33.7427 33.8882L35.9802 13.7502H20.2698L20.4286 15.1801Z" fill="#1F824A"/>
</svg>
