<svg width="40" height="40" viewBox="0 0 40 40" fill="none" xmlns="http://www.w3.org/2000/svg">
<path d="M6.25031 10.625C6.25031 10.0069 6.43359 9.40275 6.77697 8.88884C7.12035 8.37494 7.60841 7.9744 8.17943 7.73788C8.75045 7.50135 9.37878 7.43947 9.98497 7.56005C10.5912 7.68063 11.148 7.97825 11.585 8.41529C12.0221 8.85233 12.3197 9.40915 12.4403 10.0153C12.5608 10.6215 12.499 11.2499 12.2624 11.8209C12.0259 12.3919 11.6254 12.88 11.1115 13.2233C10.5976 13.5667 9.99338 13.75 9.37531 13.75C8.54651 13.75 7.75165 13.4208 7.1656 12.8347C6.57955 12.2487 6.25031 11.4538 6.25031 10.625ZM34.8904 26.322L26.1404 23.822C25.9731 23.7732 25.7996 23.7489 25.6253 23.75H19.6227L15.5257 15.6839C15.2254 15.0928 14.7027 14.6451 14.0724 14.4394C13.4421 14.2337 12.7559 14.2868 12.1648 14.587L11.0505 15.1527C10.7577 15.3014 10.4971 15.5063 10.2835 15.7557C10.07 16.005 9.9076 16.294 9.80573 16.6062C9.70385 16.9183 9.66445 17.2475 9.68979 17.5748C9.71512 17.9022 9.8047 18.2214 9.95339 18.5141C9.95339 18.5141 14.0072 26.3805 14.2456 26.8422C14.3977 27.0632 14.6052 27.2403 14.8474 27.3558C15.0896 27.4712 15.3579 27.521 15.6253 27.5H24.6219L29.0653 34.165C29.3427 34.5752 29.771 34.859 30.2569 34.9545C30.7427 35.05 31.2466 34.9495 31.6586 34.6748C32.0706 34.4001 32.3572 33.9737 32.4559 33.4885C32.5546 33.0033 32.4574 32.4987 32.1854 32.0849L30.015 28.8293L33.8602 29.9279C34.0971 29.996 34.3451 30.0167 34.59 29.9889C34.8349 29.961 35.072 29.8851 35.2875 29.7656C35.5031 29.6461 35.693 29.4852 35.8463 29.2922C35.9996 29.0992 36.1134 28.8779 36.1811 28.6409C36.2488 28.4039 36.2692 28.1559 36.2409 27.911C36.2127 27.6661 36.1365 27.4292 36.0166 27.2139C35.8967 26.9985 35.7356 26.8089 35.5423 26.6558C35.3491 26.5028 35.1276 26.3894 34.8904 26.322ZM23.5403 30.5566C23.4261 30.3854 23.2715 30.2451 23.0901 30.148C22.9087 30.0509 22.7061 30 22.5003 30H13.2364L7.34281 19.3927C7.18008 19.1061 6.91076 18.8954 6.59347 18.8064C6.27617 18.7174 5.93657 18.7573 5.64854 18.9174C5.3605 19.0775 5.14735 19.3449 5.05545 19.6614C4.96355 19.9779 5.00034 20.3178 5.15781 20.6073L11.4078 31.8573C11.516 32.0522 11.6743 32.2146 11.8665 32.3276C12.0586 32.4406 12.2774 32.5001 12.5003 32.5H21.8314L23.1241 34.4397C23.3089 34.7133 23.5945 34.9027 23.9185 34.9665C24.2425 35.0303 24.5785 34.9633 24.8533 34.7801C25.128 34.5969 25.3191 34.3125 25.3849 33.9889C25.4506 33.6653 25.3856 33.3288 25.2041 33.053L23.5403 30.5566Z" fill="#1F824A"/>
</svg>
