<svg width="40" height="40" viewBox="0 0 40 40" fill="none" xmlns="http://www.w3.org/2000/svg">
<path d="M24.7772 28.0321L26.3929 30.8021C25.6932 32.1736 24.686 33.3648 23.45 34.2828C22.214 35.2008 20.7826 35.8208 19.2674 36.0943C17.7523 36.3678 16.1944 36.2876 14.7155 35.8597C13.2365 35.4319 11.8764 34.668 10.7413 33.6278C9.60618 32.5876 8.72681 31.2992 8.17181 29.8631C7.6168 28.427 7.40117 26.882 7.54173 25.3488C7.6823 23.8156 8.17526 22.3357 8.98215 21.0244C9.78903 19.7132 10.888 18.6061 12.1933 17.7896L12.4054 20.7616C11.5483 21.5558 10.8889 22.5394 10.4797 23.6339C10.0706 24.7284 9.92308 25.9035 10.049 27.0651C10.175 28.2268 10.5709 29.3429 11.2051 30.3243C11.8394 31.3056 12.6943 32.1251 13.7017 32.7171C14.7091 33.3091 15.841 33.6573 17.007 33.7339C18.173 33.8104 19.3407 33.6132 20.4168 33.158C21.493 32.7028 22.4478 32.0021 23.2049 31.1121C23.962 30.2221 24.5004 29.1673 24.7772 28.0321ZM32.2449 28.4302L27.8699 20.9302C27.7046 20.6472 27.4681 20.4124 27.1839 20.2492C26.8997 20.086 26.5777 20.0001 26.25 20H21.1241L20.9455 17.5H25C25.3315 17.5 25.6495 17.3683 25.8839 17.1339C26.1183 16.8995 26.25 16.5815 26.25 16.25C26.25 15.9185 26.1183 15.6005 25.8839 15.3661C25.6495 15.1317 25.3315 15 25 15H20.7669L20.5725 12.2789C20.5491 11.9514 20.4615 11.6317 20.3145 11.3381C20.1676 11.0445 19.9643 10.7827 19.7161 10.5677C19.468 10.3527 19.18 10.1887 18.8685 10.085C18.5569 9.98128 18.2281 9.93996 17.9006 9.96338L16.6538 10.0525C15.9924 10.0998 15.3769 10.4078 14.9427 10.9089C14.5085 11.4099 14.2911 12.063 14.3383 12.7243L14.9602 21.4282C15.0052 22.0588 15.2875 22.6489 15.7502 23.0797C16.2129 23.5105 16.8216 23.75 17.4538 23.75H25.1734L29.0051 30.3198C29.129 30.5331 29.2936 30.7198 29.4897 30.8693C29.6857 31.0189 29.9094 31.1283 30.1478 31.1913C30.3862 31.2543 30.6346 31.2696 30.879 31.2365C31.1233 31.2033 31.3587 31.1223 31.5717 30.9981C31.7847 30.8739 31.9711 30.7088 32.1203 30.5125C32.2694 30.3161 32.3784 30.0923 32.4409 29.8538C32.5034 29.6152 32.5183 29.3667 32.4847 29.1224C32.451 28.8782 32.3696 28.6429 32.2449 28.4302ZM16.875 8.75C17.4931 8.75 18.0973 8.56672 18.6112 8.22334C19.1251 7.87996 19.5256 7.39191 19.7622 6.82089C19.9987 6.24987 20.0606 5.62153 19.94 5.01534C19.8194 4.40915 19.5218 3.85233 19.0847 3.41529C18.6477 2.97825 18.0909 2.68063 17.4847 2.56005C16.8785 2.43947 16.2502 2.50135 15.6791 2.73788C15.1081 2.9744 14.6201 3.37494 14.2767 3.88884C13.9333 4.40275 13.75 5.00693 13.75 5.625C13.75 6.4538 14.0793 7.24866 14.6653 7.83471C15.2514 8.42076 16.0462 8.75 16.875 8.75Z" fill="#1F824A"/>
</svg>
