<svg width="40" height="40" viewBox="0 0 40 40" fill="none" xmlns="http://www.w3.org/2000/svg">
<path d="M21.882 13.4562C19.1363 9.74745 22.488 5.56465 25.5711 2.81745C25.6473 2.74867 25.7395 2.70002 25.8393 2.67592C25.939 2.65181 26.0432 2.65302 26.1424 2.67943C26.2416 2.70584 26.3326 2.75661 26.4072 2.82714C26.4818 2.89766 26.5376 2.9857 26.5695 3.08326C27.4299 5.7949 29.4551 8.10126 29.4551 10.9138C29.5031 12.1974 29.0808 13.4543 28.2675 14.4486C28.1755 14.55 28.0528 14.6184 27.9181 14.6433C27.7835 14.6682 27.6444 14.6481 27.5223 14.5862C27.4002 14.5243 27.3017 14.424 27.2422 14.3007C27.1826 14.1775 27.1652 14.038 27.1926 13.9039C27.4801 12.1226 26.2446 10.705 25.2904 9.34546C25.2648 9.3079 25.2312 9.27647 25.1921 9.25341C25.1529 9.23036 25.1092 9.21625 25.0639 9.21211C25.0187 9.20797 24.9731 9.21389 24.9304 9.22945C24.8877 9.24502 24.849 9.26983 24.817 9.30212C24.252 9.74429 23.7947 10.309 23.4799 10.9537C23.165 11.5984 23.0007 12.3063 22.9993 13.0237C23.0094 13.1577 22.9762 13.2914 22.9045 13.4049C22.8327 13.5185 22.7264 13.6061 22.6011 13.6545C22.4758 13.703 22.3383 13.7099 22.2088 13.6742C22.0793 13.6385 21.9647 13.5621 21.882 13.4562ZM30.0001 21.2498V18.7498C30.0001 18.4183 29.8684 18.1003 29.6339 17.8659C29.3995 17.6315 29.0816 17.4998 28.7501 17.4998H22.5001C22.1685 17.4998 21.8506 17.6315 21.6162 17.8659C21.3817 18.1003 21.2501 18.4183 21.2501 18.7498V21.2498H19.0829L17.9468 19.3565C17.8625 19.2156 17.7512 19.0927 17.6193 18.9949C17.4874 18.8971 17.3375 18.8263 17.1782 18.7865C17.0189 18.7467 16.8533 18.7387 16.6909 18.763C16.5285 18.7872 16.3724 18.8433 16.2317 18.928L15.6421 19.2817L8.12505 6.26167L3.79492 8.76167C3.22071 9.09324 2.80172 9.63932 2.63012 10.2798C2.45851 10.9203 2.54834 11.6027 2.87984 12.1769L9.75484 24.0847C9.91899 24.369 10.1375 24.6182 10.398 24.8181C10.6585 25.018 10.9557 25.1646 11.2729 25.2495C11.59 25.3345 11.9207 25.3562 12.2462 25.3133C12.5717 25.2705 12.8856 25.1639 13.1699 24.9998L16.2501 23.2215V32.4998C16.2501 33.1628 16.5135 33.7987 16.9823 34.2675C17.4511 34.7364 18.087 34.9998 18.7501 34.9998H32.5001C33.1631 34.9998 33.799 34.7364 34.2678 34.2675C34.7366 33.7987 35 33.1628 35.0001 32.4998V21.2498H30.0001Z" fill="#1F824A"/>
</svg>
