<svg width="40" height="40" viewBox="0 0 40 40" fill="none" xmlns="http://www.w3.org/2000/svg">
<path d="M33.75 17.5V22.5C33.75 22.8315 33.6183 23.1495 33.3839 23.3839C33.1495 23.6183 32.8315 23.75 32.5 23.75H23.75V32.5C23.75 32.8315 23.6183 33.1495 23.3839 33.3839C23.1495 33.6183 22.8315 33.75 22.5 33.75H17.5C17.1685 33.75 16.8505 33.6183 16.6161 33.3839C16.3817 33.1495 16.25 32.8315 16.25 32.5V23.75H7.5C7.16848 23.75 6.85054 23.6183 6.61612 23.3839C6.3817 23.1495 6.25 22.8315 6.25 22.5V17.5C6.25 17.1685 6.3817 16.8505 6.61612 16.6161C6.85054 16.3817 7.16848 16.25 7.5 16.25H16.25V7.5C16.25 7.16848 16.3817 6.85054 16.6161 6.61612C16.8505 6.3817 17.1685 6.25 17.5 6.25H22.5C22.8315 6.25 23.1495 6.3817 23.3839 6.61612C23.6183 6.85054 23.75 7.16848 23.75 7.5V16.25H32.5C32.8315 16.25 33.1495 16.3817 33.3839 16.6161C33.6183 16.8505 33.75 17.1685 33.75 17.5Z" fill="#1F824A"/>
</svg>
