<svg width="80" height="80" viewBox="0 0 80 80" fill="none" xmlns="http://www.w3.org/2000/svg">
<path d="M37.8206 17.0909C37.8206 11.3745 45.6116 7.28338 49.787 13.1361C49.8112 13.171 49.8435 13.1995 49.881 13.2194C49.9185 13.2393 49.9603 13.25 50.0027 13.2506C50.0452 13.2511 50.0872 13.2415 50.1252 13.2226C50.1633 13.2037 50.1962 13.176 50.2214 13.1418C51.0379 11.9946 52.2004 11.1391 53.5385 10.7006C54.8767 10.2622 56.32 10.2639 57.6571 10.7055C58.9942 11.147 60.1547 12.0053 60.9685 13.1544C61.7823 14.3035 62.2067 15.683 62.1794 17.0909C62.1794 22.0805 55.8365 26.0655 50.7689 31.6348C50.672 31.7427 50.5534 31.829 50.4209 31.8881C50.2885 31.9471 50.145 31.9777 50 31.9777C49.855 31.9777 49.7115 31.9471 49.5791 31.8881C49.4466 31.829 49.328 31.7427 49.2311 31.6348C44.1635 26.0655 37.8206 22.0805 37.8206 17.0909ZM14.2677 49.2679C13.7989 48.799 13.163 48.5357 12.5 48.5357C11.837 48.5357 11.2011 48.799 10.7323 49.2679L5 55.0001L22.5 72.5001L28.2323 66.7679C28.7011 66.299 28.9645 65.6631 28.9645 65.0001C28.9645 64.3371 28.7011 63.7012 28.2323 63.2324L14.2677 49.2679ZM74.7315 44.8585C74.549 44.4011 74.2781 43.9842 73.9344 43.6315C73.5907 43.2789 73.1808 42.9975 72.7282 42.8034C72.2756 42.6093 71.7892 42.5063 71.2967 42.5003C70.8043 42.4944 70.3156 42.5856 69.8584 42.7687L62.1068 45.8693L52.4438 49.8146C52.1439 49.9369 51.823 49.9999 51.499 50.0001H40C39.337 50.0001 38.7011 49.7367 38.2322 49.2679C37.7634 48.7991 37.5 48.1632 37.5 47.5001C37.5 46.8371 37.7634 46.2012 38.2322 45.7324C38.7011 45.2635 39.337 45.0001 40 45.0001H51.0083L54.005 43.7767C54.4996 43.2425 54.8274 42.5755 54.9482 41.8575C55.069 41.1396 54.9775 40.402 54.6849 39.7354C54.3922 39.0687 53.9113 38.5021 53.3011 38.105C52.6909 37.7079 51.978 37.4977 51.25 37.5001H42.5L34.1823 35.3371C33.0921 35.1186 31.9602 35.2698 30.9656 35.7667L23.2239 39.6385C22.7439 39.8786 22.3058 40.1944 21.9264 40.5739L17.5 45.0001L32.5 60.0001H46.25C46.7268 60.0004 47.1992 59.9092 47.6416 59.7316L72.6416 49.7316C73.0988 49.5489 73.5156 49.2779 73.8681 48.9341C74.2206 48.5904 74.5019 48.1805 74.696 47.728C74.8901 47.2754 74.9931 46.7891 74.9992 46.2968C75.0053 45.8044 74.9143 45.3157 74.7315 44.8585Z" fill="#E37873"/>
</svg>
