<svg width="24" height="24" viewBox="0 0 24 24" fill="none" xmlns="http://www.w3.org/2000/svg">
<path d="M11.3462 5.12717C11.3462 3.41225 13.6835 2.18492 14.9361 3.94073C14.9434 3.95119 14.953 3.95976 14.9643 3.96573C14.9756 3.97171 14.9881 3.97491 15.0008 3.97507C15.0136 3.97524 15.0262 3.97236 15.0376 3.96669C15.049 3.96101 15.0589 3.95269 15.0664 3.94243C15.3114 3.59827 15.6601 3.34162 16.0616 3.2101C16.463 3.07857 16.896 3.07908 17.2971 3.21155C17.6982 3.34402 18.0464 3.60148 18.2905 3.94621C18.5347 4.29095 18.662 4.70481 18.6538 5.12717C18.6538 6.62405 16.7509 7.81955 15.2307 9.49034C15.2016 9.52271 15.166 9.5486 15.1263 9.56632C15.0865 9.58404 15.0435 9.5932 15 9.5932C14.9565 9.5932 14.9135 9.58404 14.8737 9.56632C14.834 9.5486 14.7984 9.52271 14.7693 9.49034C13.2491 7.81955 11.3462 6.62405 11.3462 5.12717ZM4.28032 14.7803C4.13967 14.6396 3.94891 14.5606 3.75 14.5606C3.55109 14.5606 3.36033 14.6396 3.21968 14.7803L1.5 16.4999L6.75 21.7499L8.46968 20.0303C8.61033 19.8896 8.68934 19.6988 8.68934 19.4999C8.68934 19.301 8.61033 19.1103 8.46968 18.9696L4.28032 14.7803ZM22.4194 13.4575C22.3647 13.3202 22.2834 13.1952 22.1803 13.0894C22.0772 12.9836 21.9542 12.8991 21.8185 12.8409C21.6827 12.7827 21.5367 12.7518 21.389 12.75C21.2413 12.7482 21.0947 12.7756 20.9575 12.8305L18.632 13.7607L15.7332 14.9443C15.6432 14.981 15.5469 14.9999 15.4497 14.9999H12C11.8011 14.9999 11.6103 14.9209 11.4697 14.7803C11.329 14.6396 11.25 14.4489 11.25 14.2499C11.25 14.051 11.329 13.8603 11.4697 13.7196C11.6103 13.579 11.8011 13.4999 12 13.4999H15.3025L16.2015 13.1329C16.3499 12.9726 16.4482 12.7725 16.4845 12.5572C16.5207 12.3418 16.4932 12.1205 16.4055 11.9205C16.3177 11.7205 16.1734 11.5505 15.9903 11.4314C15.8073 11.3123 15.5934 11.2492 15.375 11.2499H12.75L10.2547 10.601C9.92763 10.5355 9.58806 10.5808 9.28967 10.7299L6.96716 11.8915C6.82318 11.9635 6.69175 12.0582 6.57791 12.1721L5.25 13.4999L9.75 17.9999H13.875C14.018 18 14.1598 17.9727 14.2925 17.9194L21.7925 14.9194C21.9297 14.8646 22.0547 14.7833 22.1604 14.6801C22.2662 14.577 22.3506 14.4541 22.4088 14.3183C22.467 14.1825 22.4979 14.0366 22.4998 13.8889C22.5016 13.7412 22.4743 13.5946 22.4194 13.4575Z" fill="white"/>
</svg>
