<svg width="24" height="24" viewBox="0 0 24 24" fill="none" xmlns="http://www.w3.org/2000/svg">
<path d="M21.75 9.75V6C21.75 5.80109 21.671 5.61032 21.5303 5.46967C21.3897 5.32902 21.1989 5.25 21 5.25H18V6.75H16.5V5.25H3C2.80109 5.25 2.61032 5.32902 2.46967 5.46967C2.32902 5.61032 2.25 5.80109 2.25 6V9.75C2.84674 9.75 3.41903 9.98705 3.84099 10.409C4.26295 10.831 4.5 11.4033 4.5 12C4.5 12.5967 4.26295 13.169 3.84099 13.591C3.41903 14.0129 2.84674 14.25 2.25 14.25V18C2.25 18.1989 2.32902 18.3897 2.46967 18.5303C2.61032 18.671 2.80109 18.75 3 18.75H16.5V17.25H18V18.75H21C21.1989 18.75 21.3897 18.671 21.5303 18.5303C21.671 18.3897 21.75 18.1989 21.75 18V14.25C21.1533 14.25 20.581 14.0129 20.159 13.591C19.7371 13.169 19.5 12.5967 19.5 12C19.5 11.4033 19.7371 10.831 20.159 10.409C20.581 9.98705 21.1533 9.75 21.75 9.75ZM18 15.75H16.5V14.25H18V15.75ZM18 12.75H16.5V11.25H18V12.75ZM18 9.75H16.5V8.25H18V9.75Z" fill="#1F2023"/>
</svg>
