<svg width="40" height="40" viewBox="0 0 40 40" fill="none" xmlns="http://www.w3.org/2000/svg">
<path d="M36.25 16.25V10C36.25 9.66848 36.1183 9.35054 35.8839 9.11612C35.6495 8.8817 35.3315 8.75 35 8.75H30V11.25H27.5V8.75H5C4.66848 8.75 4.35054 8.8817 4.11612 9.11612C3.8817 9.35054 3.75 9.66848 3.75 10V16.25C4.74456 16.25 5.69839 16.6451 6.40165 17.3483C7.10491 18.0516 7.5 19.0054 7.5 20C7.5 20.9946 7.10491 21.9484 6.40165 22.6517C5.69839 23.3549 4.74456 23.75 3.75 23.75V30C3.75 30.3315 3.8817 30.6495 4.11612 30.8839C4.35054 31.1183 4.66848 31.25 5 31.25H27.5V28.75H30V31.25H35C35.3315 31.25 35.6495 31.1183 35.8839 30.8839C36.1183 30.6495 36.25 30.3315 36.25 30V23.75C35.2554 23.75 34.3016 23.3549 33.5983 22.6517C32.8951 21.9484 32.5 20.9946 32.5 20C32.5 19.0054 32.8951 18.0516 33.5983 17.3483C34.3016 16.6451 35.2554 16.25 36.25 16.25ZM30 26.25H27.5V23.75H30V26.25ZM30 21.25H27.5V18.75H30V21.25ZM30 16.25H27.5V13.75H30V16.25Z" fill="#FF9951"/>
</svg>
