<svg width="24" height="24" viewBox="0 0 24 24" fill="none" xmlns="http://www.w3.org/2000/svg">
<path d="M12 3C11.1136 2.99999 10.2358 3.17458 9.41688 3.51379C8.59792 3.85301 7.8538 4.35021 7.22701 4.97701C6.60021 5.6038 6.10301 6.34792 5.76379 7.16688C5.42458 7.98583 5.24999 8.86357 5.25 9.75C5.25 14.25 10.3187 19.5582 11.3712 20.7235C11.4511 20.8107 11.5483 20.8802 11.6565 20.9278C11.7648 20.9754 11.8817 21 12 21C12.1183 21 12.2352 20.9754 12.3435 20.9278C12.4517 20.8802 12.5489 20.8107 12.6288 20.7235C13.6813 19.5582 18.75 14.25 18.75 9.75C18.75 8.86357 18.5754 7.98583 18.2362 7.16688C17.897 6.34792 17.3998 5.6038 16.773 4.97701C16.1462 4.35021 15.4021 3.85301 14.5831 3.51379C13.7642 3.17458 12.8864 2.99999 12 3ZM12 13.5C11.2583 13.5 10.5333 13.2801 9.91661 12.868C9.29993 12.456 8.81928 11.8703 8.53545 11.1851C8.25162 10.4998 8.17736 9.74584 8.32205 9.01841C8.46675 8.29098 8.8239 7.6228 9.34835 7.09835C9.8728 6.5739 10.541 6.21675 11.2684 6.07205C11.9958 5.92736 12.7498 6.00162 13.4351 6.28545C14.1203 6.56928 14.706 7.04993 15.118 7.66661C15.5301 8.2833 15.75 9.00832 15.75 9.75C15.75 10.7446 15.3549 11.6984 14.6516 12.4016C13.9484 13.1049 12.9946 13.5 12 13.5Z" fill="#1F2023"/>
</svg>
