<svg viewBox="0 0 18 18" fill="none" xmlns="http://www.w3.org/2000/svg">
<g clip-path="url(#clip0_4356_12327)">
<path d="M9 17.4375C13.6599 17.4375 17.4375 13.6599 17.4375 9C17.4375 4.3401 13.6599 0.5625 9 0.5625C4.3401 0.5625 0.5625 4.3401 0.5625 9C0.5625 13.6599 4.3401 17.4375 9 17.4375Z" stroke="white" stroke-width="1.5" stroke-linecap="round" stroke-linejoin="round"/>
<path d="M3.75 15.6L4.5 11.8125H5.31C5.48106 11.8131 5.64994 11.7741 5.80346 11.6987C5.95698 11.6232 6.09098 11.5133 6.195 11.3775C6.30215 11.2448 6.37636 11.0887 6.41155 10.9218C6.44675 10.755 6.44193 10.5821 6.3975 10.4175L5.835 8.1675C5.77605 7.92358 5.63672 7.7066 5.43945 7.5515C5.24218 7.3964 4.99844 7.31222 4.7475 7.3125H0.75" stroke="white" stroke-width="1.5" stroke-linecap="round" stroke-linejoin="round"/>
<path d="M15.7499 3.9375H12.6899C12.4389 3.93722 12.1952 4.0214 11.9979 4.1765C11.8006 4.3316 11.6613 4.54858 11.6024 4.7925L11.0399 7.0425C10.9964 7.20772 10.9928 7.38089 11.0293 7.54777C11.0658 7.71465 11.1414 7.8705 11.2499 8.0025C11.3539 8.1383 11.4879 8.24822 11.6414 8.32368C11.7949 8.39913 11.9638 8.43809 12.1349 8.4375H13.3199L13.9049 12C13.9487 12.2597 14.0824 12.4958 14.2825 12.6672C14.4826 12.8385 14.7365 12.9342 14.9999 12.9375H16.4999" stroke="white" stroke-width="1.5" stroke-linecap="round" stroke-linejoin="round"/>
</g>
<defs>
<clipPath id="clip0_4356_12327">
<rect width="18" height="18" fill="white"/>
</clipPath>
</defs>
</svg>
